<?xml version="1.0" encoding="UTF-8"?>
<svg width="321px" height="187px" viewBox="0 0 321 187" version="1.1" xmlns="http://www.w3.org/2000/svg" xmlns:xlink="http://www.w3.org/1999/xlink">
    <!-- Generator: Sketch 63.1 (92452) - https://sketch.com -->
    <title>Mobile</title>
    <desc>Created with Sketch.</desc>
    <g id="Mobile" stroke="none" stroke-width="1" fill="none" fill-rule="evenodd">
        <g id="Group-6" transform="translate(18.000000, 20.000000)" fill-rule="nonzero">
            <g id="Row-1" transform="translate(3.000000, 0.000000)">
                <g id="ipad" transform="translate(-0.000000, 0.000000)" fill="#000000">
                    <path d="M13.1034483,12.3862069 C12.8551724,12.937931 12.5793103,13.462069 12.2482759,13.9310345 C11.8068966,14.5655172 11.4206897,15.0068966 11.1448276,15.2551724 C10.7034483,15.6689655 10.2344828,15.862069 9.73793103,15.8896552 C9.37931034,15.8896552 8.93793103,15.7793103 8.44137931,15.5862069 C7.94482759,15.3655172 7.47586207,15.2827586 7.03448276,15.2827586 C6.59310345,15.2827586 6.09655172,15.3931034 5.6,15.5862069 C5.07586207,15.8068966 4.66206897,15.9172414 4.35862069,15.9172414 C3.86206897,15.9448276 3.39310345,15.7241379 2.92413793,15.2827586 C2.62068966,15.0068966 2.23448276,14.5655172 1.76551724,13.9034483 C1.26896552,13.2137931 0.855172414,12.4137931 0.551724138,11.4758621 C0.165517241,10.4551724 0,9.48965517 0,8.57931034 C0,7.50344828 0.220689655,6.59310345 0.689655172,5.82068966 C1.04827586,5.2137931 1.54482759,4.71724138 2.12413793,4.35862069 C2.70344828,4 3.36551724,3.80689655 4.08275862,3.80689655 C4.46896552,3.80689655 4.96551724,3.91724138 5.6,4.16551724 C6.23448276,4.3862069 6.62068966,4.52413793 6.7862069,4.52413793 C6.92413793,4.52413793 7.36551724,4.3862069 8.11034483,4.11034483 C8.82758621,3.86206897 9.43448276,3.75172414 9.93103448,3.77931034 C11.2551724,3.88965517 12.2758621,4.4137931 12.937931,5.35172414 C11.7517241,6.06896552 11.1448276,7.08965517 11.1724138,8.3862069 C11.1724138,9.40689655 11.5586207,10.2344828 12.2758621,10.9241379 C12.6068966,11.2275862 12.9655172,11.4758621 13.3793103,11.6413793 C13.2965517,11.8896552 13.1862069,12.137931 13.1034483,12.3862069 L13.1034483,12.3862069 Z M10.0413793,0.331034483 C10.0413793,1.13103448 9.73793103,1.87586207 9.1862069,2.56551724 C8.49655172,3.39310345 7.64137931,3.86206897 6.73103448,3.77931034 C6.73103448,3.69655172 6.70344828,3.5862069 6.70344828,3.47586207 C6.70344828,2.70344828 7.03448276,1.90344828 7.6137931,1.24137931 C7.91724138,0.910344828 8.27586207,0.634482759 8.74482759,0.386206897 C9.1862069,0.165517241 9.62758621,0.0551724138 10.0413793,0.0275862069 C10.0137931,0.110344828 10.0413793,0.220689655 10.0413793,0.331034483 L10.0413793,0.331034483 Z" id="Shape"></path>
                    <g id="Group" transform="translate(15.448276, 1.379310)">
                        <path d="M0.0827586207,1.35172414 C0.0827586207,0.689655172 0.634482759,0.137931034 1.29655172,0.137931034 C1.95862069,0.137931034 2.51034483,0.662068966 2.51034483,1.35172414 C2.51034483,2.0137931 1.9862069,2.56551724 1.29655172,2.56551724 C0.606896552,2.56551724 0.0827586207,2.0137931 0.0827586207,1.35172414 Z M0.248275862,4.19310345 L2.34482759,4.19310345 L2.34482759,14.4 L0.248275862,14.4 L0.248275862,4.19310345 Z" id="Shape"></path>
                        <path d="M9.48965517,0.413793103 C12.1931034,0.413793103 14.0965517,2.28965517 14.0965517,5.02068966 C14.0965517,7.75172414 12.1655172,9.62758621 9.43448276,9.62758621 L6.42758621,9.62758621 L6.42758621,14.4 L4.24827586,14.4 L4.24827586,0.413793103 L9.48965517,0.413793103 Z M6.42758621,7.80689655 L8.91034483,7.80689655 C10.8137931,7.80689655 11.8896552,6.7862069 11.8896552,5.02068966 C11.8896552,3.25517241 10.8137931,2.23448276 8.93793103,2.23448276 L6.42758621,2.23448276 L6.42758621,7.80689655 Z" id="Shape"></path>
                        <path d="M14.0413793,11.5034483 C14.0413793,9.71034483 15.4206897,8.63448276 17.8206897,8.49655172 L20.6068966,8.33103448 L20.6068966,7.55862069 C20.6068966,6.42758621 19.8344828,5.73793103 18.5655172,5.73793103 C17.3517241,5.73793103 16.6068966,6.31724138 16.4137931,7.22758621 L14.4275862,7.22758621 C14.537931,5.37931034 16.1103448,4.02758621 18.6482759,4.02758621 C21.1310345,4.02758621 22.7034483,5.32413793 22.7034483,7.39310345 L22.7034483,14.4275862 L20.6896552,14.4275862 L20.6896552,12.7448276 L20.6344828,12.7448276 C20.0551724,13.8758621 18.7586207,14.5931034 17.4068966,14.5931034 C15.4482759,14.5655172 14.0413793,13.3241379 14.0413793,11.5034483 Z M20.6344828,10.5931034 L20.6344828,9.79310345 L18.1241379,9.95862069 C16.8827586,10.0413793 16.1655172,10.5931034 16.1655172,11.4758621 C16.1655172,12.3586207 16.9103448,12.937931 18.0413793,12.937931 C19.4758621,12.9103448 20.6344828,11.9172414 20.6344828,10.5931034 Z" id="Shape"></path>
                        <path d="M23.7793103,9.29655172 C23.7793103,6.06896552 25.4896552,4.02758621 28.0551724,4.02758621 C29.5172414,4.02758621 30.6758621,4.77241379 31.2551724,5.90344828 L31.2827586,5.90344828 L31.2827586,0.413793103 L33.3793103,0.413793103 L33.3793103,14.4 L31.337931,14.4 L31.337931,12.662069 L31.3103448,12.662069 C30.7034483,13.8206897 29.5448276,14.5655172 28.0551724,14.5655172 C25.4896552,14.5655172 23.7793103,12.5241379 23.7793103,9.29655172 Z M25.9310345,9.29655172 C25.9310345,11.4482759 26.9793103,12.8 28.6344828,12.8 C30.2344828,12.8 31.3103448,11.4206897 31.3103448,9.29655172 C31.3103448,7.17241379 30.2344828,5.79310345 28.6344828,5.79310345 C26.9793103,5.79310345 25.9310345,7.17241379 25.9310345,9.29655172 Z" id="Shape"></path>
                    </g>
                </g>
                <g id="apple-tv" transform="translate(160.000000, 0.000000)" fill="#000000">
                    <path d="M19.837301,1.39130435 L19.837301,3.98971525 L23.1276385,3.98971525 L23.1276385,4.92111345 L19.837301,4.92111345 L19.837301,12.5927933 C19.837301,13.3773537 19.9648855,13.9775353 20.2210138,14.3942885 C20.4766625,14.8110417 20.9174526,15.0191807 21.5448231,15.0191807 C21.8417209,15.0191807 22.0973695,15.0030238 22.3117691,14.9702347 C22.5261686,14.9379209 22.7074729,14.8965783 22.8561616,14.8476323 L22.979909,15.7300846 C22.5842052,15.9097114 22.0561204,16 21.396614,16 C20.8522214,16 20.4027977,15.9097114 20.048343,15.7300846 C19.6934087,15.5504578 19.4132983,15.3014513 19.2070526,14.98259 C19.000807,14.6637287 18.856435,14.2802398 18.7739368,13.8306976 C18.6909589,13.3816306 18.6501894,12.8954977 18.6501894,12.372299 L18.6501894,4.92111345 L16.6956522,4.92111345 L16.6956522,3.98971525 L18.6501894,3.98971525 L18.6501894,1.83229288 L19.837301,1.39130435 L19.837301,1.39130435 Z M25.0327727,3.98924004 L27.7542559,11.2935879 C27.9849633,11.8657325 28.1912089,12.4050881 28.3725132,12.9111794 C28.5538175,13.417746 28.7269679,13.9162341 28.8919645,14.4061686 L28.9413675,14.4061686 C29.1058844,13.932391 29.2833515,13.4377045 29.4732894,12.9230595 C29.6627476,12.4084145 29.87331,11.8652573 30.1040174,11.2931127 L32.8499623,3.98876484 L34.0869565,3.98876484 L29.361533,15.7538448 L28.3470922,15.7538448 L23.7957784,3.98924004 L25.0327727,3.98924004 Z" id="Shape"></path>
                    <path d="M7.29282162,1.39234378 C8.35825577,0.00669396049 9.83939819,0 9.83939819,0 C9.83939819,0 10.0598495,1.3029316 9.00119852,2.55757105 C7.87132475,3.89779757 6.58689277,3.67833129 6.58689277,3.67833129 C6.58689277,3.67833129 6.34560755,2.62451065 7.29282162,1.39234378 L7.29282162,1.39234378 Z M6.72207064,4.59110062 C7.27004973,4.59110062 8.28703302,3.84759286 9.6111947,3.84759286 C11.8903226,3.84759286 12.7866633,5.44792756 12.7866633,5.44792756 C12.7866633,5.44792756 11.0332271,6.33248663 11.0332271,8.47933539 C11.0332271,10.9011147 13.2173913,11.735469 13.2173913,11.735469 C13.2173913,11.735469 11.6907051,15.9765711 9.62815249,15.9765711 C8.68093842,15.9765711 7.94448553,15.3463826 6.94639806,15.3463826 C5.92941476,15.3463826 4.91969909,16 4.2627056,16 C2.37942114,16.0004781 0,11.9769297 0,8.74326868 C0,5.56124675 2.01410175,3.89205989 3.9027158,3.89205989 C5.13094479,3.89205989 6.08397297,4.59110062 6.72207064,4.59110062 Z" id="Shape"></path>
                </g>
                <g id="iphone" transform="translate(69.000000, 0.000000)" fill="#010101">
                    <path d="M13.0951724,12.3751724 C12.8551724,12.9296552 12.5710345,13.44 12.24,13.9089655 C11.7903448,14.5489655 11.4234483,14.9931034 11.1393103,15.2386207 C10.7006897,15.6413793 10.2289655,15.8482759 9.72689655,15.862069 C9.36551724,15.862069 8.92965517,15.76 8.42206897,15.5503448 C7.91172414,15.3434483 7.44551724,15.2386207 7.01517241,15.2386207 C6.56551724,15.2386207 6.08551724,15.3406897 5.56965517,15.5503448 C5.0537931,15.76 4.63724138,15.8675862 4.32,15.8786207 C3.83724138,15.897931 3.35448276,15.6855172 2.87448276,15.2386207 C2.56827586,14.9710345 2.18482759,14.5131034 1.72413793,13.862069 C1.23310345,13.1696552 0.827586207,12.3641379 0.510344828,11.4482759 C0.171034483,10.457931 0,9.49793103 0,8.56827586 C0,7.50344828 0.228965517,6.58482759 0.689655172,5.81793103 C1.05103448,5.2 1.5337931,4.71172414 2.13517241,4.35586207 C2.73655172,4 3.39034483,3.81517241 4.09103448,3.80413793 C4.47448276,3.80413793 4.97931034,3.92275862 5.60275862,4.15724138 C6.2262069,4.39172414 6.6262069,4.51034483 6.80275862,4.51034483 C6.93517241,4.51034483 7.37931034,4.37241379 8.13241379,4.0937931 C8.84689655,3.83724138 9.44827586,3.72965517 9.93931034,3.7737931 C11.2744828,3.88137931 12.2786207,4.40827586 12.9462069,5.35724138 C11.7517241,6.08 11.1613793,7.09517241 11.1724138,8.39724138 C11.1834483,9.40965517 11.5503448,10.2537931 12.2731034,10.9241379 C12.6013793,11.2358621 12.9655172,11.4758621 13.3737931,11.6468966 C13.2882759,11.8951724 13.1944828,12.1406897 13.0951724,12.3751724 L13.0951724,12.3751724 Z M10.0331034,0.317241379 C10.0331034,1.11172414 9.74344828,1.8537931 9.16413793,2.54068966 C8.4662069,3.35724138 7.62206897,3.82896552 6.7062069,3.75448276 C6.69517241,3.65793103 6.68689655,3.55862069 6.68689655,3.4537931 C6.68689655,2.69241379 7.01793103,1.87586207 7.60827586,1.20827586 C7.90344828,0.871724138 8.27586207,0.590344828 8.73103448,0.366896552 C9.18344828,0.146206897 9.61103448,0.0248275862 10.0165517,0.00275862069 C10.0275862,0.104827586 10.0331034,0.212413793 10.0331034,0.317241379 L10.0331034,0.317241379 Z" id="Shape"></path>
                    <g id="Group" transform="translate(15.448276, 1.379310)">
                        <path d="M0.0910344828,1.35172414 C0.0910344828,0.68137931 0.634482759,0.148965517 1.30206897,0.148965517 C1.96965517,0.148965517 2.50482759,0.68137931 2.50482759,1.35172414 C2.50482759,2.01103448 1.97241379,2.55448276 1.30206897,2.55448276 C0.631724138,2.55448276 0.0910344828,2.01103448 0.0910344828,1.35172414 Z M0.256551724,4.20137931 L2.35034483,4.20137931 L2.35034483,14.4027586 L0.256551724,14.4027586 L0.256551724,4.20137931 L0.256551724,4.20137931 Z" id="Shape"></path>
                        <path d="M9.49517241,0.408275862 C12.2096552,0.408275862 14.102069,2.28137931 14.102069,5.00413793 C14.102069,7.73793103 12.1710345,9.61931034 9.4262069,9.61931034 L6.41931034,9.61931034 L6.41931034,14.4 L4.24827586,14.4 L4.24827586,0.408275862 L9.49517241,0.408275862 Z M6.42206897,7.79862069 L8.91586207,7.79862069 C10.8082759,7.79862069 11.8841379,6.78068966 11.8841379,5.01517241 C11.8841379,3.24965517 10.8082759,2.24275862 8.92689655,2.24275862 L6.42482759,2.24275862 L6.42482759,7.79862069 L6.42206897,7.79862069 Z" id="Shape"></path>
                        <path d="M15.3324138,0.408275862 L17.4068966,0.408275862 L17.4068966,5.9062069 L17.4565517,5.9062069 C18.0193103,4.71448276 19.1337931,4.02482759 20.6868966,4.02482759 C22.9268966,4.02482759 24.2648276,5.51724138 24.2648276,7.8262069 L24.2648276,14.4027586 L22.16,14.4027586 L22.16,8.23724138 C22.16,6.7337931 21.4041379,5.83172414 19.9282759,5.83172414 C18.377931,5.83172414 17.4262069,6.89931034 17.4262069,8.50758621 L17.4262069,14.4055172 L15.3324138,14.4055172 L15.3324138,0.408275862 L15.3324138,0.408275862 Z" id="Path"></path>
                        <path d="M25.3296552,9.30206897 C25.3296552,6.02482759 27.2606897,4.01655172 30.1682759,4.01655172 C33.0758621,4.01655172 35.0068966,6.02482759 35.0068966,9.30206897 C35.0068966,12.5903448 33.0868966,14.5986207 30.1682759,14.5986207 C27.2496552,14.5986207 25.3296552,12.5903448 25.3296552,9.30206897 Z M32.8744828,9.30206897 C32.8744828,7.04275862 31.8068966,5.74344828 30.1682759,5.74344828 C28.5296552,5.74344828 27.462069,7.04275862 27.462069,9.30206897 C27.462069,11.5724138 28.5296552,12.8717241 30.1682759,12.8717241 C31.817931,12.8717241 32.8744828,11.5724138 32.8744828,9.30206897 Z" id="Shape"></path>
                        <path d="M36.1324138,4.20137931 L38.1296552,4.20137931 L38.1296552,5.90896552 L38.1793103,5.90896552 C38.7310345,4.74482759 39.817931,4.02758621 41.3903448,4.02758621 C43.6413793,4.02758621 44.9296552,5.46206897 44.9296552,7.80137931 L44.9296552,14.4055172 L42.8248276,14.4055172 L42.8248276,8.20689655 C42.8248276,6.67586207 42.1075862,5.83172414 40.6510345,5.83172414 C39.177931,5.83172414 38.2262069,6.88 38.2262069,8.46068966 L38.2262069,14.4055172 L36.1324138,14.4055172 L36.1324138,4.20137931 L36.1324138,4.20137931 Z" id="Path"></path>
                        <path d="M55.1972414,11.4068966 C54.9075862,13.2689655 53.142069,14.5986207 50.8027586,14.5986207 C47.8068966,14.5986207 45.9917241,12.5710345 45.9917241,9.35172414 C45.9917241,6.15172414 47.8344828,4.01655172 50.7144828,4.01655172 C53.5475862,4.01655172 55.3103448,6.0137931 55.3103448,9.10896552 L55.3103448,9.8262069 L48.1048276,9.8262069 L48.1048276,9.95310345 C48.1048276,11.7268966 49.1724138,12.902069 50.8496552,12.902069 C52.0413793,12.902069 52.9241379,12.3006897 53.2055172,11.4096552 L55.1972414,11.4096552 L55.1972414,11.4068966 Z M48.1158621,8.36137931 L53.2165517,8.36137931 C53.1668966,6.8 52.1793103,5.70482759 50.7144828,5.70482759 C49.2496552,5.70482759 48.2234483,6.81931034 48.1158621,8.36137931 Z" id="Shape"></path>
                    </g>
                </g>
                <g id="android" transform="translate(213.000000, 2.000000)" fill="#000000">
                    <path d="M0,8.78207739 C0,8.05110165 0.123493554,7.36678393 0.373108184,6.73430846 C0.622722814,6.10183299 0.969555774,5.5471209 1.41623459,5.07794853 C1.8629134,4.60877615 2.39892797,4.23810405 3.02165078,3.97111646 C3.6443736,3.70412887 4.32752943,3.56933901 5.06849075,3.56933901 C5.63078055,3.56933901 6.14314742,3.65228661 6.60296385,3.81558971 C7.06278027,3.9788928 7.50945908,4.24588039 7.94037276,4.6191446 L7.94037276,3.76633957 L10.4627943,3.76633957 L10.4627943,13.8029994 L7.94037276,13.8029994 L7.94037276,12.9501944 C7.50945908,13.3234586 7.06540779,13.5904462 6.60296385,13.7537493 C6.14314742,13.9170524 5.63078055,14 5.06849075,14 C4.32752943,14 3.6443736,13.8652101 3.02165078,13.5982226 C2.39892797,13.331235 1.8629134,12.9605629 1.41623459,12.4913905 C0.969555774,12.019626 0.622722814,11.467506 0.373108184,10.8350305 C0.126121076,10.1947787 0,9.51305314 0,8.78207739 Z M5.39693105,11.6541381 C5.59662276,11.6541381 5.80419703,11.6334012 6.02228139,11.5893353 C6.24036575,11.5478615 6.46107763,11.4752824 6.68178952,11.37419 C6.9025014,11.2730976 7.12058576,11.1383077 7.33341508,10.9672283 C7.54624439,10.7961489 7.74856362,10.5887799 7.94037276,10.339937 L7.94037276,7.22162562 C7.74856362,6.97278282 7.54624439,6.76541381 7.33341508,6.59951861 C7.12058576,6.4336234 6.90512892,6.29624144 6.68178952,6.19255693 C6.45845011,6.08887243 6.24036575,6.01370117 6.02228139,5.97222737 C5.80419703,5.93075356 5.59399524,5.90742455 5.39693105,5.90742455 C5.00543021,5.90742455 4.6402046,5.9800037 4.29862668,6.12256989 C3.95704877,6.26513609 3.66013873,6.46732087 3.4105241,6.72653212 C3.15828195,6.98574338 2.96121777,7.28902055 2.81933156,7.63895575 C2.67744535,7.98889095 2.60650224,8.36993149 2.60650224,8.77948528 C2.60650224,9.19163118 2.67744535,9.57267173 2.81933156,9.92260692 C2.96121777,10.2725421 3.15828195,10.5758193 3.4105241,10.8350305 C3.66276626,11.0942418 3.95967629,11.2938345 4.29862668,11.4389928 C4.6402046,11.581559 5.00543021,11.6541381 5.39693105,11.6541381 L5.39693105,11.6541381 Z M16.7714756,6.04480652 C15.5759529,6.05258286 14.5380816,6.87428254 14.5380816,8.09516756 L14.5380816,13.8004073 L12.01566,13.8004073 L12.01566,8.16256249 C12.0287976,5.81151639 14.0940303,3.59785225 16.7373178,3.5667469 L16.8082609,3.5667469 C19.454176,3.59785225 21.5167811,5.8141085 21.5299187,8.16256249 L21.5299187,13.7978152 L19.0074972,13.7978152 L19.0074972,8.09516756 C19.0048697,6.87428254 17.9643708,6.05258286 16.7714756,6.04480652 M22.7228139,8.78207739 C22.7228139,8.05110165 22.8463075,7.36678393 23.0959221,6.73430846 C23.3455367,6.10183299 23.6923697,5.5471209 24.1390485,5.07794853 C24.5857273,4.60877615 25.1217419,4.23810405 25.7444647,3.97111646 C26.3671875,3.70412887 27.0503433,3.56933901 27.7913047,3.56933901 C28.3535945,3.56933901 28.8685888,3.65228661 29.3310328,3.81558971 C29.7934767,3.9788928 30.237528,4.24328828 30.6631867,4.60877615 L30.6631867,0.754304758 L33.1856082,0.754304758 L33.1856082,13.8004073 L30.6631867,13.8004073 L30.6631867,12.9579707 C30.2401555,13.331235 29.7961043,13.5956304 29.3310328,13.7563414 C28.8659613,13.9170524 28.3535945,13.9974079 27.7913047,13.9974079 C27.0503433,13.9974079 26.3671875,13.862618 25.7444647,13.5956304 C25.1217419,13.3286428 24.5857273,12.9579707 24.1390485,12.4887984 C23.6923697,12.019626 23.3455367,11.4649139 23.0959221,10.8324384 C22.8463075,10.1947787 22.7228139,9.51305314 22.7228139,8.78207739 Z M28.1171174,11.6541381 C28.3168091,11.6541381 28.5243834,11.6334012 28.7424678,11.5893353 C28.9605521,11.5478615 29.181264,11.4752824 29.4019759,11.37419 C29.6226878,11.2730976 29.8407721,11.1383077 30.0536015,10.9672283 C30.2664308,10.7961489 30.46875,10.5887799 30.6605591,10.339937 L30.6605591,7.22162562 C30.46875,6.97278282 30.2664308,6.76541381 30.0536015,6.59951861 C29.8407721,6.4336234 29.6253153,6.29624144 29.4019759,6.19255693 C29.181264,6.08887243 28.9605521,6.01370117 28.7424678,5.97222737 C28.5243834,5.93075356 28.3141816,5.90742455 28.1171174,5.90742455 C27.7256166,5.90742455 27.360391,5.9800037 27.0188131,6.12256989 C26.6772351,6.26513609 26.3803251,6.46732087 26.1307105,6.72653212 C25.8784683,6.98574338 25.6814041,7.28902055 25.5395179,7.63895575 C25.3976317,7.98889095 25.3266886,8.36993149 25.3266886,8.77948528 C25.3266886,9.19163118 25.3976317,9.57267173 25.5395179,9.92260692 C25.6814041,10.2725421 25.8784683,10.5758193 26.1307105,10.8350305 C26.3829526,11.0942418 26.6798627,11.2938345 27.0188131,11.4389928 C27.360391,11.581559 27.7256166,11.6541381 28.1171174,11.6541381 L28.1171174,11.6541381 Z M45.0015765,11.6541381 C45.3799397,11.6541381 45.7346553,11.5841511 46.0683506,11.444177 C46.3967909,11.306795 46.6963285,11.1046103 46.9433156,10.8505832 C47.1929302,10.5965562 47.3873669,10.293279 47.5292531,9.94334383 C47.6711393,9.59340863 47.7420824,9.20718385 47.7420824,8.78207739 C47.7420824,8.36474727 47.6685118,7.98111461 47.523998,7.63117941 C47.3794843,7.28124421 47.1797926,6.98055916 46.9275504,6.72394001 C46.6779358,6.46991298 46.3810258,6.2677282 46.0525855,6.12516201 C45.7215177,5.98259582 45.3694297,5.91001666 44.998949,5.91001666 C44.6205858,5.91001666 44.2658702,5.98259582 43.9321749,6.12516201 C43.6037346,6.26513609 43.3068246,6.46732087 43.0572099,6.72394001 C42.8075953,6.97796704 42.6105311,7.28124421 42.4660174,7.63117941 C42.3215036,7.98111461 42.247933,8.36474727 42.247933,8.78207739 C42.247933,9.20718385 42.3188761,9.59340863 42.4607623,9.94334383 C42.6026485,10.293279 42.7997127,10.5939641 43.0466998,10.8505832 C43.2936869,11.1046103 43.590597,11.306795 43.9216648,11.444177 C44.2579877,11.581559 44.6179582,11.6541381 45.0015765,11.6541381 Z M45.0015765,13.9948158 C44.2658702,13.9948158 43.5748318,13.8652101 42.9258338,13.6034068 C42.2768358,13.3416034 41.7092909,12.9787076 41.2231993,12.5095353 C40.7371076,12.042955 40.3508618,11.490835 40.0697169,10.8531753 C39.788572,10.2155156 39.6466858,9.5260137 39.6466858,8.77948528 C39.6466858,8.05369376 39.788572,7.37456027 40.0697169,6.7420848 C40.3508618,6.10701722 40.7344801,5.55489724 41.2179442,5.08572487 C41.7014084,4.61396038 42.2689532,4.24328828 42.9205788,3.97370857 C43.5722043,3.70153675 44.2658702,3.5667469 45.0015765,3.5667469 C45.7372828,3.5667469 46.4283212,3.70153675 47.0773192,3.97370857 C47.7263173,4.24588039 48.2938621,4.61655249 48.7773262,5.08572487 C49.2607904,5.55489724 49.6444086,6.10960933 49.9255535,6.7420848 C50.2066984,7.37715238 50.3485846,8.05628587 50.3485846,8.77948528 C50.3485846,9.52342159 50.2066984,10.2155156 49.9255535,10.8531753 C49.6444086,11.490835 49.2607904,12.042955 48.7720712,12.5095353 C48.2859795,12.9761155 47.7184347,13.3416034 47.0720642,13.6034068 C46.4283212,13.8652101 45.7372828,13.9948158 45.0015765,13.9948158 Z M52.73963,2.97833734 C52.5346833,2.97833734 52.3428742,2.93945566 52.1589476,2.85910017 C51.9802761,2.78133679 51.8173697,2.67246806 51.6807385,2.53767821 C51.5441073,2.40288835 51.4337514,2.24217737 51.3549257,2.06591372 C51.2761001,1.88446584 51.2340597,1.6900574 51.2340597,1.49305684 C51.2340597,1.29087206 51.2734725,1.09905573 51.3549257,0.91760785 C51.4311239,0.738752083 51.5414798,0.578041103 51.6807385,0.440659137 C51.8173697,0.305869283 51.9802761,0.197000555 52.1589476,0.119237178 C52.3428742,0.0414738011 52.5399383,0 52.73963,0 C52.9445768,0 53.1390135,0.0388816886 53.32294,0.119237178 C53.5042391,0.194408443 53.6671455,0.303277171 53.8064041,0.440659137 C53.9456628,0.578041103 54.0560188,0.738752083 54.1322169,0.91760785 C54.2110426,1.10164784 54.253083,1.29346417 54.253083,1.49564895 C54.253083,1.69783373 54.2136701,1.88705795 54.1322169,2.06850583 C54.0533913,2.24476949 53.9430353,2.40548047 53.8064041,2.54027032 C53.6671455,2.67765229 53.5042391,2.78652101 53.32294,2.86169228 C53.1390135,2.93686354 52.9419493,2.97833734 52.73963,2.97833734 L52.73963,2.97833734 Z M51.4784193,3.76374745 L54.0008408,3.76374745 L54.0008408,13.8004073 L51.4784193,13.8004073 L51.4784193,3.76374745 L51.4784193,3.76374745 Z M55.1622057,8.78207739 C55.1622057,8.05110165 55.2856993,7.36678393 55.5353139,6.73430846 C55.7849285,6.10183299 56.1317615,5.5471209 56.5784403,5.07794853 C57.0251191,4.60877615 57.5611337,4.23810405 58.1838565,3.97111646 C58.8065793,3.70412887 59.4897351,3.56933901 60.2306965,3.56933901 C60.7929863,3.56933901 61.3079807,3.65228661 61.7704246,3.81558971 C62.2328686,3.9788928 62.6769198,4.24328828 63.1025785,4.60877615 L63.1025785,0.754304758 L65.625,0.754304758 L65.625,13.8004073 L63.1025785,13.8004073 L63.1025785,12.9579707 C62.6795474,13.331235 62.2354961,13.5956304 61.7704246,13.7563414 C61.3053531,13.9170524 60.7929863,13.9974079 60.2306965,13.9974079 C59.4897351,13.9974079 58.8065793,13.862618 58.1838565,13.5956304 C57.5611337,13.3286428 57.0251191,12.9579707 56.5784403,12.4887984 C56.1317615,12.019626 55.7849285,11.4649139 55.5353139,10.8324384 C55.2856993,10.1947787 55.1622057,9.51305314 55.1622057,8.78207739 Z M60.5565092,11.6541381 C60.756201,11.6541381 60.9637752,11.6334012 61.1818596,11.5893353 C61.3999439,11.5478615 61.6206558,11.4752824 61.8413677,11.37419 C62.0620796,11.2730976 62.280164,11.1383077 62.4929933,10.9672283 C62.7058226,10.7961489 62.9081418,10.5887799 63.099951,10.339937 L63.099951,7.22162562 C62.9081418,6.97278282 62.7058226,6.76541381 62.4929933,6.59951861 C62.280164,6.4336234 62.0647071,6.29624144 61.8413677,6.19255693 C61.6206558,6.08887243 61.3999439,6.01370117 61.1818596,5.97222737 C60.9637752,5.93075356 60.7535734,5.90742455 60.5565092,5.90742455 C60.1650084,5.90742455 59.7997828,5.9800037 59.4582049,6.12256989 C59.116627,6.26513609 58.8197169,6.46732087 58.5701023,6.72653212 C58.3178601,6.98574338 58.120796,7.28902055 57.9789098,7.63895575 C57.8370235,7.98889095 57.7660804,8.36993149 57.7660804,8.77948528 C57.7660804,9.19163118 57.8370235,9.57267173 57.9789098,9.92260692 C58.120796,10.2725421 58.3178601,10.5758193 58.5701023,10.8350305 C58.8223445,11.0942418 59.1192545,11.2938345 59.4582049,11.4389928 C59.7997828,11.581559 60.1650084,11.6541381 60.5565092,11.6541381 L60.5565092,11.6541381 Z M39.4075813,6.01370117 C37.7154568,6.01370117 36.971868,6.87428254 36.971868,8.09516756 L36.971868,13.8004073 L34.4494465,13.8004073 L34.4494465,8.16256249 C34.4625841,5.81151639 35.8394058,3.50194408 39.4102088,3.50194408" id="Shape"></path>
                </g>
            </g>
            <g id="Row-2" transform="translate(27.000000, 39.000000)" fill="#000000">
                <g id="android-tv" transform="translate(0.000000, 1.000000)">
                    <g id="g33668" transform="translate(42.500000, 7.916667) scale(-1, 1) rotate(-180.000000) translate(-42.500000, -7.916667) translate(0.000000, 0.833333)">
                        <g id="g33674" transform="translate(0.149398, 0.444164)">
                            <path d="M5.57673387,2.46625175 C4.01189516,2.46625175 2.74046371,3.65690743 2.74046371,5.12622721 C2.74046371,6.57021388 4.01189516,7.77353612 5.57673387,7.77353612 C6.62461694,7.77353612 7.65852823,7.33020687 8.105625,6.53221424 C8.13356855,6.48154804 8.17548387,6.40554874 8.17548387,6.30421634 L8.17548387,3.96090463 C8.17548387,3.91023843 8.14754032,3.80890603 8.11959677,3.78357293 C7.63058468,2.98558029 6.65256048,2.46625175 5.57673387,2.46625175 M10.7183468,0.439603787 L10.7183468,9.77485098 L8.17548387,9.77485098 L8.17548387,9.00219144 C7.46292339,9.62285238 6.48489919,9.96484923 5.29729839,9.96484923 C2.37719758,9.96484923 0.169657258,7.81153576 0.169657258,5.12622721 C0.169657258,2.4282521 2.39116935,0.24960554 5.29729839,0.24960554 C6.49887097,0.24960554 7.46292339,0.616935484 8.17548387,1.23759642 L8.17548387,0.439603787 C8.17548387,0.439603787 10.7183468,0.439603787 10.7183468,0.439603787 Z M21.7700202,0.439603787 L21.7700202,5.49355715 C21.7700202,7.97620091 19.6323387,9.96484923 16.9218145,9.96484923 C14.1973185,9.96484923 12.0736089,7.97620091 12.0736089,5.49355715 L12.0736089,0.439603787 L14.6164718,0.439603787 L14.6164718,5.49355715 C14.6164718,6.72221248 15.5665524,7.64687062 16.9218145,7.64687062 C18.2770766,7.64687062 19.2271573,6.70954593 19.2271573,5.49355715 L19.2271573,0.439603787 C19.2271573,0.439603787 21.7700202,0.439603787 21.7700202,0.439603787 Z M28.2389516,2.46625175 C26.6741129,2.46625175 25.4026815,3.65690743 25.4026815,5.12622721 C25.4026815,6.57021388 26.6741129,7.77353612 28.2389516,7.77353612 C29.2868347,7.77353612 30.2648589,7.30487377 30.7678427,6.53221424 C30.7957863,6.48154804 30.8377016,6.40554874 30.8377016,6.30421634 L30.8377016,3.94823808 C30.8377016,3.89757188 30.8097581,3.80890603 30.7818145,3.78357293 C30.3067742,2.98558029 29.3147782,2.46625175 28.2389516,2.46625175 M33.3805645,0.439603787 L33.3805645,12.586825 L30.8377016,12.586825 L30.8377016,9.00219144 C30.1251411,9.62285238 29.1610887,10.0028489 27.9595161,10.0028489 C25.0394153,10.0028489 22.831875,7.82420231 22.831875,5.13889376 C22.831875,2.44091865 25.0533871,0.26227209 27.9595161,0.26227209 C29.1471169,0.26227209 30.1251411,0.629602034 30.8377016,1.25026297 L30.8377016,0.439603787 C30.8377016,0.439603787 33.3805645,0.439603787 33.3805645,0.439603787 Z M37.2786895,0.439603787 L37.2786895,5.4302244 C37.2786895,6.89954418 38.1309677,7.68487027 39.7656653,7.68487027 L39.7656653,9.96484923 C36.4962702,9.96484923 34.7358266,8.3815305 34.7358266,5.4302244 L34.7358266,0.439603787 C34.7358266,0.439603787 37.2786895,0.439603787 37.2786895,0.439603787 Z M45.3264315,2.5802507 C43.7755645,2.5802507 42.5181048,3.72024018 42.5181048,5.12622721 C42.5181048,6.53221424 43.7755645,7.65953717 45.3264315,7.65953717 C46.8912702,7.65953717 48.1347581,6.51954769 48.1347581,5.12622721 C48.1347581,3.72024018 46.8912702,2.5802507 45.3264315,2.5802507 M45.3264315,0.24960554 C48.3024194,0.24960554 50.7055645,2.4282521 50.7055645,5.12622721 C50.7055645,7.81153576 48.2884476,9.96484923 45.3124597,9.96484923 C42.3504435,9.96484923 39.9333266,7.81153576 39.9333266,5.12622721 C39.9472984,2.4282521 42.3504435,0.24960554 45.3264315,0.24960554 M53.1366532,10.4968443 C53.9470161,10.4968443 54.6176613,11.1048387 54.6176613,11.8394986 C54.6176613,12.586825 53.9609879,13.1821529 53.1366532,13.1821529 C52.3262903,13.1821529 51.6696169,12.586825 51.6696169,11.8394986 C51.6696169,11.1048387 52.3262903,10.4968443 53.1366532,10.4968443 M54.4080847,9.78751753 L51.8652218,9.78751753 L51.8652218,0.439603787 L54.4080847,0.439603787 L54.4080847,9.78751753 Z M60.9748185,2.46625175 C59.4099798,2.46625175 58.1385484,3.65690743 58.1385484,5.12622721 C58.1385484,6.57021388 59.4099798,7.77353612 60.9748185,7.77353612 C62.0087298,7.77353612 63.0007258,7.30487377 63.5037097,6.53221424 C63.5316532,6.48154804 63.5735685,6.40554874 63.5735685,6.30421634 L63.5735685,3.94823808 C63.5735685,3.89757188 63.545625,3.82157258 63.5176815,3.78357293 C63.0286694,2.98558029 62.0506452,2.46625175 60.9748185,2.46625175 M66.1164315,0.439603787 L66.1164315,12.586825 L63.5735685,12.586825 L63.5735685,9.00219144 C62.8610081,9.62285238 61.8969556,9.97751578 60.6953831,9.97751578 C57.7752823,9.97751578 55.5677419,7.82420231 55.5677419,5.13889376 C55.5677419,2.44091865 57.789254,0.24960554 60.6953831,0.24960554 C61.8829839,0.24960554 62.8610081,0.616935484 63.5735685,1.25026297 L63.5735685,0.439603787 L66.1164315,0.439603787 L66.1164315,0.439603787 Z" id="path33676"></path>
                        </g>
                        <g id="g33678" transform="translate(68.020525, 0.503391)">
                            <path d="M11.6604435,0.379996494 L15.838004,9.72791024 L13.7422379,9.72791024 L10.3191532,1.62131837 L11.0317137,1.62131837 L7.60862903,9.71524369 L5.44300403,9.71524369 L9.62056452,0.379996494 L11.6604435,0.379996494 Z M4.92604839,0.265997546 L4.94002016,1.92531557 L4.71647177,1.92531557 C3.22149194,1.92531557 2.17360887,2.73597475 2.17360887,4.11662868 L2.17360887,8.18259116 L4.85618952,8.18259116 L4.85618952,9.72791024 L2.1596371,9.72791024 L2.1596371,12.2612202 L0.301391129,12.2612202 L0.301391129,4.11662868 C0.301391129,1.69731767 2.03389113,0.265997546 4.71647177,0.265997546 C4.71647177,0.265997546 4.92604839,0.265997546 4.92604839,0.265997546 Z" id="path33680"></path>
                        </g>
                    </g>
                </g>
                <g id="chromecast" transform="translate(103.000000, 1.000000)">
                    <path d="M20.3212237,8.20212872 C20.3212237,6.48085149 21.534443,5.16462747 23.2529716,5.16462747 C24.6179426,5.16462747 25.3759067,5.97473391 25.7302588,6.78484035 L24.7696943,7.24082363 C24.5170396,6.58271163 23.9608815,6.17765841 23.2029174,6.17765841 C22.2932016,6.17765841 21.43354,6.98776485 21.43354,8.25385457 C21.43354,9.46901422 22.2932016,10.3300507 23.2029174,10.3300507 C24.0117302,10.3300507 24.5678883,9.92499751 24.8713918,9.26688551 L25.8319563,9.67193872 C25.4783987,10.4820452 24.6695858,11.2921516 23.3046149,11.2921516 C21.534443,11.2404257 20.3212237,9.92340595 20.3212237,8.20212872 Z M27.6513879,5.36675619 L27.6005392,6.17686263 L27.6513879,6.17686263 C27.9548914,5.67074505 28.6620067,5.21476176 29.4708196,5.21476176 C30.9366935,5.21476176 31.6446033,6.17686263 31.6446033,7.594151 L31.6446033,11.0876355 L30.5831358,11.0876355 L30.5831358,7.74694121 C30.5831358,6.58271163 29.9769235,6.17765841 29.1681106,6.17765841 C28.2583948,6.17765841 27.6513879,7.03869492 27.6513879,7.94986571 L27.6513879,11.0892271 L26.5899204,11.0892271 L26.5899204,2.78444245 L27.6513879,2.78444245 L27.6513879,5.36675619 L27.6513879,5.36675619 Z M32.7569196,11.0884313 L32.7569196,5.36675619 L33.7675384,5.36675619 L33.7675384,6.27792699 L33.8183871,6.27792699 C34.0710418,5.61981498 34.8798547,5.21476176 35.4868615,5.21476176 C35.8404192,5.21476176 36.0430197,5.26569183 36.2956744,5.36675619 L35.891268,6.37899135 C35.7395162,6.32806128 35.5377103,6.27792699 35.3351098,6.27792699 C34.6272,6.27792699 33.8692359,6.88510892 33.8692359,7.94906993 L33.8692359,11.0884313 L32.7569196,11.0884313 Z M42.1591701,8.20212872 C42.1591701,9.92340595 40.9459509,11.23963 39.2274223,11.23963 C37.5088936,11.23963 36.2956744,9.92340595 36.2956744,8.20212872 C36.2956744,6.48085149 37.5088936,5.16462747 39.2274223,5.16462747 C40.9459509,5.16462747 42.1591701,6.48085149 42.1591701,8.20212872 Z M41.0977026,8.20212872 C41.0977026,6.88590471 40.1879868,6.12593256 39.2274223,6.12593256 C38.2668577,6.12593256 37.3571419,6.88510892 37.3571419,8.20212872 C37.3571419,9.51914851 38.2668577,10.2783249 39.2274223,10.2783249 C40.1879868,10.2783249 41.0977026,9.51835273 41.0977026,8.20212872 Z M43.0188317,5.36675619 L44.0294505,5.36675619 L44.0294505,6.17686263 L44.0802992,6.17686263 C44.3838027,5.61981498 45.1417668,5.21476176 45.8496766,5.21476176 C46.7593924,5.21476176 47.3663993,5.61981498 47.6691082,6.32885706 C48.0735146,5.67074505 48.7814245,5.21476176 49.6402916,5.21476176 C51.0052625,5.21476176 51.6623236,6.17686263 51.6623236,7.594151 L51.6623236,11.0876355 L50.5500074,11.0876355 L50.5500074,7.74694121 C50.5500074,6.58271163 50.0947522,6.17765841 49.2859394,6.17765841 C48.4262778,6.17765841 47.8200654,7.03869492 47.8200654,7.94986571 L47.8200654,11.0892271 L46.7585979,11.0892271 L46.7585979,7.74694121 C46.7585979,6.58271163 46.3033428,6.17765841 45.4945299,6.17765841 C44.6348683,6.17765841 44.028656,7.03869492 44.028656,7.94986571 L44.028656,11.0892271 L42.9671885,11.0892271 L42.9671885,5.36755197 L43.0188317,5.36755197 L43.0188317,5.36675619 Z M52.4210822,8.20212872 C52.4210822,6.58191585 53.5333985,5.16462747 55.2010784,5.16462747 C56.8695528,5.16462747 57.9810746,6.37978713 57.9810746,8.20212872 L57.9810746,8.40425744 L53.4817552,8.40425744 C53.532604,9.61941709 54.3914711,10.2775291 55.3011869,10.2775291 C55.9073992,10.2775291 56.5652548,10.0244703 56.8679638,9.31542823 L57.8285283,9.72048145 C57.4749707,10.5305879 56.6661578,11.2897642 55.3512411,11.2897642 C53.5834527,11.2404257 52.4210822,9.92340595 52.4210822,8.20212872 L52.4210822,8.20212872 Z M55.2010784,6.17686263 C54.3922656,6.17686263 53.7860532,6.73391028 53.5834527,7.54401671 L56.8695528,7.54401671 C56.8187041,7.03789913 56.4142976,6.17686263 55.2010784,6.17686263 Z M58.5880814,8.20212872 C58.5880814,6.48085149 59.8013007,5.16462747 61.5198293,5.16462747 C62.8848003,5.16462747 63.6427644,5.97473391 63.9971165,6.78484035 L63.036552,7.18989356 C62.7838973,6.53178156 62.2277392,6.12672834 61.4697751,6.12672834 C60.5600593,6.12672834 59.7003977,6.93683478 59.7003977,8.2029245 C59.7003977,9.41808415 60.5600593,10.2791207 61.4697751,10.2791207 C62.2785879,10.2791207 62.834746,9.87406744 63.1382495,9.21595544 L64.098814,9.62100865 C63.7452564,10.4311151 62.9364435,11.2412215 61.5714726,11.2412215 C59.8013007,11.2404257 58.5880814,9.92340595 58.5880814,8.20212872 L58.5880814,8.20212872 Z M64.6541777,9.36715408 C64.6541777,8.10106436 65.8165482,7.39281806 67.1314649,7.39281806 C67.889429,7.39281806 68.4455871,7.59494678 68.6481876,7.74694121 L68.6481876,7.54401671 C68.6481876,6.6829802 67.9402777,6.17686263 67.1823136,6.17686263 C66.5761013,6.17686263 66.0199431,6.48085149 65.8173427,6.98696906 L64.8567781,6.58191585 C65.0585841,6.07579827 65.7164397,5.21476176 67.1823136,5.21476176 C68.5472846,5.21476176 69.7096551,6.0248682 69.7096551,7.64508107 L69.7096551,11.0876355 L68.6990363,11.0876355 L68.6990363,10.2775291 L68.6481876,10.2775291 C68.3446841,10.7335124 67.7384718,11.2396306 66.7779072,11.2396306 C65.6147422,11.2404257 64.6541777,10.5313837 64.6541777,9.36715408 L64.6541777,9.36715408 Z M68.6481876,8.60718194 C68.6481876,8.60718194 68.1929324,8.25305879 67.2832166,8.25305879 C66.1709003,8.25305879 65.7164397,8.86024072 65.7164397,9.36715408 C65.7164397,9.97433602 66.3226521,10.2783249 66.8788102,10.2783249 C67.788526,10.2783249 68.6481876,9.5692828 68.6481876,8.60718194 Z M70.3667162,9.62021287 L71.3272808,9.21515965 C71.6307842,9.92420173 72.1869423,10.2783249 72.8440034,10.2783249 C73.5010646,10.2783249 73.9563197,9.97433602 73.9563197,9.46821844 C73.9563197,9.16422958 73.804568,8.86103651 73.1983556,8.70904208 L72.0359851,8.45598329 C71.5306757,8.30398886 70.5192624,7.89893564 70.5192624,6.88670049 C70.5192624,5.87446533 71.58073,5.21555755 72.7431005,5.21555755 C73.703665,5.21555755 74.5625321,5.67154083 74.9168843,6.53178156 L74.0071685,6.93683478 C73.8053625,6.37978713 73.2492044,6.17765841 72.6930462,6.17765841 C72.0868339,6.17765841 71.58073,6.4307172 71.58073,6.88670049 C71.58073,7.24082363 71.8842334,7.44374813 72.3386941,7.54481249 L73.4510103,7.79787128 C74.5633266,8.05093007 75.0177872,8.75997215 75.0177872,9.46901422 C75.0177872,10.4812494 74.1080714,11.2412215 72.7939492,11.2412215 C71.479827,11.2412215 70.6702197,10.4303193 70.3667162,9.62021287 L70.3667162,9.62021287 Z M76.4328124,9.31622401 L76.4328124,6.32885706 L75.4221937,6.32885706 L75.4221937,5.36675619 L76.4328124,5.36675619 L76.4328124,3.64547896 L77.49428,3.64547896 L77.49428,5.36675619 L78.8592509,5.36675619 L78.8592509,6.32885706 L77.49428,6.32885706 L77.49428,9.21515965 C77.49428,9.87327166 77.7469347,10.1263304 78.252244,10.1263304 C78.4548445,10.1263304 78.6058017,10.1263304 78.7575534,10.0252661 L79.1111111,10.9364369 C78.8584564,11.0375012 78.6058017,11.0884313 78.2514495,11.0884313 C77.0898735,11.1385656 76.4328124,10.4804536 76.4328124,9.31622401 L76.4328124,9.31622401 Z M15.316595,4.91156869 L9.85750568,4.91156869 C10.8681245,5.56968069 11.5760343,6.68377599 11.5760343,8 C11.5760343,8.25305879 11.5251856,8.55704765 11.4751313,8.81010644 L11.4751313,8.86103651 C11.4242826,9.26608972 11.2733254,9.62021287 11.0707249,9.9751318 L7.63366765,16 L7.93717109,16 C12.3347929,16 15.9243964,12.4555854 15.9243964,8 C15.9236019,6.88590471 15.7210014,5.82273948 15.316595,4.91156869 L15.316595,4.91156869 Z M7.98722532,11.5945489 C6.97660654,11.5945489 6.01604199,11.1385656 5.35898088,10.4804536 C5.10632619,10.2273948 4.90372572,9.97433602 4.70191977,9.67034716 L4.6010168,9.5692828 L1.21321925,3.74654332 C0.455255159,4.96170297 0,6.42992142 0,8 C0,12.1014623 3.03265086,15.4429524 6.97581203,15.8981399 L9.70575396,11.1385656 C9.20044457,11.4425545 8.59343769,11.5945489 7.98722532,11.5945489 L7.98722532,11.5945489 Z M7.98722532,0 C5.35898088,0 3.03344537,1.26608972 1.56757143,3.24042574 L4.29751336,7.89813986 C4.3483621,7.94906993 4.3483621,8.05013429 4.3483621,8.10026858 L4.3483621,7.94827415 C4.3483621,6.17606685 5.66248432,4.65691833 7.33095873,4.40385954 L7.38180747,4.40385954 C7.68531091,4.30279519 7.98801984,4.30279519 8.29152328,4.30279519 L15.0146806,4.30279519 C13.6989694,1.7722073 11.0198762,0 7.98722532,0 Z M10.8681245,8 C10.8681245,9.62021287 9.55400224,10.8863026 7.98643081,10.8863026 C6.36880515,10.8863026 5.10473716,9.57007858 5.10473716,8 C5.10473716,6.42992142 6.4196539,5.1136974 7.98722532,5.1136974 C9.55400224,5.06276733 10.8681245,6.37978713 10.8681245,8 Z" id="Shape"></path>
                </g>
                <g id="Fire" transform="translate(201.000000, 0.000000)">
                    <path d="M25.1076923,6.4 C27.5692308,6.4 27.5076923,8.55384615 27.4461538,9.47692308 L22.2769231,9.47692308 C22.4,7.87692308 23.2,6.4 25.1076923,6.4 L25.1076923,6.4 Z M29.0461538,10.8923077 C29.3538462,10.8923077 29.4153846,9.84615385 29.4153846,9.41538462 C29.5384615,6.27692308 27.8769231,4.8 25.2307692,4.8 C23.7538462,4.8 22.4,5.35384615 21.5384615,6.33846154 C20.7384615,7.26153846 20.3076923,8.61538462 20.3076923,10.4 C20.3076923,12.1846154 20.7384615,13.4769231 21.4769231,14.4 C22.2769231,15.3230769 23.4461538,16 25.5384615,16 C26.3384615,16 27.8769231,15.8153846 28.8,15.3846154 C29.1692308,15.2615385 29.1692308,15.0769231 29.1692308,14.7692308 L29.1692308,14.2153846 C29.1692308,13.9076923 29.0461538,13.7846154 28.6769231,13.9076923 C27.5692308,14.2769231 26.4615385,14.4615385 25.7846154,14.4615385 C24.6153846,14.4615385 23.6307692,14.1538462 23.0769231,13.4769231 C22.5230769,12.7384615 22.3384615,11.9384615 22.2769231,11.0153846 C24.4923077,10.8923077 26.7692308,10.8923077 29.0461538,10.8923077 L29.0461538,10.8923077 Z" id="Shape"></path>
                    <path d="M4.06153846,5.16923077 L4.06153846,3.07692308 C4.06153846,1.41538462 5.72307692,1.66153846 6.76923077,1.78461538 C7.2,1.84615385 7.38461538,1.78461538 7.38461538,1.41538462 L7.38461538,0.738461538 C7.38461538,0.430769231 7.26153846,0.246153846 6.76923077,0.184615385 C4.18461538,-0.307692308 1.96923077,0.184615385 1.96923077,3.50769231 L1.96923077,5.23076923 L0.430769231,5.35384615 C0.123076923,5.41538462 0,5.47692308 0,5.84615385 L0,6.4 C0,6.64615385 0.123076923,6.76923077 0.430769231,6.76923077 L1.96923077,6.76923077 L1.96923077,15.3230769 C1.96923077,15.6307692 2.09230769,15.7538462 2.4,15.7538462 L3.63076923,15.7538462 C3.93846154,15.7538462 4.06153846,15.6307692 4.06153846,15.3230769 L4.06153846,6.76923077 L6.89230769,6.76923077 C7.2,6.76923077 7.32307692,6.64615385 7.32307692,6.33846154 L7.32307692,5.53846154 C7.32307692,5.23076923 7.2,5.10769231 6.89230769,5.10769231 L4.06153846,5.10769231 L4.06153846,5.16923077 Z" id="Path"></path>
                    <path d="M10.7076923,5.16923077 L9.47692308,5.16923077 C9.16923077,5.16923077 9.04615385,5.29230769 9.04615385,5.6 L9.04615385,15.3230769 C9.04615385,15.6307692 9.16923077,15.7538462 9.47692308,15.7538462 L10.7076923,15.7538462 C11.0153846,15.7538462 11.1384615,15.6307692 11.1384615,15.3230769 L11.1384615,5.53846154 C11.1384615,5.35384615 11.0153846,5.16923077 10.7076923,5.16923077 L10.7076923,5.16923077 Z M10.0923077,0.738461538 C9.35384615,0.738461538 8.8,1.23076923 8.8,2.03076923 C8.8,2.83076923 9.29230769,3.32307692 10.0923077,3.32307692 C10.8923077,3.32307692 11.3846154,2.83076923 11.3846154,2.03076923 C11.3846154,1.16923077 10.8307692,0.738461538 10.0923077,0.738461538 L10.0923077,0.738461538 Z" id="Shape"></path>
                    <path d="M15.8153846,6.70769231 L15.6923077,5.53846154 C15.6307692,5.23076923 15.4461538,5.23076923 15.2,5.23076923 L14.2769231,5.23076923 C13.9692308,5.23076923 13.8461538,5.35384615 13.8461538,5.66153846 L13.8461538,15.3846154 C13.8461538,15.6923077 13.9692308,15.8153846 14.2769231,15.8153846 L15.5076923,15.8153846 C15.8153846,15.8153846 15.9384615,15.6923077 15.9384615,15.3846154 L15.9384615,8 C16.7384615,7.38461538 17.4153846,7.01538462 19.0153846,7.01538462 C19.3846154,7.01538462 19.9384615,7.13846154 19.9384615,6.76923077 L19.9384615,5.53846154 C19.9384615,5.29230769 19.7538462,5.10769231 19.2615385,5.10769231 C17.9076923,5.04615385 17.0461538,5.35384615 15.8153846,6.70769231 L15.8153846,6.70769231 Z" id="Path"></path>
                </g>
            </g>
            <g id="Row-3" transform="translate(0.000000, 81.000000)">
                <g id="fire-tv" transform="translate(91.000000, 0.000000)" fill="#000000">
                    <path d="M32.5991111,17.7515556 C29.1475556,20.2986667 24.1364444,21.6577778 19.8244444,21.6577778 C13.7817778,21.6577778 8.34044444,19.4235556 4.224,15.708 C3.90133333,15.4146667 4.18977778,15.0186667 4.576,15.2435556 C9.02,17.8297778 14.5151111,19.3844444 20.1862222,19.3844444 C24.0142222,19.3844444 28.2235556,18.5924444 32.0955556,16.9497778 C32.6773333,16.6955556 33.1662222,17.3262222 32.5991111,17.7515556 L32.5991111,17.7515556 Z" id="Path"></path>
                    <path d="M34.0364444,16.1088889 C33.5964444,15.5417778 31.1177778,15.84 30.0031111,15.972 C29.6657778,16.0111111 29.612,15.7177778 29.9151111,15.5026667 C31.8902222,14.1142222 35.1315556,14.5151111 35.508,14.9795556 C35.8893333,15.4488889 35.4102222,18.6951111 33.5573333,20.2448889 C33.2737778,20.4844444 33,20.3573333 33.1271111,20.0395556 C33.5426667,19.008 34.4764444,16.676 34.0364444,16.1088889 L34.0364444,16.1088889 Z" id="Path"></path>
                    <path d="M19.9466667,5.09911111 C21.8924444,5.09911111 21.8728889,6.80044444 21.8288889,7.53377778 L17.7173333,7.53377778 C17.7906667,6.25777778 18.4066667,5.09911111 19.9466667,5.09911111 L19.9466667,5.09911111 Z M23.0608889,8.66311111 C23.3053333,8.66311111 23.3395556,7.84666667 23.3542222,7.50444444 C23.4471111,5.03066667 22.1417778,3.828 20.0151111,3.828 C18.8417778,3.828 17.7613333,4.25333333 17.0866667,5.06977778 C16.4608889,5.81777778 16.0991111,6.87377778 16.0991111,8.29644444 C16.0991111,9.69955556 16.4168889,10.7457778 17.028,11.484 C17.6537778,12.232 18.6071111,12.7502222 20.2644444,12.7502222 C20.8902222,12.7502222 22.1124444,12.6182222 22.8751111,12.2368889 C23.1586667,12.1342222 23.1586667,12.0071111 23.1586667,11.7382222 L23.1586667,11.2786667 C23.1586667,11.0293333 23.0511111,10.9266667 22.7822222,11.0146667 C21.9022222,11.3128889 21.0173333,11.4302222 20.4844444,11.4302222 C19.5653333,11.4302222 18.7635556,11.1613333 18.3186667,10.6382222 C17.8835556,10.0711111 17.7368889,9.43066667 17.6977778,8.65822222 C19.4773333,8.66311111 21.2813333,8.66311111 23.0608889,8.66311111 L23.0608889,8.66311111 Z" id="Shape"></path>
                    <path d="M3.212,4.08222222 L3.212,2.44444444 C3.212,1.13422222 4.52711111,1.30044444 5.35822222,1.408 C5.72977778,1.48133333 5.87155556,1.41777778 5.87155556,1.12933333 L5.87155556,0.586666667 C5.87155556,0.317777778 5.764,0.22 5.39244444,0.122222222 C3.33422222,-0.259111111 1.54977778,0.151555556 1.54977778,2.76222222 L1.54977778,4.12622222 L0.347111111,4.268 C0.0928888889,4.28755556 0,4.36577778 0,4.62488889 L0,5.05511111 C0,5.28977778 0.102666667,5.38266667 0.327555556,5.38266667 L1.55466667,5.38266667 L1.55466667,12.1684444 C1.55466667,12.4031111 1.64755556,12.496 1.88222222,12.496 L2.88444444,12.496 C3.11911111,12.496 3.212,12.4031111 3.212,12.1684444 L3.212,5.38266667 L5.43644444,5.38266667 C5.67111111,5.38266667 5.764,5.28977778 5.764,5.05511111 L5.764,4.40977778 C5.764,4.17511111 5.65644444,4.08222222 5.43644444,4.08222222 L3.212,4.08222222 L3.212,4.08222222 Z" id="Path"></path>
                    <path d="M8.49688889,4.092 L7.51422222,4.092 C7.27955556,4.092 7.18666667,4.18488889 7.18666667,4.41955556 L7.18666667,12.1684444 C7.18666667,12.4031111 7.27955556,12.496 7.51422222,12.496 L8.49688889,12.496 C8.73155556,12.496 8.82444444,12.4031111 8.82444444,12.1684444 L8.82444444,4.41955556 C8.82933333,4.23377778 8.73155556,4.092 8.49688889,4.092 L8.49688889,4.092 Z M8.00311111,0.591555556 C7.42622222,0.591555556 6.98133333,0.982666667 6.98133333,1.59866667 C6.98133333,2.22444444 7.38711111,2.60577778 8.01777778,2.60577778 C8.64844444,2.60577778 9.05422222,2.21466667 9.05422222,1.59866667 C9.05422222,0.919111111 8.624,0.591555556 8.00311111,0.591555556 L8.00311111,0.591555556 Z" id="Shape"></path>
                    <path d="M36.7937778,12.496 L35.7426667,12.496 C35.508,12.496 35.376,12.4031111 35.2831111,12.1684444 L32.2373333,4.47822222 C32.1444444,4.24355556 32.2031111,4.092 32.4524444,4.092 L33.5768889,4.092 C33.8017778,4.092 33.8946667,4.23377778 33.968,4.41955556 L36.2706667,10.9755556 L38.5635556,4.41955556 C38.6662222,4.18488889 38.7688889,4.092 39.0035556,4.092 L40.0106667,4.092 C40.2893333,4.092 40.3577778,4.23866667 40.2502222,4.47333333 L37.1995556,12.1684444 C37.1164444,12.3542222 37.0186667,12.496 36.7937778,12.496 L36.7937778,12.496 Z" id="Path"></path>
                    <path d="M27.1577778,10.34 C27.1577778,12.2955556 28.5071111,12.6182222 29.48,12.6182222 C30.0031111,12.6182222 30.4284444,12.5644444 30.8488889,12.4764444 C31.3622222,12.3248889 31.3573342,12.2417778 31.3573342,12.0071111 C31.3573342,11.8066667 31.3573342,11.6111111 31.3573342,11.4106667 C31.3573342,11.176 31.2448889,11.1026667 31.0248889,11.1564444 C30.6288889,11.22 30.3697778,11.264 29.9786667,11.2835556 C28.8982222,11.2102222 28.7955556,10.8631111 28.7955556,9.80711111 L28.7955556,5.38755556 L30.9711111,5.38755556 C31.2057778,5.38755556 31.2986667,5.29466667 31.2986667,5.06 L31.2986667,4.4 C31.2986667,4.16533333 31.1911111,4.07244444 30.9711111,4.07244444 L28.7955556,4.07244444 L28.7955556,2.05333333 C28.7955556,1.86755556 28.7026667,1.72577778 28.468,1.72577778 L27.808,1.72577778 C27.5537778,1.72577778 27.4217778,1.81866667 27.4022222,2.07288889 L27.192,4.11155556 L25.9648889,4.26311111 C25.7106667,4.28755556 25.6177778,4.41466667 25.6177778,4.66888889 L25.6177778,5.05022222 C25.6177778,5.28488889 25.7595556,5.37777778 25.9453333,5.37777778 L27.1577778,5.37777778 C27.1577778,7.03511111 27.1577778,8.68755556 27.1577778,10.34 L27.1577778,10.34 Z" id="Path"></path>
                    <path d="M12.5595556,5.30444444 L12.4373333,4.356 C12.3835556,4.12133333 12.2515556,4.092 12.056,4.092 L11.3226667,4.092 C11.088,4.092 10.9951111,4.18488889 10.9951111,4.41955556 L10.9951111,12.1684444 C10.9951111,12.4031111 11.088,12.496 11.3226667,12.496 L12.3053333,12.496 C12.54,12.496 12.6328889,12.4031111 12.6328889,12.1684444 L12.6328889,6.30177778 C13.2733333,5.83244444 13.8257778,5.51466667 15.0822222,5.51466667 C15.3902222,5.51955556 15.8253333,5.63688889 15.8253333,5.30933333 L15.8253333,4.34133333 C15.8253333,4.12622222 15.6982222,4.00888889 15.2826667,4.00888889 C14.2462222,4.00888889 13.5471111,4.268 12.5595556,5.30444444 L12.5595556,5.30444444 Z" id="Path"></path>
                </g>
                <g id="lg-electronics" transform="translate(151.000000, 0.000000)" fill="#000000">
                    <path d="M9,0 C4.0296933,0 0,4.0296933 0,9 C0,13.9703067 4.0296933,18 9,18 C13.9703067,18 18,13.9703067 18,9 C18,4.0296933 13.9703067,0 9,0 Z M11.1906622,12.1664388 L11.1906622,12.857394 L9.327017,12.857394 L9.327017,12.8626685 L8.63606173,12.8626685 L8.63606173,5.12326626 L9.327017,5.12326626 L9.327017,12.1664388 L11.1906622,12.1664388 Z M9,16.533698 C4.84020316,16.533698 1.46630201,13.161555 1.46630201,9 C1.46630201,4.83844501 4.83844501,1.46630201 9,1.46630201 C9.10900567,1.46630201 9.21976949,1.46806017 9.32877515,1.47333464 L9.327017,2.15901543 C9.21801133,2.15374097 9.10900567,2.15198281 9,2.15198281 C5.21820668,2.15198281 2.15198281,5.21820668 2.15198281,9 C2.15198281,12.7817933 5.21820668,15.8480172 9,15.8480172 C12.6798203,15.8480172 15.6809924,12.94706 15.8409846,9.30767728 L15.8427427,9.28833757 L11.2012112,9.28833757 L11.2012112,8.5973823 L16.5213909,8.5973823 C16.5284235,8.73100215 16.5319405,8.864622 16.5319405,9 C16.533698,13.1597968 13.1597968,16.533698 9,16.533698 Z M7.24887673,6.14827115 C7.24887673,6.73373706 6.77417464,7.20668099 6.19046689,7.20668099 L6.19046689,7.20668099 C5.60500098,7.20668099 5.13205704,6.7319789 5.13205704,6.14827115 C5.13205704,5.56456339 5.60675913,5.0898613 6.19046689,5.0898613 C6.77417464,5.0898613 7.24887673,5.56456339 7.24887673,6.14827115 Z" id="Shape"></path>
                    <path d="M22.5,13.2769433 L28.795319,13.2769433 L28.795319,11.4113781 L24.8112666,11.4113781 L24.8112666,4.72643635 L22.5,4.72643635 L22.5,13.2769433 Z M36.4002983,5.32801352 C35.6792106,4.77882088 34.7498853,4.5 33.6398577,4.5 C32.3233134,4.5 31.2236117,4.89710852 30.4577788,5.64739016 C29.6592474,6.43146827 29.235888,7.58730755 29.235888,8.98817124 C29.235888,10.4853549 29.683341,11.7493428 30.4939192,12.5452497 C31.1306792,13.1704844 31.9791189,13.5 32.9514686,13.5 C35.083754,13.5 35.5742313,12.2444611 35.5742313,12.2444611 L35.5742313,13.2735637 L37.5,13.2735637 L37.5,8.44742771 L33.6673933,8.44742771 L33.6673933,9.95812993 L35.4313905,9.95812993 C35.4313905,9.95812993 35.4486003,11.8608712 33.6278109,11.8608712 C33.1648692,11.8608712 32.7535567,11.6952685 32.4368977,11.384341 C31.9429784,10.8993616 31.6813905,10.0831769 31.6813905,9.02534735 C31.6813905,7.27131055 32.3904314,6.2253098 33.5796237,6.2253098 C34.321363,6.2253098 34.8806792,6.67311303 35.02352,7.35073226 L37.4741854,7.35073226 C37.3485544,6.36556515 37.0731987,5.85185881 36.4002983,5.32801352 L36.4002983,5.32801352 Z" id="Shape"></path>
                </g>
                <g id="oculus" transform="translate(209.000000, 1.000000)" fill="#1C1E20">
                    <path d="M71.9478409,5.83163193 C71.6897302,5.77665922 71.4194253,5.75629896 71.1572499,5.78683935 C71.025146,5.80312756 70.8971069,5.82959591 70.7731325,5.87846054 C70.6755788,5.91510901 70.588187,5.96193762 70.5068923,6.02709046 C70.3910474,6.12074767 70.2995909,6.24698131 70.2812995,6.39968328 C70.2650406,6.52998897 70.3077203,6.65011453 70.389015,6.75191584 C70.4845363,6.87000537 70.6227373,6.95144643 70.7568735,7.01049119 C70.8828803,7.0654639 71.0149842,7.10618443 71.1470881,7.14079688 C71.301548,7.18151741 71.4580403,7.21612985 71.6145326,7.2507423 C71.9701969,7.33014733 72.3217965,7.41158838 72.6632342,7.54596612 C73.2668474,7.78418121 73.8420074,8.18731442 74.077762,8.84698696 C74.1793804,9.13203065 74.2037688,9.43539858 74.1631214,9.73265843 C74.1123122,10.0930351 73.9680141,10.4350875 73.7464861,10.7242033 C73.5737349,10.9481662 73.364401,11.1293725 73.1225493,11.2739304 C72.7933057,11.4714249 72.4254472,11.5915505 72.0494592,11.6567033 C71.7567983,11.707604 71.4661698,11.7259282 71.1674118,11.7137121 C70.7975209,11.6994599 70.4418566,11.6424511 70.0861923,11.5426859 C69.4419318,11.3594435 68.8627071,11.0458954 68.3485181,10.6183299 C68.6371143,10.2335209 68.9236781,9.84871193 69.2122743,9.46390295 C69.5313559,9.71026214 69.8646642,9.90979272 70.2447169,10.0502785 C70.4926658,10.1418997 70.7446793,10.2029805 71.0068547,10.2355569 C71.2426094,10.2640613 71.4905582,10.2701694 71.7283452,10.241665 C71.8990641,10.2192687 72.0697829,10.1785482 72.2262752,10.1011792 C72.3441525,10.0421344 72.4539004,9.96272941 72.5372274,9.85685604 C72.6063279,9.76727088 72.6530724,9.66343353 72.6632342,9.54941606 C72.6754284,9.42725448 72.6449429,9.30916495 72.5819395,9.20329158 C72.5087743,9.07909397 72.3969941,8.98543676 72.2770844,8.91417583 C72.1246568,8.82255465 71.9478409,8.75943783 71.777122,8.7105732 C71.5677882,8.64949241 71.3564219,8.60673585 71.1430234,8.55990725 C70.5373778,8.42960156 69.8321463,8.26875548 69.3281192,7.83100981 C69.0882998,7.6212991 68.9094515,7.36068772 68.8118979,7.05528377 C68.7062148,6.72137545 68.7102795,6.36914289 68.801736,6.03523457 C68.8769336,5.76444306 69.0049728,5.51401182 69.1817887,5.296157 C69.4277052,4.99278907 69.7406898,4.77697028 70.0963541,4.62834036 C70.3646266,4.51635891 70.6389962,4.44713401 70.92556,4.40844951 C71.2954509,4.35958488 71.6694065,4.36569296 72.037265,4.42270169 C72.6957521,4.52246699 73.3095271,4.77493425 73.8501368,5.16381529 C73.579832,5.53437208 73.3115594,5.90492888 73.0412546,6.27548568 C72.7038816,6.06984702 72.3400878,5.91307299 71.9478409,5.83163193 Z M58.6500605,1.02253768 L57.032296,1.02253768 L57.032296,11.5162175 L58.6500605,11.5162175 L58.6500605,1.02253768 Z M67.0112203,11.5162175 C67.0112203,9.25012018 67.0112203,6.98605888 67.0112203,4.71996154 C66.4726429,4.71996154 65.9320332,4.71996154 65.3934558,4.71996154 C65.3934558,5.15567118 65.3934558,7.49506546 65.3914234,7.9307751 C65.389391,8.11808953 65.389391,8.30540395 65.3771968,8.49271838 C65.3690674,8.61284393 65.3568732,8.73296949 65.3345171,8.85309504 C65.2918374,9.07705794 65.2186722,9.29084071 65.0946978,9.48629924 C64.7939074,9.95865735 64.2675242,10.1887283 63.7309792,10.1948364 C63.1863047,10.2009445 62.668051,9.97698159 62.3753901,9.48833527 C62.2575128,9.29084071 62.1884123,9.07298589 62.1457326,8.84902299 C62.0888263,8.54972712 62.0745997,8.23414303 62.0664702,7.9307751 C62.0624055,7.73328055 62.0603731,7.53578599 62.0603731,7.33625541 C62.0583408,6.99827503 62.0583408,6.66233068 62.0583408,6.32435031 C62.0583408,5.78887538 62.0583408,5.25340045 62.0583408,4.71792552 C61.5197634,4.71792552 60.9791536,4.71792552 60.4405762,4.71792552 C60.4405762,5.27172468 60.4405762,6.91887001 60.4426086,7.47266917 C60.444641,7.7373526 60.4466733,8.00407205 60.4548028,8.26875548 C60.4608999,8.46217798 60.4690294,8.65560049 60.4873207,8.84902299 C60.527968,9.30712892 60.6133275,9.75505472 60.820629,10.1765122 C61.2494585,11.0397873 62.0806968,11.5386138 63.0074564,11.6485592 C63.4627067,11.7014959 63.9301512,11.6628114 64.3691426,11.5325057 C64.791875,11.4083081 65.2389958,11.1843452 65.5519804,10.860617 C65.566207,11.0784718 65.582466,11.2983627 65.5966925,11.5162175 C66.0661694,11.5162175 66.5376787,11.5162175 67.0112203,11.5162175 Z M47.5513017,10.6407262 C47.1814109,10.2579532 46.81152,9.87518027 46.4416291,9.49444334 C46.1550653,9.7611628 45.8034657,9.94236914 45.423413,10.0278822 C45.0453926,10.1113593 44.6450163,10.1011792 44.2751254,9.98105364 C43.9011698,9.85889206 43.5820881,9.63085711 43.3524305,9.30509289 C43.1268378,8.98543676 43.0089604,8.60062777 42.9886368,8.21378277 C42.9683131,7.83100981 43.0414783,7.42991262 43.2203267,7.08582417 C43.4093368,6.7254475 43.6898035,6.47501626 44.0617268,6.31417018 C44.2202515,6.24494528 44.3808085,6.2001527 44.549495,6.17164833 C44.7669583,6.13499986 44.9803569,6.13092781 45.1998526,6.15739615 C45.5920995,6.20422475 45.9497962,6.3467466 46.2810721,6.55849334 C46.6062509,6.14517999 46.9314297,5.73186664 47.2566085,5.31855329 C46.6936427,4.87469954 46.0575116,4.6161242 45.346183,4.54079122 C44.6572105,4.46749427 43.9377524,4.57336764 43.3077185,4.87266352 C42.6654903,5.17806747 42.1553661,5.66467777 41.8200255,6.29380991 C41.4907819,6.9107259 41.352581,7.62537115 41.3850988,8.31762011 C41.4176167,9.0119051 41.6269506,9.70415406 42.0293593,10.2823855 C42.4378652,10.8667251 43.0109928,11.2800385 43.6796417,11.5101094 C44.3381288,11.7361084 45.063684,11.7727568 45.7424947,11.630235 C46.4294349,11.4836411 47.0615012,11.1538048 47.5513017,10.6407262 Z M55.1239029,11.5162175 C55.1239029,9.25012018 55.1239029,6.98605888 55.1239029,4.71996154 C54.5853256,4.71996154 54.0447158,4.71996154 53.5061384,4.71996154 C53.5061384,5.15567118 53.5061384,7.49506546 53.5041061,7.9307751 C53.5020737,8.11808953 53.5020737,8.30540395 53.4898795,8.49271838 C53.48175,8.61284393 53.4695558,8.73296949 53.4471998,8.85309504 C53.4045201,9.07705794 53.3313548,9.29084071 53.2073804,9.48629924 C52.90659,9.95865735 52.3802069,10.1887283 51.8436618,10.1948364 C51.2989874,10.2009445 50.7807337,9.97698159 50.4880727,9.48833527 C50.3701954,9.29084071 50.3010949,9.07298589 50.2584152,8.84902299 C50.2015089,8.54972712 50.1872824,8.23414303 50.1791529,7.9307751 C50.1750881,7.73328055 50.1730558,7.53578599 50.1730558,7.33625541 C50.1710234,6.99827503 50.1710234,6.66233068 50.1710234,6.32435031 C50.1710234,5.78887538 50.1710234,5.25340045 50.1710234,4.71792552 C49.632446,4.71792552 49.0918363,4.71792552 48.5532589,4.71792552 C48.5532589,5.27172468 48.5532589,6.91887001 48.5552913,7.47266917 C48.5573236,7.7373526 48.559356,8.00407205 48.5674855,8.26875548 C48.5735826,8.46217798 48.581712,8.65560049 48.6000034,8.84902299 C48.6406507,9.30712892 48.7260101,9.75505472 48.9333116,10.1765122 C49.3621412,11.0397873 50.1933795,11.5386138 51.120139,11.6485592 C51.5753893,11.7014959 52.0428339,11.6628114 52.4818252,11.5325057 C52.9045577,11.4083081 53.3516785,11.1843452 53.6646631,10.860617 C53.6788897,11.0784718 53.6951486,11.2983627 53.7093752,11.5162175 C54.1788521,11.5162175 54.6523937,11.5162175 55.1239029,11.5162175 Z M40.1860385,8.13030569 C40.1819373,9.06687781 39.8425319,9.98716172 39.173883,10.6610864 C38.5072665,11.3350112 37.5927011,11.6852077 36.6557797,11.6811708 C35.7188583,11.6770636 34.8063253,11.320759 34.1437735,10.6427622 C33.4812217,9.96272941 33.1458811,9.04040947 33.1499093,8.10383734 C33.1540106,7.16726522 33.4934159,6.24698131 34.1620648,5.57305658 C34.8286814,4.89913186 35.7432467,4.54893533 36.6801681,4.55297227 C37.6170895,4.55707943 38.5296225,4.91338405 39.1921743,5.59138082 C39.8547261,6.2693776 40.1900668,7.19373356 40.1860385,8.13030569 Z M38.5966907,8.12419761 C38.5966907,7.98574782 38.5844965,7.84933405 38.560108,7.71292028 C38.5357196,7.5826146 38.5011694,7.45230891 38.4523926,7.3281113 C38.4076805,7.21002177 38.3487418,7.0960043 38.2816737,6.99013093 C38.2166379,6.88832961 38.1414403,6.79263637 38.0560809,6.70508724 C37.9707215,6.6175381 37.8772326,6.5401691 37.7776466,6.47298023 C37.6739958,6.40375534 37.5622156,6.34471057 37.448403,6.29788197 C37.3284934,6.24901733 37.2024866,6.21033283 37.0744474,6.18590052 C36.9443759,6.15943217 36.8102397,6.14721602 36.6761034,6.14721602 C36.5419671,6.14721602 36.4098633,6.15943217 36.2777594,6.18386449 C36.1497202,6.20829681 36.0237134,6.24494528 35.9038038,6.29380991 C35.7879588,6.34063852 35.6761786,6.39764726 35.5725279,6.46687215 C35.4709095,6.53406102 35.3774206,6.61143003 35.2920611,6.69694313 C35.2067017,6.78245624 35.1294718,6.87814948 35.064436,6.9799508 C34.9953355,7.08582417 34.9384292,7.19984164 34.8916848,7.31793117 C34.8429079,7.44212878 34.8063253,7.57039844 34.7819369,7.70070413 C34.7555161,7.83711789 34.7433219,7.97353166 34.7433219,8.11198145 C34.7433219,8.25043124 34.7555161,8.38684501 34.7799045,8.52325877 C34.804293,8.65356446 34.8388432,8.78387015 34.88762,8.90806775 C34.9343645,9.02615728 34.9912708,9.14017476 35.0583389,9.24604813 C35.1233746,9.34784945 35.1985722,9.44354269 35.2839317,9.53109182 C35.3692911,9.61660493 35.46278,9.69600995 35.562366,9.76319882 C35.6660168,9.83242372 35.777797,9.89146848 35.8916096,9.93829709 C36.0115192,9.98716172 36.137526,10.0258462 36.2655652,10.0502785 C36.3976691,10.0767469 36.5297729,10.088963 36.6639092,10.088963 C36.7980454,10.088963 36.9321817,10.0767469 37.0622532,10.0523146 C37.1902924,10.0278822 37.3162992,9.99123378 37.4362088,9.94236914 C37.5520538,9.89554054 37.663834,9.8385318 37.7674847,9.7693069 C37.8691031,9.70211803 37.962592,9.62474903 38.0479514,9.53923592 C38.1333109,9.45372282 38.2105408,9.35802958 38.2755766,9.25622826 C38.3446771,9.15035489 38.4015834,9.03633741 38.4483278,8.91824789 C38.4971047,8.79405028 38.5336873,8.66578062 38.5580757,8.53547493 C38.5824641,8.39906117 38.5966907,8.26061137 38.5966907,8.12419761 Z M26.4471979,8 C26.4471979,10.4065832 25.3558166,12.6808246 23.4840061,14.1874841 C22.5531818,14.9367418 21.4882213,15.4538925 20.3277395,15.7328281 C19.6631553,15.8936742 18.9985711,15.9649351 18.317728,15.9873314 C17.8137009,16.0036196 17.3096738,15.9995475 16.8056466,15.9995475 C14.4176148,15.9995475 12.0295831,15.9995475 9.64155129,15.9995475 C9.13752415,15.9995475 8.63349702,16.0036196 8.13150226,15.9873314 C7.45065915,15.9649351 6.78607499,15.8936742 6.12352319,15.7348641 C4.96304137,15.4559285 3.89808081,14.9387778 2.96725651,14.1895201 C1.09138133,12.6808246 0,10.4086192 0,8 C0,5.59341685 1.09138133,3.31917541 2.96319177,1.81251591 C3.89401608,1.06325821 4.95897663,0.546107514 6.11945846,0.267171903 C6.78404262,0.106325821 7.44862678,0.0350648983 8.12946989,0.0126686084 C8.63349702,-0.00361960241 9.13752415,0.000452450301 9.64155129,0.000452450301 C12.0295831,0.000452450301 14.4176148,0.000452450301 16.8056466,0.000452450301 C17.3096738,0.000452450301 17.8137009,-0.00361960241 18.3156957,0.0126686084 C18.9965388,0.0350648983 19.6611229,0.106325821 20.3236747,0.265135876 C21.4841565,0.544071487 22.5491171,1.06122218 23.4799414,1.81047988 C25.3558166,3.31917541 26.4471979,5.59138082 26.4471979,8 Z M21.1203628,8.00203603 C21.1203628,7.13876085 20.695598,6.33860249 19.9883341,5.84995617 C19.6347021,5.60563301 19.2444876,5.45903911 18.8217552,5.38981421 C18.4010551,5.32058932 17.9823874,5.3348415 17.5616873,5.3348415 C14.6696284,5.3348415 11.7796019,5.3348415 8.88754295,5.3348415 C8.46684289,5.3348415 8.04817519,5.32058932 7.62747512,5.38981421 C7.20677506,5.45903911 6.8165605,5.60563301 6.46292856,5.84792014 C5.75566468,6.33656647 5.32886751,7.13672483 5.32886751,8 C5.32886751,8.86327517 5.75363231,9.66343353 6.46089619,10.1520799 C6.81452813,10.396403 7.20474269,10.5429969 7.62747512,10.6122218 C8.04817519,10.6814467 8.46684289,10.6671945 8.88754295,10.6671945 C11.7796019,10.6671945 14.6696284,10.6671945 17.5616873,10.6671945 C17.9823874,10.6671945 18.4010551,10.6814467 18.8217552,10.6122218 C19.2424552,10.5429969 19.6326698,10.396403 19.9863017,10.1541159 C20.6935656,9.66343353 21.1183304,8.86327517 21.1203628,8.00203603 Z" id="Shape"></path>
                </g>
                <g id="PS4" fill="#000000">
                    <g id="PSFM_R-link" transform="translate(0.774163, 0.774163)">
                        <g id="PSFM_R">
                            <path d="M7.88133971,0 L7.88133971,15.1866029 L11.3263158,16.2755981 L11.3263158,3.54258373 C11.3263158,2.94162679 11.5942584,2.54354067 12.0229665,2.68133971 C12.5837321,2.83636364 12.692823,3.38947368 12.692823,3.98277512 L12.692823,9.06794258 C14.8325359,10.1033493 16.5205742,9.06794258 16.5205742,6.33492823 C16.5205742,3.54066986 15.5330144,2.29665072 12.6258373,1.29569378 C11.0710323,0.771401412 9.48681239,0.338760483 7.88133971,0" id="Path"></path>
                            <path d="M11.9751196,14.0555024 L17.4966507,12.0899522 C18.122488,11.8583732 18.2181818,11.5444976 17.7110048,11.3779904 C17.2038278,11.2114833 16.2813397,11.2574163 15.6497608,11.4851675 L11.9751196,12.7808612 L11.9751196,10.7177033 L12.1856459,10.6488038 C13.0179978,10.3797911 13.8762893,10.1988956 14.7464115,10.1090909 C16.3572037,9.94669696 17.9839735,10.1427721 19.5100478,10.6832536 C21.1330144,11.1980861 21.3148325,11.9502392 20.9033493,12.4727273 C20.491866,12.9952153 19.477512,13.3645933 19.477512,13.3645933 L11.9751196,16.0440191 L11.9751196,14.0555024 Z" id="Path"></path>
                            <path d="M1.58277512,13.84689 C-0.0803827751,13.3818182 -0.357894737,12.4038278 0.4,11.8392344 C1.10047847,11.322488 2.29665072,10.9339713 2.29665072,10.9339713 L7.21722488,9.18660287 L7.21722488,11.1770335 L3.67655502,12.4401914 C3.04880383,12.6641148 2.95502392,12.9799043 3.46028708,13.1464115 C3.96555024,13.3129187 4.88803828,13.2708134 5.51578947,13.0392344 L7.21722488,12.4401914 L7.21722488,14.2258373 L6.87464115,14.2813397 C5.10160117,14.5689799 3.28516148,14.4198544 1.58277512,13.84689 Z" id="Path"></path>
                            <path d="M20.0332851,14.6490263 C20.6441583,14.6519008 21.13731,15.1488955 21.1354013,15.7597254 C21.1334815,16.3705554 20.6372246,16.8644499 20.0263453,16.8634976 C19.415466,16.8625426 18.9207538,16.3671011 18.920747,15.7562681 C18.9103688,15.4586349 19.0244248,15.1701259 19.2355211,14.9600345 C19.4466174,14.7499431 19.735681,14.6372517 20.0332851,14.6490263 Z M20.0332851,16.6993775 C20.415462,16.7025446 20.7617721,16.4747823 20.9102248,16.122629 C21.0586774,15.7704757 20.9799236,15.3635523 20.7108012,15.0922019 C20.4416788,14.8208515 20.0353935,14.7387202 19.6819899,14.8842258 C19.3285863,15.0297314 19.0979325,15.3741075 19.0979193,15.7562681 C19.0884334,16.0078168 19.1836651,16.2520411 19.3609348,16.4307784 C19.5382045,16.6095157 19.7816467,16.7067691 20.0332851,16.6993775 L20.0332851,16.6993775 Z M19.5955652,15.1127652 L20.1010274,15.1127652 C20.3355202,15.1127652 20.5100871,15.1805024 20.5100871,15.4436351 C20.5186477,15.5919535 20.4181282,15.7244965 20.2729888,15.7562681 L20.2729888,15.7562681 C20.356364,15.7771103 20.41629,15.8396369 20.4579776,15.9881375 C20.4996652,16.1366382 20.5465637,16.2669019 20.5830404,16.3893499 L20.3485476,16.3893499 C20.3146764,16.2929547 20.2729888,16.1288224 20.246934,16.040243 C20.2104574,15.8917424 20.1687698,15.8448474 19.9863865,15.8448474 L19.8352689,15.8448474 L19.8352689,16.3893499 L19.6059871,16.3893499 L19.5955652,15.1127652 Z M19.824847,15.6859257 L20.0280741,15.6859257 C20.1896136,15.6859257 20.2886217,15.6233991 20.2886217,15.4748984 C20.2886217,15.3263977 20.1687698,15.2742922 20.043707,15.2742922 L19.824847,15.2742922 L19.824847,15.6859257 Z" id="Shape"></path>
                        </g>
                    </g>
                    <path d="M57.8287114,5.00382775 L57.8287114,4.09856459 C57.8287114,4.06124749 57.7990252,4.03070166 57.7617225,4.02966507 L51.3789474,4.02966507 C49.5263158,4.02966507 48.6210526,5.17799043 48.6210526,6.65550239 L48.6210526,11.1703349 C48.6210526,12.0889952 48.184689,12.7492823 47.2641148,12.7492823 L41.2641148,12.7492823 C41.2268121,12.7503189 41.1971292,12.7808647 41.1971292,12.8181818 L41.1971292,13.7253589 C41.1971292,13.763411 41.2279766,13.7942584 41.2660287,13.7942584 L47.9645933,13.7942584 C49.8172249,13.7942584 50.7244019,12.645933 50.7244019,11.1703349 L50.7244019,6.65358852 C50.7244019,5.73492823 51.1607656,5.07272727 52.0794258,5.07272727 L57.769378,5.07272727 C57.8036526,5.06792197 57.8290433,5.03843597 57.8287114,5.00382775 L57.8287114,5.00382775 Z" id="Path"></path>
                    <path d="M38.9062201,4.03157894 L27.3578947,4.03157894 C27.3205776,4.03157894 27.2900318,4.06126189 27.288967,4.09856459 L27.288967,5.00574163 C27.288967,5.02419085 27.2965454,5.04183572 27.3099482,5.05451404 C27.323351,5.06719236 27.3413895,5.07378154 27.3598086,5.07272727 L38.2114833,5.07272727 C39.1320574,5.07272727 39.5684211,5.73684211 39.5684211,6.65550239 C39.5684211,7.57416268 39.1320574,8.23636364 38.2114833,8.23636364 L29.6258373,8.23636364 C28.2861244,8.23636364 27.288967,9.35598086 27.288967,10.8430622 L27.288967,13.7253589 C27.2884606,13.7437908 27.2955478,13.761628 27.3085867,13.7746669 C27.3216256,13.7877057 27.3394628,13.794793 27.3578947,13.7942866 L29.3138756,13.7942866 C29.3519278,13.7942866 29.3827751,13.763411 29.3827751,13.7253589 L29.3827751,10.8430622 C29.3827751,9.92248804 29.9129187,9.28133971 30.6746411,9.28133971 L38.9043062,9.28133971 C40.7550239,9.28133971 41.6602871,8.13301435 41.6602871,6.65741627 C41.6602871,5.18181818 40.7569378,4.03157894 38.9062201,4.03157894 Z" id="Path"></path>
                    <path d="M72.9119617,11.708134 L70.9559809,11.708134 C70.9176071,11.708148 70.8862046,11.6775942 70.8851675,11.6392344 L70.8851675,5.07655502 C70.8851675,4.06794258 70.1866029,3.73684211 69.2047847,4.34162679 L57.4382775,11.5607656 C56.9751196,11.845933 56.8200957,12.1655502 56.9311005,12.4028708 C57.0287081,12.6076555 57.2832536,12.7492823 57.7923445,12.7492823 L68.7205742,12.7492823 C68.7505159,12.752754 68.775431,12.773894 68.7837321,12.8028708 L68.7837321,13.723445 C68.783677,13.7611068 68.8131109,13.7922226 68.8507177,13.7942584 L70.8162679,13.7942584 C70.8546277,13.7932212 70.8851815,13.7618188 70.8851675,13.723445 L70.8851675,12.8200957 C70.8851534,12.7817219 70.9157072,12.7503194 70.954067,12.7492823 L72.9119617,12.7492823 C72.9305643,12.7497992 72.9485849,12.7427691 72.961923,12.7297914 C72.9752611,12.7168138 72.9827751,12.6989926 72.9827751,12.6803828 L72.9827751,11.7751196 C72.9822745,11.756844 72.9745308,11.7395166 72.9612492,11.7269529 C72.9479675,11.7143891 72.930237,11.7076193 72.9119617,11.708134 L72.9119617,11.708134 Z M68.7856459,11.6334928 C68.7856459,11.6718666 68.7551062,11.7032691 68.7167464,11.7043062 L59.5550239,11.7043062 C59.4822967,11.7043062 59.4421053,11.6851675 59.4325359,11.6583732 C59.4229665,11.6315789 59.4440191,11.5837321 59.4995215,11.5473684 L68.6172249,5.93205742 C68.6803828,5.8937799 68.7856459,5.90143541 68.7856459,6.02583732 L68.7856459,11.6334928 Z" id="Shape"></path>
                    <polygon id="Path" points="74.3952153 12.8200957 74.0679426 12.8200957 74.0679426 12.7090909 74.84689 12.7090909 74.84689 12.8200957 74.5272727 12.8200957 74.5272727 13.7942584 74.3952153 13.7942584"></polygon>
                    <polygon id="Path" points="75.5263158 13.6736842 75.8325359 12.7167464 76.0583732 12.7167464 76.0583732 13.8019139 75.9320574 13.8019139 75.9320574 12.8181818 75.6105263 13.8019139 75.4440191 13.8019139 75.1244019 12.8105263 75.1244019 13.7942584 75 13.7942584 75 12.7090909 75.2220096 12.7090909"></polygon>
                </g>
            </g>
            <g id="ROW-4" transform="translate(16.000000, 121.000000)" fill="#000000">
                <g id="roku" transform="translate(0.000000, 0.000000)">
                    <path d="M18.7670103,3.16082474 C22.3298969,3.16082474 25.2309278,6.01649485 25.2309278,9.57938144 C25.2309278,13.1443299 22.3319588,16 18.7670103,16 C15.2020619,16 12.3237113,13.1443299 12.3237113,9.57938144 C12.3237113,6.01649485 15.2020619,3.16082474 18.7670103,3.16082474 Z M30.2474227,3.40618557 L30.2474227,8.25979381 L35.0865979,3.42061856 L43.6824742,3.42061856 L43.6824742,10.1690722 C43.6824742,12.1278351 44.156701,12.7402062 45.1896907,12.7402062 C46.2082474,12.7402062 46.8680412,12.2206186 47.3402062,11.3958763 L47.3402062,11.3958763 L47.3402062,3.42061856 L51.5402062,3.42061856 L51.5402062,15.7381443 L50.643299,15.7381443 L48.7546392,14.1092784 C47.9752577,15.0061856 46.371134,15.9979381 44.6247423,15.9979381 C40.9443299,15.9979381 39.4824742,13.7546392 39.4824742,11.3237113 L39.4824742,11.3237113 L39.4824742,4.00412371 L34.1649485,9.31958763 L40.5835052,15.7402062 L35.2989691,15.7402062 L30.2474227,10.7360825 L30.2474227,15.742268 L26.0474227,15.742268 L26.0474227,3.40618557 L30.2474227,3.40618557 Z M6.02268041,5.32907052e-15 C9.49072165,5.32907052e-15 12.3216495,2.35876289 12.3216495,5.26185567 C12.3216495,7.03092784 11.2371134,8.61237113 9.58350515,9.57938144 L14.028866,15.7525773 L9.26185567,15.7525773 L5.47835052,10.5010309 L4.20618557,10.5010309 L4.20618557,15.7402062 L0.00618556701,15.7402062 L0.00618556701,5.32907052e-15 L6.02268041,5.32907052e-15 Z M18.7649485,6.20618557 C17.6556701,6.20618557 16.7113402,7.71340206 16.7113402,9.57938144 C16.7113402,11.4453608 17.6556701,12.9546392 18.7649485,12.9546392 C19.8989691,12.9546392 20.8412371,11.4453608 20.8412371,9.57938144 C20.8412371,7.71340206 19.9010309,6.20618557 18.7649485,6.20618557 Z M5.50515464,2.6185567 L4.20618557,2.6185567 L4.20618557,7.88041237 L5.50515464,7.88041237 C6.9443299,7.88041237 8.12371134,6.70103093 8.12371134,5.26185567 C8.12371134,3.79793814 6.94639175,2.6185567 5.50515464,2.6185567 Z" id="Combined-Shape"></path>
                </g>
                <g id="samsung" transform="translate(72.000000, 4.000000)">
                    <path d="M44.7294118,5.58039216 C44.7294118,5.58039216 43.9372549,5.09019608 43.4470588,4.90196078 C43.4470588,4.90196078 41.9294118,4.2 41.627451,3.8627451 C41.627451,3.8627451 41.0352941,3.30588235 41.3803922,2.65882353 C41.3803922,2.65882353 41.5254902,2.23529412 42.1490196,2.23529412 C42.1490196,2.23529412 42.9647059,2.27843137 42.9647059,2.94901961 L42.9647059,3.89411765 L45.8823529,3.89411765 L45.8784314,2.50588235 C45.8784314,2.50588235 46.1019608,0.231372549 42.4431373,0.129411765 C42.4431373,0.129411765 39.5647059,-0.0588235294 38.7411765,1.49019608 C38.7411765,1.49019608 38.4156863,1.83529412 38.4156863,3.03921569 L38.4156863,3.90980392 C38.4156863,3.90980392 38.3843137,4.91372549 38.8941176,5.56078431 C38.8941176,5.56078431 39.1843137,5.98431373 39.8980392,6.45098039 C39.8980392,6.45098039 41.3490196,7.23137255 42.2196078,7.67843137 C42.2196078,7.67843137 43.0980392,8.18039216 42.9843137,8.97647059 C42.9843137,8.97647059 42.9137255,9.79607843 42.0627451,9.76078431 C42.0627451,9.76078431 41.2862745,9.7254902 41.2862745,8.92156863 L41.2862745,7.98039216 L38.1803922,7.98039216 L38.1803922,9.34901961 C38.1803922,9.34901961 38.0941176,11.9686275 42.0862745,11.9686275 C42.0862745,11.9686275 45.9019608,12.0470588 46.0784314,9.28235294 L46.0784314,8.16862745 C46.0784314,8.16862745 46.2156863,6.4745098 44.7294118,5.58039216 L44.7294118,5.58039216 Z M29.8,0.450980392 L28.8235294,6.57254902 L28.5960784,6.57254902 L27.6627451,0.505882353 L22.7921569,0.505882353 L22.5490196,11.5882353 L25.4352941,11.5882353 L25.4705882,3.23921569 L25.6980392,3.23921569 L27.227451,11.5882353 L30.2627451,11.5882353 L31.7647059,3.24313725 L31.9647059,3.24313725 L32.0352941,11.5882353 L34.9333333,11.5882353 L34.6196078,0.450980392 L29.8,0.450980392 L29.8,0.450980392 Z M12.6313725,0.498039216 L10.7137255,11.5764706 L13.8196078,11.5764706 L14.9568627,2.98823529 L15.2117647,2.98823529 L16.3490196,11.5764706 L19.4509804,11.5764706 L17.5294118,0.498039216 L12.6313725,0.498039216 Z M77.7843137,5.42745098 L77.7843137,7.0627451 L78.5803922,7.0627451 L78.5803922,8.81568627 C78.5803922,9.6745098 77.8470588,9.69019608 77.8470588,9.69019608 C76.9568627,9.69019608 76.9882353,8.8745098 76.9882353,8.8745098 L76.9882353,2.80784314 C76.9882353,2.18431373 77.7803922,2.14901961 77.7803922,2.14901961 C78.5411765,2.14901961 78.545098,2.89411765 78.545098,2.89411765 L78.545098,3.81568627 L81.4705882,3.81568627 C81.5647059,2.01568627 81.2078431,1.58039216 81.2078431,1.58039216 C80.4823529,-0.0470588235 77.7372549,0.0392156863 77.7372549,0.0392156863 C73.5215686,0.0392156863 73.9882353,3.2745098 73.9882353,3.2745098 L73.9882353,9.14117647 C74.0784314,12.1764706 78.2313725,11.8666667 78.3019608,11.8627451 C80.1490196,11.6588235 80.7058824,11.0705882 80.7058824,11.0705882 C81.2196078,10.6901961 81.3529412,10.1607843 81.3529412,10.1607843 C81.4980392,9.85490196 81.5372549,8.87058824 81.5372549,8.87058824 L81.5372549,5.42352941 L77.7843137,5.42745098 L77.7843137,5.42745098 Z M68.0941176,7.23137255 L67.9686275,7.23137255 L65,0.454901961 L61.4509804,0.454901961 L61.4509804,11.5882353 L64.3411765,11.5882353 L64.1686275,4.81176471 L64.2980392,4.81176471 L67.372549,11.5882353 L70.8156863,11.5882353 L70.8156863,0.450980392 L67.8901961,0.450980392 L68.0941176,7.23137255 L68.0941176,7.23137255 Z M54.4,8.81568627 C54.4,8.81568627 54.4431373,9.72941176 53.5960784,9.72941176 C53.5960784,9.72941176 52.7058824,9.77647059 52.7058824,8.83921569 L52.6980392,0.462745098 L49.5294118,0.462745098 L49.5294118,8.77254902 C49.5294118,8.77254902 49.2039216,11.9176893 53.6431373,11.9176893 C53.6431373,11.9176893 57.5019608,11.9647059 57.5019608,8.91764706 L57.5019608,0.462745098 L54.4039216,0.462745098 L54.4,8.81568627 L54.4,8.81568627 Z M6.58823529,5.58039216 C6.58823529,5.58039216 5.79607843,5.09019608 5.30588235,4.90196078 C5.30588235,4.90196078 3.78823529,4.2 3.48627451,3.8627451 C3.48627451,3.8627451 2.89411765,3.30588235 3.24313725,2.65882353 C3.24313725,2.65882353 3.38823529,2.23529412 4.01176471,2.23529412 C4.01176471,2.23529412 4.82745098,2.27843137 4.82745098,2.94901961 L4.82745098,3.89411765 L7.74509804,3.89411765 L7.74117647,2.50588235 C7.74117647,2.50588235 7.96470588,0.231372549 4.30588235,0.129411765 C4.30588235,0.129411765 4.03137255,0.109803922 3.62745098,0.133333333 C3.62745098,0.133333333 1.41176471,0.250980392 0.619607843,1.46666667 C0.615686275,1.4745098 0.607843137,1.48235294 0.603921569,1.49019608 C0.603921569,1.49019608 0.282352941,1.83529412 0.282352941,3.03921569 L0.282352941,3.90980392 C0.282352941,3.90980392 0.247058824,4.91372549 0.760784314,5.56078431 C0.760784314,5.56078431 1.05098039,5.98431373 1.76470588,6.45098039 C1.76470588,6.45098039 3.21568627,7.23137255 4.08627451,7.67843137 C4.08627451,7.67843137 4.96470588,8.18039216 4.85098039,8.97647059 C4.85098039,8.97647059 4.78039216,9.79607843 3.93333333,9.76078431 C3.93333333,9.76078431 3.15686275,9.7254902 3.15686275,8.92156863 L3.15686275,7.97647059 L0.0392156863,7.97647059 L0.0392156863,9.34901961 C0.0392156863,9.34901961 -0.0470588235,11.9686275 3.94509804,11.9686275 C3.94509804,11.9686275 7.76078431,12.0470588 7.94117647,9.28235294 L7.94117647,8.16862745 C7.94117647,8.16862745 8.0745098,6.4745098 6.58823529,5.58039216 L6.58823529,5.58039216 Z" id="Shape"></path>
                </g>
                <g id="xbox-one" transform="translate(174.000000, 2.000000)">
                    <path d="M51.3223711,12.952381 L48.2825732,8.65821735 L45.2459616,12.952381 L43.9937178,12.952381 L47.6484853,7.76290911 L44.3091685,3.04761905 L45.5614123,3.04761905 L48.2825732,6.89412853 L51.003734,3.04761905 L52.2527915,3.04761905 L48.916661,7.76290911 L52.5714286,12.952381 L51.3223711,12.952381 Z M27.6285162,12.949065 L23.9705623,7.76290911 L27.3098791,3.04761905 L26.0576353,3.04761905 L23.3364744,6.89412853 L20.6185,3.04761905 L19.3694425,3.04761905 L22.705573,7.76290911 L19.047619,12.949065 L20.2998629,12.949065 L23.3364744,8.6549014 L26.3762724,12.949065 L27.6285162,12.949065 Z" id="Shape"></path>
                    <path d="M34.3725901,8.26022969 C34.1837826,8.09958734 33.9725742,7.96464777 33.7453652,7.85862381 C34.4525932,7.47950787 34.8942107,6.74055305 34.8942107,5.9373413 C34.8942107,5.32368751 34.6702019,3.32529667 31.7868875,3.32529667 L27.9051335,3.32529667 L27.9051335,7.46344363 L26.6122822,7.46344363 C26.4458756,7.68191723 26.0650605,8.20882414 25.9178547,8.42729774 L27.9051335,8.42729774 L27.9051335,12.9220707 L31.7868875,12.9220707 C33.8893709,12.9220707 35.1950493,11.8489798 35.1950493,10.1204681 C35.1982228,9.36544907 34.9134115,8.72609251 34.3725901,8.26022969 M28.9803762,4.32770494 L31.7900876,4.32770494 C32.5485177,4.32770494 33.8221682,4.51726291 33.8221682,5.85380727 C33.8221682,6.86264124 33.0797388,7.46344363 31.7900876,7.46344363 L28.9803762,7.46344363 L28.9803762,4.32770494 L28.9803762,4.32770494 Z M31.7868875,11.9228753 L28.977176,11.9228753 L28.977176,8.43051058 L31.7868875,8.43051058 C32.8525298,8.43051058 34.1261803,8.72609251 34.1261803,10.101191 C34.1261803,11.6851246 32.6605221,11.9228753 31.7868875,11.9228753 M40.2480231,3.10682307 C37.5631166,3.10682307 35.6846421,5.16947086 35.6846421,8.12207727 C35.6846421,11.0778965 37.5599165,13.1373315 40.2480231,13.1373315 C42.9297295,13.1373315 44.8018038,11.0778965 44.8018038,8.12207727 C44.8018038,5.16947086 42.9297295,3.10682307 40.2480231,3.10682307 M40.2480231,12.1220718 C38.203142,12.1220718 36.7694851,10.4770941 36.7694851,8.12208273 C36.7694851,5.7670604 38.203142,4.12208273 40.2480231,4.12208273 C42.2897041,4.12208273 43.7169607,5.7670604 43.7169607,8.12208273 C43.7169607,10.4770941 42.2897041,12.1220718 40.2480231,12.1220718 M2.37772088,2.30039847 L2.37132063,2.30682416 L2.37132063,2.30682416 C0.851260328,3.81043657 -0.00317356599,5.86023297 1.32251655e-05,7.99998908 C-0.00317356599,9.75099071 0.569649157,11.4537996 1.62889117,12.8449624 C1.63849156,12.8578138 1.65769232,12.8674523 1.67049283,12.8578138 C1.68329333,12.8481752 1.68649346,12.832111 1.68009321,12.8160468 C1.07206909,10.9301056 4.17619222,6.35822425 5.78265595,4.44336743 C5.7890562,4.43694174 5.79545645,4.43051604 5.79545645,4.4208775 C5.79545645,4.41123896 5.7890562,4.40160042 5.77945582,4.39517472 C3.07854868,1.69959607 2.35852012,2.3164627 2.3681205,2.30682416 M13.5589644,2.30039847 L13.5653647,2.30682416 L13.5653647,2.30682416 C15.085425,3.80722372 15.9366587,5.86023297 15.9334719,7.99998908 C15.9366587,9.75099071 15.363836,11.4537996 14.304594,12.8449624 C14.2949936,12.8578138 14.2757929,12.8674523 14.2629923,12.8578138 C14.2501918,12.8481752 14.2501918,12.832111 14.253392,12.8160468 C14.8614161,10.9301056 11.7572929,6.35501141 10.1540293,4.44015458 C10.1476291,4.43372889 10.1412288,4.4273032 10.1412288,4.41766465 C10.1412288,4.40481327 10.1476291,4.39838757 10.1572295,4.39196188 C12.8581366,1.69638323 13.5749651,2.3164627 13.5653647,2.30682416 M7.96834265,0 C9.57480637,0 10.8996589,0.443372889 12.1189073,1.16947632 C12.1349079,1.17590201 12.1381081,1.19517909 12.1317078,1.20803048 C12.1253075,1.22088187 12.1093069,1.22409472 12.0933063,1.22088187 C10.5508451,0.886745778 8.20515204,2.22329014 7.98434328,2.35822971 C7.97794303,2.36144256 7.9747429,2.36465541 7.96834265,2.36465541 C7.96194239,2.36465541 7.95554214,2.36144256 7.95234201,2.35822971 C7.36351866,2.01766793 5.19703272,0.877107237 3.83057851,1.23052041 C3.81457788,1.23373326 3.79857724,1.23052041 3.79217699,1.21766902 C3.78577673,1.20160479 3.79217699,1.18554055 3.8049775,1.17911486 C5.02422586,0.443372889 6.36507905,0 7.96834265,0 M7.96834265,6.4160555 C7.97794303,6.4160555 7.98754341,6.4224812 7.99394366,6.42890689 C10.3780382,8.25059115 14.4582001,12.748577 13.2133507,14.0208644 L13.2165508,14.0176516 L13.2165508,14.0208644 L13.2133507,14.0208644 C11.7604931,15.2995775 9.89481907,16.003191 7.96514252,15.9999891 C6.03546597,16.003191 4.16979197,15.2995775 2.72013446,14.0208644 L2.71693434,14.0176516 L2.72013446,14.0208644 C1.47528508,12.748577 5.55544693,8.2473783 7.93954151,6.42890689 C7.94594176,6.4224812 7.95874227,6.4160555 7.96834265,6.4160555 M70.9852424,3.32850951 L70.9852424,11.2031976 L65.2058131,3.32208382 L64.2585756,3.31887097 L64.2585756,12.9092193 L65.3210177,12.9092193 L65.3210177,5.20802502 L70.9852424,12.915645 L72.0508847,12.9188579 L72.0508847,3.32850951 L70.9852424,3.32850951 Z M58.7383566,3.10361022 C56.0534501,3.10361022 54.1749756,5.16625801 54.1749756,8.11886442 C54.1749756,11.0746837 56.0534501,13.1373315 58.7383566,13.1373315 C61.420063,13.1373315 63.2921372,11.0746837 63.2921372,8.11886442 C63.2921372,5.16947086 61.420063,3.10361022 58.7383566,3.10361022 M58.7383566,12.1220718 C56.6934755,12.1220718 55.2598186,10.4770941 55.2598186,8.11886988 C55.2598186,5.76384756 56.6934755,4.11886988 58.7383566,4.11886988 C60.7800376,4.11886988 62.2072942,5.76384756 62.2072942,8.11886988 C62.2040941,10.4738813 60.7800376,12.1220718 58.7383566,12.1220718 M74.3165745,11.9774937 L74.3165745,8.43051058 L79.5743831,8.43051058 L79.5743831,7.49235925 L74.3165745,7.49235925 L74.3165745,4.26023515 L79.9327973,4.26023515 L79.9327973,3.32208382 L73.2477322,3.32208382 L73.2477322,12.915645 L80,12.915645 L80,11.9774937 L74.3165745,11.9774937 Z" id="Shape"></path>
                </g>
            </g>
        </g>
    </g>
</svg>