<svg xmlns="http://www.w3.org/2000/svg">
<defs>
<font id="ShowtimeAtypText-Light" horiz-adv-x="815" >
  <font-face 
    font-family="Showtime Atyp Text Light"
    font-weight="300"
    font-stretch="normal"
    units-per-em="1000"
    panose-1="0 0 4 0 0 0 0 0 0 0"
    ascent="800"
    descent="-200"
    x-height="503"
    cap-height="700"
    bbox="-451 -297 1953 1104"
    underline-thickness="50"
    underline-position="-100"
    stemh="51"
    stemv="55"
    unicode-range="U+0020-1F7E4"
  />
<missing-glyph horiz-adv-x="790" 
d="M100 0v590h184v55c0 35 20 55 55 55h112c35 0 55 -20 55 -55v-55h184v-590h-590zM339 590h112v55h-112v-55zM185 405c12 -8 26 -11 39 -11c22 0 41 11 41 35c0 36 -56 28 -56 42c0 6 7 9 16 9c7 0 18 -2 31 -9l4 24c-12 7 -24 9 -35 9c-22 0 -41 -11 -41 -35
c0 -37 55 -29 55 -43c0 -5 -6 -9 -15 -9s-22 4 -35 12zM293 502v-64c0 -26 16 -44 43 -44s43 18 43 44v64h-24v-64c0 -12 -7 -20 -19 -20s-19 8 -19 20v64h-24zM410 396h73l3 24h-26v58h23l3 24h-73l-3 -24h26v-58h-23zM547 396h24v82h31l3 24h-89l-3 -24h34v-82zM274 297
c0 28 -11 52 -42 52c-29 0 -45 -24 -45 -55c0 -39 23 -55 48 -55c13 0 27 4 38 12l-5 24c-14 -8 -24 -12 -33 -12c-15 0 -22 12 -22 31c0 17 6 31 19 31c14 0 16 -14 16 -31zM414 250c12 -8 26 -11 39 -11c22 0 41 11 41 35c0 36 -56 28 -56 42c0 6 7 9 16 9
c7 0 18 -2 31 -9l4 24c-12 7 -24 9 -35 9c-22 0 -41 -11 -41 -35c0 -37 55 -29 55 -43c0 -5 -6 -9 -15 -9s-22 4 -35 12zM296 241h25l5 27h32l5 -27h24l-18 106h-54zM528 241h71l3 24h-50v17h47l3 24h-50v17h47l3 24h-74v-106zM330 292l5 31h14l5 -31h-24zM220 86h24v82h31
l3 24h-89l-3 -24h34v-82zM331 86h24v31l36 75h-27l-21 -45l-20 45h-28l36 -75v-31zM416 86h24v33h19c23 0 40 16 40 36s-17 37 -40 37h-43v-106zM528 86h71l3 24h-50v17h47l3 24h-50v17h47l3 24h-74v-106zM440 143v25h19c8 0 14 -6 14 -13s-6 -12 -14 -12h-19z" />
    <glyph glyph-name="f_f" unicode="ff" horiz-adv-x="741" 
d="M145 0v452h-117v51h117v71c0 114 53 166 168 166h47v-51h-47c-82 0 -113 -32 -113 -114v-72h289v71c0 114 52 166 167 166h48v-51h-48c-82 0 -112 -32 -112 -114v-72h160v-51h-160v-452h-55v452h-289v-452h-55z" />
    <glyph glyph-name="f_f_i" unicode="ffi" horiz-adv-x="955" 
d="M887 503v-503h-55v452h-288v-452h-55v452h-289v-452h-55v452h-117v51h117v71c0 114 53 166 168 166h47v-51h-47c-82 0 -113 -32 -113 -114v-72h289v71c0 114 52 166 167 166h48v-51h-48c-82 0 -112 -32 -112 -114v-72h343zM860 694c21 0 38 -17 38 -38
c0 -22 -17 -38 -38 -38c-22 0 -39 16 -39 38c0 21 17 38 39 38z" />
    <glyph glyph-name="f_f_l" unicode="ffl" horiz-adv-x="955" 
d="M832 740h55v-740h-55v452h-288v-452h-55v452h-289v-452h-55v452h-117v51h117v71c0 114 53 166 168 166h47v-51h-47c-82 0 -113 -32 -113 -114v-72h289v71c0 114 52 166 167 166h48v-51h-48c-82 0 -112 -32 -112 -114v-72h288v237z" />
    <glyph glyph-name="f_i" unicode="fi" horiz-adv-x="611" 
d="M544 503v-503h-55v452h-289v-452h-55v452h-117v51h117v71c0 114 53 166 168 166h47v-51h-47c-82 0 -113 -32 -113 -114v-72h344zM516 618c-21 0 -38 16 -38 38c0 21 17 38 38 38s38 -17 38 -38c0 -22 -17 -38 -38 -38z" />
    <glyph glyph-name="f_l" unicode="fl" horiz-adv-x="611" 
d="M489 740h55v-740h-55v452h-289v-452h-55v452h-117v51h117v71c0 114 53 166 168 166h47v-51h-47c-82 0 -113 -32 -113 -114v-72h289v237z" />
    <glyph glyph-name=".notdef" horiz-adv-x="790" 
d="M100 0v590h184v55c0 35 20 55 55 55h112c35 0 55 -20 55 -55v-55h184v-590h-590zM339 590h112v55h-112v-55zM185 405c12 -8 26 -11 39 -11c22 0 41 11 41 35c0 36 -56 28 -56 42c0 6 7 9 16 9c7 0 18 -2 31 -9l4 24c-12 7 -24 9 -35 9c-22 0 -41 -11 -41 -35
c0 -37 55 -29 55 -43c0 -5 -6 -9 -15 -9s-22 4 -35 12zM293 502v-64c0 -26 16 -44 43 -44s43 18 43 44v64h-24v-64c0 -12 -7 -20 -19 -20s-19 8 -19 20v64h-24zM410 396h73l3 24h-26v58h23l3 24h-73l-3 -24h26v-58h-23zM547 396h24v82h31l3 24h-89l-3 -24h34v-82zM274 297
c0 28 -11 52 -42 52c-29 0 -45 -24 -45 -55c0 -39 23 -55 48 -55c13 0 27 4 38 12l-5 24c-14 -8 -24 -12 -33 -12c-15 0 -22 12 -22 31c0 17 6 31 19 31c14 0 16 -14 16 -31zM414 250c12 -8 26 -11 39 -11c22 0 41 11 41 35c0 36 -56 28 -56 42c0 6 7 9 16 9
c7 0 18 -2 31 -9l4 24c-12 7 -24 9 -35 9c-22 0 -41 -11 -41 -35c0 -37 55 -29 55 -43c0 -5 -6 -9 -15 -9s-22 4 -35 12zM296 241h25l5 27h32l5 -27h24l-18 106h-54zM528 241h71l3 24h-50v17h47l3 24h-50v17h47l3 24h-74v-106zM330 292l5 31h14l5 -31h-24zM220 86h24v82h31
l3 24h-89l-3 -24h34v-82zM331 86h24v31l36 75h-27l-21 -45l-20 45h-28l36 -75v-31zM416 86h24v33h19c23 0 40 16 40 36s-17 37 -40 37h-43v-106zM528 86h71l3 24h-50v17h47l3 24h-50v17h47l3 24h-74v-106zM440 143v25h19c8 0 14 -6 14 -13s-6 -12 -14 -12h-19z" />
    <glyph glyph-name="A" unicode="A" horiz-adv-x="714" 
d="M636 0l-87 198h-385l-87 -198h-59l310 700h58l310 -700h-60zM187 250h339l-169 383z" />
    <glyph glyph-name="Aacute" unicode="&#xc1;" horiz-adv-x="714" 
d="M508 900l-153 -151h-69l151 151h71zM636 0l-87 198h-385l-87 -198h-59l310 700h58l310 -700h-60zM187 250h339l-169 383z" />
    <glyph glyph-name="Abreve" unicode="&#x102;" horiz-adv-x="714" 
d="M357 757c-91 0 -150 56 -160 143h51c8 -56 46 -96 109 -96s102 40 110 96h51c-10 -87 -69 -143 -161 -143zM636 0l-87 198h-385l-87 -198h-59l310 700h58l310 -700h-60zM187 250h339l-169 383z" />
    <glyph glyph-name="uni1EAE" unicode="&#x1eae;" horiz-adv-x="714" 
d="M507 1098l-151 -149h-68l149 149h70zM357 757c-91 0 -150 56 -160 143h51c8 -56 46 -96 109 -96s102 40 110 96h51c-10 -87 -69 -143 -161 -143zM636 0l-87 198h-385l-87 -198h-59l310 700h58l310 -700h-60zM187 250h339l-169 383z" />
    <glyph glyph-name="uni1EB6" unicode="&#x1eb6;" horiz-adv-x="714" 
d="M357 757c-91 0 -150 56 -160 143h51c8 -56 46 -96 109 -96s102 40 110 96h51c-10 -87 -69 -143 -161 -143zM696 0h-60l-87 198h-385l-87 -198h-59l310 700h58zM187 250h339l-169 383zM357 -115c22 0 38 -17 38 -38s-16 -38 -38 -38c-21 0 -38 17 -38 38s17 38 38 38z" />
    <glyph glyph-name="uni1EB0" unicode="&#x1eb0;" horiz-adv-x="714" 
d="M428 949h-68l-151 149h70zM357 757c-91 0 -150 56 -160 143h51c8 -56 46 -96 109 -96s102 40 110 96h51c-10 -87 -69 -143 -161 -143zM636 0l-87 198h-385l-87 -198h-59l310 700h58l310 -700h-60zM187 250h339l-169 383z" />
    <glyph glyph-name="uni1EB2" unicode="&#x1eb2;" horiz-adv-x="714" 
d="M358 1062c-33 0 -55 -24 -55 -56h-48c0 56 44 98 103 98s102 -42 102 -97c0 -54 -44 -92 -101 -108l-18 38c47 14 72 40 72 70c0 32 -23 55 -55 55zM357 757c-91 0 -150 56 -160 143h51c8 -56 46 -96 109 -96s102 40 110 96h51c-10 -87 -69 -143 -161 -143zM636 0
l-87 198h-385l-87 -198h-59l310 700h58l310 -700h-60zM187 250h339l-169 383z" />
    <glyph glyph-name="uni1EB4" unicode="&#x1eb4;" horiz-adv-x="714" 
d="M279 1033c-28 0 -47 -20 -59 -50l-40 20c17 46 51 78 99 78c76 0 103 -67 157 -67c29 0 48 20 60 50l40 -20c-17 -47 -51 -78 -100 -78c-75 0 -102 67 -157 67zM357 804c63 0 102 40 110 96h51c-10 -87 -69 -143 -161 -143c-91 0 -150 56 -160 143h51
c8 -56 46 -96 109 -96zM636 0l-87 198h-385l-87 -198h-59l310 700h58l310 -700h-60zM187 250h339l-169 383z" />
    <glyph glyph-name="uni01CD" unicode="&#x1cd;" horiz-adv-x="714" 
d="M385 749h-56l-151 151h69l110 -110l110 110h69zM636 0l-87 198h-385l-87 -198h-59l310 700h58l310 -700h-60zM187 250h339l-169 383z" />
    <glyph glyph-name="Acircumflex" unicode="&#xc2;" horiz-adv-x="714" 
d="M357 859l-110 -110h-69l151 151h56l151 -151h-69zM636 0l-87 198h-385l-87 -198h-59l310 700h58l310 -700h-60zM187 250h339l-169 383z" />
    <glyph glyph-name="uni1EA4" unicode="&#x1ea4;" horiz-adv-x="714" 
d="M697 1042l-151 -148h-68l149 148h70zM357 859l-110 -110h-69l151 151h56l151 -151h-69zM328 700h58l310 -700h-60l-87 198h-385l-87 -198h-59zM187 250h339l-169 383z" />
    <glyph glyph-name="uni1EAC" unicode="&#x1eac;" horiz-adv-x="714" 
d="M357 859l-110 -110h-69l151 151h56l151 -151h-69zM696 0h-60l-87 198h-385l-87 -198h-59l310 700h58zM187 250h339l-169 383zM357 -115c22 0 38 -17 38 -38s-16 -38 -38 -38c-21 0 -38 17 -38 38s17 38 38 38z" />
    <glyph glyph-name="uni1EA6" unicode="&#x1ea6;" horiz-adv-x="714" 
d="M618 894h-68l-151 148h71zM357 859l-110 -110h-69l151 151h56l151 -151h-69zM636 0l-87 198h-385l-87 -198h-59l310 700h58l310 -700h-60zM187 250h339l-169 383z" />
    <glyph glyph-name="uni1EA8" unicode="&#x1ea8;" horiz-adv-x="714" 
d="M526 1053c-33 0 -56 -24 -55 -56h-48c0 56 44 98 103 98s102 -42 102 -97c0 -54 -44 -92 -102 -108l-18 38c48 14 72 40 72 70c0 32 -23 55 -54 55zM357 859l-110 -110h-69l151 151h56l151 -151h-69zM636 0l-87 198h-385l-87 -198h-59l310 700h58l310 -700h-60zM187 250
h339l-169 383z" />
    <glyph glyph-name="uni1EAA" unicode="&#x1eaa;" horiz-adv-x="714" 
d="M279 1033c-28 0 -48 -20 -59 -50l-41 20c18 46 52 78 100 78c75 0 103 -67 157 -67c28 0 48 20 59 50l41 -20c-17 -47 -52 -78 -100 -78c-75 0 -102 67 -157 67zM357 859l-110 -110h-69l151 151h56l151 -151h-69zM636 0l-87 198h-385l-87 -198h-59l310 700h58l310 -700
h-60zM187 250h339l-169 383z" />
    <glyph glyph-name="Adieresis" unicode="&#xc4;" horiz-adv-x="714" 
d="M251 788c-21 0 -38 16 -38 37s17 38 38 38s37 -17 37 -38s-16 -37 -37 -37zM464 788c-21 0 -37 16 -37 37s16 38 37 38s38 -17 38 -38s-17 -37 -38 -37zM636 0l-87 198h-385l-87 -198h-59l310 700h58l310 -700h-60zM187 250h339l-169 383z" />
    <glyph glyph-name="uni1EA0" unicode="&#x1ea0;" horiz-adv-x="714" 
d="M696 0h-60l-87 198h-385l-87 -198h-59l310 700h58zM187 250h339l-169 383zM357 -115c22 0 38 -17 38 -38s-16 -38 -38 -38c-21 0 -38 17 -38 38s17 38 38 38z" />
    <glyph glyph-name="Agrave" unicode="&#xc0;" horiz-adv-x="714" 
d="M428 749h-69l-153 151h72zM636 0l-87 198h-385l-87 -198h-59l310 700h58l310 -700h-60zM187 250h339l-169 383z" />
    <glyph glyph-name="uni1EA2" unicode="&#x1ea2;" horiz-adv-x="714" 
d="M357 911c-33 0 -56 -25 -56 -57h-48c0 57 44 100 104 100s104 -43 104 -98s-45 -94 -103 -110l-19 39c49 14 73 40 73 71c0 32 -23 55 -55 55zM636 0l-87 198h-385l-87 -198h-59l310 700h58l310 -700h-60zM187 250h339l-169 383z" />
    <glyph glyph-name="Amacron" unicode="&#x100;" horiz-adv-x="714" 
d="M514 849v-48h-313v48h313zM636 0l-87 198h-385l-87 -198h-59l310 700h58l310 -700h-60zM187 250h339l-169 383z" />
    <glyph glyph-name="Aogonek" unicode="&#x104;" horiz-adv-x="714" 
d="M746 -195c-21 -9 -46 -15 -69 -15c-70 0 -103 42 -103 93c0 48 24 89 60 121l-85 194h-385l-87 -198h-59l310 700h58l310 -700h-6c-43 -33 -62 -70 -62 -106c0 -30 21 -54 57 -54c23 0 37 3 59 13zM187 250h339l-169 383z" />
    <glyph glyph-name="Aring" unicode="&#xc5;" horiz-adv-x="714" 
d="M357 732c-59 0 -103 42 -103 99c0 56 44 98 103 98c58 0 102 -42 102 -98c0 -57 -44 -99 -102 -99zM357 887c-32 0 -57 -24 -57 -56c0 -33 25 -57 57 -57c31 0 56 24 56 57c0 32 -25 56 -56 56zM636 0l-87 198h-385l-87 -198h-59l310 700h58l310 -700h-60zM187 250h339
l-169 383z" />
    <glyph glyph-name="Atilde" unicode="&#xc3;" horiz-adv-x="714" 
d="M277 834c-28 0 -48 -20 -60 -50l-41 20c18 47 52 79 101 79c76 0 104 -67 159 -67c29 0 48 20 60 50l41 -20c-17 -47 -52 -79 -101 -79c-76 0 -104 67 -159 67zM636 0l-87 198h-385l-87 -198h-59l310 700h58l310 -700h-60zM187 250h339l-169 383z" />
    <glyph glyph-name="AE" unicode="&#xc6;" horiz-adv-x="965" 
d="M916 648h-362v-272h352v-52h-352v-272h362v-52h-418v198h-302l-132 -198h-67l471 700h448v-52zM231 250h267v400z" />
    <glyph glyph-name="AEacute" unicode="&#x1fc;" horiz-adv-x="965" 
d="M677 900l-153 -151h-69l151 151h71zM916 648h-362v-272h352v-52h-352v-272h362v-52h-418v198h-302l-132 -198h-67l471 700h448v-52zM231 250h267v400z" />
    <glyph glyph-name="B" unicode="B" horiz-adv-x="615" 
d="M445 357c74 -27 121 -92 121 -171c0 -104 -82 -186 -197 -186h-301v700h271c115 0 197 -81 197 -185c0 -68 -35 -126 -91 -158zM123 649v-274h214c84 0 145 61 145 138c0 76 -61 136 -145 136h-214zM365 51c85 0 145 61 145 138c0 76 -60 136 -145 136h-242v-274h242z
" />
    <glyph glyph-name="C" unicode="C" horiz-adv-x="774" 
d="M48 350c0 203 157 360 361 360c152 0 268 -92 318 -202l-52 -22c-45 100 -145 171 -266 171c-171 0 -304 -133 -304 -307s133 -307 304 -307c121 0 221 71 266 172l52 -23c-50 -110 -166 -202 -318 -202c-204 0 -361 157 -361 360z" />
    <glyph glyph-name="Cacute" unicode="&#x106;" horiz-adv-x="774" 
d="M338 749l151 151h71l-153 -151h-69zM48 350c0 203 157 360 361 360c152 0 268 -92 318 -202l-52 -22c-45 100 -145 171 -266 171c-171 0 -304 -133 -304 -307s133 -307 304 -307c121 0 221 71 266 172l52 -23c-50 -110 -166 -202 -318 -202c-204 0 -361 157 -361 360z
" />
    <glyph glyph-name="Ccaron" unicode="&#x10c;" horiz-adv-x="774" 
d="M437 749h-56l-151 151h69l110 -110l110 110h69zM409 43c121 0 221 71 266 172l52 -23c-50 -110 -166 -202 -318 -202c-204 0 -361 157 -361 360s157 360 361 360c152 0 268 -92 318 -202l-52 -22c-45 100 -145 171 -266 171c-171 0 -304 -133 -304 -307
s133 -307 304 -307z" />
    <glyph glyph-name="Ccedilla" unicode="&#xc7;" horiz-adv-x="774" 
d="M409 43c121 0 221 71 266 172l52 -23c-47 -103 -151 -190 -289 -201c27 -28 41 -62 41 -94c0 -61 -48 -107 -128 -107c-15 0 -31 1 -50 6l3 49c15 -3 29 -5 42 -5c53 0 79 28 79 63c0 29 -19 63 -55 89c-184 18 -322 168 -322 358c0 203 157 360 361 360
c152 0 268 -92 318 -202l-52 -22c-45 100 -145 171 -266 171c-171 0 -304 -133 -304 -307s133 -307 304 -307z" />
    <glyph glyph-name="Ccircumflex" unicode="&#x108;" horiz-adv-x="774" 
d="M409 859l-110 -110h-69l151 151h56l151 -151h-69zM409 43c121 0 221 71 266 172l52 -23c-50 -110 -166 -202 -318 -202c-204 0 -361 157 -361 360s157 360 361 360c152 0 268 -92 318 -202l-52 -22c-45 100 -145 171 -266 171c-171 0 -304 -133 -304 -307
s133 -307 304 -307z" />
    <glyph glyph-name="Cdotaccent" unicode="&#x10a;" horiz-adv-x="774" 
d="M371 825c0 21 17 38 38 38c22 0 38 -17 38 -38s-16 -38 -38 -38c-21 0 -38 17 -38 38zM48 350c0 203 157 360 361 360c152 0 268 -92 318 -202l-52 -22c-45 100 -145 171 -266 171c-171 0 -304 -133 -304 -307s133 -307 304 -307c121 0 221 71 266 172l52 -23
c-50 -110 -166 -202 -318 -202c-204 0 -361 157 -361 360z" />
    <glyph glyph-name="D" unicode="D" horiz-adv-x="704" 
d="M68 0v700h235c201 0 353 -152 353 -350s-152 -350 -353 -350h-235zM124 52h178c169 0 297 129 297 298c0 170 -128 298 -297 298h-178v-596z" />
    <glyph glyph-name="uni01F1" unicode="&#x1f1;" horiz-adv-x="1236" 
d="M303 700c201 0 353 -152 353 -350s-152 -350 -353 -350h-235v700h235zM1186 700v-48l-406 -600h406v-52h-476v48l407 600h-407v52h476zM302 52c169 0 297 129 297 298c0 170 -128 298 -297 298h-178v-596h178z" />
    <glyph glyph-name="uni01C4" unicode="&#x1c4;" horiz-adv-x="1236" 
d="M976 749h-56l-151 151h69l110 -110l110 110h69zM303 700c201 0 353 -152 353 -350s-152 -350 -353 -350h-235v700h235zM1186 700v-48l-406 -600h406v-52h-476v48l407 600h-407v52h476zM302 52c169 0 297 129 297 298c0 170 -128 298 -297 298h-178v-596h178z" />
    <glyph glyph-name="Eth" unicode="&#xd0;" horiz-adv-x="754" 
d="M353 700c201 0 353 -152 353 -350s-152 -350 -353 -350h-235v326h-103v48h103v326h235zM352 52c169 0 297 129 297 298c0 170 -128 298 -297 298h-178v-274h154v-48h-154v-274h178z" />
    <glyph glyph-name="Dcaron" unicode="&#x10e;" horiz-adv-x="704" 
d="M329 749h-56l-151 151h69l110 -110l110 110h69zM303 700c201 0 353 -152 353 -350s-152 -350 -353 -350h-235v700h235zM302 52c169 0 297 129 297 298c0 170 -128 298 -297 298h-178v-596h178z" />
    <glyph glyph-name="Dcroat" unicode="&#x110;" horiz-adv-x="754" 
d="M353 700c201 0 353 -152 353 -350s-152 -350 -353 -350h-235v326h-103v48h103v326h235zM352 52c169 0 297 129 297 298c0 170 -128 298 -297 298h-178v-274h154v-48h-154v-274h178z" />
    <glyph glyph-name="uni01F2" unicode="&#x1f3;" horiz-adv-x="1199" 
d="M303 700c201 0 353 -152 353 -350s-152 -350 -353 -350h-235v700h235zM302 52c169 0 297 129 297 298c0 170 -128 298 -297 298h-178v-596h178zM1149 503v-48l-346 -404h346v-51h-414v48l346 404h-346v51h414z" />
    <glyph glyph-name="uni01F2" unicode="&#x1f2;" horiz-adv-x="1199" 
d="M303 700c201 0 353 -152 353 -350s-152 -350 -353 -350h-235v700h235zM302 52c169 0 297 129 297 298c0 170 -128 298 -297 298h-178v-596h178zM1149 503v-48l-346 -404h346v-51h-414v48l346 404h-346v51h414z" />
    <glyph glyph-name="uni01C5" unicode="&#x1c6;" horiz-adv-x="1199" 
d="M974 576h-64l-113 160h59l86 -121l86 121h59zM303 700c201 0 353 -152 353 -350s-152 -350 -353 -350h-235v700h235zM302 52c169 0 297 129 297 298c0 170 -128 298 -297 298h-178v-596h178zM1149 503v-48l-346 -404h346v-51h-414v48l346 404h-346v51h414z" />
    <glyph glyph-name="uni01C5" unicode="&#x1c5;" horiz-adv-x="1199" 
d="M974 576h-64l-113 160h59l86 -121l86 121h59zM303 700c201 0 353 -152 353 -350s-152 -350 -353 -350h-235v700h235zM302 52c169 0 297 129 297 298c0 170 -128 298 -297 298h-178v-596h178zM1149 503v-48l-346 -404h346v-51h-414v48l346 404h-346v51h414z" />
    <glyph glyph-name="E" unicode="E" horiz-adv-x="535" 
d="M68 0v700h418v-52h-362v-272h352v-52h-352v-272h362v-52h-418z" />
    <glyph glyph-name="Eacute" unicode="&#xc9;" horiz-adv-x="535" 
d="M196 749l151 151h71l-153 -151h-69zM68 0v700h418v-52h-362v-272h352v-52h-352v-272h362v-52h-418z" />
    <glyph glyph-name="Ebreve" unicode="&#x114;" horiz-adv-x="535" 
d="M158 900c8 -56 46 -96 109 -96s102 40 110 96h51c-10 -87 -69 -143 -161 -143c-91 0 -150 56 -160 143h51zM68 0v700h418v-52h-362v-272h352v-52h-352v-272h362v-52h-418z" />
    <glyph glyph-name="Ecaron" unicode="&#x11a;" horiz-adv-x="535" 
d="M295 749h-56l-151 151h69l110 -110l110 110h69zM486 648h-362v-272h352v-52h-352v-272h362v-52h-418v700h418v-52z" />
    <glyph glyph-name="Ecircumflex" unicode="&#xca;" horiz-adv-x="535" 
d="M267 859l-110 -110h-69l151 151h56l151 -151h-69zM486 648h-362v-272h352v-52h-352v-272h362v-52h-418v700h418v-52z" />
    <glyph glyph-name="uni1EBE" unicode="&#x1ebe;" horiz-adv-x="535" 
d="M607 1042l-151 -148h-68l149 148h70zM267 859l-110 -110h-69l151 151h56l151 -151h-69zM68 0v700h418v-52h-362v-272h352v-52h-352v-272h362v-52h-418z" />
    <glyph glyph-name="uni1EC6" unicode="&#x1ec6;" horiz-adv-x="535" 
d="M267 859l-110 -110h-69l151 151h56l151 -151h-69zM486 648h-362v-272h352v-52h-352v-272h362v-52h-418v700h418v-52zM267 -115c22 0 38 -17 38 -38s-16 -38 -38 -38c-21 0 -38 17 -38 38s17 38 38 38z" />
    <glyph glyph-name="uni1EC0" unicode="&#x1ec0;" horiz-adv-x="535" 
d="M528 894h-68l-151 148h71zM267 859l-110 -110h-69l151 151h56l151 -151h-69zM68 0v700h418v-52h-362v-272h352v-52h-352v-272h362v-52h-418z" />
    <glyph glyph-name="uni1EC2" unicode="&#x1ec2;" horiz-adv-x="535" 
d="M436 1095c59 0 102 -42 102 -97c0 -54 -44 -92 -102 -108l-18 38c48 14 72 40 72 70c0 32 -23 55 -54 55c-33 0 -56 -24 -55 -56h-48c0 56 44 98 103 98zM267 859l-110 -110h-69l151 151h56l151 -151h-69zM68 0v700h418v-52h-362v-272h352v-52h-352v-272h362v-52h-418z
" />
    <glyph glyph-name="uni1EC4" unicode="&#x1ec4;" horiz-adv-x="535" 
d="M189 1033c-28 0 -48 -20 -59 -50l-41 20c18 46 52 78 100 78c75 0 103 -67 157 -67c28 0 48 20 59 50l41 -20c-17 -47 -52 -78 -100 -78c-75 0 -102 67 -157 67zM267 859l-110 -110h-69l151 151h56l151 -151h-69zM486 648h-362v-272h352v-52h-352v-272h362v-52h-418v700
h418v-52z" />
    <glyph glyph-name="Edieresis" unicode="&#xcb;" horiz-adv-x="535" 
d="M123 825c0 21 17 38 38 38s37 -17 37 -38s-16 -37 -37 -37s-38 16 -38 37zM337 825c0 21 16 38 37 38s38 -17 38 -38s-17 -37 -38 -37s-37 16 -37 37zM68 0v700h418v-52h-362v-272h352v-52h-352v-272h362v-52h-418z" />
    <glyph glyph-name="Edotaccent" unicode="&#x116;" horiz-adv-x="535" 
d="M229 825c0 21 17 38 38 38c22 0 38 -17 38 -38s-16 -38 -38 -38c-21 0 -38 17 -38 38zM68 0v700h418v-52h-362v-272h352v-52h-352v-272h362v-52h-418z" />
    <glyph glyph-name="uni1EB8" unicode="&#x1eb8;" horiz-adv-x="535" 
d="M68 0v700h418v-52h-362v-272h352v-52h-352v-272h362v-52h-418zM229 -153c0 21 17 38 38 38c22 0 38 -17 38 -38s-16 -38 -38 -38c-21 0 -38 17 -38 38z" />
    <glyph glyph-name="Egrave" unicode="&#xc8;" horiz-adv-x="535" 
d="M269 749l-153 151h72l150 -151h-69zM68 0v700h418v-52h-362v-272h352v-52h-352v-272h362v-52h-418z" />
    <glyph glyph-name="uni1EBA" unicode="&#x1eba;" horiz-adv-x="535" 
d="M250 785c49 14 73 40 73 71c0 32 -23 55 -55 55c-33 0 -56 -25 -56 -57h-48c0 57 44 100 104 100s104 -43 104 -98s-45 -94 -103 -110zM68 0v700h418v-52h-362v-272h352v-52h-352v-272h362v-52h-418z" />
    <glyph glyph-name="Emacron" unicode="&#x112;" horiz-adv-x="535" 
d="M111 801v48h313v-48h-313zM68 0v700h418v-52h-362v-272h352v-52h-352v-272h362v-52h-418z" />
    <glyph glyph-name="Eogonek" unicode="&#x118;" horiz-adv-x="535" 
d="M543 -195c-21 -9 -46 -15 -69 -15c-70 0 -103 42 -103 93c0 46 22 85 56 117h-359v700h418v-52h-362v-272h352v-52h-352v-272h362v-52h1c-43 -33 -62 -70 -62 -106c0 -30 21 -54 57 -54c23 0 37 3 59 13z" />
    <glyph glyph-name="uni1EBC" unicode="&#x1ebc;" horiz-adv-x="535" 
d="M87 804c18 47 52 79 101 79c76 0 104 -67 159 -67c29 0 48 20 60 50l41 -20c-17 -47 -52 -79 -101 -79c-76 0 -104 67 -159 67c-28 0 -48 -20 -60 -50zM68 0v700h418v-52h-362v-272h352v-52h-352v-272h362v-52h-418z" />
    <glyph glyph-name="uni01B7" unicode="&#x1b7;" horiz-adv-x="593" 
d="M285 393c164 -7 259 -78 259 -199c0 -126 -118 -204 -247 -204c-94 0 -194 35 -258 108l36 40c59 -66 146 -95 222 -95c111 0 190 67 190 151c0 104 -89 149 -218 149h-54v48l246 257h-377v52h448v-48z" />
    <glyph glyph-name="uni01EE" unicode="&#x1ee;" horiz-adv-x="593" 
d="M324 749h-56l-151 151h69l110 -110l110 110h69zM285 393c164 -7 259 -78 259 -199c0 -126 -118 -204 -247 -204c-94 0 -194 35 -258 108l36 40c59 -66 146 -95 222 -95c111 0 190 67 190 151c0 104 -89 149 -218 149h-54v48l246 257h-377v52h448v-48z" />
    <glyph glyph-name="F" unicode="F" horiz-adv-x="495" 
d="M68 0v700h398v-52h-342v-274h332v-52h-332v-322h-56z" />
    <glyph glyph-name="G" unicode="G" horiz-adv-x="818" 
d="M759 373c14 -222 -153 -383 -350 -383c-204 0 -361 157 -361 360s157 360 361 360c152 0 268 -92 318 -202l-52 -22c-45 100 -145 171 -266 171c-171 0 -304 -133 -304 -307s133 -307 304 -307c164 0 283 127 291 278h-346v52h405z" />
    <glyph glyph-name="uni01F4" unicode="&#x1f4;" horiz-adv-x="818" 
d="M560 900l-153 -151h-69l151 151h71zM759 373c14 -222 -153 -383 -350 -383c-204 0 -361 157 -361 360s157 360 361 360c152 0 268 -92 318 -202l-52 -22c-45 100 -145 171 -266 171c-171 0 -304 -133 -304 -307s133 -307 304 -307c164 0 283 127 291 278h-346v52h405z
" />
    <glyph glyph-name="Gbreve" unicode="&#x11e;" horiz-adv-x="818" 
d="M408 757c-91 0 -150 56 -160 143h51c8 -56 46 -96 109 -96s102 40 110 96h51c-10 -87 -69 -143 -161 -143zM759 373c14 -222 -153 -383 -350 -383c-204 0 -361 157 -361 360s157 360 361 360c152 0 268 -92 318 -202l-52 -22c-45 100 -145 171 -266 171
c-171 0 -304 -133 -304 -307s133 -307 304 -307c164 0 283 127 291 278h-346v52h405z" />
    <glyph glyph-name="Gcaron" unicode="&#x1e6;" horiz-adv-x="818" 
d="M437 749h-56l-151 151h69l110 -110l110 110h69zM759 373c14 -222 -153 -383 -350 -383c-204 0 -361 157 -361 360s157 360 361 360c152 0 268 -92 318 -202l-52 -22c-45 100 -145 171 -266 171c-171 0 -304 -133 -304 -307s133 -307 304 -307c164 0 283 127 291 278h-346
v52h405z" />
    <glyph glyph-name="Gcircumflex" unicode="&#x11c;" horiz-adv-x="818" 
d="M409 859l-110 -110h-69l151 151h56l151 -151h-69zM759 373c14 -222 -153 -383 -350 -383c-204 0 -361 157 -361 360s157 360 361 360c152 0 268 -92 318 -202l-52 -22c-45 100 -145 171 -266 171c-171 0 -304 -133 -304 -307s133 -307 304 -307c164 0 283 127 291 278
h-346v52h405z" />
    <glyph glyph-name="uni0122" unicode="&#x122;" horiz-adv-x="818" 
d="M759 373c14 -222 -153 -383 -350 -383c-204 0 -361 157 -361 360s157 360 361 360c152 0 268 -92 318 -202l-52 -22c-45 100 -145 171 -266 171c-171 0 -304 -133 -304 -307s133 -307 304 -307c164 0 283 127 291 278h-346v52h405zM363 -210l37 149h56l-44 -149h-49z" />
    <glyph glyph-name="Gdotaccent" unicode="&#x120;" horiz-adv-x="818" 
d="M409 787c-21 0 -38 17 -38 38s17 38 38 38c22 0 38 -17 38 -38s-16 -38 -38 -38zM759 373c14 -222 -153 -383 -350 -383c-204 0 -361 157 -361 360s157 360 361 360c152 0 268 -92 318 -202l-52 -22c-45 100 -145 171 -266 171c-171 0 -304 -133 -304 -307
s133 -307 304 -307c164 0 283 127 291 278h-346v52h405z" />
    <glyph glyph-name="H" unicode="H" horiz-adv-x="711" 
d="M68 0v700h56v-324h464v324h56v-700h-56v324h-464v-324h-56z" />
    <glyph glyph-name="Hbar" unicode="&#x126;" horiz-adv-x="711" 
d="M720 563v-49h-76v-514h-56v324h-464v-324h-56v514h-77v49h77v137h56v-137h464v137h56v-137h76zM588 376v138h-464v-138h464z" />
    <glyph glyph-name="Hcircumflex" unicode="&#x124;" horiz-adv-x="711" 
d="M356 859l-110 -110h-69l151 151h56l151 -151h-69zM588 700h56v-700h-56v324h-464v-324h-56v700h56v-324h464v324z" />
    <glyph glyph-name="I" unicode="I" horiz-adv-x="191" 
d="M68 0v700h56v-700h-56z" />
    <glyph glyph-name="IJ" unicode="&#x132;" horiz-adv-x="694" 
d="M68 0v700h56v-700h-56zM282 179c7 -92 70 -136 149 -136c96 0 149 73 149 169v488h56v-488c0 -127 -76 -222 -206 -222c-110 0 -195 65 -204 182z" />
    <glyph glyph-name="Iacute" unicode="&#xcd;" horiz-adv-x="191" 
d="M24 749l151 151h71l-153 -151h-69zM68 0v700h56v-700h-56z" />
    <glyph glyph-name="Ibreve" unicode="&#x12c;" horiz-adv-x="191" 
d="M-14 900c7 -56 46 -96 109 -96s102 40 110 96h51c-10 -87 -69 -143 -161 -143c-91 0 -150 56 -160 143h51zM68 0v700h56v-700h-56z" />
    <glyph glyph-name="uni01CF" unicode="&#x1cf;" horiz-adv-x="191" 
d="M274 900l-151 -151h-56l-151 151h69l110 -110l110 110h69zM68 0v700h56v-700h-56z" />
    <glyph glyph-name="Icircumflex" unicode="&#xce;" horiz-adv-x="191" 
d="M123 900l151 -151h-69l-110 110l-110 -110h-69l151 151h56zM68 0v700h56v-700h-56z" />
    <glyph glyph-name="Idieresis" unicode="&#xcf;" horiz-adv-x="191" 
d="M-29 825c0 21 16 38 37 38s38 -17 38 -38s-17 -37 -38 -37s-37 16 -37 37zM146 825c0 21 16 38 37 38s38 -17 38 -38s-17 -37 -38 -37s-37 16 -37 37zM68 0v700h56v-700h-56z" />
    <glyph glyph-name="Idotaccent" unicode="&#x130;" horiz-adv-x="191" 
d="M58 825c0 21 17 38 38 38c22 0 38 -17 38 -38s-16 -38 -38 -38c-21 0 -38 17 -38 38zM68 0v700h56v-700h-56z" />
    <glyph glyph-name="uni1ECA" unicode="&#x1eca;" horiz-adv-x="191" 
d="M68 0v700h56v-700h-56zM58 -153c0 21 17 38 38 38c22 0 38 -17 38 -38s-16 -38 -38 -38c-21 0 -38 17 -38 38z" />
    <glyph glyph-name="Igrave" unicode="&#xcc;" horiz-adv-x="191" 
d="M97 749l-153 151h72l150 -151h-69zM68 0v700h56v-700h-56z" />
    <glyph glyph-name="uni1EC8" unicode="&#x1ec8;" horiz-adv-x="191" 
d="M78 785c49 14 73 40 73 71c0 32 -23 55 -55 55c-33 0 -56 -25 -56 -57h-48c0 57 44 100 104 100s104 -43 104 -98s-45 -94 -103 -110zM68 0v700h56v-700h-56z" />
    <glyph glyph-name="Imacron" unicode="&#x12a;" horiz-adv-x="191" 
d="M-23 801v48h237v-48h-237zM68 0v700h56v-700h-56z" />
    <glyph glyph-name="Iogonek" unicode="&#x12e;" horiz-adv-x="191" 
d="M178 -195c-21 -9 -46 -15 -69 -15c-70 0 -103 42 -103 93c0 48 24 90 62 123v694h56v-700h-2c-43 -33 -62 -70 -62 -106c0 -30 21 -54 57 -54c23 0 37 3 59 13z" />
    <glyph glyph-name="Itilde" unicode="&#x128;" horiz-adv-x="191" 
d="M-85 804c18 47 52 79 101 79c76 0 104 -67 159 -67c29 0 48 20 60 50l41 -20c-17 -47 -52 -79 -101 -79c-76 0 -104 67 -159 67c-29 0 -48 -20 -60 -50zM68 0v700h56v-700h-56z" />
    <glyph glyph-name="J" unicode="J" horiz-adv-x="503" 
d="M91 179c7 -92 70 -136 149 -136c96 0 149 73 149 169v488h56v-488c0 -127 -76 -222 -206 -222c-110 0 -195 65 -204 182z" />
    <glyph glyph-name="Jcircumflex" unicode="&#x134;" horiz-adv-x="503" 
d="M445 900l151 -151h-69l-110 110l-110 -110h-69l151 151h56zM389 700h56v-488c0 -127 -76 -222 -206 -222c-110 0 -195 65 -204 182l56 7c7 -92 70 -136 149 -136c96 0 149 73 149 169v488z" />
    <glyph glyph-name="K" unicode="K" horiz-adv-x="620" 
d="M611 0h-70l-294 370l-123 -128v-242h-56v700h56v-382l368 382h72l-278 -290z" />
    <glyph glyph-name="uni01E8" unicode="&#x1e8;" horiz-adv-x="620" 
d="M309 749h-56l-151 151h69l110 -110l110 110h69zM611 0h-70l-294 370l-123 -128v-242h-56v700h56v-382l368 382h72l-278 -290z" />
    <glyph glyph-name="uni0136" unicode="&#x136;" horiz-adv-x="620" 
d="M286 410l325 -410h-70l-294 370l-123 -128v-242h-56v700h56v-382l368 382h72zM245 -210l37 149h56l-44 -149h-49z" />
    <glyph glyph-name="L" unicode="L" horiz-adv-x="506" 
d="M68 0v700h56v-648h362v-52h-418z" />
    <glyph glyph-name="uni01C7" unicode="&#x1c7;" horiz-adv-x="978" 
d="M68 0v700h56v-648h362v-52h-418zM566 179c7 -92 70 -136 149 -136c96 0 149 73 149 169v488h56v-488c0 -127 -76 -222 -206 -222c-110 0 -195 65 -204 182z" />
    <glyph glyph-name="Lacute" unicode="&#x139;" horiz-adv-x="506" 
d="M24 749l151 151h71l-153 -151h-69zM68 0v700h56v-648h362v-52h-418z" />
    <glyph glyph-name="Lcaron" unicode="&#x13d;" horiz-adv-x="506" 
d="M221 575l37 186h55l-44 -186h-48zM68 0v700h56v-648h362v-52h-418z" />
    <glyph glyph-name="uni013B" unicode="&#x13b;" horiz-adv-x="506" 
d="M68 0v700h56v-648h362v-52h-418zM207 -210l37 149h56l-44 -149h-49z" />
    <glyph glyph-name="Ldot" unicode="&#x13f;" horiz-adv-x="506" 
d="M68 0v700h56v-648h362v-52h-418zM263 350c0 22 17 39 40 39c22 0 39 -17 39 -39s-17 -39 -39 -39c-23 0 -40 17 -40 39z" />
    <glyph glyph-name="uni01C8" unicode="&#x1c9;" horiz-adv-x="716" 
d="M68 0v700h56v-648h362v-52h-418zM583 656c0 21 17 38 38 38s38 -17 38 -38c0 -22 -17 -38 -38 -38s-38 16 -38 38zM495 -155c74 -3 99 22 99 93v565h55v-565c0 -86 -35 -150 -154 -144v51z" />
    <glyph glyph-name="uni01C8" unicode="&#x1c8;" horiz-adv-x="716" 
d="M68 0v700h56v-648h362v-52h-418zM583 656c0 21 17 38 38 38s38 -17 38 -38c0 -22 -17 -38 -38 -38s-38 16 -38 38zM495 -155c74 -3 99 22 99 93v565h55v-565c0 -86 -35 -150 -154 -144v51z" />
    <glyph glyph-name="Lslash" unicode="&#x141;" horiz-adv-x="526" 
d="M144 52h362v-52h-418v306l-88 -27v51l88 27v343h56v-326l268 83v-51l-268 -83v-271z" />
    <glyph glyph-name="M" unicode="M" horiz-adv-x="824" 
d="M754 0h-55v610l-263 -610h-51l-262 607v-607h-55v700h74l269 -624l270 624h73v-700z" />
    <glyph glyph-name="N" unicode="N" horiz-adv-x="714" 
d="M590 700h56v-700h-55l-467 607v-607h-56v700h55l467 -608v608z" />
    <glyph glyph-name="uni01CA" unicode="&#x1ca;" horiz-adv-x="1217" 
d="M590 92v608h56v-700h-55l-467 607v-607h-56v700h55zM1103 700h56v-488c0 -127 -76 -222 -206 -222c-110 0 -195 65 -204 182l56 7c7 -92 70 -136 149 -136c96 0 149 73 149 169v488z" />
    <glyph glyph-name="Nacute" unicode="&#x143;" horiz-adv-x="714" 
d="M508 900l-153 -151h-69l151 151h71zM590 700h56v-700h-55l-467 607v-607h-56v700h55l467 -608v608z" />
    <glyph glyph-name="Ncaron" unicode="&#x147;" horiz-adv-x="714" 
d="M385 749h-56l-151 151h69l110 -110l110 110h69zM590 700h56v-700h-55l-467 607v-607h-56v700h55l467 -608v608z" />
    <glyph glyph-name="uni0145" unicode="&#x145;" horiz-adv-x="714" 
d="M590 700h56v-700h-55l-467 607v-607h-56v700h55l467 -608v608zM311 -210l37 149h56l-44 -149h-49z" />
    <glyph glyph-name="Eng" unicode="&#x14a;" horiz-adv-x="714" 
d="M68 0v700h55l467 -607v607h56v-762c0 -86 -35 -150 -153 -144v51c73 -4 98 23 98 89v65l-467 608v-607h-56z" />
    <glyph glyph-name="uni019D" unicode="&#x19d;" horiz-adv-x="714" 
d="M590 700h56v-700h-55l-467 607v-669c0 -86 -35 -150 -153 -144v51c72 -3 97 22 97 93v762h55l467 -608v608z" />
    <glyph glyph-name="uni01CB" unicode="&#x1cc;" horiz-adv-x="924" 
d="M590 92v608h56v-700h-55l-467 607v-607h-56v700h55zM829 618c-21 0 -38 16 -38 38c0 21 17 38 38 38s38 -17 38 -38c0 -22 -17 -38 -38 -38zM802 503h55v-565c0 -86 -35 -150 -154 -144v51c74 -3 99 22 99 93v565z" />
    <glyph glyph-name="uni01CB" unicode="&#x1cb;" horiz-adv-x="924" 
d="M590 92v608h56v-700h-55l-467 607v-607h-56v700h55zM829 618c-21 0 -38 16 -38 38c0 21 17 38 38 38s38 -17 38 -38c0 -22 -17 -38 -38 -38zM802 503h55v-565c0 -86 -35 -150 -154 -144v51c74 -3 99 22 99 93v565z" />
    <glyph glyph-name="Ntilde" unicode="&#xd1;" horiz-adv-x="714" 
d="M277 834c-28 0 -48 -20 -60 -50l-41 20c18 47 52 79 101 79c76 0 104 -67 159 -67c29 0 48 20 60 50l41 -20c-17 -47 -52 -79 -101 -79c-76 0 -104 67 -159 67zM590 700h56v-700h-55l-467 607v-607h-56v700h55l467 -608v608z" />
    <glyph glyph-name="O" unicode="O" horiz-adv-x="818" 
d="M48 350c0 203 157 360 361 360s361 -157 361 -360s-157 -360 -361 -360s-361 157 -361 360zM105 350c0 -174 133 -307 304 -307s304 133 304 307s-133 307 -304 307s-304 -133 -304 -307z" />
    <glyph glyph-name="Oacute" unicode="&#xd3;" horiz-adv-x="818" 
d="M338 749l151 151h71l-153 -151h-69zM48 350c0 203 157 360 361 360s361 -157 361 -360s-157 -360 -361 -360s-361 157 -361 360zM105 350c0 -174 133 -307 304 -307s304 133 304 307s-133 307 -304 307s-304 -133 -304 -307z" />
    <glyph glyph-name="Obreve" unicode="&#x14e;" horiz-adv-x="818" 
d="M299 900c8 -56 46 -96 109 -96s102 40 110 96h51c-10 -87 -69 -143 -161 -143c-91 0 -150 56 -160 143h51zM48 350c0 203 157 360 361 360s361 -157 361 -360s-157 -360 -361 -360s-361 157 -361 360zM105 350c0 -174 133 -307 304 -307s304 133 304 307
s-133 307 -304 307s-304 -133 -304 -307z" />
    <glyph glyph-name="uni01D1" unicode="&#x1d1;" horiz-adv-x="818" 
d="M437 749h-56l-151 151h69l110 -110l110 110h69zM409 710c204 0 361 -157 361 -360s-157 -360 -361 -360s-361 157 -361 360s157 360 361 360zM409 43c171 0 304 133 304 307s-133 307 -304 307s-304 -133 -304 -307s133 -307 304 -307z" />
    <glyph glyph-name="Ocircumflex" unicode="&#xd4;" horiz-adv-x="818" 
d="M409 859l-110 -110h-69l151 151h56l151 -151h-69zM409 710c204 0 361 -157 361 -360s-157 -360 -361 -360s-361 157 -361 360s157 360 361 360zM409 43c171 0 304 133 304 307s-133 307 -304 307s-304 -133 -304 -307s133 -307 304 -307z" />
    <glyph glyph-name="uni1ED0" unicode="&#x1ed0;" horiz-adv-x="818" 
d="M749 1042l-151 -148h-68l149 148h70zM409 859l-110 -110h-69l151 151h56l151 -151h-69zM409 710c204 0 361 -157 361 -360s-157 -360 -361 -360s-361 157 -361 360s157 360 361 360zM409 43c171 0 304 133 304 307s-133 307 -304 307s-304 -133 -304 -307
s133 -307 304 -307z" />
    <glyph glyph-name="uni1ED8" unicode="&#x1ed8;" horiz-adv-x="818" 
d="M409 859l-110 -110h-69l151 151h56l151 -151h-69zM409 710c204 0 361 -157 361 -360s-157 -360 -361 -360s-361 157 -361 360s157 360 361 360zM409 43c171 0 304 133 304 307s-133 307 -304 307s-304 -133 -304 -307s133 -307 304 -307zM409 -115c22 0 38 -17 38 -38
s-16 -38 -38 -38c-21 0 -38 17 -38 38s17 38 38 38z" />
    <glyph glyph-name="uni1ED2" unicode="&#x1ed2;" horiz-adv-x="818" 
d="M670 894h-68l-151 148h71zM409 859l-110 -110h-69l151 151h56l151 -151h-69zM409 710c204 0 361 -157 361 -360s-157 -360 -361 -360s-361 157 -361 360s157 360 361 360zM409 43c171 0 304 133 304 307s-133 307 -304 307s-304 -133 -304 -307s133 -307 304 -307z" />
    <glyph glyph-name="uni1ED4" unicode="&#x1ed4;" horiz-adv-x="818" 
d="M578 1053c-33 0 -56 -24 -55 -56h-48c0 56 44 98 103 98s102 -42 102 -97c0 -54 -44 -92 -102 -108l-18 38c48 14 72 40 72 70c0 32 -23 55 -54 55zM409 859l-110 -110h-69l151 151h56l151 -151h-69zM409 710c204 0 361 -157 361 -360s-157 -360 -361 -360
s-361 157 -361 360s157 360 361 360zM409 43c171 0 304 133 304 307s-133 307 -304 307s-304 -133 -304 -307s133 -307 304 -307z" />
    <glyph glyph-name="uni1ED6" unicode="&#x1ed6;" horiz-adv-x="818" 
d="M331 1033c-28 0 -48 -20 -59 -50l-41 20c18 46 52 78 100 78c75 0 103 -67 157 -67c28 0 48 20 59 50l41 -20c-17 -47 -52 -78 -100 -78c-75 0 -102 67 -157 67zM409 859l-110 -110h-69l151 151h56l151 -151h-69zM409 710c204 0 361 -157 361 -360s-157 -360 -361 -360
s-361 157 -361 360s157 360 361 360zM409 43c171 0 304 133 304 307s-133 307 -304 307s-304 -133 -304 -307s133 -307 304 -307z" />
    <glyph glyph-name="Odieresis" unicode="&#xd6;" horiz-adv-x="818" 
d="M264 825c0 21 17 38 38 38s37 -17 37 -38s-16 -37 -37 -37s-38 16 -38 37zM478 825c0 21 16 38 37 38s38 -17 38 -38s-17 -37 -38 -37s-37 16 -37 37zM48 350c0 203 157 360 361 360s361 -157 361 -360s-157 -360 -361 -360s-361 157 -361 360zM105 350
c0 -174 133 -307 304 -307s304 133 304 307s-133 307 -304 307s-304 -133 -304 -307z" />
    <glyph glyph-name="uni1ECC" unicode="&#x1ecc;" horiz-adv-x="818" 
d="M48 350c0 203 157 360 361 360s361 -157 361 -360s-157 -360 -361 -360s-361 157 -361 360zM105 350c0 -174 133 -307 304 -307s304 133 304 307s-133 307 -304 307s-304 -133 -304 -307zM371 -153c0 21 17 38 38 38c22 0 38 -17 38 -38s-16 -38 -38 -38
c-21 0 -38 17 -38 38z" />
    <glyph glyph-name="Ograve" unicode="&#xd2;" horiz-adv-x="818" 
d="M411 749l-153 151h72l150 -151h-69zM48 350c0 203 157 360 361 360s361 -157 361 -360s-157 -360 -361 -360s-361 157 -361 360zM105 350c0 -174 133 -307 304 -307s304 133 304 307s-133 307 -304 307s-304 -133 -304 -307z" />
    <glyph glyph-name="uni1ECE" unicode="&#x1ece;" horiz-adv-x="818" 
d="M391 785c49 14 73 40 73 71c0 32 -23 55 -55 55c-33 0 -56 -25 -56 -57h-48c0 57 44 100 104 100s104 -43 104 -98s-45 -94 -103 -110zM48 350c0 203 157 360 361 360s361 -157 361 -360s-157 -360 -361 -360s-361 157 -361 360zM105 350c0 -174 133 -307 304 -307
s304 133 304 307s-133 307 -304 307s-304 -133 -304 -307z" />
    <glyph glyph-name="Ohorn" unicode="&#x1a0;" horiz-adv-x="818" 
d="M615 648c95 -64 155 -172 155 -298c0 -203 -157 -360 -361 -360s-361 157 -361 360s157 360 361 360c27 0 53 -3 78 -8c134 -24 208 1 208 77c0 20 -5 44 -16 71h54c9 -21 15 -47 15 -74c0 -68 -42 -119 -133 -128zM409 43c171 0 304 133 304 307s-133 307 -304 307
s-304 -133 -304 -307s133 -307 304 -307z" />
    <glyph glyph-name="uni1EDA" unicode="&#x1eda;" horiz-adv-x="818" 
d="M560 900l-153 -151h-69l151 151h71zM615 648c95 -64 155 -172 155 -298c0 -203 -157 -360 -361 -360s-361 157 -361 360s157 360 361 360c27 0 53 -3 78 -8c134 -24 208 1 208 77c0 20 -5 44 -16 71h54c9 -21 15 -47 15 -74c0 -68 -42 -119 -133 -128zM409 43
c171 0 304 133 304 307s-133 307 -304 307s-304 -133 -304 -307s133 -307 304 -307z" />
    <glyph glyph-name="uni1EE2" unicode="&#x1ee2;" horiz-adv-x="818" 
d="M615 648c95 -64 155 -172 155 -298c0 -203 -157 -360 -361 -360s-361 157 -361 360s157 360 361 360c27 0 53 -3 78 -8c134 -24 208 1 208 77c0 20 -5 44 -16 71h54c9 -21 15 -47 15 -74c0 -68 -42 -119 -133 -128zM409 43c171 0 304 133 304 307s-133 307 -304 307
s-304 -133 -304 -307s133 -307 304 -307zM409 -115c22 0 38 -17 38 -38s-16 -38 -38 -38c-21 0 -38 17 -38 38s17 38 38 38z" />
    <glyph glyph-name="uni1EDC" unicode="&#x1edc;" horiz-adv-x="818" 
d="M480 749h-69l-153 151h72zM615 648c95 -64 155 -172 155 -298c0 -203 -157 -360 -361 -360s-361 157 -361 360s157 360 361 360c27 0 53 -3 78 -8c134 -24 208 1 208 77c0 20 -5 44 -16 71h54c9 -21 15 -47 15 -74c0 -68 -42 -119 -133 -128zM409 43
c171 0 304 133 304 307s-133 307 -304 307s-304 -133 -304 -307s133 -307 304 -307z" />
    <glyph glyph-name="uni1EDE" unicode="&#x1ede;" horiz-adv-x="818" 
d="M409 911c-33 0 -56 -25 -56 -57h-48c0 57 44 100 104 100s104 -43 104 -98s-45 -94 -103 -110l-19 39c49 14 73 40 73 71c0 32 -23 55 -55 55zM615 648c95 -64 155 -172 155 -298c0 -203 -157 -360 -361 -360s-361 157 -361 360s157 360 361 360c27 0 53 -3 78 -8
c134 -24 208 1 208 77c0 20 -5 44 -16 71h54c9 -21 15 -47 15 -74c0 -68 -42 -119 -133 -128zM409 43c171 0 304 133 304 307s-133 307 -304 307s-304 -133 -304 -307s133 -307 304 -307z" />
    <glyph glyph-name="uni1EE0" unicode="&#x1ee0;" horiz-adv-x="818" 
d="M329 834c-28 0 -48 -20 -60 -50l-41 20c18 47 52 79 101 79c76 0 104 -67 159 -67c29 0 48 20 60 50l41 -20c-17 -47 -52 -79 -101 -79c-76 0 -104 67 -159 67zM615 648c95 -64 155 -172 155 -298c0 -203 -157 -360 -361 -360s-361 157 -361 360s157 360 361 360
c27 0 53 -3 78 -8c134 -24 208 1 208 77c0 20 -5 44 -16 71h54c9 -21 15 -47 15 -74c0 -68 -42 -119 -133 -128zM409 43c171 0 304 133 304 307s-133 307 -304 307s-304 -133 -304 -307s133 -307 304 -307z" />
    <glyph glyph-name="Ohungarumlaut" unicode="&#x150;" horiz-adv-x="818" 
d="M248 749l151 151h69l-153 -151h-67zM429 749l151 151h69l-153 -151h-67zM48 350c0 203 157 360 361 360s361 -157 361 -360s-157 -360 -361 -360s-361 157 -361 360zM105 350c0 -174 133 -307 304 -307s304 133 304 307s-133 307 -304 307s-304 -133 -304 -307z" />
    <glyph glyph-name="Omacron" unicode="&#x14c;" horiz-adv-x="818" 
d="M253 801v48h313v-48h-313zM48 350c0 203 157 360 361 360s361 -157 361 -360s-157 -360 -361 -360s-361 157 -361 360zM105 350c0 -174 133 -307 304 -307s304 133 304 307s-133 307 -304 307s-304 -133 -304 -307z" />
    <glyph glyph-name="uni01EA" unicode="&#x1ea;" horiz-adv-x="818" 
d="M444 -8c-36 -31 -52 -65 -52 -98c0 -30 21 -54 57 -54c23 0 37 3 59 13l2 -48c-21 -9 -46 -15 -69 -15c-70 0 -103 42 -103 93c0 41 18 78 46 108c-192 12 -336 164 -336 359c0 203 157 360 361 360s361 -157 361 -360c0 -191 -140 -342 -326 -358zM105 350
c0 -174 133 -307 304 -307s304 133 304 307s-133 307 -304 307s-304 -133 -304 -307z" />
    <glyph glyph-name="Oslash" unicode="&#xd8;" horiz-adv-x="818" 
d="M638 631c81 -65 132 -166 132 -281c0 -203 -157 -360 -361 -360c-69 0 -132 18 -186 49l-51 -73l-43 31l51 72c-81 65 -132 166 -132 281c0 203 157 360 361 360c68 0 131 -18 185 -49l51 73l44 -31zM105 350c0 -96 41 -180 106 -236l352 503c-45 25 -97 40 -154 40
c-171 0 -304 -133 -304 -307zM409 43c171 0 304 133 304 307c0 96 -41 180 -106 236l-352 -502c45 -26 97 -41 154 -41z" />
    <glyph glyph-name="Oslashacute" unicode="&#x1fe;" horiz-adv-x="818" 
d="M560 900l-153 -151h-69l151 151h71zM638 631c81 -65 132 -166 132 -281c0 -203 -157 -360 -361 -360c-69 0 -132 18 -186 49l-51 -73l-43 31l51 72c-81 65 -132 166 -132 281c0 203 157 360 361 360c68 0 131 -18 185 -49l51 73l44 -31zM105 350c0 -96 41 -180 106 -236
l352 503c-45 25 -97 40 -154 40c-171 0 -304 -133 -304 -307zM409 43c171 0 304 133 304 307c0 96 -41 180 -106 236l-352 -502c45 -26 97 -41 154 -41z" />
    <glyph glyph-name="Otilde" unicode="&#xd5;" horiz-adv-x="818" 
d="M228 804c18 47 52 79 101 79c76 0 104 -67 159 -67c29 0 48 20 60 50l41 -20c-17 -47 -52 -79 -101 -79c-76 0 -104 67 -159 67c-28 0 -48 -20 -60 -50zM48 350c0 203 157 360 361 360s361 -157 361 -360s-157 -360 -361 -360s-361 157 -361 360zM105 350
c0 -174 133 -307 304 -307s304 133 304 307s-133 307 -304 307s-304 -133 -304 -307z" />
    <glyph glyph-name="OE" unicode="&#x152;" horiz-adv-x="1087" 
d="M1038 648h-362v-272h352v-52h-352v-272h362v-52h-419v58c-59 -43 -132 -68 -211 -68c-203 0 -360 157 -360 360s157 360 360 360c79 0 152 -25 211 -68v58h419v-52zM105 350c0 -174 133 -307 305 -307c81 0 155 30 209 80v454c-54 51 -128 80 -209 80
c-172 0 -305 -133 -305 -307z" />
    <glyph glyph-name="P" unicode="P" horiz-adv-x="553" 
d="M68 0v700h253c124 0 213 -87 213 -200s-89 -201 -213 -201h-197v-299h-56zM124 351h197c92 0 156 65 156 149s-64 148 -156 148h-197v-297z" />
    <glyph glyph-name="Thorn" unicode="&#xde;" horiz-adv-x="553" 
d="M68 0v700h56v-150h197c124 0 213 -87 213 -200s-89 -201 -213 -201h-197v-149h-56zM124 201h197c92 0 156 66 156 149c0 84 -64 148 -156 148h-197v-297z" />
    <glyph glyph-name="Q" unicode="Q" horiz-adv-x="818" 
d="M770 350c0 -109 -45 -205 -119 -270l96 -115l-42 -36l-98 117c-57 -35 -124 -56 -198 -56c-204 0 -361 157 -361 360s157 360 361 360s361 -157 361 -360zM409 43c60 0 116 16 162 45l-114 137l42 36l116 -139c61 55 98 136 98 228c0 174 -133 307 -304 307
s-304 -133 -304 -307s133 -307 304 -307z" />
    <glyph glyph-name="R" unicode="R" horiz-adv-x="599" 
d="M561 0h-69l-216 310h-152v-310h-56v700h271c121 0 207 -85 207 -195c0 -108 -84 -193 -202 -195zM124 648v-286h215c88 0 150 63 150 144c0 80 -62 142 -150 142h-215z" />
    <glyph glyph-name="Racute" unicode="&#x154;" horiz-adv-x="599" 
d="M410 900l-153 -151h-69l151 151h71zM561 0h-69l-216 310h-152v-310h-56v700h271c121 0 207 -85 207 -195c0 -108 -84 -193 -202 -195zM124 648v-286h215c88 0 150 63 150 144c0 80 -62 142 -150 142h-215z" />
    <glyph glyph-name="Rcaron" unicode="&#x158;" horiz-adv-x="599" 
d="M287 749h-56l-151 151h69l110 -110l110 110h69zM561 0h-69l-216 310h-152v-310h-56v700h271c121 0 207 -85 207 -195c0 -108 -84 -193 -202 -195zM124 648v-286h215c88 0 150 63 150 144c0 80 -62 142 -150 142h-215z" />
    <glyph glyph-name="uni0156" unicode="&#x156;" horiz-adv-x="599" 
d="M561 0h-69l-216 310h-152v-310h-56v700h271c121 0 207 -85 207 -195c0 -108 -84 -193 -202 -195zM124 648v-286h215c88 0 150 63 150 144c0 80 -62 142 -150 142h-215zM227 -210l37 149h56l-44 -149h-49z" />
    <glyph glyph-name="S" unicode="S" horiz-adv-x="602" 
d="M110 190c12 -94 86 -148 199 -148c108 0 183 56 183 135c0 214 -419 96 -419 351c0 103 94 182 226 182c133 0 224 -80 241 -188l-57 -12c-13 86 -81 149 -185 149c-98 0 -168 -54 -168 -129c0 -205 419 -83 419 -353c0 -111 -106 -187 -241 -187
c-139 0 -239 71 -255 188z" />
    <glyph glyph-name="Sacute" unicode="&#x15a;" horiz-adv-x="602" 
d="M228 749l151 151h71l-153 -151h-69zM110 190c12 -94 86 -148 199 -148c108 0 183 56 183 135c0 214 -419 96 -419 351c0 103 94 182 226 182c133 0 224 -80 241 -188l-57 -12c-13 86 -81 149 -185 149c-98 0 -168 -54 -168 -129c0 -205 419 -83 419 -353
c0 -111 -106 -187 -241 -187c-139 0 -239 71 -255 188z" />
    <glyph glyph-name="Scaron" unicode="&#x160;" horiz-adv-x="602" 
d="M327 749h-56l-151 151h69l110 -110l110 110h69zM130 530c0 -205 419 -83 419 -353c0 -111 -106 -187 -241 -187c-139 0 -239 71 -255 188l57 12c12 -94 86 -148 199 -148c108 0 183 56 183 135c0 214 -419 96 -419 351c0 103 94 182 226 182c133 0 224 -80 241 -188
l-57 -12c-13 86 -81 149 -185 149c-98 0 -168 -54 -168 -129z" />
    <glyph glyph-name="Scedilla" unicode="&#x15e;" horiz-adv-x="602" 
d="M549 177c0 -101 -87 -172 -204 -185c28 -28 42 -63 42 -95c0 -61 -48 -107 -128 -107c-15 0 -31 1 -50 6l3 49c15 -3 29 -5 42 -5c53 0 79 28 79 63c0 28 -18 63 -53 88c-124 9 -212 78 -227 187l57 12c12 -94 86 -148 199 -148c108 0 183 56 183 135
c0 214 -419 96 -419 351c0 103 94 182 226 182c133 0 224 -80 241 -188l-57 -12c-13 86 -81 149 -185 149c-98 0 -168 -54 -168 -129c0 -205 419 -83 419 -353z" />
    <glyph glyph-name="Scircumflex" unicode="&#x15c;" horiz-adv-x="602" 
d="M299 859l-110 -110h-69l151 151h56l151 -151h-69zM130 530c0 -205 419 -83 419 -353c0 -111 -106 -187 -241 -187c-139 0 -239 71 -255 188l57 12c12 -94 86 -148 199 -148c108 0 183 56 183 135c0 214 -419 96 -419 351c0 103 94 182 226 182c133 0 224 -80 241 -188
l-57 -12c-13 86 -81 149 -185 149c-98 0 -168 -54 -168 -129z" />
    <glyph glyph-name="uni0218" unicode="&#x218;" horiz-adv-x="602" 
d="M110 190c12 -94 86 -148 199 -148c108 0 183 56 183 135c0 214 -419 96 -419 351c0 103 94 182 226 182c133 0 224 -80 241 -188l-57 -12c-13 86 -81 149 -185 149c-98 0 -168 -54 -168 -129c0 -205 419 -83 419 -353c0 -111 -106 -187 -241 -187
c-139 0 -239 71 -255 188zM252 -210l37 149h56l-44 -149h-49z" />
    <glyph glyph-name="uni1E9E" unicode="&#x1e9e;" horiz-adv-x="648" 
d="M382 412c136 -9 217 -98 217 -210c0 -120 -89 -212 -234 -212c-66 0 -112 14 -157 34l13 50c40 -19 81 -33 141 -33c111 0 180 70 180 161c0 87 -66 161 -185 161h-39v48l188 237h-232c-97 0 -150 -74 -150 -170v-478h-56v478c0 127 76 222 206 222h301v-48z" />
    <glyph glyph-name="uni018F" unicode="&#x18f;" horiz-adv-x="818" 
d="M409 710c204 0 361 -157 361 -360s-157 -360 -361 -360c-198 0 -365 161 -351 383h654c-11 163 -140 284 -303 284c-121 0 -221 -71 -267 -171l-51 22c50 110 166 202 318 202zM409 43c161 0 289 118 303 278h-595c8 -151 128 -278 292 -278z" />
    <glyph glyph-name="T" unicode="T" horiz-adv-x="565" 
d="M254 0v648h-244v52h545v-52h-244v-648h-57z" />
    <glyph glyph-name="Tbar" unicode="&#x166;" horiz-adv-x="565" 
d="M555 648h-244v-274h128v-48h-128v-326h-57v326h-128v48h128v274h-244v52h545v-52z" />
    <glyph glyph-name="Tcaron" unicode="&#x164;" horiz-adv-x="565" 
d="M310 749h-56l-151 151h69l110 -110l110 110h69zM10 700h545v-52h-244v-648h-57v648h-244v52z" />
    <glyph glyph-name="uni0162" unicode="&#x162;" horiz-adv-x="565" 
d="M555 648h-244v-632c52 -39 68 -81 68 -119c0 -61 -48 -107 -128 -107c-16 0 -32 1 -51 6l3 49c15 -3 30 -5 42 -5c53 0 79 28 79 63c0 32 -22 71 -66 97h-4v648h-244v52h545v-52z" />
    <glyph glyph-name="uni021A" unicode="&#x21a;" horiz-adv-x="565" 
d="M254 0v648h-244v52h545v-52h-244v-648h-57zM236 -210l37 149h56l-44 -149h-49z" />
    <glyph glyph-name="U" unicode="U" horiz-adv-x="674" 
d="M58 700h56v-446c0 -124 92 -211 223 -211c132 0 223 87 223 211v446h56v-446c0 -155 -116 -264 -279 -264s-279 109 -279 264v446z" />
    <glyph glyph-name="Uacute" unicode="&#xda;" horiz-adv-x="674" 
d="M266 749l151 151h71l-153 -151h-69zM58 700h56v-446c0 -124 92 -211 223 -211c132 0 223 87 223 211v446h56v-446c0 -155 -116 -264 -279 -264s-279 109 -279 264v446z" />
    <glyph glyph-name="Ubreve" unicode="&#x16c;" horiz-adv-x="674" 
d="M228 900c8 -56 46 -96 109 -96s102 40 110 96h51c-10 -87 -69 -143 -161 -143c-91 0 -150 56 -160 143h51zM58 700h56v-446c0 -124 92 -211 223 -211c132 0 223 87 223 211v446h56v-446c0 -155 -116 -264 -279 -264s-279 109 -279 264v446z" />
    <glyph glyph-name="Ucircumflex" unicode="&#xdb;" horiz-adv-x="674" 
d="M337 859l-110 -110h-69l151 151h56l151 -151h-69zM560 700h56v-446c0 -155 -116 -264 -279 -264s-279 109 -279 264v446h56v-446c0 -124 92 -211 223 -211c132 0 223 87 223 211v446z" />
    <glyph glyph-name="Udieresis" unicode="&#xdc;" horiz-adv-x="674" 
d="M193 825c0 21 17 38 38 38s37 -17 37 -38s-16 -37 -37 -37s-38 16 -38 37zM407 825c0 21 16 38 37 38s38 -17 38 -38s-17 -37 -38 -37s-37 16 -37 37zM58 700h56v-446c0 -124 92 -211 223 -211c132 0 223 87 223 211v446h56v-446c0 -155 -116 -264 -279 -264
s-279 109 -279 264v446z" />
    <glyph glyph-name="uni1EE4" unicode="&#x1ee4;" horiz-adv-x="674" 
d="M58 700h56v-446c0 -124 92 -211 223 -211c132 0 223 87 223 211v446h56v-446c0 -155 -116 -264 -279 -264s-279 109 -279 264v446zM299 -153c0 21 17 38 38 38c22 0 38 -17 38 -38s-16 -38 -38 -38c-21 0 -38 17 -38 38z" />
    <glyph glyph-name="Ugrave" unicode="&#xd9;" horiz-adv-x="674" 
d="M339 749l-153 151h72l150 -151h-69zM58 700h56v-446c0 -124 92 -211 223 -211c132 0 223 87 223 211v446h56v-446c0 -155 -116 -264 -279 -264s-279 109 -279 264v446z" />
    <glyph glyph-name="uni1EE6" unicode="&#x1ee6;" horiz-adv-x="674" 
d="M319 785c49 14 73 40 73 71c0 32 -23 55 -55 55c-33 0 -56 -25 -56 -57h-48c0 57 44 100 104 100s104 -43 104 -98s-45 -94 -103 -110zM58 700h56v-446c0 -124 92 -211 223 -211c132 0 223 87 223 211v446h56v-446c0 -155 -116 -264 -279 -264s-279 109 -279 264v446z
" />
    <glyph glyph-name="Uhorn" unicode="&#x1af;" horiz-adv-x="746" 
d="M749 776c0 -71 -49 -115 -133 -123v-399c0 -155 -116 -264 -279 -264s-279 109 -279 264v446h56v-446c0 -124 92 -211 223 -211c132 0 223 87 223 211v446h29c77 0 107 34 107 79c0 20 -5 44 -17 71h55c9 -21 15 -47 15 -74z" />
    <glyph glyph-name="uni1EE8" unicode="&#x1ee8;" horiz-adv-x="746" 
d="M488 900l-153 -151h-69l151 151h71zM749 776c0 -71 -49 -115 -133 -123v-399c0 -155 -116 -264 -279 -264s-279 109 -279 264v446h56v-446c0 -124 92 -211 223 -211c132 0 223 87 223 211v446h29c77 0 107 34 107 79c0 20 -5 44 -17 71h55c9 -21 15 -47 15 -74z" />
    <glyph glyph-name="uni1EF0" unicode="&#x1ef0;" horiz-adv-x="746" 
d="M749 776c0 -71 -49 -115 -133 -123v-399c0 -155 -116 -264 -279 -264s-279 109 -279 264v446h56v-446c0 -124 92 -211 223 -211c132 0 223 87 223 211v446h29c77 0 107 34 107 79c0 20 -5 44 -17 71h55c9 -21 15 -47 15 -74zM337 -115c22 0 38 -17 38 -38
s-16 -38 -38 -38c-21 0 -38 17 -38 38s17 38 38 38z" />
    <glyph glyph-name="uni1EEA" unicode="&#x1eea;" horiz-adv-x="746" 
d="M408 749h-69l-153 151h72zM749 776c0 -71 -49 -115 -133 -123v-399c0 -155 -116 -264 -279 -264s-279 109 -279 264v446h56v-446c0 -124 92 -211 223 -211c132 0 223 87 223 211v446h29c77 0 107 34 107 79c0 20 -5 44 -17 71h55c9 -21 15 -47 15 -74z" />
    <glyph glyph-name="uni1EEC" unicode="&#x1eec;" horiz-adv-x="746" 
d="M337 911c-33 0 -56 -25 -56 -57h-48c0 57 44 100 104 100s104 -43 104 -98s-45 -94 -103 -110l-19 39c49 14 73 40 73 71c0 32 -23 55 -55 55zM749 776c0 -71 -49 -115 -133 -123v-399c0 -155 -116 -264 -279 -264s-279 109 -279 264v446h56v-446
c0 -124 92 -211 223 -211c132 0 223 87 223 211v446h29c77 0 107 34 107 79c0 20 -5 44 -17 71h55c9 -21 15 -47 15 -74z" />
    <glyph glyph-name="uni1EEE" unicode="&#x1eee;" horiz-adv-x="746" 
d="M257 834c-28 0 -48 -20 -60 -50l-41 20c18 47 52 79 101 79c76 0 104 -67 159 -67c29 0 48 20 60 50l41 -20c-17 -47 -52 -79 -101 -79c-76 0 -104 67 -159 67zM749 776c0 -71 -49 -115 -133 -123v-399c0 -155 -116 -264 -279 -264s-279 109 -279 264v446h56v-446
c0 -124 92 -211 223 -211c132 0 223 87 223 211v446h29c77 0 107 34 107 79c0 20 -5 44 -17 71h55c9 -21 15 -47 15 -74z" />
    <glyph glyph-name="Uhungarumlaut" unicode="&#x170;" horiz-adv-x="674" 
d="M176 749l151 151h69l-153 -151h-67zM357 749l151 151h69l-153 -151h-67zM58 700h56v-446c0 -124 92 -211 223 -211c132 0 223 87 223 211v446h56v-446c0 -155 -116 -264 -279 -264s-279 109 -279 264v446z" />
    <glyph glyph-name="Umacron" unicode="&#x16a;" horiz-adv-x="674" 
d="M181 801v48h313v-48h-313zM58 700h56v-446c0 -124 92 -211 223 -211c132 0 223 87 223 211v446h56v-446c0 -155 -116 -264 -279 -264s-279 109 -279 264v446z" />
    <glyph glyph-name="Uogonek" unicode="&#x172;" horiz-adv-x="674" 
d="M560 700h56v-446c0 -127 -78 -224 -196 -254c-43 -33 -62 -70 -62 -106c0 -30 21 -54 57 -54c23 0 37 3 59 13l2 -48c-21 -9 -46 -15 -69 -15c-70 0 -103 42 -103 93c0 41 17 77 46 107h-13c-163 0 -279 109 -279 264v446h56v-446c0 -124 92 -211 223 -211
c132 0 223 87 223 211v446z" />
    <glyph glyph-name="Uring" unicode="&#x16e;" horiz-adv-x="674" 
d="M234 831c0 56 44 98 103 98c58 0 102 -42 102 -98c0 -57 -44 -99 -102 -99c-59 0 -103 42 -103 99zM280 831c0 -33 25 -57 57 -57c31 0 56 24 56 57c0 32 -25 56 -56 56c-32 0 -57 -24 -57 -56zM58 700h56v-446c0 -124 92 -211 223 -211c132 0 223 87 223 211v446h56
v-446c0 -155 -116 -264 -279 -264s-279 109 -279 264v446z" />
    <glyph glyph-name="Utilde" unicode="&#x168;" horiz-adv-x="674" 
d="M156 804c18 47 52 79 101 79c76 0 104 -67 159 -67c29 0 48 20 60 50l41 -20c-17 -47 -52 -79 -101 -79c-76 0 -104 67 -159 67c-28 0 -48 -20 -60 -50zM58 700h56v-446c0 -124 92 -211 223 -211c132 0 223 87 223 211v446h56v-446c0 -155 -116 -264 -279 -264
s-279 109 -279 264v446z" />
    <glyph glyph-name="V" unicode="V" horiz-adv-x="684" 
d="M607 700h59l-295 -700h-58l-295 700h60l265 -633z" />
    <glyph glyph-name="W" unicode="W" horiz-adv-x="1044" 
d="M937 700h58l-220 -700h-60l-193 619l-193 -619h-60l-220 700h59l192 -623l191 623h63l193 -622z" />
    <glyph glyph-name="Wacute" unicode="&#x1e82;" horiz-adv-x="1044" 
d="M673 900l-153 -151h-69l151 151h71zM937 700h58l-220 -700h-60l-193 619l-193 -619h-60l-220 700h59l192 -623l191 623h63l193 -622z" />
    <glyph glyph-name="Wcircumflex" unicode="&#x174;" horiz-adv-x="1044" 
d="M522 859l-110 -110h-69l151 151h56l151 -151h-69zM937 700h58l-220 -700h-60l-193 619l-193 -619h-60l-220 700h59l192 -623l191 623h63l193 -622z" />
    <glyph glyph-name="Wdieresis" unicode="&#x1e84;" horiz-adv-x="1044" 
d="M416 788c-21 0 -38 16 -38 37s17 38 38 38s37 -17 37 -38s-16 -37 -37 -37zM629 788c-21 0 -37 16 -37 37s16 38 37 38s38 -17 38 -38s-17 -37 -38 -37zM937 700h58l-220 -700h-60l-193 619l-193 -619h-60l-220 700h59l192 -623l191 623h63l193 -622z" />
    <glyph glyph-name="Wgrave" unicode="&#x1e80;" horiz-adv-x="1044" 
d="M593 749h-69l-153 151h72zM937 700h58l-220 -700h-60l-193 619l-193 -619h-60l-220 700h59l192 -623l191 623h63l193 -622z" />
    <glyph glyph-name="X" unicode="X" horiz-adv-x="637" 
d="M620 700l-267 -349l267 -351h-70l-232 307l-232 -307h-68l266 349l-266 351h69l232 -305l233 305h68z" />
    <glyph glyph-name="Y" unicode="Y" horiz-adv-x="602" 
d="M530 700h64l-265 -457v-243h-56v243l-265 457h66l228 -402z" />
    <glyph glyph-name="Yacute" unicode="&#xdd;" horiz-adv-x="602" 
d="M452 900l-153 -151h-69l151 151h71zM329 243v-191h144v-52h-345v52h145v191l-265 457h66l228 -402l228 402h64z" />
    <glyph glyph-name="Ycircumflex" unicode="&#x176;" horiz-adv-x="602" 
d="M301 859l-110 -110h-69l151 151h56l151 -151h-69zM329 243v-191h144v-52h-345v52h145v191l-265 457h66l228 -402l228 402h64z" />
    <glyph glyph-name="Ydieresis" unicode="&#x178;" horiz-adv-x="602" 
d="M194 788c-21 0 -38 16 -38 37s17 38 38 38s37 -17 37 -38s-16 -37 -37 -37zM407 788c-21 0 -37 16 -37 37s16 38 37 38s38 -17 38 -38s-17 -37 -38 -37zM329 243v-191h144v-52h-345v52h145v191l-265 457h66l228 -402l228 402h64z" />
    <glyph glyph-name="uni1EF4" unicode="&#x1ef4;" horiz-adv-x="602" 
d="M329 243v-191h144v-52h-345v52h145v191l-265 457h66l228 -402l228 402h64zM301 -115c22 0 38 -17 38 -38s-16 -38 -38 -38c-21 0 -38 17 -38 38s17 38 38 38z" />
    <glyph glyph-name="Ygrave" unicode="&#x1ef2;" horiz-adv-x="602" 
d="M372 749h-69l-153 151h72zM329 243v-191h144v-52h-345v52h145v191l-265 457h66l228 -402l228 402h64z" />
    <glyph glyph-name="uni1EF6" unicode="&#x1ef6;" horiz-adv-x="602" 
d="M301 911c-33 0 -56 -25 -56 -57h-48c0 57 44 100 104 100s104 -43 104 -98s-45 -94 -103 -110l-19 39c49 14 73 40 73 71c0 32 -23 55 -55 55zM329 243v-191h144v-52h-345v52h145v191l-265 457h66l228 -402l228 402h64z" />
    <glyph glyph-name="uni0232" unicode="&#x232;" horiz-adv-x="602" 
d="M458 849v-48h-313v48h313zM329 243v-191h144v-52h-345v52h145v191l-265 457h66l228 -402l228 402h64z" />
    <glyph glyph-name="uni1EF8" unicode="&#x1ef8;" horiz-adv-x="602" 
d="M221 834c-28 0 -48 -20 -60 -50l-41 20c18 47 52 79 101 79c76 0 104 -67 159 -67c29 0 48 20 60 50l41 -20c-17 -47 -52 -79 -101 -79c-76 0 -104 67 -159 67zM329 243v-191h144v-52h-345v52h145v191l-265 457h66l228 -402l228 402h64z" />
    <glyph glyph-name="Z" unicode="Z" horiz-adv-x="576" 
d="M526 700v-48l-406 -600h406v-52h-476v48l407 600h-407v52h476z" />
    <glyph glyph-name="Zacute" unicode="&#x179;" horiz-adv-x="576" 
d="M439 900l-153 -151h-69l151 151h71zM526 700v-48l-406 -600h406v-52h-476v48l407 600h-407v52h476z" />
    <glyph glyph-name="Zcaron" unicode="&#x17d;" horiz-adv-x="576" 
d="M316 749h-56l-151 151h69l110 -110l110 110h69zM526 700v-48l-406 -600h406v-52h-476v48l407 600h-407v52h476z" />
    <glyph glyph-name="Zdotaccent" unicode="&#x17b;" horiz-adv-x="576" 
d="M288 787c-21 0 -38 17 -38 38s17 38 38 38c22 0 38 -17 38 -38s-16 -38 -38 -38zM526 700v-48l-406 -600h406v-52h-476v48l407 600h-407v52h476z" />
    <glyph glyph-name="Iacute_J.loclNLD" horiz-adv-x="694" 
d="M24 749l151 151h71l-153 -151h-69zM537 749l151 151h71l-153 -151h-69zM68 0v700h56v-700h-56zM282 179c7 -92 70 -136 149 -136c96 0 149 73 149 169v488h56v-488c0 -127 -76 -222 -206 -222c-110 0 -195 65 -204 182z" />
    <glyph glyph-name="I.ss01" horiz-adv-x="409" 
d="M30 0v52h146v596h-146v52h349v-52h-146v-596h146v-52h-349z" />
    <glyph glyph-name="IJ.ss01" horiz-adv-x="912" 
d="M30 0v52h146v596h-146v52h349v-52h-146v-596h146v-52h-349zM500 179c7 -92 70 -136 149 -136c96 0 149 73 149 169v488h56v-488c0 -127 -76 -222 -206 -222c-110 0 -195 65 -204 182z" />
    <glyph glyph-name="Iacute.ss01" horiz-adv-x="409" 
d="M133 749l151 151h71l-153 -151h-69zM30 0v52h146v596h-146v52h349v-52h-146v-596h146v-52h-349z" />
    <glyph glyph-name="Iacute_J.loclNLD.ss01" horiz-adv-x="912" 
d="M133 749l151 151h71l-153 -151h-69zM755 749l151 151h71l-153 -151h-69zM30 0v52h146v596h-146v52h349v-52h-146v-596h146v-52h-349zM500 179c7 -92 70 -136 149 -136c96 0 149 73 149 169v488h56v-488c0 -127 -76 -222 -206 -222c-110 0 -195 65 -204 182z" />
    <glyph glyph-name="Ibreve.ss01" horiz-adv-x="409" 
d="M95 900c8 -56 46 -96 109 -96s102 40 110 96h51c-10 -87 -69 -143 -161 -143c-91 0 -150 56 -160 143h51zM30 0v52h146v596h-146v52h349v-52h-146v-596h146v-52h-349z" />
    <glyph glyph-name="uni01CF.ss01" horiz-adv-x="409" 
d="M232 749h-56l-151 151h69l110 -110l110 110h69zM30 648v52h349v-52h-146v-596h146v-52h-349v52h146v596h-146z" />
    <glyph glyph-name="Icircumflex.ss01" horiz-adv-x="409" 
d="M204 859l-110 -110h-69l151 151h56l151 -151h-69zM30 648v52h349v-52h-146v-596h146v-52h-349v52h146v596h-146z" />
    <glyph glyph-name="Idieresis.ss01" horiz-adv-x="409" 
d="M60 825c0 21 17 38 38 38s37 -17 37 -38s-16 -37 -37 -37s-38 16 -38 37zM274 825c0 21 16 38 37 38s38 -17 38 -38s-17 -37 -38 -37s-37 16 -37 37zM30 0v52h146v596h-146v52h349v-52h-146v-596h146v-52h-349z" />
    <glyph glyph-name="Idotaccent.ss01" horiz-adv-x="409" 
d="M166 825c0 21 17 38 38 38c22 0 38 -17 38 -38s-16 -38 -38 -38c-21 0 -38 17 -38 38zM30 0v52h146v596h-146v52h349v-52h-146v-596h146v-52h-349z" />
    <glyph glyph-name="uni1ECA.ss01" horiz-adv-x="409" 
d="M30 0v52h146v596h-146v52h349v-52h-146v-596h146v-52h-349zM166 -153c0 21 17 38 38 38c22 0 38 -17 38 -38s-16 -38 -38 -38c-21 0 -38 17 -38 38z" />
    <glyph glyph-name="Igrave.ss01" horiz-adv-x="409" 
d="M206 749l-153 151h72l150 -151h-69zM30 0v52h146v596h-146v52h349v-52h-146v-596h146v-52h-349z" />
    <glyph glyph-name="uni1EC8.ss01" horiz-adv-x="409" 
d="M187 785c49 14 73 40 73 71c0 32 -23 55 -55 55c-33 0 -56 -25 -56 -57h-48c0 57 44 100 104 100s104 -43 104 -98s-45 -94 -103 -110zM30 0v52h146v596h-146v52h349v-52h-146v-596h146v-52h-349z" />
    <glyph glyph-name="Imacron.ss01" horiz-adv-x="409" 
d="M48 801v48h313v-48h-313zM30 0v52h146v596h-146v52h349v-52h-146v-596h146v-52h-349z" />
    <glyph glyph-name="Iogonek.ss01" horiz-adv-x="409" 
d="M379 648h-146v-596h146v-52h-148c-43 -33 -62 -70 -62 -106c0 -30 21 -54 57 -54c23 0 37 3 59 13l2 -48c-21 -9 -46 -15 -69 -15c-70 0 -103 42 -103 93c0 46 22 85 56 117h-141v52h146v596h-146v52h349v-52z" />
    <glyph glyph-name="Itilde.ss01" horiz-adv-x="409" 
d="M24 804c18 47 52 79 101 79c76 0 104 -67 159 -67c29 0 48 20 60 50l41 -20c-17 -47 -52 -79 -101 -79c-76 0 -104 67 -159 67c-28 0 -48 -20 -60 -50zM30 0v52h146v596h-146v52h349v-52h-146v-596h146v-52h-349z" />
    <glyph glyph-name="Y.ss02" horiz-adv-x="602" 
d="M329 243v-191h144v-52h-345v52h145v191l-265 457h66l228 -402l228 402h64z" />
    <glyph glyph-name="Yacute.ss02" horiz-adv-x="602" 
d="M452 900l-153 -151h-69l151 151h71zM530 700h64l-265 -457v-243h-56v243l-265 457h66l228 -402z" />
    <glyph glyph-name="Ycircumflex.ss02" horiz-adv-x="602" 
d="M301 859l-110 -110h-69l151 151h56l151 -151h-69zM530 700h64l-265 -457v-243h-56v243l-265 457h66l228 -402z" />
    <glyph glyph-name="Ydieresis.ss02" horiz-adv-x="602" 
d="M194 788c-21 0 -38 16 -38 37s17 38 38 38s37 -17 37 -38s-16 -37 -37 -37zM407 788c-21 0 -37 16 -37 37s16 38 37 38s38 -17 38 -38s-17 -37 -38 -37zM530 700h64l-265 -457v-243h-56v243l-265 457h66l228 -402z" />
    <glyph glyph-name="uni1EF4.ss02" horiz-adv-x="602" 
d="M273 0v243l-265 457h66l228 -402l228 402h64l-265 -457v-243h-56zM301 -115c22 0 38 -17 38 -38s-16 -38 -38 -38c-21 0 -38 17 -38 38s17 38 38 38z" />
    <glyph glyph-name="Ygrave.ss02" horiz-adv-x="602" 
d="M372 749h-69l-153 151h72zM530 700h64l-265 -457v-243h-56v243l-265 457h66l228 -402z" />
    <glyph glyph-name="uni1EF6.ss02" horiz-adv-x="602" 
d="M301 911c-33 0 -56 -25 -56 -57h-48c0 57 44 100 104 100s104 -43 104 -98s-45 -94 -103 -110l-19 39c49 14 73 40 73 71c0 32 -23 55 -55 55zM530 700h64l-265 -457v-243h-56v243l-265 457h66l228 -402z" />
    <glyph glyph-name="uni0232.ss02" horiz-adv-x="602" 
d="M458 849v-48h-313v48h313zM530 700h64l-265 -457v-243h-56v243l-265 457h66l228 -402z" />
    <glyph glyph-name="uni1EF8.ss02" horiz-adv-x="602" 
d="M221 834c-28 0 -48 -20 -60 -50l-41 20c18 47 52 79 101 79c76 0 104 -67 159 -67c29 0 48 20 60 50l41 -20c-17 -47 -52 -79 -101 -79c-76 0 -104 67 -159 67zM530 700h64l-265 -457v-243h-56v243l-265 457h66l228 -402z" />
    <glyph glyph-name="a" unicode="a" horiz-adv-x="517" 
d="M268 513c106 0 187 -59 187 -164v-349h-55v100c-46 -72 -118 -110 -203 -110c-95 0 -159 52 -159 135c0 91 74 135 170 146l123 14c45 5 69 23 69 65c0 71 -54 113 -133 113c-72 0 -140 -31 -161 -120l-53 16c27 106 116 154 215 154zM204 39c116 0 196 90 196 189v35
c-15 -16 -39 -22 -77 -26l-115 -14c-64 -7 -115 -36 -115 -96c0 -54 46 -88 111 -88z" />
    <glyph glyph-name="aacute" unicode="&#xe1;" horiz-adv-x="517" 
d="M387 736l-114 -160h-61l112 160h63zM268 513c106 0 187 -59 187 -164v-349h-55v100c-46 -72 -118 -110 -203 -110c-95 0 -159 52 -159 135c0 91 74 135 170 146l123 14c45 5 69 23 69 65c0 71 -54 113 -133 113c-72 0 -140 -31 -161 -120l-53 16c27 106 116 154 215 154z
M204 39c116 0 196 90 196 189v35c-15 -16 -39 -22 -77 -26l-115 -14c-64 -7 -115 -36 -115 -96c0 -54 46 -88 111 -88z" />
    <glyph glyph-name="abreve" unicode="&#x103;" horiz-adv-x="517" 
d="M260 579c-83 0 -140 60 -140 152h50c0 -63 36 -104 90 -104c55 0 89 41 89 104h50c0 -92 -57 -152 -139 -152zM268 513c106 0 187 -59 187 -164v-349h-55v100c-46 -72 -118 -110 -203 -110c-95 0 -159 52 -159 135c0 91 74 135 170 146l123 14c45 5 69 23 69 65
c0 71 -54 113 -133 113c-72 0 -140 -31 -161 -120l-53 16c27 106 116 154 215 154zM204 39c116 0 196 90 196 189v35c-15 -16 -39 -22 -77 -26l-115 -14c-64 -7 -115 -36 -115 -96c0 -54 46 -88 111 -88z" />
    <glyph glyph-name="uni1EAF" unicode="&#x1eaf;" horiz-adv-x="517" 
d="M386 944l-113 -158h-60l111 158h62zM260 579c-83 0 -140 60 -140 152h50c0 -63 36 -104 90 -104c55 0 89 41 89 104h50c0 -92 -57 -152 -139 -152zM268 513c106 0 187 -59 187 -164v-349h-55v100c-46 -72 -118 -110 -203 -110c-95 0 -159 52 -159 135
c0 91 74 135 170 146l123 14c45 5 69 23 69 65c0 71 -54 113 -133 113c-72 0 -140 -31 -161 -120l-53 16c27 106 116 154 215 154zM204 39c116 0 196 90 196 189v35c-15 -16 -39 -22 -77 -26l-115 -14c-64 -7 -115 -36 -115 -96c0 -54 46 -88 111 -88z" />
    <glyph glyph-name="uni1EB7" unicode="&#x1eb7;" horiz-adv-x="517" 
d="M260 579c-83 0 -140 60 -140 152h50c0 -63 36 -104 90 -104c55 0 89 41 89 104h50c0 -92 -57 -152 -139 -152zM268 513c106 0 187 -59 187 -164v-349h-55v100c-46 -72 -118 -110 -203 -110c-95 0 -159 52 -159 135c0 91 74 135 170 146l123 14c45 5 69 23 69 65
c0 71 -54 113 -133 113c-72 0 -140 -31 -161 -120l-53 16c27 106 116 154 215 154zM204 39c116 0 196 90 196 189v35c-15 -16 -39 -22 -77 -26l-115 -14c-64 -7 -115 -36 -115 -96c0 -54 46 -88 111 -88zM259 -115c22 0 38 -17 38 -38s-16 -38 -38 -38c-21 0 -38 17 -38 38
s17 38 38 38z" />
    <glyph glyph-name="uni1EB1" unicode="&#x1eb1;" horiz-adv-x="517" 
d="M307 786h-60l-113 158h63zM260 579c-83 0 -140 60 -140 152h50c0 -63 36 -104 90 -104c55 0 89 41 89 104h50c0 -92 -57 -152 -139 -152zM268 513c106 0 187 -59 187 -164v-349h-55v100c-46 -72 -118 -110 -203 -110c-95 0 -159 52 -159 135c0 91 74 135 170 146l123 14
c45 5 69 23 69 65c0 71 -54 113 -133 113c-72 0 -140 -31 -161 -120l-53 16c27 106 116 154 215 154zM204 39c116 0 196 90 196 189v35c-15 -16 -39 -22 -77 -26l-115 -14c-64 -7 -115 -36 -115 -96c0 -54 46 -88 111 -88z" />
    <glyph glyph-name="uni1EB3" unicode="&#x1eb3;" horiz-adv-x="517" 
d="M260 902c-32 0 -55 -24 -55 -56h-47c0 57 44 99 102 99c59 0 102 -42 102 -97c0 -54 -44 -93 -102 -108l-18 38c49 13 73 39 73 70s-23 54 -55 54zM260 579c-83 0 -140 60 -140 152h50c0 -63 36 -104 90 -104c55 0 89 41 89 104h50c0 -92 -57 -152 -139 -152zM268 513
c106 0 187 -59 187 -164v-349h-55v100c-46 -72 -118 -110 -203 -110c-95 0 -159 52 -159 135c0 91 74 135 170 146l123 14c45 5 69 23 69 65c0 71 -54 113 -133 113c-72 0 -140 -31 -161 -120l-53 16c27 106 116 154 215 154zM204 39c116 0 196 90 196 189v35
c-15 -16 -39 -22 -77 -26l-115 -14c-64 -7 -115 -36 -115 -96c0 -54 46 -88 111 -88z" />
    <glyph glyph-name="uni1EB5" unicode="&#x1eb5;" horiz-adv-x="517" 
d="M187 874c-28 0 -48 -19 -59 -49l-41 19c18 47 52 78 100 78c74 0 95 -66 146 -66c28 0 48 20 59 50l41 -20c-18 -47 -52 -78 -100 -78c-74 0 -95 66 -146 66zM260 627c55 0 89 41 89 104h50c0 -92 -57 -152 -139 -152c-83 0 -140 60 -140 152h50c0 -63 36 -104 90 -104z
M268 513c106 0 187 -59 187 -164v-349h-55v100c-46 -72 -118 -110 -203 -110c-95 0 -159 52 -159 135c0 91 74 135 170 146l123 14c45 5 69 23 69 65c0 71 -54 113 -133 113c-72 0 -140 -31 -161 -120l-53 16c27 106 116 154 215 154zM204 39c116 0 196 90 196 189v35
c-15 -16 -39 -22 -77 -26l-115 -14c-64 -7 -115 -36 -115 -96c0 -54 46 -88 111 -88z" />
    <glyph glyph-name="uni01CE" unicode="&#x1ce;" horiz-adv-x="517" 
d="M291 576h-64l-113 160h60l86 -121l85 121h59zM268 513c106 0 187 -59 187 -164v-349h-55v100c-46 -72 -118 -110 -203 -110c-95 0 -159 52 -159 135c0 91 74 135 170 146l123 14c45 5 69 23 69 65c0 71 -54 113 -133 113c-72 0 -140 -31 -161 -120l-53 16
c27 106 116 154 215 154zM204 39c116 0 196 90 196 189v35c-15 -16 -39 -22 -77 -26l-115 -14c-64 -7 -115 -36 -115 -96c0 -54 46 -88 111 -88z" />
    <glyph glyph-name="acircumflex" unicode="&#xe2;" horiz-adv-x="517" 
d="M260 696l-86 -120h-60l113 160h64l113 -160h-59zM268 513c106 0 187 -59 187 -164v-349h-55v100c-46 -72 -118 -110 -203 -110c-95 0 -159 52 -159 135c0 91 74 135 170 146l123 14c45 5 69 23 69 65c0 71 -54 113 -133 113c-72 0 -140 -31 -161 -120l-53 16
c27 106 116 154 215 154zM204 39c116 0 196 90 196 189v35c-15 -16 -39 -22 -77 -26l-115 -14c-64 -7 -115 -36 -115 -96c0 -54 46 -88 111 -88z" />
    <glyph glyph-name="uni1EA5" unicode="&#x1ea5;" horiz-adv-x="517" 
d="M542 916l-113 -158h-60l111 158h62zM260 696l-86 -120h-60l113 160h64l113 -160h-59zM268 513c106 0 187 -59 187 -164v-349h-55v100c-46 -72 -118 -110 -203 -110c-95 0 -159 52 -159 135c0 91 74 135 170 146l123 14c45 5 69 23 69 65c0 71 -54 113 -133 113
c-72 0 -140 -31 -161 -120l-53 16c27 106 116 154 215 154zM204 39c116 0 196 90 196 189v35c-15 -16 -39 -22 -77 -26l-115 -14c-64 -7 -115 -36 -115 -96c0 -54 46 -88 111 -88z" />
    <glyph glyph-name="uni1EAD" unicode="&#x1ead;" horiz-adv-x="517" 
d="M260 696l-86 -120h-60l113 160h64l113 -160h-59zM268 513c106 0 187 -59 187 -164v-349h-55v100c-46 -72 -118 -110 -203 -110c-95 0 -159 52 -159 135c0 91 74 135 170 146l123 14c45 5 69 23 69 65c0 71 -54 113 -133 113c-72 0 -140 -31 -161 -120l-53 16
c27 106 116 154 215 154zM204 39c116 0 196 90 196 189v35c-15 -16 -39 -22 -77 -26l-115 -14c-64 -7 -115 -36 -115 -96c0 -54 46 -88 111 -88zM259 -115c22 0 38 -17 38 -38s-16 -38 -38 -38c-21 0 -38 17 -38 38s17 38 38 38z" />
    <glyph glyph-name="uni1EA7" unicode="&#x1ea7;" horiz-adv-x="517" 
d="M463 758h-60l-113 158h63zM260 696l-86 -120h-60l113 160h64l113 -160h-59zM268 513c106 0 187 -59 187 -164v-349h-55v100c-46 -72 -118 -110 -203 -110c-95 0 -159 52 -159 135c0 91 74 135 170 146l123 14c45 5 69 23 69 65c0 71 -54 113 -133 113
c-72 0 -140 -31 -161 -120l-53 16c27 106 116 154 215 154zM204 39c116 0 196 90 196 189v35c-15 -16 -39 -22 -77 -26l-115 -14c-64 -7 -115 -36 -115 -96c0 -54 46 -88 111 -88z" />
    <glyph glyph-name="uni1EA9" unicode="&#x1ea9;" horiz-adv-x="517" 
d="M411 936c58 0 102 -41 102 -96s-45 -93 -102 -108l-18 38c49 13 73 39 73 70s-23 54 -55 54c-33 0 -55 -24 -55 -56h-47c0 57 44 98 102 98zM260 696l-86 -120h-60l113 160h64l113 -160h-59zM268 513c106 0 187 -59 187 -164v-349h-55v100c-46 -72 -118 -110 -203 -110
c-95 0 -159 52 -159 135c0 91 74 135 170 146l123 14c45 5 69 23 69 65c0 71 -54 113 -133 113c-72 0 -140 -31 -161 -120l-53 16c27 106 116 154 215 154zM204 39c116 0 196 90 196 189v35c-15 -16 -39 -22 -77 -26l-115 -14c-64 -7 -115 -36 -115 -96
c0 -54 46 -88 111 -88z" />
    <glyph glyph-name="uni1EAB" unicode="&#x1eab;" horiz-adv-x="517" 
d="M187 879c-29 0 -48 -20 -60 -50l-40 20c17 47 51 78 100 78c74 0 95 -67 145 -67c29 0 48 20 60 50l40 -20c-17 -46 -51 -78 -100 -78c-74 0 -95 67 -145 67zM227 736h64l113 -160h-59l-85 120l-86 -120h-60zM268 513c106 0 187 -59 187 -164v-349h-55v100
c-46 -72 -118 -110 -203 -110c-95 0 -159 52 -159 135c0 91 74 135 170 146l123 14c45 5 69 23 69 65c0 71 -54 113 -133 113c-72 0 -140 -31 -161 -120l-53 16c27 106 116 154 215 154zM204 39c116 0 196 90 196 189v35c-15 -16 -39 -22 -77 -26l-115 -14
c-64 -7 -115 -36 -115 -96c0 -54 46 -88 111 -88z" />
    <glyph glyph-name="adieresis" unicode="&#xe4;" horiz-adv-x="517" 
d="M158 618c-21 0 -38 17 -38 38s17 37 38 37s37 -16 37 -37s-16 -38 -37 -38zM363 618c-21 0 -38 17 -38 38s17 37 38 37s37 -16 37 -37s-16 -38 -37 -38zM268 513c106 0 187 -59 187 -164v-349h-55v100c-46 -72 -118 -110 -203 -110c-95 0 -159 52 -159 135
c0 91 74 135 170 146l123 14c45 5 69 23 69 65c0 71 -54 113 -133 113c-72 0 -140 -31 -161 -120l-53 16c27 106 116 154 215 154zM204 39c116 0 196 90 196 189v35c-15 -16 -39 -22 -77 -26l-115 -14c-64 -7 -115 -36 -115 -96c0 -54 46 -88 111 -88z" />
    <glyph glyph-name="uni1EA1" unicode="&#x1ea1;" horiz-adv-x="517" 
d="M268 513c106 0 187 -59 187 -164v-349h-55v100c-46 -72 -118 -110 -203 -110c-95 0 -159 52 -159 135c0 91 74 135 170 146l123 14c45 5 69 23 69 65c0 71 -54 113 -133 113c-72 0 -140 -31 -161 -120l-53 16c27 106 116 154 215 154zM204 39c116 0 196 90 196 189v35
c-15 -16 -39 -22 -77 -26l-115 -14c-64 -7 -115 -36 -115 -96c0 -54 46 -88 111 -88zM259 -115c22 0 38 -17 38 -38s-16 -38 -38 -38c-21 0 -38 17 -38 38s17 38 38 38z" />
    <glyph glyph-name="agrave" unicode="&#xe0;" horiz-adv-x="517" 
d="M307 576h-61l-114 160h63zM268 513c106 0 187 -59 187 -164v-349h-55v100c-46 -72 -118 -110 -203 -110c-95 0 -159 52 -159 135c0 91 74 135 170 146l123 14c45 5 69 23 69 65c0 71 -54 113 -133 113c-72 0 -140 -31 -161 -120l-53 16c27 106 116 154 215 154zM204 39
c116 0 196 90 196 189v35c-15 -16 -39 -22 -77 -26l-115 -14c-64 -7 -115 -36 -115 -96c0 -54 46 -88 111 -88z" />
    <glyph glyph-name="uni1EA3" unicode="&#x1ea3;" horiz-adv-x="517" 
d="M259 714c-33 0 -56 -25 -55 -58h-48c0 58 44 100 103 100s103 -42 103 -98c0 -55 -45 -93 -103 -109l-18 38c49 14 74 40 74 71c0 32 -24 56 -56 56zM268 513c106 0 187 -59 187 -164v-349h-55v100c-46 -72 -118 -110 -203 -110c-95 0 -159 52 -159 135
c0 91 74 135 170 146l123 14c45 5 69 23 69 65c0 71 -54 113 -133 113c-72 0 -140 -31 -161 -120l-53 16c27 106 116 154 215 154zM204 39c116 0 196 90 196 189v35c-15 -16 -39 -22 -77 -26l-115 -14c-64 -7 -115 -36 -115 -96c0 -54 46 -88 111 -88z" />
    <glyph glyph-name="amacron" unicode="&#x101;" horiz-adv-x="517" 
d="M411 680v-48h-303v48h303zM268 513c106 0 187 -59 187 -164v-349h-55v100c-46 -72 -118 -110 -203 -110c-95 0 -159 52 -159 135c0 91 74 135 170 146l123 14c45 5 69 23 69 65c0 71 -54 113 -133 113c-72 0 -140 -31 -161 -120l-53 16c27 106 116 154 215 154zM204 39
c116 0 196 90 196 189v35c-15 -16 -39 -22 -77 -26l-115 -14c-64 -7 -115 -36 -115 -96c0 -54 46 -88 111 -88z" />
    <glyph glyph-name="aogonek" unicode="&#x105;" horiz-adv-x="517" 
d="M511 -195c-21 -9 -46 -15 -69 -15c-70 0 -103 42 -103 93c0 48 24 89 61 122v95c-46 -72 -118 -110 -203 -110c-95 0 -159 52 -159 135c0 91 74 135 170 146l123 14c45 5 69 23 69 65c0 71 -54 113 -133 113c-72 0 -140 -31 -161 -120l-53 16c27 106 116 154 215 154
c106 0 187 -59 187 -164v-349c-43 -33 -62 -70 -62 -106c0 -30 21 -54 57 -54c23 0 37 3 59 13zM204 39c116 0 196 90 196 189v35c-15 -16 -39 -22 -77 -26l-115 -14c-64 -7 -115 -36 -115 -96c0 -54 46 -88 111 -88z" />
    <glyph glyph-name="aring" unicode="&#xe5;" horiz-adv-x="517" 
d="M260 558c-58 0 -102 42 -102 98c0 55 44 98 102 98s102 -43 102 -98c0 -56 -44 -98 -102 -98zM260 712c-32 0 -57 -24 -57 -56c0 -33 25 -57 57 -57s57 24 57 57c0 32 -25 56 -57 56zM268 513c106 0 187 -59 187 -164v-349h-55v100c-46 -72 -118 -110 -203 -110
c-95 0 -159 52 -159 135c0 91 74 135 170 146l123 14c45 5 69 23 69 65c0 71 -54 113 -133 113c-72 0 -140 -31 -161 -120l-53 16c27 106 116 154 215 154zM204 39c116 0 196 90 196 189v35c-15 -16 -39 -22 -77 -26l-115 -14c-64 -7 -115 -36 -115 -96
c0 -54 46 -88 111 -88z" />
    <glyph glyph-name="atilde" unicode="&#xe3;" horiz-adv-x="517" 
d="M186 665c-28 0 -48 -20 -60 -50l-41 20c18 47 52 79 101 79c75 0 97 -68 148 -68c29 0 48 20 60 51l41 -20c-18 -48 -52 -79 -101 -79c-75 0 -96 67 -148 67zM268 513c106 0 187 -59 187 -164v-349h-55v100c-46 -72 -118 -110 -203 -110c-95 0 -159 52 -159 135
c0 91 74 135 170 146l123 14c45 5 69 23 69 65c0 71 -54 113 -133 113c-72 0 -140 -31 -161 -120l-53 16c27 106 116 154 215 154zM204 39c116 0 196 90 196 189v35c-15 -16 -39 -22 -77 -26l-115 -14c-64 -7 -115 -36 -115 -96c0 -54 46 -88 111 -88z" />
    <glyph glyph-name="ae" unicode="&#xe6;" horiz-adv-x="965" 
d="M662 513c148 0 261 -117 255 -277h-460c8 -112 94 -196 209 -196c86 0 156 48 189 120l50 -18c-40 -90 -127 -152 -238 -152c-92 0 -169 43 -215 112v-102h-52v100c-46 -72 -118 -110 -203 -110c-95 0 -159 52 -159 135c0 91 74 135 170 146l123 14c45 5 69 23 69 65
c0 71 -54 113 -133 113c-72 0 -140 -31 -161 -120l-53 16c27 106 116 154 215 154c89 0 160 -42 180 -117c44 71 122 117 214 117zM660 462c-104 0 -186 -75 -201 -178h402c-13 100 -94 178 -201 178zM204 39c116 0 196 90 196 189v35c-15 -16 -39 -22 -77 -26l-115 -14
c-64 -7 -115 -36 -115 -96c0 -54 46 -88 111 -88z" />
    <glyph glyph-name="aeacute" unicode="&#x1fd;" horiz-adv-x="965" 
d="M600 736l-114 -160h-61l112 160h63zM662 513c148 0 261 -117 255 -277h-460c8 -112 94 -196 209 -196c86 0 156 48 189 120l50 -18c-40 -90 -127 -152 -238 -152c-92 0 -169 43 -215 112v-102h-52v100c-46 -72 -118 -110 -203 -110c-95 0 -159 52 -159 135
c0 91 74 135 170 146l123 14c45 5 69 23 69 65c0 71 -54 113 -133 113c-72 0 -140 -31 -161 -120l-53 16c27 106 116 154 215 154c89 0 160 -42 180 -117c44 71 122 117 214 117zM660 462c-104 0 -186 -75 -201 -178h402c-13 100 -94 178 -201 178zM204 39
c116 0 196 90 196 189v35c-15 -16 -39 -22 -77 -26l-115 -14c-64 -7 -115 -36 -115 -96c0 -54 46 -88 111 -88z" />
    <glyph glyph-name="b" unicode="b" horiz-adv-x="639" 
d="M334 513c147 0 258 -113 258 -262c0 -148 -111 -261 -258 -261c-91 0 -167 43 -211 111v-101h-55v740h55v-338c44 68 120 111 211 111zM329 42c118 0 207 90 207 209s-89 210 -207 210c-117 0 -206 -91 -206 -210s89 -209 206 -209z" />
    <glyph glyph-name="c" unicode="c" horiz-adv-x="597" 
d="M48 251c0 149 113 262 262 262c112 0 201 -63 240 -156l-51 -18c-33 74 -103 122 -189 122c-117 0 -207 -91 -207 -210s90 -209 207 -209c86 0 156 47 189 121l51 -17c-39 -94 -128 -156 -240 -156c-149 0 -262 113 -262 261z" />
    <glyph glyph-name="cacute" unicode="&#x107;" horiz-adv-x="597" 
d="M263 576l112 160h63l-114 -160h-61zM48 251c0 149 113 262 262 262c112 0 201 -63 240 -156l-51 -18c-33 74 -103 122 -189 122c-117 0 -207 -91 -207 -210s90 -209 207 -209c86 0 156 47 189 121l51 -17c-39 -94 -128 -156 -240 -156c-149 0 -262 113 -262 261z" />
    <glyph glyph-name="ccaron" unicode="&#x10d;" horiz-adv-x="597" 
d="M342 576h-64l-113 160h60l86 -121l85 121h59zM310 42c86 0 156 47 189 121l51 -17c-39 -94 -128 -156 -240 -156c-149 0 -262 113 -262 261c0 149 113 262 262 262c112 0 201 -63 240 -156l-51 -18c-33 74 -103 122 -189 122c-117 0 -207 -91 -207 -210s90 -209 207 -209
z" />
    <glyph glyph-name="ccedilla" unicode="&#xe7;" horiz-adv-x="597" 
d="M310 42c86 0 156 47 189 121l51 -17c-34 -81 -104 -138 -194 -152c29 -29 43 -64 43 -97c0 -61 -48 -107 -128 -107c-15 0 -31 1 -50 6l3 49c15 -3 29 -5 42 -5c53 0 79 28 79 63c0 28 -18 62 -53 88c-140 8 -244 118 -244 260c0 149 113 262 262 262
c112 0 201 -63 240 -156l-51 -18c-33 74 -103 122 -189 122c-117 0 -207 -91 -207 -210s90 -209 207 -209z" />
    <glyph glyph-name="ccircumflex" unicode="&#x109;" horiz-adv-x="597" 
d="M311 696l-86 -120h-60l113 160h64l113 -160h-59zM310 42c86 0 156 47 189 121l51 -17c-39 -94 -128 -156 -240 -156c-149 0 -262 113 -262 261c0 149 113 262 262 262c112 0 201 -63 240 -156l-51 -18c-33 74 -103 122 -189 122c-117 0 -207 -91 -207 -210
s90 -209 207 -209z" />
    <glyph glyph-name="cdotaccent" unicode="&#x10b;" horiz-adv-x="597" 
d="M272 656c0 21 17 38 38 38c22 0 38 -17 38 -38c0 -22 -16 -38 -38 -38c-21 0 -38 16 -38 38zM48 251c0 149 113 262 262 262c112 0 201 -63 240 -156l-51 -18c-33 74 -103 122 -189 122c-117 0 -207 -91 -207 -210s90 -209 207 -209c86 0 156 47 189 121l51 -17
c-39 -94 -128 -156 -240 -156c-149 0 -262 113 -262 261z" />
    <glyph glyph-name="d" unicode="d" horiz-adv-x="639" 
d="M517 740h55v-740h-55v101c-44 -68 -120 -111 -211 -111c-147 0 -258 113 -258 261c0 149 111 262 258 262c91 0 167 -43 211 -111v338zM310 42c118 0 207 90 207 209s-89 210 -207 210c-117 0 -207 -91 -207 -210s90 -209 207 -209z" />
    <glyph glyph-name="eth" unicode="&#xf0;" horiz-adv-x="603" 
d="M344 626c143 -121 211 -247 211 -383c0 -145 -110 -253 -254 -253s-253 108 -253 251c0 142 108 246 247 246c50 0 105 -14 150 -49c-34 51 -86 108 -161 167l-166 -57l-14 45l134 46c-34 24 -72 48 -115 73l42 38c50 -30 95 -60 135 -90l150 51l14 -44zM301 42
c113 0 198 85 198 199c0 113 -85 199 -198 199s-198 -86 -198 -199c0 -114 85 -199 198 -199z" />
    <glyph glyph-name="dcaron" unicode="&#x10f;" horiz-adv-x="759" 
d="M666 761h55l-44 -186h-48zM517 740h55v-740h-55v101c-44 -68 -120 -111 -211 -111c-147 0 -258 113 -258 261c0 149 111 262 258 262c91 0 167 -43 211 -111v338zM310 42c118 0 207 90 207 209s-89 210 -207 210c-117 0 -207 -91 -207 -210s90 -209 207 -209z" />
    <glyph glyph-name="dcroat" unicode="&#x111;" horiz-adv-x="639" 
d="M648 630v-48h-76v-582h-55v101c-44 -68 -120 -111 -211 -111c-147 0 -258 113 -258 261c0 149 111 262 258 262c91 0 167 -43 211 -111v180h-171v48h171v110h55v-110h76zM310 42c118 0 207 90 207 209s-89 210 -207 210c-117 0 -207 -91 -207 -210s90 -209 207 -209z" />
    <glyph glyph-name="e" unicode="e" horiz-adv-x="610" 
d="M305 513c149 0 264 -117 257 -277h-460c8 -112 95 -196 209 -196c86 0 156 48 189 120l50 -18c-40 -90 -128 -152 -240 -152c-149 0 -262 113 -262 261c0 149 111 262 257 262zM305 462c-104 0 -186 -75 -201 -178h402c-13 100 -94 178 -201 178z" />
    <glyph glyph-name="eacute" unicode="&#xe9;" horiz-adv-x="610" 
d="M433 736l-114 -160h-61l112 160h63zM305 513c149 0 264 -117 257 -277h-460c8 -112 95 -196 209 -196c86 0 156 48 189 120l50 -18c-40 -90 -128 -152 -240 -152c-149 0 -262 113 -262 261c0 149 111 262 257 262zM305 462c-104 0 -186 -75 -201 -178h402
c-13 100 -94 178 -201 178z" />
    <glyph glyph-name="ebreve" unicode="&#x115;" horiz-adv-x="610" 
d="M305 579c-83 0 -140 60 -140 152h50c0 -63 36 -104 90 -104c55 0 89 41 89 104h50c0 -92 -57 -152 -139 -152zM305 513c149 0 264 -117 257 -277h-460c8 -112 95 -196 209 -196c86 0 156 48 189 120l50 -18c-40 -90 -128 -152 -240 -152c-149 0 -262 113 -262 261
c0 149 111 262 257 262zM305 462c-104 0 -186 -75 -201 -178h402c-13 100 -94 178 -201 178z" />
    <glyph glyph-name="ecaron" unicode="&#x11b;" horiz-adv-x="610" 
d="M337 576h-64l-113 160h60l86 -121l85 121h59zM305 513c149 0 264 -117 257 -277h-460c8 -112 95 -196 209 -196c86 0 156 48 189 120l50 -18c-40 -90 -128 -152 -240 -152c-149 0 -262 113 -262 261c0 149 111 262 257 262zM305 462c-104 0 -186 -75 -201 -178h402
c-13 100 -94 178 -201 178z" />
    <glyph glyph-name="ecircumflex" unicode="&#xea;" horiz-adv-x="610" 
d="M306 696l-86 -120h-60l113 160h64l113 -160h-59zM305 513c149 0 264 -117 257 -277h-460c8 -112 95 -196 209 -196c86 0 156 48 189 120l50 -18c-40 -90 -128 -152 -240 -152c-149 0 -262 113 -262 261c0 149 111 262 257 262zM305 462c-104 0 -186 -75 -201 -178h402
c-13 100 -94 178 -201 178z" />
    <glyph glyph-name="uni1EBF" unicode="&#x1ebf;" horiz-adv-x="610" 
d="M588 916l-113 -158h-60l111 158h62zM306 696l-86 -120h-60l113 160h64l113 -160h-59zM305 513c149 0 264 -117 257 -277h-460c8 -112 95 -196 209 -196c86 0 156 48 189 120l50 -18c-40 -90 -128 -152 -240 -152c-149 0 -262 113 -262 261c0 149 111 262 257 262z
M305 462c-104 0 -186 -75 -201 -178h402c-13 100 -94 178 -201 178z" />
    <glyph glyph-name="uni1EC7" unicode="&#x1ec7;" horiz-adv-x="610" 
d="M306 696l-86 -120h-60l113 160h64l113 -160h-59zM305 513c149 0 264 -117 257 -277h-460c8 -112 95 -196 209 -196c86 0 156 48 189 120l50 -18c-40 -90 -128 -152 -240 -152c-149 0 -262 113 -262 261c0 149 111 262 257 262zM305 462c-104 0 -186 -75 -201 -178h402
c-13 100 -94 178 -201 178zM310 -115c22 0 38 -17 38 -38s-16 -38 -38 -38c-21 0 -38 17 -38 38s17 38 38 38z" />
    <glyph glyph-name="uni1EC1" unicode="&#x1ec1;" horiz-adv-x="610" 
d="M509 758h-60l-113 158h63zM306 696l-86 -120h-60l113 160h64l113 -160h-59zM305 513c149 0 264 -117 257 -277h-460c8 -112 95 -196 209 -196c86 0 156 48 189 120l50 -18c-40 -90 -128 -152 -240 -152c-149 0 -262 113 -262 261c0 149 111 262 257 262zM305 462
c-104 0 -186 -75 -201 -178h402c-13 100 -94 178 -201 178z" />
    <glyph glyph-name="uni1EC3" unicode="&#x1ec3;" horiz-adv-x="610" 
d="M457 894c-33 0 -55 -24 -55 -56h-47c0 57 44 98 102 98s102 -41 102 -96s-45 -93 -102 -108l-18 38c49 13 73 39 73 70s-23 54 -55 54zM306 696l-86 -120h-60l113 160h64l113 -160h-59zM305 513c149 0 264 -117 257 -277h-460c8 -112 95 -196 209 -196
c86 0 156 48 189 120l50 -18c-40 -90 -128 -152 -240 -152c-149 0 -262 113 -262 261c0 149 111 262 257 262zM305 462c-104 0 -186 -75 -201 -178h402c-13 100 -94 178 -201 178z" />
    <glyph glyph-name="uni1EC5" unicode="&#x1ec5;" horiz-adv-x="610" 
d="M233 879c-29 0 -48 -20 -60 -50l-40 20c17 47 51 78 100 78c74 0 95 -67 145 -67c29 0 48 20 60 50l40 -20c-17 -46 -51 -78 -100 -78c-74 0 -95 67 -145 67zM273 736h64l113 -160h-59l-85 120l-86 -120h-60zM305 513c149 0 264 -117 257 -277h-460
c8 -112 95 -196 209 -196c86 0 156 48 189 120l50 -18c-40 -90 -128 -152 -240 -152c-149 0 -262 113 -262 261c0 149 111 262 257 262zM305 462c-104 0 -186 -75 -201 -178h402c-13 100 -94 178 -201 178z" />
    <glyph glyph-name="edieresis" unicode="&#xeb;" horiz-adv-x="610" 
d="M203 618c-21 0 -38 17 -38 38s17 37 38 37s37 -16 37 -37s-16 -38 -37 -38zM408 618c-21 0 -38 17 -38 38s17 37 38 37s37 -16 37 -37s-16 -38 -37 -38zM305 513c149 0 264 -117 257 -277h-460c8 -112 95 -196 209 -196c86 0 156 48 189 120l50 -18
c-40 -90 -128 -152 -240 -152c-149 0 -262 113 -262 261c0 149 111 262 257 262zM305 462c-104 0 -186 -75 -201 -178h402c-13 100 -94 178 -201 178z" />
    <glyph glyph-name="edotaccent" unicode="&#x117;" horiz-adv-x="610" 
d="M305 618c-21 0 -38 16 -38 38c0 21 17 38 38 38c22 0 38 -17 38 -38c0 -22 -16 -38 -38 -38zM305 513c149 0 264 -117 257 -277h-460c8 -112 95 -196 209 -196c86 0 156 48 189 120l50 -18c-40 -90 -128 -152 -240 -152c-149 0 -262 113 -262 261c0 149 111 262 257 262z
M305 462c-104 0 -186 -75 -201 -178h402c-13 100 -94 178 -201 178z" />
    <glyph glyph-name="uni1EB9" unicode="&#x1eb9;" horiz-adv-x="610" 
d="M305 513c149 0 264 -117 257 -277h-460c8 -112 95 -196 209 -196c86 0 156 48 189 120l50 -18c-40 -90 -128 -152 -240 -152c-149 0 -262 113 -262 261c0 149 111 262 257 262zM305 462c-104 0 -186 -75 -201 -178h402c-13 100 -94 178 -201 178zM310 -115
c22 0 38 -17 38 -38s-16 -38 -38 -38c-21 0 -38 17 -38 38s17 38 38 38z" />
    <glyph glyph-name="egrave" unicode="&#xe8;" horiz-adv-x="610" 
d="M353 576h-61l-114 160h63zM305 513c149 0 264 -117 257 -277h-460c8 -112 95 -196 209 -196c86 0 156 48 189 120l50 -18c-40 -90 -128 -152 -240 -152c-149 0 -262 113 -262 261c0 149 111 262 257 262zM305 462c-104 0 -186 -75 -201 -178h402
c-13 100 -94 178 -201 178z" />
    <glyph glyph-name="uni1EBB" unicode="&#x1ebb;" horiz-adv-x="610" 
d="M305 714c-33 0 -56 -25 -55 -58h-48c0 58 44 100 103 100s103 -42 103 -98c0 -55 -45 -93 -103 -109l-18 38c49 14 74 40 74 71c0 32 -24 56 -56 56zM305 513c149 0 264 -117 257 -277h-460c8 -112 95 -196 209 -196c86 0 156 48 189 120l50 -18
c-40 -90 -128 -152 -240 -152c-149 0 -262 113 -262 261c0 149 111 262 257 262zM305 462c-104 0 -186 -75 -201 -178h402c-13 100 -94 178 -201 178z" />
    <glyph glyph-name="emacron" unicode="&#x113;" horiz-adv-x="610" 
d="M457 680v-48h-303v48h303zM305 513c149 0 264 -117 257 -277h-460c8 -112 95 -196 209 -196c86 0 156 48 189 120l50 -18c-40 -90 -128 -152 -240 -152c-149 0 -262 113 -262 261c0 149 111 262 257 262zM305 462c-104 0 -186 -75 -201 -178h402
c-13 100 -94 178 -201 178z" />
    <glyph glyph-name="eogonek" unicode="&#x119;" horiz-adv-x="611" 
d="M305 513c149 0 264 -117 257 -277h-460c8 -112 95 -196 209 -196c86 0 156 48 189 120l50 -18c-11 -24 -25 -46 -42 -65c-37 -51 -69 -124 -69 -174c0 -35 16 -63 57 -63c23 0 37 3 59 13l2 -48c-20 -9 -46 -15 -69 -15c-70 0 -103 42 -103 97c0 40 15 85 38 127
c-34 -16 -72 -24 -113 -24c-149 0 -262 113 -262 261c0 149 111 262 257 262zM305 462c-104 0 -186 -75 -201 -178h402c-13 100 -94 178 -201 178z" />
    <glyph glyph-name="uni1EBD" unicode="&#x1ebd;" horiz-adv-x="610" 
d="M231 665c-28 0 -48 -20 -60 -50l-41 20c18 47 52 79 101 79c75 0 97 -68 148 -68c29 0 48 20 60 51l41 -20c-18 -48 -52 -79 -101 -79c-75 0 -96 67 -148 67zM305 513c149 0 264 -117 257 -277h-460c8 -112 95 -196 209 -196c86 0 156 48 189 120l50 -18
c-40 -90 -128 -152 -240 -152c-149 0 -262 113 -262 261c0 149 111 262 257 262zM305 462c-104 0 -186 -75 -201 -178h402c-13 100 -94 178 -201 178z" />
    <glyph glyph-name="uni0259" unicode="&#x259;" horiz-adv-x="611" 
d="M301 513c149 0 262 -113 262 -262c0 -148 -111 -261 -257 -261c-149 0 -264 117 -257 276h460c-8 113 -95 196 -209 196c-86 0 -156 -47 -189 -120l-50 19c40 89 128 152 240 152zM306 40c104 0 186 75 201 178h-401c13 -100 93 -178 200 -178z" />
    <glyph glyph-name="uni0292" unicode="&#x292;" horiz-adv-x="476" 
d="M228 215c126 -9 210 -99 210 -213c0 -120 -96 -212 -206 -212c-104 0 -186 53 -213 152l51 16c21 -79 83 -117 161 -117c87 0 151 71 151 161c0 89 -67 163 -168 163h-49v48l190 239h-310v51h374v-48z" />
    <glyph glyph-name="uni01EF" unicode="&#x1ef;" horiz-adv-x="476" 
d="M263 576h-64l-113 160h60l86 -121l85 121h59zM228 215c126 -9 210 -99 210 -213c0 -120 -96 -212 -206 -212c-104 0 -186 53 -213 152l51 16c21 -79 83 -117 161 -117c87 0 151 71 151 161c0 89 -67 163 -168 163h-49v48l190 239h-310v51h374v-48z" />
    <glyph glyph-name="f" unicode="f" horiz-adv-x="398" 
d="M145 0v452h-117v51h117v71c0 114 53 166 168 166h47v-51h-47c-82 0 -113 -32 -113 -114v-72h160v-51h-160v-452h-55z" />
    <glyph glyph-name="g" unicode="g" horiz-adv-x="639" 
d="M517 503h55v-452c0 -148 -113 -261 -263 -261c-111 0 -199 62 -239 152l51 21c33 -74 102 -122 188 -122c118 0 208 91 208 210v52c-44 -68 -120 -111 -211 -111c-147 0 -258 113 -258 261c0 147 111 260 258 260c91 0 167 -43 211 -111v101zM310 44
c118 0 207 90 207 209c0 118 -89 208 -207 208c-117 0 -207 -90 -207 -208c0 -119 90 -209 207 -209z" />
    <glyph glyph-name="uni01F5" unicode="&#x1f5;" horiz-adv-x="639" 
d="M447 736l-114 -160h-61l112 160h63zM517 503h55v-452c0 -148 -113 -261 -263 -261c-111 0 -199 62 -239 152l51 21c33 -74 102 -122 188 -122c118 0 208 91 208 210v52c-44 -68 -120 -111 -211 -111c-147 0 -258 113 -258 261c0 147 111 260 258 260
c91 0 167 -43 211 -111v101zM310 44c118 0 207 90 207 209c0 118 -89 208 -207 208c-117 0 -207 -90 -207 -208c0 -119 90 -209 207 -209z" />
    <glyph glyph-name="gbreve" unicode="&#x11f;" horiz-adv-x="639" 
d="M320 579c-83 0 -140 60 -140 152h50c0 -63 36 -104 90 -104c55 0 89 41 89 104h50c0 -92 -57 -152 -139 -152zM517 503h55v-452c0 -148 -113 -261 -263 -261c-111 0 -199 62 -239 152l51 21c33 -74 102 -122 188 -122c118 0 208 91 208 210v52
c-44 -68 -120 -111 -211 -111c-147 0 -258 113 -258 261c0 147 111 260 258 260c91 0 167 -43 211 -111v101zM310 44c118 0 207 90 207 209c0 118 -89 208 -207 208c-117 0 -207 -90 -207 -208c0 -119 90 -209 207 -209z" />
    <glyph glyph-name="gcaron" unicode="&#x1e7;" horiz-adv-x="639" 
d="M352 576h-64l-113 160h60l86 -121l85 121h59zM517 503h55v-452c0 -148 -113 -261 -263 -261c-111 0 -199 62 -239 152l51 21c33 -74 102 -122 188 -122c118 0 208 91 208 210v52c-44 -68 -120 -111 -211 -111c-147 0 -258 113 -258 261c0 147 111 260 258 260
c91 0 167 -43 211 -111v101zM310 44c118 0 207 90 207 209c0 118 -89 208 -207 208c-117 0 -207 -90 -207 -208c0 -119 90 -209 207 -209z" />
    <glyph glyph-name="gcircumflex" unicode="&#x11d;" horiz-adv-x="639" 
d="M321 696l-86 -120h-60l113 160h64l113 -160h-59zM517 503h55v-452c0 -148 -113 -261 -263 -261c-111 0 -199 62 -239 152l51 21c33 -74 102 -122 188 -122c118 0 208 91 208 210v52c-44 -68 -120 -111 -211 -111c-147 0 -258 113 -258 261c0 147 111 260 258 260
c91 0 167 -43 211 -111v101zM310 44c118 0 207 90 207 209c0 118 -89 208 -207 208c-117 0 -207 -90 -207 -208c0 -119 90 -209 207 -209z" />
    <glyph glyph-name="uni0123" unicode="&#x123;" horiz-adv-x="639" 
d="M366 740l-37 -149h-56l43 149h50zM517 503h55v-452c0 -148 -113 -261 -263 -261c-111 0 -199 62 -239 152l51 21c33 -74 102 -122 188 -122c118 0 208 91 208 210v52c-44 -68 -120 -111 -211 -111c-147 0 -258 113 -258 261c0 147 111 260 258 260c91 0 167 -43 211 -111
v101zM310 44c118 0 207 90 207 209c0 118 -89 208 -207 208c-117 0 -207 -90 -207 -208c0 -119 90 -209 207 -209z" />
    <glyph glyph-name="gdotaccent" unicode="&#x121;" horiz-adv-x="639" 
d="M320 618c-21 0 -38 16 -38 38c0 21 17 38 38 38c22 0 38 -17 38 -38c0 -22 -16 -38 -38 -38zM517 503h55v-452c0 -148 -113 -261 -263 -261c-111 0 -199 62 -239 152l51 21c33 -74 102 -122 188 -122c118 0 208 91 208 210v52c-44 -68 -120 -111 -211 -111
c-147 0 -258 113 -258 261c0 147 111 260 258 260c91 0 167 -43 211 -111v101zM310 44c118 0 207 90 207 209c0 118 -89 208 -207 208c-117 0 -207 -90 -207 -208c0 -119 90 -209 207 -209z" />
    <glyph glyph-name="h" unicode="h" horiz-adv-x="584" 
d="M301 513c126 0 220 -95 220 -220v-293h-55v289c0 98 -74 172 -172 172c-97 0 -171 -74 -171 -172v-289h-55v740h55v-320c38 56 101 93 178 93z" />
    <glyph glyph-name="hbar" unicode="&#x127;" horiz-adv-x="584" 
d="M301 513c126 0 220 -95 220 -220v-293h-55v289c0 98 -74 172 -172 172c-97 0 -171 -74 -171 -172v-289h-55v582h-77v48h77v110h55v-110h171v-48h-171v-162c38 56 101 93 178 93z" />
    <glyph glyph-name="hcircumflex" unicode="&#x125;" horiz-adv-x="584" 
d="M205 789l-110 110l-110 -110h-69l151 151h56l151 -151h-69zM301 513c126 0 220 -95 220 -220v-293h-55v289c0 98 -74 172 -172 172c-97 0 -171 -74 -171 -172v-289h-55v740h55v-320c38 56 101 93 178 93z" />
    <glyph glyph-name="i" unicode="i" horiz-adv-x="190" 
d="M57 656c0 21 17 38 38 38s38 -17 38 -38c0 -22 -17 -38 -38 -38s-38 16 -38 38zM68 0v503h55v-503h-55z" />
    <glyph glyph-name="dotlessi" unicode="&#x131;" horiz-adv-x="190" 
d="M68 0v503h55v-503h-55z" />
    <glyph glyph-name="iacute" unicode="&#xed;" horiz-adv-x="190" 
d="M47 576l112 160h63l-114 -160h-61zM68 0v503h55v-503h-55z" />
    <glyph glyph-name="ibreve" unicode="&#x12d;" horiz-adv-x="190" 
d="M5 731c0 -63 36 -104 90 -104c55 0 89 41 89 104h50c0 -92 -57 -152 -139 -152c-83 0 -140 60 -140 152h50zM68 0v503h55v-503h-55z" />
    <glyph glyph-name="uni01D0" unicode="&#x1d0;" horiz-adv-x="190" 
d="M181 736h59l-113 -160h-64l-113 160h60l86 -121zM68 0v503h55v-503h-55z" />
    <glyph glyph-name="icircumflex" unicode="&#xee;" horiz-adv-x="190" 
d="M127 736l113 -160h-59l-85 120l-86 -120h-60l113 160h64zM68 0v503h55v-503h-55z" />
    <glyph glyph-name="idieresis" unicode="&#xef;" horiz-adv-x="190" 
d="M-24 656c0 21 16 37 37 37s38 -16 38 -37s-17 -38 -38 -38s-37 17 -37 38zM139 656c0 21 17 37 38 37s37 -16 37 -37s-16 -38 -37 -38s-38 17 -38 38zM68 0v503h55v-503h-55z" />
    <glyph glyph-name="i.loclTRK" horiz-adv-x="190" 
d="M57 656c0 21 17 38 38 38s38 -17 38 -38c0 -22 -17 -38 -38 -38s-38 16 -38 38zM68 0v503h55v-503h-55z" />
    <glyph glyph-name="uni1ECB" unicode="&#x1ecb;" horiz-adv-x="190" 
d="M57 656c0 21 17 38 38 38s38 -17 38 -38c0 -22 -17 -38 -38 -38s-38 16 -38 38zM68 0v503h55v-503h-55zM57 -153c0 21 17 38 38 38c22 0 38 -17 38 -38s-16 -38 -38 -38c-21 0 -38 17 -38 38z" />
    <glyph glyph-name="igrave" unicode="&#xec;" horiz-adv-x="190" 
d="M81 576l-114 160h63l112 -160h-61zM68 0v503h55v-503h-55z" />
    <glyph glyph-name="uni1EC9" unicode="&#x1ec9;" horiz-adv-x="190" 
d="M77 587c49 14 74 40 74 71c0 32 -24 56 -56 56c-33 0 -56 -25 -55 -58h-48c0 58 44 100 103 100s103 -42 103 -98c0 -55 -45 -93 -103 -109zM68 0v503h55v-503h-55z" />
    <glyph glyph-name="ij" unicode="&#x133;" horiz-adv-x="400" 
d="M57 656c0 21 17 38 38 38s38 -17 38 -38c0 -22 -17 -38 -38 -38s-38 16 -38 38zM267 656c0 21 17 38 38 38s38 -17 38 -38c0 -22 -17 -38 -38 -38s-38 16 -38 38zM68 0v503h55v-503h-55zM179 -155c74 -3 99 22 99 93v565h55v-565c0 -86 -35 -150 -154 -144v51z" />
    <glyph glyph-name="imacron" unicode="&#x12b;" horiz-adv-x="190" 
d="M-19 632v48h228v-48h-228zM68 0v503h55v-503h-55z" />
    <glyph glyph-name="iogonek" unicode="&#x12f;" horiz-adv-x="190" 
d="M95 618c-21 0 -38 16 -38 38c0 21 17 38 38 38c22 0 38 -17 38 -38c0 -22 -16 -38 -38 -38zM176 -195c-21 -9 -46 -15 -69 -15c-70 0 -103 42 -103 93c0 49 25 92 64 124v496h55v-503h-3c-43 -33 -62 -70 -62 -106c0 -30 21 -54 57 -54c23 0 37 3 59 13z" />
    <glyph glyph-name="itilde" unicode="&#x129;" horiz-adv-x="190" 
d="M-80 635c18 47 52 79 101 79c75 0 97 -68 148 -68c29 0 48 20 60 51l41 -20c-18 -48 -52 -79 -101 -79c-75 0 -96 67 -148 67c-29 0 -48 -20 -60 -50zM68 0v503h55v-503h-55z" />
    <glyph glyph-name="j" unicode="j" horiz-adv-x="210" 
d="M77 656c0 21 17 38 38 38s38 -17 38 -38c0 -22 -17 -38 -38 -38s-38 16 -38 38zM-11 -155c74 -3 99 22 99 93v565h55v-565c0 -86 -35 -150 -154 -144v51z" />
    <glyph glyph-name="uni0237" unicode="&#x237;" horiz-adv-x="210" 
d="M-11 -155c74 -3 99 22 99 93v565h55v-565c0 -86 -35 -150 -154 -144v51z" />
    <glyph glyph-name="jcircumflex" unicode="&#x135;" horiz-adv-x="210" 
d="M147 736l113 -160h-59l-85 120l-86 -120h-60l113 160h64zM88 503h55v-565c0 -86 -35 -150 -154 -144v51c74 -3 99 22 99 93v565z" />
    <glyph glyph-name="k" unicode="k" horiz-adv-x="515" 
d="M507 0h-72l-207 257l-105 -111v-146h-55v740h55v-522l265 285h72l-194 -206z" />
    <glyph glyph-name="uni01E9" unicode="&#x1e9;" horiz-adv-x="515" 
d="M289 814h-64l-113 160h60l86 -121l85 121h59zM507 0h-72l-207 257l-105 -111v-146h-55v740h55v-522l265 285h72l-194 -206z" />
    <glyph glyph-name="uni0137" unicode="&#x137;" horiz-adv-x="515" 
d="M266 297l241 -297h-72l-207 257l-105 -111v-146h-55v740h55v-522l265 285h72zM211 -210l37 149h56l-44 -149h-49z" />
    <glyph glyph-name="kgreenlandic" unicode="&#x138;" horiz-adv-x="515" 
d="M507 0h-72l-207 257l-105 -111v-146h-55v503h55v-285l265 285h72l-194 -206z" />
    <glyph glyph-name="l" unicode="l" horiz-adv-x="190" 
d="M68 0v740h55v-740h-55z" />
    <glyph glyph-name="lacute" unicode="&#x13a;" horiz-adv-x="190" 
d="M24 789l151 151h71l-153 -151h-69zM68 0v740h55v-740h-55z" />
    <glyph glyph-name="lcaron" unicode="&#x13e;" horiz-adv-x="310" 
d="M180 575l37 186h54l-43 -186h-48zM68 0v740h55v-740h-55z" />
    <glyph glyph-name="uni013C" unicode="&#x13c;" horiz-adv-x="190" 
d="M68 0v740h55v-740h-55zM49 -210l37 149h56l-44 -149h-49z" />
    <glyph glyph-name="ldot" unicode="&#x140;" horiz-adv-x="269" 
d="M68 0v740h55v-740h-55zM190 350c0 22 17 39 39 39s40 -17 40 -39s-18 -39 -40 -39s-39 17 -39 39z" />
    <glyph glyph-name="lslash" unicode="&#x142;" horiz-adv-x="248" 
d="M240 436v-50l-89 -33v-353h-55v332l-88 -33v50l88 33v358h55v-337z" />
    <glyph glyph-name="m" unicode="m" horiz-adv-x="902" 
d="M637 513c116 0 203 -95 203 -220v-293h-55v289c0 98 -66 172 -152 172s-152 -74 -152 -172v-289h-55v289c0 98 -65 172 -152 172c-86 0 -151 -74 -151 -172v-289h-55v503h55v-78c34 52 90 88 158 88c81 0 148 -47 179 -120c32 72 95 120 177 120z" />
    <glyph glyph-name="n" unicode="n" horiz-adv-x="584" 
d="M301 513c126 0 220 -95 220 -220v-293h-55v289c0 98 -74 172 -172 172c-97 0 -171 -74 -171 -172v-289h-55v503h55v-83c38 56 101 93 178 93z" />
    <glyph glyph-name="nacute" unicode="&#x144;" horiz-adv-x="584" 
d="M420 736l-114 -160h-61l112 160h63zM301 513c126 0 220 -95 220 -220v-293h-55v289c0 98 -74 172 -172 172c-97 0 -171 -74 -171 -172v-289h-55v503h55v-83c38 56 101 93 178 93z" />
    <glyph glyph-name="napostrophe" unicode="&#x149;" horiz-adv-x="776" 
d="M98 750c40 0 68 -39 68 -88s-25 -100 -78 -135l-33 33c59 39 71 91 56 116c-22 -10 -54 3 -54 35c0 22 17 39 41 39zM494 513c126 0 220 -95 220 -220v-293h-55v289c0 98 -74 172 -172 172c-97 0 -171 -74 -171 -172v-289h-55v503h55v-83c38 56 101 93 178 93z" />
    <glyph glyph-name="ncaron" unicode="&#x148;" horiz-adv-x="584" 
d="M324 576h-64l-113 160h60l86 -121l85 121h59zM301 513c126 0 220 -95 220 -220v-293h-55v289c0 98 -74 172 -172 172c-97 0 -171 -74 -171 -172v-289h-55v503h55v-83c38 56 101 93 178 93z" />
    <glyph glyph-name="uni0146" unicode="&#x146;" horiz-adv-x="584" 
d="M301 513c126 0 220 -95 220 -220v-293h-55v289c0 98 -74 172 -172 172c-97 0 -171 -74 -171 -172v-289h-55v503h55v-83c38 56 101 93 178 93zM246 -210l37 149h56l-44 -149h-49z" />
    <glyph glyph-name="eng" unicode="&#x14b;" horiz-adv-x="584" 
d="M301 513c126 0 220 -95 220 -220v-355c0 -86 -35 -150 -153 -144v51c73 -3 98 22 98 93v351c0 98 -74 172 -172 172c-97 0 -171 -74 -171 -172v-289h-55v503h55v-83c38 56 101 93 178 93z" />
    <glyph glyph-name="uni0272" unicode="&#x272;" horiz-adv-x="584" 
d="M301 513c126 0 220 -95 220 -220v-293h-55v289c0 98 -74 172 -172 172c-97 0 -171 -74 -171 -172v-351c0 -86 -35 -150 -154 -144v51c74 -3 99 22 99 93v565h55v-83c38 56 101 93 178 93z" />
    <glyph glyph-name="ntilde" unicode="&#xf1;" horiz-adv-x="584" 
d="M218 665c-28 0 -48 -20 -60 -50l-41 20c18 47 52 79 101 79c75 0 97 -68 148 -68c29 0 48 20 60 51l41 -20c-18 -48 -52 -79 -101 -79c-75 0 -96 67 -148 67zM301 513c126 0 220 -95 220 -220v-293h-55v289c0 98 -74 172 -172 172c-97 0 -171 -74 -171 -172v-289h-55v503
h55v-83c38 56 101 93 178 93z" />
    <glyph glyph-name="o" unicode="o" horiz-adv-x="620" 
d="M48 251c0 149 113 262 262 262s263 -113 263 -262c0 -148 -114 -261 -263 -261s-262 113 -262 261zM103 251c0 -119 90 -209 207 -209c118 0 207 90 207 209s-89 210 -207 210c-117 0 -207 -91 -207 -210z" />
    <glyph glyph-name="oacute" unicode="&#xf3;" horiz-adv-x="620" 
d="M263 576l112 160h63l-114 -160h-61zM48 251c0 149 113 262 262 262s263 -113 263 -262c0 -148 -114 -261 -263 -261s-262 113 -262 261zM103 251c0 -119 90 -209 207 -209c118 0 207 90 207 209s-89 210 -207 210c-117 0 -207 -91 -207 -210z" />
    <glyph glyph-name="obreve" unicode="&#x14f;" horiz-adv-x="620" 
d="M220 731c0 -63 36 -104 90 -104c55 0 89 41 89 104h50c0 -92 -57 -152 -139 -152c-83 0 -140 60 -140 152h50zM48 251c0 149 113 262 262 262s263 -113 263 -262c0 -148 -114 -261 -263 -261s-262 113 -262 261zM103 251c0 -119 90 -209 207 -209c118 0 207 90 207 209
s-89 210 -207 210c-117 0 -207 -91 -207 -210z" />
    <glyph glyph-name="uni01D2" unicode="&#x1d2;" horiz-adv-x="620" 
d="M342 576h-64l-113 160h60l86 -121l85 121h59zM310 513c149 0 263 -113 263 -262c0 -148 -114 -261 -263 -261s-262 113 -262 261c0 149 113 262 262 262zM310 42c118 0 207 90 207 209s-89 210 -207 210c-117 0 -207 -91 -207 -210s90 -209 207 -209z" />
    <glyph glyph-name="ocircumflex" unicode="&#xf4;" horiz-adv-x="620" 
d="M311 696l-86 -120h-60l113 160h64l113 -160h-59zM310 513c149 0 263 -113 263 -262c0 -148 -114 -261 -263 -261s-262 113 -262 261c0 149 113 262 262 262zM310 42c118 0 207 90 207 209s-89 210 -207 210c-117 0 -207 -91 -207 -210s90 -209 207 -209z" />
    <glyph glyph-name="uni1ED1" unicode="&#x1ed1;" horiz-adv-x="620" 
d="M593 916l-113 -158h-60l111 158h62zM311 696l-86 -120h-60l113 160h64l113 -160h-59zM310 513c149 0 263 -113 263 -262c0 -148 -114 -261 -263 -261s-262 113 -262 261c0 149 113 262 262 262zM310 42c118 0 207 90 207 209s-89 210 -207 210c-117 0 -207 -91 -207 -210
s90 -209 207 -209z" />
    <glyph glyph-name="uni1ED9" unicode="&#x1ed9;" horiz-adv-x="620" 
d="M311 696l-86 -120h-60l113 160h64l113 -160h-59zM310 513c149 0 263 -113 263 -262c0 -148 -114 -261 -263 -261s-262 113 -262 261c0 149 113 262 262 262zM310 42c118 0 207 90 207 209s-89 210 -207 210c-117 0 -207 -91 -207 -210s90 -209 207 -209zM310 -115
c22 0 38 -17 38 -38s-16 -38 -38 -38c-21 0 -38 17 -38 38s17 38 38 38z" />
    <glyph glyph-name="uni1ED3" unicode="&#x1ed3;" horiz-adv-x="620" 
d="M514 758h-60l-113 158h63zM311 696l-86 -120h-60l113 160h64l113 -160h-59zM310 513c149 0 263 -113 263 -262c0 -148 -114 -261 -263 -261s-262 113 -262 261c0 149 113 262 262 262zM310 42c118 0 207 90 207 209s-89 210 -207 210c-117 0 -207 -91 -207 -210
s90 -209 207 -209z" />
    <glyph glyph-name="uni1ED5" unicode="&#x1ed5;" horiz-adv-x="620" 
d="M462 894c-33 0 -55 -24 -55 -56h-47c0 57 44 98 102 98s102 -41 102 -96s-45 -93 -102 -108l-18 38c49 13 73 39 73 70s-23 54 -55 54zM311 696l-86 -120h-60l113 160h64l113 -160h-59zM310 513c149 0 263 -113 263 -262c0 -148 -114 -261 -263 -261s-262 113 -262 261
c0 149 113 262 262 262zM310 42c118 0 207 90 207 209s-89 210 -207 210c-117 0 -207 -91 -207 -210s90 -209 207 -209z" />
    <glyph glyph-name="uni1ED7" unicode="&#x1ed7;" horiz-adv-x="620" 
d="M238 879c-29 0 -48 -20 -60 -50l-40 20c17 47 51 78 100 78c74 0 95 -67 145 -67c29 0 48 20 60 50l40 -20c-17 -46 -51 -78 -100 -78c-74 0 -95 67 -145 67zM278 736h64l113 -160h-59l-85 120l-86 -120h-60zM310 513c149 0 263 -113 263 -262
c0 -148 -114 -261 -263 -261s-262 113 -262 261c0 149 113 262 262 262zM310 42c118 0 207 90 207 209s-89 210 -207 210c-117 0 -207 -91 -207 -210s90 -209 207 -209z" />
    <glyph glyph-name="odieresis" unicode="&#xf6;" horiz-adv-x="620" 
d="M170 656c0 21 17 37 38 37s37 -16 37 -37s-16 -38 -37 -38s-38 17 -38 38zM375 656c0 21 17 37 38 37s37 -16 37 -37s-16 -38 -37 -38s-38 17 -38 38zM48 251c0 149 113 262 262 262s263 -113 263 -262c0 -148 -114 -261 -263 -261s-262 113 -262 261zM103 251
c0 -119 90 -209 207 -209c118 0 207 90 207 209s-89 210 -207 210c-117 0 -207 -91 -207 -210z" />
    <glyph glyph-name="uni1ECD" unicode="&#x1ecd;" horiz-adv-x="620" 
d="M48 251c0 149 113 262 262 262s263 -113 263 -262c0 -148 -114 -261 -263 -261s-262 113 -262 261zM103 251c0 -119 90 -209 207 -209c118 0 207 90 207 209s-89 210 -207 210c-117 0 -207 -91 -207 -210zM272 -153c0 21 17 38 38 38c22 0 38 -17 38 -38s-16 -38 -38 -38
c-21 0 -38 17 -38 38z" />
    <glyph glyph-name="ograve" unicode="&#xf2;" horiz-adv-x="620" 
d="M297 576l-114 160h63l112 -160h-61zM48 251c0 149 113 262 262 262s263 -113 263 -262c0 -148 -114 -261 -263 -261s-262 113 -262 261zM103 251c0 -119 90 -209 207 -209c118 0 207 90 207 209s-89 210 -207 210c-117 0 -207 -91 -207 -210z" />
    <glyph glyph-name="uni1ECF" unicode="&#x1ecf;" horiz-adv-x="620" 
d="M292 587c49 14 74 40 74 71c0 32 -24 56 -56 56c-33 0 -56 -25 -55 -58h-48c0 58 44 100 103 100s103 -42 103 -98c0 -55 -45 -93 -103 -109zM48 251c0 149 113 262 262 262s263 -113 263 -262c0 -148 -114 -261 -263 -261s-262 113 -262 261zM103 251
c0 -119 90 -209 207 -209c118 0 207 90 207 209s-89 210 -207 210c-117 0 -207 -91 -207 -210z" />
    <glyph glyph-name="ohorn" unicode="&#x1a1;" horiz-adv-x="627" 
d="M629 579c0 -71 -46 -123 -145 -129c55 -47 89 -118 89 -199c0 -148 -114 -261 -263 -261s-262 113 -262 261c0 149 113 262 262 262c23 0 45 -3 65 -8c130 -25 201 1 201 76c0 20 -5 44 -16 72h54c9 -21 15 -47 15 -74zM517 251c0 119 -89 210 -207 210
c-117 0 -207 -91 -207 -210s90 -209 207 -209c118 0 207 90 207 209z" />
    <glyph glyph-name="uni1EDB" unicode="&#x1edb;" horiz-adv-x="627" 
d="M438 736l-114 -160h-61l112 160h63zM629 579c0 -71 -46 -123 -145 -129c55 -47 89 -118 89 -199c0 -148 -114 -261 -263 -261s-262 113 -262 261c0 149 113 262 262 262c23 0 45 -3 65 -8c130 -25 201 1 201 76c0 20 -5 44 -16 72h54c9 -21 15 -47 15 -74zM517 251
c0 119 -89 210 -207 210c-117 0 -207 -91 -207 -210s90 -209 207 -209c118 0 207 90 207 209z" />
    <glyph glyph-name="uni1EE3" unicode="&#x1ee3;" horiz-adv-x="627" 
d="M629 579c0 -71 -46 -123 -145 -129c55 -47 89 -118 89 -199c0 -148 -114 -261 -263 -261s-262 113 -262 261c0 149 113 262 262 262c23 0 45 -3 65 -8c130 -25 201 1 201 76c0 20 -5 44 -16 72h54c9 -21 15 -47 15 -74zM517 251c0 119 -89 210 -207 210
c-117 0 -207 -91 -207 -210s90 -209 207 -209c118 0 207 90 207 209zM310 -115c22 0 38 -17 38 -38s-16 -38 -38 -38c-21 0 -38 17 -38 38s17 38 38 38z" />
    <glyph glyph-name="uni1EDD" unicode="&#x1edd;" horiz-adv-x="627" 
d="M358 576h-61l-114 160h63zM629 579c0 -71 -46 -123 -145 -129c55 -47 89 -118 89 -199c0 -148 -114 -261 -263 -261s-262 113 -262 261c0 149 113 262 262 262c23 0 45 -3 65 -8c130 -25 201 1 201 76c0 20 -5 44 -16 72h54c9 -21 15 -47 15 -74zM517 251
c0 119 -89 210 -207 210c-117 0 -207 -91 -207 -210s90 -209 207 -209c118 0 207 90 207 209z" />
    <glyph glyph-name="uni1EDF" unicode="&#x1edf;" horiz-adv-x="627" 
d="M310 714c-33 0 -56 -25 -55 -58h-48c0 58 44 100 103 100s103 -42 103 -98c0 -55 -45 -93 -103 -109l-18 38c49 14 74 40 74 71c0 32 -24 56 -56 56zM629 579c0 -71 -46 -123 -145 -129c55 -47 89 -118 89 -199c0 -148 -114 -261 -263 -261s-262 113 -262 261
c0 149 113 262 262 262c23 0 45 -3 65 -8c130 -25 201 1 201 76c0 20 -5 44 -16 72h54c9 -21 15 -47 15 -74zM517 251c0 119 -89 210 -207 210c-117 0 -207 -91 -207 -210s90 -209 207 -209c118 0 207 90 207 209z" />
    <glyph glyph-name="uni1EE1" unicode="&#x1ee1;" horiz-adv-x="627" 
d="M236 665c-28 0 -48 -20 -60 -50l-41 20c18 47 52 79 101 79c75 0 97 -68 148 -68c29 0 48 20 60 51l41 -20c-18 -48 -52 -79 -101 -79c-75 0 -96 67 -148 67zM629 579c0 -71 -46 -123 -145 -129c55 -47 89 -118 89 -199c0 -148 -114 -261 -263 -261s-262 113 -262 261
c0 149 113 262 262 262c23 0 45 -3 65 -8c130 -25 201 1 201 76c0 20 -5 44 -16 72h54c9 -21 15 -47 15 -74zM517 251c0 119 -89 210 -207 210c-117 0 -207 -91 -207 -210s90 -209 207 -209c118 0 207 90 207 209z" />
    <glyph glyph-name="ohungarumlaut" unicode="&#x151;" horiz-adv-x="620" 
d="M183 576l112 160h61l-115 -160h-58zM344 576l111 160h61l-114 -160h-58zM48 251c0 149 113 262 262 262s263 -113 263 -262c0 -148 -114 -261 -263 -261s-262 113 -262 261zM103 251c0 -119 90 -209 207 -209c118 0 207 90 207 209s-89 210 -207 210
c-117 0 -207 -91 -207 -210z" />
    <glyph glyph-name="omacron" unicode="&#x14d;" horiz-adv-x="620" 
d="M159 632v48h303v-48h-303zM48 251c0 149 113 262 262 262s263 -113 263 -262c0 -148 -114 -261 -263 -261s-262 113 -262 261zM103 251c0 -119 90 -209 207 -209c118 0 207 90 207 209s-89 210 -207 210c-117 0 -207 -91 -207 -210z" />
    <glyph glyph-name="uni01EB" unicode="&#x1eb;" horiz-adv-x="620" 
d="M343 -8c-36 -31 -52 -65 -52 -98c0 -30 21 -54 57 -54c23 0 37 3 59 13l2 -48c-21 -9 -46 -15 -69 -15c-70 0 -103 42 -103 93c0 41 18 78 47 108c-136 13 -236 121 -236 260c0 149 113 262 262 262s263 -113 263 -262c0 -137 -97 -244 -230 -259zM103 251
c0 -119 90 -209 207 -209c118 0 207 90 207 209s-89 210 -207 210c-117 0 -207 -91 -207 -210z" />
    <glyph glyph-name="oslash" unicode="&#xf8;" horiz-adv-x="620" 
d="M482 452c56 -47 91 -119 91 -201c0 -148 -114 -261 -263 -261c-47 0 -91 11 -129 32l-51 -73l-43 29l51 73c-56 47 -90 118 -90 200c0 149 113 262 262 262c47 0 91 -11 129 -32l51 73l43 -29zM102 251c0 -63 25 -119 66 -157l241 344c-29 15 -63 24 -99 24
c-118 0 -208 -91 -208 -211zM310 40c118 0 208 91 208 211c0 64 -25 119 -67 157l-240 -344c29 -15 63 -24 99 -24z" />
    <glyph glyph-name="oslashacute" unicode="&#x1ff;" horiz-adv-x="620" 
d="M438 736l-114 -160h-61l112 160h63zM482 452c56 -47 91 -119 91 -201c0 -148 -114 -261 -263 -261c-47 0 -91 11 -129 32l-51 -73l-43 29l51 73c-56 47 -90 118 -90 200c0 149 113 262 262 262c47 0 91 -11 129 -32l51 73l43 -29zM102 251c0 -63 25 -119 66 -157l241 344
c-29 15 -63 24 -99 24c-118 0 -208 -91 -208 -211zM310 40c118 0 208 91 208 211c0 64 -25 119 -67 157l-240 -344c29 -15 63 -24 99 -24z" />
    <glyph glyph-name="otilde" unicode="&#xf5;" horiz-adv-x="620" 
d="M135 635c18 47 52 79 101 79c75 0 97 -68 148 -68c29 0 48 20 60 51l41 -20c-18 -48 -52 -79 -101 -79c-75 0 -96 67 -148 67c-28 0 -48 -20 -60 -50zM48 251c0 149 113 262 262 262s263 -113 263 -262c0 -148 -114 -261 -263 -261s-262 113 -262 261zM103 251
c0 -119 90 -209 207 -209c118 0 207 90 207 209s-89 210 -207 210c-117 0 -207 -91 -207 -210z" />
    <glyph glyph-name="oe" unicode="&#x153;" horiz-adv-x="1080" 
d="M774 513c150 0 264 -117 257 -277h-460c8 -112 95 -196 209 -196c86 0 156 48 189 120l50 -18c-40 -90 -128 -152 -240 -152c-106 0 -193 58 -234 144c-42 -86 -129 -144 -235 -144c-149 0 -262 113 -262 261c0 149 113 262 262 262c106 0 193 -57 234 -144
c41 87 126 144 230 144zM774 462c-104 0 -186 -75 -201 -178h402c-13 100 -94 178 -201 178zM310 42c118 0 207 90 207 209s-89 210 -207 210c-117 0 -207 -91 -207 -210s90 -209 207 -209z" />
    <glyph glyph-name="p" unicode="p" horiz-adv-x="639" 
d="M334 513c147 0 258 -113 258 -262c0 -148 -111 -261 -258 -261c-91 0 -167 43 -211 111v-301h-55v703h55v-101c44 68 120 111 211 111zM329 42c118 0 207 90 207 209s-89 210 -207 210c-117 0 -206 -91 -206 -210s89 -209 206 -209z" />
    <glyph glyph-name="thorn" unicode="&#xfe;" horiz-adv-x="639" 
d="M334 513c147 0 258 -113 258 -262c0 -148 -111 -261 -258 -261c-91 0 -167 43 -211 111v-301h-55v940h55v-338c44 68 120 111 211 111zM329 42c118 0 207 90 207 209s-89 210 -207 210c-117 0 -206 -91 -206 -210s89 -209 206 -209z" />
    <glyph glyph-name="q" unicode="q" horiz-adv-x="639" 
d="M517 503h55v-703h-55v301c-44 -68 -120 -111 -211 -111c-147 0 -258 113 -258 261c0 149 111 262 258 262c91 0 167 -43 211 -111v101zM310 42c118 0 207 90 207 209s-89 210 -207 210c-117 0 -207 -91 -207 -210s90 -209 207 -209z" />
    <glyph glyph-name="r" unicode="r" horiz-adv-x="353" 
d="M123 418c42 65 117 104 210 92v-54c-115 20 -210 -54 -210 -167v-289h-55v503h55v-85z" />
    <glyph glyph-name="racute" unicode="&#x155;" horiz-adv-x="353" 
d="M304 736l-114 -160h-61l112 160h63zM123 418c42 65 117 104 210 92v-54c-115 20 -210 -54 -210 -167v-289h-55v503h55v-85z" />
    <glyph glyph-name="rcaron" unicode="&#x159;" horiz-adv-x="353" 
d="M208 576h-64l-113 160h60l86 -121l85 121h59zM123 418c42 65 117 104 210 92v-54c-115 20 -210 -54 -210 -167v-289h-55v503h55v-85z" />
    <glyph glyph-name="uni0157" unicode="&#x157;" horiz-adv-x="353" 
d="M123 418c42 65 117 104 210 92v-54c-115 20 -210 -54 -210 -167v-289h-55v503h55v-85zM48 -210l37 149h56l-44 -149h-49z" />
    <glyph glyph-name="s" unicode="s" horiz-adv-x="475" 
d="M93 139c12 -63 63 -100 145 -100c83 0 144 38 144 94c0 152 -329 47 -329 238c0 83 75 142 185 142c107 0 174 -55 190 -138l-56 -12c-12 63 -58 101 -134 101s-130 -36 -130 -91c0 -140 330 -37 330 -238c0 -86 -85 -145 -200 -145c-113 0 -185 55 -200 138z" />
    <glyph glyph-name="sacute" unicode="&#x15b;" horiz-adv-x="475" 
d="M190 576l112 160h63l-114 -160h-61zM93 139c12 -63 63 -100 145 -100c83 0 144 38 144 94c0 152 -329 47 -329 238c0 83 75 142 185 142c107 0 174 -55 190 -138l-56 -12c-12 63 -58 101 -134 101s-130 -36 -130 -91c0 -140 330 -37 330 -238c0 -86 -85 -145 -200 -145
c-113 0 -185 55 -200 138z" />
    <glyph glyph-name="scaron" unicode="&#x161;" horiz-adv-x="475" 
d="M269 576h-64l-113 160h60l86 -121l85 121h59zM108 373c0 -140 330 -37 330 -238c0 -86 -85 -145 -200 -145c-113 0 -185 55 -200 138l55 11c12 -63 63 -100 145 -100c83 0 144 38 144 94c0 152 -329 47 -329 238c0 83 75 142 185 142c107 0 174 -55 190 -138l-56 -12
c-12 63 -58 101 -134 101s-130 -36 -130 -91z" />
    <glyph glyph-name="scedilla" unicode="&#x15f;" horiz-adv-x="475" 
d="M438 135c0 -74 -63 -128 -155 -142c29 -28 43 -63 43 -96c0 -61 -48 -107 -128 -107c-15 0 -31 1 -50 6l3 49c15 -3 29 -5 42 -5c53 0 79 28 79 63c0 28 -18 62 -53 88c-102 5 -167 59 -181 137l55 11c12 -63 63 -100 145 -100c83 0 144 38 144 94
c0 152 -329 47 -329 238c0 83 75 142 185 142c107 0 174 -55 190 -138l-56 -12c-12 63 -58 101 -134 101s-130 -36 -130 -91c0 -140 330 -37 330 -238z" />
    <glyph glyph-name="scircumflex" unicode="&#x15d;" horiz-adv-x="475" 
d="M238 696l-86 -120h-60l113 160h64l113 -160h-59zM108 373c0 -140 330 -37 330 -238c0 -86 -85 -145 -200 -145c-113 0 -185 55 -200 138l55 11c12 -63 63 -100 145 -100c83 0 144 38 144 94c0 152 -329 47 -329 238c0 83 75 142 185 142c107 0 174 -55 190 -138l-56 -12
c-12 63 -58 101 -134 101s-130 -36 -130 -91z" />
    <glyph glyph-name="uni0219" unicode="&#x219;" horiz-adv-x="475" 
d="M93 139c12 -63 63 -100 145 -100c83 0 144 38 144 94c0 152 -329 47 -329 238c0 83 75 142 185 142c107 0 174 -55 190 -138l-56 -12c-12 63 -58 101 -134 101s-130 -36 -130 -91c0 -140 330 -37 330 -238c0 -86 -85 -145 -200 -145c-113 0 -185 55 -200 138zM191 -210
l37 149h56l-44 -149h-49z" />
    <glyph glyph-name="germandbls" unicode="&#xdf;" horiz-adv-x="586" 
d="M398 402c83 -27 151 -92 151 -197c0 -133 -101 -215 -227 -215c-42 0 -88 9 -124 25l13 50c32 -15 71 -23 108 -23c98 0 175 63 175 164c0 96 -76 164 -185 164h-53v51h30c93 0 163 60 163 138c0 79 -66 140 -160 140c-92 0 -166 -57 -166 -166v-533h-55v532
c0 136 96 218 222 218c120 0 214 -80 214 -189c0 -73 -43 -129 -106 -159z" />
    <glyph glyph-name="t" unicode="t" horiz-adv-x="408" 
d="M28 452v51h117v190l55 17v-207h160v-51h-160v-287c0 -82 31 -114 113 -114h47v-51h-47c-115 0 -168 53 -168 166v286h-117z" />
    <glyph glyph-name="tbar" unicode="&#x167;" horiz-adv-x="408" 
d="M360 452h-160v-140h144v-49h-144v-98c0 -82 31 -114 113 -114h47v-51h-47c-115 0 -168 53 -168 166v97h-104v49h104v140h-117v51h117v190l55 17v-207h160v-51z" />
    <glyph glyph-name="tcaron" unicode="&#x165;" horiz-adv-x="423" 
d="M258 575l36 186h55l-43 -186h-48zM28 452v51h117v190l55 17v-207h160v-51h-160v-287c0 -82 31 -114 113 -114h47v-51h-47c-115 0 -168 53 -168 166v286h-117z" />
    <glyph glyph-name="uni0163" unicode="&#x163;" horiz-adv-x="445" 
d="M360 452h-160v-287c0 -82 31 -114 113 -114h47v-51h-47c-13 0 -26 1 -37 2c33 -33 49 -70 49 -105c0 -61 -47 -107 -128 -107c-15 0 -31 1 -50 6l3 49c15 -3 30 -5 42 -5c53 0 78 28 78 63c0 31 -21 72 -74 129c-35 27 -51 71 -51 134v286h-117v51h117v190l55 17v-207
h160v-51z" />
    <glyph glyph-name="uni021B" unicode="&#x21b;" horiz-adv-x="408" 
d="M28 452v51h117v190l55 17v-207h160v-51h-160v-287c0 -82 31 -114 113 -114h47v-51h-47c-115 0 -168 53 -168 166v286h-117zM198 -210l37 149h56l-44 -149h-49z" />
    <glyph glyph-name="u" unicode="u" horiz-adv-x="559" 
d="M63 503h55v-299c0 -97 70 -162 161 -162c92 0 162 65 162 162v299h55v-299c0 -127 -94 -214 -217 -214s-216 87 -216 214v299z" />
    <glyph glyph-name="uacute" unicode="&#xfa;" horiz-adv-x="559" 
d="M232 576l112 160h63l-114 -160h-61zM63 503h55v-299c0 -97 70 -162 161 -162c92 0 162 65 162 162v299h55v-299c0 -127 -94 -214 -217 -214s-216 87 -216 214v299z" />
    <glyph glyph-name="ubreve" unicode="&#x16d;" horiz-adv-x="559" 
d="M190 731c0 -63 36 -104 90 -104c55 0 89 41 89 104h50c0 -92 -57 -152 -139 -152c-83 0 -140 60 -140 152h50zM63 503h55v-299c0 -97 70 -162 161 -162c92 0 162 65 162 162v299h55v-299c0 -127 -94 -214 -217 -214s-216 87 -216 214v299z" />
    <glyph glyph-name="ucircumflex" unicode="&#xfb;" horiz-adv-x="559" 
d="M280 696l-86 -120h-60l113 160h64l113 -160h-59zM441 503h55v-299c0 -127 -94 -214 -217 -214s-216 87 -216 214v299h55v-299c0 -97 70 -162 161 -162c92 0 162 65 162 162v299z" />
    <glyph glyph-name="udieresis" unicode="&#xfc;" horiz-adv-x="559" 
d="M139 656c0 21 17 37 38 37s37 -16 37 -37s-16 -38 -37 -38s-38 17 -38 38zM344 656c0 21 17 37 38 37s37 -16 37 -37s-16 -38 -37 -38s-38 17 -38 38zM63 503h55v-299c0 -97 70 -162 161 -162c92 0 162 65 162 162v299h55v-299c0 -127 -94 -214 -217 -214
s-216 87 -216 214v299z" />
    <glyph glyph-name="uni1EE5" unicode="&#x1ee5;" horiz-adv-x="559" 
d="M63 503h55v-299c0 -97 70 -162 161 -162c92 0 162 65 162 162v299h55v-299c0 -127 -94 -214 -217 -214s-216 87 -216 214v299zM241 -153c0 21 17 38 38 38c22 0 38 -17 38 -38s-16 -38 -38 -38c-21 0 -38 17 -38 38z" />
    <glyph glyph-name="ugrave" unicode="&#xf9;" horiz-adv-x="559" 
d="M266 576l-114 160h63l112 -160h-61zM63 503h55v-299c0 -97 70 -162 161 -162c92 0 162 65 162 162v299h55v-299c0 -127 -94 -214 -217 -214s-216 87 -216 214v299z" />
    <glyph glyph-name="uni1EE7" unicode="&#x1ee7;" horiz-adv-x="559" 
d="M261 587c49 14 74 40 74 71c0 32 -24 56 -56 56c-33 0 -56 -25 -55 -58h-48c0 58 44 100 103 100s103 -42 103 -98c0 -55 -45 -93 -103 -109zM63 503h55v-299c0 -97 70 -162 161 -162c92 0 162 65 162 162v299h55v-299c0 -127 -94 -214 -217 -214s-216 87 -216 214v299z
" />
    <glyph glyph-name="uhorn" unicode="&#x1b0;" horiz-adv-x="626" 
d="M629 579c0 -71 -49 -116 -133 -124v-251c0 -127 -94 -214 -217 -214s-216 87 -216 214v299h55v-299c0 -97 70 -162 161 -162c92 0 162 65 162 162v299h28c76 0 106 33 106 78c0 20 -5 44 -16 72h54c9 -21 16 -47 16 -74z" />
    <glyph glyph-name="uni1EE9" unicode="&#x1ee9;" horiz-adv-x="626" 
d="M407 736l-114 -160h-61l112 160h63zM629 579c0 -71 -49 -116 -133 -124v-251c0 -127 -94 -214 -217 -214s-216 87 -216 214v299h55v-299c0 -97 70 -162 161 -162c92 0 162 65 162 162v299h28c76 0 106 33 106 78c0 20 -5 44 -16 72h54c9 -21 16 -47 16 -74z" />
    <glyph glyph-name="uni1EF1" unicode="&#x1ef1;" horiz-adv-x="626" 
d="M629 579c0 -71 -49 -116 -133 -124v-251c0 -127 -94 -214 -217 -214s-216 87 -216 214v299h55v-299c0 -97 70 -162 161 -162c92 0 162 65 162 162v299h28c76 0 106 33 106 78c0 20 -5 44 -16 72h54c9 -21 16 -47 16 -74zM279 -115c22 0 38 -17 38 -38s-16 -38 -38 -38
c-21 0 -38 17 -38 38s17 38 38 38z" />
    <glyph glyph-name="uni1EEB" unicode="&#x1eeb;" horiz-adv-x="626" 
d="M327 576h-61l-114 160h63zM629 579c0 -71 -49 -116 -133 -124v-251c0 -127 -94 -214 -217 -214s-216 87 -216 214v299h55v-299c0 -97 70 -162 161 -162c92 0 162 65 162 162v299h28c76 0 106 33 106 78c0 20 -5 44 -16 72h54c9 -21 16 -47 16 -74z" />
    <glyph glyph-name="uni1EED" unicode="&#x1eed;" horiz-adv-x="626" 
d="M279 714c-33 0 -56 -25 -55 -58h-48c0 58 44 100 103 100s103 -42 103 -98c0 -55 -45 -93 -103 -109l-18 38c49 14 74 40 74 71c0 32 -24 56 -56 56zM629 579c0 -71 -49 -116 -133 -124v-251c0 -127 -94 -214 -217 -214s-216 87 -216 214v299h55v-299
c0 -97 70 -162 161 -162c92 0 162 65 162 162v299h28c76 0 106 33 106 78c0 20 -5 44 -16 72h54c9 -21 16 -47 16 -74z" />
    <glyph glyph-name="uni1EEF" unicode="&#x1eef;" horiz-adv-x="626" 
d="M205 665c-28 0 -48 -20 -60 -50l-41 20c18 47 52 79 101 79c75 0 97 -68 148 -68c29 0 48 20 60 51l41 -20c-18 -48 -52 -79 -101 -79c-75 0 -96 67 -148 67zM629 579c0 -71 -49 -116 -133 -124v-251c0 -127 -94 -214 -217 -214s-216 87 -216 214v299h55v-299
c0 -97 70 -162 161 -162c92 0 162 65 162 162v299h28c76 0 106 33 106 78c0 20 -5 44 -16 72h54c9 -21 16 -47 16 -74z" />
    <glyph glyph-name="uhungarumlaut" unicode="&#x171;" horiz-adv-x="559" 
d="M152 576l112 160h61l-115 -160h-58zM313 576l111 160h61l-114 -160h-58zM63 503h55v-299c0 -97 70 -162 161 -162c92 0 162 65 162 162v299h55v-299c0 -127 -94 -214 -217 -214s-216 87 -216 214v299z" />
    <glyph glyph-name="umacron" unicode="&#x16b;" horiz-adv-x="559" 
d="M128 632v48h303v-48h-303zM63 503h55v-299c0 -97 70 -162 161 -162c92 0 162 65 162 162v299h55v-299c0 -127 -94 -214 -217 -214s-216 87 -216 214v299z" />
    <glyph glyph-name="uogonek" unicode="&#x173;" horiz-adv-x="559" 
d="M441 503h55v-299c0 -103 -61 -179 -150 -205c-42 -33 -61 -69 -61 -105c0 -30 21 -54 57 -54c23 0 37 3 59 13l2 -48c-21 -9 -46 -15 -69 -15c-70 0 -103 42 -103 93c0 41 17 77 46 107c-122 1 -214 88 -214 214v299h55v-299c0 -97 70 -162 161 -162c92 0 162 65 162 162
v299z" />
    <glyph glyph-name="uring" unicode="&#x16f;" horiz-adv-x="559" 
d="M177 656c0 55 44 98 102 98s102 -43 102 -98c0 -56 -44 -98 -102 -98s-102 42 -102 98zM222 656c0 -33 25 -57 57 -57s57 24 57 57c0 32 -25 56 -57 56s-57 -24 -57 -56zM63 503h55v-299c0 -97 70 -162 161 -162c92 0 162 65 162 162v299h55v-299
c0 -127 -94 -214 -217 -214s-216 87 -216 214v299z" />
    <glyph glyph-name="utilde" unicode="&#x169;" horiz-adv-x="559" 
d="M104 635c18 47 52 79 101 79c75 0 97 -68 148 -68c29 0 48 20 60 51l41 -20c-18 -48 -52 -79 -101 -79c-75 0 -96 67 -148 67c-28 0 -48 -20 -60 -50zM63 503h55v-299c0 -97 70 -162 161 -162c92 0 162 65 162 162v299h55v-299c0 -127 -94 -214 -217 -214
s-216 87 -216 214v299z" />
    <glyph glyph-name="v" unicode="v" horiz-adv-x="511" 
d="M447 503h57l-217 -503h-63l-216 503h60l189 -447z" />
    <glyph glyph-name="w" unicode="w" horiz-adv-x="845" 
d="M771 503h56l-185 -503h-62l-158 425l-157 -425h-62l-185 503h59l159 -448l159 448h57l160 -449z" />
    <glyph glyph-name="wacute" unicode="&#x1e83;" horiz-adv-x="845" 
d="M550 736l-114 -160h-61l112 160h63zM771 503h56l-185 -503h-62l-158 425l-157 -425h-62l-185 503h59l159 -448l159 448h57l160 -449z" />
    <glyph glyph-name="wcircumflex" unicode="&#x175;" horiz-adv-x="845" 
d="M423 696l-86 -120h-60l113 160h64l113 -160h-59zM771 503h56l-185 -503h-62l-158 425l-157 -425h-62l-185 503h59l159 -448l159 448h57l160 -449z" />
    <glyph glyph-name="wdieresis" unicode="&#x1e85;" horiz-adv-x="845" 
d="M320 618c-21 0 -38 17 -38 38s17 37 38 37s37 -16 37 -37s-16 -38 -37 -38zM525 618c-21 0 -38 17 -38 38s17 37 38 37s37 -16 37 -37s-16 -38 -37 -38zM771 503h56l-185 -503h-62l-158 425l-157 -425h-62l-185 503h59l159 -448l159 448h57l160 -449z" />
    <glyph glyph-name="wgrave" unicode="&#x1e81;" horiz-adv-x="845" 
d="M470 576h-61l-114 160h63zM771 503h56l-185 -503h-62l-158 425l-157 -425h-62l-185 503h59l159 -448l159 448h57l160 -449z" />
    <glyph glyph-name="x" unicode="x" horiz-adv-x="496" 
d="M477 503l-195 -251l195 -252h-69l-161 211l-161 -211h-67l195 251l-195 252h70l160 -210l161 210h67z" />
    <glyph glyph-name="y" unicode="y" horiz-adv-x="511" 
d="M447 503h57l-306 -703h-57l85 196l-218 507h60l189 -448z" />
    <glyph glyph-name="yacute" unicode="&#xfd;" horiz-adv-x="511" 
d="M383 736l-114 -160h-61l112 160h63zM447 503h57l-306 -703h-57l85 196l-218 507h60l189 -448z" />
    <glyph glyph-name="ycircumflex" unicode="&#x177;" horiz-adv-x="511" 
d="M256 696l-86 -120h-60l113 160h64l113 -160h-59zM447 503h57l-306 -703h-57l85 196l-218 507h60l189 -448z" />
    <glyph glyph-name="ydieresis" unicode="&#xff;" horiz-adv-x="511" 
d="M154 618c-21 0 -38 17 -38 38s17 37 38 37s37 -16 37 -37s-16 -38 -37 -38zM359 618c-21 0 -38 17 -38 38s17 37 38 37s37 -16 37 -37s-16 -38 -37 -38zM447 503h57l-306 -703h-57l85 196l-218 507h60l189 -448z" />
    <glyph glyph-name="uni1EF5" unicode="&#x1ef5;" horiz-adv-x="511" 
d="M447 503h57l-306 -703h-57l85 196l-218 507h60l189 -448zM328 -115c22 0 38 -17 38 -38s-16 -38 -38 -38c-21 0 -38 17 -38 38s17 38 38 38z" />
    <glyph glyph-name="ygrave" unicode="&#x1ef3;" horiz-adv-x="511" 
d="M303 576h-61l-114 160h63zM447 503h57l-306 -703h-57l85 196l-218 507h60l189 -448z" />
    <glyph glyph-name="uni1EF7" unicode="&#x1ef7;" horiz-adv-x="511" 
d="M255 714c-33 0 -56 -25 -55 -58h-48c0 58 44 100 103 100s103 -42 103 -98c0 -55 -45 -93 -103 -109l-18 38c49 14 74 40 74 71c0 32 -24 56 -56 56zM447 503h57l-306 -703h-57l85 196l-218 507h60l189 -448z" />
    <glyph glyph-name="uni0233" unicode="&#x233;" horiz-adv-x="511" 
d="M407 680v-48h-303v48h303zM447 503h57l-306 -703h-57l85 196l-218 507h60l189 -448z" />
    <glyph glyph-name="uni1EF9" unicode="&#x1ef9;" horiz-adv-x="511" 
d="M182 665c-28 0 -48 -20 -60 -50l-41 20c18 47 52 79 101 79c75 0 97 -68 148 -68c29 0 48 20 60 51l41 -20c-18 -48 -52 -79 -101 -79c-75 0 -96 67 -148 67zM447 503h57l-306 -703h-57l85 196l-218 507h60l189 -448z" />
    <glyph glyph-name="z" unicode="z" horiz-adv-x="514" 
d="M464 503v-48l-346 -404h346v-51h-414v48l346 404h-346v51h414z" />
    <glyph glyph-name="zacute" unicode="&#x17a;" horiz-adv-x="514" 
d="M384 736l-114 -160h-61l112 160h63zM464 503v-48l-346 -404h346v-51h-414v48l346 404h-346v51h414z" />
    <glyph glyph-name="zcaron" unicode="&#x17e;" horiz-adv-x="514" 
d="M289 576h-64l-113 160h60l86 -121l85 121h59zM464 503v-48l-346 -404h346v-51h-414v48l346 404h-346v51h414z" />
    <glyph glyph-name="zdotaccent" unicode="&#x17c;" horiz-adv-x="514" 
d="M257 618c-21 0 -38 16 -38 38c0 21 17 38 38 38c22 0 38 -17 38 -38c0 -22 -16 -38 -38 -38zM464 503v-48l-346 -404h346v-51h-414v48l346 404h-346v51h414z" />
    <glyph glyph-name="uni1EAF.3" horiz-adv-x="639" 
d="M437 944l-113 -158h-60l111 158h62zM311 579c-83 0 -140 60 -140 152h50c0 -63 36 -104 90 -104c55 0 89 41 89 104h50c0 -92 -57 -152 -139 -152zM517 503h55v-503h-55v101c-44 -68 -120 -111 -211 -111c-147 0 -258 113 -258 261c0 149 111 262 258 262
c91 0 167 -43 211 -111v101zM310 42c118 0 207 90 207 209s-89 210 -207 210c-117 0 -207 -91 -207 -210s90 -209 207 -209z" />
    <glyph glyph-name="iacute_j.loclNLD" horiz-adv-x="400" 
d="M47 576l112 160h63l-114 -160h-61zM258 576l112 160h63l-114 -160h-61zM68 0v503h55v-503h-55zM179 -155c74 -3 99 22 99 93v565h55v-565c0 -86 -35 -150 -154 -144v51z" />
    <glyph glyph-name="a.ss03" horiz-adv-x="639" 
d="M517 503h55v-503h-55v101c-44 -68 -120 -111 -211 -111c-147 0 -258 113 -258 261c0 149 111 262 258 262c91 0 167 -43 211 -111v101zM310 42c118 0 207 90 207 209s-89 210 -207 210c-117 0 -207 -91 -207 -210s90 -209 207 -209z" />
    <glyph glyph-name="aacute.ss03" horiz-adv-x="639" 
d="M438 736l-114 -160h-61l112 160h63zM517 503h55v-503h-55v101c-44 -68 -120 -111 -211 -111c-147 0 -258 113 -258 261c0 149 111 262 258 262c91 0 167 -43 211 -111v101zM310 42c118 0 207 90 207 209s-89 210 -207 210c-117 0 -207 -91 -207 -210s90 -209 207 -209z
" />
    <glyph glyph-name="abreve.ss03" horiz-adv-x="639" 
d="M311 579c-83 0 -140 60 -140 152h50c0 -63 36 -104 90 -104c55 0 89 41 89 104h50c0 -92 -57 -152 -139 -152zM517 503h55v-503h-55v101c-44 -68 -120 -111 -211 -111c-147 0 -258 113 -258 261c0 149 111 262 258 262c91 0 167 -43 211 -111v101zM310 42
c118 0 207 90 207 209s-89 210 -207 210c-117 0 -207 -91 -207 -210s90 -209 207 -209z" />
    <glyph glyph-name="uni1EB7.ss03" horiz-adv-x="639" 
d="M311 579c-83 0 -140 60 -140 152h50c0 -63 36 -104 90 -104c55 0 89 41 89 104h50c0 -92 -57 -152 -139 -152zM517 503h55v-503h-55v101c-44 -68 -120 -111 -211 -111c-147 0 -258 113 -258 261c0 149 111 262 258 262c91 0 167 -43 211 -111v101zM310 42
c118 0 207 90 207 209s-89 210 -207 210c-117 0 -207 -91 -207 -210s90 -209 207 -209zM311 -115c22 0 38 -17 38 -38s-16 -38 -38 -38c-21 0 -38 17 -38 38s17 38 38 38z" />
    <glyph glyph-name="uni1EB1.ss03" horiz-adv-x="639" 
d="M358 786h-60l-113 158h63zM311 579c-83 0 -140 60 -140 152h50c0 -63 36 -104 90 -104c55 0 89 41 89 104h50c0 -92 -57 -152 -139 -152zM517 503h55v-503h-55v101c-44 -68 -120 -111 -211 -111c-147 0 -258 113 -258 261c0 149 111 262 258 262c91 0 167 -43 211 -111
v101zM310 42c118 0 207 90 207 209s-89 210 -207 210c-117 0 -207 -91 -207 -210s90 -209 207 -209z" />
    <glyph glyph-name="uni1EB3.ss03" horiz-adv-x="639" 
d="M311 902c-32 0 -55 -24 -55 -56h-47c0 57 44 99 102 99c59 0 102 -42 102 -97c0 -54 -44 -93 -102 -108l-18 38c49 13 73 39 73 70s-23 54 -55 54zM311 579c-83 0 -140 60 -140 152h50c0 -63 36 -104 90 -104c55 0 89 41 89 104h50c0 -92 -57 -152 -139 -152zM517 503h55
v-503h-55v101c-44 -68 -120 -111 -211 -111c-147 0 -258 113 -258 261c0 149 111 262 258 262c91 0 167 -43 211 -111v101zM310 42c118 0 207 90 207 209s-89 210 -207 210c-117 0 -207 -91 -207 -210s90 -209 207 -209z" />
    <glyph glyph-name="uni1EB5.ss03" horiz-adv-x="639" 
d="M238 874c-28 0 -48 -19 -59 -49l-41 19c18 47 52 78 100 78c74 0 95 -66 146 -66c28 0 48 20 59 50l41 -20c-18 -47 -52 -78 -100 -78c-74 0 -95 66 -146 66zM311 627c55 0 89 41 89 104h50c0 -92 -57 -152 -139 -152c-83 0 -140 60 -140 152h50c0 -63 36 -104 90 -104z
M517 503h55v-503h-55v101c-44 -68 -120 -111 -211 -111c-147 0 -258 113 -258 261c0 149 111 262 258 262c91 0 167 -43 211 -111v101zM310 42c118 0 207 90 207 209s-89 210 -207 210c-117 0 -207 -91 -207 -210s90 -209 207 -209z" />
    <glyph glyph-name="acircumflex.ss03" horiz-adv-x="639" 
d="M312 696l-86 -120h-60l113 160h64l113 -160h-59zM517 503h55v-503h-55v101c-44 -68 -120 -111 -211 -111c-147 0 -258 113 -258 261c0 149 111 262 258 262c91 0 167 -43 211 -111v101zM310 42c118 0 207 90 207 209s-89 210 -207 210c-117 0 -207 -91 -207 -210
s90 -209 207 -209z" />
    <glyph glyph-name="uni1EA5.ss03" horiz-adv-x="639" 
d="M594 916l-113 -158h-60l111 158h62zM312 696l-86 -120h-60l113 160h64l113 -160h-59zM517 503h55v-503h-55v101c-44 -68 -120 -111 -211 -111c-147 0 -258 113 -258 261c0 149 111 262 258 262c91 0 167 -43 211 -111v101zM310 42c118 0 207 90 207 209s-89 210 -207 210
c-117 0 -207 -91 -207 -210s90 -209 207 -209z" />
    <glyph glyph-name="uni1EAD.ss03" horiz-adv-x="639" 
d="M312 696l-86 -120h-60l113 160h64l113 -160h-59zM517 503h55v-503h-55v101c-44 -68 -120 -111 -211 -111c-147 0 -258 113 -258 261c0 149 111 262 258 262c91 0 167 -43 211 -111v101zM310 42c118 0 207 90 207 209s-89 210 -207 210c-117 0 -207 -91 -207 -210
s90 -209 207 -209zM311 -115c22 0 38 -17 38 -38s-16 -38 -38 -38c-21 0 -38 17 -38 38s17 38 38 38z" />
    <glyph glyph-name="uni1EA7.ss03" horiz-adv-x="639" 
d="M515 758h-60l-113 158h63zM312 696l-86 -120h-60l113 160h64l113 -160h-59zM517 503h55v-503h-55v101c-44 -68 -120 -111 -211 -111c-147 0 -258 113 -258 261c0 149 111 262 258 262c91 0 167 -43 211 -111v101zM310 42c118 0 207 90 207 209s-89 210 -207 210
c-117 0 -207 -91 -207 -210s90 -209 207 -209z" />
    <glyph glyph-name="uni1EA9.ss03" horiz-adv-x="639" 
d="M463 894c-33 0 -55 -24 -55 -56h-47c0 57 44 98 102 98s102 -41 102 -96s-45 -93 -102 -108l-18 38c49 13 73 39 73 70s-23 54 -55 54zM312 696l-86 -120h-60l113 160h64l113 -160h-59zM517 503h55v-503h-55v101c-44 -68 -120 -111 -211 -111c-147 0 -258 113 -258 261
c0 149 111 262 258 262c91 0 167 -43 211 -111v101zM310 42c118 0 207 90 207 209s-89 210 -207 210c-117 0 -207 -91 -207 -210s90 -209 207 -209z" />
    <glyph glyph-name="uni1EAB.ss03" horiz-adv-x="639" 
d="M239 879c-29 0 -48 -20 -60 -50l-40 20c17 47 51 78 100 78c74 0 95 -67 145 -67c29 0 48 20 60 50l40 -20c-17 -46 -51 -78 -100 -78c-74 0 -95 67 -145 67zM279 736h64l113 -160h-59l-85 120l-86 -120h-60zM517 503h55v-503h-55v101c-44 -68 -120 -111 -211 -111
c-147 0 -258 113 -258 261c0 149 111 262 258 262c91 0 167 -43 211 -111v101zM310 42c118 0 207 90 207 209s-89 210 -207 210c-117 0 -207 -91 -207 -210s90 -209 207 -209z" />
    <glyph glyph-name="adieresis.ss03" horiz-adv-x="639" 
d="M209 618c-21 0 -38 17 -38 38s17 37 38 37s37 -16 37 -37s-16 -38 -37 -38zM414 618c-21 0 -38 17 -38 38s17 37 38 37s37 -16 37 -37s-16 -38 -37 -38zM517 503h55v-503h-55v101c-44 -68 -120 -111 -211 -111c-147 0 -258 113 -258 261c0 149 111 262 258 262
c91 0 167 -43 211 -111v101zM310 42c118 0 207 90 207 209s-89 210 -207 210c-117 0 -207 -91 -207 -210s90 -209 207 -209z" />
    <glyph glyph-name="uni1EA1.ss03" horiz-adv-x="639" 
d="M517 503h55v-503h-55v101c-44 -68 -120 -111 -211 -111c-147 0 -258 113 -258 261c0 149 111 262 258 262c91 0 167 -43 211 -111v101zM310 42c118 0 207 90 207 209s-89 210 -207 210c-117 0 -207 -91 -207 -210s90 -209 207 -209zM311 -115c22 0 38 -17 38 -38
s-16 -38 -38 -38c-21 0 -38 17 -38 38s17 38 38 38z" />
    <glyph glyph-name="agrave.ss03" horiz-adv-x="639" 
d="M358 576h-61l-114 160h63zM517 503h55v-503h-55v101c-44 -68 -120 -111 -211 -111c-147 0 -258 113 -258 261c0 149 111 262 258 262c91 0 167 -43 211 -111v101zM310 42c118 0 207 90 207 209s-89 210 -207 210c-117 0 -207 -91 -207 -210s90 -209 207 -209z" />
    <glyph glyph-name="uni1EA3.ss03" horiz-adv-x="639" 
d="M311 714c-33 0 -56 -25 -55 -58h-48c0 58 44 100 103 100s103 -42 103 -98c0 -55 -45 -93 -103 -109l-18 38c49 14 74 40 74 71c0 32 -24 56 -56 56zM517 503h55v-503h-55v101c-44 -68 -120 -111 -211 -111c-147 0 -258 113 -258 261c0 149 111 262 258 262
c91 0 167 -43 211 -111v101zM310 42c118 0 207 90 207 209s-89 210 -207 210c-117 0 -207 -91 -207 -210s90 -209 207 -209z" />
    <glyph glyph-name="amacron.ss03" horiz-adv-x="639" 
d="M463 680v-48h-303v48h303zM517 503h55v-503h-55v101c-44 -68 -120 -111 -211 -111c-147 0 -258 113 -258 261c0 149 111 262 258 262c91 0 167 -43 211 -111v101zM310 42c118 0 207 90 207 209s-89 210 -207 210c-117 0 -207 -91 -207 -210s90 -209 207 -209z" />
    <glyph glyph-name="aogonek.ss03" horiz-adv-x="639" 
d="M628 -195c-21 -9 -46 -15 -69 -15c-70 0 -103 42 -103 93c0 48 24 89 61 122v96c-44 -68 -120 -111 -211 -111c-147 0 -258 113 -258 261c0 149 111 262 258 262c91 0 167 -43 211 -111v101h55v-503c-43 -33 -62 -70 -62 -106c0 -30 21 -54 57 -54c23 0 37 3 59 13z
M310 42c118 0 207 90 207 209s-89 210 -207 210c-117 0 -207 -91 -207 -210s90 -209 207 -209z" />
    <glyph glyph-name="aring.ss03" horiz-adv-x="639" 
d="M311 558c-58 0 -102 42 -102 98c0 55 44 98 102 98s102 -43 102 -98c0 -56 -44 -98 -102 -98zM311 712c-32 0 -57 -24 -57 -56c0 -33 25 -57 57 -57s57 24 57 57c0 32 -25 56 -57 56zM517 503h55v-503h-55v101c-44 -68 -120 -111 -211 -111c-147 0 -258 113 -258 261
c0 149 111 262 258 262c91 0 167 -43 211 -111v101zM310 42c118 0 207 90 207 209s-89 210 -207 210c-117 0 -207 -91 -207 -210s90 -209 207 -209z" />
    <glyph glyph-name="atilde.ss03" horiz-adv-x="639" 
d="M237 665c-28 0 -48 -20 -60 -50l-41 20c18 47 52 79 101 79c75 0 97 -68 148 -68c29 0 48 20 60 51l41 -20c-18 -48 -52 -79 -101 -79c-75 0 -96 67 -148 67zM517 503h55v-503h-55v101c-44 -68 -120 -111 -211 -111c-147 0 -258 113 -258 261c0 149 111 262 258 262
c91 0 167 -43 211 -111v101zM310 42c118 0 207 90 207 209s-89 210 -207 210c-117 0 -207 -91 -207 -210s90 -209 207 -209z" />
    <glyph glyph-name="ae.ss03" horiz-adv-x="1079" 
d="M777 513c148 0 261 -117 254 -277h-459c8 -112 94 -196 208 -196c86 0 156 48 190 120l49 -18c-39 -90 -126 -152 -237 -152c-91 0 -167 43 -213 110v-100h-52v101c-44 -68 -120 -111 -211 -111c-147 0 -258 113 -258 261c0 149 111 262 258 262c91 0 167 -43 211 -111
v101h52v-99c45 67 120 109 208 109zM775 462c-105 0 -186 -75 -201 -178h402c-14 100 -95 178 -201 178zM310 42c118 0 207 90 207 209s-89 210 -207 210c-117 0 -207 -91 -207 -210s90 -209 207 -209z" />
    <glyph glyph-name="aeacute.ss03" horiz-adv-x="1079" 
d="M671 736l-114 -160h-61l112 160h63zM777 513c148 0 261 -117 254 -277h-459c8 -112 94 -196 208 -196c86 0 156 48 190 120l49 -18c-39 -90 -126 -152 -237 -152c-91 0 -167 43 -213 110v-100h-52v101c-44 -68 -120 -111 -211 -111c-147 0 -258 113 -258 261
c0 149 111 262 258 262c91 0 167 -43 211 -111v101h52v-99c45 67 120 109 208 109zM775 462c-105 0 -186 -75 -201 -178h402c-14 100 -95 178 -201 178zM310 42c118 0 207 90 207 209s-89 210 -207 210c-117 0 -207 -91 -207 -210s90 -209 207 -209z" />
    <glyph glyph-name="g.ss04" horiz-adv-x="580" 
d="M533 503v-51h-100c32 -27 50 -62 50 -106c0 -95 -89 -167 -209 -167c-18 0 -35 2 -52 5c-40 -37 -31 -94 36 -94h97c105 0 168 -46 168 -124c0 -102 -103 -176 -264 -176c-131 0 -204 55 -204 140c0 58 44 109 119 133c-40 32 -43 90 2 134c-67 28 -111 83 -111 149
c0 96 90 167 209 167c26 0 51 -3 74 -10h185zM274 228c90 0 154 52 154 118c0 67 -64 118 -154 118c-89 0 -154 -51 -154 -118c0 -66 65 -118 154 -118zM466 -39c0 49 -40 77 -117 77h-91c-96 -7 -145 -48 -145 -105c0 -58 51 -95 153 -95c125 0 200 51 200 123z" />
    <glyph glyph-name="uni01F5.ss04" horiz-adv-x="580" 
d="M402 736l-114 -160h-61l112 160h63zM533 503v-51h-100c32 -27 50 -62 50 -106c0 -95 -89 -167 -209 -167c-18 0 -35 2 -52 5c-40 -37 -31 -94 36 -94h97c105 0 168 -46 168 -124c0 -102 -103 -176 -264 -176c-131 0 -204 55 -204 140c0 58 44 109 119 133
c-40 32 -43 90 2 134c-67 28 -111 83 -111 149c0 96 90 167 209 167c26 0 51 -3 74 -10h185zM274 228c90 0 154 52 154 118c0 67 -64 118 -154 118c-89 0 -154 -51 -154 -118c0 -66 65 -118 154 -118zM466 -39c0 49 -40 77 -117 77h-91c-96 -7 -145 -48 -145 -105
c0 -58 51 -95 153 -95c125 0 200 51 200 123z" />
    <glyph glyph-name="gbreve.ss04" horiz-adv-x="580" 
d="M275 579c-83 0 -140 60 -140 152h50c0 -63 36 -104 90 -104c55 0 89 41 89 104h50c0 -92 -57 -152 -139 -152zM533 503v-51h-100c32 -27 50 -62 50 -106c0 -95 -89 -167 -209 -167c-18 0 -35 2 -52 5c-40 -37 -31 -94 36 -94h97c105 0 168 -46 168 -124
c0 -102 -103 -176 -264 -176c-131 0 -204 55 -204 140c0 58 44 109 119 133c-40 32 -43 90 2 134c-67 28 -111 83 -111 149c0 96 90 167 209 167c26 0 51 -3 74 -10h185zM274 228c90 0 154 52 154 118c0 67 -64 118 -154 118c-89 0 -154 -51 -154 -118
c0 -66 65 -118 154 -118zM466 -39c0 49 -40 77 -117 77h-91c-96 -7 -145 -48 -145 -105c0 -58 51 -95 153 -95c125 0 200 51 200 123z" />
    <glyph glyph-name="gcaron.ss04" horiz-adv-x="580" 
d="M306 576h-64l-113 160h60l86 -121l85 121h59zM533 503v-51h-100c32 -27 50 -62 50 -106c0 -95 -89 -167 -209 -167c-18 0 -35 2 -52 5c-40 -37 -31 -94 36 -94h97c105 0 168 -46 168 -124c0 -102 -103 -176 -264 -176c-131 0 -204 55 -204 140c0 58 44 109 119 133
c-40 32 -43 90 2 134c-67 28 -111 83 -111 149c0 96 90 167 209 167c26 0 51 -3 74 -10h185zM274 228c90 0 154 52 154 118c0 67 -64 118 -154 118c-89 0 -154 -51 -154 -118c0 -66 65 -118 154 -118zM466 -39c0 49 -40 77 -117 77h-91c-96 -7 -145 -48 -145 -105
c0 -58 51 -95 153 -95c125 0 200 51 200 123z" />
    <glyph glyph-name="gcircumflex.ss04" horiz-adv-x="580" 
d="M275 696l-86 -120h-60l113 160h64l113 -160h-59zM533 503v-51h-100c32 -27 50 -62 50 -106c0 -95 -89 -167 -209 -167c-18 0 -35 2 -52 5c-40 -37 -31 -94 36 -94h97c105 0 168 -46 168 -124c0 -102 -103 -176 -264 -176c-131 0 -204 55 -204 140c0 58 44 109 119 133
c-40 32 -43 90 2 134c-67 28 -111 83 -111 149c0 96 90 167 209 167c26 0 51 -3 74 -10h185zM274 228c90 0 154 52 154 118c0 67 -64 118 -154 118c-89 0 -154 -51 -154 -118c0 -66 65 -118 154 -118zM466 -39c0 49 -40 77 -117 77h-91c-96 -7 -145 -48 -145 -105
c0 -58 51 -95 153 -95c125 0 200 51 200 123z" />
    <glyph glyph-name="uni0123.ss04" horiz-adv-x="580" 
d="M321 740l-37 -149h-56l43 149h50zM533 503v-51h-100c32 -27 50 -62 50 -106c0 -95 -89 -167 -209 -167c-18 0 -35 2 -52 5c-40 -37 -31 -94 36 -94h97c105 0 168 -46 168 -124c0 -102 -103 -176 -264 -176c-131 0 -204 55 -204 140c0 58 44 109 119 133
c-40 32 -43 90 2 134c-67 28 -111 83 -111 149c0 96 90 167 209 167c26 0 51 -3 74 -10h185zM274 228c90 0 154 52 154 118c0 67 -64 118 -154 118c-89 0 -154 -51 -154 -118c0 -66 65 -118 154 -118zM466 -39c0 49 -40 77 -117 77h-91c-96 -7 -145 -48 -145 -105
c0 -58 51 -95 153 -95c125 0 200 51 200 123z" />
    <glyph glyph-name="gdotaccent.ss04" horiz-adv-x="580" 
d="M274 618c-21 0 -38 16 -38 38c0 21 17 38 38 38c22 0 38 -17 38 -38c0 -22 -16 -38 -38 -38zM533 503v-51h-100c32 -27 50 -62 50 -106c0 -95 -89 -167 -209 -167c-18 0 -35 2 -52 5c-40 -37 -31 -94 36 -94h97c105 0 168 -46 168 -124c0 -102 -103 -176 -264 -176
c-131 0 -204 55 -204 140c0 58 44 109 119 133c-40 32 -43 90 2 134c-67 28 -111 83 -111 149c0 96 90 167 209 167c26 0 51 -3 74 -10h185zM274 228c90 0 154 52 154 118c0 67 -64 118 -154 118c-89 0 -154 -51 -154 -118c0 -66 65 -118 154 -118zM466 -39
c0 49 -40 77 -117 77h-91c-96 -7 -145 -48 -145 -105c0 -58 51 -95 153 -95c125 0 200 51 200 123z" />
    <glyph glyph-name="y.ss05" horiz-adv-x="584" 
d="M461 503h55v-469c0 -149 -101 -244 -234 -244c-101 0 -179 62 -214 152l50 21c30 -76 90 -122 164 -122c107 0 179 77 179 193v52c-37 -57 -104 -94 -187 -94c-129 0 -211 87 -211 220v291h55v-287c0 -107 64 -172 162 -172c107 0 181 74 181 172v287z" />
    <glyph glyph-name="yacute.ss05" horiz-adv-x="584" 
d="M417 736l-114 -160h-61l112 160h63zM461 503h55v-469c0 -149 -101 -244 -234 -244c-101 0 -179 62 -214 152l50 21c30 -76 90 -122 164 -122c107 0 179 77 179 193v52c-37 -57 -104 -94 -187 -94c-129 0 -211 87 -211 220v291h55v-287c0 -107 64 -172 162 -172
c107 0 181 74 181 172v287z" />
    <glyph glyph-name="ycircumflex.ss05" horiz-adv-x="584" 
d="M290 696l-86 -120h-60l113 160h64l113 -160h-59zM461 503h55v-469c0 -149 -101 -244 -234 -244c-101 0 -179 62 -214 152l50 21c30 -76 90 -122 164 -122c107 0 179 77 179 193v52c-37 -57 -104 -94 -187 -94c-129 0 -211 87 -211 220v291h55v-287
c0 -107 64 -172 162 -172c107 0 181 74 181 172v287z" />
    <glyph glyph-name="ydieresis.ss05" horiz-adv-x="584" 
d="M187 618c-21 0 -38 17 -38 38s17 37 38 37s37 -16 37 -37s-16 -38 -37 -38zM392 618c-21 0 -38 17 -38 38s17 37 38 37s37 -16 37 -37s-16 -38 -37 -38zM461 503h55v-469c0 -149 -101 -244 -234 -244c-101 0 -179 62 -214 152l50 21c30 -76 90 -122 164 -122
c107 0 179 77 179 193v52c-37 -57 -104 -94 -187 -94c-129 0 -211 87 -211 220v291h55v-287c0 -107 64 -172 162 -172c107 0 181 74 181 172v287z" />
    <glyph glyph-name="uni1EF5.ss05" horiz-adv-x="584" 
d="M461 503h55v-469c0 -149 -101 -244 -234 -244c-101 0 -179 62 -214 152l50 21c30 -76 90 -122 164 -122c107 0 179 77 179 193v52c-37 -57 -104 -94 -187 -94c-129 0 -211 87 -211 220v291h55v-287c0 -107 64 -172 162 -172c107 0 181 74 181 172v287zM290 -221
c22 0 38 -17 38 -38s-16 -38 -38 -38c-21 0 -38 17 -38 38s17 38 38 38z" />
    <glyph glyph-name="ygrave.ss05" horiz-adv-x="584" 
d="M337 576h-61l-114 160h63zM461 503h55v-469c0 -149 -101 -244 -234 -244c-101 0 -179 62 -214 152l50 21c30 -76 90 -122 164 -122c107 0 179 77 179 193v52c-37 -57 -104 -94 -187 -94c-129 0 -211 87 -211 220v291h55v-287c0 -107 64 -172 162 -172
c107 0 181 74 181 172v287z" />
    <glyph glyph-name="uni1EF7.ss05" horiz-adv-x="584" 
d="M289 714c-33 0 -56 -25 -55 -58h-48c0 58 44 100 103 100s103 -42 103 -98c0 -55 -45 -93 -103 -109l-18 38c49 14 74 40 74 71c0 32 -24 56 -56 56zM461 503h55v-469c0 -149 -101 -244 -234 -244c-101 0 -179 62 -214 152l50 21c30 -76 90 -122 164 -122
c107 0 179 77 179 193v52c-37 -57 -104 -94 -187 -94c-129 0 -211 87 -211 220v291h55v-287c0 -107 64 -172 162 -172c107 0 181 74 181 172v287z" />
    <glyph glyph-name="uni1EF9.ss05" horiz-adv-x="584" 
d="M215 665c-28 0 -48 -20 -60 -50l-41 20c18 47 52 79 101 79c75 0 97 -68 148 -68c29 0 48 20 60 51l41 -20c-18 -48 -52 -79 -101 -79c-75 0 -96 67 -148 67zM461 503h55v-469c0 -149 -101 -244 -234 -244c-101 0 -179 62 -214 152l50 21c30 -76 90 -122 164 -122
c107 0 179 77 179 193v52c-37 -57 -104 -94 -187 -94c-129 0 -211 87 -211 220v291h55v-287c0 -107 64 -172 162 -172c107 0 181 74 181 172v287z" />
    <glyph glyph-name="f_b" horiz-adv-x="1060" 
d="M755 513c147 0 258 -113 258 -262c0 -148 -111 -261 -258 -261c-91 0 -167 43 -211 111v-101h-55v452h-289v-452h-55v452h-117v51h117v71c0 114 53 166 168 166h47v-51h-47c-82 0 -113 -32 -113 -114v-72h289v237h55v-338c44 68 120 111 211 111zM750 42
c118 0 207 90 207 209s-89 210 -207 210c-117 0 -206 -91 -206 -210s89 -209 206 -209z" />
    <glyph glyph-name="f_f_b" horiz-adv-x="1404" 
d="M1098 513c147 0 258 -113 258 -262c0 -148 -111 -261 -258 -261c-91 0 -167 43 -211 111v-101h-55v452h-288v-452h-55v452h-289v-452h-55v452h-117v51h117v71c0 114 53 166 168 166h47v-51h-47c-82 0 -113 -32 -113 -114v-72h289v71c0 114 52 166 167 166h48v-51h-48
c-82 0 -112 -32 -112 -114v-72h288v237h55v-338c44 68 120 111 211 111zM1094 42c117 0 207 90 207 209s-90 210 -207 210c-118 0 -207 -91 -207 -210s89 -209 207 -209z" />
    <glyph glyph-name="f_f_h" horiz-adv-x="1348" 
d="M1066 513c125 0 220 -95 220 -220v-293h-55v289c0 98 -75 172 -172 172c-98 0 -172 -74 -172 -172v-289h-55v452h-288v-452h-55v452h-289v-452h-55v452h-117v51h117v71c0 114 53 166 168 166h47v-51h-47c-82 0 -113 -32 -113 -114v-72h289v71c0 114 52 166 167 166h48
v-51h-48c-82 0 -112 -32 -112 -114v-72h288v237h55v-321c37 57 102 94 179 94z" />
    <glyph glyph-name="f_f_j" horiz-adv-x="955" 
d="M887 503v-565c0 -86 -35 -150 -153 -144v51c73 -3 98 22 98 93v514h-288v-452h-55v452h-289v-452h-55v452h-117v51h117v71c0 114 53 166 168 166h47v-51h-47c-82 0 -113 -32 -113 -114v-72h289v71c0 114 52 166 167 166h48v-51h-48c-82 0 -112 -32 -112 -114v-72h343z
M860 694c21 0 38 -17 38 -38c0 -22 -17 -38 -38 -38c-22 0 -39 16 -39 38c0 21 17 38 39 38z" />
    <glyph glyph-name="f_f_k" horiz-adv-x="1279" 
d="M1272 0h-73l-207 257l-105 -111v-146h-55v452h-288v-452h-55v452h-289v-452h-55v452h-117v51h117v71c0 114 53 166 168 166h47v-51h-47c-82 0 -113 -32 -113 -114v-72h289v71c0 114 52 166 167 166h48v-51h-48c-82 0 -112 -32 -112 -114v-72h288v237h55v-523l266 286h71
l-194 -206z" />
    <glyph glyph-name="f_f_t" horiz-adv-x="1095" 
d="M145 0v452h-117v51h117v71c0 114 53 166 168 166h47v-51h-47c-82 0 -113 -32 -113 -114v-72h289v71c0 114 52 166 167 166h48v-51h-48c-82 0 -112 -32 -112 -114v-72h288v190l55 17v-207h160v-51h-160v-287c0 -82 31 -114 113 -114h47v-51h-47c-115 0 -168 53 -168 166
v286h-288v-452h-55v452h-289v-452h-55z" />
    <glyph glyph-name="f_h" horiz-adv-x="1005" 
d="M722 513c126 0 220 -95 220 -220v-293h-55v289c0 98 -74 172 -172 172c-97 0 -171 -74 -171 -172v-289h-55v452h-289v-452h-55v452h-117v51h117v71c0 114 53 166 168 166h47v-51h-47c-82 0 -113 -32 -113 -114v-72h289v237h55v-320c38 56 101 93 178 93z" />
    <glyph glyph-name="f_hbar" horiz-adv-x="1005" 
d="M722 513c126 0 220 -95 220 -220v-293h-55v289c0 98 -74 172 -172 172c-97 0 -171 -74 -171 -172v-289h-55v452h-289v-452h-55v452h-117v51h117v71c0 114 53 166 168 166h44v-51h-44c-82 0 -113 -32 -113 -114v-72h289v79h-77v48h77v110h55v-110h171v-48h-171v-162
c38 56 101 93 178 93z" />
    <glyph glyph-name="f_iacute" horiz-adv-x="611" 
d="M544 503v-503h-55v452h-289v-452h-55v452h-117v51h117v71c0 114 53 166 168 166h47v-51h-47c-82 0 -113 -32 -113 -114v-72h344zM644 736l-115 -160h-60l111 160h64z" />
    <glyph glyph-name="f_imacron" horiz-adv-x="611" 
d="M544 503v-503h-55v452h-289v-452h-55v452h-117v51h117v71c0 114 53 166 168 166h43v-51h-43c-82 0 -113 -32 -113 -114v-72h344zM402 680h228v-48h-228v48z" />
    <glyph glyph-name="f_j" horiz-adv-x="611" 
d="M544 503v-565c0 -86 -35 -150 -154 -144v51c74 -3 99 22 99 93v514h-289v-452h-55v452h-117v51h117v71c0 114 53 166 168 166h47v-51h-47c-82 0 -113 -32 -113 -114v-72h344zM516 618c-21 0 -38 16 -38 38c0 21 17 38 38 38s38 -17 38 -38c0 -22 -17 -38 -38 -38z" />
    <glyph glyph-name="f_k" horiz-adv-x="936" 
d="M928 0h-72l-207 257l-105 -111v-146h-55v452h-289v-452h-55v452h-117v51h117v71c0 114 53 166 168 166h47v-51h-47c-82 0 -113 -32 -113 -114v-72h289v237h55v-522l265 285h72l-194 -206z" />
    <glyph glyph-name="f_lcaron" horiz-adv-x="611" 
d="M638 761h54l-43 -186h-48zM489 503v237h55v-740h-55v452h-289v-452h-55v452h-117v51h117v71c0 114 53 166 168 166h47v-51h-47c-82 0 -113 -32 -113 -114v-72h289z" />
    <glyph glyph-name="f_t" horiz-adv-x="734" 
d="M686 452h-160v-287c0 -82 31 -114 113 -114h47v-51h-47c-115 0 -168 53 -168 166v286h-271v-452h-55v452h-117v51h117v71c0 114 53 166 168 166h47v-51h-47c-82 0 -113 -32 -113 -114v-72h271v190l55 17v-207h160v-51z" />
    <glyph glyph-name="idieresis_idieresis" horiz-adv-x="380" 
d="M-24 656c0 21 16 38 38 38c21 0 37 -17 37 -38s-16 -38 -37 -38c-22 0 -38 17 -38 38zM153 656c0 21 16 38 37 38c22 0 38 -17 38 -38s-16 -38 -38 -38c-21 0 -37 17 -37 38zM329 656c0 21 17 38 38 38c22 0 38 -17 38 -38s-16 -38 -38 -38c-21 0 -38 17 -38 38zM68 0
v503h55v-503h-55zM258 0v503h55v-503h-55z" />
    <glyph glyph-name="t_t" horiz-adv-x="774" 
d="M28 452v51h117v190l55 17v-207h311v190l55 17v-207h160v-51h-160v-287c0 -82 31 -114 113 -114h47v-51h-47c-115 0 -168 53 -168 166v286h-311v-287c0 -82 31 -114 113 -114h47v-51h-47c-115 0 -168 53 -168 166v286h-117z" />
    <glyph glyph-name="tcaron_t" horiz-adv-x="774" 
d="M258 575l36 186h55l-43 -186h-48zM28 452v51h117v190l55 17v-207h311v190l55 17v-207h160v-51h-160v-287c0 -82 31 -114 113 -114h47v-51h-47c-115 0 -168 53 -168 166v286h-311v-287c0 -82 31 -114 113 -114h47v-51h-47c-115 0 -168 53 -168 166v286h-117z" />
    <glyph glyph-name="w_w_w" horiz-adv-x="1970" 
d="M1896 503h57l-186 -503h-62l-157 425l-157 -425h-63l-156 425l-156 -425h-62l-156 427l-156 -427h-62l-158 425l-157 -425h-62l-185 503h59l159 -448l159 448h57l160 -449l159 449h57l159 -448l158 448h57l160 -448l159 448h57l159 -448z" />
    <glyph glyph-name="ordfeminine" unicode="&#xaa;" horiz-adv-x="380" 
d="M192 707c76 0 135 -43 135 -121v-240h-51v61c-29 -41 -78 -68 -137 -68c-67 0 -111 38 -111 97c0 67 55 100 124 106l80 7c28 3 44 14 44 42c0 44 -35 72 -85 72c-47 0 -90 -22 -103 -78l-49 14c17 72 78 108 153 108zM149 383c73 0 127 58 127 121v20
c-10 -8 -25 -14 -49 -16l-75 -8c-43 -5 -73 -25 -73 -62c0 -33 27 -55 70 -55z" />
    <glyph glyph-name="ordmasculine" unicode="&#xba;" horiz-adv-x="445" 
d="M38 523c0 105 79 184 185 184c105 0 185 -79 185 -184c0 -104 -80 -184 -185 -184c-106 0 -185 80 -185 184zM90 523c0 -78 57 -137 133 -137c75 0 133 59 133 137s-58 138 -133 138c-76 0 -133 -60 -133 -138z" />
    <glyph glyph-name="ordfeminine.ss03" horiz-adv-x="464" 
d="M356 700h51v-354h-51v65c-31 -44 -81 -72 -140 -72c-102 0 -178 80 -178 184c-1 105 76 184 178 184c59 0 109 -27 140 -71v64zM223 386c75 0 133 59 133 137s-58 138 -133 138c-76 0 -133 -60 -133 -138s57 -137 133 -137z" />
    <glyph glyph-name="uni0410" unicode="&#x410;" horiz-adv-x="714" 
d="M636 0l-87 198h-385l-87 -198h-59l310 700h58l310 -700h-60zM187 250h339l-169 383z" />
    <glyph glyph-name="uni0411" unicode="&#x411;" horiz-adv-x="573" 
d="M68 0v700h420v-52h-364v-252h197c124 0 212 -87 212 -198c0 -112 -88 -198 -212 -198h-253zM124 52h197c92 0 155 63 155 146c0 82 -63 146 -155 146h-197v-292z" />
    <glyph glyph-name="uni0412" unicode="&#x412;" horiz-adv-x="615" 
d="M445 357c74 -27 121 -92 121 -171c0 -104 -82 -186 -197 -186h-301v700h271c115 0 197 -81 197 -185c0 -68 -35 -126 -91 -158zM123 649v-274h214c84 0 145 61 145 138c0 76 -61 136 -145 136h-214zM365 51c85 0 145 61 145 138c0 76 -60 136 -145 136h-242v-274h242z
" />
    <glyph glyph-name="uni0413" unicode="&#x413;" horiz-adv-x="496" 
d="M68 0v700h418v-52h-362v-648h-56z" />
    <glyph glyph-name="uni0403" unicode="&#x403;" horiz-adv-x="496" 
d="M206 749l151 151h71l-153 -151h-69zM68 0v700h418v-52h-362v-648h-56z" />
    <glyph glyph-name="uni0490" unicode="&#x490;" horiz-adv-x="496" 
d="M68 0v700h362v150h56v-202h-362v-648h-56z" />
    <glyph glyph-name="uni0414" unicode="&#x414;" horiz-adv-x="752" 
d="M645 52h88v-212h-56v160h-607v-160h-56v212h69c65 91 82 198 82 398v250h480v-648zM588 52v596h-368v-198c0 -197 -13 -306 -71 -398h439z" />
    <glyph glyph-name="uni0415" unicode="&#x415;" horiz-adv-x="535" 
d="M68 0v700h418v-52h-362v-272h352v-52h-352v-272h362v-52h-418z" />
    <glyph glyph-name="uni0400" unicode="&#x400;" horiz-adv-x="535" 
d="M269 749l-153 151h72l150 -151h-69zM68 0v700h418v-52h-362v-272h352v-52h-352v-272h362v-52h-418z" />
    <glyph glyph-name="uni0401" unicode="&#x401;" horiz-adv-x="535" 
d="M123 825c0 21 17 38 38 38s37 -17 37 -38s-16 -37 -37 -37s-38 16 -38 37zM337 825c0 21 16 38 37 38s38 -17 38 -38s-17 -37 -38 -37s-37 16 -37 37zM68 0v700h418v-52h-362v-272h352v-52h-352v-272h362v-52h-418z" />
    <glyph glyph-name="uni0416" unicode="&#x416;" horiz-adv-x="956" 
d="M695 354l233 -354h-68l-213 324h-141v-324h-56v324h-141l-215 -324h-65l232 351l-212 349h63l197 -324h141v324h56v-324h141l198 324h63z" />
    <glyph glyph-name="uni0417" unicode="&#x417;" horiz-adv-x="593" 
d="M402 351c83 -21 142 -87 142 -169c0 -124 -118 -192 -247 -192c-94 0 -194 35 -258 108l36 40c59 -66 146 -95 222 -95c111 0 190 58 190 142c0 95 -89 139 -218 139h-82v52h82c129 0 218 44 218 139c0 84 -79 142 -190 142c-76 0 -163 -29 -222 -95l-36 40
c64 74 164 108 258 108c129 0 247 -67 247 -192c0 -82 -59 -146 -142 -167z" />
    <glyph glyph-name="uni0418" unicode="&#x418;" horiz-adv-x="714" 
d="M591 700h55v-700h-56v612l-467 -612h-55v700h56v-611z" />
    <glyph glyph-name="uni0419" unicode="&#x419;" horiz-adv-x="714" 
d="M357 756c-91 0 -151 56 -160 144h52c7 -59 45 -99 108 -99s102 40 109 99h52c-9 -88 -69 -144 -161 -144zM591 700h55v-700h-56v612l-467 -612h-55v700h56v-611z" />
    <glyph glyph-name="uni040D" unicode="&#x40d;" horiz-adv-x="714" 
d="M428 749h-69l-153 151h72zM591 700h55v-700h-56v612l-467 -612h-55v700h56v-611z" />
    <glyph glyph-name="uni041A" unicode="&#x41a;" horiz-adv-x="630" 
d="M331 354l280 -354h-70l-258 324h-159v-324h-56v700h56v-324h159l245 324h63z" />
    <glyph glyph-name="uni040C" unicode="&#x40c;" horiz-adv-x="630" 
d="M466 900l-153 -151h-69l151 151h71zM331 354l280 -354h-70l-258 324h-159v-324h-56v700h56v-324h159l245 324h63z" />
    <glyph glyph-name="uni041B" unicode="&#x41b;" horiz-adv-x="715" 
d="M10 -6v52h7c85 0 141 41 141 304v350h490v-700h-57v648h-378v-298c0 -294 -72 -356 -197 -356h-6z" />
    <glyph glyph-name="uni041C" unicode="&#x41c;" horiz-adv-x="824" 
d="M754 0h-55v610l-263 -610h-51l-262 607v-607h-55v700h74l269 -624l270 624h73v-700z" />
    <glyph glyph-name="uni041D" unicode="&#x41d;" horiz-adv-x="711" 
d="M68 0v700h56v-324h464v324h56v-700h-56v324h-464v-324h-56z" />
    <glyph glyph-name="uni041E" unicode="&#x41e;" horiz-adv-x="818" 
d="M48 350c0 203 157 360 361 360s361 -157 361 -360s-157 -360 -361 -360s-361 157 -361 360zM105 350c0 -174 133 -307 304 -307s304 133 304 307s-133 307 -304 307s-304 -133 -304 -307z" />
    <glyph glyph-name="uni041F" unicode="&#x41f;" horiz-adv-x="711" 
d="M68 0v700h576v-700h-56v648h-464v-648h-56z" />
    <glyph glyph-name="uni0420" unicode="&#x420;" horiz-adv-x="553" 
d="M68 0v700h253c124 0 213 -87 213 -200s-89 -201 -213 -201h-197v-299h-56zM124 351h197c92 0 156 65 156 149s-64 148 -156 148h-197v-297z" />
    <glyph glyph-name="uni0421" unicode="&#x421;" horiz-adv-x="774" 
d="M48 350c0 203 157 360 361 360c152 0 268 -92 318 -202l-52 -22c-45 100 -145 171 -266 171c-171 0 -304 -133 -304 -307s133 -307 304 -307c121 0 221 71 266 172l52 -23c-50 -110 -166 -202 -318 -202c-204 0 -361 157 -361 360z" />
    <glyph glyph-name="uni0422" unicode="&#x422;" horiz-adv-x="565" 
d="M254 0v648h-244v52h545v-52h-244v-648h-57z" />
    <glyph glyph-name="uni0423" unicode="&#x423;" horiz-adv-x="609" 
d="M542 700h59l-392 -700h-60l125 224l-256 476h63l226 -419z" />
    <glyph glyph-name="uni040E" unicode="&#x40e;" horiz-adv-x="609" 
d="M304 756c-91 0 -151 56 -160 144h52c7 -59 45 -99 108 -99s102 40 109 99h52c-9 -88 -69 -144 -161 -144zM542 700h59l-392 -700h-60l125 224l-256 476h63l226 -419z" />
    <glyph glyph-name="uni0424" unicode="&#x424;" horiz-adv-x="840" 
d="M457 656c198 0 335 -128 335 -306s-137 -306 -335 -306h-9v-84h-56v84h-9c-198 0 -335 128 -335 306s137 306 335 306h9v84h56v-84h9zM392 96v508h-9c-165 0 -279 -105 -279 -254c0 -148 114 -254 279 -254h9zM457 96c165 0 279 106 279 254c0 149 -114 254 -279 254h-9
v-508h9z" />
    <glyph glyph-name="uni0425" unicode="&#x425;" horiz-adv-x="637" 
d="M620 700l-267 -349l267 -351h-70l-232 307l-232 -307h-68l266 349l-266 351h69l232 -305l233 305h68z" />
    <glyph glyph-name="uni0427" unicode="&#x427;" horiz-adv-x="641" 
d="M518 700h56v-700h-56v290c-60 -13 -138 -28 -209 -28c-194 0 -271 77 -271 247v191h56v-191c0 -141 60 -195 218 -195c66 0 145 14 206 28v358z" />
    <glyph glyph-name="uni0426" unicode="&#x426;" horiz-adv-x="751" 
d="M68 0v700h56v-648h464v648h56v-648h89v-212h-57v160h-608z" />
    <glyph glyph-name="uni0428" unicode="&#x428;" horiz-adv-x="944" 
d="M68 0v700h56v-648h320v648h56v-648h320v648h56v-700h-808z" />
    <glyph glyph-name="uni0429" unicode="&#x429;" horiz-adv-x="984" 
d="M68 0v700h56v-648h320v648h56v-648h320v648h56v-648h89v-212h-56v160h-841z" />
    <glyph glyph-name="uni040F" unicode="&#x40f;" horiz-adv-x="711" 
d="M68 0v700h56v-648h464v648h56v-700h-260v-160h-56v160h-260z" />
    <glyph glyph-name="uni042C" unicode="&#x42c;" horiz-adv-x="571" 
d="M68 0v700h56v-299h197c124 0 213 -88 213 -201s-89 -200 -213 -200h-253zM124 52h197c92 0 156 64 156 148s-64 149 -156 149h-197v-297z" />
    <glyph glyph-name="uni042A" unicode="&#x42a;" horiz-adv-x="687" 
d="M10 648v52h239v-299h187c125 0 213 -88 213 -201s-88 -200 -213 -200h-243v648h-183zM249 52h187c92 0 156 64 156 148s-64 149 -156 149h-187v-297z" />
    <glyph glyph-name="uni042B" unicode="&#x42b;" horiz-adv-x="715" 
d="M68 0v700h56v-299h187c124 0 213 -88 213 -201s-89 -200 -213 -200h-243zM591 0v700h57v-700h-57zM124 52h187c92 0 156 64 156 148s-64 149 -156 149h-187v-297z" />
    <glyph glyph-name="uni0409" unicode="&#x409;" horiz-adv-x="1075" 
d="M10 -6v52h7c85 0 141 41 141 304v350h480v-299h186c125 0 214 -88 214 -201s-89 -200 -214 -200h-243v648h-368v-298c0 -294 -72 -356 -197 -356h-6zM638 52h186c92 0 157 64 157 148s-65 149 -157 149h-186v-297z" />
    <glyph glyph-name="uni040A" unicode="&#x40a;" horiz-adv-x="1071" 
d="M68 0v700h56v-324h454v324h56v-316h187c124 0 213 -85 213 -192c0 -108 -89 -192 -213 -192h-243v324h-454v-324h-56zM634 52h187c92 0 156 61 156 139c0 79 -64 141 -156 141h-187v-280z" />
    <glyph glyph-name="uni0405" unicode="&#x405;" horiz-adv-x="602" 
d="M110 190c12 -94 86 -148 199 -148c108 0 183 56 183 135c0 214 -419 96 -419 351c0 103 94 182 226 182c133 0 224 -80 241 -188l-57 -12c-13 86 -81 149 -185 149c-98 0 -168 -54 -168 -129c0 -205 419 -83 419 -353c0 -111 -106 -187 -241 -187
c-139 0 -239 71 -255 188z" />
    <glyph glyph-name="uni0404" unicode="&#x404;" horiz-adv-x="774" 
d="M409 43c121 0 221 71 266 172l52 -23c-50 -110 -166 -202 -318 -202c-204 0 -361 157 -361 360s157 360 361 360c152 0 268 -92 318 -202l-52 -22c-45 100 -145 171 -266 171c-162 0 -290 -120 -303 -281h351v-52h-351c13 -161 141 -281 303 -281z" />
    <glyph glyph-name="uni042D" unicode="&#x42d;" horiz-adv-x="774" 
d="M365 710c204 0 362 -157 362 -360s-158 -360 -362 -360c-152 0 -268 92 -317 202l51 23c45 -101 145 -172 266 -172c163 0 291 120 304 281h-352v52h352c-13 161 -141 281 -304 281c-121 0 -221 -71 -266 -171l-51 22c49 110 165 202 317 202z" />
    <glyph glyph-name="uni0406" unicode="&#x406;" horiz-adv-x="191" 
d="M68 0v700h56v-700h-56z" />
    <glyph glyph-name="uni0407" unicode="&#x407;" horiz-adv-x="191" 
d="M-29 825c0 21 16 38 37 38s38 -17 38 -38s-17 -37 -38 -37s-37 16 -37 37zM146 825c0 21 16 38 37 38s38 -17 38 -38s-17 -37 -38 -37s-37 16 -37 37zM68 0v700h56v-700h-56z" />
    <glyph glyph-name="uni0408" unicode="&#x408;" horiz-adv-x="503" 
d="M91 179c7 -92 70 -136 149 -136c96 0 149 73 149 169v488h56v-488c0 -127 -76 -222 -206 -222c-110 0 -195 65 -204 182z" />
    <glyph glyph-name="uni040B" unicode="&#x40b;" horiz-adv-x="796" 
d="M493 461c138 0 240 -103 240 -242v-219h-56v216c0 111 -83 194 -193 194s-193 -82 -193 -194v-216h-57v648h-224v52h545v-52h-264v-293c41 64 113 106 202 106z" />
    <glyph glyph-name="uni042E" unicode="&#x42e;" horiz-adv-x="1050" 
d="M652 710c198 0 351 -157 351 -360s-153 -360 -351 -360c-189 0 -338 144 -350 334h-178v-324h-56v700h56v-324h178c12 190 161 334 350 334zM651 43c166 0 295 133 295 307s-129 307 -295 307c-165 0 -294 -133 -294 -307s129 -307 294 -307z" />
    <glyph glyph-name="uni042F" unicode="&#x42f;" horiz-adv-x="599" 
d="M531 700v-700h-56v310h-152l-218 -310h-67l218 310c-119 2 -203 87 -203 195c0 110 86 195 207 195h271zM475 362v286h-215c-88 0 -150 -62 -150 -142c0 -81 62 -144 150 -144h215z" />
    <glyph glyph-name="uni0402" unicode="&#x402;" horiz-adv-x="728" 
d="M463 424c132 0 226 -83 226 -218c0 -130 -86 -216 -209 -216c-39 0 -81 8 -113 24l12 52c32 -17 65 -24 97 -24c93 0 156 64 156 164c0 106 -70 166 -181 166c-47 0 -102 -12 -160 -34v-338h-57v648h-224v52h545v-52h-264v-256c59 19 110 32 172 32z" />
    <glyph glyph-name="uni0462" unicode="&#x462;" horiz-adv-x="633" 
d="M382 401c125 0 214 -88 214 -201s-89 -200 -214 -200h-253v541h-130v48h130v131h57v-131h170v-48h-170v-140h196zM382 52c93 0 157 64 157 148s-64 149 -157 149h-196v-297h196z" />
    <glyph glyph-name="uni0472" unicode="&#x472;" horiz-adv-x="818" 
d="M409 710c204 0 361 -157 361 -360s-157 -360 -361 -360s-361 157 -361 360s157 360 361 360zM409 657c-162 0 -289 -119 -303 -279c55 28 104 39 147 39c121 0 207 -81 323 -81c39 0 82 9 136 34c-9 164 -139 287 -303 287zM409 43c162 0 289 119 303 279
c-55 -28 -104 -39 -147 -39c-121 0 -208 81 -323 81c-39 0 -82 -9 -136 -34c9 -164 139 -287 303 -287z" />
    <glyph glyph-name="uni0474" unicode="&#x474;" horiz-adv-x="776" 
d="M572 614c33 79 89 125 196 74l-20 -47c-65 32 -98 20 -125 -46l-252 -595h-58l-295 700h60l265 -630z" />
    <glyph glyph-name="uni0492" unicode="&#x492;" horiz-adv-x="536" 
d="M526 648h-362v-276h202v-49h-202v-323h-56v323h-99v49h99v328h418v-52z" />
    <glyph glyph-name="uni0494" unicode="&#x494;" horiz-adv-x="600" 
d="M302 424c154 0 258 -123 258 -312c0 -196 -112 -322 -266 -322c-29 0 -62 4 -91 12l12 51c25 -7 52 -10 79 -10c123 0 209 104 209 268c0 160 -85 260 -207 260c-55 0 -115 -17 -172 -43v-328h-56v700h418v-52h-362v-266c57 25 121 42 178 42z" />
    <glyph glyph-name="uni0496" unicode="&#x496;" horiz-adv-x="1015" 
d="M894 52h102v-212h-56v160h-80l-213 324h-141v-324h-56v324h-141l-215 -324h-65l232 351l-212 349h63l197 -324h141v324h56v-324h141l198 324h63l-213 -346z" />
    <glyph glyph-name="uni0498" unicode="&#x498;" horiz-adv-x="593" 
d="M402 351c83 -21 142 -87 142 -169c0 -115 -102 -182 -220 -191v-151h-56v151c-85 7 -172 41 -229 107l36 40c59 -66 146 -95 222 -95c111 0 190 58 190 142c0 95 -89 139 -218 139h-82v52h82c129 0 218 44 218 139c0 84 -79 142 -190 142c-76 0 -163 -29 -222 -95l-36 40
c64 74 164 108 258 108c129 0 247 -67 247 -192c0 -82 -59 -146 -142 -167z" />
    <glyph glyph-name="uni049A" unicode="&#x49a;" horiz-adv-x="696" 
d="M570 52h107v-212h-56v160h-80l-258 324h-159v-324h-56v700h56v-324h159l245 324h63l-260 -346z" />
    <glyph glyph-name="uni049C" unicode="&#x49c;" horiz-adv-x="638" 
d="M339 354l280 -354h-70l-258 324h-45v-133h-48v133h-74v-324h-56v700h56v-324h74v133h48v-133h45l245 324h63z" />
    <glyph glyph-name="uni049E" unicode="&#x49e;" horiz-adv-x="630" 
d="M331 354l280 -354h-70l-258 324h-159v-324h-56v562h-89v48h89v90h56v-90h172v-48h-172v-186h159l245 324h63z" />
    <glyph glyph-name="uni04A0" unicode="&#x4a0;" horiz-adv-x="756" 
d="M457 354l280 -354h-70l-258 324h-160v-324h-56v648h-183v52h239v-324h160l244 324h64z" />
    <glyph glyph-name="uni04A2" unicode="&#x4a2;" horiz-adv-x="752" 
d="M644 52h89v-212h-56v160h-89v324h-464v-324h-56v700h56v-324h464v324h56v-648z" />
    <glyph glyph-name="uni04A4" unicode="&#x4a4;" horiz-adv-x="1016" 
d="M1006 700v-52h-362v-648h-56v324h-464v-324h-56v700h56v-324h464v324h418z" />
    <glyph glyph-name="uni04A6" unicode="&#x4a6;" horiz-adv-x="1100" 
d="M802 424c154 0 258 -123 258 -312c0 -196 -112 -322 -266 -322c-29 0 -62 4 -91 12l12 51c25 -7 52 -10 79 -10c123 0 209 104 209 268c0 160 -85 260 -207 260c-55 0 -115 -17 -172 -43v-328h-56v648h-444v-648h-56v700h556v-318c57 25 121 42 178 42z" />
    <glyph glyph-name="uni0524" unicode="&#x524;" horiz-adv-x="752" 
d="M644 52h89v-212h-56v160h-89v648h-464v-648h-56v700h576v-648z" />
    <glyph glyph-name="uni04A8" unicode="&#x4a8;" horiz-adv-x="901" 
d="M874 5c-38 -10 -77 -15 -125 -15c-63 0 -121 14 -172 40c-52 -26 -112 -40 -177 -40c-204 0 -352 148 -352 351c0 212 157 369 361 369v-53c-171 0 -304 -133 -304 -316c0 -173 124 -298 295 -298c44 0 85 7 122 21c-89 67 -144 173 -144 299c0 174 93 266 201 266
s201 -92 201 -266c0 -124 -56 -231 -148 -299c36 -14 75 -21 117 -21s77 5 117 13zM435 363c0 -119 56 -217 143 -272c89 55 145 153 145 272c0 127 -57 214 -144 214c-86 0 -144 -87 -144 -214z" />
    <glyph glyph-name="uni04AA" unicode="&#x4aa;" horiz-adv-x="774" 
d="M409 43c121 0 221 71 266 172l52 -23c-47 -103 -152 -190 -290 -201v-151h-56v151c-190 14 -333 165 -333 359c0 203 157 360 361 360c152 0 268 -92 318 -202l-52 -22c-45 100 -145 171 -266 171c-171 0 -304 -133 -304 -307s133 -307 304 -307z" />
    <glyph glyph-name="uni04AC" unicode="&#x4ac;" horiz-adv-x="565" 
d="M555 648h-244v-596h88v-212h-56v160h-89v648h-244v52h545v-52z" />
    <glyph glyph-name="uni04AE" unicode="&#x4ae;" horiz-adv-x="602" 
d="M329 243v-191h144v-52h-345v52h145v191l-265 457h66l228 -402l228 402h64z" />
    <glyph glyph-name="uni04B0" unicode="&#x4b0;" horiz-adv-x="602" 
d="M594 700l-256 -441h143v-48h-152v-159h144v-52h-345v52h145v159h-152v48h143l-256 441h66l228 -402l228 402h64z" />
    <glyph glyph-name="uni04B2" unicode="&#x4b2;" horiz-adv-x="706" 
d="M580 52h107v-212h-56v160h-81l-232 307l-232 -307h-68l266 349l-266 351h69l232 -305l233 305h68l-267 -349z" />
    <glyph glyph-name="uni04B4" unicode="&#x4b4;" horiz-adv-x="938" 
d="M254 0v648h-244v52h543v-52h-242v-596h463v648h57v-648h88v-212h-56v160h-609z" />
    <glyph glyph-name="uni04B6" unicode="&#x4b6;" horiz-adv-x="682" 
d="M574 52h89v-212h-56v160h-89v290c-60 -13 -138 -28 -209 -28c-194 0 -271 77 -271 247v191h56v-191c0 -141 60 -195 218 -195c66 0 145 14 206 28v358h56v-648z" />
    <glyph glyph-name="uni04B8" unicode="&#x4b8;" horiz-adv-x="641" 
d="M518 700h56v-700h-56v290c-53 -12 -121 -25 -185 -27v-122h-48v121c-176 7 -247 84 -247 247v191h56v-191c0 -133 53 -188 191 -194v144h48v-145c61 3 130 15 185 28v358z" />
    <glyph glyph-name="uni04BA" unicode="&#x4ba;" horiz-adv-x="629" 
d="M326 461c138 0 240 -103 240 -242v-219h-56v216c0 111 -83 194 -193 194s-193 -82 -193 -194v-216h-56v700h56v-345c41 64 114 106 202 106z" />
    <glyph glyph-name="uni0526" unicode="&#x526;" horiz-adv-x="674" 
d="M566 52h89v-212h-56v160h-89v216c0 111 -83 194 -193 194s-193 -82 -193 -194v-216h-56v700h56v-345c41 64 114 106 202 106c138 0 240 -103 240 -242v-167z" />
    <glyph glyph-name="uni04BC" unicode="&#x4bc;" horiz-adv-x="905" 
d="M496 710c198 0 365 -161 351 -383h-654c11 -163 140 -284 303 -284c122 0 221 71 267 172l51 -23c-50 -110 -166 -202 -318 -202c-195 0 -349 145 -360 337c-93 5 -146 51 -146 125c0 26 6 53 15 73h54c-11 -27 -16 -51 -16 -71c0 -42 26 -75 93 -79
c12 191 166 335 360 335zM496 657c-161 0 -289 -118 -303 -278h595c-8 152 -128 278 -292 278z" />
    <glyph glyph-name="uni04BE" unicode="&#x4be;" horiz-adv-x="905" 
d="M496 710c198 0 365 -161 351 -383h-654c11 -163 140 -284 303 -284c122 0 221 71 267 172l51 -23c-47 -103 -152 -190 -290 -201v-151h-56v151c-182 13 -322 154 -332 336c-93 5 -146 51 -146 125c0 26 6 53 15 73h54c-11 -27 -16 -51 -16 -71c0 -42 26 -75 93 -79
c12 191 166 335 360 335zM496 657c-161 0 -289 -118 -303 -278h595c-8 152 -128 278 -292 278z" />
    <glyph glyph-name="uni04C0" unicode="&#x4c0;" horiz-adv-x="191" 
d="M68 0v700h56v-700h-56z" />
    <glyph glyph-name="uni04C1" unicode="&#x4c1;" horiz-adv-x="956" 
d="M478 756c-91 0 -151 56 -160 144h52c7 -59 45 -99 108 -99s102 40 109 99h52c-9 -88 -69 -144 -161 -144zM695 354l233 -354h-68l-213 324h-141v-324h-56v324h-141l-215 -324h-65l232 351l-212 349h63l197 -324h141v324h56v-324h141l198 324h63z" />
    <glyph glyph-name="uni04C3" unicode="&#x4c3;" horiz-adv-x="620" 
d="M345 373c130 -19 215 -127 215 -285c0 -181 -112 -298 -266 -298c-29 0 -62 4 -91 12l12 51c25 -7 52 -10 79 -10c123 0 209 93 209 244c0 147 -85 237 -207 237h-172v-324h-56v700h56v-324h159l245 324h63z" />
    <glyph glyph-name="uni04C5" unicode="&#x4c5;" horiz-adv-x="755" 
d="M648 52h89l-71 -212h-57l55 160h-73v648h-378v-298c0 -294 -72 -356 -197 -356h-6v52h7c85 0 141 41 141 304v350h490v-648z" />
    <glyph glyph-name="uni04C7" unicode="&#x4c7;" horiz-adv-x="711" 
d="M588 700h56v-694c0 -112 -72 -216 -197 -216c-25 0 -52 3 -75 10l11 52c22 -6 42 -9 63 -9c94 0 142 82 142 163v318h-464v-324h-56v700h56v-324h464v324z" />
    <glyph glyph-name="uni04C9" unicode="&#x4c9;" horiz-adv-x="752" 
d="M644 52h90l-71 -212h-57l55 160h-73v324h-464v-324h-56v700h56v-324h464v324h56v-648z" />
    <glyph glyph-name="uni04CB" unicode="&#x4cb;" horiz-adv-x="641" 
d="M518 700h56v-700h-89v-160h-56v212h89v238c-60 -13 -138 -28 -209 -28c-194 0 -271 77 -271 247v191h56v-191c0 -141 60 -195 218 -195c66 0 145 14 206 28v358z" />
    <glyph glyph-name="uni04CD" unicode="&#x4cd;" horiz-adv-x="863" 
d="M754 52h91l-71 -212h-57l55 160h-73v610l-263 -610h-51l-262 607v-607h-55v700h74l269 -624l270 624h73v-648z" />
    <glyph glyph-name="uni04D0" unicode="&#x4d0;" horiz-adv-x="714" 
d="M357 756c-91 0 -151 56 -160 144h52c7 -59 45 -99 108 -99s102 40 109 99h52c-9 -88 -69 -144 -161 -144zM636 0l-87 198h-385l-87 -198h-59l310 700h58l310 -700h-60zM187 250h339l-169 383z" />
    <glyph glyph-name="uni04D2" unicode="&#x4d2;" horiz-adv-x="714" 
d="M251 788c-21 0 -38 16 -38 37s17 38 38 38s37 -17 37 -38s-16 -37 -37 -37zM464 788c-21 0 -37 16 -37 37s16 38 37 38s38 -17 38 -38s-17 -37 -38 -37zM636 0l-87 198h-385l-87 -198h-59l310 700h58l310 -700h-60zM187 250h339l-169 383z" />
    <glyph glyph-name="uni04D4" unicode="&#x4d4;" horiz-adv-x="965" 
d="M916 648h-362v-272h352v-52h-352v-272h362v-52h-418v198h-302l-132 -198h-67l471 700h448v-52zM231 250h267v400z" />
    <glyph glyph-name="uni04D6" unicode="&#x4d6;" horiz-adv-x="535" 
d="M159 900c7 -59 45 -99 108 -99s102 40 109 99h52c-9 -88 -69 -144 -161 -144c-91 0 -151 56 -160 144h52zM68 0v700h418v-52h-362v-272h352v-52h-352v-272h362v-52h-418z" />
    <glyph glyph-name="uni04D8" unicode="&#x4d8;" horiz-adv-x="818" 
d="M409 710c204 0 361 -157 361 -360s-157 -360 -361 -360c-198 0 -365 161 -351 383h654c-11 163 -140 284 -303 284c-121 0 -221 -71 -267 -171l-51 22c50 110 166 202 318 202zM409 43c161 0 289 118 303 278h-595c8 -151 128 -278 292 -278z" />
    <glyph glyph-name="uni04DA" unicode="&#x4da;" horiz-adv-x="818" 
d="M303 788c-21 0 -38 16 -38 37s17 38 38 38s37 -17 37 -38s-16 -37 -37 -37zM516 788c-21 0 -37 16 -37 37s16 38 37 38s38 -17 38 -38s-17 -37 -38 -37zM409 710c204 0 361 -157 361 -360s-157 -360 -361 -360c-198 0 -365 161 -351 383h654c-11 163 -140 284 -303 284
c-121 0 -221 -71 -267 -171l-51 22c50 110 166 202 318 202zM409 43c161 0 289 118 303 278h-595c8 -151 128 -278 292 -278z" />
    <glyph glyph-name="uni04DC" unicode="&#x4dc;" horiz-adv-x="956" 
d="M372 788c-21 0 -38 16 -38 37s17 38 38 38s37 -17 37 -38s-16 -37 -37 -37zM585 788c-21 0 -37 16 -37 37s16 38 37 38s38 -17 38 -38s-17 -37 -38 -37zM695 354l233 -354h-68l-213 324h-141v-324h-56v324h-141l-215 -324h-65l232 351l-212 349h63l197 -324h141v324h56
v-324h141l198 324h63z" />
    <glyph glyph-name="uni04DE" unicode="&#x4de;" horiz-adv-x="593" 
d="M190 788c-21 0 -38 16 -38 37s17 38 38 38s37 -17 37 -38s-16 -37 -37 -37zM403 788c-21 0 -37 16 -37 37s16 38 37 38s38 -17 38 -38s-17 -37 -38 -37zM402 351c83 -21 142 -87 142 -169c0 -124 -118 -192 -247 -192c-94 0 -194 35 -258 108l36 40
c59 -66 146 -95 222 -95c111 0 190 58 190 142c0 95 -89 139 -218 139h-82v52h82c129 0 218 44 218 139c0 84 -79 142 -190 142c-76 0 -163 -29 -222 -95l-36 40c64 74 164 108 258 108c129 0 247 -67 247 -192c0 -82 -59 -146 -142 -167z" />
    <glyph glyph-name="uni04E0" unicode="&#x4e0;" horiz-adv-x="593" 
d="M285 393c164 -7 259 -78 259 -199c0 -126 -118 -204 -247 -204c-94 0 -194 35 -258 108l36 40c59 -66 146 -95 222 -95c111 0 190 67 190 151c0 104 -89 149 -218 149h-54v48l246 257h-377v52h448v-48z" />
    <glyph glyph-name="uni04E2" unicode="&#x4e2;" horiz-adv-x="714" 
d="M514 849v-48h-313v48h313zM591 700h55v-700h-56v612l-467 -612h-55v700h56v-611z" />
    <glyph glyph-name="uni04E4" unicode="&#x4e4;" horiz-adv-x="714" 
d="M251 788c-21 0 -38 16 -38 37s17 38 38 38s37 -17 37 -38s-16 -37 -37 -37zM464 788c-21 0 -37 16 -37 37s16 38 37 38s38 -17 38 -38s-17 -37 -38 -37zM591 700h55v-700h-56v612l-467 -612h-55v700h56v-611z" />
    <glyph glyph-name="uni04E6" unicode="&#x4e6;" horiz-adv-x="818" 
d="M264 825c0 21 17 38 38 38s37 -17 37 -38s-16 -37 -37 -37s-38 16 -38 37zM478 825c0 21 16 38 37 38s38 -17 38 -38s-17 -37 -38 -37s-37 16 -37 37zM48 350c0 203 157 360 361 360s361 -157 361 -360s-157 -360 -361 -360s-361 157 -361 360zM105 350
c0 -174 133 -307 304 -307s304 133 304 307s-133 307 -304 307s-304 -133 -304 -307z" />
    <glyph glyph-name="uni04E8" unicode="&#x4e8;" horiz-adv-x="818" 
d="M409 710c204 0 361 -157 361 -360s-157 -360 -361 -360s-361 157 -361 360s157 360 361 360zM409 657c-162 0 -290 -120 -303 -281h606c-13 161 -141 281 -303 281zM409 43c162 0 290 120 303 281h-606c13 -161 141 -281 303 -281z" />
    <glyph glyph-name="uni04EA" unicode="&#x4ea;" horiz-adv-x="818" 
d="M302 788c-21 0 -38 16 -38 37s17 38 38 38s37 -17 37 -38s-16 -37 -37 -37zM515 788c-21 0 -37 16 -37 37s16 38 37 38s38 -17 38 -38s-17 -37 -38 -37zM409 710c204 0 361 -157 361 -360s-157 -360 -361 -360s-361 157 -361 360s157 360 361 360zM409 657
c-162 0 -290 -120 -303 -281h606c-13 161 -141 281 -303 281zM409 43c162 0 290 120 303 281h-606c13 -161 141 -281 303 -281z" />
    <glyph glyph-name="uni04EC" unicode="&#x4ec;" horiz-adv-x="774" 
d="M259 788c-21 0 -38 16 -38 37s17 38 38 38s37 -17 37 -38s-16 -37 -37 -37zM472 788c-21 0 -37 16 -37 37s16 38 37 38s38 -17 38 -38s-17 -37 -38 -37zM365 710c204 0 362 -157 362 -360s-158 -360 -362 -360c-152 0 -268 92 -317 202l51 23c45 -101 145 -172 266 -172
c163 0 291 120 304 281h-352v52h352c-13 161 -141 281 -304 281c-121 0 -221 -71 -266 -171l-51 22c49 110 165 202 317 202z" />
    <glyph glyph-name="uni04EE" unicode="&#x4ee;" horiz-adv-x="609" 
d="M461 849v-48h-313v48h313zM542 700h59l-392 -700h-60l125 224l-256 476h63l226 -419z" />
    <glyph glyph-name="uni04F0" unicode="&#x4f0;" horiz-adv-x="609" 
d="M198 788c-21 0 -38 16 -38 37s17 38 38 38s37 -17 37 -38s-16 -37 -37 -37zM411 788c-21 0 -37 16 -37 37s16 38 37 38s38 -17 38 -38s-17 -37 -38 -37zM542 700h59l-392 -700h-60l125 224l-256 476h63l226 -419z" />
    <glyph glyph-name="uni04F2" unicode="&#x4f2;" horiz-adv-x="609" 
d="M363 900l-153 -151h-67l151 151h69zM391 749h-67l151 151h69zM542 700h59l-392 -700h-60l125 224l-256 476h63l226 -419z" />
    <glyph glyph-name="uni04F4" unicode="&#x4f4;" horiz-adv-x="641" 
d="M214 788c-21 0 -38 16 -38 37s17 38 38 38s37 -17 37 -38s-16 -37 -37 -37zM427 788c-21 0 -37 16 -37 37s16 38 37 38s38 -17 38 -38s-17 -37 -38 -37zM518 700h56v-700h-56v290c-60 -13 -138 -28 -209 -28c-194 0 -271 77 -271 247v191h56v-191
c0 -141 60 -195 218 -195c66 0 145 14 206 28v358z" />
    <glyph glyph-name="uni04F6" unicode="&#x4f6;" horiz-adv-x="496" 
d="M486 648h-362v-596h89v-212h-56v160h-89v700h418v-52z" />
    <glyph glyph-name="uni04F8" unicode="&#x4f8;" horiz-adv-x="715" 
d="M213 825c0 21 17 38 38 38s37 -17 37 -38s-16 -37 -37 -37s-38 16 -38 37zM427 825c0 21 16 38 37 38s38 -17 38 -38s-17 -37 -38 -37s-37 16 -37 37zM68 0v700h56v-299h187c124 0 213 -88 213 -201s-89 -200 -213 -200h-243zM591 0v700h57v-700h-57zM124 52h187
c92 0 156 64 156 148s-64 149 -156 149h-187v-297z" />
    <glyph glyph-name="uni04FC" unicode="&#x4fc;" horiz-adv-x="637" 
d="M353 351l191 -252c49 -65 76 -110 76 -170c0 -79 -64 -139 -151 -139c-25 0 -50 3 -74 10l11 50c20 -6 40 -9 61 -9c59 0 96 43 96 90c0 42 -15 72 -64 136l-181 240l-232 -307h-68l266 349l-266 351h69l232 -305l233 305h68z" />
    <glyph glyph-name="uni0510" unicode="&#x510;" horiz-adv-x="593" 
d="M297 43c75 0 162 29 221 95l36 -40c-64 -73 -164 -108 -257 -108c-130 0 -248 68 -248 192c0 82 59 148 142 169c-83 21 -142 85 -142 167c0 125 118 192 248 192c93 0 193 -34 257 -108l-36 -40c-59 66 -146 95 -221 95c-112 0 -191 -58 -191 -142
c0 -95 90 -139 218 -139h83v-52h-83c-128 0 -218 -44 -218 -139c0 -84 79 -142 191 -142z" />
    <glyph glyph-name="uni0512" unicode="&#x512;" horiz-adv-x="715" 
d="M10 -6v52h7c85 0 141 41 141 304v350h490v-694c0 -112 -73 -216 -198 -216c-24 0 -51 3 -75 10l12 52c22 -6 42 -9 63 -9c93 0 141 82 141 163v642h-378v-298c0 -294 -72 -356 -197 -356h-6z" />
    <glyph glyph-name="uni051C" unicode="&#x51c;" horiz-adv-x="1044" 
d="M937 700h58l-220 -700h-60l-193 619l-193 -619h-60l-220 700h59l192 -623l191 623h63l193 -622z" />
    <glyph glyph-name="uni0414.loclBGR" horiz-adv-x="782" 
d="M693 52h75v-212h-56v160h-642v-160h-56v212h75l273 648h58zM148 52h485l-243 581z" />
    <glyph glyph-name="uni0416.loclBGR" horiz-adv-x="974" 
d="M964 0h-70l-266 369l-113 -127v-242h-56v242l-113 127l-266 -369h-70l299 412l-256 288h72l334 -381v381h56v-383l334 383h72l-256 -288z" />
    <glyph glyph-name="uni041A.loclBGR" horiz-adv-x="620" 
d="M611 0h-70l-294 370l-123 -128v-242h-56v700h56v-382l368 382h72l-278 -290z" />
    <glyph glyph-name="uni041B.loclBGR" horiz-adv-x="684" 
d="M667 0h-61l-264 633l-265 -633h-59l295 700h59z" />
    <glyph glyph-name="uni0424.loclBGR" horiz-adv-x="861" 
d="M814 350c0 -201 -155 -357 -355 -360v-80h-56v80c-201 3 -355 159 -355 360s154 357 355 360v80h56v-80c200 -3 355 -159 355 -360zM105 350c0 -172 130 -305 298 -308v616c-168 -3 -298 -136 -298 -308zM459 42c168 3 298 136 298 308s-130 305 -298 308v-616z" />
    <glyph glyph-name="uni0492.loclBSH" horiz-adv-x="496" 
d="M486 648h-362v-276h301v-49h-301v-323h-56v700h418v-52z" />
    <glyph glyph-name="uni0498.loclBSH" horiz-adv-x="593" 
d="M402 351c83 -21 142 -87 142 -169c0 -109 -91 -175 -201 -189c28 -29 42 -63 42 -96c0 -61 -48 -107 -128 -107c-15 0 -31 1 -50 6l3 49c15 -3 29 -5 42 -5c53 0 79 28 79 63c0 28 -18 62 -53 87c-88 5 -179 40 -239 108l36 40c59 -66 146 -95 222 -95
c111 0 190 58 190 142c0 95 -89 139 -218 139h-82v52h82c129 0 218 44 218 139c0 84 -79 142 -190 142c-76 0 -163 -29 -222 -95l-36 40c64 74 164 108 258 108c129 0 247 -67 247 -192c0 -82 -59 -146 -142 -167z" />
    <glyph glyph-name="uni04AA.loclBSHCHU" horiz-adv-x="774" 
d="M409 43c121 0 221 71 266 172l52 -23c-45 -98 -142 -183 -271 -199c28 -29 42 -63 42 -96c0 -61 -48 -107 -128 -107c-15 0 -31 1 -50 6l3 49c15 -3 29 -5 42 -5c53 0 79 28 79 63c0 28 -18 62 -52 87c-196 9 -344 163 -344 360c0 203 157 360 361 360
c152 0 268 -92 318 -202l-52 -22c-45 100 -145 171 -266 171c-171 0 -304 -133 -304 -307s133 -307 304 -307z" />
    <glyph glyph-name="uni041D.loclUKR" horiz-adv-x="714" 
d="M590 700h56v-700h-55l-467 607v-607h-56v700h55l467 -608v608z" />
    <glyph glyph-name="uni0406.ss01" horiz-adv-x="409" 
d="M30 0v52h146v596h-146v52h349v-52h-146v-596h146v-52h-349z" />
    <glyph glyph-name="uni0407.ss01" horiz-adv-x="409" 
d="M60 825c0 21 17 38 38 38s37 -17 37 -38s-16 -37 -37 -37s-38 16 -38 37zM274 825c0 21 16 38 37 38s38 -17 38 -38s-17 -37 -38 -37s-37 16 -37 37zM30 0v52h146v596h-146v52h349v-52h-146v-596h146v-52h-349z" />
    <glyph glyph-name="uni04AE.ss02" horiz-adv-x="602" 
d="M530 700h64l-265 -457v-243h-56v243l-265 457h66l228 -402z" />
    <glyph glyph-name="uni04B0.ss02" horiz-adv-x="602" 
d="M594 700l-260 -449h147v-48h-152v-203h-56v203h-152v48h147l-260 449h66l228 -402l228 402h64z" />
    <glyph glyph-name="uni0430" unicode="&#x430;" horiz-adv-x="517" 
d="M268 513c106 0 187 -59 187 -164v-349h-55v100c-46 -72 -118 -110 -203 -110c-95 0 -159 52 -159 135c0 91 74 135 170 146l123 14c45 5 69 23 69 65c0 71 -54 113 -133 113c-72 0 -140 -31 -161 -120l-53 16c27 106 116 154 215 154zM204 39c116 0 196 90 196 189v35
c-15 -16 -39 -22 -77 -26l-115 -14c-64 -7 -115 -36 -115 -96c0 -54 46 -88 111 -88z" />
    <glyph glyph-name="uni0431" unicode="&#x431;" horiz-adv-x="613" 
d="M318 493c141 0 248 -109 248 -250c0 -144 -110 -253 -254 -253s-254 108 -254 258c0 254 40 368 157 425c96 48 187 37 324 77v-53c-88 -28 -228 -32 -301 -68c-70 -34 -112 -113 -122 -242c42 65 115 106 202 106zM312 42c113 0 198 85 198 199s-85 200 -198 200
s-198 -86 -198 -200s85 -199 198 -199z" />
    <glyph glyph-name="uni0432" unicode="&#x432;" horiz-adv-x="531" 
d="M392 256c57 -21 90 -65 90 -120c0 -78 -67 -136 -157 -136h-257v503h234c90 0 158 -58 158 -136c0 -47 -25 -87 -68 -111zM121 453v-177h180c60 0 104 38 104 89c0 50 -43 88 -104 88h-180zM324 50c60 0 103 38 103 89c0 49 -43 88 -103 88h-203v-177h203z" />
    <glyph glyph-name="uni0433" unicode="&#x433;" horiz-adv-x="409" 
d="M68 0v503h331v-51h-276v-452h-55z" />
    <glyph glyph-name="uni0453" unicode="&#x453;" horiz-adv-x="409" 
d="M186 576l112 160h63l-114 -160h-61zM68 0v503h331v-51h-276v-452h-55z" />
    <glyph glyph-name="uni0491" unicode="&#x491;" horiz-adv-x="409" 
d="M68 0v503h277v131h54v-182h-276v-452h-55z" />
    <glyph glyph-name="uni0434" unicode="&#x434;" horiz-adv-x="597" 
d="M508 51h70v-192h-53v141h-457v-141h-54v192h55c49 62 61 132 61 271v181h378v-452zM453 51v401h-269v-130c0 -136 -10 -210 -53 -271h322z" />
    <glyph glyph-name="uni0435" unicode="&#x435;" horiz-adv-x="610" 
d="M305 513c149 0 264 -117 257 -277h-460c8 -112 95 -196 209 -196c86 0 156 48 189 120l50 -18c-40 -90 -128 -152 -240 -152c-149 0 -262 113 -262 261c0 149 111 262 257 262zM305 462c-104 0 -186 -75 -201 -178h402c-13 100 -94 178 -201 178z" />
    <glyph glyph-name="uni0450" unicode="&#x450;" horiz-adv-x="610" 
d="M353 576h-61l-114 160h63zM305 513c149 0 264 -117 257 -277h-460c8 -112 95 -196 209 -196c86 0 156 48 189 120l50 -18c-40 -90 -128 -152 -240 -152c-149 0 -262 113 -262 261c0 149 111 262 257 262zM305 462c-104 0 -186 -75 -201 -178h402
c-13 100 -94 178 -201 178z" />
    <glyph glyph-name="uni0451" unicode="&#x451;" horiz-adv-x="610" 
d="M203 618c-21 0 -38 17 -38 38s17 37 38 37s37 -16 37 -37s-16 -38 -37 -38zM408 618c-21 0 -38 17 -38 38s17 37 38 37s37 -16 37 -37s-16 -38 -37 -38zM305 513c149 0 264 -117 257 -277h-460c8 -112 95 -196 209 -196c86 0 156 48 189 120l50 -18
c-40 -90 -128 -152 -240 -152c-149 0 -262 113 -262 261c0 149 111 262 257 262zM305 462c-104 0 -186 -75 -201 -178h402c-13 100 -94 178 -201 178z" />
    <glyph glyph-name="uni0436" unicode="&#x436;" horiz-adv-x="745" 
d="M551 255l177 -255h-65l-161 226h-102v-226h-55v226h-102l-162 -226h-63l177 253l-162 250h61l149 -226h102v226h55v-226h102l150 226h61z" />
    <glyph glyph-name="uni0437" unicode="&#x437;" horiz-adv-x="478" 
d="M328 252c62 -17 101 -64 101 -119c0 -91 -93 -143 -196 -143c-75 0 -154 29 -204 81l33 38c47 -47 116 -69 171 -69c84 0 140 41 140 96c0 63 -66 91 -161 91h-65v49h65c95 0 161 28 161 91c0 55 -56 95 -140 95c-56 0 -124 -22 -171 -69l-33 38c51 53 129 82 204 82
c104 0 196 -53 196 -143c0 -56 -39 -101 -101 -118z" />
    <glyph glyph-name="uni0438" unicode="&#x438;" horiz-adv-x="590" 
d="M468 503h54v-503h-55v423l-345 -423h-54v503h55v-422z" />
    <glyph glyph-name="uni0439" unicode="&#x439;" horiz-adv-x="590" 
d="M295 579c-83 0 -140 60 -140 152h51c0 -64 35 -106 89 -106c55 0 89 42 89 106h50c0 -92 -57 -152 -139 -152zM468 503h54v-503h-55v423l-345 -423h-54v503h55v-422z" />
    <glyph glyph-name="uni045D" unicode="&#x45d;" horiz-adv-x="590" 
d="M342 576h-61l-114 160h63zM468 503h54v-503h-55v423l-345 -423h-54v503h55v-422z" />
    <glyph glyph-name="uni043A" unicode="&#x43a;" horiz-adv-x="519" 
d="M287 256l214 -256h-68l-194 226h-116v-226h-55v503h55v-226h116l185 226h61z" />
    <glyph glyph-name="uni045C" unicode="&#x45c;" horiz-adv-x="519" 
d="M393 736l-114 -160h-61l112 160h63zM287 256l214 -256h-68l-194 226h-116v-226h-55v503h55v-226h116l185 226h61z" />
    <glyph glyph-name="uni043B" unicode="&#x43b;" horiz-adv-x="589" 
d="M20 -6v51h7c61 0 107 20 107 206v252h388v-503h-55v452h-279v-201c0 -189 -45 -257 -162 -257h-6z" />
    <glyph glyph-name="uni043C" unicode="&#x43c;" horiz-adv-x="680" 
d="M612 0h-54v419l-194 -419h-48l-195 421v-421h-53v503h72l201 -430l200 430h71v-503z" />
    <glyph glyph-name="uni043D" unicode="&#x43d;" horiz-adv-x="589" 
d="M68 0v503h55v-226h343v226h55v-503h-55v226h-343v-226h-55z" />
    <glyph glyph-name="uni043E" unicode="&#x43e;" horiz-adv-x="620" 
d="M48 251c0 149 113 262 262 262s263 -113 263 -262c0 -148 -114 -261 -263 -261s-262 113 -262 261zM103 251c0 -119 90 -209 207 -209c118 0 207 90 207 209s-89 210 -207 210c-117 0 -207 -91 -207 -210z" />
    <glyph glyph-name="uni043F" unicode="&#x43f;" horiz-adv-x="579" 
d="M68 0v503h443v-503h-55v452h-333v-452h-55z" />
    <glyph glyph-name="uni0440" unicode="&#x440;" horiz-adv-x="639" 
d="M334 513c147 0 258 -113 258 -262c0 -148 -111 -261 -258 -261c-91 0 -167 43 -211 111v-301h-55v703h55v-101c44 68 120 111 211 111zM329 42c118 0 207 90 207 209s-89 210 -207 210c-117 0 -206 -91 -206 -210s89 -209 206 -209z" />
    <glyph glyph-name="uni0441" unicode="&#x441;" horiz-adv-x="597" 
d="M48 251c0 149 113 262 262 262c112 0 201 -63 240 -156l-51 -18c-33 74 -103 122 -189 122c-117 0 -207 -91 -207 -210s90 -209 207 -209c86 0 156 47 189 121l51 -17c-39 -94 -128 -156 -240 -156c-149 0 -262 113 -262 261z" />
    <glyph glyph-name="uni0442" unicode="&#x442;" horiz-adv-x="477" 
d="M211 0v452h-187v51h429v-51h-187v-452h-55z" />
    <glyph glyph-name="uni0443" unicode="&#x443;" horiz-adv-x="511" 
d="M447 503h57l-306 -703h-57l85 196l-218 507h60l189 -448z" />
    <glyph glyph-name="uni045E" unicode="&#x45e;" horiz-adv-x="511" 
d="M256 579c-83 0 -140 60 -140 152h51c0 -64 35 -106 89 -106c55 0 89 42 89 106h50c0 -92 -57 -152 -139 -152zM447 503h57l-306 -703h-57l85 196l-218 507h60l189 -448z" />
    <glyph glyph-name="uni0444" unicode="&#x444;" horiz-adv-x="673" 
d="M625 251c0 -148 -112 -260 -261 -261v-190h-55v190c-149 1 -261 113 -261 261c0 149 112 261 261 262v227h55v-227c149 -1 261 -113 261 -262zM103 251c0 -119 89 -208 206 -209v419c-117 -1 -206 -91 -206 -210zM364 42c117 1 205 90 205 209s-88 209 -205 210v-419z
" />
    <glyph glyph-name="uni0445" unicode="&#x445;" horiz-adv-x="496" 
d="M477 503l-195 -251l195 -252h-69l-161 211l-161 -211h-67l195 251l-195 252h70l160 -210l161 210h67z" />
    <glyph glyph-name="uni0447" unicode="&#x447;" horiz-adv-x="529" 
d="M406 503h55v-503h-55v201c-42 -8 -103 -19 -157 -19c-165 0 -211 68 -211 182v139h55v-139c0 -83 30 -131 159 -131c48 0 109 9 154 18v252z" />
    <glyph glyph-name="uni0446" unicode="&#x446;" horiz-adv-x="610" 
d="M68 0v503h55v-452h343v452h55v-452h70v-192h-54v141h-469z" />
    <glyph glyph-name="uni0448" unicode="&#x448;" horiz-adv-x="768" 
d="M68 0v503h55v-452h234v452h54v-452h234v452h55v-503h-632z" />
    <glyph glyph-name="uni0449" unicode="&#x449;" horiz-adv-x="789" 
d="M68 0v503h55v-452h234v452h54v-452h234v452h55v-452h70v-192h-53v141h-649z" />
    <glyph glyph-name="uni045F" unicode="&#x45f;" horiz-adv-x="579" 
d="M68 0v503h55v-452h333v452h55v-503h-195v-141h-54v141h-194z" />
    <glyph glyph-name="uni044C" unicode="&#x44c;" horiz-adv-x="493" 
d="M68 0v503h55v-185h162c101 0 170 -69 170 -159s-69 -159 -170 -159h-217zM123 51h159c70 0 117 45 117 108c0 62 -47 108 -117 108h-159v-216z" />
    <glyph glyph-name="uni044A" unicode="&#x44a;" horiz-adv-x="561" 
d="M150 0v452h-140v51h195v-185h152c102 0 171 -69 171 -159s-69 -159 -171 -159h-207zM205 51h150c69 0 117 45 117 108c0 62 -48 108 -117 108h-150v-216z" />
    <glyph glyph-name="uni044B" unicode="&#x44b;" horiz-adv-x="625" 
d="M68 0v503h55v-185h152c101 0 170 -69 170 -159s-69 -159 -170 -159h-207zM503 0v503h55v-503h-55zM123 51h149c70 0 117 45 117 108c0 62 -47 108 -117 108h-149v-216z" />
    <glyph glyph-name="uni0459" unicode="&#x459;" horiz-adv-x="872" 
d="M20 -6v51h7c61 0 107 20 107 206v252h378v-185h152c101 0 170 -69 170 -159s-69 -159 -170 -159h-207v452h-269v-201c0 -189 -45 -257 -162 -257h-6zM512 51h150c69 0 117 45 117 108c0 62 -48 108 -117 108h-150v-216z" />
    <glyph glyph-name="uni045A" unicode="&#x45a;" horiz-adv-x="871" 
d="M68 0v503h55v-226h333v226h55v-219h162c95 0 161 -63 161 -143c0 -79 -66 -141 -161 -141h-217v226h-333v-226h-55zM511 51h160c63 0 107 39 107 90c0 52 -44 92 -107 92h-160v-182z" />
    <glyph glyph-name="uni0455" unicode="&#x455;" horiz-adv-x="475" 
d="M93 139c12 -63 63 -100 145 -100c83 0 144 38 144 94c0 152 -329 47 -329 238c0 83 75 142 185 142c107 0 174 -55 190 -138l-56 -12c-12 63 -58 101 -134 101s-130 -36 -130 -91c0 -140 330 -37 330 -238c0 -86 -85 -145 -200 -145c-113 0 -185 55 -200 138z" />
    <glyph glyph-name="uni0454" unicode="&#x454;" horiz-adv-x="597" 
d="M310 40c87 0 157 50 190 123l50 -17c-39 -94 -128 -156 -240 -156c-149 0 -262 113 -262 261c0 149 113 262 262 262c112 0 201 -63 240 -156l-50 -17c-33 74 -103 122 -190 122c-110 0 -195 -79 -207 -186h247v-49h-247c11 -107 97 -187 207 -187z" />
    <glyph glyph-name="uni044D" unicode="&#x44d;" horiz-adv-x="597" 
d="M287 513c149 0 262 -113 262 -262c0 -148 -113 -261 -262 -261c-112 0 -201 62 -241 156l51 17c33 -73 103 -123 190 -123c110 0 196 80 207 187h-247v49h247c-12 107 -97 186 -207 186c-87 0 -157 -48 -190 -122l-51 17c40 93 129 156 241 156z" />
    <glyph glyph-name="uni0456" unicode="&#x456;" horiz-adv-x="190" 
d="M57 656c0 21 17 38 38 38s38 -17 38 -38c0 -22 -17 -38 -38 -38s-38 16 -38 38zM68 0v503h55v-503h-55z" />
    <glyph glyph-name="uni0457" unicode="&#x457;" horiz-adv-x="190" 
d="M-24 656c0 21 16 37 37 37s38 -16 38 -37s-17 -38 -38 -38s-37 17 -37 38zM139 656c0 21 17 37 38 37s37 -16 37 -37s-16 -38 -37 -38s-38 17 -38 38zM68 0v503h55v-503h-55z" />
    <glyph glyph-name="uni0458" unicode="&#x458;" horiz-adv-x="210" 
d="M77 656c0 21 17 38 38 38s38 -17 38 -38c0 -22 -17 -38 -38 -38s-38 16 -38 38zM-11 -155c74 -3 99 22 99 93v565h55v-565c0 -86 -35 -150 -154 -144v51z" />
    <glyph glyph-name="uni045B" unicode="&#x45b;" horiz-adv-x="594" 
d="M311 473c126 0 220 -95 220 -220v-253h-55v249c0 98 -74 172 -172 172c-97 0 -171 -74 -171 -172v-249h-55v582h-87v48h87v110h55v-110h176v-48h-176v-202c38 56 101 93 178 93z" />
    <glyph glyph-name="uni044E" unicode="&#x44e;" horiz-adv-x="786" 
d="M486 513c144 0 253 -113 253 -262c0 -148 -109 -261 -253 -261c-135 0 -239 100 -251 236h-112v-226h-55v503h55v-226h112c12 136 116 236 251 236zM486 42c111 0 197 90 197 209s-86 210 -197 210c-112 0 -198 -91 -198 -210s86 -209 198 -209z" />
    <glyph glyph-name="uni044F" unicode="&#x44f;" horiz-adv-x="527" 
d="M460 503v-503h-55v212h-131l-161 -212h-65l161 212c-88 3 -149 66 -149 146c0 82 64 145 155 145h245zM405 263v189h-189c-59 0 -100 -41 -100 -94s41 -95 100 -95h189z" />
    <glyph glyph-name="uni0452" unicode="&#x452;" horiz-adv-x="585" 
d="M321 473c125 0 210 -85 210 -221v-246c0 -112 -72 -216 -196 -216c-24 0 -50 3 -74 10l11 50c20 -6 41 -9 61 -9c95 0 143 83 143 164v243c0 108 -65 173 -163 173c-106 0 -180 -74 -180 -172v-249h-55v582h-87v48h87v110h55v-110h176v-48h-176v-202c38 56 102 93 188 93
z" />
    <glyph glyph-name="uni0463" unicode="&#x463;" horiz-adv-x="565" 
d="M357 318c101 0 170 -69 170 -159s-69 -159 -170 -159h-218v462h-121v48h121v230h55v-230h141v-48h-141v-144h163zM354 51c69 0 117 45 117 108c0 62 -48 108 -117 108h-160v-216h160z" />
    <glyph glyph-name="uni0473" unicode="&#x473;" horiz-adv-x="620" 
d="M310 513c149 0 263 -113 263 -262c0 -148 -114 -261 -263 -261s-262 113 -262 261c0 149 113 262 262 262zM310 462c-109 0 -194 -78 -207 -185c36 19 68 27 98 27c83 0 151 -57 232 -57c27 0 54 6 84 21c-8 112 -95 194 -207 194zM310 40c109 0 194 79 206 184
c-35 -19 -67 -26 -97 -26c-83 0 -151 57 -232 57c-27 0 -54 -6 -84 -22c8 -110 95 -193 207 -193z" />
    <glyph glyph-name="uni0475" unicode="&#x475;" horiz-adv-x="622" 
d="M411 419c33 77 91 124 194 71l-19 -47c-66 33 -99 20 -127 -46l-172 -397h-63l-216 503h60l189 -445z" />
    <glyph glyph-name="uni0493" unicode="&#x493;" horiz-adv-x="449" 
d="M439 452h-276v-182h172v-48h-172v-222h-55v222h-90v48h90v233h331v-51z" />
    <glyph glyph-name="uni0495" unicode="&#x495;" horiz-adv-x="500" 
d="M263 291c125 0 209 -97 209 -246c0 -151 -90 -255 -215 -255c-24 0 -50 3 -74 10l12 50c20 -6 40 -9 61 -9c93 0 160 83 160 203c0 122 -64 195 -158 195c-40 0 -82 -8 -135 -32v-207h-55v503h351v-51h-296v-192c46 19 95 31 140 31z" />
    <glyph glyph-name="uni0497" unicode="&#x497;" horiz-adv-x="807" 
d="M693 51h95v-192h-54v141h-71l-161 226h-102v-226h-55v226h-102l-162 -226h-63l177 253l-162 250h61l149 -226h102v226h55v-226h102l150 226h61l-162 -248z" />
    <glyph glyph-name="uni0499" unicode="&#x499;" horiz-adv-x="478" 
d="M328 252c62 -17 101 -64 101 -119c0 -83 -77 -134 -169 -142v-132h-54v132c-66 6 -133 34 -177 80l33 38c47 -47 116 -69 171 -69c84 0 140 41 140 96c0 63 -66 91 -161 91h-65v49h65c95 0 161 28 161 91c0 55 -56 95 -140 95c-56 0 -124 -22 -171 -69l-33 38
c51 53 129 82 204 82c104 0 196 -53 196 -143c0 -56 -39 -101 -101 -118z" />
    <glyph glyph-name="uni049B" unicode="&#x49b;" horiz-adv-x="577" 
d="M458 51h100v-192h-54v141h-71l-194 226h-116v-226h-55v503h55v-226h116l185 226h61l-198 -247z" />
    <glyph glyph-name="uni049D" unicode="&#x49d;" horiz-adv-x="528" 
d="M295 255l214 -255h-67l-193 226h-23v-133h-47v133h-56v-226h-55v503h55v-226h56v133h47v-133h23l184 226h61z" />
    <glyph glyph-name="uni049F" unicode="&#x49f;" horiz-adv-x="529" 
d="M297 256l214 -256h-68l-194 226h-116v-226h-55v582h-88v48h88v110h55v-110h175v-48h-175v-305h116l185 226h61z" />
    <glyph glyph-name="uni04A1" unicode="&#x4a1;" horiz-adv-x="602" 
d="M369 255l214 -255h-68l-193 226h-117v-226h-55v452h-140v51h195v-226h117l185 226h61z" />
    <glyph glyph-name="uni04A3" unicode="&#x4a3;" horiz-adv-x="619" 
d="M521 51h79v-192h-54v141h-80v226h-343v-226h-55v503h55v-226h343v226h55v-452z" />
    <glyph glyph-name="uni04A5" unicode="&#x4a5;" horiz-adv-x="807" 
d="M797 503v-51h-276v-452h-55v226h-343v-226h-55v503h55v-226h343v226h331z" />
    <glyph glyph-name="uni0525" unicode="&#x525;" horiz-adv-x="609" 
d="M511 51h79v-192h-54v141h-80v452h-333v-452h-55v503h443v-452z" />
    <glyph glyph-name="uni04A7" unicode="&#x4a7;" horiz-adv-x="878" 
d="M642 291c124 0 209 -97 209 -246c0 -151 -91 -255 -215 -255c-24 0 -51 3 -74 10l11 50c20 -6 40 -9 61 -9c94 0 161 83 161 203c0 122 -64 195 -159 195c-39 0 -82 -8 -135 -32v-207h-55v452h-323v-452h-55v503h433v-243c47 19 96 31 141 31z" />
    <glyph glyph-name="uni04A9" unicode="&#x4a9;" horiz-adv-x="687" 
d="M668 1c-28 -7 -55 -11 -91 -11c-50 0 -96 11 -136 31c-40 -20 -86 -31 -135 -31c-150 0 -258 108 -258 258c0 154 113 266 262 266v-50c-118 0 -208 -91 -208 -216c0 -121 85 -208 204 -208c30 0 59 4 85 13c-63 49 -101 125 -101 211c0 125 73 191 154 191
s153 -66 153 -191c0 -86 -40 -161 -104 -211c26 -8 54 -13 84 -13c33 0 56 4 84 11zM343 264c0 -80 39 -147 101 -187c63 39 101 107 101 187c0 86 -42 141 -101 141c-60 0 -101 -55 -101 -141z" />
    <glyph glyph-name="uni04AB" unicode="&#x4ab;" horiz-adv-x="597" 
d="M310 42c86 0 156 47 189 121l51 -17c-36 -86 -114 -146 -213 -155v-132h-54v132c-135 13 -235 121 -235 260c0 149 113 262 262 262c112 0 201 -63 240 -156l-51 -18c-33 74 -103 122 -189 122c-117 0 -207 -91 -207 -210s90 -209 207 -209z" />
    <glyph glyph-name="uni04AD" unicode="&#x4ad;" horiz-adv-x="477" 
d="M453 452h-187v-401h79v-192h-54v141h-80v452h-187v51h429v-51z" />
    <glyph glyph-name="uni04AF" unicode="&#x4af;" horiz-adv-x="511" 
d="M447 503h57l-221 -512v-191h-55v191l-220 512h60l189 -445z" />
    <glyph glyph-name="uni04B1" unicode="&#x4b1;" horiz-adv-x="511" 
d="M504 503l-217 -503h142v-48h-146v-152h-55v152h-146v48h142l-216 503h60l189 -445l190 445h57z" />
    <glyph glyph-name="uni04B3" unicode="&#x4b3;" horiz-adv-x="552" 
d="M437 51h96v-192h-54v141h-71l-161 211l-161 -211h-67l195 251l-195 252h70l160 -210l161 210h67l-195 -251z" />
    <glyph glyph-name="uni04B5" unicode="&#x4b5;" horiz-adv-x="753" 
d="M211 0v452h-187v51h426v-51h-184v-401h344v452h55v-452h70v-192h-54v141h-470z" />
    <glyph glyph-name="uni04B7" unicode="&#x4b7;" horiz-adv-x="559" 
d="M461 51h79v-192h-54v141h-80v201c-42 -8 -103 -19 -157 -19c-165 0 -211 68 -211 182v139h55v-139c0 -83 30 -131 159 -131c48 0 109 9 154 18v252h55v-452z" />
    <glyph glyph-name="uni04B9" unicode="&#x4b9;" horiz-adv-x="529" 
d="M406 503h55v-503h-55v201c-33 -6 -79 -15 -123 -18v-129h-47v128c-154 4 -198 71 -198 182v139h55v-139c0 -79 27 -127 143 -131v138h47v-137c41 3 87 10 123 17v252z" />
    <glyph glyph-name="uni04BB" unicode="&#x4bb;" horiz-adv-x="584" 
d="M301 513c126 0 220 -95 220 -220v-293h-55v289c0 98 -74 172 -172 172c-97 0 -171 -74 -171 -172v-289h-55v740h55v-320c38 56 101 93 178 93z" />
    <glyph glyph-name="uni0527" unicode="&#x527;" horiz-adv-x="619" 
d="M521 51h79v-192h-54v141h-80v289c0 98 -74 172 -172 172c-97 0 -171 -74 -171 -172v-289h-55v740h55v-320c38 56 101 93 178 93c126 0 220 -95 220 -220v-242z" />
    <glyph glyph-name="uni04BD" unicode="&#x4bd;" horiz-adv-x="698" 
d="M393 513c149 0 263 -117 256 -277h-459c8 -112 94 -196 208 -196c86 0 156 48 190 120l49 -18c-40 -90 -127 -152 -239 -152c-145 0 -256 106 -263 247c-86 7 -135 53 -135 124c0 26 6 53 15 73h54c-11 -27 -16 -51 -16 -71c0 -40 24 -72 84 -78c16 132 120 228 256 228z
M393 462c-105 0 -186 -75 -201 -178h402c-14 100 -95 178 -201 178z" />
    <glyph glyph-name="uni04BF" unicode="&#x4bf;" horiz-adv-x="698" 
d="M393 513c149 0 263 -117 256 -277h-459c8 -112 94 -196 208 -196c86 0 156 48 190 120l49 -18c-37 -83 -113 -142 -212 -151v-132h-54v132c-132 12 -229 114 -236 246c-86 7 -135 53 -135 124c0 26 6 53 15 73h54c-11 -27 -16 -51 -16 -71c0 -40 24 -72 84 -78
c16 132 120 228 256 228zM393 462c-105 0 -186 -75 -201 -178h402c-14 100 -95 178 -201 178z" />
    <glyph glyph-name="uni04CF" unicode="&#x4cf;" horiz-adv-x="190" 
d="M68 0v740h55v-740h-55z" />
    <glyph glyph-name="uni04C2" unicode="&#x4c2;" horiz-adv-x="745" 
d="M373 579c-83 0 -140 60 -140 152h51c0 -64 35 -106 89 -106c55 0 89 42 89 106h50c0 -92 -57 -152 -139 -152zM551 255l177 -255h-65l-161 226h-102v-226h-55v226h-102l-162 -226h-63l177 253l-162 250h61l149 -226h102v226h55v-226h102l150 226h61z" />
    <glyph glyph-name="uni04C4" unicode="&#x4c4;" horiz-adv-x="523" 
d="M299 271c110 -24 173 -110 173 -227c0 -150 -90 -254 -215 -254c-24 0 -50 3 -74 10l12 50c20 -6 40 -9 61 -9c93 0 160 83 160 203c0 108 -64 182 -181 182h-112v-226h-55v503h55v-226h116l185 226h61z" />
    <glyph glyph-name="uni04C6" unicode="&#x4c6;" horiz-adv-x="620" 
d="M522 51h80l-65 -192h-53l48 141h-65v452h-279v-201c0 -189 -45 -257 -162 -257h-6v51h7c61 0 107 20 107 206v252h388v-452z" />
    <glyph glyph-name="uni04C8" unicode="&#x4c8;" horiz-adv-x="589" 
d="M466 503h55v-497c0 -112 -72 -216 -196 -216c-24 0 -50 3 -74 10l11 50c20 -6 41 -9 61 -9c95 0 143 83 143 164v221h-343v-226h-55v503h55v-226h343v226z" />
    <glyph glyph-name="uni04CA" unicode="&#x4ca;" horiz-adv-x="619" 
d="M521 51h80l-65 -192h-53l48 141h-65v226h-343v-226h-55v503h55v-226h343v226h55v-452z" />
    <glyph glyph-name="uni04CC" unicode="&#x4cc;" horiz-adv-x="529" 
d="M406 503h55v-503h-71v-141h-54v187h70v155c-42 -8 -103 -19 -157 -19c-165 0 -211 68 -211 182v139h55v-139c0 -83 30 -131 159 -131c48 0 109 9 154 18v252z" />
    <glyph glyph-name="uni04CE" unicode="&#x4ce;" horiz-adv-x="712" 
d="M612 51h82l-65 -192h-53l48 141h-66v419l-194 -419h-48l-195 421v-421h-53v503h72l201 -430l200 430h71v-452z" />
    <glyph glyph-name="uni04D1" unicode="&#x4d1;" horiz-adv-x="517" 
d="M260 579c-83 0 -140 60 -140 152h51c0 -64 35 -106 89 -106c55 0 89 42 89 106h50c0 -92 -57 -152 -139 -152zM268 513c106 0 187 -59 187 -164v-349h-55v100c-46 -72 -118 -110 -203 -110c-95 0 -159 52 -159 135c0 91 74 135 170 146l123 14c45 5 69 23 69 65
c0 71 -54 113 -133 113c-72 0 -140 -31 -161 -120l-53 16c27 106 116 154 215 154zM204 39c116 0 196 90 196 189v35c-15 -16 -39 -22 -77 -26l-115 -14c-64 -7 -115 -36 -115 -96c0 -54 46 -88 111 -88z" />
    <glyph glyph-name="uni04D3" unicode="&#x4d3;" horiz-adv-x="517" 
d="M158 618c-21 0 -38 17 -38 38s17 37 38 37s37 -16 37 -37s-16 -38 -37 -38zM363 618c-21 0 -38 17 -38 38s17 37 38 37s37 -16 37 -37s-16 -38 -37 -38zM268 513c106 0 187 -59 187 -164v-349h-55v100c-46 -72 -118 -110 -203 -110c-95 0 -159 52 -159 135
c0 91 74 135 170 146l123 14c45 5 69 23 69 65c0 71 -54 113 -133 113c-72 0 -140 -31 -161 -120l-53 16c27 106 116 154 215 154zM204 39c116 0 196 90 196 189v35c-15 -16 -39 -22 -77 -26l-115 -14c-64 -7 -115 -36 -115 -96c0 -54 46 -88 111 -88z" />
    <glyph glyph-name="uni04D5" unicode="&#x4d5;" horiz-adv-x="965" 
d="M662 513c148 0 261 -117 255 -277h-460c8 -112 94 -196 209 -196c86 0 156 48 189 120l50 -18c-40 -90 -127 -152 -238 -152c-92 0 -169 43 -215 112v-102h-52v100c-46 -72 -118 -110 -203 -110c-95 0 -159 52 -159 135c0 91 74 135 170 146l123 14c45 5 69 23 69 65
c0 71 -54 113 -133 113c-72 0 -140 -31 -161 -120l-53 16c27 106 116 154 215 154c89 0 160 -42 180 -117c44 71 122 117 214 117zM660 462c-104 0 -186 -75 -201 -178h402c-13 100 -94 178 -201 178zM204 39c116 0 196 90 196 189v35c-15 -16 -39 -22 -77 -26l-115 -14
c-64 -7 -115 -36 -115 -96c0 -54 46 -88 111 -88z" />
    <glyph glyph-name="uni04D7" unicode="&#x4d7;" horiz-adv-x="610" 
d="M305 579c-83 0 -140 60 -140 152h51c0 -64 35 -106 89 -106c55 0 89 42 89 106h50c0 -92 -57 -152 -139 -152zM305 513c149 0 264 -117 257 -277h-460c8 -112 95 -196 209 -196c86 0 156 48 189 120l50 -18c-40 -90 -128 -152 -240 -152c-149 0 -262 113 -262 261
c0 149 111 262 257 262zM305 462c-104 0 -186 -75 -201 -178h402c-13 100 -94 178 -201 178z" />
    <glyph glyph-name="uni04D9" unicode="&#x4d9;" horiz-adv-x="611" 
d="M301 513c149 0 262 -113 262 -262c0 -148 -111 -261 -257 -261c-149 0 -264 117 -257 276h460c-8 113 -95 196 -209 196c-86 0 -156 -47 -189 -120l-50 19c40 89 128 152 240 152zM306 40c104 0 186 75 201 178h-401c13 -100 93 -178 200 -178z" />
    <glyph glyph-name="uni04DB" unicode="&#x4db;" horiz-adv-x="611" 
d="M201 618c-21 0 -38 17 -38 38s17 37 38 37s37 -16 37 -37s-16 -38 -37 -38zM406 618c-21 0 -38 17 -38 38s17 37 38 37s37 -16 37 -37s-16 -38 -37 -38zM301 513c149 0 262 -113 262 -262c0 -148 -111 -261 -257 -261c-149 0 -264 117 -257 276h460
c-8 113 -95 196 -209 196c-86 0 -156 -47 -189 -120l-50 19c40 89 128 152 240 152zM306 40c104 0 186 75 201 178h-401c13 -100 93 -178 200 -178z" />
    <glyph glyph-name="uni04DD" unicode="&#x4dd;" horiz-adv-x="745" 
d="M271 618c-21 0 -38 17 -38 38s17 37 38 37s37 -16 37 -37s-16 -38 -37 -38zM476 618c-21 0 -38 17 -38 38s17 37 38 37s37 -16 37 -37s-16 -38 -37 -38zM551 255l177 -255h-65l-161 226h-102v-226h-55v226h-102l-162 -226h-63l177 253l-162 250h61l149 -226h102v226h55
v-226h102l150 226h61z" />
    <glyph glyph-name="uni04DF" unicode="&#x4df;" horiz-adv-x="478" 
d="M131 618c-21 0 -38 17 -38 38s17 37 38 37s37 -16 37 -37s-16 -38 -37 -38zM336 618c-21 0 -38 17 -38 38s17 37 38 37s37 -16 37 -37s-16 -38 -37 -38zM328 252c62 -17 101 -64 101 -119c0 -91 -93 -143 -196 -143c-75 0 -154 29 -204 81l33 38c47 -47 116 -69 171 -69
c84 0 140 41 140 96c0 63 -66 91 -161 91h-65v49h65c95 0 161 28 161 91c0 55 -56 95 -140 95c-56 0 -124 -22 -171 -69l-33 38c51 53 129 82 204 82c104 0 196 -53 196 -143c0 -56 -39 -101 -101 -118z" />
    <glyph glyph-name="uni04E1" unicode="&#x4e1;" horiz-adv-x="476" 
d="M228 215c126 -9 210 -99 210 -213c0 -120 -96 -212 -206 -212c-104 0 -186 53 -213 152l51 16c21 -79 83 -117 161 -117c87 0 151 71 151 161c0 89 -67 163 -168 163h-49v48l190 239h-310v51h374v-48z" />
    <glyph glyph-name="uni04E3" unicode="&#x4e3;" horiz-adv-x="590" 
d="M447 680v-48h-303v48h303zM468 503h54v-503h-55v423l-345 -423h-54v503h55v-422z" />
    <glyph glyph-name="uni04E5" unicode="&#x4e5;" horiz-adv-x="590" 
d="M193 618c-21 0 -38 17 -38 38s17 37 38 37s37 -16 37 -37s-16 -38 -37 -38zM398 618c-21 0 -38 17 -38 38s17 37 38 37s37 -16 37 -37s-16 -38 -37 -38zM468 503h54v-503h-55v423l-345 -423h-54v503h55v-422z" />
    <glyph glyph-name="uni04E7" unicode="&#x4e7;" horiz-adv-x="620" 
d="M170 656c0 21 17 37 38 37s37 -16 37 -37s-16 -38 -37 -38s-38 17 -38 38zM375 656c0 21 17 37 38 37s37 -16 37 -37s-16 -38 -37 -38s-38 17 -38 38zM48 251c0 149 113 262 262 262s263 -113 263 -262c0 -148 -114 -261 -263 -261s-262 113 -262 261zM103 251
c0 -119 90 -209 207 -209c118 0 207 90 207 209s-89 210 -207 210c-117 0 -207 -91 -207 -210z" />
    <glyph glyph-name="uni04E9" unicode="&#x4e9;" horiz-adv-x="620" 
d="M310 513c149 0 263 -113 263 -262c0 -148 -114 -261 -263 -261s-262 113 -262 261c0 149 113 262 262 262zM310 462c-110 0 -195 -79 -207 -186h414c-12 107 -97 186 -207 186zM310 40c110 0 196 80 207 187h-414c11 -107 97 -187 207 -187z" />
    </font>
</defs>
</svg>
