<svg id="Layer_1" data-name="Layer 1" xmlns="http://www.w3.org/2000/svg" viewBox="0 0 172.78 59.91"><defs><style>.cls-1,.cls-2{fill:#fff;}.cls-1{fill-rule:evenodd;}</style></defs><title>Showtime_logo</title><path class="cls-1" d="M42.418,30.37c0-12,4.439-19.572,9.742-20.371C46.861,3.482,38,0,29.959,0a29.883,29.883,0,0,0-22.3,9.949c5.233,1.036,7.013,5.421,7.013,12.21h-6.4c0-4-.833-6.08-3.206-6.08a2.6,2.6,0,0,0-2.381,1.46c-.071.155-.139.311-.207.467a5.162,5.162,0,0,0-.286,1.766c0,8.3,13.631,7.887,13.631,20.645,0,4.982-3.819,9.627-8.12,9.627a29.992,29.992,0,0,0,44.141.361C46.805,49.135,42.418,41.888,42.418,30.37ZM39.565,50.148H32.711V33.1h-7.4V50.148H18.437V10.8h6.857V26.653h7.417V10.8h6.854Z" transform="translate(0)"/><path class="cls-1" d="M5.923,43.882c1.914,0,3.273-1.685,3.273-4.131C9.2,34.677,4.753,33.7,0,29.408-.062,38.093,2.625,43.882,5.923,43.882Z" transform="translate(0)"/><path class="cls-1" d="M49.231,29.734c0-6.621,1.928-13.25,5.447-13.25,4.183,0,5.239,10.238,5.239,13.471,0,7.1-2.234,13.508-5.239,13.508C51.066,43.463,49.231,36.715,49.231,29.734Z" transform="translate(0)"/><polygon class="cls-2" points="117.705 11.346 112.351 11.346 93.804 11.346 92.942 11.346 88.804 11.346 86.063 33.816 85.955 33.816 82.891 11.346 76.601 11.346 73.268 33.816 73.16 33.816 70.688 11.346 64.344 11.346 69.451 49.619 75.58 49.619 79.02 25.376 79.128 25.376 82.461 49.619 88.804 49.619 93.032 17.259 98.963 17.259 98.963 49.619 105.952 49.619 105.952 17.259 112.351 17.259 112.351 49.619 119.339 49.619 119.339 11.346 117.705 11.346"/><path class="cls-2" d="M122.774,11.346h9.3l3.118,19.62h.107l3.279-19.62h9.086V49.619h-6.236V21.559h-.108l-4.731,28.06h-3.871l-4.677-28.06h-.107v28.06h-5.161Z" transform="translate(0)"/><path class="cls-2" d="M151.1,11.346h15.806v5.913h-8.817v9.783h6.5v6.236h-6.5V43.705h9.193v5.914H151.1Z" transform="translate(0)"/><path class="cls-2" d="M170.929,46.894c.425,0,.682.2.682.533,0,.226-.124.487-.549.56.271.164.323.2.626.917h-.3c-.358-.79-.466-.882-.923-.882h-.118V48.9H170.1v-2.01Zm-.252.928c.467,0,.641-.1.641-.374s-.153-.354-.605-.354h-.369v.728Zm2.1.057a1.913,1.913,0,1,1-1.913-1.914A1.913,1.913,0,0,1,172.78,47.879Zm-3.585,0a1.672,1.672,0,1,0,1.672-1.672A1.673,1.673,0,0,0,169.2,47.879Z" transform="translate(0)"/></svg>