<svg xmlns="http://www.w3.org/2000/svg" viewBox="0 0 1110.2 85"><style type="text/css">  
	.st0{fill:#ED1C24;}
</style><path class="st0" d="M86.3 4.3c-3.4-2.7-9-4.1-16.7-4.1H0c1.8 3.5 2.7 8.1 2.7 14.1h51.8c3.1 0 4.6 1.5 4.6 4.5v10.6c0 3.2-1.5 4.8-4.6 4.8H35V21.3H2.7v49.8C2.7 76.9 1.8 81.6 0 85h69.6c14.6 0 21.9-5.6 21.9-16.8V52.9c0-3.3-1-5.8-3-7.5 -2-1.8-7.1-3.2-15.4-4.2v-0.3c7.2-0.5 12.1-1.8 14.6-3.8s3.8-5 3.8-9.1V17C91.4 11.3 89.7 7 86.3 4.3zM59.1 66.3c0 3.1-1.5 4.6-4.6 4.6H35V48.2h19.5c3.1 0 4.6 1.6 4.6 4.6V66.3z"/><path class="st0" d="M176 68.7L173.3 85H99.7c1.8-3.4 2.7-8.1 2.7-14.1V14.1c0-5.9-0.9-10.6-2.7-14.1h73.6l2.7 16.3c-4.3-1.5-9.1-2.3-14.3-2.3h-26.8v20h24.4c4.2 0 8.6-0.7 13.3-2.3v18.6c-4.7-1.5-9.1-2.3-13.3-2.3h-24.4v22.8h26.8C166.8 70.9 171.6 70.2 176 68.7z"/><path class="st0" d="M260.4 68.7L257.8 85h-73.6c1.8-3.4 2.7-8.1 2.7-14.1V14.1c0-5.9-0.9-10.6-2.7-14.1h37.7c-1.8 3.5-2.7 8.2-2.7 14.1v56.8H246C251.3 70.9 256.1 70.2 260.4 68.7z"/><path class="st0" d="M506.9 17.5c-3.7-2.3-7.7-3.4-11.8-3.4h-15v56.8c0 5.9 0.9 10.6 2.7 14.1h-37.7c1.8-3.4 2.7-8.1 2.7-14.1V14.1h-15c-4.2 0-8.1 1.2-11.8 3.5L423.5 0h80.8L506.9 17.5z"/><path class="st0" d="M606.6 61.5c0 15.7-7 23.5-21 23.5h-49.7c-14 0-21-7.8-21-23.5v-38C515 7.8 522 0 536 0h49.7c14 0 21 7.8 21 23.5v38H606.6zM574.2 65.6V19.4c0-3.5-2.1-5.3-6.4-5.3h-14.1c-4.2 0-6.4 1.8-6.4 5.3v46.2c0 3.5 2.1 5.3 6.4 5.3h14.1C572.1 70.9 574.2 69.2 574.2 65.6z"/><path class="st0" d="M711.2 85h-36.3l-15.4-36.9h-10v22.8c0 5.9 0.9 10.6 2.7 14.1h-37.7c1.8-3.4 2.7-8.1 2.7-14.1V14.1c0-5.9-0.9-10.6-2.7-14.1h70.1c7.8 0 13.2 1.5 16.3 4.6s4.7 7.8 4.7 14.3v16.3c0 8.6-4.3 12.9-13 12.9l14.9 31C708.6 81.3 709.8 83.3 711.2 85zM673.2 29.2V18.9c0-1.9-0.3-3.1-1-3.8s-1.9-1-3.8-1h-18.8V34h18.9C671.6 34 673.2 32.4 673.2 29.2z"/><path class="st0" d="M430.9 84.9c-3.1-3.6-5.7-7.6-7.5-11.9S394.9 0.2 394.9 0.2h-37.1l3.8 5L332.1 71H300V14.1c0-5.9 0.9-10.6 2.7-14.1H265c1.8 3.5 2.7 8.2 2.7 14.1v56.8c0 5.9-0.9 10.6-2.7 14.1h82c-2.3-3.2-2.4-7.6-0.7-11.1l5.2-11.6H385l4.7 12.3c1.2 3.2 0.8 7.2-1.2 10.4C402.6 84.9 416.7 84.9 430.9 84.9zM357.5 48L369 21.6l10.2 26.5L357.5 48 357.5 48z"/><path d="M870.6 85h-37.7c1.8-3.4 2.7-8.1 2.7-14.1V18.1L811.8 85h-22.4l-23.2-66.9V71c0 5.9 0.9 10.6 2.7 14.1h-19.4c1.8-3.4 2.7-8.1 2.7-14.1V14.1c0-5.9-0.9-10.6-2.7-14.1h44.1l16.2 48.2h0.3L827.3 0h43.3c-1.8 3.5-2.7 8.2-2.7 14.1v56.8C867.9 76.9 868.8 81.6 870.6 85z"/><path d="M998.8 85h-37.7c1.8-3.4 2.7-8.1 2.7-14.1V18.1L939.9 85h-22.4l-23.1-66.9V71c0 5.9 0.9 10.6 2.7 14.1h-19.4c1.8-3.4 2.7-8.1 2.7-14.1V14.1c0-5.9-0.9-10.6-2.7-14.1h44.1L938 48.2h0.3L955.5 0h43.3c-1.8 3.5-2.7 8.2-2.7 14.1v56.8C996.1 76.9 997 81.6 998.8 85z"/><path d="M1082.2 20.8c-4.5-11.6-8-20.6-8-20.6h-37.1l3.8 5c0 0-18.5 41.4-23 51.7 -4.7 10.6-8.6 20-15.8 28.2 8.1 0 16 0 24.1 0 -2.3-3.2-2.4-7.6-0.7-11.1l5.2-11.6h33.5l4.7 12.3c1.2 3.2 0.8 7.2-1.2 10.4 14.2 0 28.4 0 42.6 0 -3.1-3.6-5.7-7.6-7.5-11.9C1101.5 70.2 1090.2 41.3 1082.2 20.8M1036.8 48l11.5-26.5 10.2 26.5H1036.8z"/><path d="M1085.2 4.5c0-2.4 2-4.4 4.4-4.4s4.4 2 4.4 4.4 -2 4.4-4.4 4.4S1085.2 6.9 1085.2 4.5zM1089.7 8.1c2 0 3.6-1.6 3.6-3.6s-1.6-3.7-3.6-3.7 -3.6 1.7-3.6 3.7C1086 6.5 1087.7 8.1 1089.7 8.1zM1087.9 6.6V1.9h1.4c1.4 0 2.2 0.2 2.2 1.5 0 0.4-0.1 1.1-1.1 1.3l1.4 1.9h-1.1l-1.3-1.8h-0.5v1.8C1088.9 6.6 1087.9 6.6 1087.9 6.6zM1088.9 2.7v1.4h0.7c0.7 0 1-0.2 1-0.7 0-0.6-0.4-0.7-1.1-0.7C1089.5 2.7 1088.9 2.7 1088.9 2.7z"/></svg>