<?xml version="1.0" encoding="utf-8"?>
<!-- Generator: Adobe Illustrator 20.1.0, SVG Export Plug-In . SVG Version: 6.00 Build 0)  -->
<svg version="1.1" id="Layer_2" xmlns="http://www.w3.org/2000/svg" xmlns:xlink="http://www.w3.org/1999/xlink" x="0px" y="0px"
	 viewBox="0 0 294.4 105.6" style="enable-background:new 0 0 294.4 105.6;" xml:space="preserve">
<style type="text/css">
	.st0{fill:#FFFFFF;}
</style>
<g>
	<path class="st0" d="M120.7,103l-5.4-14.5c5.1-1.6,9.9-4.3,14-8.2c4.4-4.1,7.7-9,9.7-14.3l14.2,6c-2.8,7.3-7.3,14-13.4,19.7
		C134.1,97,127.5,100.7,120.7,103z"/>
	<path class="st0" d="M134.3,9.8C127.6,5,120,2,112.4,0.7l0,0c-6.9-1.2-14.1-1-21.4,0.8c-8.1,2-15.2,5.7-21.2,10.7l9.6,12.1
		c4.3-3.7,9.5-6.5,15.4-7.9c5-1.2,10.1-1.4,14.9-0.6c5.5,0.9,10.9,3,15.7,6.5c4.6,3.3,8.3,7.4,10.9,12.1l13-8.3
		C145.6,19.9,140.6,14.3,134.3,9.8z"/>
	<path class="st0" d="M67.3,92.1l9.9-11.9c3.9,3.6,8.6,6.4,14,8.1c5.8,1.8,11.6,2.2,17.2,1.3l1.8,15.3c-7.7,1.1-15.8,0.6-23.7-1.9
		C79.1,100.8,72.7,97,67.3,92.1z"/>
	<path class="st0" d="M6.8,60.8V44.9H0v-2.1h16.4v2.1H9.5v15.8H6.8z"/>
	<path class="st0" d="M18.3,60.8v-18H21v7.4h10.8v-7.4h2.7v18h-2.7v-8.5H21v8.5H18.3z"/>
	<path class="st0" d="M37.6,60.8v-18h14.9v2.1H40.3v5.5h11.4v2.1H40.3v6.1H53v2.1H37.6z"/>
	<path class="st0" d="M58.6,42.8H67l3.2,10.9l3.2-10.9h8.4v17.9h-5.2V47.1l-4.1,13.7h-4.7l-4-13.7v13.7h-5.2V42.8z"/>
	<path class="st0" d="M83.4,51.8c0-2.9,0.9-5.2,2.8-6.8c1.9-1.6,4.5-2.5,7.8-2.5c3.4,0,6.1,0.8,7.9,2.4c1.9,1.6,2.8,3.9,2.8,6.7
		c0,2.1-0.4,3.8-1.2,5.2c-0.8,1.3-2,2.4-3.5,3.1c-1.5,0.7-3.4,1.1-5.7,1.1c-2.3,0-4.3-0.3-5.8-1c-1.5-0.6-2.8-1.7-3.7-3.1
		C83.9,55.6,83.4,53.9,83.4,51.8z M89.8,51.8c0,1.8,0.4,3.1,1.2,3.9c0.8,0.8,1.8,1.2,3.2,1.2c1.4,0,2.4-0.4,3.2-1.2
		c0.7-0.8,1.1-2.2,1.1-4.2c0-1.7-0.4-2.9-1.2-3.7c-0.8-0.8-1.8-1.2-3.2-1.2c-1.3,0-2.3,0.4-3.1,1.2C90.2,48.7,89.8,50,89.8,51.8z"/>
	<path class="st0" d="M103.3,42.8h6.7l4.7,12.9l4.6-12.9h6.5L118,60.8h-6.9L103.3,42.8z"/>
	<path class="st0" d="M126.4,42.8h6.4v17.9h-6.4V42.8z"/>
	<path class="st0" d="M135.7,42.8h17.1v3.8h-10.7v2.8h10v3.7h-10v3.5h11v4.1h-17.4V42.8z"/>
	<path class="st0" d="M172.9,54.4l2.7,0.6c-0.6,2-1.6,3.4-3.1,4.5c-1.5,1-3.3,1.5-5.5,1.5c-2.2,0-4-0.4-5.4-1.2
		c-1.4-0.8-2.5-1.9-3.2-3.4c-0.7-1.5-1.1-3.1-1.1-4.8c0-1.9,0.4-3.5,1.2-4.9c0.8-1.4,2-2.5,3.5-3.2c1.5-0.7,3.2-1.1,5-1.1
		c2.1,0,3.8,0.5,5.2,1.4c1.4,0.9,2.4,2.2,3,3.9l-2.7,0.6c-0.5-1.3-1.2-2.3-2.1-2.9c-0.9-0.6-2.1-0.9-3.4-0.9c-1.6,0-2.9,0.3-4,1
		c-1.1,0.7-1.8,1.5-2.2,2.7c-0.4,1.1-0.6,2.3-0.6,3.4c0,1.5,0.3,2.9,0.8,4c0.5,1.1,1.3,2,2.4,2.6c1.1,0.6,2.3,0.8,3.5,0.8
		c1.5,0,2.8-0.4,3.9-1.1C171.8,57.1,172.5,56,172.9,54.4z"/>
	<path class="st0" d="M177.5,60.8v-18h2.7v7.4H191v-7.4h2.7v18H191v-8.5h-10.8v8.5H177.5z"/>
	<path class="st0" d="M195,60.8l7.9-18h3l8.4,18h-3.1l-2.4-5.5h-8.7l-2.2,5.5H195z M201,53.4h7l-2.2-5c-0.6-1.5-1.1-2.8-1.5-3.7
		c-0.3,1.2-0.7,2.3-1.1,3.5L201,53.4z"/>
	<path class="st0" d="M215.5,60.8v-18h2.8l10.9,14.1V42.8h2.6v18H229l-10.9-14.1v14.1H215.5z"/>
	<path class="st0" d="M234.8,60.8v-18h2.8l10.9,14.1V42.8h2.6v18h-2.8l-10.9-14.1v14.1H234.8z"/>
	<path class="st0" d="M254.8,60.8v-18h14.9v2.1h-12.2v5.5h11.4v2.1h-11.4v6.1h12.7v2.1H254.8z"/>
	<path class="st0" d="M272.9,60.8v-18h2.7v15.8h10.2v2.1H272.9z"/>
	<path class="st0" d="M290.2,44.6c1,0,1.5,0.4,1.5,1.2c0,0.5-0.3,1.1-1.2,1.3c0.6,0.4,0.7,0.4,1.4,2.1h-0.7c-0.8-1.8-1-2-2.1-2h-0.3
		v2h-0.6v-4.5H290.2z M289.6,46.7c1,0,1.4-0.2,1.4-0.8c0-0.6-0.3-0.8-1.4-0.8h-0.8v1.6H289.6z M294.4,46.8c0,2.4-1.9,4.3-4.3,4.3
		c-2.4,0-4.3-1.9-4.3-4.3c0-2.4,1.9-4.3,4.3-4.3C292.4,42.5,294.4,44.4,294.4,46.8z M286.3,46.8c0,2.1,1.7,3.7,3.7,3.7
		c2.1,0,3.7-1.7,3.7-3.7c0-2.1-1.7-3.7-3.7-3.7C288,43.1,286.3,44.7,286.3,46.8z"/>
</g>
</svg>
