<svg xmlns="http://www.w3.org/2000/svg">
<defs>
<font id="ShowtimeAtypText-Regular" horiz-adv-x="0" >
  <font-face 
    font-family="Showtime Atyp Text"
    font-weight="400"
    font-stretch="normal"
    units-per-em="1000"
    panose-1="0 0 5 0 0 0 0 0 0 0"
    ascent="800"
    descent="-200"
    x-height="506"
    cap-height="700"
    bbox="-478 -300 1937 1110"
    underline-thickness="50"
    underline-position="-100"
    stemh="68"
    stemv="75"
    unicode-range="U+0020-1F7E4"
  />
<missing-glyph horiz-adv-x="790" 
d="M100 0v590h184v55c0 35 20 55 55 55h112c35 0 55 -20 55 -55v-55h184v-590h-590zM339 590h112v55h-112v-55zM185 405c12 -8 26 -11 39 -11c22 0 41 11 41 35c0 36 -56 28 -56 42c0 6 7 9 16 9c7 0 18 -2 31 -9l4 24c-12 7 -24 9 -35 9c-22 0 -41 -11 -41 -35
c0 -37 55 -29 55 -43c0 -5 -6 -9 -15 -9s-22 4 -35 12zM293 502v-64c0 -26 16 -44 43 -44s43 18 43 44v64h-24v-64c0 -12 -7 -20 -19 -20s-19 8 -19 20v64h-24zM410 396h73l3 24h-26v58h23l3 24h-73l-3 -24h26v-58h-23zM547 396h24v82h31l3 24h-89l-3 -24h34v-82zM274 297
c0 28 -11 52 -42 52c-29 0 -45 -24 -45 -55c0 -39 23 -55 48 -55c13 0 27 4 38 12l-5 24c-14 -8 -24 -12 -33 -12c-15 0 -22 12 -22 31c0 17 6 31 19 31c14 0 16 -14 16 -31zM414 250c12 -8 26 -11 39 -11c22 0 41 11 41 35c0 36 -56 28 -56 42c0 6 7 9 16 9
c7 0 18 -2 31 -9l4 24c-12 7 -24 9 -35 9c-22 0 -41 -11 -41 -35c0 -37 55 -29 55 -43c0 -5 -6 -9 -15 -9s-22 4 -35 12zM296 241h25l5 27h32l5 -27h24l-18 106h-54zM528 241h71l3 24h-50v17h47l3 24h-50v17h47l3 24h-74v-106zM330 292l5 31h14l5 -31h-24zM220 86h24v82h31
l3 24h-89l-3 -24h34v-82zM331 86h24v31l36 75h-27l-21 -45l-20 45h-28l36 -75v-31zM416 86h24v33h19c23 0 40 16 40 36s-17 37 -40 37h-43v-106zM528 86h71l3 24h-50v17h47l3 24h-50v17h47l3 24h-74v-106zM440 143v25h19c8 0 14 -6 14 -13s-6 -12 -14 -12h-19z" />
    <glyph glyph-name="f_f" unicode="ff" horiz-adv-x="744" 
d="M138 0v438h-114v68h114v59c0 119 56 175 178 175h51v-68h-51c-74 0 -103 -30 -103 -104v-62h268v59c0 119 56 175 178 175h51v-68h-51c-74 0 -103 -30 -103 -104v-62h154v-68h-154v-438h-75v438h-268v-438h-75z" />
    <glyph glyph-name="f_f_i" unicode="ffi" horiz-adv-x="963" 
d="M899 506v-506h-75v438h-268v-438h-75v438h-268v-438h-75v438h-114v68h114v59c0 119 56 175 178 175h51v-68h-51c-74 0 -103 -30 -103 -104v-62h268v59c0 119 56 175 178 175h51v-68h-51c-74 0 -103 -30 -103 -104v-62h343zM861 608c-27 0 -48 22 -48 48c0 28 21 49 48 49
c28 0 49 -21 49 -49c0 -26 -21 -48 -49 -48z" />
    <glyph glyph-name="f_f_l" unicode="ffl" horiz-adv-x="963" 
d="M824 740h75v-740h-75v438h-268v-438h-75v438h-268v-438h-75v438h-114v68h114v59c0 119 56 175 178 175h51v-68h-51c-74 0 -103 -30 -103 -104v-62h268v59c0 119 56 175 178 175h51v-68h-51c-74 0 -103 -30 -103 -104v-62h268v234z" />
    <glyph glyph-name="f_i" unicode="fi" horiz-adv-x="620" 
d="M556 506v-506h-75v438h-268v-438h-75v438h-114v68h114v59c0 119 56 175 178 175h51v-68h-51c-74 0 -103 -30 -103 -104v-62h343zM519 608c-28 0 -49 22 -49 48c0 28 21 49 49 49c27 0 49 -21 49 -49c0 -26 -22 -48 -49 -48z" />
    <glyph glyph-name="f_l" unicode="fl" horiz-adv-x="620" 
d="M481 740h75v-740h-75v438h-268v-438h-75v438h-114v68h114v59c0 119 56 175 178 175h51v-68h-51c-74 0 -103 -30 -103 -104v-62h268v234z" />
    <glyph glyph-name=".notdef" horiz-adv-x="790" 
d="M100 0v590h184v55c0 35 20 55 55 55h112c35 0 55 -20 55 -55v-55h184v-590h-590zM339 590h112v55h-112v-55zM185 405c12 -8 26 -11 39 -11c22 0 41 11 41 35c0 36 -56 28 -56 42c0 6 7 9 16 9c7 0 18 -2 31 -9l4 24c-12 7 -24 9 -35 9c-22 0 -41 -11 -41 -35
c0 -37 55 -29 55 -43c0 -5 -6 -9 -15 -9s-22 4 -35 12zM293 502v-64c0 -26 16 -44 43 -44s43 18 43 44v64h-24v-64c0 -12 -7 -20 -19 -20s-19 8 -19 20v64h-24zM410 396h73l3 24h-26v58h23l3 24h-73l-3 -24h26v-58h-23zM547 396h24v82h31l3 24h-89l-3 -24h34v-82zM274 297
c0 28 -11 52 -42 52c-29 0 -45 -24 -45 -55c0 -39 23 -55 48 -55c13 0 27 4 38 12l-5 24c-14 -8 -24 -12 -33 -12c-15 0 -22 12 -22 31c0 17 6 31 19 31c14 0 16 -14 16 -31zM414 250c12 -8 26 -11 39 -11c22 0 41 11 41 35c0 36 -56 28 -56 42c0 6 7 9 16 9
c7 0 18 -2 31 -9l4 24c-12 7 -24 9 -35 9c-22 0 -41 -11 -41 -35c0 -37 55 -29 55 -43c0 -5 -6 -9 -15 -9s-22 4 -35 12zM296 241h25l5 27h32l5 -27h24l-18 106h-54zM528 241h71l3 24h-50v17h47l3 24h-50v17h47l3 24h-74v-106zM330 292l5 31h14l5 -31h-24zM220 86h24v82h31
l3 24h-89l-3 -24h34v-82zM331 86h24v31l36 75h-27l-21 -45l-20 45h-28l36 -75v-31zM416 86h24v33h19c23 0 40 16 40 36s-17 37 -40 37h-43v-106zM528 86h71l3 24h-50v17h47l3 24h-50v17h47l3 24h-74v-106zM440 143v25h19c8 0 14 -6 14 -13s-6 -12 -14 -12h-19z" />
    <glyph glyph-name="A" unicode="A" horiz-adv-x="719" 
d="M621 0l-80 186h-366l-80 -186h-81l304 700h83l304 -700h-84zM205 257h305l-152 354z" />
    <glyph glyph-name="Aacute" unicode="&#xc1;" horiz-adv-x="719" 
d="M521 900l-155 -151h-89l149 151h95zM621 0l-80 186h-366l-80 -186h-81l304 700h83l304 -700h-84zM205 257h305l-152 354z" />
    <glyph glyph-name="Abreve" unicode="&#x102;" horiz-adv-x="719" 
d="M360 753c-94 0 -158 56 -168 147h67c7 -52 43 -87 101 -87c57 0 93 35 100 87h67c-10 -91 -75 -147 -167 -147zM621 0l-80 186h-366l-80 -186h-81l304 700h83l304 -700h-84zM205 257h305l-152 354z" />
    <glyph glyph-name="uni1EAE" unicode="&#x1eae;" horiz-adv-x="719" 
d="M518 1094l-150 -147h-87l145 147h92zM360 753c-94 0 -158 56 -168 147h67c7 -52 43 -87 101 -87c57 0 93 35 100 87h67c-10 -91 -75 -147 -167 -147zM621 0l-80 186h-366l-80 -186h-81l304 700h83l304 -700h-84zM205 257h305l-152 354z" />
    <glyph glyph-name="uni1EB6" unicode="&#x1eb6;" horiz-adv-x="719" 
d="M360 753c-94 0 -158 56 -168 147h67c7 -52 43 -87 101 -87c57 0 93 35 100 87h67c-10 -91 -75 -147 -167 -147zM705 0h-84l-80 186h-366l-80 -186h-81l304 700h83zM205 257h305l-152 354zM359 -102c27 0 49 -21 49 -49c0 -27 -22 -49 -49 -49s-49 22 -49 49
c0 28 22 49 49 49z" />
    <glyph glyph-name="uni1EB0" unicode="&#x1eb0;" horiz-adv-x="719" 
d="M441 947h-87l-150 147h92zM360 753c-94 0 -158 56 -168 147h67c7 -52 43 -87 101 -87c57 0 93 35 100 87h67c-10 -91 -75 -147 -167 -147zM621 0l-80 186h-366l-80 -186h-81l304 700h83l304 -700h-84zM205 257h305l-152 354z" />
    <glyph glyph-name="uni1EB2" unicode="&#x1eb2;" horiz-adv-x="719" 
d="M361 1060c-31 0 -51 -24 -50 -53h-60c0 60 45 103 110 103c64 0 109 -43 109 -99c0 -54 -44 -95 -108 -112l-20 44c45 14 68 38 68 68c0 28 -21 49 -49 49zM360 753c-94 0 -158 56 -168 147h67c7 -52 43 -87 101 -87c57 0 93 35 100 87h67c-10 -91 -75 -147 -167 -147z
M621 0l-80 186h-366l-80 -186h-81l304 700h83l304 -700h-84zM205 257h305l-152 354z" />
    <glyph glyph-name="uni1EB4" unicode="&#x1eb4;" horiz-adv-x="719" 
d="M284 1022c-26 0 -45 -19 -55 -47l-51 24c16 50 55 84 106 84c76 0 102 -62 153 -62c26 0 45 18 55 47l51 -25c-17 -49 -55 -83 -106 -83c-76 0 -102 62 -153 62zM360 813c57 0 93 35 100 87h67c-10 -91 -75 -147 -167 -147c-94 0 -158 56 -168 147h67
c7 -52 43 -87 101 -87zM621 0l-80 186h-366l-80 -186h-81l304 700h83l304 -700h-84zM205 257h305l-152 354z" />
    <glyph glyph-name="uni01CD" unicode="&#x1cd;" horiz-adv-x="719" 
d="M398 749h-77l-150 151h89l100 -99l99 99h89zM621 0l-80 186h-366l-80 -186h-81l304 700h83l304 -700h-84zM205 257h305l-152 354z" />
    <glyph glyph-name="Acircumflex" unicode="&#xc2;" horiz-adv-x="719" 
d="M360 849l-100 -100h-89l150 151h77l150 -151h-89zM621 0l-80 186h-366l-80 -186h-81l304 700h83l304 -700h-84zM205 257h305l-152 354z" />
    <glyph glyph-name="uni1EA4" unicode="&#x1ea4;" horiz-adv-x="719" 
d="M720 1039l-151 -147h-86l145 147h92zM360 849l-100 -100h-89l150 151h77l150 -151h-89zM318 700h83l304 -700h-84l-80 186h-366l-80 -186h-81zM205 257h305l-152 354z" />
    <glyph glyph-name="uni1EAC" unicode="&#x1eac;" horiz-adv-x="719" 
d="M360 849l-100 -100h-89l150 151h77l150 -151h-89zM705 0h-84l-80 186h-366l-80 -186h-81l304 700h83zM205 257h305l-152 354zM359 -102c27 0 49 -21 49 -49c0 -27 -22 -49 -49 -49s-49 22 -49 49c0 28 22 49 49 49z" />
    <glyph glyph-name="uni1EA6" unicode="&#x1ea6;" horiz-adv-x="719" 
d="M642 892h-86l-151 147h92zM360 849l-100 -100h-89l150 151h77l150 -151h-89zM621 0l-80 186h-366l-80 -186h-81l304 700h83l304 -700h-84zM205 257h305l-152 354z" />
    <glyph glyph-name="uni1EA8" unicode="&#x1ea8;" horiz-adv-x="719" 
d="M536 1045c-30 0 -50 -24 -49 -53h-60c0 61 45 104 109 104c65 0 110 -43 110 -100c0 -54 -44 -95 -108 -112l-21 45c45 14 68 37 68 67c0 29 -20 49 -49 49zM360 849l-100 -100h-89l150 151h77l150 -151h-89zM621 0l-80 186h-366l-80 -186h-81l304 700h83l304 -700h-84z
M205 257h305l-152 354z" />
    <glyph glyph-name="uni1EAA" unicode="&#x1eaa;" horiz-adv-x="719" 
d="M284 1022c-26 0 -45 -19 -55 -47l-51 24c17 50 55 84 106 84c76 0 102 -62 153 -62c26 0 45 18 55 47l51 -25c-16 -49 -55 -83 -106 -83c-76 0 -102 62 -153 62zM360 849l-100 -100h-89l150 151h77l150 -151h-89zM621 0l-80 186h-366l-80 -186h-81l304 700h83l304 -700
h-84zM205 257h305l-152 354z" />
    <glyph glyph-name="Adieresis" unicode="&#xc4;" horiz-adv-x="719" 
d="M251 778c-27 0 -48 21 -48 47s21 48 48 48c26 0 47 -22 47 -48s-21 -47 -47 -47zM469 778c-26 0 -47 21 -47 47s21 48 47 48c27 0 48 -22 48 -48s-21 -47 -48 -47zM621 0l-80 186h-366l-80 -186h-81l304 700h83l304 -700h-84zM205 257h305l-152 354z" />
    <glyph glyph-name="uni1EA0" unicode="&#x1ea0;" horiz-adv-x="719" 
d="M705 0h-84l-80 186h-366l-80 -186h-81l304 700h83zM205 257h305l-152 354zM359 -102c27 0 49 -21 49 -49c0 -27 -22 -49 -49 -49s-49 22 -49 49c0 28 22 49 49 49z" />
    <glyph glyph-name="Agrave" unicode="&#xc0;" horiz-adv-x="719" 
d="M441 749h-89l-155 151h95zM621 0l-80 186h-366l-80 -186h-81l304 700h83l304 -700h-84zM205 257h305l-152 354z" />
    <glyph glyph-name="uni1EA2" unicode="&#x1ea2;" horiz-adv-x="719" 
d="M359 907c-32 0 -52 -25 -51 -55h-62c0 63 47 107 113 107s113 -44 113 -103c0 -55 -45 -97 -111 -115l-21 46c46 14 70 39 70 69s-22 51 -51 51zM621 0l-80 186h-366l-80 -186h-81l304 700h83l304 -700h-84zM205 257h305l-152 354z" />
    <glyph glyph-name="Amacron" unicode="&#x100;" horiz-adv-x="719" 
d="M517 856v-62h-316v62h316zM621 0l-80 186h-366l-80 -186h-81l304 700h83l304 -700h-84zM205 257h305l-152 354z" />
    <glyph glyph-name="Aogonek" unicode="&#x104;" horiz-adv-x="719" 
d="M747 -195c-22 -9 -49 -15 -73 -15c-73 0 -110 42 -110 95c0 45 21 84 56 117l-79 184h-366l-80 -186h-81l304 700h83l304 -700h-15c-36 -29 -53 -62 -53 -94c0 -28 19 -50 53 -50c20 0 33 3 53 11zM205 257h305l-152 354z" />
    <glyph glyph-name="Aring" unicode="&#xc5;" horiz-adv-x="719" 
d="M359 728c-62 0 -110 44 -110 103s48 104 110 104c63 0 110 -45 110 -104s-47 -103 -110 -103zM359 885c-30 0 -54 -23 -54 -54c0 -30 24 -53 54 -53s54 23 54 53c0 31 -24 54 -54 54zM621 0l-80 186h-366l-80 -186h-81l304 700h83l304 -700h-84zM205 257h305l-152 354z
" />
    <glyph glyph-name="Atilde" unicode="&#xc3;" horiz-adv-x="719" 
d="M281 825c-27 0 -47 -18 -58 -48l-52 25c17 51 57 86 110 86c77 0 104 -63 157 -63c27 0 46 18 57 48l52 -25c-17 -51 -56 -86 -109 -86c-78 0 -105 63 -157 63zM621 0l-80 186h-366l-80 -186h-81l304 700h83l304 -700h-84zM205 257h305l-152 354z" />
    <glyph glyph-name="AE" unicode="&#xc6;" horiz-adv-x="972" 
d="M925 629h-353v-244h343v-70h-343v-244h353v-71h-431v186h-290l-121 -186h-89l457 700h474v-71zM250 257h244v374z" />
    <glyph glyph-name="AEacute" unicode="&#x1fc;" horiz-adv-x="972" 
d="M695 900l-155 -151h-89l149 151h95zM925 629h-353v-244h343v-70h-343v-244h353v-71h-431v186h-290l-121 -186h-89l457 700h474v-71zM250 257h244v374z" />
    <glyph glyph-name="B" unicode="B" horiz-adv-x="622" 
d="M459 357c71 -28 116 -92 116 -170c0 -106 -83 -187 -201 -187h-310v700h280c118 0 201 -81 201 -187c0 -67 -33 -123 -86 -156zM141 631v-247h198c78 0 132 54 132 124c0 69 -54 123 -132 123h-198zM365 69c77 0 131 55 131 124c0 70 -54 123 -131 123h-224v-247h224z
" />
    <glyph glyph-name="C" unicode="C" horiz-adv-x="771" 
d="M44 350c0 203 158 360 363 360c155 0 271 -94 320 -202l-71 -30c-43 92 -135 160 -249 160c-159 0 -283 -126 -283 -288s124 -288 283 -288c114 0 206 68 249 160l71 -30c-49 -108 -165 -202 -320 -202c-205 0 -363 157 -363 360z" />
    <glyph glyph-name="Cacute" unicode="&#x106;" horiz-adv-x="771" 
d="M325 749l149 151h95l-155 -151h-89zM44 350c0 203 158 360 363 360c155 0 271 -94 320 -202l-71 -30c-43 92 -135 160 -249 160c-159 0 -283 -126 -283 -288s124 -288 283 -288c114 0 206 68 249 160l71 -30c-49 -108 -165 -202 -320 -202c-205 0 -363 157 -363 360z" />
    <glyph glyph-name="Ccaron" unicode="&#x10c;" horiz-adv-x="771" 
d="M445 749h-77l-150 151h89l100 -99l99 99h89zM407 62c114 0 206 68 249 160l71 -30c-49 -108 -165 -202 -320 -202c-205 0 -363 157 -363 360s158 360 363 360c155 0 271 -94 320 -202l-71 -30c-43 92 -135 160 -249 160c-159 0 -283 -126 -283 -288s124 -288 283 -288z
" />
    <glyph glyph-name="Ccedilla" unicode="&#xc7;" horiz-adv-x="771" 
d="M407 62c114 0 206 68 249 160l71 -30c-45 -99 -146 -186 -281 -200c25 -29 38 -62 38 -92c0 -63 -50 -110 -133 -110c-17 0 -35 2 -56 7l6 63c14 -3 27 -4 38 -4c48 0 72 25 72 57c0 25 -15 56 -47 79c-184 20 -320 169 -320 358c0 203 158 360 363 360
c155 0 271 -94 320 -202l-71 -30c-43 92 -135 160 -249 160c-159 0 -283 -126 -283 -288s124 -288 283 -288z" />
    <glyph glyph-name="Ccircumflex" unicode="&#x108;" horiz-adv-x="771" 
d="M407 849l-100 -100h-89l150 151h77l150 -151h-89zM407 62c114 0 206 68 249 160l71 -30c-49 -108 -165 -202 -320 -202c-205 0 -363 157 -363 360s158 360 363 360c155 0 271 -94 320 -202l-71 -30c-43 92 -135 160 -249 160c-159 0 -283 -126 -283 -288
s124 -288 283 -288z" />
    <glyph glyph-name="Cdotaccent" unicode="&#x10a;" horiz-adv-x="771" 
d="M358 825c0 27 22 49 49 49s49 -22 49 -49s-22 -49 -49 -49s-49 22 -49 49zM44 350c0 203 158 360 363 360c155 0 271 -94 320 -202l-71 -30c-43 92 -135 160 -249 160c-159 0 -283 -126 -283 -288s124 -288 283 -288c114 0 206 68 249 160l71 -30
c-49 -108 -165 -202 -320 -202c-205 0 -363 157 -363 360z" />
    <glyph glyph-name="D" unicode="D" horiz-adv-x="709" 
d="M64 0v700h247c202 0 354 -152 354 -350s-152 -350 -354 -350h-247zM142 71h164c160 0 279 120 279 279c0 160 -119 279 -279 279h-164v-558z" />
    <glyph glyph-name="uni01F1" unicode="&#x1f1;" horiz-adv-x="1251" 
d="M311 700c202 0 354 -152 354 -350s-152 -350 -354 -350h-247v700h247zM1202 700v-63l-389 -566h389v-71h-485v63l389 566h-389v71h485zM306 71c160 0 279 120 279 279c0 160 -119 279 -279 279h-164v-558h164z" />
    <glyph glyph-name="uni01C4" unicode="&#x1c4;" horiz-adv-x="1251" 
d="M998 749h-77l-150 151h89l100 -99l99 99h89zM311 700c202 0 354 -152 354 -350s-152 -350 -354 -350h-247v700h247zM1202 700v-63l-389 -566h389v-71h-485v63l389 566h-389v71h485zM306 71c160 0 279 120 279 279c0 160 -119 279 -279 279h-164v-558h164z" />
    <glyph glyph-name="Eth" unicode="&#xd0;" horiz-adv-x="759" 
d="M361 700c202 0 354 -152 354 -350s-152 -350 -354 -350h-247v319h-92v62h92v319h247zM356 71c160 0 279 120 279 279c0 160 -119 279 -279 279h-164v-248h146v-62h-146v-248h164z" />
    <glyph glyph-name="Dcaron" unicode="&#x10e;" horiz-adv-x="709" 
d="M343 749h-77l-150 151h89l100 -99l99 99h89zM311 700c202 0 354 -152 354 -350s-152 -350 -354 -350h-247v700h247zM306 71c160 0 279 120 279 279c0 160 -119 279 -279 279h-164v-558h164z" />
    <glyph glyph-name="Dcroat" unicode="&#x110;" horiz-adv-x="759" 
d="M361 700c202 0 354 -152 354 -350s-152 -350 -354 -350h-247v319h-92v62h92v319h247zM356 71c160 0 279 120 279 279c0 160 -119 279 -279 279h-164v-248h146v-62h-146v-248h164z" />
    <glyph glyph-name="uni01F2" unicode="&#x1f3;" horiz-adv-x="1209" 
d="M311 700c202 0 354 -152 354 -350s-152 -350 -354 -350h-247v700h247zM306 71c160 0 279 120 279 279c0 160 -119 279 -279 279h-164v-558h164zM1159 506v-64l-324 -374h324v-68h-419v63l325 375h-325v68h419z" />
    <glyph glyph-name="uni01F2" unicode="&#x1f2;" horiz-adv-x="1209" 
d="M311 700c202 0 354 -152 354 -350s-152 -350 -354 -350h-247v700h247zM306 71c160 0 279 120 279 279c0 160 -119 279 -279 279h-164v-558h164zM1159 506v-64l-324 -374h324v-68h-419v63l325 375h-325v68h419z" />
    <glyph glyph-name="uni01C5" unicode="&#x1c6;" horiz-adv-x="1209" 
d="M992 576h-86l-113 160h77l80 -108l79 108h76zM311 700c202 0 354 -152 354 -350s-152 -350 -354 -350h-247v700h247zM306 71c160 0 279 120 279 279c0 160 -119 279 -279 279h-164v-558h164zM1159 506v-64l-324 -374h324v-68h-419v63l325 375h-325v68h419z" />
    <glyph glyph-name="uni01C5" unicode="&#x1c5;" horiz-adv-x="1209" 
d="M992 576h-86l-113 160h77l80 -108l79 108h76zM311 700c202 0 354 -152 354 -350s-152 -350 -354 -350h-247v700h247zM306 71c160 0 279 120 279 279c0 160 -119 279 -279 279h-164v-558h164zM1159 506v-64l-324 -374h324v-68h-419v63l325 375h-325v68h419z" />
    <glyph glyph-name="E" unicode="E" horiz-adv-x="542" 
d="M64 0v700h431v-71h-353v-244h343v-70h-343v-244h353v-71h-431z" />
    <glyph glyph-name="Eacute" unicode="&#xc9;" horiz-adv-x="542" 
d="M189 749l149 151h95l-155 -151h-89zM64 0v700h431v-71h-353v-244h343v-70h-343v-244h353v-71h-431z" />
    <glyph glyph-name="Ebreve" unicode="&#x114;" horiz-adv-x="542" 
d="M170 900c7 -52 43 -87 101 -87c57 0 93 35 100 87h67c-10 -91 -75 -147 -167 -147c-94 0 -158 56 -168 147h67zM64 0v700h431v-71h-353v-244h343v-70h-343v-244h353v-71h-431z" />
    <glyph glyph-name="Ecaron" unicode="&#x11a;" horiz-adv-x="542" 
d="M309 749h-77l-150 151h89l100 -99l99 99h89zM495 629h-353v-244h343v-70h-343v-244h353v-71h-431v700h431v-71z" />
    <glyph glyph-name="Ecircumflex" unicode="&#xca;" horiz-adv-x="542" 
d="M271 849l-100 -100h-89l150 151h77l150 -151h-89zM495 629h-353v-244h343v-70h-343v-244h353v-71h-431v700h431v-71z" />
    <glyph glyph-name="uni1EBE" unicode="&#x1ebe;" horiz-adv-x="542" 
d="M631 1039l-151 -147h-86l145 147h92zM271 849l-100 -100h-89l150 151h77l150 -151h-89zM64 0v700h431v-71h-353v-244h343v-70h-343v-244h353v-71h-431z" />
    <glyph glyph-name="uni1EC6" unicode="&#x1ec6;" horiz-adv-x="542" 
d="M271 849l-100 -100h-89l150 151h77l150 -151h-89zM495 629h-353v-244h343v-70h-343v-244h353v-71h-431v700h431v-71zM271 -102c27 0 49 -21 49 -49c0 -27 -22 -49 -49 -49s-49 22 -49 49c0 28 22 49 49 49z" />
    <glyph glyph-name="uni1EC0" unicode="&#x1ec0;" horiz-adv-x="542" 
d="M553 892h-86l-151 147h92zM271 849l-100 -100h-89l150 151h77l150 -151h-89zM64 0v700h431v-71h-353v-244h343v-70h-343v-244h353v-71h-431z" />
    <glyph glyph-name="uni1EC2" unicode="&#x1ec2;" horiz-adv-x="542" 
d="M447 1096c65 0 110 -43 110 -100c0 -54 -44 -95 -108 -112l-21 45c45 14 68 37 68 67c0 29 -20 49 -49 49c-30 0 -50 -24 -49 -53h-60c0 61 45 104 109 104zM271 849l-100 -100h-89l150 151h77l150 -151h-89zM64 0v700h431v-71h-353v-244h343v-70h-343v-244h353v-71h-431
z" />
    <glyph glyph-name="uni1EC4" unicode="&#x1ec4;" horiz-adv-x="542" 
d="M195 1022c-26 0 -45 -19 -55 -47l-51 24c17 50 55 84 106 84c76 0 102 -62 153 -62c26 0 45 18 55 47l51 -25c-16 -49 -55 -83 -106 -83c-76 0 -102 62 -153 62zM271 849l-100 -100h-89l150 151h77l150 -151h-89zM495 629h-353v-244h343v-70h-343v-244h353v-71h-431v700
h431v-71z" />
    <glyph glyph-name="Edieresis" unicode="&#xcb;" horiz-adv-x="542" 
d="M114 825c0 26 21 48 48 48c26 0 47 -22 47 -48s-21 -47 -47 -47c-27 0 -48 21 -48 47zM333 825c0 26 21 48 47 48c27 0 48 -22 48 -48s-21 -47 -48 -47c-26 0 -47 21 -47 47zM64 0v700h431v-71h-353v-244h343v-70h-343v-244h353v-71h-431z" />
    <glyph glyph-name="Edotaccent" unicode="&#x116;" horiz-adv-x="542" 
d="M222 825c0 27 22 49 49 49s49 -22 49 -49s-22 -49 -49 -49s-49 22 -49 49zM64 0v700h431v-71h-353v-244h343v-70h-343v-244h353v-71h-431z" />
    <glyph glyph-name="uni1EB8" unicode="&#x1eb8;" horiz-adv-x="542" 
d="M64 0v700h431v-71h-353v-244h343v-70h-343v-244h353v-71h-431zM222 -151c0 28 22 49 49 49s49 -21 49 -49c0 -27 -22 -49 -49 -49s-49 22 -49 49z" />
    <glyph glyph-name="Egrave" unicode="&#xc8;" horiz-adv-x="542" 
d="M264 749l-155 151h95l149 -151h-89zM64 0v700h431v-71h-353v-244h343v-70h-343v-244h353v-71h-431z" />
    <glyph glyph-name="uni1EBA" unicode="&#x1eba;" horiz-adv-x="542" 
d="M252 787c46 14 70 39 70 69s-22 51 -51 51c-32 0 -52 -25 -51 -55h-62c0 63 47 107 113 107s113 -44 113 -103c0 -55 -45 -97 -111 -115zM64 0v700h431v-71h-353v-244h343v-70h-343v-244h353v-71h-431z" />
    <glyph glyph-name="Emacron" unicode="&#x112;" horiz-adv-x="542" 
d="M113 794v62h316v-62h-316zM64 0v700h431v-71h-353v-244h343v-70h-343v-244h353v-71h-431z" />
    <glyph glyph-name="Eogonek" unicode="&#x118;" horiz-adv-x="542" 
d="M552 -195c-22 -9 -49 -15 -73 -15c-73 0 -110 42 -110 95c0 44 20 82 53 115h-358v700h431v-71h-353v-244h343v-70h-343v-244h353v-71c-36 -29 -53 -62 -53 -94c0 -28 19 -50 53 -50c20 0 33 3 53 11z" />
    <glyph glyph-name="uni1EBC" unicode="&#x1ebc;" horiz-adv-x="542" 
d="M83 802c17 51 57 86 110 86c77 0 104 -63 157 -63c27 0 46 18 57 48l52 -25c-17 -51 -56 -86 -109 -86c-78 0 -105 63 -157 63c-27 0 -47 -18 -58 -48zM64 0v700h431v-71h-353v-244h343v-70h-343v-244h353v-71h-431z" />
    <glyph glyph-name="uni01B7" unicode="&#x1b7;" horiz-adv-x="602" 
d="M312 398c151 -8 243 -79 243 -199c0 -130 -121 -209 -252 -209c-98 0 -200 35 -266 109l48 55c59 -62 145 -92 218 -92c100 0 173 59 173 137c0 94 -83 135 -201 135h-57v63l223 232h-359v71h459v-63z" />
    <glyph glyph-name="uni01EE" unicode="&#x1ee;" horiz-adv-x="602" 
d="M341 749h-77l-150 151h89l100 -99l99 99h89zM312 398c151 -8 243 -79 243 -199c0 -130 -121 -209 -252 -209c-98 0 -200 35 -266 109l48 55c59 -62 145 -92 218 -92c100 0 173 59 173 137c0 94 -83 135 -201 135h-57v63l223 232h-359v71h459v-63z" />
    <glyph glyph-name="F" unicode="F" horiz-adv-x="502" 
d="M64 0v700h411v-71h-333v-249h323v-71h-323v-309h-78z" />
    <glyph glyph-name="G" unicode="G" horiz-adv-x="814" 
d="M760 378c16 -227 -155 -388 -353 -388c-205 0 -363 157 -363 360s158 360 363 360c155 0 271 -94 320 -202l-71 -30c-43 92 -135 160 -249 160c-159 0 -283 -126 -283 -288s124 -288 283 -288c151 0 259 113 269 245h-324v71h408z" />
    <glyph glyph-name="uni01F4" unicode="&#x1f4;" horiz-adv-x="814" 
d="M569 900l-155 -151h-89l149 151h95zM760 378c16 -227 -155 -388 -353 -388c-205 0 -363 157 -363 360s158 360 363 360c155 0 271 -94 320 -202l-71 -30c-43 92 -135 160 -249 160c-159 0 -283 -126 -283 -288s124 -288 283 -288c151 0 259 113 269 245h-324v71h408z" />
    <glyph glyph-name="Gbreve" unicode="&#x11e;" horiz-adv-x="814" 
d="M408 753c-94 0 -158 56 -168 147h67c7 -52 43 -87 101 -87c57 0 93 35 100 87h67c-10 -91 -75 -147 -167 -147zM760 378c16 -227 -155 -388 -353 -388c-205 0 -363 157 -363 360s158 360 363 360c155 0 271 -94 320 -202l-71 -30c-43 92 -135 160 -249 160
c-159 0 -283 -126 -283 -288s124 -288 283 -288c151 0 259 113 269 245h-324v71h408z" />
    <glyph glyph-name="Gcaron" unicode="&#x1e6;" horiz-adv-x="814" 
d="M445 749h-77l-150 151h89l100 -99l99 99h89zM760 378c16 -227 -155 -388 -353 -388c-205 0 -363 157 -363 360s158 360 363 360c155 0 271 -94 320 -202l-71 -30c-43 92 -135 160 -249 160c-159 0 -283 -126 -283 -288s124 -288 283 -288c151 0 259 113 269 245h-324v71
h408z" />
    <glyph glyph-name="Gcircumflex" unicode="&#x11c;" horiz-adv-x="814" 
d="M407 849l-100 -100h-89l150 151h77l150 -151h-89zM760 378c16 -227 -155 -388 -353 -388c-205 0 -363 157 -363 360s158 360 363 360c155 0 271 -94 320 -202l-71 -30c-43 92 -135 160 -249 160c-159 0 -283 -126 -283 -288s124 -288 283 -288c151 0 259 113 269 245
h-324v71h408z" />
    <glyph glyph-name="uni0122" unicode="&#x122;" horiz-adv-x="814" 
d="M760 378c16 -227 -155 -388 -353 -388c-205 0 -363 157 -363 360s158 360 363 360c155 0 271 -94 320 -202l-71 -30c-43 92 -135 160 -249 160c-159 0 -283 -126 -283 -288s124 -288 283 -288c151 0 259 113 269 245h-324v71h408zM353 -210l35 154h74l-45 -154h-64z" />
    <glyph glyph-name="Gdotaccent" unicode="&#x120;" horiz-adv-x="814" 
d="M407 776c-27 0 -49 22 -49 49s22 49 49 49s49 -22 49 -49s-22 -49 -49 -49zM760 378c16 -227 -155 -388 -353 -388c-205 0 -363 157 -363 360s158 360 363 360c155 0 271 -94 320 -202l-71 -30c-43 92 -135 160 -249 160c-159 0 -283 -126 -283 -288s124 -288 283 -288
c151 0 259 113 269 245h-324v71h408z" />
    <glyph glyph-name="H" unicode="H" horiz-adv-x="713" 
d="M64 0v700h78v-315h429v315h78v-700h-78v315h-429v-315h-78z" />
    <glyph glyph-name="Hbar" unicode="&#x126;" horiz-adv-x="713" 
d="M720 574v-62h-71v-512h-78v315h-429v-315h-78v512h-71v62h71v126h78v-126h429v126h78v-126h71zM571 385v127h-429v-127h429z" />
    <glyph glyph-name="Hcircumflex" unicode="&#x124;" horiz-adv-x="713" 
d="M357 849l-100 -100h-89l150 151h77l150 -151h-89zM571 700h78v-700h-78v315h-429v-315h-78v700h78v-315h429v315z" />
    <glyph glyph-name="I" unicode="I" horiz-adv-x="206" 
d="M64 0v700h78v-700h-78z" />
    <glyph glyph-name="IJ" unicode="&#x132;" horiz-adv-x="720" 
d="M64 0v700h78v-700h-78zM312 191c6 -88 65 -129 137 -129c89 0 138 67 138 155v483h78v-483c0 -133 -85 -227 -217 -227c-115 0 -204 68 -214 190z" />
    <glyph glyph-name="Iacute" unicode="&#xcd;" horiz-adv-x="206" 
d="M21 749l149 151h95l-155 -151h-89zM64 0v700h78v-700h-78z" />
    <glyph glyph-name="Ibreve" unicode="&#x12c;" horiz-adv-x="206" 
d="M3 900c7 -52 43 -87 101 -87c57 0 93 35 100 87h67c-10 -91 -75 -147 -167 -147c-94 0 -158 56 -168 147h67zM64 0v700h78v-700h-78z" />
    <glyph glyph-name="uni01CF" unicode="&#x1cf;" horiz-adv-x="206" 
d="M141 749h-77l-150 151h89l100 -99l99 99h89zM64 0v700h78v-700h-78z" />
    <glyph glyph-name="Icircumflex" unicode="&#xce;" horiz-adv-x="206" 
d="M141 900l150 -151h-89l-99 100l-100 -100h-89l150 151h77zM64 0v700h78v-700h-78z" />
    <glyph glyph-name="Idieresis" unicode="&#xcf;" horiz-adv-x="206" 
d="M-35 825c0 26 21 48 47 48c27 0 48 -22 48 -48s-21 -47 -48 -47c-26 0 -47 21 -47 47zM146 825c0 26 22 48 48 48s47 -22 47 -48s-21 -47 -47 -47s-48 21 -48 47zM64 0v700h78v-700h-78z" />
    <glyph glyph-name="Idotaccent" unicode="&#x130;" horiz-adv-x="206" 
d="M54 825c0 27 22 49 49 49s49 -22 49 -49s-22 -49 -49 -49s-49 22 -49 49zM64 0v700h78v-700h-78z" />
    <glyph glyph-name="uni1ECA" unicode="&#x1eca;" horiz-adv-x="206" 
d="M64 0v700h78v-700h-78zM54 -151c0 28 22 49 49 49s49 -21 49 -49c0 -27 -22 -49 -49 -49s-49 22 -49 49z" />
    <glyph glyph-name="Igrave" unicode="&#xcc;" horiz-adv-x="206" 
d="M96 749l-155 151h95l149 -151h-89zM64 0v700h78v-700h-78z" />
    <glyph glyph-name="uni1EC8" unicode="&#x1ec8;" horiz-adv-x="206" 
d="M84 787c46 14 70 39 70 69s-22 51 -51 51c-32 0 -52 -25 -51 -55h-62c0 63 47 107 113 107s113 -44 113 -103c0 -55 -45 -97 -111 -115zM64 0v700h78v-700h-78z" />
    <glyph glyph-name="Imacron" unicode="&#x12a;" horiz-adv-x="206" 
d="M-21 794v62h248v-62h-248zM64 0v700h78v-700h-78z" />
    <glyph glyph-name="Iogonek" unicode="&#x12e;" horiz-adv-x="206" 
d="M195 -195c-22 -9 -49 -15 -73 -15c-73 0 -110 42 -110 95c0 44 20 82 53 115h-1v700h78v-700h-4c-36 -29 -53 -62 -53 -94c0 -28 19 -50 53 -50c20 0 33 3 53 11z" />
    <glyph glyph-name="Itilde" unicode="&#x128;" horiz-adv-x="206" 
d="M-85 802c17 51 57 86 110 86c77 0 104 -63 157 -63c27 0 46 18 57 48l52 -25c-17 -51 -56 -86 -109 -86c-78 0 -105 63 -157 63c-28 0 -47 -18 -58 -48zM64 0v700h78v-700h-78z" />
    <glyph glyph-name="J" unicode="J" horiz-adv-x="513" 
d="M106 191c6 -88 65 -129 137 -129c89 0 138 67 138 155v483h78v-483c0 -133 -85 -227 -217 -227c-115 0 -204 68 -214 190z" />
    <glyph glyph-name="Jcircumflex" unicode="&#x134;" horiz-adv-x="513" 
d="M459 900l150 -151h-89l-99 100l-100 -100h-89l150 151h77zM381 700h78v-483c0 -133 -85 -227 -217 -227c-115 0 -204 68 -214 190l78 11c6 -88 65 -129 137 -129c89 0 138 67 138 155v483z" />
    <glyph glyph-name="K" unicode="K" horiz-adv-x="633" 
d="M626 0h-95l-274 354l-115 -122v-232h-78v700h78v-362l342 362h98l-271 -288z" />
    <glyph glyph-name="uni01E8" unicode="&#x1e8;" horiz-adv-x="633" 
d="M328 749h-77l-150 151h89l100 -99l99 99h89zM626 0h-95l-274 354l-115 -122v-232h-78v700h78v-362l342 362h98l-271 -288z" />
    <glyph glyph-name="uni0136" unicode="&#x136;" horiz-adv-x="633" 
d="M311 412l315 -412h-95l-274 354l-115 -122v-232h-78v700h78v-362l342 362h98zM245 -210l35 154h74l-45 -154h-64z" />
    <glyph glyph-name="L" unicode="L" horiz-adv-x="515" 
d="M64 0v700h78v-629h353v-71h-431z" />
    <glyph glyph-name="uni01C7" unicode="&#x1c7;" horiz-adv-x="1003" 
d="M64 0v700h78v-629h353v-71h-431zM596 191c6 -88 65 -129 137 -129c89 0 138 67 138 155v483h78v-483c0 -133 -85 -227 -217 -227c-115 0 -204 68 -214 190z" />
    <glyph glyph-name="Lacute" unicode="&#x139;" horiz-adv-x="515" 
d="M21 749l149 151h95l-155 -151h-89zM64 0v700h78v-629h353v-71h-431z" />
    <glyph glyph-name="Lcaron" unicode="&#x13d;" horiz-adv-x="515" 
d="M236 575l35 188h72l-45 -188h-62zM64 0v700h78v-629h353v-71h-431z" />
    <glyph glyph-name="uni013B" unicode="&#x13b;" horiz-adv-x="515" 
d="M64 0v700h78v-629h353v-71h-431zM203 -210l35 154h74l-45 -154h-64z" />
    <glyph glyph-name="Ldot" unicode="&#x13f;" horiz-adv-x="515" 
d="M64 0v700h78v-629h353v-71h-431zM267 350c0 29 23 52 52 52s52 -23 52 -52c0 -28 -23 -52 -52 -52s-52 24 -52 52z" />
    <glyph glyph-name="uni01C8" unicode="&#x1c9;" horiz-adv-x="738" 
d="M588 656c0 28 21 49 49 49c27 0 49 -21 49 -49c0 -26 -22 -48 -49 -48c-28 0 -49 22 -49 48zM64 0v700h78v-629h353v-71h-431zM504 -139c73 -3 95 21 95 92v553h75v-553c0 -95 -39 -167 -170 -159v67z" />
    <glyph glyph-name="uni01C8" unicode="&#x1c8;" horiz-adv-x="738" 
d="M588 656c0 28 21 49 49 49c27 0 49 -21 49 -49c0 -26 -22 -48 -49 -48c-28 0 -49 22 -49 48zM64 0v700h78v-629h353v-71h-431zM504 -139c73 -3 95 21 95 92v553h75v-553c0 -95 -39 -167 -170 -159v67z" />
    <glyph glyph-name="Lslash" unicode="&#x141;" horiz-adv-x="535" 
d="M162 71h353v-71h-431v295l-84 -25v65l84 25v340h78v-316l259 78v-65l-259 -78v-248z" />
    <glyph glyph-name="M" unicode="M" horiz-adv-x="842" 
d="M772 0h-75v580l-246 -580h-66l-246 580v-580h-75v700h102l254 -594l253 594h99v-700z" />
    <glyph glyph-name="N" unicode="N" horiz-adv-x="719" 
d="M577 700h78v-700h-77l-436 572v-572h-78v700h77l436 -572v572z" />
    <glyph glyph-name="uni01CA" unicode="&#x1ca;" horiz-adv-x="1232" 
d="M577 128v572h78v-700h-77l-436 572v-572h-78v700h77zM1100 700h78v-483c0 -133 -85 -227 -217 -227c-115 0 -204 68 -214 190l78 11c6 -88 65 -129 137 -129c89 0 138 67 138 155v483z" />
    <glyph glyph-name="Nacute" unicode="&#x143;" horiz-adv-x="719" 
d="M521 900l-155 -151h-89l149 151h95zM577 700h78v-700h-77l-436 572v-572h-78v700h77l436 -572v572z" />
    <glyph glyph-name="Ncaron" unicode="&#x147;" horiz-adv-x="719" 
d="M398 749h-77l-150 151h89l100 -99l99 99h89zM577 700h78v-700h-77l-436 572v-572h-78v700h77l436 -572v572z" />
    <glyph glyph-name="uni0145" unicode="&#x145;" horiz-adv-x="719" 
d="M577 700h78v-700h-77l-436 572v-572h-78v700h77l436 -572v572zM305 -210l35 154h74l-45 -154h-64z" />
    <glyph glyph-name="Eng" unicode="&#x14a;" horiz-adv-x="719" 
d="M64 0v700h77l436 -571v571h78v-747c0 -95 -39 -167 -171 -159v67c74 -3 95 24 95 85v53l-437 572v-571h-78z" />
    <glyph glyph-name="uni019D" unicode="&#x19d;" horiz-adv-x="719" 
d="M577 700h78v-700h-77l-436 572v-619c0 -95 -39 -167 -171 -159v67c71 -3 93 21 93 92v747h77l436 -572v572z" />
    <glyph glyph-name="uni01CB" unicode="&#x1cc;" horiz-adv-x="942" 
d="M841 608c-28 0 -49 22 -49 48c0 28 21 49 49 49c27 0 49 -21 49 -49c0 -26 -22 -48 -49 -48zM577 128v572h78v-700h-77l-436 572v-572h-78v700h77zM803 506h75v-553c0 -95 -39 -167 -170 -159v67c73 -3 95 21 95 92v553z" />
    <glyph glyph-name="uni01CB" unicode="&#x1cb;" horiz-adv-x="942" 
d="M841 608c-28 0 -49 22 -49 48c0 28 21 49 49 49c27 0 49 -21 49 -49c0 -26 -22 -48 -49 -48zM577 128v572h78v-700h-77l-436 572v-572h-78v700h77zM803 506h75v-553c0 -95 -39 -167 -170 -159v67c73 -3 95 21 95 92v553z" />
    <glyph glyph-name="Ntilde" unicode="&#xd1;" horiz-adv-x="719" 
d="M281 825c-27 0 -47 -18 -58 -48l-52 25c17 51 57 86 110 86c77 0 104 -63 157 -63c27 0 46 18 57 48l52 -25c-17 -51 -56 -86 -109 -86c-78 0 -105 63 -157 63zM577 700h78v-700h-77l-436 572v-572h-78v700h77l436 -572v572z" />
    <glyph glyph-name="O" unicode="O" horiz-adv-x="814" 
d="M44 350c0 203 158 360 363 360s363 -157 363 -360s-158 -360 -363 -360s-363 157 -363 360zM124 350c0 -162 124 -288 283 -288c160 0 283 126 283 288s-123 288 -283 288c-159 0 -283 -126 -283 -288z" />
    <glyph glyph-name="Oacute" unicode="&#xd3;" horiz-adv-x="814" 
d="M325 749l149 151h95l-155 -151h-89zM44 350c0 203 158 360 363 360s363 -157 363 -360s-158 -360 -363 -360s-363 157 -363 360zM124 350c0 -162 124 -288 283 -288c160 0 283 126 283 288s-123 288 -283 288c-159 0 -283 -126 -283 -288z" />
    <glyph glyph-name="Obreve" unicode="&#x14e;" horiz-adv-x="814" 
d="M307 900c7 -52 43 -87 101 -87c57 0 93 35 100 87h67c-10 -91 -75 -147 -167 -147c-94 0 -158 56 -168 147h67zM44 350c0 203 158 360 363 360s363 -157 363 -360s-158 -360 -363 -360s-363 157 -363 360zM124 350c0 -162 124 -288 283 -288c160 0 283 126 283 288
s-123 288 -283 288c-159 0 -283 -126 -283 -288z" />
    <glyph glyph-name="uni01D1" unicode="&#x1d1;" horiz-adv-x="814" 
d="M445 749h-77l-150 151h89l100 -99l99 99h89zM407 710c205 0 363 -157 363 -360s-158 -360 -363 -360s-363 157 -363 360s158 360 363 360zM407 62c160 0 283 126 283 288s-123 288 -283 288c-159 0 -283 -126 -283 -288s124 -288 283 -288z" />
    <glyph glyph-name="Ocircumflex" unicode="&#xd4;" horiz-adv-x="814" 
d="M407 849l-100 -100h-89l150 151h77l150 -151h-89zM407 710c205 0 363 -157 363 -360s-158 -360 -363 -360s-363 157 -363 360s158 360 363 360zM407 62c160 0 283 126 283 288s-123 288 -283 288c-159 0 -283 -126 -283 -288s124 -288 283 -288z" />
    <glyph glyph-name="uni1ED0" unicode="&#x1ed0;" horiz-adv-x="814" 
d="M767 1039l-151 -147h-86l145 147h92zM407 849l-100 -100h-89l150 151h77l150 -151h-89zM407 710c205 0 363 -157 363 -360s-158 -360 -363 -360s-363 157 -363 360s158 360 363 360zM407 62c160 0 283 126 283 288s-123 288 -283 288c-159 0 -283 -126 -283 -288
s124 -288 283 -288z" />
    <glyph glyph-name="uni1ED8" unicode="&#x1ed8;" horiz-adv-x="814" 
d="M407 849l-100 -100h-89l150 151h77l150 -151h-89zM407 710c205 0 363 -157 363 -360s-158 -360 -363 -360s-363 157 -363 360s158 360 363 360zM407 62c160 0 283 126 283 288s-123 288 -283 288c-159 0 -283 -126 -283 -288s124 -288 283 -288zM407 -102
c27 0 49 -21 49 -49c0 -27 -22 -49 -49 -49s-49 22 -49 49c0 28 22 49 49 49z" />
    <glyph glyph-name="uni1ED2" unicode="&#x1ed2;" horiz-adv-x="814" 
d="M689 892h-86l-151 147h92zM407 849l-100 -100h-89l150 151h77l150 -151h-89zM407 710c205 0 363 -157 363 -360s-158 -360 -363 -360s-363 157 -363 360s158 360 363 360zM407 62c160 0 283 126 283 288s-123 288 -283 288c-159 0 -283 -126 -283 -288s124 -288 283 -288
z" />
    <glyph glyph-name="uni1ED4" unicode="&#x1ed4;" horiz-adv-x="814" 
d="M583 1045c-30 0 -50 -24 -49 -53h-60c0 61 45 104 109 104c65 0 110 -43 110 -100c0 -54 -44 -95 -108 -112l-21 45c45 14 68 37 68 67c0 29 -20 49 -49 49zM407 849l-100 -100h-89l150 151h77l150 -151h-89zM407 710c205 0 363 -157 363 -360s-158 -360 -363 -360
s-363 157 -363 360s158 360 363 360zM407 62c160 0 283 126 283 288s-123 288 -283 288c-159 0 -283 -126 -283 -288s124 -288 283 -288z" />
    <glyph glyph-name="uni1ED6" unicode="&#x1ed6;" horiz-adv-x="814" 
d="M331 1022c-26 0 -45 -19 -55 -47l-51 24c17 50 55 84 106 84c76 0 102 -62 153 -62c26 0 45 18 55 47l51 -25c-16 -49 -55 -83 -106 -83c-76 0 -102 62 -153 62zM407 849l-100 -100h-89l150 151h77l150 -151h-89zM407 710c205 0 363 -157 363 -360s-158 -360 -363 -360
s-363 157 -363 360s158 360 363 360zM407 62c160 0 283 126 283 288s-123 288 -283 288c-159 0 -283 -126 -283 -288s124 -288 283 -288z" />
    <glyph glyph-name="Odieresis" unicode="&#xd6;" horiz-adv-x="814" 
d="M250 825c0 26 21 48 48 48c26 0 47 -22 47 -48s-21 -47 -47 -47c-27 0 -48 21 -48 47zM469 825c0 26 21 48 47 48c27 0 48 -22 48 -48s-21 -47 -48 -47c-26 0 -47 21 -47 47zM44 350c0 203 158 360 363 360s363 -157 363 -360s-158 -360 -363 -360s-363 157 -363 360z
M124 350c0 -162 124 -288 283 -288c160 0 283 126 283 288s-123 288 -283 288c-159 0 -283 -126 -283 -288z" />
    <glyph glyph-name="uni1ECC" unicode="&#x1ecc;" horiz-adv-x="814" 
d="M44 350c0 203 158 360 363 360s363 -157 363 -360s-158 -360 -363 -360s-363 157 -363 360zM124 350c0 -162 124 -288 283 -288c160 0 283 126 283 288s-123 288 -283 288c-159 0 -283 -126 -283 -288zM358 -151c0 28 22 49 49 49s49 -21 49 -49c0 -27 -22 -49 -49 -49
s-49 22 -49 49z" />
    <glyph glyph-name="Ograve" unicode="&#xd2;" horiz-adv-x="814" 
d="M400 749l-155 151h95l149 -151h-89zM44 350c0 203 158 360 363 360s363 -157 363 -360s-158 -360 -363 -360s-363 157 -363 360zM124 350c0 -162 124 -288 283 -288c160 0 283 126 283 288s-123 288 -283 288c-159 0 -283 -126 -283 -288z" />
    <glyph glyph-name="uni1ECE" unicode="&#x1ece;" horiz-adv-x="814" 
d="M388 787c46 14 70 39 70 69s-22 51 -51 51c-32 0 -52 -25 -51 -55h-62c0 63 47 107 113 107s113 -44 113 -103c0 -55 -45 -97 -111 -115zM44 350c0 203 158 360 363 360s363 -157 363 -360s-158 -360 -363 -360s-363 157 -363 360zM124 350c0 -162 124 -288 283 -288
c160 0 283 126 283 288s-123 288 -283 288c-159 0 -283 -126 -283 -288z" />
    <glyph glyph-name="Ohorn" unicode="&#x1a0;" horiz-adv-x="814" 
d="M629 638c86 -65 141 -169 141 -288c0 -203 -158 -360 -363 -360s-363 157 -363 360s158 360 363 360c25 0 50 -2 74 -7c132 -26 207 -1 207 75c0 20 -5 45 -16 72h70c10 -22 17 -50 17 -77c0 -71 -44 -123 -130 -135zM407 62c160 0 283 126 283 288s-123 288 -283 288
c-159 0 -283 -126 -283 -288s124 -288 283 -288z" />
    <glyph glyph-name="uni1EDA" unicode="&#x1eda;" horiz-adv-x="814" 
d="M569 900l-155 -151h-89l149 151h95zM629 638c86 -65 141 -169 141 -288c0 -203 -158 -360 -363 -360s-363 157 -363 360s158 360 363 360c25 0 50 -2 74 -7c132 -26 207 -1 207 75c0 20 -5 45 -16 72h70c10 -22 17 -50 17 -77c0 -71 -44 -123 -130 -135zM407 62
c160 0 283 126 283 288s-123 288 -283 288c-159 0 -283 -126 -283 -288s124 -288 283 -288z" />
    <glyph glyph-name="uni1EE2" unicode="&#x1ee2;" horiz-adv-x="814" 
d="M629 638c86 -65 141 -169 141 -288c0 -203 -158 -360 -363 -360s-363 157 -363 360s158 360 363 360c25 0 50 -2 74 -7c132 -26 207 -1 207 75c0 20 -5 45 -16 72h70c10 -22 17 -50 17 -77c0 -71 -44 -123 -130 -135zM407 62c160 0 283 126 283 288s-123 288 -283 288
c-159 0 -283 -126 -283 -288s124 -288 283 -288zM407 -102c27 0 49 -21 49 -49c0 -27 -22 -49 -49 -49s-49 22 -49 49c0 28 22 49 49 49z" />
    <glyph glyph-name="uni1EDC" unicode="&#x1edc;" horiz-adv-x="814" 
d="M489 749h-89l-155 151h95zM629 638c86 -65 141 -169 141 -288c0 -203 -158 -360 -363 -360s-363 157 -363 360s158 360 363 360c25 0 50 -2 74 -7c132 -26 207 -1 207 75c0 20 -5 45 -16 72h70c10 -22 17 -50 17 -77c0 -71 -44 -123 -130 -135zM407 62
c160 0 283 126 283 288s-123 288 -283 288c-159 0 -283 -126 -283 -288s124 -288 283 -288z" />
    <glyph glyph-name="uni1EDE" unicode="&#x1ede;" horiz-adv-x="814" 
d="M407 907c-32 0 -52 -25 -51 -55h-62c0 63 47 107 113 107s113 -44 113 -103c0 -55 -45 -97 -111 -115l-21 46c46 14 70 39 70 69s-22 51 -51 51zM629 638c86 -65 141 -169 141 -288c0 -203 -158 -360 -363 -360s-363 157 -363 360s158 360 363 360c25 0 50 -2 74 -7
c132 -26 207 -1 207 75c0 20 -5 45 -16 72h70c10 -22 17 -50 17 -77c0 -71 -44 -123 -130 -135zM407 62c160 0 283 126 283 288s-123 288 -283 288c-159 0 -283 -126 -283 -288s124 -288 283 -288z" />
    <glyph glyph-name="uni1EE0" unicode="&#x1ee0;" horiz-adv-x="814" 
d="M329 825c-27 0 -47 -18 -58 -48l-52 25c17 51 57 86 110 86c77 0 104 -63 157 -63c27 0 46 18 57 48l52 -25c-17 -51 -56 -86 -109 -86c-78 0 -105 63 -157 63zM629 638c86 -65 141 -169 141 -288c0 -203 -158 -360 -363 -360s-363 157 -363 360s158 360 363 360
c25 0 50 -2 74 -7c132 -26 207 -1 207 75c0 20 -5 45 -16 72h70c10 -22 17 -50 17 -77c0 -71 -44 -123 -130 -135zM407 62c160 0 283 126 283 288s-123 288 -283 288c-159 0 -283 -126 -283 -288s124 -288 283 -288z" />
    <glyph glyph-name="Ohungarumlaut" unicode="&#x150;" horiz-adv-x="814" 
d="M233 749l149 151h89l-155 -151h-83zM423 749l149 151h89l-155 -151h-83zM44 350c0 203 158 360 363 360s363 -157 363 -360s-158 -360 -363 -360s-363 157 -363 360zM124 350c0 -162 124 -288 283 -288c160 0 283 126 283 288s-123 288 -283 288
c-159 0 -283 -126 -283 -288z" />
    <glyph glyph-name="Omacron" unicode="&#x14c;" horiz-adv-x="814" 
d="M249 794v62h316v-62h-316zM44 350c0 203 158 360 363 360s363 -157 363 -360s-158 -360 -363 -360s-363 157 -363 360zM124 350c0 -162 124 -288 283 -288c160 0 283 126 283 288s-123 288 -283 288c-159 0 -283 -126 -283 -288z" />
    <glyph glyph-name="uni01EA" unicode="&#x1ea;" horiz-adv-x="814" 
d="M451 -8c-30 -27 -44 -57 -44 -86c0 -28 19 -50 53 -50c20 0 33 3 53 11l4 -62c-22 -9 -49 -15 -73 -15c-73 0 -110 42 -110 95c0 40 17 75 45 106c-191 14 -335 165 -335 359c0 203 158 360 363 360s363 -157 363 -360c0 -188 -136 -337 -319 -358zM124 350
c0 -162 124 -288 283 -288c160 0 283 126 283 288s-123 288 -283 288c-159 0 -283 -126 -283 -288z" />
    <glyph glyph-name="Oslash" unicode="&#xd8;" horiz-adv-x="814" 
d="M644 626c78 -66 126 -164 126 -276c0 -203 -158 -360 -363 -360c-65 0 -126 16 -178 44l-51 -73l-58 41l50 72c-78 65 -126 164 -126 276c0 203 158 360 363 360c65 0 126 -16 178 -44l51 73l59 -41zM124 350c0 -85 35 -161 90 -213l328 468c-40 21 -86 33 -135 33
c-159 0 -283 -126 -283 -288zM407 62c160 0 283 126 283 288c0 85 -34 161 -90 213l-328 -468c40 -21 86 -33 135 -33z" />
    <glyph glyph-name="Oslashacute" unicode="&#x1fe;" horiz-adv-x="814" 
d="M569 900l-155 -151h-89l149 151h95zM644 626c78 -66 126 -164 126 -276c0 -203 -158 -360 -363 -360c-65 0 -126 16 -178 44l-51 -73l-58 41l50 72c-78 65 -126 164 -126 276c0 203 158 360 363 360c65 0 126 -16 178 -44l51 73l59 -41zM124 350c0 -85 35 -161 90 -213
l328 468c-40 21 -86 33 -135 33c-159 0 -283 -126 -283 -288zM407 62c160 0 283 126 283 288c0 85 -34 161 -90 213l-328 -468c40 -21 86 -33 135 -33z" />
    <glyph glyph-name="Otilde" unicode="&#xd5;" horiz-adv-x="814" 
d="M219 802c17 51 57 86 110 86c77 0 104 -63 157 -63c27 0 46 18 57 48l52 -25c-17 -51 -56 -86 -109 -86c-78 0 -105 63 -157 63c-27 0 -47 -18 -58 -48zM44 350c0 203 158 360 363 360s363 -157 363 -360s-158 -360 -363 -360s-363 157 -363 360zM124 350
c0 -162 124 -288 283 -288c160 0 283 126 283 288s-123 288 -283 288c-159 0 -283 -126 -283 -288z" />
    <glyph glyph-name="OE" unicode="&#x152;" horiz-adv-x="1082" 
d="M1035 629h-352v-244h342v-70h-342v-244h352v-71h-430v52c-58 -40 -127 -62 -201 -62c-202 0 -360 157 -360 360s158 360 360 360c74 0 143 -22 201 -62v52h430v-71zM124 350c0 -162 124 -288 286 -288c75 0 143 27 195 74v428c-52 47 -120 74 -195 74
c-162 0 -286 -126 -286 -288z" />
    <glyph glyph-name="P" unicode="P" horiz-adv-x="569" 
d="M64 0v700h264c133 0 224 -91 224 -209s-91 -208 -224 -208h-186v-283h-78zM142 354h186c85 0 144 60 144 138s-59 137 -144 137h-186v-275z" />
    <glyph glyph-name="Thorn" unicode="&#xde;" horiz-adv-x="569" 
d="M64 0v700h78v-141h186c133 0 224 -91 224 -209s-91 -208 -224 -208h-186v-142h-78zM142 213h186c85 0 144 60 144 138s-59 137 -144 137h-186v-275z" />
    <glyph glyph-name="Q" unicode="Q" horiz-adv-x="814" 
d="M770 350c0 -106 -43 -199 -113 -264l92 -110l-57 -49l-96 114c-54 -33 -119 -51 -189 -51c-205 0 -363 157 -363 360s158 360 363 360s363 -157 363 -360zM407 62c52 0 100 13 141 37l-108 128l57 48l110 -131c52 52 83 124 83 206c0 162 -123 288 -283 288
c-159 0 -283 -126 -283 -288s124 -288 283 -288z" />
    <glyph glyph-name="R" unicode="R" horiz-adv-x="610" 
d="M576 0h-94l-203 294h-137v-294h-78v700h279c128 0 217 -88 217 -202c0 -106 -76 -190 -188 -202zM142 629v-262h201c81 0 137 57 137 131s-56 131 -137 131h-201z" />
    <glyph glyph-name="Racute" unicode="&#x154;" horiz-adv-x="610" 
d="M427 900l-155 -151h-89l149 151h95zM576 0h-94l-203 294h-137v-294h-78v700h279c128 0 217 -88 217 -202c0 -106 -76 -190 -188 -202zM142 629v-262h201c81 0 137 57 137 131s-56 131 -137 131h-201z" />
    <glyph glyph-name="Rcaron" unicode="&#x158;" horiz-adv-x="610" 
d="M304 749h-77l-150 151h89l100 -99l99 99h89zM576 0h-94l-203 294h-137v-294h-78v700h279c128 0 217 -88 217 -202c0 -106 -76 -190 -188 -202zM142 629v-262h201c81 0 137 57 137 131s-56 131 -137 131h-201z" />
    <glyph glyph-name="uni0156" unicode="&#x156;" horiz-adv-x="610" 
d="M576 0h-94l-203 294h-137v-294h-78v700h279c128 0 217 -88 217 -202c0 -106 -76 -190 -188 -202zM142 629v-262h201c81 0 137 57 137 131s-56 131 -137 131h-201zM229 -210l35 154h74l-45 -154h-64z" />
    <glyph glyph-name="S" unicode="S" horiz-adv-x="609" 
d="M129 196c13 -86 79 -136 183 -136c99 0 166 51 166 121c0 194 -409 84 -409 341c0 107 99 188 234 188c137 0 230 -80 247 -190l-79 -16c-12 79 -75 137 -169 137c-90 0 -153 -49 -153 -116c0 -186 409 -73 409 -342c0 -114 -109 -193 -248 -193c-142 0 -243 73 -259 190
z" />
    <glyph glyph-name="Sacute" unicode="&#x15a;" horiz-adv-x="609" 
d="M221 749l149 151h95l-155 -151h-89zM129 196c13 -86 79 -136 183 -136c99 0 166 51 166 121c0 194 -409 84 -409 341c0 107 99 188 234 188c137 0 230 -80 247 -190l-79 -16c-12 79 -75 137 -169 137c-90 0 -153 -49 -153 -116c0 -186 409 -73 409 -342
c0 -114 -109 -193 -248 -193c-142 0 -243 73 -259 190z" />
    <glyph glyph-name="Scaron" unicode="&#x160;" horiz-adv-x="609" 
d="M342 749h-77l-150 151h89l100 -99l99 99h89zM149 525c0 -186 409 -73 409 -342c0 -114 -109 -193 -248 -193c-142 0 -243 73 -259 190l78 16c13 -86 79 -136 183 -136c99 0 166 51 166 121c0 194 -409 84 -409 341c0 107 99 188 234 188c137 0 230 -80 247 -190l-79 -16
c-12 79 -75 137 -169 137c-90 0 -153 -49 -153 -116z" />
    <glyph glyph-name="Scedilla" unicode="&#x15e;" horiz-adv-x="609" 
d="M558 183c0 -101 -86 -175 -202 -190c26 -29 39 -63 39 -93c0 -63 -50 -110 -133 -110c-17 0 -35 2 -56 7l6 63c14 -3 27 -4 38 -4c48 0 72 25 72 57c0 25 -15 55 -45 78c-125 11 -211 81 -226 189l78 16c13 -86 79 -136 183 -136c99 0 166 51 166 121
c0 194 -409 84 -409 341c0 107 99 188 234 188c137 0 230 -80 247 -190l-79 -16c-12 79 -75 137 -169 137c-90 0 -153 -49 -153 -116c0 -186 409 -73 409 -342z" />
    <glyph glyph-name="Scircumflex" unicode="&#x15c;" horiz-adv-x="609" 
d="M304 849l-100 -100h-89l150 151h77l150 -151h-89zM149 525c0 -186 409 -73 409 -342c0 -114 -109 -193 -248 -193c-142 0 -243 73 -259 190l78 16c13 -86 79 -136 183 -136c99 0 166 51 166 121c0 194 -409 84 -409 341c0 107 99 188 234 188c137 0 230 -80 247 -190
l-79 -16c-12 79 -75 137 -169 137c-90 0 -153 -49 -153 -116z" />
    <glyph glyph-name="uni0218" unicode="&#x218;" horiz-adv-x="609" 
d="M129 196c13 -86 79 -136 183 -136c99 0 166 51 166 121c0 194 -409 84 -409 341c0 107 99 188 234 188c137 0 230 -80 247 -190l-79 -16c-12 79 -75 137 -169 137c-90 0 -153 -49 -153 -116c0 -186 409 -73 409 -342c0 -114 -109 -193 -248 -193c-142 0 -243 73 -259 190
zM246 -210l35 154h74l-45 -154h-64z" />
    <glyph glyph-name="uni1E9E" unicode="&#x1e9e;" horiz-adv-x="658" 
d="M402 414c131 -14 208 -100 208 -210c0 -124 -92 -214 -236 -214c-64 0 -110 13 -154 32l13 67c39 -18 78 -30 132 -30c101 0 166 61 166 146c0 79 -59 145 -170 145h-45v64l172 215h-206c-90 0 -140 -66 -140 -156v-473h-78v473c0 133 86 227 218 227h301v-63z" />
    <glyph glyph-name="uni018F" unicode="&#x18f;" horiz-adv-x="814" 
d="M407 710c205 0 363 -157 363 -360s-158 -360 -363 -360c-198 0 -369 161 -352 388h634c-13 148 -131 260 -282 260c-113 0 -206 -68 -248 -160l-72 30c49 108 165 202 320 202zM407 62c146 0 260 104 280 245h-549c10 -132 118 -245 269 -245z" />
    <glyph glyph-name="T" unicode="T" horiz-adv-x="572" 
d="M247 0v629h-237v71h552v-71h-237v-629h-78z" />
    <glyph glyph-name="Tbar" unicode="&#x166;" horiz-adv-x="572" 
d="M562 629h-237v-248h119v-62h-119v-319h-78v319h-119v62h119v248h-237v71h552v-71z" />
    <glyph glyph-name="Tcaron" unicode="&#x164;" horiz-adv-x="572" 
d="M324 749h-77l-150 151h89l100 -99l99 99h89zM10 700h552v-71h-237v-629h-78v629h-237v71z" />
    <glyph glyph-name="uni0162" unicode="&#x162;" horiz-adv-x="572" 
d="M562 629h-237v-618c47 -36 61 -76 61 -111c0 -63 -51 -110 -133 -110c-17 0 -36 2 -56 7l5 63c14 -3 27 -4 39 -4c47 0 72 25 72 57c0 28 -20 63 -59 87h-7v629h-237v71h552v-71z" />
    <glyph glyph-name="uni021A" unicode="&#x21a;" horiz-adv-x="572" 
d="M247 0v629h-237v71h552v-71h-237v-629h-78zM231 -210l35 154h74l-45 -154h-64z" />
    <glyph glyph-name="U" unicode="U" horiz-adv-x="679" 
d="M54 700h78v-441c0 -115 85 -197 207 -197c124 0 208 82 208 197v441h78v-441c0 -158 -119 -269 -286 -269c-166 0 -285 111 -285 269v441z" />
    <glyph glyph-name="Uacute" unicode="&#xda;" horiz-adv-x="679" 
d="M257 749l149 151h95l-155 -151h-89zM54 700h78v-441c0 -115 85 -197 207 -197c124 0 208 82 208 197v441h78v-441c0 -158 -119 -269 -286 -269c-166 0 -285 111 -285 269v441z" />
    <glyph glyph-name="Ubreve" unicode="&#x16c;" horiz-adv-x="679" 
d="M239 900c7 -52 43 -87 101 -87c57 0 93 35 100 87h67c-10 -91 -75 -147 -167 -147c-94 0 -158 56 -168 147h67zM54 700h78v-441c0 -115 85 -197 207 -197c124 0 208 82 208 197v441h78v-441c0 -158 -119 -269 -286 -269c-166 0 -285 111 -285 269v441z" />
    <glyph glyph-name="Ucircumflex" unicode="&#xdb;" horiz-adv-x="679" 
d="M340 849l-100 -100h-89l150 151h77l150 -151h-89zM547 700h78v-441c0 -158 -119 -269 -286 -269c-166 0 -285 111 -285 269v441h78v-441c0 -115 85 -197 207 -197c124 0 208 82 208 197v441z" />
    <glyph glyph-name="Udieresis" unicode="&#xdc;" horiz-adv-x="679" 
d="M183 825c0 26 21 48 48 48c26 0 47 -22 47 -48s-21 -47 -47 -47c-27 0 -48 21 -48 47zM402 825c0 26 21 48 47 48c27 0 48 -22 48 -48s-21 -47 -48 -47c-26 0 -47 21 -47 47zM54 700h78v-441c0 -115 85 -197 207 -197c124 0 208 82 208 197v441h78v-441
c0 -158 -119 -269 -286 -269c-166 0 -285 111 -285 269v441z" />
    <glyph glyph-name="uni1EE4" unicode="&#x1ee4;" horiz-adv-x="679" 
d="M54 700h78v-441c0 -115 85 -197 207 -197c124 0 208 82 208 197v441h78v-441c0 -158 -119 -269 -286 -269c-166 0 -285 111 -285 269v441zM290 -151c0 28 22 49 49 49s49 -21 49 -49c0 -27 -22 -49 -49 -49s-49 22 -49 49z" />
    <glyph glyph-name="Ugrave" unicode="&#xd9;" horiz-adv-x="679" 
d="M332 749l-155 151h95l149 -151h-89zM54 700h78v-441c0 -115 85 -197 207 -197c124 0 208 82 208 197v441h78v-441c0 -158 -119 -269 -286 -269c-166 0 -285 111 -285 269v441z" />
    <glyph glyph-name="uni1EE6" unicode="&#x1ee6;" horiz-adv-x="679" 
d="M320 787c46 14 70 39 70 69s-22 51 -51 51c-32 0 -52 -25 -51 -55h-62c0 63 47 107 113 107s113 -44 113 -103c0 -55 -45 -97 -111 -115zM54 700h78v-441c0 -115 85 -197 207 -197c124 0 208 82 208 197v441h78v-441c0 -158 -119 -269 -286 -269
c-166 0 -285 111 -285 269v441z" />
    <glyph glyph-name="Uhorn" unicode="&#x1af;" horiz-adv-x="755" 
d="M760 773c0 -75 -50 -122 -135 -133v-381c0 -158 -119 -269 -286 -269c-166 0 -285 111 -285 269v441h78v-441c0 -115 85 -197 207 -197c124 0 208 82 208 197v441h40c73 0 103 32 103 78c0 20 -5 45 -17 72h71c10 -22 16 -50 16 -77z" />
    <glyph glyph-name="uni1EE8" unicode="&#x1ee8;" horiz-adv-x="755" 
d="M501 900l-155 -151h-89l149 151h95zM760 773c0 -75 -50 -122 -135 -133v-381c0 -158 -119 -269 -286 -269c-166 0 -285 111 -285 269v441h78v-441c0 -115 85 -197 207 -197c124 0 208 82 208 197v441h40c73 0 103 32 103 78c0 20 -5 45 -17 72h71c10 -22 16 -50 16 -77z
" />
    <glyph glyph-name="uni1EF0" unicode="&#x1ef0;" horiz-adv-x="755" 
d="M760 773c0 -75 -50 -122 -135 -133v-381c0 -158 -119 -269 -286 -269c-166 0 -285 111 -285 269v441h78v-441c0 -115 85 -197 207 -197c124 0 208 82 208 197v441h40c73 0 103 32 103 78c0 20 -5 45 -17 72h71c10 -22 16 -50 16 -77zM339 -102c27 0 49 -21 49 -49
c0 -27 -22 -49 -49 -49s-49 22 -49 49c0 28 22 49 49 49z" />
    <glyph glyph-name="uni1EEA" unicode="&#x1eea;" horiz-adv-x="755" 
d="M421 749h-89l-155 151h95zM760 773c0 -75 -50 -122 -135 -133v-381c0 -158 -119 -269 -286 -269c-166 0 -285 111 -285 269v441h78v-441c0 -115 85 -197 207 -197c124 0 208 82 208 197v441h40c73 0 103 32 103 78c0 20 -5 45 -17 72h71c10 -22 16 -50 16 -77z" />
    <glyph glyph-name="uni1EEC" unicode="&#x1eec;" horiz-adv-x="755" 
d="M339 907c-32 0 -52 -25 -51 -55h-62c0 63 47 107 113 107s113 -44 113 -103c0 -55 -45 -97 -111 -115l-21 46c46 14 70 39 70 69s-22 51 -51 51zM760 773c0 -75 -50 -122 -135 -133v-381c0 -158 -119 -269 -286 -269c-166 0 -285 111 -285 269v441h78v-441
c0 -115 85 -197 207 -197c124 0 208 82 208 197v441h40c73 0 103 32 103 78c0 20 -5 45 -17 72h71c10 -22 16 -50 16 -77z" />
    <glyph glyph-name="uni1EEE" unicode="&#x1eee;" horiz-adv-x="755" 
d="M261 825c-27 0 -47 -18 -58 -48l-52 25c17 51 57 86 110 86c77 0 104 -63 157 -63c27 0 46 18 57 48l52 -25c-17 -51 -56 -86 -109 -86c-78 0 -105 63 -157 63zM760 773c0 -75 -50 -122 -135 -133v-381c0 -158 -119 -269 -286 -269c-166 0 -285 111 -285 269v441h78v-441
c0 -115 85 -197 207 -197c124 0 208 82 208 197v441h40c73 0 103 32 103 78c0 20 -5 45 -17 72h71c10 -22 16 -50 16 -77z" />
    <glyph glyph-name="Uhungarumlaut" unicode="&#x170;" horiz-adv-x="679" 
d="M165 749l149 151h89l-155 -151h-83zM355 749l149 151h89l-155 -151h-83zM54 700h78v-441c0 -115 85 -197 207 -197c124 0 208 82 208 197v441h78v-441c0 -158 -119 -269 -286 -269c-166 0 -285 111 -285 269v441z" />
    <glyph glyph-name="Umacron" unicode="&#x16a;" horiz-adv-x="679" 
d="M181 794v62h316v-62h-316zM54 700h78v-441c0 -115 85 -197 207 -197c124 0 208 82 208 197v441h78v-441c0 -158 -119 -269 -286 -269c-166 0 -285 111 -285 269v441z" />
    <glyph glyph-name="Uogonek" unicode="&#x172;" horiz-adv-x="679" 
d="M547 700h78v-441c0 -130 -81 -228 -202 -259c-36 -29 -53 -62 -53 -94c0 -28 19 -50 53 -50c20 0 33 3 53 11l4 -62c-22 -9 -49 -15 -73 -15c-73 0 -110 42 -110 95c0 39 16 75 44 105h-2c-166 0 -285 111 -285 269v441h78v-441c0 -115 85 -197 207 -197
c124 0 208 82 208 197v441z" />
    <glyph glyph-name="Uring" unicode="&#x16e;" horiz-adv-x="679" 
d="M229 831c0 59 48 104 110 104c63 0 110 -45 110 -104s-47 -103 -110 -103c-62 0 -110 44 -110 103zM285 831c0 -30 24 -53 54 -53s54 23 54 53c0 31 -24 54 -54 54s-54 -23 -54 -54zM54 700h78v-441c0 -115 85 -197 207 -197c124 0 208 82 208 197v441h78v-441
c0 -158 -119 -269 -286 -269c-166 0 -285 111 -285 269v441z" />
    <glyph glyph-name="Utilde" unicode="&#x168;" horiz-adv-x="679" 
d="M151 802c17 51 57 86 110 86c77 0 104 -63 157 -63c27 0 46 18 57 48l52 -25c-17 -51 -56 -86 -109 -86c-78 0 -105 63 -157 63c-27 0 -47 -18 -58 -48zM54 700h78v-441c0 -115 85 -197 207 -197c124 0 208 82 208 197v441h78v-441c0 -158 -119 -269 -286 -269
c-166 0 -285 111 -285 269v441z" />
    <glyph glyph-name="V" unicode="V" horiz-adv-x="689" 
d="M594 700h81l-289 -700h-83l-289 700h83l249 -613z" />
    <glyph glyph-name="W" unicode="W" horiz-adv-x="1049" 
d="M922 700h80l-214 -700h-87l-177 592l-177 -592h-87l-213 700h83l176 -605l177 605h86l178 -606z" />
    <glyph glyph-name="Wacute" unicode="&#x1e82;" horiz-adv-x="1049" 
d="M686 900l-155 -151h-89l149 151h95zM922 700h80l-214 -700h-87l-177 592l-177 -592h-87l-213 700h83l176 -605l177 605h86l178 -606z" />
    <glyph glyph-name="Wcircumflex" unicode="&#x174;" horiz-adv-x="1049" 
d="M525 849l-100 -100h-89l150 151h77l150 -151h-89zM922 700h80l-214 -700h-87l-177 592l-177 -592h-87l-213 700h83l176 -605l177 605h86l178 -606z" />
    <glyph glyph-name="Wdieresis" unicode="&#x1e84;" horiz-adv-x="1049" 
d="M416 778c-27 0 -48 21 -48 47s21 48 48 48c26 0 47 -22 47 -48s-21 -47 -47 -47zM634 778c-26 0 -47 21 -47 47s21 48 47 48c27 0 48 -22 48 -48s-21 -47 -48 -47zM922 700h80l-214 -700h-87l-177 592l-177 -592h-87l-213 700h83l176 -605l177 605h86l178 -606z" />
    <glyph glyph-name="Wgrave" unicode="&#x1e80;" horiz-adv-x="1049" 
d="M606 749h-89l-155 151h95zM922 700h80l-214 -700h-87l-177 592l-177 -592h-87l-213 700h83l176 -605l177 605h86l178 -606z" />
    <glyph glyph-name="X" unicode="X" horiz-adv-x="647" 
d="M633 700l-262 -349l262 -351h-96l-214 290l-215 -290h-94l262 349l-262 351h96l215 -289l214 289h94z" />
    <glyph glyph-name="Y" unicode="Y" horiz-adv-x="617" 
d="M525 700h88l-266 -457v-243h-78v243l-265 457h92l215 -380z" />
    <glyph glyph-name="Yacute" unicode="&#xdd;" horiz-adv-x="617" 
d="M470 900l-155 -151h-89l149 151h95zM347 243v-172h137v-71h-351v71h136v172l-265 457h92l215 -380l214 380h88z" />
    <glyph glyph-name="Ycircumflex" unicode="&#x176;" horiz-adv-x="617" 
d="M309 849l-100 -100h-89l150 151h77l150 -151h-89zM347 243v-172h137v-71h-351v71h136v172l-265 457h92l215 -380l214 380h88z" />
    <glyph glyph-name="Ydieresis" unicode="&#x178;" horiz-adv-x="617" 
d="M200 778c-27 0 -48 21 -48 47s21 48 48 48c26 0 47 -22 47 -48s-21 -47 -47 -47zM418 778c-26 0 -47 21 -47 47s21 48 47 48c27 0 48 -22 48 -48s-21 -47 -48 -47zM347 243v-172h137v-71h-351v71h136v172l-265 457h92l215 -380l214 380h88z" />
    <glyph glyph-name="uni1EF4" unicode="&#x1ef4;" horiz-adv-x="617" 
d="M347 243v-172h137v-71h-351v71h136v172l-265 457h92l215 -380l214 380h88zM308 -102c27 0 49 -21 49 -49c0 -27 -22 -49 -49 -49s-49 22 -49 49c0 28 22 49 49 49z" />
    <glyph glyph-name="Ygrave" unicode="&#x1ef2;" horiz-adv-x="617" 
d="M390 749h-89l-155 151h95zM347 243v-172h137v-71h-351v71h136v172l-265 457h92l215 -380l214 380h88z" />
    <glyph glyph-name="uni1EF6" unicode="&#x1ef6;" horiz-adv-x="617" 
d="M308 907c-32 0 -52 -25 -51 -55h-62c0 63 47 107 113 107s113 -44 113 -103c0 -55 -45 -97 -111 -115l-21 46c46 14 70 39 70 69s-22 51 -51 51zM347 243v-172h137v-71h-351v71h136v172l-265 457h92l215 -380l214 380h88z" />
    <glyph glyph-name="uni0232" unicode="&#x232;" horiz-adv-x="617" 
d="M466 856v-62h-316v62h316zM347 243v-172h137v-71h-351v71h136v172l-265 457h92l215 -380l214 380h88z" />
    <glyph glyph-name="uni1EF8" unicode="&#x1ef8;" horiz-adv-x="617" 
d="M230 825c-27 0 -47 -18 -58 -48l-52 25c17 51 57 86 110 86c77 0 104 -63 157 -63c27 0 46 18 57 48l52 -25c-17 -51 -56 -86 -109 -86c-78 0 -105 63 -157 63zM347 243v-172h137v-71h-351v71h136v172l-265 457h92l215 -380l214 380h88z" />
    <glyph glyph-name="Z" unicode="Z" horiz-adv-x="585" 
d="M535 700v-63l-389 -566h389v-71h-485v63l389 566h-389v71h485z" />
    <glyph glyph-name="Zacute" unicode="&#x179;" horiz-adv-x="585" 
d="M454 900l-155 -151h-89l149 151h95zM535 700v-63l-389 -566h389v-71h-485v63l389 566h-389v71h485z" />
    <glyph glyph-name="Zcaron" unicode="&#x17d;" horiz-adv-x="585" 
d="M331 749h-77l-150 151h89l100 -99l99 99h89zM535 700v-63l-389 -566h389v-71h-485v63l389 566h-389v71h485z" />
    <glyph glyph-name="Zdotaccent" unicode="&#x17b;" horiz-adv-x="585" 
d="M292 776c-27 0 -49 22 -49 49s22 49 49 49s49 -22 49 -49s-22 -49 -49 -49zM535 700v-63l-389 -566h389v-71h-485v63l389 566h-389v71h485z" />
    <glyph glyph-name="Iacute_J.loclNLD" horiz-adv-x="720" 
d="M21 749l149 151h95l-155 -151h-89zM545 749l149 151h95l-155 -151h-89zM64 0v700h78v-700h-78zM312 191c6 -88 65 -129 137 -129c89 0 138 67 138 155v483h78v-483c0 -133 -85 -227 -217 -227c-115 0 -204 68 -214 190z" />
    <glyph glyph-name="I.ss01" horiz-adv-x="420" 
d="M30 0v71h141v558h-141v71h360v-71h-141v-558h141v-71h-360z" />
    <glyph glyph-name="IJ.ss01" horiz-adv-x="934" 
d="M30 0v71h141v558h-141v71h360v-71h-141v-558h141v-71h-360zM526 191c6 -88 65 -129 137 -129c89 0 138 67 138 155v483h78v-483c0 -133 -85 -227 -217 -227c-115 0 -204 68 -214 190z" />
    <glyph glyph-name="Iacute.ss01" horiz-adv-x="420" 
d="M128 749l149 151h95l-155 -151h-89zM30 0v71h141v558h-141v71h360v-71h-141v-558h141v-71h-360z" />
    <glyph glyph-name="Iacute_J.loclNLD.ss01" horiz-adv-x="934" 
d="M128 749l149 151h95l-155 -151h-89zM759 749l149 151h95l-155 -151h-89zM30 0v71h141v558h-141v71h360v-71h-141v-558h141v-71h-360zM526 191c6 -88 65 -129 137 -129c89 0 138 67 138 155v483h78v-483c0 -133 -85 -227 -217 -227c-115 0 -204 68 -214 190z" />
    <glyph glyph-name="Ibreve.ss01" horiz-adv-x="420" 
d="M110 900c7 -52 43 -87 101 -87c57 0 93 35 100 87h67c-10 -91 -75 -147 -167 -147c-94 0 -158 56 -168 147h67zM30 0v71h141v558h-141v71h360v-71h-141v-558h141v-71h-360z" />
    <glyph glyph-name="uni01CF.ss01" horiz-adv-x="420" 
d="M249 749h-77l-150 151h89l100 -99l99 99h89zM30 629v71h360v-71h-141v-558h141v-71h-360v71h141v558h-141z" />
    <glyph glyph-name="Icircumflex.ss01" horiz-adv-x="420" 
d="M211 849l-100 -100h-89l150 151h77l150 -151h-89zM30 629v71h360v-71h-141v-558h141v-71h-360v71h141v558h-141z" />
    <glyph glyph-name="Idieresis.ss01" horiz-adv-x="420" 
d="M53 825c0 26 21 48 48 48c26 0 47 -22 47 -48s-21 -47 -47 -47c-27 0 -48 21 -48 47zM272 825c0 26 21 48 47 48c27 0 48 -22 48 -48s-21 -47 -48 -47c-26 0 -47 21 -47 47zM30 0v71h141v558h-141v71h360v-71h-141v-558h141v-71h-360z" />
    <glyph glyph-name="Idotaccent.ss01" horiz-adv-x="420" 
d="M161 825c0 27 22 49 49 49s49 -22 49 -49s-22 -49 -49 -49s-49 22 -49 49zM30 0v71h141v558h-141v71h360v-71h-141v-558h141v-71h-360z" />
    <glyph glyph-name="uni1ECA.ss01" horiz-adv-x="420" 
d="M30 0v71h141v558h-141v71h360v-71h-141v-558h141v-71h-360zM161 -151c0 28 22 49 49 49s49 -21 49 -49c0 -27 -22 -49 -49 -49s-49 22 -49 49z" />
    <glyph glyph-name="Igrave.ss01" horiz-adv-x="420" 
d="M203 749l-155 151h95l149 -151h-89zM30 0v71h141v558h-141v71h360v-71h-141v-558h141v-71h-360z" />
    <glyph glyph-name="uni1EC8.ss01" horiz-adv-x="420" 
d="M191 787c46 14 70 39 70 69s-22 51 -51 51c-32 0 -52 -25 -51 -55h-62c0 63 47 107 113 107s113 -44 113 -103c0 -55 -45 -97 -111 -115zM30 0v71h141v558h-141v71h360v-71h-141v-558h141v-71h-360z" />
    <glyph glyph-name="Imacron.ss01" horiz-adv-x="420" 
d="M52 794v62h316v-62h-316zM30 0v71h141v558h-141v71h360v-71h-141v-558h141v-71h-360z" />
    <glyph glyph-name="Iogonek.ss01" horiz-adv-x="420" 
d="M390 629h-141v-558h141v-71h-145c-36 -29 -53 -62 -53 -94c0 -28 19 -50 53 -50c20 0 33 3 53 11l4 -62c-22 -9 -49 -15 -73 -15c-73 0 -110 42 -110 95c0 44 20 82 53 115h-142v71h141v558h-141v71h360v-71z" />
    <glyph glyph-name="Itilde.ss01" horiz-adv-x="420" 
d="M22 802c17 51 57 86 110 86c77 0 104 -63 157 -63c27 0 46 18 57 48l52 -25c-17 -51 -56 -86 -109 -86c-78 0 -105 63 -157 63c-27 0 -47 -18 -58 -48zM30 0v71h141v558h-141v71h360v-71h-141v-558h141v-71h-360z" />
    <glyph glyph-name="Y.ss02" horiz-adv-x="617" 
d="M347 243v-172h137v-71h-351v71h136v172l-265 457h92l215 -380l214 380h88z" />
    <glyph glyph-name="Yacute.ss02" horiz-adv-x="617" 
d="M470 900l-155 -151h-89l149 151h95zM525 700h88l-266 -457v-243h-78v243l-265 457h92l215 -380z" />
    <glyph glyph-name="Ycircumflex.ss02" horiz-adv-x="617" 
d="M309 849l-100 -100h-89l150 151h77l150 -151h-89zM525 700h88l-266 -457v-243h-78v243l-265 457h92l215 -380z" />
    <glyph glyph-name="Ydieresis.ss02" horiz-adv-x="617" 
d="M200 778c-27 0 -48 21 -48 47s21 48 48 48c26 0 47 -22 47 -48s-21 -47 -47 -47zM418 778c-26 0 -47 21 -47 47s21 48 47 48c27 0 48 -22 48 -48s-21 -47 -48 -47zM525 700h88l-266 -457v-243h-78v243l-265 457h92l215 -380z" />
    <glyph glyph-name="uni1EF4.ss02" horiz-adv-x="617" 
d="M269 0v243l-265 457h92l215 -380l214 380h88l-266 -457v-243h-78zM308 -102c27 0 49 -21 49 -49c0 -27 -22 -49 -49 -49s-49 22 -49 49c0 28 22 49 49 49z" />
    <glyph glyph-name="Ygrave.ss02" horiz-adv-x="617" 
d="M390 749h-89l-155 151h95zM525 700h88l-266 -457v-243h-78v243l-265 457h92l215 -380z" />
    <glyph glyph-name="uni1EF6.ss02" horiz-adv-x="617" 
d="M308 907c-32 0 -52 -25 -51 -55h-62c0 63 47 107 113 107s113 -44 113 -103c0 -55 -45 -97 -111 -115l-21 46c46 14 70 39 70 69s-22 51 -51 51zM525 700h88l-266 -457v-243h-78v243l-265 457h92l215 -380z" />
    <glyph glyph-name="uni0232.ss02" horiz-adv-x="617" 
d="M466 856v-62h-316v62h316zM525 700h88l-266 -457v-243h-78v243l-265 457h92l215 -380z" />
    <glyph glyph-name="uni1EF8.ss02" horiz-adv-x="617" 
d="M230 825c-27 0 -47 -18 -58 -48l-52 25c17 51 57 86 110 86c77 0 104 -63 157 -63c27 0 46 18 57 48l52 -25c-17 -51 -56 -86 -109 -86c-78 0 -105 63 -157 63zM525 700h88l-266 -457v-243h-78v243l-265 457h92l215 -380z" />
    <glyph glyph-name="a" unicode="a" horiz-adv-x="523" 
d="M269 516c110 0 194 -60 194 -173v-343h-75v91c-43 -65 -112 -101 -192 -101c-96 0 -162 53 -162 139c0 97 82 140 178 150l113 13c42 4 63 20 63 58c0 64 -49 101 -120 101c-67 0 -127 -31 -146 -110l-73 20c24 102 112 155 220 155zM209 53c105 0 179 82 179 172v29
c-13 -14 -35 -19 -68 -23l-109 -12c-57 -7 -102 -34 -102 -86c0 -49 41 -80 100 -80z" />
    <glyph glyph-name="aacute" unicode="&#xe1;" horiz-adv-x="523" 
d="M399 736l-116 -160h-79l110 160h85zM269 516c110 0 194 -60 194 -173v-343h-75v91c-43 -65 -112 -101 -192 -101c-96 0 -162 53 -162 139c0 97 82 140 178 150l113 13c42 4 63 20 63 58c0 64 -49 101 -120 101c-67 0 -127 -31 -146 -110l-73 20c24 102 112 155 220 155z
M209 53c105 0 179 82 179 172v29c-13 -14 -35 -19 -68 -23l-109 -12c-57 -7 -102 -34 -102 -86c0 -49 41 -80 100 -80z" />
    <glyph glyph-name="abreve" unicode="&#x103;" horiz-adv-x="523" 
d="M262 577c-86 0 -146 61 -146 156h63c0 -57 33 -95 83 -95c51 0 83 38 83 95h63c0 -95 -60 -156 -146 -156zM269 516c110 0 194 -60 194 -173v-343h-75v91c-43 -65 -112 -101 -192 -101c-96 0 -162 53 -162 139c0 97 82 140 178 150l113 13c42 4 63 20 63 58
c0 64 -49 101 -120 101c-67 0 -127 -31 -146 -110l-73 20c24 102 112 155 220 155zM209 53c105 0 179 82 179 172v29c-13 -14 -35 -19 -68 -23l-109 -12c-57 -7 -102 -34 -102 -86c0 -49 41 -80 100 -80z" />
    <glyph glyph-name="uni1EAF" unicode="&#x1eaf;" horiz-adv-x="523" 
d="M397 943l-113 -155h-77l107 155h83zM262 577c-86 0 -146 61 -146 156h63c0 -57 33 -95 83 -95c51 0 83 38 83 95h63c0 -95 -60 -156 -146 -156zM269 516c110 0 194 -60 194 -173v-343h-75v91c-43 -65 -112 -101 -192 -101c-96 0 -162 53 -162 139c0 97 82 140 178 150
l113 13c42 4 63 20 63 58c0 64 -49 101 -120 101c-67 0 -127 -31 -146 -110l-73 20c24 102 112 155 220 155zM209 53c105 0 179 82 179 172v29c-13 -14 -35 -19 -68 -23l-109 -12c-57 -7 -102 -34 -102 -86c0 -49 41 -80 100 -80z" />
    <glyph glyph-name="uni1EB7" unicode="&#x1eb7;" horiz-adv-x="523" 
d="M262 577c-86 0 -146 61 -146 156h63c0 -57 33 -95 83 -95c51 0 83 38 83 95h63c0 -95 -60 -156 -146 -156zM269 516c110 0 194 -60 194 -173v-343h-75v91c-43 -65 -112 -101 -192 -101c-96 0 -162 53 -162 139c0 97 82 140 178 150l113 13c42 4 63 20 63 58
c0 64 -49 101 -120 101c-67 0 -127 -31 -146 -110l-73 20c24 102 112 155 220 155zM209 53c105 0 179 82 179 172v29c-13 -14 -35 -19 -68 -23l-109 -12c-57 -7 -102 -34 -102 -86c0 -49 41 -80 100 -80zM262 -102c27 0 49 -21 49 -49c0 -27 -22 -49 -49 -49s-49 22 -49 49
c0 28 22 49 49 49z" />
    <glyph glyph-name="uni1EB1" unicode="&#x1eb1;" horiz-adv-x="523" 
d="M319 788h-77l-112 155h82zM262 577c-86 0 -146 61 -146 156h63c0 -57 33 -95 83 -95c51 0 83 38 83 95h63c0 -95 -60 -156 -146 -156zM269 516c110 0 194 -60 194 -173v-343h-75v91c-43 -65 -112 -101 -192 -101c-96 0 -162 53 -162 139c0 97 82 140 178 150l113 13
c42 4 63 20 63 58c0 64 -49 101 -120 101c-67 0 -127 -31 -146 -110l-73 20c24 102 112 155 220 155zM209 53c105 0 179 82 179 172v29c-13 -14 -35 -19 -68 -23l-109 -12c-57 -7 -102 -34 -102 -86c0 -49 41 -80 100 -80z" />
    <glyph glyph-name="uni1EB3" unicode="&#x1eb3;" horiz-adv-x="523" 
d="M263 900c-31 0 -50 -24 -50 -53h-58c0 60 45 103 108 103s108 -43 108 -99c0 -54 -44 -95 -108 -112l-20 45c46 13 69 37 69 67c0 28 -21 49 -49 49zM262 577c-86 0 -146 61 -146 156h63c0 -57 33 -95 83 -95c51 0 83 38 83 95h63c0 -95 -60 -156 -146 -156zM269 516
c110 0 194 -60 194 -173v-343h-75v91c-43 -65 -112 -101 -192 -101c-96 0 -162 53 -162 139c0 97 82 140 178 150l113 13c42 4 63 20 63 58c0 64 -49 101 -120 101c-67 0 -127 -31 -146 -110l-73 20c24 102 112 155 220 155zM209 53c105 0 179 82 179 172v29
c-13 -14 -35 -19 -68 -23l-109 -12c-57 -7 -102 -34 -102 -86c0 -49 41 -80 100 -80z" />
    <glyph glyph-name="uni1EB5" unicode="&#x1eb5;" horiz-adv-x="523" 
d="M193 866c-27 0 -45 -18 -56 -47l-51 24c17 50 55 84 107 84c72 0 93 -62 140 -62c26 0 44 18 55 47l51 -25c-17 -49 -55 -83 -106 -83c-73 0 -94 62 -140 62zM262 638c51 0 83 38 83 95h63c0 -95 -60 -156 -146 -156s-146 61 -146 156h63c0 -57 33 -95 83 -95zM269 516
c110 0 194 -60 194 -173v-343h-75v91c-43 -65 -112 -101 -192 -101c-96 0 -162 53 -162 139c0 97 82 140 178 150l113 13c42 4 63 20 63 58c0 64 -49 101 -120 101c-67 0 -127 -31 -146 -110l-73 20c24 102 112 155 220 155zM209 53c105 0 179 82 179 172v29
c-13 -14 -35 -19 -68 -23l-109 -12c-57 -7 -102 -34 -102 -86c0 -49 41 -80 100 -80z" />
    <glyph glyph-name="uni01CE" unicode="&#x1ce;" horiz-adv-x="523" 
d="M305 576h-86l-113 160h76l80 -108l80 108h76zM269 516c110 0 194 -60 194 -173v-343h-75v91c-43 -65 -112 -101 -192 -101c-96 0 -162 53 -162 139c0 97 82 140 178 150l113 13c42 4 63 20 63 58c0 64 -49 101 -120 101c-67 0 -127 -31 -146 -110l-73 20
c24 102 112 155 220 155zM209 53c105 0 179 82 179 172v29c-13 -14 -35 -19 -68 -23l-109 -12c-57 -7 -102 -34 -102 -86c0 -49 41 -80 100 -80z" />
    <glyph glyph-name="acircumflex" unicode="&#xe2;" horiz-adv-x="523" 
d="M262 685l-80 -109h-76l113 160h86l113 -160h-76zM269 516c110 0 194 -60 194 -173v-343h-75v91c-43 -65 -112 -101 -192 -101c-96 0 -162 53 -162 139c0 97 82 140 178 150l113 13c42 4 63 20 63 58c0 64 -49 101 -120 101c-67 0 -127 -31 -146 -110l-73 20
c24 102 112 155 220 155zM209 53c105 0 179 82 179 172v29c-13 -14 -35 -19 -68 -23l-109 -12c-57 -7 -102 -34 -102 -86c0 -49 41 -80 100 -80z" />
    <glyph glyph-name="uni1EA5" unicode="&#x1ea5;" horiz-adv-x="523" 
d="M566 911l-113 -156h-77l107 156h83zM262 685l-80 -109h-76l113 160h86l113 -160h-76zM269 516c110 0 194 -60 194 -173v-343h-75v91c-43 -65 -112 -101 -192 -101c-96 0 -162 53 -162 139c0 97 82 140 178 150l113 13c42 4 63 20 63 58c0 64 -49 101 -120 101
c-67 0 -127 -31 -146 -110l-73 20c24 102 112 155 220 155zM209 53c105 0 179 82 179 172v29c-13 -14 -35 -19 -68 -23l-109 -12c-57 -7 -102 -34 -102 -86c0 -49 41 -80 100 -80z" />
    <glyph glyph-name="uni1EAD" unicode="&#x1ead;" horiz-adv-x="523" 
d="M262 685l-80 -109h-76l113 160h86l113 -160h-76zM269 516c110 0 194 -60 194 -173v-343h-75v91c-43 -65 -112 -101 -192 -101c-96 0 -162 53 -162 139c0 97 82 140 178 150l113 13c42 4 63 20 63 58c0 64 -49 101 -120 101c-67 0 -127 -31 -146 -110l-73 20
c24 102 112 155 220 155zM209 53c105 0 179 82 179 172v29c-13 -14 -35 -19 -68 -23l-109 -12c-57 -7 -102 -34 -102 -86c0 -49 41 -80 100 -80zM262 -102c27 0 49 -21 49 -49c0 -27 -22 -49 -49 -49s-49 22 -49 49c0 28 22 49 49 49z" />
    <glyph glyph-name="uni1EA7" unicode="&#x1ea7;" horiz-adv-x="523" 
d="M488 755h-77l-112 156h82zM262 685l-80 -109h-76l113 160h86l113 -160h-76zM269 516c110 0 194 -60 194 -173v-343h-75v91c-43 -65 -112 -101 -192 -101c-96 0 -162 53 -162 139c0 97 82 140 178 150l113 13c42 4 63 20 63 58c0 64 -49 101 -120 101
c-67 0 -127 -31 -146 -110l-73 20c24 102 112 155 220 155zM209 53c105 0 179 82 179 172v29c-13 -14 -35 -19 -68 -23l-109 -12c-57 -7 -102 -34 -102 -86c0 -49 41 -80 100 -80z" />
    <glyph glyph-name="uni1EA9" unicode="&#x1ea9;" horiz-adv-x="523" 
d="M420 938c63 0 108 -43 108 -99c0 -54 -43 -95 -108 -112l-20 44c46 14 69 38 69 68c0 28 -20 49 -49 49c-30 0 -50 -24 -49 -53h-59c0 60 46 103 108 103zM262 685l-80 -109h-76l113 160h86l113 -160h-76zM269 516c110 0 194 -60 194 -173v-343h-75v91
c-43 -65 -112 -101 -192 -101c-96 0 -162 53 -162 139c0 97 82 140 178 150l113 13c42 4 63 20 63 58c0 64 -49 101 -120 101c-67 0 -127 -31 -146 -110l-73 20c24 102 112 155 220 155zM209 53c105 0 179 82 179 172v29c-13 -14 -35 -19 -68 -23l-109 -12
c-57 -7 -102 -34 -102 -86c0 -49 41 -80 100 -80z" />
    <glyph glyph-name="uni1EAB" unicode="&#x1eab;" horiz-adv-x="523" 
d="M193 869c-26 0 -45 -18 -56 -47l-51 25c17 49 55 83 107 83c72 0 94 -61 140 -61c26 0 45 18 55 46l51 -24c-16 -49 -55 -83 -106 -83c-73 0 -94 61 -140 61zM219 736h86l113 -160h-76l-80 109l-80 -109h-76zM269 516c110 0 194 -60 194 -173v-343h-75v91
c-43 -65 -112 -101 -192 -101c-96 0 -162 53 -162 139c0 97 82 140 178 150l113 13c42 4 63 20 63 58c0 64 -49 101 -120 101c-67 0 -127 -31 -146 -110l-73 20c24 102 112 155 220 155zM209 53c105 0 179 82 179 172v29c-13 -14 -35 -19 -68 -23l-109 -12
c-57 -7 -102 -34 -102 -86c0 -49 41 -80 100 -80z" />
    <glyph glyph-name="adieresis" unicode="&#xe4;" horiz-adv-x="523" 
d="M156 609c-27 0 -48 21 -48 47c0 27 21 48 48 48c26 0 47 -21 47 -48c0 -26 -21 -47 -47 -47zM367 609c-26 0 -47 21 -47 47c0 27 21 48 47 48c27 0 48 -21 48 -48c0 -26 -21 -47 -48 -47zM269 516c110 0 194 -60 194 -173v-343h-75v91c-43 -65 -112 -101 -192 -101
c-96 0 -162 53 -162 139c0 97 82 140 178 150l113 13c42 4 63 20 63 58c0 64 -49 101 -120 101c-67 0 -127 -31 -146 -110l-73 20c24 102 112 155 220 155zM209 53c105 0 179 82 179 172v29c-13 -14 -35 -19 -68 -23l-109 -12c-57 -7 -102 -34 -102 -86
c0 -49 41 -80 100 -80z" />
    <glyph glyph-name="uni1EA1" unicode="&#x1ea1;" horiz-adv-x="523" 
d="M269 516c110 0 194 -60 194 -173v-343h-75v91c-43 -65 -112 -101 -192 -101c-96 0 -162 53 -162 139c0 97 82 140 178 150l113 13c42 4 63 20 63 58c0 64 -49 101 -120 101c-67 0 -127 -31 -146 -110l-73 20c24 102 112 155 220 155zM209 53c105 0 179 82 179 172v29
c-13 -14 -35 -19 -68 -23l-109 -12c-57 -7 -102 -34 -102 -86c0 -49 41 -80 100 -80zM262 -102c27 0 49 -21 49 -49c0 -27 -22 -49 -49 -49s-49 22 -49 49c0 28 22 49 49 49z" />
    <glyph glyph-name="agrave" unicode="&#xe0;" horiz-adv-x="523" 
d="M319 576h-79l-116 160h85zM269 516c110 0 194 -60 194 -173v-343h-75v91c-43 -65 -112 -101 -192 -101c-96 0 -162 53 -162 139c0 97 82 140 178 150l113 13c42 4 63 20 63 58c0 64 -49 101 -120 101c-67 0 -127 -31 -146 -110l-73 20c24 102 112 155 220 155zM209 53
c105 0 179 82 179 172v29c-13 -14 -35 -19 -68 -23l-109 -12c-57 -7 -102 -34 -102 -86c0 -49 41 -80 100 -80z" />
    <glyph glyph-name="uni1EA3" unicode="&#x1ea3;" horiz-adv-x="523" 
d="M262 713c-32 0 -52 -25 -52 -55h-60c0 62 47 107 112 107c64 0 111 -45 111 -103c0 -55 -45 -98 -111 -115l-21 46c47 14 71 39 71 69c0 29 -21 51 -50 51zM269 516c110 0 194 -60 194 -173v-343h-75v91c-43 -65 -112 -101 -192 -101c-96 0 -162 53 -162 139
c0 97 82 140 178 150l113 13c42 4 63 20 63 58c0 64 -49 101 -120 101c-67 0 -127 -31 -146 -110l-73 20c24 102 112 155 220 155zM209 53c105 0 179 82 179 172v29c-13 -14 -35 -19 -68 -23l-109 -12c-57 -7 -102 -34 -102 -86c0 -49 41 -80 100 -80z" />
    <glyph glyph-name="amacron" unicode="&#x101;" horiz-adv-x="523" 
d="M415 687v-61h-306v61h306zM269 516c110 0 194 -60 194 -173v-343h-75v91c-43 -65 -112 -101 -192 -101c-96 0 -162 53 -162 139c0 97 82 140 178 150l113 13c42 4 63 20 63 58c0 64 -49 101 -120 101c-67 0 -127 -31 -146 -110l-73 20c24 102 112 155 220 155zM209 53
c105 0 179 82 179 172v29c-13 -14 -35 -19 -68 -23l-109 -12c-57 -7 -102 -34 -102 -86c0 -49 41 -80 100 -80z" />
    <glyph glyph-name="aogonek" unicode="&#x105;" horiz-adv-x="523" 
d="M521 -195c-22 -9 -49 -15 -73 -15c-73 0 -110 42 -110 95c0 44 20 82 53 115h-3v91c-43 -65 -112 -101 -192 -101c-96 0 -162 53 -162 139c0 97 82 140 178 150l113 13c42 4 63 20 63 58c0 64 -49 101 -120 101c-67 0 -127 -31 -146 -110l-73 20c24 102 112 155 220 155
c110 0 194 -60 194 -173v-343h1c-36 -29 -53 -62 -53 -94c0 -28 19 -50 53 -50c20 0 33 3 53 11zM209 53c105 0 179 82 179 172v29c-13 -14 -35 -19 -68 -23l-109 -12c-57 -7 -102 -34 -102 -86c0 -49 41 -80 100 -80z" />
    <glyph glyph-name="aring" unicode="&#xe5;" horiz-adv-x="523" 
d="M262 554c-62 0 -109 44 -109 102c0 59 47 103 109 103c61 0 108 -44 108 -103c0 -58 -47 -102 -108 -102zM262 710c-30 0 -54 -23 -54 -54c0 -30 24 -53 54 -53s53 23 53 53c0 31 -23 54 -53 54zM269 516c110 0 194 -60 194 -173v-343h-75v91
c-43 -65 -112 -101 -192 -101c-96 0 -162 53 -162 139c0 97 82 140 178 150l113 13c42 4 63 20 63 58c0 64 -49 101 -120 101c-67 0 -127 -31 -146 -110l-73 20c24 102 112 155 220 155zM209 53c105 0 179 82 179 172v29c-13 -14 -35 -19 -68 -23l-109 -12
c-57 -7 -102 -34 -102 -86c0 -49 41 -80 100 -80z" />
    <glyph glyph-name="atilde" unicode="&#xe3;" horiz-adv-x="523" 
d="M190 657c-27 0 -47 -19 -58 -48l-52 25c17 51 57 86 110 86c74 0 96 -64 144 -64c27 0 46 19 57 48l52 -25c-17 -51 -56 -86 -109 -86c-75 0 -97 64 -144 64zM269 516c110 0 194 -60 194 -173v-343h-75v91c-43 -65 -112 -101 -192 -101c-96 0 -162 53 -162 139
c0 97 82 140 178 150l113 13c42 4 63 20 63 58c0 64 -49 101 -120 101c-67 0 -127 -31 -146 -110l-73 20c24 102 112 155 220 155zM209 53c105 0 179 82 179 172v29c-13 -14 -35 -19 -68 -23l-109 -12c-57 -7 -102 -34 -102 -86c0 -49 41 -80 100 -80z" />
    <glyph glyph-name="ae" unicode="&#xe6;" horiz-adv-x="960" 
d="M662 516c151 0 264 -124 253 -286h-445c11 -100 89 -173 192 -173c79 0 143 42 174 108l65 -27c-41 -87 -125 -148 -235 -148c-87 0 -161 39 -208 103v-93h-70v91c-43 -65 -112 -101 -192 -101c-96 0 -162 53 -162 139c0 97 82 140 178 150l113 13c42 4 63 20 63 58
c0 64 -49 101 -120 101c-67 0 -127 -31 -146 -110l-73 20c24 102 112 155 220 155c87 0 158 -38 184 -109c45 67 120 109 209 109zM656 449c-94 0 -167 -66 -184 -157h367c-15 89 -87 157 -183 157zM209 53c105 0 179 82 179 172v29c-13 -14 -35 -19 -68 -23l-109 -12
c-57 -7 -102 -34 -102 -86c0 -49 41 -80 100 -80z" />
    <glyph glyph-name="aeacute" unicode="&#x1fd;" horiz-adv-x="960" 
d="M615 736l-116 -160h-79l110 160h85zM662 516c151 0 264 -124 253 -286h-445c11 -100 89 -173 192 -173c79 0 143 42 174 108l65 -27c-41 -87 -125 -148 -235 -148c-87 0 -161 39 -208 103v-93h-70v91c-43 -65 -112 -101 -192 -101c-96 0 -162 53 -162 139
c0 97 82 140 178 150l113 13c42 4 63 20 63 58c0 64 -49 101 -120 101c-67 0 -127 -31 -146 -110l-73 20c24 102 112 155 220 155c87 0 158 -38 184 -109c45 67 120 109 209 109zM656 449c-94 0 -167 -66 -184 -157h367c-15 89 -87 157 -183 157zM209 53
c105 0 179 82 179 172v29c-13 -14 -35 -19 -68 -23l-109 -12c-57 -7 -102 -34 -102 -86c0 -49 41 -80 100 -80z" />
    <glyph glyph-name="b" unicode="b" horiz-adv-x="638" 
d="M338 516c146 0 256 -114 256 -263c0 -150 -110 -263 -256 -263c-85 0 -155 39 -199 101v-91h-75v740h75v-325c44 62 114 101 199 101zM328 60c108 0 189 83 189 193s-81 193 -189 193c-107 0 -189 -83 -189 -193s82 -193 189 -193z" />
    <glyph glyph-name="c" unicode="c" horiz-adv-x="593" 
d="M44 253c0 149 115 263 266 263c111 0 201 -62 242 -158l-69 -24c-31 69 -95 112 -173 112c-107 0 -189 -83 -189 -193s82 -193 189 -193c78 0 142 43 173 112l69 -24c-41 -96 -131 -158 -242 -158c-151 0 -266 113 -266 263z" />
    <glyph glyph-name="cacute" unicode="&#x107;" horiz-adv-x="593" 
d="M253 576l110 160h85l-116 -160h-79zM44 253c0 149 115 263 266 263c111 0 201 -62 242 -158l-69 -24c-31 69 -95 112 -173 112c-107 0 -189 -83 -189 -193s82 -193 189 -193c78 0 142 43 173 112l69 -24c-41 -96 -131 -158 -242 -158c-151 0 -266 113 -266 263z" />
    <glyph glyph-name="ccaron" unicode="&#x10d;" horiz-adv-x="593" 
d="M353 576h-86l-113 160h76l80 -108l80 108h76zM310 60c78 0 142 43 173 112l69 -24c-41 -96 -131 -158 -242 -158c-151 0 -266 113 -266 263c0 149 115 263 266 263c111 0 201 -62 242 -158l-69 -24c-31 69 -95 112 -173 112c-107 0 -189 -83 -189 -193s82 -193 189 -193z
" />
    <glyph glyph-name="ccedilla" unicode="&#xe7;" horiz-adv-x="593" 
d="M310 60c78 0 142 43 173 112l69 -24c-34 -80 -103 -137 -189 -153c28 -29 41 -64 41 -95c0 -63 -50 -110 -133 -110c-17 0 -35 2 -56 7l6 63c14 -3 27 -4 38 -4c48 0 72 25 72 57c0 25 -15 55 -45 78c-139 11 -242 120 -242 262c0 149 115 263 266 263
c111 0 201 -62 242 -158l-69 -24c-31 69 -95 112 -173 112c-107 0 -189 -83 -189 -193s82 -193 189 -193z" />
    <glyph glyph-name="ccircumflex" unicode="&#x109;" horiz-adv-x="593" 
d="M310 685l-80 -109h-76l113 160h86l113 -160h-76zM310 60c78 0 142 43 173 112l69 -24c-41 -96 -131 -158 -242 -158c-151 0 -266 113 -266 263c0 149 115 263 266 263c111 0 201 -62 242 -158l-69 -24c-31 69 -95 112 -173 112c-107 0 -189 -83 -189 -193
s82 -193 189 -193z" />
    <glyph glyph-name="cdotaccent" unicode="&#x10b;" horiz-adv-x="593" 
d="M261 656c0 28 22 49 49 49s49 -21 49 -49c0 -26 -22 -48 -49 -48s-49 22 -49 48zM44 253c0 149 115 263 266 263c111 0 201 -62 242 -158l-69 -24c-31 69 -95 112 -173 112c-107 0 -189 -83 -189 -193s82 -193 189 -193c78 0 142 43 173 112l69 -24
c-41 -96 -131 -158 -242 -158c-151 0 -266 113 -266 263z" />
    <glyph glyph-name="d" unicode="d" horiz-adv-x="638" 
d="M499 740h75v-740h-75v91c-44 -62 -114 -101 -199 -101c-146 0 -256 113 -256 263c0 149 110 263 256 263c85 0 155 -39 199 -101v325zM310 60c108 0 189 83 189 193s-81 193 -189 193c-107 0 -189 -83 -189 -193s82 -193 189 -193z" />
    <glyph glyph-name="eth" unicode="&#xf0;" horiz-adv-x="606" 
d="M361 617c136 -117 201 -240 201 -371c0 -147 -112 -256 -259 -256s-259 109 -259 251c0 144 109 244 245 244c43 0 90 -10 132 -36c-33 45 -80 92 -143 140l-163 -56l-19 58l122 42c-32 21 -67 43 -105 65l59 52c49 -29 93 -58 133 -88l149 51l18 -58zM303 60
c104 0 182 78 182 181c0 104 -78 182 -182 182s-182 -78 -182 -182c0 -103 78 -181 182 -181z" />
    <glyph glyph-name="dcaron" unicode="&#x10f;" horiz-adv-x="758" 
d="M663 763h72l-45 -188h-62zM499 740h75v-740h-75v91c-44 -62 -114 -101 -199 -101c-146 0 -256 113 -256 263c0 149 110 263 256 263c85 0 155 -39 199 -101v325zM310 60c108 0 189 83 189 193s-81 193 -189 193c-107 0 -189 -83 -189 -193s82 -193 189 -193z" />
    <glyph glyph-name="dcroat" unicode="&#x111;" horiz-adv-x="638" 
d="M645 637v-61h-71v-576h-75v91c-44 -62 -114 -101 -199 -101c-146 0 -256 113 -256 263c0 149 110 263 256 263c85 0 155 -39 199 -101v161h-159v61h159v103h75v-103h71zM310 60c108 0 189 83 189 193s-81 193 -189 193c-107 0 -189 -83 -189 -193s82 -193 189 -193z" />
    <glyph glyph-name="e" unicode="e" horiz-adv-x="610" 
d="M305 516c155 0 271 -124 259 -286h-445c11 -100 89 -173 192 -173c79 0 143 42 175 108l64 -27c-41 -87 -128 -148 -240 -148c-151 0 -266 113 -266 263c0 149 113 263 261 263zM305 449c-93 0 -167 -66 -184 -157h367c-15 89 -87 157 -183 157z" />
    <glyph glyph-name="eacute" unicode="&#xe9;" horiz-adv-x="610" 
d="M443 736l-116 -160h-79l110 160h85zM305 516c155 0 271 -124 259 -286h-445c11 -100 89 -173 192 -173c79 0 143 42 175 108l64 -27c-41 -87 -128 -148 -240 -148c-151 0 -266 113 -266 263c0 149 113 263 261 263zM305 449c-93 0 -167 -66 -184 -157h367
c-15 89 -87 157 -183 157z" />
    <glyph glyph-name="ebreve" unicode="&#x115;" horiz-adv-x="610" 
d="M305 577c-86 0 -146 61 -146 156h63c0 -57 33 -95 83 -95c51 0 83 38 83 95h63c0 -95 -60 -156 -146 -156zM305 516c155 0 271 -124 259 -286h-445c11 -100 89 -173 192 -173c79 0 143 42 175 108l64 -27c-41 -87 -128 -148 -240 -148c-151 0 -266 113 -266 263
c0 149 113 263 261 263zM305 449c-93 0 -167 -66 -184 -157h367c-15 89 -87 157 -183 157z" />
    <glyph glyph-name="ecaron" unicode="&#x11b;" horiz-adv-x="610" 
d="M348 576h-86l-113 160h76l80 -108l80 108h76zM305 516c155 0 271 -124 259 -286h-445c11 -100 89 -173 192 -173c79 0 143 42 175 108l64 -27c-41 -87 -128 -148 -240 -148c-151 0 -266 113 -266 263c0 149 113 263 261 263zM305 449c-93 0 -167 -66 -184 -157h367
c-15 89 -87 157 -183 157z" />
    <glyph glyph-name="ecircumflex" unicode="&#xea;" horiz-adv-x="610" 
d="M305 685l-80 -109h-76l113 160h86l113 -160h-76zM305 516c155 0 271 -124 259 -286h-445c11 -100 89 -173 192 -173c79 0 143 42 175 108l64 -27c-41 -87 -128 -148 -240 -148c-151 0 -266 113 -266 263c0 149 113 263 261 263zM305 449c-93 0 -167 -66 -184 -157h367
c-15 89 -87 157 -183 157z" />
    <glyph glyph-name="uni1EBF" unicode="&#x1ebf;" horiz-adv-x="610" 
d="M609 911l-113 -156h-77l107 156h83zM305 685l-80 -109h-76l113 160h86l113 -160h-76zM305 516c155 0 271 -124 259 -286h-445c11 -100 89 -173 192 -173c79 0 143 42 175 108l64 -27c-41 -87 -128 -148 -240 -148c-151 0 -266 113 -266 263c0 149 113 263 261 263z
M305 449c-93 0 -167 -66 -184 -157h367c-15 89 -87 157 -183 157z" />
    <glyph glyph-name="uni1EC7" unicode="&#x1ec7;" horiz-adv-x="610" 
d="M305 685l-80 -109h-76l113 160h86l113 -160h-76zM305 516c155 0 271 -124 259 -286h-445c11 -100 89 -173 192 -173c79 0 143 42 175 108l64 -27c-41 -87 -128 -148 -240 -148c-151 0 -266 113 -266 263c0 149 113 263 261 263zM305 449c-93 0 -167 -66 -184 -157h367
c-15 89 -87 157 -183 157zM310 -102c27 0 49 -21 49 -49c0 -27 -22 -49 -49 -49s-49 22 -49 49c0 28 22 49 49 49z" />
    <glyph glyph-name="uni1EC1" unicode="&#x1ec1;" horiz-adv-x="610" 
d="M531 755h-77l-112 156h82zM305 685l-80 -109h-76l113 160h86l113 -160h-76zM305 516c155 0 271 -124 259 -286h-445c11 -100 89 -173 192 -173c79 0 143 42 175 108l64 -27c-41 -87 -128 -148 -240 -148c-151 0 -266 113 -266 263c0 149 113 263 261 263zM305 449
c-93 0 -167 -66 -184 -157h367c-15 89 -87 157 -183 157z" />
    <glyph glyph-name="uni1EC3" unicode="&#x1ec3;" horiz-adv-x="610" 
d="M463 888c-30 0 -50 -24 -49 -53h-59c0 60 46 103 108 103c63 0 108 -43 108 -99c0 -54 -43 -95 -108 -112l-20 44c46 14 69 38 69 68c0 28 -20 49 -49 49zM305 685l-80 -109h-76l113 160h86l113 -160h-76zM305 516c155 0 271 -124 259 -286h-445
c11 -100 89 -173 192 -173c79 0 143 42 175 108l64 -27c-41 -87 -128 -148 -240 -148c-151 0 -266 113 -266 263c0 149 113 263 261 263zM305 449c-93 0 -167 -66 -184 -157h367c-15 89 -87 157 -183 157z" />
    <glyph glyph-name="uni1EC5" unicode="&#x1ec5;" horiz-adv-x="610" 
d="M236 869c-26 0 -45 -18 -56 -47l-51 25c17 49 55 83 107 83c72 0 94 -61 140 -61c26 0 45 18 55 46l51 -24c-16 -49 -55 -83 -106 -83c-73 0 -94 61 -140 61zM262 736h86l113 -160h-76l-80 109l-80 -109h-76zM305 516c155 0 271 -124 259 -286h-445
c11 -100 89 -173 192 -173c79 0 143 42 175 108l64 -27c-41 -87 -128 -148 -240 -148c-151 0 -266 113 -266 263c0 149 113 263 261 263zM305 449c-93 0 -167 -66 -184 -157h367c-15 89 -87 157 -183 157z" />
    <glyph glyph-name="edieresis" unicode="&#xeb;" horiz-adv-x="610" 
d="M200 609c-27 0 -48 21 -48 47c0 27 21 48 48 48c26 0 47 -21 47 -48c0 -26 -21 -47 -47 -47zM411 609c-26 0 -47 21 -47 47c0 27 21 48 47 48c27 0 48 -21 48 -48c0 -26 -21 -47 -48 -47zM305 516c155 0 271 -124 259 -286h-445c11 -100 89 -173 192 -173
c79 0 143 42 175 108l64 -27c-41 -87 -128 -148 -240 -148c-151 0 -266 113 -266 263c0 149 113 263 261 263zM305 449c-93 0 -167 -66 -184 -157h367c-15 89 -87 157 -183 157z" />
    <glyph glyph-name="edotaccent" unicode="&#x117;" horiz-adv-x="610" 
d="M305 608c-27 0 -49 22 -49 48c0 28 22 49 49 49s49 -21 49 -49c0 -26 -22 -48 -49 -48zM305 516c155 0 271 -124 259 -286h-445c11 -100 89 -173 192 -173c79 0 143 42 175 108l64 -27c-41 -87 -128 -148 -240 -148c-151 0 -266 113 -266 263c0 149 113 263 261 263z
M305 449c-93 0 -167 -66 -184 -157h367c-15 89 -87 157 -183 157z" />
    <glyph glyph-name="uni1EB9" unicode="&#x1eb9;" horiz-adv-x="610" 
d="M305 516c155 0 271 -124 259 -286h-445c11 -100 89 -173 192 -173c79 0 143 42 175 108l64 -27c-41 -87 -128 -148 -240 -148c-151 0 -266 113 -266 263c0 149 113 263 261 263zM305 449c-93 0 -167 -66 -184 -157h367c-15 89 -87 157 -183 157zM310 -102
c27 0 49 -21 49 -49c0 -27 -22 -49 -49 -49s-49 22 -49 49c0 28 22 49 49 49z" />
    <glyph glyph-name="egrave" unicode="&#xe8;" horiz-adv-x="610" 
d="M363 576h-79l-116 160h85zM305 516c155 0 271 -124 259 -286h-445c11 -100 89 -173 192 -173c79 0 143 42 175 108l64 -27c-41 -87 -128 -148 -240 -148c-151 0 -266 113 -266 263c0 149 113 263 261 263zM305 449c-93 0 -167 -66 -184 -157h367c-15 89 -87 157 -183 157
z" />
    <glyph glyph-name="uni1EBB" unicode="&#x1ebb;" horiz-adv-x="610" 
d="M305 713c-32 0 -52 -25 -52 -55h-60c0 62 47 107 112 107c64 0 111 -45 111 -103c0 -55 -45 -98 -111 -115l-21 46c47 14 71 39 71 69c0 29 -21 51 -50 51zM305 516c155 0 271 -124 259 -286h-445c11 -100 89 -173 192 -173c79 0 143 42 175 108l64 -27
c-41 -87 -128 -148 -240 -148c-151 0 -266 113 -266 263c0 149 113 263 261 263zM305 449c-93 0 -167 -66 -184 -157h367c-15 89 -87 157 -183 157z" />
    <glyph glyph-name="emacron" unicode="&#x113;" horiz-adv-x="610" 
d="M458 687v-61h-306v61h306zM305 516c155 0 271 -124 259 -286h-445c11 -100 89 -173 192 -173c79 0 143 42 175 108l64 -27c-41 -87 -128 -148 -240 -148c-151 0 -266 113 -266 263c0 149 113 263 261 263zM305 449c-93 0 -167 -66 -184 -157h367c-15 89 -87 157 -183 157
z" />
    <glyph glyph-name="eogonek" unicode="&#x119;" horiz-adv-x="611" 
d="M305 516c155 0 271 -124 259 -286h-445c11 -100 89 -173 192 -173c79 0 143 42 175 108l64 -27c-10 -20 -22 -39 -36 -56h1c-40 -55 -68 -123 -68 -169c0 -32 15 -57 54 -57c19 0 32 3 52 11l5 -62c-22 -9 -49 -15 -74 -15c-72 0 -109 42 -109 99c0 38 15 81 40 121
c-32 -13 -67 -20 -105 -20c-151 0 -266 113 -266 263c0 149 113 263 261 263zM305 449c-93 0 -167 -66 -184 -157h367c-15 89 -87 157 -183 157z" />
    <glyph glyph-name="uni1EBD" unicode="&#x1ebd;" horiz-adv-x="610" 
d="M233 657c-27 0 -47 -19 -58 -48l-52 25c17 51 57 86 110 86c74 0 96 -64 144 -64c27 0 46 19 57 48l52 -25c-17 -51 -56 -86 -109 -86c-75 0 -97 64 -144 64zM305 516c155 0 271 -124 259 -286h-445c11 -100 89 -173 192 -173c79 0 143 42 175 108l64 -27
c-41 -87 -128 -148 -240 -148c-151 0 -266 113 -266 263c0 149 113 263 261 263zM305 449c-93 0 -167 -66 -184 -157h367c-15 89 -87 157 -183 157z" />
    <glyph glyph-name="uni0259" unicode="&#x259;" horiz-adv-x="611" 
d="M301 516c151 0 266 -114 266 -263c0 -150 -113 -263 -261 -263c-155 0 -271 124 -259 286h445c-11 100 -89 173 -193 173c-78 0 -142 -42 -174 -108l-65 27c42 87 129 148 241 148zM306 57c93 0 167 66 184 157h-367c14 -89 86 -157 183 -157z" />
    <glyph glyph-name="uni0292" unicode="&#x292;" horiz-adv-x="485" 
d="M249 219c120 -17 199 -102 199 -214c0 -124 -96 -215 -213 -215c-110 0 -194 59 -218 159l70 19c18 -72 75 -109 147 -109c79 0 137 64 137 146s-61 149 -157 149h-50v63l179 221h-298v68h386v-64z" />
    <glyph glyph-name="uni01EF" unicode="&#x1ef;" horiz-adv-x="485" 
d="M277 576h-86l-113 160h76l80 -108l80 108h76zM249 219c120 -17 199 -102 199 -214c0 -124 -96 -215 -213 -215c-110 0 -194 59 -218 159l70 19c18 -72 75 -109 147 -109c79 0 137 64 137 146s-61 149 -157 149h-50v63l179 221h-298v68h386v-64z" />
    <glyph glyph-name="f" unicode="f" horiz-adv-x="401" 
d="M138 0v438h-114v68h114v59c0 119 56 175 178 175h51v-68h-51c-74 0 -103 -30 -103 -104v-62h154v-68h-154v-438h-75z" />
    <glyph glyph-name="g" unicode="g" horiz-adv-x="638" 
d="M499 506h75v-453c0 -150 -115 -263 -266 -263c-111 0 -198 61 -239 148l68 32c31 -67 93 -111 171 -111c108 0 191 83 191 194v43c-44 -62 -114 -100 -199 -100c-146 0 -256 112 -256 260s110 260 256 260c85 0 155 -38 199 -100v90zM310 65c108 0 189 83 189 191
s-81 190 -189 190c-107 0 -189 -82 -189 -190s82 -191 189 -191z" />
    <glyph glyph-name="uni01F5" unicode="&#x1f5;" horiz-adv-x="638" 
d="M457 736l-116 -160h-79l110 160h85zM499 506h75v-453c0 -150 -115 -263 -266 -263c-111 0 -198 61 -239 148l68 32c31 -67 93 -111 171 -111c108 0 191 83 191 194v43c-44 -62 -114 -100 -199 -100c-146 0 -256 112 -256 260s110 260 256 260c85 0 155 -38 199 -100v90z
M310 65c108 0 189 83 189 191s-81 190 -189 190c-107 0 -189 -82 -189 -190s82 -191 189 -191z" />
    <glyph glyph-name="gbreve" unicode="&#x11f;" horiz-adv-x="638" 
d="M319 577c-86 0 -146 61 -146 156h63c0 -57 33 -95 83 -95c51 0 83 38 83 95h63c0 -95 -60 -156 -146 -156zM499 506h75v-453c0 -150 -115 -263 -266 -263c-111 0 -198 61 -239 148l68 32c31 -67 93 -111 171 -111c108 0 191 83 191 194v43c-44 -62 -114 -100 -199 -100
c-146 0 -256 112 -256 260s110 260 256 260c85 0 155 -38 199 -100v90zM310 65c108 0 189 83 189 191s-81 190 -189 190c-107 0 -189 -82 -189 -190s82 -191 189 -191z" />
    <glyph glyph-name="gcaron" unicode="&#x1e7;" horiz-adv-x="638" 
d="M362 576h-86l-113 160h76l80 -108l80 108h76zM499 506h75v-453c0 -150 -115 -263 -266 -263c-111 0 -198 61 -239 148l68 32c31 -67 93 -111 171 -111c108 0 191 83 191 194v43c-44 -62 -114 -100 -199 -100c-146 0 -256 112 -256 260s110 260 256 260
c85 0 155 -38 199 -100v90zM310 65c108 0 189 83 189 191s-81 190 -189 190c-107 0 -189 -82 -189 -190s82 -191 189 -191z" />
    <glyph glyph-name="gcircumflex" unicode="&#x11d;" horiz-adv-x="638" 
d="M319 685l-80 -109h-76l113 160h86l113 -160h-76zM499 506h75v-453c0 -150 -115 -263 -266 -263c-111 0 -198 61 -239 148l68 32c31 -67 93 -111 171 -111c108 0 191 83 191 194v43c-44 -62 -114 -100 -199 -100c-146 0 -256 112 -256 260s110 260 256 260
c85 0 155 -38 199 -100v90zM310 65c108 0 189 83 189 191s-81 190 -189 190c-107 0 -189 -82 -189 -190s82 -191 189 -191z" />
    <glyph glyph-name="uni0123" unicode="&#x123;" horiz-adv-x="638" 
d="M374 740l-35 -154h-74l45 154h64zM499 506h75v-453c0 -150 -115 -263 -266 -263c-111 0 -198 61 -239 148l68 32c31 -67 93 -111 171 -111c108 0 191 83 191 194v43c-44 -62 -114 -100 -199 -100c-146 0 -256 112 -256 260s110 260 256 260c85 0 155 -38 199 -100v90z
M310 65c108 0 189 83 189 191s-81 190 -189 190c-107 0 -189 -82 -189 -190s82 -191 189 -191z" />
    <glyph glyph-name="gdotaccent" unicode="&#x121;" horiz-adv-x="638" 
d="M319 608c-27 0 -49 22 -49 48c0 28 22 49 49 49s49 -21 49 -49c0 -26 -22 -48 -49 -48zM499 506h75v-453c0 -150 -115 -263 -266 -263c-111 0 -198 61 -239 148l68 32c31 -67 93 -111 171 -111c108 0 191 83 191 194v43c-44 -62 -114 -100 -199 -100
c-146 0 -256 112 -256 260s110 260 256 260c85 0 155 -38 199 -100v90zM310 65c108 0 189 83 189 191s-81 190 -189 190c-107 0 -189 -82 -189 -190s82 -191 189 -191z" />
    <glyph glyph-name="h" unicode="h" horiz-adv-x="590" 
d="M313 516c126 0 217 -93 217 -218v-298h-75v289c0 90 -67 158 -158 158c-90 0 -158 -68 -158 -158v-289h-75v740h75v-313c37 54 99 89 174 89z" />
    <glyph glyph-name="hbar" unicode="&#x127;" horiz-adv-x="590" 
d="M313 516c126 0 217 -93 217 -218v-298h-75v289c0 90 -67 158 -158 158c-90 0 -158 -68 -158 -158v-289h-75v576h-71v61h71v103h75v-103h160v-61h-160v-149c37 54 99 89 174 89z" />
    <glyph glyph-name="hcircumflex" unicode="&#x125;" horiz-adv-x="590" 
d="M201 789l-99 100l-100 -100h-89l150 151h77l150 -151h-89zM313 516c126 0 217 -93 217 -218v-298h-75v289c0 90 -67 158 -158 158c-90 0 -158 -68 -158 -158v-289h-75v740h75v-313c37 54 99 89 174 89z" />
    <glyph glyph-name="i" unicode="i" horiz-adv-x="203" 
d="M53 656c0 28 21 49 49 49c27 0 49 -21 49 -49c0 -26 -22 -48 -49 -48c-28 0 -49 22 -49 48zM64 0v506h75v-506h-75z" />
    <glyph glyph-name="dotlessi" unicode="&#x131;" horiz-adv-x="203" 
d="M64 0v506h75v-506h-75z" />
    <glyph glyph-name="iacute" unicode="&#xed;" horiz-adv-x="203" 
d="M44 576l110 160h85l-116 -160h-79zM64 0v506h75v-506h-75z" />
    <glyph glyph-name="ibreve" unicode="&#x12d;" horiz-adv-x="203" 
d="M19 733c0 -57 33 -95 83 -95c51 0 83 38 83 95h63c0 -95 -60 -156 -146 -156s-146 61 -146 156h63zM64 0v506h75v-506h-75z" />
    <glyph glyph-name="uni01D0" unicode="&#x1d0;" horiz-adv-x="203" 
d="M182 736h76l-113 -160h-86l-113 160h76l80 -108zM64 0v506h75v-506h-75z" />
    <glyph glyph-name="icircumflex" unicode="&#xee;" horiz-adv-x="203" 
d="M145 736l113 -160h-76l-80 109l-80 -109h-76l113 160h86zM64 0v506h75v-506h-75z" />
    <glyph glyph-name="idieresis" unicode="&#xef;" horiz-adv-x="203" 
d="M-30 656c0 27 21 48 47 48c27 0 48 -21 48 -48c0 -26 -21 -47 -48 -47c-26 0 -47 21 -47 47zM139 656c0 27 21 48 47 48s48 -21 48 -48c0 -26 -22 -47 -48 -47s-47 21 -47 47zM64 0v506h75v-506h-75z" />
    <glyph glyph-name="i.loclTRK" horiz-adv-x="203" 
d="M53 656c0 28 21 49 49 49c27 0 49 -21 49 -49c0 -26 -22 -48 -49 -48c-28 0 -49 22 -49 48zM64 0v506h75v-506h-75z" />
    <glyph glyph-name="uni1ECB" unicode="&#x1ecb;" horiz-adv-x="203" 
d="M53 656c0 28 21 49 49 49c27 0 49 -21 49 -49c0 -26 -22 -48 -49 -48c-28 0 -49 22 -49 48zM64 0v506h75v-506h-75zM53 -151c0 28 22 49 49 49s49 -21 49 -49c0 -27 -22 -49 -49 -49s-49 22 -49 49z" />
    <glyph glyph-name="igrave" unicode="&#xec;" horiz-adv-x="203" 
d="M80 576l-116 160h85l110 -160h-79zM64 0v506h75v-506h-75z" />
    <glyph glyph-name="uni1EC9" unicode="&#x1ec9;" horiz-adv-x="203" 
d="M81 593c47 14 71 39 71 69c0 29 -21 51 -50 51c-32 0 -52 -25 -52 -55h-60c0 62 47 107 112 107c64 0 111 -45 111 -103c0 -55 -45 -98 -111 -115zM64 0v506h75v-506h-75z" />
    <glyph glyph-name="ij" unicode="&#x133;" horiz-adv-x="427" 
d="M53 656c0 28 21 49 49 49c27 0 49 -21 49 -49c0 -26 -22 -48 -49 -48c-28 0 -49 22 -49 48zM276 656c0 28 21 49 49 49c27 0 49 -21 49 -49c0 -26 -22 -48 -49 -48c-28 0 -49 22 -49 48zM64 0v506h75v-506h-75zM192 -139c73 -3 95 21 95 92v553h75v-553
c0 -95 -39 -167 -170 -159v67z" />
    <glyph glyph-name="imacron" unicode="&#x12b;" horiz-adv-x="203" 
d="M-17 626v61h237v-61h-237zM64 0v506h75v-506h-75z" />
    <glyph glyph-name="iogonek" unicode="&#x12f;" horiz-adv-x="203" 
d="M102 608c-27 0 -49 22 -49 48c0 28 22 49 49 49s49 -21 49 -49c0 -26 -22 -48 -49 -48zM191 -195c-22 -9 -49 -15 -73 -15c-73 0 -110 42 -110 95c0 45 21 84 56 117v504h75v-506h-5c-36 -29 -53 -62 -53 -94c0 -28 19 -50 53 -50c20 0 33 3 53 11z" />
    <glyph glyph-name="itilde" unicode="&#x129;" horiz-adv-x="203" 
d="M-80 634c17 51 57 86 110 86c74 0 96 -64 144 -64c27 0 46 19 57 48l52 -25c-17 -51 -56 -86 -109 -86c-75 0 -97 64 -144 64c-27 0 -47 -19 -58 -48zM64 0v506h75v-506h-75z" />
    <glyph glyph-name="j" unicode="j" horiz-adv-x="223" 
d="M73 656c0 28 21 49 49 49c27 0 49 -21 49 -49c0 -26 -22 -48 -49 -48c-28 0 -49 22 -49 48zM-11 -139c73 -3 95 21 95 92v553h75v-553c0 -95 -39 -167 -170 -159v67z" />
    <glyph glyph-name="uni0237" unicode="&#x237;" horiz-adv-x="223" 
d="M-11 -139c73 -3 95 21 95 92v553h75v-553c0 -95 -39 -167 -170 -159v67z" />
    <glyph glyph-name="jcircumflex" unicode="&#x135;" horiz-adv-x="223" 
d="M165 736l113 -160h-76l-80 109l-80 -109h-76l113 160h86zM84 506h75v-553c0 -95 -39 -167 -170 -159v67c73 -3 95 21 95 92v553z" />
    <glyph glyph-name="k" unicode="k" horiz-adv-x="529" 
d="M525 0h-97l-194 242l-95 -101v-141h-75v740h75v-501l246 267h96l-196 -209z" />
    <glyph glyph-name="uni01E9" unicode="&#x1e9;" horiz-adv-x="529" 
d="M308 810h-86l-113 160h76l80 -108l80 108h76zM525 0h-97l-194 242l-95 -101v-141h-75v740h75v-501l246 267h96l-196 -209z" />
    <glyph glyph-name="uni0137" unicode="&#x137;" horiz-adv-x="529" 
d="M285 297l240 -297h-97l-194 242l-95 -101v-141h-75v740h75v-501l246 267h96zM210 -210l35 154h74l-45 -154h-64z" />
    <glyph glyph-name="kgreenlandic" unicode="&#x138;" horiz-adv-x="529" 
d="M525 0h-97l-194 242l-95 -101v-141h-75v506h75v-267l246 267h96l-196 -209z" />
    <glyph glyph-name="l" unicode="l" horiz-adv-x="203" 
d="M64 0v740h75v-740h-75z" />
    <glyph glyph-name="lacute" unicode="&#x13a;" horiz-adv-x="203" 
d="M20 789l149 151h95l-155 -151h-89zM64 0v740h75v-740h-75z" />
    <glyph glyph-name="lcaron" unicode="&#x13e;" horiz-adv-x="323" 
d="M193 575l35 188h72l-45 -188h-62zM64 0v740h75v-740h-75z" />
    <glyph glyph-name="uni013C" unicode="&#x13c;" horiz-adv-x="203" 
d="M64 0v740h75v-740h-75zM47 -210l35 154h74l-45 -154h-64z" />
    <glyph glyph-name="ldot" unicode="&#x140;" horiz-adv-x="307" 
d="M64 0v740h75v-740h-75zM203 350c0 29 23 52 52 52s52 -23 52 -52c0 -28 -23 -52 -52 -52s-52 24 -52 52z" />
    <glyph glyph-name="lslash" unicode="&#x142;" horiz-adv-x="258" 
d="M253 440v-63l-87 -30v-347h-75v320l-87 -30v63l87 30v357h75v-330z" />
    <glyph glyph-name="m" unicode="m" horiz-adv-x="901" 
d="M639 516c117 0 203 -93 203 -218v-298h-75v289c0 90 -59 158 -139 158c-78 0 -138 -68 -138 -158v-289h-75v289c0 90 -59 158 -138 158c-78 0 -138 -68 -138 -158v-289h-75v506h75v-74c34 50 88 84 154 84c77 0 141 -43 173 -109c33 66 95 109 173 109z" />
    <glyph glyph-name="n" unicode="n" horiz-adv-x="590" 
d="M313 516c126 0 217 -93 217 -218v-298h-75v289c0 90 -67 158 -158 158c-90 0 -158 -68 -158 -158v-289h-75v506h75v-79c37 54 99 89 174 89z" />
    <glyph glyph-name="nacute" unicode="&#x144;" horiz-adv-x="590" 
d="M433 736l-116 -160h-79l110 160h85zM313 516c126 0 217 -93 217 -218v-298h-75v289c0 90 -67 158 -158 158c-90 0 -158 -68 -158 -158v-289h-75v506h75v-79c37 54 99 89 174 89z" />
    <glyph glyph-name="napostrophe" unicode="&#x149;" horiz-adv-x="799" 
d="M106 750c48 0 79 -44 79 -99c0 -64 -35 -120 -97 -154l-37 42c64 35 79 85 69 113c-29 -10 -67 7 -67 46c0 29 23 52 53 52zM522 516c126 0 217 -93 217 -218v-298h-75v289c0 90 -67 158 -158 158c-90 0 -158 -68 -158 -158v-289h-75v506h75v-79c37 54 99 89 174 89z" />
    <glyph glyph-name="ncaron" unicode="&#x148;" horiz-adv-x="590" 
d="M338 576h-86l-113 160h76l80 -108l80 108h76zM313 516c126 0 217 -93 217 -218v-298h-75v289c0 90 -67 158 -158 158c-90 0 -158 -68 -158 -158v-289h-75v506h75v-79c37 54 99 89 174 89z" />
    <glyph glyph-name="uni0146" unicode="&#x146;" horiz-adv-x="590" 
d="M313 516c126 0 217 -93 217 -218v-298h-75v289c0 90 -67 158 -158 158c-90 0 -158 -68 -158 -158v-289h-75v506h75v-79c37 54 99 89 174 89zM241 -210l35 154h74l-45 -154h-64z" />
    <glyph glyph-name="eng" unicode="&#x14b;" horiz-adv-x="590" 
d="M313 516c126 0 217 -93 217 -218v-345c0 -95 -39 -167 -170 -159v67c73 -3 95 21 95 92v336c0 90 -67 158 -158 158c-90 0 -158 -68 -158 -158v-289h-75v506h75v-79c37 54 99 89 174 89z" />
    <glyph glyph-name="uni0272" unicode="&#x272;" horiz-adv-x="590" 
d="M313 516c126 0 217 -93 217 -218v-298h-75v289c0 90 -67 158 -158 158c-90 0 -158 -68 -158 -158v-336c0 -95 -39 -167 -170 -159v67c73 -3 95 21 95 92v553h75v-79c37 54 99 89 174 89z" />
    <glyph glyph-name="ntilde" unicode="&#xf1;" horiz-adv-x="590" 
d="M224 657c-27 0 -47 -19 -58 -48l-52 25c17 51 57 86 110 86c74 0 96 -64 144 -64c27 0 46 19 57 48l52 -25c-17 -51 -56 -86 -109 -86c-75 0 -97 64 -144 64zM313 516c126 0 217 -93 217 -218v-298h-75v289c0 90 -67 158 -158 158c-90 0 -158 -68 -158 -158v-289h-75v506
h75v-79c37 54 99 89 174 89z" />
    <glyph glyph-name="o" unicode="o" horiz-adv-x="620" 
d="M44 253c0 149 115 263 266 263s266 -114 266 -263c0 -150 -115 -263 -266 -263s-266 113 -266 263zM121 253c0 -110 82 -193 189 -193c108 0 189 83 189 193s-81 193 -189 193c-107 0 -189 -83 -189 -193z" />
    <glyph glyph-name="oacute" unicode="&#xf3;" horiz-adv-x="620" 
d="M253 576l110 160h85l-116 -160h-79zM44 253c0 149 115 263 266 263s266 -114 266 -263c0 -150 -115 -263 -266 -263s-266 113 -266 263zM121 253c0 -110 82 -193 189 -193c108 0 189 83 189 193s-81 193 -189 193c-107 0 -189 -83 -189 -193z" />
    <glyph glyph-name="obreve" unicode="&#x14f;" horiz-adv-x="620" 
d="M227 733c0 -57 33 -95 83 -95c51 0 83 38 83 95h63c0 -95 -60 -156 -146 -156s-146 61 -146 156h63zM44 253c0 149 115 263 266 263s266 -114 266 -263c0 -150 -115 -263 -266 -263s-266 113 -266 263zM121 253c0 -110 82 -193 189 -193c108 0 189 83 189 193
s-81 193 -189 193c-107 0 -189 -83 -189 -193z" />
    <glyph glyph-name="uni01D2" unicode="&#x1d2;" horiz-adv-x="620" 
d="M353 576h-86l-113 160h76l80 -108l80 108h76zM310 516c151 0 266 -114 266 -263c0 -150 -115 -263 -266 -263s-266 113 -266 263c0 149 115 263 266 263zM310 60c108 0 189 83 189 193s-81 193 -189 193c-107 0 -189 -83 -189 -193s82 -193 189 -193z" />
    <glyph glyph-name="ocircumflex" unicode="&#xf4;" horiz-adv-x="620" 
d="M310 685l-80 -109h-76l113 160h86l113 -160h-76zM310 516c151 0 266 -114 266 -263c0 -150 -115 -263 -266 -263s-266 113 -266 263c0 149 115 263 266 263zM310 60c108 0 189 83 189 193s-81 193 -189 193c-107 0 -189 -83 -189 -193s82 -193 189 -193z" />
    <glyph glyph-name="uni1ED1" unicode="&#x1ed1;" horiz-adv-x="620" 
d="M614 911l-113 -156h-77l107 156h83zM310 685l-80 -109h-76l113 160h86l113 -160h-76zM310 516c151 0 266 -114 266 -263c0 -150 -115 -263 -266 -263s-266 113 -266 263c0 149 115 263 266 263zM310 60c108 0 189 83 189 193s-81 193 -189 193c-107 0 -189 -83 -189 -193
s82 -193 189 -193z" />
    <glyph glyph-name="uni1ED9" unicode="&#x1ed9;" horiz-adv-x="620" 
d="M310 685l-80 -109h-76l113 160h86l113 -160h-76zM310 516c151 0 266 -114 266 -263c0 -150 -115 -263 -266 -263s-266 113 -266 263c0 149 115 263 266 263zM310 60c108 0 189 83 189 193s-81 193 -189 193c-107 0 -189 -83 -189 -193s82 -193 189 -193zM310 -102
c27 0 49 -21 49 -49c0 -27 -22 -49 -49 -49s-49 22 -49 49c0 28 22 49 49 49z" />
    <glyph glyph-name="uni1ED3" unicode="&#x1ed3;" horiz-adv-x="620" 
d="M536 755h-77l-112 156h82zM310 685l-80 -109h-76l113 160h86l113 -160h-76zM310 516c151 0 266 -114 266 -263c0 -150 -115 -263 -266 -263s-266 113 -266 263c0 149 115 263 266 263zM310 60c108 0 189 83 189 193s-81 193 -189 193c-107 0 -189 -83 -189 -193
s82 -193 189 -193z" />
    <glyph glyph-name="uni1ED5" unicode="&#x1ed5;" horiz-adv-x="620" 
d="M468 888c-30 0 -50 -24 -49 -53h-59c0 60 46 103 108 103c63 0 108 -43 108 -99c0 -54 -43 -95 -108 -112l-20 44c46 14 69 38 69 68c0 28 -20 49 -49 49zM310 685l-80 -109h-76l113 160h86l113 -160h-76zM310 516c151 0 266 -114 266 -263c0 -150 -115 -263 -266 -263
s-266 113 -266 263c0 149 115 263 266 263zM310 60c108 0 189 83 189 193s-81 193 -189 193c-107 0 -189 -83 -189 -193s82 -193 189 -193z" />
    <glyph glyph-name="uni1ED7" unicode="&#x1ed7;" horiz-adv-x="620" 
d="M241 869c-26 0 -45 -18 -56 -47l-51 25c17 49 55 83 107 83c72 0 94 -61 140 -61c26 0 45 18 55 46l51 -24c-16 -49 -55 -83 -106 -83c-73 0 -94 61 -140 61zM267 736h86l113 -160h-76l-80 109l-80 -109h-76zM310 516c151 0 266 -114 266 -263
c0 -150 -115 -263 -266 -263s-266 113 -266 263c0 149 115 263 266 263zM310 60c108 0 189 83 189 193s-81 193 -189 193c-107 0 -189 -83 -189 -193s82 -193 189 -193z" />
    <glyph glyph-name="odieresis" unicode="&#xf6;" horiz-adv-x="620" 
d="M157 656c0 27 21 48 48 48c26 0 47 -21 47 -48c0 -26 -21 -47 -47 -47c-27 0 -48 21 -48 47zM369 656c0 27 21 48 47 48c27 0 48 -21 48 -48c0 -26 -21 -47 -48 -47c-26 0 -47 21 -47 47zM44 253c0 149 115 263 266 263s266 -114 266 -263c0 -150 -115 -263 -266 -263
s-266 113 -266 263zM121 253c0 -110 82 -193 189 -193c108 0 189 83 189 193s-81 193 -189 193c-107 0 -189 -83 -189 -193z" />
    <glyph glyph-name="uni1ECD" unicode="&#x1ecd;" horiz-adv-x="620" 
d="M44 253c0 149 115 263 266 263s266 -114 266 -263c0 -150 -115 -263 -266 -263s-266 113 -266 263zM121 253c0 -110 82 -193 189 -193c108 0 189 83 189 193s-81 193 -189 193c-107 0 -189 -83 -189 -193zM261 -151c0 28 22 49 49 49s49 -21 49 -49
c0 -27 -22 -49 -49 -49s-49 22 -49 49z" />
    <glyph glyph-name="ograve" unicode="&#xf2;" horiz-adv-x="620" 
d="M289 576l-116 160h85l110 -160h-79zM44 253c0 149 115 263 266 263s266 -114 266 -263c0 -150 -115 -263 -266 -263s-266 113 -266 263zM121 253c0 -110 82 -193 189 -193c108 0 189 83 189 193s-81 193 -189 193c-107 0 -189 -83 -189 -193z" />
    <glyph glyph-name="uni1ECF" unicode="&#x1ecf;" horiz-adv-x="620" 
d="M289 593c47 14 71 39 71 69c0 29 -21 51 -50 51c-32 0 -52 -25 -52 -55h-60c0 62 47 107 112 107c64 0 111 -45 111 -103c0 -55 -45 -98 -111 -115zM44 253c0 149 115 263 266 263s266 -114 266 -263c0 -150 -115 -263 -266 -263s-266 113 -266 263zM121 253
c0 -110 82 -193 189 -193c108 0 189 83 189 193s-81 193 -189 193c-107 0 -189 -83 -189 -193z" />
    <glyph glyph-name="ohorn" unicode="&#x1a1;" horiz-adv-x="636" 
d="M642 579c0 -74 -48 -128 -143 -138c48 -47 77 -113 77 -188c0 -150 -115 -263 -266 -263s-266 113 -266 263c0 149 115 263 266 263c19 0 37 -2 54 -5c1 0 2 0 3 -1h2c129 -26 202 -1 202 74c0 20 -5 45 -16 72h70c10 -22 17 -50 17 -77zM310 60c108 0 189 83 189 193
s-81 193 -189 193c-107 0 -189 -83 -189 -193s82 -193 189 -193z" />
    <glyph glyph-name="uni1EDB" unicode="&#x1edb;" horiz-adv-x="636" 
d="M448 736l-116 -160h-79l110 160h85zM642 579c0 -74 -48 -128 -143 -138c48 -47 77 -113 77 -188c0 -150 -115 -263 -266 -263s-266 113 -266 263c0 149 115 263 266 263c19 0 37 -2 54 -5c1 0 2 0 3 -1h2c129 -26 202 -1 202 74c0 20 -5 45 -16 72h70
c10 -22 17 -50 17 -77zM310 60c108 0 189 83 189 193s-81 193 -189 193c-107 0 -189 -83 -189 -193s82 -193 189 -193z" />
    <glyph glyph-name="uni1EE3" unicode="&#x1ee3;" horiz-adv-x="636" 
d="M642 579c0 -74 -48 -128 -143 -138c48 -47 77 -113 77 -188c0 -150 -115 -263 -266 -263s-266 113 -266 263c0 149 115 263 266 263c19 0 37 -2 54 -5c1 0 2 0 3 -1h2c129 -26 202 -1 202 74c0 20 -5 45 -16 72h70c10 -22 17 -50 17 -77zM310 60c108 0 189 83 189 193
s-81 193 -189 193c-107 0 -189 -83 -189 -193s82 -193 189 -193zM310 -102c27 0 49 -21 49 -49c0 -27 -22 -49 -49 -49s-49 22 -49 49c0 28 22 49 49 49z" />
    <glyph glyph-name="uni1EDD" unicode="&#x1edd;" horiz-adv-x="636" 
d="M368 576h-79l-116 160h85zM642 579c0 -74 -48 -128 -143 -138c48 -47 77 -113 77 -188c0 -150 -115 -263 -266 -263s-266 113 -266 263c0 149 115 263 266 263c19 0 37 -2 54 -5c1 0 2 0 3 -1h2c129 -26 202 -1 202 74c0 20 -5 45 -16 72h70c10 -22 17 -50 17 -77z
M310 60c108 0 189 83 189 193s-81 193 -189 193c-107 0 -189 -83 -189 -193s82 -193 189 -193z" />
    <glyph glyph-name="uni1EDF" unicode="&#x1edf;" horiz-adv-x="636" 
d="M310 713c-32 0 -52 -25 -52 -55h-60c0 62 47 107 112 107c64 0 111 -45 111 -103c0 -55 -45 -98 -111 -115l-21 46c47 14 71 39 71 69c0 29 -21 51 -50 51zM642 579c0 -74 -48 -128 -143 -138c48 -47 77 -113 77 -188c0 -150 -115 -263 -266 -263s-266 113 -266 263
c0 149 115 263 266 263c19 0 37 -2 54 -5c1 0 2 0 3 -1h2c129 -26 202 -1 202 74c0 20 -5 45 -16 72h70c10 -22 17 -50 17 -77zM310 60c108 0 189 83 189 193s-81 193 -189 193c-107 0 -189 -83 -189 -193s82 -193 189 -193z" />
    <glyph glyph-name="uni1EE1" unicode="&#x1ee1;" horiz-adv-x="636" 
d="M238 657c-27 0 -47 -19 -58 -48l-52 25c17 51 57 86 110 86c74 0 96 -64 144 -64c27 0 46 19 57 48l52 -25c-17 -51 -56 -86 -109 -86c-75 0 -97 64 -144 64zM642 579c0 -74 -48 -128 -143 -138c48 -47 77 -113 77 -188c0 -150 -115 -263 -266 -263s-266 113 -266 263
c0 149 115 263 266 263c19 0 37 -2 54 -5c1 0 2 0 3 -1h2c129 -26 202 -1 202 74c0 20 -5 45 -16 72h70c10 -22 17 -50 17 -77zM310 60c108 0 189 83 189 193s-81 193 -189 193c-107 0 -189 -83 -189 -193s82 -193 189 -193z" />
    <glyph glyph-name="ohungarumlaut" unicode="&#x151;" horiz-adv-x="620" 
d="M171 576l110 160h79l-116 -160h-73zM339 576l110 160h79l-116 -160h-73zM44 253c0 149 115 263 266 263s266 -114 266 -263c0 -150 -115 -263 -266 -263s-266 113 -266 263zM121 253c0 -110 82 -193 189 -193c108 0 189 83 189 193s-81 193 -189 193
c-107 0 -189 -83 -189 -193z" />
    <glyph glyph-name="omacron" unicode="&#x14d;" horiz-adv-x="620" 
d="M157 626v61h306v-61h-306zM44 253c0 149 115 263 266 263s266 -114 266 -263c0 -150 -115 -263 -266 -263s-266 113 -266 263zM121 253c0 -110 82 -193 189 -193c108 0 189 83 189 193s-81 193 -189 193c-107 0 -189 -83 -189 -193z" />
    <glyph glyph-name="uni01EB" unicode="&#x1eb;" horiz-adv-x="620" 
d="M352 -7c-31 -27 -45 -58 -45 -87c0 -28 19 -50 53 -50c20 0 33 3 53 11l4 -62c-22 -9 -49 -15 -73 -15c-73 0 -110 42 -110 95c0 40 17 76 45 107c-135 14 -235 121 -235 261c0 149 115 263 266 263s266 -114 266 -263c0 -136 -94 -241 -224 -260zM121 253
c0 -110 82 -193 189 -193c108 0 189 83 189 193s-81 193 -189 193c-107 0 -189 -83 -189 -193z" />
    <glyph glyph-name="oslash" unicode="&#xf8;" horiz-adv-x="620" 
d="M490 450c53 -48 86 -117 86 -197c0 -150 -115 -263 -266 -263c-45 0 -86 10 -122 28l-52 -74l-57 39l51 73c-53 48 -86 117 -86 197c0 149 115 263 266 263c45 0 86 -10 122 -28l52 74l57 -39zM118 253c0 -55 20 -103 53 -138l222 316c-25 12 -53 18 -83 18
c-109 0 -192 -84 -192 -196zM310 57c109 0 192 84 192 196c0 55 -20 103 -53 138l-222 -316c25 -12 53 -18 83 -18z" />
    <glyph glyph-name="oslashacute" unicode="&#x1ff;" horiz-adv-x="620" 
d="M448 736l-116 -160h-79l110 160h85zM490 450c53 -48 86 -117 86 -197c0 -150 -115 -263 -266 -263c-45 0 -86 10 -122 28l-52 -74l-57 39l51 73c-53 48 -86 117 -86 197c0 149 115 263 266 263c45 0 86 -10 122 -28l52 74l57 -39zM118 253c0 -55 20 -103 53 -138l222 316
c-25 12 -53 18 -83 18c-109 0 -192 -84 -192 -196zM310 57c109 0 192 84 192 196c0 55 -20 103 -53 138l-222 -316c25 -12 53 -18 83 -18z" />
    <glyph glyph-name="otilde" unicode="&#xf5;" horiz-adv-x="620" 
d="M128 634c17 51 57 86 110 86c74 0 96 -64 144 -64c27 0 46 19 57 48l52 -25c-17 -51 -56 -86 -109 -86c-75 0 -97 64 -144 64c-27 0 -47 -19 -58 -48zM44 253c0 149 115 263 266 263s266 -114 266 -263c0 -150 -115 -263 -266 -263s-266 113 -266 263zM121 253
c0 -110 82 -193 189 -193c108 0 189 83 189 193s-81 193 -189 193c-107 0 -189 -83 -189 -193z" />
    <glyph glyph-name="oe" unicode="&#x153;" horiz-adv-x="1066" 
d="M760 516c155 0 271 -124 259 -286h-445c11 -100 89 -173 192 -173c79 0 143 42 175 108l64 -27c-41 -87 -128 -148 -240 -148c-101 0 -183 50 -227 128c-45 -78 -127 -128 -228 -128c-151 0 -266 113 -266 263c0 149 115 263 266 263c100 0 183 -50 227 -128
c44 78 125 128 223 128zM760 449c-93 0 -167 -66 -184 -157h367c-15 89 -87 157 -183 157zM310 60c108 0 189 83 189 193s-81 193 -189 193c-107 0 -189 -83 -189 -193s82 -193 189 -193z" />
    <glyph glyph-name="p" unicode="p" horiz-adv-x="638" 
d="M338 516c146 0 256 -114 256 -263c0 -150 -110 -263 -256 -263c-85 0 -155 39 -199 101v-291h-75v706h75v-91c44 62 114 101 199 101zM328 60c108 0 189 83 189 193s-81 193 -189 193c-107 0 -189 -83 -189 -193s82 -193 189 -193z" />
    <glyph glyph-name="thorn" unicode="&#xfe;" horiz-adv-x="638" 
d="M338 516c146 0 256 -114 256 -263c0 -150 -110 -263 -256 -263c-85 0 -155 39 -199 101v-291h-75v940h75v-325c44 62 114 101 199 101zM328 60c108 0 189 83 189 193s-81 193 -189 193c-107 0 -189 -83 -189 -193s82 -193 189 -193z" />
    <glyph glyph-name="q" unicode="q" horiz-adv-x="638" 
d="M499 506h75v-706h-75v291c-44 -62 -114 -101 -199 -101c-146 0 -256 113 -256 263c0 149 110 263 256 263c85 0 155 -39 199 -101v91zM310 60c108 0 189 83 189 193s-81 193 -189 193c-107 0 -189 -83 -189 -193s82 -193 189 -193z" />
    <glyph glyph-name="r" unicode="r" horiz-adv-x="365" 
d="M139 425c43 64 118 102 206 87v-73c-113 25 -206 -43 -206 -150v-289h-75v506h75v-81z" />
    <glyph glyph-name="racute" unicode="&#x155;" horiz-adv-x="365" 
d="M320 736l-116 -160h-79l110 160h85zM139 425c43 64 118 102 206 87v-73c-113 25 -206 -43 -206 -150v-289h-75v506h75v-81z" />
    <glyph glyph-name="rcaron" unicode="&#x159;" horiz-adv-x="365" 
d="M226 576h-86l-113 160h76l80 -108l80 108h76zM139 425c43 64 118 102 206 87v-73c-113 25 -206 -43 -206 -150v-289h-75v506h75v-81z" />
    <glyph glyph-name="uni0157" unicode="&#x157;" horiz-adv-x="365" 
d="M139 425c43 64 118 102 206 87v-73c-113 25 -206 -43 -206 -150v-289h-75v506h75v-81zM46 -210l35 154h74l-45 -154h-64z" />
    <glyph glyph-name="s" unicode="s" horiz-adv-x="482" 
d="M110 146c10 -59 56 -93 131 -93c77 0 131 35 131 84c0 139 -323 37 -323 232c0 85 80 147 192 147s182 -56 198 -141l-75 -15c-11 59 -54 92 -123 92c-68 0 -117 -32 -117 -80c0 -129 324 -30 324 -233c0 -87 -89 -149 -207 -149c-117 0 -191 56 -207 141z" />
    <glyph glyph-name="sacute" unicode="&#x15b;" horiz-adv-x="482" 
d="M183 576l110 160h85l-116 -160h-79zM110 146c10 -59 56 -93 131 -93c77 0 131 35 131 84c0 139 -323 37 -323 232c0 85 80 147 192 147s182 -56 198 -141l-75 -15c-11 59 -54 92 -123 92c-68 0 -117 -32 -117 -80c0 -129 324 -30 324 -233c0 -87 -89 -149 -207 -149
c-117 0 -191 56 -207 141z" />
    <glyph glyph-name="scaron" unicode="&#x161;" horiz-adv-x="482" 
d="M284 576h-86l-113 160h76l80 -108l80 108h76zM124 372c0 -129 324 -30 324 -233c0 -87 -89 -149 -207 -149c-117 0 -191 56 -207 141l76 15c10 -59 56 -93 131 -93c77 0 131 35 131 84c0 139 -323 37 -323 232c0 85 80 147 192 147s182 -56 198 -141l-75 -15
c-11 59 -54 92 -123 92c-68 0 -117 -32 -117 -80z" />
    <glyph glyph-name="scedilla" unicode="&#x15f;" horiz-adv-x="482" 
d="M448 139c0 -73 -63 -129 -154 -145c28 -29 41 -63 41 -94c0 -63 -50 -110 -133 -110c-17 0 -35 2 -56 7l6 63c14 -3 27 -4 38 -4c48 0 72 25 72 57c0 25 -15 55 -45 78c-103 7 -168 61 -183 140l76 15c10 -59 56 -93 131 -93c77 0 131 35 131 84c0 139 -323 37 -323 232
c0 85 80 147 192 147s182 -56 198 -141l-75 -15c-11 59 -54 92 -123 92c-68 0 -117 -32 -117 -80c0 -129 324 -30 324 -233z" />
    <glyph glyph-name="scircumflex" unicode="&#x15d;" horiz-adv-x="482" 
d="M241 685l-80 -109h-76l113 160h86l113 -160h-76zM124 372c0 -129 324 -30 324 -233c0 -87 -89 -149 -207 -149c-117 0 -191 56 -207 141l76 15c10 -59 56 -93 131 -93c77 0 131 35 131 84c0 139 -323 37 -323 232c0 85 80 147 192 147s182 -56 198 -141l-75 -15
c-11 59 -54 92 -123 92c-68 0 -117 -32 -117 -80z" />
    <glyph glyph-name="uni0219" unicode="&#x219;" horiz-adv-x="482" 
d="M110 146c10 -59 56 -93 131 -93c77 0 131 35 131 84c0 139 -323 37 -323 232c0 85 80 147 192 147s182 -56 198 -141l-75 -15c-11 59 -54 92 -123 92c-68 0 -117 -32 -117 -80c0 -129 324 -30 324 -233c0 -87 -89 -149 -207 -149c-117 0 -191 56 -207 141zM186 -210
l35 154h74l-45 -154h-64z" />
    <glyph glyph-name="germandbls" unicode="&#xdf;" horiz-adv-x="592" 
d="M416 400c80 -30 142 -95 142 -194c0 -132 -99 -216 -226 -216c-40 0 -86 9 -122 24l13 67c32 -14 69 -21 102 -21c89 0 158 57 158 150c0 86 -69 149 -170 149h-50v68h29c85 0 149 55 149 126c0 72 -61 128 -147 128c-84 0 -155 -53 -155 -157v-524h-75v523
c0 141 98 227 232 227c122 0 219 -81 219 -193c0 -70 -39 -125 -99 -157z" />
    <glyph glyph-name="t" unicode="t" horiz-adv-x="411" 
d="M24 438v68h114v181l75 23v-204h154v-68h-154v-266c0 -74 29 -104 103 -104h51v-68h-51c-122 0 -178 56 -178 175v263h-114z" />
    <glyph glyph-name="tbar" unicode="&#x167;" horiz-adv-x="411" 
d="M367 438h-154v-123h136v-62h-136v-81c0 -74 29 -104 103 -104h51v-68h-51c-122 0 -178 56 -178 175v78h-95v62h95v123h-114v68h114v181l75 23v-204h154v-68z" />
    <glyph glyph-name="tcaron" unicode="&#x165;" horiz-adv-x="426" 
d="M268 575l35 188h71l-45 -188h-61zM24 438v68h114v181l75 23v-204h154v-68h-154v-266c0 -74 29 -104 103 -104h51v-68h-51c-122 0 -178 56 -178 175v263h-114z" />
    <glyph glyph-name="uni0163" unicode="&#x163;" horiz-adv-x="452" 
d="M367 438h-154v-266c0 -74 29 -104 103 -104h51v-68h-51c-10 0 -20 0 -29 1c29 -33 44 -68 44 -101c0 -63 -50 -110 -133 -110c-17 0 -36 2 -56 7l6 63c13 -3 27 -4 38 -4c48 0 72 25 72 57c0 27 -17 64 -68 122c-35 29 -52 75 -52 140v263h-114v68h114v181l75 23v-204
h154v-68z" />
    <glyph glyph-name="uni021B" unicode="&#x21b;" horiz-adv-x="411" 
d="M24 438v68h114v181l75 23v-204h154v-68h-154v-266c0 -74 29 -104 103 -104h51v-68h-51c-122 0 -178 56 -178 175v263h-114zM196 -210l35 154h74l-45 -154h-64z" />
    <glyph glyph-name="u" unicode="u" horiz-adv-x="565" 
d="M59 506h75v-299c0 -88 64 -147 148 -147s148 59 148 147v299h75v-299c0 -129 -95 -217 -223 -217s-223 88 -223 217v299z" />
    <glyph glyph-name="uacute" unicode="&#xfa;" horiz-adv-x="565" 
d="M225 576l110 160h85l-116 -160h-79zM59 506h75v-299c0 -88 64 -147 148 -147s148 59 148 147v299h75v-299c0 -129 -95 -217 -223 -217s-223 88 -223 217v299z" />
    <glyph glyph-name="ubreve" unicode="&#x16d;" horiz-adv-x="565" 
d="M199 733c0 -57 33 -95 83 -95c51 0 83 38 83 95h63c0 -95 -60 -156 -146 -156s-146 61 -146 156h63zM59 506h75v-299c0 -88 64 -147 148 -147s148 59 148 147v299h75v-299c0 -129 -95 -217 -223 -217s-223 88 -223 217v299z" />
    <glyph glyph-name="ucircumflex" unicode="&#xfb;" horiz-adv-x="565" 
d="M282 685l-80 -109h-76l113 160h86l113 -160h-76zM430 506h75v-299c0 -129 -95 -217 -223 -217s-223 88 -223 217v299h75v-299c0 -88 64 -147 148 -147s148 59 148 147v299z" />
    <glyph glyph-name="udieresis" unicode="&#xfc;" horiz-adv-x="565" 
d="M129 656c0 27 21 48 48 48c26 0 47 -21 47 -48c0 -26 -21 -47 -47 -47c-27 0 -48 21 -48 47zM341 656c0 27 21 48 47 48c27 0 48 -21 48 -48c0 -26 -21 -47 -48 -47c-26 0 -47 21 -47 47zM59 506h75v-299c0 -88 64 -147 148 -147s148 59 148 147v299h75v-299
c0 -129 -95 -217 -223 -217s-223 88 -223 217v299z" />
    <glyph glyph-name="uni1EE5" unicode="&#x1ee5;" horiz-adv-x="565" 
d="M59 506h75v-299c0 -88 64 -147 148 -147s148 59 148 147v299h75v-299c0 -129 -95 -217 -223 -217s-223 88 -223 217v299zM233 -151c0 28 22 49 49 49s49 -21 49 -49c0 -27 -22 -49 -49 -49s-49 22 -49 49z" />
    <glyph glyph-name="ugrave" unicode="&#xf9;" horiz-adv-x="565" 
d="M261 576l-116 160h85l110 -160h-79zM59 506h75v-299c0 -88 64 -147 148 -147s148 59 148 147v299h75v-299c0 -129 -95 -217 -223 -217s-223 88 -223 217v299z" />
    <glyph glyph-name="uni1EE7" unicode="&#x1ee7;" horiz-adv-x="565" 
d="M262 593c47 14 71 39 71 69c0 29 -21 51 -50 51c-32 0 -52 -25 -52 -55h-60c0 62 47 107 112 107c64 0 111 -45 111 -103c0 -55 -45 -98 -111 -115zM59 506h75v-299c0 -88 64 -147 148 -147s148 59 148 147v299h75v-299c0 -129 -95 -217 -223 -217s-223 88 -223 217v299z
" />
    <glyph glyph-name="uhorn" unicode="&#x1b0;" horiz-adv-x="635" 
d="M641 579c0 -75 -50 -122 -136 -133v-239c0 -129 -95 -217 -223 -217s-223 88 -223 217v299h75v-299c0 -88 64 -147 148 -147s148 59 148 147v299h38c73 0 103 32 103 78c0 20 -6 45 -17 72h71c10 -22 16 -50 16 -77z" />
    <glyph glyph-name="uni1EE9" unicode="&#x1ee9;" horiz-adv-x="635" 
d="M420 736l-116 -160h-79l110 160h85zM641 579c0 -75 -50 -122 -136 -133v-239c0 -129 -95 -217 -223 -217s-223 88 -223 217v299h75v-299c0 -88 64 -147 148 -147s148 59 148 147v299h38c73 0 103 32 103 78c0 20 -6 45 -17 72h71c10 -22 16 -50 16 -77z" />
    <glyph glyph-name="uni1EF1" unicode="&#x1ef1;" horiz-adv-x="635" 
d="M641 579c0 -75 -50 -122 -136 -133v-239c0 -129 -95 -217 -223 -217s-223 88 -223 217v299h75v-299c0 -88 64 -147 148 -147s148 59 148 147v299h38c73 0 103 32 103 78c0 20 -6 45 -17 72h71c10 -22 16 -50 16 -77zM282 -102c27 0 49 -21 49 -49c0 -27 -22 -49 -49 -49
s-49 22 -49 49c0 28 22 49 49 49z" />
    <glyph glyph-name="uni1EEB" unicode="&#x1eeb;" horiz-adv-x="635" 
d="M340 576h-79l-116 160h85zM641 579c0 -75 -50 -122 -136 -133v-239c0 -129 -95 -217 -223 -217s-223 88 -223 217v299h75v-299c0 -88 64 -147 148 -147s148 59 148 147v299h38c73 0 103 32 103 78c0 20 -6 45 -17 72h71c10 -22 16 -50 16 -77z" />
    <glyph glyph-name="uni1EED" unicode="&#x1eed;" horiz-adv-x="635" 
d="M283 713c-32 0 -52 -25 -52 -55h-60c0 62 47 107 112 107c64 0 111 -45 111 -103c0 -55 -45 -98 -111 -115l-21 46c47 14 71 39 71 69c0 29 -21 51 -50 51zM641 579c0 -75 -50 -122 -136 -133v-239c0 -129 -95 -217 -223 -217s-223 88 -223 217v299h75v-299
c0 -88 64 -147 148 -147s148 59 148 147v299h38c73 0 103 32 103 78c0 20 -6 45 -17 72h71c10 -22 16 -50 16 -77z" />
    <glyph glyph-name="uni1EEF" unicode="&#x1eef;" horiz-adv-x="635" 
d="M211 657c-27 0 -47 -19 -58 -48l-52 25c17 51 57 86 110 86c74 0 96 -64 144 -64c27 0 46 19 57 48l52 -25c-17 -51 -56 -86 -109 -86c-75 0 -97 64 -144 64zM641 579c0 -75 -50 -122 -136 -133v-239c0 -129 -95 -217 -223 -217s-223 88 -223 217v299h75v-299
c0 -88 64 -147 148 -147s148 59 148 147v299h38c73 0 103 32 103 78c0 20 -6 45 -17 72h71c10 -22 16 -50 16 -77z" />
    <glyph glyph-name="uhungarumlaut" unicode="&#x171;" horiz-adv-x="565" 
d="M143 576l110 160h79l-116 -160h-73zM311 576l110 160h79l-116 -160h-73zM59 506h75v-299c0 -88 64 -147 148 -147s148 59 148 147v299h75v-299c0 -129 -95 -217 -223 -217s-223 88 -223 217v299z" />
    <glyph glyph-name="umacron" unicode="&#x16b;" horiz-adv-x="565" 
d="M129 626v61h306v-61h-306zM59 506h75v-299c0 -88 64 -147 148 -147s148 59 148 147v299h75v-299c0 -129 -95 -217 -223 -217s-223 88 -223 217v299z" />
    <glyph glyph-name="uogonek" unicode="&#x173;" horiz-adv-x="565" 
d="M430 506h75v-299c0 -105 -63 -183 -155 -208c-35 -29 -52 -61 -52 -93c0 -28 19 -50 53 -50c20 0 33 3 53 11l4 -62c-22 -9 -49 -15 -73 -15c-73 0 -110 42 -110 95c0 40 16 75 44 105c-121 6 -210 92 -210 217v299h75v-299c0 -88 64 -147 148 -147s148 59 148 147v299z
" />
    <glyph glyph-name="uring" unicode="&#x16f;" horiz-adv-x="565" 
d="M174 656c0 59 47 103 109 103c61 0 108 -44 108 -103c0 -58 -47 -102 -108 -102c-62 0 -109 44 -109 102zM229 656c0 -30 24 -53 54 -53s53 23 53 53c0 31 -23 54 -53 54s-54 -23 -54 -54zM59 506h75v-299c0 -88 64 -147 148 -147s148 59 148 147v299h75v-299
c0 -129 -95 -217 -223 -217s-223 88 -223 217v299z" />
    <glyph glyph-name="utilde" unicode="&#x169;" horiz-adv-x="565" 
d="M101 634c17 51 57 86 110 86c74 0 96 -64 144 -64c27 0 46 19 57 48l52 -25c-17 -51 -56 -86 -109 -86c-75 0 -97 64 -144 64c-27 0 -47 -19 -58 -48zM59 506h75v-299c0 -88 64 -147 148 -147s148 59 148 147v299h75v-299c0 -129 -95 -217 -223 -217s-223 88 -223 217
v299z" />
    <glyph glyph-name="v" unicode="v" horiz-adv-x="520" 
d="M439 506h77l-213 -506h-85l-214 506h82l177 -431z" />
    <glyph glyph-name="w" unicode="w" horiz-adv-x="845" 
d="M755 506h76l-181 -506h-83l-144 400l-145 -400h-83l-181 506h80l145 -433l147 433h77l147 -432z" />
    <glyph glyph-name="wacute" unicode="&#x1e83;" horiz-adv-x="845" 
d="M560 736l-116 -160h-79l110 160h85zM755 506h76l-181 -506h-83l-144 400l-145 -400h-83l-181 506h80l145 -433l147 433h77l147 -432z" />
    <glyph glyph-name="wcircumflex" unicode="&#x175;" horiz-adv-x="845" 
d="M423 685l-80 -109h-76l113 160h86l113 -160h-76zM755 506h76l-181 -506h-83l-144 400l-145 -400h-83l-181 506h80l145 -433l147 433h77l147 -432z" />
    <glyph glyph-name="wdieresis" unicode="&#x1e85;" horiz-adv-x="845" 
d="M317 609c-27 0 -48 21 -48 47c0 27 21 48 48 48c26 0 47 -21 47 -48c0 -26 -21 -47 -47 -47zM528 609c-26 0 -47 21 -47 47c0 27 21 48 47 48c27 0 48 -21 48 -48c0 -26 -21 -47 -48 -47zM755 506h76l-181 -506h-83l-144 400l-145 -400h-83l-181 506h80l145 -433l147 433
h77l147 -432z" />
    <glyph glyph-name="wgrave" unicode="&#x1e81;" horiz-adv-x="845" 
d="M480 576h-79l-116 160h85zM755 506h76l-181 -506h-83l-144 400l-145 -400h-83l-181 506h80l145 -433l147 433h77l147 -432z" />
    <glyph glyph-name="x" unicode="x" horiz-adv-x="512" 
d="M495 506l-193 -252l193 -254h-93l-147 200l-149 -200h-89l193 252l-193 254h94l146 -199l149 199h89z" />
    <glyph glyph-name="y" unicode="y" horiz-adv-x="520" 
d="M439 506h77l-300 -706h-77l82 193l-217 513h82l176 -432z" />
    <glyph glyph-name="yacute" unicode="&#xfd;" horiz-adv-x="520" 
d="M398 736l-116 -160h-79l110 160h85zM439 506h77l-300 -706h-77l82 193l-217 513h82l176 -432z" />
    <glyph glyph-name="ycircumflex" unicode="&#x177;" horiz-adv-x="520" 
d="M260 685l-80 -109h-76l113 160h86l113 -160h-76zM439 506h77l-300 -706h-77l82 193l-217 513h82l176 -432z" />
    <glyph glyph-name="ydieresis" unicode="&#xff;" horiz-adv-x="520" 
d="M155 609c-27 0 -48 21 -48 47c0 27 21 48 48 48c26 0 47 -21 47 -48c0 -26 -21 -47 -47 -47zM366 609c-26 0 -47 21 -47 47c0 27 21 48 47 48c27 0 48 -21 48 -48c0 -26 -21 -47 -48 -47zM439 506h77l-300 -706h-77l82 193l-217 513h82l176 -432z" />
    <glyph glyph-name="uni1EF5" unicode="&#x1ef5;" horiz-adv-x="520" 
d="M439 506h77l-300 -706h-77l82 193l-217 513h82l176 -432zM349 -102c27 0 49 -21 49 -49c0 -27 -22 -49 -49 -49s-49 22 -49 49c0 28 22 49 49 49z" />
    <glyph glyph-name="ygrave" unicode="&#x1ef3;" horiz-adv-x="520" 
d="M318 576h-79l-116 160h85zM439 506h77l-300 -706h-77l82 193l-217 513h82l176 -432z" />
    <glyph glyph-name="uni1EF7" unicode="&#x1ef7;" horiz-adv-x="520" 
d="M261 713c-32 0 -52 -25 -52 -55h-60c0 62 47 107 112 107c64 0 111 -45 111 -103c0 -55 -45 -98 -111 -115l-21 46c47 14 71 39 71 69c0 29 -21 51 -50 51zM439 506h77l-300 -706h-77l82 193l-217 513h82l176 -432z" />
    <glyph glyph-name="uni0233" unicode="&#x233;" horiz-adv-x="520" 
d="M413 687v-61h-306v61h306zM439 506h77l-300 -706h-77l82 193l-217 513h82l176 -432z" />
    <glyph glyph-name="uni1EF9" unicode="&#x1ef9;" horiz-adv-x="520" 
d="M188 657c-27 0 -47 -19 -58 -48l-52 25c17 51 57 86 110 86c74 0 96 -64 144 -64c27 0 46 19 57 48l52 -25c-17 -51 -56 -86 -109 -86c-75 0 -97 64 -144 64zM439 506h77l-300 -706h-77l82 193l-217 513h82l176 -432z" />
    <glyph glyph-name="z" unicode="z" horiz-adv-x="519" 
d="M469 506v-64l-324 -374h324v-68h-419v63l325 375h-325v68h419z" />
    <glyph glyph-name="zacute" unicode="&#x17a;" horiz-adv-x="519" 
d="M397 736l-116 -160h-79l110 160h85zM469 506v-64l-324 -374h324v-68h-419v63l325 375h-325v68h419z" />
    <glyph glyph-name="zcaron" unicode="&#x17e;" horiz-adv-x="519" 
d="M302 576h-86l-113 160h76l80 -108l80 108h76zM469 506v-64l-324 -374h324v-68h-419v63l325 375h-325v68h419z" />
    <glyph glyph-name="zdotaccent" unicode="&#x17c;" horiz-adv-x="519" 
d="M259 608c-27 0 -49 22 -49 48c0 28 22 49 49 49s49 -21 49 -49c0 -26 -22 -48 -49 -48zM469 506v-64l-324 -374h324v-68h-419v63l325 375h-325v68h419z" />
    <glyph glyph-name="uni1EAF.3" horiz-adv-x="638" 
d="M447 943l-113 -155h-77l107 155h83zM312 577c-86 0 -146 61 -146 156h63c0 -57 33 -95 83 -95c51 0 83 38 83 95h63c0 -95 -60 -156 -146 -156zM499 506h75v-506h-75v91c-44 -62 -114 -101 -199 -101c-146 0 -256 113 -256 263c0 149 110 263 256 263
c85 0 155 -39 199 -101v91zM310 60c108 0 189 83 189 193s-81 193 -189 193c-107 0 -189 -83 -189 -193s82 -193 189 -193z" />
    <glyph glyph-name="iacute_j.loclNLD" horiz-adv-x="427" 
d="M44 576l110 160h85l-116 -160h-79zM268 576l110 160h85l-116 -160h-79zM64 0v506h75v-506h-75zM192 -139c73 -3 95 21 95 92v553h75v-553c0 -95 -39 -167 -170 -159v67z" />
    <glyph glyph-name="a.ss03" horiz-adv-x="638" 
d="M499 506h75v-506h-75v91c-44 -62 -114 -101 -199 -101c-146 0 -256 113 -256 263c0 149 110 263 256 263c85 0 155 -39 199 -101v91zM310 60c108 0 189 83 189 193s-81 193 -189 193c-107 0 -189 -83 -189 -193s82 -193 189 -193z" />
    <glyph glyph-name="aacute.ss03" horiz-adv-x="638" 
d="M450 736l-116 -160h-79l110 160h85zM499 506h75v-506h-75v91c-44 -62 -114 -101 -199 -101c-146 0 -256 113 -256 263c0 149 110 263 256 263c85 0 155 -39 199 -101v91zM310 60c108 0 189 83 189 193s-81 193 -189 193c-107 0 -189 -83 -189 -193s82 -193 189 -193z" />
    <glyph glyph-name="abreve.ss03" horiz-adv-x="638" 
d="M312 577c-86 0 -146 61 -146 156h63c0 -57 33 -95 83 -95c51 0 83 38 83 95h63c0 -95 -60 -156 -146 -156zM499 506h75v-506h-75v91c-44 -62 -114 -101 -199 -101c-146 0 -256 113 -256 263c0 149 110 263 256 263c85 0 155 -39 199 -101v91zM310 60
c108 0 189 83 189 193s-81 193 -189 193c-107 0 -189 -83 -189 -193s82 -193 189 -193z" />
    <glyph glyph-name="uni1EB7.ss03" horiz-adv-x="638" 
d="M312 577c-86 0 -146 61 -146 156h63c0 -57 33 -95 83 -95c51 0 83 38 83 95h63c0 -95 -60 -156 -146 -156zM499 506h75v-506h-75v91c-44 -62 -114 -101 -199 -101c-146 0 -256 113 -256 263c0 149 110 263 256 263c85 0 155 -39 199 -101v91zM310 60
c108 0 189 83 189 193s-81 193 -189 193c-107 0 -189 -83 -189 -193s82 -193 189 -193zM312 -102c27 0 49 -21 49 -49c0 -27 -22 -49 -49 -49s-49 22 -49 49c0 28 22 49 49 49z" />
    <glyph glyph-name="uni1EB1.ss03" horiz-adv-x="638" 
d="M369 788h-77l-112 155h82zM312 577c-86 0 -146 61 -146 156h63c0 -57 33 -95 83 -95c51 0 83 38 83 95h63c0 -95 -60 -156 -146 -156zM499 506h75v-506h-75v91c-44 -62 -114 -101 -199 -101c-146 0 -256 113 -256 263c0 149 110 263 256 263c85 0 155 -39 199 -101v91z
M310 60c108 0 189 83 189 193s-81 193 -189 193c-107 0 -189 -83 -189 -193s82 -193 189 -193z" />
    <glyph glyph-name="uni1EB3.ss03" horiz-adv-x="638" 
d="M313 900c-31 0 -50 -24 -50 -53h-58c0 60 45 103 108 103s108 -43 108 -99c0 -54 -44 -95 -108 -112l-20 45c46 13 69 37 69 67c0 28 -21 49 -49 49zM312 577c-86 0 -146 61 -146 156h63c0 -57 33 -95 83 -95c51 0 83 38 83 95h63c0 -95 -60 -156 -146 -156zM499 506h75
v-506h-75v91c-44 -62 -114 -101 -199 -101c-146 0 -256 113 -256 263c0 149 110 263 256 263c85 0 155 -39 199 -101v91zM310 60c108 0 189 83 189 193s-81 193 -189 193c-107 0 -189 -83 -189 -193s82 -193 189 -193z" />
    <glyph glyph-name="uni1EB5.ss03" horiz-adv-x="638" 
d="M243 866c-27 0 -45 -18 -56 -47l-51 24c17 50 55 84 107 84c72 0 93 -62 140 -62c26 0 44 18 55 47l51 -25c-17 -49 -55 -83 -106 -83c-73 0 -94 62 -140 62zM312 638c51 0 83 38 83 95h63c0 -95 -60 -156 -146 -156s-146 61 -146 156h63c0 -57 33 -95 83 -95zM499 506
h75v-506h-75v91c-44 -62 -114 -101 -199 -101c-146 0 -256 113 -256 263c0 149 110 263 256 263c85 0 155 -39 199 -101v91zM310 60c108 0 189 83 189 193s-81 193 -189 193c-107 0 -189 -83 -189 -193s82 -193 189 -193z" />
    <glyph glyph-name="acircumflex.ss03" horiz-adv-x="638" 
d="M312 685l-80 -109h-76l113 160h86l113 -160h-76zM499 506h75v-506h-75v91c-44 -62 -114 -101 -199 -101c-146 0 -256 113 -256 263c0 149 110 263 256 263c85 0 155 -39 199 -101v91zM310 60c108 0 189 83 189 193s-81 193 -189 193c-107 0 -189 -83 -189 -193
s82 -193 189 -193z" />
    <glyph glyph-name="uni1EA5.ss03" horiz-adv-x="638" 
d="M616 911l-113 -156h-77l107 156h83zM312 685l-80 -109h-76l113 160h86l113 -160h-76zM499 506h75v-506h-75v91c-44 -62 -114 -101 -199 -101c-146 0 -256 113 -256 263c0 149 110 263 256 263c85 0 155 -39 199 -101v91zM310 60c108 0 189 83 189 193s-81 193 -189 193
c-107 0 -189 -83 -189 -193s82 -193 189 -193z" />
    <glyph glyph-name="uni1EAD.ss03" horiz-adv-x="638" 
d="M312 685l-80 -109h-76l113 160h86l113 -160h-76zM499 506h75v-506h-75v91c-44 -62 -114 -101 -199 -101c-146 0 -256 113 -256 263c0 149 110 263 256 263c85 0 155 -39 199 -101v91zM310 60c108 0 189 83 189 193s-81 193 -189 193c-107 0 -189 -83 -189 -193
s82 -193 189 -193zM312 -102c27 0 49 -21 49 -49c0 -27 -22 -49 -49 -49s-49 22 -49 49c0 28 22 49 49 49z" />
    <glyph glyph-name="uni1EA7.ss03" horiz-adv-x="638" 
d="M538 755h-77l-112 156h82zM312 685l-80 -109h-76l113 160h86l113 -160h-76zM499 506h75v-506h-75v91c-44 -62 -114 -101 -199 -101c-146 0 -256 113 -256 263c0 149 110 263 256 263c85 0 155 -39 199 -101v91zM310 60c108 0 189 83 189 193s-81 193 -189 193
c-107 0 -189 -83 -189 -193s82 -193 189 -193z" />
    <glyph glyph-name="uni1EA9.ss03" horiz-adv-x="638" 
d="M470 888c-30 0 -50 -24 -49 -53h-59c0 60 46 103 108 103c63 0 108 -43 108 -99c0 -54 -43 -95 -108 -112l-20 44c46 14 69 38 69 68c0 28 -20 49 -49 49zM312 685l-80 -109h-76l113 160h86l113 -160h-76zM499 506h75v-506h-75v91c-44 -62 -114 -101 -199 -101
c-146 0 -256 113 -256 263c0 149 110 263 256 263c85 0 155 -39 199 -101v91zM310 60c108 0 189 83 189 193s-81 193 -189 193c-107 0 -189 -83 -189 -193s82 -193 189 -193z" />
    <glyph glyph-name="uni1EAB.ss03" horiz-adv-x="638" 
d="M243 869c-26 0 -45 -18 -56 -47l-51 25c17 49 55 83 107 83c72 0 94 -61 140 -61c26 0 45 18 55 46l51 -24c-16 -49 -55 -83 -106 -83c-73 0 -94 61 -140 61zM269 736h86l113 -160h-76l-80 109l-80 -109h-76zM499 506h75v-506h-75v91c-44 -62 -114 -101 -199 -101
c-146 0 -256 113 -256 263c0 149 110 263 256 263c85 0 155 -39 199 -101v91zM310 60c108 0 189 83 189 193s-81 193 -189 193c-107 0 -189 -83 -189 -193s82 -193 189 -193z" />
    <glyph glyph-name="adieresis.ss03" horiz-adv-x="638" 
d="M207 609c-27 0 -48 21 -48 47c0 27 21 48 48 48c26 0 47 -21 47 -48c0 -26 -21 -47 -47 -47zM418 609c-26 0 -47 21 -47 47c0 27 21 48 47 48c27 0 48 -21 48 -48c0 -26 -21 -47 -48 -47zM499 506h75v-506h-75v91c-44 -62 -114 -101 -199 -101c-146 0 -256 113 -256 263
c0 149 110 263 256 263c85 0 155 -39 199 -101v91zM310 60c108 0 189 83 189 193s-81 193 -189 193c-107 0 -189 -83 -189 -193s82 -193 189 -193z" />
    <glyph glyph-name="uni1EA1.ss03" horiz-adv-x="638" 
d="M499 506h75v-506h-75v91c-44 -62 -114 -101 -199 -101c-146 0 -256 113 -256 263c0 149 110 263 256 263c85 0 155 -39 199 -101v91zM310 60c108 0 189 83 189 193s-81 193 -189 193c-107 0 -189 -83 -189 -193s82 -193 189 -193zM312 -102c27 0 49 -21 49 -49
c0 -27 -22 -49 -49 -49s-49 22 -49 49c0 28 22 49 49 49z" />
    <glyph glyph-name="agrave.ss03" horiz-adv-x="638" 
d="M370 576h-79l-116 160h85zM499 506h75v-506h-75v91c-44 -62 -114 -101 -199 -101c-146 0 -256 113 -256 263c0 149 110 263 256 263c85 0 155 -39 199 -101v91zM310 60c108 0 189 83 189 193s-81 193 -189 193c-107 0 -189 -83 -189 -193s82 -193 189 -193z" />
    <glyph glyph-name="uni1EA3.ss03" horiz-adv-x="638" 
d="M312 713c-32 0 -52 -25 -52 -55h-60c0 62 47 107 112 107c64 0 111 -45 111 -103c0 -55 -45 -98 -111 -115l-21 46c47 14 71 39 71 69c0 29 -21 51 -50 51zM499 506h75v-506h-75v91c-44 -62 -114 -101 -199 -101c-146 0 -256 113 -256 263c0 149 110 263 256 263
c85 0 155 -39 199 -101v91zM310 60c108 0 189 83 189 193s-81 193 -189 193c-107 0 -189 -83 -189 -193s82 -193 189 -193z" />
    <glyph glyph-name="amacron.ss03" horiz-adv-x="638" 
d="M465 687v-61h-306v61h306zM499 506h75v-506h-75v91c-44 -62 -114 -101 -199 -101c-146 0 -256 113 -256 263c0 149 110 263 256 263c85 0 155 -39 199 -101v91zM310 60c108 0 189 83 189 193s-81 193 -189 193c-107 0 -189 -83 -189 -193s82 -193 189 -193z" />
    <glyph glyph-name="aogonek.ss03" horiz-adv-x="638" 
d="M631 -195c-22 -9 -49 -15 -73 -15c-73 0 -110 42 -110 95c0 44 20 82 53 115h-2v91c-44 -62 -114 -101 -199 -101c-146 0 -256 113 -256 263c0 149 110 263 256 263c85 0 155 -39 199 -101v91h75v-506c-36 -29 -53 -62 -53 -94c0 -28 19 -50 53 -50c20 0 33 3 53 11z
M310 60c108 0 189 83 189 193s-81 193 -189 193c-107 0 -189 -83 -189 -193s82 -193 189 -193z" />
    <glyph glyph-name="aring.ss03" horiz-adv-x="638" 
d="M312 554c-62 0 -109 44 -109 102c0 59 47 103 109 103c61 0 108 -44 108 -103c0 -58 -47 -102 -108 -102zM312 710c-30 0 -54 -23 -54 -54c0 -30 24 -53 54 -53s53 23 53 53c0 31 -23 54 -53 54zM499 506h75v-506h-75v91c-44 -62 -114 -101 -199 -101
c-146 0 -256 113 -256 263c0 149 110 263 256 263c85 0 155 -39 199 -101v91zM310 60c108 0 189 83 189 193s-81 193 -189 193c-107 0 -189 -83 -189 -193s82 -193 189 -193z" />
    <glyph glyph-name="atilde.ss03" horiz-adv-x="638" 
d="M240 657c-27 0 -47 -19 -58 -48l-52 25c17 51 57 86 110 86c74 0 96 -64 144 -64c27 0 46 19 57 48l52 -25c-17 -51 -56 -86 -109 -86c-75 0 -97 64 -144 64zM499 506h75v-506h-75v91c-44 -62 -114 -101 -199 -101c-146 0 -256 113 -256 263c0 149 110 263 256 263
c85 0 155 -39 199 -101v91zM310 60c108 0 189 83 189 193s-81 193 -189 193c-107 0 -189 -83 -189 -193s82 -193 189 -193z" />
    <glyph glyph-name="ae.ss03" horiz-adv-x="1065" 
d="M766 516c152 0 265 -124 254 -286h-445c11 -100 89 -173 192 -173c79 0 143 42 174 108l65 -27c-40 -87 -125 -148 -235 -148c-85 0 -157 37 -203 96v-86h-69v91c-44 -62 -114 -101 -199 -101c-146 0 -256 113 -256 263c0 149 110 263 256 263c85 0 155 -39 199 -101v91
h69v-86c45 59 116 96 198 96zM761 449c-94 0 -167 -66 -184 -157h367c-15 89 -87 157 -183 157zM310 60c108 0 189 83 189 193s-81 193 -189 193c-107 0 -189 -83 -189 -193s82 -193 189 -193z" />
    <glyph glyph-name="aeacute.ss03" horiz-adv-x="1065" 
d="M671 736l-116 -160h-79l110 160h85zM766 516c152 0 265 -124 254 -286h-445c11 -100 89 -173 192 -173c79 0 143 42 174 108l65 -27c-40 -87 -125 -148 -235 -148c-85 0 -157 37 -203 96v-86h-69v91c-44 -62 -114 -101 -199 -101c-146 0 -256 113 -256 263
c0 149 110 263 256 263c85 0 155 -39 199 -101v91h69v-86c45 59 116 96 198 96zM761 449c-94 0 -167 -66 -184 -157h367c-15 89 -87 157 -183 157zM310 60c108 0 189 83 189 193s-81 193 -189 193c-107 0 -189 -83 -189 -193s82 -193 189 -193z" />
    <glyph glyph-name="g.ss04" horiz-adv-x="579" 
d="M538 506v-68h-85c22 -24 35 -54 35 -90c0 -97 -92 -169 -215 -169c-16 0 -31 1 -46 3c-33 -34 -24 -82 35 -82h95c107 0 170 -49 170 -128c0 -101 -100 -182 -270 -182c-138 0 -209 58 -209 140c0 56 41 105 115 129c-40 36 -42 95 5 140c-67 28 -110 83 -110 149
c0 97 92 168 215 168c28 0 54 -3 77 -10h188zM273 243c82 0 139 45 139 105s-57 104 -139 104s-139 -44 -139 -104s57 -105 139 -105zM448 -39c0 43 -36 68 -105 68h-98c-78 -11 -116 -46 -116 -93c0 -52 46 -86 138 -86c112 0 181 46 181 111z" />
    <glyph glyph-name="uni01F5.ss04" horiz-adv-x="579" 
d="M410 736l-116 -160h-79l110 160h85zM538 506v-68h-85c22 -24 35 -54 35 -90c0 -97 -92 -169 -215 -169c-16 0 -31 1 -46 3c-33 -34 -24 -82 35 -82h95c107 0 170 -49 170 -128c0 -101 -100 -182 -270 -182c-138 0 -209 58 -209 140c0 56 41 105 115 129
c-40 36 -42 95 5 140c-67 28 -110 83 -110 149c0 97 92 168 215 168c28 0 54 -3 77 -10h188zM273 243c82 0 139 45 139 105s-57 104 -139 104s-139 -44 -139 -104s57 -105 139 -105zM448 -39c0 43 -36 68 -105 68h-98c-78 -11 -116 -46 -116 -93c0 -52 46 -86 138 -86
c112 0 181 46 181 111z" />
    <glyph glyph-name="gbreve.ss04" horiz-adv-x="579" 
d="M273 577c-86 0 -146 61 -146 156h63c0 -57 33 -95 83 -95c51 0 83 38 83 95h63c0 -95 -60 -156 -146 -156zM538 506v-68h-85c22 -24 35 -54 35 -90c0 -97 -92 -169 -215 -169c-16 0 -31 1 -46 3c-33 -34 -24 -82 35 -82h95c107 0 170 -49 170 -128
c0 -101 -100 -182 -270 -182c-138 0 -209 58 -209 140c0 56 41 105 115 129c-40 36 -42 95 5 140c-67 28 -110 83 -110 149c0 97 92 168 215 168c28 0 54 -3 77 -10h188zM273 243c82 0 139 45 139 105s-57 104 -139 104s-139 -44 -139 -104s57 -105 139 -105zM448 -39
c0 43 -36 68 -105 68h-98c-78 -11 -116 -46 -116 -93c0 -52 46 -86 138 -86c112 0 181 46 181 111z" />
    <glyph glyph-name="gcaron.ss04" horiz-adv-x="579" 
d="M316 576h-86l-113 160h76l80 -108l80 108h76zM538 506v-68h-85c22 -24 35 -54 35 -90c0 -97 -92 -169 -215 -169c-16 0 -31 1 -46 3c-33 -34 -24 -82 35 -82h95c107 0 170 -49 170 -128c0 -101 -100 -182 -270 -182c-138 0 -209 58 -209 140c0 56 41 105 115 129
c-40 36 -42 95 5 140c-67 28 -110 83 -110 149c0 97 92 168 215 168c28 0 54 -3 77 -10h188zM273 243c82 0 139 45 139 105s-57 104 -139 104s-139 -44 -139 -104s57 -105 139 -105zM448 -39c0 43 -36 68 -105 68h-98c-78 -11 -116 -46 -116 -93c0 -52 46 -86 138 -86
c112 0 181 46 181 111z" />
    <glyph glyph-name="gcircumflex.ss04" horiz-adv-x="579" 
d="M273 685l-80 -109h-76l113 160h86l113 -160h-76zM538 506v-68h-85c22 -24 35 -54 35 -90c0 -97 -92 -169 -215 -169c-16 0 -31 1 -46 3c-33 -34 -24 -82 35 -82h95c107 0 170 -49 170 -128c0 -101 -100 -182 -270 -182c-138 0 -209 58 -209 140c0 56 41 105 115 129
c-40 36 -42 95 5 140c-67 28 -110 83 -110 149c0 97 92 168 215 168c28 0 54 -3 77 -10h188zM273 243c82 0 139 45 139 105s-57 104 -139 104s-139 -44 -139 -104s57 -105 139 -105zM448 -39c0 43 -36 68 -105 68h-98c-78 -11 -116 -46 -116 -93c0 -52 46 -86 138 -86
c112 0 181 46 181 111z" />
    <glyph glyph-name="uni0123.ss04" horiz-adv-x="579" 
d="M327 740l-35 -154h-74l45 154h64zM538 506v-68h-85c22 -24 35 -54 35 -90c0 -97 -92 -169 -215 -169c-16 0 -31 1 -46 3c-33 -34 -24 -82 35 -82h95c107 0 170 -49 170 -128c0 -101 -100 -182 -270 -182c-138 0 -209 58 -209 140c0 56 41 105 115 129
c-40 36 -42 95 5 140c-67 28 -110 83 -110 149c0 97 92 168 215 168c28 0 54 -3 77 -10h188zM273 243c82 0 139 45 139 105s-57 104 -139 104s-139 -44 -139 -104s57 -105 139 -105zM448 -39c0 43 -36 68 -105 68h-98c-78 -11 -116 -46 -116 -93c0 -52 46 -86 138 -86
c112 0 181 46 181 111z" />
    <glyph glyph-name="gdotaccent.ss04" horiz-adv-x="579" 
d="M273 608c-27 0 -49 22 -49 48c0 28 22 49 49 49s49 -21 49 -49c0 -26 -22 -48 -49 -48zM538 506v-68h-85c22 -24 35 -54 35 -90c0 -97 -92 -169 -215 -169c-16 0 -31 1 -46 3c-33 -34 -24 -82 35 -82h95c107 0 170 -49 170 -128c0 -101 -100 -182 -270 -182
c-138 0 -209 58 -209 140c0 56 41 105 115 129c-40 36 -42 95 5 140c-67 28 -110 83 -110 149c0 97 92 168 215 168c28 0 54 -3 77 -10h188zM273 243c82 0 139 45 139 105s-57 104 -139 104s-139 -44 -139 -104s57 -105 139 -105zM448 -39c0 43 -36 68 -105 68h-98
c-78 -11 -116 -46 -116 -93c0 -52 46 -86 138 -86c112 0 181 46 181 111z" />
    <glyph glyph-name="y.ss05" horiz-adv-x="590" 
d="M450 506h75v-467c0 -150 -104 -249 -243 -249c-102 0 -181 61 -219 148l68 32c28 -69 83 -111 151 -111c99 0 168 72 168 180v46c-38 -54 -102 -89 -181 -89c-129 0 -210 86 -210 218v292h75v-283c0 -98 58 -158 150 -158c98 0 166 67 166 158v283z" />
    <glyph glyph-name="yacute.ss05" horiz-adv-x="590" 
d="M430 736l-116 -160h-79l110 160h85zM450 506h75v-467c0 -150 -104 -249 -243 -249c-102 0 -181 61 -219 148l68 32c28 -69 83 -111 151 -111c99 0 168 72 168 180v46c-38 -54 -102 -89 -181 -89c-129 0 -210 86 -210 218v292h75v-283c0 -98 58 -158 150 -158
c98 0 166 67 166 158v283z" />
    <glyph glyph-name="ycircumflex.ss05" horiz-adv-x="590" 
d="M292 685l-80 -109h-76l113 160h86l113 -160h-76zM450 506h75v-467c0 -150 -104 -249 -243 -249c-102 0 -181 61 -219 148l68 32c28 -69 83 -111 151 -111c99 0 168 72 168 180v46c-38 -54 -102 -89 -181 -89c-129 0 -210 86 -210 218v292h75v-283c0 -98 58 -158 150 -158
c98 0 166 67 166 158v283z" />
    <glyph glyph-name="ydieresis.ss05" horiz-adv-x="590" 
d="M187 609c-27 0 -48 21 -48 47c0 27 21 48 48 48c26 0 47 -21 47 -48c0 -26 -21 -47 -47 -47zM398 609c-26 0 -47 21 -47 47c0 27 21 48 47 48c27 0 48 -21 48 -48c0 -26 -21 -47 -48 -47zM450 506h75v-467c0 -150 -104 -249 -243 -249c-102 0 -181 61 -219 148l68 32
c28 -69 83 -111 151 -111c99 0 168 72 168 180v46c-38 -54 -102 -89 -181 -89c-129 0 -210 86 -210 218v292h75v-283c0 -98 58 -158 150 -158c98 0 166 67 166 158v283z" />
    <glyph glyph-name="uni1EF5.ss05" horiz-adv-x="590" 
d="M450 506h75v-467c0 -137 -87 -231 -208 -247c16 -8 26 -24 26 -43c0 -27 -22 -49 -49 -49s-49 22 -49 49c0 18 9 33 22 41c-94 6 -168 65 -204 148l68 32c28 -69 83 -111 151 -111c99 0 168 72 168 180v46c-38 -54 -102 -89 -181 -89c-129 0 -210 86 -210 218v292h75
v-283c0 -98 58 -158 150 -158c98 0 166 67 166 158v283z" />
    <glyph glyph-name="ygrave.ss05" horiz-adv-x="590" 
d="M350 576h-79l-116 160h85zM450 506h75v-467c0 -150 -104 -249 -243 -249c-102 0 -181 61 -219 148l68 32c28 -69 83 -111 151 -111c99 0 168 72 168 180v46c-38 -54 -102 -89 -181 -89c-129 0 -210 86 -210 218v292h75v-283c0 -98 58 -158 150 -158c98 0 166 67 166 158
v283z" />
    <glyph glyph-name="uni1EF7.ss05" horiz-adv-x="590" 
d="M293 713c-32 0 -52 -25 -52 -55h-60c0 62 47 107 112 107c64 0 111 -45 111 -103c0 -55 -45 -98 -111 -115l-21 46c47 14 71 39 71 69c0 29 -21 51 -50 51zM450 506h75v-467c0 -150 -104 -249 -243 -249c-102 0 -181 61 -219 148l68 32c28 -69 83 -111 151 -111
c99 0 168 72 168 180v46c-38 -54 -102 -89 -181 -89c-129 0 -210 86 -210 218v292h75v-283c0 -98 58 -158 150 -158c98 0 166 67 166 158v283z" />
    <glyph glyph-name="uni1EF9.ss05" horiz-adv-x="590" 
d="M221 657c-27 0 -47 -19 -58 -48l-52 25c17 51 57 86 110 86c74 0 96 -64 144 -64c27 0 46 19 57 48l52 -25c-17 -51 -56 -86 -109 -86c-75 0 -97 64 -144 64zM450 506h75v-467c0 -150 -104 -249 -243 -249c-102 0 -181 61 -219 148l68 32c28 -69 83 -111 151 -111
c99 0 168 72 168 180v46c-38 -54 -102 -89 -181 -89c-129 0 -210 86 -210 218v292h75v-283c0 -98 58 -158 150 -158c98 0 166 67 166 158v283z" />
    <glyph glyph-name="f_b" horiz-adv-x="1055" 
d="M755 516c146 0 256 -114 256 -263c0 -150 -110 -263 -256 -263c-85 0 -155 39 -199 101v-91h-75v438h-268v-438h-75v438h-114v68h114v59c0 119 56 175 178 175h51v-68h-51c-74 0 -103 -30 -103 -104v-62h268v234h75v-325c44 62 114 101 199 101zM745 60
c108 0 189 83 189 193s-81 193 -189 193c-107 0 -189 -83 -189 -193s82 -193 189 -193z" />
    <glyph glyph-name="f_f_b" horiz-adv-x="1398" 
d="M1098 516c146 0 256 -114 256 -263c0 -150 -110 -263 -256 -263c-85 0 -155 39 -199 101v-91h-75v438h-268v-438h-75v438h-268v-438h-75v438h-114v68h114v59c0 119 56 175 178 175h51v-68h-51c-74 0 -103 -30 -103 -104v-62h268v59c0 119 56 175 178 175h51v-68h-51
c-74 0 -103 -30 -103 -104v-62h268v234h75v-325c44 62 114 101 199 101zM1088 60c108 0 189 83 189 193s-81 193 -189 193c-107 0 -189 -83 -189 -193s82 -193 189 -193z" />
    <glyph glyph-name="f_f_h" horiz-adv-x="1349" 
d="M1073 516c126 0 217 -93 217 -218v-298h-75v289c0 90 -67 158 -158 158c-90 0 -158 -68 -158 -158v-289h-75v438h-268v-438h-75v438h-268v-438h-75v438h-114v68h114v59c0 119 56 175 178 175h51v-68h-51c-74 0 -103 -30 -103 -104v-62h268v59c0 119 56 175 178 175h51
v-68h-51c-74 0 -103 -30 -103 -104v-62h268v234h75v-312c37 53 100 88 174 88z" />
    <glyph glyph-name="f_f_j" horiz-adv-x="963" 
d="M899 506v-553c0 -95 -39 -167 -171 -159v67c74 -3 96 21 96 92v485h-268v-438h-75v438h-268v-438h-75v438h-114v68h114v59c0 119 56 175 178 175h51v-68h-51c-74 0 -103 -30 -103 -104v-62h268v59c0 119 56 175 178 175h51v-68h-51c-74 0 -103 -30 -103 -104v-62h343z
M862 608c-28 0 -49 22 -49 48c0 28 21 49 49 49c27 0 48 -21 48 -49c0 -26 -21 -48 -48 -48z" />
    <glyph glyph-name="f_f_k" horiz-adv-x="1289" 
d="M1285 0h-97l-194 242l-95 -101v-141h-75v438h-268v-438h-75v438h-268v-438h-75v438h-114v68h114v59c0 119 56 175 178 175h51v-68h-51c-74 0 -103 -30 -103 -104v-62h268v59c0 119 56 175 178 175h51v-68h-51c-74 0 -103 -30 -103 -104v-62h268v234h75v-501l246 267h96
l-196 -209z" />
    <glyph glyph-name="f_f_t" horiz-adv-x="1097" 
d="M138 0v438h-114v68h114v59c0 119 56 175 178 175h51v-68h-51c-74 0 -103 -30 -103 -104v-62h268v59c0 119 56 175 178 175h51v-68h-51c-74 0 -103 -30 -103 -104v-62h268v181l75 23v-204h153v-68h-153v-266c0 -74 29 -104 103 -104h50v-68h-50c-122 0 -178 56 -178 175
v263h-268v-438h-75v438h-268v-438h-75z" />
    <glyph glyph-name="f_h" horiz-adv-x="1007" 
d="M730 516c126 0 217 -93 217 -218v-298h-75v289c0 90 -67 158 -158 158c-90 0 -158 -68 -158 -158v-289h-75v438h-268v-438h-75v438h-114v68h114v59c0 119 56 175 178 175h51v-68h-51c-74 0 -103 -30 -103 -104v-62h268v234h75v-313c37 54 99 89 174 89z" />
    <glyph glyph-name="f_hbar" horiz-adv-x="1007" 
d="M730 516c126 0 217 -93 217 -218v-298h-75v289c0 90 -67 158 -158 158c-90 0 -158 -68 -158 -158v-289h-75v438h-268v-438h-75v438h-114v68h114v59c0 119 56 175 178 175h43v-68h-43c-74 0 -103 -30 -103 -104v-62h268v70h-71v61h71v103h75v-103h160v-61h-160v-149
c37 54 99 89 174 89z" />
    <glyph glyph-name="f_iacute" horiz-adv-x="620" 
d="M556 506v-506h-75v438h-268v-438h-75v438h-114v68h114v59c0 119 56 175 178 175h51v-68h-51c-74 0 -103 -30 -103 -104v-62h343zM656 736l-116 -160h-79l110 160h85z" />
    <glyph glyph-name="f_imacron" horiz-adv-x="620" 
d="M556 506v-506h-75v438h-268v-438h-75v438h-114v68h114v59c0 119 56 175 178 175h40v-68h-40c-74 0 -103 -30 -103 -104v-62h343zM400 687h237v-61h-237v61z" />
    <glyph glyph-name="f_j" horiz-adv-x="620" 
d="M556 506v-553c0 -95 -39 -167 -170 -159v67c73 -3 95 21 95 92v485h-268v-438h-75v438h-114v68h114v59c0 119 56 175 178 175h51v-68h-51c-74 0 -103 -30 -103 -104v-62h343zM519 608c-28 0 -49 22 -49 48c0 28 21 49 49 49c27 0 49 -21 49 -49c0 -26 -22 -48 -49 -48z
" />
    <glyph glyph-name="f_k" horiz-adv-x="946" 
d="M942 0h-97l-194 242l-95 -101v-141h-75v438h-268v-438h-75v438h-114v68h114v59c0 119 56 175 178 175h51v-68h-51c-74 0 -103 -30 -103 -104v-62h268v234h75v-501l246 267h96l-196 -209z" />
    <glyph glyph-name="f_lcaron" horiz-adv-x="620" 
d="M645 763h72l-45 -188h-62zM481 506v234h75v-740h-75v438h-268v-438h-75v438h-114v68h114v59c0 119 56 175 178 175h51v-68h-51c-74 0 -103 -30 -103 -104v-62h268z" />
    <glyph glyph-name="f_t" horiz-adv-x="740" 
d="M695 438h-153v-266c0 -74 29 -104 103 -104h50v-68h-50c-122 0 -178 56 -178 175v263h-254v-438h-75v438h-114v68h114v59c0 119 56 175 178 175h51v-68h-51c-74 0 -103 -30 -103 -104v-62h254v181l75 23v-204h153v-68z" />
    <glyph glyph-name="idieresis_idieresis" horiz-adv-x="407" 
d="M-30 657c0 26 21 48 48 48s48 -22 48 -48c0 -27 -21 -49 -48 -49s-48 22 -48 49zM156 657c0 26 21 48 48 48s48 -22 48 -48c0 -27 -21 -49 -48 -49s-48 22 -48 49zM342 657c0 26 21 48 48 48s48 -22 48 -48c0 -27 -21 -49 -48 -49s-48 22 -48 49zM64 0v506h75v-506h-75z
M267 0v506h75v-506h-75z" />
    <glyph glyph-name="t_t" horiz-adv-x="780" 
d="M24 438v68h114v181l75 23v-204h294v181l75 23v-204h153v-68h-153v-266c0 -74 29 -104 103 -104h50v-68h-50c-122 0 -178 56 -178 175v263h-294v-266c0 -74 29 -104 103 -104h51v-68h-51c-122 0 -178 56 -178 175v263h-114z" />
    <glyph glyph-name="tcaron_t" horiz-adv-x="780" 
d="M268 575l35 188h71l-45 -188h-61zM24 438v68h114v181l75 23v-204h294v181l75 23v-204h153v-68h-153v-266c0 -74 29 -104 103 -104h50v-68h-50c-122 0 -178 56 -178 175v263h-294v-266c0 -74 29 -104 103 -104h51v-68h-51c-122 0 -178 56 -178 175v263h-114z" />
    <glyph glyph-name="w_w_w" horiz-adv-x="1951" 
d="M1862 506h75l-180 -506h-84l-144 400l-144 -400h-84l-141 402l-142 -402h-85l-141 403l-142 -403h-83l-144 400l-145 -400h-83l-181 506h80l145 -433l147 433h77l147 -432l145 432h77l146 -433l145 433h77l146 -432l146 432h77l147 -432z" />
    <glyph glyph-name="ordfeminine" unicode="&#xaa;" horiz-adv-x="382" 
d="M191 707c81 0 142 -44 142 -127v-236h-66v54c-28 -37 -75 -61 -130 -61c-67 0 -113 38 -113 99c0 70 57 103 130 109l72 7c27 2 41 13 41 37c0 38 -31 63 -76 63c-43 0 -80 -21 -91 -70l-65 16c15 69 76 109 156 109zM152 391c65 0 115 52 115 109v16
c-11 -8 -24 -12 -43 -14l-70 -8c-38 -4 -63 -22 -63 -54c0 -29 23 -49 61 -49z" />
    <glyph glyph-name="ordmasculine" unicode="&#xba;" horiz-adv-x="444" 
d="M34 522c0 105 81 185 188 185c106 0 188 -80 188 -185s-82 -185 -188 -185c-107 0 -188 80 -188 185zM102 522c0 -71 52 -125 120 -125s120 54 120 125s-52 125 -120 125s-120 -54 -120 -125z" />
    <glyph glyph-name="ordfeminine.ss03" horiz-adv-x="462" 
d="M342 700h66v-356h-66v56c-30 -39 -76 -63 -131 -63c-101 0 -176 80 -177 185s76 185 177 185c55 0 101 -24 131 -63v56zM222 397c68 0 120 54 120 125s-52 125 -120 125s-120 -54 -120 -125s52 -125 120 -125z" />
    <glyph glyph-name="uni0410" unicode="&#x410;" horiz-adv-x="719" 
d="M621 0l-80 186h-366l-80 -186h-81l304 700h83l304 -700h-84zM205 257h305l-152 354z" />
    <glyph glyph-name="uni0411" unicode="&#x411;" horiz-adv-x="589" 
d="M64 0v700h434v-71h-356v-224h187c132 0 220 -87 220 -202s-88 -203 -220 -203h-265zM142 71h187c84 0 141 57 141 131c0 75 -57 133 -141 133h-187v-264z" />
    <glyph glyph-name="uni0412" unicode="&#x412;" horiz-adv-x="622" 
d="M459 357c71 -28 116 -92 116 -170c0 -106 -83 -187 -201 -187h-310v700h280c118 0 201 -81 201 -187c0 -67 -33 -123 -86 -156zM141 631v-247h198c78 0 132 54 132 124c0 69 -54 123 -132 123h-198zM365 69c77 0 131 55 131 124c0 70 -54 123 -131 123h-224v-247h224z
" />
    <glyph glyph-name="uni0413" unicode="&#x413;" horiz-adv-x="505" 
d="M64 0v700h431v-71h-353v-629h-78z" />
    <glyph glyph-name="uni0403" unicode="&#x403;" horiz-adv-x="505" 
d="M197 749l149 151h95l-155 -151h-89zM64 0v700h431v-71h-353v-629h-78z" />
    <glyph glyph-name="uni0490" unicode="&#x490;" horiz-adv-x="505" 
d="M64 0v700h353v150h78v-221h-353v-629h-78z" />
    <glyph glyph-name="uni0414" unicode="&#x414;" horiz-adv-x="759" 
d="M655 71h87v-231h-78v160h-574v-160h-78v231h71c62 85 78 183 78 379v250h494v-629zM577 71v558h-341v-179c0 -192 -14 -295 -66 -379h407z" />
    <glyph glyph-name="uni0415" unicode="&#x415;" horiz-adv-x="542" 
d="M64 0v700h431v-71h-353v-244h343v-70h-343v-244h353v-71h-431z" />
    <glyph glyph-name="uni0400" unicode="&#x400;" horiz-adv-x="542" 
d="M264 749l-155 151h95l149 -151h-89zM64 0v700h431v-71h-353v-244h343v-70h-343v-244h353v-71h-431z" />
    <glyph glyph-name="uni0401" unicode="&#x401;" horiz-adv-x="542" 
d="M114 825c0 26 21 48 48 48c26 0 47 -22 47 -48s-21 -47 -47 -47c-27 0 -48 21 -48 47zM333 825c0 26 21 48 47 48c27 0 48 -22 48 -48s-21 -47 -48 -47c-26 0 -47 21 -47 47zM64 0v700h431v-71h-353v-244h343v-70h-343v-244h353v-71h-431z" />
    <glyph glyph-name="uni0416" unicode="&#x416;" horiz-adv-x="978" 
d="M724 355l227 -355h-94l-201 315h-128v-315h-78v315h-128l-204 -315h-91l226 353l-206 347h87l188 -315h128v315h78v-315h128l188 315h87z" />
    <glyph glyph-name="uni0417" unicode="&#x417;" horiz-adv-x="602" 
d="M423 351c78 -25 132 -89 132 -167c0 -126 -119 -194 -252 -194c-98 0 -200 35 -266 109l48 55c59 -62 145 -92 218 -92c100 0 173 52 173 128c0 87 -83 125 -201 125h-84v70h84c118 0 201 38 201 125c0 76 -73 128 -173 128c-73 0 -159 -30 -218 -92l-48 55
c66 74 168 109 266 109c133 0 252 -68 252 -194c0 -78 -54 -141 -132 -165z" />
    <glyph glyph-name="uni0418" unicode="&#x418;" horiz-adv-x="719" 
d="M578 700h77v-700h-78v580l-436 -580h-77v700h78v-580z" />
    <glyph glyph-name="uni0419" unicode="&#x419;" horiz-adv-x="719" 
d="M360 750c-94 0 -161 56 -168 150h68c6 -57 42 -93 100 -93c57 0 93 36 99 93h68c-7 -94 -75 -150 -167 -150zM578 700h77v-700h-78v580l-436 -580h-77v700h78v-580z" />
    <glyph glyph-name="uni040D" unicode="&#x40d;" horiz-adv-x="719" 
d="M441 749h-89l-155 151h95zM578 700h77v-700h-78v580l-436 -580h-77v700h78v-580z" />
    <glyph glyph-name="uni041A" unicode="&#x41a;" horiz-adv-x="643" 
d="M355 356l271 -356h-95l-243 315h-146v-315h-78v700h78v-315h146l231 315h87z" />
    <glyph glyph-name="uni040C" unicode="&#x40c;" horiz-adv-x="643" 
d="M484 900l-155 -151h-89l149 151h95zM355 356l271 -356h-95l-243 315h-146v-315h-78v700h78v-315h146l231 315h87z" />
    <glyph glyph-name="uni041B" unicode="&#x41b;" horiz-adv-x="722" 
d="M10 -6v70h9c88 0 135 41 135 286v350h504v-700h-78v629h-351v-279c0 -291 -75 -356 -213 -356h-6z" />
    <glyph glyph-name="uni041C" unicode="&#x41c;" horiz-adv-x="842" 
d="M772 0h-75v580l-246 -580h-66l-246 580v-580h-75v700h102l254 -594l253 594h99v-700z" />
    <glyph glyph-name="uni041D" unicode="&#x41d;" horiz-adv-x="713" 
d="M64 0v700h78v-315h429v315h78v-700h-78v315h-429v-315h-78z" />
    <glyph glyph-name="uni041E" unicode="&#x41e;" horiz-adv-x="814" 
d="M44 350c0 203 158 360 363 360s363 -157 363 -360s-158 -360 -363 -360s-363 157 -363 360zM124 350c0 -162 124 -288 283 -288c160 0 283 126 283 288s-123 288 -283 288c-159 0 -283 -126 -283 -288z" />
    <glyph glyph-name="uni041F" unicode="&#x41f;" horiz-adv-x="713" 
d="M64 0v700h585v-700h-78v629h-429v-629h-78z" />
    <glyph glyph-name="uni0420" unicode="&#x420;" horiz-adv-x="569" 
d="M64 0v700h264c133 0 224 -91 224 -209s-91 -208 -224 -208h-186v-283h-78zM142 354h186c85 0 144 60 144 138s-59 137 -144 137h-186v-275z" />
    <glyph glyph-name="uni0421" unicode="&#x421;" horiz-adv-x="771" 
d="M44 350c0 203 158 360 363 360c155 0 271 -94 320 -202l-71 -30c-43 92 -135 160 -249 160c-159 0 -283 -126 -283 -288s124 -288 283 -288c114 0 206 68 249 160l71 -30c-49 -108 -165 -202 -320 -202c-205 0 -363 157 -363 360z" />
    <glyph glyph-name="uni0422" unicode="&#x422;" horiz-adv-x="572" 
d="M247 0v629h-237v71h552v-71h-237v-629h-78z" />
    <glyph glyph-name="uni0423" unicode="&#x423;" horiz-adv-x="620" 
d="M536 700h80l-388 -700h-80l123 222l-257 478h88l214 -397z" />
    <glyph glyph-name="uni040E" unicode="&#x40e;" horiz-adv-x="620" 
d="M311 750c-94 0 -161 56 -168 150h68c6 -57 42 -93 100 -93c57 0 93 36 99 93h68c-7 -94 -75 -150 -167 -150zM536 700h80l-388 -700h-80l123 222l-257 478h88l214 -397z" />
    <glyph glyph-name="uni0424" unicode="&#x424;" horiz-adv-x="853" 
d="M472 656c198 0 337 -127 337 -306s-139 -306 -337 -306h-7v-84h-78v84h-7c-197 0 -336 127 -336 306s139 306 336 306h7v84h78v-84h7zM387 114v472h-7c-152 0 -258 -97 -258 -236c0 -138 106 -236 258 -236h7zM472 114c153 0 259 98 259 236c0 139 -106 236 -259 236h-7
v-472h7z" />
    <glyph glyph-name="uni0425" unicode="&#x425;" horiz-adv-x="647" 
d="M633 700l-262 -349l262 -351h-96l-214 290l-215 -290h-94l262 349l-262 351h96l215 -289l214 289h94z" />
    <glyph glyph-name="uni0427" unicode="&#x427;" horiz-adv-x="643" 
d="M501 700h78v-700h-78v279c-56 -12 -128 -26 -197 -26c-193 0 -270 77 -270 254v193h78v-193c0 -133 56 -183 199 -183c62 0 134 13 190 25v351z" />
    <glyph glyph-name="uni0426" unicode="&#x426;" horiz-adv-x="753" 
d="M64 0v700h78v-629h429v629h78v-629h87v-231h-78v160h-594z" />
    <glyph glyph-name="uni0428" unicode="&#x428;" horiz-adv-x="949" 
d="M64 0v700h78v-629h293v629h78v-629h294v629h78v-700h-821z" />
    <glyph glyph-name="uni0429" unicode="&#x429;" horiz-adv-x="989" 
d="M64 0v700h78v-629h293v629h78v-629h294v629h78v-629h87v-231h-78v160h-830z" />
    <glyph glyph-name="uni040F" unicode="&#x40f;" horiz-adv-x="713" 
d="M64 0v700h78v-629h429v629h78v-700h-254v-160h-77v160h-254z" />
    <glyph glyph-name="uni042C" unicode="&#x42c;" horiz-adv-x="586" 
d="M64 0v700h78v-283h186c133 0 224 -90 224 -208s-91 -209 -224 -209h-264zM142 71h186c85 0 144 59 144 137s-59 138 -144 138h-186v-275z" />
    <glyph glyph-name="uni042A" unicode="&#x42a;" horiz-adv-x="703" 
d="M10 629v71h259v-283h175c133 0 225 -90 225 -208s-92 -209 -225 -209h-253v629h-181zM269 71h175c86 0 145 59 145 137s-59 138 -145 138h-175v-275z" />
    <glyph glyph-name="uni042B" unicode="&#x42b;" horiz-adv-x="748" 
d="M64 0v700h78v-283h176c133 0 224 -90 224 -208s-91 -209 -224 -209h-254zM606 0v700h78v-700h-78zM142 71h176c85 0 144 59 144 137s-59 138 -144 138h-176v-275z" />
    <glyph glyph-name="uni0409" unicode="&#x409;" horiz-adv-x="1082" 
d="M10 -6v70h9c88 0 135 41 135 286v350h494v-283h175c133 0 225 -90 225 -208s-92 -209 -225 -209h-253v629h-341v-279c0 -291 -75 -356 -213 -356h-6zM648 71h175c86 0 145 59 145 137s-59 138 -145 138h-175v-275z" />
    <glyph glyph-name="uni040A" unicode="&#x40a;" horiz-adv-x="1073" 
d="M64 0v700h78v-315h419v315h78v-297h176c132 0 224 -87 224 -201s-92 -202 -224 -202h-254v315h-419v-315h-78zM639 71h176c85 0 144 56 144 130s-59 131 -144 131h-176v-261z" />
    <glyph glyph-name="uni0405" unicode="&#x405;" horiz-adv-x="609" 
d="M129 196c13 -86 79 -136 183 -136c99 0 166 51 166 121c0 194 -409 84 -409 341c0 107 99 188 234 188c137 0 230 -80 247 -190l-79 -16c-12 79 -75 137 -169 137c-90 0 -153 -49 -153 -116c0 -186 409 -73 409 -342c0 -114 -109 -193 -248 -193c-142 0 -243 73 -259 190
z" />
    <glyph glyph-name="uni0404" unicode="&#x404;" horiz-adv-x="771" 
d="M407 62c114 0 206 68 249 160l71 -30c-49 -108 -165 -202 -320 -202c-205 0 -363 157 -363 360s158 360 363 360c155 0 271 -94 320 -202l-71 -30c-43 92 -135 160 -249 160c-147 0 -265 -108 -281 -253h340v-70h-340c16 -145 134 -253 281 -253z" />
    <glyph glyph-name="uni042D" unicode="&#x42d;" horiz-adv-x="771" 
d="M364 710c205 0 363 -157 363 -360s-158 -360 -363 -360c-154 0 -271 94 -320 202l72 30c42 -92 135 -160 248 -160c148 0 266 108 282 253h-341v70h341c-16 145 -134 253 -282 253c-113 0 -206 -68 -248 -160l-72 30c49 108 166 202 320 202z" />
    <glyph glyph-name="uni0406" unicode="&#x406;" horiz-adv-x="206" 
d="M64 0v700h78v-700h-78z" />
    <glyph glyph-name="uni0407" unicode="&#x407;" horiz-adv-x="206" 
d="M-35 825c0 26 21 48 47 48c27 0 48 -22 48 -48s-21 -47 -48 -47c-26 0 -47 21 -47 47zM146 825c0 26 22 48 48 48s47 -22 47 -48s-21 -47 -47 -47s-48 21 -48 47zM64 0v700h78v-700h-78z" />
    <glyph glyph-name="uni0408" unicode="&#x408;" horiz-adv-x="513" 
d="M106 191c6 -88 65 -129 137 -129c89 0 138 67 138 155v483h78v-483c0 -133 -85 -227 -217 -227c-115 0 -204 68 -214 190z" />
    <glyph glyph-name="uni040B" unicode="&#x40b;" horiz-adv-x="796" 
d="M501 463c137 0 236 -101 236 -239v-224h-78v217c0 101 -75 177 -177 177c-101 0 -177 -75 -177 -177v-217h-78v629h-217v71h552v-71h-257v-264c40 59 111 98 196 98z" />
    <glyph glyph-name="uni042E" unicode="&#x42e;" horiz-adv-x="1050" 
d="M654 710c199 0 352 -157 352 -360s-153 -360 -352 -360c-186 0 -333 139 -349 325h-163v-315h-78v700h78v-315h163c16 186 163 325 349 325zM653 62c154 0 273 126 273 288s-119 288 -273 288s-273 -126 -273 -288s119 -288 273 -288z" />
    <glyph glyph-name="uni042F" unicode="&#x42f;" horiz-adv-x="610" 
d="M546 700v-700h-78v294h-138l-204 -294h-92l206 295c-112 12 -189 96 -189 203c0 114 89 202 216 202h279zM468 367v262h-201c-80 0 -137 -57 -137 -131s57 -131 137 -131h201z" />
    <glyph glyph-name="uni0402" unicode="&#x402;" horiz-adv-x="739" 
d="M472 430c133 0 230 -83 230 -221c0 -133 -88 -219 -214 -219c-37 0 -79 8 -113 22l14 70c31 -15 61 -21 91 -21c84 0 142 57 142 148c0 96 -64 150 -165 150c-45 0 -97 -11 -152 -32v-327h-78v629h-217v71h552v-71h-257v-230c57 20 108 31 167 31z" />
    <glyph glyph-name="uni0462" unicode="&#x462;" horiz-adv-x="644" 
d="M386 417c132 0 224 -90 224 -208s-92 -209 -224 -209h-264v541h-125v62h125v117h78v-117h165v-62h-165v-124h186zM386 71c85 0 144 59 144 137s-59 138 -144 138h-186v-275h186z" />
    <glyph glyph-name="uni0472" unicode="&#x472;" horiz-adv-x="814" 
d="M407 710c205 0 363 -157 363 -360s-158 -360 -363 -360s-363 157 -363 360s158 360 363 360zM407 638c-147 0 -265 -108 -281 -253c52 28 97 38 138 38c114 0 196 -75 304 -75c35 0 74 8 121 28c-13 150 -131 262 -282 262zM407 62c148 0 265 108 281 253
c-52 -28 -97 -38 -139 -38c-113 0 -195 75 -304 75c-34 0 -73 -8 -120 -28c13 -150 132 -262 282 -262z" />
    <glyph glyph-name="uni0474" unicode="&#x474;" horiz-adv-x="780" 
d="M555 602c36 88 98 140 217 84l-24 -63c-67 31 -96 19 -123 -48l-239 -575h-83l-289 700h83l249 -610z" />
    <glyph glyph-name="uni0492" unicode="&#x492;" horiz-adv-x="545" 
d="M535 629h-353v-254h193v-62h-193v-313h-78v313h-97v62h97v325h431v-71z" />
    <glyph glyph-name="uni0494" unicode="&#x494;" horiz-adv-x="613" 
d="M315 430c154 0 258 -121 258 -311c0 -203 -117 -329 -274 -329c-30 0 -62 4 -91 11l13 72c26 -7 50 -11 78 -11c115 0 195 98 195 254c0 152 -82 241 -194 241c-50 0 -105 -15 -158 -37v-320h-78v700h431v-71h-353v-239c55 25 116 40 173 40z" />
    <glyph glyph-name="uni0496" unicode="&#x496;" horiz-adv-x="1032" 
d="M906 71h109v-231h-78v160h-80l-201 315h-128v-315h-78v315h-128l-204 -315h-91l226 353l-206 347h87l188 -315h128v315h78v-315h128l188 315h87l-207 -345z" />
    <glyph glyph-name="uni0498" unicode="&#x498;" horiz-adv-x="602" 
d="M423 351c78 -25 132 -89 132 -167c0 -114 -97 -180 -213 -192v-152h-78v152c-85 8 -170 43 -227 107l48 55c59 -62 145 -92 218 -92c100 0 173 52 173 128c0 87 -83 125 -201 125h-84v70h84c118 0 201 38 201 125c0 76 -73 128 -173 128c-73 0 -159 -30 -218 -92l-48 55
c66 74 168 109 266 109c133 0 252 -68 252 -194c0 -78 -54 -141 -132 -165z" />
    <glyph glyph-name="uni049A" unicode="&#x49a;" horiz-adv-x="706" 
d="M572 71h117v-231h-78v160h-80l-243 315h-146v-315h-78v700h78v-315h146l231 315h87l-251 -344z" />
    <glyph glyph-name="uni049C" unicode="&#x49c;" horiz-adv-x="662" 
d="M374 356l271 -356h-96l-243 315h-37v-129h-61v129h-66v-315h-78v700h78v-315h66v129h61v-129h37l232 315h87z" />
    <glyph glyph-name="uni049E" unicode="&#x49e;" horiz-adv-x="643" 
d="M355 356l271 -356h-95l-243 315h-146v-315h-78v556h-87v61h87v83h78v-83h163v-61h-163v-171h146l231 315h87z" />
    <glyph glyph-name="uni04A0" unicode="&#x4a0;" horiz-adv-x="770" 
d="M482 356l271 -356h-96l-243 315h-145v-315h-78v629h-181v71h259v-315h145l232 315h87z" />
    <glyph glyph-name="uni04A2" unicode="&#x4a2;" horiz-adv-x="753" 
d="M649 71h87v-231h-78v160h-87v315h-429v-315h-78v700h78v-315h429v315h78v-629z" />
    <glyph glyph-name="uni04A4" unicode="&#x4a4;" horiz-adv-x="1011" 
d="M1001 700v-71h-352v-629h-78v315h-429v-315h-78v700h78v-315h429v315h430z" />
    <glyph glyph-name="uni04A6" unicode="&#x4a6;" horiz-adv-x="1100" 
d="M801 430c154 0 259 -121 259 -311c0 -203 -117 -329 -275 -329c-29 0 -61 4 -91 11l14 72c25 -7 50 -11 78 -11c115 0 194 98 194 254c0 152 -81 241 -193 241c-50 0 -105 -15 -158 -37v-320h-78v629h-409v-629h-78v700h565v-309c55 24 116 39 172 39z" />
    <glyph glyph-name="uni0524" unicode="&#x524;" horiz-adv-x="753" 
d="M649 71h87v-231h-78v160h-87v629h-429v-629h-78v700h585v-629z" />
    <glyph glyph-name="uni04A8" unicode="&#x4a8;" horiz-adv-x="908" 
d="M884 5c-36 -9 -76 -15 -122 -15c-66 0 -126 14 -180 40c-53 -26 -115 -40 -182 -40c-205 0 -356 150 -356 353c0 210 158 367 363 367v-72c-159 0 -283 -126 -283 -295c0 -163 116 -281 276 -281c39 0 75 6 108 16c-82 68 -133 170 -133 288c0 173 97 265 209 265
c113 0 209 -92 209 -265c0 -116 -51 -219 -135 -288c32 -10 67 -16 104 -16s73 5 112 13zM455 366c0 -108 49 -199 129 -252c81 53 130 144 130 252c0 115 -52 193 -130 193c-77 0 -129 -78 -129 -193z" />
    <glyph glyph-name="uni04AA" unicode="&#x4aa;" horiz-adv-x="771" 
d="M407 62c114 0 206 68 249 160l71 -30c-45 -99 -146 -186 -281 -200v-152h-78v152c-186 18 -324 168 -324 358c0 203 158 360 363 360c155 0 271 -94 320 -202l-71 -30c-43 92 -135 160 -249 160c-159 0 -283 -126 -283 -288s124 -288 283 -288z" />
    <glyph glyph-name="uni04AC" unicode="&#x4ac;" horiz-adv-x="572" 
d="M562 629h-237v-558h87v-231h-78v160h-87v629h-237v71h552v-71z" />
    <glyph glyph-name="uni04AE" unicode="&#x4ae;" horiz-adv-x="617" 
d="M347 243v-172h137v-71h-351v71h136v172l-265 457h92l215 -380l214 380h88z" />
    <glyph glyph-name="uni04B0" unicode="&#x4b0;" horiz-adv-x="617" 
d="M613 700l-250 -430h132v-61h-148v-138h137v-71h-351v71h136v138h-147v61h131l-249 430h92l215 -380l214 380h88z" />
    <glyph glyph-name="uni04B2" unicode="&#x4b2;" horiz-adv-x="712" 
d="M580 71h115v-231h-78v160h-80l-214 290l-215 -290h-94l262 349l-262 351h96l215 -289l214 289h94l-262 -349z" />
    <glyph glyph-name="uni04B4" unicode="&#x4b4;" horiz-adv-x="936" 
d="M247 0v629h-237v71h546v-71h-231v-558h429v629h77v-629h88v-231h-78v160h-594z" />
    <glyph glyph-name="uni04B6" unicode="&#x4b6;" horiz-adv-x="683" 
d="M579 71h87v-231h-78v160h-87v279c-56 -12 -128 -26 -197 -26c-193 0 -270 77 -270 254v193h78v-193c0 -133 56 -183 199 -183c62 0 134 13 190 25v351h78v-629z" />
    <glyph glyph-name="uni04B8" unicode="&#x4b8;" horiz-adv-x="643" 
d="M501 700h78v-700h-78v279c-46 -10 -104 -21 -161 -25v-118h-62v117c-174 7 -244 85 -244 254v193h78v-193c0 -122 47 -174 166 -182v139h62v-139c55 3 114 14 161 24v351z" />
    <glyph glyph-name="uni04BA" unicode="&#x4ba;" horiz-adv-x="634" 
d="M338 463c138 0 237 -101 237 -239v-224h-78v217c0 101 -76 177 -178 177c-100 0 -177 -75 -177 -177v-217h-78v700h78v-336c41 60 111 99 196 99z" />
    <glyph glyph-name="uni0526" unicode="&#x526;" horiz-adv-x="679" 
d="M575 71h87v-231h-78v160h-87v217c0 101 -76 177 -178 177c-100 0 -177 -75 -177 -177v-217h-78v700h78v-336c41 60 111 99 196 99c138 0 237 -101 237 -239v-153z" />
    <glyph glyph-name="uni04BC" unicode="&#x4bc;" horiz-adv-x="912" 
d="M505 710c198 0 368 -161 352 -388h-635c14 -148 132 -260 283 -260c113 0 206 68 248 160l72 -30c-49 -108 -166 -202 -320 -202c-196 0 -349 143 -362 333c-96 5 -153 54 -153 134c0 27 7 55 17 77h70c-11 -27 -16 -52 -16 -72c0 -42 25 -72 83 -77
c16 186 168 325 361 325zM505 638c-146 0 -261 -104 -281 -245h550c-11 132 -119 245 -269 245z" />
    <glyph glyph-name="uni04BE" unicode="&#x4be;" horiz-adv-x="912" 
d="M505 710c198 0 368 -161 352 -388h-635c14 -148 132 -260 283 -260c113 0 206 68 248 160l72 -30c-45 -99 -146 -186 -281 -200v-152h-78v152c-177 18 -310 154 -323 331c-96 5 -153 54 -153 134c0 27 7 55 17 77h70c-11 -27 -16 -52 -16 -72c0 -42 25 -72 83 -77
c16 186 168 325 361 325zM505 638c-146 0 -261 -104 -281 -245h550c-11 132 -119 245 -269 245z" />
    <glyph glyph-name="uni04C0" unicode="&#x4c0;" horiz-adv-x="206" 
d="M64 0v700h78v-700h-78z" />
    <glyph glyph-name="uni04C1" unicode="&#x4c1;" horiz-adv-x="978" 
d="M489 750c-94 0 -161 56 -168 150h68c6 -57 42 -93 100 -93c57 0 93 36 99 93h68c-7 -94 -75 -150 -167 -150zM724 355l227 -355h-94l-201 315h-128v-315h-78v315h-128l-204 -315h-91l226 353l-206 347h87l188 -315h128v315h78v-315h128l188 315h87z" />
    <glyph glyph-name="uni04C3" unicode="&#x4c3;" horiz-adv-x="633" 
d="M372 380c122 -25 201 -130 201 -283c0 -190 -117 -307 -274 -307c-30 0 -62 4 -91 11l13 72c26 -7 50 -11 78 -11c115 0 195 88 195 233c0 140 -82 220 -194 220h-158v-315h-78v700h78v-315h145l232 315h87z" />
    <glyph glyph-name="uni04C5" unicode="&#x4c5;" horiz-adv-x="762" 
d="M658 71h90l-78 -231h-78l55 160h-67v629h-351v-279c0 -291 -75 -356 -213 -356h-6v70h9c88 0 135 41 135 286v350h504v-629z" />
    <glyph glyph-name="uni04C7" unicode="&#x4c7;" horiz-adv-x="713" 
d="M571 700h78v-685c0 -123 -79 -225 -208 -225c-25 0 -53 3 -78 10l13 71c23 -6 42 -9 63 -9c85 0 132 74 132 153v300h-429v-315h-78v700h78v-315h429v315z" />
    <glyph glyph-name="uni04C9" unicode="&#x4c9;" horiz-adv-x="753" 
d="M649 71h90l-78 -231h-78l55 160h-67v315h-429v-315h-78v700h78v-315h429v315h78v-629z" />
    <glyph glyph-name="uni04CB" unicode="&#x4cb;" horiz-adv-x="643" 
d="M501 700h78v-700h-87v-160h-78v231h87v208c-56 -12 -128 -26 -197 -26c-193 0 -270 77 -270 254v193h78v-193c0 -133 56 -183 199 -183c62 0 134 13 190 25v351z" />
    <glyph glyph-name="uni04CD" unicode="&#x4cd;" horiz-adv-x="879" 
d="M772 71h93l-78 -231h-78l55 160h-67v580l-246 -580h-66l-246 580v-580h-75v700h102l254 -594l253 594h99v-629z" />
    <glyph glyph-name="uni04D0" unicode="&#x4d0;" horiz-adv-x="719" 
d="M360 750c-94 0 -161 56 -168 150h68c6 -57 42 -93 100 -93c57 0 93 36 99 93h68c-7 -94 -75 -150 -167 -150zM621 0l-80 186h-366l-80 -186h-81l304 700h83l304 -700h-84zM205 257h305l-152 354z" />
    <glyph glyph-name="uni04D2" unicode="&#x4d2;" horiz-adv-x="719" 
d="M251 778c-27 0 -48 21 -48 47s21 48 48 48c26 0 47 -22 47 -48s-21 -47 -47 -47zM469 778c-26 0 -47 21 -47 47s21 48 47 48c27 0 48 -22 48 -48s-21 -47 -48 -47zM621 0l-80 186h-366l-80 -186h-81l304 700h83l304 -700h-84zM205 257h305l-152 354z" />
    <glyph glyph-name="uni04D4" unicode="&#x4d4;" horiz-adv-x="972" 
d="M925 629h-353v-244h343v-70h-343v-244h353v-71h-431v186h-290l-121 -186h-89l457 700h474v-71zM250 257h244v374z" />
    <glyph glyph-name="uni04D6" unicode="&#x4d6;" horiz-adv-x="542" 
d="M171 900c6 -57 42 -93 100 -93c57 0 93 36 99 93h68c-7 -94 -75 -150 -167 -150c-94 0 -161 56 -168 150h68zM64 0v700h431v-71h-353v-244h343v-70h-343v-244h353v-71h-431z" />
    <glyph glyph-name="uni04D8" unicode="&#x4d8;" horiz-adv-x="814" 
d="M407 710c205 0 363 -157 363 -360s-158 -360 -363 -360c-198 0 -369 161 -352 388h634c-13 148 -131 260 -282 260c-113 0 -206 -68 -248 -160l-72 30c49 108 165 202 320 202zM407 62c146 0 260 104 280 245h-549c10 -132 118 -245 269 -245z" />
    <glyph glyph-name="uni04DA" unicode="&#x4da;" horiz-adv-x="814" 
d="M299 778c-27 0 -48 21 -48 47s21 48 48 48c26 0 47 -22 47 -48s-21 -47 -47 -47zM517 778c-26 0 -47 21 -47 47s21 48 47 48c27 0 48 -22 48 -48s-21 -47 -48 -47zM407 710c205 0 363 -157 363 -360s-158 -360 -363 -360c-198 0 -369 161 -352 388h634
c-13 148 -131 260 -282 260c-113 0 -206 -68 -248 -160l-72 30c49 108 165 202 320 202zM407 62c146 0 260 104 280 245h-549c10 -132 118 -245 269 -245z" />
    <glyph glyph-name="uni04DC" unicode="&#x4dc;" horiz-adv-x="978" 
d="M380 778c-27 0 -48 21 -48 47s21 48 48 48c26 0 47 -22 47 -48s-21 -47 -47 -47zM598 778c-26 0 -47 21 -47 47s21 48 47 48c27 0 48 -22 48 -48s-21 -47 -48 -47zM724 355l227 -355h-94l-201 315h-128v-315h-78v315h-128l-204 -315h-91l226 353l-206 347h87l188 -315
h128v315h78v-315h128l188 315h87z" />
    <glyph glyph-name="uni04DE" unicode="&#x4de;" horiz-adv-x="602" 
d="M194 778c-27 0 -48 21 -48 47s21 48 48 48c26 0 47 -22 47 -48s-21 -47 -47 -47zM412 778c-26 0 -47 21 -47 47s21 48 47 48c27 0 48 -22 48 -48s-21 -47 -48 -47zM423 351c78 -25 132 -89 132 -167c0 -126 -119 -194 -252 -194c-98 0 -200 35 -266 109l48 55
c59 -62 145 -92 218 -92c100 0 173 52 173 128c0 87 -83 125 -201 125h-84v70h84c118 0 201 38 201 125c0 76 -73 128 -173 128c-73 0 -159 -30 -218 -92l-48 55c66 74 168 109 266 109c133 0 252 -68 252 -194c0 -78 -54 -141 -132 -165z" />
    <glyph glyph-name="uni04E0" unicode="&#x4e0;" horiz-adv-x="602" 
d="M312 398c151 -8 243 -79 243 -199c0 -130 -121 -209 -252 -209c-98 0 -200 35 -266 109l48 55c59 -62 145 -92 218 -92c100 0 173 59 173 137c0 94 -83 135 -201 135h-57v63l223 232h-359v71h459v-63z" />
    <glyph glyph-name="uni04E2" unicode="&#x4e2;" horiz-adv-x="719" 
d="M517 856v-62h-316v62h316zM578 700h77v-700h-78v580l-436 -580h-77v700h78v-580z" />
    <glyph glyph-name="uni04E4" unicode="&#x4e4;" horiz-adv-x="719" 
d="M251 778c-27 0 -48 21 -48 47s21 48 48 48c26 0 47 -22 47 -48s-21 -47 -47 -47zM469 778c-26 0 -47 21 -47 47s21 48 47 48c27 0 48 -22 48 -48s-21 -47 -48 -47zM578 700h77v-700h-78v580l-436 -580h-77v700h78v-580z" />
    <glyph glyph-name="uni04E6" unicode="&#x4e6;" horiz-adv-x="814" 
d="M250 825c0 26 21 48 48 48c26 0 47 -22 47 -48s-21 -47 -47 -47c-27 0 -48 21 -48 47zM469 825c0 26 21 48 47 48c27 0 48 -22 48 -48s-21 -47 -48 -47c-26 0 -47 21 -47 47zM44 350c0 203 158 360 363 360s363 -157 363 -360s-158 -360 -363 -360s-363 157 -363 360z
M124 350c0 -162 124 -288 283 -288c160 0 283 126 283 288s-123 288 -283 288c-159 0 -283 -126 -283 -288z" />
    <glyph glyph-name="uni04E8" unicode="&#x4e8;" horiz-adv-x="814" 
d="M407 710c205 0 363 -157 363 -360s-158 -360 -363 -360s-363 157 -363 360s158 360 363 360zM407 638c-147 0 -265 -108 -281 -253h562c-16 145 -133 253 -281 253zM407 62c148 0 265 108 281 253h-562c16 -145 134 -253 281 -253z" />
    <glyph glyph-name="uni04EA" unicode="&#x4ea;" horiz-adv-x="814" 
d="M298 778c-27 0 -48 21 -48 47s21 48 48 48c26 0 47 -22 47 -48s-21 -47 -47 -47zM516 778c-26 0 -47 21 -47 47s21 48 47 48c27 0 48 -22 48 -48s-21 -47 -48 -47zM407 710c205 0 363 -157 363 -360s-158 -360 -363 -360s-363 157 -363 360s158 360 363 360zM407 638
c-147 0 -265 -108 -281 -253h562c-16 145 -133 253 -281 253zM407 62c148 0 265 108 281 253h-562c16 -145 134 -253 281 -253z" />
    <glyph glyph-name="uni04EC" unicode="&#x4ec;" horiz-adv-x="771" 
d="M255 778c-27 0 -48 21 -48 47s21 48 48 48c26 0 47 -22 47 -48s-21 -47 -47 -47zM473 778c-26 0 -47 21 -47 47s21 48 47 48c27 0 48 -22 48 -48s-21 -47 -48 -47zM364 710c205 0 363 -157 363 -360s-158 -360 -363 -360c-154 0 -271 94 -320 202l72 30
c42 -92 135 -160 248 -160c148 0 266 108 282 253h-341v70h341c-16 145 -134 253 -282 253c-113 0 -206 -68 -248 -160l-72 30c49 108 166 202 320 202z" />
    <glyph glyph-name="uni04EE" unicode="&#x4ee;" horiz-adv-x="620" 
d="M468 856v-62h-316v62h316zM536 700h80l-388 -700h-80l123 222l-257 478h88l214 -397z" />
    <glyph glyph-name="uni04F0" unicode="&#x4f0;" horiz-adv-x="620" 
d="M201 778c-27 0 -48 21 -48 47s21 48 48 48c26 0 47 -22 47 -48s-21 -47 -47 -47zM419 778c-26 0 -47 21 -47 47s21 48 47 48c27 0 48 -22 48 -48s-21 -47 -48 -47zM536 700h80l-388 -700h-80l123 222l-257 478h88l214 -397z" />
    <glyph glyph-name="uni04F2" unicode="&#x4f2;" horiz-adv-x="620" 
d="M374 900l-155 -151h-83l149 151h89zM409 749h-83l149 151h89zM536 700h80l-388 -700h-80l123 222l-257 478h88l214 -397z" />
    <glyph glyph-name="uni04F4" unicode="&#x4f4;" horiz-adv-x="643" 
d="M213 778c-27 0 -48 21 -48 47s21 48 48 48c26 0 47 -22 47 -48s-21 -47 -47 -47zM431 778c-26 0 -47 21 -47 47s21 48 47 48c27 0 48 -22 48 -48s-21 -47 -48 -47zM501 700h78v-700h-78v279c-56 -12 -128 -26 -197 -26c-193 0 -270 77 -270 254v193h78v-193
c0 -133 56 -183 199 -183c62 0 134 13 190 25v351z" />
    <glyph glyph-name="uni04F6" unicode="&#x4f6;" horiz-adv-x="505" 
d="M495 629h-353v-558h87v-231h-78v160h-87v700h431v-71z" />
    <glyph glyph-name="uni04F8" unicode="&#x4f8;" horiz-adv-x="748" 
d="M217 825c0 26 21 48 48 48c26 0 47 -22 47 -48s-21 -47 -47 -47c-27 0 -48 21 -48 47zM436 825c0 26 21 48 47 48c27 0 48 -22 48 -48s-21 -47 -48 -47c-26 0 -47 21 -47 47zM64 0v700h78v-283h176c133 0 224 -90 224 -208s-91 -209 -224 -209h-254zM606 0v700h78v-700
h-78zM142 71h176c85 0 144 59 144 137s-59 138 -144 138h-176v-275z" />
    <glyph glyph-name="uni04FC" unicode="&#x4fc;" horiz-adv-x="647" 
d="M371 351l183 -245c48 -64 73 -112 73 -171c0 -82 -66 -145 -163 -145c-24 0 -50 3 -75 10l13 67c19 -5 38 -8 59 -8c52 0 86 37 86 80c0 38 -13 66 -55 122l-169 229l-215 -290h-94l262 349l-262 351h96l215 -289l214 289h94z" />
    <glyph glyph-name="uni0510" unicode="&#x510;" horiz-adv-x="602" 
d="M300 62c72 0 159 30 217 92l48 -55c-65 -74 -168 -109 -265 -109c-133 0 -253 68 -253 194c0 78 54 142 133 167c-79 24 -133 87 -133 165c0 126 120 194 253 194c97 0 200 -35 265 -109l-48 -55c-58 62 -145 92 -217 92c-101 0 -173 -52 -173 -128
c0 -87 83 -125 200 -125h84v-70h-84c-117 0 -200 -38 -200 -125c0 -76 72 -128 173 -128z" />
    <glyph glyph-name="uni0512" unicode="&#x512;" horiz-adv-x="722" 
d="M10 -6v70h9c88 0 135 41 135 286v350h504v-685c0 -123 -79 -225 -209 -225c-24 0 -52 3 -77 10l13 71c23 -6 42 -9 63 -9c85 0 132 74 132 153v614h-351v-279c0 -291 -75 -356 -213 -356h-6z" />
    <glyph glyph-name="uni051C" unicode="&#x51c;" horiz-adv-x="1049" 
d="M922 700h80l-214 -700h-87l-177 592l-177 -592h-87l-213 700h83l176 -605l177 605h86l178 -606z" />
    <glyph glyph-name="uni0414.loclBGR" horiz-adv-x="782" 
d="M692 71h78v-231h-78v160h-602v-160h-78v231h78l259 629h84zM170 71h439l-219 542z" />
    <glyph glyph-name="uni0416.loclBGR" horiz-adv-x="992" 
d="M982 0h-96l-246 353l-105 -121v-232h-78v232l-105 121l-246 -353h-96l290 413l-250 287h98l309 -361v361h78v-362l309 362h98l-250 -287z" />
    <glyph glyph-name="uni041A.loclBGR" horiz-adv-x="633" 
d="M626 0h-95l-274 354l-115 -122v-232h-78v700h78v-362l342 362h98l-271 -288z" />
    <glyph glyph-name="uni041B.loclBGR" horiz-adv-x="689" 
d="M675 0h-83l-249 613l-248 -613h-81l289 700h84z" />
    <glyph glyph-name="uni0424.loclBGR" horiz-adv-x="863" 
d="M819 350c0 -198 -151 -353 -349 -360v-80h-77v80c-198 7 -349 162 -349 360s151 353 349 360v80h77v-80c198 -7 349 -162 349 -360zM124 350c0 -159 117 -282 269 -289v578c-152 -7 -269 -130 -269 -289zM470 61c152 7 269 130 269 289s-117 282 -269 289v-578z" />
    <glyph glyph-name="uni0492.loclBSH" horiz-adv-x="505" 
d="M495 629h-353v-254h290v-62h-290v-313h-78v700h431v-71z" />
    <glyph glyph-name="uni0498.loclBSH" horiz-adv-x="602" 
d="M423 351c78 -25 132 -89 132 -167c0 -109 -88 -174 -198 -190c27 -29 40 -63 40 -94c0 -63 -50 -110 -133 -110c-17 0 -35 2 -56 7l6 63c14 -3 27 -4 38 -4c48 0 72 25 72 57c0 25 -15 54 -45 78c-90 5 -181 40 -242 108l48 55c59 -62 145 -92 218 -92
c100 0 173 52 173 128c0 87 -83 125 -201 125h-84v70h84c118 0 201 38 201 125c0 76 -73 128 -173 128c-73 0 -159 -30 -218 -92l-48 55c66 74 168 109 266 109c133 0 252 -68 252 -194c0 -78 -54 -141 -132 -165z" />
    <glyph glyph-name="uni04AA.loclBSHCHU" horiz-adv-x="771" 
d="M407 62c114 0 206 68 249 160l71 -30c-43 -95 -138 -179 -266 -198c27 -29 40 -63 40 -94c0 -63 -50 -110 -133 -110c-17 0 -35 2 -56 7l6 63c14 -3 27 -4 38 -4c48 0 72 25 72 57c0 25 -15 55 -45 78c-193 11 -339 164 -339 359c0 203 158 360 363 360
c155 0 271 -94 320 -202l-71 -30c-43 92 -135 160 -249 160c-159 0 -283 -126 -283 -288s124 -288 283 -288z" />
    <glyph glyph-name="uni041D.loclUKR" horiz-adv-x="719" 
d="M577 700h78v-700h-77l-436 572v-572h-78v700h77l436 -572v572z" />
    <glyph glyph-name="uni0406.ss01" horiz-adv-x="420" 
d="M30 0v71h141v558h-141v71h360v-71h-141v-558h141v-71h-360z" />
    <glyph glyph-name="uni0407.ss01" horiz-adv-x="420" 
d="M53 825c0 26 21 48 48 48c26 0 47 -22 47 -48s-21 -47 -47 -47c-27 0 -48 21 -48 47zM272 825c0 26 21 48 47 48c27 0 48 -22 48 -48s-21 -47 -48 -47c-26 0 -47 21 -47 47zM30 0v71h141v558h-141v71h360v-71h-141v-558h141v-71h-360z" />
    <glyph glyph-name="uni04AE.ss02" horiz-adv-x="617" 
d="M525 700h88l-266 -457v-243h-78v243l-265 457h92l215 -380z" />
    <glyph glyph-name="uni04B0.ss02" horiz-adv-x="617" 
d="M613 700l-260 -447h142v-62h-148v-191h-78v191h-147v62h141l-259 447h92l215 -380l214 380h88z" />
    <glyph glyph-name="uni0430" unicode="&#x430;" horiz-adv-x="523" 
d="M269 516c110 0 194 -60 194 -173v-343h-75v91c-43 -65 -112 -101 -192 -101c-96 0 -162 53 -162 139c0 97 82 140 178 150l113 13c42 4 63 20 63 58c0 64 -49 101 -120 101c-67 0 -127 -31 -146 -110l-73 20c24 102 112 155 220 155zM209 53c105 0 179 82 179 172v29
c-13 -14 -35 -19 -68 -23l-109 -12c-57 -7 -102 -34 -102 -86c0 -49 41 -80 100 -80z" />
    <glyph glyph-name="uni0431" unicode="&#x431;" horiz-adv-x="617" 
d="M328 496c141 0 245 -110 245 -250c0 -147 -112 -256 -259 -256s-260 108 -260 269c0 240 45 359 161 416c98 48 187 36 328 75v-70c-91 -29 -223 -30 -295 -65c-64 -31 -101 -101 -113 -214c43 59 111 95 193 95zM314 60c104 0 182 78 182 183s-78 183 -182 183
s-182 -78 -182 -183s78 -183 182 -183z" />
    <glyph glyph-name="uni0432" unicode="&#x432;" horiz-adv-x="541" 
d="M406 259c56 -22 87 -67 87 -122c0 -79 -67 -137 -160 -137h-269v506h245c93 0 162 -58 162 -137c0 -47 -23 -86 -65 -110zM136 441v-156h170c53 0 91 34 91 79c0 44 -37 77 -91 77h-170zM330 65c52 0 90 33 90 78c0 44 -38 78 -90 78h-194v-156h194z" />
    <glyph glyph-name="uni0433" unicode="&#x433;" horiz-adv-x="420" 
d="M64 0v506h346v-68h-271v-438h-75z" />
    <glyph glyph-name="uni0453" unicode="&#x453;" horiz-adv-x="420" 
d="M180 576l110 160h85l-116 -160h-79zM64 0v506h346v-68h-271v-438h-75z" />
    <glyph glyph-name="uni0491" unicode="&#x491;" horiz-adv-x="420" 
d="M64 0v506h274v133h72v-201h-271v-438h-75z" />
    <glyph glyph-name="uni0434" unicode="&#x434;" horiz-adv-x="608" 
d="M521 68h70v-211h-72v143h-435v-143h-72v211h56c46 58 60 118 60 256v182h393v-438zM446 68v370h-246v-114c0 -134 -11 -202 -51 -256h297z" />
    <glyph glyph-name="uni0435" unicode="&#x435;" horiz-adv-x="610" 
d="M305 516c155 0 271 -124 259 -286h-445c11 -100 89 -173 192 -173c79 0 143 42 175 108l64 -27c-41 -87 -128 -148 -240 -148c-151 0 -266 113 -266 263c0 149 113 263 261 263zM305 449c-93 0 -167 -66 -184 -157h367c-15 89 -87 157 -183 157z" />
    <glyph glyph-name="uni0450" unicode="&#x450;" horiz-adv-x="610" 
d="M363 576h-79l-116 160h85zM305 516c155 0 271 -124 259 -286h-445c11 -100 89 -173 192 -173c79 0 143 42 175 108l64 -27c-41 -87 -128 -148 -240 -148c-151 0 -266 113 -266 263c0 149 113 263 261 263zM305 449c-93 0 -167 -66 -184 -157h367c-15 89 -87 157 -183 157
z" />
    <glyph glyph-name="uni0451" unicode="&#x451;" horiz-adv-x="610" 
d="M200 609c-27 0 -48 21 -48 47c0 27 21 48 48 48c26 0 47 -21 47 -48c0 -26 -21 -47 -47 -47zM411 609c-26 0 -47 21 -47 47c0 27 21 48 47 48c27 0 48 -21 48 -48c0 -26 -21 -47 -48 -47zM305 516c155 0 271 -124 259 -286h-445c11 -100 89 -173 192 -173
c79 0 143 42 175 108l64 -27c-41 -87 -128 -148 -240 -148c-151 0 -266 113 -266 263c0 149 113 263 261 263zM305 449c-93 0 -167 -66 -184 -157h367c-15 89 -87 157 -183 157z" />
    <glyph glyph-name="uni0436" unicode="&#x436;" horiz-adv-x="768" 
d="M580 258l174 -258h-89l-151 219h-92v-219h-75v219h-92l-154 -219h-87l174 256l-158 250h83l142 -219h92v219h75v-219h92l142 219h83z" />
    <glyph glyph-name="uni0437" unicode="&#x437;" horiz-adv-x="490" 
d="M348 254c60 -21 95 -66 95 -119c0 -93 -93 -145 -203 -145c-79 0 -161 29 -213 83l44 51c47 -47 117 -67 169 -67c77 0 126 36 126 83c0 57 -60 81 -146 81h-68v64h68c86 0 146 23 146 81c0 47 -49 83 -126 83c-53 0 -123 -21 -169 -67l-44 51c52 54 134 83 213 83
c111 0 203 -53 203 -145c0 -53 -35 -97 -95 -117z" />
    <glyph glyph-name="uni0438" unicode="&#x438;" horiz-adv-x="597" 
d="M460 506h73v-506h-75v397l-320 -397h-74v506h75v-399z" />
    <glyph glyph-name="uni0439" unicode="&#x439;" horiz-adv-x="597" 
d="M299 577c-86 0 -146 61 -146 156h65c0 -60 31 -98 81 -98c51 0 81 38 81 98h65c0 -95 -60 -156 -146 -156zM460 506h73v-506h-75v397l-320 -397h-74v506h75v-399z" />
    <glyph glyph-name="uni045D" unicode="&#x45d;" horiz-adv-x="597" 
d="M356 576h-79l-116 160h85zM460 506h73v-506h-75v397l-320 -397h-74v506h75v-399z" />
    <glyph glyph-name="uni043A" unicode="&#x43a;" horiz-adv-x="536" 
d="M310 258l209 -258h-92l-182 219h-106v-219h-75v506h75v-219h106l175 219h83z" />
    <glyph glyph-name="uni045C" unicode="&#x45c;" horiz-adv-x="536" 
d="M411 736l-116 -160h-79l110 160h85zM310 258l209 -258h-92l-182 219h-106v-219h-75v506h75v-219h106l175 219h83z" />
    <glyph glyph-name="uni043B" unicode="&#x43b;" horiz-adv-x="599" 
d="M20 -6v67h9c64 0 103 20 103 192v253h403v-506h-75v438h-256v-185c0 -187 -47 -259 -178 -259h-6z" />
    <glyph glyph-name="uni043C" unicode="&#x43c;" horiz-adv-x="695" 
d="M631 0h-72v398l-181 -398h-62l-180 396v-396h-72v506h98l187 -408l187 408h95v-506z" />
    <glyph glyph-name="uni043D" unicode="&#x43d;" horiz-adv-x="595" 
d="M64 0v506h75v-219h316v219h75v-506h-75v219h-316v-219h-75z" />
    <glyph glyph-name="uni043E" unicode="&#x43e;" horiz-adv-x="620" 
d="M44 253c0 149 115 263 266 263s266 -114 266 -263c0 -150 -115 -263 -266 -263s-266 113 -266 263zM121 253c0 -110 82 -193 189 -193c108 0 189 83 189 193s-81 193 -189 193c-107 0 -189 -83 -189 -193z" />
    <glyph glyph-name="uni043F" unicode="&#x43f;" horiz-adv-x="585" 
d="M64 0v506h456v-506h-75v438h-306v-438h-75z" />
    <glyph glyph-name="uni0440" unicode="&#x440;" horiz-adv-x="638" 
d="M338 516c146 0 256 -114 256 -263c0 -150 -110 -263 -256 -263c-85 0 -155 39 -199 101v-291h-75v706h75v-91c44 62 114 101 199 101zM328 60c108 0 189 83 189 193s-81 193 -189 193c-107 0 -189 -83 -189 -193s82 -193 189 -193z" />
    <glyph glyph-name="uni0441" unicode="&#x441;" horiz-adv-x="593" 
d="M44 253c0 149 115 263 266 263c111 0 201 -62 242 -158l-69 -24c-31 69 -95 112 -173 112c-107 0 -189 -83 -189 -193s82 -193 189 -193c78 0 142 43 173 112l69 -24c-41 -96 -131 -158 -242 -158c-151 0 -266 113 -266 263z" />
    <glyph glyph-name="uni0442" unicode="&#x442;" horiz-adv-x="486" 
d="M206 0v438h-182v68h439v-68h-182v-438h-75z" />
    <glyph glyph-name="uni0443" unicode="&#x443;" horiz-adv-x="520" 
d="M439 506h77l-300 -706h-77l82 193l-217 513h82l176 -432z" />
    <glyph glyph-name="uni045E" unicode="&#x45e;" horiz-adv-x="520" 
d="M260 577c-86 0 -146 61 -146 156h65c0 -60 31 -98 81 -98c51 0 81 38 81 98h65c0 -95 -60 -156 -146 -156zM439 506h77l-300 -706h-77l82 193l-217 513h82l176 -432z" />
    <glyph glyph-name="uni0444" unicode="&#x444;" horiz-adv-x="689" 
d="M645 253c0 -149 -113 -261 -263 -263v-190h-75v190c-150 2 -263 114 -263 263c0 148 113 261 263 263v224h75v-224c150 -2 263 -115 263 -263zM121 253c0 -109 80 -191 186 -193v386c-106 -2 -186 -84 -186 -193zM382 60c106 2 186 84 186 193s-80 191 -186 193v-386z
" />
    <glyph glyph-name="uni0445" unicode="&#x445;" horiz-adv-x="512" 
d="M495 506l-193 -252l193 -254h-93l-147 200l-149 -200h-89l193 252l-193 254h94l146 -199l149 199h89z" />
    <glyph glyph-name="uni0447" unicode="&#x447;" horiz-adv-x="535" 
d="M395 506h75v-506h-75v192c-39 -8 -95 -17 -148 -17c-166 0 -213 69 -213 190v141h75v-141c0 -78 29 -122 145 -122c45 0 101 8 141 16v247z" />
    <glyph glyph-name="uni0446" unicode="&#x446;" horiz-adv-x="617" 
d="M64 0v506h75v-438h316v438h75v-438h70v-211h-72v143h-464z" />
    <glyph glyph-name="uni0448" unicode="&#x448;" horiz-adv-x="780" 
d="M64 0v506h75v-438h214v438h74v-438h214v438h75v-506h-652z" />
    <glyph glyph-name="uni0449" unicode="&#x449;" horiz-adv-x="803" 
d="M64 0v506h75v-438h214v438h74v-438h214v438h75v-438h70v-211h-73v143h-649z" />
    <glyph glyph-name="uni045F" unicode="&#x45f;" horiz-adv-x="585" 
d="M64 0v506h75v-438h306v438h75v-506h-192v-143h-72v143h-192z" />
    <glyph glyph-name="uni044C" unicode="&#x44c;" horiz-adv-x="507" 
d="M64 0v506h75v-175h155c107 0 179 -71 179 -166c0 -94 -72 -165 -179 -165h-230zM139 68h149c64 0 108 41 108 97c0 57 -44 98 -108 98h-149v-195z" />
    <glyph glyph-name="uni044A" unicode="&#x44a;" horiz-adv-x="579" 
d="M150 0v438h-140v68h215v-175h145c107 0 178 -71 178 -166c0 -94 -71 -165 -178 -165h-220zM225 68h139c64 0 108 41 108 97c0 57 -44 98 -108 98h-139v-195z" />
    <glyph glyph-name="uni044B" unicode="&#x44b;" horiz-adv-x="656" 
d="M64 0v506h75v-175h145c107 0 179 -71 179 -166c0 -94 -72 -165 -179 -165h-220zM517 0v506h75v-506h-75zM139 68h139c64 0 108 41 108 97c0 57 -44 98 -108 98h-139v-195z" />
    <glyph glyph-name="uni0459" unicode="&#x459;" horiz-adv-x="882" 
d="M20 -6v67h9c64 0 103 20 103 192v253h393v-175h145c106 0 178 -71 178 -166c0 -94 -72 -165 -178 -165h-220v438h-246v-185c0 -187 -47 -259 -178 -259h-6zM525 68h139c64 0 107 41 107 97c0 57 -43 98 -107 98h-139v-195z" />
    <glyph glyph-name="uni045A" unicode="&#x45a;" horiz-adv-x="878" 
d="M64 0v506h75v-219h306v219h75v-203h153c102 0 171 -65 171 -152c0 -86 -69 -151 -171 -151h-228v219h-306v-219h-75zM520 68h147c60 0 100 36 100 83c0 48 -40 84 -100 84h-147v-167z" />
    <glyph glyph-name="uni0455" unicode="&#x455;" horiz-adv-x="482" 
d="M110 146c10 -59 56 -93 131 -93c77 0 131 35 131 84c0 139 -323 37 -323 232c0 85 80 147 192 147s182 -56 198 -141l-75 -15c-11 59 -54 92 -123 92c-68 0 -117 -32 -117 -80c0 -129 324 -30 324 -233c0 -87 -89 -149 -207 -149c-117 0 -191 56 -207 141z" />
    <glyph glyph-name="uni0454" unicode="&#x454;" horiz-adv-x="593" 
d="M310 57c80 0 145 47 175 114l67 -23c-41 -96 -131 -158 -242 -158c-151 0 -266 113 -266 263c0 149 115 263 266 263c111 0 201 -62 242 -158l-67 -23c-30 69 -95 114 -175 114c-98 0 -175 -69 -190 -164h237v-64h-237c15 -95 92 -164 190 -164z" />
    <glyph glyph-name="uni044D" unicode="&#x44d;" horiz-adv-x="593" 
d="M283 516c152 0 266 -114 266 -263c0 -150 -114 -263 -266 -263c-111 0 -201 62 -242 158l67 23c30 -67 95 -114 175 -114c99 0 176 69 190 164h-236v64h236c-14 95 -91 164 -190 164c-80 0 -144 -45 -175 -114l-67 23c41 96 131 158 242 158z" />
    <glyph glyph-name="uni0456" unicode="&#x456;" horiz-adv-x="203" 
d="M53 656c0 28 21 49 49 49c27 0 49 -21 49 -49c0 -26 -22 -48 -49 -48c-28 0 -49 22 -49 48zM64 0v506h75v-506h-75z" />
    <glyph glyph-name="uni0457" unicode="&#x457;" horiz-adv-x="203" 
d="M-30 656c0 27 21 48 47 48c27 0 48 -21 48 -48c0 -26 -21 -47 -48 -47c-26 0 -47 21 -47 47zM139 656c0 27 21 48 47 48s48 -21 48 -48c0 -26 -22 -47 -48 -47s-47 21 -47 47zM64 0v506h75v-506h-75z" />
    <glyph glyph-name="uni0458" unicode="&#x458;" horiz-adv-x="223" 
d="M73 656c0 28 21 49 49 49c27 0 49 -21 49 -49c0 -26 -22 -48 -49 -48c-28 0 -49 22 -49 48zM-11 -139c73 -3 95 21 95 92v553h75v-553c0 -95 -39 -167 -170 -159v67z" />
    <glyph glyph-name="uni045B" unicode="&#x45b;" horiz-adv-x="600" 
d="M323 476c126 0 217 -93 217 -218v-258h-75v249c0 90 -67 158 -158 158c-90 0 -158 -68 -158 -158v-249h-75v576h-81v61h81v103h75v-103h171v-61h-171v-189c37 54 99 89 174 89z" />
    <glyph glyph-name="uni044E" unicode="&#x44e;" horiz-adv-x="795" 
d="M495 516c145 0 255 -114 255 -263c0 -150 -110 -263 -255 -263c-135 0 -239 96 -254 229h-102v-219h-75v506h75v-219h102c15 132 119 229 254 229zM493 60c102 0 181 83 181 193s-79 193 -181 193s-180 -83 -180 -193s78 -193 180 -193z" />
    <glyph glyph-name="uni044F" unicode="&#x44f;" horiz-adv-x="538" 
d="M474 506v-506h-75v200h-115l-152 -200h-88l154 201c-84 10 -140 72 -140 152c0 88 67 153 164 153h252zM399 268v170h-174c-54 0 -91 -37 -91 -85s37 -85 91 -85h174z" />
    <glyph glyph-name="uni0452" unicode="&#x452;" horiz-adv-x="592" 
d="M333 476c123 0 207 -83 207 -221v-240c0 -123 -78 -225 -206 -225c-23 0 -50 3 -74 10l13 67c19 -5 38 -8 58 -8c88 0 134 74 134 153v234c0 100 -60 161 -151 161c-97 0 -165 -68 -165 -158v-249h-75v576h-81v61h81v103h75v-103h171v-61h-171v-189c37 54 100 89 184 89z
" />
    <glyph glyph-name="uni0463" unicode="&#x463;" horiz-adv-x="576" 
d="M362 331c106 0 178 -71 178 -166c0 -94 -72 -165 -178 -165h-230v461h-118v62h118v217h75v-217h135v-62h-135v-130h155zM356 68c64 0 108 41 108 97c0 57 -44 98 -108 98h-149v-195h149z" />
    <glyph glyph-name="uni0473" unicode="&#x473;" horiz-adv-x="620" 
d="M310 516c151 0 266 -114 266 -263c0 -150 -115 -263 -266 -263s-266 113 -266 263c0 149 115 263 266 263zM310 449c-98 0 -176 -69 -190 -164c34 18 64 26 92 26c77 0 138 -53 214 -53c24 0 48 6 75 19c-12 99 -90 172 -191 172zM310 57c98 0 175 69 190 163
c-34 -18 -64 -26 -92 -26c-77 0 -138 53 -214 53c-24 0 -48 -6 -75 -19c12 -98 90 -171 191 -171z" />
    <glyph glyph-name="uni0475" unicode="&#x475;" horiz-adv-x="628" 
d="M401 410c35 87 98 139 213 82l-25 -63c-66 31 -96 18 -124 -47l-162 -382h-85l-214 506h82l176 -428z" />
    <glyph glyph-name="uni0493" unicode="&#x493;" horiz-adv-x="460" 
d="M450 438h-271v-166h163v-62h-163v-210h-75v210h-90v62h90v234h346v-68z" />
    <glyph glyph-name="uni0495" unicode="&#x495;" horiz-adv-x="510" 
d="M275 294c126 0 210 -95 210 -244c0 -158 -95 -260 -223 -260c-23 0 -50 3 -74 10l13 67c18 -5 37 -8 58 -8c85 0 150 74 150 188c0 110 -58 178 -146 178c-36 0 -75 -8 -124 -29v-196h-75v506h366v-68h-291v-173c44 18 92 29 136 29z" />
    <glyph glyph-name="uni0497" unicode="&#x497;" horiz-adv-x="827" 
d="M708 68h102v-211h-72v143h-73l-151 219h-92v-219h-75v219h-92l-154 -219h-87l174 256l-158 250h83l142 -219h92v219h75v-219h92l142 219h83l-159 -248z" />
    <glyph glyph-name="uni0499" unicode="&#x499;" horiz-adv-x="490" 
d="M348 254c60 -21 95 -66 95 -119c0 -83 -73 -133 -167 -143v-135h-72v135c-67 7 -133 35 -177 81l44 51c47 -47 117 -67 169 -67c77 0 126 36 126 83c0 57 -60 81 -146 81h-68v64h68c86 0 146 23 146 81c0 47 -49 83 -126 83c-53 0 -123 -21 -169 -67l-44 51
c52 54 134 83 213 83c111 0 203 -53 203 -145c0 -53 -35 -97 -95 -117z" />
    <glyph glyph-name="uni049B" unicode="&#x49b;" horiz-adv-x="589" 
d="M464 68h108v-211h-72v143h-73l-182 219h-106v-219h-75v506h75v-219h106l175 219h83l-193 -248z" />
    <glyph glyph-name="uni049D" unicode="&#x49d;" horiz-adv-x="556" 
d="M331 258l208 -258h-91l-180 219h-19v-130h-59v130h-51v-219h-75v506h75v-219h51v130h59v-130h19l173 219h83z" />
    <glyph glyph-name="uni049F" unicode="&#x49f;" horiz-adv-x="546" 
d="M320 258l209 -258h-92l-182 219h-106v-219h-75v576h-84v61h84v103h75v-103h169v-61h-169v-289h106l175 219h83z" />
    <glyph glyph-name="uni04A1" unicode="&#x4a1;" horiz-adv-x="621" 
d="M396 258l208 -258h-91l-183 219h-105v-219h-75v438h-140v68h215v-219h105l176 219h83z" />
    <glyph glyph-name="uni04A3" unicode="&#x4a3;" horiz-adv-x="624" 
d="M530 68h77v-211h-72v143h-80v219h-316v-219h-75v506h75v-219h316v219h75v-438z" />
    <glyph glyph-name="uni04A5" unicode="&#x4a5;" horiz-adv-x="812" 
d="M802 506v-68h-272v-438h-75v219h-316v-219h-75v506h75v-219h316v219h347z" />
    <glyph glyph-name="uni0525" unicode="&#x525;" horiz-adv-x="614" 
d="M520 68h77v-211h-72v143h-80v438h-306v-438h-75v506h456v-438z" />
    <glyph glyph-name="uni04A7" unicode="&#x4a7;" horiz-adv-x="881" 
d="M646 294c126 0 211 -95 211 -244c0 -158 -96 -260 -223 -260c-24 0 -51 3 -75 10l13 67c19 -5 38 -8 58 -8c85 0 150 74 150 188c0 110 -58 178 -146 178c-36 0 -75 -8 -124 -29v-196h-75v438h-296v-438h-75v506h446v-241c46 18 93 29 136 29z" />
    <glyph glyph-name="uni04A9" unicode="&#x4a9;" horiz-adv-x="693" 
d="M676 1c-29 -7 -56 -11 -89 -11c-51 0 -99 11 -140 31c-42 -20 -90 -31 -141 -31c-151 0 -262 110 -262 261c0 156 115 268 266 268v-67c-109 0 -192 -83 -192 -201c0 -113 79 -194 188 -194c26 0 51 3 74 9c-56 51 -90 122 -90 203c0 125 75 191 158 191
c84 0 159 -66 159 -191c0 -81 -35 -153 -92 -203c23 -6 47 -9 72 -9c29 0 54 3 80 9zM359 269c0 -74 34 -135 89 -172c57 37 90 98 90 172c0 76 -37 126 -90 126c-52 0 -89 -50 -89 -126z" />
    <glyph glyph-name="uni04AB" unicode="&#x4ab;" horiz-adv-x="593" 
d="M310 60c78 0 142 43 173 112l69 -24c-36 -85 -112 -144 -206 -156v-135h-72v135c-133 17 -230 123 -230 261c0 149 115 263 266 263c111 0 201 -62 242 -158l-69 -24c-31 69 -95 112 -173 112c-107 0 -189 -83 -189 -193s82 -193 189 -193z" />
    <glyph glyph-name="uni04AD" unicode="&#x4ad;" horiz-adv-x="486" 
d="M463 438h-182v-370h77v-211h-72v143h-80v438h-182v68h439v-68z" />
    <glyph glyph-name="uni04AF" unicode="&#x4af;" horiz-adv-x="520" 
d="M439 506h77l-218 -519v-187h-75v187l-219 519h82l176 -428z" />
    <glyph glyph-name="uni04B1" unicode="&#x4b1;" horiz-adv-x="520" 
d="M516 506l-213 -506h136v-62h-141v-138h-75v138h-142v62h137l-214 506h82l176 -428l177 428h77z" />
    <glyph glyph-name="uni04B3" unicode="&#x4b3;" horiz-adv-x="564" 
d="M443 68h104v-211h-72v143h-73l-147 200l-149 -200h-89l193 252l-193 254h94l146 -199l149 199h89l-193 -252z" />
    <glyph glyph-name="uni04B5" unicode="&#x4b5;" horiz-adv-x="759" 
d="M206 0v438h-182v68h433v-68h-176v-370h316v438h75v-438h70v-211h-72v143h-464z" />
    <glyph glyph-name="uni04B7" unicode="&#x4b7;" horiz-adv-x="564" 
d="M470 68h77v-211h-72v143h-80v192c-39 -8 -95 -17 -148 -17c-166 0 -213 69 -213 190v141h75v-141c0 -78 29 -122 145 -122c45 0 101 8 141 16v247h75v-438z" />
    <glyph glyph-name="uni04B9" unicode="&#x4b9;" horiz-adv-x="535" 
d="M395 506h75v-506h-75v192c-29 -6 -66 -12 -105 -15v-125h-59v123c-153 5 -197 73 -197 190v141h75v-141c0 -73 25 -116 122 -121v136h59v-136c36 3 75 9 105 15v247z" />
    <glyph glyph-name="uni04BB" unicode="&#x4bb;" horiz-adv-x="590" 
d="M313 516c126 0 217 -93 217 -218v-298h-75v289c0 90 -67 158 -158 158c-90 0 -158 -68 -158 -158v-289h-75v740h75v-313c37 54 99 89 174 89z" />
    <glyph glyph-name="uni0527" unicode="&#x527;" horiz-adv-x="624" 
d="M530 68h77v-211h-72v143h-80v289c0 90 -67 158 -158 158c-90 0 -158 -68 -158 -158v-289h-75v740h75v-313c37 54 99 89 174 89c126 0 217 -93 217 -218v-230z" />
    <glyph glyph-name="uni04BD" unicode="&#x4bd;" horiz-adv-x="708" 
d="M403 516c155 0 271 -124 259 -286h-445c11 -100 89 -173 192 -173c79 0 143 42 174 108l65 -27c-41 -87 -128 -148 -240 -148c-145 0 -255 102 -265 241c-90 9 -143 56 -143 133c0 28 7 56 17 78h70c-11 -28 -16 -52 -16 -72c0 -39 22 -69 74 -76c18 128 123 222 258 222
zM403 449c-94 0 -167 -66 -184 -157h367c-15 89 -87 157 -183 157z" />
    <glyph glyph-name="uni04BF" unicode="&#x4bf;" horiz-adv-x="708" 
d="M403 516c155 0 271 -124 259 -286h-445c11 -100 89 -173 192 -173c79 0 143 42 174 108l65 -27c-37 -78 -110 -135 -205 -146v-135h-72v135c-126 16 -219 112 -228 239c-90 9 -143 56 -143 133c0 28 7 56 17 78h70c-11 -28 -16 -52 -16 -72c0 -39 22 -69 74 -76
c18 128 123 222 258 222zM403 449c-94 0 -167 -66 -184 -157h367c-15 89 -87 157 -183 157z" />
    <glyph glyph-name="uni04CF" unicode="&#x4cf;" horiz-adv-x="203" 
d="M64 0v740h75v-740h-75z" />
    <glyph glyph-name="uni04C2" unicode="&#x4c2;" horiz-adv-x="768" 
d="M384 577c-86 0 -146 61 -146 156h65c0 -60 31 -98 81 -98c51 0 81 38 81 98h65c0 -95 -60 -156 -146 -156zM580 258l174 -258h-89l-151 219h-92v-219h-75v219h-92l-154 -219h-87l174 256l-158 250h83l142 -219h92v219h75v-219h92l142 219h83z" />
    <glyph glyph-name="uni04C4" unicode="&#x4c4;" horiz-adv-x="538" 
d="M324 276c102 -28 161 -110 161 -229c0 -155 -95 -257 -223 -257c-23 0 -50 3 -74 10l13 67c18 -5 37 -8 58 -8c85 0 150 74 150 188c0 105 -58 172 -172 172h-98v-219h-75v506h75v-219h106l175 219h83z" />
    <glyph glyph-name="uni04C6" unicode="&#x4c6;" horiz-adv-x="629" 
d="M535 68h80l-71 -211h-72l49 143h-61v438h-256v-185c0 -187 -47 -259 -178 -259h-6v67h9c64 0 103 20 103 192v253h403v-438z" />
    <glyph glyph-name="uni04C8" unicode="&#x4c8;" horiz-adv-x="595" 
d="M455 506h75v-491c0 -123 -78 -225 -206 -225c-23 0 -50 3 -74 10l13 67c19 -5 38 -8 58 -8c88 0 134 74 134 153v207h-316v-219h-75v506h75v-219h316v219z" />
    <glyph glyph-name="uni04CA" unicode="&#x4ca;" horiz-adv-x="624" 
d="M530 68h80l-71 -211h-72l49 143h-61v219h-316v-219h-75v506h75v-219h316v219h75v-438z" />
    <glyph glyph-name="uni04CC" unicode="&#x4cc;" horiz-adv-x="535" 
d="M395 506h75v-506h-73v-143h-72v199h70v136c-39 -8 -95 -17 -148 -17c-166 0 -213 69 -213 190v141h75v-141c0 -78 29 -122 145 -122c45 0 101 8 141 16v247z" />
    <glyph glyph-name="uni04CE" unicode="&#x4ce;" horiz-adv-x="729" 
d="M631 68h84l-71 -211h-72l49 143h-62v398l-181 -398h-62l-180 396v-396h-72v506h98l187 -408l187 408h95v-438z" />
    <glyph glyph-name="uni04D1" unicode="&#x4d1;" horiz-adv-x="523" 
d="M262 577c-86 0 -146 61 -146 156h65c0 -60 31 -98 81 -98c51 0 81 38 81 98h65c0 -95 -60 -156 -146 -156zM269 516c110 0 194 -60 194 -173v-343h-75v91c-43 -65 -112 -101 -192 -101c-96 0 -162 53 -162 139c0 97 82 140 178 150l113 13c42 4 63 20 63 58
c0 64 -49 101 -120 101c-67 0 -127 -31 -146 -110l-73 20c24 102 112 155 220 155zM209 53c105 0 179 82 179 172v29c-13 -14 -35 -19 -68 -23l-109 -12c-57 -7 -102 -34 -102 -86c0 -49 41 -80 100 -80z" />
    <glyph glyph-name="uni04D3" unicode="&#x4d3;" horiz-adv-x="523" 
d="M156 609c-27 0 -48 21 -48 47c0 27 21 48 48 48c26 0 47 -21 47 -48c0 -26 -21 -47 -47 -47zM367 609c-26 0 -47 21 -47 47c0 27 21 48 47 48c27 0 48 -21 48 -48c0 -26 -21 -47 -48 -47zM269 516c110 0 194 -60 194 -173v-343h-75v91c-43 -65 -112 -101 -192 -101
c-96 0 -162 53 -162 139c0 97 82 140 178 150l113 13c42 4 63 20 63 58c0 64 -49 101 -120 101c-67 0 -127 -31 -146 -110l-73 20c24 102 112 155 220 155zM209 53c105 0 179 82 179 172v29c-13 -14 -35 -19 -68 -23l-109 -12c-57 -7 -102 -34 -102 -86
c0 -49 41 -80 100 -80z" />
    <glyph glyph-name="uni04D5" unicode="&#x4d5;" horiz-adv-x="960" 
d="M662 516c151 0 264 -124 253 -286h-445c11 -100 89 -173 192 -173c79 0 143 42 174 108l65 -27c-41 -87 -125 -148 -235 -148c-87 0 -161 39 -208 103v-93h-70v91c-43 -65 -112 -101 -192 -101c-96 0 -162 53 -162 139c0 97 82 140 178 150l113 13c42 4 63 20 63 58
c0 64 -49 101 -120 101c-67 0 -127 -31 -146 -110l-73 20c24 102 112 155 220 155c87 0 158 -38 184 -109c45 67 120 109 209 109zM656 449c-94 0 -167 -66 -184 -157h367c-15 89 -87 157 -183 157zM209 53c105 0 179 82 179 172v29c-13 -14 -35 -19 -68 -23l-109 -12
c-57 -7 -102 -34 -102 -86c0 -49 41 -80 100 -80z" />
    <glyph glyph-name="uni04D7" unicode="&#x4d7;" horiz-adv-x="610" 
d="M305 577c-86 0 -146 61 -146 156h65c0 -60 31 -98 81 -98c51 0 81 38 81 98h65c0 -95 -60 -156 -146 -156zM305 516c155 0 271 -124 259 -286h-445c11 -100 89 -173 192 -173c79 0 143 42 175 108l64 -27c-41 -87 -128 -148 -240 -148c-151 0 -266 113 -266 263
c0 149 113 263 261 263zM305 449c-93 0 -167 -66 -184 -157h367c-15 89 -87 157 -183 157z" />
    <glyph glyph-name="uni04D9" unicode="&#x4d9;" horiz-adv-x="611" 
d="M301 516c151 0 266 -114 266 -263c0 -150 -113 -263 -261 -263c-155 0 -271 124 -259 286h445c-11 100 -89 173 -193 173c-78 0 -142 -42 -174 -108l-65 27c42 87 129 148 241 148zM306 57c93 0 167 66 184 157h-367c14 -89 86 -157 183 -157z" />
    <glyph glyph-name="uni04DB" unicode="&#x4db;" horiz-adv-x="611" 
d="M197 609c-27 0 -48 21 -48 47c0 27 21 48 48 48c26 0 47 -21 47 -48c0 -26 -21 -47 -47 -47zM408 609c-26 0 -47 21 -47 47c0 27 21 48 47 48c27 0 48 -21 48 -48c0 -26 -21 -47 -48 -47zM301 516c151 0 266 -114 266 -263c0 -150 -113 -263 -261 -263
c-155 0 -271 124 -259 286h445c-11 100 -89 173 -193 173c-78 0 -142 -42 -174 -108l-65 27c42 87 129 148 241 148zM306 57c93 0 167 66 184 157h-367c14 -89 86 -157 183 -157z" />
    <glyph glyph-name="uni04DD" unicode="&#x4dd;" horiz-adv-x="768" 
d="M279 609c-27 0 -48 21 -48 47c0 27 21 48 48 48c26 0 47 -21 47 -48c0 -26 -21 -47 -47 -47zM490 609c-26 0 -47 21 -47 47c0 27 21 48 47 48c27 0 48 -21 48 -48c0 -26 -21 -47 -48 -47zM580 258l174 -258h-89l-151 219h-92v-219h-75v219h-92l-154 -219h-87l174 256
l-158 250h83l142 -219h92v219h75v-219h92l142 219h83z" />
    <glyph glyph-name="uni04DF" unicode="&#x4df;" horiz-adv-x="490" 
d="M135 609c-27 0 -48 21 -48 47c0 27 21 48 48 48c26 0 47 -21 47 -48c0 -26 -21 -47 -47 -47zM346 609c-26 0 -47 21 -47 47c0 27 21 48 47 48c27 0 48 -21 48 -48c0 -26 -21 -47 -48 -47zM348 254c60 -21 95 -66 95 -119c0 -93 -93 -145 -203 -145c-79 0 -161 29 -213 83
l44 51c47 -47 117 -67 169 -67c77 0 126 36 126 83c0 57 -60 81 -146 81h-68v64h68c86 0 146 23 146 81c0 47 -49 83 -126 83c-53 0 -123 -21 -169 -67l-44 51c52 54 134 83 213 83c111 0 203 -53 203 -145c0 -53 -35 -97 -95 -117z" />
    <glyph glyph-name="uni04E1" unicode="&#x4e1;" horiz-adv-x="485" 
d="M249 219c120 -17 199 -102 199 -214c0 -124 -96 -215 -213 -215c-110 0 -194 59 -218 159l70 19c18 -72 75 -109 147 -109c79 0 137 64 137 146s-61 149 -157 149h-50v63l179 221h-298v68h386v-64z" />
    <glyph glyph-name="uni04E3" unicode="&#x4e3;" horiz-adv-x="597" 
d="M452 687v-61h-306v61h306zM460 506h73v-506h-75v397l-320 -397h-74v506h75v-399z" />
    <glyph glyph-name="uni04E5" unicode="&#x4e5;" horiz-adv-x="597" 
d="M193 609c-27 0 -48 21 -48 47c0 27 21 48 48 48c26 0 47 -21 47 -48c0 -26 -21 -47 -47 -47zM404 609c-26 0 -47 21 -47 47c0 27 21 48 47 48c27 0 48 -21 48 -48c0 -26 -21 -47 -48 -47zM460 506h73v-506h-75v397l-320 -397h-74v506h75v-399z" />
    </font>
</defs>
</svg>
