<?xml version="1.0" standalone="no"?>
<!DOCTYPE svg PUBLIC "-//W3C//DTD SVG 1.1//EN" "http://www.w3.org/Graphics/SVG/1.1/DTD/svg11.dtd" >
<svg xmlns="http://www.w3.org/2000/svg" xmlns:xlink="http://www.w3.org/1999/xlink" version="1.1">
<metadata>
Created by FontForge 20201107 at Wed Dec  9 17:56:14 2020
 By Nikolai Pohorelsky
Copyright \(c\) 2020 by Optimo SARL. All rights reserved.
</metadata>
<defs>
<font id="AntiqueLegacy-ThinItalic" horiz-adv-x="660" >
  <font-face 
    font-family="Antique Legacy Thin"
    font-weight="250"
    font-style="italic"
    font-stretch="normal"
    units-per-em="1000"
    panose-1="2 11 3 4 1 1 1 1 1 4"
    ascent="800"
    descent="-200"
    x-height="515"
    cap-height="700"
    bbox="-114 -243 1201 1051"
    underline-thickness="50"
    underline-position="-125"
    slope="-12"
    stemh="46"
    stemv="55"
    unicode-range="U+000D-FEFF"
  />
<missing-glyph horiz-adv-x="763" 
d="M334 779h49l-44 -44c-71 -19 -127 -75 -147 -147l-54 -54v49zM236 779h49l-147 -147v49zM628 779h49l-104 -104c-8 9 -17 16 -26 23zM530 779h49l-62 -62c-11 6 -23 11 -34 15zM432 779h49l-38 -38c-9 1 -19 2 -28 2c-8 0 -12 0 -20 -1zM187 779l-49 -49v49h49zM682 735
v-49l-70 -70c-5 10 -11 20 -18 31zM682 637v-49l-52 -52c0 15 -3 30 -6 43zM138 387l148 148l39 -2c0 36 27 75 75 75h8l-270 -270v49zM138 289l309 309c11 -6 19 -14 26 -23l-335 -335v49zM138 485l56 56l46 -3l-102 -102v49zM682 539v-49l-216 -216v7c0 42 27 52 70 85
c21 17 75 46 89 116zM138 191l347 347v-15c0 -45 -56 -74 -92 -108c-15 -15 -27 -33 -36 -54l-219 -219v49zM682 441v-49l-224 -224h-49zM682 343v-49l-210 -210v49zM138 93l206 206v-38h11l-217 -217v49zM143 0l261 261h49l-93 -93h-23v-23l-145 -145h-49zM437 0l33 33h2v2
l210 210v-49l-196 -196h-49zM535 0l147 147v-49l-98 -98h-49zM241 0l96 96v-49l-47 -47h-49zM682 0h-49l49 49v-49zM339 0l33 33h49l-33 -33h-49z" />
    <glyph glyph-name="f_f" unicode="ff" horiz-adv-x="505" 
d="M282 0l100 468h-181l-100 -468h-55l100 468h-89l10 47h89l9 42c12 51 21 94 49 118c23 19 54 27 94 27c21 0 40 -1 56 -4l-10 -46c-13 2 -26 3 -41 3c-29 0 -47 -5 -60 -16c-21 -17 -25 -44 -34 -87l-8 -37h181l9 42c12 51 21 94 49 118c23 19 54 27 94 27
c21 0 40 -1 56 -4l-10 -46c-13 2 -26 3 -41 3c-29 0 -47 -5 -60 -16c-21 -17 -25 -44 -34 -87l-8 -37h102l-10 -47h-102l-100 -468h-55z" />
    <glyph glyph-name="f_i" unicode="fi" horiz-adv-x="472" 
d="M313 515l-10 -47h-102l-100 -468h-55l100 468h-89l10 47h89l9 42c12 51 21 94 49 118c23 19 54 27 94 27c21 0 40 -1 56 -4l-10 -46c-13 2 -26 3 -41 3c-29 0 -47 -5 -60 -16c-21 -17 -25 -44 -34 -87l-8 -37h102zM412 604l20 96h55l-20 -96h-55zM282 0l110 515h56
l-111 -515h-55z" />
    <glyph glyph-name="f_l" unicode="fl" horiz-adv-x="474" 
d="M313 515l-10 -47h-102l-100 -468h-55l100 468h-89l10 47h89l9 42c12 51 21 94 49 118c23 19 54 27 94 27c21 0 40 -1 56 -4l-10 -46c-13 2 -26 3 -41 3c-29 0 -47 -5 -60 -16c-21 -17 -25 -44 -34 -87l-8 -37h102zM434 700h55l-150 -700h-55z" />
    <glyph glyph-name="f_f_i" unicode="ffi" horiz-adv-x="709" 
d="M282 0l100 468h-181l-100 -468h-55l100 468h-89l10 47h89l9 42c12 51 21 94 49 118c23 19 54 27 94 27c21 0 40 -1 56 -4l-10 -46c-13 2 -26 3 -41 3c-29 0 -47 -5 -60 -16c-21 -17 -25 -44 -34 -87l-8 -37h181l9 42c12 51 21 94 49 118c23 19 54 27 94 27
c21 0 40 -1 56 -4l-10 -46c-13 2 -26 3 -41 3c-29 0 -47 -5 -60 -16c-21 -17 -25 -44 -34 -87l-8 -37h102l-10 -47h-102l-100 -468h-55zM649 605l20 96h55l-20 -96h-55zM519 1l110 515h56l-111 -515h-55z" />
    <glyph glyph-name="f_f_l" unicode="ffl" horiz-adv-x="709" 
d="M282 0l100 468h-181l-100 -468h-55l100 468h-89l10 47h89l9 42c12 51 21 94 49 118c23 19 54 27 94 27c21 0 40 -1 56 -4l-10 -46c-13 2 -26 3 -41 3c-29 0 -47 -5 -60 -16c-21 -17 -25 -44 -34 -87l-8 -37h181l9 42c12 51 21 94 49 118c23 19 54 27 94 27
c21 0 40 -1 56 -4l-10 -46c-13 2 -26 3 -41 3c-29 0 -47 -5 -60 -16c-21 -17 -25 -44 -34 -87l-8 -37h102l-10 -47h-102l-100 -468h-55zM669 700h55l-150 -700h-55z" />
    <glyph glyph-name=".notdef" horiz-adv-x="763" 
d="M334 779h49l-44 -44c-71 -19 -127 -75 -147 -147l-54 -54v49zM236 779h49l-147 -147v49zM628 779h49l-104 -104c-8 9 -17 16 -26 23zM530 779h49l-62 -62c-11 6 -23 11 -34 15zM432 779h49l-38 -38c-9 1 -19 2 -28 2c-8 0 -12 0 -20 -1zM187 779l-49 -49v49h49zM682 735
v-49l-70 -70c-5 10 -11 20 -18 31zM682 637v-49l-52 -52c0 15 -3 30 -6 43zM138 387l148 148l39 -2c0 36 27 75 75 75h8l-270 -270v49zM138 289l309 309c11 -6 19 -14 26 -23l-335 -335v49zM138 485l56 56l46 -3l-102 -102v49zM682 539v-49l-216 -216v7c0 42 27 52 70 85
c21 17 75 46 89 116zM138 191l347 347v-15c0 -45 -56 -74 -92 -108c-15 -15 -27 -33 -36 -54l-219 -219v49zM682 441v-49l-224 -224h-49zM682 343v-49l-210 -210v49zM138 93l206 206v-38h11l-217 -217v49zM143 0l261 261h49l-93 -93h-23v-23l-145 -145h-49zM437 0l33 33h2v2
l210 210v-49l-196 -196h-49zM535 0l147 147v-49l-98 -98h-49zM241 0l96 96v-49l-47 -47h-49zM682 0h-49l49 49v-49zM339 0l33 33h49l-33 -33h-49z" />
    <glyph glyph-name="uni2003" unicode="&#x2003;" horiz-adv-x="1000" 
 />
    <glyph glyph-name="uni2002" unicode="&#x2002;" horiz-adv-x="500" 
 />
    <glyph glyph-name="uni2005" unicode="&#x2005;" horiz-adv-x="250" 
 />
    <glyph glyph-name="uni200A" unicode="&#x200a;" horiz-adv-x="42" 
 />
    <glyph glyph-name="uni2009" unicode="&#x2009;" horiz-adv-x="125" 
 />
    <glyph glyph-name="uni2004" unicode="&#x2004;" horiz-adv-x="333" 
 />
    <glyph glyph-name="uni200B" unicode="&#x200b;" horiz-adv-x="0" 
 />
    <glyph glyph-name="uni2007" unicode="&#x2007;" horiz-adv-x="584" 
 />
    <glyph glyph-name="uni2008" unicode="&#x2008;" horiz-adv-x="202" 
 />
    <glyph glyph-name="CR" unicode="&#xd;" horiz-adv-x="225" 
 />
    <glyph glyph-name="space" unicode=" " horiz-adv-x="225" 
 />
    <glyph glyph-name="uni00A0" unicode="&#xa0;" horiz-adv-x="225" 
 />
    <glyph glyph-name="space.frac" horiz-adv-x="53" 
 />
    <glyph glyph-name="uni2000" unicode="&#x2000;" horiz-adv-x="500" 
 />
    <glyph glyph-name="uni2001" unicode="&#x2001;" horiz-adv-x="1000" 
 />
    <glyph glyph-name="NULL" horiz-adv-x="0" 
 />
    <glyph glyph-name="NULL" horiz-adv-x="0" 
 />
    <glyph glyph-name="uni2007.osf" horiz-adv-x="579" 
 />
    <glyph glyph-name="uni2007.tf" 
 />
    <glyph glyph-name="uni2007.tosf" 
 />
    <glyph glyph-name="uniFEFF" unicode="&#xfeff;" horiz-adv-x="0" 
 />
    <glyph glyph-name="uni2006" unicode="&#x2006;" horiz-adv-x="167" 
 />
    <glyph glyph-name="A" unicode="A" horiz-adv-x="632" 
d="M-50 0l427 700h70l124 -700h-60l-37 220h-326l-131 -220h-67zM403 647h-2c-28 -49 -77 -131 -112 -190l-112 -187h288l-32 187c-12 71 -22 142 -30 190z" />
    <glyph glyph-name="B" unicode="B" horiz-adv-x="670" 
d="M35 0l149 700h260c57 0 89 -5 121 -20c51 -21 82 -65 82 -138c0 -92 -61 -162 -156 -175v-2c76 -11 122 -69 122 -148c0 -83 -38 -144 -102 -179c-47 -25 -105 -38 -174 -38h-302zM232 649l-55 -259h227c100 0 184 51 184 146c0 49 -17 78 -48 95c-24 13 -51 18 -96 18
h-212zM167 339l-62 -288h235c73 0 125 16 162 47c32 27 52 66 52 115c0 103 -71 126 -167 126h-220z" />
    <glyph glyph-name="C" unicode="C" horiz-adv-x="699" 
d="M698 480h-57c-13 121 -98 184 -218 184c-204 0 -300 -197 -300 -379c0 -156 82 -249 226 -249c139 0 225 83 260 204h59c-38 -145 -148 -255 -319 -255c-168 0 -286 106 -286 300c0 208 124 430 360 430c153 0 269 -85 275 -235z" />
    <glyph glyph-name="D" unicode="D" horiz-adv-x="699" 
d="M35 0l149 700h208c115 0 178 -26 221 -74c44 -49 64 -121 64 -204c0 -121 -38 -233 -113 -312c-64 -67 -152 -110 -287 -110h-242zM232 649l-127 -598h172c104 0 173 30 225 78c80 73 115 185 115 293c0 77 -18 134 -54 171c-35 36 -81 56 -174 56h-157z" />
    <glyph glyph-name="E" unicode="E" horiz-adv-x="615" 
d="M35 0l149 700h475l-11 -51h-416l-56 -262h389l-10 -51h-389l-61 -285h421l-11 -51h-480z" />
    <glyph glyph-name="F" unicode="F" horiz-adv-x="559" 
d="M35 0l149 700h446l-11 -51h-387l-56 -262h345l-10 -51h-345l-72 -336h-59z" />
    <glyph glyph-name="G" unicode="G" horiz-adv-x="750" 
d="M63 285c0 207 133 429 373 429c159 0 275 -86 283 -234h-56c-13 121 -103 184 -227 184c-210 0 -313 -197 -313 -379c0 -157 83 -249 224 -249c171 0 271 123 295 266h-246l12 51h297l-73 -353h-50l24 120h-2c-52 -85 -144 -135 -257 -135c-170 0 -284 100 -284 300z" />
    <glyph glyph-name="H" unicode="H" horiz-adv-x="717" 
d="M35 0l149 700h59l-65 -307h421l65 307h59l-149 -700h-59l73 342h-421l-73 -342h-59z" />
    <glyph glyph-name="I" unicode="I" horiz-adv-x="237" 
d="M35 0l149 700h59l-149 -700h-59z" />
    <glyph glyph-name="J" unicode="J" horiz-adv-x="499" 
d="M13 220h58c-5 -24 -10 -47 -10 -70c0 -65 33 -115 121 -115c52 0 87 14 112 41c25 28 39 70 50 123l107 501h59l-109 -513c-13 -67 -32 -112 -64 -147c-33 -36 -83 -55 -155 -55c-120 0 -179 61 -179 162c0 23 5 48 10 73z" />
    <glyph glyph-name="K" unicode="K" horiz-adv-x="643" 
d="M35 0l149 700h59l-38 -175c-12 -53 -27 -133 -44 -208h2l468 383h83l-364 -293l255 -407h-67l-232 370l-159 -126l-53 -244h-59z" />
    <glyph glyph-name="L" unicode="L" horiz-adv-x="546" 
d="M35 0l149 700h59l-138 -649h387l-11 -51h-446z" />
    <glyph glyph-name="M" unicode="M" horiz-adv-x="853" 
d="M35 0l149 700h89l84 -452l31 -178h2c41 70 59 103 104 178l272 452h93l-149 -700h-58l75 353c28 132 51 222 64 291h-3c-25 -44 -95 -168 -150 -258l-235 -386h-57l-72 380c-15 85 -39 218 -45 264h-3c-10 -55 -34 -182 -62 -313l-71 -331h-58z" />
    <glyph glyph-name="N" unicode="N" horiz-adv-x="719" 
d="M35 0l149 700h64l201 -421c25 -52 56 -126 87 -189h2c20 95 40 196 61 293l67 317h59l-149 -700h-63l-183 384c-44 97 -68 152 -105 229h-2c-17 -84 -36 -178 -55 -265l-74 -348h-59z" />
    <glyph glyph-name="O" unicode="O" horiz-adv-x="743" 
d="M352 -15c-183 0 -289 121 -289 297c0 224 137 432 369 432c175 0 288 -111 288 -296c0 -218 -133 -433 -368 -433zM660 409c0 145 -77 255 -228 255c-204 0 -309 -189 -309 -382c0 -152 85 -246 229 -246c192 0 308 195 308 373z" />
    <glyph glyph-name="P" unicode="P" horiz-adv-x="622" 
d="M35 0l149 700h263c55 0 103 -11 139 -38c39 -28 62 -70 62 -137c0 -69 -24 -123 -64 -160c-45 -41 -106 -62 -184 -62h-241l-65 -303h-59zM233 649l-63 -295h231c59 0 102 15 134 42c35 29 55 72 55 129c0 51 -19 82 -51 101c-29 17 -67 23 -111 23h-195z" />
    <glyph glyph-name="Q" unicode="Q" horiz-adv-x="748" 
d="M352 -15c-183 0 -289 121 -289 297c0 224 137 432 369 432c175 0 288 -111 288 -296c0 -67 -12 -131 -37 -193c-24 -62 -59 -114 -106 -155l99 -90l-33 -34l-105 94c-52 -35 -114 -55 -186 -55zM411 156l34 36l93 -86c79 71 122 192 122 303c0 145 -77 255 -228 255
c-204 0 -309 -189 -309 -382c0 -152 85 -246 229 -246c55 0 104 13 147 40z" />
    <glyph glyph-name="R" unicode="R" horiz-adv-x="670" 
d="M35 0l149 700h281c58 0 103 -11 134 -32c41 -28 65 -76 65 -139c0 -55 -17 -100 -50 -134c-33 -33 -76 -53 -127 -58v-2c61 -12 86 -57 86 -114c0 -46 -17 -121 -17 -173c0 -17 2 -32 10 -45l-1 -3h-61c-4 8 -6 20 -6 37c0 50 16 145 16 181c0 56 -37 96 -122 96h-230
l-68 -314h-59zM232 649l-61 -285h247c104 0 187 49 187 165c0 43 -15 79 -46 99c-24 16 -61 21 -100 21h-227z" />
    <glyph glyph-name="S" unicode="S" horiz-adv-x="612" 
d="M607 501h-58v6c0 112 -74 156 -185 156c-125 0 -188 -52 -188 -140c0 -77 54 -103 141 -131l65 -21c90 -28 175 -57 175 -176c0 -89 -65 -210 -270 -210c-152 0 -259 71 -259 234v7h60c-1 -4 -1 -9 -1 -14c0 -109 67 -176 200 -176c107 0 211 43 211 156
c0 87 -67 109 -147 133l-63 19c-89 26 -172 61 -172 176c0 132 111 194 249 194c133 0 243 -57 243 -197c0 -5 0 -9 -1 -16z" />
    <glyph glyph-name="T" unicode="T" horiz-adv-x="575" 
d="M95 649l11 51h552l-11 -51h-247l-138 -649h-59l138 649h-246z" />
    <glyph glyph-name="U" unicode="U" horiz-adv-x="700" 
d="M84 264l92 436h59l-93 -437c-6 -30 -9 -55 -9 -76c0 -41 11 -80 38 -107c31 -29 89 -44 150 -44c67 0 119 14 155 43c41 33 63 80 78 151l100 470h59l-102 -479c-18 -83 -50 -144 -97 -181c-48 -37 -113 -55 -193 -55c-79 0 -151 17 -196 61c-34 33 -51 79 -51 138
c0 21 3 47 10 80z" />
    <glyph glyph-name="V" unicode="V" horiz-adv-x="603" 
d="M213 0l-111 700h60l60 -401c12 -71 26 -175 36 -244h2c49 88 99 174 140 247l223 398h66l-405 -700h-71z" />
    <glyph glyph-name="W" unicode="W" horiz-adv-x="909" 
d="M151 0l-41 700h61l18 -391c3 -65 9 -163 10 -243h2c37 80 77 167 114 243l194 391h76l28 -392c5 -76 11 -160 15 -241h2c37 80 86 182 114 242l186 391h60l-342 -700h-65l-29 397c-7 100 -12 199 -15 256h-2c-27 -59 -70 -152 -122 -256l-197 -397h-67z" />
    <glyph glyph-name="X" unicode="X" horiz-adv-x="581" 
d="M-44 0l325 363l-177 337h64l150 -300l267 300h68l-308 -346l185 -354h-62l-161 318l-283 -318h-68z" />
    <glyph glyph-name="Y" unicode="Y" horiz-adv-x="605" 
d="M221 0l61 288l-185 412h63l161 -360l300 360h69l-349 -412l-61 -288h-59z" />
    <glyph glyph-name="Z" unicode="Z" horiz-adv-x="579" 
d="M127 649l11 51h500l-12 -55l-579 -594h473l-11 -51h-541l12 55l574 594h-427z" />
    <glyph glyph-name="a" unicode="a" horiz-adv-x="539" 
d="M375 83h-2c-36 -57 -101 -94 -188 -94c-91 0 -158 41 -158 134c0 48 20 85 52 109c48 36 125 50 206 62l68 10c61 8 73 25 82 66c2 10 3 20 3 30c0 21 -6 42 -27 58c-20 15 -51 24 -94 24c-99 0 -153 -38 -173 -129h-56c27 124 103 174 232 174c87 0 171 -29 171 -116
c0 -19 -3 -36 -7 -55l-56 -263c-2 -11 -3 -19 -3 -26c0 -19 10 -27 37 -27c7 0 15 0 22 1l-9 -41c-12 -1 -19 -2 -34 -2c-48 0 -71 15 -71 52c0 8 1 16 3 25zM396 190l20 92c-9 -9 -20 -16 -63 -23l-72 -12c-65 -12 -122 -23 -155 -46c-27 -19 -41 -43 -41 -74
c0 -61 44 -92 109 -92c48 0 90 14 127 41c39 28 66 67 75 114z" />
    <glyph glyph-name="b" unicode="b" horiz-adv-x="589" 
d="M176 700h55l-42 -194c-5 -29 -10 -50 -19 -85h2c36 63 104 108 187 108c129 0 193 -92 193 -214c0 -154 -96 -330 -272 -330c-85 0 -156 52 -173 137h-2c-1 -17 -4 -29 -11 -57l-14 -65h-54zM276 32c146 0 221 160 221 285c0 99 -48 166 -151 166
c-141 0 -217 -166 -217 -283c0 -86 50 -168 147 -168z" />
    <glyph glyph-name="c" unicode="c" horiz-adv-x="527" 
d="M507 357h-53c-5 79 -61 126 -145 126c-141 0 -215 -147 -215 -277c0 -96 49 -174 152 -174c88 0 146 56 175 136h57c-37 -115 -114 -183 -233 -183c-132 0 -206 85 -206 218c0 164 99 326 272 326c106 0 192 -52 196 -172z" />
    <glyph glyph-name="d" unicode="d" horiz-adv-x="589" 
d="M454 0h-55l3 13l19 82h-3c-36 -61 -102 -110 -185 -110c-131 0 -195 92 -195 216c0 154 95 328 271 328c87 0 157 -49 174 -133h2c11 59 18 88 27 129l38 175h54zM312 483c-144 0 -219 -158 -219 -282c0 -101 48 -169 151 -169c141 0 217 168 217 284
c0 85 -49 167 -149 167z" />
    <glyph glyph-name="e" unicode="e" horiz-adv-x="549" 
d="M507 244h-410c-1 -13 -3 -22 -3 -35c0 -92 41 -177 154 -177c95 0 163 57 184 133h57c-33 -111 -122 -180 -241 -180c-137 0 -208 91 -208 223c0 162 92 321 264 321c146 0 208 -96 208 -216c0 -21 -2 -46 -5 -69zM105 290h350c1 9 1 19 1 28c0 85 -44 165 -152 165
c-113 0 -181 -91 -199 -193z" />
    <glyph glyph-name="f" unicode="f" horiz-adv-x="269" 
d="M313 515l-10 -47h-102l-100 -468h-55l100 468h-89l10 47h89l9 42c12 51 21 94 49 118c23 19 54 27 94 27c21 0 40 -1 56 -4l-10 -46c-13 2 -26 3 -41 3c-29 0 -47 -5 -60 -16c-21 -17 -25 -44 -34 -87l-8 -37h102z" />
    <glyph glyph-name="g" unicode="g" horiz-adv-x="576" 
d="M8 -32h55c0 -81 68 -104 142 -104c136 0 169 69 191 172l6 28c5 23 10 37 13 48h-3c-36 -61 -101 -104 -180 -104c-122 0 -190 90 -190 210c0 151 97 311 261 311c41 0 78 -11 111 -34c33 -22 52 -54 59 -95h3c3 19 7 45 11 65l10 50h54l-100 -472
c-34 -167 -93 -225 -246 -225c-114 0 -197 40 -197 150zM97 222c0 -95 45 -166 146 -166c132 0 208 143 208 266c0 104 -58 161 -145 161c-136 0 -209 -143 -209 -261z" />
    <glyph glyph-name="h" unicode="h" horiz-adv-x="565" 
d="M26 0l150 700h55l-39 -183l-8 -35l-15 -60h2c35 65 95 107 184 107c104 0 160 -58 160 -138c0 -27 -4 -49 -8 -69l-70 -322h-56l69 313c5 23 9 46 9 69c0 72 -49 101 -116 101c-104 0 -177 -84 -204 -211l-58 -272h-55z" />
    <glyph glyph-name="i" unicode="i" horiz-adv-x="216" 
d="M156 604l20 96h55l-20 -96h-55zM26 0l110 515h56l-111 -515h-55z" />
    <glyph glyph-name="j" unicode="j" horiz-adv-x="216" 
d="M156 604l20 96h55l-20 -96h-55zM14 -60l122 575h56l-124 -580c-12 -61 -37 -113 -123 -113c-15 0 -30 2 -45 5l10 46c11 -3 23 -4 35 -4c44 0 60 30 69 71z" />
    <glyph glyph-name="k" unicode="k" horiz-adv-x="497" 
d="M177 700h55l-96 -443h2l317 258h76l-251 -201l166 -314h-63l-147 282l-114 -94l-40 -188h-55z" />
    <glyph glyph-name="l" unicode="l" horiz-adv-x="216" 
d="M176 700h55l-150 -700h-55z" />
    <glyph glyph-name="m" unicode="m" horiz-adv-x="865" 
d="M353 0l69 313c5 24 9 48 9 69c0 59 -24 101 -99 101c-99 0 -166 -84 -193 -211l-58 -272h-55l111 515h53l-10 -46l-11 -47h2c31 65 91 107 170 107c83 0 130 -41 142 -106h3c33 57 96 106 184 106c95 0 144 -56 144 -143c0 -19 -4 -48 -9 -73l-68 -313h-56l69 313
c5 24 9 48 9 69c0 59 -24 101 -99 101c-99 0 -166 -84 -193 -211l-58 -272h-56z" />
    <glyph glyph-name="n" unicode="n" horiz-adv-x="565" 
d="M26 0l111 515h53l-10 -47c-1 -9 -5 -22 -12 -47h2c35 64 96 108 185 108c104 0 160 -58 160 -138c0 -27 -4 -49 -8 -69l-70 -322h-56l69 313c5 23 9 46 9 69c0 72 -49 101 -116 101c-104 0 -177 -84 -204 -211l-58 -272h-55z" />
    <glyph glyph-name="o" unicode="o" horiz-adv-x="565" 
d="M315 529c127 0 213 -74 213 -210c0 -159 -94 -334 -282 -334c-135 0 -207 85 -207 216c0 165 96 328 276 328zM252 32c145 0 220 157 220 285c0 97 -50 166 -157 166c-149 0 -221 -147 -221 -277c0 -101 50 -174 158 -174z" />
    <glyph glyph-name="p" unicode="p" horiz-adv-x="589" 
d="M137 515h54l-3 -14c-5 -29 -10 -44 -18 -80h2c36 63 102 108 185 108c133 0 195 -92 195 -214c0 -154 -96 -330 -272 -330c-85 0 -155 51 -172 136h-2c-9 -45 -14 -74 -21 -102l-41 -191h-54zM276 32c146 0 221 160 221 285c0 99 -48 166 -151 166
c-141 0 -217 -166 -217 -283c0 -86 50 -168 147 -168z" />
    <glyph glyph-name="q" unicode="q" horiz-adv-x="589" 
d="M511 515h54l-147 -687h-55l40 184c8 39 14 58 19 83h-3c-36 -61 -102 -110 -185 -110c-131 0 -195 92 -195 216c0 154 95 328 271 328c87 0 157 -49 174 -133h2c7 33 12 61 21 102zM313 483c-144 0 -219 -158 -219 -282c0 -101 48 -169 151 -169c141 0 217 168 217 284
c0 85 -49 167 -149 167z" />
    <glyph glyph-name="r" unicode="r" horiz-adv-x="340" 
d="M26 0l110 515h53l-10 -47c-3 -15 -5 -25 -14 -61h2c31 72 104 117 187 117c9 0 21 1 32 -2l-11 -52c-9 1 -18 2 -30 2c-105 0 -181 -81 -206 -198l-58 -274h-55z" />
    <glyph glyph-name="s" unicode="s" horiz-adv-x="485" 
d="M16 162h56c0 -96 69 -130 151 -130c85 0 143 32 143 100c0 52 -31 74 -104 101l-55 21c-71 28 -130 48 -130 138c0 81 68 137 183 137c121 0 198 -49 198 -160h-55c0 80 -58 114 -143 114c-79 0 -127 -25 -127 -88c0 -56 44 -71 106 -97l61 -24c66 -26 125 -55 125 -133
c0 -108 -94 -156 -202 -156s-207 45 -207 177z" />
    <glyph glyph-name="t" unicode="t" horiz-adv-x="280" 
d="M243 674l-35 -159h105l-10 -47h-105l-76 -357c-2 -10 -3 -19 -3 -27c0 -29 15 -41 55 -41c16 0 24 1 39 2l-10 -47c-15 -1 -23 -2 -39 -2c-67 0 -103 18 -103 74c0 12 2 25 5 40l77 358h-91l10 47h91l35 159h55z" />
    <glyph glyph-name="u" unicode="u" horiz-adv-x="560" 
d="M536 515l-111 -515h-53l10 47c3 11 6 21 11 46h-2c-35 -65 -95 -107 -182 -107c-104 0 -158 58 -158 138c0 27 4 49 8 69l70 322h56l-69 -313c-5 -23 -9 -46 -9 -69c0 -72 49 -101 114 -101c104 0 175 86 202 211l58 272h55z" />
    <glyph glyph-name="v" unicode="v" horiz-adv-x="468" 
d="M150 0l-87 515h59l36 -240c11 -68 24 -155 32 -222h2c36 68 86 152 127 225l136 237h60l-304 -515h-61z" />
    <glyph glyph-name="w" unicode="w" horiz-adv-x="740" 
d="M121 0l-56 515h58l22 -260c5 -61 13 -145 16 -201h2l99 202l129 259h68l19 -260c4 -57 9 -132 12 -201h2c35 71 70 140 102 201l134 260h58l-275 -515h-62l-20 258c-5 81 -11 138 -14 202h-2c-27 -58 -59 -125 -98 -202l-132 -258h-62z" />
    <glyph glyph-name="x" unicode="x" horiz-adv-x="459" 
d="M-47 0l248 270l-124 245h61l100 -210l187 210h68l-231 -251l140 -264h-61l-115 230l-207 -230h-66z" />
    <glyph glyph-name="y" unicode="y" horiz-adv-x="464" 
d="M155 1l-95 514h58l43 -253c8 -49 23 -126 32 -197h2c36 69 74 134 107 193l146 257h61l-346 -589c-45 -77 -76 -103 -160 -103c-11 0 -23 1 -34 3l9 46c10 -2 22 -3 35 -3c59 0 77 21 116 88z" />
    <glyph glyph-name="z" unicode="z" horiz-adv-x="468" 
d="M477 475l-427 -428h360l-10 -47h-426l10 47l420 421h-319l10 47h390z" />
    <glyph glyph-name="Agrave" unicode="&#xc0;" horiz-adv-x="632" 
d="M-50 0l427 700h70l124 -700h-60l-37 220h-326l-131 -220h-67zM403 647h-2c-28 -49 -77 -131 -112 -190l-112 -187h288l-32 187c-12 71 -22 142 -30 190zM407 746l-106 129h68l77 -129h-39z" />
    <glyph glyph-name="Aacute" unicode="&#xc1;" horiz-adv-x="632" 
d="M-50 0l427 700h70l124 -700h-60l-37 220h-326l-131 -220h-67zM403 647h-2c-28 -49 -77 -131 -112 -190l-112 -187h288l-32 187c-12 71 -22 142 -30 190zM425 746h-42l95 129h69z" />
    <glyph glyph-name="Acircumflex" unicode="&#xc2;" horiz-adv-x="632" 
d="M-50 0l427 700h70l124 -700h-60l-37 220h-326l-131 -220h-67zM403 647h-2c-28 -49 -77 -131 -112 -190l-112 -187h288l-32 187c-12 71 -22 142 -30 190zM433 844l-112 -98h-51l136 129h60l83 -129h-43z" />
    <glyph glyph-name="Atilde" unicode="&#xc3;" horiz-adv-x="632" 
d="M-50 0l427 700h70l124 -700h-60l-37 220h-326l-131 -220h-67zM403 647h-2c-28 -49 -77 -131 -112 -190l-112 -187h288l-32 187c-12 71 -22 142 -30 190zM303 760h-33c7 47 34 91 89 91c28 0 52 -11 73 -22l10 -5c20 -9 36 -17 53 -17c33 0 47 23 55 48h33
c-7 -45 -34 -91 -89 -91c-28 0 -50 11 -73 22l-10 5c-20 11 -36 17 -53 17c-33 0 -47 -21 -55 -48z" />
    <glyph glyph-name="Adieresis" unicode="&#xc4;" horiz-adv-x="632" 
d="M-50 0l427 700h70l124 -700h-60l-37 220h-326l-131 -220h-67zM403 647h-2c-28 -49 -77 -131 -112 -190l-112 -187h288l-32 187c-12 71 -22 142 -30 190zM533 773h-51l21 96h51zM360 773h-52l21 96h52z" />
    <glyph glyph-name="Amacron" unicode="&#x100;" horiz-adv-x="632" 
d="M-50 0l427 700h70l124 -700h-60l-37 220h-326l-131 -220h-67zM403 647h-2c-28 -49 -77 -131 -112 -190l-112 -187h288l-32 187c-12 71 -22 142 -30 190zM569 775h-294l9 40h294z" />
    <glyph glyph-name="Abreve" unicode="&#x102;" horiz-adv-x="632" 
d="M-50 0l427 700h70l124 -700h-60l-37 220h-326l-131 -220h-67zM403 647h-2c-28 -49 -77 -131 -112 -190l-112 -187h288l-32 187c-12 71 -22 142 -30 190zM423 745c-75 0 -133 49 -141 110l40 12c11 -57 55 -81 106 -81c55 0 97 31 124 79l38 -11
c-31 -72 -90 -109 -167 -109z" />
    <glyph glyph-name="Aring" unicode="&#xc5;" horiz-adv-x="632" 
d="M-50 0l427 700h70l124 -700h-60l-37 220h-326l-131 -220h-67zM403 647h-2c-28 -49 -77 -131 -112 -190l-112 -187h288l-32 187c-12 71 -22 142 -30 190zM428 730c-45 0 -83 38 -83 83c0 47 38 84 83 84c47 0 84 -37 84 -84c0 -45 -37 -83 -84 -83zM374 813
c0 -29 25 -54 54 -54c31 0 55 25 55 54c0 31 -24 55 -55 55c-29 0 -54 -24 -54 -55z" />
    <glyph glyph-name="Aringacute" unicode="&#x1fa;" horiz-adv-x="632" 
d="M-50 0l427 700h70l124 -700h-60l-37 220h-326l-131 -220h-67zM403 647h-2c-28 -49 -77 -131 -112 -190l-112 -187h288l-32 187c-12 71 -22 142 -30 190zM343 811c0 47 38 84 83 84c47 0 84 -37 84 -84c0 -45 -37 -83 -84 -83c-45 0 -83 38 -83 83zM372 811
c0 -29 25 -54 54 -54c31 0 55 25 55 54c0 31 -24 55 -55 55c-29 0 -54 -24 -54 -55zM463 922h-42l95 129h69z" />
    <glyph glyph-name="Aogonek" unicode="&#x104;" horiz-adv-x="632" 
d="M-50 0l427 700h70l124 -700h-60l-37 220h-326l-131 -220h-67zM403 647h-2c-28 -49 -77 -131 -112 -190l-112 -187h288l-32 187c-12 71 -22 142 -30 190zM537 0h34c-65 -52 -85 -82 -85 -111c0 -27 18 -43 41 -43s38 12 54 36l26 -12c-19 -33 -43 -60 -94 -60
c-48 0 -77 31 -77 70c0 47 49 88 101 120z" />
    <glyph glyph-name="AE" unicode="&#xc6;" horiz-adv-x="907" 
d="M377 0l47 223h-262l-161 -223h-68l515 700h503l-11 -51h-367l-56 -262h340l-10 -51h-340l-61 -285h372l-11 -51h-430zM469 649l-270 -375h236l80 375h-46z" />
    <glyph glyph-name="AEacute" unicode="&#x1fc;" horiz-adv-x="907" 
d="M377 0l47 223h-262l-161 -223h-68l515 700h503l-11 -51h-367l-56 -262h340l-10 -51h-340l-61 -285h372l-11 -51h-430zM469 649l-270 -375h236l80 375h-46zM675 746h-42l95 129h69z" />
    <glyph glyph-name="Cacute" unicode="&#x106;" horiz-adv-x="699" 
d="M698 480h-57c-13 121 -98 184 -218 184c-204 0 -300 -197 -300 -379c0 -156 82 -249 226 -249c139 0 225 83 260 204h59c-38 -145 -148 -255 -319 -255c-168 0 -286 106 -286 300c0 208 124 430 360 430c153 0 269 -85 275 -235zM449 746h-42l95 129h69z" />
    <glyph glyph-name="Ccircumflex" unicode="&#x108;" horiz-adv-x="699" 
d="M698 480h-57c-13 121 -98 184 -218 184c-204 0 -300 -197 -300 -379c0 -156 82 -249 226 -249c139 0 225 83 260 204h59c-38 -145 -148 -255 -319 -255c-168 0 -286 106 -286 300c0 208 124 430 360 430c153 0 269 -85 275 -235zM457 844l-112 -98h-51l136 129h60
l83 -129h-43z" />
    <glyph glyph-name="Ccaron" unicode="&#x10c;" horiz-adv-x="699" 
d="M698 480h-57c-13 121 -98 184 -218 184c-204 0 -300 -197 -300 -379c0 -156 82 -249 226 -249c139 0 225 83 260 204h59c-38 -145 -148 -255 -319 -255c-168 0 -286 106 -286 300c0 208 124 430 360 430c153 0 269 -85 275 -235zM371 875l73 -98l112 98h51l-136 -129h-60
l-83 129h43z" />
    <glyph glyph-name="Cdotaccent" unicode="&#x10a;" horiz-adv-x="699" 
d="M698 480h-57c-13 121 -98 184 -218 184c-204 0 -300 -197 -300 -379c0 -156 82 -249 226 -249c139 0 225 83 260 204h59c-38 -145 -148 -255 -319 -255c-168 0 -286 106 -286 300c0 208 124 430 360 430c153 0 269 -85 275 -235zM473 771h-49l21 96h49z" />
    <glyph glyph-name="Ccedilla" unicode="&#xc7;" horiz-adv-x="700" 
d="M699 480h-57c-13 121 -98 184 -218 184c-204 0 -300 -197 -300 -379c0 -156 82 -249 226 -249c139 0 225 83 260 204h59c-38 -145 -148 -255 -319 -255c-168 0 -286 106 -286 300c0 208 124 430 360 430c153 0 269 -85 275 -235zM302 -51l1 -1c8 1 16 2 24 2
c39 0 79 -16 79 -61c0 -53 -49 -74 -101 -74c-29 0 -62 6 -83 18l13 30c13 -7 40 -15 65 -15c28 0 54 11 54 40c0 27 -24 34 -48 34c-14 0 -26 -2 -37 -7l-16 17l56 68h38z" />
    <glyph glyph-name="Dcaron" unicode="&#x10e;" horiz-adv-x="699" 
d="M35 0l149 700h208c115 0 178 -26 221 -74c44 -49 64 -121 64 -204c0 -121 -38 -233 -113 -312c-64 -67 -152 -110 -287 -110h-242zM232 649l-127 -598h172c104 0 173 30 225 78c80 73 115 185 115 293c0 77 -18 134 -54 171c-35 36 -81 56 -174 56h-157zM347 875l73 -98
l112 98h51l-136 -129h-60l-83 129h43z" />
    <glyph glyph-name="Dcroat" unicode="&#x110;" horiz-adv-x="718" 
d="M22 335l10 47h103l68 318h208c115 0 178 -26 221 -74c44 -49 64 -121 64 -204c0 -121 -38 -233 -113 -312c-64 -67 -152 -110 -287 -110h-242l71 335h-103zM251 649l-57 -267h202l-10 -47h-202l-60 -284h172c104 0 173 30 225 78c80 73 115 185 115 293
c0 77 -18 134 -54 171c-35 36 -81 56 -174 56h-157z" />
    <glyph glyph-name="Eth" unicode="&#xd0;" horiz-adv-x="718" 
d="M22 335l10 47h103l68 318h208c115 0 178 -26 221 -74c44 -49 64 -121 64 -204c0 -121 -38 -233 -113 -312c-64 -67 -152 -110 -287 -110h-242l71 335h-103zM251 649l-57 -267h202l-10 -47h-202l-60 -284h172c104 0 173 30 225 78c80 73 115 185 115 293
c0 77 -18 134 -54 171c-35 36 -81 56 -174 56h-157z" />
    <glyph glyph-name="Egrave" unicode="&#xc8;" horiz-adv-x="615" 
d="M35 0l149 700h475l-11 -51h-416l-56 -262h389l-10 -51h-389l-61 -285h421l-11 -51h-480zM417 746l-106 129h68l77 -129h-39z" />
    <glyph glyph-name="Eacute" unicode="&#xc9;" horiz-adv-x="615" 
d="M35 0l149 700h475l-11 -51h-416l-56 -262h389l-10 -51h-389l-61 -285h421l-11 -51h-480zM404 746h-42l95 129h69z" />
    <glyph glyph-name="Ecircumflex" unicode="&#xca;" horiz-adv-x="615" 
d="M35 0l149 700h475l-11 -51h-416l-56 -262h389l-10 -51h-389l-61 -285h421l-11 -51h-480zM438 844l-112 -98h-51l136 129h60l83 -129h-43z" />
    <glyph glyph-name="Ecaron" unicode="&#x11a;" horiz-adv-x="615" 
d="M35 0l149 700h475l-11 -51h-416l-56 -262h389l-10 -51h-389l-61 -285h421l-11 -51h-480zM338 875l73 -98l112 98h51l-136 -129h-60l-83 129h43z" />
    <glyph glyph-name="Edieresis" unicode="&#xcb;" horiz-adv-x="615" 
d="M35 0l149 700h475l-11 -51h-416l-56 -262h389l-10 -51h-389l-61 -285h421l-11 -51h-480zM534 773h-51l21 96h51zM361 773h-52l21 96h52z" />
    <glyph glyph-name="Emacron" unicode="&#x112;" horiz-adv-x="615" 
d="M35 0l149 700h475l-11 -51h-416l-56 -262h389l-10 -51h-389l-61 -285h421l-11 -51h-480zM574 775h-294l9 40h294z" />
    <glyph glyph-name="Ebreve" unicode="&#x114;" horiz-adv-x="615" 
d="M35 0l149 700h475l-11 -51h-416l-56 -262h389l-10 -51h-389l-61 -285h421l-11 -51h-480zM417 745c-75 0 -133 49 -141 110l40 12c11 -57 55 -81 106 -81c55 0 97 31 124 79l38 -11c-31 -72 -90 -109 -167 -109z" />
    <glyph glyph-name="Edotaccent" unicode="&#x116;" horiz-adv-x="615" 
d="M35 0l149 700h475l-11 -51h-416l-56 -262h389l-10 -51h-389l-61 -285h421l-11 -51h-480zM442 771h-49l21 96h49z" />
    <glyph glyph-name="Eogonek" unicode="&#x118;" horiz-adv-x="615" 
d="M35 0l149 700h475l-11 -51h-416l-56 -262h389l-10 -51h-389l-61 -285h421l-11 -51h-480zM481 0h34c-65 -52 -85 -82 -85 -111c0 -27 18 -43 41 -43s38 12 54 36l26 -12c-19 -33 -43 -60 -94 -60c-48 0 -77 31 -77 70c0 47 49 88 101 120z" />
    <glyph glyph-name="Gcircumflex" unicode="&#x11c;" horiz-adv-x="750" 
d="M63 285c0 207 133 429 373 429c159 0 275 -86 283 -234h-56c-13 121 -103 184 -227 184c-210 0 -313 -197 -313 -379c0 -157 83 -249 224 -249c171 0 271 123 295 266h-246l12 51h297l-73 -353h-50l24 120h-2c-52 -85 -144 -135 -257 -135c-170 0 -284 100 -284 300z
M471 844l-112 -98h-51l136 129h60l83 -129h-43z" />
    <glyph glyph-name="Gbreve" unicode="&#x11e;" horiz-adv-x="750" 
d="M63 285c0 207 133 429 373 429c159 0 275 -86 283 -234h-56c-13 121 -103 184 -227 184c-210 0 -313 -197 -313 -379c0 -157 83 -249 224 -249c171 0 271 123 295 266h-246l12 51h297l-73 -353h-50l24 120h-2c-52 -85 -144 -135 -257 -135c-170 0 -284 100 -284 300z
M464 745c-75 0 -133 49 -141 110l40 12c11 -57 55 -81 106 -81c55 0 97 31 124 79l38 -11c-31 -72 -90 -109 -167 -109z" />
    <glyph glyph-name="uni0122" unicode="&#x122;" horiz-adv-x="750" 
d="M63 285c0 207 133 429 373 429c159 0 275 -86 283 -234h-56c-13 121 -103 184 -227 184c-210 0 -313 -197 -313 -379c0 -157 83 -249 224 -249c171 0 271 123 295 266h-246l12 51h297l-73 -353h-50l24 120h-2c-52 -85 -144 -135 -257 -135c-170 0 -284 100 -284 300z
M291 -50h76l-19 -87c-11 -53 -31 -91 -98 -106l8 40c36 11 47 39 52 64l1 4h-38z" />
    <glyph glyph-name="Gdotaccent" unicode="&#x120;" horiz-adv-x="750" 
d="M63 285c0 207 133 429 373 429c159 0 275 -86 283 -234h-56c-13 121 -103 184 -227 184c-210 0 -313 -197 -313 -379c0 -157 83 -249 224 -249c171 0 271 123 295 266h-246l12 51h297l-73 -353h-50l24 120h-2c-52 -85 -144 -135 -257 -135c-170 0 -284 100 -284 300z
M480 771h-49l21 96h49z" />
    <glyph glyph-name="Hcircumflex" unicode="&#x124;" horiz-adv-x="717" 
d="M35 0l149 700h59l-65 -307h421l65 307h59l-149 -700h-59l73 342h-421l-73 -342h-59zM474 844l-112 -98h-51l136 129h60l83 -129h-43z" />
    <glyph glyph-name="Hbar" unicode="&#x126;" horiz-adv-x="717" 
d="M35 0l149 700h59l-21 -99h421l21 99h59l-149 -700h-59l73 342h-421l-73 -342h-59zM178 393h421l35 167h-421z" />
    <glyph glyph-name="Igrave" unicode="&#xcc;" horiz-adv-x="237" 
d="M35 0l149 700h59l-149 -700h-59zM206 746l-106 129h68l77 -129h-39z" />
    <glyph glyph-name="Iacute" unicode="&#xcd;" horiz-adv-x="237" 
d="M35 0l149 700h59l-149 -700h-59zM238 746h-42l95 129h69z" />
    <glyph glyph-name="Icircumflex" unicode="&#xce;" horiz-adv-x="237" 
d="M35 0l149 700h59l-149 -700h-59zM239 844l-112 -98h-51l136 129h60l83 -129h-43z" />
    <glyph glyph-name="Itilde" unicode="&#x128;" horiz-adv-x="237" 
d="M35 0l149 700h59l-149 -700h-59zM104 760h-33c7 47 34 91 89 91c28 0 52 -11 73 -22l10 -5c20 -9 36 -17 53 -17c33 0 47 23 55 48h33c-7 -45 -34 -91 -89 -91c-28 0 -50 11 -73 22l-10 5c-20 11 -36 17 -53 17c-33 0 -47 -21 -55 -48z" />
    <glyph glyph-name="Idieresis" unicode="&#xcf;" horiz-adv-x="237" 
d="M35 0l149 700h59l-149 -700h-59zM339 773h-51l21 96h51zM166 773h-52l21 96h52z" />
    <glyph glyph-name="Imacron" unicode="&#x12a;" horiz-adv-x="237" 
d="M35 0l149 700h59l-149 -700h-59zM370 775h-294l9 40h294z" />
    <glyph glyph-name="Ibreve" unicode="&#x12c;" horiz-adv-x="237" 
d="M35 0l149 700h59l-149 -700h-59zM223 745c-75 0 -133 49 -141 110l40 12c11 -57 55 -81 106 -81c55 0 97 31 124 79l38 -11c-31 -72 -90 -109 -167 -109z" />
    <glyph glyph-name="Idot" unicode="&#x130;" horiz-adv-x="237" 
d="M35 0l149 700h59l-149 -700h-59zM251 771h-49l21 96h49z" />
    <glyph glyph-name="Iogonek" unicode="&#x12e;" horiz-adv-x="237" 
d="M35 0l149 700h59l-149 -700h-59zM60 0h34c-65 -52 -85 -82 -85 -111c0 -27 18 -43 41 -43s38 12 54 36l26 -12c-19 -33 -43 -60 -94 -60c-48 0 -77 31 -77 70c0 47 49 88 101 120z" />
    <glyph glyph-name="IJ" unicode="&#x132;" horiz-adv-x="700" 
d="M35 0l149 700h59l-149 -700h-59zM214 220h58c-5 -24 -10 -47 -10 -70c0 -65 33 -115 121 -115c52 0 87 14 112 41c25 28 39 70 50 123l107 501h59l-109 -513c-13 -67 -32 -112 -64 -147c-33 -36 -83 -55 -155 -55c-120 0 -179 61 -179 162c0 23 5 48 10 73z" />
    <glyph glyph-name="Jcircumflex" unicode="&#x134;" horiz-adv-x="499" 
d="M13 220h58c-5 -24 -10 -47 -10 -70c0 -65 33 -115 121 -115c52 0 87 14 112 41c25 28 39 70 50 123l107 501h59l-109 -513c-13 -67 -32 -112 -64 -147c-33 -36 -83 -55 -155 -55c-120 0 -179 61 -179 162c0 23 5 48 10 73zM507 844l-112 -98h-51l136 129h60l83 -129h-43z
" />
    <glyph glyph-name="uni0136" unicode="&#x136;" horiz-adv-x="643" 
d="M35 0l149 700h59l-38 -175c-12 -53 -27 -133 -44 -208h2l468 383h83l-364 -293l255 -407h-67l-232 370l-159 -126l-53 -244h-59zM250 -50h76l-19 -87c-11 -53 -31 -91 -98 -106l8 40c36 11 47 39 52 64l1 4h-38z" />
    <glyph glyph-name="Lacute" unicode="&#x139;" horiz-adv-x="546" 
d="M35 0l149 700h59l-138 -649h387l-11 -51h-446zM241 746h-42l95 129h69z" />
    <glyph glyph-name="Lcaron" unicode="&#x13d;" horiz-adv-x="547" 
d="M35 0l149 700h59l-138 -649h387l-11 -51h-446zM383 700h60l-88 -154h-31z" />
    <glyph glyph-name="Lslash" unicode="&#x141;" horiz-adv-x="561" 
d="M48 0l57 270l-97 -53l12 55l97 53l80 375h59l-72 -339l255 137l-12 -55l-255 -137l-54 -255h395l-11 -51h-454z" />
    <glyph glyph-name="Ldot" unicode="&#x13f;" horiz-adv-x="547" 
d="M35 0l149 700h59l-138 -649h387l-11 -51h-446zM411 326h-49l21 96h49z" />
    <glyph glyph-name="Ldot.latn_CAT" horiz-adv-x="547" 
d="M35 0l149 700h59l-138 -649h387l-11 -51h-446zM411 326h-49l21 96h49z" />
    <glyph glyph-name="uni013B" unicode="&#x13b;" horiz-adv-x="546" 
d="M35 0l149 700h59l-138 -649h387l-11 -51h-446zM218 -50h76l-19 -87c-11 -53 -31 -91 -98 -106l8 40c36 11 47 39 52 64l1 4h-38z" />
    <glyph glyph-name="Nacute" unicode="&#x143;" horiz-adv-x="719" 
d="M35 0l149 700h64l201 -421c25 -52 56 -126 87 -189h2c20 95 40 196 61 293l67 317h59l-149 -700h-63l-183 384c-44 97 -68 152 -105 229h-2c-17 -84 -36 -178 -55 -265l-74 -348h-59zM446 746h-42l95 129h69z" />
    <glyph glyph-name="uni0145" unicode="&#x145;" horiz-adv-x="719" 
d="M35 0l149 700h64l201 -421c25 -52 56 -126 87 -189h2c20 95 40 196 61 293l67 317h59l-149 -700h-63l-183 384c-44 97 -68 152 -105 229h-2c-17 -84 -36 -178 -55 -265l-74 -348h-59zM260 -50h76l-19 -87c-11 -53 -31 -91 -98 -106l8 40c36 11 47 39 52 64l1 4h-38z" />
    <glyph glyph-name="Ncaron" unicode="&#x147;" horiz-adv-x="719" 
d="M35 0l149 700h64l201 -421c25 -52 56 -126 87 -189h2c20 95 40 196 61 293l67 317h59l-149 -700h-63l-183 384c-44 97 -68 152 -105 229h-2c-17 -84 -36 -178 -55 -265l-74 -348h-59zM376 875l73 -98l112 98h51l-136 -129h-60l-83 129h43z" />
    <glyph glyph-name="Ntilde" unicode="&#xd1;" horiz-adv-x="719" 
d="M35 0l149 700h64l201 -421c25 -52 56 -126 87 -189h2c20 95 40 196 61 293l67 317h59l-149 -700h-63l-183 384c-44 97 -68 152 -105 229h-2c-17 -84 -36 -178 -55 -265l-74 -348h-59zM341 760h-33c7 47 34 91 89 91c28 0 52 -11 73 -22l10 -5c20 -9 36 -17 53 -17
c33 0 47 23 55 48h33c-7 -45 -34 -91 -89 -91c-28 0 -50 11 -73 22l-10 5c-20 11 -36 17 -53 17c-33 0 -47 -21 -55 -48z" />
    <glyph glyph-name="Eng" unicode="&#x14a;" horiz-adv-x="719" 
d="M522 0h-9l-183 384c-44 97 -68 152 -105 229h-2c-17 -84 -36 -178 -55 -265l-74 -348h-59l149 700h64l201 -421c25 -52 57 -127 88 -190h2c20 95 39 197 60 294l67 317h59l-165 -776c-14 -66 -43 -103 -143 -103c-21 0 -45 3 -65 7l10 46c20 -5 36 -6 56 -6
c57 0 80 16 89 61z" />
    <glyph glyph-name="Ograve" unicode="&#xd2;" horiz-adv-x="743" 
d="M352 -15c-183 0 -289 121 -289 297c0 224 137 432 369 432c175 0 288 -111 288 -296c0 -218 -133 -433 -368 -433zM660 409c0 145 -77 255 -228 255c-204 0 -309 -189 -309 -382c0 -152 85 -246 229 -246c192 0 308 195 308 373zM441 746l-106 129h68l77 -129h-39z" />
    <glyph glyph-name="Oacute" unicode="&#xd3;" horiz-adv-x="743" 
d="M352 -15c-183 0 -289 121 -289 297c0 224 137 432 369 432c175 0 288 -111 288 -296c0 -218 -133 -433 -368 -433zM660 409c0 145 -77 255 -228 255c-204 0 -309 -189 -309 -382c0 -152 85 -246 229 -246c192 0 308 195 308 373zM457 746h-42l95 129h69z" />
    <glyph glyph-name="Ocircumflex" unicode="&#xd4;" horiz-adv-x="743" 
d="M352 -15c-183 0 -289 121 -289 297c0 224 137 432 369 432c175 0 288 -111 288 -296c0 -218 -133 -433 -368 -433zM660 409c0 145 -77 255 -228 255c-204 0 -309 -189 -309 -382c0 -152 85 -246 229 -246c192 0 308 195 308 373zM472 844l-112 -98h-51l136 129h60
l83 -129h-43z" />
    <glyph glyph-name="Otilde" unicode="&#xd5;" horiz-adv-x="743" 
d="M352 -15c-183 0 -289 121 -289 297c0 224 137 432 369 432c175 0 288 -111 288 -296c0 -218 -133 -433 -368 -433zM660 409c0 145 -77 255 -228 255c-204 0 -309 -189 -309 -382c0 -152 85 -246 229 -246c192 0 308 195 308 373zM325 760h-33c7 47 34 91 89 91
c28 0 52 -11 73 -22l10 -5c20 -9 36 -17 53 -17c33 0 47 23 55 48h33c-7 -45 -34 -91 -89 -91c-28 0 -50 11 -73 22l-10 5c-20 11 -36 17 -53 17c-33 0 -47 -21 -55 -48z" />
    <glyph glyph-name="Odieresis" unicode="&#xd6;" horiz-adv-x="743" 
d="M352 -15c-183 0 -289 121 -289 297c0 224 137 432 369 432c175 0 288 -111 288 -296c0 -218 -133 -433 -368 -433zM660 409c0 145 -77 255 -228 255c-204 0 -309 -189 -309 -382c0 -152 85 -246 229 -246c192 0 308 195 308 373zM571 773h-51l21 96h51zM398 773h-52
l21 96h52z" />
    <glyph glyph-name="Omacron" unicode="&#x14c;" horiz-adv-x="743" 
d="M352 -15c-183 0 -289 121 -289 297c0 224 137 432 369 432c175 0 288 -111 288 -296c0 -218 -133 -433 -368 -433zM660 409c0 145 -77 255 -228 255c-204 0 -309 -189 -309 -382c0 -152 85 -246 229 -246c192 0 308 195 308 373zM602 775h-294l9 40h294z" />
    <glyph glyph-name="Obreve" unicode="&#x14e;" horiz-adv-x="743" 
d="M352 -15c-183 0 -289 121 -289 297c0 224 137 432 369 432c175 0 288 -111 288 -296c0 -218 -133 -433 -368 -433zM660 409c0 145 -77 255 -228 255c-204 0 -309 -189 -309 -382c0 -152 85 -246 229 -246c192 0 308 195 308 373zM462 745c-75 0 -133 49 -141 110l40 12
c11 -57 55 -81 106 -81c55 0 97 31 124 79l38 -11c-31 -72 -90 -109 -167 -109z" />
    <glyph glyph-name="Ohungarumlaut" unicode="&#x150;" horiz-adv-x="743" 
d="M352 -15c-183 0 -289 121 -289 297c0 224 137 432 369 432c175 0 288 -111 288 -296c0 -218 -133 -433 -368 -433zM660 409c0 145 -77 255 -228 255c-204 0 -309 -189 -309 -382c0 -152 85 -246 229 -246c192 0 308 195 308 373zM530 746h-42l114 129h69zM392 746h-42
l95 129h69z" />
    <glyph glyph-name="Oslash" unicode="&#xd8;" horiz-adv-x="743" 
d="M352 -15c-87 0 -157 27 -206 74l-78 -82l-31 30l81 85c-37 51 -55 114 -55 190c0 224 137 432 369 432c85 0 154 -25 206 -76l82 86l31 -30l-85 -89c36 -49 54 -112 54 -187c0 -218 -133 -433 -368 -433zM123 282c0 -59 12 -108 36 -147l439 461c-37 43 -94 68 -166 68
c-204 0 -309 -189 -309 -382zM660 409c0 57 -12 110 -36 151l-439 -460c39 -41 96 -64 167 -64c192 0 308 195 308 373z" />
    <glyph glyph-name="Oslashacute" unicode="&#x1fe;" horiz-adv-x="743" 
d="M352 -15c-87 0 -157 27 -206 74l-78 -82l-31 30l81 85c-37 51 -55 114 -55 190c0 224 137 432 369 432c85 0 154 -25 206 -76l82 86l31 -30l-85 -89c36 -49 54 -112 54 -187c0 -218 -133 -433 -368 -433zM123 282c0 -59 12 -108 36 -147l439 461c-37 43 -94 68 -166 68
c-204 0 -309 -189 -309 -382zM660 409c0 57 -12 110 -36 151l-439 -460c39 -41 96 -64 167 -64c192 0 308 195 308 373zM448 746h-42l95 129h69z" />
    <glyph glyph-name="OE" unicode="&#x152;" horiz-adv-x="1049" 
d="M1093 700l-11 -51h-374l-56 -262h347l-10 -51h-347l-61 -285h379l-11 -51h-436l14 65h-1c-41 -53 -114 -80 -186 -80c-182 0 -276 127 -276 304c0 213 134 425 365 425c88 0 171 -33 216 -101l18 87h430zM550 185l74 349c-14 85 -103 130 -195 130
c-200 0 -305 -189 -305 -377c0 -143 67 -252 216 -252c112 0 181 62 210 150z" />
    <glyph glyph-name="Thorn" unicode="&#xde;" horiz-adv-x="626" 
d="M184 700h60l-24 -105h205c55 0 103 -11 139 -38c39 -28 62 -70 62 -137c0 -69 -24 -123 -64 -160c-45 -41 -106 -62 -184 -62h-241l-43 -198h-59zM211 544l-63 -295h231c59 0 102 15 134 42c35 29 55 72 55 129c0 51 -19 82 -51 101c-29 17 -67 23 -111 23h-195z" />
    <glyph glyph-name="Racute" unicode="&#x154;" horiz-adv-x="670" 
d="M35 0l149 700h281c58 0 103 -11 134 -32c41 -28 65 -76 65 -139c0 -55 -17 -100 -50 -134c-33 -33 -76 -53 -127 -58v-2c61 -12 86 -57 86 -114c0 -46 -17 -121 -17 -173c0 -17 2 -32 10 -45l-1 -3h-61c-4 8 -6 20 -6 37c0 50 16 145 16 181c0 56 -37 96 -122 96h-230
l-68 -314h-59zM232 649l-61 -285h247c104 0 187 49 187 165c0 43 -15 79 -46 99c-24 16 -61 21 -100 21h-227zM433 746h-42l95 129h69z" />
    <glyph glyph-name="Rcaron" unicode="&#x158;" horiz-adv-x="670" 
d="M35 0l149 700h281c58 0 103 -11 134 -32c41 -28 65 -76 65 -139c0 -55 -17 -100 -50 -134c-33 -33 -76 -53 -127 -58v-2c61 -12 86 -57 86 -114c0 -46 -17 -121 -17 -173c0 -17 2 -32 10 -45l-1 -3h-61c-4 8 -6 20 -6 37c0 50 16 145 16 181c0 56 -37 96 -122 96h-230
l-68 -314h-59zM232 649l-61 -285h247c104 0 187 49 187 165c0 43 -15 79 -46 99c-24 16 -61 21 -100 21h-227zM338 875l73 -98l112 98h51l-136 -129h-60l-83 129h43z" />
    <glyph glyph-name="uni0156" unicode="&#x156;" horiz-adv-x="670" 
d="M35 0l149 700h281c58 0 103 -11 134 -32c41 -28 65 -76 65 -139c0 -55 -17 -100 -50 -134c-33 -33 -76 -53 -127 -58v-2c61 -12 86 -57 86 -114c0 -46 -17 -121 -17 -173c0 -17 2 -32 10 -45l-1 -3h-61c-4 8 -6 20 -6 37c0 50 16 145 16 181c0 56 -37 96 -122 96h-230
l-68 -314h-59zM232 649l-61 -285h247c104 0 187 49 187 165c0 43 -15 79 -46 99c-24 16 -61 21 -100 21h-227zM247 -50h76l-19 -87c-11 -53 -31 -91 -98 -106l8 40c36 11 47 39 52 64l1 4h-38z" />
    <glyph glyph-name="Sacute" unicode="&#x15a;" horiz-adv-x="612" 
d="M607 501h-58v6c0 112 -74 156 -185 156c-125 0 -188 -52 -188 -140c0 -77 54 -103 141 -131l65 -21c90 -28 175 -57 175 -176c0 -89 -65 -210 -270 -210c-152 0 -259 71 -259 234v7h60c-1 -4 -1 -9 -1 -14c0 -109 67 -176 200 -176c107 0 211 43 211 156
c0 87 -67 109 -147 133l-63 19c-89 26 -172 61 -172 176c0 132 111 194 249 194c133 0 243 -57 243 -197c0 -5 0 -9 -1 -16zM382 746h-42l95 129h69z" />
    <glyph glyph-name="Scircumflex" unicode="&#x15c;" horiz-adv-x="612" 
d="M607 501h-58v6c0 112 -74 156 -185 156c-125 0 -188 -52 -188 -140c0 -77 54 -103 141 -131l65 -21c90 -28 175 -57 175 -176c0 -89 -65 -210 -270 -210c-152 0 -259 71 -259 234v7h60c-1 -4 -1 -9 -1 -14c0 -109 67 -176 200 -176c107 0 211 43 211 156
c0 87 -67 109 -147 133l-63 19c-89 26 -172 61 -172 176c0 132 111 194 249 194c133 0 243 -57 243 -197c0 -5 0 -9 -1 -16zM405 844l-112 -98h-51l136 129h60l83 -129h-43z" />
    <glyph glyph-name="Scaron" unicode="&#x160;" horiz-adv-x="612" 
d="M607 501h-58v6c0 112 -74 156 -185 156c-125 0 -188 -52 -188 -140c0 -77 54 -103 141 -131l65 -21c90 -28 175 -57 175 -176c0 -89 -65 -210 -270 -210c-152 0 -259 71 -259 234v7h60c-1 -4 -1 -9 -1 -14c0 -109 67 -176 200 -176c107 0 211 43 211 156
c0 87 -67 109 -147 133l-63 19c-89 26 -172 61 -172 176c0 132 111 194 249 194c133 0 243 -57 243 -197c0 -5 0 -9 -1 -16zM321 875l73 -98l112 98h51l-136 -129h-60l-83 129h43z" />
    <glyph glyph-name="Scedilla" unicode="&#x15e;" horiz-adv-x="612" 
d="M607 501h-58v6c0 112 -74 156 -185 156c-125 0 -188 -52 -188 -140c0 -77 54 -103 141 -131l65 -21c90 -28 175 -57 175 -176c0 -89 -65 -210 -270 -210c-152 0 -259 71 -259 234v7h60c-1 -4 -1 -9 -1 -14c0 -109 67 -176 200 -176c107 0 211 43 211 156
c0 87 -67 109 -147 133l-63 19c-89 26 -172 61 -172 176c0 132 111 194 249 194c133 0 243 -57 243 -197c0 -5 0 -9 -1 -16zM236 -51l1 -1c8 1 16 2 24 2c39 0 79 -16 79 -61c0 -53 -49 -74 -101 -74c-29 0 -62 6 -83 18l13 30c13 -7 40 -15 65 -15c28 0 54 11 54 40
c0 27 -24 34 -48 34c-14 0 -26 -2 -37 -7l-16 17l56 68h38z" />
    <glyph glyph-name="uni0218" unicode="&#x218;" horiz-adv-x="612" 
d="M607 501h-58v6c0 112 -74 156 -185 156c-125 0 -188 -52 -188 -140c0 -77 54 -103 141 -131l65 -21c90 -28 175 -57 175 -176c0 -89 -65 -210 -270 -210c-152 0 -259 71 -259 234v7h60c-1 -4 -1 -9 -1 -14c0 -109 67 -176 200 -176c107 0 211 43 211 156
c0 87 -67 109 -147 133l-63 19c-89 26 -172 61 -172 176c0 132 111 194 249 194c133 0 243 -57 243 -197c0 -5 0 -9 -1 -16zM226 -50h76l-19 -87c-11 -53 -31 -91 -98 -106l8 40c36 11 47 39 52 64l1 4h-38z" />
    <glyph glyph-name="Tcaron" unicode="&#x164;" horiz-adv-x="575" 
d="M95 649l11 51h552l-11 -51h-247l-138 -649h-59l138 649h-246zM318 875l73 -98l112 98h51l-136 -129h-60l-83 129h43z" />
    <glyph glyph-name="Tcommaaccent" unicode="&#x162;" horiz-adv-x="575" 
d="M95 649l11 51h552l-11 -51h-247l-138 -649h-59l138 649h-246zM217 -51l1 -1c8 1 16 2 24 2c39 0 79 -16 79 -61c0 -53 -49 -74 -101 -74c-29 0 -62 6 -83 18l13 30c13 -7 40 -15 65 -15c28 0 54 11 54 40c0 27 -24 34 -48 34c-14 0 -26 -2 -37 -7l-16 17l56 68h38z" />
    <glyph glyph-name="Tbar" unicode="&#x166;" horiz-adv-x="592" 
d="M502 342h-159l-73 -342h-59l73 342h-158l9 41h158l56 266h-246l11 51h552l-11 -51h-247l-56 -266h159z" />
    <glyph glyph-name="uni021A" unicode="&#x21a;" horiz-adv-x="575" 
d="M95 649l11 51h552l-11 -51h-247l-138 -649h-59l138 649h-246zM187 -50h76l-19 -87c-11 -53 -31 -91 -98 -106l8 40c36 11 47 39 52 64l1 4h-38z" />
    <glyph glyph-name="Ugrave" unicode="&#xd9;" horiz-adv-x="700" 
d="M84 264l92 436h59l-93 -437c-6 -30 -9 -55 -9 -76c0 -41 11 -80 38 -107c31 -29 89 -44 150 -44c67 0 119 14 155 43c41 33 63 80 78 151l100 470h59l-102 -479c-18 -83 -50 -144 -97 -181c-48 -37 -113 -55 -193 -55c-79 0 -151 17 -196 61c-34 33 -51 79 -51 138
c0 21 3 47 10 80zM446 746l-106 129h68l77 -129h-39z" />
    <glyph glyph-name="Uacute" unicode="&#xda;" horiz-adv-x="700" 
d="M84 264l92 436h59l-93 -437c-6 -30 -9 -55 -9 -76c0 -41 11 -80 38 -107c31 -29 89 -44 150 -44c67 0 119 14 155 43c41 33 63 80 78 151l100 470h59l-102 -479c-18 -83 -50 -144 -97 -181c-48 -37 -113 -55 -193 -55c-79 0 -151 17 -196 61c-34 33 -51 79 -51 138
c0 21 3 47 10 80zM427 746h-42l95 129h69z" />
    <glyph glyph-name="Ucircumflex" unicode="&#xdb;" horiz-adv-x="700" 
d="M84 264l92 436h59l-93 -437c-6 -30 -9 -55 -9 -76c0 -41 11 -80 38 -107c31 -29 89 -44 150 -44c67 0 119 14 155 43c41 33 63 80 78 151l100 470h59l-102 -479c-18 -83 -50 -144 -97 -181c-48 -37 -113 -55 -193 -55c-79 0 -151 17 -196 61c-34 33 -51 79 -51 138
c0 21 3 47 10 80zM472 844l-112 -98h-51l136 129h60l83 -129h-43z" />
    <glyph glyph-name="Utilde" unicode="&#x168;" horiz-adv-x="700" 
d="M84 264l92 436h59l-93 -437c-6 -30 -9 -55 -9 -76c0 -41 11 -80 38 -107c31 -29 89 -44 150 -44c67 0 119 14 155 43c41 33 63 80 78 151l100 470h59l-102 -479c-18 -83 -50 -144 -97 -181c-48 -37 -113 -55 -193 -55c-79 0 -151 17 -196 61c-34 33 -51 79 -51 138
c0 21 3 47 10 80zM331 760h-33c7 47 34 91 89 91c28 0 52 -11 73 -22l10 -5c20 -9 36 -17 53 -17c33 0 47 23 55 48h33c-7 -45 -34 -91 -89 -91c-28 0 -50 11 -73 22l-10 5c-20 11 -36 17 -53 17c-33 0 -47 -21 -55 -48z" />
    <glyph glyph-name="Udieresis" unicode="&#xdc;" horiz-adv-x="700" 
d="M84 264l92 436h59l-93 -437c-6 -30 -9 -55 -9 -76c0 -41 11 -80 38 -107c31 -29 89 -44 150 -44c67 0 119 14 155 43c41 33 63 80 78 151l100 470h59l-102 -479c-18 -83 -50 -144 -97 -181c-48 -37 -113 -55 -193 -55c-79 0 -151 17 -196 61c-34 33 -51 79 -51 138
c0 21 3 47 10 80zM568 773h-51l21 96h51zM395 773h-52l21 96h52z" />
    <glyph glyph-name="Umacron" unicode="&#x16a;" horiz-adv-x="700" 
d="M84 264l92 436h59l-93 -437c-6 -30 -9 -55 -9 -76c0 -41 11 -80 38 -107c31 -29 89 -44 150 -44c67 0 119 14 155 43c41 33 63 80 78 151l100 470h59l-102 -479c-18 -83 -50 -144 -97 -181c-48 -37 -113 -55 -193 -55c-79 0 -151 17 -196 61c-34 33 -51 79 -51 138
c0 21 3 47 10 80zM595 775h-294l9 40h294z" />
    <glyph glyph-name="Ubreve" unicode="&#x16c;" horiz-adv-x="700" 
d="M84 264l92 436h59l-93 -437c-6 -30 -9 -55 -9 -76c0 -41 11 -80 38 -107c31 -29 89 -44 150 -44c67 0 119 14 155 43c41 33 63 80 78 151l100 470h59l-102 -479c-18 -83 -50 -144 -97 -181c-48 -37 -113 -55 -193 -55c-79 0 -151 17 -196 61c-34 33 -51 79 -51 138
c0 21 3 47 10 80zM448 745c-75 0 -133 49 -141 110l40 12c11 -57 55 -81 106 -81c55 0 97 31 124 79l38 -11c-31 -72 -90 -109 -167 -109z" />
    <glyph glyph-name="Uring" unicode="&#x16e;" horiz-adv-x="700" 
d="M84 264l92 436h59l-93 -437c-6 -30 -9 -55 -9 -76c0 -41 11 -80 38 -107c31 -29 89 -44 150 -44c67 0 119 14 155 43c41 33 63 80 78 151l100 470h59l-102 -479c-18 -83 -50 -144 -97 -181c-48 -37 -113 -55 -193 -55c-79 0 -151 17 -196 61c-34 33 -51 79 -51 138
c0 21 3 47 10 80zM451 730c-45 0 -83 38 -83 83c0 47 38 84 83 84c47 0 84 -37 84 -84c0 -45 -37 -83 -84 -83zM397 813c0 -29 25 -54 54 -54c31 0 55 25 55 54c0 31 -24 55 -55 55c-29 0 -54 -24 -54 -55z" />
    <glyph glyph-name="Uhungarumlaut" unicode="&#x170;" horiz-adv-x="700" 
d="M84 264l92 436h59l-93 -437c-6 -30 -9 -55 -9 -76c0 -41 11 -80 38 -107c31 -29 89 -44 150 -44c67 0 119 14 155 43c41 33 63 80 78 151l100 470h59l-102 -479c-18 -83 -50 -144 -97 -181c-48 -37 -113 -55 -193 -55c-79 0 -151 17 -196 61c-34 33 -51 79 -51 138
c0 21 3 47 10 80zM513 746h-42l114 129h69zM375 746h-42l95 129h69z" />
    <glyph glyph-name="Uogonek" unicode="&#x172;" horiz-adv-x="700" 
d="M84 264l92 436h59l-93 -437c-6 -30 -9 -55 -9 -76c0 -41 11 -80 38 -107c31 -29 89 -44 150 -44c67 0 119 14 155 43c41 33 63 80 78 151l100 470h59l-102 -479c-18 -83 -50 -144 -97 -181c-48 -37 -113 -55 -193 -55c-79 0 -151 17 -196 61c-34 33 -51 79 -51 138
c0 21 3 47 10 80zM316 0h34c-65 -52 -85 -82 -85 -111c0 -27 18 -43 41 -43s38 12 54 36l26 -12c-19 -33 -43 -60 -94 -60c-48 0 -77 31 -77 70c0 47 49 88 101 120z" />
    <glyph glyph-name="Wacute" unicode="&#x1e82;" horiz-adv-x="909" 
d="M151 0l-41 700h61l18 -391c3 -65 9 -163 10 -243h2c37 80 77 167 114 243l194 391h76l28 -392c5 -76 11 -160 15 -241h2c37 80 86 182 114 242l186 391h60l-342 -700h-65l-29 397c-7 100 -12 199 -15 256h-2c-27 -59 -70 -152 -122 -256l-197 -397h-67zM569 746h-42
l95 129h69z" />
    <glyph glyph-name="Wcircumflex" unicode="&#x174;" horiz-adv-x="909" 
d="M151 0l-41 700h61l18 -391c3 -65 9 -163 10 -243h2c37 80 77 167 114 243l194 391h76l28 -392c5 -76 11 -160 15 -241h2c37 80 86 182 114 242l186 391h60l-342 -700h-65l-29 397c-7 100 -12 199 -15 256h-2c-27 -59 -70 -152 -122 -256l-197 -397h-67zM572 844l-112 -98
h-51l136 129h60l83 -129h-43z" />
    <glyph glyph-name="Wdieresis" unicode="&#x1e84;" horiz-adv-x="909" 
d="M151 0l-41 700h61l18 -391c3 -65 9 -163 10 -243h2c37 80 77 167 114 243l194 391h76l28 -392c5 -76 11 -160 15 -241h2c37 80 86 182 114 242l186 391h60l-342 -700h-65l-29 397c-7 100 -12 199 -15 256h-2c-27 -59 -70 -152 -122 -256l-197 -397h-67zM670 773h-51
l21 96h51zM497 773h-52l21 96h52z" />
    <glyph glyph-name="Wgrave" unicode="&#x1e80;" horiz-adv-x="909" 
d="M151 0l-41 700h61l18 -391c3 -65 9 -163 10 -243h2c37 80 77 167 114 243l194 391h76l28 -392c5 -76 11 -160 15 -241h2c37 80 86 182 114 242l186 391h60l-342 -700h-65l-29 397c-7 100 -12 199 -15 256h-2c-27 -59 -70 -152 -122 -256l-197 -397h-67zM540 746l-106 129
h68l77 -129h-39z" />
    <glyph glyph-name="Ygrave" unicode="&#x1ef2;" horiz-adv-x="605" 
d="M221 0l61 288l-185 412h63l161 -360l300 360h69l-349 -412l-61 -288h-59zM391 746l-106 129h68l77 -129h-39z" />
    <glyph glyph-name="Yacute" unicode="&#xdd;" horiz-adv-x="605" 
d="M221 0l61 288l-185 412h63l161 -360l300 360h69l-349 -412l-61 -288h-59zM386 746h-42l95 129h69z" />
    <glyph glyph-name="Ycircumflex" unicode="&#x176;" horiz-adv-x="605" 
d="M221 0l61 288l-185 412h63l161 -360l300 360h69l-349 -412l-61 -288h-59zM413 844l-112 -98h-51l136 129h60l83 -129h-43z" />
    <glyph glyph-name="Ydieresis" unicode="&#x178;" horiz-adv-x="605" 
d="M221 0l61 288l-185 412h63l161 -360l300 360h69l-349 -412l-61 -288h-59zM508 773h-51l21 96h51zM335 773h-52l21 96h52z" />
    <glyph glyph-name="Zacute" unicode="&#x179;" horiz-adv-x="579" 
d="M127 649l11 51h500l-12 -55l-579 -594h473l-11 -51h-541l12 55l574 594h-427zM377 746h-42l95 129h69z" />
    <glyph glyph-name="Zcaron" unicode="&#x17d;" horiz-adv-x="579" 
d="M127 649l11 51h500l-12 -55l-579 -594h473l-11 -51h-541l12 55l574 594h-427zM299 875l73 -98l112 98h51l-136 -129h-60l-83 129h43z" />
    <glyph glyph-name="Zdotaccent" unicode="&#x17b;" horiz-adv-x="579" 
d="M127 649l11 51h500l-12 -55l-579 -594h473l-11 -51h-541l12 55l574 594h-427zM402 771h-49l21 96h49z" />
    <glyph glyph-name="uni018F" unicode="&#x18f;" horiz-adv-x="737" 
d="M64 359h589c1 15 2 30 2 46c0 150 -85 259 -236 259c-133 0 -216 -73 -261 -180h-63c50 132 167 230 325 230c175 0 293 -117 293 -302c0 -218 -132 -427 -368 -427c-182 0 -286 121 -286 297c0 27 2 52 5 77zM345 35c161 0 271 121 301 277h-530v-30
c0 -153 85 -247 229 -247z" />
    <glyph glyph-name="agrave" unicode="&#xe0;" horiz-adv-x="539" 
d="M375 83h-2c-36 -57 -101 -94 -188 -94c-91 0 -158 41 -158 134c0 48 20 85 52 109c48 36 125 50 206 62l68 10c61 8 73 25 82 66c2 10 3 20 3 30c0 21 -6 42 -27 58c-20 15 -51 24 -94 24c-99 0 -153 -38 -173 -129h-56c27 124 103 174 232 174c87 0 171 -29 171 -116
c0 -19 -3 -36 -7 -55l-56 -263c-2 -11 -3 -19 -3 -26c0 -19 10 -27 37 -27c7 0 15 0 22 1l-9 -41c-12 -1 -19 -2 -34 -2c-48 0 -71 15 -71 52c0 8 1 16 3 25zM396 190l20 92c-9 -9 -20 -16 -63 -23l-72 -12c-65 -12 -122 -23 -155 -46c-27 -19 -41 -43 -41 -74
c0 -61 44 -92 109 -92c48 0 90 14 127 41c39 28 66 67 75 114zM318 571l-106 129h68l77 -129h-39z" />
    <glyph glyph-name="aacute" unicode="&#xe1;" horiz-adv-x="539" 
d="M375 83h-2c-36 -57 -101 -94 -188 -94c-91 0 -158 41 -158 134c0 48 20 85 52 109c48 36 125 50 206 62l68 10c61 8 73 25 82 66c2 10 3 20 3 30c0 21 -6 42 -27 58c-20 15 -51 24 -94 24c-99 0 -153 -38 -173 -129h-56c27 124 103 174 232 174c87 0 171 -29 171 -116
c0 -19 -3 -36 -7 -55l-56 -263c-2 -11 -3 -19 -3 -26c0 -19 10 -27 37 -27c7 0 15 0 22 1l-9 -41c-12 -1 -19 -2 -34 -2c-48 0 -71 15 -71 52c0 8 1 16 3 25zM396 190l20 92c-9 -9 -20 -16 -63 -23l-72 -12c-65 -12 -122 -23 -155 -46c-27 -19 -41 -43 -41 -74
c0 -61 44 -92 109 -92c48 0 90 14 127 41c39 28 66 67 75 114zM339 571h-42l95 129h69z" />
    <glyph glyph-name="acircumflex" unicode="&#xe2;" horiz-adv-x="539" 
d="M375 83h-2c-36 -57 -101 -94 -188 -94c-91 0 -158 41 -158 134c0 48 20 85 52 109c48 36 125 50 206 62l68 10c61 8 73 25 82 66c2 10 3 20 3 30c0 21 -6 42 -27 58c-20 15 -51 24 -94 24c-99 0 -153 -38 -173 -129h-56c27 124 103 174 232 174c87 0 171 -29 171 -116
c0 -19 -3 -36 -7 -55l-56 -263c-2 -11 -3 -19 -3 -26c0 -19 10 -27 37 -27c7 0 15 0 22 1l-9 -41c-12 -1 -19 -2 -34 -2c-48 0 -71 15 -71 52c0 8 1 16 3 25zM396 190l20 92c-9 -9 -20 -16 -63 -23l-72 -12c-65 -12 -122 -23 -155 -46c-27 -19 -41 -43 -41 -74
c0 -61 44 -92 109 -92c48 0 90 14 127 41c39 28 66 67 75 114zM340 669l-112 -98h-51l136 129h60l83 -129h-43z" />
    <glyph glyph-name="atilde" unicode="&#xe3;" horiz-adv-x="539" 
d="M375 83h-2c-36 -57 -101 -94 -188 -94c-91 0 -158 41 -158 134c0 48 20 85 52 109c48 36 125 50 206 62l68 10c61 8 73 25 82 66c2 10 3 20 3 30c0 21 -6 42 -27 58c-20 15 -51 24 -94 24c-99 0 -153 -38 -173 -129h-56c27 124 103 174 232 174c87 0 171 -29 171 -116
c0 -19 -3 -36 -7 -55l-56 -263c-2 -11 -3 -19 -3 -26c0 -19 10 -27 37 -27c7 0 15 0 22 1l-9 -41c-12 -1 -19 -2 -34 -2c-48 0 -71 15 -71 52c0 8 1 16 3 25zM396 190l20 92c-9 -9 -20 -16 -63 -23l-72 -12c-65 -12 -122 -23 -155 -46c-27 -19 -41 -43 -41 -74
c0 -61 44 -92 109 -92c48 0 90 14 127 41c39 28 66 67 75 114zM212 611h-33c7 47 34 91 89 91c28 0 52 -11 73 -22l10 -5c20 -9 36 -17 53 -17c33 0 47 23 55 48h33c-7 -45 -34 -91 -89 -91c-28 0 -50 11 -73 22l-10 5c-20 11 -36 17 -53 17c-33 0 -47 -21 -55 -48z" />
    <glyph glyph-name="adieresis" unicode="&#xe4;" horiz-adv-x="539" 
d="M375 83h-2c-36 -57 -101 -94 -188 -94c-91 0 -158 41 -158 134c0 48 20 85 52 109c48 36 125 50 206 62l68 10c61 8 73 25 82 66c2 10 3 20 3 30c0 21 -6 42 -27 58c-20 15 -51 24 -94 24c-99 0 -153 -38 -173 -129h-56c27 124 103 174 232 174c87 0 171 -29 171 -116
c0 -19 -3 -36 -7 -55l-56 -263c-2 -11 -3 -19 -3 -26c0 -19 10 -27 37 -27c7 0 15 0 22 1l-9 -41c-12 -1 -19 -2 -34 -2c-48 0 -71 15 -71 52c0 8 1 16 3 25zM396 190l20 92c-9 -9 -20 -16 -63 -23l-72 -12c-65 -12 -122 -23 -155 -46c-27 -19 -41 -43 -41 -74
c0 -61 44 -92 109 -92c48 0 90 14 127 41c39 28 66 67 75 114zM436 604h-51l21 96h51zM263 604h-51l21 96h51z" />
    <glyph glyph-name="amacron" unicode="&#x101;" horiz-adv-x="539" 
d="M375 83h-2c-36 -57 -101 -94 -188 -94c-91 0 -158 41 -158 134c0 48 20 85 52 109c48 36 125 50 206 62l68 10c61 8 73 25 82 66c2 10 3 20 3 30c0 21 -6 42 -27 58c-20 15 -51 24 -94 24c-99 0 -153 -38 -173 -129h-56c27 124 103 174 232 174c87 0 171 -29 171 -116
c0 -19 -3 -36 -7 -55l-56 -263c-2 -11 -3 -19 -3 -26c0 -19 10 -27 37 -27c7 0 15 0 22 1l-9 -41c-12 -1 -19 -2 -34 -2c-48 0 -71 15 -71 52c0 8 1 16 3 25zM396 190l20 92c-9 -9 -20 -16 -63 -23l-72 -12c-65 -12 -122 -23 -155 -46c-27 -19 -41 -43 -41 -74
c0 -61 44 -92 109 -92c48 0 90 14 127 41c39 28 66 67 75 114zM488 629h-293l9 40h293z" />
    <glyph glyph-name="abreve" unicode="&#x103;" horiz-adv-x="539" 
d="M375 83h-2c-36 -57 -101 -94 -188 -94c-91 0 -158 41 -158 134c0 48 20 85 52 109c48 36 125 50 206 62l68 10c61 8 73 25 82 66c2 10 3 20 3 30c0 21 -6 42 -27 58c-20 15 -51 24 -94 24c-99 0 -153 -38 -173 -129h-56c27 124 103 174 232 174c87 0 171 -29 171 -116
c0 -19 -3 -36 -7 -55l-56 -263c-2 -11 -3 -19 -3 -26c0 -19 10 -27 37 -27c7 0 15 0 22 1l-9 -41c-12 -1 -19 -2 -34 -2c-48 0 -71 15 -71 52c0 8 1 16 3 25zM396 190l20 92c-9 -9 -20 -16 -63 -23l-72 -12c-65 -12 -122 -23 -155 -46c-27 -19 -41 -43 -41 -74
c0 -61 44 -92 109 -92c48 0 90 14 127 41c39 28 66 67 75 114zM347 578c-75 0 -133 49 -141 110l40 12c11 -57 55 -81 106 -81c55 0 97 31 124 79l38 -11c-31 -72 -90 -109 -167 -109z" />
    <glyph glyph-name="aring" unicode="&#xe5;" horiz-adv-x="539" 
d="M375 83h-2c-36 -57 -101 -94 -188 -94c-91 0 -158 41 -158 134c0 48 20 85 52 109c48 36 125 50 206 62l68 10c61 8 73 25 82 66c2 10 3 20 3 30c0 21 -6 42 -27 58c-20 15 -51 24 -94 24c-99 0 -153 -38 -173 -129h-56c27 124 103 174 232 174c87 0 171 -29 171 -116
c0 -19 -3 -36 -7 -55l-56 -263c-2 -11 -3 -19 -3 -26c0 -19 10 -27 37 -27c7 0 15 0 22 1l-9 -41c-12 -1 -19 -2 -34 -2c-48 0 -71 15 -71 52c0 8 1 16 3 25zM396 190l20 92c-9 -9 -20 -16 -63 -23l-72 -12c-65 -12 -122 -23 -155 -46c-27 -19 -41 -43 -41 -74
c0 -61 44 -92 109 -92c48 0 90 14 127 41c39 28 66 67 75 114zM254 639c0 47 38 84 83 84c47 0 84 -37 84 -84c0 -45 -37 -83 -84 -83c-45 0 -83 38 -83 83zM283 639c0 -29 25 -54 54 -54c31 0 55 25 55 54c0 31 -24 55 -55 55c-29 0 -54 -24 -54 -55z" />
    <glyph glyph-name="aringacute" unicode="&#x1fb;" horiz-adv-x="539" 
d="M375 83h-2c-36 -57 -101 -94 -188 -94c-91 0 -158 41 -158 134c0 48 20 85 52 109c48 36 125 50 206 62l68 10c61 8 73 25 82 66c2 10 3 20 3 30c0 21 -6 42 -27 58c-20 15 -51 24 -94 24c-99 0 -153 -38 -173 -129h-56c27 124 103 174 232 174c87 0 171 -29 171 -116
c0 -19 -3 -36 -7 -55l-56 -263c-2 -11 -3 -19 -3 -26c0 -19 10 -27 37 -27c7 0 15 0 22 1l-9 -41c-12 -1 -19 -2 -34 -2c-48 0 -71 15 -71 52c0 8 1 16 3 25zM396 190l20 92c-9 -9 -20 -16 -63 -23l-72 -12c-65 -12 -122 -23 -155 -46c-27 -19 -41 -43 -41 -74
c0 -61 44 -92 109 -92c48 0 90 14 127 41c39 28 66 67 75 114zM265 636c0 47 38 84 83 84c47 0 84 -37 84 -84c0 -45 -37 -83 -84 -83c-45 0 -83 38 -83 83zM294 636c0 -29 25 -54 54 -54c31 0 55 25 55 54c0 31 -24 55 -55 55c-29 0 -54 -24 -54 -55zM380 746h-42l95 129
h69z" />
    <glyph glyph-name="aogonek" unicode="&#x105;" horiz-adv-x="539" 
d="M375 83h-2c-36 -57 -101 -94 -188 -94c-91 0 -158 41 -158 134c0 48 20 85 52 109c48 36 125 50 206 62l68 10c61 8 73 25 82 66c2 10 3 20 3 30c0 21 -6 42 -27 58c-20 15 -51 24 -94 24c-99 0 -153 -38 -173 -129h-56c27 124 103 174 232 174c87 0 171 -29 171 -116
c0 -19 -3 -36 -7 -55l-56 -263c-2 -11 -3 -19 -3 -26c0 -19 10 -27 37 -27c7 0 15 0 22 1l-9 -41c-12 -1 -19 -2 -34 -2c-48 0 -71 15 -71 52c0 8 1 16 3 25zM396 190l20 92c-9 -9 -20 -16 -63 -23l-72 -12c-65 -12 -122 -23 -155 -46c-27 -19 -41 -43 -41 -74
c0 -61 44 -92 109 -92c48 0 90 14 127 41c39 28 66 67 75 114zM441 0h34c-65 -52 -85 -82 -85 -111c0 -27 18 -43 41 -43s38 12 54 36l26 -12c-19 -33 -43 -60 -94 -60c-48 0 -77 31 -77 70c0 47 49 88 101 120z" />
    <glyph glyph-name="ae" unicode="&#xe6;" horiz-adv-x="906" 
d="M863 244h-401c-1 -13 -3 -22 -3 -35c0 -91 38 -176 151 -176c95 0 157 59 178 136h57c-33 -113 -116 -183 -235 -183c-100 0 -165 49 -193 126h-7c-43 -77 -130 -123 -219 -123c-96 0 -164 45 -164 134c0 48 20 85 52 109c48 36 125 50 206 62l68 10c61 8 73 25 82 66
c2 10 3 20 3 30c0 21 -6 42 -27 58c-20 15 -51 24 -94 24c-99 0 -153 -38 -173 -129h-56c27 124 103 174 232 174c37 0 72 -6 103 -19c31 -12 51 -33 60 -64c44 51 106 85 183 85c146 0 202 -96 202 -216c0 -21 -2 -46 -5 -69zM470 290h341c1 9 1 19 1 28
c0 85 -38 165 -146 165c-113 0 -178 -91 -196 -193zM396 190l20 92c-9 -9 -20 -16 -63 -23l-72 -12c-65 -12 -122 -23 -155 -46c-27 -19 -41 -43 -41 -74c0 -61 44 -92 109 -92c48 0 90 14 127 41c39 28 66 67 75 114z" />
    <glyph glyph-name="aeacute" unicode="&#x1fd;" horiz-adv-x="906" 
d="M863 244h-401c-1 -13 -3 -22 -3 -35c0 -91 38 -176 151 -176c95 0 157 59 178 136h57c-33 -113 -116 -183 -235 -183c-100 0 -165 49 -193 126h-7c-43 -77 -130 -123 -219 -123c-96 0 -164 45 -164 134c0 48 20 85 52 109c48 36 125 50 206 62l68 10c61 8 73 25 82 66
c2 10 3 20 3 30c0 21 -6 42 -27 58c-20 15 -51 24 -94 24c-99 0 -153 -38 -173 -129h-56c27 124 103 174 232 174c37 0 72 -6 103 -19c31 -12 51 -33 60 -64c44 51 106 85 183 85c146 0 202 -96 202 -216c0 -21 -2 -46 -5 -69zM470 290h341c1 9 1 19 1 28
c0 85 -38 165 -146 165c-113 0 -178 -91 -196 -193zM396 190l20 92c-9 -9 -20 -16 -63 -23l-72 -12c-65 -12 -122 -23 -155 -46c-27 -19 -41 -43 -41 -74c0 -61 44 -92 109 -92c48 0 90 14 127 41c39 28 66 67 75 114zM519 571h-42l95 129h69z" />
    <glyph glyph-name="cacute" unicode="&#x107;" horiz-adv-x="527" 
d="M507 357h-53c-5 79 -61 126 -145 126c-141 0 -215 -147 -215 -277c0 -96 49 -174 152 -174c88 0 146 56 175 136h57c-37 -115 -114 -183 -233 -183c-132 0 -206 85 -206 218c0 164 99 326 272 326c106 0 192 -52 196 -172zM324 571h-42l95 129h69z" />
    <glyph glyph-name="ccircumflex" unicode="&#x109;" horiz-adv-x="527" 
d="M507 357h-53c-5 79 -61 126 -145 126c-141 0 -215 -147 -215 -277c0 -96 49 -174 152 -174c88 0 146 56 175 136h57c-37 -115 -114 -183 -233 -183c-132 0 -206 85 -206 218c0 164 99 326 272 326c106 0 192 -52 196 -172zM347 669l-112 -98h-51l136 129h60l83 -129h-43z
" />
    <glyph glyph-name="ccaron" unicode="&#x10d;" horiz-adv-x="527" 
d="M507 357h-53c-5 79 -61 126 -145 126c-141 0 -215 -147 -215 -277c0 -96 49 -174 152 -174c88 0 146 56 175 136h57c-37 -115 -114 -183 -233 -183c-132 0 -206 85 -206 218c0 164 99 326 272 326c106 0 192 -52 196 -172zM258 700l73 -98l112 98h51l-136 -129h-60
l-83 129h43z" />
    <glyph glyph-name="cdotaccent" unicode="&#x10b;" horiz-adv-x="527" 
d="M507 357h-53c-5 79 -61 126 -145 126c-141 0 -215 -147 -215 -277c0 -96 49 -174 152 -174c88 0 146 56 175 136h57c-37 -115 -114 -183 -233 -183c-132 0 -206 85 -206 218c0 164 99 326 272 326c106 0 192 -52 196 -172zM366 604h-49l21 96h49z" />
    <glyph glyph-name="ccedilla" unicode="&#xe7;" horiz-adv-x="527" 
d="M507 357h-53c-5 79 -61 126 -145 126c-141 0 -215 -147 -215 -277c0 -96 49 -174 152 -174c88 0 146 56 175 136h57c-37 -115 -114 -183 -233 -183c-132 0 -206 85 -206 218c0 164 99 326 272 326c106 0 192 -52 196 -172zM191 -51l1 -1c8 1 16 2 24 2
c39 0 79 -16 79 -61c0 -53 -49 -74 -101 -74c-29 0 -62 6 -83 18l13 30c13 -7 40 -15 65 -15c28 0 54 11 54 40c0 27 -24 34 -48 34c-14 0 -26 -2 -37 -7l-16 17l56 68h38z" />
    <glyph glyph-name="dslash" unicode="&#x111;" horiz-adv-x="589" 
d="M454 0h-55l22 95h-3c-36 -61 -102 -109 -185 -109c-131 0 -195 92 -195 215c0 154 95 329 271 329c87 0 157 -49 174 -134h2c11 59 18 88 27 129l17 78h-128l9 41h128l12 56h54l-12 -56h57l-9 -41h-57zM312 483c-144 0 -219 -158 -219 -282c0 -101 48 -169 151 -169
c141 0 217 168 217 284c0 85 -49 167 -149 167z" />
    <glyph glyph-name="dcaron" unicode="&#x10f;" horiz-adv-x="601" 
d="M454 0h-55l3 13l19 82h-3c-36 -61 -102 -110 -185 -110c-131 0 -195 92 -195 216c0 154 95 328 271 328c87 0 157 -49 174 -133h2c11 59 18 88 27 129l38 175h54zM312 483c-144 0 -219 -158 -219 -282c0 -101 48 -169 151 -169c141 0 217 168 217 284
c0 85 -49 167 -149 167zM683 700h60l-88 -154h-31z" />
    <glyph glyph-name="eth" unicode="&#xf0;" horiz-adv-x="568" 
d="M234 589l105 53c-28 27 -56 41 -83 56l38 28c31 -16 61 -36 90 -61l116 58l24 -26l-114 -58c69 -71 122 -174 122 -293c0 -184 -89 -360 -286 -360c-136 0 -208 86 -208 214c0 164 101 324 282 324c43 0 109 -14 141 -62h2c-25 72 -57 116 -96 155l-108 -55zM316 478
c-141 0 -223 -151 -223 -272c0 -100 51 -174 160 -174c147 0 224 162 224 276c0 111 -69 170 -161 170z" />
    <glyph glyph-name="egrave" unicode="&#xe8;" horiz-adv-x="549" 
d="M507 244h-410c-1 -13 -3 -22 -3 -35c0 -92 41 -177 154 -177c95 0 163 57 184 133h57c-33 -111 -122 -180 -241 -180c-137 0 -208 91 -208 223c0 162 92 321 264 321c146 0 208 -96 208 -216c0 -21 -2 -46 -5 -69zM105 290h350c1 9 1 19 1 28c0 85 -44 165 -152 165
c-113 0 -181 -91 -199 -193zM316 571l-106 129h68l77 -129h-39z" />
    <glyph glyph-name="eacute" unicode="&#xe9;" horiz-adv-x="549" 
d="M507 244h-410c-1 -13 -3 -22 -3 -35c0 -92 41 -177 154 -177c95 0 163 57 184 133h57c-33 -111 -122 -180 -241 -180c-137 0 -208 91 -208 223c0 162 92 321 264 321c146 0 208 -96 208 -216c0 -21 -2 -46 -5 -69zM105 290h350c1 9 1 19 1 28c0 85 -44 165 -152 165
c-113 0 -181 -91 -199 -193zM308 571h-42l95 129h69z" />
    <glyph glyph-name="ecircumflex" unicode="&#xea;" horiz-adv-x="549" 
d="M507 244h-410c-1 -13 -3 -22 -3 -35c0 -92 41 -177 154 -177c95 0 163 57 184 133h57c-33 -111 -122 -180 -241 -180c-137 0 -208 91 -208 223c0 162 92 321 264 321c146 0 208 -96 208 -216c0 -21 -2 -46 -5 -69zM105 290h350c1 9 1 19 1 28c0 85 -44 165 -152 165
c-113 0 -181 -91 -199 -193zM338 669l-112 -98h-51l136 129h60l83 -129h-43z" />
    <glyph glyph-name="ecaron" unicode="&#x11b;" horiz-adv-x="549" 
d="M507 244h-410c-1 -13 -3 -22 -3 -35c0 -92 41 -177 154 -177c95 0 163 57 184 133h57c-33 -111 -122 -180 -241 -180c-137 0 -208 91 -208 223c0 162 92 321 264 321c146 0 208 -96 208 -216c0 -21 -2 -46 -5 -69zM105 290h350c1 9 1 19 1 28c0 85 -44 165 -152 165
c-113 0 -181 -91 -199 -193zM251 700l73 -98l112 98h51l-136 -129h-60l-83 129h43z" />
    <glyph glyph-name="edieresis" unicode="&#xeb;" horiz-adv-x="549" 
d="M507 244h-410c-1 -13 -3 -22 -3 -35c0 -92 41 -177 154 -177c95 0 163 57 184 133h57c-33 -111 -122 -180 -241 -180c-137 0 -208 91 -208 223c0 162 92 321 264 321c146 0 208 -96 208 -216c0 -21 -2 -46 -5 -69zM105 290h350c1 9 1 19 1 28c0 85 -44 165 -152 165
c-113 0 -181 -91 -199 -193zM434 604h-51l21 96h51zM261 604h-51l21 96h51z" />
    <glyph glyph-name="emacron" unicode="&#x113;" horiz-adv-x="549" 
d="M507 244h-410c-1 -13 -3 -22 -3 -35c0 -92 41 -177 154 -177c95 0 163 57 184 133h57c-33 -111 -122 -180 -241 -180c-137 0 -208 91 -208 223c0 162 92 321 264 321c146 0 208 -96 208 -216c0 -21 -2 -46 -5 -69zM105 290h350c1 9 1 19 1 28c0 85 -44 165 -152 165
c-113 0 -181 -91 -199 -193zM468 629h-293l9 40h293z" />
    <glyph glyph-name="ebreve" unicode="&#x115;" horiz-adv-x="549" 
d="M507 244h-410c-1 -13 -3 -22 -3 -35c0 -92 41 -177 154 -177c95 0 163 57 184 133h57c-33 -111 -122 -180 -241 -180c-137 0 -208 91 -208 223c0 162 92 321 264 321c146 0 208 -96 208 -216c0 -21 -2 -46 -5 -69zM105 290h350c1 9 1 19 1 28c0 85 -44 165 -152 165
c-113 0 -181 -91 -199 -193zM335 578c-75 0 -133 49 -141 110l40 12c11 -57 55 -81 106 -81c55 0 97 31 124 79l38 -11c-31 -72 -90 -109 -167 -109z" />
    <glyph glyph-name="edotaccent" unicode="&#x117;" horiz-adv-x="549" 
d="M507 244h-410c-1 -13 -3 -22 -3 -35c0 -92 41 -177 154 -177c95 0 163 57 184 133h57c-33 -111 -122 -180 -241 -180c-137 0 -208 91 -208 223c0 162 92 321 264 321c146 0 208 -96 208 -216c0 -21 -2 -46 -5 -69zM105 290h350c1 9 1 19 1 28c0 85 -44 165 -152 165
c-113 0 -181 -91 -199 -193zM348 604h-49l21 96h49z" />
    <glyph glyph-name="eogonek" unicode="&#x119;" horiz-adv-x="549" 
d="M507 244h-410c-1 -13 -3 -22 -3 -35c0 -92 41 -177 154 -177c95 0 163 57 184 133h57c-33 -111 -122 -180 -241 -180c-137 0 -208 91 -208 223c0 162 92 321 264 321c146 0 208 -96 208 -216c0 -21 -2 -46 -5 -69zM105 290h350c1 9 1 19 1 28c0 85 -44 165 -152 165
c-113 0 -181 -91 -199 -193zM301 0h34c-65 -52 -85 -82 -85 -111c0 -27 18 -43 41 -43s38 12 54 36l26 -12c-19 -33 -43 -60 -94 -60c-48 0 -77 31 -77 70c0 47 49 88 101 120z" />
    <glyph glyph-name="gcircumflex" unicode="&#x11d;" horiz-adv-x="576" 
d="M8 -32h55c0 -81 68 -104 142 -104c136 0 169 69 191 172l6 28c5 23 10 37 13 48h-3c-36 -61 -101 -104 -180 -104c-122 0 -190 90 -190 210c0 151 97 311 261 311c41 0 78 -11 111 -34c33 -22 52 -54 59 -95h3c3 19 7 45 11 65l10 50h54l-100 -472
c-34 -167 -93 -225 -246 -225c-114 0 -197 40 -197 150zM97 222c0 -95 45 -166 146 -166c132 0 208 143 208 266c0 104 -58 161 -145 161c-136 0 -209 -143 -209 -261zM334 669l-112 -98h-51l136 129h60l83 -129h-43z" />
    <glyph glyph-name="gbreve" unicode="&#x11f;" horiz-adv-x="576" 
d="M8 -32h55c0 -81 68 -104 142 -104c136 0 169 69 191 172l6 28c5 23 10 37 13 48h-3c-36 -61 -101 -104 -180 -104c-122 0 -190 90 -190 210c0 151 97 311 261 311c41 0 78 -11 111 -34c33 -22 52 -54 59 -95h3c3 19 7 45 11 65l10 50h54l-100 -472
c-34 -167 -93 -225 -246 -225c-114 0 -197 40 -197 150zM97 222c0 -95 45 -166 146 -166c132 0 208 143 208 266c0 104 -58 161 -145 161c-136 0 -209 -143 -209 -261zM342 578c-75 0 -133 49 -141 110l40 12c11 -57 55 -81 106 -81c55 0 97 31 124 79l38 -11
c-31 -72 -90 -109 -167 -109z" />
    <glyph glyph-name="gdotaccent" unicode="&#x121;" horiz-adv-x="576" 
d="M8 -32h55c0 -81 68 -104 142 -104c136 0 169 69 191 172l6 28c5 23 10 37 13 48h-3c-36 -61 -101 -104 -180 -104c-122 0 -190 90 -190 210c0 151 97 311 261 311c41 0 78 -11 111 -34c33 -22 52 -54 59 -95h3c3 19 7 45 11 65l10 50h54l-100 -472
c-34 -167 -93 -225 -246 -225c-114 0 -197 40 -197 150zM97 222c0 -95 45 -166 146 -166c132 0 208 143 208 266c0 104 -58 161 -145 161c-136 0 -209 -143 -209 -261zM354 604h-49l21 96h49z" />
    <glyph glyph-name="uni0123" unicode="&#x123;" horiz-adv-x="576" 
d="M8 -32h55c0 -81 68 -104 142 -104c136 0 169 69 191 172l6 28c5 23 10 37 13 48h-3c-36 -61 -101 -104 -180 -104c-122 0 -190 90 -190 210c0 151 97 311 261 311c41 0 78 -11 111 -34c33 -22 52 -54 59 -95h3c3 19 7 45 11 65l10 50h54l-100 -472
c-34 -167 -93 -225 -246 -225c-114 0 -197 40 -197 150zM97 222c0 -95 45 -166 146 -166c132 0 208 143 208 266c0 104 -58 161 -145 161c-136 0 -209 -143 -209 -261zM354 557h-76l19 87c11 55 33 93 98 106l-8 -40c-36 -11 -45 -37 -52 -64l-1 -4h38z" />
    <glyph glyph-name="hcircumflex" unicode="&#x125;" horiz-adv-x="565" 
d="M26 0l150 700h55l-39 -183l-8 -35l-15 -60h2c35 65 95 107 184 107c104 0 160 -58 160 -138c0 -27 -4 -49 -8 -69l-70 -322h-56l69 313c5 23 9 46 9 69c0 72 -49 101 -116 101c-104 0 -177 -84 -204 -211l-58 -272h-55zM401 844l-112 -98h-51l136 129h60l83 -129h-43z
" />
    <glyph glyph-name="hbar" unicode="&#x127;" horiz-adv-x="565" 
d="M96 603l9 41h59l12 56h55l-12 -56h125l-9 -41h-125l-18 -86l-8 -35l-15 -60h2c35 65 95 107 184 107c104 0 160 -58 160 -138c0 -27 -4 -49 -8 -69l-70 -322h-56l69 313c5 23 9 46 9 69c0 72 -49 101 -116 101c-104 0 -177 -84 -204 -211l-58 -272h-55l129 603h-59z" />
    <glyph glyph-name="dotlessi" unicode="&#x131;" horiz-adv-x="215" 
d="M26 0l109 515h55l-109 -515h-55z" />
    <glyph glyph-name="i.latn_TRK" horiz-adv-x="215" 
d="M26 0l109 515h55l-109 -515h-55zM202 604h-49l21 96h49z" />
    <glyph glyph-name="igrave" unicode="&#xec;" horiz-adv-x="215" 
d="M157 571l-106 129h68l77 -129h-39zM26 0l109 515h55l-109 -515h-55z" />
    <glyph glyph-name="iacute" unicode="&#xed;" horiz-adv-x="215" 
d="M190 571h-42l95 129h69zM26 0l109 515h55l-109 -515h-55z" />
    <glyph glyph-name="icircumflex" unicode="&#xee;" horiz-adv-x="215" 
d="M26 0l109 515h55l-109 -515h-55zM192 669l-112 -98h-51l136 129h60l83 -129h-43z" />
    <glyph glyph-name="itilde" unicode="&#x129;" horiz-adv-x="215" 
d="M26 0l109 515h55l-109 -515h-55zM59 611h-33c7 47 34 91 89 91c28 0 52 -11 73 -22l10 -5c20 -9 36 -17 53 -17c33 0 47 23 55 48h33c-7 -45 -34 -91 -89 -91c-28 0 -50 11 -73 22l-10 5c-20 11 -36 17 -53 17c-33 0 -47 -21 -55 -48z" />
    <glyph glyph-name="idieresis" unicode="&#xef;" horiz-adv-x="215" 
d="M292 604h-51l21 96h51zM119 604h-51l21 96h51zM26 0l109 515h55l-109 -515h-55z" />
    <glyph glyph-name="imacron" unicode="&#x12b;" horiz-adv-x="215" 
d="M26 0l109 515h55l-109 -515h-55zM328 629h-293l9 40h293z" />
    <glyph glyph-name="ibreve" unicode="&#x12d;" horiz-adv-x="215" 
d="M26 0l109 515h55l-109 -515h-55zM180 578c-75 0 -133 49 -141 110l40 12c11 -57 55 -81 106 -81c55 0 97 31 124 79l38 -11c-31 -72 -90 -109 -167 -109z" />
    <glyph glyph-name="iogonek" unicode="&#x12f;" horiz-adv-x="216" 
d="M156 604l20 96h55l-20 -96h-55zM26 0l110 515h56l-111 -515h-55zM47 0h34c-65 -52 -85 -82 -85 -111c0 -27 18 -43 41 -43s38 12 54 36l26 -12c-19 -33 -43 -60 -94 -60c-48 0 -77 31 -77 70c0 47 49 88 101 120z" />
    <glyph glyph-name="uni0237" unicode="&#x237;" horiz-adv-x="216" 
d="M14 -60l122 575h56l-124 -580c-12 -61 -37 -113 -123 -113c-15 0 -30 2 -45 5l10 46c11 -3 23 -4 35 -4c44 0 60 30 69 71z" />
    <glyph glyph-name="ij" unicode="&#x133;" horiz-adv-x="425" 
d="M156 604l20 96h55l-20 -96h-55zM26 0l110 515h56l-111 -515h-55zM365 604l20 96h55l-20 -96h-55zM223 -60l122 575h56l-124 -580c-12 -61 -37 -113 -123 -113c-15 0 -30 2 -45 5l10 46c11 -3 23 -4 35 -4c44 0 60 30 69 71z" />
    <glyph glyph-name="jcircumflex" unicode="&#x135;" horiz-adv-x="216" 
d="M194 669l-112 -98h-51l136 129h60l83 -129h-43zM14 -60l122 575h56l-124 -580c-12 -61 -37 -113 -123 -113c-15 0 -30 2 -45 5l10 46c11 -3 23 -4 35 -4c44 0 60 30 69 71z" />
    <glyph glyph-name="uni0137" unicode="&#x137;" horiz-adv-x="497" 
d="M177 700h55l-96 -443h2l317 258h76l-251 -201l166 -314h-63l-147 282l-114 -94l-40 -188h-55zM175 -50h76l-19 -87c-11 -53 -31 -91 -98 -106l8 40c36 11 47 39 52 64l1 4h-38z" />
    <glyph glyph-name="kgreenlandic" unicode="&#x138;" horiz-adv-x="492" 
d="M136 515h55l-56 -258h2l317 258h76l-251 -201l166 -314h-63l-147 282l-114 -94l-40 -188h-55z" />
    <glyph glyph-name="lacute" unicode="&#x13a;" horiz-adv-x="216" 
d="M176 700h55l-150 -700h-55zM230 746h-42l95 129h69z" />
    <glyph glyph-name="lcaron" unicode="&#x13e;" horiz-adv-x="228" 
d="M176 700h55l-150 -700h-55zM310 700h60l-88 -154h-31z" />
    <glyph glyph-name="ldot" unicode="&#x140;" horiz-adv-x="212" 
d="M176 700h55l-150 -700h-55zM254 326h-49l21 96h49z" />
    <glyph glyph-name="ldot.latn_CAT" horiz-adv-x="212" 
d="M176 700h55l-150 -700h-55zM254 326h-49l21 96h49z" />
    <glyph glyph-name="lslash" unicode="&#x142;" horiz-adv-x="276" 
d="M37 282l12 55l92 53l66 310h55l-59 -275l96 55l-12 -55l-95 -55l-79 -370h-55l71 335z" />
    <glyph glyph-name="uni013C" unicode="&#x13c;" horiz-adv-x="216" 
d="M176 700h55l-150 -700h-55zM9 -50h76l-19 -87c-11 -53 -31 -91 -98 -106l8 40c36 11 47 39 52 64l1 4h-38z" />
    <glyph glyph-name="uni0146" unicode="&#x146;" horiz-adv-x="565" 
d="M26 0l111 515h53l-10 -47c-1 -9 -5 -22 -12 -47h2c35 64 96 108 185 108c104 0 160 -58 160 -138c0 -27 -4 -49 -8 -69l-70 -322h-56l69 313c5 23 9 46 9 69c0 72 -49 101 -116 101c-104 0 -177 -84 -204 -211l-58 -272h-55zM182 -50h76l-19 -87
c-11 -53 -31 -91 -98 -106l8 40c36 11 47 39 52 64l1 4h-38z" />
    <glyph glyph-name="nacute" unicode="&#x144;" horiz-adv-x="565" 
d="M26 0l111 515h53l-10 -47c-1 -9 -5 -22 -12 -47h2c35 64 96 108 185 108c104 0 160 -58 160 -138c0 -27 -4 -49 -8 -69l-70 -322h-56l69 313c5 23 9 46 9 69c0 72 -49 101 -116 101c-104 0 -177 -84 -204 -211l-58 -272h-55zM346 571h-42l95 129h69z" />
    <glyph glyph-name="ncaron" unicode="&#x148;" horiz-adv-x="565" 
d="M26 0l111 515h53l-10 -47c-1 -9 -5 -22 -12 -47h2c35 64 96 108 185 108c104 0 160 -58 160 -138c0 -27 -4 -49 -8 -69l-70 -322h-56l69 313c5 23 9 46 9 69c0 72 -49 101 -116 101c-104 0 -177 -84 -204 -211l-58 -272h-55zM279 700l73 -98l112 98h51l-136 -129h-60
l-83 129h43z" />
    <glyph glyph-name="ntilde" unicode="&#xf1;" horiz-adv-x="565" 
d="M26 0l111 515h53l-10 -47c-1 -9 -5 -22 -12 -47h2c35 64 96 108 185 108c104 0 160 -58 160 -138c0 -27 -4 -49 -8 -69l-70 -322h-56l69 313c5 23 9 46 9 69c0 72 -49 101 -116 101c-104 0 -177 -84 -204 -211l-58 -272h-55zM242 611h-33c7 47 34 91 89 91
c28 0 52 -11 73 -22l10 -5c20 -9 36 -17 53 -17c33 0 47 23 55 48h33c-7 -45 -34 -91 -89 -91c-28 0 -50 11 -73 22l-10 5c-20 11 -36 17 -53 17c-33 0 -47 -21 -55 -48z" />
    <glyph glyph-name="napostrophe" unicode="&#x149;" horiz-adv-x="582" 
d="M43 0l111 515h53l-10 -47c-1 -9 -5 -22 -12 -47h2c35 64 96 108 185 108c104 0 160 -58 160 -138c0 -27 -4 -49 -8 -69l-70 -322h-56l69 313c5 23 9 46 9 69c0 72 -49 101 -116 101c-104 0 -177 -84 -204 -211l-58 -272h-55zM91 695h76l-19 -87c-11 -53 -31 -91 -98 -106
l8 40c36 11 47 39 52 64l1 4h-38z" />
    <glyph glyph-name="eng" unicode="&#x14b;" horiz-adv-x="565" 
d="M368 -60l82 373c5 23 9 46 9 69c0 72 -49 101 -116 101c-104 0 -177 -84 -204 -211l-58 -272h-55l111 515h53l-10 -47c-1 -9 -5 -22 -12 -47h2c35 64 96 108 185 108c104 0 160 -58 160 -138c0 -27 -4 -49 -8 -69l-84 -387c-12 -61 -37 -113 -123 -113c-15 0 -30 2 -45 5
l8 46c11 -3 23 -4 36 -4c44 0 60 30 69 71z" />
    <glyph glyph-name="ograve" unicode="&#xf2;" horiz-adv-x="565" 
d="M315 529c127 0 213 -74 213 -210c0 -159 -94 -334 -282 -334c-135 0 -207 85 -207 216c0 165 96 328 276 328zM252 32c145 0 220 157 220 285c0 97 -50 166 -157 166c-149 0 -221 -147 -221 -277c0 -101 50 -174 158 -174zM327 571l-106 129h68l77 -129h-39z" />
    <glyph glyph-name="oacute" unicode="&#xf3;" horiz-adv-x="565" 
d="M315 529c127 0 213 -74 213 -210c0 -159 -94 -334 -282 -334c-135 0 -207 85 -207 216c0 165 96 328 276 328zM252 32c145 0 220 157 220 285c0 97 -50 166 -157 166c-149 0 -221 -147 -221 -277c0 -101 50 -174 158 -174zM350 571h-42l95 129h69z" />
    <glyph glyph-name="ocircumflex" unicode="&#xf4;" horiz-adv-x="565" 
d="M315 529c127 0 213 -74 213 -210c0 -159 -94 -334 -282 -334c-135 0 -207 85 -207 216c0 165 96 328 276 328zM252 32c145 0 220 157 220 285c0 97 -50 166 -157 166c-149 0 -221 -147 -221 -277c0 -101 50 -174 158 -174zM350 669l-112 -98h-51l136 129h60l83 -129h-43z
" />
    <glyph glyph-name="otilde" unicode="&#xf5;" horiz-adv-x="565" 
d="M315 529c127 0 213 -74 213 -210c0 -159 -94 -334 -282 -334c-135 0 -207 85 -207 216c0 165 96 328 276 328zM252 32c145 0 220 157 220 285c0 97 -50 166 -157 166c-149 0 -221 -147 -221 -277c0 -101 50 -174 158 -174zM227 611h-33c7 47 34 91 89 91
c28 0 52 -11 73 -22l10 -5c20 -9 36 -17 53 -17c33 0 47 23 55 48h33c-7 -45 -34 -91 -89 -91c-28 0 -50 11 -73 22l-10 5c-20 11 -36 17 -53 17c-33 0 -47 -21 -55 -48z" />
    <glyph glyph-name="odieresis" unicode="&#xf6;" horiz-adv-x="565" 
d="M315 529c127 0 213 -74 213 -210c0 -159 -94 -334 -282 -334c-135 0 -207 85 -207 216c0 165 96 328 276 328zM252 32c145 0 220 157 220 285c0 97 -50 166 -157 166c-149 0 -221 -147 -221 -277c0 -101 50 -174 158 -174zM451 604h-51l21 96h51zM278 604h-51l21 96h51z
" />
    <glyph glyph-name="omacron" unicode="&#x14d;" horiz-adv-x="565" 
d="M315 529c127 0 213 -74 213 -210c0 -159 -94 -334 -282 -334c-135 0 -207 85 -207 216c0 165 96 328 276 328zM252 32c145 0 220 157 220 285c0 97 -50 166 -157 166c-149 0 -221 -147 -221 -277c0 -101 50 -174 158 -174zM494 629h-293l9 40h293z" />
    <glyph glyph-name="obreve" unicode="&#x14f;" horiz-adv-x="565" 
d="M315 529c127 0 213 -74 213 -210c0 -159 -94 -334 -282 -334c-135 0 -207 85 -207 216c0 165 96 328 276 328zM252 32c145 0 220 157 220 285c0 97 -50 166 -157 166c-149 0 -221 -147 -221 -277c0 -101 50 -174 158 -174zM351 578c-75 0 -133 49 -141 110l40 12
c11 -57 55 -81 106 -81c55 0 97 31 124 79l38 -11c-31 -72 -90 -109 -167 -109z" />
    <glyph glyph-name="ohungarumlaut" unicode="&#x151;" horiz-adv-x="565" 
d="M315 529c127 0 213 -74 213 -210c0 -159 -94 -334 -282 -334c-135 0 -207 85 -207 216c0 165 96 328 276 328zM252 32c145 0 220 157 220 285c0 97 -50 166 -157 166c-149 0 -221 -147 -221 -277c0 -101 50 -174 158 -174zM401 571h-42l114 129h69zM263 571h-42l95 129
h69z" />
    <glyph glyph-name="oe" unicode="&#x153;" horiz-adv-x="948" 
d="M905 244h-401c-1 -13 -3 -22 -3 -35c0 -91 38 -176 151 -176c95 0 157 56 178 132h57c-32 -111 -116 -179 -235 -179c-100 0 -165 49 -193 126c-44 -73 -114 -127 -217 -127c-135 0 -202 85 -202 216c0 165 91 328 271 328c96 0 161 -42 189 -121l3 5
c41 69 113 116 205 116c146 0 202 -96 202 -216c0 -21 -2 -46 -5 -69zM248 32c145 0 215 157 215 285c0 97 -45 166 -152 166c-148 0 -216 -147 -216 -277c0 -101 45 -174 153 -174zM512 290h341c1 9 1 19 1 28c0 85 -38 165 -146 165c-113 0 -178 -91 -196 -193z" />
    <glyph glyph-name="oslash" unicode="&#xf8;" horiz-adv-x="568" 
d="M315 529c67 0 123 -20 160 -60l82 87l28 -26l-86 -92c19 -33 29 -72 29 -119c0 -159 -94 -334 -282 -334c-56 0 -99 16 -134 41l-70 -75l-28 26l71 76c-31 38 -46 87 -46 148c0 165 96 328 276 328zM94 206c0 -44 9 -82 29 -113l315 337c-25 33 -66 53 -123 53
c-149 0 -221 -147 -221 -277zM252 32c145 0 220 157 220 285c0 28 -5 54 -14 78l-310 -331c25 -21 60 -32 104 -32z" />
    <glyph glyph-name="oslashacute" unicode="&#x1ff;" horiz-adv-x="568" 
d="M342 571h-42l95 129h69zM315 529c67 0 123 -20 160 -60l82 87l28 -26l-86 -92c19 -33 29 -72 29 -119c0 -159 -94 -334 -282 -334c-56 0 -99 16 -134 41l-70 -75l-28 26l71 76c-31 38 -46 87 -46 148c0 165 96 328 276 328zM94 206c0 -44 9 -82 29 -113l315 337
c-25 33 -66 53 -123 53c-149 0 -221 -147 -221 -277zM252 32c145 0 220 157 220 285c0 28 -5 54 -14 78l-310 -331c25 -21 60 -32 104 -32z" />
    <glyph glyph-name="thorn" unicode="&#xfe;" horiz-adv-x="588" 
d="M176 700h55l-43 -199c-5 -29 -11 -44 -19 -80h2c36 63 102 108 185 108c133 0 195 -92 195 -214c0 -154 -96 -330 -272 -330c-85 0 -155 51 -172 136h-2c-9 -45 -14 -74 -21 -102l-41 -191h-54zM275 32c146 0 221 160 221 285c0 99 -48 166 -151 166
c-141 0 -217 -166 -217 -283c0 -86 50 -168 147 -168z" />
    <glyph glyph-name="racute" unicode="&#x155;" horiz-adv-x="340" 
d="M26 0l110 515h53l-10 -47c-3 -15 -5 -25 -14 -61h2c31 72 104 117 187 117c9 0 21 1 32 -2l-11 -52c-9 1 -18 2 -30 2c-105 0 -181 -81 -206 -198l-58 -274h-55zM252 571h-42l95 129h69z" />
    <glyph glyph-name="rcaron" unicode="&#x159;" horiz-adv-x="340" 
d="M26 0l110 515h53l-10 -47c-3 -15 -5 -25 -14 -61h2c31 72 104 117 187 117c9 0 21 1 32 -2l-11 -52c-9 1 -18 2 -30 2c-105 0 -181 -81 -206 -198l-58 -274h-55zM197 700l73 -98l112 98h51l-136 -129h-60l-83 129h43z" />
    <glyph glyph-name="uni0157" unicode="&#x157;" horiz-adv-x="340" 
d="M26 0l110 515h53l-10 -47c-3 -15 -5 -25 -14 -61h2c31 72 104 117 187 117c9 0 21 1 32 -2l-11 -52c-9 1 -18 2 -30 2c-105 0 -181 -81 -206 -198l-58 -274h-55zM9 -50h76l-19 -87c-11 -53 -31 -91 -98 -106l8 40c36 11 47 39 52 64l1 4h-38z" />
    <glyph glyph-name="sacute" unicode="&#x15b;" horiz-adv-x="485" 
d="M16 162h56c0 -96 69 -130 151 -130c85 0 143 32 143 100c0 52 -31 74 -104 101l-55 21c-71 28 -130 48 -130 138c0 81 68 137 183 137c121 0 198 -49 198 -160h-55c0 80 -58 114 -143 114c-79 0 -127 -25 -127 -88c0 -56 44 -71 106 -97l61 -24c66 -26 125 -55 125 -133
c0 -108 -94 -156 -202 -156s-207 45 -207 177zM282 571h-42l95 129h69z" />
    <glyph glyph-name="scircumflex" unicode="&#x15d;" horiz-adv-x="485" 
d="M16 162h56c0 -96 69 -130 151 -130c85 0 143 32 143 100c0 52 -31 74 -104 101l-55 21c-71 28 -130 48 -130 138c0 81 68 137 183 137c121 0 198 -49 198 -160h-55c0 80 -58 114 -143 114c-79 0 -127 -25 -127 -88c0 -56 44 -71 106 -97l61 -24c66 -26 125 -55 125 -133
c0 -108 -94 -156 -202 -156s-207 45 -207 177zM307 669l-112 -98h-51l136 129h60l83 -129h-43z" />
    <glyph glyph-name="scaron" unicode="&#x161;" horiz-adv-x="485" 
d="M16 162h56c0 -96 69 -130 151 -130c85 0 143 32 143 100c0 52 -31 74 -104 101l-55 21c-71 28 -130 48 -130 138c0 81 68 137 183 137c121 0 198 -49 198 -160h-55c0 80 -58 114 -143 114c-79 0 -127 -25 -127 -88c0 -56 44 -71 106 -97l61 -24c66 -26 125 -55 125 -133
c0 -108 -94 -156 -202 -156s-207 45 -207 177zM220 700l73 -98l112 98h51l-136 -129h-60l-83 129h43z" />
    <glyph glyph-name="scedilla" unicode="&#x15f;" horiz-adv-x="485" 
d="M16 162h56c0 -96 69 -130 151 -130c85 0 143 32 143 100c0 52 -31 74 -104 101l-55 21c-71 28 -130 48 -130 138c0 81 68 137 183 137c121 0 198 -49 198 -160h-55c0 80 -58 114 -143 114c-79 0 -127 -25 -127 -88c0 -56 44 -71 106 -97l61 -24c66 -26 125 -55 125 -133
c0 -108 -94 -156 -202 -156s-207 45 -207 177zM167 -51l1 -1c8 1 16 2 24 2c39 0 79 -16 79 -61c0 -53 -49 -74 -101 -74c-29 0 -62 6 -83 18l13 30c13 -7 40 -15 65 -15c28 0 54 11 54 40c0 27 -24 34 -48 34c-14 0 -26 -2 -37 -7l-16 17l56 68h38z" />
    <glyph glyph-name="uni0219" unicode="&#x219;" horiz-adv-x="485" 
d="M16 162h56c0 -96 69 -130 151 -130c85 0 143 32 143 100c0 52 -31 74 -104 101l-55 21c-71 28 -130 48 -130 138c0 81 68 137 183 137c121 0 198 -49 198 -160h-55c0 80 -58 114 -143 114c-79 0 -127 -25 -127 -88c0 -56 44 -71 106 -97l61 -24c66 -26 125 -55 125 -133
c0 -108 -94 -156 -202 -156s-207 45 -207 177zM157 -50h76l-19 -87c-11 -53 -31 -91 -98 -106l8 40c36 11 47 39 52 64l1 4h-38z" />
    <glyph glyph-name="germandbls" unicode="&#xdf;" horiz-adv-x="542" 
d="M26 0l111 520c15 67 37 116 82 149c33 25 77 41 132 41c101 0 175 -51 175 -154c0 -88 -67 -158 -156 -170v-2c75 -16 122 -77 122 -156c0 -146 -125 -236 -265 -236c-15 0 -30 1 -45 4l10 46c11 -3 23 -4 36 -4c105 0 208 70 208 189c0 106 -79 134 -176 134l9 46
c96 0 202 40 202 146c0 71 -51 110 -122 110c-41 0 -74 -12 -98 -32c-33 -28 -49 -67 -60 -119l-110 -512h-55z" />
    <glyph glyph-name="tcaron" unicode="&#x165;" horiz-adv-x="280" 
d="M243 674l-35 -159h105l-10 -47h-105l-76 -357c-2 -10 -3 -19 -3 -27c0 -29 15 -41 55 -41c16 0 24 1 39 2l-10 -47c-15 -1 -23 -2 -39 -2c-67 0 -103 18 -103 74c0 12 2 25 5 40l77 358h-91l10 47h91l35 159h55zM333 700h60l-88 -154h-31z" />
    <glyph glyph-name="tbar" unicode="&#x167;" horiz-adv-x="293" 
d="M257 265h-92l-33 -154c-2 -10 -3 -19 -3 -27c0 -29 15 -41 55 -41c16 0 24 1 39 2l-10 -47c-15 -1 -23 -2 -39 -2c-67 0 -103 18 -103 74c0 12 2 25 5 40l33 155h-89l8 41h90l35 162h-91l10 47h91l35 159h55l-35 -159h105l-10 -47h-105l-35 -162h92z" />
    <glyph glyph-name="uni021B" unicode="&#x21b;" horiz-adv-x="280" 
d="M243 674l-35 -159h105l-10 -47h-105l-76 -357c-2 -10 -3 -19 -3 -27c0 -29 15 -41 55 -41c16 0 24 1 39 2l-10 -47c-15 -1 -23 -2 -39 -2c-67 0 -103 18 -103 74c0 12 2 25 5 40l77 358h-91l10 47h91l35 159h55zM73 -50h76l-19 -87c-11 -53 -31 -91 -98 -106l8 40
c36 11 47 39 52 64l1 4h-38z" />
    <glyph glyph-name="tcommaaccent" unicode="&#x163;" horiz-adv-x="280" 
d="M243 674l-35 -159h105l-10 -47h-105l-76 -357c-2 -10 -3 -19 -3 -27c0 -29 15 -41 55 -41c16 0 24 1 39 2l-10 -47c-15 -1 -23 -2 -39 -2c-67 0 -103 18 -103 74c0 12 2 25 5 40l77 358h-91l10 47h91l35 159h55zM116 -51l1 -1c8 1 16 2 24 2c39 0 79 -16 79 -61
c0 -53 -49 -74 -101 -74c-29 0 -62 6 -83 18l13 30c13 -7 40 -15 65 -15c28 0 54 11 54 40c0 27 -24 34 -48 34c-14 0 -26 -2 -37 -7l-16 17l56 68h38z" />
    <glyph glyph-name="ugrave" unicode="&#xf9;" horiz-adv-x="560" 
d="M536 515l-111 -515h-53l10 47c3 11 6 21 11 46h-2c-35 -65 -95 -107 -182 -107c-104 0 -158 58 -158 138c0 27 4 49 8 69l70 322h56l-69 -313c-5 -23 -9 -46 -9 -69c0 -72 49 -101 114 -101c104 0 175 86 202 211l58 272h55zM334 571l-106 129h68l77 -129h-39z" />
    <glyph glyph-name="uacute" unicode="&#xfa;" horiz-adv-x="560" 
d="M536 515l-111 -515h-53l10 47c3 11 6 21 11 46h-2c-35 -65 -95 -107 -182 -107c-104 0 -158 58 -158 138c0 27 4 49 8 69l70 322h56l-69 -313c-5 -23 -9 -46 -9 -69c0 -72 49 -101 114 -101c104 0 175 86 202 211l58 272h55zM335 571h-42l95 129h69z" />
    <glyph glyph-name="ucircumflex" unicode="&#xfb;" horiz-adv-x="560" 
d="M536 515l-111 -515h-53l10 47c3 11 6 21 11 46h-2c-35 -65 -95 -107 -182 -107c-104 0 -158 58 -158 138c0 27 4 49 8 69l70 322h56l-69 -313c-5 -23 -9 -46 -9 -69c0 -72 49 -101 114 -101c104 0 175 86 202 211l58 272h55zM365 669l-112 -98h-51l136 129h60l83 -129
h-43z" />
    <glyph glyph-name="utilde" unicode="&#x169;" horiz-adv-x="560" 
d="M536 515l-111 -515h-53l10 47c3 11 6 21 11 46h-2c-35 -65 -95 -107 -182 -107c-104 0 -158 58 -158 138c0 27 4 49 8 69l70 322h56l-69 -313c-5 -23 -9 -46 -9 -69c0 -72 49 -101 114 -101c104 0 175 86 202 211l58 272h55zM222 611h-33c7 47 34 91 89 91
c28 0 52 -11 73 -22l10 -5c20 -9 36 -17 53 -17c33 0 47 23 55 48h33c-7 -45 -34 -91 -89 -91c-28 0 -50 11 -73 22l-10 5c-20 11 -36 17 -53 17c-33 0 -47 -21 -55 -48z" />
    <glyph glyph-name="udieresis" unicode="&#xfc;" horiz-adv-x="560" 
d="M536 515l-111 -515h-53l10 47c3 11 6 21 11 46h-2c-35 -65 -95 -107 -182 -107c-104 0 -158 58 -158 138c0 27 4 49 8 69l70 322h56l-69 -313c-5 -23 -9 -46 -9 -69c0 -72 49 -101 114 -101c104 0 175 86 202 211l58 272h55zM461 604h-51l21 96h51zM288 604h-51l21 96h51
z" />
    <glyph glyph-name="umacron" unicode="&#x16b;" horiz-adv-x="560" 
d="M536 515l-111 -515h-53l10 47c3 11 6 21 11 46h-2c-35 -65 -95 -107 -182 -107c-104 0 -158 58 -158 138c0 27 4 49 8 69l70 322h56l-69 -313c-5 -23 -9 -46 -9 -69c0 -72 49 -101 114 -101c104 0 175 86 202 211l58 272h55zM503 629h-293l9 40h293z" />
    <glyph glyph-name="ubreve" unicode="&#x16d;" horiz-adv-x="560" 
d="M536 515l-111 -515h-53l10 47c3 11 6 21 11 46h-2c-35 -65 -95 -107 -182 -107c-104 0 -158 58 -158 138c0 27 4 49 8 69l70 322h56l-69 -313c-5 -23 -9 -46 -9 -69c0 -72 49 -101 114 -101c104 0 175 86 202 211l58 272h55zM352 578c-75 0 -133 49 -141 110l40 12
c11 -57 55 -81 106 -81c55 0 97 31 124 79l38 -11c-31 -72 -90 -109 -167 -109z" />
    <glyph glyph-name="uring" unicode="&#x16f;" horiz-adv-x="560" 
d="M536 515l-111 -515h-53l10 47c3 11 6 21 11 46h-2c-35 -65 -95 -107 -182 -107c-104 0 -158 58 -158 138c0 27 4 49 8 69l70 322h56l-69 -313c-5 -23 -9 -46 -9 -69c0 -72 49 -101 114 -101c104 0 175 86 202 211l58 272h55zM260 639c0 47 38 84 83 84
c47 0 84 -37 84 -84c0 -45 -37 -83 -84 -83c-45 0 -83 38 -83 83zM289 639c0 -29 25 -54 54 -54c31 0 55 25 55 54c0 31 -24 55 -55 55c-29 0 -54 -24 -54 -55z" />
    <glyph glyph-name="uhungarumlaut" unicode="&#x171;" horiz-adv-x="560" 
d="M536 515l-111 -515h-53l10 47c3 11 6 21 11 46h-2c-35 -65 -95 -107 -182 -107c-104 0 -158 58 -158 138c0 27 4 49 8 69l70 322h56l-69 -313c-5 -23 -9 -46 -9 -69c0 -72 49 -101 114 -101c104 0 175 86 202 211l58 272h55zM402 571h-42l114 129h69zM264 571h-42l95 129
h69z" />
    <glyph glyph-name="uogonek" unicode="&#x173;" horiz-adv-x="560" 
d="M536 515l-111 -515h-53l10 47c3 11 6 21 11 46h-2c-35 -65 -95 -107 -182 -107c-104 0 -158 58 -158 138c0 27 4 49 8 69l70 322h56l-69 -313c-5 -23 -9 -46 -9 -69c0 -72 49 -101 114 -101c104 0 175 86 202 211l58 272h55zM391 0h34c-65 -52 -85 -82 -85 -111
c0 -27 18 -43 41 -43s38 12 54 36l26 -12c-19 -33 -43 -60 -94 -60c-48 0 -77 31 -77 70c0 47 49 88 101 120z" />
    <glyph glyph-name="wcircumflex" unicode="&#x175;" horiz-adv-x="740" 
d="M121 0l-56 515h58l22 -260c5 -61 13 -145 16 -201h2l99 202l129 259h68l19 -260c4 -57 9 -132 12 -201h2c35 71 70 140 102 201l134 260h58l-275 -515h-62l-20 258c-5 81 -11 138 -14 202h-2c-27 -58 -59 -125 -98 -202l-132 -258h-62zM453 669l-112 -98h-51l136 129h60
l83 -129h-43z" />
    <glyph glyph-name="wgrave" unicode="&#x1e81;" horiz-adv-x="740" 
d="M121 0l-56 515h58l22 -260c5 -61 13 -145 16 -201h2l99 202l129 259h68l19 -260c4 -57 9 -132 12 -201h2c35 71 70 140 102 201l134 260h58l-275 -515h-62l-20 258c-5 81 -11 138 -14 202h-2c-27 -58 -59 -125 -98 -202l-132 -258h-62zM421 571l-106 129h68l77 -129h-39z
" />
    <glyph glyph-name="wacute" unicode="&#x1e83;" horiz-adv-x="740" 
d="M121 0l-56 515h58l22 -260c5 -61 13 -145 16 -201h2l99 202l129 259h68l19 -260c4 -57 9 -132 12 -201h2c35 71 70 140 102 201l134 260h58l-275 -515h-62l-20 258c-5 81 -11 138 -14 202h-2c-27 -58 -59 -125 -98 -202l-132 -258h-62zM449 571h-42l95 129h69z" />
    <glyph glyph-name="wdieresis" unicode="&#x1e85;" horiz-adv-x="740" 
d="M121 0l-56 515h58l22 -260c5 -61 13 -145 16 -201h2l99 202l129 259h68l19 -260c4 -57 9 -132 12 -201h2c35 71 70 140 102 201l134 260h58l-275 -515h-62l-20 258c-5 81 -11 138 -14 202h-2c-27 -58 -59 -125 -98 -202l-132 -258h-62zM551 604h-51l21 96h51zM378 604
h-51l21 96h51z" />
    <glyph glyph-name="ygrave" unicode="&#x1ef3;" horiz-adv-x="464" 
d="M155 1l-95 514h58l43 -253c8 -49 23 -126 32 -197h2c36 69 74 134 107 193l146 257h61l-346 -589c-45 -77 -76 -103 -160 -103c-11 0 -23 1 -34 3l9 46c10 -2 22 -3 35 -3c59 0 77 21 116 88zM285 571l-106 129h68l77 -129h-39z" />
    <glyph glyph-name="yacute" unicode="&#xfd;" horiz-adv-x="464" 
d="M155 1l-95 514h58l43 -253c8 -49 23 -126 32 -197h2c36 69 74 134 107 193l146 257h61l-346 -589c-45 -77 -76 -103 -160 -103c-11 0 -23 1 -34 3l9 46c10 -2 22 -3 35 -3c59 0 77 21 116 88zM286 571h-42l95 129h69z" />
    <glyph glyph-name="ycircumflex" unicode="&#x177;" horiz-adv-x="464" 
d="M155 1l-95 514h58l43 -253c8 -49 23 -126 32 -197h2c36 69 74 134 107 193l146 257h61l-346 -589c-45 -77 -76 -103 -160 -103c-11 0 -23 1 -34 3l9 46c10 -2 22 -3 35 -3c59 0 77 21 116 88zM309 669l-112 -98h-51l136 129h60l83 -129h-43z" />
    <glyph glyph-name="ydieresis" unicode="&#xff;" horiz-adv-x="464" 
d="M155 1l-95 514h58l43 -253c8 -49 23 -126 32 -197h2c36 69 74 134 107 193l146 257h61l-346 -589c-45 -77 -76 -103 -160 -103c-11 0 -23 1 -34 3l9 46c10 -2 22 -3 35 -3c59 0 77 21 116 88zM402 604h-51l21 96h51zM229 604h-51l21 96h51z" />
    <glyph glyph-name="zacute" unicode="&#x17a;" horiz-adv-x="468" 
d="M477 475l-427 -428h360l-10 -47h-426l10 47l420 421h-319l10 47h390zM295 571h-42l95 129h69z" />
    <glyph glyph-name="zcaron" unicode="&#x17e;" horiz-adv-x="468" 
d="M477 475l-427 -428h360l-10 -47h-426l10 47l420 421h-319l10 47h390zM214 700l73 -98l112 98h51l-136 -129h-60l-83 129h43z" />
    <glyph glyph-name="zdotaccent" unicode="&#x17c;" horiz-adv-x="468" 
d="M477 475l-427 -428h360l-10 -47h-426l10 47l420 421h-319l10 47h390zM303 604h-49l21 96h49z" />
    <glyph glyph-name="uni0259" unicode="&#x259;" horiz-adv-x="551" 
d="M44 270h410c2 13 3 26 3 37c0 91 -41 175 -154 175c-93 0 -161 -57 -184 -133h-57c33 111 122 180 241 180c69 0 120 -21 155 -62s53 -94 53 -159c0 -164 -92 -323 -264 -323c-146 0 -208 98 -208 218c0 23 2 44 5 67zM446 224h-350c-1 -9 -1 -17 -1 -26
c0 -87 44 -167 152 -167c114 0 183 92 199 193z" />
    <glyph glyph-name="fi" unicode="&#xfb01;" horiz-adv-x="472" 
d="M313 515l-10 -47h-102l-100 -468h-55l100 468h-89l10 47h89l9 42c12 51 21 94 49 118c23 19 54 27 94 27c21 0 40 -1 56 -4l-10 -46c-13 2 -26 3 -41 3c-29 0 -47 -5 -60 -16c-21 -17 -25 -44 -34 -87l-8 -37h102zM412 604l20 96h55l-20 -96h-55zM282 0l110 515h56
l-111 -515h-55z" />
    <glyph glyph-name="fl" unicode="&#xfb02;" horiz-adv-x="474" 
d="M313 515l-10 -47h-102l-100 -468h-55l100 468h-89l10 47h89l9 42c12 51 21 94 49 118c23 19 54 27 94 27c21 0 40 -1 56 -4l-10 -46c-13 2 -26 3 -41 3c-29 0 -47 -5 -60 -16c-21 -17 -25 -44 -34 -87l-8 -37h102zM434 700h55l-150 -700h-55z" />
    <glyph glyph-name="uniFB00" unicode="&#xfb00;" horiz-adv-x="505" 
d="M282 0l100 468h-181l-100 -468h-55l100 468h-89l10 47h89l9 42c12 51 21 94 49 118c23 19 54 27 94 27c21 0 40 -1 56 -4l-10 -46c-13 2 -26 3 -41 3c-29 0 -47 -5 -60 -16c-21 -17 -25 -44 -34 -87l-8 -37h181l9 42c12 51 21 94 49 118c23 19 54 27 94 27
c21 0 40 -1 56 -4l-10 -46c-13 2 -26 3 -41 3c-29 0 -47 -5 -60 -16c-21 -17 -25 -44 -34 -87l-8 -37h102l-10 -47h-102l-100 -468h-55z" />
    <glyph glyph-name="uniFB03" unicode="&#xfb03;" horiz-adv-x="709" 
d="M282 0l100 468h-181l-100 -468h-55l100 468h-89l10 47h89l9 42c12 51 21 94 49 118c23 19 54 27 94 27c21 0 40 -1 56 -4l-10 -46c-13 2 -26 3 -41 3c-29 0 -47 -5 -60 -16c-21 -17 -25 -44 -34 -87l-8 -37h181l9 42c12 51 21 94 49 118c23 19 54 27 94 27
c21 0 40 -1 56 -4l-10 -46c-13 2 -26 3 -41 3c-29 0 -47 -5 -60 -16c-21 -17 -25 -44 -34 -87l-8 -37h102l-10 -47h-102l-100 -468h-55zM649 605l20 96h55l-20 -96h-55zM519 1l110 515h56l-111 -515h-55z" />
    <glyph glyph-name="uniFB04" unicode="&#xfb04;" horiz-adv-x="709" 
d="M282 0l100 468h-181l-100 -468h-55l100 468h-89l10 47h89l9 42c12 51 21 94 49 118c23 19 54 27 94 27c21 0 40 -1 56 -4l-10 -46c-13 2 -26 3 -41 3c-29 0 -47 -5 -60 -16c-21 -17 -25 -44 -34 -87l-8 -37h181l9 42c12 51 21 94 49 118c23 19 54 27 94 27
c21 0 40 -1 56 -4l-10 -46c-13 2 -26 3 -41 3c-29 0 -47 -5 -60 -16c-21 -17 -25 -44 -34 -87l-8 -37h102l-10 -47h-102l-100 -468h-55zM669 700h55l-150 -700h-55z" />
    <glyph glyph-name="acute" unicode="&#xb4;" horiz-adv-x="179" 
d="M117 571h-42l95 129h69z" />
    <glyph glyph-name="grave" unicode="`" horiz-adv-x="179" 
d="M146 571l-106 129h68l77 -129h-39z" />
    <glyph glyph-name="circumflex" unicode="&#x2c6;" horiz-adv-x="185" 
d="M147 669l-112 -98h-51l136 129h60l83 -129h-43z" />
    <glyph glyph-name="tilde" unicode="&#x2dc;" horiz-adv-x="185" 
d="M-32 611h-33c7 47 34 91 89 91c28 0 52 -11 73 -22l10 -5c20 -9 36 -17 53 -17c33 0 47 23 55 48h33c-7 -45 -34 -91 -89 -91c-28 0 -50 11 -73 22l-10 5c-20 11 -36 17 -53 17c-33 0 -47 -21 -55 -48z" />
    <glyph glyph-name="breve" unicode="&#x2d8;" horiz-adv-x="185" 
d="M89 578c-75 0 -133 49 -141 110l40 12c11 -57 55 -81 106 -81c55 0 97 31 124 79l38 -11c-31 -72 -90 -109 -167 -109z" />
    <glyph glyph-name="dotaccent" unicode="&#x2d9;" horiz-adv-x="185" 
d="M107 604h-49l21 96h49z" />
    <glyph glyph-name="dieresis" unicode="&#xa8;" horiz-adv-x="185" 
d="M243 604h-51l21 96h51zM70 604h-51l21 96h51z" />
    <glyph glyph-name="ring" unicode="&#x2da;" horiz-adv-x="185" 
d="M11 639c0 47 38 84 83 84c47 0 84 -37 84 -84c0 -45 -37 -83 -84 -83c-45 0 -83 38 -83 83zM40 639c0 -29 25 -54 54 -54c31 0 55 25 55 54c0 31 -24 55 -55 55c-29 0 -54 -24 -54 -55z" />
    <glyph glyph-name="hungarumlaut" unicode="&#x2dd;" horiz-adv-x="185" 
d="M135 571h-42l114 129h69zM-3 571h-42l95 129h69z" />
    <glyph glyph-name="caron" unicode="&#x2c7;" horiz-adv-x="185" 
d="M16 700l73 -98l112 98h51l-136 -129h-60l-83 129h43z" />
    <glyph glyph-name="cedilla" unicode="&#xb8;" horiz-adv-x="207" 
d="M84 -51l1 -1c8 1 16 2 24 2c39 0 79 -16 79 -61c0 -53 -49 -74 -101 -74c-29 0 -62 6 -83 18l13 30c13 -7 40 -15 65 -15c28 0 54 11 54 40c0 27 -24 34 -48 34c-14 0 -26 -2 -37 -7l-16 17l56 68h38z" />
    <glyph glyph-name="overscore" unicode="&#xaf;" horiz-adv-x="185" 
d="M240 629h-293l9 40h293z" />
    <glyph glyph-name="ogonek" unicode="&#x2db;" horiz-adv-x="185" 
d="M119 0h34c-65 -52 -85 -82 -85 -111c0 -27 18 -43 41 -43s38 12 54 36l26 -12c-19 -33 -43 -60 -94 -60c-48 0 -77 31 -77 70c0 47 49 88 101 120z" />
    <glyph glyph-name="acute.case" horiz-adv-x="316" 
d="M252 746h-42l95 129h69z" />
    <glyph glyph-name="grave.case" horiz-adv-x="204" 
d="M275 746l-106 129h68l77 -129h-39z" />
    <glyph glyph-name="circumflex.case" horiz-adv-x="237" 
d="M236 844l-112 -98h-51l136 129h60l83 -129h-43z" />
    <glyph glyph-name="tilde.case" horiz-adv-x="255" 
d="M110 760h-33c7 47 34 91 89 91c28 0 52 -11 73 -22l10 -5c20 -9 36 -17 53 -17c33 0 47 23 55 48h33c-7 -45 -34 -91 -89 -91c-28 0 -50 11 -73 22l-10 5c-20 11 -36 17 -53 17c-33 0 -47 -21 -55 -48z" />
    <glyph glyph-name="breve.case" horiz-adv-x="252" 
d="M218 745c-75 0 -133 49 -141 110l40 12c11 -57 55 -81 106 -81c55 0 97 31 124 79l38 -11c-31 -72 -90 -109 -167 -109z" />
    <glyph glyph-name="dotaccent.case" horiz-adv-x="189" 
d="M198 771h-49l21 96h49z" />
    <glyph glyph-name="dieresis.case" horiz-adv-x="228" 
d="M256 773h-51l21 96h51zM83 773h-52l21 96h52z" />
    <glyph glyph-name="ring.case" horiz-adv-x="204" 
d="M221 730c-45 0 -83 38 -83 83c0 47 38 84 83 84c47 0 84 -37 84 -84c0 -45 -37 -83 -84 -83zM167 813c0 -29 25 -54 54 -54c31 0 55 25 55 54c0 31 -24 55 -55 55c-29 0 -54 -24 -54 -55z" />
    <glyph glyph-name="hungarumlaut.case" horiz-adv-x="257" 
d="M252 746h-42l114 129h69zM114 746h-42l95 129h69z" />
    <glyph glyph-name="caron.case" horiz-adv-x="237" 
d="M156 875l73 -98l112 98h51l-136 -129h-60l-83 129h43z" />
    <glyph glyph-name="macron.case" horiz-adv-x="234" 
d="M358 775h-294l9 40h294z" />
    <glyph glyph-name="uni0312" unicode="&#x312;" horiz-adv-x="207" 
d="M145 557h-76l19 87c11 55 33 93 98 106l-8 -40c-36 -11 -45 -37 -52 -64l-1 -4h38z" />
    <glyph glyph-name="uni0313" unicode="&#x313;" horiz-adv-x="234" 
d="M60 700h60l-88 -154h-31z" />
    <glyph glyph-name="uni0326" unicode="&#x326;" horiz-adv-x="207" 
d="M90 -50h76l-19 -87c-11 -53 -31 -91 -98 -106l8 40c36 11 47 39 52 64l1 4h-38z" />
    <glyph glyph-name="zero.zero" horiz-adv-x="584" 
d="M254 -15c-150 0 -190 134 -190 255c0 174 87 472 301 472c146 0 197 -111 197 -240c0 -183 -82 -487 -308 -487zM119 227c0 -36 5 -73 16 -104l334 496c-21 28 -56 45 -107 45c-167 0 -243 -267 -243 -437zM508 477c0 36 -4 72 -15 101l-335 -498c23 -28 56 -47 104 -47
c181 0 246 293 246 444z" />
    <glyph glyph-name="zero" unicode="0" horiz-adv-x="584" 
d="M254 -15c-150 0 -190 134 -190 255c0 174 87 472 301 472c146 0 197 -111 197 -240c0 -183 -82 -487 -308 -487zM507 477c0 99 -30 187 -146 187c-167 0 -243 -267 -243 -437c0 -96 33 -194 143 -194c181 0 246 293 246 444z" />
    <glyph glyph-name="one" unicode="1" horiz-adv-x="346" 
d="M72 524l9 39c108 6 184 12 224 137h43l-146 -700h-56l110 524h-184z" />
    <glyph glyph-name="two" unicode="2" horiz-adv-x="541" 
d="M155 465h-55c6 143 102 245 234 245c115 0 202 -65 202 -181c0 -123 -89 -188 -191 -246l-62 -35c-93 -52 -188 -110 -210 -196h391l-9 -52h-446c8 147 125 218 239 284l54 30c106 60 179 109 179 215c0 86 -67 134 -147 134c-110 0 -173 -90 -179 -198z" />
    <glyph glyph-name="three" unicode="3" horiz-adv-x="557" 
d="M36 222h54c-1 -8 -1 -16 -1 -23c0 -108 59 -168 160 -168c105 0 191 66 191 178c0 95 -68 138 -153 138h-45l9 47h31c93 0 202 25 202 145c0 82 -67 126 -143 126c-101 0 -168 -71 -181 -182h-54c17 137 100 229 236 229c105 0 196 -57 196 -172
c0 -93 -65 -159 -150 -171v-2c67 -19 106 -82 106 -153c0 -147 -115 -229 -244 -229c-137 0 -215 73 -215 216c0 8 1 14 1 21z" />
    <glyph glyph-name="four" unicode="4" horiz-adv-x="525" 
d="M5 172l11 58l420 470h51l-100 -480h105l-10 -48h-105l-36 -172h-49l36 172h-323zM61 220h277l48 231c13 64 26 116 39 172h-3c-47 -53 -93 -103 -134 -150z" />
    <glyph glyph-name="five" unicode="5" horiz-adv-x="540" 
d="M73 334l118 366h353l-13 -53h-307l-80 -240c1 -1 1 -1 2 -1c36 40 93 60 150 60c119 0 199 -84 199 -205c0 -158 -102 -274 -257 -274c-114 0 -205 66 -205 193c0 7 1 12 1 19h53c-1 -7 -1 -11 -1 -18c0 -83 55 -147 152 -147c134 0 203 105 203 222
c0 100 -58 163 -154 163c-65 0 -132 -26 -163 -85h-51z" />
    <glyph glyph-name="six" unicode="6" horiz-adv-x="569" 
d="M561 532h-54c0 91 -51 133 -135 133c-160 0 -217 -194 -244 -314h3c39 69 106 106 187 106c120 0 198 -85 198 -209c0 -147 -97 -263 -247 -263c-140 0 -207 95 -207 244c0 176 84 483 310 483c116 0 189 -59 189 -180zM275 31c126 0 187 110 187 223
c0 101 -69 157 -162 157c-111 0 -183 -104 -183 -209c0 -95 60 -171 158 -171z" />
    <glyph glyph-name="seven" unicode="7" horiz-adv-x="471" 
d="M95 647l11 53h443l-11 -53c-107 -93 -333 -320 -418 -647h-61c70 242 180 429 414 646v1h-378z" />
    <glyph glyph-name="eight" unicode="8" horiz-adv-x="569" 
d="M388 372c79 -21 118 -89 118 -172c0 -140 -115 -214 -244 -214c-115 0 -220 64 -220 196c0 117 81 189 187 203v2c-60 19 -101 77 -101 138c0 122 93 188 210 188c101 0 202 -50 202 -170c0 -88 -65 -158 -152 -170v-1zM338 666c-89 0 -156 -47 -156 -138
c0 -84 61 -127 145 -127c88 0 159 47 159 139c0 87 -70 126 -148 126zM277 353c-97 0 -181 -64 -181 -170c0 -101 79 -149 171 -149c111 0 185 63 185 166c0 107 -82 153 -175 153z" />
    <glyph glyph-name="nine" unicode="9" horiz-adv-x="567" 
d="M47 167h54c0 -89 51 -131 135 -131c160 0 217 190 244 310h-3c-37 -68 -106 -103 -187 -103c-120 0 -198 85 -198 205c0 148 98 264 247 264c140 0 207 -96 207 -244c0 -174 -84 -479 -310 -479c-116 0 -189 59 -189 178zM333 666c-125 0 -187 -111 -187 -224
c0 -97 69 -153 162 -153c112 0 183 103 183 205c0 97 -60 172 -158 172z" />
    <glyph glyph-name="zero.osf.zero" horiz-adv-x="579" 
d="M557 458c0 -177 -82 -472 -308 -472c-150 0 -190 129 -190 244c0 170 87 460 301 460c146 0 197 -107 197 -232zM113 218c0 -36 5 -73 18 -104l331 491c-23 25 -57 40 -105 40c-168 0 -244 -262 -244 -427zM503 464c0 37 -5 73 -17 102l-330 -492c23 -25 54 -42 101 -42
c181 0 246 286 246 432z" />
    <glyph glyph-name="zero.osf" horiz-adv-x="579" 
d="M557 458c0 -177 -82 -472 -308 -472c-150 0 -190 129 -190 244c0 170 87 460 301 460c146 0 197 -107 197 -232zM503 464c0 96 -30 181 -146 181c-168 0 -244 -262 -244 -427c0 -90 34 -186 144 -186c181 0 246 286 246 432z" />
    <glyph glyph-name="one.osf" horiz-adv-x="344" 
d="M69 509l9 39c108 4 183 10 224 134h43l-145 -682h-56l109 509h-184z" />
    <glyph glyph-name="two.osf" horiz-adv-x="534" 
d="M150 452h-55c6 139 102 237 234 237c115 0 202 -63 202 -176c0 -117 -89 -179 -191 -235l-62 -34c-93 -50 -188 -110 -210 -193h391l-9 -51h-446c8 145 125 215 239 279l54 30c105 58 179 105 179 204c0 84 -67 130 -147 130c-110 0 -173 -87 -179 -191z" />
    <glyph glyph-name="three.osf" horiz-adv-x="552" 
d="M32 218h54c-1 -7 -1 -13 -1 -20c0 -107 59 -166 160 -166c105 0 191 64 191 172c0 93 -68 135 -153 135h-45l9 46h31c93 0 202 22 202 134c0 82 -67 127 -143 127c-101 0 -169 -68 -181 -176h-54c16 135 100 222 236 222c105 0 196 -57 196 -172
c0 -87 -65 -147 -150 -159v-2c67 -19 106 -79 106 -150c0 -142 -115 -222 -244 -222c-137 0 -215 72 -215 213c0 7 1 13 1 18z" />
    <glyph glyph-name="four.osf" horiz-adv-x="519" 
d="M1 163l11 57l420 462h51l-100 -472h105l-10 -47h-105l-35 -163h-49l35 163h-323zM57 210h277l48 227c13 63 26 114 39 170h-3c-47 -53 -93 -101 -134 -148z" />
    <glyph glyph-name="five.osf" horiz-adv-x="535" 
d="M69 328l116 354h353l-12 -52h-307l-79 -231l2 -1c36 40 93 60 150 60c119 0 199 -81 199 -202c0 -155 -102 -269 -257 -269c-114 0 -205 65 -205 189c0 7 1 13 1 20h53c-1 -7 -1 -12 -1 -19c0 -81 55 -144 152 -144c134 0 203 104 203 218c0 99 -58 161 -154 161
c-65 0 -132 -25 -163 -84h-51z" />
    <glyph glyph-name="six.osf" horiz-adv-x="562" 
d="M558 518h-54c0 87 -51 127 -135 127c-160 0 -218 -184 -244 -300h3c39 68 106 104 187 104c120 0 198 -80 198 -198c0 -144 -97 -259 -247 -259c-140 0 -207 95 -207 240c0 166 84 459 310 459c116 0 189 -57 189 -173zM272 37c126 0 187 110 187 220
c0 95 -69 147 -162 147c-111 0 -183 -99 -183 -198c0 -94 60 -169 158 -169z" />
    <glyph glyph-name="seven.osf" horiz-adv-x="476" 
d="M94 630l11 52h443l-11 -52c-107 -91 -333 -311 -418 -630h-61c70 235 182 415 414 629v1h-378z" />
    <glyph glyph-name="eight.osf" horiz-adv-x="563" 
d="M384 364c79 -21 118 -86 118 -165c0 -138 -115 -211 -244 -211c-115 0 -220 63 -220 193c0 113 81 182 187 196v2c-60 19 -101 73 -101 132c0 116 93 179 210 179c101 0 202 -47 202 -161c0 -86 -65 -152 -152 -164v-1zM334 644c-89 0 -156 -43 -156 -130
c0 -80 61 -122 145 -122c88 0 159 46 159 134c0 82 -70 118 -148 118zM273 345c-97 0 -181 -61 -181 -163c0 -100 79 -149 171 -149c111 0 185 63 185 166c0 104 -82 146 -175 146z" />
    <glyph glyph-name="nine.osf" horiz-adv-x="562" 
d="M42 165h54c0 -87 51 -127 135 -127c160 0 217 185 244 300h-3c-39 -68 -106 -104 -187 -104c-120 0 -198 83 -198 202c0 143 98 255 247 255c140 0 207 -92 207 -236c0 -168 -84 -463 -310 -463c-116 0 -189 57 -189 173zM328 646c-125 0 -187 -108 -187 -216
c0 -97 69 -151 162 -151c112 0 183 102 183 202c0 93 -60 165 -158 165z" />
    <glyph glyph-name="zero.tf.zero" 
d="M292 -15c-150 0 -190 134 -190 255c0 174 87 472 301 472c146 0 197 -111 197 -240c0 -183 -82 -487 -308 -487zM157 227c0 -36 5 -73 16 -104l334 496c-21 28 -56 45 -107 45c-167 0 -243 -267 -243 -437zM546 477c0 36 -4 72 -15 101l-335 -498c23 -28 56 -47 104 -47
c181 0 246 293 246 444z" />
    <glyph glyph-name="zero.tf" 
d="M292 -15c-150 0 -190 134 -190 255c0 174 87 472 301 472c146 0 197 -111 197 -240c0 -183 -82 -487 -308 -487zM545 477c0 99 -30 187 -146 187c-167 0 -243 -267 -243 -437c0 -96 33 -194 143 -194c181 0 246 293 246 444z" />
    <glyph glyph-name="one.tf" 
d="M229 524l9 39c108 6 184 12 224 137h43l-146 -700h-56l110 524h-184z" />
    <glyph glyph-name="two.tf" 
d="M214 465h-55c6 143 102 245 234 245c115 0 202 -65 202 -181c0 -123 -89 -188 -191 -246l-62 -35c-93 -52 -188 -110 -210 -196h391l-9 -52h-446c8 147 125 218 239 284l54 30c106 60 179 109 179 215c0 86 -67 134 -147 134c-110 0 -173 -90 -179 -198z" />
    <glyph glyph-name="three.tf" 
d="M88 222h54c-1 -8 -1 -16 -1 -23c0 -108 59 -168 160 -168c105 0 191 66 191 178c0 95 -68 138 -153 138h-45l9 47h31c93 0 202 25 202 145c0 82 -67 126 -143 126c-101 0 -168 -71 -181 -182h-54c17 137 100 229 236 229c105 0 196 -57 196 -172
c0 -93 -65 -159 -150 -171v-2c67 -19 106 -82 106 -153c0 -147 -115 -229 -244 -229c-137 0 -215 73 -215 216c0 8 1 14 1 21z" />
    <glyph glyph-name="four.tf" 
d="M72 172l11 58l420 470h51l-100 -480h105l-10 -48h-105l-36 -172h-49l36 172h-323zM128 220h277l48 231c13 64 26 116 39 172h-3c-47 -53 -93 -103 -134 -150z" />
    <glyph glyph-name="five.tf" 
d="M133 334l118 366h353l-13 -53h-307l-80 -240c1 -1 1 -1 2 -1c36 40 93 60 150 60c119 0 199 -84 199 -205c0 -158 -102 -274 -257 -274c-114 0 -205 66 -205 193c0 7 1 12 1 19h53c-1 -7 -1 -11 -1 -18c0 -83 55 -147 152 -147c134 0 203 105 203 222
c0 100 -58 163 -154 163c-65 0 -132 -26 -163 -85h-51z" />
    <glyph glyph-name="six.tf" 
d="M607 532h-54c0 91 -51 133 -135 133c-160 0 -217 -194 -244 -314h3c39 69 106 106 187 106c120 0 198 -85 198 -209c0 -147 -97 -263 -247 -263c-140 0 -207 95 -207 244c0 176 84 483 310 483c116 0 189 -59 189 -180zM321 31c126 0 187 110 187 223
c0 101 -69 157 -162 157c-111 0 -183 -104 -183 -209c0 -95 60 -171 158 -171z" />
    <glyph glyph-name="seven.tf" 
d="M189 647l11 53h443l-11 -53c-107 -93 -333 -320 -418 -647h-61c70 242 180 429 414 646v1h-378z" />
    <glyph glyph-name="eight.tf" 
d="M434 372c79 -21 118 -89 118 -172c0 -140 -115 -214 -244 -214c-115 0 -220 64 -220 196c0 117 81 189 187 203v2c-60 19 -101 77 -101 138c0 122 93 188 210 188c101 0 202 -50 202 -170c0 -88 -65 -158 -152 -170v-1zM384 666c-89 0 -156 -47 -156 -138
c0 -84 61 -127 145 -127c88 0 159 47 159 139c0 87 -70 126 -148 126zM323 353c-97 0 -181 -64 -181 -170c0 -101 79 -149 171 -149c111 0 185 63 185 166c0 107 -82 153 -175 153z" />
    <glyph glyph-name="nine.tf" 
d="M93 167h54c0 -89 51 -131 135 -131c160 0 217 190 244 310h-3c-37 -68 -106 -103 -187 -103c-120 0 -198 85 -198 205c0 148 98 264 247 264c140 0 207 -96 207 -244c0 -174 -84 -479 -310 -479c-116 0 -189 59 -189 178zM379 666c-125 0 -187 -111 -187 -224
c0 -97 69 -153 162 -153c112 0 183 103 183 205c0 97 -60 172 -158 172z" />
    <glyph glyph-name="zero.tosf.zero" 
d="M597 458c0 -177 -82 -472 -308 -472c-150 0 -190 129 -190 244c0 170 87 460 301 460c146 0 197 -107 197 -232zM153 218c0 -36 5 -73 18 -104l331 491c-23 25 -57 40 -105 40c-168 0 -244 -262 -244 -427zM543 464c0 37 -5 73 -17 102l-330 -492c23 -25 54 -42 101 -42
c181 0 246 286 246 432z" />
    <glyph glyph-name="zero.tosf" 
d="M597 458c0 -177 -82 -472 -308 -472c-150 0 -190 129 -190 244c0 170 87 460 301 460c146 0 197 -107 197 -232zM543 464c0 96 -30 181 -146 181c-168 0 -244 -262 -244 -427c0 -90 34 -186 144 -186c181 0 246 286 246 432z" />
    <glyph glyph-name="one.tosf" 
d="M227 509l9 39c108 4 183 10 224 134h43l-145 -682h-56l109 509h-184z" />
    <glyph glyph-name="two.tosf" 
d="M213 452h-55c6 139 102 237 234 237c115 0 202 -63 202 -176c0 -117 -89 -179 -191 -235l-62 -34c-93 -50 -188 -110 -210 -193h391l-9 -51h-446c8 145 125 215 239 279l54 30c105 58 179 105 179 204c0 84 -67 130 -147 130c-110 0 -173 -87 -179 -191z" />
    <glyph glyph-name="three.tosf" 
d="M86 218h54c-1 -7 -1 -13 -1 -20c0 -107 59 -166 160 -166c105 0 191 64 191 172c0 93 -68 135 -153 135h-45l9 46h31c93 0 202 22 202 134c0 82 -67 127 -143 127c-101 0 -169 -68 -181 -176h-54c16 135 100 222 236 222c105 0 196 -57 196 -172
c0 -87 -65 -147 -150 -159v-2c67 -19 106 -79 106 -150c0 -142 -115 -222 -244 -222c-137 0 -215 72 -215 213c0 7 1 13 1 18z" />
    <glyph glyph-name="four.tosf" 
d="M71 163l11 57l420 462h51l-100 -472h105l-10 -47h-105l-35 -163h-49l35 163h-323zM127 210h277l48 227c13 63 26 114 39 170h-3c-47 -53 -93 -101 -134 -148z" />
    <glyph glyph-name="five.tosf" 
d="M131 328l116 354h353l-12 -52h-307l-79 -231l2 -1c36 40 93 60 150 60c119 0 199 -81 199 -202c0 -155 -102 -269 -257 -269c-114 0 -205 65 -205 189c0 7 1 13 1 20h53c-1 -7 -1 -12 -1 -19c0 -81 55 -144 152 -144c134 0 203 104 203 218c0 99 -58 161 -154 161
c-65 0 -132 -25 -163 -84h-51z" />
    <glyph glyph-name="six.tosf" 
d="M607 518h-54c0 87 -51 127 -135 127c-160 0 -218 -184 -244 -300h3c39 68 106 104 187 104c120 0 198 -80 198 -198c0 -144 -97 -259 -247 -259c-140 0 -207 95 -207 240c0 166 84 459 310 459c116 0 189 -57 189 -173zM321 37c126 0 187 110 187 220
c0 95 -69 147 -162 147c-111 0 -183 -99 -183 -198c0 -94 60 -169 158 -169z" />
    <glyph glyph-name="seven.tosf" 
d="M186 630l11 52h443l-11 -52c-107 -91 -333 -311 -418 -630h-61c70 235 182 415 414 629v1h-378z" />
    <glyph glyph-name="eight.tosf" 
d="M432 364c79 -21 118 -86 118 -165c0 -138 -115 -211 -244 -211c-115 0 -220 63 -220 193c0 113 81 182 187 196v2c-60 19 -101 73 -101 132c0 116 93 179 210 179c101 0 202 -47 202 -161c0 -86 -65 -152 -152 -164v-1zM382 644c-89 0 -156 -43 -156 -130
c0 -80 61 -122 145 -122c88 0 159 46 159 134c0 82 -70 118 -148 118zM321 345c-97 0 -181 -61 -181 -163c0 -100 79 -149 171 -149c111 0 185 63 185 166c0 104 -82 146 -175 146z" />
    <glyph glyph-name="nine.tosf" 
d="M91 165h54c0 -87 51 -127 135 -127c160 0 217 185 244 300h-3c-39 -68 -106 -104 -187 -104c-120 0 -198 83 -198 202c0 143 98 255 247 255c140 0 207 -92 207 -236c0 -168 -84 -463 -310 -463c-116 0 -189 57 -189 173zM377 646c-125 0 -187 -108 -187 -216
c0 -97 69 -151 162 -151c112 0 183 102 183 202c0 93 -60 165 -158 165z" />
    <glyph glyph-name="period" unicode="." horiz-adv-x="202" 
d="M92 0h-77l25 117h77z" />
    <glyph glyph-name="comma" unicode="," horiz-adv-x="202" 
d="M40 117h77l-24 -113c-7 -29 -16 -55 -28 -77c-19 -29 -44 -54 -80 -69l10 45c35 19 47 49 59 97h-39z" />
    <glyph glyph-name="colon" unicode=":" horiz-adv-x="204" 
d="M171 398h-77l25 117h77zM87 0h-77l25 117h77z" />
    <glyph glyph-name="semicolon" unicode=";" horiz-adv-x="204" 
d="M171 398h-77l25 117h77zM35 117h77l-24 -113c-7 -29 -16 -55 -28 -77c-19 -29 -44 -54 -80 -69l10 45c35 19 47 49 59 97h-39z" />
    <glyph glyph-name="ellipsis" unicode="&#x2026;" horiz-adv-x="869" 
d="M92 0h-77l25 117h77zM426 0h-77l25 117h77zM759 0h-77l25 117h77z" />
    <glyph glyph-name="questiondown" unicode="&#xbf;" horiz-adv-x="493" 
d="M345 515l-21 -99h-75l21 99h75zM355 29h56c-8 -132 -93 -229 -234 -229c-104 0 -197 51 -197 166c0 95 55 149 131 201l32 22c60 42 87 70 99 148h56c-14 -108 -66 -146 -136 -194l-23 -16c-47 -33 -102 -79 -102 -156c0 -79 59 -125 140 -125c111 0 171 76 178 183z" />
    <glyph glyph-name="questiondown.case" horiz-adv-x="498" 
d="M388 700l-21 -99h-75l21 99h75zM398 214h56c-8 -132 -93 -229 -234 -229c-104 0 -197 51 -197 166c0 95 55 149 131 201l32 22c60 42 87 70 99 148h56c-14 -108 -66 -146 -136 -194l-23 -16c-47 -33 -102 -79 -102 -156c0 -79 59 -125 140 -125c111 0 171 76 178 183z
" />
    <glyph glyph-name="question" unicode="?" horiz-adv-x="499" 
d="M141 486h-56c10 132 92 227 234 227c104 0 197 -50 197 -165c0 -95 -55 -149 -131 -201l-32 -22c-61 -41 -85 -69 -99 -147h-56c16 109 67 144 136 193l23 16c48 34 102 79 102 156c0 79 -59 124 -140 124c-109 0 -171 -74 -178 -181zM151 0l21 99h75l-21 -99h-75z" />
    <glyph glyph-name="exclamdown" unicode="&#xa1;" horiz-adv-x="216" 
d="M201 515l-20 -99h-75l21 99h74zM140 334l-54 -316l-43 -203h-57l43 203l80 316h31z" />
    <glyph glyph-name="exclamdown.case" horiz-adv-x="230" 
d="M248 700l-20 -99h-75l21 99h74zM187 519l-54 -316l-43 -203h-57l43 203l80 316h31z" />
    <glyph glyph-name="exclam" unicode="!" horiz-adv-x="228" 
d="M83 181l54 316l43 203h57l-43 -203l-80 -316h-31zM22 0l20 99h75l-21 -99h-74z" />
    <glyph glyph-name="parenleft" unicode="(" horiz-adv-x="250" 
d="M137 -172h-43c-31 91 -57 194 -57 313c0 108 21 210 62 305c42 96 98 181 167 254h49c-145 -173 -223 -357 -223 -594c0 -89 17 -183 45 -278z" />
    <glyph glyph-name="parenright" unicode=")" horiz-adv-x="250" 
d="M117 700h43c33 -93 57 -198 57 -321c0 -209 -93 -408 -228 -551h-49c72 87 127 178 165 273s57 202 57 321c0 91 -16 183 -45 278z" />
    <glyph glyph-name="parenleft.case" horiz-adv-x="256" 
d="M158 -86h-43c-31 91 -57 194 -57 313c0 108 21 210 62 305c42 96 98 181 167 254h49c-145 -173 -223 -357 -223 -594c0 -89 17 -183 45 -278z" />
    <glyph glyph-name="parenright.case" horiz-adv-x="255" 
d="M138 786h43c33 -93 57 -198 57 -321c0 -209 -93 -408 -228 -551h-49c72 87 127 178 165 273s57 202 57 321c0 91 -16 183 -45 278z" />
    <glyph glyph-name="bracketleft" unicode="[" horiz-adv-x="263" 
d="M148 -172h-149l184 872h150l-9 -44h-94l-167 -783h94z" />
    <glyph glyph-name="bracketright" unicode="]" horiz-adv-x="264" 
d="M-64 -172l9 45h93l167 783h-94l9 44h150l-185 -872h-149z" />
    <glyph glyph-name="bracketleft.case" horiz-adv-x="269" 
d="M167 -86h-149l184 872h150l-9 -44h-94l-167 -783h94z" />
    <glyph glyph-name="bracketright.case" horiz-adv-x="269" 
d="M-41 -86l9 45h93l167 783h-94l9 44h150l-185 -872h-149z" />
    <glyph glyph-name="braceleft" unicode="{" horiz-adv-x="263" 
d="M35 284c47 3 77 41 94 121l39 186c15 71 37 109 108 109h49l-9 -43h-25c-45 0 -57 -19 -68 -72l-40 -186c-13 -65 -31 -116 -98 -135l-1 -2c36 -13 47 -45 47 -82c0 -19 -2 -40 -7 -61l-38 -176c-3 -16 -5 -28 -5 -39c0 -24 11 -33 43 -33h25l-9 -43h-49
c-49 0 -67 22 -67 59c0 15 3 33 7 54l37 176c5 21 7 41 7 59c0 43 -16 66 -49 68z" />
    <glyph glyph-name="braceright" unicode="}" horiz-adv-x="262" 
d="M241 284l-9 -40c-47 -3 -77 -41 -94 -121l-39 -186c-15 -71 -37 -109 -108 -109h-49l9 43h25c47 0 57 19 68 72l40 186c7 33 17 61 30 86s35 42 68 51l1 2c-36 15 -47 43 -47 80c0 19 2 40 7 61l38 176c3 16 5 30 5 39c0 24 -11 33 -43 33h-25l9 43h45
c51 0 71 -22 71 -61c0 -15 -3 -31 -7 -52l-37 -176c-5 -21 -7 -41 -7 -59c0 -43 16 -66 49 -68z" />
    <glyph glyph-name="braceleft.case" horiz-adv-x="267" 
d="M54 370c47 3 77 41 94 121l39 186c15 71 37 109 108 109h49l-9 -43h-25c-45 0 -57 -19 -68 -72l-40 -186c-13 -65 -31 -116 -98 -135l-1 -2c36 -13 47 -45 47 -82c0 -19 -2 -40 -7 -61l-38 -176c-3 -16 -5 -28 -5 -39c0 -24 11 -33 43 -33h25l-9 -43h-49
c-49 0 -67 22 -67 59c0 15 3 33 7 54l37 176c5 21 7 41 7 59c0 43 -16 66 -49 68z" />
    <glyph glyph-name="braceright.case" horiz-adv-x="267" 
d="M263 370l-9 -40c-47 -3 -77 -41 -94 -121l-39 -186c-15 -71 -37 -109 -108 -109h-49l9 43h25c47 0 57 19 68 72l40 186c7 33 17 61 30 86s35 42 68 51l1 2c-36 15 -47 43 -47 80c0 19 2 40 7 61l38 176c3 16 5 30 5 39c0 24 -11 33 -43 33h-25l9 43h45
c51 0 71 -22 71 -61c0 -15 -3 -31 -7 -52l-37 -176c-5 -21 -7 -41 -7 -59c0 -43 16 -66 49 -68z" />
    <glyph glyph-name="slash" unicode="/" horiz-adv-x="387" 
d="M34 0h-47l406 700h47z" />
    <glyph glyph-name="a.subs" horiz-adv-x="352" 
d="M256 78l-30 -145c-1 -5 -2 -8 -2 -12c0 -8 6 -12 19 -12h11l-8 -35c-9 -1 -13 -2 -25 -2c-30 0 -45 10 -45 30v9h-1c-21 -25 -58 -44 -107 -44c-55 0 -94 32 -94 81c0 31 14 60 43 77c29 19 70 25 113 30l28 5c39 5 47 12 51 36c1 5 2 9 2 12c0 29 -23 43 -69 43
c-51 0 -73 -22 -82 -69h-50c13 77 67 108 136 108c67 0 114 -19 114 -76c0 -12 -1 -27 -4 -36zM188 -15l11 51c-5 -4 -11 -8 -34 -12l-38 -7c-35 -7 -61 -12 -77 -23c-15 -9 -22 -23 -22 -41c0 -28 21 -48 58 -48c43 0 90 23 102 80z" />
    <glyph glyph-name="b.subs" horiz-adv-x="390" 
d="M72 292h50l-20 -97c-5 -19 -8 -39 -15 -62h1c20 32 57 56 105 56c72 0 115 -52 115 -129c0 -100 -63 -196 -166 -196c-49 0 -86 27 -97 64h-1c-1 -9 -3 -17 -6 -29l-6 -27h-49zM140 -95c77 0 118 83 118 153c0 55 -25 90 -80 90c-78 0 -117 -90 -117 -154
c0 -47 28 -89 79 -89z" />
    <glyph glyph-name="c.subs" horiz-adv-x="351" 
d="M277 79h-48c-4 45 -30 71 -78 71c-74 0 -114 -78 -114 -149c0 -55 29 -93 82 -93c49 0 80 33 95 77h49c-17 -68 -67 -118 -147 -118c-81 0 -129 52 -129 136c0 96 61 187 164 187c72 0 123 -38 126 -111z" />
    <glyph glyph-name="d.subs" horiz-adv-x="391" 
d="M246 -128h-50l3 11c4 19 6 28 9 37h-1c-20 -31 -57 -56 -105 -56c-75 0 -116 54 -116 130c0 99 66 196 164 196c51 0 89 -26 100 -65h1c7 32 10 52 15 76l19 91h50zM154 149c-76 0 -118 -82 -118 -154c0 -53 27 -90 80 -90c80 0 118 89 118 155c0 47 -29 89 -80 89z" />
    <glyph glyph-name="e.subs" horiz-adv-x="363" 
d="M278 19h-241c-1 -5 -1 -11 -1 -18c0 -49 25 -93 85 -93c47 0 82 29 95 66h52c-20 -65 -76 -107 -149 -107c-83 0 -132 53 -132 134c0 99 59 189 163 189c91 0 130 -62 130 -139c0 -13 1 -20 -2 -32zM43 56h188c0 51 -19 96 -82 96c-60 0 -95 -45 -106 -96z" />
    <glyph glyph-name="f.subs" horiz-adv-x="210" 
d="M172 181l-7 -38h-60l-58 -271h-49l58 271h-50l8 38h49l5 26c7 31 16 54 28 67s35 20 68 20c13 0 27 0 36 -1l-8 -41c-7 1 -16 2 -24 2c-41 0 -43 -18 -50 -50l-5 -23h59z" />
    <glyph glyph-name="g.subs" horiz-adv-x="384" 
d="M-32 -151h50c0 -36 35 -48 76 -48c69 0 91 38 102 95l2 11l8 29h-2c-20 -29 -54 -53 -101 -53c-68 0 -114 50 -114 127c0 93 63 179 157 179c49 0 89 -25 98 -61h2c1 11 4 19 5 28l5 25h49l-61 -287c-20 -96 -61 -132 -153 -132c-73 0 -123 26 -123 87zM39 11
c0 -52 25 -87 78 -87c70 0 112 71 112 139c0 57 -31 86 -78 86c-72 0 -112 -72 -112 -138z" />
    <glyph glyph-name="h.subs" horiz-adv-x="381" 
d="M122 292l-22 -101c-5 -21 -11 -47 -15 -59h1c19 33 53 57 104 57c63 0 97 -34 97 -85c0 -21 -4 -40 -8 -56l-38 -176h-49l38 179c3 15 5 29 5 41c0 31 -15 55 -62 55c-61 0 -91 -50 -106 -117l-34 -158h-50l90 420h49z" />
    <glyph glyph-name="i.subs" horiz-adv-x="178" 
d="M109 227h-51l14 65h51zM49 181h50l-66 -309h-50z" />
    <glyph glyph-name="j.subs" horiz-adv-x="187" 
d="M117 227h-50l13 65h51zM-11 -142l69 323h49l-67 -314c-9 -37 -19 -63 -31 -78c-11 -15 -32 -23 -62 -23c-11 0 -21 1 -30 2l9 39c7 -1 11 -1 16 -1c32 0 39 16 47 52z" />
    <glyph glyph-name="k.subs" horiz-adv-x="346" 
d="M72 292h50l-31 -142c-7 -33 -13 -63 -24 -110h1l91 76l79 65h65l-149 -121l96 -188h-57l-78 158l-60 -49l-23 -109h-49z" />
    <glyph glyph-name="l.subs" horiz-adv-x="180" 
d="M73 292h51l-90 -420h-50z" />
    <glyph glyph-name="m.subs" horiz-adv-x="566" 
d="M180 -128l37 179c3 15 6 29 6 42c0 31 -14 54 -54 54c-53 0 -87 -45 -100 -109l-36 -166h-50l66 309h48l-4 -20c-1 -9 -5 -19 -8 -28h2c17 32 51 56 98 56s76 -22 85 -57h1c19 31 57 57 110 57c60 0 90 -34 90 -85c0 -12 -3 -32 -6 -47l-39 -185h-50l38 179
c3 15 5 29 5 42c0 31 -14 54 -54 54c-53 0 -85 -44 -100 -109l-36 -166h-49z" />
    <glyph glyph-name="n.subs" horiz-adv-x="381" 
d="M-17 -128l66 309h48l-5 -23c-1 -7 -4 -15 -7 -26h1c19 33 53 57 104 57c63 0 97 -34 97 -85c0 -21 -4 -40 -8 -56l-38 -176h-49l38 179c3 15 5 29 5 41c0 31 -15 55 -62 55c-61 0 -91 -50 -106 -117l-34 -158h-50z" />
    <glyph glyph-name="o.subs" horiz-adv-x="371" 
d="M155 192c80 0 134 -47 134 -130c0 -97 -59 -195 -170 -195c-81 0 -132 51 -132 131c0 101 60 194 168 194zM121 -92c78 0 117 85 117 154c0 55 -28 90 -83 90c-80 0 -118 -80 -118 -152c0 -55 29 -92 84 -92z" />
    <glyph glyph-name="p.subs" horiz-adv-x="389" 
d="M48 181h48l-2 -9c-2 -13 -5 -26 -8 -39h1c20 32 57 57 104 57c75 0 116 -51 116 -130c0 -100 -63 -196 -166 -196c-49 0 -86 27 -97 64h-1l-12 -59l-21 -102h-49zM139 -95c79 0 118 82 118 154c0 55 -25 90 -80 90c-78 0 -117 -90 -117 -156c0 -45 30 -88 79 -88z" />
    <glyph glyph-name="q.subs" horiz-adv-x="389" 
d="M261 181h48l-88 -414h-49l19 91l15 63h-1c-21 -32 -57 -57 -104 -57c-75 0 -116 54 -116 130c0 99 64 196 164 196c51 0 88 -25 99 -64h2c1 12 4 23 7 38zM152 149c-76 0 -117 -81 -117 -154c0 -53 27 -89 80 -89c79 0 117 90 117 154c0 48 -29 89 -80 89z" />
    <glyph glyph-name="r.subs" horiz-adv-x="236" 
d="M-17 -128l65 309h48l-3 -18c-1 -9 -4 -18 -9 -37h1c16 37 56 62 105 62h15l-10 -48c-5 1 -11 1 -18 1c-57 0 -96 -39 -111 -106l-34 -163h-49z" />
    <glyph glyph-name="s.subs" horiz-adv-x="325" 
d="M-26 -29h49c3 -48 39 -66 80 -66c43 0 77 17 77 53c0 27 -19 38 -58 51l-36 13c-47 17 -78 32 -78 83c0 53 44 88 117 88c72 0 123 -26 123 -97h-48c0 40 -28 58 -75 58c-45 0 -67 -15 -67 -45c0 -27 21 -37 56 -49l38 -14c43 -15 78 -33 78 -82c0 -35 -13 -59 -39 -74
c-25 -15 -55 -23 -90 -23c-66 0 -127 27 -127 104z" />
    <glyph glyph-name="t.subs" horiz-adv-x="224" 
d="M135 276l-20 -95h63l-8 -40h-63l-40 -190c-2 -9 -3 -15 -3 -19c0 -13 7 -21 31 -21h21l-9 -41c-13 -1 -15 -2 -30 -2c-48 0 -66 14 -66 43c0 9 3 19 4 31l42 199h-49l8 40h49l20 95h50z" />
    <glyph glyph-name="u.subs" horiz-adv-x="380" 
d="M300 181l-66 -309h-48l3 17c3 7 4 18 7 31h-1c-19 -32 -54 -56 -102 -56c-63 0 -95 34 -95 83c0 19 3 36 6 49l39 185h50l-38 -180c-3 -13 -6 -26 -6 -41c0 -37 24 -54 61 -54c59 0 92 50 107 119l33 156h50z" />
    <glyph glyph-name="v.subs" horiz-adv-x="319" 
d="M51 -128l-45 309h51l17 -155c4 -36 8 -70 13 -101h1c17 32 39 70 59 105l85 151h54l-183 -309h-52z" />
    <glyph glyph-name="w.subs" horiz-adv-x="492" 
d="M41 -128l-32 309h52l11 -161c3 -27 6 -72 7 -93h1c12 23 27 58 46 95l77 159h54l11 -157c3 -36 3 -58 6 -97h1c16 32 32 67 47 96l78 158h53l-164 -309h-54l-11 157c-1 36 -2 63 -5 95h-1c-13 -31 -30 -65 -46 -98l-76 -154h-55z" />
    <glyph glyph-name="x.subs" horiz-adv-x="323" 
d="M-61 -128l148 163l-75 146h54l53 -113l100 113h60l-138 -150l84 -159h-54l-64 125l-110 -125h-58z" />
    <glyph glyph-name="y.subs" horiz-adv-x="312" 
d="M51 -127l-55 308h50l20 -134c7 -36 12 -76 17 -123h1c20 37 44 84 68 127l71 130h54l-202 -347c-31 -55 -60 -68 -103 -68c-13 0 -23 1 -32 2l9 40c7 -1 15 -2 24 -2c39 0 55 22 72 57z" />
    <glyph glyph-name="z.subs" horiz-adv-x="324" 
d="M267 181l-8 -38l-172 -166c-21 -21 -41 -39 -64 -62v-1c24 1 61 1 89 1h111l-10 -43h-262l9 40l180 175c16 16 42 39 55 51v1c-21 -1 -51 -1 -78 -1h-101l9 43h242z" />
    <glyph glyph-name="uni2080" unicode="&#x2080;" horiz-adv-x="402" 
d="M131 -133c-98 0 -130 78 -130 151c0 104 57 279 198 279c100 0 129 -78 129 -153c0 -103 -56 -277 -197 -277zM46 16c0 -29 6 -54 18 -76c13 -22 35 -33 68 -33c104 0 151 148 151 239c0 58 -19 111 -86 111c-104 0 -151 -148 -151 -241z" />
    <glyph glyph-name="uni2081" unicode="&#x2081;" horiz-adv-x="262" 
d="M2 173l7 32c79 0 129 20 152 87h32l-90 -420h-43l64 301h-122z" />
    <glyph glyph-name="uni2082" unicode="&#x2082;" horiz-adv-x="387" 
d="M71 143h-45c2 45 18 81 47 110c30 29 68 44 113 44c80 0 139 -39 139 -111c0 -73 -60 -113 -129 -149l-40 -21c-52 -27 -113 -51 -138 -103h261l-9 -41h-305c6 91 80 132 158 172l34 17c70 38 123 63 123 124c0 47 -43 72 -94 72c-69 0 -111 -51 -115 -114z" />
    <glyph glyph-name="uni2083" unicode="&#x2083;" horiz-adv-x="391" 
d="M-13 10h45c-1 -9 -1 -12 -1 -16c0 -58 32 -87 97 -87s119 34 119 94c0 51 -41 74 -93 74h-33l7 36h23c57 0 125 15 125 81c0 43 -37 65 -88 65c-61 0 -107 -38 -115 -98h-45c11 83 69 138 160 138c77 0 133 -36 133 -105c0 -52 -41 -89 -92 -101c37 -13 63 -48 63 -89
c0 -85 -75 -135 -163 -135c-87 0 -143 41 -143 124c0 7 0 12 1 19z" />
    <glyph glyph-name="uni2084" unicode="&#x2084;" horiz-adv-x="394" 
d="M168 -128l22 96h-227l9 41l281 283h51l-62 -284h71l-9 -40h-70l-22 -96h-44zM251 239h-1c-33 -35 -61 -62 -108 -109l-122 -122h178l23 100z" />
    <glyph glyph-name="uni2085" unicode="&#x2085;" horiz-adv-x="386" 
d="M6 65l82 227h243l-12 -41h-204l-44 -122c31 20 62 26 90 26c81 0 136 -51 136 -127c0 -95 -68 -161 -175 -161c-77 0 -140 39 -140 114c0 8 1 15 1 16h43v-11c0 -51 39 -79 96 -79c43 0 75 12 97 36s33 52 33 83c0 55 -37 88 -97 88c-43 0 -86 -14 -107 -49h-42z" />
    <glyph glyph-name="uni2086" unicode="&#x2086;" horiz-adv-x="391" 
d="M325 192h-45c0 47 -30 68 -81 68c-96 0 -130 -103 -146 -168h1c23 36 64 57 113 57c80 0 131 -51 131 -124c0 -88 -64 -158 -161 -158c-92 0 -136 57 -136 146c0 105 53 287 198 287c79 0 126 -35 126 -108zM141 -93c75 0 112 59 112 113c0 59 -41 88 -97 88
c-67 0 -110 -53 -110 -108c0 -59 36 -93 95 -93z" />
    <glyph glyph-name="uni2087" unicode="&#x2087;" horiz-adv-x="346" 
d="M16 251l8 41h314l-8 -35c-70 -56 -217 -190 -268 -385h-48c40 134 107 251 253 379h-251z" />
    <glyph glyph-name="uni2088" unicode="&#x2088;" horiz-adv-x="401" 
d="M303 -1c0 -86 -78 -132 -166 -132c-78 0 -149 41 -149 121c0 63 51 101 115 114c-33 15 -58 48 -58 83c0 73 63 112 144 112c68 0 137 -30 137 -101c0 -52 -38 -92 -90 -104c43 -16 67 -53 67 -93zM189 260c-59 0 -100 -25 -100 -74c0 -47 39 -73 92 -73
c55 0 101 29 101 81c0 47 -44 66 -93 66zM32 -11c0 -57 51 -85 108 -85c71 0 119 35 119 95c0 55 -53 79 -112 79c-61 0 -115 -34 -115 -89z" />
    <glyph glyph-name="uni2089" unicode="&#x2089;" horiz-adv-x="391" 
d="M-6 -25h45c0 -47 32 -68 81 -68c96 0 130 103 146 168h-1c-21 -36 -64 -57 -113 -57c-80 0 -131 51 -131 124c0 88 64 158 161 158c92 0 136 -57 136 -146c0 -105 -53 -287 -198 -287c-77 0 -126 35 -126 108zM178 260c-74 0 -112 -58 -112 -113c0 -57 41 -88 97 -88
c67 0 110 54 110 108c0 59 -36 93 -95 93z" />
    <glyph glyph-name="uni208D" unicode="&#x208d;" horiz-adv-x="212" 
d="M75 -200h-38c-19 55 -33 116 -33 181c0 127 51 245 135 342h43c-84 -107 -134 -221 -134 -356c0 -56 10 -110 27 -167z" />
    <glyph glyph-name="uni208E" unicode="&#x208e;" horiz-adv-x="212" 
d="M55 323h38c19 -55 33 -114 33 -181c0 -125 -51 -243 -135 -342h-43c84 107 134 223 134 356c0 56 -10 110 -27 167z" />
    <glyph glyph-name="bracketleft.subs" horiz-adv-x="228" 
d="M93 -200h-109l110 523h110l-7 -35h-66l-97 -453h65z" />
    <glyph glyph-name="bracketright.subs" horiz-adv-x="229" 
d="M54 323h109l-110 -523h-110l7 35h66l97 453h-65z" />
    <glyph glyph-name="uni208A" unicode="&#x208a;" horiz-adv-x="394" 
d="M139 102v133h43v-133h130v-41h-130v-132h-43v132h-131v41h131z" />
    <glyph glyph-name="uni208B" unicode="&#x208b;" horiz-adv-x="423" 
d="M323 103v-41h-302v41h302z" />
    <glyph glyph-name="uni208C" unicode="&#x208c;" horiz-adv-x="456" 
d="M338 174v-41h-302v41h302zM338 30v-41h-302v41h302z" />
    <glyph glyph-name="period.subs" horiz-adv-x="172" 
d="M36 -128h-59l14 70h59z" />
    <glyph glyph-name="comma.subs" horiz-adv-x="172" 
d="M-9 -58h60l-14 -65c-5 -25 -14 -43 -26 -58c-15 -18 -33 -30 -56 -35l6 28c27 8 40 31 45 55l1 5h-31z" />
    <glyph glyph-name="a.sups" horiz-adv-x="352" 
d="M366 597l-30 -145c-1 -5 -2 -8 -2 -12c0 -8 6 -12 19 -12h11l-8 -35c-9 -1 -13 -2 -25 -2c-30 0 -45 10 -45 30v9h-1c-21 -25 -58 -44 -107 -44c-55 0 -94 32 -94 81c0 31 14 60 43 77c29 19 70 25 113 30l28 5c39 5 47 12 51 36c1 5 2 9 2 12c0 29 -23 43 -69 43
c-51 0 -73 -22 -82 -69h-50c13 77 67 108 136 108c67 0 114 -19 114 -76c0 -12 -1 -27 -4 -36zM298 504l11 51c-5 -4 -11 -8 -34 -12l-38 -7c-35 -7 -61 -12 -77 -23c-15 -9 -22 -23 -22 -41c0 -28 21 -48 58 -48c43 0 90 23 102 80z" />
    <glyph glyph-name="b.sups" horiz-adv-x="390" 
d="M182 811h50l-20 -97c-5 -19 -8 -39 -15 -62h1c20 32 57 56 105 56c72 0 115 -52 115 -129c0 -100 -63 -196 -166 -196c-49 0 -86 27 -97 64h-1c-1 -9 -3 -17 -6 -29l-6 -27h-49zM250 424c77 0 118 83 118 153c0 55 -25 90 -80 90c-78 0 -117 -90 -117 -154
c0 -47 28 -89 79 -89z" />
    <glyph glyph-name="c.sups" horiz-adv-x="351" 
d="M387 598h-48c-4 45 -30 71 -78 71c-74 0 -114 -78 -114 -149c0 -55 29 -93 82 -93c49 0 80 33 95 77h49c-17 -68 -67 -118 -147 -118c-81 0 -129 52 -129 136c0 96 61 187 164 187c72 0 123 -38 126 -111z" />
    <glyph glyph-name="d.sups" horiz-adv-x="391" 
d="M356 391h-50l3 11c4 19 6 28 9 37h-1c-20 -31 -57 -56 -105 -56c-75 0 -116 54 -116 130c0 99 66 196 164 196c51 0 89 -26 100 -65h1c7 32 10 52 15 76l19 91h50zM264 668c-76 0 -118 -82 -118 -154c0 -53 27 -90 80 -90c80 0 118 89 118 155c0 47 -29 89 -80 89z" />
    <glyph glyph-name="e.sups" horiz-adv-x="363" 
d="M388 538h-241c-1 -5 -1 -11 -1 -18c0 -49 25 -93 85 -93c47 0 82 29 95 66h52c-20 -65 -76 -107 -149 -107c-83 0 -132 53 -132 134c0 99 59 189 163 189c91 0 130 -62 130 -139c0 -13 1 -20 -2 -32zM153 575h188c0 51 -19 96 -82 96c-60 0 -95 -45 -106 -96z" />
    <glyph glyph-name="f.sups" horiz-adv-x="210" 
d="M282 700l-7 -38h-60l-58 -271h-49l58 271h-50l8 38h49l5 26c7 31 16 54 28 67s35 20 68 20c13 0 27 0 36 -1l-8 -41c-7 1 -16 2 -24 2c-41 0 -43 -18 -50 -50l-5 -23h59z" />
    <glyph glyph-name="g.sups" horiz-adv-x="384" 
d="M78 368h50c0 -36 35 -48 76 -48c69 0 91 38 102 95l2 11l8 29h-2c-20 -29 -54 -53 -101 -53c-68 0 -114 50 -114 127c0 93 63 179 157 179c49 0 89 -25 98 -61h2c1 11 4 19 5 28l5 25h49l-61 -287c-20 -96 -61 -132 -153 -132c-73 0 -123 26 -123 87zM149 530
c0 -52 25 -87 78 -87c70 0 112 71 112 139c0 57 -31 86 -78 86c-72 0 -112 -72 -112 -138z" />
    <glyph glyph-name="h.sups" horiz-adv-x="381" 
d="M232 811l-22 -101c-5 -21 -11 -47 -15 -59h1c19 33 53 57 104 57c63 0 97 -34 97 -85c0 -21 -4 -40 -8 -56l-38 -176h-49l38 179c3 15 5 29 5 41c0 31 -15 55 -62 55c-61 0 -91 -50 -106 -117l-34 -158h-50l90 420h49z" />
    <glyph glyph-name="uni2071" unicode="&#x2071;" horiz-adv-x="178" 
d="M219 746h-51l14 65h51zM159 700h50l-66 -309h-50z" />
    <glyph glyph-name="j.sups" horiz-adv-x="187" 
d="M228 746h-50l13 65h51zM100 377l69 323h49l-67 -314c-9 -37 -19 -63 -31 -78c-11 -15 -32 -23 -62 -23c-11 0 -21 1 -30 2l9 39c7 -1 11 -1 16 -1c32 0 39 16 47 52z" />
    <glyph glyph-name="k.sups" horiz-adv-x="346" 
d="M182 811h50l-31 -142c-7 -33 -13 -63 -24 -110h1l91 76l79 65h65l-149 -121l96 -188h-57l-78 158l-60 -49l-23 -109h-49z" />
    <glyph glyph-name="l.sups" horiz-adv-x="180" 
d="M183 811h51l-90 -420h-50z" />
    <glyph glyph-name="m.sups" horiz-adv-x="566" 
d="M290 391l37 179c3 15 6 29 6 42c0 31 -14 54 -54 54c-53 0 -87 -45 -100 -109l-36 -166h-50l66 309h48l-4 -20c-1 -9 -5 -19 -8 -28h2c17 32 51 56 98 56s76 -22 85 -57h1c19 31 57 57 110 57c60 0 90 -34 90 -85c0 -12 -3 -32 -6 -47l-39 -185h-50l38 179
c3 15 5 29 5 42c0 31 -14 54 -54 54c-53 0 -85 -44 -100 -109l-36 -166h-49z" />
    <glyph glyph-name="uni207F" unicode="&#x207f;" horiz-adv-x="381" 
d="M93 391l66 309h48l-5 -23c-1 -7 -4 -15 -7 -26h1c19 33 53 57 104 57c63 0 97 -34 97 -85c0 -21 -4 -40 -8 -56l-38 -176h-49l38 179c3 15 5 29 5 41c0 31 -15 55 -62 55c-61 0 -91 -50 -106 -117l-34 -158h-50z" />
    <glyph glyph-name="o.sups" horiz-adv-x="371" 
d="M265 711c80 0 134 -47 134 -130c0 -97 -59 -195 -170 -195c-81 0 -132 51 -132 131c0 101 60 194 168 194zM231 427c78 0 117 85 117 154c0 55 -28 90 -83 90c-80 0 -118 -80 -118 -152c0 -55 29 -92 84 -92z" />
    <glyph glyph-name="p.sups" horiz-adv-x="389" 
d="M158 700h48l-2 -9c-2 -13 -5 -26 -8 -39h1c20 32 57 57 104 57c75 0 116 -51 116 -130c0 -100 -63 -196 -166 -196c-49 0 -86 27 -97 64h-1l-12 -59l-21 -102h-49zM249 424c79 0 118 82 118 154c0 55 -25 90 -80 90c-78 0 -117 -90 -117 -156c0 -45 30 -88 79 -88z" />
    <glyph glyph-name="q.sups" horiz-adv-x="389" 
d="M372 700h48l-88 -414h-49l19 91l15 63h-1c-21 -32 -57 -57 -104 -57c-75 0 -116 54 -116 130c0 99 64 196 164 196c51 0 88 -25 99 -64h2c1 12 4 23 7 38zM263 668c-76 0 -117 -81 -117 -154c0 -53 27 -89 80 -89c79 0 117 90 117 154c0 48 -29 89 -80 89z" />
    <glyph glyph-name="r.sups" horiz-adv-x="236" 
d="M94 391l65 309h48l-3 -18c-1 -9 -4 -18 -9 -37h1c16 37 56 62 105 62h15l-10 -48c-5 1 -11 1 -18 1c-57 0 -96 -39 -111 -106l-34 -163h-49z" />
    <glyph glyph-name="s.sups" horiz-adv-x="325" 
d="M84 490h49c3 -48 39 -66 80 -66c43 0 77 17 77 53c0 27 -19 38 -58 51l-36 13c-47 17 -78 32 -78 83c0 53 44 88 117 88c72 0 123 -26 123 -97h-48c0 40 -28 58 -75 58c-45 0 -67 -15 -67 -45c0 -27 21 -37 56 -49l38 -14c43 -15 78 -33 78 -82c0 -35 -13 -59 -39 -74
c-25 -15 -55 -23 -90 -23c-66 0 -127 27 -127 104z" />
    <glyph glyph-name="t.sups" horiz-adv-x="224" 
d="M245 795l-20 -95h63l-8 -40h-63l-40 -190c-2 -9 -3 -15 -3 -19c0 -13 7 -21 31 -21h21l-9 -41c-13 -1 -15 -2 -30 -2c-48 0 -66 14 -66 43c0 9 3 19 4 31l42 199h-49l8 40h49l20 95h50z" />
    <glyph glyph-name="u.sups" horiz-adv-x="380" 
d="M411 700l-66 -309h-48l3 17c3 7 4 18 7 31h-1c-19 -32 -54 -56 -102 -56c-63 0 -95 34 -95 83c0 19 3 36 6 49l39 185h50l-38 -180c-3 -13 -6 -26 -6 -41c0 -37 24 -54 61 -54c59 0 92 50 107 119l33 156h50z" />
    <glyph glyph-name="v.sups" horiz-adv-x="319" 
d="M161 391l-45 309h51l17 -155c4 -36 8 -70 13 -101h1c17 32 39 70 59 105l85 151h54l-183 -309h-52z" />
    <glyph glyph-name="w.sups" horiz-adv-x="492" 
d="M151 391l-32 309h52l11 -161c3 -27 6 -72 7 -93h1c12 23 27 58 46 95l77 159h54l11 -157c3 -36 3 -58 6 -97h1c16 32 32 67 47 96l78 158h53l-164 -309h-54l-11 157c-1 36 -2 63 -5 95h-1c-13 -31 -30 -65 -46 -98l-76 -154h-55z" />
    <glyph glyph-name="x.sups" horiz-adv-x="323" 
d="M49 391l148 163l-75 146h54l53 -113l100 113h60l-138 -150l84 -159h-54l-64 125l-110 -125h-58z" />
    <glyph glyph-name="y.sups" horiz-adv-x="312" 
d="M161 392l-55 308h50l20 -134c7 -36 12 -76 17 -123h1c20 37 44 84 68 127l71 130h54l-202 -347c-31 -55 -60 -68 -103 -68c-13 0 -23 1 -32 2l9 40c7 -1 15 -2 24 -2c39 0 55 22 72 57z" />
    <glyph glyph-name="z.sups" horiz-adv-x="324" 
d="M377 700l-8 -38l-172 -166c-21 -21 -41 -39 -64 -62v-1c24 1 61 1 89 1h111l-10 -43h-262l9 40l180 175c16 16 42 39 55 51v1c-21 -1 -51 -1 -78 -1h-101l9 43h242z" />
    <glyph glyph-name="uni2070" unicode="&#x2070;" horiz-adv-x="402" 
d="M241 386c-98 0 -130 78 -130 151c0 104 57 279 198 279c100 0 129 -78 129 -153c0 -103 -56 -277 -197 -277zM156 535c0 -29 6 -54 18 -76c13 -22 35 -33 68 -33c104 0 151 148 151 239c0 58 -19 111 -86 111c-104 0 -151 -148 -151 -241z" />
    <glyph glyph-name="onesuperior" unicode="&#xb9;" horiz-adv-x="262" 
d="M113 692l7 32c79 0 129 20 152 87h32l-90 -420h-43l64 301h-122z" />
    <glyph glyph-name="twosuperior" unicode="&#xb2;" horiz-adv-x="387" 
d="M181 662h-45c2 45 18 81 47 110c30 29 68 44 113 44c80 0 139 -39 139 -111c0 -73 -60 -113 -129 -149l-40 -21c-52 -27 -113 -51 -138 -103h261l-9 -41h-305c6 91 80 132 158 172l34 17c70 38 123 63 123 124c0 47 -43 72 -94 72c-69 0 -111 -51 -115 -114z" />
    <glyph glyph-name="threesuperior" unicode="&#xb3;" horiz-adv-x="391" 
d="M97 529h45c-1 -9 -1 -12 -1 -16c0 -58 32 -87 97 -87s119 34 119 94c0 51 -41 74 -93 74h-33l7 36h23c57 0 125 15 125 81c0 43 -37 65 -88 65c-61 0 -107 -38 -115 -98h-45c11 83 69 138 160 138c77 0 133 -36 133 -105c0 -52 -41 -89 -92 -101c37 -13 63 -48 63 -89
c0 -85 -75 -135 -163 -135c-87 0 -143 41 -143 124c0 7 0 12 1 19z" />
    <glyph glyph-name="uni2074" unicode="&#x2074;" horiz-adv-x="394" 
d="M279 391l22 96h-227l9 41l281 283h51l-62 -284h71l-9 -40h-70l-22 -96h-44zM362 758h-1c-33 -35 -61 -62 -108 -109l-122 -122h178l23 100z" />
    <glyph glyph-name="uni2075" unicode="&#x2075;" horiz-adv-x="386" 
d="M116 584l82 227h243l-12 -41h-204l-44 -122c31 20 62 26 90 26c81 0 136 -51 136 -127c0 -95 -68 -161 -175 -161c-77 0 -140 39 -140 114c0 8 1 15 1 16h43v-11c0 -51 39 -79 96 -79c43 0 75 12 97 36s33 52 33 83c0 55 -37 88 -97 88c-43 0 -86 -14 -107 -49h-42z" />
    <glyph glyph-name="uni2076" unicode="&#x2076;" horiz-adv-x="391" 
d="M435 711h-45c0 47 -30 68 -81 68c-96 0 -130 -103 -146 -168h1c23 36 64 57 113 57c80 0 131 -51 131 -124c0 -88 -64 -158 -161 -158c-92 0 -136 57 -136 146c0 105 53 287 198 287c79 0 126 -35 126 -108zM251 426c75 0 112 59 112 113c0 59 -41 88 -97 88
c-67 0 -110 -53 -110 -108c0 -59 36 -93 95 -93z" />
    <glyph glyph-name="uni2077" unicode="&#x2077;" horiz-adv-x="346" 
d="M126 770l8 41h314l-8 -35c-70 -56 -217 -190 -268 -385h-48c40 134 107 251 253 379h-251z" />
    <glyph glyph-name="uni2078" unicode="&#x2078;" horiz-adv-x="401" 
d="M413 518c0 -86 -78 -132 -166 -132c-78 0 -149 41 -149 121c0 63 51 101 115 114c-33 15 -58 48 -58 83c0 73 63 112 144 112c68 0 137 -30 137 -101c0 -52 -38 -92 -90 -104c43 -16 67 -53 67 -93zM299 779c-59 0 -100 -25 -100 -74c0 -47 39 -73 92 -73
c55 0 101 29 101 81c0 47 -44 66 -93 66zM142 508c0 -57 51 -85 108 -85c71 0 119 35 119 95c0 55 -53 79 -112 79c-61 0 -115 -34 -115 -89z" />
    <glyph glyph-name="uni2079" unicode="&#x2079;" horiz-adv-x="391" 
d="M104 494h45c0 -47 32 -68 81 -68c96 0 130 103 146 168h-1c-21 -36 -64 -57 -113 -57c-80 0 -131 51 -131 124c0 88 64 158 161 158c92 0 136 -57 136 -146c0 -105 -53 -287 -198 -287c-77 0 -126 35 -126 108zM288 779c-74 0 -112 -58 -112 -113c0 -57 41 -88 97 -88
c67 0 110 54 110 108c0 59 -36 93 -95 93z" />
    <glyph glyph-name="uni207D" unicode="&#x207d;" horiz-adv-x="212" 
d="M186 319h-38c-19 55 -33 116 -33 181c0 127 51 245 135 342h43c-84 -107 -134 -221 -134 -356c0 -56 10 -110 27 -167z" />
    <glyph glyph-name="uni207E" unicode="&#x207e;" horiz-adv-x="212" 
d="M165 842h38c19 -55 33 -114 33 -181c0 -125 -51 -243 -135 -342h-43c84 107 134 223 134 356c0 56 -10 110 -27 167z" />
    <glyph glyph-name="bracketleft.sups" horiz-adv-x="228" 
d="M203 319h-109l110 523h110l-7 -35h-66l-97 -453h65z" />
    <glyph glyph-name="bracketright.sups" horiz-adv-x="229" 
d="M164 842h109l-110 -523h-110l7 35h66l97 453h-65z" />
    <glyph glyph-name="uni207A" unicode="&#x207a;" horiz-adv-x="394" 
d="M249 621v133h43v-133h130v-41h-130v-132h-43v132h-131v41h131z" />
    <glyph glyph-name="uni207B" unicode="&#x207b;" horiz-adv-x="423" 
d="M435 622v-41h-302v41h302z" />
    <glyph glyph-name="uni207C" unicode="&#x207c;" horiz-adv-x="456" 
d="M450 693v-41h-302v41h302zM450 549v-41h-302v41h302z" />
    <glyph glyph-name="period.sups" horiz-adv-x="172" 
d="M146 391h-59l14 70h59z" />
    <glyph glyph-name="comma.sups" horiz-adv-x="172" 
d="M102 462h60l-14 -65c-5 -25 -14 -43 -26 -58c-15 -18 -33 -30 -56 -35l6 28c27 8 40 31 45 55l1 5h-31z" />
    <glyph glyph-name="a.dnom" horiz-adv-x="352" 
d="M282 206l-30 -145c-1 -5 -2 -8 -2 -12c0 -8 6 -12 19 -12h11l-8 -35c-9 -1 -13 -2 -25 -2c-30 0 -45 10 -45 30v9h-1c-21 -25 -58 -44 -107 -44c-55 0 -94 32 -94 81c0 31 14 60 43 77c29 19 70 25 113 30l28 5c39 5 47 12 51 36c1 5 2 9 2 12c0 29 -23 43 -69 43
c-51 0 -73 -22 -82 -69h-50c13 77 67 108 136 108c67 0 114 -19 114 -76c0 -12 -1 -27 -4 -36zM214 113l11 51c-5 -4 -11 -8 -34 -12l-38 -7c-35 -7 -61 -12 -77 -23c-15 -9 -22 -23 -22 -41c0 -28 21 -48 58 -48c43 0 90 23 102 80z" />
    <glyph glyph-name="b.dnom" horiz-adv-x="390" 
d="M106 420h50l-20 -97c-5 -19 -8 -39 -15 -62h1c20 32 57 56 105 56c72 0 115 -52 115 -129c0 -100 -63 -196 -166 -196c-49 0 -86 27 -97 64h-1c-1 -9 -3 -17 -6 -29l-6 -27h-49zM174 33c77 0 118 83 118 153c0 55 -25 90 -80 90c-78 0 -117 -90 -117 -154
c0 -47 28 -89 79 -89z" />
    <glyph glyph-name="c.dnom" horiz-adv-x="351" 
d="M305 207h-48c-4 45 -30 71 -78 71c-74 0 -114 -78 -114 -149c0 -55 29 -93 82 -93c49 0 80 33 95 77h49c-17 -68 -67 -118 -147 -118c-81 0 -129 52 -129 136c0 96 61 187 164 187c72 0 123 -38 126 -111z" />
    <glyph glyph-name="d.dnom" horiz-adv-x="391" 
d="M266 0h-50l3 11c4 19 6 28 9 37h-1c-20 -31 -57 -56 -105 -56c-75 0 -116 54 -116 130c0 99 66 196 164 196c51 0 89 -26 100 -65h1c7 32 10 52 15 76l19 91h50zM174 277c-76 0 -118 -82 -118 -154c0 -53 27 -90 80 -90c80 0 118 89 118 155c0 47 -29 89 -80 89z" />
    <glyph glyph-name="e.dnom" horiz-adv-x="363" 
d="M305 147h-241c-1 -5 -1 -11 -1 -18c0 -49 25 -93 85 -93c47 0 82 29 95 66h52c-20 -65 -76 -107 -149 -107c-83 0 -132 53 -132 134c0 99 59 189 163 189c91 0 130 -62 130 -139c0 -13 1 -20 -2 -32zM70 184h188c0 51 -19 96 -82 96c-60 0 -95 -45 -106 -96z" />
    <glyph glyph-name="f.dnom" horiz-adv-x="210" 
d="M193 309l-7 -38h-60l-58 -271h-49l58 271h-50l8 38h49l5 26c7 31 16 54 28 67s35 20 68 20c13 0 27 0 36 -1l-8 -41c-7 1 -16 2 -24 2c-41 0 -43 -18 -50 -50l-5 -23h59z" />
    <glyph glyph-name="g.dnom" horiz-adv-x="384" 
d="M-6 -23h50c0 -36 35 -48 76 -48c69 0 91 38 102 95l2 11l8 29h-2c-20 -29 -54 -53 -101 -53c-68 0 -114 50 -114 127c0 93 63 179 157 179c49 0 89 -25 98 -61h2c1 11 4 19 5 28l5 25h49l-61 -287c-20 -96 -61 -132 -153 -132c-73 0 -123 26 -123 87zM65 139
c0 -52 25 -87 78 -87c70 0 112 71 112 139c0 57 -31 86 -78 86c-72 0 -112 -72 -112 -138z" />
    <glyph glyph-name="h.dnom" horiz-adv-x="381" 
d="M149 420l-22 -101c-5 -21 -11 -47 -15 -59h1c19 33 53 57 104 57c63 0 97 -34 97 -85c0 -21 -4 -40 -8 -56l-38 -176h-49l38 179c3 15 5 29 5 41c0 31 -15 55 -62 55c-61 0 -91 -50 -106 -117l-34 -158h-50l90 420h49z" />
    <glyph glyph-name="i.dnom" horiz-adv-x="178" 
d="M136 355h-51l14 65h51zM76 309h50l-66 -309h-50z" />
    <glyph glyph-name="j.dnom" horiz-adv-x="187" 
d="M144 355h-50l13 65h51zM16 -14l69 323h49l-67 -314c-9 -37 -19 -63 -31 -78c-11 -15 -32 -23 -62 -23c-11 0 -21 1 -30 2l9 39c7 -1 11 -1 16 -1c32 0 39 16 47 52z" />
    <glyph glyph-name="k.dnom" horiz-adv-x="346" 
d="M101 420h50l-31 -142c-7 -33 -13 -63 -24 -110h1l91 76l79 65h65l-149 -121l96 -188h-57l-78 158l-60 -49l-23 -109h-49z" />
    <glyph glyph-name="l.dnom" horiz-adv-x="180" 
d="M100 420h51l-90 -420h-50z" />
    <glyph glyph-name="m.dnom" horiz-adv-x="566" 
d="M207 0l37 179c3 15 6 29 6 42c0 31 -14 54 -54 54c-53 0 -87 -45 -100 -109l-36 -166h-50l66 309h48l-4 -20c-1 -9 -5 -19 -8 -28h2c17 32 51 56 98 56s76 -22 85 -57h1c19 31 57 57 110 57c60 0 90 -34 90 -85c0 -12 -3 -32 -6 -47l-39 -185h-50l38 179c3 15 5 29 5 42
c0 31 -14 54 -54 54c-53 0 -85 -44 -100 -109l-36 -166h-49z" />
    <glyph glyph-name="n.dnom" horiz-adv-x="381" 
d="M9 0l66 309h48l-5 -23c-1 -7 -4 -15 -7 -26h1c19 33 53 57 104 57c63 0 97 -34 97 -85c0 -21 -4 -40 -8 -56l-38 -176h-49l38 179c3 15 5 29 5 41c0 31 -15 55 -62 55c-61 0 -91 -50 -106 -117l-34 -158h-50z" />
    <glyph glyph-name="o.dnom" horiz-adv-x="371" 
d="M182 320c80 0 134 -47 134 -130c0 -97 -59 -195 -170 -195c-81 0 -132 51 -132 131c0 101 60 194 168 194zM148 36c78 0 117 85 117 154c0 55 -28 90 -83 90c-80 0 -118 -80 -118 -152c0 -55 29 -92 84 -92z" />
    <glyph glyph-name="p.dnom" horiz-adv-x="389" 
d="M75 309h48l-2 -9c-2 -13 -5 -26 -8 -39h1c20 32 57 57 104 57c75 0 116 -51 116 -130c0 -100 -63 -196 -166 -196c-49 0 -86 27 -97 64h-1l-12 -59l-21 -102h-49zM166 33c79 0 118 82 118 154c0 55 -25 90 -80 90c-78 0 -117 -90 -117 -156c0 -45 30 -88 79 -88z" />
    <glyph glyph-name="q.dnom" horiz-adv-x="389" 
d="M288 309h48l-88 -414h-49l19 91l15 63h-1c-21 -32 -57 -57 -104 -57c-75 0 -116 54 -116 130c0 99 64 196 164 196c51 0 88 -25 99 -64h2c1 12 4 23 7 38zM179 277c-76 0 -117 -81 -117 -154c0 -53 27 -89 80 -89c79 0 117 90 117 154c0 48 -29 89 -80 89z" />
    <glyph glyph-name="r.dnom" horiz-adv-x="236" 
d="M9 0l65 309h48l-3 -18c-1 -9 -4 -18 -9 -37h1c16 37 56 62 105 62h15l-10 -48c-5 1 -11 1 -18 1c-57 0 -96 -39 -111 -106l-34 -163h-49z" />
    <glyph glyph-name="s.dnom" horiz-adv-x="325" 
d="M1 99h49c3 -48 39 -66 80 -66c43 0 77 17 77 53c0 27 -19 38 -58 51l-36 13c-47 17 -78 32 -78 83c0 53 44 88 117 88c72 0 123 -26 123 -97h-48c0 40 -28 58 -75 58c-45 0 -67 -15 -67 -45c0 -27 21 -37 56 -49l38 -14c43 -15 78 -33 78 -82c0 -35 -13 -59 -39 -74
c-25 -15 -55 -23 -90 -23c-66 0 -127 27 -127 104z" />
    <glyph glyph-name="t.dnom" horiz-adv-x="224" 
d="M161 404l-20 -95h63l-8 -40h-63l-40 -190c-2 -9 -3 -15 -3 -19c0 -13 7 -21 31 -21h21l-9 -41c-13 -1 -15 -2 -30 -2c-48 0 -66 14 -66 43c0 9 3 19 4 31l42 199h-49l8 40h49l20 95h50z" />
    <glyph glyph-name="u.dnom" horiz-adv-x="380" 
d="M328 309l-66 -309h-48l3 17c3 7 4 18 7 31h-1c-19 -32 -54 -56 -102 -56c-63 0 -95 34 -95 83c0 19 3 36 6 49l39 185h50l-38 -180c-3 -13 -6 -26 -6 -41c0 -37 24 -54 61 -54c59 0 92 50 107 119l33 156h50z" />
    <glyph glyph-name="v.dnom" horiz-adv-x="319" 
d="M77 0l-45 309h51l17 -155c4 -36 8 -70 13 -101h1c17 32 39 70 59 105l85 151h54l-183 -309h-52z" />
    <glyph glyph-name="w.dnom" horiz-adv-x="492" 
d="M68 0l-32 309h52l11 -161c3 -27 6 -72 7 -93h1c12 23 27 58 46 95l77 159h54l11 -157c3 -36 3 -58 6 -97h1c16 32 32 67 47 96l78 158h53l-164 -309h-54l-11 157c-1 36 -2 63 -5 95h-1c-13 -31 -30 -65 -46 -98l-76 -154h-55z" />
    <glyph glyph-name="x.dnom" horiz-adv-x="323" 
d="M-33 0l148 163l-75 146h54l53 -113l100 113h60l-138 -150l84 -159h-54l-64 125l-110 -125h-58z" />
    <glyph glyph-name="y.dnom" horiz-adv-x="312" 
d="M80 1l-55 308h50l20 -134c7 -36 12 -76 17 -123h1c20 37 44 84 68 127l71 130h54l-202 -347c-31 -55 -60 -68 -103 -68c-13 0 -23 1 -32 2l9 40c7 -1 15 -2 24 -2c39 0 55 22 72 57z" />
    <glyph glyph-name="z.dnom" horiz-adv-x="324" 
d="M295 309l-8 -38l-172 -166c-21 -21 -41 -39 -64 -62v-1c24 1 61 1 89 1h111l-10 -43h-262l9 40l180 175c16 16 42 39 55 51v1c-21 -1 -51 -1 -78 -1h-101l9 43h242z" />
    <glyph glyph-name="zero.dnom" horiz-adv-x="402" 
d="M158 -5c-98 0 -130 78 -130 151c0 104 57 279 198 279c100 0 129 -78 129 -153c0 -103 -56 -277 -197 -277zM73 144c0 -29 6 -54 18 -76c13 -22 35 -33 68 -33c104 0 151 148 151 239c0 58 -19 111 -86 111c-104 0 -151 -148 -151 -241z" />
    <glyph glyph-name="one.dnom" horiz-adv-x="262" 
d="M29 301l7 32c79 0 129 20 152 87h32l-90 -420h-43l64 301h-122z" />
    <glyph glyph-name="two.dnom" horiz-adv-x="387" 
d="M98 271h-45c2 45 18 81 47 110c30 29 68 44 113 44c80 0 139 -39 139 -111c0 -73 -60 -113 -129 -149l-40 -21c-52 -27 -113 -51 -138 -103h261l-9 -41h-305c6 91 80 132 158 172l34 17c70 38 123 63 123 124c0 47 -43 72 -94 72c-69 0 -111 -51 -115 -114z" />
    <glyph glyph-name="three.dnom" horiz-adv-x="391" 
d="M14 138h45c-1 -9 -1 -12 -1 -16c0 -58 32 -87 97 -87s119 34 119 94c0 51 -41 74 -93 74h-33l7 36h23c57 0 125 15 125 81c0 43 -37 65 -88 65c-61 0 -107 -38 -115 -98h-45c11 83 69 138 160 138c77 0 133 -36 133 -105c0 -52 -41 -89 -92 -101c37 -13 63 -48 63 -89
c0 -85 -75 -135 -163 -135c-87 0 -143 41 -143 124c0 7 0 12 1 19z" />
    <glyph glyph-name="four.dnom" horiz-adv-x="394" 
d="M195 0l22 96h-227l9 41l281 283h51l-62 -284h71l-9 -40h-70l-22 -96h-44zM278 367h-1c-33 -35 -61 -62 -108 -109l-122 -122h178l23 100z" />
    <glyph glyph-name="five.dnom" horiz-adv-x="386" 
d="M33 193l82 227h243l-12 -41h-204l-44 -122c31 20 62 26 90 26c81 0 136 -51 136 -127c0 -95 -68 -161 -175 -161c-77 0 -140 39 -140 114c0 8 1 15 1 16h43v-11c0 -51 39 -79 96 -79c43 0 75 12 97 36s33 52 33 83c0 55 -37 88 -97 88c-43 0 -86 -14 -107 -49h-42z" />
    <glyph glyph-name="six.dnom" horiz-adv-x="391" 
d="M352 320h-45c0 47 -30 68 -81 68c-96 0 -130 -103 -146 -168h1c23 36 64 57 113 57c80 0 131 -51 131 -124c0 -88 -64 -158 -161 -158c-92 0 -136 57 -136 146c0 105 53 287 198 287c79 0 126 -35 126 -108zM168 35c75 0 112 59 112 113c0 59 -41 88 -97 88
c-67 0 -110 -53 -110 -108c0 -59 36 -93 95 -93z" />
    <glyph glyph-name="seven.dnom" horiz-adv-x="346" 
d="M43 379l8 41h314l-8 -35c-70 -56 -217 -190 -268 -385h-48c40 134 107 251 253 379h-251z" />
    <glyph glyph-name="eight.dnom" horiz-adv-x="401" 
d="M330 127c0 -86 -78 -132 -166 -132c-78 0 -149 41 -149 121c0 63 51 101 115 114c-33 15 -58 48 -58 83c0 73 63 112 144 112c68 0 137 -30 137 -101c0 -52 -38 -92 -90 -104c43 -16 67 -53 67 -93zM216 388c-59 0 -100 -25 -100 -74c0 -47 39 -73 92 -73
c55 0 101 29 101 81c0 47 -44 66 -93 66zM59 117c0 -57 51 -85 108 -85c71 0 119 35 119 95c0 55 -53 79 -112 79c-61 0 -115 -34 -115 -89z" />
    <glyph glyph-name="nine.dnom" horiz-adv-x="391" 
d="M21 103h45c0 -47 32 -68 81 -68c96 0 130 103 146 168h-1c-21 -36 -64 -57 -113 -57c-80 0 -131 51 -131 124c0 88 64 158 161 158c92 0 136 -57 136 -146c0 -105 -53 -287 -198 -287c-77 0 -126 35 -126 108zM205 388c-74 0 -112 -58 -112 -113c0 -57 41 -88 97 -88
c67 0 110 54 110 108c0 59 -36 93 -95 93z" />
    <glyph glyph-name="parenleft.dnom" horiz-adv-x="212" 
d="M103 -72h-38c-19 55 -33 116 -33 181c0 127 51 245 135 342h43c-84 -107 -134 -221 -134 -356c0 -56 10 -110 27 -167z" />
    <glyph glyph-name="parenright.dnom" horiz-adv-x="212" 
d="M81 451h38c19 -55 33 -114 33 -181c0 -125 -51 -243 -135 -342h-43c84 107 134 223 134 356c0 56 -10 110 -27 167z" />
    <glyph glyph-name="bracketleft.dnom" horiz-adv-x="228" 
d="M120 -72h-109l110 523h110l-7 -35h-66l-97 -453h65z" />
    <glyph glyph-name="bracketright.dnom" horiz-adv-x="229" 
d="M81 451h109l-110 -523h-110l7 35h66l97 453h-65z" />
    <glyph glyph-name="plus.dnom" horiz-adv-x="394" 
d="M167 231v133h43v-133h130v-41h-130v-132h-43v132h-131v41h131z" />
    <glyph glyph-name="minus.dnom" horiz-adv-x="423" 
d="M353 233v-41h-302v41h302z" />
    <glyph glyph-name="equal.dnom" horiz-adv-x="456" 
d="M370 305v-41h-302v41h302zM370 161v-41h-302v41h302z" />
    <glyph glyph-name="period.dnom" horiz-adv-x="172" 
d="M63 0h-59l14 70h59z" />
    <glyph glyph-name="comma.dnom" horiz-adv-x="172" 
d="M19 70h60l-14 -65c-5 -25 -14 -43 -26 -58c-15 -18 -33 -30 -56 -35l6 28c27 8 40 31 45 55l1 5h-31z" />
    <glyph glyph-name="a.numr" horiz-adv-x="352" 
d="M341 486l-30 -145c-1 -5 -2 -8 -2 -12c0 -8 6 -12 19 -12h11l-8 -35c-9 -1 -13 -2 -25 -2c-30 0 -45 10 -45 30v9h-1c-21 -25 -58 -44 -107 -44c-55 0 -94 32 -94 81c0 31 14 60 43 77c29 19 70 25 113 30l28 5c39 5 47 12 51 36c1 5 2 9 2 12c0 29 -23 43 -69 43
c-51 0 -73 -22 -82 -69h-50c13 77 67 108 136 108c67 0 114 -19 114 -76c0 -12 -1 -27 -4 -36zM273 393l11 51c-5 -4 -11 -8 -34 -12l-38 -7c-35 -7 -61 -12 -77 -23c-15 -9 -22 -23 -22 -41c0 -28 21 -48 58 -48c43 0 90 23 102 80z" />
    <glyph glyph-name="b.numr" horiz-adv-x="390" 
d="M166 700h50l-20 -97c-5 -19 -8 -39 -15 -62h1c20 32 57 56 105 56c72 0 115 -52 115 -129c0 -100 -63 -196 -166 -196c-49 0 -86 27 -97 64h-1c-1 -9 -3 -17 -6 -29l-6 -27h-49zM234 313c77 0 118 83 118 153c0 55 -25 90 -80 90c-78 0 -117 -90 -117 -154
c0 -47 28 -89 79 -89z" />
    <glyph glyph-name="c.numr" horiz-adv-x="351" 
d="M365 487h-48c-4 45 -30 71 -78 71c-74 0 -114 -78 -114 -149c0 -55 29 -93 82 -93c49 0 80 33 95 77h49c-17 -68 -67 -118 -147 -118c-81 0 -129 52 -129 136c0 96 61 187 164 187c72 0 123 -38 126 -111z" />
    <glyph glyph-name="d.numr" horiz-adv-x="391" 
d="M326 280h-50l3 11c4 19 6 28 9 37h-1c-20 -31 -57 -56 -105 -56c-75 0 -116 54 -116 130c0 99 66 196 164 196c51 0 89 -26 100 -65h1c7 32 10 52 15 76l19 91h50zM234 557c-76 0 -118 -82 -118 -154c0 -53 27 -90 80 -90c80 0 118 89 118 155c0 47 -29 89 -80 89z" />
    <glyph glyph-name="e.numr" horiz-adv-x="363" 
d="M365 427h-241c-1 -5 -1 -11 -1 -18c0 -49 25 -93 85 -93c47 0 82 29 95 66h52c-20 -65 -76 -107 -149 -107c-83 0 -132 53 -132 134c0 99 59 189 163 189c91 0 130 -62 130 -139c0 -13 1 -20 -2 -32zM130 464h188c0 51 -19 96 -82 96c-60 0 -95 -45 -106 -96z" />
    <glyph glyph-name="f.numr" horiz-adv-x="210" 
d="M252 589l-7 -38h-60l-58 -271h-49l58 271h-50l8 38h49l5 26c7 31 16 54 28 67s35 20 68 20c13 0 27 0 36 -1l-8 -41c-7 1 -16 2 -24 2c-41 0 -43 -18 -50 -50l-5 -23h59z" />
    <glyph glyph-name="g.numr" horiz-adv-x="384" 
d="M54 257h50c0 -36 35 -48 76 -48c69 0 91 38 102 95l2 11l8 29h-2c-20 -29 -54 -53 -101 -53c-68 0 -114 50 -114 127c0 93 63 179 157 179c49 0 89 -25 98 -61h2c1 11 4 19 5 28l5 25h49l-61 -287c-20 -96 -61 -132 -153 -132c-73 0 -123 26 -123 87zM125 419
c0 -52 25 -87 78 -87c70 0 112 71 112 139c0 57 -31 86 -78 86c-72 0 -112 -72 -112 -138z" />
    <glyph glyph-name="h.numr" horiz-adv-x="381" 
d="M209 700l-22 -101c-5 -21 -11 -47 -15 -59h1c19 33 53 57 104 57c63 0 97 -34 97 -85c0 -21 -4 -40 -8 -56l-38 -176h-49l38 179c3 15 5 29 5 41c0 31 -15 55 -62 55c-61 0 -91 -50 -106 -117l-34 -158h-50l90 420h49z" />
    <glyph glyph-name="i.numr" horiz-adv-x="178" 
d="M195 635h-51l14 65h51zM135 589h50l-66 -309h-50z" />
    <glyph glyph-name="j.numr" horiz-adv-x="187" 
d="M204 635h-50l13 65h51zM76 266l69 323h49l-67 -314c-9 -37 -19 -63 -31 -78c-11 -15 -32 -23 -62 -23c-11 0 -21 1 -30 2l9 39c7 -1 11 -1 16 -1c32 0 39 16 47 52z" />
    <glyph glyph-name="k.numr" horiz-adv-x="346" 
d="M161 700h50l-31 -142c-7 -33 -13 -63 -24 -110h1l91 76l79 65h65l-149 -121l96 -188h-57l-78 158l-60 -49l-23 -109h-49z" />
    <glyph glyph-name="l.numr" horiz-adv-x="180" 
d="M159 700h51l-90 -420h-50z" />
    <glyph glyph-name="m.numr" horiz-adv-x="566" 
d="M266 280l37 179c3 15 6 29 6 42c0 31 -14 54 -54 54c-53 0 -87 -45 -100 -109l-36 -166h-50l66 309h48l-4 -20c-1 -9 -5 -19 -8 -28h2c17 32 51 56 98 56s76 -22 85 -57h1c19 31 57 57 110 57c60 0 90 -34 90 -85c0 -12 -3 -32 -6 -47l-39 -185h-50l38 179
c3 15 5 29 5 42c0 31 -14 54 -54 54c-53 0 -85 -44 -100 -109l-36 -166h-49z" />
    <glyph glyph-name="n.numr" horiz-adv-x="381" 
d="M69 280l66 309h48l-5 -23c-1 -7 -4 -15 -7 -26h1c19 33 53 57 104 57c63 0 97 -34 97 -85c0 -21 -4 -40 -8 -56l-38 -176h-49l38 179c3 15 5 29 5 41c0 31 -15 55 -62 55c-61 0 -91 -50 -106 -117l-34 -158h-50z" />
    <glyph glyph-name="o.numr" horiz-adv-x="371" 
d="M242 600c80 0 134 -47 134 -130c0 -97 -59 -195 -170 -195c-81 0 -132 51 -132 131c0 101 60 194 168 194zM208 316c78 0 117 85 117 154c0 55 -28 90 -83 90c-80 0 -118 -80 -118 -152c0 -55 29 -92 84 -92z" />
    <glyph glyph-name="p.numr" horiz-adv-x="389" 
d="M135 589h48l-2 -9c-2 -13 -5 -26 -8 -39h1c20 32 57 57 104 57c75 0 116 -51 116 -130c0 -100 -63 -196 -166 -196c-49 0 -86 27 -97 64h-1l-12 -59l-21 -102h-49zM226 313c79 0 118 82 118 154c0 55 -25 90 -80 90c-78 0 -117 -90 -117 -156c0 -45 30 -88 79 -88z" />
    <glyph glyph-name="q.numr" horiz-adv-x="389" 
d="M348 589h48l-88 -414h-49l19 91l15 63h-1c-21 -32 -57 -57 -104 -57c-75 0 -116 54 -116 130c0 99 64 196 164 196c51 0 88 -25 99 -64h2c1 12 4 23 7 38zM239 557c-76 0 -117 -81 -117 -154c0 -53 27 -89 80 -89c79 0 117 90 117 154c0 48 -29 89 -80 89z" />
    <glyph glyph-name="r.numr" horiz-adv-x="236" 
d="M68 280l65 309h48l-3 -18c-1 -9 -4 -18 -9 -37h1c16 37 56 62 105 62h15l-10 -48c-5 1 -11 1 -18 1c-57 0 -96 -39 -111 -106l-34 -163h-49z" />
    <glyph glyph-name="s.numr" horiz-adv-x="325" 
d="M60 379h49c3 -48 39 -66 80 -66c43 0 77 17 77 53c0 27 -19 38 -58 51l-36 13c-47 17 -78 32 -78 83c0 53 44 88 117 88c72 0 123 -26 123 -97h-48c0 40 -28 58 -75 58c-45 0 -67 -15 -67 -45c0 -27 21 -37 56 -49l38 -14c43 -15 78 -33 78 -82c0 -35 -13 -59 -39 -74
c-25 -15 -55 -23 -90 -23c-66 0 -127 27 -127 104z" />
    <glyph glyph-name="t.numr" horiz-adv-x="224" 
d="M220 684l-20 -95h63l-8 -40h-63l-40 -190c-2 -9 -3 -15 -3 -19c0 -13 7 -21 31 -21h21l-9 -41c-13 -1 -15 -2 -30 -2c-48 0 -66 14 -66 43c0 9 3 19 4 31l42 199h-49l8 40h49l20 95h50z" />
    <glyph glyph-name="u.numr" horiz-adv-x="380" 
d="M387 589l-66 -309h-48l3 17c3 7 4 18 7 31h-1c-19 -32 -54 -56 -102 -56c-63 0 -95 34 -95 83c0 19 3 36 6 49l39 185h50l-38 -180c-3 -13 -6 -26 -6 -41c0 -37 24 -54 61 -54c59 0 92 50 107 119l33 156h50z" />
    <glyph glyph-name="v.numr" horiz-adv-x="319" 
d="M137 280l-45 309h51l17 -155c4 -36 8 -70 13 -101h1c17 32 39 70 59 105l85 151h54l-183 -309h-52z" />
    <glyph glyph-name="w.numr" horiz-adv-x="492" 
d="M127 280l-32 309h52l11 -161c3 -27 6 -72 7 -93h1c12 23 27 58 46 95l77 159h54l11 -157c3 -36 3 -58 6 -97h1c16 32 32 67 47 96l78 158h53l-164 -309h-54l-11 157c-1 36 -2 63 -5 95h-1c-13 -31 -30 -65 -46 -98l-76 -154h-55z" />
    <glyph glyph-name="x.numr" horiz-adv-x="323" 
d="M27 280l148 163l-75 146h54l53 -113l100 113h60l-138 -150l84 -159h-54l-64 125l-110 -125h-58z" />
    <glyph glyph-name="y.numr" horiz-adv-x="312" 
d="M139 281l-55 308h50l20 -134c7 -36 12 -76 17 -123h1c20 37 44 84 68 127l71 130h54l-202 -347c-31 -55 -60 -68 -103 -68c-13 0 -23 1 -32 2l9 40c7 -1 15 -2 24 -2c39 0 55 22 72 57z" />
    <glyph glyph-name="z.numr" horiz-adv-x="324" 
d="M355 589l-8 -38l-172 -166c-21 -21 -41 -39 -64 -62v-1c24 1 61 1 89 1h111l-10 -43h-262l9 40l180 175c16 16 42 39 55 51v1c-21 -1 -51 -1 -78 -1h-101l9 43h242z" />
    <glyph glyph-name="zero.numr" horiz-adv-x="402" 
d="M218 275c-98 0 -130 78 -130 151c0 104 57 279 198 279c100 0 129 -78 129 -153c0 -103 -56 -277 -197 -277zM133 424c0 -29 6 -54 18 -76c13 -22 35 -33 68 -33c104 0 151 148 151 239c0 58 -19 111 -86 111c-104 0 -151 -148 -151 -241z" />
    <glyph glyph-name="one.numr" horiz-adv-x="262" 
d="M89 581l7 32c79 0 129 20 152 87h32l-90 -420h-43l64 301h-122z" />
    <glyph glyph-name="two.numr" horiz-adv-x="387" 
d="M157 551h-45c2 45 18 81 47 110c30 29 68 44 113 44c80 0 139 -39 139 -111c0 -73 -60 -113 -129 -149l-40 -21c-52 -27 -113 -51 -138 -103h261l-9 -41h-305c6 91 80 132 158 172l34 17c70 38 123 63 123 124c0 47 -43 72 -94 72c-69 0 -111 -51 -115 -114z" />
    <glyph glyph-name="three.numr" horiz-adv-x="391" 
d="M74 418h45c-1 -9 -1 -12 -1 -16c0 -58 32 -87 97 -87s119 34 119 94c0 51 -41 74 -93 74h-33l7 36h23c57 0 125 15 125 81c0 43 -37 65 -88 65c-61 0 -107 -38 -115 -98h-45c11 83 69 138 160 138c77 0 133 -36 133 -105c0 -52 -41 -89 -92 -101c37 -13 63 -48 63 -89
c0 -85 -75 -135 -163 -135c-87 0 -143 41 -143 124c0 7 0 12 1 19z" />
    <glyph glyph-name="four.numr" horiz-adv-x="394" 
d="M255 280l22 96h-227l9 41l281 283h51l-62 -284h71l-9 -40h-70l-22 -96h-44zM338 647h-1c-33 -35 -61 -62 -108 -109l-122 -122h178l23 100z" />
    <glyph glyph-name="five.numr" horiz-adv-x="386" 
d="M92 473l82 227h243l-12 -41h-204l-44 -122c31 20 62 26 90 26c81 0 136 -51 136 -127c0 -95 -68 -161 -175 -161c-77 0 -140 39 -140 114c0 8 1 15 1 16h43v-11c0 -51 39 -79 96 -79c43 0 75 12 97 36s33 52 33 83c0 55 -37 88 -97 88c-43 0 -86 -14 -107 -49h-42z" />
    <glyph glyph-name="six.numr" horiz-adv-x="391" 
d="M411 600h-45c0 47 -30 68 -81 68c-96 0 -130 -103 -146 -168h1c23 36 64 57 113 57c80 0 131 -51 131 -124c0 -88 -64 -158 -161 -158c-92 0 -136 57 -136 146c0 105 53 287 198 287c79 0 126 -35 126 -108zM227 315c75 0 112 59 112 113c0 59 -41 88 -97 88
c-67 0 -110 -53 -110 -108c0 -59 36 -93 95 -93z" />
    <glyph glyph-name="seven.numr" horiz-adv-x="346" 
d="M103 659l8 41h314l-8 -35c-70 -56 -217 -190 -268 -385h-48c40 134 107 251 253 379h-251z" />
    <glyph glyph-name="eight.numr" horiz-adv-x="401" 
d="M389 407c0 -86 -78 -132 -166 -132c-78 0 -149 41 -149 121c0 63 51 101 115 114c-33 15 -58 48 -58 83c0 73 63 112 144 112c68 0 137 -30 137 -101c0 -52 -38 -92 -90 -104c43 -16 67 -53 67 -93zM275 668c-59 0 -100 -25 -100 -74c0 -47 39 -73 92 -73
c55 0 101 29 101 81c0 47 -44 66 -93 66zM118 397c0 -57 51 -85 108 -85c71 0 119 35 119 95c0 55 -53 79 -112 79c-61 0 -115 -34 -115 -89z" />
    <glyph glyph-name="nine.numr" horiz-adv-x="391" 
d="M80 383h45c0 -47 32 -68 81 -68c96 0 130 103 146 168h-1c-21 -36 -64 -57 -113 -57c-80 0 -131 51 -131 124c0 88 64 158 161 158c92 0 136 -57 136 -146c0 -105 -53 -287 -198 -287c-77 0 -126 35 -126 108zM264 668c-74 0 -112 -58 -112 -113c0 -57 41 -88 97 -88
c67 0 110 54 110 108c0 59 -36 93 -95 93z" />
    <glyph glyph-name="parenleft.numr" horiz-adv-x="212" 
d="M162 208h-38c-19 55 -33 116 -33 181c0 127 51 245 135 342h43c-84 -107 -134 -221 -134 -356c0 -56 10 -110 27 -167z" />
    <glyph glyph-name="parenright.numr" horiz-adv-x="212" 
d="M141 731h38c19 -55 33 -114 33 -181c0 -125 -51 -243 -135 -342h-43c84 107 134 223 134 356c0 56 -10 110 -27 167z" />
    <glyph glyph-name="bracketleft.numr" horiz-adv-x="228" 
d="M179 208h-109l110 523h110l-7 -35h-66l-97 -453h65z" />
    <glyph glyph-name="bracketright.numr" horiz-adv-x="229" 
d="M141 731h109l-110 -523h-110l7 35h66l97 453h-65z" />
    <glyph glyph-name="plus.numr" horiz-adv-x="394" 
d="M226 511v133h43v-133h130v-41h-130v-132h-43v132h-131v41h131z" />
    <glyph glyph-name="minus.numr" horiz-adv-x="423" 
d="M413 513v-41h-302v41h302z" />
    <glyph glyph-name="equal.numr" horiz-adv-x="456" 
d="M429 585v-41h-302v41h302zM429 441v-41h-302v41h302z" />
    <glyph glyph-name="period.numr" horiz-adv-x="172" 
d="M123 280h-59l14 70h59z" />
    <glyph glyph-name="comma.numr" horiz-adv-x="172" 
d="M79 350h60l-14 -65c-5 -25 -14 -43 -26 -58c-15 -18 -33 -30 -56 -35l6 28c27 8 40 31 45 55l1 5h-31z" />
    <glyph glyph-name="bar" unicode="|" horiz-adv-x="223" 
d="M-1 -172l184 872h46l-185 -872h-45z" />
    <glyph glyph-name="bar.case" horiz-adv-x="224" 
d="M18 -86l184 872h46l-185 -872h-45z" />
    <glyph glyph-name="brokenbar" unicode="&#xa6;" horiz-adv-x="223" 
d="M109 351l74 349h46l-74 -349h-46zM-1 -172l73 349h46l-74 -349h-45z" />
    <glyph glyph-name="brokenbar.case" horiz-adv-x="224" 
d="M128 437l74 349h46l-74 -349h-46zM18 -86l73 349h46l-74 -349h-45z" />
    <glyph glyph-name="backslash" unicode="\" horiz-adv-x="362" 
d="M235 0l-109 700h43l109 -700h-43z" />
    <glyph glyph-name="uni00AD" unicode="&#xad;" horiz-adv-x="387" 
d="M332 252h-279l11 53h279z" />
    <glyph glyph-name="uni00AD.case" horiz-adv-x="407" 
d="M357 332h-279l11 53h279z" />
    <glyph glyph-name="hyphen" unicode="-" horiz-adv-x="387" 
d="M332 252h-279l11 53h279z" />
    <glyph glyph-name="hyphen.case" horiz-adv-x="407" 
d="M357 332h-279l11 53h279z" />
    <glyph glyph-name="endash" unicode="&#x2013;" horiz-adv-x="603" 
d="M550 249h-499l11 53h499z" />
    <glyph glyph-name="endash.case" horiz-adv-x="620" 
d="M573 329h-499l11 53h499z" />
    <glyph glyph-name="emdash" unicode="&#x2014;" horiz-adv-x="1104" 
d="M1051 250h-1000l11 53h1000z" />
    <glyph glyph-name="emdash.case" horiz-adv-x="1122" 
d="M1074 330h-1000l11 53h1000z" />
    <glyph glyph-name="underscore" unicode="_" horiz-adv-x="474" 
d="M399 -122h-484l9 44h484z" />
    <glyph glyph-name="bullet" unicode="&#x2022;" horiz-adv-x="439" 
d="M106 352c0 73 60 133 132 133c73 0 133 -60 133 -133c0 -72 -60 -132 -133 -132c-72 0 -132 60 -132 132z" />
    <glyph glyph-name="H18533" unicode="&#x25cf;" horiz-adv-x="235" 
d="M71 302c0 31 24 55 55 55s55 -24 55 -55s-24 -55 -55 -55s-55 24 -55 55z" />
    <glyph glyph-name="middot" unicode="&#xb7;" horiz-adv-x="204" 
d="M133 222h-77l25 117h77z" />
    <glyph glyph-name="periodcentered.case" horiz-adv-x="212" 
d="M153 302h-77l25 117h77z" />
    <glyph glyph-name="quotesinglbase" unicode="&#x201a;" horiz-adv-x="202" 
d="M40 117h77l-24 -113c-7 -29 -16 -55 -28 -77c-19 -29 -44 -54 -80 -69l10 45c35 19 49 53 58 97h-38z" />
    <glyph glyph-name="quotedblbase" unicode="&#x201e;" horiz-adv-x="372" 
d="M40 117h77l-24 -113c-7 -29 -16 -55 -28 -77c-19 -29 -44 -54 -80 -69l10 45c35 19 49 53 58 97h-38zM210 117h77l-24 -113c-7 -29 -16 -55 -28 -77c-19 -29 -44 -54 -80 -69l10 45c35 19 49 53 58 97h-38z" />
    <glyph glyph-name="quoteleft" unicode="&#x2018;" horiz-adv-x="200" 
d="M202 566l-25 -117h-77l24 113c7 29 16 55 28 77c19 31 44 54 80 69l-10 -45c-33 -19 -46 -46 -59 -97h39z" />
    <glyph glyph-name="quoteright" unicode="&#x2019;" horiz-adv-x="193" 
d="M157 700h77l-24 -113c-7 -29 -16 -55 -28 -77c-19 -29 -44 -54 -80 -69l10 45c35 19 49 53 58 97h-38z" />
    <glyph glyph-name="quotedblleft" unicode="&#x201c;" horiz-adv-x="370" 
d="M202 566l-25 -117h-77l24 113c7 29 16 55 28 77c19 31 44 54 80 69l-10 -45c-33 -19 -46 -46 -59 -97h39zM372 566l-25 -117h-77l24 113c7 29 16 55 28 77c19 31 44 54 80 69l-10 -45c-33 -19 -46 -46 -59 -97h39z" />
    <glyph glyph-name="quotedblright" unicode="&#x201d;" horiz-adv-x="363" 
d="M157 700h77l-24 -113c-7 -29 -16 -55 -28 -77c-19 -29 -44 -54 -80 -69l10 45c35 19 49 53 58 97h-38zM327 700h77l-24 -113c-7 -29 -16 -55 -28 -77c-19 -29 -44 -54 -80 -69l10 45c35 19 49 53 58 97h-38z" />
    <glyph glyph-name="guilsinglleft" unicode="&#x2039;" horiz-adv-x="262" 
d="M40 270l217 199l-13 -63l-175 -161l107 -159l-12 -56l-133 200z" />
    <glyph glyph-name="guilsinglright" unicode="&#x203a;" horiz-adv-x="262" 
d="M3 30l13 63l175 161l-107 159l12 56l133 -200l-9 -40z" />
    <glyph glyph-name="guilsinglleft.case" horiz-adv-x="263" 
d="M61 370l217 199l-13 -63l-175 -161l107 -159l-12 -56l-133 200z" />
    <glyph glyph-name="guilsinglright.case" horiz-adv-x="263" 
d="M25 130l13 63l175 161l-107 159l12 56l133 -200l-9 -40z" />
    <glyph glyph-name="guillemotleft" unicode="&#xab;" horiz-adv-x="472" 
d="M40 270l217 199l-13 -63l-175 -161l107 -159l-12 -56l-133 200zM250 270l217 199l-13 -63l-175 -161l107 -159l-12 -56l-133 200z" />
    <glyph glyph-name="guillemotright" unicode="&#xbb;" horiz-adv-x="472" 
d="M3 30l13 63l175 161l-107 159l12 56l133 -200l-9 -40zM213 30l13 63l175 161l-107 159l12 56l133 -200l-9 -40z" />
    <glyph glyph-name="guillemotleft.case" horiz-adv-x="473" 
d="M61 370l217 199l-13 -63l-175 -161l107 -159l-12 -56l-133 200zM271 370l217 199l-13 -63l-175 -161l107 -159l-12 -56l-133 200z" />
    <glyph glyph-name="guillemotright.case" horiz-adv-x="473" 
d="M25 130l13 63l175 161l-107 159l12 56l133 -200l-9 -40zM235 130l13 63l175 161l-107 159l12 56l133 -200l-9 -40z" />
    <glyph glyph-name="quotesingle" unicode="'" horiz-adv-x="180" 
d="M104 422l49 278h60l-69 -278h-40z" />
    <glyph glyph-name="quotedbl" unicode="&#x22;" horiz-adv-x="335" 
d="M104 422l49 278h60l-69 -278h-40zM259 422l49 278h60l-69 -278h-40z" />
    <glyph glyph-name="ampersand" unicode="&#x26;" horiz-adv-x="598" 
d="M493 307h53c-11 -65 -40 -130 -79 -181l88 -126h-63l-60 87c-52 -61 -121 -102 -208 -102c-112 0 -195 59 -195 173c0 125 110 182 209 230l-14 21c-28 47 -54 87 -54 144c0 94 75 147 163 147c95 0 155 -51 155 -126c0 -105 -96 -161 -180 -203l130 -200
c25 35 46 92 55 136zM284 411l14 7c60 30 136 70 136 146c0 59 -41 90 -101 90c-68 0 -108 -40 -108 -101c0 -49 23 -87 48 -126zM406 127l-145 222c-79 -38 -178 -89 -178 -190c0 -75 60 -128 141 -128c72 0 133 35 182 96z" />
    <glyph glyph-name="at" unicode="@" horiz-adv-x="782" 
d="M46 224c0 233 159 401 359 401c189 0 330 -123 330 -300c0 -73 -24 -141 -63 -192c-43 -57 -103 -94 -155 -94c-40 0 -70 20 -70 69h-4c-35 -45 -77 -68 -126 -68c-80 0 -127 61 -127 144c0 81 37 171 98 226c36 32 79 53 127 53c60 0 102 -35 107 -92h4l24 73h42
l-94 -281c-7 -21 -11 -38 -11 -52c0 -20 9 -34 40 -34c35 0 68 23 97 56c40 47 67 118 67 191c0 163 -131 262 -284 262c-188 0 -317 -155 -317 -364c0 -180 131 -288 285 -288c129 0 229 50 290 131h44c-60 -110 -190 -170 -332 -170c-190 0 -331 134 -331 329zM410 424
c-39 0 -72 -18 -99 -45c-50 -48 -80 -131 -80 -192c0 -73 39 -108 91 -108c98 0 177 154 177 247c0 55 -34 98 -89 98z" />
    <glyph glyph-name="at.case" horiz-adv-x="786" 
d="M68 315c0 233 159 401 359 401c189 0 330 -123 330 -300c0 -73 -24 -141 -63 -192c-43 -57 -103 -94 -155 -94c-40 0 -70 20 -70 69h-4c-35 -45 -77 -68 -126 -68c-80 0 -127 61 -127 144c0 81 37 171 98 226c36 32 79 53 127 53c60 0 102 -35 107 -92h4l24 73h42
l-94 -281c-7 -21 -11 -38 -11 -52c0 -20 9 -34 40 -34c35 0 68 23 97 56c40 47 67 118 67 191c0 163 -131 262 -284 262c-188 0 -317 -155 -317 -364c0 -180 131 -288 285 -288c129 0 229 50 290 131h44c-60 -110 -190 -170 -332 -170c-190 0 -331 134 -331 329zM432 515
c-39 0 -72 -18 -99 -45c-50 -48 -80 -131 -80 -192c0 -73 39 -108 91 -108c98 0 177 154 177 247c0 55 -34 98 -89 98z" />
    <glyph glyph-name="section" unicode="&#xa7;" horiz-adv-x="558" 
d="M212 569c0 -59 42 -88 109 -131l56 -35c65 -40 136 -83 136 -177c0 -73 -50 -127 -127 -150c15 -17 28 -46 28 -81c0 -99 -94 -157 -202 -157s-207 45 -207 176h56c0 -95 69 -129 151 -129c85 0 143 39 143 108c0 25 -9 46 -27 63s-38 32 -59 47l-77 53
c-62 44 -132 87 -132 172c0 68 46 128 127 149c-21 23 -31 53 -31 90c0 79 64 146 184 146c119 0 198 -49 198 -160h-55c0 80 -58 114 -143 114c-79 0 -128 -35 -128 -98zM456 224c0 56 -32 87 -107 135l-132 84c-44 -6 -99 -44 -99 -107c0 -55 32 -87 97 -131l141 -95
c49 14 100 48 100 114z" />
    <glyph glyph-name="paragraph" unicode="&#xb6;" horiz-adv-x="599" 
d="M592 700l-182 -847h-53l171 800h-135l-173 -800h-53l115 536c-7 -1 -15 -1 -22 -1c-91 0 -168 53 -168 153c0 80 44 135 131 152c25 5 64 7 96 7h273z" />
    <glyph glyph-name="dagger" unicode="&#x2020;" horiz-adv-x="507" 
d="M261 420h-200l11 50h200l49 230h53l-49 -230h201l-11 -50h-201l-121 -568h-53z" />
    <glyph glyph-name="daggerdbl" unicode="&#x2021;" horiz-adv-x="558" 
d="M226 132l61 288h-200l11 50h200l49 230h53l-49 -230h201l-11 -50h-201l-61 -288h201l-11 -50h-201l-49 -231h-53l49 231h-200l11 50h200z" />
    <glyph glyph-name="ordfeminine" unicode="&#xaa;" horiz-adv-x="383" 
d="M375 600l-30 -145c-1 -5 -2 -8 -2 -12c0 -8 6 -12 19 -12h11l-8 -35c-9 -1 -13 -2 -25 -2c-30 0 -45 10 -45 30v9h-1c-21 -25 -58 -44 -107 -44c-55 0 -94 32 -94 81c0 31 14 60 43 77c29 19 70 25 113 30l28 5c39 5 47 12 51 36c1 5 2 9 2 12c0 29 -23 43 -69 43
c-51 0 -73 -22 -82 -69h-50c13 77 67 108 136 108c67 0 114 -19 114 -76c0 -12 -1 -27 -4 -36zM307 507l11 51c-5 -4 -11 -8 -34 -12l-38 -7c-35 -7 -61 -12 -77 -23c-15 -9 -22 -23 -22 -41c0 -28 21 -48 58 -48c43 0 90 23 102 80z" />
    <glyph glyph-name="ordmasculine" unicode="&#xba;" horiz-adv-x="382" 
d="M269 716c80 0 134 -47 134 -130c0 -97 -59 -195 -170 -195c-81 0 -132 51 -132 131c0 101 60 194 168 194zM235 432c78 0 117 85 117 154c0 55 -28 90 -83 90c-80 0 -118 -80 -118 -152c0 -55 29 -92 84 -92z" />
    <glyph glyph-name="degree" unicode="&#xb0;" horiz-adv-x="384" 
d="M103 562c0 83 67 151 151 151c85 0 151 -68 151 -151c0 -82 -66 -151 -151 -151c-84 0 -151 69 -151 151zM139 562c0 -64 50 -115 115 -115c67 0 116 51 116 115s-49 116 -116 116c-65 0 -115 -52 -115 -116z" />
    <glyph glyph-name="uni2116" unicode="&#x2116;" horiz-adv-x="1058" 
d="M940 716c80 0 134 -47 134 -130c0 -97 -59 -195 -170 -195c-81 0 -132 51 -132 131c0 101 60 194 168 194zM36 0l149 700h64l201 -421c25 -52 56 -126 87 -189h2c20 95 40 196 61 293l67 317h59l-149 -700h-63l-183 384c-44 97 -68 152 -105 229h-2
c-17 -84 -36 -178 -55 -265l-74 -348h-59zM906 432c78 0 117 85 117 154c0 55 -28 90 -83 90c-80 0 -118 -80 -118 -152c0 -55 29 -92 84 -92zM1021 275h-279l9 43h279z" />
    <glyph glyph-name="registered" unicode="&#xae;" horiz-adv-x="853" 
d="M85 351c0 203 159 362 362 362c204 0 362 -159 362 -362c0 -202 -158 -364 -362 -364c-203 0 -362 162 -362 364zM447 670c-180 0 -317 -141 -317 -319c0 -177 137 -322 317 -322c178 0 316 145 316 322c0 178 -138 319 -316 319zM302 142v414h181c43 0 70 -7 93 -26
c23 -17 39 -47 39 -84c0 -48 -20 -83 -67 -102c39 -12 54 -40 57 -91l4 -62c1 -15 6 -32 15 -49h-44c-9 15 -9 26 -12 49l-4 54c-2 46 -14 82 -81 82h-140v-185h-41zM343 520v-158h143c47 0 86 28 86 81c0 44 -27 77 -86 77h-143z" />
    <glyph glyph-name="copyright" unicode="&#xa9;" horiz-adv-x="853" 
d="M447 713c204 0 362 -159 362 -362c0 -202 -158 -364 -362 -364c-203 0 -362 162 -362 364c0 203 159 362 362 362zM447 670c-180 0 -317 -141 -317 -319c0 -177 137 -322 317 -322c178 0 316 145 316 322c0 178 -138 319 -316 319zM582 282h44
c-17 -89 -77 -152 -174 -152c-132 0 -196 102 -196 216c0 115 66 216 197 216c96 0 163 -61 172 -148h-44c-9 61 -52 111 -128 111c-108 0 -154 -92 -154 -179s44 -179 153 -179c75 0 118 51 130 115z" />
    <glyph glyph-name="uni2117" unicode="&#x2117;" horiz-adv-x="853" 
d="M447 713c204 0 362 -159 362 -362c0 -202 -158 -364 -362 -364c-203 0 -362 162 -362 364c0 203 159 362 362 362zM447 670c-180 0 -317 -141 -317 -319c0 -177 137 -322 317 -322c178 0 316 145 316 322c0 178 -138 319 -316 319zM322 142v414h160
c91 0 137 -49 137 -118c0 -81 -64 -124 -145 -124h-111v-172h-41zM363 520v-168h103c63 0 110 25 110 86c0 65 -48 82 -112 82h-101z" />
    <glyph glyph-name="trademark" unicode="&#x2122;" horiz-adv-x="1108" 
d="M321 238h-52v418h-153v44h357v-44h-152v-418zM566 238v462h83l106 -252c13 -31 43 -108 56 -142h1c13 36 43 119 59 160l93 234h84v-462h-52v235c0 87 1 141 1 185h-3c-10 -27 -41 -104 -64 -162l-101 -258h-37l-108 254c-23 54 -58 138 -68 167h-3c0 -37 2 -109 2 -196
v-225h-49z" />
    <glyph glyph-name="uni2113" unicode="&#x2113;" horiz-adv-x="429" 
d="M170 155c0 -83 18 -117 71 -117c55 0 71 42 74 82h58c-5 -79 -41 -132 -130 -132c-91 0 -131 42 -131 139v71l-83 -69v69l82 66v257c0 53 3 96 20 129c21 39 54 64 115 64c85 0 129 -46 129 -125c0 -108 -61 -220 -205 -348v-86zM315 586c0 60 -32 78 -71 78
c-52 0 -74 -32 -74 -120v-234c112 108 145 196 145 276z" />
    <glyph glyph-name="estimated" unicode="&#x212e;" horiz-adv-x="599" 
d="M554 262h-395v-144c0 -48 44 -70 67 -82c27 -12 54 -14 83 -14c79 0 141 29 186 98h37c-56 -91 -123 -129 -223 -129c-150 0 -247 117 -247 266c0 141 93 267 247 267s245 -111 245 -262zM159 290h301v116c0 32 -31 61 -66 74c-25 11 -53 15 -86 15s-58 -3 -83 -14
c-33 -13 -66 -41 -66 -73v-118z" />
    <glyph glyph-name="asterisk" unicode="*" horiz-adv-x="461" 
d="M336 695l-28 -161l162 24l5 -38l-162 -24l72 -146l-34 -16l-73 146l-116 -114l-26 28l117 114l-144 76l18 33l144 -76l28 161z" />
    <glyph glyph-name="numbersign" unicode="#" 
d="M315 0l84 225h-188l-84 -225h-43l84 225h-130l15 39h129l67 180h-132l16 39h131l81 217h43l-81 -217h188l81 217h43l-81 -217h128l-16 -39h-127l-67 -180h129l-15 -39h-128l-84 -225h-43zM292 444l-67 -180h188l67 180h-188z" />
    <glyph glyph-name="currency" unicode="&#xa4;" horiz-adv-x="605" 
d="M520 111l-65 65c-39 -31 -83 -47 -133 -47c-51 0 -96 16 -133 47l-65 -65l-32 31l65 65c-29 36 -46 82 -46 133c0 50 16 94 47 133l-66 66l32 31l65 -65c36 29 82 47 133 47s96 -18 133 -47l65 65l31 -32l-65 -65c31 -36 48 -82 48 -133s-18 -97 -47 -133l64 -64z
M156 340c0 -91 75 -166 166 -166c92 0 167 75 167 166c0 92 -75 167 -167 167c-91 0 -166 -75 -166 -167z" />
    <glyph glyph-name="dollar" unicode="$" horiz-adv-x="602" 
d="M203 -107l22 105c-117 16 -194 88 -194 225v5h57c-1 -2 -1 -6 -1 -12c0 -95 48 -159 147 -175l64 301l-13 4c-84 26 -168 59 -168 171c0 128 106 189 241 189h17l20 99h43l-21 -103c51 -7 94 -26 128 -57c35 -30 52 -74 52 -132c0 -9 -1 -12 -1 -15h-54v5
c0 95 -52 142 -135 154l-59 -278l30 -9c87 -28 170 -59 170 -173c0 -88 -63 -204 -264 -204c-5 0 -12 1 -17 1l-21 -101h-43zM173 520c0 -77 53 -101 135 -129l57 269h-5c-125 0 -187 -51 -187 -140zM346 327l-8 2l-62 -291h8c105 0 208 44 208 157c0 86 -64 108 -146 132z
" />
    <glyph glyph-name="Euro" unicode="&#x20ac;" horiz-adv-x="637" 
d="M436 302l-20 -43h-229c-1 -11 -1 -22 -1 -33c0 -95 33 -195 143 -195c103 0 165 88 197 190h53c-32 -126 -123 -236 -257 -236c-150 0 -189 134 -189 254v20h-84l20 43h67c3 31 9 63 16 96h-74l19 43h66c40 138 128 271 270 271c140 0 194 -102 194 -223v-16h-53v13
c0 97 -35 179 -145 179c-107 0 -174 -102 -212 -224h285l-19 -43h-277c-8 -32 -13 -64 -16 -96h246z" />
    <glyph glyph-name="sterling" unicode="&#xa3;" horiz-adv-x="579" 
d="M62 319l10 39h79c-17 43 -24 85 -24 122c0 139 90 233 234 233c127 0 206 -75 206 -198c0 -9 -1 -18 -1 -31h-53c1 7 1 13 1 25c0 107 -67 157 -154 157c-107 0 -178 -62 -178 -185c0 -39 7 -80 22 -123h175l-10 -39h-154c7 -25 7 -48 7 -69c0 -85 -53 -148 -129 -196
l2 -3c31 13 57 20 90 20s62 -10 91 -21c28 -9 57 -19 85 -19c51 0 84 25 120 58l24 -38c-49 -49 -95 -67 -152 -67c-41 0 -73 14 -108 25c-25 9 -53 16 -81 16c-44 0 -84 -13 -121 -36l-27 49c43 29 80 59 109 92c30 33 45 73 45 120c0 21 -1 44 -8 69h-100z" />
    <glyph glyph-name="yen" unicode="&#xa5;" horiz-adv-x="629" 
d="M33 157l10 45h226l18 86l-18 48h-198l9 45h172l-120 319h60l131 -365l287 365h67l-257 -319h182l-9 -45h-209l-38 -48l-18 -86h236l-10 -45h-236l-33 -157h-59l33 157h-226z" />
    <glyph glyph-name="florin" unicode="&#x192;" 
d="M88 -171l8 49c16 -3 30 -5 46 -5c66 0 88 38 108 147l71 365h-106l8 47h107l15 84c21 104 40 197 167 197c19 0 37 -1 57 -4l-8 -47c-14 2 -29 3 -45 3c-88 -2 -99 -58 -117 -155l-14 -78h138l-8 -47h-138l-67 -350c-24 -123 -38 -210 -174 -210c-13 0 -33 1 -48 4z" />
    <glyph glyph-name="cent" unicode="&#xa2;" horiz-adv-x="553" 
d="M523 357h-53c-5 69 -49 115 -116 124l-95 -449h3c88 0 146 56 175 136h57c-37 -113 -114 -182 -233 -182h-12l-19 -93h-42l20 98c-99 20 -153 99 -153 212c0 163 97 324 267 327l19 95h42l-19 -98c89 -11 154 -65 159 -170zM110 206c0 -81 35 -150 108 -169l94 445
c-132 -8 -202 -149 -202 -276z" />
    <glyph glyph-name="plus" unicode="+" 
d="M328 372v233h45v-233h235v-43h-235v-234h-45v234h-235v43h235z" />
    <glyph glyph-name="plus.ss06" 
d="M307 279v233h45v-233h235v-43h-235v-234h-45v234h-235v43h235z" />
    <glyph glyph-name="minus" unicode="&#x2212;" 
d="M601 371v-43h-507v43h507z" />
    <glyph glyph-name="minus.ss06" 
d="M584 278v-43h-507v43h507z" />
    <glyph glyph-name="multiply" unicode="&#xd7;" 
d="M314 351l-190 191l33 32l190 -191l191 191l32 -32l-190 -191l190 -190l-32 -33l-191 190l-190 -190l-33 33z" />
    <glyph glyph-name="x.ss20" 
d="M314 351l-190 191l33 32l190 -191l191 191l32 -32l-190 -191l190 -190l-32 -33l-191 190l-190 -190l-33 33z" />
    <glyph glyph-name="multiply.ss06" 
d="M298 258l-190 191l33 32l190 -191l191 191l32 -32l-190 -191l190 -190l-32 -33l-191 190l-190 -190l-33 33z" />
    <glyph glyph-name="divide" unicode="&#xf7;" 
d="M298 560c0 29 24 53 52 53c29 0 53 -25 53 -53c0 -27 -24 -54 -52 -54c-29 0 -53 26 -53 54zM600 330h-499v43h499v-43zM298 141c0 31 24 54 52 54c29 0 53 -25 53 -54c0 -27 -24 -53 -52 -53c-29 0 -53 25 -53 53z" />
    <glyph glyph-name="divide.ss06" 
d="M279 467c0 29 24 53 52 53c29 0 53 -25 53 -53c0 -27 -24 -54 -52 -54c-29 0 -53 26 -53 54zM581 237h-499v43h499v-43zM279 48c0 31 24 54 52 54c29 0 53 -25 53 -54c0 -27 -24 -53 -52 -53c-29 0 -53 25 -53 53z" />
    <glyph glyph-name="plusminus" unicode="&#xb1;" 
d="M314 460v191h45v-191h231v-43h-231v-185h-45v185h-231v43h231zM591 113v-43h-508v43h508z" />
    <glyph glyph-name="plusminus.ss06" 
d="M297 367v191h45v-191h231v-43h-231v-185h-45v185h-231v43h231zM574 20v-43h-508v43h508z" />
    <glyph glyph-name="equal" unicode="=" 
d="M593 491v-43h-500v43h500zM593 261v-43h-500v43h500z" />
    <glyph glyph-name="equal.ss06" 
d="M581 398v-43h-500v43h500zM581 168v-43h-500v43h500z" />
    <glyph glyph-name="notequal" unicode="&#x2260;" 
d="M591 257v-43h-288l-71 -171h-48l71 171h-164v43h182l77 187h-259v43h279l65 155h48l-65 -155h173v-43h-193l-77 -187h270z" />
    <glyph glyph-name="notequal.ss06" 
d="M581 164v-43h-288l-71 -171h-48l71 171h-164v43h182l77 187h-259v43h279l65 155h48l-65 -155h173v-43h-193l-77 -187h270z" />
    <glyph glyph-name="logicalnot" unicode="&#xac;" 
d="M519 175v297h-420v43h466v-340h-46z" />
    <glyph glyph-name="logicalnot.ss06" 
d="M509 82v297h-420v43h466v-340h-46z" />
    <glyph glyph-name="approxequal" unicode="&#x2248;" 
d="M380 427l-56 12c-24 5 -50 11 -67 11c-24 0 -43 -7 -52 -35h-44c10 52 42 78 96 78c19 0 39 -4 62 -9l56 -12c24 -5 50 -11 67 -11c24 0 43 7 52 35h44c-10 -52 -42 -78 -96 -78c-19 0 -39 4 -62 9zM380 221l-56 12c-24 5 -50 11 -67 11c-24 0 -43 -7 -52 -35h-44
c10 52 42 78 96 78c19 0 39 -4 62 -9l56 -12c24 -5 50 -11 67 -11c24 0 43 7 52 35h44c-10 -52 -42 -78 -96 -78c-19 0 -39 4 -62 9z" />
    <glyph glyph-name="approxequal.ss06" 
d="M361 334l-56 12c-24 5 -50 11 -67 11c-24 0 -43 -7 -52 -35h-44c10 52 42 78 96 78c19 0 39 -4 62 -9l56 -12c24 -5 50 -11 67 -11c24 0 43 7 52 35h44c-10 -52 -42 -78 -96 -78c-19 0 -39 4 -62 9zM361 128l-56 12c-24 5 -50 11 -67 11c-24 0 -43 -7 -52 -35h-44
c10 52 42 78 96 78c19 0 39 -4 62 -9l56 -12c24 -5 50 -11 67 -11c24 0 43 7 52 35h44c-10 -52 -42 -78 -96 -78c-19 0 -39 4 -62 9z" />
    <glyph glyph-name="infinity" unicode="&#x221e;" horiz-adv-x="870" 
d="M244 526c77 0 148 -55 209 -142c61 87 133 142 210 142c96 0 165 -74 165 -179c0 -104 -69 -179 -165 -179c-77 0 -151 59 -210 144c-57 -85 -132 -144 -209 -144c-97 0 -165 75 -165 179c0 105 68 179 165 179zM427 347v2c-52 68 -108 132 -183 132
c-72 0 -116 -59 -116 -134s44 -135 116 -135c77 0 139 71 183 135zM480 347c44 -63 107 -135 183 -135c72 0 116 60 116 135s-44 134 -116 134c-76 0 -129 -65 -183 -132v-2z" />
    <glyph glyph-name="infinity.ss06" horiz-adv-x="870" 
d="M226 433c77 0 148 -55 209 -142c61 87 133 142 210 142c96 0 165 -74 165 -179c0 -104 -69 -179 -165 -179c-77 0 -151 59 -210 144c-57 -85 -132 -144 -209 -144c-97 0 -165 75 -165 179c0 105 68 179 165 179zM409 254v2c-52 68 -108 132 -183 132
c-72 0 -116 -59 -116 -134s44 -135 116 -135c77 0 139 71 183 135zM462 254c44 -63 107 -135 183 -135c72 0 116 60 116 135s-44 134 -116 134c-76 0 -129 -65 -183 -132v-2z" />
    <glyph glyph-name="less" unicode="&#x3c;" 
d="M541 64l-432 262v46l432 262v-50l-383 -234v-2l383 -234v-50z" />
    <glyph glyph-name="less_hyphen" horiz-adv-x="648" 
d="M606 279v-46h-328c-48 0 -92 0 -153 1c31 -29 93 -94 134 -137l86 -88h-66l-116 123c-40 43 -83 87 -119 124c36 39 79 81 119 124l116 123h66l-86 -88c-41 -41 -103 -106 -134 -137c61 1 105 1 153 1h328z" />
    <glyph glyph-name="less_hyphen.case" horiz-adv-x="653" 
d="M636 392v-46h-328c-48 0 -92 0 -153 1c31 -29 93 -94 134 -137l86 -88h-66l-116 123c-40 43 -83 87 -119 124c36 39 79 81 119 124l116 123h66l-86 -88c-41 -41 -103 -106 -134 -137c61 1 105 1 153 1h328z" />
    <glyph glyph-name="greater" unicode="&#x3e;" 
d="M160 64v50l383 234v2l-383 234v50l432 -262v-46z" />
    <glyph glyph-name="hyphen_greater" horiz-adv-x="648" 
d="M42 279h328c48 0 92 0 153 -1c-31 31 -93 96 -134 137l-86 88h66l116 -123c40 -43 83 -85 119 -124c-36 -37 -79 -81 -119 -124l-116 -123h-66l86 88c41 43 103 108 134 137c-61 -1 -105 -1 -153 -1h-328v46z" />
    <glyph glyph-name="hyphen_greater.case" horiz-adv-x="654" 
d="M66 392h328c48 0 92 0 153 -1c-31 31 -93 96 -134 137l-86 88h66l116 -123c40 -43 83 -85 119 -124c-36 -37 -79 -81 -119 -124l-116 -123h-66l86 88c41 43 103 108 134 137c-61 -1 -105 -1 -153 -1h-328v46z" />
    <glyph glyph-name="lessequal" unicode="&#x2264;" 
d="M548 145l-432 262v46l432 262v-54l-383 -230v-2l383 -230v-54zM548 47v-47h-432v47h432z" />
    <glyph glyph-name="greaterequal" unicode="&#x2265;" 
d="M134 145v54l383 230v2l-383 230v54l432 -262v-46zM134 47h432v-47h-432v47z" />
    <glyph glyph-name="increment" unicode="&#x2206;" horiz-adv-x="697" 
d="M3 0l281 700h70l273 -700h-624zM320 648h-2c-18 -49 -50 -134 -73 -192l-163 -406h465l-155 406c-21 58 -54 142 -72 192z" />
    <glyph glyph-name="summation" unicode="&#x2211;" 
d="M76 -31l314 344l-312 338v49h517v-51h-439l310 -335l-319 -343h459v-51h-530v49z" />
    <glyph glyph-name="product" unicode="&#x220f;" horiz-adv-x="847" 
d="M113 649v51h742v-51h-138v-729h-59v729h-348v-729h-59v729h-138z" />
    <glyph glyph-name="Omega" unicode="&#x2126;" horiz-adv-x="833" 
d="M424 713c222 0 328 -174 328 -346c0 -133 -55 -243 -172 -316v-1c35 1 63 1 80 1h90v-51h-242v48c110 70 185 160 185 316c0 180 -109 300 -269 300s-269 -120 -269 -300c0 -157 76 -246 185 -316v-48h-242v51h90c17 0 45 0 80 -1v1c-117 73 -172 183 -172 316
c0 172 106 346 328 346z" />
    <glyph glyph-name="radical" unicode="&#x221a;" 
d="M73 468v47h167l87 -240c24 -68 58 -156 79 -223h2c23 68 54 154 79 226l153 422h58l-262 -700h-61l-178 468h-124z" />
    <glyph glyph-name="lozenge" unicode="&#x25ca;" 
d="M374 700l208 -351l-208 -349h-48l-207 349l207 351h48zM350 46l178 303l-178 304l-177 -304z" />
    <glyph glyph-name="integral" unicode="&#x222b;" 
d="M95 -171l8 49c16 -3 30 -5 46 -5c66 0 88 38 108 147l95 496c21 104 40 197 168 197c19 0 36 -1 56 -4l-8 -47c-14 2 -29 3 -45 3c-87 -2 -98 -58 -116 -155l-89 -475c-24 -123 -39 -210 -175 -210c-13 0 -33 1 -48 4z" />
    <glyph glyph-name="mu" unicode="&#xb5;" horiz-adv-x="588" 
d="M440 515h55v-515h-54v91h-2c-25 -61 -89 -105 -169 -105c-60 0 -101 13 -130 36l1 -87c0 -11 -1 -28 -2 -50c-1 -23 -4 -42 -9 -57h-58c13 43 14 101 14 166v521h55v-322c0 -92 28 -161 134 -161c104 0 165 79 165 182v301z" />
    <glyph glyph-name="partialdiff" unicode="&#x2202;" 
d="M217 526c11 132 82 190 170 190c128 0 166 -124 166 -269c0 -91 -16 -178 -43 -249c-23 -61 -55 -112 -98 -152c-43 -39 -94 -59 -154 -59c-97 0 -149 71 -149 160c0 113 71 274 387 285v22c0 93 -14 221 -110 221c-52 0 -109 -35 -117 -162zM274 28
c119 0 215 189 220 363c-200 -8 -325 -94 -325 -241c0 -73 40 -122 105 -122z" />
    <glyph glyph-name="asciicircum" unicode="^" horiz-adv-x="547" 
d="M120 370h-51l212 331h47l212 -331h-51l-183 289h-3z" />
    <glyph glyph-name="asciitilde" unicode="~" 
d="M391 372l-56 12c-24 5 -50 11 -67 11c-24 0 -43 -7 -52 -35h-44c10 52 42 78 96 78c19 0 39 -4 62 -9l56 -12c24 -5 50 -11 67 -11c24 0 43 7 52 35h44c-10 -52 -42 -78 -96 -78c-19 0 -39 4 -62 9z" />
    <glyph glyph-name="pi" unicode="&#x3c0;" horiz-adv-x="682" 
d="M221 0h-55v466h-104v49h551v-49h-105v-358c0 -47 15 -68 67 -68c16 0 27 1 38 2v-47c-13 -1 -27 -2 -51 -2c-81 0 -109 27 -109 114v359h-232v-466z" />
    <glyph glyph-name="fraction" unicode="&#x2044;" horiz-adv-x="160" 
d="M268 700h44l-379 -700h-47z" />
    <glyph glyph-name="percent" unicode="%" horiz-adv-x="864" 
d="M218 282c-98 0 -130 78 -130 151c0 104 57 279 198 279c100 0 129 -78 129 -153c0 -103 -56 -277 -197 -277zM133 431c0 -29 6 -54 18 -76c13 -22 35 -33 68 -33c104 0 151 148 151 239c0 58 -19 111 -86 111c-104 0 -151 -148 -151 -241zM620 -11
c-98 0 -130 78 -130 151c0 104 57 279 198 279c100 0 129 -78 129 -153c0 -103 -56 -277 -197 -277zM535 138c0 -29 6 -54 18 -76c13 -22 35 -33 68 -33c104 0 151 148 151 239c0 58 -19 111 -86 111c-104 0 -151 -148 -151 -241zM625 700h44l-379 -700h-47z" />
    <glyph glyph-name="perthousand" unicode="&#x2030;" horiz-adv-x="1254" 
d="M1004 -11c-98 0 -130 78 -130 151c0 104 57 279 198 279c100 0 129 -78 129 -153c0 -103 -56 -277 -197 -277zM919 138c0 -29 6 -54 18 -76c13 -22 35 -33 68 -33c104 0 151 148 151 239c0 58 -19 111 -86 111c-104 0 -151 -148 -151 -241zM218 282
c-98 0 -130 78 -130 151c0 104 57 279 198 279c100 0 129 -78 129 -153c0 -103 -56 -277 -197 -277zM133 431c0 -29 6 -54 18 -76c13 -22 35 -33 68 -33c104 0 151 148 151 239c0 58 -19 111 -86 111c-104 0 -151 -148 -151 -241zM620 -11c-98 0 -130 78 -130 151
c0 104 57 279 198 279c100 0 129 -78 129 -153c0 -103 -56 -277 -197 -277zM535 138c0 -29 6 -54 18 -76c13 -22 35 -33 68 -33c104 0 151 148 151 239c0 58 -19 111 -86 111c-104 0 -151 -148 -151 -241zM615 700h44l-379 -700h-47z" />
    <glyph glyph-name="onehalf" unicode="&#xbd;" horiz-adv-x="801" 
d="M96 581l7 32c79 0 129 20 152 87h32l-90 -420h-43l64 301h-122zM503 271h-45c2 45 18 81 47 110c30 29 68 44 113 44c80 0 139 -39 139 -111c0 -73 -60 -113 -129 -149l-40 -21c-52 -27 -113 -51 -138 -103h261l-9 -41h-305c6 91 80 132 158 172l34 17
c70 38 123 63 123 124c0 47 -43 72 -94 72c-69 0 -111 -51 -115 -114zM540 700h44l-379 -700h-47z" />
    <glyph glyph-name="onequarter" unicode="&#xbc;" horiz-adv-x="755" 
d="M551 0l22 96h-227l9 41l281 283h51l-62 -284h71l-9 -40h-70l-22 -96h-44zM634 367h-1c-33 -35 -61 -62 -108 -109l-122 -122h178l23 100zM96 581l7 32c79 0 129 20 152 87h32l-90 -420h-43l64 301h-122zM540 700h44l-379 -700h-47z" />
    <glyph glyph-name="threequarters" unicode="&#xbe;" horiz-adv-x="841" 
d="M75 425h45c-1 -9 -1 -12 -1 -16c0 -58 32 -87 97 -87s119 34 119 94c0 51 -41 74 -93 74h-33l7 36h23c57 0 125 15 125 81c0 43 -37 65 -88 65c-61 0 -107 -38 -115 -98h-45c11 83 69 138 160 138c77 0 133 -36 133 -105c0 -52 -41 -89 -92 -101c37 -13 63 -48 63 -89
c0 -85 -75 -135 -163 -135c-87 0 -143 41 -143 124c0 7 0 12 1 19zM640 0l22 96h-227l9 41l281 283h51l-62 -284h71l-9 -40h-70l-22 -96h-44zM723 367h-1c-33 -35 -61 -62 -108 -109l-122 -122h178l23 100zM629 700h44l-379 -700h-47z" />
    <glyph glyph-name="fiveeighths" unicode="&#x215d;" horiz-adv-x="862" 
d="M91 473l82 227h243l-12 -41h-204l-44 -122c31 20 62 26 90 26c81 0 136 -51 136 -127c0 -95 -68 -161 -175 -161c-77 0 -140 39 -140 114c0 8 1 15 1 16h43v-11c0 -51 39 -79 96 -79c43 0 75 12 97 36s33 52 33 83c0 55 -37 88 -97 88c-43 0 -86 -14 -107 -49h-42z
M794 122c0 -86 -78 -132 -166 -132c-78 0 -149 41 -149 121c0 63 51 101 115 114c-33 15 -58 48 -58 83c0 73 63 112 144 112c68 0 137 -30 137 -101c0 -52 -38 -92 -90 -104c43 -16 67 -53 67 -93zM680 383c-59 0 -100 -25 -100 -74c0 -47 39 -73 92 -73
c55 0 101 29 101 81c0 47 -44 66 -93 66zM523 112c0 -57 51 -85 108 -85c71 0 119 35 119 95c0 55 -53 79 -112 79c-61 0 -115 -34 -115 -89zM621 700h44l-379 -700h-47z" />
    <glyph glyph-name="oneeighth" unicode="&#x215b;" horiz-adv-x="787" 
d="M95 581l7 32c79 0 129 20 152 87h32l-90 -420h-43l64 301h-122zM713 122c0 -86 -78 -132 -166 -132c-78 0 -149 41 -149 121c0 63 51 101 115 114c-33 15 -58 48 -58 83c0 73 63 112 144 112c68 0 137 -30 137 -101c0 -52 -38 -92 -90 -104c43 -16 67 -53 67 -93z
M599 383c-59 0 -100 -25 -100 -74c0 -47 39 -73 92 -73c55 0 101 29 101 81c0 47 -44 66 -93 66zM442 112c0 -57 51 -85 108 -85c71 0 119 35 119 95c0 55 -53 79 -112 79c-61 0 -115 -34 -115 -89zM540 700h44l-379 -700h-47z" />
    <glyph glyph-name="onethird" unicode="&#x2153;" horiz-adv-x="783" 
d="M402 132h45c-1 -9 -1 -12 -1 -16c0 -58 32 -87 97 -87s119 34 119 94c0 51 -41 74 -93 74h-33l7 36h23c57 0 125 15 125 81c0 43 -37 65 -88 65c-61 0 -107 -38 -115 -98h-45c11 83 69 138 160 138c77 0 133 -36 133 -105c0 -52 -41 -89 -92 -101c37 -13 63 -48 63 -89
c0 -85 -75 -135 -163 -135c-87 0 -143 41 -143 124c0 7 0 12 1 19zM96 581l7 32c79 0 129 20 152 87h32l-90 -420h-43l64 301h-122zM540 700h44l-379 -700h-47z" />
    <glyph glyph-name="threeeighths" unicode="&#x215c;" horiz-adv-x="867" 
d="M72 425h45c-1 -9 -1 -12 -1 -16c0 -58 32 -87 97 -87s119 34 119 94c0 51 -41 74 -93 74h-33l7 36h23c57 0 125 15 125 81c0 43 -37 65 -88 65c-61 0 -107 -38 -115 -98h-45c11 83 69 138 160 138c77 0 133 -36 133 -105c0 -52 -41 -89 -92 -101c37 -13 63 -48 63 -89
c0 -85 -75 -135 -163 -135c-87 0 -143 41 -143 124c0 7 0 12 1 19zM799 122c0 -86 -78 -132 -166 -132c-78 0 -149 41 -149 121c0 63 51 101 115 114c-33 15 -58 48 -58 83c0 73 63 112 144 112c68 0 137 -30 137 -101c0 -52 -38 -92 -90 -104c43 -16 67 -53 67 -93z
M685 383c-59 0 -100 -25 -100 -74c0 -47 39 -73 92 -73c55 0 101 29 101 81c0 47 -44 66 -93 66zM528 112c0 -57 51 -85 108 -85c71 0 119 35 119 95c0 55 -53 79 -112 79c-61 0 -115 -34 -115 -89zM626 700h44l-379 -700h-47z" />
    <glyph glyph-name="seveneighths" unicode="&#x215e;" horiz-adv-x="776" 
d="M114 659l8 41h314l-8 -35c-70 -56 -217 -190 -268 -385h-48c40 134 107 251 253 379h-251zM701 122c0 -86 -78 -132 -166 -132c-78 0 -149 41 -149 121c0 63 51 101 115 114c-33 15 -58 48 -58 83c0 73 63 112 144 112c68 0 137 -30 137 -101c0 -52 -38 -92 -90 -104
c43 -16 67 -53 67 -93zM587 383c-59 0 -100 -25 -100 -74c0 -47 39 -73 92 -73c55 0 101 29 101 81c0 47 -44 66 -93 66zM430 112c0 -57 51 -85 108 -85c71 0 119 35 119 95c0 55 -53 79 -112 79c-61 0 -115 -34 -115 -89zM528 700h44l-379 -700h-47z" />
    <glyph glyph-name="twothirds" unicode="&#x2154;" horiz-adv-x="879" 
d="M160 556h-45c2 45 18 81 47 110c30 29 68 44 113 44c80 0 139 -39 139 -111c0 -73 -60 -113 -129 -149l-40 -21c-52 -27 -113 -51 -138 -103h261l-9 -41h-305c6 91 80 132 158 172l34 17c70 38 123 63 123 124c0 47 -43 72 -94 72c-69 0 -111 -51 -115 -114zM505 132h45
c-1 -9 -1 -12 -1 -16c0 -58 32 -87 97 -87s119 34 119 94c0 51 -41 74 -93 74h-33l7 36h23c57 0 125 15 125 81c0 43 -37 65 -88 65c-61 0 -107 -38 -115 -98h-45c11 83 69 138 160 138c77 0 133 -36 133 -105c0 -52 -41 -89 -92 -101c37 -13 63 -48 63 -89
c0 -85 -75 -135 -163 -135c-87 0 -143 41 -143 124c0 7 0 12 1 19zM643 700h44l-379 -700h-47z" />
    <glyph glyph-name="arrowleft" unicode="&#x2190;" horiz-adv-x="648" 
d="M606 279v-46h-328c-48 0 -92 0 -153 1c31 -29 93 -94 134 -137l86 -88h-66l-116 123c-40 43 -83 87 -119 124c36 39 79 81 119 124l116 123h66l-86 -88c-41 -41 -103 -106 -134 -137c61 1 105 1 153 1h328z" />
    <glyph glyph-name="uni2196" unicode="&#x2196;" horiz-adv-x="612" 
d="M499 65l-231 231c-33 35 -65 66 -108 110v-21c0 -47 -2 -116 -2 -167v-126l-48 46l5 169c3 59 3 119 3 172c53 0 113 2 172 3l169 5l49 -48h-126c-51 0 -122 -2 -169 -2h-22c44 -41 77 -73 110 -108l231 -231z" />
    <glyph glyph-name="arrowup" unicode="&#x2191;" horiz-adv-x="585" 
d="M276 -13v327c0 48 0 93 1 154c-29 -31 -94 -94 -137 -135l-88 -85v66l123 116c43 40 87 82 124 119c39 -37 81 -79 124 -119l123 -116v-66l-88 85l-137 135c1 -61 1 -106 1 -154v-327h-46z" />
    <glyph glyph-name="uni2197" unicode="&#x2197;" horiz-adv-x="612" 
d="M115 65l-33 33l231 231c35 35 66 67 110 108h-22c-47 0 -118 2 -169 2h-126l49 48l169 -5c59 -1 119 -3 172 -3c0 -53 2 -113 3 -172l5 -169l-48 -46v126c0 51 -2 120 -2 167v21c-41 -44 -73 -75 -108 -110z" />
    <glyph glyph-name="arrowright" unicode="&#x2192;" horiz-adv-x="648" 
d="M42 279h328c48 0 92 0 153 -1c-31 31 -93 96 -134 137l-86 88h66l116 -123c40 -43 83 -85 119 -124c-36 -37 -79 -81 -119 -124l-116 -123h-66l86 88c41 43 103 108 134 137c-61 -1 -105 -1 -153 -1h-328v46z" />
    <glyph glyph-name="uni2198" unicode="&#x2198;" horiz-adv-x="612" 
d="M119 477l231 -231c35 -33 67 -66 108 -110v21c0 47 2 116 2 167v126l48 -46l-5 -169c-1 -59 -3 -119 -3 -172c-53 0 -113 0 -172 -3l-169 -5l-49 48h126c51 0 122 2 169 2h22c-44 43 -75 75 -110 108l-231 231z" />
    <glyph glyph-name="arrowdown" unicode="&#x2193;" horiz-adv-x="586" 
d="M267 537h46v-327c0 -48 0 -93 -1 -154c31 33 96 94 137 135l88 85v-66l-123 -116c-43 -40 -85 -82 -124 -119c-37 37 -81 79 -124 119l-123 116v66l88 -85c43 -41 108 -102 137 -135c-1 61 -1 106 -1 154v327z" />
    <glyph glyph-name="uni2199" unicode="&#x2199;" horiz-adv-x="612" 
d="M505 477l33 -33l-231 -231l-110 -108h22c47 0 118 -2 169 -2h126l-49 -48l-169 5c-59 3 -119 3 -172 3c0 53 0 113 -3 172l-5 169l48 46v-126c0 -51 2 -120 2 -167v-21l108 110z" />
    <glyph glyph-name="arrowleft.case" horiz-adv-x="653" 
d="M636 392v-46h-328c-48 0 -92 0 -153 1c31 -29 93 -94 134 -137l86 -88h-66l-116 123c-40 43 -83 87 -119 124c36 39 79 81 119 124l116 123h66l-86 -88c-41 -41 -103 -106 -134 -137c61 1 105 1 153 1h328z" />
    <glyph glyph-name="uni2196.case" horiz-adv-x="581" 
d="M507 178l-231 231c-33 35 -65 66 -108 110v-21c0 -47 -2 -116 -2 -167v-126l-48 46l5 169c3 59 3 119 3 172c53 0 113 2 172 3l169 5l49 -48h-126c-51 0 -122 -2 -169 -2h-22c44 -41 77 -73 110 -108l231 -231z" />
    <glyph glyph-name="arrowup.case" horiz-adv-x="593" 
d="M304 100v327c0 48 0 93 1 154c-29 -31 -94 -94 -137 -135l-88 -85v66l123 116c43 40 87 82 124 119c39 -37 81 -79 124 -119l123 -116v-66l-88 85l-137 135c1 -61 1 -106 1 -154v-327h-46z" />
    <glyph glyph-name="uni2197.case" horiz-adv-x="548" 
d="M110 178l-33 33l231 231c35 35 66 67 110 108h-22c-47 0 -118 2 -169 2h-126l49 48l169 -5c59 -1 119 -3 172 -3c0 -53 2 -113 3 -172l5 -169l-48 -46v126c0 51 -2 120 -2 167v21c-41 -44 -73 -75 -108 -110z" />
    <glyph glyph-name="arrowright.case" horiz-adv-x="654" 
d="M66 392h328c48 0 92 0 153 -1c-31 31 -93 96 -134 137l-86 88h66l116 -123c40 -43 83 -85 119 -124c-36 -37 -79 -81 -119 -124l-116 -123h-66l86 88c41 43 103 108 134 137c-61 -1 -105 -1 -153 -1h-328v46z" />
    <glyph glyph-name="uni2198.case" horiz-adv-x="579" 
d="M128 590l231 -231c35 -33 67 -66 108 -110v21c0 47 2 116 2 167v126l48 -46l-5 -169c-1 -59 -3 -119 -3 -172c-53 0 -113 0 -172 -3l-169 -5l-49 48h126c51 0 122 2 169 2h22c-44 43 -75 75 -110 108l-231 231z" />
    <glyph glyph-name="arrowdown.case" horiz-adv-x="592" 
d="M293 650h46v-327c0 -48 0 -93 -1 -154c31 33 96 94 137 135l88 85v-66l-123 -116c-43 -40 -85 -82 -124 -119c-37 37 -81 79 -124 119l-123 116v66l88 -85c43 -41 108 -102 137 -135c-1 61 -1 106 -1 154v327z" />
    <glyph glyph-name="uni2199.case" horiz-adv-x="553" 
d="M494 590l33 -33l-231 -231l-110 -108h22c47 0 118 -2 169 -2h126l-49 -48l-169 5c-59 3 -119 3 -172 3c0 53 0 113 -3 172l-5 169l48 46v-126c0 -51 2 -120 2 -167v-21l108 110z" />
    <glyph glyph-name="uni1E9E" unicode="&#x1e9e;" horiz-adv-x="669" 
d="M346 372l10 45l258 231v2c-41 0 -102 -1 -150 -1h-232l-138 -649h-59l149 700h516l-10 -49l-261 -231c111 -10 186 -87 186 -188c0 -144 -110 -242 -270 -242c-27 0 -64 3 -93 11l20 49c20 -7 50 -10 71 -10c114 0 210 68 210 190c0 94 -78 143 -171 143
c-9 0 -25 0 -36 -1z" />
    <glyph glyph-name="uni03BC" unicode="&#x3bc;" horiz-adv-x="582" 
d="M441 515h55v-515h-54v91h-2c-25 -61 -89 -105 -169 -105c-60 0 -101 13 -130 36l1 -87c0 -11 -1 -28 -2 -50c-1 -23 -4 -42 -9 -57h-58c13 43 14 101 14 166v521h55v-322c0 -92 28 -161 134 -161c104 0 165 79 165 182v301z" />
    <glyph glyph-name="uni03A9" unicode="&#x3a9;" horiz-adv-x="794" 
d="M405 713c222 0 328 -174 328 -346c0 -133 -55 -243 -172 -316v-1c35 1 63 1 80 1h90v-51h-242v48c110 70 185 160 185 316c0 180 -109 300 -269 300s-269 -120 -269 -300c0 -157 76 -246 185 -316v-48h-242v51h90c17 0 45 0 80 -1v1c-117 73 -172 183 -172 316
c0 172 106 346 328 346z" />
    <glyph glyph-name="uni0394" unicode="&#x394;" horiz-adv-x="630" 
d="M-19 0l281 700h70l273 -700h-624zM298 648h-2c-18 -49 -50 -134 -73 -192l-163 -406h465l-155 406c-21 58 -54 142 -72 192z" />
    <glyph glyph-name="uni2015" unicode="&#x2015;" horiz-adv-x="1104" 
d="M1051 250h-1000l11 53h1000z" />
    </font>
</defs>
</svg>
