<?xml version="1.0" standalone="no"?>
<!DOCTYPE svg PUBLIC "-//W3C//DTD SVG 1.1//EN" "http://www.w3.org/Graphics/SVG/1.1/DTD/svg11.dtd" >
<svg xmlns="http://www.w3.org/2000/svg" xmlns:xlink="http://www.w3.org/1999/xlink" version="1.1">
<metadata>
Created by FontForge 20201107 at Wed Dec  9 17:56:00 2020
 By Nikolai Pohorelsky
Copyright \(c\) 2020 by Optimo SARL. All rights reserved.
</metadata>
<defs>
<font id="AntiqueLegacy-Italic" horiz-adv-x="660" >
  <font-face 
    font-family="Antique Legacy"
    font-weight="400"
    font-style="italic"
    font-stretch="normal"
    units-per-em="1000"
    panose-1="2 11 5 4 1 1 1 1 1 4"
    ascent="800"
    descent="-200"
    x-height="515"
    cap-height="700"
    bbox="-117 -244 1250 1041"
    underline-thickness="50"
    underline-position="-125"
    slope="-12"
    stemh="88"
    stemv="103"
    unicode-range="U+000D-FEFF"
  />
<missing-glyph horiz-adv-x="761" 
d="M333 779h49l-44 -44c-71 -19 -127 -75 -147 -147l-54 -54v49zM235 779h49l-147 -147v49zM627 779h49l-104 -104c-8 9 -17 16 -26 23zM529 779h49l-62 -62c-11 6 -23 11 -34 15zM431 779h49l-38 -38c-9 1 -19 2 -28 2c-8 0 -12 0 -20 -1zM186 779l-49 -49v49h49zM681 735
v-49l-70 -70c-5 10 -11 20 -18 31zM681 637v-49l-52 -52c0 15 -3 30 -6 43zM137 387l148 148l39 -2c0 36 27 75 75 75h8l-270 -270v49zM137 289l309 309c11 -6 19 -14 26 -23l-335 -335v49zM137 485l56 56l46 -3l-102 -102v49zM681 539v-49l-216 -216v7c0 42 27 52 70 85
c21 17 75 46 89 116zM137 191l347 347v-15c0 -45 -56 -74 -92 -108c-15 -15 -27 -33 -36 -54l-219 -219v49zM681 441v-49l-224 -224h-49zM681 343v-49l-210 -210v49zM137 93l206 206v-38h11l-217 -217v49zM142 0l261 261h49l-93 -93h-23v-23l-145 -145h-49zM436 0l33 33h2v2
l210 210v-49l-196 -196h-49zM534 0l147 147v-49l-98 -98h-49zM240 0l96 96v-49l-47 -47h-49zM681 0h-49l49 49v-49zM338 0l33 33h49l-33 -33h-49z" />
    <glyph glyph-name="f_f" unicode="ff" horiz-adv-x="581" 
d="M315 0l93 438h-166l-94 -438h-99l93 438h-78l16 77h78l7 34c28 127 62 153 173 153c20 0 46 -2 63 -3l-16 -79c-12 0 -24 2 -36 2c-69 0 -74 -28 -84 -73l-7 -34h166l7 34c28 127 62 153 173 153c20 0 46 -2 63 -3l-16 -79c-12 0 -24 2 -36 2c-69 0 -74 -28 -84 -73
l-7 -34h98l-16 -77h-98l-94 -438h-99z" />
    <glyph glyph-name="f_i" unicode="fi" horiz-adv-x="543" 
d="M356 515l-16 -77h-98l-94 -438h-99l93 438h-78l16 77h78l7 34c28 127 62 153 173 153c20 0 46 -2 63 -3l-16 -79c-12 0 -24 2 -36 2c-69 0 -74 -28 -84 -73l-7 -34h98zM440 588l23 112h102l-23 -112h-102zM315 0l109 515h102l-110 -515h-101z" />
    <glyph glyph-name="f_l" unicode="fl" horiz-adv-x="545" 
d="M356 515l-16 -77h-98l-94 -438h-99l93 438h-78l16 77h78l7 34c28 127 62 153 173 153c20 0 46 -2 63 -3l-16 -79c-12 0 -24 2 -36 2c-69 0 -74 -28 -84 -73l-7 -34h98zM466 700h102l-150 -700h-100z" />
    <glyph glyph-name="f_f_i" unicode="ffi" horiz-adv-x="809" 
d="M315 0l93 438h-166l-94 -438h-99l93 438h-78l16 77h78l7 34c28 127 62 153 173 153c20 0 46 -2 63 -3l-16 -79c-12 0 -24 2 -36 2c-69 0 -74 -28 -84 -73l-7 -34h166l7 34c28 127 62 153 173 153c20 0 46 -2 63 -3l-16 -79c-12 0 -24 2 -36 2c-69 0 -74 -28 -84 -73
l-7 -34h98l-16 -77h-98l-94 -438h-99zM706 589l23 112h102l-23 -112h-102zM581 1l109 515h102l-110 -515h-101z" />
    <glyph glyph-name="f_f_l" unicode="ffl" horiz-adv-x="809" 
d="M315 0l93 438h-166l-94 -438h-99l93 438h-78l16 77h78l7 34c28 127 62 153 173 153c20 0 46 -2 63 -3l-16 -79c-12 0 -24 2 -36 2c-69 0 -74 -28 -84 -73l-7 -34h166l7 34c28 127 62 153 173 153c20 0 46 -2 63 -3l-16 -79c-12 0 -24 2 -36 2c-69 0 -74 -28 -84 -73
l-7 -34h98l-16 -77h-98l-94 -438h-99zM730 700h102l-150 -700h-100z" />
    <glyph glyph-name=".notdef" horiz-adv-x="761" 
d="M333 779h49l-44 -44c-71 -19 -127 -75 -147 -147l-54 -54v49zM235 779h49l-147 -147v49zM627 779h49l-104 -104c-8 9 -17 16 -26 23zM529 779h49l-62 -62c-11 6 -23 11 -34 15zM431 779h49l-38 -38c-9 1 -19 2 -28 2c-8 0 -12 0 -20 -1zM186 779l-49 -49v49h49zM681 735
v-49l-70 -70c-5 10 -11 20 -18 31zM681 637v-49l-52 -52c0 15 -3 30 -6 43zM137 387l148 148l39 -2c0 36 27 75 75 75h8l-270 -270v49zM137 289l309 309c11 -6 19 -14 26 -23l-335 -335v49zM137 485l56 56l46 -3l-102 -102v49zM681 539v-49l-216 -216v7c0 42 27 52 70 85
c21 17 75 46 89 116zM137 191l347 347v-15c0 -45 -56 -74 -92 -108c-15 -15 -27 -33 -36 -54l-219 -219v49zM681 441v-49l-224 -224h-49zM681 343v-49l-210 -210v49zM137 93l206 206v-38h11l-217 -217v49zM142 0l261 261h49l-93 -93h-23v-23l-145 -145h-49zM436 0l33 33h2v2
l210 210v-49l-196 -196h-49zM534 0l147 147v-49l-98 -98h-49zM240 0l96 96v-49l-47 -47h-49zM681 0h-49l49 49v-49zM338 0l33 33h49l-33 -33h-49z" />
    <glyph glyph-name="uni2003" unicode="&#x2003;" horiz-adv-x="1000" 
 />
    <glyph glyph-name="uni2002" unicode="&#x2002;" horiz-adv-x="500" 
 />
    <glyph glyph-name="uni2005" unicode="&#x2005;" horiz-adv-x="250" 
 />
    <glyph glyph-name="uni200A" unicode="&#x200a;" horiz-adv-x="42" 
 />
    <glyph glyph-name="uni2009" unicode="&#x2009;" horiz-adv-x="125" 
 />
    <glyph glyph-name="uni2004" unicode="&#x2004;" horiz-adv-x="333" 
 />
    <glyph glyph-name="uni200B" unicode="&#x200b;" horiz-adv-x="0" 
 />
    <glyph glyph-name="uni2007" unicode="&#x2007;" horiz-adv-x="616" 
 />
    <glyph glyph-name="uni2008" unicode="&#x2008;" horiz-adv-x="238" 
 />
    <glyph glyph-name="CR" unicode="&#xd;" horiz-adv-x="225" 
 />
    <glyph glyph-name="space" unicode=" " horiz-adv-x="225" 
 />
    <glyph glyph-name="uni00A0" unicode="&#xa0;" horiz-adv-x="225" 
 />
    <glyph glyph-name="space.frac" horiz-adv-x="53" 
 />
    <glyph glyph-name="uni2000" unicode="&#x2000;" horiz-adv-x="500" 
 />
    <glyph glyph-name="uni2001" unicode="&#x2001;" horiz-adv-x="1000" 
 />
    <glyph glyph-name="NULL" horiz-adv-x="0" 
 />
    <glyph glyph-name="NULL" horiz-adv-x="0" 
 />
    <glyph glyph-name="uni2007.osf" horiz-adv-x="610" 
 />
    <glyph glyph-name="uni2007.tf" 
 />
    <glyph glyph-name="uni2007.tosf" 
 />
    <glyph glyph-name="uniFEFF" unicode="&#xfeff;" horiz-adv-x="0" 
 />
    <glyph glyph-name="uni2006" unicode="&#x2006;" horiz-adv-x="167" 
 />
    <glyph glyph-name="A" unicode="A" horiz-adv-x="641" 
d="M-50 0l410 700h113l108 -700h-105l-27 191h-277l-109 -191h-113zM397 595h-2c-21 -40 -51 -98 -86 -161l-87 -154h215l-21 151c-9 67 -16 128 -19 164z" />
    <glyph glyph-name="B" unicode="B" horiz-adv-x="677" 
d="M27 0l148 700h239c116 0 247 -12 247 -155c0 -95 -58 -158 -147 -175v-2c71 -16 112 -74 112 -145c0 -146 -118 -223 -277 -223h-322zM265 614l-44 -207h187c80 0 142 41 142 118c0 64 -38 89 -110 89h-175zM204 325l-52 -239h201c99 0 164 48 164 137
c0 90 -72 102 -147 102h-166z" />
    <glyph glyph-name="C" unicode="C" horiz-adv-x="703" 
d="M708 475h-106c-5 49 -24 87 -59 112c-34 26 -75 39 -122 39c-164 0 -250 -177 -250 -334c0 -141 69 -219 190 -219c105 0 176 66 205 155h109c-53 -163 -163 -242 -314 -242c-172 0 -300 107 -300 306c0 206 124 421 363 421c163 0 272 -83 284 -238z" />
    <glyph glyph-name="D" unicode="D" horiz-adv-x="717" 
d="M27 0l148 700h231c99 0 161 -23 208 -63c56 -49 84 -119 84 -212c0 -127 -39 -240 -115 -317c-65 -67 -154 -108 -289 -108h-267zM266 612l-112 -525h139c91 0 151 27 198 72c67 63 97 156 97 253c0 72 -16 126 -55 159c-29 27 -70 41 -137 41h-130z" />
    <glyph glyph-name="E" unicode="E" horiz-adv-x="626" 
d="M577 407l-19 -89h-355l-49 -230h392l-19 -88h-500l148 700h497l-19 -89h-388l-43 -204h355z" />
    <glyph glyph-name="F" unicode="F" horiz-adv-x="588" 
d="M135 0h-108l148 700h481l-19 -89h-372l-43 -204h331l-19 -89h-331z" />
    <glyph glyph-name="G" unicode="G" horiz-adv-x="755" 
d="M61 294c0 212 125 418 372 418c159 0 283 -82 295 -238h-105c-17 100 -91 151 -195 151c-179 0 -257 -176 -257 -336c0 -145 77 -217 198 -217c135 0 214 93 238 209h-199l19 86h290l-77 -367h-78l16 85h-2c-51 -65 -134 -99 -227 -99c-158 0 -288 100 -288 308z" />
    <glyph glyph-name="H" unicode="H" horiz-adv-x="722" 
d="M737 700l-149 -700h-111l69 324h-340l-69 -324h-110l148 700h111l-61 -286h340l61 286h111z" />
    <glyph glyph-name="I" unicode="I" horiz-adv-x="271" 
d="M286 700l-149 -700h-110l148 700h111z" />
    <glyph glyph-name="J" unicode="J" horiz-adv-x="526" 
d="M16 236h100c-5 -23 -9 -51 -9 -68c0 -61 25 -96 94 -96c90 0 115 63 129 133l105 495h111l-106 -498c-30 -139 -87 -216 -240 -216c-129 0 -195 57 -195 164c0 27 4 55 11 86z" />
    <glyph glyph-name="K" unicode="K" horiz-adv-x="658" 
d="M27 0l148 700h109l-35 -159c-10 -53 -18 -87 -38 -168h3l384 327h142l-345 -295l223 -405h-124l-184 337l-125 -105l-50 -232h-108z" />
    <glyph glyph-name="L" unicode="L" horiz-adv-x="572" 
d="M286 700l-130 -612h366l-19 -88h-476l148 700h111z" />
    <glyph glyph-name="M" unicode="M" horiz-adv-x="852" 
d="M629 382l-207 -382h-103l-47 385c-8 60 -14 164 -16 225h-3c-10 -63 -28 -168 -46 -248l-77 -362h-103l148 700h154l46 -379c10 -75 15 -166 17 -209h2c28 59 65 134 105 209l204 379h164l-149 -700h-105l78 368c17 80 43 178 59 243h-3c-28 -59 -81 -161 -118 -229z" />
    <glyph glyph-name="N" unicode="N" horiz-adv-x="733" 
d="M293 700l159 -368c25 -57 51 -121 72 -177h2c12 55 25 128 37 185l76 360h109l-149 -700h-118l-136 318c-32 72 -63 148 -95 227h-2l-36 -180l-77 -365h-108l148 700h118z" />
    <glyph glyph-name="O" unicode="O" horiz-adv-x="745" 
d="M358 -14c-179 0 -297 118 -297 302c0 228 130 425 367 425c181 0 297 -110 297 -302c0 -224 -135 -425 -367 -425zM617 414c0 135 -71 211 -190 211c-172 0 -257 -172 -257 -341c0 -136 73 -213 190 -213c168 0 257 182 257 343z" />
    <glyph glyph-name="P" unicode="P" horiz-adv-x="636" 
d="M27 0l148 700h259c75 0 134 -15 174 -52c33 -29 52 -75 52 -138c0 -73 -28 -133 -75 -173s-112 -60 -188 -60h-203l-60 -277h-107zM265 612l-53 -248h189c97 0 155 51 155 144c0 82 -63 104 -133 104h-158z" />
    <glyph glyph-name="Q" unicode="Q" horiz-adv-x="749" 
d="M358 -14c-179 0 -297 118 -297 302c0 228 135 425 367 425c178 0 297 -110 297 -302c0 -129 -44 -250 -127 -330l74 -76l-58 -52l-78 80c-51 -29 -110 -47 -178 -47zM617 414c0 132 -71 212 -190 212c-172 0 -257 -174 -257 -342c0 -136 73 -214 190 -214
c42 0 79 10 112 29l-74 77l58 53l77 -80c55 64 84 160 84 265z" />
    <glyph glyph-name="R" unicode="R" horiz-adv-x="670" 
d="M27 0l148 700h280c118 0 217 -37 217 -171c0 -119 -76 -182 -172 -198v-2c55 -13 82 -50 82 -111c0 -46 -17 -123 -17 -171c0 -17 3 -32 8 -44c0 -1 -1 -2 -1 -3h-110c-3 16 -4 12 -4 32c0 38 16 124 16 171c0 67 -42 89 -118 89h-160l-62 -292h-107zM264 612l-51 -234
h190c96 0 161 42 161 133c0 79 -56 101 -128 101h-172z" />
    <glyph glyph-name="S" unicode="S" horiz-adv-x="625" 
d="M620 500h-107c-5 79 -47 125 -150 125c-97 0 -147 -38 -147 -105c0 -61 40 -83 113 -107l63 -21c102 -34 187 -63 187 -185c0 -114 -78 -221 -280 -221c-171 0 -263 72 -274 235h111c0 -92 64 -147 168 -147c92 0 164 39 164 120c0 67 -60 89 -133 111l-63 19
c-87 26 -167 65 -167 182c0 143 119 207 260 207c142 0 255 -65 255 -213z" />
    <glyph glyph-name="T" unicode="T" horiz-adv-x="592" 
d="M654 611h-227l-130 -611h-111l130 611h-227l19 89h565z" />
    <glyph glyph-name="U" unicode="U" horiz-adv-x="698" 
d="M76 266l92 434h111l-93 -436c-5 -29 -9 -50 -9 -73c0 -72 43 -118 144 -118c126 0 166 57 190 172l96 455h111l-95 -447c-17 -85 -41 -144 -77 -187c-49 -57 -121 -79 -229 -79c-167 0 -251 64 -251 193c0 23 3 54 10 86z" />
    <glyph glyph-name="V" unicode="V" horiz-adv-x="616" 
d="M197 0l-96 700h108l46 -397c6 -55 17 -141 21 -185h2c28 52 68 130 99 187l212 395h116l-395 -700h-113z" />
    <glyph glyph-name="W" unicode="W" horiz-adv-x="916" 
d="M153 0l-48 700h109l19 -376c2 -45 5 -132 5 -190h3c23 54 55 139 79 190l168 376h122l13 -376c3 -77 5 -133 5 -190h3c25 60 56 133 81 190l174 376h114l-343 -700h-114l-15 346c-3 60 -4 122 -4 227h-2c-23 -53 -60 -145 -99 -230l-155 -343h-115z" />
    <glyph glyph-name="X" unicode="X" horiz-adv-x="598" 
d="M-52 0l317 365l-157 335h113l116 -261l216 261h122l-293 -345l165 -355h-115l-122 279l-235 -279h-127z" />
    <glyph glyph-name="Y" unicode="Y" horiz-adv-x="609" 
d="M196 0l59 274l-154 426h109l114 -336l254 336h121l-337 -426l-58 -274h-108z" />
    <glyph glyph-name="Z" unicode="Z" horiz-adv-x="614" 
d="M120 612l19 88h529l-18 -86l-356 -356c-88 -88 -113 -110 -171 -170v-1c40 2 137 1 189 1h242l-19 -88h-560l18 85l386 388c51 51 102 100 142 139v1c-35 0 -102 -1 -132 -1h-269z" />
    <glyph glyph-name="a" unicode="a" horiz-adv-x="560" 
d="M361 58h-2c-28 -37 -83 -69 -167 -69c-104 0 -168 53 -168 141c0 148 170 162 284 181l38 6c53 8 67 27 67 64c0 43 -27 71 -102 71s-117 -29 -132 -106l-99 2c20 123 98 181 242 181c121 0 190 -43 190 -139c0 -29 -3 -54 -10 -83l-42 -196c-1 -7 -2 -12 -2 -17
c0 -17 10 -23 31 -23c5 0 10 0 15 1l-15 -72c-21 -1 -22 -2 -42 -2c-61 0 -86 16 -86 53v7zM378 186l17 79c-12 -9 -25 -14 -74 -25l-35 -6c-51 -10 -89 -21 -115 -33c-26 -11 -39 -33 -39 -64c0 -49 34 -73 90 -73c36 0 70 10 99 31c27 20 48 46 57 91z" />
    <glyph glyph-name="b" unicode="b" horiz-adv-x="602" 
d="M167 700h100l-30 -139c-7 -33 -15 -77 -26 -116h1c31 47 87 85 166 85c115 0 191 -84 191 -219c0 -173 -111 -324 -278 -324c-80 0 -137 39 -156 88h-2l-8 -36l-8 -39h-98zM286 69c118 0 181 123 181 238c0 85 -40 141 -121 141c-125 0 -182 -139 -182 -242
c0 -37 11 -69 32 -96s51 -41 90 -41z" />
    <glyph glyph-name="c" unicode="c" horiz-adv-x="549" 
d="M528 342h-98c-7 69 -51 105 -118 105c-116 0 -172 -122 -172 -234c0 -89 44 -143 124 -143c69 0 119 41 143 110h102c-33 -113 -117 -193 -250 -193c-135 0 -222 82 -222 227c0 168 101 315 277 315c119 0 210 -63 214 -187z" />
    <glyph glyph-name="d" unicode="d" horiz-adv-x="604" 
d="M477 0h-98l4 20l12 52h-1c-31 -45 -90 -85 -166 -85c-121 0 -193 91 -193 217c0 173 115 327 275 327c83 0 142 -40 161 -91h1c11 49 17 84 25 123l29 137h101zM318 448c-118 0 -180 -123 -180 -240c0 -84 40 -138 120 -138c125 0 182 137 182 241c0 76 -47 137 -122 137
z" />
    <glyph glyph-name="e" unicode="e" horiz-adv-x="572" 
d="M533 234h-395c-1 -7 -1 -15 -1 -22c0 -84 46 -142 130 -142c69 0 120 36 143 89h107c-37 -104 -130 -172 -253 -172c-70 0 -125 21 -166 62s-61 97 -61 166c0 168 103 314 277 314c155 0 223 -106 223 -239c0 -20 -1 -36 -4 -56zM150 309h288c-4 80 -37 143 -128 143
s-145 -62 -160 -143z" />
    <glyph glyph-name="f" unicode="f" horiz-adv-x="315" 
d="M356 515l-16 -77h-98l-94 -438h-99l93 438h-78l16 77h78l7 34c28 127 62 153 173 153c20 0 46 -2 63 -3l-16 -79c-12 0 -24 2 -36 2c-69 0 -74 -28 -84 -73l-7 -34h98z" />
    <glyph glyph-name="g" unicode="g" horiz-adv-x="596" 
d="M6 -21h103c0 -53 47 -75 115 -75c100 0 138 49 155 136l4 19c4 20 9 36 12 45h-3c-29 -44 -84 -78 -159 -78c-108 0 -192 80 -192 212c0 159 109 292 263 292c81 0 141 -39 158 -86h2l16 71h99l-103 -482c-31 -147 -107 -208 -259 -208c-131 0 -211 49 -211 154zM143 239
c0 -81 40 -131 119 -131c109 0 173 105 173 210c0 87 -47 130 -120 130c-110 0 -172 -105 -172 -209z" />
    <glyph glyph-name="h" unicode="h" horiz-adv-x="584" 
d="M19 0l148 700h102l-25 -116c-9 -47 -17 -83 -32 -138h1c32 47 86 84 165 84c104 0 160 -59 160 -146c0 -25 -2 -49 -9 -77l-66 -307h-100l61 290c5 24 9 47 9 68c0 55 -36 85 -96 85c-92 0 -138 -73 -158 -164l-60 -279h-100z" />
    <glyph glyph-name="i" unicode="i" horiz-adv-x="247" 
d="M144 588l23 112h102l-23 -112h-102zM19 0l109 515h102l-110 -515h-101z" />
    <glyph glyph-name="j" unicode="j" horiz-adv-x="246" 
d="M144 588l23 112h102l-23 -112h-102zM-66 -100c59 0 70 26 85 98l109 517h101l-114 -531c-30 -144 -77 -162 -168 -162c-20 0 -38 1 -54 2l18 77c9 -1 16 -1 23 -1z" />
    <glyph glyph-name="k" unicode="k" horiz-adv-x="527" 
d="M167 700h102l-53 -243l-36 -161h2l262 219h129l-246 -200l154 -315h-115l-118 253l-91 -75l-38 -178h-100z" />
    <glyph glyph-name="l" unicode="l" horiz-adv-x="246" 
d="M167 700h102l-150 -700h-100z" />
    <glyph glyph-name="m" unicode="m" horiz-adv-x="894" 
d="M345 0l62 290c5 24 9 47 9 68c0 48 -23 84 -86 84c-84 0 -132 -69 -152 -164l-59 -278h-100l109 515h98l-6 -26c-4 -17 -8 -34 -12 -46h2c31 47 83 87 160 87c76 0 124 -34 141 -89h2c31 45 92 89 181 89c103 0 154 -59 154 -142c0 -23 -3 -56 -10 -84l-65 -304h-101
l62 290c5 24 9 48 9 69c0 47 -23 83 -86 83c-84 0 -132 -69 -152 -164l-60 -278h-100z" />
    <glyph glyph-name="n" unicode="n" horiz-adv-x="585" 
d="M19 0l110 515h98l-7 -32c-2 -11 -5 -24 -10 -40h2c31 48 86 87 167 87c104 0 160 -59 160 -146c0 -25 -3 -55 -10 -82l-65 -302h-100l61 290c5 24 9 47 9 68c0 55 -36 84 -96 84c-102 0 -141 -84 -163 -184l-55 -258h-101z" />
    <glyph glyph-name="o" unicode="o" horiz-adv-x="581" 
d="M318 529c69 0 124 -20 166 -59s63 -93 63 -162c0 -167 -100 -322 -284 -322c-137 0 -227 86 -227 223c0 169 101 320 282 320zM267 69c120 0 177 130 177 239c0 88 -46 140 -127 140c-123 0 -178 -125 -178 -237c0 -89 47 -142 128 -142z" />
    <glyph glyph-name="p" unicode="p" horiz-adv-x="603" 
d="M128 515h97l-3 -17c-3 -17 -7 -38 -12 -55h1c35 47 90 87 167 87c116 0 192 -84 192 -219c0 -173 -112 -324 -279 -324c-80 0 -137 38 -156 87h-2c-7 -41 -11 -60 -19 -97l-32 -149h-99zM286 69c120 0 182 123 182 238c0 84 -41 140 -121 140c-125 0 -182 -139 -182 -244
c0 -73 48 -134 121 -134z" />
    <glyph glyph-name="q" unicode="q" horiz-adv-x="603" 
d="M487 515h100l-148 -687h-99l26 125c8 39 17 79 28 118h-2c-32 -45 -88 -84 -164 -84c-121 0 -193 91 -193 217c0 173 115 327 275 327c83 0 141 -39 160 -90h2l8 38zM318 448c-118 0 -180 -123 -180 -240c0 -84 40 -138 120 -138c125 0 182 137 182 241
c0 76 -47 137 -122 137z" />
    <glyph glyph-name="r" unicode="r" horiz-adv-x="352" 
d="M19 0l109 515h97l-3 -18c-3 -16 -8 -37 -15 -63h2c24 55 82 95 167 95c7 0 12 0 19 -1l-20 -96c-9 1 -20 2 -31 2c-91 0 -145 -58 -168 -162l-58 -272h-99z" />
    <glyph glyph-name="s" unicode="s" horiz-adv-x="507" 
d="M13 163h100c0 -37 12 -63 36 -78c25 -15 53 -23 86 -23c61 0 115 25 115 78c0 41 -31 59 -88 78l-66 22c-39 13 -70 29 -93 48s-35 48 -35 89c0 93 82 152 203 152c119 0 211 -43 211 -165h-97c0 57 -41 89 -114 89c-69 0 -101 -27 -101 -64c0 -40 29 -54 84 -73l65 -22
c73 -24 136 -56 136 -141c0 -119 -109 -166 -225 -166c-114 0 -217 42 -217 176z" />
    <glyph glyph-name="t" unicode="t" horiz-adv-x="325" 
d="M289 674l-35 -159h97l-16 -77h-97l-62 -290c-3 -16 -5 -25 -5 -36c0 -27 17 -36 65 -36h23l-16 -76c-17 -1 -31 -1 -50 -1c-93 0 -130 15 -130 72c0 15 3 35 8 60l67 307h-78l16 77h77l35 159h101z" />
    <glyph glyph-name="u" unicode="u" horiz-adv-x="581" 
d="M564 515l-111 -515h-98l3 14c3 15 7 33 14 58h-2c-31 -48 -86 -85 -165 -85c-104 0 -159 56 -159 141c0 31 7 61 12 89l64 298h102l-63 -290c-5 -24 -9 -45 -9 -68c0 -57 34 -85 94 -85c95 0 140 86 162 193l54 250h102z" />
    <glyph glyph-name="v" unicode="v" horiz-adv-x="489" 
d="M139 0l-78 515h101l31 -256c7 -49 15 -106 19 -151h2c23 45 51 99 79 150l137 257h108l-294 -515h-105z" />
    <glyph glyph-name="w" unicode="w" horiz-adv-x="767" 
d="M115 0l-52 515h103l15 -260c3 -45 8 -109 9 -145h2c15 35 43 91 68 143l125 262h107l14 -262c3 -41 7 -95 8 -142h2l69 142l126 262h105l-272 -515h-106l-15 247c-4 56 -7 104 -7 147h-2c-16 -37 -34 -76 -69 -147l-121 -247h-109z" />
    <glyph glyph-name="x" unicode="x" horiz-adv-x="495" 
d="M-50 0l246 272l-127 243h110l83 -176l152 176h119l-229 -249l139 -266h-109l-96 196l-170 -196h-118z" />
    <glyph glyph-name="y" unicode="y" horiz-adv-x="489" 
d="M141 5l-80 510h102l29 -238c7 -51 15 -113 20 -168h2c27 57 59 117 84 162l132 244h108l-335 -578c-53 -91 -92 -112 -185 -112c-21 0 -45 1 -56 2l16 79c7 -1 21 -2 34 -2c78 0 91 23 120 80z" />
    <glyph glyph-name="z" unicode="z" horiz-adv-x="497" 
d="M493 437l-260 -246l-116 -109v-2c27 2 92 1 127 1h191l-18 -81h-439l18 80l266 255c43 41 71 68 103 97v2c-41 -1 -92 -1 -131 -1h-154l17 82h412z" />
    <glyph glyph-name="Agrave" unicode="&#xc0;" horiz-adv-x="641" 
d="M-50 0l410 700h113l108 -700h-105l-27 191h-277l-109 -191h-113zM397 595h-2c-21 -40 -51 -98 -86 -161l-87 -154h215l-21 151c-9 67 -16 128 -19 164zM380 746l-109 129h129l61 -129h-81z" />
    <glyph glyph-name="Aacute" unicode="&#xc1;" horiz-adv-x="641" 
d="M-50 0l410 700h113l108 -700h-105l-27 191h-277l-109 -191h-113zM397 595h-2c-21 -40 -51 -98 -86 -161l-87 -154h215l-21 151c-9 67 -16 128 -19 164zM466 746h-83l83 129h130z" />
    <glyph glyph-name="Acircumflex" unicode="&#xc2;" horiz-adv-x="641" 
d="M-50 0l410 700h113l108 -700h-105l-27 191h-277l-109 -191h-113zM397 595h-2c-21 -40 -51 -98 -86 -161l-87 -154h215l-21 151c-9 67 -16 128 -19 164zM433 822l-79 -76h-91l123 129h106l74 -129h-84z" />
    <glyph glyph-name="Atilde" unicode="&#xc3;" horiz-adv-x="641" 
d="M-50 0l410 700h113l108 -700h-105l-27 191h-277l-109 -191h-113zM397 595h-2c-21 -40 -51 -98 -86 -161l-87 -154h215l-21 151c-9 67 -16 128 -19 164zM311 758h-61c9 63 44 105 101 105c28 0 49 -6 72 -15l10 -4c20 -8 36 -14 53 -14c23 0 42 16 46 36h61
c-9 -61 -42 -106 -101 -106c-28 0 -49 7 -72 15l-11 4c-19 7 -38 14 -53 14c-24 0 -41 -15 -45 -35z" />
    <glyph glyph-name="Adieresis" unicode="&#xc4;" horiz-adv-x="641" 
d="M-50 0l410 700h113l108 -700h-105l-27 191h-277l-109 -191h-113zM397 595h-2c-21 -40 -51 -98 -86 -161l-87 -154h215l-21 151c-9 67 -16 128 -19 164zM411 875l-23 -112h-98l23 112h98zM589 875l-23 -112h-98l23 112h98z" />
    <glyph glyph-name="Amacron" unicode="&#x100;" horiz-adv-x="641" 
d="M-50 0l410 700h113l108 -700h-105l-27 191h-277l-109 -191h-113zM397 595h-2c-21 -40 -51 -98 -86 -161l-87 -154h215l-21 151c-9 67 -16 128 -19 164zM570 765h-302l15 70h302z" />
    <glyph glyph-name="Abreve" unicode="&#x102;" horiz-adv-x="641" 
d="M-50 0l410 700h113l108 -700h-105l-27 191h-277l-109 -191h-113zM397 595h-2c-21 -40 -51 -98 -86 -161l-87 -154h215l-21 151c-9 67 -16 128 -19 164zM420 746c-73 0 -136 41 -151 102l58 32c15 -40 57 -60 101 -60c48 0 94 24 121 60l48 -34
c-37 -67 -102 -100 -177 -100z" />
    <glyph glyph-name="Aring" unicode="&#xc5;" horiz-adv-x="641" 
d="M-50 0l410 700h113l108 -700h-105l-27 191h-277l-109 -191h-113zM397 595h-2c-21 -40 -51 -98 -86 -161l-87 -154h215l-21 151c-9 67 -16 128 -19 164zM431 898c47 0 83 -36 83 -83s-36 -84 -83 -84s-84 37 -84 84s37 83 84 83zM431 856c-21 0 -41 -18 -41 -41
s20 -42 41 -42c23 0 42 19 42 42s-19 41 -42 41z" />
    <glyph glyph-name="Aringacute" unicode="&#x1fa;" horiz-adv-x="641" 
d="M-50 0l410 700h113l108 -700h-105l-27 191h-277l-109 -191h-113zM397 595h-2c-21 -40 -51 -98 -86 -161l-87 -154h215l-21 151c-9 67 -16 128 -19 164zM432 891c47 0 83 -36 83 -83s-36 -84 -83 -84s-84 37 -84 84s37 83 84 83zM432 849c-21 0 -41 -18 -41 -41
s20 -42 41 -42c23 0 42 19 42 42s-19 41 -42 41zM482 912h-83l83 129h130z" />
    <glyph glyph-name="Aogonek" unicode="&#x104;" horiz-adv-x="641" 
d="M-50 0l410 700h113l108 -700h-105l-27 191h-277l-109 -191h-113zM397 595h-2c-21 -40 -51 -98 -86 -161l-87 -154h215l-21 151c-9 67 -16 128 -19 164zM538 0h43c-63 -49 -82 -80 -82 -108c0 -25 17 -40 38 -40c19 0 35 11 48 33l34 -13c-15 -35 -42 -64 -94 -64
c-57 0 -85 37 -85 74c0 43 41 89 98 118z" />
    <glyph glyph-name="AE" unicode="&#xc6;" horiz-adv-x="932" 
d="M372 0l39 185h-234l-128 -185h-117l496 700h551l-18 -88h-353l-44 -205h315l-18 -88h-315l-50 -232h358l-19 -87h-463zM472 615l-237 -342h194l73 342h-30z" />
    <glyph glyph-name="AEacute" unicode="&#x1fc;" horiz-adv-x="932" 
d="M372 0l39 185h-234l-128 -185h-117l496 700h551l-18 -88h-353l-44 -205h315l-18 -88h-315l-50 -232h358l-19 -87h-463zM472 615l-237 -342h194l73 342h-30zM693 746h-83l83 129h130z" />
    <glyph glyph-name="Cacute" unicode="&#x106;" horiz-adv-x="703" 
d="M708 475h-106c-5 49 -24 87 -59 112c-34 26 -75 39 -122 39c-164 0 -250 -177 -250 -334c0 -141 69 -219 190 -219c105 0 176 66 205 155h109c-53 -163 -163 -242 -314 -242c-172 0 -300 107 -300 306c0 206 124 421 363 421c163 0 272 -83 284 -238zM479 746h-83l83 129
h130z" />
    <glyph glyph-name="Ccircumflex" unicode="&#x108;" horiz-adv-x="703" 
d="M708 475h-106c-5 49 -24 87 -59 112c-34 26 -75 39 -122 39c-164 0 -250 -177 -250 -334c0 -141 69 -219 190 -219c105 0 176 66 205 155h109c-53 -163 -163 -242 -314 -242c-172 0 -300 107 -300 306c0 206 124 421 363 421c163 0 272 -83 284 -238zM457 822l-79 -76
h-91l123 129h106l74 -129h-84z" />
    <glyph glyph-name="Ccaron" unicode="&#x10c;" horiz-adv-x="703" 
d="M708 475h-106c-5 49 -24 87 -59 112c-34 26 -75 39 -122 39c-164 0 -250 -177 -250 -334c0 -141 69 -219 190 -219c105 0 176 66 205 155h109c-53 -163 -163 -242 -314 -242c-172 0 -300 107 -300 306c0 206 124 421 363 421c163 0 272 -83 284 -238zM396 875l48 -77
l80 77h91l-123 -129h-106l-74 129h84z" />
    <glyph glyph-name="Cdotaccent" unicode="&#x10a;" horiz-adv-x="703" 
d="M708 475h-106c-5 49 -24 87 -59 112c-34 26 -75 39 -122 39c-164 0 -250 -177 -250 -334c0 -141 69 -219 190 -219c105 0 176 66 205 155h109c-53 -163 -163 -242 -314 -242c-172 0 -300 107 -300 306c0 206 124 421 363 421c163 0 272 -83 284 -238zM510 875l-23 -112
h-102l23 112h102z" />
    <glyph glyph-name="Ccedilla" unicode="&#xc7;" horiz-adv-x="702" 
d="M707 475h-106c-5 49 -24 87 -59 112c-34 26 -75 39 -122 39c-164 0 -250 -177 -250 -334c0 -141 69 -219 190 -219c105 0 176 66 205 155h109c-53 -163 -163 -242 -314 -242c-172 0 -300 107 -300 306c0 206 124 421 363 421c163 0 272 -83 284 -238zM328 8l39 -8
l-43 -47l1 -1c9 3 18 2 27 2c17 0 34 -5 51 -14s26 -26 26 -50c0 -56 -53 -79 -105 -79c-29 0 -65 7 -88 20l15 35c15 -9 37 -17 66 -17c28 0 50 13 50 38c0 24 -21 35 -46 35c-13 0 -24 -3 -35 -8l-19 19z" />
    <glyph glyph-name="Dcaron" unicode="&#x10e;" horiz-adv-x="717" 
d="M27 0l148 700h231c99 0 161 -23 208 -63c56 -49 84 -119 84 -212c0 -127 -39 -240 -115 -317c-65 -67 -154 -108 -289 -108h-267zM266 612l-112 -525h139c91 0 151 27 198 72c67 63 97 156 97 253c0 72 -16 126 -55 159c-29 27 -70 41 -137 41h-130zM390 875l48 -77
l80 77h91l-123 -129h-106l-74 129h84z" />
    <glyph glyph-name="Dcroat" unicode="&#x110;" horiz-adv-x="743" 
d="M53 0l67 317h-92l18 82h91l64 301h231c99 0 161 -23 208 -63c56 -49 84 -119 84 -212c0 -127 -39 -240 -115 -317c-65 -67 -154 -108 -289 -108h-267zM292 612l-46 -213h160l-18 -82h-159l-49 -230h139c91 0 151 27 198 72c67 63 97 156 97 253c0 72 -16 127 -55 160
c-29 27 -70 40 -137 40h-130z" />
    <glyph glyph-name="Eth" unicode="&#xd0;" horiz-adv-x="743" 
d="M53 0l67 317h-92l18 82h91l64 301h231c99 0 161 -23 208 -63c56 -49 84 -119 84 -212c0 -127 -39 -240 -115 -317c-65 -67 -154 -108 -289 -108h-267zM292 612l-46 -213h160l-18 -82h-159l-49 -230h139c91 0 151 27 198 72c67 63 97 156 97 253c0 72 -16 127 -55 160
c-29 27 -70 40 -137 40h-130z" />
    <glyph glyph-name="Egrave" unicode="&#xc8;" horiz-adv-x="626" 
d="M577 407l-19 -89h-355l-49 -230h392l-19 -88h-500l148 700h497l-19 -89h-388l-43 -204h355zM389 746l-109 129h129l61 -129h-81z" />
    <glyph glyph-name="Eacute" unicode="&#xc9;" horiz-adv-x="626" 
d="M577 407l-19 -89h-355l-49 -230h392l-19 -88h-500l148 700h497l-19 -89h-388l-43 -204h355zM427 746h-83l83 129h130z" />
    <glyph glyph-name="Ecircumflex" unicode="&#xca;" horiz-adv-x="626" 
d="M577 407l-19 -89h-355l-49 -230h392l-19 -88h-500l148 700h497l-19 -89h-388l-43 -204h355zM436 822l-79 -76h-91l123 129h106l74 -129h-84z" />
    <glyph glyph-name="Ecaron" unicode="&#x11a;" horiz-adv-x="626" 
d="M577 407l-19 -89h-355l-49 -230h392l-19 -88h-500l148 700h497l-19 -89h-388l-43 -204h355zM379 875l48 -77l80 77h91l-123 -129h-106l-74 129h84z" />
    <glyph glyph-name="Edieresis" unicode="&#xcb;" horiz-adv-x="626" 
d="M577 407l-19 -89h-355l-49 -230h392l-19 -88h-500l148 700h497l-19 -89h-388l-43 -204h355zM410 875l-23 -112h-98l23 112h98zM588 875l-23 -112h-98l23 112h98z" />
    <glyph glyph-name="Emacron" unicode="&#x112;" horiz-adv-x="626" 
d="M577 407l-19 -89h-355l-49 -230h392l-19 -88h-500l148 700h497l-19 -89h-388l-43 -204h355zM577 765h-302l15 70h302z" />
    <glyph glyph-name="Ebreve" unicode="&#x114;" horiz-adv-x="626" 
d="M577 407l-19 -89h-355l-49 -230h392l-19 -88h-500l148 700h497l-19 -89h-388l-43 -204h355zM423 746c-73 0 -136 41 -151 102l58 32c15 -40 57 -60 101 -60c48 0 94 24 121 60l48 -34c-37 -67 -102 -100 -177 -100z" />
    <glyph glyph-name="Edotaccent" unicode="&#x116;" horiz-adv-x="626" 
d="M577 407l-19 -89h-355l-49 -230h392l-19 -88h-500l148 700h497l-19 -89h-388l-43 -204h355zM487 875l-23 -112h-102l23 112h102z" />
    <glyph glyph-name="Eogonek" unicode="&#x118;" horiz-adv-x="626" 
d="M577 407l-19 -89h-355l-49 -230h392l-19 -88h-500l148 700h497l-19 -89h-388l-43 -204h355zM484 0h43c-63 -49 -82 -80 -82 -108c0 -25 17 -40 38 -40c19 0 35 11 48 33l34 -13c-15 -35 -42 -64 -94 -64c-57 0 -85 37 -85 74c0 43 41 89 98 118z" />
    <glyph glyph-name="Gcircumflex" unicode="&#x11c;" horiz-adv-x="755" 
d="M61 294c0 212 125 418 372 418c159 0 283 -82 295 -238h-105c-17 100 -91 151 -195 151c-179 0 -257 -176 -257 -336c0 -145 77 -217 198 -217c135 0 214 93 238 209h-199l19 86h290l-77 -367h-78l16 85h-2c-51 -65 -134 -99 -227 -99c-158 0 -288 100 -288 308zM467 822
l-79 -76h-91l123 129h106l74 -129h-84z" />
    <glyph glyph-name="Gbreve" unicode="&#x11e;" horiz-adv-x="755" 
d="M61 294c0 212 125 418 372 418c159 0 283 -82 295 -238h-105c-17 100 -91 151 -195 151c-179 0 -257 -176 -257 -336c0 -145 77 -217 198 -217c135 0 214 93 238 209h-199l19 86h290l-77 -367h-78l16 85h-2c-51 -65 -134 -99 -227 -99c-158 0 -288 100 -288 308zM460 746
c-73 0 -136 41 -151 102l58 32c15 -40 57 -60 101 -60c48 0 94 24 121 60l48 -34c-37 -67 -102 -100 -177 -100z" />
    <glyph glyph-name="uni0122" unicode="&#x122;" horiz-adv-x="755" 
d="M61 294c0 212 125 418 372 418c159 0 283 -82 295 -238h-105c-17 100 -91 151 -195 151c-179 0 -257 -176 -257 -336c0 -145 77 -217 198 -217c135 0 214 93 238 209h-199l19 86h290l-77 -367h-78l16 85h-2c-51 -65 -134 -99 -227 -99c-158 0 -288 100 -288 308zM281 -46
h90l-19 -89c-13 -65 -46 -97 -113 -109l9 43c29 7 52 27 57 64h-43z" />
    <glyph glyph-name="Gdotaccent" unicode="&#x120;" horiz-adv-x="755" 
d="M61 294c0 212 125 418 372 418c159 0 283 -82 295 -238h-105c-17 100 -91 151 -195 151c-179 0 -257 -176 -257 -336c0 -145 77 -217 198 -217c135 0 214 93 238 209h-199l19 86h290l-77 -367h-78l16 85h-2c-51 -65 -134 -99 -227 -99c-158 0 -288 100 -288 308zM524 875
l-23 -112h-102l23 112h102z" />
    <glyph glyph-name="Hcircumflex" unicode="&#x124;" horiz-adv-x="722" 
d="M737 700l-149 -700h-111l69 324h-340l-69 -324h-110l148 700h111l-61 -286h340l61 286h111zM476 822l-79 -76h-91l123 129h106l74 -129h-84z" />
    <glyph glyph-name="Hbar" unicode="&#x126;" horiz-adv-x="722" 
d="M737 700l-149 -700h-111l69 324h-340l-69 -324h-110l148 700h111l-18 -86h340l18 86h111zM225 414h340l28 132h-340z" />
    <glyph glyph-name="Igrave" unicode="&#xcc;" horiz-adv-x="271" 
d="M286 700l-149 -700h-110l148 700h111zM198 746l-109 129h129l61 -129h-81z" />
    <glyph glyph-name="Iacute" unicode="&#xcd;" horiz-adv-x="271" 
d="M286 700l-149 -700h-110l148 700h111zM276 746h-83l83 129h130z" />
    <glyph glyph-name="Icircumflex" unicode="&#xce;" horiz-adv-x="271" 
d="M286 700l-149 -700h-110l148 700h111zM252 822l-79 -76h-91l123 129h106l74 -129h-84z" />
    <glyph glyph-name="Itilde" unicode="&#x128;" horiz-adv-x="271" 
d="M286 700l-149 -700h-110l148 700h111zM131 758h-61c9 63 44 105 101 105c28 0 49 -6 72 -15l10 -4c20 -8 36 -14 53 -14c23 0 42 16 46 36h61c-9 -61 -42 -106 -101 -106c-28 0 -49 7 -72 15l-11 4c-19 7 -38 14 -53 14c-24 0 -41 -15 -45 -35z" />
    <glyph glyph-name="Idieresis" unicode="&#xcf;" horiz-adv-x="271" 
d="M286 700l-149 -700h-110l148 700h111zM226 875l-23 -112h-98l23 112h98zM404 875l-23 -112h-98l23 112h98z" />
    <glyph glyph-name="Imacron" unicode="&#x12a;" horiz-adv-x="271" 
d="M286 700l-149 -700h-110l148 700h111zM388 765h-302l15 70h302z" />
    <glyph glyph-name="Ibreve" unicode="&#x12c;" horiz-adv-x="271" 
d="M286 700l-149 -700h-110l148 700h111zM242 746c-73 0 -136 41 -151 102l58 32c15 -40 57 -60 101 -60c48 0 94 24 121 60l48 -34c-37 -67 -102 -100 -177 -100z" />
    <glyph glyph-name="Idot" unicode="&#x130;" horiz-adv-x="271" 
d="M286 700l-149 -700h-110l148 700h111zM316 875l-23 -112h-102l23 112h102z" />
    <glyph glyph-name="Iogonek" unicode="&#x12e;" horiz-adv-x="271" 
d="M286 700l-149 -700h-110l148 700h111zM94 0h43c-63 -49 -82 -80 -82 -108c0 -25 17 -40 38 -40c19 0 35 11 48 33l34 -13c-15 -35 -42 -64 -94 -64c-57 0 -85 37 -85 74c0 43 41 89 98 118z" />
    <glyph glyph-name="IJ" unicode="&#x132;" horiz-adv-x="746" 
d="M286 700l-149 -700h-110l148 700h111zM236 236h100c-5 -23 -9 -51 -9 -68c0 -61 25 -96 94 -96c90 0 115 63 129 133l105 495h111l-106 -498c-30 -139 -87 -216 -240 -216c-129 0 -195 57 -195 164c0 27 4 55 11 86z" />
    <glyph glyph-name="Jcircumflex" unicode="&#x134;" horiz-adv-x="526" 
d="M16 236h100c-5 -23 -9 -51 -9 -68c0 -61 25 -96 94 -96c90 0 115 63 129 133l105 495h111l-106 -498c-30 -139 -87 -216 -240 -216c-129 0 -195 57 -195 164c0 27 4 55 11 86zM510 822l-79 -76h-91l123 129h106l74 -129h-84z" />
    <glyph glyph-name="uni0136" unicode="&#x136;" horiz-adv-x="658" 
d="M27 0l148 700h109l-35 -159c-10 -53 -18 -87 -38 -168h3l384 327h142l-345 -295l223 -405h-124l-184 337l-125 -105l-50 -232h-108zM254 -46h90l-19 -89c-13 -65 -46 -97 -113 -109l9 43c29 7 52 27 57 64h-43z" />
    <glyph glyph-name="Lacute" unicode="&#x139;" horiz-adv-x="572" 
d="M286 700l-130 -612h366l-19 -88h-476l148 700h111zM278 746h-83l83 129h130z" />
    <glyph glyph-name="Lcaron" unicode="&#x13d;" horiz-adv-x="573" 
d="M286 700l-130 -612h366l-19 -88h-476l148 700h111zM389 700h109l-91 -158h-80z" />
    <glyph glyph-name="Lslash" unicode="&#x141;" horiz-adv-x="585" 
d="M298 700l-66 -316l191 91l-18 -84l-191 -92l-46 -212h366l-19 -87h-476l53 247l-79 -37l18 85l79 37l77 368h111z" />
    <glyph glyph-name="Ldot" unicode="&#x13f;" horiz-adv-x="573" 
d="M286 700l-130 -612h366l-19 -88h-476l148 700h111zM489 426l-25 -113h-102l25 113h102z" />
    <glyph glyph-name="Ldot.latn_CAT" horiz-adv-x="573" 
d="M286 700l-130 -612h366l-19 -88h-476l148 700h111zM489 426l-25 -113h-102l25 113h102z" />
    <glyph glyph-name="uni013B" unicode="&#x13b;" horiz-adv-x="572" 
d="M286 700l-130 -612h366l-19 -88h-476l148 700h111zM224 -46h90l-19 -89c-13 -65 -46 -97 -113 -109l9 43c29 7 52 27 57 64h-43z" />
    <glyph glyph-name="Nacute" unicode="&#x143;" horiz-adv-x="733" 
d="M293 700l159 -368c25 -57 51 -121 72 -177h2c12 55 25 128 37 185l76 360h109l-149 -700h-118l-136 318c-32 72 -63 148 -95 227h-2l-36 -180l-77 -365h-108l148 700h118zM477 746h-83l83 129h130z" />
    <glyph glyph-name="uni0145" unicode="&#x145;" horiz-adv-x="733" 
d="M293 700l159 -368c25 -57 51 -121 72 -177h2c12 55 25 128 37 185l76 360h109l-149 -700h-118l-136 318c-32 72 -63 148 -95 227h-2l-36 -180l-77 -365h-108l148 700h118zM257 -46h90l-19 -89c-13 -65 -46 -97 -113 -109l9 43c29 7 52 27 57 64h-43z" />
    <glyph glyph-name="Ncaron" unicode="&#x147;" horiz-adv-x="733" 
d="M293 700l159 -368c25 -57 51 -121 72 -177h2c12 55 25 128 37 185l76 360h109l-149 -700h-118l-136 318c-32 72 -63 148 -95 227h-2l-36 -180l-77 -365h-108l148 700h118zM408 875l48 -77l80 77h91l-123 -129h-106l-74 129h84z" />
    <glyph glyph-name="Ntilde" unicode="&#xd1;" horiz-adv-x="733" 
d="M293 700l159 -368c25 -57 51 -121 72 -177h2c12 55 25 128 37 185l76 360h109l-149 -700h-118l-136 318c-32 72 -63 148 -95 227h-2l-36 -180l-77 -365h-108l148 700h118zM372 758h-61c9 63 44 105 101 105c28 0 49 -6 72 -15l10 -4c20 -8 36 -14 53 -14
c23 0 42 16 46 36h61c-9 -61 -42 -106 -101 -106c-28 0 -49 7 -72 15l-11 4c-19 7 -38 14 -53 14c-24 0 -41 -15 -45 -35z" />
    <glyph glyph-name="Eng" unicode="&#x14a;" horiz-adv-x="733" 
d="M596 -16c-30 -144 -86 -162 -188 -162c-27 0 -51 3 -74 6l18 77c19 -4 30 -5 43 -5c71 0 91 26 105 100h-19l-136 318c-31 72 -63 148 -95 227h-2l-113 -545h-108l148 700h118l159 -368c25 -57 51 -121 72 -177h2c12 55 25 128 37 185l76 360h109z" />
    <glyph glyph-name="Ograve" unicode="&#xd2;" horiz-adv-x="745" 
d="M358 -14c-179 0 -297 118 -297 302c0 228 130 425 367 425c181 0 297 -110 297 -302c0 -224 -135 -425 -367 -425zM617 414c0 135 -71 211 -190 211c-172 0 -257 -172 -257 -341c0 -136 73 -213 190 -213c168 0 257 182 257 343zM411 746l-109 129h129l61 -129h-81z" />
    <glyph glyph-name="Oacute" unicode="&#xd3;" horiz-adv-x="745" 
d="M358 -14c-179 0 -297 118 -297 302c0 228 130 425 367 425c181 0 297 -110 297 -302c0 -224 -135 -425 -367 -425zM617 414c0 135 -71 211 -190 211c-172 0 -257 -172 -257 -341c0 -136 73 -213 190 -213c168 0 257 182 257 343zM488 746h-83l83 129h130z" />
    <glyph glyph-name="Ocircumflex" unicode="&#xd4;" horiz-adv-x="745" 
d="M358 -14c-179 0 -297 118 -297 302c0 228 130 425 367 425c181 0 297 -110 297 -302c0 -224 -135 -425 -367 -425zM617 414c0 135 -71 211 -190 211c-172 0 -257 -172 -257 -341c0 -136 73 -213 190 -213c168 0 257 182 257 343zM464 822l-79 -76h-91l123 129h106
l74 -129h-84z" />
    <glyph glyph-name="Otilde" unicode="&#xd5;" horiz-adv-x="745" 
d="M358 -14c-179 0 -297 118 -297 302c0 228 130 425 367 425c181 0 297 -110 297 -302c0 -224 -135 -425 -367 -425zM617 414c0 135 -71 211 -190 211c-172 0 -257 -172 -257 -341c0 -136 73 -213 190 -213c168 0 257 182 257 343zM363 758h-61c9 63 44 105 101 105
c28 0 49 -6 72 -15l10 -4c20 -8 36 -14 53 -14c23 0 42 16 46 36h61c-9 -61 -42 -106 -101 -106c-28 0 -49 7 -72 15l-11 4c-19 7 -38 14 -53 14c-24 0 -41 -15 -45 -35z" />
    <glyph glyph-name="Odieresis" unicode="&#xd6;" horiz-adv-x="745" 
d="M358 -14c-179 0 -297 118 -297 302c0 228 130 425 367 425c181 0 297 -110 297 -302c0 -224 -135 -425 -367 -425zM617 414c0 135 -71 211 -190 211c-172 0 -257 -172 -257 -341c0 -136 73 -213 190 -213c168 0 257 182 257 343zM437 875l-23 -112h-98l23 112h98z
M615 875l-23 -112h-98l23 112h98z" />
    <glyph glyph-name="Omacron" unicode="&#x14c;" horiz-adv-x="745" 
d="M358 -14c-179 0 -297 118 -297 302c0 228 130 425 367 425c181 0 297 -110 297 -302c0 -224 -135 -425 -367 -425zM617 414c0 135 -71 211 -190 211c-172 0 -257 -172 -257 -341c0 -136 73 -213 190 -213c168 0 257 182 257 343zM608 765h-302l15 70h302z" />
    <glyph glyph-name="Obreve" unicode="&#x14e;" horiz-adv-x="745" 
d="M358 -14c-179 0 -297 118 -297 302c0 228 130 425 367 425c181 0 297 -110 297 -302c0 -224 -135 -425 -367 -425zM617 414c0 135 -71 211 -190 211c-172 0 -257 -172 -257 -341c0 -136 73 -213 190 -213c168 0 257 182 257 343zM465 746c-73 0 -136 41 -151 102l58 32
c15 -40 57 -60 101 -60c48 0 94 24 121 60l48 -34c-37 -67 -102 -100 -177 -100z" />
    <glyph glyph-name="Ohungarumlaut" unicode="&#x150;" horiz-adv-x="745" 
d="M358 -14c-179 0 -297 118 -297 302c0 228 130 425 367 425c181 0 297 -110 297 -302c0 -224 -135 -425 -367 -425zM617 414c0 135 -71 211 -190 211c-172 0 -257 -172 -257 -341c0 -136 73 -213 190 -213c168 0 257 182 257 343zM569 746h-80l97 129h126zM403 746h-80
l83 129h126z" />
    <glyph glyph-name="Oslash" unicode="&#xd8;" horiz-adv-x="745" 
d="M357 -14c-84 0 -153 25 -204 70l-59 -62l-44 44l63 64c-35 50 -52 112 -52 186c0 228 139 425 371 425c84 0 152 -24 204 -73l62 65l44 -42l-67 -69c33 -49 50 -110 50 -183c0 -224 -136 -425 -368 -425zM170 284c0 -41 6 -76 19 -103l379 390c-32 37 -81 54 -141 54
c-172 0 -257 -174 -257 -341zM617 414c0 37 -6 72 -19 101l-377 -390c34 -36 80 -54 139 -54c168 0 257 180 257 343z" />
    <glyph glyph-name="Oslashacute" unicode="&#x1fe;" horiz-adv-x="745" 
d="M357 -14c-84 0 -153 25 -204 70l-59 -62l-44 44l63 64c-35 50 -52 112 -52 186c0 228 139 425 371 425c84 0 152 -24 204 -73l62 65l44 -42l-67 -69c33 -49 50 -110 50 -183c0 -224 -136 -425 -368 -425zM170 284c0 -41 6 -76 19 -103l379 390c-32 37 -81 54 -141 54
c-172 0 -257 -174 -257 -341zM617 414c0 37 -6 72 -19 101l-377 -390c34 -36 80 -54 139 -54c168 0 257 180 257 343zM471 746h-83l83 129h130z" />
    <glyph glyph-name="OE" unicode="&#x152;" horiz-adv-x="1042" 
d="M1089 700l-18 -88h-356l-43 -205h317l-19 -88h-317l-50 -232h361l-18 -87h-454l8 38c-41 -32 -100 -48 -165 -48c-163 0 -274 118 -274 300c0 224 138 422 370 422c75 0 141 -23 185 -70l12 58h461zM512 159l78 367c-21 65 -88 99 -164 99c-171 0 -256 -175 -256 -339
c0 -131 67 -213 184 -213c75 0 127 34 158 86z" />
    <glyph glyph-name="Thorn" unicode="&#xde;" horiz-adv-x="643" 
d="M175 700h107l-23 -106h153c129 0 223 -48 223 -190c0 -145 -109 -233 -260 -233h-206l-36 -171h-106zM241 506l-54 -248h189c96 0 156 51 156 144c0 82 -64 104 -133 104h-158z" />
    <glyph glyph-name="Racute" unicode="&#x154;" horiz-adv-x="670" 
d="M27 0l148 700h280c118 0 217 -37 217 -171c0 -119 -76 -182 -172 -198v-2c55 -13 82 -50 82 -111c0 -46 -17 -123 -17 -171c0 -17 3 -32 8 -44c0 -1 -1 -2 -1 -3h-110c-3 16 -4 12 -4 32c0 38 16 124 16 171c0 67 -42 89 -118 89h-160l-62 -292h-107zM264 612l-51 -234
h190c96 0 161 42 161 133c0 79 -56 101 -128 101h-172zM445 746h-83l83 129h130z" />
    <glyph glyph-name="Rcaron" unicode="&#x158;" horiz-adv-x="670" 
d="M27 0l148 700h280c118 0 217 -37 217 -171c0 -119 -76 -182 -172 -198v-2c55 -13 82 -50 82 -111c0 -46 -17 -123 -17 -171c0 -17 3 -32 8 -44c0 -1 -1 -2 -1 -3h-110c-3 16 -4 12 -4 32c0 38 16 124 16 171c0 67 -42 89 -118 89h-160l-62 -292h-107zM264 612l-51 -234
h190c96 0 161 42 161 133c0 79 -56 101 -128 101h-172zM382 875l48 -77l80 77h91l-123 -129h-106l-74 129h84z" />
    <glyph glyph-name="uni0156" unicode="&#x156;" horiz-adv-x="670" 
d="M27 0l148 700h280c118 0 217 -37 217 -171c0 -119 -76 -182 -172 -198v-2c55 -13 82 -50 82 -111c0 -46 -17 -123 -17 -171c0 -17 3 -32 8 -44c0 -1 -1 -2 -1 -3h-110c-3 16 -4 12 -4 32c0 38 16 124 16 171c0 67 -42 89 -118 89h-160l-62 -292h-107zM264 612l-51 -234
h190c96 0 161 42 161 133c0 79 -56 101 -128 101h-172zM247 -46h90l-19 -89c-13 -65 -46 -97 -113 -109l9 43c29 7 52 27 57 64h-43z" />
    <glyph glyph-name="Sacute" unicode="&#x15a;" horiz-adv-x="625" 
d="M620 500h-107c-5 79 -47 125 -150 125c-97 0 -147 -38 -147 -105c0 -61 40 -83 113 -107l63 -21c102 -34 187 -63 187 -185c0 -114 -78 -221 -280 -221c-171 0 -263 72 -274 235h111c0 -92 64 -147 168 -147c92 0 164 39 164 120c0 67 -60 89 -133 111l-63 19
c-87 26 -167 65 -167 182c0 143 119 207 260 207c142 0 255 -65 255 -213zM409 746h-83l83 129h130z" />
    <glyph glyph-name="Scircumflex" unicode="&#x15c;" horiz-adv-x="625" 
d="M620 500h-107c-5 79 -47 125 -150 125c-97 0 -147 -38 -147 -105c0 -61 40 -83 113 -107l63 -21c102 -34 187 -63 187 -185c0 -114 -78 -221 -280 -221c-171 0 -263 72 -274 235h111c0 -92 64 -147 168 -147c92 0 164 39 164 120c0 67 -60 89 -133 111l-63 19
c-87 26 -167 65 -167 182c0 143 119 207 260 207c142 0 255 -65 255 -213zM404 822l-79 -76h-91l123 129h106l74 -129h-84z" />
    <glyph glyph-name="Scaron" unicode="&#x160;" horiz-adv-x="625" 
d="M620 500h-107c-5 79 -47 125 -150 125c-97 0 -147 -38 -147 -105c0 -61 40 -83 113 -107l63 -21c102 -34 187 -63 187 -185c0 -114 -78 -221 -280 -221c-171 0 -263 72 -274 235h111c0 -92 64 -147 168 -147c92 0 164 39 164 120c0 67 -60 89 -133 111l-63 19
c-87 26 -167 65 -167 182c0 143 119 207 260 207c142 0 255 -65 255 -213zM338 875l48 -77l80 77h91l-123 -129h-106l-74 129h84z" />
    <glyph glyph-name="Scedilla" unicode="&#x15e;" horiz-adv-x="625" 
d="M620 500h-107c-5 79 -47 125 -150 125c-97 0 -147 -38 -147 -105c0 -61 40 -83 113 -107l63 -21c102 -34 187 -63 187 -185c0 -114 -78 -221 -280 -221c-171 0 -263 72 -274 235h111c0 -92 64 -147 168 -147c92 0 164 39 164 120c0 67 -60 89 -133 111l-63 19
c-87 26 -167 65 -167 182c0 143 119 207 260 207c142 0 255 -65 255 -213zM269 8l39 -8l-43 -47l1 -1c9 3 18 2 27 2c17 0 34 -5 51 -14s26 -26 26 -50c0 -56 -53 -79 -105 -79c-29 0 -65 7 -88 20l15 35c15 -9 37 -17 66 -17c28 0 50 13 50 38c0 24 -21 35 -46 35
c-13 0 -24 -3 -35 -8l-19 19z" />
    <glyph glyph-name="uni0218" unicode="&#x218;" horiz-adv-x="625" 
d="M620 500h-107c-5 79 -47 125 -150 125c-97 0 -147 -38 -147 -105c0 -61 40 -83 113 -107l63 -21c102 -34 187 -63 187 -185c0 -114 -78 -221 -280 -221c-171 0 -263 72 -274 235h111c0 -92 64 -147 168 -147c92 0 164 39 164 120c0 67 -60 89 -133 111l-63 19
c-87 26 -167 65 -167 182c0 143 119 207 260 207c142 0 255 -65 255 -213zM224 -46h90l-19 -89c-13 -65 -46 -97 -113 -109l9 43c29 7 52 27 57 64h-43z" />
    <glyph glyph-name="Tcaron" unicode="&#x164;" horiz-adv-x="592" 
d="M654 611h-227l-130 -611h-111l130 611h-227l19 89h565zM353 875l48 -77l80 77h91l-123 -129h-106l-74 129h84z" />
    <glyph glyph-name="Tcommaaccent" unicode="&#x162;" horiz-adv-x="592" 
d="M654 611h-227l-130 -611h-111l130 611h-227l19 89h565zM225 8l39 -8l-43 -47l1 -1c9 3 18 2 27 2c17 0 34 -5 51 -14s26 -26 26 -50c0 -56 -53 -79 -105 -79c-29 0 -65 7 -88 20l15 35c15 -9 37 -17 66 -17c28 0 50 13 50 38c0 24 -21 35 -46 35c-13 0 -24 -3 -35 -8
l-19 19z" />
    <glyph glyph-name="Tbar" unicode="&#x166;" horiz-adv-x="610" 
d="M113 327l14 69h151l46 215h-227l19 89h565l-19 -89h-227l-46 -215h150l-14 -69h-150l-70 -327h-111l70 327h-151z" />
    <glyph glyph-name="uni021A" unicode="&#x21a;" horiz-adv-x="592" 
d="M654 611h-227l-130 -611h-111l130 611h-227l19 89h565zM185 -46h90l-19 -89c-13 -65 -46 -97 -113 -109l9 43c29 7 52 27 57 64h-43z" />
    <glyph glyph-name="Ugrave" unicode="&#xd9;" horiz-adv-x="698" 
d="M76 266l92 434h111l-93 -436c-5 -29 -9 -50 -9 -73c0 -72 43 -118 144 -118c126 0 166 57 190 172l96 455h111l-95 -447c-17 -85 -41 -144 -77 -187c-49 -57 -121 -79 -229 -79c-167 0 -251 64 -251 193c0 23 3 54 10 86zM418 746l-109 129h129l61 -129h-81z" />
    <glyph glyph-name="Uacute" unicode="&#xda;" horiz-adv-x="698" 
d="M76 266l92 434h111l-93 -436c-5 -29 -9 -50 -9 -73c0 -72 43 -118 144 -118c126 0 166 57 190 172l96 455h111l-95 -447c-17 -85 -41 -144 -77 -187c-49 -57 -121 -79 -229 -79c-167 0 -251 64 -251 193c0 23 3 54 10 86zM462 746h-83l83 129h130z" />
    <glyph glyph-name="Ucircumflex" unicode="&#xdb;" horiz-adv-x="698" 
d="M76 266l92 434h111l-93 -436c-5 -29 -9 -50 -9 -73c0 -72 43 -118 144 -118c126 0 166 57 190 172l96 455h111l-95 -447c-17 -85 -41 -144 -77 -187c-49 -57 -121 -79 -229 -79c-167 0 -251 64 -251 193c0 23 3 54 10 86zM460 822l-79 -76h-91l123 129h106l74 -129h-84z
" />
    <glyph glyph-name="Utilde" unicode="&#x168;" horiz-adv-x="698" 
d="M76 266l92 434h111l-93 -436c-5 -29 -9 -50 -9 -73c0 -72 43 -118 144 -118c126 0 166 57 190 172l96 455h111l-95 -447c-17 -85 -41 -144 -77 -187c-49 -57 -121 -79 -229 -79c-167 0 -251 64 -251 193c0 23 3 54 10 86zM346 758h-61c9 63 44 105 101 105
c28 0 49 -6 72 -15l10 -4c20 -8 36 -14 53 -14c23 0 42 16 46 36h61c-9 -61 -42 -106 -101 -106c-28 0 -49 7 -72 15l-11 4c-19 7 -38 14 -53 14c-24 0 -41 -15 -45 -35z" />
    <glyph glyph-name="Udieresis" unicode="&#xdc;" horiz-adv-x="698" 
d="M76 266l92 434h111l-93 -436c-5 -29 -9 -50 -9 -73c0 -72 43 -118 144 -118c126 0 166 57 190 172l96 455h111l-95 -447c-17 -85 -41 -144 -77 -187c-49 -57 -121 -79 -229 -79c-167 0 -251 64 -251 193c0 23 3 54 10 86zM434 875l-23 -112h-98l23 112h98zM612 875
l-23 -112h-98l23 112h98z" />
    <glyph glyph-name="Umacron" unicode="&#x16a;" horiz-adv-x="698" 
d="M76 266l92 434h111l-93 -436c-5 -29 -9 -50 -9 -73c0 -72 43 -118 144 -118c126 0 166 57 190 172l96 455h111l-95 -447c-17 -85 -41 -144 -77 -187c-49 -57 -121 -79 -229 -79c-167 0 -251 64 -251 193c0 23 3 54 10 86zM600 765h-302l15 70h302z" />
    <glyph glyph-name="Ubreve" unicode="&#x16c;" horiz-adv-x="698" 
d="M76 266l92 434h111l-93 -436c-5 -29 -9 -50 -9 -73c0 -72 43 -118 144 -118c126 0 166 57 190 172l96 455h111l-95 -447c-17 -85 -41 -144 -77 -187c-49 -57 -121 -79 -229 -79c-167 0 -251 64 -251 193c0 23 3 54 10 86zM440 746c-73 0 -136 41 -151 102l58 32
c15 -40 57 -60 101 -60c48 0 94 24 121 60l48 -34c-37 -67 -102 -100 -177 -100z" />
    <glyph glyph-name="Uring" unicode="&#x16e;" horiz-adv-x="698" 
d="M76 266l92 434h111l-93 -436c-5 -29 -9 -50 -9 -73c0 -72 43 -118 144 -118c126 0 166 57 190 172l96 455h111l-95 -447c-17 -85 -41 -144 -77 -187c-49 -57 -121 -79 -229 -79c-167 0 -251 64 -251 193c0 23 3 54 10 86zM445 898c47 0 83 -36 83 -83s-36 -84 -83 -84
s-84 37 -84 84s37 83 84 83zM445 856c-21 0 -41 -18 -41 -41s20 -42 41 -42c23 0 42 19 42 42s-19 41 -42 41z" />
    <glyph glyph-name="Uhungarumlaut" unicode="&#x170;" horiz-adv-x="698" 
d="M76 266l92 434h111l-93 -436c-5 -29 -9 -50 -9 -73c0 -72 43 -118 144 -118c126 0 166 57 190 172l96 455h111l-95 -447c-17 -85 -41 -144 -77 -187c-49 -57 -121 -79 -229 -79c-167 0 -251 64 -251 193c0 23 3 54 10 86zM544 746h-80l97 129h126zM378 746h-80l83 129
h126z" />
    <glyph glyph-name="Uogonek" unicode="&#x172;" horiz-adv-x="698" 
d="M76 266l92 434h111l-93 -436c-5 -29 -9 -50 -9 -73c0 -72 43 -118 144 -118c126 0 166 57 190 172l96 455h111l-95 -447c-17 -85 -41 -144 -77 -187c-49 -57 -121 -79 -229 -79c-167 0 -251 64 -251 193c0 23 3 54 10 86zM309 0h43c-63 -49 -82 -80 -82 -108
c0 -25 17 -40 38 -40c19 0 35 11 48 33l34 -13c-15 -35 -42 -64 -94 -64c-57 0 -85 37 -85 74c0 43 41 89 98 118z" />
    <glyph glyph-name="Wacute" unicode="&#x1e82;" horiz-adv-x="916" 
d="M153 0l-48 700h109l19 -376c2 -45 5 -132 5 -190h3c23 54 55 139 79 190l168 376h122l13 -376c3 -77 5 -133 5 -190h3c25 60 56 133 81 190l174 376h114l-343 -700h-114l-15 346c-3 60 -4 122 -4 227h-2c-23 -53 -60 -145 -99 -230l-155 -343h-115zM586 746h-83l83 129
h130z" />
    <glyph glyph-name="Wcircumflex" unicode="&#x174;" horiz-adv-x="916" 
d="M153 0l-48 700h109l19 -376c2 -45 5 -132 5 -190h3c23 54 55 139 79 190l168 376h122l13 -376c3 -77 5 -133 5 -190h3c25 60 56 133 81 190l174 376h114l-343 -700h-114l-15 346c-3 60 -4 122 -4 227h-2c-23 -53 -60 -145 -99 -230l-155 -343h-115zM570 822l-79 -76h-91
l123 129h106l74 -129h-84z" />
    <glyph glyph-name="Wdieresis" unicode="&#x1e84;" horiz-adv-x="916" 
d="M153 0l-48 700h109l19 -376c2 -45 5 -132 5 -190h3c23 54 55 139 79 190l168 376h122l13 -376c3 -77 5 -133 5 -190h3c25 60 56 133 81 190l174 376h114l-343 -700h-114l-15 346c-3 60 -4 122 -4 227h-2c-23 -53 -60 -145 -99 -230l-155 -343h-115zM541 875l-23 -112h-98
l23 112h98zM719 875l-23 -112h-98l23 112h98z" />
    <glyph glyph-name="Wgrave" unicode="&#x1e80;" horiz-adv-x="916" 
d="M153 0l-48 700h109l19 -376c2 -45 5 -132 5 -190h3c23 54 55 139 79 190l168 376h122l13 -376c3 -77 5 -133 5 -190h3c25 60 56 133 81 190l174 376h114l-343 -700h-114l-15 346c-3 60 -4 122 -4 227h-2c-23 -53 -60 -145 -99 -230l-155 -343h-115zM518 746l-109 129h129
l61 -129h-81z" />
    <glyph glyph-name="Ygrave" unicode="&#x1ef2;" horiz-adv-x="609" 
d="M196 0l59 274l-154 426h109l114 -336l254 336h121l-337 -426l-58 -274h-108zM356 746l-109 129h129l61 -129h-81z" />
    <glyph glyph-name="Yacute" unicode="&#xdd;" horiz-adv-x="609" 
d="M196 0l59 274l-154 426h109l114 -336l254 336h121l-337 -426l-58 -274h-108zM415 746h-83l83 129h130z" />
    <glyph glyph-name="Ycircumflex" unicode="&#x176;" horiz-adv-x="609" 
d="M196 0l59 274l-154 426h109l114 -336l254 336h121l-337 -426l-58 -274h-108zM408 822l-79 -76h-91l123 129h106l74 -129h-84z" />
    <glyph glyph-name="Ydieresis" unicode="&#x178;" horiz-adv-x="609" 
d="M196 0l59 274l-154 426h109l114 -336l254 336h121l-337 -426l-58 -274h-108zM385 875l-23 -112h-98l23 112h98zM563 875l-23 -112h-98l23 112h98z" />
    <glyph glyph-name="Zacute" unicode="&#x179;" horiz-adv-x="614" 
d="M120 612l19 88h529l-18 -86l-356 -356c-88 -88 -113 -110 -171 -170v-1c40 2 137 1 189 1h242l-19 -88h-560l18 85l386 388c51 51 102 100 142 139v1c-35 0 -102 -1 -132 -1h-269zM424 746h-83l83 129h130z" />
    <glyph glyph-name="Zcaron" unicode="&#x17d;" horiz-adv-x="614" 
d="M120 612l19 88h529l-18 -86l-356 -356c-88 -88 -113 -110 -171 -170v-1c40 2 137 1 189 1h242l-19 -88h-560l18 85l386 388c51 51 102 100 142 139v1c-35 0 -102 -1 -132 -1h-269zM353 875l48 -77l80 77h91l-123 -129h-106l-74 129h84z" />
    <glyph glyph-name="Zdotaccent" unicode="&#x17b;" horiz-adv-x="614" 
d="M120 612l19 88h529l-18 -86l-356 -356c-88 -88 -113 -110 -171 -170v-1c40 2 137 1 189 1h242l-19 -88h-560l18 85l386 388c51 51 102 100 142 139v1c-35 0 -102 -1 -132 -1h-269zM467 875l-23 -112h-102l23 112h102z" />
    <glyph glyph-name="uni018F" unicode="&#x18f;" horiz-adv-x="740" 
d="M65 377h550c1 11 1 22 1 33c0 135 -78 216 -197 216c-115 0 -173 -52 -212 -135h-115c52 130 161 222 328 222c180 0 300 -117 300 -304c0 -224 -135 -423 -368 -423c-179 0 -293 118 -293 302c0 31 2 61 6 89zM355 70c131 0 223 99 249 228h-441v-16
c0 -136 73 -212 192 -212z" />
    <glyph glyph-name="agrave" unicode="&#xe0;" horiz-adv-x="560" 
d="M361 58h-2c-28 -37 -83 -69 -167 -69c-104 0 -168 53 -168 141c0 148 170 162 284 181l38 6c53 8 67 27 67 64c0 43 -27 71 -102 71s-117 -29 -132 -106l-99 2c20 123 98 181 242 181c121 0 190 -43 190 -139c0 -29 -3 -54 -10 -83l-42 -196c-1 -7 -2 -12 -2 -17
c0 -17 10 -23 31 -23c5 0 10 0 15 1l-15 -72c-21 -1 -22 -2 -42 -2c-61 0 -86 16 -86 53v7zM378 186l17 79c-12 -9 -25 -14 -74 -25l-35 -6c-51 -10 -89 -21 -115 -33c-26 -11 -39 -33 -39 -64c0 -49 34 -73 90 -73c36 0 70 10 99 31c27 20 48 46 57 91zM290 571l-109 129
h128l62 -129h-81z" />
    <glyph glyph-name="aacute" unicode="&#xe1;" horiz-adv-x="560" 
d="M361 58h-2c-28 -37 -83 -69 -167 -69c-104 0 -168 53 -168 141c0 148 170 162 284 181l38 6c53 8 67 27 67 64c0 43 -27 71 -102 71s-117 -29 -132 -106l-99 2c20 123 98 181 242 181c121 0 190 -43 190 -139c0 -29 -3 -54 -10 -83l-42 -196c-1 -7 -2 -12 -2 -17
c0 -17 10 -23 31 -23c5 0 10 0 15 1l-15 -72c-21 -1 -22 -2 -42 -2c-61 0 -86 16 -86 53v7zM378 186l17 79c-12 -9 -25 -14 -74 -25l-35 -6c-51 -10 -89 -21 -115 -33c-26 -11 -39 -33 -39 -64c0 -49 34 -73 90 -73c36 0 70 10 99 31c27 20 48 46 57 91zM369 571h-83l84 129
h129z" />
    <glyph glyph-name="acircumflex" unicode="&#xe2;" horiz-adv-x="560" 
d="M361 58h-2c-28 -37 -83 -69 -167 -69c-104 0 -168 53 -168 141c0 148 170 162 284 181l38 6c53 8 67 27 67 64c0 43 -27 71 -102 71s-117 -29 -132 -106l-99 2c20 123 98 181 242 181c121 0 190 -43 190 -139c0 -29 -3 -54 -10 -83l-42 -196c-1 -7 -2 -12 -2 -17
c0 -17 10 -23 31 -23c5 0 10 0 15 1l-15 -72c-21 -1 -22 -2 -42 -2c-61 0 -86 16 -86 53v7zM378 186l17 79c-12 -9 -25 -14 -74 -25l-35 -6c-51 -10 -89 -21 -115 -33c-26 -11 -39 -33 -39 -64c0 -49 34 -73 90 -73c36 0 70 10 99 31c27 20 48 46 57 91zM349 647l-80 -76
h-91l123 129h106l75 -129h-85z" />
    <glyph glyph-name="atilde" unicode="&#xe3;" horiz-adv-x="560" 
d="M361 58h-2c-28 -37 -83 -69 -167 -69c-104 0 -168 53 -168 141c0 148 170 162 284 181l38 6c53 8 67 27 67 64c0 43 -27 71 -102 71s-117 -29 -132 -106l-99 2c20 123 98 181 242 181c121 0 190 -43 190 -139c0 -29 -3 -54 -10 -83l-42 -196c-1 -7 -2 -12 -2 -17
c0 -17 10 -23 31 -23c5 0 10 0 15 1l-15 -72c-21 -1 -22 -2 -42 -2c-61 0 -86 16 -86 53v7zM378 186l17 79c-12 -9 -25 -14 -74 -25l-35 -6c-51 -10 -89 -21 -115 -33c-26 -11 -39 -33 -39 -64c0 -49 34 -73 90 -73c36 0 70 10 99 31c27 20 48 46 57 91zM228 592h-61
c9 63 44 105 101 105c28 0 49 -7 72 -15l10 -4c20 -8 36 -14 53 -14c23 0 42 16 46 36h61c-9 -61 -42 -106 -101 -106c-28 0 -49 7 -72 15l-11 4c-19 7 -38 14 -53 14c-24 0 -41 -15 -45 -35z" />
    <glyph glyph-name="adieresis" unicode="&#xe4;" horiz-adv-x="560" 
d="M361 58h-2c-28 -37 -83 -69 -167 -69c-104 0 -168 53 -168 141c0 148 170 162 284 181l38 6c53 8 67 27 67 64c0 43 -27 71 -102 71s-117 -29 -132 -106l-99 2c20 123 98 181 242 181c121 0 190 -43 190 -139c0 -29 -3 -54 -10 -83l-42 -196c-1 -7 -2 -12 -2 -17
c0 -17 10 -23 31 -23c5 0 10 0 15 1l-15 -72c-21 -1 -22 -2 -42 -2c-61 0 -86 16 -86 53v7zM378 186l17 79c-12 -9 -25 -14 -74 -25l-35 -6c-51 -10 -89 -21 -115 -33c-26 -11 -39 -33 -39 -64c0 -49 34 -73 90 -73c36 0 70 10 99 31c27 20 48 46 57 91zM316 700l-23 -112
h-98l23 112h98zM495 700l-23 -112h-99l23 112h99z" />
    <glyph glyph-name="amacron" unicode="&#x101;" horiz-adv-x="560" 
d="M361 58h-2c-28 -37 -83 -69 -167 -69c-104 0 -168 53 -168 141c0 148 170 162 284 181l38 6c53 8 67 27 67 64c0 43 -27 71 -102 71s-117 -29 -132 -106l-99 2c20 123 98 181 242 181c121 0 190 -43 190 -139c0 -29 -3 -54 -10 -83l-42 -196c-1 -7 -2 -12 -2 -17
c0 -17 10 -23 31 -23c5 0 10 0 15 1l-15 -72c-21 -1 -22 -2 -42 -2c-61 0 -86 16 -86 53v7zM378 186l17 79c-12 -9 -25 -14 -74 -25l-35 -6c-51 -10 -89 -21 -115 -33c-26 -11 -39 -33 -39 -64c0 -49 34 -73 90 -73c36 0 70 10 99 31c27 20 48 46 57 91zM485 603h-301l15 70
h301z" />
    <glyph glyph-name="abreve" unicode="&#x103;" horiz-adv-x="560" 
d="M361 58h-2c-28 -37 -83 -69 -167 -69c-104 0 -168 53 -168 141c0 148 170 162 284 181l38 6c53 8 67 27 67 64c0 43 -27 71 -102 71s-117 -29 -132 -106l-99 2c20 123 98 181 242 181c121 0 190 -43 190 -139c0 -29 -3 -54 -10 -83l-42 -196c-1 -7 -2 -12 -2 -17
c0 -17 10 -23 31 -23c5 0 10 0 15 1l-15 -72c-21 -1 -22 -2 -42 -2c-61 0 -86 16 -86 53v7zM378 186l17 79c-12 -9 -25 -14 -74 -25l-35 -6c-51 -10 -89 -21 -115 -33c-26 -11 -39 -33 -39 -64c0 -49 34 -73 90 -73c36 0 70 10 99 31c27 20 48 46 57 91zM349 582
c-73 0 -137 41 -150 102l58 32c15 -40 57 -60 101 -60c48 0 94 24 121 60l47 -34c-37 -67 -102 -100 -177 -100z" />
    <glyph glyph-name="aring" unicode="&#xe5;" horiz-adv-x="560" 
d="M361 58h-2c-28 -37 -83 -69 -167 -69c-104 0 -168 53 -168 141c0 148 170 162 284 181l38 6c53 8 67 27 67 64c0 43 -27 71 -102 71s-117 -29 -132 -106l-99 2c20 123 98 181 242 181c121 0 190 -43 190 -139c0 -29 -3 -54 -10 -83l-42 -196c-1 -7 -2 -12 -2 -17
c0 -17 10 -23 31 -23c5 0 10 0 15 1l-15 -72c-21 -1 -22 -2 -42 -2c-61 0 -86 16 -86 53v7zM378 186l17 79c-12 -9 -25 -14 -74 -25l-35 -6c-51 -10 -89 -21 -115 -33c-26 -11 -39 -33 -39 -64c0 -49 34 -73 90 -73c36 0 70 10 99 31c27 20 48 46 57 91zM323 723
c47 0 83 -36 83 -83s-36 -84 -83 -84s-84 37 -84 84s37 83 84 83zM323 681c-21 0 -41 -18 -41 -41s20 -42 41 -42c23 0 42 19 42 42s-19 41 -42 41z" />
    <glyph glyph-name="aringacute" unicode="&#x1fb;" horiz-adv-x="560" 
d="M361 58h-2c-28 -37 -83 -69 -167 -69c-104 0 -168 53 -168 141c0 148 170 162 284 181l38 6c53 8 67 27 67 64c0 43 -27 71 -102 71s-117 -29 -132 -106l-99 2c20 123 98 181 242 181c121 0 190 -43 190 -139c0 -29 -3 -54 -10 -83l-42 -196c-1 -7 -2 -12 -2 -17
c0 -17 10 -23 31 -23c5 0 10 0 15 1l-15 -72c-21 -1 -22 -2 -42 -2c-61 0 -86 16 -86 53v7zM378 186l17 79c-12 -9 -25 -14 -74 -25l-35 -6c-51 -10 -89 -21 -115 -33c-26 -11 -39 -33 -39 -64c0 -49 34 -73 90 -73c36 0 70 10 99 31c27 20 48 46 57 91zM346 723
c47 0 83 -36 83 -83s-36 -84 -83 -84s-84 37 -84 84s37 83 84 83zM346 681c-21 0 -41 -18 -41 -41s20 -42 41 -42c23 0 42 19 42 42s-19 41 -42 41zM401 746h-83l83 129h130z" />
    <glyph glyph-name="aogonek" unicode="&#x105;" horiz-adv-x="560" 
d="M361 58h-2c-28 -37 -83 -69 -167 -69c-104 0 -168 53 -168 141c0 148 170 162 284 181l38 6c53 8 67 27 67 64c0 43 -27 71 -102 71s-117 -29 -132 -106l-99 2c20 123 98 181 242 181c121 0 190 -43 190 -139c0 -29 -3 -54 -10 -83l-42 -196c-1 -7 -2 -12 -2 -17
c0 -17 10 -23 31 -23c5 0 10 0 15 1l-15 -72c-21 -1 -22 -2 -42 -2c-61 0 -86 16 -86 53v7zM378 186l17 79c-12 -9 -25 -14 -74 -25l-35 -6c-51 -10 -89 -21 -115 -33c-26 -11 -39 -33 -39 -64c0 -49 34 -73 90 -73c36 0 70 10 99 31c27 20 48 46 57 91zM446 0h43
c-63 -49 -82 -80 -82 -108c0 -25 17 -40 38 -40c19 0 35 11 48 33l34 -13c-15 -35 -42 -64 -94 -64c-57 0 -85 37 -85 74c0 43 41 89 98 118z" />
    <glyph glyph-name="ae" unicode="&#xe6;" horiz-adv-x="899" 
d="M860 235h-387c-1 -8 -1 -15 -1 -23c0 -84 42 -141 127 -141c68 0 114 37 135 86h108c-39 -101 -124 -169 -247 -169c-84 0 -148 33 -183 90h-4c-37 -45 -107 -90 -208 -90c-115 0 -178 53 -178 141c0 136 137 160 280 181l41 6c47 7 64 24 64 63c0 43 -35 71 -99 71
c-71 0 -116 -29 -131 -93h-95c25 121 108 171 233 171c75 0 136 -20 161 -65c44 41 101 67 170 67c166 0 218 -112 218 -251c0 -18 -1 -33 -4 -44zM485 309h278c0 79 -33 144 -121 144c-89 0 -141 -63 -157 -144zM374 191l16 76c-8 -7 -24 -14 -49 -19l-33 -7
c-121 -26 -181 -36 -181 -104c0 -48 33 -72 89 -72c68 0 138 32 158 126z" />
    <glyph glyph-name="aeacute" unicode="&#x1fd;" horiz-adv-x="899" 
d="M860 235h-387c-1 -8 -1 -15 -1 -23c0 -84 42 -141 127 -141c68 0 114 37 135 86h108c-39 -101 -124 -169 -247 -169c-84 0 -148 33 -183 90h-4c-37 -45 -107 -90 -208 -90c-115 0 -178 53 -178 141c0 136 137 160 280 181l41 6c47 7 64 24 64 63c0 43 -35 71 -99 71
c-71 0 -116 -29 -131 -93h-95c25 121 108 171 233 171c75 0 136 -20 161 -65c44 41 101 67 170 67c166 0 218 -112 218 -251c0 -18 -1 -33 -4 -44zM485 309h278c0 79 -33 144 -121 144c-89 0 -141 -63 -157 -144zM374 191l16 76c-8 -7 -24 -14 -49 -19l-33 -7
c-121 -26 -181 -36 -181 -104c0 -48 33 -72 89 -72c68 0 138 32 158 126zM516 571h-83l84 129h129z" />
    <glyph glyph-name="cacute" unicode="&#x107;" horiz-adv-x="549" 
d="M528 342h-98c-7 69 -51 105 -118 105c-116 0 -172 -122 -172 -234c0 -89 44 -143 124 -143c69 0 119 41 143 110h102c-33 -113 -117 -193 -250 -193c-135 0 -222 82 -222 227c0 168 101 315 277 315c119 0 210 -63 214 -187zM361 571h-83l84 129h129z" />
    <glyph glyph-name="ccircumflex" unicode="&#x109;" horiz-adv-x="549" 
d="M528 342h-98c-7 69 -51 105 -118 105c-116 0 -172 -122 -172 -234c0 -89 44 -143 124 -143c69 0 119 41 143 110h102c-33 -113 -117 -193 -250 -193c-135 0 -222 82 -222 227c0 168 101 315 277 315c119 0 210 -63 214 -187zM346 647l-80 -76h-91l123 129h106l75 -129
h-85z" />
    <glyph glyph-name="ccaron" unicode="&#x10d;" horiz-adv-x="549" 
d="M528 342h-98c-7 69 -51 105 -118 105c-116 0 -172 -122 -172 -234c0 -89 44 -143 124 -143c69 0 119 41 143 110h102c-33 -113 -117 -193 -250 -193c-135 0 -222 82 -222 227c0 168 101 315 277 315c119 0 210 -63 214 -187zM288 700l48 -77l80 77h91l-123 -129h-106
l-74 129h84z" />
    <glyph glyph-name="cdotaccent" unicode="&#x10b;" horiz-adv-x="549" 
d="M528 342h-98c-7 69 -51 105 -118 105c-116 0 -172 -122 -172 -234c0 -89 44 -143 124 -143c69 0 119 41 143 110h102c-33 -113 -117 -193 -250 -193c-135 0 -222 82 -222 227c0 168 101 315 277 315c119 0 210 -63 214 -187zM405 700l-25 -113h-102l25 113h102z" />
    <glyph glyph-name="ccedilla" unicode="&#xe7;" horiz-adv-x="549" 
d="M528 342h-98c-7 69 -51 105 -118 105c-116 0 -172 -122 -172 -234c0 -89 44 -143 124 -143c69 0 119 41 143 110h102c-33 -113 -117 -193 -250 -193c-135 0 -222 82 -222 227c0 168 101 315 277 315c119 0 210 -63 214 -187zM220 8l39 -8l-43 -47l1 -1c9 3 18 2 27 2
c17 0 34 -5 51 -14s26 -26 26 -50c0 -56 -53 -79 -105 -79c-29 0 -65 7 -88 20l15 35c15 -9 37 -17 66 -17c28 0 50 13 50 38c0 24 -21 35 -46 35c-13 0 -24 -3 -35 -8l-19 19z" />
    <glyph glyph-name="dslash" unicode="&#x111;" horiz-adv-x="604" 
d="M382 588l15 68h120l9 44h101l-10 -44h52l-15 -68h-51l-126 -588h-98l16 72h-1c-31 -45 -90 -85 -166 -85c-121 0 -193 91 -193 217c0 172 115 326 275 326c83 0 142 -39 161 -90h1l30 148h-120zM318 448c-118 0 -180 -123 -180 -240c0 -85 40 -139 120 -139
c125 0 182 139 182 242c0 76 -47 137 -122 137z" />
    <glyph glyph-name="dcaron" unicode="&#x10f;" horiz-adv-x="616" 
d="M477 0h-98l4 20l12 52h-1c-31 -45 -90 -85 -166 -85c-121 0 -193 91 -193 217c0 173 115 327 275 327c83 0 142 -40 161 -91h1c11 49 17 84 25 123l29 137h101zM318 448c-118 0 -180 -123 -180 -240c0 -84 40 -138 120 -138c125 0 182 137 182 241c0 76 -47 137 -122 137
zM697 700h109l-91 -158h-80z" />
    <glyph glyph-name="eth" unicode="&#xf0;" horiz-adv-x="584" 
d="M207 597l104 53c-24 19 -50 29 -73 40l77 46c23 -11 51 -26 75 -45l98 50l27 -43l-81 -42c67 -63 120 -161 120 -297c0 -165 -67 -371 -296 -371c-130 0 -222 82 -222 224c0 164 104 314 283 314c47 0 98 -12 133 -51l3 1c-17 59 -53 103 -97 140l-125 -64zM318 447
c-117 0 -179 -127 -179 -236c0 -88 48 -143 129 -143c121 0 179 131 179 237c0 95 -53 142 -129 142z" />
    <glyph glyph-name="egrave" unicode="&#xe8;" horiz-adv-x="572" 
d="M533 234h-395c-1 -7 -1 -15 -1 -22c0 -84 46 -142 130 -142c69 0 120 36 143 89h107c-37 -104 -130 -172 -253 -172c-70 0 -125 21 -166 62s-61 97 -61 166c0 168 103 314 277 314c155 0 223 -106 223 -239c0 -20 -1 -36 -4 -56zM150 309h288c-4 80 -37 143 -128 143
s-145 -62 -160 -143zM277 571l-109 129h128l62 -129h-81z" />
    <glyph glyph-name="eacute" unicode="&#xe9;" horiz-adv-x="572" 
d="M533 234h-395c-1 -7 -1 -15 -1 -22c0 -84 46 -142 130 -142c69 0 120 36 143 89h107c-37 -104 -130 -172 -253 -172c-70 0 -125 21 -166 62s-61 97 -61 166c0 168 103 314 277 314c155 0 223 -106 223 -239c0 -20 -1 -36 -4 -56zM150 309h288c-4 80 -37 143 -128 143
s-145 -62 -160 -143zM363 571h-83l84 129h129z" />
    <glyph glyph-name="ecircumflex" unicode="&#xea;" horiz-adv-x="572" 
d="M533 234h-395c-1 -7 -1 -15 -1 -22c0 -84 46 -142 130 -142c69 0 120 36 143 89h107c-37 -104 -130 -172 -253 -172c-70 0 -125 21 -166 62s-61 97 -61 166c0 168 103 314 277 314c155 0 223 -106 223 -239c0 -20 -1 -36 -4 -56zM150 309h288c-4 80 -37 143 -128 143
s-145 -62 -160 -143zM344 647l-80 -76h-91l123 129h106l75 -129h-85z" />
    <glyph glyph-name="ecaron" unicode="&#x11b;" horiz-adv-x="572" 
d="M533 234h-395c-1 -7 -1 -15 -1 -22c0 -84 46 -142 130 -142c69 0 120 36 143 89h107c-37 -104 -130 -172 -253 -172c-70 0 -125 21 -166 62s-61 97 -61 166c0 168 103 314 277 314c155 0 223 -106 223 -239c0 -20 -1 -36 -4 -56zM150 309h288c-4 80 -37 143 -128 143
s-145 -62 -160 -143zM283 700l48 -77l80 77h91l-123 -129h-106l-74 129h84z" />
    <glyph glyph-name="edieresis" unicode="&#xeb;" horiz-adv-x="572" 
d="M533 234h-395c-1 -7 -1 -15 -1 -22c0 -84 46 -142 130 -142c69 0 120 36 143 89h107c-37 -104 -130 -172 -253 -172c-70 0 -125 21 -166 62s-61 97 -61 166c0 168 103 314 277 314c155 0 223 -106 223 -239c0 -20 -1 -36 -4 -56zM150 309h288c-4 80 -37 143 -128 143
s-145 -62 -160 -143zM311 700l-23 -112h-98l23 112h98zM490 700l-23 -112h-99l23 112h99z" />
    <glyph glyph-name="emacron" unicode="&#x113;" horiz-adv-x="572" 
d="M533 234h-395c-1 -7 -1 -15 -1 -22c0 -84 46 -142 130 -142c69 0 120 36 143 89h107c-37 -104 -130 -172 -253 -172c-70 0 -125 21 -166 62s-61 97 -61 166c0 168 103 314 277 314c155 0 223 -106 223 -239c0 -20 -1 -36 -4 -56zM150 309h288c-4 80 -37 143 -128 143
s-145 -62 -160 -143zM481 603h-301l15 70h301z" />
    <glyph glyph-name="ebreve" unicode="&#x115;" horiz-adv-x="572" 
d="M533 234h-395c-1 -7 -1 -15 -1 -22c0 -84 46 -142 130 -142c69 0 120 36 143 89h107c-37 -104 -130 -172 -253 -172c-70 0 -125 21 -166 62s-61 97 -61 166c0 168 103 314 277 314c155 0 223 -106 223 -239c0 -20 -1 -36 -4 -56zM150 309h288c-4 80 -37 143 -128 143
s-145 -62 -160 -143zM328 582c-73 0 -137 41 -150 102l58 32c15 -40 57 -60 101 -60c48 0 94 24 121 60l47 -34c-37 -67 -102 -100 -177 -100z" />
    <glyph glyph-name="edotaccent" unicode="&#x117;" horiz-adv-x="572" 
d="M533 234h-395c-1 -7 -1 -15 -1 -22c0 -84 46 -142 130 -142c69 0 120 36 143 89h107c-37 -104 -130 -172 -253 -172c-70 0 -125 21 -166 62s-61 97 -61 166c0 168 103 314 277 314c155 0 223 -106 223 -239c0 -20 -1 -36 -4 -56zM150 309h288c-4 80 -37 143 -128 143
s-145 -62 -160 -143zM401 700l-25 -113h-102l25 113h102z" />
    <glyph glyph-name="eogonek" unicode="&#x119;" horiz-adv-x="572" 
d="M533 234h-395c-1 -7 -1 -15 -1 -22c0 -84 46 -142 130 -142c69 0 120 36 143 89h107c-37 -104 -130 -172 -253 -172c-70 0 -125 21 -166 62s-61 97 -61 166c0 168 103 314 277 314c155 0 223 -106 223 -239c0 -20 -1 -36 -4 -56zM150 309h288c-4 80 -37 143 -128 143
s-145 -62 -160 -143zM307 0h43c-63 -49 -82 -80 -82 -108c0 -25 17 -40 38 -40c19 0 35 11 48 33l34 -13c-15 -35 -42 -64 -94 -64c-57 0 -85 37 -85 74c0 43 41 89 98 118z" />
    <glyph glyph-name="gcircumflex" unicode="&#x11d;" horiz-adv-x="596" 
d="M6 -21h103c0 -53 47 -75 115 -75c100 0 138 49 155 136l4 19c4 20 9 36 12 45h-3c-29 -44 -84 -78 -159 -78c-108 0 -192 80 -192 212c0 159 109 292 263 292c81 0 141 -39 158 -86h2l16 71h99l-103 -482c-31 -147 -107 -208 -259 -208c-131 0 -211 49 -211 154zM143 239
c0 -81 40 -131 119 -131c109 0 173 105 173 210c0 87 -47 130 -120 130c-110 0 -172 -105 -172 -209zM349 647l-80 -76h-91l123 129h106l75 -129h-85z" />
    <glyph glyph-name="gbreve" unicode="&#x11f;" horiz-adv-x="596" 
d="M6 -21h103c0 -53 47 -75 115 -75c100 0 138 49 155 136l4 19c4 20 9 36 12 45h-3c-29 -44 -84 -78 -159 -78c-108 0 -192 80 -192 212c0 159 109 292 263 292c81 0 141 -39 158 -86h2l16 71h99l-103 -482c-31 -147 -107 -208 -259 -208c-131 0 -211 49 -211 154zM143 239
c0 -81 40 -131 119 -131c109 0 173 105 173 210c0 87 -47 130 -120 130c-110 0 -172 -105 -172 -209zM341 582c-73 0 -137 41 -150 102l58 32c15 -40 57 -60 101 -60c48 0 94 24 121 60l47 -34c-37 -67 -102 -100 -177 -100z" />
    <glyph glyph-name="gdotaccent" unicode="&#x121;" horiz-adv-x="596" 
d="M6 -21h103c0 -53 47 -75 115 -75c100 0 138 49 155 136l4 19c4 20 9 36 12 45h-3c-29 -44 -84 -78 -159 -78c-108 0 -192 80 -192 212c0 159 109 292 263 292c81 0 141 -39 158 -86h2l16 71h99l-103 -482c-31 -147 -107 -208 -259 -208c-131 0 -211 49 -211 154zM143 239
c0 -81 40 -131 119 -131c109 0 173 105 173 210c0 87 -47 130 -120 130c-110 0 -172 -105 -172 -209zM412 700l-25 -113h-102l25 113h102z" />
    <glyph glyph-name="uni0123" unicode="&#x123;" horiz-adv-x="596" 
d="M6 -21h103c0 -53 47 -75 115 -75c100 0 138 49 155 136l4 19c4 20 9 36 12 45h-3c-29 -44 -84 -78 -159 -78c-108 0 -192 80 -192 212c0 159 109 292 263 292c81 0 141 -39 158 -86h2l16 71h99l-103 -482c-31 -147 -107 -208 -259 -208c-131 0 -211 49 -211 154zM143 239
c0 -81 40 -131 119 -131c109 0 173 105 173 210c0 87 -47 130 -120 130c-110 0 -172 -105 -172 -209zM372 557h-90l19 89c15 65 48 97 113 109l-9 -43c-29 -7 -50 -25 -57 -64h43z" />
    <glyph glyph-name="hcircumflex" unicode="&#x125;" horiz-adv-x="584" 
d="M19 0l148 700h102l-25 -116c-9 -47 -17 -83 -32 -138h1c32 47 86 84 165 84c104 0 160 -59 160 -146c0 -25 -2 -49 -9 -77l-66 -307h-100l61 290c5 24 9 47 9 68c0 55 -36 85 -96 85c-92 0 -138 -73 -158 -164l-60 -279h-100zM395 822l-79 -76h-91l123 129h106l74 -129
h-84z" />
    <glyph glyph-name="hbar" unicode="&#x127;" horiz-adv-x="584" 
d="M365 588h-120c-11 -51 -18 -87 -33 -142h1c32 47 86 83 165 83c104 0 160 -60 160 -145c0 -25 -2 -49 -9 -77l-66 -307h-103l63 290c5 24 9 47 9 68c0 55 -35 85 -95 85c-92 0 -138 -73 -158 -164l-60 -279h-100l124 588h-50l15 68h50l9 44h102l-10 -44h121z" />
    <glyph glyph-name="dotlessi" unicode="&#x131;" horiz-adv-x="247" 
d="M19 0l109 515h102l-110 -515h-101z" />
    <glyph glyph-name="i.latn_TRK" horiz-adv-x="247" 
d="M19 0l109 515h102l-110 -515h-101zM267 700l-25 -113h-102l25 113h102z" />
    <glyph glyph-name="igrave" unicode="&#xec;" horiz-adv-x="247" 
d="M19 0l109 515h102l-110 -515h-101zM147 571l-109 129h128l62 -129h-81z" />
    <glyph glyph-name="iacute" unicode="&#xed;" horiz-adv-x="247" 
d="M19 0l109 515h102l-110 -515h-101zM228 571h-83l84 129h129z" />
    <glyph glyph-name="icircumflex" unicode="&#xee;" horiz-adv-x="247" 
d="M19 0l109 515h102l-110 -515h-101zM204 647l-80 -76h-91l123 129h106l75 -129h-85z" />
    <glyph glyph-name="itilde" unicode="&#x129;" horiz-adv-x="247" 
d="M19 0l109 515h102l-110 -515h-101zM83 592h-61c9 63 44 105 101 105c28 0 49 -7 72 -15l10 -4c20 -8 36 -14 53 -14c23 0 42 16 46 36h61c-9 -61 -42 -106 -101 -106c-28 0 -49 7 -72 15l-11 4c-19 7 -38 14 -53 14c-24 0 -41 -15 -45 -35z" />
    <glyph glyph-name="idieresis" unicode="&#xef;" horiz-adv-x="247" 
d="M19 0l109 515h102l-110 -515h-101zM175 700l-23 -112h-98l23 112h98zM354 700l-23 -112h-99l23 112h99z" />
    <glyph glyph-name="imacron" unicode="&#x12b;" horiz-adv-x="247" 
d="M19 0l109 515h102l-110 -515h-101zM340 603h-301l15 70h301z" />
    <glyph glyph-name="ibreve" unicode="&#x12d;" horiz-adv-x="247" 
d="M19 0l109 515h102l-110 -515h-101zM191 582c-73 0 -137 41 -150 102l58 32c15 -40 57 -60 101 -60c48 0 94 24 121 60l47 -34c-37 -67 -102 -100 -177 -100z" />
    <glyph glyph-name="iogonek" unicode="&#x12f;" horiz-adv-x="247" 
d="M144 588l23 112h102l-23 -112h-102zM19 0l109 515h102l-110 -515h-101zM77 0h43c-63 -49 -82 -80 -82 -108c0 -25 17 -40 38 -40c19 0 35 11 48 33l34 -13c-15 -35 -42 -64 -94 -64c-57 0 -85 37 -85 74c0 43 41 89 98 118z" />
    <glyph glyph-name="uni0237" unicode="&#x237;" horiz-adv-x="246" 
d="M-66 -100c59 0 70 26 85 98l109 517h101l-114 -531c-30 -144 -77 -162 -168 -162c-20 0 -38 1 -54 2l18 77c9 -1 16 -1 23 -1z" />
    <glyph glyph-name="ij" unicode="&#x133;" horiz-adv-x="479" 
d="M144 588l23 112h102l-23 -112h-102zM19 0l109 515h102l-110 -515h-101zM377 588l23 112h102l-23 -112h-102zM167 -100c59 0 70 26 85 98l109 517h101l-114 -531c-30 -144 -77 -162 -168 -162c-20 0 -38 1 -54 2l18 77c9 -1 16 -1 23 -1z" />
    <glyph glyph-name="jcircumflex" unicode="&#x135;" horiz-adv-x="246" 
d="M-66 -100c59 0 70 26 85 98l109 517h101l-114 -531c-30 -144 -77 -162 -168 -162c-20 0 -38 1 -54 2l18 77c9 -1 16 -1 23 -1zM203 647l-80 -76h-91l123 129h106l75 -129h-85z" />
    <glyph glyph-name="uni0137" unicode="&#x137;" horiz-adv-x="527" 
d="M167 700h102l-53 -243l-36 -161h2l262 219h129l-246 -200l154 -315h-115l-118 253l-91 -75l-38 -178h-100zM182 -46h90l-19 -89c-13 -65 -46 -97 -113 -109l9 43c29 7 52 27 57 64h-43z" />
    <glyph glyph-name="kgreenlandic" unicode="&#x138;" horiz-adv-x="527" 
d="M128 515h101l-13 -58l-36 -161h2l262 219h129l-246 -200l154 -315h-115l-118 253l-91 -75l-38 -178h-100z" />
    <glyph glyph-name="lacute" unicode="&#x13a;" horiz-adv-x="246" 
d="M167 700h102l-150 -700h-100zM263 746h-83l83 129h130z" />
    <glyph glyph-name="lcaron" unicode="&#x13e;" horiz-adv-x="258" 
d="M167 700h102l-150 -700h-100zM339 700h109l-91 -158h-80z" />
    <glyph glyph-name="ldot" unicode="&#x140;" horiz-adv-x="313" 
d="M167 700h102l-150 -700h-100zM368 426l-25 -113h-102l25 113h102z" />
    <glyph glyph-name="ldot.latn_CAT" horiz-adv-x="313" 
d="M167 700h102l-150 -700h-100zM368 426l-25 -113h-102l25 113h102z" />
    <glyph glyph-name="lslash" unicode="&#x142;" horiz-adv-x="310" 
d="M48 0l62 297l-77 -38l17 84l78 37l68 320h104l-57 -269l79 37l-18 -83l-79 -38l-74 -347h-103z" />
    <glyph glyph-name="uni013C" unicode="&#x13c;" horiz-adv-x="246" 
d="M167 700h102l-150 -700h-100zM16 -46h90l-19 -89c-13 -65 -46 -97 -113 -109l9 43c29 7 52 27 57 64h-43z" />
    <glyph glyph-name="uni0146" unicode="&#x146;" horiz-adv-x="585" 
d="M19 0l110 515h98l-7 -32c-2 -11 -5 -24 -10 -40h2c31 48 86 87 167 87c104 0 160 -59 160 -146c0 -25 -3 -55 -10 -82l-65 -302h-100l61 290c5 24 9 47 9 68c0 55 -36 84 -96 84c-102 0 -141 -84 -163 -184l-55 -258h-101zM194 -46h90l-19 -89c-13 -65 -46 -97 -113 -109
l9 43c29 7 52 27 57 64h-43z" />
    <glyph glyph-name="nacute" unicode="&#x144;" horiz-adv-x="585" 
d="M19 0l110 515h98l-7 -32c-2 -11 -5 -24 -10 -40h2c31 48 86 87 167 87c104 0 160 -59 160 -146c0 -25 -3 -55 -10 -82l-65 -302h-100l61 290c5 24 9 47 9 68c0 55 -36 84 -96 84c-102 0 -141 -84 -163 -184l-55 -258h-101zM378 571h-83l84 129h129z" />
    <glyph glyph-name="ncaron" unicode="&#x148;" horiz-adv-x="585" 
d="M19 0l110 515h98l-7 -32c-2 -11 -5 -24 -10 -40h2c31 48 86 87 167 87c104 0 160 -59 160 -146c0 -25 -3 -55 -10 -82l-65 -302h-100l61 290c5 24 9 47 9 68c0 55 -36 84 -96 84c-102 0 -141 -84 -163 -184l-55 -258h-101zM317 700l48 -77l80 77h91l-123 -129h-106
l-74 129h84z" />
    <glyph glyph-name="ntilde" unicode="&#xf1;" horiz-adv-x="585" 
d="M19 0l110 515h98l-7 -32c-2 -11 -5 -24 -10 -40h2c31 48 86 87 167 87c104 0 160 -59 160 -146c0 -25 -3 -55 -10 -82l-65 -302h-100l61 290c5 24 9 47 9 68c0 55 -36 84 -96 84c-102 0 -141 -84 -163 -184l-55 -258h-101zM264 592h-61c9 63 44 105 101 105
c28 0 49 -7 72 -15l10 -4c20 -8 36 -14 53 -14c23 0 42 16 46 36h61c-9 -61 -42 -106 -101 -106c-28 0 -49 7 -72 15l-11 4c-19 7 -38 14 -53 14c-24 0 -41 -15 -45 -35z" />
    <glyph glyph-name="napostrophe" unicode="&#x149;" horiz-adv-x="634" 
d="M68 0l110 515h98l-7 -32c-2 -11 -5 -24 -10 -40h2c31 48 86 87 167 87c104 0 160 -59 160 -146c0 -25 -3 -55 -10 -82l-65 -302h-100l61 290c5 24 9 47 9 68c0 55 -36 84 -96 84c-102 0 -141 -84 -163 -184l-55 -258h-101zM85 694h90l-19 -89c-13 -65 -46 -97 -113 -109
l9 43c29 7 52 27 57 64h-43z" />
    <glyph glyph-name="eng" unicode="&#x14b;" horiz-adv-x="585" 
d="M19 0l110 515h98l-7 -32c-2 -11 -5 -24 -10 -40h2c31 48 86 87 167 87c104 0 160 -59 160 -146c0 -25 -3 -55 -10 -82l-68 -318c-30 -144 -77 -162 -168 -162c-20 0 -38 1 -54 2l18 77c9 -1 12 -1 19 -1c58 0 69 26 85 100l63 290c5 24 9 47 9 68c0 55 -35 85 -95 85
c-100 0 -141 -83 -163 -185l-55 -258h-101z" />
    <glyph glyph-name="ograve" unicode="&#xf2;" horiz-adv-x="581" 
d="M318 529c69 0 124 -20 166 -59s63 -93 63 -162c0 -167 -100 -322 -284 -322c-137 0 -227 86 -227 223c0 169 101 320 282 320zM267 69c120 0 177 130 177 239c0 88 -46 140 -127 140c-123 0 -178 -125 -178 -237c0 -89 47 -142 128 -142zM300 571l-109 129h128l62 -129
h-81z" />
    <glyph glyph-name="oacute" unicode="&#xf3;" horiz-adv-x="581" 
d="M318 529c69 0 124 -20 166 -59s63 -93 63 -162c0 -167 -100 -322 -284 -322c-137 0 -227 86 -227 223c0 169 101 320 282 320zM267 69c120 0 177 130 177 239c0 88 -46 140 -127 140c-123 0 -178 -125 -178 -237c0 -89 47 -142 128 -142zM377 571h-83l84 129h129z" />
    <glyph glyph-name="ocircumflex" unicode="&#xf4;" horiz-adv-x="581" 
d="M318 529c69 0 124 -20 166 -59s63 -93 63 -162c0 -167 -100 -322 -284 -322c-137 0 -227 86 -227 223c0 169 101 320 282 320zM267 69c120 0 177 130 177 239c0 88 -46 140 -127 140c-123 0 -178 -125 -178 -237c0 -89 47 -142 128 -142zM355 647l-80 -76h-91l123 129
h106l75 -129h-85z" />
    <glyph glyph-name="otilde" unicode="&#xf5;" horiz-adv-x="581" 
d="M318 529c69 0 124 -20 166 -59s63 -93 63 -162c0 -167 -100 -322 -284 -322c-137 0 -227 86 -227 223c0 169 101 320 282 320zM267 69c120 0 177 130 177 239c0 88 -46 140 -127 140c-123 0 -178 -125 -178 -237c0 -89 47 -142 128 -142zM237 592h-61
c9 63 44 105 101 105c28 0 49 -7 72 -15l10 -4c20 -8 36 -14 53 -14c23 0 42 16 46 36h61c-9 -61 -42 -106 -101 -106c-28 0 -49 7 -72 15l-11 4c-19 7 -38 14 -53 14c-24 0 -41 -15 -45 -35z" />
    <glyph glyph-name="odieresis" unicode="&#xf6;" horiz-adv-x="581" 
d="M318 529c69 0 124 -20 166 -59s63 -93 63 -162c0 -167 -100 -322 -284 -322c-137 0 -227 86 -227 223c0 169 101 320 282 320zM267 69c120 0 177 130 177 239c0 88 -46 140 -127 140c-123 0 -178 -125 -178 -237c0 -89 47 -142 128 -142zM332 700l-23 -112h-98l23 112h98
zM511 700l-23 -112h-99l23 112h99z" />
    <glyph glyph-name="omacron" unicode="&#x14d;" horiz-adv-x="581" 
d="M318 529c69 0 124 -20 166 -59s63 -93 63 -162c0 -167 -100 -322 -284 -322c-137 0 -227 86 -227 223c0 169 101 320 282 320zM267 69c120 0 177 130 177 239c0 88 -46 140 -127 140c-123 0 -178 -125 -178 -237c0 -89 47 -142 128 -142zM500 603h-301l15 70h301z" />
    <glyph glyph-name="obreve" unicode="&#x14f;" horiz-adv-x="581" 
d="M318 529c69 0 124 -20 166 -59s63 -93 63 -162c0 -167 -100 -322 -284 -322c-137 0 -227 86 -227 223c0 169 101 320 282 320zM267 69c120 0 177 130 177 239c0 88 -46 140 -127 140c-123 0 -178 -125 -178 -237c0 -89 47 -142 128 -142zM350 582c-73 0 -137 41 -150 102
l58 32c15 -40 57 -60 101 -60c48 0 94 24 121 60l47 -34c-37 -67 -102 -100 -177 -100z" />
    <glyph glyph-name="ohungarumlaut" unicode="&#x151;" horiz-adv-x="581" 
d="M318 529c69 0 124 -20 166 -59s63 -93 63 -162c0 -167 -100 -322 -284 -322c-137 0 -227 86 -227 223c0 169 101 320 282 320zM267 69c120 0 177 130 177 239c0 88 -46 140 -127 140c-123 0 -178 -125 -178 -237c0 -89 47 -142 128 -142zM449 571h-80l97 129h126z
M283 571h-79l83 129h126z" />
    <glyph glyph-name="oe" unicode="&#x153;" horiz-adv-x="943" 
d="M904 235h-387c-1 -8 -1 -15 -1 -23c0 -84 42 -141 127 -141c68 0 114 37 135 86h108c-39 -101 -124 -169 -247 -169c-85 0 -148 34 -183 91c-45 -56 -111 -92 -199 -92c-139 0 -220 87 -220 222c0 169 98 320 279 320c83 0 149 -34 182 -91c28 36 81 92 194 92
c161 0 216 -111 216 -251c0 -16 -1 -33 -4 -44zM529 309h278c0 79 -33 144 -121 144c-89 0 -141 -63 -157 -144zM263 69c120 0 173 130 173 239c0 88 -42 140 -123 140c-122 0 -173 -125 -173 -237c0 -89 42 -142 123 -142z" />
    <glyph glyph-name="oslash" unicode="&#xf8;" horiz-adv-x="582" 
d="M320 529c65 0 117 -17 156 -50l64 68l43 -42l-68 -72c21 -33 32 -75 32 -125c0 -165 -101 -321 -286 -321c-55 0 -101 12 -139 37l-58 -61l-43 41l58 62c-29 38 -43 86 -43 143c0 169 102 320 284 320zM139 211c0 -29 4 -52 13 -70l259 272c-22 23 -53 35 -94 35
c-123 0 -178 -125 -178 -237zM267 69c119 0 177 129 177 234c0 19 -3 35 -6 51l-252 -264c20 -16 48 -21 81 -21z" />
    <glyph glyph-name="oslashacute" unicode="&#x1ff;" horiz-adv-x="582" 
d="M345 571h-83l84 129h129zM320 529c65 0 117 -17 156 -50l64 68l43 -42l-68 -72c21 -33 32 -75 32 -125c0 -165 -101 -321 -286 -321c-55 0 -101 12 -139 37l-58 -61l-43 41l58 62c-29 38 -43 86 -43 143c0 169 102 320 284 320zM139 211c0 -29 4 -52 13 -70l259 272
c-22 23 -53 35 -94 35c-123 0 -178 -125 -178 -237zM267 69c119 0 177 129 177 234c0 19 -3 35 -6 51l-252 -264c20 -16 48 -21 81 -21z" />
    <glyph glyph-name="thorn" unicode="&#xfe;" horiz-adv-x="603" 
d="M167 700h102l-33 -153c-5 -27 -12 -47 -24 -102h2c33 48 88 85 164 85c117 0 192 -84 192 -219c0 -173 -113 -324 -278 -324c-80 0 -138 38 -157 87h-1l-17 -83l-34 -163h-101zM286 69c120 0 182 123 182 238c0 84 -40 140 -121 140c-125 0 -182 -139 -182 -244
c0 -73 48 -134 121 -134z" />
    <glyph glyph-name="racute" unicode="&#x155;" horiz-adv-x="352" 
d="M19 0l109 515h97l-3 -18c-3 -16 -8 -37 -15 -63h2c24 55 82 95 167 95c7 0 12 0 19 -1l-20 -96c-9 1 -20 2 -31 2c-91 0 -145 -58 -168 -162l-58 -272h-99zM253 571h-83l84 129h129z" />
    <glyph glyph-name="rcaron" unicode="&#x159;" horiz-adv-x="352" 
d="M19 0l109 515h97l-3 -18c-3 -16 -8 -37 -15 -63h2c24 55 82 95 167 95c7 0 12 0 19 -1l-20 -96c-9 1 -20 2 -31 2c-91 0 -145 -58 -168 -162l-58 -272h-99zM216 700l48 -77l80 77h91l-123 -129h-106l-74 129h84z" />
    <glyph glyph-name="uni0157" unicode="&#x157;" horiz-adv-x="352" 
d="M19 0l109 515h97l-3 -18c-3 -16 -8 -37 -15 -63h2c24 55 82 95 167 95c7 0 12 0 19 -1l-20 -96c-9 1 -20 2 -31 2c-91 0 -145 -58 -168 -162l-58 -272h-99zM18 -46h90l-19 -89c-13 -65 -46 -97 -113 -109l9 43c29 7 52 27 57 64h-43z" />
    <glyph glyph-name="sacute" unicode="&#x15b;" horiz-adv-x="507" 
d="M13 163h100c0 -37 12 -63 36 -78c25 -15 53 -23 86 -23c61 0 115 25 115 78c0 41 -31 59 -88 78l-66 22c-39 13 -70 29 -93 48s-35 48 -35 89c0 93 82 152 203 152c119 0 211 -43 211 -165h-97c0 57 -41 89 -114 89c-69 0 -101 -27 -101 -64c0 -40 29 -54 84 -73l65 -22
c73 -24 136 -56 136 -141c0 -119 -109 -166 -225 -166c-114 0 -217 42 -217 176zM317 571h-83l84 129h129z" />
    <glyph glyph-name="scircumflex" unicode="&#x15d;" horiz-adv-x="507" 
d="M13 163h100c0 -37 12 -63 36 -78c25 -15 53 -23 86 -23c61 0 115 25 115 78c0 41 -31 59 -88 78l-66 22c-39 13 -70 29 -93 48s-35 48 -35 89c0 93 82 152 203 152c119 0 211 -43 211 -165h-97c0 57 -41 89 -114 89c-69 0 -101 -27 -101 -64c0 -40 29 -54 84 -73l65 -22
c73 -24 136 -56 136 -141c0 -119 -109 -166 -225 -166c-114 0 -217 42 -217 176zM304 647l-80 -76h-91l123 129h106l75 -129h-85z" />
    <glyph glyph-name="scaron" unicode="&#x161;" horiz-adv-x="507" 
d="M13 163h100c0 -37 12 -63 36 -78c25 -15 53 -23 86 -23c61 0 115 25 115 78c0 41 -31 59 -88 78l-66 22c-39 13 -70 29 -93 48s-35 48 -35 89c0 93 82 152 203 152c119 0 211 -43 211 -165h-97c0 57 -41 89 -114 89c-69 0 -101 -27 -101 -64c0 -40 29 -54 84 -73l65 -22
c73 -24 136 -56 136 -141c0 -119 -109 -166 -225 -166c-114 0 -217 42 -217 176zM247 700l48 -77l80 77h91l-123 -129h-106l-74 129h84z" />
    <glyph glyph-name="scedilla" unicode="&#x15f;" horiz-adv-x="507" 
d="M13 163h100c0 -37 12 -63 36 -78c25 -15 53 -23 86 -23c61 0 115 25 115 78c0 41 -31 59 -88 78l-66 22c-39 13 -70 29 -93 48s-35 48 -35 89c0 93 82 152 203 152c119 0 211 -43 211 -165h-97c0 57 -41 89 -114 89c-69 0 -101 -27 -101 -64c0 -40 29 -54 84 -73l65 -22
c73 -24 136 -56 136 -141c0 -119 -109 -166 -225 -166c-114 0 -217 42 -217 176zM199 8l39 -8l-43 -47l1 -1c9 3 18 2 27 2c17 0 34 -5 51 -14s26 -26 26 -50c0 -56 -53 -79 -105 -79c-29 0 -65 7 -88 20l15 35c15 -9 37 -17 66 -17c28 0 50 13 50 38c0 24 -21 35 -46 35
c-13 0 -24 -3 -35 -8l-19 19z" />
    <glyph glyph-name="uni0219" unicode="&#x219;" horiz-adv-x="507" 
d="M13 163h100c0 -37 12 -63 36 -78c25 -15 53 -23 86 -23c61 0 115 25 115 78c0 41 -31 59 -88 78l-66 22c-39 13 -70 29 -93 48s-35 48 -35 89c0 93 82 152 203 152c119 0 211 -43 211 -165h-97c0 57 -41 89 -114 89c-69 0 -101 -27 -101 -64c0 -40 29 -54 84 -73l65 -22
c73 -24 136 -56 136 -141c0 -119 -109 -166 -225 -166c-114 0 -217 42 -217 176zM163 -46h90l-19 -89c-13 -65 -46 -97 -113 -109l9 43c29 7 52 27 57 64h-43z" />
    <glyph glyph-name="germandbls" unicode="&#xdf;" horiz-adv-x="572" 
d="M19 0l106 504c16 75 39 127 84 162c37 29 85 44 153 44c113 0 196 -48 196 -155c0 -84 -58 -150 -141 -165v-2c71 -17 109 -82 109 -151c0 -152 -121 -243 -270 -243c-20 0 -38 1 -59 5l17 79c14 -2 27 -3 39 -3c91 0 170 59 170 161c0 83 -53 113 -150 113l15 69
c87 0 168 31 168 124c0 53 -43 90 -102 90c-35 0 -61 -8 -79 -24c-27 -23 -37 -60 -48 -105l-108 -503h-100z" />
    <glyph glyph-name="tcaron" unicode="&#x165;" horiz-adv-x="325" 
d="M289 674l-35 -159h97l-16 -77h-97l-62 -290c-3 -16 -5 -25 -5 -36c0 -27 17 -36 65 -36h23l-16 -76c-17 -1 -31 -1 -50 -1c-93 0 -130 15 -130 72c0 15 3 35 8 60l67 307h-78l16 77h77l35 159h101zM357 700h109l-91 -158h-80z" />
    <glyph glyph-name="tbar" unicode="&#x167;" horiz-adv-x="332" 
d="M293 674l-35 -159h97l-16 -77h-97l-26 -117h94l-15 -68h-93l-22 -105c-3 -16 -5 -25 -5 -36c0 -27 17 -36 65 -36h23l-16 -76c-17 -1 -31 -1 -50 -1c-93 0 -130 15 -130 72c0 15 3 35 8 60l26 122h-75l15 68h75l26 117h-78l16 77h77l35 159h101z" />
    <glyph glyph-name="uni021B" unicode="&#x21b;" horiz-adv-x="325" 
d="M289 674l-35 -159h97l-16 -77h-97l-62 -290c-3 -16 -5 -25 -5 -36c0 -27 17 -36 65 -36h23l-16 -76c-17 -1 -31 -1 -50 -1c-93 0 -130 15 -130 72c0 15 3 35 8 60l67 307h-78l16 77h77l35 159h101zM103 -46h90l-19 -89c-13 -65 -46 -97 -113 -109l9 43c29 7 52 27 57 64
h-43z" />
    <glyph glyph-name="tcommaaccent" unicode="&#x163;" horiz-adv-x="325" 
d="M289 674l-35 -159h97l-16 -77h-97l-62 -290c-3 -16 -5 -25 -5 -36c0 -27 17 -36 65 -36h23l-16 -76c-17 -1 -31 -1 -50 -1c-93 0 -130 15 -130 72c0 15 3 35 8 60l67 307h-78l16 77h77l35 159h101zM149 8l39 -8l-43 -47l1 -1c9 3 18 2 27 2c17 0 34 -5 51 -14
s26 -26 26 -50c0 -56 -53 -79 -105 -79c-29 0 -65 7 -88 20l15 35c15 -9 37 -17 66 -17c28 0 50 13 50 38c0 24 -21 35 -46 35c-13 0 -24 -3 -35 -8l-19 19z" />
    <glyph glyph-name="ugrave" unicode="&#xf9;" horiz-adv-x="581" 
d="M564 515l-111 -515h-98l3 14c3 15 7 33 14 58h-2c-31 -48 -86 -85 -165 -85c-104 0 -159 56 -159 141c0 31 7 61 12 89l64 298h102l-63 -290c-5 -24 -9 -45 -9 -68c0 -57 34 -85 94 -85c95 0 140 86 162 193l54 250h102zM317 571l-109 129h128l62 -129h-81z" />
    <glyph glyph-name="uacute" unicode="&#xfa;" horiz-adv-x="581" 
d="M564 515l-111 -515h-98l3 14c3 15 7 33 14 58h-2c-31 -48 -86 -85 -165 -85c-104 0 -159 56 -159 141c0 31 7 61 12 89l64 298h102l-63 -290c-5 -24 -9 -45 -9 -68c0 -57 34 -85 94 -85c95 0 140 86 162 193l54 250h102zM370 571h-83l84 129h129z" />
    <glyph glyph-name="ucircumflex" unicode="&#xfb;" horiz-adv-x="581" 
d="M564 515l-111 -515h-98l3 14c3 15 7 33 14 58h-2c-31 -48 -86 -85 -165 -85c-104 0 -159 56 -159 141c0 31 7 61 12 89l64 298h102l-63 -290c-5 -24 -9 -45 -9 -68c0 -57 34 -85 94 -85c95 0 140 86 162 193l54 250h102zM368 647l-80 -76h-91l123 129h106l75 -129h-85z
" />
    <glyph glyph-name="utilde" unicode="&#x169;" horiz-adv-x="581" 
d="M564 515l-111 -515h-98l3 14c3 15 7 33 14 58h-2c-31 -48 -86 -85 -165 -85c-104 0 -159 56 -159 141c0 31 7 61 12 89l64 298h102l-63 -290c-5 -24 -9 -45 -9 -68c0 -57 34 -85 94 -85c95 0 140 86 162 193l54 250h102zM246 592h-61c9 63 44 105 101 105
c28 0 49 -7 72 -15l10 -4c20 -8 36 -14 53 -14c23 0 42 16 46 36h61c-9 -61 -42 -106 -101 -106c-28 0 -49 7 -72 15l-11 4c-19 7 -38 14 -53 14c-24 0 -41 -15 -45 -35z" />
    <glyph glyph-name="udieresis" unicode="&#xfc;" horiz-adv-x="581" 
d="M564 515l-111 -515h-98l3 14c3 15 7 33 14 58h-2c-31 -48 -86 -85 -165 -85c-104 0 -159 56 -159 141c0 31 7 61 12 89l64 298h102l-63 -290c-5 -24 -9 -45 -9 -68c0 -57 34 -85 94 -85c95 0 140 86 162 193l54 250h102zM338 700l-23 -112h-98l23 112h98zM517 700
l-23 -112h-99l23 112h99z" />
    <glyph glyph-name="umacron" unicode="&#x16b;" horiz-adv-x="581" 
d="M564 515l-111 -515h-98l3 14c3 15 7 33 14 58h-2c-31 -48 -86 -85 -165 -85c-104 0 -159 56 -159 141c0 31 7 61 12 89l64 298h102l-63 -290c-5 -24 -9 -45 -9 -68c0 -57 34 -85 94 -85c95 0 140 86 162 193l54 250h102zM504 603h-301l15 70h301z" />
    <glyph glyph-name="ubreve" unicode="&#x16d;" horiz-adv-x="581" 
d="M564 515l-111 -515h-98l3 14c3 15 7 33 14 58h-2c-31 -48 -86 -85 -165 -85c-104 0 -159 56 -159 141c0 31 7 61 12 89l64 298h102l-63 -290c-5 -24 -9 -45 -9 -68c0 -57 34 -85 94 -85c95 0 140 86 162 193l54 250h102zM352 582c-73 0 -137 41 -150 102l58 32
c15 -40 57 -60 101 -60c48 0 94 24 121 60l47 -34c-37 -67 -102 -100 -177 -100z" />
    <glyph glyph-name="uring" unicode="&#x16f;" horiz-adv-x="581" 
d="M564 515l-111 -515h-98l3 14c3 15 7 33 14 58h-2c-31 -48 -86 -85 -165 -85c-104 0 -159 56 -159 141c0 31 7 61 12 89l64 298h102l-63 -290c-5 -24 -9 -45 -9 -68c0 -57 34 -85 94 -85c95 0 140 86 162 193l54 250h102zM356 723c47 0 83 -36 83 -83s-36 -84 -83 -84
s-84 37 -84 84s37 83 84 83zM356 681c-21 0 -41 -18 -41 -41s20 -42 41 -42c23 0 42 19 42 42s-19 41 -42 41z" />
    <glyph glyph-name="uhungarumlaut" unicode="&#x171;" horiz-adv-x="581" 
d="M564 515l-111 -515h-98l3 14c3 15 7 33 14 58h-2c-31 -48 -86 -85 -165 -85c-104 0 -159 56 -159 141c0 31 7 61 12 89l64 298h102l-63 -290c-5 -24 -9 -45 -9 -68c0 -57 34 -85 94 -85c95 0 140 86 162 193l54 250h102zM445 571h-80l97 129h126zM279 571h-79l83 129h126
z" />
    <glyph glyph-name="uogonek" unicode="&#x173;" horiz-adv-x="581" 
d="M564 515l-111 -515h-98l3 14c3 15 7 33 14 58h-2c-31 -48 -86 -85 -165 -85c-104 0 -159 56 -159 141c0 31 7 61 12 89l64 298h102l-63 -290c-5 -24 -9 -45 -9 -68c0 -57 34 -85 94 -85c95 0 140 86 162 193l54 250h102zM410 0h43c-63 -49 -82 -80 -82 -108
c0 -25 17 -40 38 -40c19 0 35 11 48 33l34 -13c-15 -35 -42 -64 -94 -64c-57 0 -85 37 -85 74c0 43 41 89 98 118z" />
    <glyph glyph-name="wcircumflex" unicode="&#x175;" horiz-adv-x="767" 
d="M115 0l-52 515h103l15 -260c3 -45 8 -109 9 -145h2c15 35 43 91 68 143l125 262h107l14 -262c3 -41 7 -95 8 -142h2l69 142l126 262h105l-272 -515h-106l-15 247c-4 56 -7 104 -7 147h-2c-16 -37 -34 -76 -69 -147l-121 -247h-109zM466 647l-80 -76h-91l123 129h106
l75 -129h-85z" />
    <glyph glyph-name="wgrave" unicode="&#x1e81;" horiz-adv-x="767" 
d="M115 0l-52 515h103l15 -260c3 -45 8 -109 9 -145h2c15 35 43 91 68 143l125 262h107l14 -262c3 -41 7 -95 8 -142h2l69 142l126 262h105l-272 -515h-106l-15 247c-4 56 -7 104 -7 147h-2c-16 -37 -34 -76 -69 -147l-121 -247h-109zM406 571l-109 129h128l62 -129h-81z
" />
    <glyph glyph-name="wacute" unicode="&#x1e83;" horiz-adv-x="767" 
d="M115 0l-52 515h103l15 -260c3 -45 8 -109 9 -145h2c15 35 43 91 68 143l125 262h107l14 -262c3 -41 7 -95 8 -142h2l69 142l126 262h105l-272 -515h-106l-15 247c-4 56 -7 104 -7 147h-2c-16 -37 -34 -76 -69 -147l-121 -247h-109zM482 571h-83l84 129h129z" />
    <glyph glyph-name="wdieresis" unicode="&#x1e85;" horiz-adv-x="767" 
d="M115 0l-52 515h103l15 -260c3 -45 8 -109 9 -145h2c15 35 43 91 68 143l125 262h107l14 -262c3 -41 7 -95 8 -142h2l69 142l126 262h105l-272 -515h-106l-15 247c-4 56 -7 104 -7 147h-2c-16 -37 -34 -76 -69 -147l-121 -247h-109zM432 700l-23 -112h-98l23 112h98z
M611 700l-23 -112h-99l23 112h99z" />
    <glyph glyph-name="ygrave" unicode="&#x1ef3;" horiz-adv-x="489" 
d="M141 5l-80 510h102l29 -238c7 -51 15 -113 20 -168h2c27 57 59 117 84 162l132 244h108l-335 -578c-53 -91 -92 -112 -185 -112c-21 0 -45 1 -56 2l16 79c7 -1 21 -2 34 -2c78 0 91 23 120 80zM274 571l-109 129h128l62 -129h-81z" />
    <glyph glyph-name="yacute" unicode="&#xfd;" horiz-adv-x="489" 
d="M141 5l-80 510h102l29 -238c7 -51 15 -113 20 -168h2c27 57 59 117 84 162l132 244h108l-335 -578c-53 -91 -92 -112 -185 -112c-21 0 -45 1 -56 2l16 79c7 -1 21 -2 34 -2c78 0 91 23 120 80zM325 571h-83l84 129h129z" />
    <glyph glyph-name="ycircumflex" unicode="&#x177;" horiz-adv-x="489" 
d="M141 5l-80 510h102l29 -238c7 -51 15 -113 20 -168h2c27 57 59 117 84 162l132 244h108l-335 -578c-53 -91 -92 -112 -185 -112c-21 0 -45 1 -56 2l16 79c7 -1 21 -2 34 -2c78 0 91 23 120 80zM315 647l-80 -76h-91l123 129h106l75 -129h-85z" />
    <glyph glyph-name="ydieresis" unicode="&#xff;" horiz-adv-x="489" 
d="M141 5l-80 510h102l29 -238c7 -51 15 -113 20 -168h2c27 57 59 117 84 162l132 244h108l-335 -578c-53 -91 -92 -112 -185 -112c-21 0 -45 1 -56 2l16 79c7 -1 21 -2 34 -2c78 0 91 23 120 80zM290 700l-23 -112h-98l23 112h98zM469 700l-23 -112h-99l23 112h99z" />
    <glyph glyph-name="zacute" unicode="&#x17a;" horiz-adv-x="497" 
d="M493 437l-260 -246l-116 -109v-2c27 2 92 1 127 1h191l-18 -81h-439l18 80l266 255c43 41 71 68 103 97v2c-41 -1 -92 -1 -131 -1h-154l17 82h412zM326 571h-83l84 129h129z" />
    <glyph glyph-name="zcaron" unicode="&#x17e;" horiz-adv-x="497" 
d="M493 437l-260 -246l-116 -109v-2c27 2 92 1 127 1h191l-18 -81h-439l18 80l266 255c43 41 71 68 103 97v2c-41 -1 -92 -1 -131 -1h-154l17 82h412zM257 700l48 -77l80 77h91l-123 -129h-106l-74 129h84z" />
    <glyph glyph-name="zdotaccent" unicode="&#x17c;" horiz-adv-x="497" 
d="M493 437l-260 -246l-116 -109v-2c27 2 92 1 127 1h191l-18 -81h-439l18 80l266 255c43 41 71 68 103 97v2c-41 -1 -92 -1 -131 -1h-154l17 82h412zM377 700l-25 -113h-102l25 113h102z" />
    <glyph glyph-name="uni0259" unicode="&#x259;" horiz-adv-x="572" 
d="M41 282h395c1 7 1 15 1 22c0 84 -46 142 -130 142c-69 0 -119 -34 -143 -89h-107c37 105 132 172 253 172c140 0 227 -88 227 -228c0 -167 -103 -314 -277 -314c-155 0 -223 106 -223 239c0 20 3 36 4 56zM424 207h-288c4 -81 37 -143 128 -143s145 62 160 143z" />
    <glyph glyph-name="fi" unicode="&#xfb01;" horiz-adv-x="543" 
d="M356 515l-16 -77h-98l-94 -438h-99l93 438h-78l16 77h78l7 34c28 127 62 153 173 153c20 0 46 -2 63 -3l-16 -79c-12 0 -24 2 -36 2c-69 0 -74 -28 -84 -73l-7 -34h98zM440 588l23 112h102l-23 -112h-102zM315 0l109 515h102l-110 -515h-101z" />
    <glyph glyph-name="fl" unicode="&#xfb02;" horiz-adv-x="545" 
d="M356 515l-16 -77h-98l-94 -438h-99l93 438h-78l16 77h78l7 34c28 127 62 153 173 153c20 0 46 -2 63 -3l-16 -79c-12 0 -24 2 -36 2c-69 0 -74 -28 -84 -73l-7 -34h98zM466 700h102l-150 -700h-100z" />
    <glyph glyph-name="uniFB00" unicode="&#xfb00;" horiz-adv-x="581" 
d="M315 0l93 438h-166l-94 -438h-99l93 438h-78l16 77h78l7 34c28 127 62 153 173 153c20 0 46 -2 63 -3l-16 -79c-12 0 -24 2 -36 2c-69 0 -74 -28 -84 -73l-7 -34h166l7 34c28 127 62 153 173 153c20 0 46 -2 63 -3l-16 -79c-12 0 -24 2 -36 2c-69 0 -74 -28 -84 -73
l-7 -34h98l-16 -77h-98l-94 -438h-99z" />
    <glyph glyph-name="uniFB03" unicode="&#xfb03;" horiz-adv-x="809" 
d="M315 0l93 438h-166l-94 -438h-99l93 438h-78l16 77h78l7 34c28 127 62 153 173 153c20 0 46 -2 63 -3l-16 -79c-12 0 -24 2 -36 2c-69 0 -74 -28 -84 -73l-7 -34h166l7 34c28 127 62 153 173 153c20 0 46 -2 63 -3l-16 -79c-12 0 -24 2 -36 2c-69 0 -74 -28 -84 -73
l-7 -34h98l-16 -77h-98l-94 -438h-99zM706 589l23 112h102l-23 -112h-102zM581 1l109 515h102l-110 -515h-101z" />
    <glyph glyph-name="uniFB04" unicode="&#xfb04;" horiz-adv-x="809" 
d="M315 0l93 438h-166l-94 -438h-99l93 438h-78l16 77h78l7 34c28 127 62 153 173 153c20 0 46 -2 63 -3l-16 -79c-12 0 -24 2 -36 2c-69 0 -74 -28 -84 -73l-7 -34h166l7 34c28 127 62 153 173 153c20 0 46 -2 63 -3l-16 -79c-12 0 -24 2 -36 2c-69 0 -74 -28 -84 -73
l-7 -34h98l-16 -77h-98l-94 -438h-99zM730 700h102l-150 -700h-100z" />
    <glyph glyph-name="acute" unicode="&#xb4;" horiz-adv-x="222" 
d="M109 571h-83l84 129h129z" />
    <glyph glyph-name="grave" unicode="`" horiz-adv-x="222" 
d="M129 571l-109 129h128l62 -129h-81z" />
    <glyph glyph-name="circumflex" unicode="&#x2c6;" horiz-adv-x="290" 
d="M184 647l-80 -76h-91l123 129h106l75 -129h-85z" />
    <glyph glyph-name="tilde" unicode="&#x2dc;" horiz-adv-x="321" 
d="M72 592h-61c9 63 44 105 101 105c28 0 49 -7 72 -15l10 -4c20 -8 36 -14 53 -14c23 0 42 16 46 36h61c-9 -61 -42 -106 -101 -106c-28 0 -49 7 -72 15l-11 4c-19 7 -38 14 -53 14c-24 0 -41 -15 -45 -35z" />
    <glyph glyph-name="breve" unicode="&#x2d8;" horiz-adv-x="319" 
d="M154 582c-73 0 -137 41 -150 102l58 32c15 -40 57 -60 101 -60c48 0 94 24 121 60l47 -34c-37 -67 -102 -100 -177 -100z" />
    <glyph glyph-name="dotaccent" unicode="&#x2d9;" horiz-adv-x="193" 
d="M159 700l-25 -113h-102l25 113h102z" />
    <glyph glyph-name="dieresis" unicode="&#xa8;" horiz-adv-x="296" 
d="M143 700l-23 -112h-98l23 112h98zM322 700l-23 -112h-99l23 112h99z" />
    <glyph glyph-name="ring" unicode="&#x2da;" horiz-adv-x="222" 
d="M125 723c47 0 83 -36 83 -83s-36 -84 -83 -84s-84 37 -84 84s37 83 84 83zM125 681c-21 0 -41 -18 -41 -41s20 -42 41 -42c23 0 42 19 42 42s-19 41 -42 41z" />
    <glyph glyph-name="hungarumlaut" unicode="&#x2dd;" horiz-adv-x="328" 
d="M224 571h-80l97 129h126zM58 571h-79l83 129h126z" />
    <glyph glyph-name="caron" unicode="&#x2c7;" horiz-adv-x="290" 
d="M93 700l48 -77l80 77h91l-123 -129h-106l-74 129h84z" />
    <glyph glyph-name="cedilla" unicode="&#xb8;" horiz-adv-x="191" 
d="M94 8l39 -8l-43 -47l1 -1c9 3 18 2 27 2c17 0 34 -5 51 -14s26 -26 26 -50c0 -56 -53 -79 -105 -79c-29 0 -65 7 -88 20l15 35c15 -9 37 -17 66 -17c28 0 50 13 50 38c0 24 -21 35 -46 35c-13 0 -24 -3 -35 -8l-19 19z" />
    <glyph glyph-name="overscore" unicode="&#xaf;" horiz-adv-x="282" 
d="M286 603h-301l15 70h301z" />
    <glyph glyph-name="ogonek" unicode="&#x2db;" horiz-adv-x="272" 
d="M94 0h43c-63 -49 -82 -80 -82 -108c0 -25 17 -40 38 -40c19 0 35 11 48 33l34 -13c-15 -35 -42 -64 -94 -64c-57 0 -85 37 -85 74c0 43 41 89 98 118z" />
    <glyph glyph-name="acute.case" horiz-adv-x="276" 
d="M240 746h-83l83 129h130z" />
    <glyph glyph-name="grave.case" horiz-adv-x="232" 
d="M180 746l-109 129h129l61 -129h-81z" />
    <glyph glyph-name="circumflex.case" horiz-adv-x="311" 
d="M219 822l-79 -76h-91l123 129h106l74 -129h-84z" />
    <glyph glyph-name="tilde.case" horiz-adv-x="321" 
d="M123 758h-61c9 63 44 105 101 105c28 0 49 -6 72 -15l10 -4c20 -8 36 -14 53 -14c23 0 42 16 46 36h61c-9 -61 -42 -106 -101 -106c-28 0 -49 7 -72 15l-11 4c-19 7 -38 14 -53 14c-24 0 -41 -15 -45 -35z" />
    <glyph glyph-name="breve.case" horiz-adv-x="346" 
d="M218 746c-73 0 -136 41 -151 102l58 32c15 -40 57 -60 101 -60c48 0 94 24 121 60l48 -34c-37 -67 -102 -100 -177 -100z" />
    <glyph glyph-name="dotaccent.case" horiz-adv-x="193" 
d="M254 875l-23 -112h-102l23 112h102z" />
    <glyph glyph-name="dieresis.case" horiz-adv-x="296" 
d="M165 875l-23 -112h-98l23 112h98zM343 875l-23 -112h-98l23 112h98z" />
    <glyph glyph-name="ring.case" horiz-adv-x="222" 
d="M205 898c47 0 83 -36 83 -83s-36 -84 -83 -84s-84 37 -84 84s37 83 84 83zM205 856c-21 0 -41 -18 -41 -41s20 -42 41 -42c23 0 42 19 42 42s-19 41 -42 41z" />
    <glyph glyph-name="hungarumlaut.case" horiz-adv-x="357" 
d="M271 746h-80l97 129h126zM105 746h-80l83 129h126z" />
    <glyph glyph-name="caron.case" horiz-adv-x="311" 
d="M149 875l48 -77l80 77h91l-123 -129h-106l-74 129h84z" />
    <glyph glyph-name="macron.case" horiz-adv-x="302" 
d="M335 765h-302l15 70h302z" />
    <glyph glyph-name="uni0312" unicode="&#x312;" horiz-adv-x="200" 
d="M125 557h-90l19 89c15 65 48 97 113 109l-9 -43c-29 -7 -50 -25 -57 -64h43z" />
    <glyph glyph-name="uni0313" unicode="&#x313;" horiz-adv-x="211" 
d="M60 700h109l-91 -158h-80z" />
    <glyph glyph-name="uni0326" unicode="&#x326;" horiz-adv-x="200" 
d="M77 -46h90l-19 -89c-13 -65 -46 -97 -113 -109l9 43c29 7 52 27 57 64h-43z" />
    <glyph glyph-name="zero.zero" horiz-adv-x="616" 
d="M598 465c0 -197 -99 -478 -323 -478c-141 0 -216 98 -216 253c0 190 99 472 323 472c141 0 216 -98 216 -247zM164 227c0 -20 2 -38 5 -55l284 425c-17 19 -44 29 -79 29c-150 0 -210 -260 -210 -399zM493 472c0 21 -2 41 -6 58l-285 -426c19 -20 45 -31 81 -31
c150 0 210 260 210 399z" />
    <glyph glyph-name="zero" unicode="0" horiz-adv-x="616" 
d="M598 465c0 -197 -99 -478 -323 -478c-141 0 -216 98 -216 253c0 190 99 472 323 472c141 0 216 -98 216 -247zM493 472c0 84 -29 154 -119 154c-150 0 -210 -260 -210 -399c0 -84 30 -154 119 -154c150 0 210 260 210 399z" />
    <glyph glyph-name="one" unicode="1" horiz-adv-x="382" 
d="M68 500l14 69c113 4 194 32 223 131h88l-147 -700h-103l106 500h-181z" />
    <glyph glyph-name="two" unicode="2" horiz-adv-x="576" 
d="M194 462h-102c12 153 112 249 259 249c65 0 117 -17 157 -51c41 -33 61 -81 61 -142c0 -116 -83 -189 -187 -249l-54 -31c-45 -26 -85 -50 -120 -73c-35 -22 -58 -48 -69 -79c36 0 80 1 132 1h235l-18 -87h-482c11 161 129 230 253 300l44 25c86 50 159 93 159 186
c0 72 -53 113 -121 113c-92 0 -141 -74 -147 -162z" />
    <glyph glyph-name="three" unicode="3" horiz-adv-x="587" 
d="M35 229h97c0 -5 -1 -11 -1 -16c0 -89 46 -144 134 -144c91 0 158 53 158 148c0 73 -53 113 -132 113h-36l15 79h36c74 0 162 25 162 117c0 72 -55 105 -118 105c-85 0 -138 -53 -150 -144h-100c17 136 109 225 254 225c111 0 214 -54 214 -174c0 -87 -61 -152 -144 -167
c71 -25 106 -82 106 -151c0 -154 -124 -233 -267 -233c-148 0 -229 73 -229 221c0 7 0 13 1 21z" />
    <glyph glyph-name="four" unicode="4" horiz-adv-x="570" 
d="M4 161l20 103l406 436h102l-95 -457h103l-18 -82h-102l-34 -161h-94l33 161h-321zM105 242c31 0 59 1 108 1h129l75 340h-3c-31 -37 -68 -82 -111 -129l-112 -122c-36 -39 -61 -63 -86 -90z" />
    <glyph glyph-name="five" unicode="5" horiz-adv-x="561" 
d="M69 326l114 374h381l-17 -86h-301l-62 -189h2c31 28 76 46 133 46c116 0 201 -80 201 -207c0 -167 -109 -276 -269 -276c-141 0 -215 71 -224 213h97v-7c0 -71 53 -123 133 -123c103 0 166 81 166 181c0 91 -48 140 -135 140c-65 0 -105 -27 -130 -66h-89z" />
    <glyph glyph-name="six" unicode="6" horiz-adv-x="595" 
d="M587 533l-99 -1c-4 63 -46 95 -111 95c-125 0 -175 -138 -199 -236h3c31 44 85 78 162 78c118 0 204 -82 204 -215c0 -150 -107 -267 -261 -267c-149 0 -226 91 -226 260c0 209 109 465 322 465c57 0 105 -15 144 -44s59 -74 61 -135zM292 68c101 0 156 86 156 182
c0 91 -57 137 -136 137c-96 0 -154 -83 -154 -174c0 -89 53 -145 134 -145z" />
    <glyph glyph-name="seven" unicode="7" horiz-adv-x="508" 
d="M91 611l18 89h475l-20 -95c-144 -114 -328 -358 -386 -605h-115c60 219 194 434 390 609v2h-362z" />
    <glyph glyph-name="eight" unicode="8" horiz-adv-x="605" 
d="M441 371v-2c67 -24 107 -89 107 -162c0 -146 -124 -220 -268 -220c-142 0 -242 76 -242 201c0 111 75 173 176 192v2c-52 23 -91 72 -91 137c0 122 97 194 236 194c122 0 220 -65 220 -177c0 -77 -59 -153 -138 -165zM354 631c-79 0 -136 -38 -136 -113
c0 -72 60 -108 129 -108c73 0 137 42 137 114c0 68 -55 107 -130 107zM136 196c0 -80 69 -127 151 -127c97 0 162 53 162 138c0 91 -75 130 -153 130c-86 0 -160 -49 -160 -141z" />
    <glyph glyph-name="nine" unicode="9" horiz-adv-x="595" 
d="M49 165l100 3c5 -65 47 -97 110 -97c125 0 175 138 199 237h-2c-29 -43 -86 -76 -163 -76c-117 0 -204 82 -204 215c0 152 106 271 260 271c152 0 227 -96 227 -264c0 -211 -109 -467 -322 -467c-57 0 -104 14 -143 43c-38 29 -59 74 -62 135zM187 452
c0 -92 57 -138 137 -138c97 0 156 83 156 175c0 91 -53 145 -136 145c-102 0 -157 -86 -157 -182z" />
    <glyph glyph-name="zero.osf.zero" horiz-adv-x="610" 
d="M263 -12c-142 0 -209 108 -209 243c0 185 98 459 322 459c143 0 217 -94 217 -238c0 -190 -98 -464 -330 -464zM159 218c0 -20 2 -38 6 -55l280 418c-19 16 -45 24 -76 24c-150 0 -210 -251 -210 -387zM488 459c0 22 -2 42 -7 59l-281 -419c19 -16 43 -26 76 -26
c156 0 212 261 212 386z" />
    <glyph glyph-name="zero.osf" horiz-adv-x="610" 
d="M263 -12c-142 0 -209 108 -209 243c0 185 98 459 322 459c143 0 217 -94 217 -238c0 -190 -98 -464 -330 -464zM487 459c0 82 -29 146 -119 146c-150 0 -210 -251 -210 -387c0 -76 28 -145 117 -145c156 0 212 261 212 386z" />
    <glyph glyph-name="one.osf" horiz-adv-x="378" 
d="M388 684l-147 -684h-105l105 486h-177l14 69c103 0 188 34 224 129h86z" />
    <glyph glyph-name="two.osf" horiz-adv-x="569" 
d="M190 446h-102c10 149 113 244 258 244c129 0 218 -66 218 -179c0 -114 -84 -190 -189 -247l-49 -27c-45 -25 -85 -49 -121 -73c-36 -23 -60 -49 -71 -76h367l-18 -88h-482c8 153 131 226 246 290l57 32c85 48 153 96 153 180c0 55 -39 100 -120 100
c-91 0 -141 -71 -147 -156z" />
    <glyph glyph-name="three.osf" horiz-adv-x="580" 
d="M29 218h97c0 -3 -1 -5 -1 -8c0 -87 48 -141 136 -141c91 0 157 52 157 145c0 68 -55 106 -132 106h-36l15 78h35c74 0 162 23 162 112c0 67 -55 97 -118 97c-85 0 -138 -49 -150 -134h-100c19 131 108 216 252 216c139 0 216 -69 216 -165c0 -42 -14 -78 -41 -108
c-27 -29 -62 -48 -103 -55v-1c68 -25 106 -72 106 -143c0 -151 -125 -228 -266 -228c-149 0 -230 73 -230 217c0 4 0 8 1 12z" />
    <glyph glyph-name="four.osf" horiz-adv-x="561" 
d="M285 0l33 154h-317l21 101l405 427h101l-95 -444h97l-19 -84h-97l-33 -154h-96zM337 238l20 98c7 27 14 56 19 81l34 145h-2c-27 -31 -61 -69 -100 -112l-53 -58c-51 -54 -130 -137 -144 -153l-1 -2c12 0 67 1 98 1h129z" />
    <glyph glyph-name="five.osf" horiz-adv-x="556" 
d="M62 314l115 368h381l-17 -86h-301l-61 -186h2c33 33 80 49 140 49c112 0 195 -78 195 -199c0 -165 -107 -272 -270 -272c-139 0 -216 71 -224 199h97c0 -65 53 -114 133 -114c103 0 166 79 166 175c0 81 -45 128 -128 128c-60 0 -110 -26 -139 -62h-89z" />
    <glyph glyph-name="six.osf" horiz-adv-x="589" 
d="M583 517l-99 -1c-3 59 -46 89 -111 89c-125 0 -175 -134 -199 -230h3c31 47 85 78 162 78c118 0 204 -75 204 -201c0 -147 -107 -263 -261 -263c-151 0 -226 92 -226 256c0 201 109 445 322 445c119 0 200 -54 205 -173zM444 248c0 79 -55 120 -131 120
c-99 0 -159 -74 -159 -157c0 -85 53 -138 134 -138c101 0 156 83 156 175z" />
    <glyph glyph-name="seven.osf" horiz-adv-x="511" 
d="M89 592l18 90h475l-20 -93c-144 -112 -328 -348 -386 -589h-115c60 213 191 419 387 592h-359z" />
    <glyph glyph-name="eight.osf" horiz-adv-x="601" 
d="M438 364v-2c65 -24 107 -87 107 -159c0 -142 -119 -215 -268 -215c-140 0 -243 76 -243 197c0 108 74 170 175 189v2c-51 21 -88 66 -88 129c0 117 97 185 235 185c123 0 220 -62 220 -168c0 -76 -59 -144 -138 -158zM352 607c-79 0 -136 -37 -136 -105
c0 -67 60 -101 129 -101c37 0 68 9 95 28s41 45 41 79c0 63 -54 99 -129 99zM133 193c0 -76 67 -121 152 -121c96 0 161 50 161 131c0 82 -75 119 -153 119c-86 0 -160 -46 -160 -129z" />
    <glyph glyph-name="nine.osf" horiz-adv-x="588" 
d="M41 160l100 3c5 -60 46 -89 109 -89c124 0 176 131 200 227h-2c-29 -41 -87 -75 -163 -75c-117 0 -204 77 -204 202c0 147 105 262 260 262c82 0 142 -26 181 -78c31 -43 46 -102 46 -177c0 -202 -109 -446 -322 -446c-57 0 -104 14 -143 41c-38 28 -59 71 -62 130z
M178 431c0 -80 57 -120 138 -120c97 0 156 74 156 156c0 87 -54 138 -137 138c-102 0 -157 -83 -157 -174z" />
    <glyph glyph-name="zero.tf.zero" 
d="M620 465c0 -197 -99 -478 -323 -478c-141 0 -216 98 -216 253c0 190 99 472 323 472c141 0 216 -98 216 -247zM186 227c0 -20 2 -38 5 -55l284 425c-17 19 -44 29 -79 29c-150 0 -210 -260 -210 -399zM515 472c0 21 -2 41 -6 58l-285 -426c19 -20 45 -31 81 -31
c150 0 210 260 210 399z" />
    <glyph glyph-name="zero.tf" 
d="M620 465c0 -197 -99 -478 -323 -478c-141 0 -216 98 -216 253c0 190 99 472 323 472c141 0 216 -98 216 -247zM515 472c0 84 -29 154 -119 154c-150 0 -210 -260 -210 -399c0 -84 30 -154 119 -154c150 0 210 260 210 399z" />
    <glyph glyph-name="one.tf" 
d="M207 500l14 69c113 4 194 32 223 131h88l-147 -700h-103l106 500h-181z" />
    <glyph glyph-name="two.tf" 
d="M236 462h-102c12 153 112 249 259 249c65 0 117 -17 157 -51c41 -33 61 -81 61 -142c0 -116 -83 -189 -187 -249l-54 -31c-45 -26 -85 -50 -120 -73c-35 -22 -58 -48 -69 -79c36 0 80 1 132 1h235l-18 -87h-482c11 161 129 230 253 300l44 25c86 50 159 93 159 186
c0 72 -53 113 -121 113c-92 0 -141 -74 -147 -162z" />
    <glyph glyph-name="three.tf" 
d="M71 229h97c0 -5 -1 -11 -1 -16c0 -89 46 -144 134 -144c91 0 158 53 158 148c0 73 -53 113 -132 113h-36l15 79h36c74 0 162 25 162 117c0 72 -55 105 -118 105c-85 0 -138 -53 -150 -144h-100c17 136 109 225 254 225c111 0 214 -54 214 -174c0 -87 -61 -152 -144 -167
c71 -25 106 -82 106 -151c0 -154 -124 -233 -267 -233c-148 0 -229 73 -229 221c0 7 0 13 1 21z" />
    <glyph glyph-name="four.tf" 
d="M49 161l20 103l406 436h102l-95 -457h103l-18 -82h-102l-34 -161h-94l33 161h-321zM150 242c31 0 59 1 108 1h129l75 340h-3c-31 -37 -68 -82 -111 -129l-112 -122c-36 -39 -61 -63 -86 -90z" />
    <glyph glyph-name="five.tf" 
d="M119 326l114 374h381l-17 -86h-301l-62 -189h2c31 28 76 46 133 46c116 0 201 -80 201 -207c0 -167 -109 -276 -269 -276c-141 0 -215 71 -224 213h97v-7c0 -71 53 -123 133 -123c103 0 166 81 166 181c0 91 -48 140 -135 140c-65 0 -105 -27 -130 -66h-89z" />
    <glyph glyph-name="six.tf" 
d="M620 533l-99 -1c-4 63 -46 95 -111 95c-125 0 -175 -138 -199 -236h3c31 44 85 78 162 78c118 0 204 -82 204 -215c0 -150 -107 -267 -261 -267c-149 0 -226 91 -226 260c0 209 109 465 322 465c57 0 105 -15 144 -44s59 -74 61 -135zM325 68c101 0 156 86 156 182
c0 91 -57 137 -136 137c-96 0 -154 -83 -154 -174c0 -89 53 -145 134 -145z" />
    <glyph glyph-name="seven.tf" 
d="M167 611l18 89h475l-20 -95c-144 -114 -328 -358 -386 -605h-115c60 219 194 434 390 609v2h-362z" />
    <glyph glyph-name="eight.tf" 
d="M468 371v-2c67 -24 107 -89 107 -162c0 -146 -124 -220 -268 -220c-142 0 -242 76 -242 201c0 111 75 173 176 192v2c-52 23 -91 72 -91 137c0 122 97 194 236 194c122 0 220 -65 220 -177c0 -77 -59 -153 -138 -165zM381 631c-79 0 -136 -38 -136 -113
c0 -72 60 -108 129 -108c73 0 137 42 137 114c0 68 -55 107 -130 107zM163 196c0 -80 69 -127 151 -127c97 0 162 53 162 138c0 91 -75 130 -153 130c-86 0 -160 -49 -160 -141z" />
    <glyph glyph-name="nine.tf" 
d="M81 165l100 3c5 -65 47 -97 110 -97c125 0 175 138 199 237h-2c-29 -43 -86 -76 -163 -76c-117 0 -204 82 -204 215c0 152 106 271 260 271c152 0 227 -96 227 -264c0 -211 -109 -467 -322 -467c-57 0 -104 14 -143 43c-38 29 -59 74 -62 135zM219 452
c0 -92 57 -138 137 -138c97 0 156 83 156 175c0 91 -53 145 -136 145c-102 0 -157 -86 -157 -182z" />
    <glyph glyph-name="zero.tosf.zero" 
d="M288 -12c-142 0 -209 108 -209 243c0 185 98 459 322 459c143 0 217 -94 217 -238c0 -190 -98 -464 -330 -464zM184 218c0 -20 2 -38 6 -55l280 418c-19 16 -45 24 -76 24c-150 0 -210 -251 -210 -387zM513 459c0 22 -2 42 -7 59l-281 -419c19 -16 43 -26 76 -26
c156 0 212 261 212 386z" />
    <glyph glyph-name="zero.tosf" 
d="M288 -12c-142 0 -209 108 -209 243c0 185 98 459 322 459c143 0 217 -94 217 -238c0 -190 -98 -464 -330 -464zM512 459c0 82 -29 146 -119 146c-150 0 -210 -251 -210 -387c0 -76 28 -145 117 -145c156 0 212 261 212 386z" />
    <glyph glyph-name="one.tosf" 
d="M529 684l-147 -684h-105l105 486h-177l14 69c103 0 188 34 224 129h86z" />
    <glyph glyph-name="two.tosf" 
d="M236 446h-102c10 149 113 244 258 244c129 0 218 -66 218 -179c0 -114 -84 -190 -189 -247l-49 -27c-45 -25 -85 -49 -121 -73c-36 -23 -60 -49 -71 -76h367l-18 -88h-482c8 153 131 226 246 290l57 32c85 48 153 96 153 180c0 55 -39 100 -120 100
c-91 0 -141 -71 -147 -156z" />
    <glyph glyph-name="three.tosf" 
d="M69 218h97c0 -3 -1 -5 -1 -8c0 -87 48 -141 136 -141c91 0 157 52 157 145c0 68 -55 106 -132 106h-36l15 78h35c74 0 162 23 162 112c0 67 -55 97 -118 97c-85 0 -138 -49 -150 -134h-100c19 131 108 216 252 216c139 0 216 -69 216 -165c0 -42 -14 -78 -41 -108
c-27 -29 -62 -48 -103 -55v-1c68 -25 106 -72 106 -143c0 -151 -125 -228 -266 -228c-149 0 -230 73 -230 217c0 4 0 8 1 12z" />
    <glyph glyph-name="four.tosf" 
d="M334 0l33 154h-317l21 101l405 427h101l-95 -444h97l-19 -84h-97l-33 -154h-96zM386 238l20 98c7 27 14 56 19 81l34 145h-2c-27 -31 -61 -69 -100 -112l-53 -58c-51 -54 -130 -137 -144 -153l-1 -2c12 0 67 1 98 1h129z" />
    <glyph glyph-name="five.tosf" 
d="M114 314l115 368h381l-17 -86h-301l-61 -186h2c33 33 80 49 140 49c112 0 195 -78 195 -199c0 -165 -107 -272 -270 -272c-139 0 -216 71 -224 199h97c0 -65 53 -114 133 -114c103 0 166 79 166 175c0 81 -45 128 -128 128c-60 0 -110 -26 -139 -62h-89z" />
    <glyph glyph-name="six.tosf" 
d="M619 517l-99 -1c-3 59 -46 89 -111 89c-125 0 -175 -134 -199 -230h3c31 47 85 78 162 78c118 0 204 -75 204 -201c0 -147 -107 -263 -261 -263c-151 0 -226 92 -226 256c0 201 109 445 322 445c119 0 200 -54 205 -173zM480 248c0 79 -55 120 -131 120
c-99 0 -159 -74 -159 -157c0 -85 53 -138 134 -138c101 0 156 83 156 175z" />
    <glyph glyph-name="seven.tosf" 
d="M163 592l18 90h475l-20 -93c-144 -112 -328 -348 -386 -589h-115c60 213 191 419 387 592h-359z" />
    <glyph glyph-name="eight.tosf" 
d="M467 364v-2c65 -24 107 -87 107 -159c0 -142 -119 -215 -268 -215c-140 0 -243 76 -243 197c0 108 74 170 175 189v2c-51 21 -88 66 -88 129c0 117 97 185 235 185c123 0 220 -62 220 -168c0 -76 -59 -144 -138 -158zM381 607c-79 0 -136 -37 -136 -105
c0 -67 60 -101 129 -101c37 0 68 9 95 28s41 45 41 79c0 63 -54 99 -129 99zM162 193c0 -76 67 -121 152 -121c96 0 161 50 161 131c0 82 -75 119 -153 119c-86 0 -160 -46 -160 -129z" />
    <glyph glyph-name="nine.tosf" 
d="M77 160l100 3c5 -60 46 -89 109 -89c124 0 176 131 200 227h-2c-29 -41 -87 -75 -163 -75c-117 0 -204 77 -204 202c0 147 105 262 260 262c82 0 142 -26 181 -78c31 -43 46 -102 46 -177c0 -202 -109 -446 -322 -446c-57 0 -104 14 -143 41c-38 28 -59 71 -62 130z
M214 431c0 -80 57 -120 138 -120c97 0 156 74 156 156c0 87 -54 138 -137 138c-102 0 -157 -83 -157 -174z" />
    <glyph glyph-name="period" unicode="." horiz-adv-x="238" 
d="M159 128l-27 -128h-120l27 128h120z" />
    <glyph glyph-name="comma" unicode="," horiz-adv-x="239" 
d="M12 0l27 127h120l-25 -120c-20 -96 -77 -149 -156 -162l12 57c43 11 71 48 80 89l2 9h-60z" />
    <glyph glyph-name="colon" unicode=":" horiz-adv-x="243" 
d="M235 515l-27 -128h-120l27 128h120zM155 128l-27 -128h-120l27 128h120z" />
    <glyph glyph-name="semicolon" unicode=";" horiz-adv-x="244" 
d="M237 515l-27 -128h-120l27 128h120zM8 0l27 127h120l-25 -120c-20 -96 -77 -149 -156 -162l12 57c43 11 71 48 80 89l2 9h-60z" />
    <glyph glyph-name="ellipsis" unicode="&#x2026;" horiz-adv-x="860" 
d="M159 128l-27 -128h-120l27 128h120zM469 128l-27 -128h-120l27 128h120zM781 128l-27 -128h-120l27 128h120z" />
    <glyph glyph-name="questiondown" unicode="&#xbf;" horiz-adv-x="519" 
d="M237 387l27 128h118l-27 -128h-118zM336 33h105c-9 -145 -105 -229 -252 -229c-115 0 -210 52 -210 168c0 99 59 158 132 203c73 46 112 68 126 160h98c-16 -124 -67 -161 -135 -207l-29 -19c-41 -27 -84 -64 -84 -124c0 -61 45 -96 110 -96c92 0 134 64 139 144z" />
    <glyph glyph-name="questiondown.case" horiz-adv-x="525" 
d="M280 572l27 128h118l-27 -128h-118zM379 218h105c-9 -145 -105 -229 -252 -229c-115 0 -210 52 -210 168c0 99 59 158 132 203c73 46 112 68 126 160h98c-16 -124 -67 -161 -135 -207l-29 -19c-41 -27 -84 -64 -84 -124c0 -61 45 -96 110 -96c92 0 134 64 139 144z" />
    <glyph glyph-name="question" unicode="?" horiz-adv-x="524" 
d="M186 482h-105c11 147 107 229 252 229c115 0 210 -52 210 -168c0 -99 -59 -156 -132 -203s-110 -67 -126 -160h-98c18 123 66 162 135 207l29 19c41 27 84 64 84 124c0 61 -43 96 -110 96c-92 0 -132 -64 -139 -144zM285 128l-27 -128h-118l27 128h118z" />
    <glyph glyph-name="exclamdown" unicode="&#xa1;" horiz-adv-x="248" 
d="M94 387l27 128h117l-26 -128h-118zM-23 -185l43 202l91 316h60l-43 -316l-43 -202h-108z" />
    <glyph glyph-name="exclamdown.case" horiz-adv-x="260" 
d="M139 572l27 128h117l-26 -128h-118zM22 0l43 202l91 316h60l-43 -316l-43 -202h-108z" />
    <glyph glyph-name="exclam" unicode="!" horiz-adv-x="259" 
d="M278 700l-43 -202l-91 -316h-60l43 316l43 202h108zM161 128l-27 -128h-117l26 128h118z" />
    <glyph glyph-name="parenleft" unicode="(" horiz-adv-x="282" 
d="M168 -172h-83c-32 93 -54 190 -54 295c0 207 83 404 224 577h95c-137 -180 -219 -383 -219 -604c0 -91 12 -180 37 -268z" />
    <glyph glyph-name="parenright" unicode=")" horiz-adv-x="281" 
d="M118 700h82c33 -93 54 -191 54 -299c0 -204 -84 -401 -223 -573h-94c136 179 217 382 217 603c0 93 -11 181 -36 269z" />
    <glyph glyph-name="parenleft.case" horiz-adv-x="286" 
d="M189 -86h-83c-32 93 -54 190 -54 295c0 207 83 404 224 577h95c-137 -180 -219 -383 -219 -604c0 -91 12 -180 37 -268z" />
    <glyph glyph-name="parenright.case" horiz-adv-x="285" 
d="M138 786h82c33 -93 54 -191 54 -299c0 -204 -84 -401 -223 -573h-94c136 179 217 382 217 603c0 93 -11 181 -36 269z" />
    <glyph glyph-name="bracketleft" unicode="[" horiz-adv-x="305" 
d="M191 -172h-200l184 872h201l-17 -74h-104l-153 -723h105z" />
    <glyph glyph-name="bracketright" unicode="]" horiz-adv-x="304" 
d="M-66 -172l17 75h103l152 722h-105l17 75h200l-185 -872h-199z" />
    <glyph glyph-name="bracketleft.case" horiz-adv-x="310" 
d="M209 -86h-200l184 872h201l-17 -74h-104l-153 -723h105z" />
    <glyph glyph-name="bracketright.case" horiz-adv-x="310" 
d="M-42 -86l17 75h103l152 722h-105l17 75h200l-185 -872h-199z" />
    <glyph glyph-name="braceleft" unicode="{" horiz-adv-x="302" 
d="M39 300c51 4 73 45 86 120l20 99c22 117 44 181 149 181h65l-16 -76h-19c-63 0 -63 -30 -79 -100l-26 -123c-16 -77 -39 -125 -108 -134l-1 -3c38 -13 57 -38 57 -77c0 -19 -1 -39 -8 -66l-24 -109c-5 -27 -12 -55 -12 -72c0 -25 12 -36 51 -36h16l-16 -76h-50
c-81 0 -101 21 -101 82c0 35 11 71 20 116l13 59c8 36 15 68 15 91c0 35 -15 55 -46 60z" />
    <glyph glyph-name="braceright" unicode="}" horiz-adv-x="301" 
d="M281 295l-14 -64c-41 -4 -68 -33 -80 -88l-31 -145c-24 -114 -38 -170 -158 -170h-51l17 76h19c48 0 61 19 70 64l36 170c16 77 39 114 106 126l1 3c-41 15 -57 41 -57 82c0 21 7 54 15 89l16 70c7 32 13 63 13 80c0 25 -12 36 -52 36h-16l17 76h49c73 0 102 -24 102 -75
c0 -19 -4 -45 -11 -76l-31 -148c-4 -19 -5 -35 -5 -48c0 -33 15 -52 45 -58z" />
    <glyph glyph-name="braceleft.case" horiz-adv-x="306" 
d="M59 386c51 4 73 45 86 120l20 99c22 117 44 181 149 181h65l-16 -76h-19c-63 0 -63 -30 -79 -100l-26 -123c-16 -77 -39 -125 -108 -134l-1 -3c38 -13 57 -38 57 -77c0 -19 -1 -39 -8 -66l-24 -109c-5 -27 -12 -55 -12 -72c0 -25 12 -36 51 -36h16l-16 -76h-50
c-81 0 -101 21 -101 82c0 35 11 71 20 116l13 59c8 36 15 68 15 91c0 35 -15 55 -46 60z" />
    <glyph glyph-name="braceright.case" horiz-adv-x="305" 
d="M302 381l-14 -64c-41 -4 -68 -33 -80 -88l-31 -145c-24 -114 -38 -170 -158 -170h-51l17 76h19c48 0 61 19 70 64l36 170c16 77 39 114 106 126l1 3c-41 15 -57 41 -57 82c0 21 7 54 15 89l16 70c7 32 13 63 13 80c0 25 -12 36 -52 36h-16l17 76h49c73 0 102 -24 102 -75
c0 -19 -4 -45 -11 -76l-31 -148c-4 -19 -5 -35 -5 -48c0 -33 15 -52 45 -58z" />
    <glyph glyph-name="slash" unicode="/" horiz-adv-x="386" 
d="M72 0h-95l376 700h95z" />
    <glyph glyph-name="a.subs" horiz-adv-x="364" 
d="M235 -130c-29 0 -60 8 -60 36h-2c-20 -24 -46 -39 -98 -39c-64 0 -106 36 -106 85c0 48 29 74 70 90c32 12 71 18 111 23l14 2c28 4 36 13 36 30c0 23 -20 38 -57 38c-32 0 -56 -14 -64 -47l-73 2c15 71 69 100 146 100s121 -31 121 -90c0 -17 -2 -30 -6 -50l-24 -116
c-4 -17 9 -19 30 -18l-10 -44c-12 -1 -17 -2 -28 -2zM94 -78c17 0 35 4 53 12c19 8 31 26 36 54l8 39c-9 -5 -25 -10 -48 -15l-24 -5c-31 -5 -51 -10 -64 -21c-9 -7 -13 -16 -13 -29c0 -25 20 -35 52 -35z" />
    <glyph glyph-name="b.subs" horiz-adv-x="397" 
d="M136 292l-20 -91c-4 -16 -4 -27 -11 -50h1c17 23 49 39 94 39c67 0 119 -48 119 -131c0 -110 -74 -192 -169 -192c-49 0 -82 21 -97 42l-7 -37h-70l89 420h71zM146 -78c64 0 99 62 99 132c0 51 -23 80 -67 80c-75 0 -105 -71 -105 -129c0 -60 32 -83 73 -83z" />
    <glyph glyph-name="c.subs" horiz-adv-x="360" 
d="M278 -24c-20 -63 -78 -109 -155 -109c-81 0 -139 51 -139 140c0 100 63 182 170 182c76 0 129 -41 134 -112h-71c-8 38 -30 57 -66 57c-65 0 -93 -68 -93 -130c0 -55 27 -82 70 -82c37 0 62 23 77 54h73z" />
    <glyph glyph-name="d.subs" horiz-adv-x="396" 
d="M258 -128h-68l8 33h-1c-17 -21 -48 -38 -92 -38c-73 0 -123 53 -123 129c0 112 79 193 171 193c48 0 77 -19 92 -43l31 146h71zM152 134c-62 0 -96 -62 -96 -134c0 -49 22 -78 67 -78c74 0 103 74 103 135c0 51 -31 77 -74 77z" />
    <glyph glyph-name="e.subs" horiz-adv-x="374" 
d="M292 8h-240v-4c0 -57 33 -84 78 -84c35 0 56 20 75 45h76c-25 -57 -80 -98 -155 -98c-84 0 -143 53 -143 140c0 102 71 182 172 182c96 0 139 -63 139 -150c0 -11 -1 -20 -2 -31zM150 136c-48 0 -80 -30 -91 -77h163c-1 51 -29 77 -72 77z" />
    <glyph glyph-name="f.subs" horiz-adv-x="229" 
d="M16 181h41l6 28c16 78 46 83 122 83h33l-13 -56h-19c-20 0 -33 -3 -40 -9c-11 -9 -12 -21 -16 -37l-2 -9h65l-11 -53h-64l-55 -256h-71l55 256h-42z" />
    <glyph glyph-name="g.subs" horiz-adv-x="391" 
d="M188 -93l4 23h-1c-13 -17 -44 -36 -89 -36c-60 0 -115 41 -115 126c0 95 70 169 158 169c51 0 81 -20 93 -35h1l6 27h72l-61 -293c-17 -84 -70 -126 -159 -126c-83 0 -133 33 -133 96h77c2 -27 23 -41 63 -41c47 0 75 28 83 83zM155 134c-60 0 -94 -51 -94 -111
c0 -49 25 -74 66 -74c59 0 93 52 93 112c0 51 -25 73 -65 73z" />
    <glyph glyph-name="h.subs" horiz-adv-x="392" 
d="M66 292h72l-20 -90c-4 -16 -5 -25 -12 -52h1c19 23 52 39 99 39c63 0 97 -37 97 -90c0 -15 -2 -31 -6 -49l-39 -178h-71l36 165c3 15 5 27 5 40c0 33 -18 57 -58 57c-27 0 -43 -8 -58 -24s-20 -41 -27 -69l-37 -169h-72z" />
    <glyph glyph-name="i.subs" horiz-adv-x="187" 
d="M51 223l15 69h71l-15 -69h-71zM-23 -128l66 309h71l-66 -309h-71z" />
    <glyph glyph-name="j.subs" horiz-adv-x="197" 
d="M59 223l15 69h72l-15 -69h-72zM51 181h72l-69 -323c-5 -25 -11 -47 -28 -64c-23 -23 -53 -25 -100 -25h-14l12 54h6c20 0 32 1 41 10c7 8 11 22 15 39z" />
    <glyph glyph-name="k.subs" horiz-adv-x="357" 
d="M-24 -128l89 420h72l-33 -154l-16 -72h1l133 115h99l-145 -119l87 -190h-82l-62 144l-50 -41l-22 -103h-71z" />
    <glyph glyph-name="l.subs" horiz-adv-x="186" 
d="M-24 -128l89 420h71l-89 -420h-71z" />
    <glyph glyph-name="m.subs" horiz-adv-x="583" 
d="M366 134c-23 0 -41 -8 -55 -23c-13 -16 -20 -42 -27 -69l-36 -170h-71l35 166c3 15 5 27 5 40c0 32 -14 56 -53 56c-23 0 -41 -8 -54 -23c-15 -16 -20 -42 -27 -69l-36 -170h-71l66 309h68l-8 -34h1c16 21 48 42 95 42c45 0 75 -17 88 -45h1c17 21 51 45 104 45
c69 0 102 -36 102 -89c0 -15 -2 -31 -6 -49l-38 -179h-72l36 166c3 15 5 27 5 40c0 32 -16 56 -52 56z" />
    <glyph glyph-name="n.subs" horiz-adv-x="392" 
d="M170 134c-26 0 -46 -8 -59 -23c-13 -17 -20 -41 -27 -69l-37 -170h-71l66 309h68l-8 -34h1c19 25 52 42 99 42c65 0 100 -36 100 -89c0 -15 -2 -31 -6 -49l-39 -179h-71l36 166c3 15 5 27 5 40c0 32 -18 56 -57 56z" />
    <glyph glyph-name="o.subs" horiz-adv-x="376" 
d="M124 -133c-81 0 -141 51 -141 135c0 103 64 187 173 187c85 0 141 -51 141 -134c0 -101 -64 -188 -173 -188zM153 134c-67 0 -96 -70 -96 -132c0 -53 28 -80 71 -80c66 0 95 72 95 133c0 53 -27 79 -70 79z" />
    <glyph glyph-name="p.subs" horiz-adv-x="394" 
d="M-46 -233l87 414h68l-7 -33h1c17 23 53 41 98 41c63 0 114 -47 114 -131c0 -109 -74 -191 -170 -191c-43 0 -76 19 -91 46l-29 -146h-71zM141 -78c33 0 57 13 74 40c17 26 26 56 26 91c0 51 -23 81 -67 81c-72 0 -100 -76 -100 -138c0 -44 30 -74 67 -74z" />
    <glyph glyph-name="q.subs" horiz-adv-x="394" 
d="M321 181l-88 -414h-71l18 87c3 15 4 25 11 48h-1c-13 -19 -49 -35 -93 -35c-68 0 -115 53 -115 129c0 112 79 193 169 193c48 0 72 -17 91 -45h1l7 37h71zM155 134c-64 0 -99 -63 -99 -133c0 -49 23 -79 67 -79c71 0 99 75 99 136c0 45 -24 76 -67 76z" />
    <glyph glyph-name="r.subs" horiz-adv-x="234" 
d="M103 144h2c11 25 40 45 91 45h7l-16 -70c-5 1 -12 1 -19 1c-48 0 -74 -26 -86 -85l-34 -163h-71l65 309h69z" />
    <glyph glyph-name="s.subs" horiz-adv-x="343" 
d="M265 89h-71c-1 27 -19 46 -62 46c-40 0 -58 -14 -58 -31c0 -19 15 -27 50 -38l41 -12c47 -13 86 -33 86 -85c0 -74 -72 -102 -144 -102c-66 0 -135 22 -135 99v8h74v-6c0 -33 36 -47 65 -47c31 0 65 11 65 39c0 23 -22 33 -53 42l-44 14c-49 16 -76 33 -76 78
c0 64 62 95 132 95s130 -23 130 -100z" />
    <glyph glyph-name="t.subs" horiz-adv-x="239" 
d="M5 126l12 55h40l21 94h72l-21 -94h63l-12 -55h-63l-31 -150c-3 -11 -4 -21 -4 -28c0 -8 3 -14 10 -17s17 -3 32 -3h15l-12 -56h-34c-29 0 -49 1 -62 6c-18 6 -27 19 -27 40c0 9 3 25 6 41l36 167h-41z" />
    <glyph glyph-name="u.subs" horiz-adv-x="389" 
d="M124 -74c27 0 44 10 57 25c15 15 22 36 27 61l37 169h71l-66 -309h-69l8 35c-17 -23 -52 -43 -101 -43c-61 0 -94 37 -94 90c0 15 2 31 6 49l38 178h71l-35 -165c-3 -13 -6 -27 -6 -40c0 -29 19 -50 56 -50z" />
    <glyph glyph-name="v.subs" horiz-adv-x="330" 
d="M5 181h70l13 -170l5 -73h3l36 73l86 170h80l-174 -309h-82z" />
    <glyph glyph-name="w.subs" horiz-adv-x="508" 
d="M6 181h69l8 -170l3 -64h4l30 67l80 167h77l6 -170l2 -64h4l30 67l78 167h75l-160 -309h-84l-6 152v68h-2l-31 -68l-72 -152h-83z" />
    <glyph glyph-name="x.subs" horiz-adv-x="342" 
d="M303 181l-139 -152l84 -157h-72l-56 111l-103 -111h-83l152 160l-77 149h72l50 -104l90 104h82z" />
    <glyph glyph-name="y.subs" horiz-adv-x="332" 
d="M3 181h71l16 -171l5 -70h4l34 70l89 171h79l-202 -345c-29 -52 -58 -70 -118 -70c-17 0 -31 0 -42 1l12 56h31c47 0 55 18 60 42c1 7 1 12 1 19c0 15 -1 27 -3 37z" />
    <glyph glyph-name="z.subs" horiz-adv-x="333" 
d="M-50 -128l13 60l210 189h-162l13 60h254l-13 -60l-212 -189h180l-13 -60h-270z" />
    <glyph glyph-name="uni2080" unicode="&#x2080;" horiz-adv-x="405" 
d="M130 -133c-89 0 -134 66 -134 151c0 112 63 279 202 279c92 0 137 -63 137 -152c0 -113 -63 -278 -205 -278zM136 -71c89 0 125 145 125 220c0 47 -18 85 -67 85c-89 0 -124 -145 -124 -221c0 -45 17 -84 66 -84z" />
    <glyph glyph-name="uni2081" unicode="&#x2081;" horiz-adv-x="271" 
d="M-1 165l11 49c72 0 123 23 140 78h59l-89 -420h-71l62 293h-112z" />
    <glyph glyph-name="uni2082" unicode="&#x2082;" horiz-adv-x="385" 
d="M90 142h-72c7 95 71 155 164 155c83 0 140 -43 140 -118c0 -69 -53 -117 -118 -152l-43 -23c-41 -21 -85 -43 -100 -72h224l-13 -60h-307c6 100 85 143 157 181l43 23c49 27 84 54 84 99c0 37 -23 61 -71 61c-57 0 -85 -41 -88 -94z" />
    <glyph glyph-name="uni2083" unicode="&#x2083;" horiz-adv-x="389" 
d="M-15 16h66c0 -3 -1 -6 -1 -9c0 -55 27 -83 81 -83c55 0 95 29 95 82c0 39 -32 59 -76 59h-32l11 54h26c43 0 95 13 95 66c0 39 -31 55 -70 55c-51 0 -81 -28 -89 -83h-68c8 87 72 140 161 140c75 0 135 -33 135 -105c0 -52 -32 -85 -79 -100c35 -13 56 -47 56 -86
c0 -90 -73 -139 -164 -139c-88 0 -144 39 -148 120c0 9 0 18 1 29z" />
    <glyph glyph-name="uni2084" unicode="&#x2084;" horiz-adv-x="392" 
d="M147 -128l20 93h-205l14 68l255 259h76l-59 -268h63l-12 -59h-63l-20 -93h-69zM222 209c-23 -24 -47 -51 -82 -87l-54 -55c-21 -21 -38 -36 -45 -43h137c20 74 38 158 44 185z" />
    <glyph glyph-name="uni2085" unicode="&#x2085;" horiz-adv-x="396" 
d="M2 63l80 229h260l-13 -57h-200l-35 -98c20 13 46 21 79 21c80 0 139 -50 139 -127c0 -100 -73 -164 -181 -164c-91 0 -154 45 -154 132h72c7 -45 34 -76 87 -76c67 0 104 44 104 99c0 51 -36 82 -91 82c-41 0 -69 -18 -82 -41h-65z" />
    <glyph glyph-name="uni2086" unicode="&#x2086;" horiz-adv-x="395" 
d="M330 190l-68 -1c-1 35 -27 54 -66 54c-77 0 -109 -77 -123 -134h2c17 27 52 44 99 44c76 0 132 -47 132 -126c0 -89 -68 -160 -165 -160c-95 0 -143 55 -143 156c0 122 67 274 201 274c73 0 128 -34 131 -107zM145 -79c60 0 93 49 93 104c0 49 -34 74 -82 74
c-57 0 -92 -45 -92 -96s32 -82 81 -82z" />
    <glyph glyph-name="uni2087" unicode="&#x2087;" horiz-adv-x="351" 
d="M13 232l13 60h318l-12 -55c-90 -66 -210 -218 -244 -365h-76c36 131 115 259 235 360h-234z" />
    <glyph glyph-name="uni2088" unicode="&#x2088;" horiz-adv-x="416" 
d="M262 93v-2c37 -16 61 -55 61 -94c0 -86 -82 -130 -179 -130c-93 0 -161 45 -161 118c0 61 44 100 107 115v2c-31 15 -50 42 -50 82c0 72 67 113 156 113c83 0 148 -39 148 -106c0 -45 -33 -86 -82 -98zM194 243c-51 0 -85 -23 -85 -63s36 -61 80 -61c47 0 85 24 85 64
c0 37 -33 60 -80 60zM155 67c-53 0 -101 -28 -101 -75c0 -45 42 -71 95 -71c63 0 103 28 103 76s-46 70 -97 70z" />
    <glyph glyph-name="uni2089" unicode="&#x2089;" horiz-adv-x="396" 
d="M-7 -26l68 1c3 -35 27 -54 66 -54c77 0 111 77 123 134h-2c-17 -25 -52 -44 -99 -44c-76 0 -132 47 -132 126c0 89 68 160 165 160c95 0 143 -55 143 -156c0 -122 -67 -274 -201 -274c-73 0 -128 34 -131 107zM178 243c-60 0 -93 -49 -93 -104c0 -49 34 -74 82 -74
c57 0 92 45 92 96s-32 82 -81 82z" />
    <glyph glyph-name="uni208D" unicode="&#x208d;" horiz-adv-x="225" 
d="M129 323h70c-79 -109 -130 -239 -130 -366c0 -57 10 -106 23 -157h-65c-19 56 -31 113 -31 170c0 120 48 240 133 353z" />
    <glyph glyph-name="uni208E" unicode="&#x208e;" horiz-adv-x="225" 
d="M13 -200h-70c79 111 130 239 130 366c0 57 -10 106 -23 157h65c19 -56 31 -111 31 -170c0 -120 -46 -238 -133 -353z" />
    <glyph glyph-name="bracketleft.subs" horiz-adv-x="244" 
d="M113 -200h-139l110 523h140l-12 -59h-69l-86 -405h69z" />
    <glyph glyph-name="bracketright.subs" horiz-adv-x="244" 
d="M49 323h139l-110 -523h-140l12 59h69l86 405h-69z" />
    <glyph glyph-name="uni208A" unicode="&#x208a;" horiz-adv-x="397" 
d="M198 236v-121h119v-67h-119v-121h-71v121h-120v67h120v121h71z" />
    <glyph glyph-name="uni208B" unicode="&#x208b;" horiz-adv-x="421" 
d="M19 47v67h304v-67h-304z" />
    <glyph glyph-name="uni208C" unicode="&#x208c;" horiz-adv-x="439" 
d="M26 117v67h304v-67h-304zM26 -25v67h304v-67h-304z" />
    <glyph glyph-name="period.subs" horiz-adv-x="193" 
d="M79 -41l-18 -87h-90l18 87h90z" />
    <glyph glyph-name="comma.subs" horiz-adv-x="192" 
d="M-29 -128l18 86h90l-18 -83c-3 -14 -7 -26 -13 -37c-19 -36 -56 -60 -99 -67l9 43c27 4 50 29 55 54l1 4h-43z" />
    <glyph glyph-name="a.sups" horiz-adv-x="364" 
d="M346 389c-29 0 -60 8 -60 36h-2c-20 -24 -46 -39 -98 -39c-64 0 -106 36 -106 85c0 48 29 74 70 90c32 12 71 18 111 23l14 2c28 4 36 13 36 30c0 23 -20 38 -57 38c-32 0 -56 -14 -64 -47l-73 2c15 71 69 100 146 100s121 -31 121 -90c0 -17 -2 -30 -6 -50l-24 -116
c-4 -17 9 -19 30 -18l-10 -44c-12 -1 -17 -2 -28 -2zM205 441c17 0 35 4 53 12c19 8 31 26 36 54l8 39c-9 -5 -25 -10 -48 -15l-24 -5c-31 -5 -51 -10 -64 -21c-9 -7 -13 -16 -13 -29c0 -25 20 -35 52 -35z" />
    <glyph glyph-name="b.sups" horiz-adv-x="397" 
d="M246 811l-20 -91c-4 -16 -4 -27 -11 -50h1c17 23 49 39 94 39c67 0 119 -48 119 -131c0 -110 -74 -192 -169 -192c-49 0 -82 21 -97 42l-7 -37h-70l89 420h71zM256 441c64 0 99 62 99 132c0 51 -23 80 -67 80c-75 0 -105 -71 -105 -129c0 -60 32 -83 73 -83z" />
    <glyph glyph-name="c.sups" horiz-adv-x="360" 
d="M388 495c-20 -63 -78 -109 -155 -109c-81 0 -139 51 -139 140c0 100 63 182 170 182c76 0 129 -41 134 -112h-71c-8 38 -30 57 -66 57c-65 0 -93 -68 -93 -130c0 -55 27 -82 70 -82c37 0 62 23 77 54h73z" />
    <glyph glyph-name="d.sups" horiz-adv-x="396" 
d="M368 391h-68l8 33h-1c-17 -21 -48 -38 -92 -38c-73 0 -123 53 -123 129c0 112 79 193 171 193c48 0 77 -19 92 -43l31 146h71zM262 653c-62 0 -96 -62 -96 -134c0 -49 22 -78 67 -78c74 0 103 74 103 135c0 51 -31 77 -74 77z" />
    <glyph glyph-name="e.sups" horiz-adv-x="374" 
d="M402 527h-240v-4c0 -57 33 -84 78 -84c35 0 56 20 75 45h76c-25 -57 -80 -98 -155 -98c-84 0 -143 53 -143 140c0 102 71 182 172 182c96 0 139 -63 139 -150c0 -11 -1 -20 -2 -31zM260 655c-48 0 -80 -30 -91 -77h163c-1 51 -29 77 -72 77z" />
    <glyph glyph-name="f.sups" horiz-adv-x="229" 
d="M126 700h41l6 28c16 78 46 83 122 83h33l-13 -56h-19c-20 0 -33 -3 -40 -9c-11 -9 -12 -21 -16 -37l-2 -9h65l-11 -53h-64l-55 -256h-71l55 256h-42z" />
    <glyph glyph-name="g.sups" horiz-adv-x="391" 
d="M298 426l4 23h-1c-13 -17 -44 -36 -89 -36c-60 0 -115 41 -115 126c0 95 70 169 158 169c51 0 81 -20 93 -35h1l6 27h72l-61 -293c-17 -84 -70 -126 -159 -126c-83 0 -133 33 -133 96h77c2 -27 23 -41 63 -41c47 0 75 28 83 83zM265 653c-60 0 -94 -51 -94 -111
c0 -49 25 -74 66 -74c59 0 93 52 93 112c0 51 -25 73 -65 73z" />
    <glyph glyph-name="h.sups" horiz-adv-x="392" 
d="M176 811h72l-20 -90c-4 -16 -5 -25 -12 -52h1c19 23 52 39 99 39c63 0 97 -37 97 -90c0 -15 -2 -31 -6 -49l-39 -178h-71l36 165c3 15 5 27 5 40c0 33 -18 57 -58 57c-27 0 -43 -8 -58 -24s-20 -41 -27 -69l-37 -169h-72z" />
    <glyph glyph-name="uni2071" unicode="&#x2071;" horiz-adv-x="187" 
d="M161 742l15 69h71l-15 -69h-71zM87 391l66 309h71l-66 -309h-71z" />
    <glyph glyph-name="j.sups" horiz-adv-x="197" 
d="M170 742l15 69h72l-15 -69h-72zM162 700h72l-69 -323c-5 -25 -11 -47 -28 -64c-23 -23 -53 -25 -100 -25h-14l12 54h6c20 0 32 1 41 10c7 8 11 22 15 39z" />
    <glyph glyph-name="k.sups" horiz-adv-x="357" 
d="M86 391l89 420h72l-33 -154l-16 -72h1l133 115h99l-145 -119l87 -190h-82l-62 144l-50 -41l-22 -103h-71z" />
    <glyph glyph-name="l.sups" horiz-adv-x="186" 
d="M87 391l89 420h71l-89 -420h-71z" />
    <glyph glyph-name="m.sups" horiz-adv-x="583" 
d="M477 653c-23 0 -41 -8 -55 -23c-13 -16 -20 -42 -27 -69l-36 -170h-71l35 166c3 15 5 27 5 40c0 32 -14 56 -53 56c-23 0 -41 -8 -54 -23c-15 -16 -20 -42 -27 -69l-36 -170h-71l66 309h68l-8 -34h1c16 21 48 42 95 42c45 0 75 -17 88 -45h1c17 21 51 45 104 45
c69 0 102 -36 102 -89c0 -15 -2 -31 -6 -49l-38 -179h-72l36 166c3 15 5 27 5 40c0 32 -16 56 -52 56z" />
    <glyph glyph-name="uni207F" unicode="&#x207f;" horiz-adv-x="392" 
d="M281 653c-26 0 -46 -8 -59 -23c-13 -17 -20 -41 -27 -69l-37 -170h-71l66 309h68l-8 -34h1c19 25 52 42 99 42c65 0 100 -36 100 -89c0 -15 -2 -31 -6 -49l-39 -179h-71l36 166c3 15 5 27 5 40c0 32 -18 56 -57 56z" />
    <glyph glyph-name="o.sups" horiz-adv-x="376" 
d="M234 386c-81 0 -141 51 -141 135c0 103 64 187 173 187c85 0 141 -51 141 -134c0 -101 -64 -188 -173 -188zM263 653c-67 0 -96 -70 -96 -132c0 -53 28 -80 71 -80c66 0 95 72 95 133c0 53 -27 79 -70 79z" />
    <glyph glyph-name="p.sups" horiz-adv-x="394" 
d="M65 286l87 414h68l-7 -33h1c17 23 53 41 98 41c63 0 114 -47 114 -131c0 -109 -74 -191 -170 -191c-43 0 -76 19 -91 46l-29 -146h-71zM252 441c33 0 57 13 74 40c17 26 26 56 26 91c0 51 -23 81 -67 81c-72 0 -100 -76 -100 -138c0 -44 30 -74 67 -74z" />
    <glyph glyph-name="q.sups" horiz-adv-x="394" 
d="M431 700l-88 -414h-71l18 87c3 15 4 25 11 48h-1c-13 -19 -49 -35 -93 -35c-68 0 -115 53 -115 129c0 112 79 193 169 193c48 0 72 -17 91 -45h1l7 37h71zM265 653c-64 0 -99 -63 -99 -133c0 -49 23 -79 67 -79c71 0 99 75 99 136c0 45 -24 76 -67 76z" />
    <glyph glyph-name="r.sups" horiz-adv-x="234" 
d="M214 663h2c11 25 40 45 91 45h7l-16 -70c-5 1 -12 1 -19 1c-48 0 -74 -26 -86 -85l-34 -163h-71l65 309h69z" />
    <glyph glyph-name="s.sups" horiz-adv-x="343" 
d="M375 608h-71c-1 27 -19 46 -62 46c-40 0 -58 -14 -58 -31c0 -19 15 -27 50 -38l41 -12c47 -13 86 -33 86 -85c0 -74 -72 -102 -144 -102c-66 0 -135 22 -135 99v8h74v-6c0 -33 36 -47 65 -47c31 0 65 11 65 39c0 23 -22 33 -53 42l-44 14c-49 16 -76 33 -76 78
c0 64 62 95 132 95s130 -23 130 -100z" />
    <glyph glyph-name="t.sups" horiz-adv-x="239" 
d="M115 645l12 55h40l21 94h72l-21 -94h63l-12 -55h-63l-31 -150c-3 -11 -4 -21 -4 -28c0 -8 3 -14 10 -17s17 -3 32 -3h15l-12 -56h-34c-29 0 -49 1 -62 6c-18 6 -27 19 -27 40c0 9 3 25 6 41l36 167h-41z" />
    <glyph glyph-name="u.sups" horiz-adv-x="389" 
d="M234 445c27 0 44 10 57 25c15 15 22 36 27 61l37 169h71l-66 -309h-69l8 35c-17 -23 -52 -43 -101 -43c-61 0 -94 37 -94 90c0 15 2 31 6 49l38 178h71l-35 -165c-3 -13 -6 -27 -6 -40c0 -29 19 -50 56 -50z" />
    <glyph glyph-name="v.sups" horiz-adv-x="330" 
d="M115 700h70l13 -170l5 -73h3l36 73l86 170h80l-174 -309h-82z" />
    <glyph glyph-name="w.sups" horiz-adv-x="508" 
d="M116 700h69l8 -170l3 -64h4l30 67l80 167h77l6 -170l2 -64h4l30 67l78 167h75l-160 -309h-84l-6 152v68h-2l-31 -68l-72 -152h-83z" />
    <glyph glyph-name="x.sups" horiz-adv-x="342" 
d="M413 700l-139 -152l84 -157h-72l-56 111l-103 -111h-83l152 160l-77 149h72l50 -104l90 104h82z" />
    <glyph glyph-name="y.sups" horiz-adv-x="332" 
d="M114 700h71l16 -171l5 -70h4l34 70l89 171h79l-202 -345c-29 -52 -58 -70 -118 -70c-17 0 -31 0 -42 1l12 56h31c47 0 55 18 60 42c1 7 1 12 1 19c0 15 -1 27 -3 37z" />
    <glyph glyph-name="z.sups" horiz-adv-x="333" 
d="M61 391l13 60l210 189h-162l13 60h254l-13 -60l-212 -189h180l-13 -60h-270z" />
    <glyph glyph-name="uni2070" unicode="&#x2070;" horiz-adv-x="405" 
d="M241 386c-89 0 -134 66 -134 151c0 112 63 279 202 279c92 0 137 -63 137 -152c0 -113 -63 -278 -205 -278zM247 448c89 0 125 145 125 220c0 47 -18 85 -67 85c-89 0 -124 -145 -124 -221c0 -45 17 -84 66 -84z" />
    <glyph glyph-name="onesuperior" unicode="&#xb9;" horiz-adv-x="271" 
d="M110 684l11 49c72 0 123 23 140 78h59l-89 -420h-71l62 293h-112z" />
    <glyph glyph-name="twosuperior" unicode="&#xb2;" horiz-adv-x="385" 
d="M200 661h-72c7 95 71 155 164 155c83 0 140 -43 140 -118c0 -69 -53 -117 -118 -152l-43 -23c-41 -21 -85 -43 -100 -72h224l-13 -60h-307c6 100 85 143 157 181l43 23c49 27 84 54 84 99c0 37 -23 61 -71 61c-57 0 -85 -41 -88 -94z" />
    <glyph glyph-name="threesuperior" unicode="&#xb3;" horiz-adv-x="389" 
d="M95 535h66c0 -3 -1 -6 -1 -9c0 -55 27 -83 81 -83c55 0 95 29 95 82c0 39 -32 59 -76 59h-32l11 54h26c43 0 95 13 95 66c0 39 -31 55 -70 55c-51 0 -81 -28 -89 -83h-68c8 87 72 140 161 140c75 0 135 -33 135 -105c0 -52 -32 -85 -79 -100c35 -13 56 -47 56 -86
c0 -90 -73 -139 -164 -139c-88 0 -144 39 -148 120c0 9 0 18 1 29z" />
    <glyph glyph-name="uni2074" unicode="&#x2074;" horiz-adv-x="392" 
d="M258 391l20 93h-205l14 68l255 259h76l-59 -268h63l-12 -59h-63l-20 -93h-69zM333 728c-23 -24 -47 -51 -82 -87l-54 -55c-21 -21 -38 -36 -45 -43h137c20 74 38 158 44 185z" />
    <glyph glyph-name="uni2075" unicode="&#x2075;" horiz-adv-x="396" 
d="M112 582l80 229h260l-13 -57h-200l-35 -98c20 13 46 21 79 21c80 0 139 -50 139 -127c0 -100 -73 -164 -181 -164c-91 0 -154 45 -154 132h72c7 -45 34 -76 87 -76c67 0 104 44 104 99c0 51 -36 82 -91 82c-41 0 -69 -18 -82 -41h-65z" />
    <glyph glyph-name="uni2076" unicode="&#x2076;" horiz-adv-x="395" 
d="M440 709l-68 -1c-1 35 -27 54 -66 54c-77 0 -109 -77 -123 -134h2c17 27 52 44 99 44c76 0 132 -47 132 -126c0 -89 -68 -160 -165 -160c-95 0 -143 55 -143 156c0 122 67 274 201 274c73 0 128 -34 131 -107zM255 440c60 0 93 49 93 104c0 49 -34 74 -82 74
c-57 0 -92 -45 -92 -96s32 -82 81 -82z" />
    <glyph glyph-name="uni2077" unicode="&#x2077;" horiz-adv-x="351" 
d="M123 751l13 60h318l-12 -55c-90 -66 -210 -218 -244 -365h-76c36 131 115 259 235 360h-234z" />
    <glyph glyph-name="uni2078" unicode="&#x2078;" horiz-adv-x="416" 
d="M372 612v-2c37 -16 61 -55 61 -94c0 -86 -82 -130 -179 -130c-93 0 -161 45 -161 118c0 61 44 100 107 115v2c-31 15 -50 42 -50 82c0 72 67 113 156 113c83 0 148 -39 148 -106c0 -45 -33 -86 -82 -98zM304 762c-51 0 -85 -23 -85 -63s36 -61 80 -61c47 0 85 24 85 64
c0 37 -33 60 -80 60zM265 586c-53 0 -101 -28 -101 -75c0 -45 42 -71 95 -71c63 0 103 28 103 76s-46 70 -97 70z" />
    <glyph glyph-name="uni2079" unicode="&#x2079;" horiz-adv-x="396" 
d="M103 493l68 1c3 -35 27 -54 66 -54c77 0 111 77 123 134h-2c-17 -25 -52 -44 -99 -44c-76 0 -132 47 -132 126c0 89 68 160 165 160c95 0 143 -55 143 -156c0 -122 -67 -274 -201 -274c-73 0 -128 34 -131 107zM288 762c-60 0 -93 -49 -93 -104c0 -49 34 -74 82 -74
c57 0 92 45 92 96s-32 82 -81 82z" />
    <glyph glyph-name="uni207D" unicode="&#x207d;" horiz-adv-x="225" 
d="M240 842h70c-79 -109 -130 -239 -130 -366c0 -57 10 -106 23 -157h-65c-19 56 -31 113 -31 170c0 120 48 240 133 353z" />
    <glyph glyph-name="uni207E" unicode="&#x207e;" horiz-adv-x="225" 
d="M124 319h-70c79 111 130 239 130 366c0 57 -10 106 -23 157h65c19 -56 31 -111 31 -170c0 -120 -46 -238 -133 -353z" />
    <glyph glyph-name="bracketleft.sups" horiz-adv-x="244" 
d="M223 319h-139l110 523h140l-12 -59h-69l-86 -405h69z" />
    <glyph glyph-name="bracketright.sups" horiz-adv-x="244" 
d="M160 842h139l-110 -523h-140l12 59h69l86 405h-69z" />
    <glyph glyph-name="uni207A" unicode="&#x207a;" horiz-adv-x="397" 
d="M308 755v-121h119v-67h-119v-121h-71v121h-120v67h120v121h71z" />
    <glyph glyph-name="uni207B" unicode="&#x207b;" horiz-adv-x="421" 
d="M131 566v67h304v-67h-304z" />
    <glyph glyph-name="uni207C" unicode="&#x207c;" horiz-adv-x="439" 
d="M136 636v67h304v-67h-304zM136 494v67h304v-67h-304z" />
    <glyph glyph-name="period.sups" horiz-adv-x="193" 
d="M190 478l-18 -87h-90l18 87h90z" />
    <glyph glyph-name="comma.sups" horiz-adv-x="192" 
d="M82 392l18 86h90l-18 -83c-3 -14 -7 -26 -13 -37c-19 -36 -56 -60 -99 -67l9 43c27 4 50 29 55 54l1 4h-43z" />
    <glyph glyph-name="a.dnom" horiz-adv-x="364" 
d="M261 -2c-29 0 -60 8 -60 36h-2c-20 -24 -46 -39 -98 -39c-64 0 -106 36 -106 85c0 48 29 74 70 90c32 12 71 18 111 23l14 2c28 4 36 13 36 30c0 23 -20 38 -57 38c-32 0 -56 -14 -64 -47l-73 2c15 71 69 100 146 100s121 -31 121 -90c0 -17 -2 -30 -6 -50l-24 -116
c-4 -17 9 -19 30 -18l-10 -44c-12 -1 -17 -2 -28 -2zM120 50c17 0 35 4 53 12c19 8 31 26 36 54l8 39c-9 -5 -25 -10 -48 -15l-24 -5c-31 -5 -51 -10 -64 -21c-9 -7 -13 -16 -13 -29c0 -25 20 -35 52 -35z" />
    <glyph glyph-name="b.dnom" horiz-adv-x="397" 
d="M171 420l-20 -91c-4 -16 -4 -27 -11 -50h1c17 23 49 39 94 39c67 0 119 -48 119 -131c0 -110 -74 -192 -169 -192c-49 0 -82 21 -97 42l-7 -37h-70l89 420h71zM181 50c64 0 99 62 99 132c0 51 -23 80 -67 80c-75 0 -105 -71 -105 -129c0 -60 32 -83 73 -83z" />
    <glyph glyph-name="c.dnom" horiz-adv-x="360" 
d="M307 104c-20 -63 -78 -109 -155 -109c-81 0 -139 51 -139 140c0 100 63 182 170 182c76 0 129 -41 134 -112h-71c-8 38 -30 57 -66 57c-65 0 -93 -68 -93 -130c0 -55 27 -82 70 -82c37 0 62 23 77 54h73z" />
    <glyph glyph-name="d.dnom" horiz-adv-x="396" 
d="M278 0h-68l8 33h-1c-17 -21 -48 -38 -92 -38c-73 0 -123 53 -123 129c0 112 79 193 171 193c48 0 77 -19 92 -43l31 146h71zM172 262c-62 0 -96 -62 -96 -134c0 -49 22 -78 67 -78c74 0 103 74 103 135c0 51 -31 77 -74 77z" />
    <glyph glyph-name="e.dnom" horiz-adv-x="374" 
d="M319 136h-240v-4c0 -57 33 -84 78 -84c35 0 56 20 75 45h76c-25 -57 -80 -98 -155 -98c-84 0 -143 53 -143 140c0 102 71 182 172 182c96 0 139 -63 139 -150c0 -11 -1 -20 -2 -31zM177 264c-48 0 -80 -30 -91 -77h163c-1 51 -29 77 -72 77z" />
    <glyph glyph-name="f.dnom" horiz-adv-x="229" 
d="M36 309h41l6 28c16 78 46 83 122 83h33l-13 -56h-19c-20 0 -33 -3 -40 -9c-11 -9 -12 -21 -16 -37l-2 -9h65l-11 -53h-64l-55 -256h-71l55 256h-42z" />
    <glyph glyph-name="g.dnom" horiz-adv-x="391" 
d="M214 35l4 23h-1c-13 -17 -44 -36 -89 -36c-60 0 -115 41 -115 126c0 95 70 169 158 169c51 0 81 -20 93 -35h1l6 27h72l-61 -293c-17 -84 -70 -126 -159 -126c-83 0 -133 33 -133 96h77c2 -27 23 -41 63 -41c47 0 75 28 83 83zM181 262c-60 0 -94 -51 -94 -111
c0 -49 25 -74 66 -74c59 0 93 52 93 112c0 51 -25 73 -65 73z" />
    <glyph glyph-name="h.dnom" horiz-adv-x="392" 
d="M93 420h72l-20 -90c-4 -16 -5 -25 -12 -52h1c19 23 52 39 99 39c63 0 97 -37 97 -90c0 -15 -2 -31 -6 -49l-39 -178h-71l36 165c3 15 5 27 5 40c0 33 -18 57 -58 57c-27 0 -43 -8 -58 -24s-20 -41 -27 -69l-37 -169h-72z" />
    <glyph glyph-name="i.dnom" horiz-adv-x="187" 
d="M78 351l15 69h71l-15 -69h-71zM4 0l66 309h71l-66 -309h-71z" />
    <glyph glyph-name="j.dnom" horiz-adv-x="197" 
d="M87 351l15 69h72l-15 -69h-72zM79 309h72l-69 -323c-5 -25 -11 -47 -28 -64c-23 -23 -53 -25 -100 -25h-14l12 54h6c20 0 32 1 41 10c7 8 11 22 15 39z" />
    <glyph glyph-name="k.dnom" horiz-adv-x="357" 
d="M4 0l89 420h72l-33 -154l-16 -72h1l133 115h99l-145 -119l87 -190h-82l-62 144l-50 -41l-22 -103h-71z" />
    <glyph glyph-name="l.dnom" horiz-adv-x="186" 
d="M4 0l89 420h71l-89 -420h-71z" />
    <glyph glyph-name="m.dnom" horiz-adv-x="583" 
d="M393 262c-23 0 -41 -8 -55 -23c-13 -16 -20 -42 -27 -69l-36 -170h-71l35 166c3 15 5 27 5 40c0 32 -14 56 -53 56c-23 0 -41 -8 -54 -23c-15 -16 -20 -42 -27 -69l-36 -170h-71l66 309h68l-8 -34h1c16 21 48 42 95 42c45 0 75 -17 88 -45h1c17 21 51 45 104 45
c69 0 102 -36 102 -89c0 -15 -2 -31 -6 -49l-38 -179h-72l36 166c3 15 5 27 5 40c0 32 -16 56 -52 56z" />
    <glyph glyph-name="n.dnom" horiz-adv-x="392" 
d="M197 262c-26 0 -46 -8 -59 -23c-13 -17 -20 -41 -27 -69l-37 -170h-71l66 309h68l-8 -34h1c19 25 52 42 99 42c65 0 100 -36 100 -89c0 -15 -2 -31 -6 -49l-39 -179h-71l36 166c3 15 5 27 5 40c0 32 -18 56 -57 56z" />
    <glyph glyph-name="o.dnom" horiz-adv-x="376" 
d="M151 -5c-81 0 -141 51 -141 135c0 103 64 187 173 187c85 0 141 -51 141 -134c0 -101 -64 -188 -173 -188zM180 262c-67 0 -96 -70 -96 -132c0 -53 28 -80 71 -80c66 0 95 72 95 133c0 53 -27 79 -70 79z" />
    <glyph glyph-name="p.dnom" horiz-adv-x="394" 
d="M-18 -105l87 414h68l-7 -33h1c17 23 53 41 98 41c63 0 114 -47 114 -131c0 -109 -74 -191 -170 -191c-43 0 -76 19 -91 46l-29 -146h-71zM169 50c33 0 57 13 74 40c17 26 26 56 26 91c0 51 -23 81 -67 81c-72 0 -100 -76 -100 -138c0 -44 30 -74 67 -74z" />
    <glyph glyph-name="q.dnom" horiz-adv-x="394" 
d="M348 309l-88 -414h-71l18 87c3 15 4 25 11 48h-1c-13 -19 -49 -35 -93 -35c-68 0 -115 53 -115 129c0 112 79 193 169 193c48 0 72 -17 91 -45h1l7 37h71zM182 262c-64 0 -99 -63 -99 -133c0 -49 23 -79 67 -79c71 0 99 75 99 136c0 45 -24 76 -67 76z" />
    <glyph glyph-name="r.dnom" horiz-adv-x="234" 
d="M129 272h2c11 25 40 45 91 45h7l-16 -70c-5 1 -12 1 -19 1c-48 0 -74 -26 -86 -85l-34 -163h-71l65 309h69z" />
    <glyph glyph-name="s.dnom" horiz-adv-x="343" 
d="M291 217h-71c-1 27 -19 46 -62 46c-40 0 -58 -14 -58 -31c0 -19 15 -27 50 -38l41 -12c47 -13 86 -33 86 -85c0 -74 -72 -102 -144 -102c-66 0 -135 22 -135 99v8h74v-6c0 -33 36 -47 65 -47c31 0 65 11 65 39c0 23 -22 33 -53 42l-44 14c-49 16 -76 33 -76 78
c0 64 62 95 132 95s130 -23 130 -100z" />
    <glyph glyph-name="t.dnom" horiz-adv-x="239" 
d="M32 254l12 55h40l21 94h72l-21 -94h63l-12 -55h-63l-31 -150c-3 -11 -4 -21 -4 -28c0 -8 3 -14 10 -17s17 -3 32 -3h15l-12 -56h-34c-29 0 -49 1 -62 6c-18 6 -27 19 -27 40c0 9 3 25 6 41l36 167h-41z" />
    <glyph glyph-name="u.dnom" horiz-adv-x="389" 
d="M151 54c27 0 44 10 57 25c15 15 22 36 27 61l37 169h71l-66 -309h-69l8 35c-17 -23 -52 -43 -101 -43c-61 0 -94 37 -94 90c0 15 2 31 6 49l38 178h71l-35 -165c-3 -13 -6 -27 -6 -40c0 -29 19 -50 56 -50z" />
    <glyph glyph-name="v.dnom" horiz-adv-x="330" 
d="M32 309h70l13 -170l5 -73h3l36 73l86 170h80l-174 -309h-82z" />
    <glyph glyph-name="w.dnom" horiz-adv-x="508" 
d="M33 309h69l8 -170l3 -64h4l30 67l80 167h77l6 -170l2 -64h4l30 67l78 167h75l-160 -309h-84l-6 152v68h-2l-31 -68l-72 -152h-83z" />
    <glyph glyph-name="x.dnom" horiz-adv-x="342" 
d="M330 309l-139 -152l84 -157h-72l-56 111l-103 -111h-83l152 160l-77 149h72l50 -104l90 104h82z" />
    <glyph glyph-name="y.dnom" horiz-adv-x="332" 
d="M29 309h71l16 -171l5 -70h4l34 70l89 171h79l-202 -345c-29 -52 -58 -70 -118 -70c-17 0 -31 0 -42 1l12 56h31c47 0 55 18 60 42c1 7 1 12 1 19c0 15 -1 27 -3 37z" />
    <glyph glyph-name="z.dnom" horiz-adv-x="333" 
d="M-22 0l13 60l210 189h-162l13 60h254l-13 -60l-212 -189h180l-13 -60h-270z" />
    <glyph glyph-name="zero.dnom" horiz-adv-x="405" 
d="M158 -5c-89 0 -134 66 -134 151c0 112 63 279 202 279c92 0 137 -63 137 -152c0 -113 -63 -278 -205 -278zM164 57c89 0 125 145 125 220c0 47 -18 85 -67 85c-89 0 -124 -145 -124 -221c0 -45 17 -84 66 -84z" />
    <glyph glyph-name="one.dnom" horiz-adv-x="271" 
d="M27 293l11 49c72 0 123 23 140 78h59l-89 -420h-71l62 293h-112z" />
    <glyph glyph-name="two.dnom" horiz-adv-x="385" 
d="M117 270h-72c7 95 71 155 164 155c83 0 140 -43 140 -118c0 -69 -53 -117 -118 -152l-43 -23c-41 -21 -85 -43 -100 -72h224l-13 -60h-307c6 100 85 143 157 181l43 23c49 27 84 54 84 99c0 37 -23 61 -71 61c-57 0 -85 -41 -88 -94z" />
    <glyph glyph-name="three.dnom" horiz-adv-x="389" 
d="M12 144h66c0 -3 -1 -6 -1 -9c0 -55 27 -83 81 -83c55 0 95 29 95 82c0 39 -32 59 -76 59h-32l11 54h26c43 0 95 13 95 66c0 39 -31 55 -70 55c-51 0 -81 -28 -89 -83h-68c8 87 72 140 161 140c75 0 135 -33 135 -105c0 -52 -32 -85 -79 -100c35 -13 56 -47 56 -86
c0 -90 -73 -139 -164 -139c-88 0 -144 39 -148 120c0 9 0 18 1 29z" />
    <glyph glyph-name="four.dnom" horiz-adv-x="392" 
d="M175 0l20 93h-205l14 68l255 259h76l-59 -268h63l-12 -59h-63l-20 -93h-69zM250 337c-23 -24 -47 -51 -82 -87l-54 -55c-21 -21 -38 -36 -45 -43h137c20 74 38 158 44 185z" />
    <glyph glyph-name="five.dnom" horiz-adv-x="396" 
d="M29 191l80 229h260l-13 -57h-200l-35 -98c20 13 46 21 79 21c80 0 139 -50 139 -127c0 -100 -73 -164 -181 -164c-91 0 -154 45 -154 132h72c7 -45 34 -76 87 -76c67 0 104 44 104 99c0 51 -36 82 -91 82c-41 0 -69 -18 -82 -41h-65z" />
    <glyph glyph-name="six.dnom" horiz-adv-x="395" 
d="M357 318l-68 -1c-1 35 -27 54 -66 54c-77 0 -109 -77 -123 -134h2c17 27 52 44 99 44c76 0 132 -47 132 -126c0 -89 -68 -160 -165 -160c-95 0 -143 55 -143 156c0 122 67 274 201 274c73 0 128 -34 131 -107zM172 49c60 0 93 49 93 104c0 49 -34 74 -82 74
c-57 0 -92 -45 -92 -96s32 -82 81 -82z" />
    <glyph glyph-name="seven.dnom" horiz-adv-x="351" 
d="M40 360l13 60h318l-12 -55c-90 -66 -210 -218 -244 -365h-76c36 131 115 259 235 360h-234z" />
    <glyph glyph-name="eight.dnom" horiz-adv-x="416" 
d="M289 221v-2c37 -16 61 -55 61 -94c0 -86 -82 -130 -179 -130c-93 0 -161 45 -161 118c0 61 44 100 107 115v2c-31 15 -50 42 -50 82c0 72 67 113 156 113c83 0 148 -39 148 -106c0 -45 -33 -86 -82 -98zM221 371c-51 0 -85 -23 -85 -63s36 -61 80 -61c47 0 85 24 85 64
c0 37 -33 60 -80 60zM182 195c-53 0 -101 -28 -101 -75c0 -45 42 -71 95 -71c63 0 103 28 103 76s-46 70 -97 70z" />
    <glyph glyph-name="nine.dnom" horiz-adv-x="396" 
d="M20 102l68 1c3 -35 27 -54 66 -54c77 0 111 77 123 134h-2c-17 -25 -52 -44 -99 -44c-76 0 -132 47 -132 126c0 89 68 160 165 160c95 0 143 -55 143 -156c0 -122 -67 -274 -201 -274c-73 0 -128 34 -131 107zM205 371c-60 0 -93 -49 -93 -104c0 -49 34 -74 82 -74
c57 0 92 45 92 96s-32 82 -81 82z" />
    <glyph glyph-name="parenleft.dnom" horiz-adv-x="225" 
d="M156 451h70c-79 -109 -130 -239 -130 -366c0 -57 10 -106 23 -157h-65c-19 56 -31 113 -31 170c0 120 48 240 133 353z" />
    <glyph glyph-name="parenright.dnom" horiz-adv-x="225" 
d="M41 -72h-70c79 111 130 239 130 366c0 57 -10 106 -23 157h65c19 -56 31 -111 31 -170c0 -120 -46 -238 -133 -353z" />
    <glyph glyph-name="bracketleft.dnom" horiz-adv-x="244" 
d="M139 -72h-139l110 523h140l-12 -59h-69l-86 -405h69z" />
    <glyph glyph-name="bracketright.dnom" horiz-adv-x="244" 
d="M77 451h139l-110 -523h-140l12 59h69l86 405h-69z" />
    <glyph glyph-name="plus.dnom" horiz-adv-x="397" 
d="M226 365v-121h119v-67h-119v-121h-71v121h-120v67h120v121h71z" />
    <glyph glyph-name="minus.dnom" horiz-adv-x="421" 
d="M49 177v67h304v-67h-304z" />
    <glyph glyph-name="equal.dnom" horiz-adv-x="439" 
d="M58 248v67h304v-67h-304zM58 106v67h304v-67h-304z" />
    <glyph glyph-name="period.dnom" horiz-adv-x="193" 
d="M107 87l-18 -87h-90l18 87h90z" />
    <glyph glyph-name="comma.dnom" horiz-adv-x="192" 
d="M-1 0l18 86h90l-18 -83c-3 -14 -7 -26 -13 -37c-19 -36 -56 -60 -99 -67l9 43c27 4 50 29 55 54l1 4h-43z" />
    <glyph glyph-name="a.numr" horiz-adv-x="364" 
d="M321 278c-29 0 -60 8 -60 36h-2c-20 -24 -46 -39 -98 -39c-64 0 -106 36 -106 85c0 48 29 74 70 90c32 12 71 18 111 23l14 2c28 4 36 13 36 30c0 23 -20 38 -57 38c-32 0 -56 -14 -64 -47l-73 2c15 71 69 100 146 100s121 -31 121 -90c0 -17 -2 -30 -6 -50l-24 -116
c-4 -17 9 -19 30 -18l-10 -44c-12 -1 -17 -2 -28 -2zM180 330c17 0 35 4 53 12c19 8 31 26 36 54l8 39c-9 -5 -25 -10 -48 -15l-24 -5c-31 -5 -51 -10 -64 -21c-9 -7 -13 -16 -13 -29c0 -25 20 -35 52 -35z" />
    <glyph glyph-name="b.numr" horiz-adv-x="397" 
d="M230 700l-20 -91c-4 -16 -4 -27 -11 -50h1c17 23 49 39 94 39c67 0 119 -48 119 -131c0 -110 -74 -192 -169 -192c-49 0 -82 21 -97 42l-7 -37h-70l89 420h71zM240 330c64 0 99 62 99 132c0 51 -23 80 -67 80c-75 0 -105 -71 -105 -129c0 -60 32 -83 73 -83z" />
    <glyph glyph-name="c.numr" horiz-adv-x="360" 
d="M366 384c-20 -63 -78 -109 -155 -109c-81 0 -139 51 -139 140c0 100 63 182 170 182c76 0 129 -41 134 -112h-71c-8 38 -30 57 -66 57c-65 0 -93 -68 -93 -130c0 -55 27 -82 70 -82c37 0 62 23 77 54h73z" />
    <glyph glyph-name="d.numr" horiz-adv-x="396" 
d="M337 280h-68l8 33h-1c-17 -21 -48 -38 -92 -38c-73 0 -123 53 -123 129c0 112 79 193 171 193c48 0 77 -19 92 -43l31 146h71zM231 542c-62 0 -96 -62 -96 -134c0 -49 22 -78 67 -78c74 0 103 74 103 135c0 51 -31 77 -74 77z" />
    <glyph glyph-name="e.numr" horiz-adv-x="374" 
d="M379 416h-240v-4c0 -57 33 -84 78 -84c35 0 56 20 75 45h76c-25 -57 -80 -98 -155 -98c-84 0 -143 53 -143 140c0 102 71 182 172 182c96 0 139 -63 139 -150c0 -11 -1 -20 -2 -31zM237 544c-48 0 -80 -30 -91 -77h163c-1 51 -29 77 -72 77z" />
    <glyph glyph-name="f.numr" horiz-adv-x="229" 
d="M95 589h41l6 28c16 78 46 83 122 83h33l-13 -56h-19c-20 0 -33 -3 -40 -9c-11 -9 -12 -21 -16 -37l-2 -9h65l-11 -53h-64l-55 -256h-71l55 256h-42z" />
    <glyph glyph-name="g.numr" horiz-adv-x="391" 
d="M274 315l4 23h-1c-13 -17 -44 -36 -89 -36c-60 0 -115 41 -115 126c0 95 70 169 158 169c51 0 81 -20 93 -35h1l6 27h72l-61 -293c-17 -84 -70 -126 -159 -126c-83 0 -133 33 -133 96h77c2 -27 23 -41 63 -41c47 0 75 28 83 83zM241 542c-60 0 -94 -51 -94 -111
c0 -49 25 -74 66 -74c59 0 93 52 93 112c0 51 -25 73 -65 73z" />
    <glyph glyph-name="h.numr" horiz-adv-x="392" 
d="M153 700h72l-20 -90c-4 -16 -5 -25 -12 -52h1c19 23 52 39 99 39c63 0 97 -37 97 -90c0 -15 -2 -31 -6 -49l-39 -178h-71l36 165c3 15 5 27 5 40c0 33 -18 57 -58 57c-27 0 -43 -8 -58 -24s-20 -41 -27 -69l-37 -169h-72z" />
    <glyph glyph-name="i.numr" horiz-adv-x="187" 
d="M137 631l15 69h71l-15 -69h-71zM63 280l66 309h71l-66 -309h-71z" />
    <glyph glyph-name="j.numr" horiz-adv-x="197" 
d="M147 631l15 69h72l-15 -69h-72zM139 589h72l-69 -323c-5 -25 -11 -47 -28 -64c-23 -23 -53 -25 -100 -25h-14l12 54h6c20 0 32 1 41 10c7 8 11 22 15 39z" />
    <glyph glyph-name="k.numr" horiz-adv-x="357" 
d="M64 280l89 420h72l-33 -154l-16 -72h1l133 115h99l-145 -119l87 -190h-82l-62 144l-50 -41l-22 -103h-71z" />
    <glyph glyph-name="l.numr" horiz-adv-x="186" 
d="M63 280l89 420h71l-89 -420h-71z" />
    <glyph glyph-name="m.numr" horiz-adv-x="583" 
d="M452 542c-23 0 -41 -8 -55 -23c-13 -16 -20 -42 -27 -69l-36 -170h-71l35 166c3 15 5 27 5 40c0 32 -14 56 -53 56c-23 0 -41 -8 -54 -23c-15 -16 -20 -42 -27 -69l-36 -170h-71l66 309h68l-8 -34h1c16 21 48 42 95 42c45 0 75 -17 88 -45h1c17 21 51 45 104 45
c69 0 102 -36 102 -89c0 -15 -2 -31 -6 -49l-38 -179h-72l36 166c3 15 5 27 5 40c0 32 -16 56 -52 56z" />
    <glyph glyph-name="n.numr" horiz-adv-x="392" 
d="M256 542c-26 0 -46 -8 -59 -23c-13 -17 -20 -41 -27 -69l-37 -170h-71l66 309h68l-8 -34h1c19 25 52 42 99 42c65 0 100 -36 100 -89c0 -15 -2 -31 -6 -49l-39 -179h-71l36 166c3 15 5 27 5 40c0 32 -18 56 -57 56z" />
    <glyph glyph-name="o.numr" horiz-adv-x="376" 
d="M211 275c-81 0 -141 51 -141 135c0 103 64 187 173 187c85 0 141 -51 141 -134c0 -101 -64 -188 -173 -188zM240 542c-67 0 -96 -70 -96 -132c0 -53 28 -80 71 -80c66 0 95 72 95 133c0 53 -27 79 -70 79z" />
    <glyph glyph-name="p.numr" horiz-adv-x="394" 
d="M41 175l87 414h68l-7 -33h1c17 23 53 41 98 41c63 0 114 -47 114 -131c0 -109 -74 -191 -170 -191c-43 0 -76 19 -91 46l-29 -146h-71zM228 330c33 0 57 13 74 40c17 26 26 56 26 91c0 51 -23 81 -67 81c-72 0 -100 -76 -100 -138c0 -44 30 -74 67 -74z" />
    <glyph glyph-name="q.numr" horiz-adv-x="394" 
d="M407 589l-88 -414h-71l18 87c3 15 4 25 11 48h-1c-13 -19 -49 -35 -93 -35c-68 0 -115 53 -115 129c0 112 79 193 169 193c48 0 72 -17 91 -45h1l7 37h71zM241 542c-64 0 -99 -63 -99 -133c0 -49 23 -79 67 -79c71 0 99 75 99 136c0 45 -24 76 -67 76z" />
    <glyph glyph-name="r.numr" horiz-adv-x="234" 
d="M188 552h2c11 25 40 45 91 45h7l-16 -70c-5 1 -12 1 -19 1c-48 0 -74 -26 -86 -85l-34 -163h-71l65 309h69z" />
    <glyph glyph-name="s.numr" horiz-adv-x="343" 
d="M351 497h-71c-1 27 -19 46 -62 46c-40 0 -58 -14 -58 -31c0 -19 15 -27 50 -38l41 -12c47 -13 86 -33 86 -85c0 -74 -72 -102 -144 -102c-66 0 -135 22 -135 99v8h74v-6c0 -33 36 -47 65 -47c31 0 65 11 65 39c0 23 -22 33 -53 42l-44 14c-49 16 -76 33 -76 78
c0 64 62 95 132 95s130 -23 130 -100z" />
    <glyph glyph-name="t.numr" horiz-adv-x="239" 
d="M91 534l12 55h40l21 94h72l-21 -94h63l-12 -55h-63l-31 -150c-3 -11 -4 -21 -4 -28c0 -8 3 -14 10 -17s17 -3 32 -3h15l-12 -56h-34c-29 0 -49 1 -62 6c-18 6 -27 19 -27 40c0 9 3 25 6 41l36 167h-41z" />
    <glyph glyph-name="u.numr" horiz-adv-x="389" 
d="M211 334c27 0 44 10 57 25c15 15 22 36 27 61l37 169h71l-66 -309h-69l8 35c-17 -23 -52 -43 -101 -43c-61 0 -94 37 -94 90c0 15 2 31 6 49l38 178h71l-35 -165c-3 -13 -6 -27 -6 -40c0 -29 19 -50 56 -50z" />
    <glyph glyph-name="v.numr" horiz-adv-x="330" 
d="M91 589h70l13 -170l5 -73h3l36 73l86 170h80l-174 -309h-82z" />
    <glyph glyph-name="w.numr" horiz-adv-x="508" 
d="M92 589h69l8 -170l3 -64h4l30 67l80 167h77l6 -170l2 -64h4l30 67l78 167h75l-160 -309h-84l-6 152v68h-2l-31 -68l-72 -152h-83z" />
    <glyph glyph-name="x.numr" horiz-adv-x="342" 
d="M389 589l-139 -152l84 -157h-72l-56 111l-103 -111h-83l152 160l-77 149h72l50 -104l90 104h82z" />
    <glyph glyph-name="y.numr" horiz-adv-x="332" 
d="M88 589h71l16 -171l5 -70h4l34 70l89 171h79l-202 -345c-29 -52 -58 -70 -118 -70c-17 0 -31 0 -42 1l12 56h31c47 0 55 18 60 42c1 7 1 12 1 19c0 15 -1 27 -3 37z" />
    <glyph glyph-name="z.numr" horiz-adv-x="333" 
d="M38 280l13 60l210 189h-162l13 60h254l-13 -60l-212 -189h180l-13 -60h-270z" />
    <glyph glyph-name="zero.numr" horiz-adv-x="405" 
d="M217 275c-89 0 -134 66 -134 151c0 112 63 279 202 279c92 0 137 -63 137 -152c0 -113 -63 -278 -205 -278zM223 337c89 0 125 145 125 220c0 47 -18 85 -67 85c-89 0 -124 -145 -124 -221c0 -45 17 -84 66 -84z" />
    <glyph glyph-name="one.numr" horiz-adv-x="271" 
d="M86 573l11 49c72 0 123 23 140 78h59l-89 -420h-71l62 293h-112z" />
    <glyph glyph-name="two.numr" horiz-adv-x="385" 
d="M176 550h-72c7 95 71 155 164 155c83 0 140 -43 140 -118c0 -69 -53 -117 -118 -152l-43 -23c-41 -21 -85 -43 -100 -72h224l-13 -60h-307c6 100 85 143 157 181l43 23c49 27 84 54 84 99c0 37 -23 61 -71 61c-57 0 -85 -41 -88 -94z" />
    <glyph glyph-name="three.numr" horiz-adv-x="389" 
d="M71 424h66c0 -3 -1 -6 -1 -9c0 -55 27 -83 81 -83c55 0 95 29 95 82c0 39 -32 59 -76 59h-32l11 54h26c43 0 95 13 95 66c0 39 -31 55 -70 55c-51 0 -81 -28 -89 -83h-68c8 87 72 140 161 140c75 0 135 -33 135 -105c0 -52 -32 -85 -79 -100c35 -13 56 -47 56 -86
c0 -90 -73 -139 -164 -139c-88 0 -144 39 -148 120c0 9 0 18 1 29z" />
    <glyph glyph-name="four.numr" horiz-adv-x="392" 
d="M234 280l20 93h-205l14 68l255 259h76l-59 -268h63l-12 -59h-63l-20 -93h-69zM309 617c-23 -24 -47 -51 -82 -87l-54 -55c-21 -21 -38 -36 -45 -43h137c20 74 38 158 44 185z" />
    <glyph glyph-name="five.numr" horiz-adv-x="396" 
d="M89 471l80 229h260l-13 -57h-200l-35 -98c20 13 46 21 79 21c80 0 139 -50 139 -127c0 -100 -73 -164 -181 -164c-91 0 -154 45 -154 132h72c7 -45 34 -76 87 -76c67 0 104 44 104 99c0 51 -36 82 -91 82c-41 0 -69 -18 -82 -41h-65z" />
    <glyph glyph-name="six.numr" horiz-adv-x="395" 
d="M417 598l-68 -1c-1 35 -27 54 -66 54c-77 0 -109 -77 -123 -134h2c17 27 52 44 99 44c76 0 132 -47 132 -126c0 -89 -68 -160 -165 -160c-95 0 -143 55 -143 156c0 122 67 274 201 274c73 0 128 -34 131 -107zM232 329c60 0 93 49 93 104c0 49 -34 74 -82 74
c-57 0 -92 -45 -92 -96s32 -82 81 -82z" />
    <glyph glyph-name="seven.numr" horiz-adv-x="351" 
d="M100 640l13 60h318l-12 -55c-90 -66 -210 -218 -244 -365h-76c36 131 115 259 235 360h-234z" />
    <glyph glyph-name="eight.numr" horiz-adv-x="416" 
d="M349 501v-2c37 -16 61 -55 61 -94c0 -86 -82 -130 -179 -130c-93 0 -161 45 -161 118c0 61 44 100 107 115v2c-31 15 -50 42 -50 82c0 72 67 113 156 113c83 0 148 -39 148 -106c0 -45 -33 -86 -82 -98zM281 651c-51 0 -85 -23 -85 -63s36 -61 80 -61c47 0 85 24 85 64
c0 37 -33 60 -80 60zM242 475c-53 0 -101 -28 -101 -75c0 -45 42 -71 95 -71c63 0 103 28 103 76s-46 70 -97 70z" />
    <glyph glyph-name="nine.numr" horiz-adv-x="396" 
d="M79 382l68 1c3 -35 27 -54 66 -54c77 0 111 77 123 134h-2c-17 -25 -52 -44 -99 -44c-76 0 -132 47 -132 126c0 89 68 160 165 160c95 0 143 -55 143 -156c0 -122 -67 -274 -201 -274c-73 0 -128 34 -131 107zM264 651c-60 0 -93 -49 -93 -104c0 -49 34 -74 82 -74
c57 0 92 45 92 96s-32 82 -81 82z" />
    <glyph glyph-name="parenleft.numr" horiz-adv-x="225" 
d="M216 731h70c-79 -109 -130 -239 -130 -366c0 -57 10 -106 23 -157h-65c-19 56 -31 113 -31 170c0 120 48 240 133 353z" />
    <glyph glyph-name="parenright.numr" horiz-adv-x="225" 
d="M100 208h-70c79 111 130 239 130 366c0 57 -10 106 -23 157h65c19 -56 31 -111 31 -170c0 -120 -46 -238 -133 -353z" />
    <glyph glyph-name="bracketleft.numr" horiz-adv-x="244" 
d="M199 208h-139l110 523h140l-12 -59h-69l-86 -405h69z" />
    <glyph glyph-name="bracketright.numr" horiz-adv-x="244" 
d="M137 731h139l-110 -523h-140l12 59h69l86 405h-69z" />
    <glyph glyph-name="plus.numr" horiz-adv-x="397" 
d="M285 645v-121h119v-67h-119v-121h-71v121h-120v67h120v121h71z" />
    <glyph glyph-name="minus.numr" horiz-adv-x="421" 
d="M109 457v67h304v-67h-304z" />
    <glyph glyph-name="equal.numr" horiz-adv-x="439" 
d="M118 528v67h304v-67h-304zM118 386v67h304v-67h-304z" />
    <glyph glyph-name="period.numr" horiz-adv-x="193" 
d="M167 367l-18 -87h-90l18 87h90z" />
    <glyph glyph-name="comma.numr" horiz-adv-x="192" 
d="M58 280l18 86h90l-18 -83c-3 -14 -7 -26 -13 -37c-19 -36 -56 -60 -99 -67l9 43c27 4 50 29 55 54l1 4h-43z" />
    <glyph glyph-name="bar" unicode="|" horiz-adv-x="252" 
d="M-9 -172l183 872h92l-185 -872h-90z" />
    <glyph glyph-name="bar.case" horiz-adv-x="253" 
d="M10 -86l183 872h92l-185 -872h-90z" />
    <glyph glyph-name="brokenbar" unicode="&#xa6;" horiz-adv-x="252" 
d="M193 351h-93l74 349h93zM82 -172h-92l73 349h93z" />
    <glyph glyph-name="brokenbar.case" horiz-adv-x="253" 
d="M212 437h-93l74 349h93zM101 -86h-92l73 349h93z" />
    <glyph glyph-name="backslash" unicode="\" horiz-adv-x="398" 
d="M231 0l-112 700h90l112 -700h-90z" />
    <glyph glyph-name="uni00AD" unicode="&#xad;" horiz-adv-x="394" 
d="M58 243l19 88h272l-19 -88h-272z" />
    <glyph glyph-name="uni00AD.case" horiz-adv-x="401" 
d="M78 323l19 88h272l-19 -88h-272z" />
    <glyph glyph-name="hyphen" unicode="-" horiz-adv-x="394" 
d="M58 243l19 88h272l-19 -88h-272z" />
    <glyph glyph-name="hyphen.case" horiz-adv-x="401" 
d="M78 323l19 88h272l-19 -88h-272z" />
    <glyph glyph-name="endash" unicode="&#x2013;" horiz-adv-x="620" 
d="M57 239l19 91h500l-19 -91h-500z" />
    <glyph glyph-name="endash.case" horiz-adv-x="627" 
d="M77 319l19 91h500l-19 -91h-500z" />
    <glyph glyph-name="emdash" unicode="&#x2014;" horiz-adv-x="1120" 
d="M57 239l19 91h1000l-19 -91h-1000z" />
    <glyph glyph-name="emdash.case" horiz-adv-x="1127" 
d="M77 319l19 91h1000l-19 -91h-1000z" />
    <glyph glyph-name="underscore" unicode="_" horiz-adv-x="482" 
d="M-85 -127l11 56h491l-11 -56h-491z" />
    <glyph glyph-name="bullet" unicode="&#x2022;" horiz-adv-x="458" 
d="M247 499c83 0 151 -67 151 -151c0 -82 -68 -151 -151 -151c-82 0 -151 69 -151 151c0 84 69 151 151 151z" />
    <glyph glyph-name="H18533" unicode="&#x25cf;" horiz-adv-x="262" 
d="M57 298c0 45 37 82 82 82s82 -37 82 -82s-37 -82 -82 -82s-82 37 -82 82z" />
    <glyph glyph-name="middot" unicode="&#xb7;" horiz-adv-x="241" 
d="M200 348l-27 -128h-120l27 128h120z" />
    <glyph glyph-name="periodcentered.case" horiz-adv-x="247" 
d="M219 428l-27 -128h-120l27 128h120z" />
    <glyph glyph-name="quotesinglbase" unicode="&#x201a;" horiz-adv-x="237" 
d="M12 0l27 127h118l-25 -120c-20 -96 -75 -149 -154 -162l12 57c43 11 69 48 78 89l2 9h-58z" />
    <glyph glyph-name="quotedblbase" unicode="&#x201e;" horiz-adv-x="437" 
d="M12 0l27 127h118l-25 -120c-20 -96 -75 -149 -154 -162l12 57c43 11 69 48 78 89l2 9h-58zM212 0l27 127h118l-25 -120c-20 -96 -75 -149 -154 -162l12 57c43 11 69 48 78 89l2 9h-58z" />
    <glyph glyph-name="quoteleft" unicode="&#x2018;" horiz-adv-x="230" 
d="M176 551h58l-27 -127h-118l25 120c20 96 75 149 154 162l-12 -57c-41 -9 -69 -46 -78 -89z" />
    <glyph glyph-name="quoteright" unicode="&#x2019;" horiz-adv-x="223" 
d="M125 573l27 127h118l-25 -120c-20 -96 -75 -149 -154 -162l12 57c43 11 69 48 78 89l2 9h-58z" />
    <glyph glyph-name="quotedblleft" unicode="&#x201c;" horiz-adv-x="429" 
d="M176 551h58l-27 -127h-118l25 120c20 96 75 149 154 162l-12 -57c-41 -9 -69 -46 -78 -89zM375 551h58l-27 -127h-118l25 120c20 96 75 149 154 162l-12 -57c-41 -9 -69 -46 -78 -89z" />
    <glyph glyph-name="quotedblright" unicode="&#x201d;" horiz-adv-x="423" 
d="M125 573l27 127h118l-25 -120c-20 -96 -75 -149 -154 -162l12 57c43 11 69 48 78 89l2 9h-58zM325 573l27 127h118l-25 -120c-20 -96 -75 -149 -154 -162l12 57c43 11 69 48 78 89l2 9h-58z" />
    <glyph glyph-name="guilsinglleft" unicode="&#x2039;" horiz-adv-x="267" 
d="M54 317l210 171l-25 -117l-145 -119l94 -122l-23 -108l-137 175z" />
    <glyph glyph-name="guilsinglright" unicode="&#x203a;" horiz-adv-x="268" 
d="M4 22l24 117l145 121l-93 120l22 108l138 -174l-26 -121z" />
    <glyph glyph-name="guilsinglleft.case" horiz-adv-x="280" 
d="M79 417l210 171l-25 -117l-145 -119l94 -122l-23 -108l-137 175z" />
    <glyph glyph-name="guilsinglright.case" horiz-adv-x="281" 
d="M34 122l24 117l145 121l-93 120l22 108l138 -174l-26 -121z" />
    <glyph glyph-name="guillemotleft" unicode="&#xab;" horiz-adv-x="475" 
d="M54 317l210 171l-25 -117l-145 -119l94 -122l-23 -108l-137 175zM262 317l210 171l-25 -117l-145 -119l94 -122l-23 -108l-137 175z" />
    <glyph glyph-name="guillemotright" unicode="&#xbb;" horiz-adv-x="478" 
d="M4 22l24 117l145 121l-93 120l22 108l138 -174l-26 -121zM214 22l24 117l145 121l-93 120l22 108l138 -174l-26 -121z" />
    <glyph glyph-name="guillemotleft.case" horiz-adv-x="488" 
d="M79 417l210 171l-25 -117l-145 -119l94 -122l-23 -108l-137 175zM287 417l210 171l-25 -117l-145 -119l94 -122l-23 -108l-137 175z" />
    <glyph glyph-name="guillemotright.case" horiz-adv-x="491" 
d="M34 122l24 117l145 121l-93 120l22 108l138 -174l-26 -121zM244 122l24 117l145 121l-93 120l22 108l138 -174l-26 -121z" />
    <glyph glyph-name="quotesingle" unicode="'" horiz-adv-x="210" 
d="M100 423l46 277h107l-79 -277h-74z" />
    <glyph glyph-name="quotedbl" unicode="&#x22;" horiz-adv-x="393" 
d="M100 423l46 277h107l-79 -277h-74zM283 423l46 277h107l-79 -277h-74z" />
    <glyph glyph-name="ampersand" unicode="&#x26;" horiz-adv-x="634" 
d="M510 335h92c-15 -73 -48 -148 -99 -203l88 -132h-116l-44 67c-53 -51 -119 -82 -200 -82c-121 0 -204 65 -204 185c0 126 100 189 199 229c-29 45 -57 90 -57 147c0 100 72 168 183 168c100 0 173 -48 173 -141c0 -105 -93 -159 -174 -199l104 -167c27 32 44 87 55 128z
M313 436c57 22 120 70 120 128c0 45 -32 72 -81 72c-51 0 -86 -30 -86 -83c0 -43 23 -86 47 -117zM387 140l-121 194c-68 -32 -137 -68 -137 -155c0 -61 44 -109 112 -109c61 0 107 29 146 70z" />
    <glyph glyph-name="at" unicode="@" horiz-adv-x="788" 
d="M553 54c-43 0 -75 18 -84 55h-4c-29 -39 -71 -63 -120 -63c-89 0 -138 70 -138 163c0 113 78 246 206 246c55 0 92 -25 105 -64h3l13 49h71l-71 -247c-5 -17 -9 -36 -9 -47c0 -21 9 -32 28 -32c59 0 125 91 125 208c0 143 -109 235 -254 235c-163 0 -303 -125 -303 -309
c0 -167 116 -288 289 -288c77 0 152 32 220 84l74 -15c-70 -80 -189 -133 -298 -133c-224 0 -361 144 -361 350c0 209 160 376 377 376c191 0 329 -120 329 -295c0 -85 -32 -160 -76 -209c-36 -39 -77 -64 -122 -64zM415 384c-77 0 -130 -93 -130 -172c0 -61 29 -93 72 -93
c74 0 130 100 130 176c0 49 -25 89 -72 89z" />
    <glyph glyph-name="at.case" horiz-adv-x="791" 
d="M574 145c-43 0 -75 18 -84 55h-4c-29 -39 -71 -63 -120 -63c-89 0 -138 70 -138 163c0 113 78 246 206 246c55 0 92 -25 105 -64h3l13 49h71l-71 -247c-5 -17 -9 -36 -9 -47c0 -21 9 -32 28 -32c59 0 125 91 125 208c0 143 -109 235 -254 235c-163 0 -303 -125 -303 -309
c0 -167 116 -288 289 -288c77 0 152 32 220 84l74 -15c-70 -80 -189 -133 -298 -133c-224 0 -361 144 -361 350c0 209 160 376 377 376c191 0 329 -120 329 -295c0 -85 -32 -160 -76 -209c-36 -39 -77 -64 -122 -64zM436 475c-77 0 -130 -93 -130 -172c0 -61 29 -93 72 -93
c74 0 130 100 130 176c0 49 -25 89 -72 89z" />
    <glyph glyph-name="section" unicode="&#xa7;" horiz-adv-x="572" 
d="M250 564c0 -44 29 -65 81 -92l72 -36c65 -32 130 -75 130 -168c0 -81 -49 -142 -128 -167c23 -21 41 -51 41 -96c0 -105 -96 -166 -226 -166c-114 0 -219 42 -219 179l102 1c0 -75 55 -104 123 -104c67 0 113 31 113 84c0 45 -34 63 -93 96l-61 35
c-74 42 -135 81 -135 168c0 80 55 141 136 162c-24 23 -39 54 -39 97c0 96 79 156 208 156c119 0 207 -43 207 -166h-98c0 64 -45 91 -114 91c-61 0 -100 -29 -100 -74zM433 248c0 44 -28 70 -91 105l-103 57c-40 -9 -83 -38 -83 -89c0 -45 29 -69 86 -104l107 -62
c43 11 84 40 84 93z" />
    <glyph glyph-name="paragraph" unicode="&#xb6;" horiz-adv-x="624" 
d="M626 700l-181 -847h-79l167 781h-116l-167 -781h-78l109 518h-8c-89 0 -185 47 -185 159c0 108 70 170 237 170h301z" />
    <glyph glyph-name="dagger" unicode="&#x2020;" horiz-adv-x="517" 
d="M77 493h183l44 207h98l-44 -207h183l-19 -88h-183l-117 -552h-98l117 552h-183z" />
    <glyph glyph-name="daggerdbl" unicode="&#x2021;" horiz-adv-x="560" 
d="M364 414l-60 -277h183l-19 -89h-183l-41 -196h-98l41 196h-182l18 89h183l60 277h-183l19 89h183l42 197h98l-42 -197h183l-19 -89h-183z" />
    <glyph glyph-name="ordfeminine" unicode="&#xaa;" horiz-adv-x="393" 
d="M354 392c-29 0 -60 8 -60 36h-2c-20 -24 -46 -39 -98 -39c-64 0 -106 36 -106 85c0 48 29 74 70 90c32 12 71 18 111 23l14 2c28 4 36 13 36 30c0 23 -20 38 -57 38c-32 0 -56 -14 -64 -47l-73 2c15 71 69 100 146 100s121 -31 121 -90c0 -17 -2 -30 -6 -50l-24 -116
c-4 -17 9 -19 30 -18l-10 -44c-12 -1 -17 -2 -28 -2zM213 444c17 0 35 4 53 12c19 8 31 26 36 54l8 39c-9 -5 -25 -10 -48 -15l-24 -5c-31 -5 -51 -10 -64 -21c-9 -7 -13 -16 -13 -29c0 -25 20 -35 52 -35z" />
    <glyph glyph-name="ordmasculine" unicode="&#xba;" horiz-adv-x="387" 
d="M239 391c-81 0 -141 51 -141 135c0 103 64 187 173 187c85 0 141 -51 141 -134c0 -101 -64 -188 -173 -188zM268 658c-67 0 -96 -70 -96 -132c0 -53 28 -80 71 -80c66 0 95 72 95 133c0 53 -27 79 -70 79z" />
    <glyph glyph-name="degree" unicode="&#xb0;" horiz-adv-x="379" 
d="M251 713c88 0 153 -66 153 -151s-65 -151 -153 -151c-84 0 -152 66 -152 151s68 151 152 151zM251 658c-53 0 -94 -41 -94 -96c0 -56 41 -97 94 -97c55 0 94 41 94 97c0 55 -39 96 -94 96z" />
    <glyph glyph-name="uni2116" unicode="&#x2116;" horiz-adv-x="1099" 
d="M943 391c-81 0 -141 51 -141 135c0 103 64 187 173 187c85 0 141 -51 141 -134c0 -101 -64 -188 -173 -188zM298 700l159 -368c25 -57 51 -121 72 -177h2c12 55 25 128 37 185l76 360h109l-149 -700h-118l-136 318c-32 72 -63 148 -95 227h-2l-36 -180l-77 -365h-108
l148 700h118zM972 658c-65 0 -96 -70 -96 -132c0 -53 28 -80 71 -80c66 0 95 72 95 133c0 53 -27 79 -70 79zM767 243l16 73h272l-16 -73h-272z" />
    <glyph glyph-name="registered" unicode="&#xae;" horiz-adv-x="858" 
d="M818 352c0 -205 -163 -365 -372 -365c-202 0 -364 162 -364 365c0 205 162 367 368 367c204 0 368 -162 368 -367zM752 352c0 171 -133 307 -302 307c-171 0 -302 -136 -302 -307c0 -172 132 -306 305 -306c166 0 299 136 299 306zM562 346v-3c43 -16 54 -52 55 -105
c1 -37 6 -69 18 -94v-2h-75c-9 17 -10 45 -13 84c-3 72 -24 90 -103 90h-76v-174h-71v423h179c104 0 150 -44 150 -115c0 -52 -24 -85 -64 -104zM368 506v-132h101c47 0 86 15 86 66c0 55 -38 66 -85 66h-102z" />
    <glyph glyph-name="copyright" unicode="&#xa9;" horiz-adv-x="858" 
d="M818 352c0 -205 -163 -365 -372 -365c-202 0 -364 162 -364 365c0 205 162 367 368 367c204 0 368 -162 368 -367zM752 352c0 171 -133 307 -302 307c-171 0 -302 -136 -302 -307c0 -172 132 -306 305 -306c166 0 299 136 299 306zM563 288h71
c-17 -97 -86 -158 -183 -158c-131 0 -201 99 -201 219c0 121 72 222 203 222c86 0 165 -53 177 -147h-69c-9 52 -53 87 -108 87c-89 0 -129 -73 -129 -162c0 -88 40 -160 127 -160c63 0 103 42 112 99z" />
    <glyph glyph-name="uni2117" unicode="&#x2117;" horiz-adv-x="858" 
d="M818 352c0 -205 -163 -365 -372 -365c-202 0 -364 162 -364 365c0 205 162 367 368 367c204 0 368 -162 368 -367zM752 352c0 171 -133 307 -302 307c-171 0 -302 -136 -302 -307c0 -172 132 -306 305 -306c166 0 299 136 299 306zM310 142v423h178c51 0 83 -11 107 -30
c27 -23 41 -55 41 -97c0 -48 -20 -85 -55 -108c-27 -17 -60 -26 -99 -26h-101v-162h-71zM381 506v-143h86c59 0 98 20 98 75c0 57 -43 68 -99 68h-85z" />
    <glyph glyph-name="trademark" unicode="&#x2122;" horiz-adv-x="1081" 
d="M1028 238h-78v216c0 67 2 125 3 156h-3l-124 -372h-69l-127 374h-3c0 -21 3 -98 3 -138v-236h-78v462h120l120 -357l117 357h119v-462zM495 630h-150v-392h-78v392h-151v70h379v-70z" />
    <glyph glyph-name="uni2113" unicode="&#x2113;" horiz-adv-x="459" 
d="M201 155c0 -61 10 -87 55 -87c48 0 52 37 54 72h98c-5 -91 -45 -152 -152 -152c-108 0 -149 42 -149 139v45l-72 -54v101l71 56v246c0 53 3 96 20 129c21 40 59 64 135 64c103 0 149 -50 149 -135c0 -107 -65 -219 -209 -343v-81zM310 555c0 56 -16 79 -51 79
c-45 0 -58 -23 -58 -90v-203c45 45 74 85 88 122s21 67 21 92z" />
    <glyph glyph-name="estimated" unicode="&#x212e;" horiz-adv-x="594" 
d="M550 255h-388v-126c0 -48 35 -68 60 -79c25 -12 54 -15 83 -15c76 0 134 26 179 94h51c-60 -95 -127 -137 -230 -137c-150 0 -247 116 -247 265c0 141 93 268 247 268s245 -117 245 -270zM162 298h287v100c0 33 -24 56 -59 69c-24 11 -53 16 -86 16s-58 -4 -83 -15
c-33 -13 -59 -36 -59 -69v-101z" />
    <glyph glyph-name="asterisk" unicode="*" horiz-adv-x="476" 
d="M360 689l-32 -145l149 16l6 -63l-148 -17l62 -135l-59 -25l-60 135l-110 -100l-43 48l111 98l-130 75l33 56l128 -75l30 146z" />
    <glyph glyph-name="numbersign" unicode="#" 
d="M565 213h-115l-80 -213h-72l80 213h-154l-80 -213h-72l79 213h-115l25 65h115l54 146h-119l25 65h119l79 211h72l-79 -211h155l78 211h72l-79 -211h113l-25 -65h-112l-55 -146h116zM303 424l-55 -146h154l55 146h-154z" />
    <glyph glyph-name="currency" unicode="&#xa4;" horiz-adv-x="658" 
d="M475 529l70 70l60 -60l-69 -70c27 -39 40 -81 40 -127s-13 -88 -40 -127l69 -70l-60 -59l-70 69c-37 -27 -79 -40 -126 -40s-88 15 -128 40l-69 -69l-60 59l70 71c-26 39 -39 81 -39 126s13 87 39 126l-70 71l60 60l69 -70c39 27 81 40 128 40s87 -13 126 -40zM349 482
c-76 0 -138 -62 -138 -140c0 -77 62 -140 138 -140s138 62 138 140s-62 140 -138 140z" />
    <glyph glyph-name="dollar" unicode="$" horiz-adv-x="621" 
d="M201 -107l23 107c-116 19 -194 91 -194 226h107c0 -75 36 -127 104 -143l50 235l-11 4c-84 28 -172 64 -172 181c0 140 120 202 256 202h9l19 100h62l-21 -106c93 -16 164 -68 176 -168v-3c0 -11 2 -22 2 -34h-103c0 71 -38 111 -93 122l-46 -219l21 -6
c98 -28 182 -63 182 -181c0 -107 -82 -215 -274 -215h-14l-21 -102h-62zM215 517c0 -55 35 -78 96 -101l44 207c-80 -5 -140 -31 -140 -106zM349 300l-48 -224c88 0 163 36 163 121c0 66 -57 85 -115 103z" />
    <glyph glyph-name="Euro" unicode="&#x20ac;" horiz-adv-x="652" 
d="M436 310l-29 -59h-183v-21c0 -79 27 -158 115 -158c79 0 133 59 161 144h100c-38 -132 -130 -229 -272 -229c-144 0 -204 126 -204 264h-77l28 59h52c3 27 8 54 13 82h-65l28 59h52c44 139 135 262 285 262c143 0 207 -92 207 -236h-98v7c0 80 -33 143 -118 143
c-86 0 -142 -79 -174 -176h247l-28 -59h-235c-7 -27 -10 -55 -13 -82h208z" />
    <glyph glyph-name="sterling" unicode="&#xa3;" horiz-adv-x="588" 
d="M60 318l12 51h73c-12 31 -21 73 -21 114c0 138 100 229 244 229c132 0 215 -73 215 -196c0 -11 -1 -21 -2 -36h-94c1 7 1 15 1 24c0 76 -41 126 -124 126c-89 0 -141 -54 -141 -145c0 -33 7 -72 22 -116h144l-11 -51h-121c2 -14 3 -27 3 -40c0 -85 -54 -149 -123 -194
l2 -4c35 16 58 20 82 20c62 0 107 -30 162 -30c40 0 73 18 101 43l32 -65c-51 -44 -102 -61 -157 -61c-85 0 -118 39 -193 39c-37 0 -79 -9 -119 -34l-33 69c85 49 151 112 151 197c0 19 -1 39 -8 60h-97z" />
    <glyph glyph-name="yen" unicode="&#xa5;" horiz-adv-x="616" 
d="M512 159h-173l-33 -159h-108l33 159h-175l13 59h175l13 60l-10 35h-158l13 60h123l-102 327h112l93 -329l239 329h113l-243 -327h121l-13 -60h-155l-25 -35l-13 -60h173z" />
    <glyph glyph-name="florin" unicode="&#x192;" 
d="M399 363l-58 -321c-26 -144 -50 -218 -191 -218c-19 0 -40 4 -55 7l15 84c15 -3 29 -5 42 -5c59 0 76 56 84 107l63 346h-91l15 84h91l13 73c22 118 48 193 168 193c24 0 53 -1 77 -8l-16 -82c-12 3 -27 4 -38 4c-64 0 -81 -55 -91 -109l-13 -71h105l-15 -84h-105z" />
    <glyph glyph-name="cent" unicode="&#xa2;" horiz-adv-x="573" 
d="M543 343h-98c-7 55 -34 88 -79 99l-79 -374c72 4 105 51 132 112h102c-37 -117 -125 -194 -252 -194l-19 -93h-61l20 100c-97 23 -157 100 -157 220c0 165 99 314 271 317l21 95h61l-21 -100c91 -16 152 -79 159 -182zM155 211c0 -65 24 -115 72 -134l79 369
c-102 -14 -151 -131 -151 -235z" />
    <glyph glyph-name="plus" unicode="+" 
d="M395 605v-211h211v-88h-211v-211h-88v211h-213v88h213v211h88z" />
    <glyph glyph-name="plus.ss06" 
d="M376 512v-211h211v-88h-211v-211h-88v211h-213v88h213v211h88z" />
    <glyph glyph-name="minus" unicode="&#x2212;" 
d="M95 306v87h505v-87h-505z" />
    <glyph glyph-name="minus.ss06" 
d="M78 213v87h505v-87h-505z" />
    <glyph glyph-name="multiply" unicode="&#xd7;" 
d="M115 171l175 175l-175 176l60 60l176 -175l174 174l60 -60l-174 -174l174 -175l-60 -61l-174 176l-176 -176z" />
    <glyph glyph-name="x.ss20" 
d="M112 171l175 175l-175 176l60 60l176 -175l174 174l60 -60l-174 -174l174 -175l-60 -61l-174 176l-176 -176z" />
    <glyph glyph-name="multiply.ss06" 
d="M95 78l175 175l-175 176l60 60l176 -175l174 174l60 -60l-174 -174l174 -175l-60 -61l-174 176l-176 -176z" />
    <glyph glyph-name="divide" unicode="&#xf7;" 
d="M281 559c0 39 31 69 68 69c39 0 70 -30 70 -69c0 -37 -32 -69 -69 -69s-69 32 -69 69zM602 306h-504v86h504v-86zM281 138c0 39 31 70 68 70c39 0 70 -31 70 -70c0 -37 -32 -69 -69 -69s-69 32 -69 69z" />
    <glyph glyph-name="divide.ss06" 
d="M261 466c0 39 31 69 68 69c39 0 70 -30 70 -69c0 -37 -32 -69 -69 -69s-69 32 -69 69zM582 213h-504v86h504v-86zM261 45c0 39 31 70 68 70c39 0 70 -31 70 -70c0 -37 -32 -69 -69 -69s-69 32 -69 69z" />
    <glyph glyph-name="plusminus" unicode="&#xb1;" 
d="M382 651v-156h209v-86h-209v-160h-88v160h-209v86h209v156h88zM84 70v86h507v-86h-507z" />
    <glyph glyph-name="plusminus.ss06" 
d="M366 558v-156h209v-86h-209v-160h-88v160h-209v86h209v156h88zM68 -23v86h507v-86h-507z" />
    <glyph glyph-name="equal" unicode="=" 
d="M90 417v87h505v-87h-505zM90 196v88h505v-88h-505z" />
    <glyph glyph-name="equal.ss06" 
d="M78 324v87h505v-87h-505zM78 103v88h505v-88h-505z" />
    <glyph glyph-name="notequal" unicode="&#x2260;" 
d="M90 417v87h283l68 141h79l-68 -141h143v-87h-183l-64 -134h247v-87h-288l-72 -149h-79l72 149h-138v87h179l64 134h-243z" />
    <glyph glyph-name="notequal.ss06" 
d="M78 324v87h283l68 141h79l-68 -141h143v-87h-183l-64 -134h247v-87h-288l-72 -149h-79l72 149h-138v87h179l64 134h-243z" />
    <glyph glyph-name="logicalnot" unicode="&#xac;" 
d="M83 429v86h501v-357h-88v271h-413z" />
    <glyph glyph-name="logicalnot.ss06" 
d="M71 336v86h501v-357h-88v271h-413z" />
    <glyph glyph-name="approxequal" unicode="&#x2248;" 
d="M236 399h-69c11 67 52 103 107 103c27 0 47 -5 71 -12l12 -3c21 -5 42 -9 59 -9c23 0 39 9 46 27h69c-11 -65 -52 -103 -107 -103c-27 0 -47 7 -71 12l-12 3c-21 5 -40 9 -59 9c-23 0 -39 -9 -46 -27zM236 198h-69c11 67 52 103 107 103c27 0 47 -5 71 -12l12 -3
c21 -5 42 -9 59 -9c23 0 39 9 46 27h69c-11 -65 -52 -103 -107 -103c-27 0 -47 7 -71 12l-12 3c-21 5 -40 9 -59 9c-23 0 -39 -9 -46 -27z" />
    <glyph glyph-name="approxequal.ss06" 
d="M218 306h-69c11 67 52 103 107 103c27 0 47 -5 71 -12l12 -3c21 -5 42 -9 59 -9c23 0 39 9 46 27h69c-11 -65 -52 -103 -107 -103c-27 0 -47 7 -71 12l-12 3c-21 5 -40 9 -59 9c-23 0 -39 -9 -46 -27zM218 105h-69c11 67 52 103 107 103c27 0 47 -5 71 -12l12 -3
c21 -5 42 -9 59 -9c23 0 39 9 46 27h69c-11 -65 -52 -103 -107 -103c-27 0 -47 7 -71 12l-12 3c-21 5 -40 9 -59 9c-23 0 -39 -9 -46 -27z" />
    <glyph glyph-name="infinity" unicode="&#x221e;" horiz-adv-x="857" 
d="M246 526c75 0 137 -49 202 -120c65 71 125 120 200 120c51 0 93 -17 124 -50c32 -33 48 -75 48 -128c0 -94 -61 -177 -170 -177c-41 0 -78 12 -111 37s-64 54 -93 87c-59 -67 -120 -124 -203 -124c-107 0 -169 83 -169 177c0 53 16 95 47 128c32 33 74 50 125 50z
M496 348c43 -45 90 -94 149 -94c55 0 89 40 89 96c0 53 -33 94 -88 94c-56 0 -105 -46 -150 -95v-1zM397 348v1c-45 49 -94 95 -150 95c-53 0 -88 -41 -88 -94c0 -56 34 -96 89 -96c59 0 106 49 149 94z" />
    <glyph glyph-name="infinity.ss06" horiz-adv-x="857" 
d="M228 433c75 0 137 -49 202 -120c65 71 125 120 200 120c51 0 93 -17 124 -50c32 -33 48 -75 48 -128c0 -94 -61 -177 -170 -177c-41 0 -78 12 -111 37s-64 54 -93 87c-59 -67 -120 -124 -203 -124c-107 0 -169 83 -169 177c0 53 16 95 47 128c32 33 74 50 125 50z
M478 255c43 -45 90 -94 149 -94c55 0 89 40 89 96c0 53 -33 94 -88 94c-56 0 -105 -46 -150 -95v-1zM379 255v1c-45 49 -94 95 -150 95c-53 0 -88 -41 -88 -94c0 -56 34 -96 89 -96c59 0 106 49 149 94z" />
    <glyph glyph-name="less" unicode="&#x3c;" 
d="M558 71l-464 240v76l464 244v-94c-87 -44 -173 -88 -260 -131l-107 -53c0 -6 88 -44 128 -65l239 -123v-94z" />
    <glyph glyph-name="less_hyphen" horiz-adv-x="664" 
d="M615 299v-87h-311c-33 0 -66 1 -109 2c29 -31 73 -73 114 -116l87 -88h-119l-116 123c-40 43 -83 86 -118 123c36 37 78 81 118 124l116 123h119l-87 -88c-49 -49 -81 -87 -114 -118c32 0 76 2 109 2h311z" />
    <glyph glyph-name="less_hyphen.case" horiz-adv-x="671" 
d="M645 412v-87h-311c-33 0 -66 1 -109 2c29 -31 73 -73 114 -116l87 -88h-119l-116 123c-40 43 -83 86 -118 123c36 37 78 81 118 124l116 123h119l-87 -88c-49 -49 -81 -87 -114 -118c32 0 76 2 109 2h311z" />
    <glyph glyph-name="greater" unicode="&#x3e;" 
d="M607 311l-464 -240v94c119 61 280 142 367 187l-120 60c-83 41 -164 84 -247 125v94l464 -244v-76z" />
    <glyph glyph-name="hyphen_greater" horiz-adv-x="663" 
d="M49 299h311c33 0 77 -2 109 -2c-33 31 -65 69 -114 118l-87 88h119l116 -123c40 -43 82 -87 118 -124c-35 -37 -78 -80 -118 -123l-116 -123h-119l87 88c43 43 85 85 114 116c-43 -1 -74 -2 -109 -2h-311v87z" />
    <glyph glyph-name="hyphen_greater.case" horiz-adv-x="672" 
d="M76 412h311c33 0 77 -2 109 -2c-33 31 -65 69 -114 118l-87 88h119l116 -123c40 -43 82 -87 118 -124c-35 -37 -78 -80 -118 -123l-116 -123h-119l87 88c43 43 85 85 114 116c-43 -1 -74 -2 -109 -2h-311v87z" />
    <glyph glyph-name="lessequal" unicode="&#x2264;" 
d="M547 133l-432 252v74l432 255v-95c-77 -43 -153 -88 -232 -131l-107 -62v-3c63 -40 226 -132 339 -195v-95zM547 80v-80h-432v80h432z" />
    <glyph glyph-name="greaterequal" unicode="&#x2265;" 
d="M134 133v95l232 133c45 25 87 49 107 62v3l-107 62l-232 131v95l432 -255v-74zM134 80h432v-80h-432v80z" />
    <glyph glyph-name="increment" unicode="&#x2206;" horiz-adv-x="711" 
d="M3 0l263 700h115l261 -700h-639zM274 459l-129 -370h358l-133 369c-25 68 -39 113 -47 142h-2c-11 -31 -24 -78 -47 -141z" />
    <glyph glyph-name="summation" unicode="&#x2211;" 
d="M70 0l280 309l-277 308v83h527v-88h-388l266 -297l-275 -307h408v-88h-541v80z" />
    <glyph glyph-name="product" unicode="&#x220f;" horiz-adv-x="856" 
d="M113 613v87h741v-87h-119v-693h-107v693h-290v-693h-106v693h-119z" />
    <glyph glyph-name="Omega" unicode="&#x2126;" horiz-adv-x="836" 
d="M754 377c0 -148 -74 -243 -155 -292v-2c41 3 89 2 122 2h33v-85h-277v78c91 50 170 150 170 291c0 143 -81 257 -223 257c-143 0 -224 -114 -224 -257c0 -141 79 -241 170 -291v-78h-277v85h33c35 0 81 1 122 -2v2c-80 50 -155 144 -155 292c0 188 131 335 331 335
c199 0 330 -147 330 -335z" />
    <glyph glyph-name="radical" unicode="&#x221a;" 
d="M79 426v89h185l73 -236c16 -49 32 -101 53 -168h2l55 166l139 423h105l-250 -700h-107l-147 426h-108z" />
    <glyph glyph-name="lozenge" unicode="&#x25ca;" 
d="M386 700l222 -351l-222 -349h-73l-220 349l220 351h73zM350 603l-157 -254l157 -253l161 253z" />
    <glyph glyph-name="integral" unicode="&#x222b;" 
d="M428 518c-28 -159 -58 -317 -86 -476c-26 -145 -52 -217 -194 -217c-19 0 -37 3 -52 6l15 84c15 -3 29 -5 42 -5c59 0 76 56 84 107l91 503c22 118 47 193 168 193c24 0 53 -1 77 -8c-5 -27 -9 -54 -16 -82c-12 3 -27 4 -38 4c-65 0 -79 -55 -91 -109z" />
    <glyph glyph-name="mu" unicode="&#xb5;" horiz-adv-x="615" 
d="M424 515h102v-515h-98v78h-1c-25 -57 -82 -91 -150 -91c-38 0 -69 9 -94 26c1 -17 1 -42 1 -73v-19c0 -25 -2 -66 -11 -93h-103c13 44 14 98 14 166v521h101v-300c0 -99 38 -145 113 -145c85 0 126 62 126 178v267z" />
    <glyph glyph-name="partialdiff" unicode="&#x2202;" 
d="M297 507l-91 20c11 119 82 189 181 189c136 0 179 -128 179 -275c0 -251 -120 -454 -304 -454c-109 0 -165 74 -165 170c0 135 104 277 373 285v19c0 100 -22 179 -84 179c-41 0 -82 -33 -89 -133zM278 61c96 0 178 169 189 311c-167 -9 -263 -89 -263 -214
c0 -64 29 -97 74 -97z" />
    <glyph glyph-name="asciicircum" unicode="^" horiz-adv-x="524" 
d="M245 700h99l177 -330h-90l-97 186c-17 32 -32 63 -40 76l-137 -262h-89z" />
    <glyph glyph-name="asciitilde" unicode="~" 
d="M248 342h-69c11 67 52 103 107 103c27 0 47 -5 71 -12l12 -3c21 -5 42 -9 59 -9c23 0 39 9 46 27h69c-11 -65 -52 -103 -107 -103c-27 0 -47 7 -71 12l-12 3c-21 5 -40 9 -59 9c-23 0 -39 -9 -46 -27z" />
    <glyph glyph-name="pi" unicode="&#x3c0;" horiz-adv-x="697" 
d="M62 437v78h584v-78h-96v-296c0 -53 14 -67 61 -67c11 0 23 2 32 3v-76c-17 -1 -39 -4 -59 -4c-105 0 -138 19 -138 117v323h-183v-437h-104v437h-97z" />
    <glyph glyph-name="fraction" unicode="&#x2044;" horiz-adv-x="175" 
d="M332 700l-375 -700h-74l375 700h74z" />
    <glyph glyph-name="percent" unicode="%" horiz-adv-x="910" 
d="M219 282c-89 0 -134 66 -134 151c0 112 63 279 202 279c92 0 137 -63 137 -152c0 -113 -63 -278 -205 -278zM225 344c89 0 125 145 125 220c0 47 -18 85 -67 85c-89 0 -124 -145 -124 -221c0 -45 17 -84 66 -84zM661 -11c-89 0 -134 66 -134 151c0 112 63 279 202 279
c92 0 137 -63 137 -152c0 -113 -63 -278 -205 -278zM667 51c89 0 125 145 125 220c0 47 -18 85 -67 85c-89 0 -124 -145 -124 -221c0 -45 17 -84 66 -84zM707 700l-375 -700h-74l375 700h74z" />
    <glyph glyph-name="perthousand" unicode="&#x2030;" horiz-adv-x="1299" 
d="M1045 -11c-89 0 -134 66 -134 151c0 112 63 279 202 279c92 0 137 -63 137 -152c0 -113 -63 -278 -205 -278zM1051 51c89 0 125 145 125 220c0 47 -18 85 -67 85c-89 0 -124 -145 -124 -221c0 -45 17 -84 66 -84zM219 282c-89 0 -134 66 -134 151c0 112 63 279 202 279
c92 0 137 -63 137 -152c0 -113 -63 -278 -205 -278zM225 344c89 0 125 145 125 220c0 47 -18 85 -67 85c-89 0 -124 -145 -124 -221c0 -45 17 -84 66 -84zM661 -11c-89 0 -134 66 -134 151c0 112 63 279 202 279c92 0 137 -63 137 -152c0 -113 -63 -278 -205 -278zM667 51
c89 0 125 145 125 220c0 47 -18 85 -67 85c-89 0 -124 -145 -124 -221c0 -45 17 -84 66 -84zM707 700l-375 -700h-74l375 700h74z" />
    <glyph glyph-name="onehalf" unicode="&#xbd;" horiz-adv-x="791" 
d="M93 573l11 49c72 0 123 23 140 78h59l-89 -420h-71l62 293h-112zM516 270h-72c7 95 71 155 164 155c83 0 140 -43 140 -118c0 -69 -53 -117 -118 -152l-43 -23c-41 -21 -85 -43 -100 -72h224l-13 -60h-307c6 100 85 143 157 181l43 23c49 27 84 54 84 99
c0 37 -23 61 -71 61c-57 0 -85 -41 -88 -94zM609 700l-375 -700h-74l375 700h74z" />
    <glyph glyph-name="onequarter" unicode="&#xbc;" horiz-adv-x="748" 
d="M529 0l20 93h-205l14 68l255 259h76l-59 -268h63l-12 -59h-63l-20 -93h-69zM604 337c-23 -24 -47 -51 -82 -87l-54 -55c-21 -21 -38 -36 -45 -43h137c20 74 38 158 44 185zM93 573l11 49c72 0 123 23 140 78h59l-89 -420h-71l62 293h-112zM599 700l-375 -700h-74l375 700
h74z" />
    <glyph glyph-name="threequarters" unicode="&#xbe;" horiz-adv-x="838" 
d="M72 431h66c0 -3 -1 -6 -1 -9c0 -55 27 -83 81 -83c55 0 95 29 95 82c0 39 -32 59 -76 59h-32l11 54h26c43 0 95 13 95 66c0 39 -31 55 -70 55c-51 0 -81 -28 -89 -83h-68c8 87 72 140 161 140c75 0 135 -33 135 -105c0 -52 -32 -85 -79 -100c35 -13 56 -47 56 -86
c0 -90 -73 -139 -164 -139c-88 0 -144 39 -148 120c0 9 0 18 1 29zM623 0l20 93h-205l14 68l255 259h76l-59 -268h63l-12 -59h-63l-20 -93h-69zM698 337c-23 -24 -47 -51 -82 -87l-54 -55c-21 -21 -38 -36 -45 -43h137c20 74 38 158 44 185zM693 700l-375 -700h-74l375 700
h74z" />
    <glyph glyph-name="fiveeighths" unicode="&#x215d;" horiz-adv-x="909" 
d="M90 471l80 229h260l-13 -57h-200l-35 -98c20 13 46 21 79 21c80 0 139 -50 139 -127c0 -100 -73 -164 -181 -164c-91 0 -154 45 -154 132h72c7 -45 34 -76 87 -76c67 0 104 44 104 99c0 51 -36 82 -91 82c-41 0 -69 -18 -82 -41h-65zM782 216v-2c37 -16 61 -55 61 -94
c0 -86 -82 -130 -179 -130c-93 0 -161 45 -161 118c0 61 44 100 107 115v2c-31 15 -50 42 -50 82c0 72 67 113 156 113c83 0 148 -39 148 -106c0 -45 -33 -86 -82 -98zM714 366c-51 0 -85 -23 -85 -63s36 -61 80 -61c47 0 85 24 85 64c0 37 -33 60 -80 60zM675 190
c-53 0 -101 -28 -101 -75c0 -45 42 -71 95 -71c63 0 103 28 103 76s-46 70 -97 70zM697 700l-375 -700h-74l375 700h74z" />
    <glyph glyph-name="oneeighth" unicode="&#x215b;" horiz-adv-x="815" 
d="M93 573l11 49c72 0 123 23 140 78h59l-89 -420h-71l62 293h-112zM685 216v-2c37 -16 61 -55 61 -94c0 -86 -82 -130 -179 -130c-93 0 -161 45 -161 118c0 61 44 100 107 115v2c-31 15 -50 42 -50 82c0 72 67 113 156 113c83 0 148 -39 148 -106c0 -45 -33 -86 -82 -98z
M617 366c-51 0 -85 -23 -85 -63s36 -61 80 -61c47 0 85 24 85 64c0 37 -33 60 -80 60zM578 190c-53 0 -101 -28 -101 -75c0 -45 42 -71 95 -71c63 0 103 28 103 76s-46 70 -97 70zM600 700l-375 -700h-74l375 700h74z" />
    <glyph glyph-name="onethird" unicode="&#x2153;" horiz-adv-x="794" 
d="M414 138h66c0 -3 -1 -6 -1 -9c0 -55 27 -83 81 -83c55 0 95 29 95 82c0 39 -32 59 -76 59h-32l11 54h26c43 0 95 13 95 66c0 39 -31 55 -70 55c-51 0 -81 -28 -89 -83h-68c8 87 72 140 161 140c75 0 135 -33 135 -105c0 -52 -32 -85 -79 -100c35 -13 56 -47 56 -86
c0 -90 -73 -139 -164 -139c-88 0 -144 39 -148 120c0 9 0 18 1 29zM93 573l11 49c72 0 123 23 140 78h59l-89 -420h-71l62 293h-112zM599 700l-375 -700h-74l375 700h74z" />
    <glyph glyph-name="threeeighths" unicode="&#x215c;" horiz-adv-x="905" 
d="M72 431h66c0 -3 -1 -6 -1 -9c0 -55 27 -83 81 -83c55 0 95 29 95 82c0 39 -32 59 -76 59h-32l11 54h26c43 0 95 13 95 66c0 39 -31 55 -70 55c-51 0 -81 -28 -89 -83h-68c8 87 72 140 161 140c75 0 135 -33 135 -105c0 -52 -32 -85 -79 -100c35 -13 56 -47 56 -86
c0 -90 -73 -139 -164 -139c-88 0 -144 39 -148 120c0 9 0 18 1 29zM778 216v-2c37 -16 61 -55 61 -94c0 -86 -82 -130 -179 -130c-93 0 -161 45 -161 118c0 61 44 100 107 115v2c-31 15 -50 42 -50 82c0 72 67 113 156 113c83 0 148 -39 148 -106c0 -45 -33 -86 -82 -98z
M710 366c-51 0 -85 -23 -85 -63s36 -61 80 -61c47 0 85 24 85 64c0 37 -33 60 -80 60zM671 190c-53 0 -101 -28 -101 -75c0 -45 42 -71 95 -71c63 0 103 28 103 76s-46 70 -97 70zM693 700l-375 -700h-74l375 700h74z" />
    <glyph glyph-name="seveneighths" unicode="&#x215e;" horiz-adv-x="815" 
d="M107 640l13 60h318l-12 -55c-90 -66 -210 -218 -244 -365h-76c36 131 115 259 235 360h-234zM685 216v-2c37 -16 61 -55 61 -94c0 -86 -82 -130 -179 -130c-93 0 -161 45 -161 118c0 61 44 100 107 115v2c-31 15 -50 42 -50 82c0 72 67 113 156 113
c83 0 148 -39 148 -106c0 -45 -33 -86 -82 -98zM617 366c-51 0 -85 -23 -85 -63s36 -61 80 -61c47 0 85 24 85 64c0 37 -33 60 -80 60zM578 190c-53 0 -101 -28 -101 -75c0 -45 42 -71 95 -71c63 0 103 28 103 76s-46 70 -97 70zM600 700l-375 -700h-74l375 700h74z" />
    <glyph glyph-name="twothirds" unicode="&#x2154;" horiz-adv-x="920" 
d="M180 555h-72c7 95 71 155 164 155c83 0 140 -43 140 -118c0 -69 -53 -117 -118 -152l-43 -23c-41 -21 -85 -43 -100 -72h224l-13 -60h-307c6 100 85 143 157 181l43 23c49 27 84 54 84 99c0 37 -23 61 -71 61c-57 0 -85 -41 -88 -94zM544 138h66c0 -3 -1 -6 -1 -9
c0 -55 27 -83 81 -83c55 0 95 29 95 82c0 39 -32 59 -76 59h-32l11 54h26c43 0 95 13 95 66c0 39 -31 55 -70 55c-51 0 -81 -28 -89 -83h-68c8 87 72 140 161 140c75 0 135 -33 135 -105c0 -52 -32 -85 -79 -100c35 -13 56 -47 56 -86c0 -90 -73 -139 -164 -139
c-88 0 -144 39 -148 120c0 9 0 18 1 29zM729 700l-375 -700h-74l375 700h74z" />
    <glyph glyph-name="arrowleft" unicode="&#x2190;" horiz-adv-x="664" 
d="M615 299v-87h-311c-33 0 -66 1 -109 2c29 -31 73 -73 114 -116l87 -88h-119l-116 123c-40 43 -83 86 -118 123c36 37 78 81 118 124l116 123h119l-87 -88c-49 -49 -81 -87 -114 -118c32 0 76 2 109 2h311z" />
    <glyph glyph-name="uni2196" unicode="&#x2196;" horiz-adv-x="612" 
d="M482 50l-186 185c-36 36 -80 84 -115 117c1 -45 0 -96 0 -167v-124l-83 82l5 169c3 59 4 119 4 172c52 3 112 1 172 2l169 5l81 -82h-124c-59 0 -121 1 -164 2c47 -45 81 -78 117 -114l185 -185z" />
    <glyph glyph-name="arrowup" unicode="&#x2191;" horiz-adv-x="593" 
d="M258 -13v262c0 51 2 116 2 163c-31 -32 -68 -66 -119 -117l-88 -87v116l123 116c43 40 87 81 124 118c39 -35 80 -78 123 -119l123 -116v-115l-88 87c-41 43 -83 89 -115 117c1 -64 2 -112 2 -163v-262h-87z" />
    <glyph glyph-name="uni2197" unicode="&#x2197;" horiz-adv-x="612" 
d="M134 50l-61 62l185 185c36 36 72 69 117 114c-43 -1 -105 -2 -164 -2h-124l81 82l169 -5c60 -1 120 1 172 -2c0 -53 3 -113 4 -172l5 -169l-83 -82v124c0 71 -1 122 0 167l-115 -117z" />
    <glyph glyph-name="arrowright" unicode="&#x2192;" horiz-adv-x="663" 
d="M49 299h311c33 0 77 -2 109 -2c-33 31 -65 69 -114 118l-87 88h119l116 -123c40 -43 82 -87 118 -124c-35 -37 -78 -80 -118 -123l-116 -123h-119l87 88c43 43 85 85 114 116c-43 -1 -74 -2 -109 -2h-311v87z" />
    <glyph glyph-name="uni2198" unicode="&#x2198;" horiz-adv-x="612" 
d="M137 491l186 -185l115 -117c-1 45 0 96 0 167v124l83 -82l-5 -169c-1 -59 -4 -119 -4 -172l-172 -2l-169 -5l-81 82h124c59 0 121 -1 164 -2c-45 45 -81 78 -117 114l-185 185z" />
    <glyph glyph-name="arrowdown" unicode="&#x2193;" horiz-adv-x="591" 
d="M253 536h87v-262c0 -51 -1 -99 -2 -163c32 28 74 76 115 117l88 87v-115l-123 -116c-43 -41 -84 -84 -123 -119c-37 37 -81 78 -124 118l-123 116v116l88 -87c51 -49 88 -85 119 -117c0 47 -2 114 -2 163v262z" />
    <glyph glyph-name="uni2199" unicode="&#x2199;" horiz-adv-x="612" 
d="M483 491l61 -62l-185 -185c-36 -36 -70 -69 -117 -114c43 1 105 2 164 2h124l-81 -82l-169 5l-172 2c0 53 -1 113 -4 172l-5 169l83 82v-124c0 -71 1 -122 0 -167c35 33 79 81 115 117z" />
    <glyph glyph-name="arrowleft.case" horiz-adv-x="671" 
d="M645 412v-87h-311c-33 0 -66 1 -109 2c29 -31 73 -73 114 -116l87 -88h-119l-116 123c-40 43 -83 86 -118 123c36 37 78 81 118 124l116 123h119l-87 -88c-49 -49 -81 -87 -114 -118c32 0 76 2 109 2h311z" />
    <glyph glyph-name="uni2196.case" horiz-adv-x="590" 
d="M494 163l-186 185c-36 36 -80 84 -115 117c1 -45 0 -96 0 -167v-124l-83 82l5 169c3 59 4 119 4 172c52 3 112 1 172 2l169 5l81 -82h-124c-59 0 -121 1 -164 2c47 -45 81 -78 117 -114l185 -185z" />
    <glyph glyph-name="arrowup.case" horiz-adv-x="597" 
d="M285 100v262c0 51 2 116 2 163c-31 -32 -68 -66 -119 -117l-88 -87v116l123 116c43 40 87 81 124 118c39 -35 80 -78 123 -119l123 -116v-115l-88 87c-41 43 -83 89 -115 117c1 -64 2 -112 2 -163v-262h-87z" />
    <glyph glyph-name="uni2197.case" horiz-adv-x="562" 
d="M133 163l-61 62l185 185c36 36 72 69 117 114c-43 -1 -105 -2 -164 -2h-124l81 82l169 -5c60 -1 120 1 172 -2c0 -53 3 -113 4 -172l5 -169l-83 -82v124c0 71 -1 122 0 167l-115 -117z" />
    <glyph glyph-name="arrowright.case" horiz-adv-x="672" 
d="M76 412h311c33 0 77 -2 109 -2c-33 31 -65 69 -114 118l-87 88h119l116 -123c40 -43 82 -87 118 -124c-35 -37 -78 -80 -118 -123l-116 -123h-119l87 88c43 43 85 85 114 116c-43 -1 -74 -2 -109 -2h-311v87z" />
    <glyph glyph-name="uni2198.case" horiz-adv-x="591" 
d="M151 604l186 -185l115 -117c-1 45 0 96 0 167v124l83 -82l-5 -169c-1 -59 -4 -119 -4 -172l-172 -2l-169 -5l-81 82h124c59 0 121 -1 164 -2c-45 45 -81 78 -117 114l-185 185z" />
    <glyph glyph-name="arrowdown.case" horiz-adv-x="598" 
d="M281 649h87v-262c0 -51 -1 -99 -2 -163c32 28 74 76 115 117l88 87v-115l-123 -116c-43 -41 -84 -84 -123 -119c-37 37 -81 78 -124 118l-123 116v116l88 -87c51 -49 88 -85 119 -117c0 47 -2 114 -2 163v262z" />
    <glyph glyph-name="uni2199.case" horiz-adv-x="562" 
d="M482 604l61 -62l-185 -185c-36 -36 -70 -69 -117 -114c43 1 105 2 164 2h124l-81 -82l-169 5l-172 2c0 53 -1 113 -4 172l-5 169l83 82v-124c0 -71 1 -122 0 -167c35 33 79 81 115 117z" />
    <glyph glyph-name="uni1E9E" unicode="&#x1e9e;" horiz-adv-x="684" 
d="M333 352l17 76l207 184v1c-29 0 -77 -1 -112 -1h-179l-130 -612h-109l148 700h524l-18 -84l-215 -190c103 -19 167 -89 167 -188c0 -158 -110 -248 -267 -248c-41 0 -95 8 -128 21l38 84c19 -9 53 -20 86 -20c90 0 165 52 165 153c0 87 -72 126 -156 126
c-11 0 -26 -1 -38 -2z" />
    <glyph glyph-name="uni03BC" unicode="&#x3bc;" horiz-adv-x="604" 
d="M421 515h102v-515h-98v78h-1c-25 -57 -82 -91 -150 -91c-38 0 -69 9 -94 26c1 -17 1 -42 1 -73v-19c0 -25 -2 -66 -11 -93h-103c13 44 14 98 14 166v521h101v-300c0 -99 38 -145 113 -145c85 0 126 62 126 178v267z" />
    <glyph glyph-name="uni03A9" unicode="&#x3a9;" horiz-adv-x="796" 
d="M735 377c0 -148 -74 -243 -155 -292v-2c41 3 89 2 122 2h33v-85h-277v78c91 50 170 150 170 291c0 143 -81 257 -223 257c-143 0 -224 -114 -224 -257c0 -141 79 -241 170 -291v-78h-277v85h33c35 0 81 1 122 -2v2c-80 50 -155 144 -155 292c0 188 131 335 331 335
c199 0 330 -147 330 -335z" />
    <glyph glyph-name="uni0394" unicode="&#x394;" horiz-adv-x="645" 
d="M-19 0l263 700h115l261 -700h-639zM252 459l-129 -370h358l-133 369c-25 68 -39 113 -47 142h-2c-11 -31 -24 -78 -47 -141z" />
    <glyph glyph-name="uni2015" unicode="&#x2015;" horiz-adv-x="1120" 
d="M57 239l19 91h1000l-19 -91h-1000z" />
    </font>
</defs>
</svg>
