<?xml version="1.0" encoding="utf-8"?>
<!-- Generator: Adobe Illustrator 25.2.3, SVG Export Plug-In . SVG Version: 6.00 Build 0)  -->
<svg version="1.1" id="Layer_1" xmlns="http://www.w3.org/2000/svg" xmlns:xlink="http://www.w3.org/1999/xlink" x="0px" y="0px"
	 viewBox="0 0 800 120" style="enable-background:new 0 0 800 120;" xml:space="preserve">
<style type="text/css">
	.st0{fill:#FFFFFF;}
</style>
<desc>Created with Sketch.</desc>
<g id="Desktop">
	<g id="Group-4" transform="translate(11.000000, 26.000000)">
		<g id="TOP-ROW">
			<g id="ipad" transform="translate(0.000000, 1.000000)">
				<path id="Shape" class="st0" d="M16.4,15.5c-0.3,0.7-0.7,1.3-1.1,1.9c-0.6,0.8-1,1.3-1.4,1.7c-0.6,0.5-1.1,0.8-1.8,0.8
					c-0.4,0-1-0.1-1.6-0.4c-0.6-0.3-1.2-0.4-1.8-0.4c-0.6,0-1.2,0.1-1.8,0.4c-0.7,0.3-1.2,0.4-1.6,0.4c-0.6,0-1.2-0.2-1.8-0.8
					c-0.4-0.3-0.9-0.9-1.4-1.7c-0.6-0.9-1.1-1.9-1.5-3C0.2,13.1,0,11.9,0,10.7c0-1.3,0.3-2.5,0.9-3.4c0.4-0.8,1.1-1.4,1.8-1.8
					C3.4,5,4.2,4.8,5.1,4.8c0.5,0,1.1,0.1,1.9,0.4c0.8,0.3,1.3,0.4,1.5,0.4c0.2,0,0.7-0.2,1.7-0.5c0.9-0.3,1.7-0.4,2.3-0.4
					c1.7,0.1,2.9,0.8,3.8,2c-1.5,0.9-2.2,2.2-2.2,3.8c0,1.3,0.5,2.3,1.4,3.2c0.4,0.4,0.9,0.7,1.4,0.9C16.6,14.9,16.5,15.2,16.4,15.5
					L16.4,15.5z M12.6,0.4c0,1-0.4,1.9-1.1,2.8c-0.9,1-1.9,1.6-3.1,1.5c0-0.1,0-0.2,0-0.4c0-1,0.4-2,1.1-2.8
					c0.4-0.4,0.8-0.8,1.4-1.1C11.5,0.2,12,0.1,12.6,0C12.5,0.1,12.6,0.3,12.6,0.4L12.6,0.4z"/>
				<g id="Group" transform="translate(19.310345, 1.724138)">
					<path id="Shape_1_" class="st0" d="M0.1,1.7c0-0.8,0.7-1.5,1.5-1.5s1.5,0.7,1.5,1.5c0,0.8-0.7,1.5-1.5,1.5S0.1,2.5,0.1,1.7z
						 M0.3,5.2h2.6V18H0.3V5.2z"/>
					<path id="Shape_2_" class="st0" d="M11.9,0.5c3.4,0,5.8,2.3,5.8,5.8S15.2,12,11.8,12H8v6H5.3V0.5H11.9z M8,9.8h3.1
						c2.4,0,3.7-1.3,3.7-3.5s-1.3-3.5-3.7-3.5H8V9.8z"/>
					<path id="Shape_3_" class="st0" d="M17.6,14.4c0-2.2,1.7-3.6,4.7-3.8l3.5-0.2v-1c0-1.4-1-2.3-2.6-2.3c-1.5,0-2.4,0.7-2.7,1.9
						H18c0.1-2.3,2.1-4,5.3-4c3.1,0,5.1,1.6,5.1,4.2V18h-2.5v-2.1h-0.1c-0.7,1.4-2.3,2.3-4,2.3C19.3,18.2,17.6,16.7,17.6,14.4z
						 M25.8,13.2v-1l-3.1,0.2c-1.6,0.1-2.4,0.8-2.4,1.9s0.9,1.8,2.3,1.8C24.3,16.1,25.8,14.9,25.8,13.2z"/>
					<path id="Shape_4_" class="st0" d="M29.7,11.6c0-4,2.1-6.6,5.3-6.6c1.8,0,3.3,0.9,4,2.3h0V0.5h2.6V18h-2.6v-2.2h0
						c-0.8,1.4-2.2,2.4-4.1,2.4C31.9,18.2,29.7,15.7,29.7,11.6z M32.4,11.6c0,2.7,1.3,4.4,3.4,4.4c2,0,3.3-1.7,3.3-4.4
						s-1.3-4.4-3.3-4.4C33.7,7.2,32.4,9,32.4,11.6z"/>
				</g>
			</g>
			<g id="android" transform="translate(283.000000, 1.000000)">
				<path id="Shape_5_" class="st0" d="M0,12.5c0-1,0.2-2,0.5-2.9C0.9,8.7,1.4,7.9,2,7.3s1.4-1.2,2.3-1.6c0.9-0.4,1.8-0.6,2.9-0.6
					c0.8,0,1.5,0.1,2.2,0.4s1.3,0.6,1.9,1.1V5.4h3.5v14.3h-3.5v-1.2c-0.6,0.5-1.2,0.9-1.9,1.1C8.6,19.9,7.9,20,7.1,20
					c-1,0-2-0.2-2.9-0.6C3.4,19,2.6,18.5,2,17.8c-0.6-0.7-1.1-1.5-1.5-2.4C0.2,14.6,0,13.6,0,12.5z M7.6,16.6c0.3,0,0.6,0,0.9-0.1
					c0.3-0.1,0.6-0.2,0.9-0.3c0.3-0.1,0.6-0.3,0.9-0.6s0.6-0.5,0.9-0.9v-4.5c-0.3-0.4-0.6-0.7-0.9-0.9C10,9.2,9.7,9,9.4,8.8
					S8.7,8.6,8.4,8.5C8.1,8.5,7.8,8.4,7.6,8.4C7,8.4,6.5,8.5,6,8.7S5.1,9.2,4.8,9.6C4.4,10,4.2,10.4,4,10.9s-0.3,1-0.3,1.6
					c0,0.6,0.1,1.1,0.3,1.6s0.5,0.9,0.8,1.3c0.4,0.4,0.8,0.7,1.2,0.9C6.5,16.5,7,16.6,7.6,16.6L7.6,16.6z M23.5,8.6
					c-1.7,0-3.1,1.2-3.1,2.9v8.2h-3.5v-8.1c0-3.4,2.9-6.5,6.6-6.6h0.1c3.7,0,6.6,3.2,6.6,6.6v8.1h-3.5v-8.1
					C26.6,9.8,25.2,8.6,23.5,8.6 M31.9,12.5c0-1,0.2-2,0.5-2.9c0.3-0.9,0.8-1.7,1.5-2.4c0.6-0.7,1.4-1.2,2.3-1.6
					C37,5.3,37.9,5.1,39,5.1c0.8,0,1.5,0.1,2.2,0.4c0.6,0.2,1.3,0.6,1.9,1.1V1.1h3.5v18.6H43v-1.2c-0.6,0.5-1.2,0.9-1.9,1.1
					C40.5,19.9,39.7,20,39,20c-1,0-2-0.2-2.9-0.6c-0.9-0.4-1.6-0.9-2.3-1.6c-0.6-0.7-1.1-1.5-1.5-2.4C32,14.6,31.9,13.6,31.9,12.5z
					 M39.4,16.6c0.3,0,0.6,0,0.9-0.1c0.3-0.1,0.6-0.2,0.9-0.3c0.3-0.1,0.6-0.3,0.9-0.6s0.6-0.5,0.9-0.9v-4.5
					c-0.3-0.4-0.6-0.7-0.9-0.9c-0.3-0.2-0.6-0.4-0.9-0.6c-0.3-0.1-0.6-0.3-0.9-0.3c-0.3-0.1-0.6-0.1-0.9-0.1c-0.5,0-1.1,0.1-1.5,0.3
					S37,9.2,36.6,9.6c-0.4,0.4-0.6,0.8-0.8,1.3c-0.2,0.5-0.3,1-0.3,1.6c0,0.6,0.1,1.1,0.3,1.6c0.2,0.5,0.5,0.9,0.8,1.3
					c0.4,0.4,0.8,0.7,1.2,0.9C38.4,16.5,38.9,16.6,39.4,16.6L39.4,16.6z M63.1,16.6c0.5,0,1-0.1,1.5-0.3c0.5-0.2,0.9-0.5,1.2-0.8
					c0.3-0.4,0.6-0.8,0.8-1.3c0.2-0.5,0.3-1.1,0.3-1.7c0-0.6-0.1-1.1-0.3-1.6c-0.2-0.5-0.5-0.9-0.8-1.3C65.4,9.2,65,9,64.6,8.8
					c-0.5-0.2-1-0.3-1.5-0.3c-0.5,0-1,0.1-1.5,0.3c-0.5,0.2-0.9,0.5-1.2,0.9c-0.3,0.4-0.6,0.8-0.8,1.3c-0.2,0.5-0.3,1-0.3,1.6
					c0,0.6,0.1,1.2,0.3,1.7c0.2,0.5,0.5,0.9,0.8,1.3c0.3,0.4,0.8,0.7,1.2,0.8C62,16.5,62.6,16.6,63.1,16.6z M63.1,20
					c-1,0-2-0.2-2.9-0.6c-0.9-0.4-1.7-0.9-2.4-1.6c-0.7-0.7-1.2-1.5-1.6-2.4c-0.4-0.9-0.6-1.9-0.6-3c0-1,0.2-2,0.6-2.9
					c0.4-0.9,0.9-1.7,1.6-2.4c0.7-0.7,1.5-1.2,2.4-1.6c0.9-0.4,1.9-0.6,2.9-0.6s2,0.2,2.9,0.6c0.9,0.4,1.7,0.9,2.4,1.6
					s1.2,1.5,1.6,2.4c0.4,0.9,0.6,1.9,0.6,2.9c0,1.1-0.2,2.1-0.6,3c-0.4,0.9-0.9,1.7-1.6,2.4c-0.7,0.7-1.5,1.2-2.4,1.6
					C65.1,19.8,64.1,20,63.1,20z M73.9,4.3c-0.3,0-0.6-0.1-0.8-0.2c-0.3-0.1-0.5-0.3-0.7-0.5C72.3,3.4,72.1,3.2,72,3
					c-0.1-0.3-0.2-0.5-0.2-0.8c0-0.3,0.1-0.6,0.2-0.8c0.1-0.3,0.3-0.5,0.5-0.7c0.2-0.2,0.4-0.3,0.7-0.5C73.4,0.1,73.7,0,73.9,0
					c0.3,0,0.6,0.1,0.8,0.2c0.3,0.1,0.5,0.3,0.7,0.5c0.2,0.2,0.3,0.4,0.5,0.7c0.1,0.3,0.2,0.5,0.2,0.8S76,2.7,75.9,3
					c-0.1,0.3-0.3,0.5-0.5,0.7C75.2,3.8,75,4,74.8,4.1C74.5,4.2,74.2,4.3,73.9,4.3L73.9,4.3z M72.2,5.4h3.5v14.3h-3.5V5.4L72.2,5.4z
					 M77.3,12.5c0-1,0.2-2,0.5-2.9c0.3-0.9,0.8-1.7,1.5-2.4c0.6-0.7,1.4-1.2,2.3-1.6c0.9-0.4,1.8-0.6,2.9-0.6c0.8,0,1.5,0.1,2.2,0.4
					s1.3,0.6,1.9,1.1V1.1H92v18.6h-3.5v-1.2c-0.6,0.5-1.2,0.9-1.9,1.1S85.2,20,84.4,20c-1,0-2-0.2-2.9-0.6c-0.9-0.4-1.6-0.9-2.3-1.6
					c-0.6-0.7-1.1-1.5-1.5-2.4C77.5,14.6,77.3,13.6,77.3,12.5z M84.9,16.6c0.3,0,0.6,0,0.9-0.1c0.3-0.1,0.6-0.2,0.9-0.3
					c0.3-0.1,0.6-0.3,0.9-0.6c0.3-0.2,0.6-0.5,0.9-0.9v-4.5c-0.3-0.4-0.6-0.7-0.9-0.9C87.3,9.2,87,9,86.7,8.8
					c-0.3-0.1-0.6-0.3-0.9-0.3c-0.3-0.1-0.6-0.1-0.9-0.1c-0.5,0-1.1,0.1-1.5,0.3c-0.5,0.2-0.9,0.5-1.2,0.9c-0.4,0.4-0.6,0.8-0.8,1.3
					c-0.2,0.5-0.3,1-0.3,1.6c0,0.6,0.1,1.1,0.3,1.6c0.2,0.5,0.5,0.9,0.8,1.3c0.4,0.4,0.8,0.7,1.2,0.9C83.8,16.5,84.3,16.6,84.9,16.6
					L84.9,16.6z M55.2,8.6c-2.4,0-3.4,1.2-3.4,3v8.2h-3.5v-8.1c0-3.4,1.9-6.7,7-6.7"/>
			</g>
			<g id="apple-tv" transform="translate(209.000000, 0.000000)">
				<path id="Shape_6_" class="st0" d="M26,1.8v3.4h4.3v1.2H26v10.1c0,1,0.2,1.8,0.5,2.4c0.3,0.5,0.9,0.8,1.7,0.8c0.4,0,0.7,0,1-0.1
					c0.3,0,0.5-0.1,0.7-0.2l0.2,1.2c-0.5,0.2-1.2,0.4-2.1,0.4c-0.7,0-1.3-0.1-1.8-0.4c-0.5-0.2-0.8-0.6-1.1-1
					c-0.3-0.4-0.5-0.9-0.6-1.5c-0.1-0.6-0.2-1.2-0.2-1.9V6.5h-2.6V5.2h2.6V2.4L26,1.8L26,1.8z M32.9,5.2l3.6,9.6
					c0.3,0.8,0.6,1.5,0.8,2.1c0.2,0.7,0.5,1.3,0.7,2H38c0.2-0.6,0.4-1.3,0.7-1.9c0.2-0.7,0.5-1.4,0.8-2.1l3.6-9.6h1.6l-6.2,15.4
					h-1.3l-6-15.4H32.9z"/>
				<path id="Shape_7_" class="st0" d="M9.6,1.8C11,0,12.9,0,12.9,0s0.3,1.7-1.1,3.4c-1.5,1.8-3.2,1.5-3.2,1.5S8.3,3.4,9.6,1.8
					L9.6,1.8z M8.8,6c0.7,0,2.1-1,3.8-1c3,0,4.2,2.1,4.2,2.1s-2.3,1.2-2.3,4c0,3.2,2.9,4.3,2.9,4.3s-2,5.6-4.7,5.6
					c-1.2,0-2.2-0.8-3.5-0.8c-1.3,0-2.7,0.9-3.5,0.9C3.1,21,0,15.7,0,11.5c0-4.2,2.6-6.4,5.1-6.4C6.7,5.1,8,6,8.8,6z"/>
			</g>
			<g id="iphone" transform="translate(91.000000, 1.000000)">
				<path id="Shape_8_" class="st0" d="M16.4,15.5c-0.3,0.7-0.7,1.3-1.1,1.9c-0.6,0.8-1,1.4-1.4,1.7c-0.5,0.5-1.1,0.8-1.8,0.8
					c-0.5,0-1-0.1-1.6-0.4C9.9,19.2,9.3,19,8.8,19c-0.6,0-1.2,0.1-1.8,0.4s-1.2,0.4-1.6,0.4c-0.6,0-1.2-0.2-1.8-0.8
					c-0.4-0.3-0.9-0.9-1.4-1.7c-0.6-0.9-1.1-1.9-1.5-3C0.2,13.1,0,11.9,0,10.7c0-1.3,0.3-2.5,0.9-3.4c0.5-0.8,1.1-1.4,1.8-1.8
					s1.6-0.7,2.4-0.7c0.5,0,1.1,0.1,1.9,0.4c0.8,0.3,1.3,0.4,1.5,0.4c0.2,0,0.7-0.2,1.7-0.5c0.9-0.3,1.6-0.5,2.3-0.4
					c1.7,0.1,2.9,0.8,3.8,2C14.7,7.6,14,8.9,14,10.5c0,1.3,0.5,2.3,1.4,3.2c0.4,0.4,0.9,0.7,1.4,0.9C16.6,14.9,16.5,15.2,16.4,15.5
					L16.4,15.5z M12.5,0.4c0,1-0.4,1.9-1.1,2.8c-0.9,1-1.9,1.6-3.1,1.5c0-0.1,0-0.2,0-0.4c0-1,0.4-2,1.2-2.8
					c0.4-0.4,0.8-0.8,1.4-1.1C11.5,0.2,12,0,12.5,0C12.5,0.1,12.5,0.3,12.5,0.4L12.5,0.4z"/>
				<g id="Group_1_" transform="translate(19.310345, 1.724138)">
					<path id="Shape_9_" class="st0" d="M0.1,1.7c0-0.8,0.7-1.5,1.5-1.5s1.5,0.7,1.5,1.5c0,0.8-0.7,1.5-1.5,1.5S0.1,2.5,0.1,1.7z
						 M0.3,5.3h2.6V18H0.3V5.3L0.3,5.3z"/>
					<path id="Shape_10_" class="st0" d="M11.9,0.5c3.4,0,5.8,2.3,5.8,5.7c0,3.4-2.4,5.8-5.8,5.8H8v6H5.3V0.5H11.9z M8,9.7h3.1
						c2.4,0,3.7-1.3,3.7-3.5s-1.3-3.5-3.7-3.5H8L8,9.7L8,9.7z"/>
					<path id="Path" class="st0" d="M19.2,0.5h2.6v6.9h0.1c0.7-1.5,2.1-2.4,4-2.4c2.8,0,4.5,1.9,4.5,4.8V18h-2.6v-7.7
						c0-1.9-0.9-3-2.8-3c-1.9,0-3.1,1.3-3.1,3.3V18h-2.6V0.5L19.2,0.5z"/>
					<path id="Shape_11_" class="st0" d="M31.7,11.6c0-4.1,2.4-6.6,6-6.6c3.6,0,6,2.5,6,6.6c0,4.1-2.4,6.6-6,6.6
						C34.1,18.2,31.7,15.7,31.7,11.6z M41.1,11.6c0-2.8-1.3-4.4-3.4-4.4c-2,0-3.4,1.6-3.4,4.4c0,2.8,1.3,4.5,3.4,4.5
						C39.8,16.1,41.1,14.5,41.1,11.6z"/>
					<path id="Path_1_" class="st0" d="M45.2,5.3h2.5v2.1h0.1c0.7-1.5,2-2.4,4-2.4c2.8,0,4.4,1.8,4.4,4.7V18h-2.6v-7.7
						c0-1.9-0.9-3-2.7-3c-1.8,0-3,1.3-3,3.3V18h-2.6V5.3L45.2,5.3z"/>
					<path id="Shape_12_" class="st0" d="M69,14.3c-0.4,2.3-2.6,4-5.5,4c-3.7,0-6-2.5-6-6.6c0-4,2.3-6.7,5.9-6.7
						c3.5,0,5.7,2.5,5.7,6.4v0.9h-9v0.2c0,2.2,1.3,3.7,3.4,3.7c1.5,0,2.6-0.8,2.9-1.9L69,14.3L69,14.3z M60.1,10.5h6.4
						c-0.1-2-1.3-3.3-3.1-3.3C61.6,7.1,60.3,8.5,60.1,10.5z"/>
				</g>
			</g>
			<g id="android-tv" transform="translate(404.000000, 1.000000)">
				
					<g id="g33668" transform="translate(62.500000, 11.000000) scale(-1, 1) rotate(-180.000000) translate(-62.500000, -11.000000) translate(0.000000, 0.458333)">
					<g id="g33674" transform="translate(0.219703, 0.661020)">
						<path id="path33676" class="st0" d="M8.2,3.7C5.9,3.7,4,5.4,4,7.6c0,2.1,1.9,3.9,4.2,3.9c1.5,0,3.1-0.7,3.7-1.8
							C12,9.6,12,9.5,12,9.4V5.9c0-0.1,0-0.2-0.1-0.3C11.2,4.4,9.8,3.7,8.2,3.7 M15.8,0.7v13.9H12v-1.1c-1,0.9-2.5,1.4-4.2,1.4
							c-4.3,0-7.5-3.2-7.5-7.2c0-4,3.3-7.3,7.5-7.3c1.8,0,3.2,0.5,4.2,1.5V0.7H15.8z M32,0.7v7.5c0,3.7-3.1,6.7-7.1,6.7
							c-4,0-7.1-3-7.1-6.7V0.7h3.7v7.5c0,1.8,1.4,3.2,3.4,3.2s3.4-1.4,3.4-3.2V0.7H32z M41.5,3.7c-2.3,0-4.2,1.8-4.2,4
							c0,2.1,1.9,3.9,4.2,3.9c1.5,0,3-0.7,3.7-1.8c0-0.1,0.1-0.2,0.1-0.3V5.9c0-0.1,0-0.2-0.1-0.2C44.6,4.4,43.1,3.7,41.5,3.7
							 M49.1,0.7v18.1h-3.7v-5.3c-1,0.9-2.5,1.5-4.2,1.5c-4.3,0-7.5-3.2-7.5-7.2c0-4,3.3-7.3,7.5-7.3c1.7,0,3.2,0.5,4.2,1.5V0.7
							H49.1z M54.8,0.7v7.4c0,2.2,1.3,3.4,3.7,3.4v3.4c-4.8,0-7.4-2.4-7.4-6.7V0.7H54.8z M66.7,3.8c-2.3,0-4.1,1.7-4.1,3.8
							s1.8,3.8,4.1,3.8c2.3,0,4.1-1.7,4.1-3.8C70.8,5.5,69,3.8,66.7,3.8 M66.7,0.4c4.4,0,7.9,3.2,7.9,7.3c0,4-3.6,7.2-7.9,7.2
							c-4.4,0-7.9-3.2-7.9-7.2C58.7,3.6,62.3,0.4,66.7,0.4 M78.1,15.6c1.2,0,2.2,0.9,2.2,2c0,1.1-1,2-2.2,2c-1.2,0-2.2-0.9-2.2-2
							C76,16.5,77,15.6,78.1,15.6 M80,14.6h-3.7V0.7H80V14.6z M89.7,3.7c-2.3,0-4.2,1.8-4.2,4c0,2.1,1.9,3.9,4.2,3.9
							c1.5,0,3-0.7,3.7-1.8c0-0.1,0.1-0.2,0.1-0.3V5.9c0-0.1,0-0.2-0.1-0.2C92.7,4.4,91.3,3.7,89.7,3.7 M97.2,0.7v18.1h-3.7v-5.3
							c-1,0.9-2.5,1.5-4.2,1.5c-4.3,0-7.5-3.2-7.5-7.2c0-4,3.3-7.3,7.5-7.3c1.7,0,3.2,0.5,4.2,1.5V0.7H97.2L97.2,0.7z"/>
					</g>
					<g id="g33678" transform="translate(100.030184, 0.749164)">
						<path id="path33680" class="st0" d="M17.1,0.6l6.1,13.9h-3.1l-5-12.1h1l-5,12H8l6.1-13.9H17.1z M7.2,0.4l0,2.5H6.9
							c-2.2,0-3.7,1.2-3.7,3.3v6.1h3.9v2.3h-4v3.8H0.4V6.1c0-3.6,2.5-5.7,6.5-5.7H7.2z"/>
					</g>
				</g>
			</g>
			<g id="chromecast" transform="translate(556.000000, 2.000000)">
				<path id="Shape_13_" class="st0" d="M28,11.3c0-2.4,1.7-4.2,4-4.2c1.9,0,2.9,1.1,3.4,2.2L34.1,10C33.8,9,33,8.5,31.9,8.5
					c-1.3,0-2.4,1.1-2.4,2.9c0,1.7,1.2,2.9,2.4,2.9c1.1,0,1.9-0.6,2.3-1.5l1.3,0.6c-0.5,1.1-1.6,2.2-3.5,2.2
					C29.7,15.5,28,13.6,28,11.3z M38.1,7.4L38,8.5h0.1c0.4-0.7,1.4-1.3,2.5-1.3c2,0,3,1.3,3,3.3v4.8h-1.5v-4.6
					c0-1.6-0.8-2.2-1.9-2.2c-1.3,0-2.1,1.2-2.1,2.4v4.3h-1.5V3.8h1.5V7.4L38.1,7.4z M45.1,15.2V7.4h1.4v1.3h0.1
					c0.3-0.9,1.5-1.5,2.3-1.5c0.5,0,0.8,0.1,1.1,0.2l-0.6,1.4c-0.2-0.1-0.5-0.1-0.8-0.1c-1,0-2,0.8-2,2.3v4.3H45.1z M58.1,11.3
					c0,2.4-1.7,4.2-4,4.2c-2.4,0-4-1.8-4-4.2s1.7-4.2,4-4.2C56.4,7.1,58.1,8.9,58.1,11.3z M56.6,11.3c0-1.8-1.3-2.9-2.6-2.9
					c-1.3,0-2.6,1-2.6,2.9s1.3,2.9,2.6,2.9C55.3,14.1,56.6,13.1,56.6,11.3z M59.2,7.4h1.4v1.1h0.1c0.4-0.8,1.5-1.3,2.4-1.3
					c1.3,0,2.1,0.6,2.5,1.5c0.6-0.9,1.5-1.5,2.7-1.5c1.9,0,2.8,1.3,2.8,3.3v4.8h-1.5v-4.6c0-1.6-0.6-2.2-1.7-2.2c-1.2,0-2,1.2-2,2.4
					v4.3h-1.5v-4.6c0-1.6-0.6-2.2-1.7-2.2c-1.2,0-2,1.2-2,2.4v4.3h-1.5L59.2,7.4L59.2,7.4L59.2,7.4z M72.2,11.3
					c0-2.2,1.5-4.2,3.8-4.2c2.3,0,3.8,1.7,3.8,4.2v0.3h-6.2c0.1,1.7,1.3,2.6,2.5,2.6c0.8,0,1.7-0.3,2.2-1.3l1.3,0.6
					c-0.5,1.1-1.6,2.2-3.4,2.2C73.8,15.5,72.2,13.6,72.2,11.3L72.2,11.3z M76,8.5c-1.1,0-1.9,0.8-2.2,1.9h4.5
					C78.2,9.7,77.7,8.5,76,8.5z M80.7,11.3c0-2.4,1.7-4.2,4-4.2c1.9,0,2.9,1.1,3.4,2.2l-1.3,0.6c-0.3-0.9-1.1-1.5-2.2-1.5
					c-1.3,0-2.4,1.1-2.4,2.9c0,1.7,1.2,2.9,2.4,2.9c1.1,0,1.9-0.6,2.3-1.5l1.3,0.6c-0.5,1.1-1.6,2.2-3.5,2.2
					C82.3,15.5,80.7,13.6,80.7,11.3L80.7,11.3z M89,12.9c0-1.7,1.6-2.7,3.4-2.7c1,0,1.8,0.3,2.1,0.5v-0.3c0-1.2-1-1.9-2-1.9
					c-0.8,0-1.6,0.4-1.9,1.1L89.3,9c0.3-0.7,1.2-1.9,3.2-1.9c1.9,0,3.5,1.1,3.5,3.3v4.7h-1.4v-1.1h-0.1c-0.4,0.6-1.3,1.3-2.6,1.3
					C90.3,15.5,89,14.5,89,12.9L89,12.9z M94.5,11.8c0,0-0.6-0.5-1.9-0.5c-1.5,0-2.2,0.8-2.2,1.5c0,0.8,0.8,1.3,1.6,1.3
					C93.3,14.1,94.5,13.2,94.5,11.8z M96.9,13.2l1.3-0.6c0.4,1,1.2,1.5,2.1,1.5s1.5-0.4,1.5-1.1c0-0.4-0.2-0.8-1-1l-1.6-0.3
					c-0.7-0.2-2.1-0.8-2.1-2.2s1.5-2.3,3.1-2.3c1.3,0,2.5,0.6,3,1.8l-1.3,0.6c-0.3-0.8-1-1-1.8-1c-0.8,0-1.5,0.3-1.5,1
					c0,0.5,0.4,0.8,1,0.9l1.5,0.3c1.5,0.3,2.2,1.3,2.2,2.3c0,1.4-1.3,2.4-3.1,2.4S97.3,14.3,96.9,13.2L96.9,13.2z M105.2,12.8V8.7
					h-1.4V7.4h1.4V5h1.5v2.4h1.9v1.3h-1.9v4c0,0.9,0.3,1.3,1,1.3c0.3,0,0.5,0,0.7-0.1l0.5,1.3c-0.3,0.1-0.7,0.2-1.2,0.2
					C106.1,15.3,105.2,14.4,105.2,12.8L105.2,12.8z M21.1,6.8h-7.5c1.4,0.9,2.4,2.4,2.4,4.2c0,0.3-0.1,0.8-0.1,1.1v0.1
					c-0.1,0.6-0.3,1-0.6,1.5L10.5,22h0.4c6.1,0,11-4.9,11-11C21.9,9.5,21.6,8,21.1,6.8L21.1,6.8z M11,15.9c-1.4,0-2.7-0.6-3.6-1.5
					c-0.3-0.3-0.6-0.7-0.9-1.1l-0.1-0.1l-4.7-8C0.6,6.8,0,8.8,0,11c0,5.6,4.2,10.2,9.6,10.9l3.8-6.5C12.7,15.7,11.8,15.9,11,15.9
					L11,15.9z M11,0C7.4,0,4.2,1.7,2.2,4.5l3.8,6.4C6,10.9,6,11.1,6,11.1v-0.2c0-2.4,1.8-4.5,4.1-4.9h0.1c0.4-0.1,0.8-0.1,1.3-0.1
					h9.3C18.9,2.4,15.2,0,11,0z M15,11c0,2.2-1.8,4-4,4c-2.2,0-4-1.8-4-4s1.8-4,4-4C13.2,7,15,8.8,15,11z"/>
			</g>
			<g id="Asset-1" transform="translate(687.000000, 2.000000)">
				<g id="PSFM_R-link" transform="translate(0.946199, 0.946199)">
					<g id="PSFM_R">
						<path id="Path_2_" class="st0" d="M9.6,0v18.6l4.2,1.3V4.3c0-0.7,0.3-1.2,0.9-1.1c0.7,0.2,0.8,0.9,0.8,1.6v6.2
							c2.6,1.3,4.7,0,4.7-3.3c0-3.4-1.2-4.9-4.8-6.2C13.5,0.9,11.6,0.4,9.6,0"/>
						<path id="Path_3_" class="st0" d="M14.6,17.2l6.7-2.4c0.8-0.3,0.9-0.7,0.3-0.9c-0.6-0.2-1.7-0.1-2.5,0.1l-4.5,1.6v-2.5
							l0.3-0.1c1-0.3,2.1-0.5,3.1-0.7c2-0.2,4,0,5.8,0.7c2,0.6,2.2,1.5,1.7,2.2c-0.5,0.6-1.7,1.1-1.7,1.1l-9.2,3.3V17.2z"/>
						<path id="Path_4_" class="st0" d="M1.9,16.9c-2-0.6-2.4-1.8-1.4-2.5c0.9-0.6,2.3-1.1,2.3-1.1l6-2.1v2.4l-4.3,1.5
							c-0.8,0.3-0.9,0.7-0.3,0.9c0.6,0.2,1.7,0.2,2.5-0.1l2.1-0.7v2.2l-0.4,0.1C6.2,17.8,4,17.6,1.9,16.9z"/>
						<path id="Shape_14_" class="st0" d="M24.5,17.9c0.7,0,1.3,0.6,1.3,1.4c0,0.7-0.6,1.4-1.4,1.3c-0.7,0-1.4-0.6-1.4-1.4
							c0-0.4,0.1-0.7,0.4-1C23.8,18,24.1,17.9,24.5,17.9z M24.5,20.4c0.5,0,0.9-0.3,1.1-0.7c0.2-0.4,0.1-0.9-0.2-1.3
							c-0.3-0.3-0.8-0.4-1.3-0.3c-0.4,0.2-0.7,0.6-0.7,1.1c0,0.3,0.1,0.6,0.3,0.8C23.9,20.3,24.2,20.4,24.5,20.4L24.5,20.4z
							 M24,18.5h0.6c0.3,0,0.5,0.1,0.5,0.4c0,0.2-0.1,0.3-0.3,0.4l0,0c0.1,0,0.2,0.1,0.2,0.3c0.1,0.2,0.1,0.3,0.2,0.5h-0.3
							c0-0.1-0.1-0.3-0.1-0.4c0-0.2-0.1-0.2-0.3-0.2h-0.2V20H24L24,18.5z M24.2,19.2h0.2c0.2,0,0.3-0.1,0.3-0.3s-0.1-0.2-0.3-0.2
							h-0.3V19.2z"/>
					</g>
				</g>
				<path id="Path_5_" class="st0" d="M70.7,6.1V5c0,0,0-0.1-0.1-0.1h-7.8c-2.3,0-3.4,1.4-3.4,3.2v5.5c0,1.1-0.5,1.9-1.7,1.9h-7.3
					c0,0-0.1,0-0.1,0.1v1.1c0,0,0,0.1,0.1,0.1h8.2c2.3,0,3.4-1.4,3.4-3.2V8.1c0-1.1,0.5-1.9,1.7-1.9L70.7,6.1
					C70.6,6.2,70.7,6.2,70.7,6.1L70.7,6.1z"/>
				<path id="Path_6_" class="st0" d="M47.6,4.9H33.4c0,0-0.1,0-0.1,0.1v1.1c0,0,0,0,0,0.1c0,0,0,0,0.1,0h13.3
					c1.1,0,1.7,0.8,1.7,1.9s-0.5,1.9-1.7,1.9H36.2c-1.6,0-2.9,1.4-2.9,3.2v3.5c0,0,0,0,0,0.1c0,0,0,0,0.1,0h2.4c0,0,0.1,0,0.1-0.1
					v-3.5c0-1.1,0.6-1.9,1.6-1.9h10.1c2.3,0,3.4-1.4,3.4-3.2S49.8,4.9,47.6,4.9z"/>
				<path id="Shape_15_" class="st0" d="M89.1,14.3h-2.4c0,0-0.1,0-0.1-0.1v-8c0-1.2-0.9-1.6-2.1-0.9l-14.4,8.8
					c-0.6,0.3-0.8,0.7-0.6,1c0.1,0.3,0.4,0.4,1.1,0.4H84c0,0,0.1,0,0.1,0.1v1.1c0,0,0,0.1,0.1,0.1h2.4c0,0,0.1,0,0.1-0.1v-1.1
					c0,0,0-0.1,0.1-0.1h2.4c0,0,0,0,0.1,0s0,0,0-0.1L89.1,14.3C89.2,14.4,89.2,14.3,89.1,14.3C89.2,14.3,89.1,14.3,89.1,14.3
					L89.1,14.3z M84.1,14.2C84.1,14.3,84,14.3,84.1,14.2l-11.3,0.1c-0.1,0-0.1,0-0.1-0.1s0-0.1,0.1-0.1l11.1-6.9
					c0.1,0,0.2,0,0.2,0.1V14.2z"/>
				<polygon id="Path_7_" class="st0" points="90.9,15.7 90.5,15.7 90.5,15.5 91.5,15.5 91.5,15.7 91.1,15.7 91.1,16.9 90.9,16.9 
									"/>
				<polygon id="Path_8_" class="st0" points="92.3,16.7 92.7,15.5 93,15.5 93,16.9 92.8,16.9 92.8,15.7 92.4,16.9 92.2,16.9 
					91.8,15.7 91.8,16.9 91.7,16.9 91.7,15.5 91.9,15.5 				"/>
			</g>
		</g>
		<g id="BOT-ROW" transform="translate(13.000000, 46.000000)">
			<g id="fire-tv" transform="translate(83.000000, 0.000000)">
				<path id="Path_9_" class="st0" d="M44.5,24.2c-4.7,3.5-11.5,5.3-17.4,5.3c-8.2,0-15.7-3-21.3-8.1c-0.4-0.4,0-0.9,0.5-0.6
					c6.1,3.5,13.6,5.6,21.3,5.6c5.2,0,11-1.1,16.2-3.3C44.6,22.8,45.2,23.6,44.5,24.2L44.5,24.2z"/>
				<path id="Path_10_" class="st0" d="M46.4,22c-0.6-0.8-4-0.4-5.5-0.2c-0.5,0.1-0.5-0.3-0.1-0.6c2.7-1.9,7.1-1.3,7.6-0.7
					c0.5,0.6-0.1,5.1-2.7,7.2c-0.4,0.3-0.8,0.2-0.6-0.3C45.7,25.9,47,22.7,46.4,22L46.4,22z"/>
				<path id="Shape_16_" class="st0" d="M27.2,7c2.7,0,2.6,2.3,2.6,3.3h-5.6C24.3,8.5,25.1,7,27.2,7L27.2,7z M31.4,11.8
					c0.3,0,0.4-1.1,0.4-1.6c0.1-3.4-1.7-5-4.6-5c-1.6,0-3.1,0.6-4,1.7c-0.9,1-1.3,2.5-1.3,4.4c0,1.9,0.4,3.3,1.3,4.3
					c0.9,1,2.2,1.7,4.4,1.7c0.9,0,2.5-0.2,3.6-0.7c0.4-0.1,0.4-0.3,0.4-0.7v-0.6c0-0.3-0.1-0.5-0.5-0.4c-1.2,0.4-2.4,0.6-3.1,0.6
					c-1.3,0-2.3-0.4-3-1.1c-0.6-0.8-0.8-1.6-0.8-2.7C26.6,11.8,29,11.8,31.4,11.8L31.4,11.8z"/>
				<path id="Path_11_" class="st0" d="M4.4,5.6V3.3c0-1.8,1.8-1.6,2.9-1.4C7.8,2,8,1.9,8,1.5V0.8c0-0.4-0.1-0.5-0.7-0.6
					c-2.8-0.5-5.2,0-5.2,3.6v1.9L0.5,5.8C0.1,5.8,0,6,0,6.3v0.6c0,0.3,0.1,0.4,0.4,0.4h1.7v9.3c0,0.3,0.1,0.4,0.4,0.4h1.4
					c0.3,0,0.4-0.1,0.4-0.4V7.3h3c0.3,0,0.4-0.1,0.4-0.4V6c0-0.3-0.1-0.4-0.4-0.4H4.4L4.4,5.6z"/>
				<path id="Shape_17_" class="st0" d="M11.6,5.6h-1.3C9.9,5.6,9.8,5.7,9.8,6v10.6c0,0.3,0.1,0.4,0.4,0.4h1.3
					c0.3,0,0.4-0.1,0.4-0.4V6C12,5.8,11.9,5.6,11.6,5.6L11.6,5.6z M10.9,0.8c-0.8,0-1.4,0.5-1.4,1.4c0,0.9,0.6,1.4,1.4,1.4
					s1.4-0.5,1.4-1.4C12.3,1.3,11.8,0.8,10.9,0.8L10.9,0.8z"/>
				<path id="Path_12_" class="st0" d="M50.2,17h-1.4c-0.3,0-0.5-0.1-0.6-0.4L44,6.1c-0.1-0.3,0-0.5,0.3-0.5h1.5
					c0.3,0,0.4,0.2,0.5,0.4l3.1,8.9L52.6,6c0.1-0.3,0.3-0.4,0.6-0.4h1.4c0.4,0,0.5,0.2,0.3,0.5l-4.2,10.5C50.6,16.8,50.5,17,50.2,17
					L50.2,17z"/>
				<path id="Path_13_" class="st0" d="M37,14.1c0,2.7,1.8,3.1,3.2,3.1c0.7,0,1.3-0.1,1.9-0.2c0.7-0.2,0.7-0.3,0.7-0.6
					c0-0.3,0-0.5,0-0.8c0-0.3-0.2-0.4-0.5-0.3c-0.5,0.1-0.9,0.1-1.4,0.2c-1.5-0.1-1.6-0.6-1.6-2v-6h3c0.3,0,0.4-0.1,0.4-0.4V6
					c0-0.3-0.1-0.4-0.4-0.4h-3V2.8c0-0.3-0.1-0.4-0.4-0.4h-0.9c-0.3,0-0.5,0.1-0.6,0.5l-0.3,2.8l-1.7,0.2c-0.3,0-0.5,0.2-0.5,0.6
					v0.5c0,0.3,0.2,0.4,0.4,0.4H37C37,9.6,37,11.8,37,14.1L37,14.1z"/>
				<path id="Path_14_" class="st0" d="M17.1,7.2L17,5.9c-0.1-0.3-0.3-0.4-0.5-0.4h-1C15.1,5.6,15,5.7,15,6v10.6
					c0,0.3,0.1,0.4,0.4,0.4h1.3c0.3,0,0.4-0.1,0.4-0.4v-8c0.9-0.6,1.6-1.1,3.3-1.1c0.4,0,1,0.2,1-0.3V5.9c0-0.3-0.2-0.5-0.7-0.5
					C19.4,5.5,18.5,5.8,17.1,7.2L17.1,7.2z"/>
			</g>
			<g id="Fire" transform="translate(0.000000, 0.000000)">
				<path id="Shape_18_" class="st0" d="M36.1,9.2c3.5,0,3.5,3.1,3.4,4.4H32C32.2,11.3,33.3,9.2,36.1,9.2L36.1,9.2z M41.8,15.7
					c0.4,0,0.5-1.5,0.5-2.1c0.2-4.5-2.2-6.6-6-6.6c-2.1,0-4.1,0.8-5.3,2.2c-1.1,1.3-1.8,3.3-1.8,5.8s0.6,4.4,1.7,5.8
					C32,22,33.7,23,36.7,23c1.1,0,3.4-0.3,4.7-0.9c0.5-0.2,0.5-0.4,0.5-0.9v-0.8c0-0.4-0.2-0.6-0.7-0.4c-1.6,0.5-3.2,0.8-4.2,0.8
					c-1.7,0-3.1-0.4-3.9-1.4c-0.8-1.1-1.1-2.2-1.2-3.5C35.2,15.7,38.5,15.7,41.8,15.7L41.8,15.7z"/>
				<path id="Path_15_" class="st0" d="M5.8,7.4v-3c0-2.4,2.4-2,3.9-1.9c0.6,0.1,0.9,0,0.9-0.5v-1c0-0.4-0.2-0.7-0.9-0.8
					C6-0.4,2.8,0.3,2.8,5v2.5L0.6,7.7C0.2,7.8,0,7.9,0,8.4v0.8c0,0.4,0.2,0.5,0.6,0.5h2.2V22c0,0.4,0.2,0.6,0.6,0.6h1.8
					c0.4,0,0.6-0.2,0.6-0.6V9.7h4.1c0.4,0,0.6-0.2,0.6-0.6V8c0-0.4-0.2-0.6-0.6-0.6L5.8,7.4L5.8,7.4z"/>
				<path id="Shape_19_" class="st0" d="M15.4,7.4h-1.8c-0.4,0-0.6,0.2-0.6,0.6v14c0,0.4,0.2,0.6,0.6,0.6h1.8c0.4,0,0.6-0.2,0.6-0.6
					V8C16,7.7,15.8,7.4,15.4,7.4L15.4,7.4z M14.5,1.1c-1.1,0-1.9,0.7-1.9,1.9s0.7,1.9,1.9,1.9s1.9-0.7,1.9-1.9
					C16.4,1.7,15.6,1.1,14.5,1.1L14.5,1.1z"/>
				<path id="Path_16_" class="st0" d="M22.7,9.6L22.6,8c-0.1-0.4-0.4-0.4-0.7-0.4h-1.3c-0.4,0-0.6,0.2-0.6,0.6v14
					c0,0.4,0.2,0.6,0.6,0.6h1.8c0.4,0,0.6-0.2,0.6-0.6V11.5c1.1-0.9,2.1-1.4,4.4-1.4c0.5,0,1.3,0.2,1.3-0.4V8c0-0.4-0.3-0.6-1-0.6
					C25.7,7.3,24.5,7.7,22.7,9.6L22.7,9.6z"/>
			</g>
			<g id="lg-electronics" transform="translate(177.000000, 3.000000)">
				<path id="Shape_20_" class="st0" d="M12,0C5.4,0,0,5.4,0,12s5.4,12,12,12s12-5.4,12-12S18.6,0,12,0z M14.9,16.2v0.9h-2.5v0h-0.9
					V6.8h0.9v9.4H14.9z M12,22C6.5,22,2,17.5,2,12S6.5,2,12,2c0.1,0,0.3,0,0.4,0l0,0.9c-0.1,0-0.3,0-0.4,0C7,2.9,2.9,7,2.9,12
					S7,21.1,12,21.1c4.9,0,8.9-3.9,9.1-8.7l0,0h-6.2v-0.9H22c0,0.2,0,0.4,0,0.5C22,17.5,17.5,22,12,22z M9.7,8.2
					C9.7,9,9,9.6,8.3,9.6l0,0C7.5,9.6,6.8,9,6.8,8.2s0.6-1.4,1.4-1.4S9.7,7.4,9.7,8.2z"/>
				<path id="Shape_21_" class="st0" d="M30,17.7h8.4v-2.5h-5.3V6.3H30V17.7z M48.5,7.1c-1-0.7-2.2-1.1-3.7-1.1
					c-1.8,0-3.2,0.5-4.2,1.5c-1.1,1-1.6,2.6-1.6,4.5c0,2,0.6,3.7,1.7,4.7c0.8,0.8,2,1.3,3.3,1.3c2.8,0,3.5-1.7,3.5-1.7v1.4H50v-6.4
					h-5.1v2h2.4c0,0,0,2.5-2.4,2.5c-0.6,0-1.2-0.2-1.6-0.6c-0.7-0.6-1-1.7-1-3.1c0-2.3,0.9-3.7,2.5-3.7c1,0,1.7,0.6,1.9,1.5H50
					C49.8,8.5,49.4,7.8,48.5,7.1L48.5,7.1z"/>
			</g>
			<g id="oculus" transform="translate(267.000000, 5.000000)">
				<path id="Shape_22_" class="st0" d="M89.9,7.3c-0.3-0.1-0.7-0.1-1-0.1c-0.2,0-0.3,0.1-0.5,0.1c-0.1,0-0.2,0.1-0.3,0.2
					C88,7.7,87.9,7.8,87.9,8c0,0.2,0,0.3,0.1,0.4c0.1,0.1,0.3,0.2,0.5,0.3c0.2,0.1,0.3,0.1,0.5,0.2C89.1,9,89.3,9,89.5,9.1
					c0.4,0.1,0.9,0.2,1.3,0.4c0.8,0.3,1.5,0.8,1.8,1.6c0.1,0.4,0.2,0.7,0.1,1.1c-0.1,0.5-0.2,0.9-0.5,1.2c-0.2,0.3-0.5,0.5-0.8,0.7
					c-0.4,0.2-0.9,0.4-1.3,0.5c-0.4,0.1-0.7,0.1-1.1,0.1c-0.5,0-0.9-0.1-1.4-0.2c-0.8-0.2-1.5-0.6-2.2-1.2c0.4-0.5,0.7-1,1.1-1.4
					c0.4,0.3,0.8,0.6,1.3,0.7c0.3,0.1,0.6,0.2,1,0.2c0.3,0,0.6,0,0.9,0c0.2,0,0.4-0.1,0.6-0.2c0.1-0.1,0.3-0.2,0.4-0.3
					c0.1-0.1,0.1-0.2,0.2-0.4c0-0.2,0-0.3-0.1-0.4c-0.1-0.2-0.2-0.3-0.4-0.4c-0.2-0.1-0.4-0.2-0.6-0.3c-0.3-0.1-0.5-0.1-0.8-0.2
					c-0.8-0.2-1.6-0.4-2.3-0.9c-0.3-0.3-0.5-0.6-0.6-1c-0.1-0.4-0.1-0.9,0-1.3c0.1-0.3,0.3-0.7,0.5-0.9c0.3-0.4,0.7-0.6,1.1-0.8
					c0.3-0.1,0.7-0.2,1-0.3c0.5-0.1,0.9-0.1,1.4,0c0.8,0.1,1.6,0.4,2.3,0.9c-0.3,0.5-0.7,0.9-1,1.4C90.9,7.6,90.4,7.4,89.9,7.3z
					 M73.3,1.3h-2v13.1h2V1.3z M83.8,14.4c0-2.8,0-5.7,0-8.5c-0.7,0-1.3,0-2,0c0,0.5,0,3.5,0,4c0,0.2,0,0.5,0,0.7
					c0,0.2,0,0.3-0.1,0.5c-0.1,0.3-0.1,0.5-0.3,0.8c-0.4,0.6-1,0.9-1.7,0.9c-0.7,0-1.3-0.3-1.7-0.9c-0.1-0.2-0.2-0.5-0.3-0.8
					c-0.1-0.4-0.1-0.8-0.1-1.1c0-0.2,0-0.5,0-0.7c0-0.4,0-0.8,0-1.3c0-0.7,0-1.3,0-2c-0.7,0-1.3,0-2,0c0,0.7,0,2.8,0,3.4
					c0,0.3,0,0.7,0,1c0,0.2,0,0.5,0,0.7c0.1,0.6,0.2,1.1,0.4,1.7c0.5,1.1,1.6,1.7,2.7,1.8c0.6,0.1,1.2,0,1.7-0.1
					c0.5-0.2,1.1-0.4,1.5-0.8c0,0.3,0,0.5,0.1,0.8C82.6,14.4,83.2,14.4,83.8,14.4z M59.4,13.3c-0.5-0.5-0.9-1-1.4-1.4
					c-0.4,0.3-0.8,0.6-1.3,0.7c-0.5,0.1-1,0.1-1.4-0.1c-0.5-0.2-0.9-0.4-1.2-0.8c-0.3-0.4-0.4-0.9-0.5-1.4c0-0.5,0.1-1,0.3-1.4
					c0.2-0.5,0.6-0.8,1.1-1c0.2-0.1,0.4-0.1,0.6-0.2c0.3,0,0.5-0.1,0.8,0c0.5,0.1,0.9,0.2,1.4,0.5c0.4-0.5,0.8-1,1.2-1.5
					c-0.7-0.6-1.5-0.9-2.4-1c-0.9-0.1-1.8,0-2.5,0.4c-0.8,0.4-1.4,1-1.9,1.8c-0.4,0.8-0.6,1.7-0.5,2.5c0,0.9,0.3,1.7,0.8,2.5
					c0.5,0.7,1.2,1.2,2.1,1.5c0.8,0.3,1.7,0.3,2.6,0.2C58,14.4,58.8,13.9,59.4,13.3z M68.9,14.4c0-2.8,0-5.7,0-8.5c-0.7,0-1.3,0-2,0
					c0,0.5,0,3.5,0,4c0,0.2,0,0.5,0,0.7c0,0.2,0,0.3-0.1,0.5c-0.1,0.3-0.1,0.5-0.3,0.8c-0.4,0.6-1,0.9-1.7,0.9
					c-0.7,0-1.3-0.3-1.7-0.9c-0.1-0.2-0.2-0.5-0.3-0.8c-0.1-0.4-0.1-0.8-0.1-1.1c0-0.2,0-0.5,0-0.7c0-0.4,0-0.8,0-1.3
					c0-0.7,0-1.3,0-2c-0.7,0-1.3,0-2,0c0,0.7,0,2.8,0,3.4c0,0.3,0,0.7,0,1c0,0.2,0,0.5,0,0.7c0.1,0.6,0.2,1.1,0.4,1.7
					c0.5,1.1,1.6,1.7,2.7,1.8c0.6,0.1,1.2,0,1.7-0.1c0.5-0.2,1.1-0.4,1.5-0.8c0,0.3,0,0.5,0.1,0.8C67.7,14.4,68.3,14.4,68.9,14.4z
					 M50.2,10.2c0,1.2-0.4,2.3-1.3,3.2c-0.8,0.8-2,1.3-3.1,1.3c-1.2,0-2.3-0.5-3.1-1.3c-0.8-0.9-1.2-2-1.2-3.2
					c0-1.2,0.4-2.3,1.3-3.2c0.8-0.8,2-1.3,3.1-1.3C47,5.7,48.2,6.1,49,7S50.2,9,50.2,10.2z M48.2,10.2c0-0.2,0-0.3,0-0.5
					c0-0.2-0.1-0.3-0.1-0.5C48,9,47.9,8.9,47.9,8.7c-0.1-0.1-0.2-0.2-0.3-0.4c-0.1-0.1-0.2-0.2-0.3-0.3C47.1,8,47,7.9,46.8,7.9
					c-0.1-0.1-0.3-0.1-0.5-0.1c-0.2,0-0.3,0-0.5,0c-0.2,0-0.3,0-0.5,0c-0.2,0-0.3,0.1-0.5,0.1c-0.1,0.1-0.3,0.1-0.4,0.2
					c-0.1,0.1-0.2,0.2-0.4,0.3c-0.1,0.1-0.2,0.2-0.3,0.4c-0.1,0.1-0.2,0.3-0.2,0.4c-0.1,0.2-0.1,0.3-0.1,0.5c0,0.2,0,0.3,0,0.5
					s0,0.3,0,0.5c0,0.2,0.1,0.3,0.1,0.5c0.1,0.1,0.1,0.3,0.2,0.4c0.1,0.1,0.2,0.2,0.3,0.4c0.1,0.1,0.2,0.2,0.3,0.3
					c0.1,0.1,0.3,0.2,0.4,0.2c0.1,0.1,0.3,0.1,0.5,0.1c0.2,0,0.3,0,0.5,0s0.3,0,0.5,0c0.2,0,0.3-0.1,0.5-0.1
					c0.1-0.1,0.3-0.1,0.4-0.2c0.1-0.1,0.2-0.2,0.4-0.3c0.1-0.1,0.2-0.2,0.3-0.4c0.1-0.1,0.2-0.3,0.2-0.4c0.1-0.2,0.1-0.3,0.1-0.5
					C48.2,10.5,48.2,10.3,48.2,10.2z M33.1,10c0,3-1.4,5.9-3.7,7.7c-1.2,0.9-2.5,1.6-3.9,1.9c-0.8,0.2-1.7,0.3-2.5,0.3
					c-0.6,0-1.3,0-1.9,0c-3,0-6,0-9,0c-0.6,0-1.3,0-1.9,0c-0.9,0-1.7-0.1-2.5-0.3c-1.5-0.3-2.8-1-3.9-1.9C1.4,15.9,0,13,0,10
					c0-3,1.4-5.9,3.7-7.7c1.2-0.9,2.5-1.6,3.9-1.9C8.5,0.1,9.3,0,10.2,0c0.6,0,1.3,0,1.9,0c3,0,6,0,9,0c0.6,0,1.3,0,1.9,0
					c0.9,0,1.7,0.1,2.5,0.3c1.5,0.3,2.8,1,3.9,1.9C31.7,4.1,33.1,7,33.1,10z M26.4,10c0-1.1-0.5-2.1-1.4-2.7
					c-0.4-0.3-0.9-0.5-1.5-0.6c-0.5-0.1-1-0.1-1.6-0.1c-3.6,0-7.2,0-10.8,0c-0.5,0-1,0-1.6,0.1C9,6.8,8.5,7,8.1,7.3
					C7.2,7.9,6.7,8.9,6.7,10s0.5,2.1,1.4,2.7C8.5,13,9,13.2,9.5,13.3c0.5,0.1,1,0.1,1.6,0.1c3.6,0,7.2,0,10.8,0c0.5,0,1,0,1.6-0.1
					c0.5-0.1,1-0.3,1.5-0.6C25.9,12.1,26.4,11.1,26.4,10z"/>
			</g>
			<g id="samsung" transform="translate(504.251666, 7.000000)">
				<path id="Shape_23_" class="st0" d="M59.6,7.4c0,0-1.1-0.7-1.7-0.9c0,0-2-0.9-2.4-1.4c0,0-0.8-0.7-0.3-1.6c0,0,0.2-0.6,1-0.6
					c0,0,1.1,0.1,1.1,1v1.3h3.9l0-1.9c0,0,0.3-3-4.6-3.2c0,0-3.8-0.3-4.9,1.8c0,0-0.4,0.5-0.4,2.1v1.2c0,0,0,1.3,0.6,2.2
					c0,0,0.4,0.6,1.3,1.2c0,0,1.9,1,3.1,1.6c0,0,1.2,0.7,1,1.7c0,0-0.1,1.1-1.2,1c0,0-1,0-1-1.1v-1.3h-4.1v1.8c0,0-0.1,3.5,5.2,3.5
					c0,0,5.1,0.1,5.3-3.6v-1.5C61.4,10.9,61.6,8.6,59.6,7.4L59.6,7.4z M39.7,0.6l-1.3,8.2h-0.3l-1.2-8.1h-6.5l-0.3,14.8h3.8l0-11.1
					h0.3l2,11.1h4l2-11.1h0.3l0.1,11.1h3.9L46.2,0.6H39.7L39.7,0.6z M16.8,0.7l-2.6,14.8h4.1L19.9,4h0.3l1.5,11.5h4.1L23.4,0.7H16.8
					z M103.7,7.2v2.2h1.1v2.3c0,1.1-1,1.2-1,1.2c-1.2,0-1.1-1.1-1.1-1.1V3.7c0-0.8,1.1-0.9,1.1-0.9c1,0,1,1,1,1v1.2h3.9
					c0.1-2.4-0.4-3-0.4-3c-1-2.2-4.6-2.1-4.6-2.1c-5.6,0-5,4.3-5,4.3v7.8c0.1,4,5.7,3.6,5.8,3.6c2.5-0.3,3.2-1.1,3.2-1.1
					c0.7-0.5,0.9-1.2,0.9-1.2c0.2-0.4,0.2-1.7,0.2-1.7V7.2L103.7,7.2L103.7,7.2z M90.8,9.6h-0.2l-4-9h-4.7v14.8h3.9l-0.2-9h0.2
					l4.1,9h4.6V0.6h-3.9L90.8,9.6L90.8,9.6z M72.5,11.8c0,0,0.1,1.2-1.1,1.2c0,0-1.2,0.1-1.2-1.2l0-11.2H66v11.1
					c0,0-0.4,4.2,5.5,4.2c0,0,5.1,0.1,5.1-4V0.6h-4.1L72.5,11.8L72.5,11.8z M8.8,7.4c0,0-1.1-0.7-1.7-0.9c0,0-2-0.9-2.4-1.4
					c0,0-0.8-0.7-0.3-1.6c0,0,0.2-0.6,1-0.6c0,0,1.1,0.1,1.1,1v1.3h3.9l0-1.9c0,0,0.3-3-4.6-3.2c0,0-0.4,0-0.9,0c0,0-3,0.2-4,1.8
					c0,0,0,0,0,0c0,0-0.4,0.5-0.4,2.1v1.2c0,0,0,1.3,0.6,2.2c0,0,0.4,0.6,1.3,1.2c0,0,1.9,1,3.1,1.6c0,0,1.2,0.7,1,1.7
					c0,0-0.1,1.1-1.2,1c0,0-1,0-1-1.1v-1.3H0.1v1.8c0,0-0.1,3.5,5.2,3.5c0,0,5.1,0.1,5.3-3.6v-1.5C10.6,10.9,10.8,8.6,8.8,7.4
					L8.8,7.4z"/>
			</g>
			<g id="xbox-one" transform="translate(653.000000, 5.000000)">
				<path id="Shape_24_" class="st0" d="M64.2,16.2l-3.8-5.4l-3.8,5.4H55l4.6-6.5l-4.2-5.9H57l3.4,4.8l3.4-4.8h1.6l-4.2,5.9l4.6,6.5
					H64.2z M34.5,16.2L30,9.7l4.2-5.9h-1.6l-3.4,4.8l-3.4-4.8h-1.6l4.2,5.9l-4.6,6.5h1.6l3.8-5.4l3.8,5.4H34.5z"/>
				<path id="Shape_25_" class="st0" d="M43,10.3c-0.2-0.2-0.5-0.4-0.8-0.5c0.9-0.5,1.4-1.4,1.4-2.4c0-0.8-0.3-3.3-3.9-3.3h-4.9v5.2
					h-1.6c-0.2,0.3-0.7,0.9-0.9,1.2h2.5v5.6h4.9c2.6,0,4.3-1.3,4.3-3.5C44,11.7,43.6,10.9,43,10.3 M36.2,5.4h3.5
					c0.9,0,2.5,0.2,2.5,1.9c0,1.3-0.9,2-2.5,2h-3.5V5.4L36.2,5.4z M39.7,14.9h-3.5v-4.4h3.5c1.3,0,2.9,0.4,2.9,2.1
					C42.7,14.6,40.8,14.9,39.7,14.9 M50.3,3.9c-3.4,0-5.7,2.6-5.7,6.3c0,3.7,2.3,6.3,5.7,6.3c3.4,0,5.7-2.6,5.7-6.3
					C56,6.5,53.7,3.9,50.3,3.9 M50.3,15.2c-2.6,0-4.3-2.1-4.3-5c0-2.9,1.8-5,4.3-5c2.6,0,4.3,2.1,4.3,5
					C54.6,13.1,52.9,15.2,50.3,15.2 M3,2.9L3,2.9L3,2.9C1.1,4.8,0,7.3,0,10c0,2.2,0.7,4.3,2,6.1c0,0,0,0,0.1,0c0,0,0,0,0-0.1
					C1.3,13.7,5.2,7.9,7.2,5.6c0,0,0,0,0,0s0,0,0,0C3.8,2.1,2.9,2.9,3,2.9 M16.9,2.9L16.9,2.9L16.9,2.9c1.9,1.9,3,4.4,3,7.1
					c0,2.2-0.7,4.3-2,6.1c0,0,0,0-0.1,0s0,0,0-0.1c0.8-2.4-3.1-8.1-5.1-10.5c0,0,0,0,0,0c0,0,0,0,0,0C16.1,2.1,17,2.9,16.9,2.9
					 M10,0c2,0,3.7,0.6,5.2,1.5c0,0,0,0,0,0c0,0,0,0,0,0c-1.9-0.4-4.9,1.3-5.1,1.4c0,0,0,0,0,0s0,0,0,0C9.2,2.5,6.5,1.1,4.8,1.5
					c0,0,0,0,0,0c0,0,0,0,0,0C6.3,0.6,8,0,10,0 M10,8C10,8,10,8,10,8c3,2.3,8.1,7.9,6.6,9.5l0,0v0h0C14.7,19.1,12.4,20,10,20
					c-2.4,0-4.7-0.9-6.6-2.5l0,0l0,0C1.8,15.9,6.9,10.3,10,8C9.9,8,9.9,8,10,8 M88.7,4.2V14l-7.2-9.9l-1.2,0v12h1.3V6.5l7.1,9.6
					l1.3,0v-12H88.7z M73.4,3.9c-3.4,0-5.7,2.6-5.7,6.3c0,3.7,2.3,6.3,5.7,6.3c3.4,0,5.7-2.6,5.7-6.3C79.1,6.5,76.8,3.9,73.4,3.9
					 M73.4,15.2c-2.6,0-4.3-2.1-4.3-5c0-2.9,1.8-5,4.3-5c2.6,0,4.3,2.1,4.3,5C77.8,13.1,76,15.2,73.4,15.2 M92.9,15v-4.4h6.6V9.4
					h-6.6v-4h7V4.2h-8.4v12h8.4V15H92.9z"/>
			</g>
			<g id="roku" transform="translate(400.000000, 3.000000)">
				<path id="Combined-Shape" class="st0" d="M23.5,4c4.5,0,8.1,3.6,8.1,8c0,4.5-3.6,8-8.1,8s-8.1-3.6-8.1-8C15.4,7.5,19,4,23.5,4z
					 M37.8,4.3v6.1l6-6h10.7v8.4c0,2.4,0.6,3.2,1.9,3.2c1.3,0,2.1-0.6,2.7-1.7l0,0v-10h5.2v15.4h-1.1l-2.4-2c-1,1.1-3,2.4-5.2,2.4
					c-4.6,0-6.4-2.8-6.4-5.8l0,0V5l-6.6,6.6l8,8h-6.6l-6.3-6.3v6.3h-5.2V4.3H37.8z M7.5,0c4.3,0,7.9,2.9,7.9,6.6
					c0,2.2-1.4,4.2-3.4,5.4l5.6,7.7h-6l-4.7-6.6H5.3v6.5H0V0H7.5z M23.5,7.8c-1.4,0-2.6,1.9-2.6,4.2s1.2,4.2,2.6,4.2
					c1.4,0,2.6-1.9,2.6-4.2S24.9,7.8,23.5,7.8z M6.9,3.3H5.3v6.6h1.6c1.8,0,3.3-1.5,3.3-3.3C10.2,4.7,8.7,3.3,6.9,3.3z"/>
			</g>
		</g>
	</g>
</g>
</svg>
