<svg version="1.1" id="Layer_1" xmlns="http://www.w3.org/2000/svg" x="0" y="0" viewBox="0 0 321 187" style="enable-background:new 0 0 321 187" xml:space="preserve"><style>.st0{fill:#fff}</style><g id="Mobile"><g id="Group-6" transform="translate(18 20)"><g id="Row-1" transform="translate(3)"><g id="ipad"><path id="Shape" class="st0" d="M13.1 12.4c-.2.6-.5 1.1-.9 1.5-.4.6-.8 1.1-1.1 1.3-.4.4-.9.6-1.4.6-.4 0-.8-.1-1.3-.3-.5-.2-1-.3-1.4-.3-.4 0-.9.1-1.4.3-.5.2-.9.3-1.2.3-.5 0-1-.2-1.4-.6-.3-.3-.7-.7-1.2-1.4S.9 12.3.6 11.4c-.4-1-.6-2-.6-2.9 0-1.1.2-2 .7-2.8.3-.5.8-1 1.4-1.3s1.2-.6 2-.6c.4 0 .9.1 1.5.4.6.2 1 .4 1.2.4.1 0 .6-.1 1.3-.4.7-.2 1.3-.4 1.8-.3 1.3.1 2.3.6 3 1.6-1.2.7-1.8 1.7-1.8 3 0 1 .4 1.8 1.1 2.5.3.3.7.6 1.1.7 0 .2-.1.4-.2.7zM10 .3c0 .8-.3 1.5-.9 2.2-.6.9-1.5 1.4-2.4 1.3v-.3c0-.8.3-1.6.9-2.2.3-.3.7-.6 1.1-.9.5-.2.9-.3 1.3-.4v.3z"/><g id="Group" transform="translate(15.448 1.38)"><path id="Shape_1_" class="st0" d="M.1 1.4C.1.7.7.2 1.3.2s1.2.5 1.2 1.2c0 .6-.5 1.2-1.2 1.2S.1 2 .1 1.4zm.1 2.8h2.1v10.2H.2V4.2z"/><path id="Shape_2_" class="st0" d="M9.5.4c2.7 0 4.6 1.9 4.6 4.6s-1.9 4.6-4.7 4.6h-3v4.8H4.2V.4h5.3zM6.4 7.8h2.5c1.9 0 3-1 3-2.8s-1.1-2.8-3-2.8H6.4v5.6z"/><path id="Shape_3_" class="st0" d="M14 11.5c0-1.8 1.4-2.9 3.8-3l2.8-.2v-.7c0-1.1-.8-1.8-2-1.8s-2 .6-2.2 1.5h-2c.1-1.9 1.7-3.3 4.2-3.3s4.1 1.3 4.1 3.4v7h-2v-1.7h-.1c-.6 1.1-1.9 1.8-3.2 1.8-2 .1-3.4-1.2-3.4-3zm6.6-.9v-.8l-2.5.2c-1.2.1-2 .6-2 1.5S16.8 13 18 13c1.5-.1 2.6-1.1 2.6-2.4z"/><path id="Shape_4_" class="st0" d="M23.8 9.3c0-3.2 1.7-5.3 4.3-5.3 1.5 0 2.6.7 3.2 1.9V.4h2.1v14h-2v-1.7c-.6 1.2-1.8 1.9-3.3 1.9-2.6 0-4.3-2.1-4.3-5.3zm2.1 0c0 2.2 1 3.5 2.7 3.5 1.6 0 2.7-1.4 2.7-3.5s-1.1-3.5-2.7-3.5-2.7 1.4-2.7 3.5z"/></g></g><g id="apple-tv" transform="translate(160)"><path id="Shape_5_" class="st0" d="M19.8 1.4V4h3.3v.9h-3.3v7.7c0 .8.1 1.4.4 1.8.3.4.7.6 1.3.6h.8c.2 0 .4-.1.5-.1l.1.9c-.4.2-.9.3-1.6.3-.5 0-1-.1-1.3-.3-.4-.2-.6-.4-.8-.7-.2-.3-.4-.7-.4-1.2-.1-.4-.1-.9-.1-1.5V4.9h-2V4h2V1.8l1.1-.4zM25 4l2.7 7.3c.2.6.4 1.1.6 1.6.2.5.4 1 .5 1.5.2-.5.3-1 .5-1.5s.4-1.1.6-1.6L32.8 4H34l-4.7 11.8h-1L23.8 4H25z"/><path id="Shape_6_" class="st0" d="M7.3 1.4C8.4 0 9.8 0 9.8 0s.3 1.3-.8 2.6-2.4 1.1-2.4 1.1-.3-1.1.7-2.3zm-.6 3.2c.5 0 1.6-.7 2.9-.7 2.3 0 3.2 1.6 3.2 1.6s-1.8.8-1.8 3c0 2.4 2.2 3.3 2.2 3.3S11.7 16 9.6 16c-.9 0-1.7-.6-2.7-.6-1 0-2 .7-2.7.7C2.4 16 0 12 0 8.7c0-3.2 2-4.9 3.9-4.9 1.2.1 2.2.8 2.8.8z"/></g><g id="iphone" transform="translate(69)"><path id="Shape_7_" class="st0" d="M13.1 12.4c-.2.6-.5 1.1-.9 1.5-.4.6-.8 1.1-1.1 1.3-.4.4-.9.6-1.4.6-.4 0-.8-.1-1.3-.3-.5-.2-1-.3-1.4-.3-.4 0-.9.1-1.4.3-.5.2-.9.3-1.2.3-.5 0-1-.2-1.4-.6-.3-.3-.7-.7-1.2-1.4S.9 12.3.6 11.4c-.3-1-.5-2-.5-2.9 0-1.1.2-2 .7-2.8.4-.6.8-1.1 1.4-1.5s1.3-.5 2-.6c.4 0 .9.1 1.5.4s1 .4 1.2.4c.1 0 .6-.1 1.3-.4.7-.3 1.3-.4 1.8-.3 1.3.1 2.3.6 3 1.6-1.2.7-1.8 1.7-1.8 3 0 1 .4 1.9 1.1 2.5.3.3.7.6 1.1.7-.1.4-.2.6-.3.9zM10 .3c0 .8-.3 1.5-.9 2.2-.6.9-1.5 1.3-2.4 1.3v-.3c0-.8.3-1.6.9-2.2.3-.3.7-.6 1.1-.8.5-.4.9-.5 1.3-.5v.3z"/><g id="Group_1_" transform="translate(15.448 1.38)"><path id="Shape_8_" class="st0" d="M.1 1.4C.1.7.6.2 1.3.2s1.2.5 1.2 1.2c0 .6-.5 1.2-1.2 1.2S.1 2 .1 1.4zm.2 2.8h2.1v10.2H.3V4.2z"/><path id="Shape_9_" class="st0" d="M9.5.4c2.7 0 4.6 1.9 4.6 4.6 0 2.7-1.9 4.6-4.7 4.6h-3v4.8H4.2V.4h5.3zM6.4 7.8h2.5c1.9 0 3-1 3-2.8s-1.1-2.8-3-2.8H6.4v5.6z"/><path id="Path" class="st0" d="M15.3.4h2.1v5.5C18 4.7 19.1 4 20.7 4c2.2 0 3.6 1.5 3.6 3.8v6.6h-2.1V8.2c0-1.5-.8-2.4-2.2-2.4-1.6 0-2.5 1.1-2.5 2.7v5.9h-2.1V.4h-.1z"/><path id="Shape_10_" class="st0" d="M25.3 9.3c0-3.3 2-5.3 4.9-5.3S35 6 35 9.3s-1.9 5.3-4.8 5.3-4.9-2-4.9-5.3zm7.6 0c0-2.3-1.1-3.6-2.7-3.6S27.5 7 27.5 9.3s1.1 3.6 2.7 3.6 2.7-1.3 2.7-3.6z"/><path id="Path_1_" class="st0" d="M36.1 4.2h2v1.7c.6-1.2 1.7-1.9 3.3-1.9 2.3 0 3.5 1.4 3.5 3.8v6.6h-2.1V8.2c0-1.5-.7-2.4-2.2-2.4-1.5 0-2.4 1-2.4 2.6v5.9h-2.1V4.2z"/><path id="Shape_11_" class="st0" d="M55.2 11.4c-.3 1.9-2.1 3.2-4.4 3.2-3 0-4.8-2-4.8-5.2S47.8 4 50.7 4c2.8 0 4.6 2 4.6 5.1v.7h-7.2v.2c0 1.8 1.1 2.9 2.7 2.9 1.2 0 2.1-.6 2.4-1.5h2zm-7.1-3h5.1c0-1.6-1-2.7-2.5-2.7s-2.5 1.1-2.6 2.7z"/></g></g><g id="android" transform="translate(213 2)"><path id="Shape_12_" class="st0" d="M0 8.8c0-.7.1-1.4.4-2s.6-1.2 1-1.7S2.4 4.2 3 4s1.3-.4 2-.4c.6 0 1.1.1 1.5.2s.9.4 1.3.8v-.8h2.5v10H7.9V13c-.4.4-.9.6-1.3.8-.5.2-1 .2-1.5.2-.7 0-1.4-.1-2-.4s-1.2-.6-1.7-1.1c-.4-.5-.8-1-1-1.7-.3-.6-.4-1.3-.4-2zm5.4 2.9c.2 0 .4 0 .6-.1.2 0 .4-.1.7-.2.2-.1.4-.2.7-.4l.6-.6V7.2c-.3-.2-.5-.4-.7-.6-.2-.2-.4-.3-.6-.4-.2-.1-.5-.2-.7-.2-.2 0-.4-.1-.6-.1-.4 0-.8.1-1.1.2l-.9.6-.6.9c-.1.4-.2.8-.2 1.2 0 .4.1.8.2 1.1.1.3.3.7.6.9s.5.5.9.6c.3.2.7.3 1.1.3zM16.8 6c-1.2 0-2.2.8-2.2 2.1v5.7H12V8.2c0-2.4 2.1-4.6 4.7-4.6h.1c2.6 0 4.7 2.2 4.7 4.6v5.6H19V8.1c0-1.2-1-2-2.2-2.1m5.9 2.8c0-.7.1-1.4.4-2s.6-1.2 1-1.7 1-.8 1.6-1.1 1.3-.4 2-.4c.6 0 1.1.1 1.5.2.5.2.9.4 1.3.8V.8H33v13h-2.5V13c-.4.4-.9.6-1.3.8-.5.2-1 .2-1.5.2-.7 0-1.4-.1-2-.4s-1.2-.6-1.6-1.1c-.4-.5-.8-1-1-1.7-.3-.6-.4-1.3-.4-2zm5.4 2.9c.2 0 .4 0 .6-.1.2 0 .4-.1.7-.2.2-.1.4-.2.7-.4l.6-.6V7.2c-.2-.2-.4-.5-.6-.6-.2-.2-.4-.3-.7-.4-.2-.1-.4-.2-.7-.2-.2 0-.4-.1-.6-.1-.4 0-.8.1-1.1.2-.3.1-.6.3-.9.6-.3.3-.4.6-.6.9-.1.3-.2.7-.2 1.1 0 .4.1.8.2 1.1.1.3.3.7.6.9.3.3.5.5.9.6.4.3.7.4 1.1.4zm16.9 0c.4 0 .7-.1 1.1-.2.3-.1.6-.3.9-.6l.6-.9c.1-.3.2-.7.2-1.2 0-.4-.1-.8-.2-1.2s-.4-.6-.7-.9c-.2-.3-.5-.5-.9-.6-.3-.1-.6-.2-1-.2s-.7.1-1.1.2c-.3.1-.6.3-.9.6l-.6.9c-.1.3-.2.7-.2 1.2 0 .4.1.8.2 1.2.1.3.3.7.6.9.2.3.5.5.9.6.4.1.7.2 1.1.2zm0 2.3c-.7 0-1.4-.1-2.1-.4s-1.2-.6-1.7-1.1c-.5-.5-.9-1-1.2-1.7-.3-.6-.4-1.3-.4-2.1 0-.7.1-1.4.4-2 .3-.6.7-1.2 1.1-1.7.5-.5 1.1-.8 1.7-1.1.7-.3 1.3-.4 2.1-.4s1.4.1 2.1.4 1.2.6 1.7 1.1c.5.5.9 1 1.1 1.7.3.6.4 1.3.4 2s-.1 1.4-.4 2.1c-.3.6-.7 1.2-1.2 1.7s-1.1.8-1.7 1.1c-.5.3-1.2.4-1.9.4zm7.7-11c-.2 0-.4 0-.6-.1-.2-.1-.3-.2-.5-.3-.1-.1-.2-.3-.3-.5-.1-.2-.1-.4-.1-.6 0-.2 0-.4.1-.6.1-.2.2-.3.3-.5.1-.1.3-.2.5-.3.2-.1.4-.1.6-.1.2 0 .4 0 .6.1.2.1.3.2.5.3s.2.3.3.5c.1.2.1.4.1.6s0 .4-.1.6c-.1.2-.2.3-.3.5-.1.1-.3.2-.5.3-.2 0-.4.1-.6.1zm-1.2.8H54v10h-2.5v-10zm3.7 5c0-.7.1-1.4.4-2s.6-1.2 1-1.7 1-.8 1.6-1.1 1.3-.4 2-.4c.6 0 1.1.1 1.5.2s.9.4 1.3.8V.8h2.5v13H63V13c-.4.4-.9.6-1.3.8-.5.2-1 .2-1.5.2-.7 0-1.4-.1-2-.4s-1.2-.6-1.6-1.1c-.4-.5-.8-1-1-1.7-.3-.6-.4-1.3-.4-2zm5.4 2.9c.2 0 .4 0 .6-.1.2 0 .4-.1.7-.2.2-.1.4-.2.7-.4l.6-.6V7.2c-.2-.2-.4-.5-.6-.6-.2-.2-.4-.3-.7-.4-.3-.1-.5-.2-.7-.2-.2 0-.4-.1-.6-.1-.4 0-.8.1-1.1.2-.3.1-.6.3-.9.6-.3.3-.5.6-.6.9-.1.3-.2.7-.2 1.1 0 .4.1.8.2 1.1.1.3.3.7.6.9s.5.5.9.6c.3.3.7.4 1.1.4zM39.4 6c-1.7 0-2.4.9-2.4 2.1v5.7h-2.5V8.2c0-2.4 1.4-4.7 5-4.7"/></g></g><g id="Row-2" transform="translate(27 39)"><g id="android-tv" transform="translate(0 1)"><g id="g33668" transform="matrix(1 0 0 -1 0 15)"><g id="g33674" transform="translate(.15 .444)"><path id="path33676" class="st0" d="M5.6 2.5C4 2.5 2.7 3.7 2.7 5.1c0 1.4 1.3 2.6 2.8 2.6 1 0 2.1-.4 2.5-1.2 0-.1.1-.1.1-.2V4c0-.1 0-.2-.1-.2-.4-.8-1.3-1.3-2.4-1.3M10.7.4v9.3H8.2V9c-.7.6-1.7 1-2.9 1C2.4 10 .2 7.8.2 5.2.2 2.5 2.4.3 5.3.3c1.2 0 2.2.4 2.9 1V.4h2.5zm11.1 0v5.1C21.8 8 19.7 10 17 10c-2.7 0-4.8-2-4.8-4.5V.4h2.5v5.1c0 1.2 1 2.2 2.3 2.2s2.3-.9 2.3-2.2V.4h2.5zm6.4 2.1c-1.6 0-2.8 1.2-2.8 2.7 0 1.4 1.3 2.6 2.8 2.6 1 0 2-.5 2.5-1.2 0-.1.1-.1.1-.2V3.9c0-.1 0-.1-.1-.2-.4-.7-1.4-1.2-2.5-1.2M33.4.4v12.1h-2.5V9c-.7.6-1.7 1-2.9 1-2.9 0-5.1-2.2-5.1-4.9S25.1.2 28 .2c1.2 0 2.2.4 2.9 1V.4h2.5zm3.9 0v5c0 1.5.9 2.3 2.5 2.3V10c-3.3 0-5-1.6-5-4.5v-5h2.5zm8 2.2c-1.6 0-2.8 1.1-2.8 2.5s1.3 2.5 2.8 2.5c1.6 0 2.8-1.1 2.8-2.5s-1.2-2.5-2.8-2.5m0-2.4c3 0 5.4 2.2 5.4 4.9s-2.4 4.8-5.4 4.8c-3 0-5.4-2.2-5.4-4.8 0-2.7 2.5-4.9 5.4-4.9m7.8 10.3c.8 0 1.5.6 1.5 1.3 0 .7-.7 1.3-1.5 1.3s-1.5-.6-1.5-1.3c.1-.7.7-1.3 1.5-1.3m1.3-.7h-2.5V.4h2.5v9.4zM61 2.5c-1.6 0-2.8 1.2-2.8 2.7 0 1.4 1.3 2.6 2.8 2.6 1 0 2-.5 2.5-1.2 0-.1.1-.1.1-.2V3.9c0-.1 0-.1-.1-.2C63 3 62.1 2.5 61 2.5M66.1.4v12.1h-2.5V9c-.7.6-1.7 1-2.9 1-2.9 0-5.1-2.2-5.1-4.8 0-2.7 2.2-4.9 5.1-4.9 1.2 0 2.2.4 2.9 1V.4h2.5z"/></g><g id="g33678" transform="translate(68.02 .503)"><path id="path33680" class="st0" d="m11.7.4 4.2 9.3h-2.1l-3.4-8.1h.6L7.6 9.7H5.4L9.6.4h2.1zM4.9.3V2h-.2c-1.5 0-2.5.8-2.5 2.2v4.1h2.7v1.5H2.2v2.5H.3V4.1C.3 1.7 2 .2 4.7.2h.2z"/></g></g></g><g id="chromecast" transform="translate(103 1)"><path id="Shape_13_" class="st0" d="M20.3 8.2c0-1.7 1.2-3 2.9-3 1.4 0 2.1.8 2.5 1.6l-1 .5c-.3-.7-.8-1.1-1.6-1.1-.9 0-1.8.8-1.8 2.1 0 1.2.9 2.1 1.8 2.1.8 0 1.4-.4 1.7-1.1l1 .4c-.4.8-1.2 1.6-2.5 1.6-1.8-.1-3-1.4-3-3.1zm7.4-2.8-.1.8h.1c.3-.5 1-1 1.8-1 1.5 0 2.2 1 2.2 2.4v3.5h-1.1V7.7c0-1.2-.6-1.6-1.4-1.6-.9 0-1.5.9-1.5 1.8V11h-1.1V2.8h1.1v2.6zm5.1 5.7V5.4h1v.9h.1c.3-.7 1.1-1.1 1.7-1.1.4 0 .6.1.8.2l-.4 1c-.2-.1-.4-.1-.6-.1-.7 0-1.5.6-1.5 1.7v3.1h-1.1zm9.4-2.9c0 1.7-1.2 3-2.9 3s-2.9-1.3-2.9-3 1.2-3 2.9-3 2.9 1.3 2.9 3zm-1.1 0c0-1.3-.9-2.1-1.9-2.1-1 0-1.9.8-1.9 2.1s.9 2.1 1.9 2.1c1 0 1.9-.8 1.9-2.1zM43 5.4h1v.8h.1c.3-.6 1.1-1 1.8-1 .9 0 1.5.4 1.8 1.1.4-.7 1.1-1.1 2-1.1 1.4 0 2 1 2 2.4v3.5h-1.1V7.7c0-1.2-.5-1.6-1.3-1.6-.9 0-1.5.9-1.5 1.8V11h-1.1V7.7c0-1.2-.5-1.6-1.3-1.6-.8.1-1.4.9-1.4 1.8V11h-1V5.4zm9.4 2.8c0-1.6 1.1-3 2.8-3 1.7 0 2.8 1.2 2.8 3v.2h-4.5c.1 1.2.9 1.9 1.8 1.9.6 0 1.3-.3 1.6-1l1 .4c-.4.8-1.2 1.6-2.5 1.6-1.8-.1-3-1.4-3-3.1zm2.8-2c-.8 0-1.4.6-1.6 1.4h3.3c-.1-.6-.5-1.4-1.7-1.4zm3.4 2c0-1.7 1.2-3 2.9-3 1.4 0 2.1.8 2.5 1.6l-1 .4c-.3-.7-.8-1.1-1.6-1.1-.9 0-1.8.8-1.8 2.1 0 1.2.9 2.1 1.8 2.1.8 0 1.4-.4 1.7-1.1l1 .4c-.4.8-1.2 1.6-2.5 1.6-1.8 0-3-1.3-3-3zm6.1 1.2c0-1.3 1.2-2 2.5-2 .8 0 1.3.2 1.5.4v-.3c0-.9-.7-1.4-1.5-1.4-.6 0-1.2.3-1.4.8l-1-.4c.2-.5.9-1.4 2.3-1.4s2.5.8 2.5 2.4v3.4h-1v-.8h-.1c-.3.5-.9 1-1.9 1-1 .1-1.9-.6-1.9-1.7zm3.9-.8s-.5-.4-1.4-.4c-1.1 0-1.6.6-1.6 1.1 0 .6.6.9 1.2.9 1 .1 1.8-.6 1.8-1.6zm1.8 1 1-.4c.3.7.9 1.1 1.5 1.1.7 0 1.1-.3 1.1-.8 0-.3-.2-.6-.8-.8L72 8.5c-.5-.2-1.5-.6-1.5-1.6s1.1-1.7 2.2-1.7c1 0 1.8.5 2.2 1.3l-.9.4c-.2-.6-.8-.8-1.3-.8-.6 0-1.1.3-1.1.7 0 .4.3.6.8.7l1.1.3c1.1.3 1.6 1 1.6 1.7 0 1-.9 1.8-2.2 1.8-1.4-.1-2.2-.9-2.5-1.7zm6-.3v-3h-1v-1h1V3.6h1.1v1.7h1.4v1h-1.4v2.9c0 .7.3.9.8.9.2 0 .4 0 .5-.1l.4.9c-.3.1-.5.2-.9.2-1.2 0-1.9-.6-1.9-1.8zM15.3 4.9H9.9c1 .7 1.7 1.8 1.7 3.1 0 .3-.1.6-.1.8v.1c-.1.4-.2.8-.4 1.1l-3.4 6H8c4.4 0 8-3.5 8-8-.1-1.1-.3-2.2-.7-3.1zM8 11.6c-1 0-2-.5-2.6-1.1-.3-.3-.5-.5-.7-.8l-.1-.1-3.4-5.9C.5 5 0 6.4 0 8c0 4.1 3 7.4 7 7.9l2.7-4.8c-.5.3-1.1.5-1.7.5zM8 0C5.4 0 3 1.3 1.6 3.2l2.7 4.7c.1.1.1.2.1.2v-.2c0-1.8 1.3-3.3 3-3.5h.1c.2-.1.5-.1.8-.1H15C13.7 1.8 11 0 8 0zm2.9 8c0 1.6-1.3 2.9-2.9 2.9-1.6 0-2.9-1.3-2.9-2.9S6.4 5.1 8 5.1c1.6 0 2.9 1.3 2.9 2.9z"/></g><g id="Fire" transform="translate(201)"><path id="Shape_14_" class="st0" d="M25.1 6.4c2.5 0 2.4 2.2 2.3 3.1h-5.2c.2-1.6 1-3.1 2.9-3.1zm3.9 4.5c.3 0 .4-1 .4-1.5.1-3.1-1.5-4.6-4.2-4.6-1.5 0-2.8.6-3.7 1.5-.8.9-1.2 2.3-1.2 4.1s.4 3.1 1.2 4c.8.9 2 1.6 4.1 1.6.8 0 2.3-.2 3.3-.6.4-.1.4-.3.4-.6v-.6c0-.3-.1-.4-.5-.3-1.1.4-2.2.6-2.9.6-1.2 0-2.2-.3-2.7-1-.6-.7-.7-1.5-.8-2.5 2.1-.1 4.4-.1 6.6-.1z"/><path id="Path_2_" class="st0" d="M4.1 5.2V3.1c0-1.7 1.7-1.4 2.7-1.3.4.1.6 0 .6-.4V.7c0-.3-.1-.5-.6-.6C4.2-.3 2 .2 2 3.5v1.7l-1.6.2c-.3 0-.4.1-.4.4v.6c0 .2.1.4.4.4H2v8.6c0 .3.1.4.4.4h1.2c.3 0 .4-.1.4-.4V6.8h2.8c.3 0 .4-.1.4-.4v-.9c0-.3-.1-.4-.4-.4l-2.7.1z"/><path id="Shape_15_" class="st0" d="M10.7 5.2H9.5c-.3 0-.5.1-.5.4v9.7c0 .3.1.4.4.4h1.2c.3 0 .4-.1.4-.4V5.5c.1-.1 0-.3-.3-.3zM10.1.7c-.7 0-1.3.5-1.3 1.3s.5 1.3 1.3 1.3 1.3-.5 1.3-1.3S10.8.7 10.1.7z"/><path id="Path_3_" class="st0" d="m15.8 6.7-.1-1.2c-.1-.3-.2-.3-.5-.3h-.9c-.3 0-.4.1-.4.4v9.7c0 .3.1.4.4.4h1.2c.3 0 .4-.1.4-.4V8c.8-.6 1.5-1 3.1-1 .4 0 .9.1.9-.2V5.5c0-.2-.2-.4-.7-.4-1.3-.1-2.2.3-3.4 1.6z"/></g></g><g id="Row-3" transform="translate(0 81)"><g id="fire-tv" transform="translate(91)"><path id="Path_4_" class="st0" d="M32.6 17.8c-3.5 2.5-8.5 3.9-12.8 3.9-6 0-11.5-2.2-15.6-5.9-.3-.3 0-.7.4-.5 4.4 2.6 9.9 4.1 15.6 4.1 3.8 0 8-.8 11.9-2.4.6-.3 1.1.3.5.8z"/><path id="Path_5_" class="st0" d="M34 16.1c-.4-.6-2.9-.3-4-.1-.3 0-.4-.3-.1-.5 2-1.4 5.2-1 5.6-.5.4.5-.1 3.7-2 5.3-.3.2-.6.1-.4-.2.4-1.1 1.4-3.4.9-4z"/><path id="Shape_16_" class="st0" d="M19.9 5.1c1.9 0 1.9 1.7 1.9 2.4h-4.1c.1-1.2.7-2.4 2.2-2.4zm3.2 3.6c.2 0 .3-.8.3-1.2 0-2.5-1.3-3.7-3.4-3.7-1.2 0-2.3.4-2.9 1.2-.6.7-1 1.8-1 3.2 0 1.4.3 2.4.9 3.2.6.7 1.6 1.3 3.2 1.3.6 0 1.8-.1 2.6-.5.3-.1.3-.2.3-.5v-.5c0-.2-.1-.4-.4-.3-.9.3-1.8.4-2.3.4-.9 0-1.7-.3-2.2-.8-.4-.6-.6-1.2-.6-2 1.9.2 3.7.2 5.5.2z"/><path id="Path_6_" class="st0" d="M3.2 4.1V2.4c0-1.3 1.3-1.1 2.1-1 .4.1.5 0 .5-.3V.6c0-.3-.1-.4-.5-.5-2.1-.4-3.8 0-3.8 2.6v1.4l-1.2.2c-.2 0-.3.1-.3.3V5c0 .2.1.3.3.3h1.2v6.8c0 .2.1.3.3.3h1c.2 0 .3-.1.3-.3V5.4h2.2c.2 0 .3-.1.3-.3v-.7c0-.2-.1-.3-.3-.3H3.2z"/><path id="Shape_17_" class="st0" d="M8.5 4.1h-1c-.2 0-.3.1-.3.3v7.7c0 .2.1.3.3.3h1c.2 0 .3-.1.3-.3V4.4c0-.2-.1-.3-.3-.3zM8 .6c-.6 0-1 .4-1 1s.4 1 1 1 1-.4 1-1c.1-.7-.4-1-1-1z"/><path id="Path_7_" class="st0" d="M36.8 12.5h-1.1c-.2 0-.4-.1-.5-.3l-3-7.7c-.1-.2 0-.4.2-.4h1.1c.2 0 .3.1.4.3l2.3 6.6 2.3-6.6c.1-.2.2-.3.4-.3h1c.3 0 .3.1.2.4L37 12.2c.1.2 0 .3-.2.3z"/><path id="Path_8_" class="st0" d="M27.2 10.3c0 2 1.3 2.3 2.3 2.3.5 0 .9-.1 1.4-.1.5-.2.5-.2.5-.5v-.6c0-.2-.1-.3-.3-.3-.4.1-.7.1-1 .1-1.1-.1-1.2-.4-1.2-1.5V5.4H31c.2 0 .3-.1.3-.3v-.7c0-.2-.1-.3-.3-.3h-2.2v-2c0-.2-.1-.3-.3-.3h-.7c-.3 0-.4.1-.4.3l-.2 2-1.2.2c-.3 0-.3.2-.3.4v.4c0 .2.1.3.3.3h1.2v4.9z"/><path id="Path_9_" class="st0" d="m12.6 5.3-.1-.9c-.1-.2-.2-.3-.4-.3h-.7c-.2 0-.3.1-.3.3v7.7c0 .2.1.3.3.3h1c.2 0 .3-.1.3-.3V6.3c.6-.5 1.2-.8 2.4-.8.3 0 .7.1.7-.2v-1c0-.2-.1-.3-.5-.3-1.1 0-1.8.3-2.7 1.3z"/></g><g id="lg-electronics" transform="translate(151)"><path id="Shape_18_" class="st0" d="M9 0C4 0 0 4 0 9s4 9 9 9 9-4 9-9-4-9-9-9zm2.2 12.2v.7H8.6V5.1h.7v7h1.9zM9 16.5c-4.2 0-7.5-3.4-7.5-7.5S4.8 1.5 9 1.5h.3v.7H9c-3.8 0-6.8 3-6.8 6.8s3.1 6.8 6.8 6.8c3.7 0 6.7-2.9 6.8-6.5h-4.6v-.7h5.3V9c0 4.2-3.3 7.5-7.5 7.5zM7.2 6.1c0 .6-.5 1.1-1.1 1.1-.6 0-1.1-.5-1.1-1.1S5.5 5 6.1 5s1.1.6 1.1 1.1z"/><path id="Shape_19_" class="st0" d="M22.5 13.3h6.3v-1.9h-4V4.7h-2.3v8.6zm13.9-8c-.7-.5-1.7-.8-2.8-.8-1.3 0-2.4.4-3.2 1.1-.8.8-1.2 1.9-1.2 3.3 0 1.5.4 2.8 1.3 3.6.6.6 1.5 1 2.5 1 2.1 0 2.6-1.3 2.6-1.3v1h1.9V8.4h-3.8V10h1.8s0 1.9-1.8 1.9c-.5 0-.9-.2-1.2-.5-.5-.5-.8-1.3-.8-2.4 0-1.8.7-2.8 1.9-2.8.7 0 1.3.4 1.4 1.1h2.5c-.2-.9-.4-1.4-1.1-2z"/></g><g id="oculus" transform="translate(209 1)"><path id="Shape_20_" class="st0" d="M71.9 5.8c-.3-.1-.5-.1-.8 0-.1 0-.3 0-.4.1-.1 0-.2.1-.3.1-.1.1-.2.2-.2.4 0 .1 0 .3.1.4.2.1.3.2.5.2.1.1.3.1.4.1.2 0 .3.1.5.1.4.1.7.2 1 .3.6.2 1.2.6 1.4 1.3.1.3.1.6.1.9-.1.4-.2.7-.4 1-.2.2-.4.4-.6.5-.3.2-.7.3-1.1.4-.3.1-.6.1-.9.1-.4 0-.7-.1-1.1-.2-.6-.2-1.2-.5-1.7-.9l.9-1.2c.3.2.7.4 1 .6.2.1.5.2.8.2h.7c.2 0 .3-.1.5-.1.1-.1.2-.1.3-.2.1-.1.1-.2.1-.3 0-.1 0-.2-.1-.3l-.3-.3c-.2-.1-.3-.2-.5-.2-.2-.1-.4-.1-.6-.2-.6-.1-1.3-.3-1.8-.7-.2-.2-.4-.5-.5-.8-.1-.3-.1-.7 0-1 .1-.3.2-.5.4-.7.2-.3.6-.5.9-.7.3-.1.5-.2.8-.2h1.1c.7.1 1.3.4 1.8.7-.3.4-.5.7-.8 1.1-.4-.2-.8-.4-1.2-.5zM58.7 1H57v10.5h1.6V1zM67 11.5V4.7h-1.6v4.2c0 .2-.1.4-.2.6-.3.5-.8.7-1.4.7-.5 0-1.1-.2-1.4-.7-.1-.2-.2-.4-.2-.6-.1-.3-.1-.6-.1-.9V4.8h-1.6V9c0 .5.1.9.3 1.3.4.9 1.3 1.4 2.2 1.5.5.1.9 0 1.4-.1.4-.1.9-.3 1.2-.7v.7c.5-.2.9-.2 1.4-.2zm-19.4-.9c-.4-.4-.7-.8-1.1-1.1-.3.3-.6.4-1 .5-.4.1-.8.1-1.1 0-.4-.1-.7-.4-.9-.7-.4-.3-.5-.7-.5-1.1 0-.4.1-.8.2-1.1.2-.4.5-.6.8-.8.2-.1.3-.1.5-.1h.7c.4 0 .7.2 1.1.4.3-.4.7-.8 1-1.2-.6-.4-1.2-.7-1.9-.8-.7-.1-1.4 0-2 .3-.6.3-1.2.8-1.5 1.4-.3.6-.5 1.3-.4 2 0 .7.2 1.4.6 2 .4.6 1 1 1.7 1.2.7.2 1.4.3 2.1.1.5-.1 1.2-.4 1.7-1zm7.5.9V4.7h-1.6v4.2c0 .2-.1.4-.2.6-.3.5-.8.7-1.4.7-.5 0-1.1-.2-1.4-.7-.1-.2-.2-.4-.2-.6-.1-.3-.1-.6-.1-.9V4.8h-1.6V9c0 .5.1.9.3 1.3.4.9 1.3 1.4 2.2 1.5.5.1.9 0 1.4-.1.4-.1.9-.3 1.2-.7v.7c.5-.2 1-.2 1.4-.2zM40.2 8.1c0 .9-.3 1.9-1 2.5-.7.7-1.6 1-2.5 1-.9 0-1.8-.4-2.5-1-.7-.7-1-1.6-1-2.5 0-.9.3-1.9 1-2.5.7-.7 1.6-1 2.5-1 .9 0 1.8.4 2.5 1s1 1.6 1 2.5zm-1.6 0v-.4c0-.1-.1-.3-.1-.4 0-.1-.1-.2-.2-.3-.1-.1-.1-.2-.2-.3-.1-.1-.2-.2-.3-.2-.1-.1-.2-.1-.3-.2-.1 0-.2-.1-.4-.1h-.8c-.1 0-.3.1-.4.1-.1 0-.2.1-.3.2-.1.1-.2.1-.3.2-.1.1-.2.2-.2.3-.1.1-.1.2-.2.3 0 .1-.1.3-.1.4v.8c0 .1.1.3.1.4 0 .1.1.2.2.3.1.1.1.2.2.3.1.1.2.2.3.2.1.1.2.1.3.2.1 0 .2.1.4.1h.8c.1 0 .3-.1.4-.1.1 0 .2-.1.3-.2.1 0 .2-.1.2-.2.1-.1.2-.2.2-.3.1-.1.1-.2.2-.3 0-.1.1-.3.1-.4.1-.1.1-.2.1-.4zM26.4 8c0 2.4-1.1 4.7-3 6.2-.9.7-2 1.3-3.2 1.5-.7.2-1.3.2-2 .3H8c-.7 0-1.3-.1-2-.3-1-.2-2.1-.8-3-1.5-1.9-1.5-3-3.8-3-6.2 0-2.4 1.1-4.7 3-6.2.9-.7 2-1.3 3.2-1.5C6.8.1 7.4 0 8.1 0h10.2c.7 0 1.3.1 2 .3 1.2.3 2.2.8 3.2 1.5 1.9 1.5 2.9 3.8 2.9 6.2zm-5.3 0c0-.9-.4-1.7-1.1-2.2-.4-.2-.7-.4-1.2-.5-.4-.1-.8-.1-1.3-.1H8.8c-.4 0-.8 0-1.3.1-.3.2-.7.3-1 .5-.7.5-1.2 1.3-1.2 2.2s.4 1.7 1.1 2.2c.4.2.7.4 1.2.5.4.1.8.1 1.3.1h8.7c.4 0 .8 0 1.3-.1.4-.1.8-.2 1.2-.5.6-.5 1-1.3 1-2.2z"/></g><g id="PS4"><g id="PSFM_R-link" transform="translate(.774 .774)"><g id="PSFM_R"><path id="Path_10_" class="st0" d="M7.9 0v15.2l3.4 1.1V3.5c0-.6.3-1 .7-.9.6.2.7.7.7 1.3V9c2.1 1 3.8 0 3.8-2.7 0-2.8-1-4-3.9-5C11.1.8 9.5.3 7.9 0"/><path id="Path_11_" class="st0" d="m12 14.1 5.5-2c.6-.2.7-.5.2-.7-.5-.2-1.4-.1-2.1.1L12 12.8v-2.1l.2-.1c.8-.3 1.7-.4 2.6-.5 1.6-.2 3.2 0 4.8.6 1.6.5 1.8 1.3 1.4 1.8-.4.5-1.4.9-1.4.9L12 16v-1.9z"/><path id="Path_12_" class="st0" d="M1.6 13.8c-1.7-.5-1.9-1.4-1.2-2 .7-.5 1.9-.9 1.9-.9l4.9-1.7v2l-3.5 1.3c-.7.2-.7.5-.2.6.5.2 1.4.2 2-.1l1.7-.6v1.8l-.3.1c-1.8.3-3.6.1-5.3-.5z"/><path id="Shape_21_" class="st0" d="M20 14.6c.6 0 1.1.5 1.1 1.1 0 .6-.5 1.1-1.1 1.1-.6 0-1.1-.5-1.1-1.1 0-.3.1-.6.3-.8s.5-.3.8-.3zm0 2.1c.4 0 .7-.2.9-.6s.1-.8-.2-1c-.3-.3-.7-.4-1-.2s-.6.5-.6.9c0 .3.1.5.3.7.1.1.4.2.6.2zm-.4-1.6h.5c.2 0 .4.1.4.3 0 .1-.1.3-.2.3.1 0 .1.1.2.2 0 .1.1.3.1.4h-.2c0-.1-.1-.3-.1-.3 0-.1-.1-.2-.3-.2h-.2v.5h-.2v-1.2zm.2.6h.2c.2 0 .3-.1.3-.2s-.1-.2-.2-.2h-.2v.4z"/></g></g><path id="Path_13_" class="st0" d="M57.8 5v-.9s0-.1-.1-.1h-6.4c-1.9 0-2.8 1.1-2.8 2.6v4.5c0 .9-.4 1.6-1.4 1.6h-6s-.1 0-.1.1v.9s0 .1.1.1H48c1.9 0 2.8-1.1 2.8-2.6V6.7c0-.9.4-1.6 1.4-1.6l5.6-.1c0 .1 0 0 0 0z"/><path id="Path_14_" class="st0" d="M38.9 4H27.4s-.1 0-.1.1V5h10.9c.9 0 1.4.7 1.4 1.6s-.4 1.6-1.4 1.6h-8.6c-1.3 0-2.3 1.1-2.3 2.6v2.9h2s.1 0 .1-.1v-2.9c0-.9.5-1.6 1.3-1.6h8.2c1.9 0 2.8-1.1 2.8-2.6S40.8 4 38.9 4z"/><path id="Shape_22_" class="st0" d="M72.9 11.7h-2s-.1 0-.1-.1V5.1c0-1-.7-1.3-1.7-.7l-11.8 7.2c-.5.3-.6.6-.5.8.1.2.4.3.9.3h10.9s.1 0 .1.1v.9s0 .1.1.1h2s.1 0 .1-.1v-.9s0-.1.1-.1h2l-.1-1c.1.1.1 0 0 0zm-4.1-.1c0 .1 0 .1 0 0l-9.2.1h-.1s0-.1.1-.1L68.7 6c.1 0 .2 0 .2.1v5.5z"/><path id="Path_15_" class="st0" d="M74.4 12.8h-.3v-.1h.7v.1h-.3v1h-.1z"/><path id="Path_16_" class="st0" d="m75.5 13.7.3-1h.3v1.1h-.2v-1l-.3 1h-.2l-.3-1v1H75v-1.1h.2z"/></g></g><g id="ROW-4" transform="translate(16 121)"><g id="roku"><path id="Combined-Shape" class="st0" d="M18.8 3.2c3.6 0 6.5 2.9 6.5 6.4 0 3.6-2.9 6.4-6.5 6.4s-6.4-2.9-6.4-6.4c-.1-3.6 2.8-6.4 6.4-6.4zm11.4.2v4.9L35 3.5h8.6v6.7c0 2 .5 2.6 1.5 2.6s1.7-.5 2.2-1.3v-8h4.2v12.3h-.9l-1.9-1.6c-.7.8-2.3 1.8-4.1 1.8-3.7 0-5.1-2.2-5.1-4.7V4l-5.3 5.3 6.4 6.4h-5.3l-5.1-5v5H26V3.4h4.2zM6 0c3.5 0 6.3 2.4 6.3 5.3 0 1.8-1.1 3.4-2.7 4.3l4.4 6.2H9.3l-3.8-5.3H4.2v5.2H0V0h6zm12.8 6.2c-1.1 0-2.1 1.5-2.1 3.4s.9 3.4 2.1 3.4c1.1 0 2.1-1.5 2.1-3.4s-1-3.4-2.1-3.4zM5.5 2.6H4.2v5.3h1.3c1.4 0 2.6-1.2 2.6-2.6 0-1.5-1.2-2.7-2.6-2.7z"/></g><g id="samsung" transform="translate(72 4)"><path id="Shape_23_" class="st0" d="M44.7 5.6s-.8-.5-1.3-.7c0 0-1.5-.7-1.8-1 0 0-.6-.6-.2-1.2 0 0 .1-.4.8-.4 0 0 .8 0 .8.7v.9h2.9V2.5S46.1.2 42.5.1c0 0-2.9-.2-3.7 1.4 0 0-.3.3-.3 1.5v.9s0 1 .5 1.7c0 0 .3.4 1 .9 0 0 1.5.8 2.3 1.2 0 0 .9.5.8 1.3 0 0-.1.8-.9.8 0 0-.8 0-.8-.8V8h-3.1v1.4s-.1 2.6 3.9 2.6c0 0 3.8.1 4-2.7V8.2c-.1 0 0-1.7-1.5-2.6zM29.8.5l-1 6.1h-.2L27.7.5h-4.9l-.2 11.1h2.9V3.3h.2l1.5 8.3h3l1.5-8.3h.3l.1 8.3H35L34.6.5h-4.8zM12.6.5l-1.9 11.1h3.1L15 3h.3l1.1 8.6h3.1L17.5.5h-4.9zm65.2 4.9V7h.8v1.8c0 .9-.7.9-.7.9-.9 0-.9-.8-.9-.8V2.8c0-.6.8-.7.8-.7.8 0 .8.7.8.7v.9h2.9c.1-1.8-.3-2.2-.3-2.2C80.5 0 77.7 0 77.7 0 73.5 0 74 3.3 74 3.3v5.9c.1 3 4.2 2.7 4.3 2.7 1.8-.2 2.4-.8 2.4-.8.5-.4.6-.9.6-.9.1-.3.2-1.3.2-1.3V5.4h-3.7zm-9.7 1.8H68L65 .4h-3.5v11.1h2.9l-.2-6.8h.1l3.1 6.8h3.4V.5h-2.9l.2 6.7zM54.4 8.8s0 .9-.8.9c0 0-.9 0-.9-.9V.4h-3.2v8.3s-.3 3.1 4.1 3.1c0 0 3.9 0 3.9-3V.5h-3.1v8.3zM6.6 5.6s-.8-.5-1.3-.7c0 0-1.5-.7-1.8-1 0 0-.6-.6-.2-1.2 0 0 .1-.4.8-.4 0 0 .8 0 .8.7v.9h2.9V2.5S8 .2 4.4.1h-.7S1.5.2.7 1.4c0 0-.3.3-.3 1.5v.9s0 1 .5 1.7c0 0 .3.4 1 .9 0 0 1.5.8 2.3 1.2 0 0 .9.5.8 1.3 0 0-.1.8-.9.8 0 0-.8 0-.8-.8V8H0v1.4C0 9.3 0 12 3.9 12c0 0 3.8.1 4-2.7V8.2s.2-1.7-1.3-2.6z"/></g><g id="xbox-one" transform="translate(174 2)"><path id="Shape_24_" class="st0" d="m51.3 13-3-4.3-3 4.3H44l3.7-5.2L44.3 3h1.3l2.7 3.8L51 3h1.2l-3.3 4.7 3.7 5.2h-1.3zm-23.7-.1L24 7.8 27.3 3H26l-2.7 3.8L20.6 3h-1.2l3.3 4.7-3.7 5.2h1.3l3-4.3 3 4.3h1.3z"/><path id="Shape_25_" class="st0" d="M34.4 8.3c-.2-.2-.4-.3-.7-.4.7-.4 1.1-1.1 1.1-1.9 0-.6-.2-2.6-3.1-2.6h-3.9v4.1h-1.3c-.2.2-.5.7-.7 1h2V13h3.9c2.1 0 3.4-1.1 3.4-2.8.1-.8-.2-1.5-.7-1.9m-5.4-4h2.8c.8 0 2 .2 2 1.5 0 1-.7 1.6-2 1.6H29V4.3zm2.8 7.6H29V8.4h2.8c1.1 0 2.3.3 2.3 1.7 0 1.6-1.4 1.8-2.3 1.8m8.4-8.8c-2.7 0-4.6 2.1-4.6 5 0 3 1.9 5 4.6 5 2.7 0 4.6-2.1 4.6-5s-1.9-5-4.6-5m0 9c-2 0-3.5-1.6-3.5-4s1.4-4 3.5-4c2 0 3.5 1.6 3.5 4s-1.4 4-3.5 4M2.4 2.3C.9 3.8 0 5.9 0 8c0 1.8.6 3.5 1.6 4.8-.6-1.9 2.5-6.5 4.1-8.4-2.6-2.7-3.3-2.1-3.3-2.1m11.2 0C15.1 3.8 16 5.9 16 8c0 1.8-.6 3.5-1.6 4.8.6-1.9-2.5-6.5-4.1-8.4 2.6-2.7 3.3-2.1 3.3-2.1M8 0c1.6 0 2.9.4 4.2 1.2-1.5-.3-3.9 1-4.1 1.1C7.4 2 5.2.9 3.8 1.2 5 .4 6.4 0 8 0m0 6.4c2.4 1.8 6.5 6.3 5.2 7.6-1.5 1.3-3.3 2-5.2 2-1.9 0-3.8-.7-5.2-2C1.5 12.7 5.6 8.2 8 6.4c-.1 0 0 0 0 0m63-3.1v7.9l-5.8-7.9h-.9v9.6h1.1V5.2l5.7 7.7h1.1V3.3H71zm-12.3-.2c-2.7 0-4.6 2.1-4.6 5 0 3 1.9 5 4.6 5 2.7 0 4.6-2.1 4.6-5s-1.9-5-4.6-5m0 9c-2 0-3.5-1.6-3.5-4s1.4-4 3.5-4c2 0 3.5 1.6 3.5 4s-1.4 4-3.5 4m15.6-.1V8.4h5.3v-.9h-5.3V4.3h5.6v-1h-6.7v9.6H80V12h-5.7z"/></g></g></g></g></svg>