<svg xmlns="http://www.w3.org/2000/svg">
<defs>
<font id="ShowtimeAtypText-Semibold" horiz-adv-x="0" >
  <font-face 
    font-family="Showtime Atyp Text Semibold"
    font-weight="600"
    font-stretch="normal"
    units-per-em="1000"
    panose-1="0 0 7 0 0 0 0 0 0 0"
    ascent="800"
    descent="-200"
    x-height="516"
    cap-height="700"
    bbox="-558 -313 1891 1126"
    underline-thickness="50"
    underline-position="-100"
    stemh="119"
    stemv="135"
    unicode-range="U+0020-1F7E4"
  />
<missing-glyph horiz-adv-x="790" 
d="M100 0v590h184v55c0 35 20 55 55 55h112c35 0 55 -20 55 -55v-55h184v-590h-590zM339 590h112v55h-112v-55zM185 405c12 -8 26 -11 39 -11c22 0 41 11 41 35c0 36 -56 28 -56 42c0 6 7 9 16 9c7 0 18 -2 31 -9l4 24c-12 7 -24 9 -35 9c-22 0 -41 -11 -41 -35
c0 -37 55 -29 55 -43c0 -5 -6 -9 -15 -9s-22 4 -35 12zM293 502v-64c0 -26 16 -44 43 -44s43 18 43 44v64h-24v-64c0 -12 -7 -20 -19 -20s-19 8 -19 20v64h-24zM410 396h73l3 24h-26v58h23l3 24h-73l-3 -24h26v-58h-23zM547 396h24v82h31l3 24h-89l-3 -24h34v-82zM274 297
c0 28 -11 52 -42 52c-29 0 -45 -24 -45 -55c0 -39 23 -55 48 -55c13 0 27 4 38 12l-5 24c-14 -8 -24 -12 -33 -12c-15 0 -22 12 -22 31c0 17 6 31 19 31c14 0 16 -14 16 -31zM414 250c12 -8 26 -11 39 -11c22 0 41 11 41 35c0 36 -56 28 -56 42c0 6 7 9 16 9
c7 0 18 -2 31 -9l4 24c-12 7 -24 9 -35 9c-22 0 -41 -11 -41 -35c0 -37 55 -29 55 -43c0 -5 -6 -9 -15 -9s-22 4 -35 12zM296 241h25l5 27h32l5 -27h24l-18 106h-54zM528 241h71l3 24h-50v17h47l3 24h-50v17h47l3 24h-74v-106zM330 292l5 31h14l5 -31h-24zM220 86h24v82h31
l3 24h-89l-3 -24h34v-82zM331 86h24v31l36 75h-27l-21 -45l-20 45h-28l36 -75v-31zM416 86h24v33h19c23 0 40 16 40 36s-17 37 -40 37h-43v-106zM528 86h71l3 24h-50v17h47l3 24h-50v17h47l3 24h-74v-106zM440 143v25h19c8 0 14 -6 14 -13s-6 -12 -14 -12h-19z" />
    <glyph glyph-name="f_f" unicode="ff" horiz-adv-x="752" 
d="M118 0v397h-104v119h104v24c0 134 66 200 208 200h61v-119h-61c-50 0 -73 -23 -73 -73v-32h206v24c0 134 66 200 208 200h61v-119h-61c-50 0 -73 -23 -73 -73v-32h134v-119h-134v-397h-135v397h-206v-397h-135z" />
    <glyph glyph-name="f_f_i" unicode="ffi" horiz-adv-x="989" 
d="M935 516v-516h-135v397h-206v-397h-135v397h-206v-397h-135v397h-104v119h104v24c0 134 66 200 208 200h61v-119h-61c-50 0 -73 -23 -73 -73v-32h206v24c0 134 66 200 208 200h61v-119h-61c-50 0 -73 -23 -73 -73v-32h341zM867 578c-44 0 -81 37 -81 81c0 45 37 81 81 81
c45 0 82 -36 82 -81c0 -44 -37 -81 -82 -81z" />
    <glyph glyph-name="f_f_l" unicode="ffl" horiz-adv-x="989" 
d="M800 740h135v-740h-135v397h-206v-397h-135v397h-206v-397h-135v397h-104v119h104v24c0 134 66 200 208 200h61v-119h-61c-50 0 -73 -23 -73 -73v-32h206v24c0 134 66 200 208 200h61v-119h-61c-50 0 -73 -23 -73 -73v-32h206v224z" />
    <glyph glyph-name="f_i" unicode="fi" horiz-adv-x="648" 
d="M594 516v-516h-135v397h-206v-397h-135v397h-104v119h104v24c0 134 66 200 208 200h61v-119h-61c-50 0 -73 -23 -73 -73v-32h341zM527 578c-45 0 -82 37 -82 81c0 45 37 81 82 81c44 0 81 -36 81 -81c0 -44 -37 -81 -81 -81z" />
    <glyph glyph-name="f_l" unicode="fl" horiz-adv-x="648" 
d="M459 740h135v-740h-135v397h-206v-397h-135v397h-104v119h104v24c0 134 66 200 208 200h61v-119h-61c-50 0 -73 -23 -73 -73v-32h206v224z" />
    <glyph glyph-name=".notdef" horiz-adv-x="790" 
d="M100 0v590h184v55c0 35 20 55 55 55h112c35 0 55 -20 55 -55v-55h184v-590h-590zM339 590h112v55h-112v-55zM185 405c12 -8 26 -11 39 -11c22 0 41 11 41 35c0 36 -56 28 -56 42c0 6 7 9 16 9c7 0 18 -2 31 -9l4 24c-12 7 -24 9 -35 9c-22 0 -41 -11 -41 -35
c0 -37 55 -29 55 -43c0 -5 -6 -9 -15 -9s-22 4 -35 12zM293 502v-64c0 -26 16 -44 43 -44s43 18 43 44v64h-24v-64c0 -12 -7 -20 -19 -20s-19 8 -19 20v64h-24zM410 396h73l3 24h-26v58h23l3 24h-73l-3 -24h26v-58h-23zM547 396h24v82h31l3 24h-89l-3 -24h34v-82zM274 297
c0 28 -11 52 -42 52c-29 0 -45 -24 -45 -55c0 -39 23 -55 48 -55c13 0 27 4 38 12l-5 24c-14 -8 -24 -12 -33 -12c-15 0 -22 12 -22 31c0 17 6 31 19 31c14 0 16 -14 16 -31zM414 250c12 -8 26 -11 39 -11c22 0 41 11 41 35c0 36 -56 28 -56 42c0 6 7 9 16 9
c7 0 18 -2 31 -9l4 24c-12 7 -24 9 -35 9c-22 0 -41 -11 -41 -35c0 -37 55 -29 55 -43c0 -5 -6 -9 -15 -9s-22 4 -35 12zM296 241h25l5 27h32l5 -27h24l-18 106h-54zM528 241h71l3 24h-50v17h47l3 24h-50v17h47l3 24h-74v-106zM330 292l5 31h14l5 -31h-24zM220 86h24v82h31
l3 24h-89l-3 -24h34v-82zM331 86h24v31l36 75h-27l-21 -45l-20 45h-28l36 -75v-31zM416 86h24v33h19c23 0 40 16 40 36s-17 37 -40 37h-43v-106zM528 86h71l3 24h-50v17h47l3 24h-50v17h47l3 24h-74v-106zM440 143v25h19c8 0 14 -6 14 -13s-6 -12 -14 -12h-19z" />
    <glyph glyph-name="A" unicode="A" horiz-adv-x="734" 
d="M577 0l-60 152h-308l-60 -152h-145l284 700h158l284 -700h-153zM259 279h208l-104 262z" />
    <glyph glyph-name="Aacute" unicode="&#xc1;" horiz-adv-x="734" 
d="M561 900l-160 -154h-149l144 154h165zM577 0l-60 152h-308l-60 -152h-145l284 700h158l284 -700h-153zM259 279h208l-104 262z" />
    <glyph glyph-name="Abreve" unicode="&#x102;" horiz-adv-x="734" 
d="M367 740c-99 0 -179 58 -189 160h114c6 -37 33 -60 75 -60c41 0 68 23 74 60h114c-10 -102 -90 -160 -188 -160zM577 0l-60 152h-308l-60 -152h-145l284 700h158l284 -700h-153zM259 279h208l-104 262z" />
    <glyph glyph-name="uni1EAE" unicode="&#x1eae;" horiz-adv-x="734" 
d="M547 1084l-147 -142h-137l133 142h151zM367 740c-99 0 -179 58 -189 160h114c6 -37 33 -60 75 -60c41 0 68 23 74 60h114c-10 -102 -90 -160 -188 -160zM577 0l-60 152h-308l-60 -152h-145l284 700h158l284 -700h-153zM259 279h208l-104 262z" />
    <glyph glyph-name="uni1EB6" unicode="&#x1eb6;" horiz-adv-x="734" 
d="M367 740c-99 0 -179 58 -189 160h114c6 -37 33 -60 75 -60c41 0 68 23 74 60h114c-10 -102 -90 -160 -188 -160zM730 0h-153l-60 152h-308l-60 -152h-145l284 700h158zM259 279h208l-104 262zM366 -62c45 0 82 -36 82 -81c0 -44 -37 -82 -82 -82c-44 0 -81 38 -81 82
c0 45 37 81 81 81z" />
    <glyph glyph-name="uni1EB0" unicode="&#x1eb0;" horiz-adv-x="734" 
d="M474 942h-138l-147 142h152zM367 740c-99 0 -179 58 -189 160h114c6 -37 33 -60 75 -60c41 0 68 23 74 60h114c-10 -102 -90 -160 -188 -160zM577 0l-60 152h-308l-60 -152h-145l284 700h158l284 -700h-153zM259 279h208l-104 262z" />
    <glyph glyph-name="uni1EB2" unicode="&#x1eb2;" horiz-adv-x="734" 
d="M368 1053c-26 0 -36 -22 -35 -43h-95c0 70 51 116 130 116c78 0 128 -46 128 -106c0 -54 -41 -102 -125 -122l-27 62c37 13 57 32 57 60c0 19 -14 33 -33 33zM367 740c-99 0 -179 58 -189 160h114c6 -37 33 -60 75 -60c41 0 68 23 74 60h114c-10 -102 -90 -160 -188 -160
zM577 0l-60 152h-308l-60 -152h-145l284 700h158l284 -700h-153zM259 279h208l-104 262z" />
    <glyph glyph-name="uni1EB4" unicode="&#x1eb4;" horiz-adv-x="734" 
d="M298 990c-21 0 -37 -13 -46 -38l-78 38c14 56 64 97 124 97c75 0 98 -47 140 -47c20 0 36 13 45 38l79 -38c-15 -56 -64 -97 -124 -97c-76 0 -99 47 -140 47zM367 840c41 0 68 23 74 60h114c-10 -102 -90 -160 -188 -160c-99 0 -179 58 -189 160h114c6 -37 33 -60 75 -60
zM577 0l-60 152h-308l-60 -152h-145l284 700h158l284 -700h-153zM259 279h208l-104 262z" />
    <glyph glyph-name="uni01CD" unicode="&#x1cd;" horiz-adv-x="734" 
d="M438 746h-142l-146 154h149l68 -69l68 69h149zM577 0l-60 152h-308l-60 -152h-145l284 700h158l284 -700h-153zM259 279h208l-104 262z" />
    <glyph glyph-name="Acircumflex" unicode="&#xc2;" horiz-adv-x="734" 
d="M367 815l-68 -69h-149l146 154h142l146 -154h-149zM577 0l-60 152h-308l-60 -152h-145l284 700h158l284 -700h-153zM259 279h208l-104 262z" />
    <glyph glyph-name="uni1EA4" unicode="&#x1ea4;" horiz-adv-x="734" 
d="M782 1028l-147 -142h-137l133 142h151zM367 815l-68 -69h-149l146 154h142l146 -154h-149zM288 700h158l284 -700h-153l-60 152h-308l-60 -152h-145zM259 279h208l-104 262z" />
    <glyph glyph-name="uni1EAC" unicode="&#x1eac;" horiz-adv-x="734" 
d="M367 815l-68 -69h-149l146 154h142l146 -154h-149zM730 0h-153l-60 152h-308l-60 -152h-145l284 700h158zM259 279h208l-104 262zM366 -62c45 0 82 -36 82 -81c0 -44 -37 -82 -82 -82c-44 0 -81 38 -81 82c0 45 37 81 81 81z" />
    <glyph glyph-name="uni1EA6" unicode="&#x1ea6;" horiz-adv-x="734" 
d="M709 886h-137l-148 142h152zM367 815l-68 -69h-149l146 154h142l146 -154h-149zM577 0l-60 152h-308l-60 -152h-145l284 700h158l284 -700h-153zM259 279h208l-104 262z" />
    <glyph glyph-name="uni1EA8" unicode="&#x1ea8;" horiz-adv-x="734" 
d="M567 1023c-25 0 -36 -22 -35 -43h-94c0 70 51 115 129 115s129 -45 129 -105c0 -54 -42 -103 -125 -122l-27 62c36 13 56 32 56 60c0 19 -13 33 -33 33zM367 815l-68 -69h-149l146 154h142l146 -154h-149zM577 0l-60 152h-308l-60 -152h-145l284 700h158l284 -700h-153z
M259 279h208l-104 262z" />
    <glyph glyph-name="uni1EAA" unicode="&#x1eaa;" horiz-adv-x="734" 
d="M298 990c-20 0 -37 -13 -46 -38l-78 38c14 56 64 97 124 97c75 0 98 -47 140 -47c20 0 36 13 45 38l79 -38c-15 -56 -64 -97 -124 -97c-76 0 -99 47 -140 47zM367 815l-68 -69h-149l146 154h142l146 -154h-149zM577 0l-60 152h-308l-60 -152h-145l284 700h158l284 -700
h-153zM259 279h208l-104 262z" />
    <glyph glyph-name="Adieresis" unicode="&#xc4;" horiz-adv-x="734" 
d="M251 748c-43 0 -78 35 -78 77s35 78 78 78c42 0 77 -36 77 -78s-35 -77 -77 -77zM484 748c-42 0 -77 35 -77 77s35 78 77 78c43 0 78 -36 78 -78s-35 -77 -78 -77zM577 0l-60 152h-308l-60 -152h-145l284 700h158l284 -700h-153zM259 279h208l-104 262z" />
    <glyph glyph-name="uni1EA0" unicode="&#x1ea0;" horiz-adv-x="734" 
d="M730 0h-153l-60 152h-308l-60 -152h-145l284 700h158zM259 279h208l-104 262zM366 -62c45 0 82 -36 82 -81c0 -44 -37 -82 -82 -82c-44 0 -81 38 -81 82c0 45 37 81 81 81z" />
    <glyph glyph-name="Agrave" unicode="&#xc0;" horiz-adv-x="734" 
d="M481 746h-149l-160 154h165zM577 0l-60 152h-308l-60 -152h-145l284 700h158l284 -700h-153zM259 279h208l-104 262z" />
    <glyph glyph-name="uni1EA2" unicode="&#x1ea2;" horiz-adv-x="734" 
d="M367 895c-28 0 -40 -24 -38 -47h-103c0 76 55 126 141 126c85 0 139 -50 139 -115c0 -59 -45 -111 -135 -133l-30 68c40 14 62 35 62 65c0 21 -15 36 -36 36zM577 0l-60 152h-308l-60 -152h-145l284 700h158l284 -700h-153zM259 279h208l-104 262z" />
    <glyph glyph-name="Amacron" unicode="&#x100;" horiz-adv-x="734" 
d="M530 876v-102h-326v102h326zM577 0l-60 152h-308l-60 -152h-145l284 700h158l284 -700h-153zM259 279h208l-104 262z" />
    <glyph glyph-name="Aogonek" unicode="&#x104;" horiz-adv-x="734" 
d="M749 -195c-24 -10 -54 -15 -83 -15c-83 0 -132 41 -132 103c0 34 14 71 43 107l-60 152h-308l-60 -152h-145l284 700h158l284 -700h-40c-17 -16 -27 -39 -27 -59c0 -21 12 -38 41 -38c11 0 21 2 34 6zM259 279h208l-104 262z" />
    <glyph glyph-name="Aring" unicode="&#xc5;" horiz-adv-x="734" 
d="M367 715c-76 0 -133 51 -133 119c0 67 57 119 133 119c75 0 131 -52 131 -119c0 -68 -56 -119 -131 -119zM367 878c-25 0 -45 -19 -45 -44s20 -44 45 -44s44 19 44 44s-19 44 -44 44zM577 0l-60 152h-308l-60 -152h-145l284 700h158l284 -700h-153zM259 279h208l-104 262
z" />
    <glyph glyph-name="Atilde" unicode="&#xc3;" horiz-adv-x="734" 
d="M291 798c-22 0 -40 -14 -50 -41l-85 41c16 61 70 106 135 106c82 0 107 -52 152 -52c22 0 39 14 49 41l85 -41c-15 -61 -69 -106 -134 -106c-82 0 -107 52 -152 52zM577 0l-60 152h-308l-60 -152h-145l284 700h158l284 -700h-153zM259 279h208l-104 262z" />
    <glyph glyph-name="AE" unicode="&#xc6;" horiz-adv-x="992" 
d="M950 573h-323v-160h313v-126h-313v-160h323v-127h-466v152h-252l-91 -152h-157l418 700h548v-127zM307 279h177v296z" />
    <glyph glyph-name="AEacute" unicode="&#x1fc;" horiz-adv-x="992" 
d="M751 900l-160 -154h-149l144 154h165zM950 573h-323v-160h313v-126h-313v-160h323v-127h-466v152h-252l-91 -152h-157l418 700h548v-127zM307 279h177v296z" />
    <glyph glyph-name="B" unicode="B" horiz-adv-x="642" 
d="M495 358c66 -31 105 -93 105 -168c0 -110 -83 -190 -211 -190h-335v700h305c128 0 211 -82 211 -192c0 -63 -27 -116 -75 -150zM193 577v-168h152c57 0 93 37 93 85s-36 83 -93 83h-152zM364 123c57 0 92 36 92 84s-35 84 -92 84h-171v-168h171z" />
    <glyph glyph-name="C" unicode="C" horiz-adv-x="763" 
d="M34 350c0 203 160 360 368 360c163 0 280 -98 327 -203l-132 -51c-33 69 -104 123 -195 123c-124 0 -220 -100 -220 -229s96 -229 220 -229c91 0 162 54 195 123l132 -51c-47 -105 -164 -203 -327 -203c-208 0 -368 157 -368 360z" />
    <glyph glyph-name="Cacute" unicode="&#x106;" horiz-adv-x="763" 
d="M288 746l144 154h165l-160 -154h-149zM34 350c0 203 160 360 368 360c163 0 280 -98 327 -203l-132 -51c-33 69 -104 123 -195 123c-124 0 -220 -100 -220 -229s96 -229 220 -229c91 0 162 54 195 123l132 -51c-47 -105 -164 -203 -327 -203c-208 0 -368 157 -368 360z
" />
    <glyph glyph-name="Ccaron" unicode="&#x10c;" horiz-adv-x="763" 
d="M473 746h-142l-146 154h149l68 -69l68 69h149zM402 121c91 0 162 54 195 123l132 -51c-47 -105 -164 -203 -327 -203c-208 0 -368 157 -368 360s160 360 368 360c163 0 280 -98 327 -203l-132 -51c-33 69 -104 123 -195 123c-124 0 -220 -100 -220 -229s96 -229 220 -229
z" />
    <glyph glyph-name="Ccedilla" unicode="&#xc7;" horiz-adv-x="763" 
d="M402 121c91 0 162 54 195 123l132 -51c-40 -90 -132 -175 -260 -197c21 -29 32 -62 32 -88c0 -67 -58 -118 -149 -118c-22 0 -46 3 -73 10l16 107c10 -3 18 -4 27 -4c31 0 50 17 50 40c0 16 -9 34 -27 51c-179 26 -311 172 -311 356c0 203 160 360 368 360
c163 0 280 -98 327 -203l-132 -51c-33 69 -104 123 -195 123c-124 0 -220 -100 -220 -229s96 -229 220 -229z" />
    <glyph glyph-name="Ccircumflex" unicode="&#x108;" horiz-adv-x="763" 
d="M402 815l-68 -69h-149l146 154h142l146 -154h-149zM402 121c91 0 162 54 195 123l132 -51c-47 -105 -164 -203 -327 -203c-208 0 -368 157 -368 360s160 360 368 360c163 0 280 -98 327 -203l-132 -51c-33 69 -104 123 -195 123c-124 0 -220 -100 -220 -229
s96 -229 220 -229z" />
    <glyph glyph-name="Cdotaccent" unicode="&#x10a;" horiz-adv-x="763" 
d="M321 825c0 45 37 81 81 81c45 0 82 -36 82 -81c0 -44 -37 -81 -82 -81c-44 0 -81 37 -81 81zM34 350c0 203 160 360 368 360c163 0 280 -98 327 -203l-132 -51c-33 69 -104 123 -195 123c-124 0 -220 -100 -220 -229s96 -229 220 -229c91 0 162 54 195 123l132 -51
c-47 -105 -164 -203 -327 -203c-208 0 -368 157 -368 360z" />
    <glyph glyph-name="D" unicode="D" horiz-adv-x="724" 
d="M54 0v700h278c206 0 358 -152 358 -350s-152 -350 -358 -350h-278zM197 127h123c131 0 222 94 222 223c0 130 -91 223 -222 223h-123v-446z" />
    <glyph glyph-name="uni01F1" unicode="&#x1f1;" horiz-adv-x="1296" 
d="M332 700c206 0 358 -152 358 -350s-152 -350 -358 -350h-278v700h278zM1247 700v-110l-331 -463h331v-127h-510v110l331 463h-331v127h510zM320 127c131 0 222 94 222 223c0 130 -91 223 -222 223h-123v-446h123z" />
    <glyph glyph-name="uni01C4" unicode="&#x1c4;" horiz-adv-x="1296" 
d="M1062 746h-141l-146 154h149l68 -69l68 69h149zM332 700c206 0 358 -152 358 -350s-152 -350 -358 -350h-278v700h278zM1247 700v-110l-331 -463h331v-127h-510v110l331 463h-331v127h510zM320 127c131 0 222 94 222 223c0 130 -91 223 -222 223h-123v-446h123z" />
    <glyph glyph-name="Eth" unicode="&#xd0;" horiz-adv-x="774" 
d="M382 700c206 0 358 -152 358 -350s-152 -350 -358 -350h-278v299h-62v102h62v299h278zM370 127c131 0 222 94 222 223c0 130 -91 223 -222 223h-123v-172h121v-102h-121v-172h123z" />
    <glyph glyph-name="Dcaron" unicode="&#x10e;" horiz-adv-x="724" 
d="M387 746h-142l-146 154h149l68 -69l68 69h149zM332 700c206 0 358 -152 358 -350s-152 -350 -358 -350h-278v700h278zM320 127c131 0 222 94 222 223c0 130 -91 223 -222 223h-123v-446h123z" />
    <glyph glyph-name="Dcroat" unicode="&#x110;" horiz-adv-x="774" 
d="M382 700c206 0 358 -152 358 -350s-152 -350 -358 -350h-278v299h-62v102h62v299h278zM370 127c131 0 222 94 222 223c0 130 -91 223 -222 223h-123v-172h121v-102h-121v-172h123z" />
    <glyph glyph-name="uni01F2" unicode="&#x1f3;" horiz-adv-x="1242" 
d="M332 700c206 0 358 -152 358 -350s-152 -350 -358 -350h-278v700h278zM320 127c131 0 222 94 222 223c0 130 -91 223 -222 223h-123v-446h123zM1192 516v-111l-261 -286h261v-119h-434v110l261 287h-261v119h434z" />
    <glyph glyph-name="uni01F2" unicode="&#x1f2;" horiz-adv-x="1242" 
d="M332 700c206 0 358 -152 358 -350s-152 -350 -358 -350h-278v700h278zM320 127c131 0 222 94 222 223c0 130 -91 223 -222 223h-123v-446h123zM1192 516v-111l-261 -286h261v-119h-434v110l261 287h-261v119h434z" />
    <glyph glyph-name="uni01C5" unicode="&#x1c6;" horiz-adv-x="1242" 
d="M1050 579h-151l-113 160h127l62 -78l62 78h126zM332 700c206 0 358 -152 358 -350s-152 -350 -358 -350h-278v700h278zM320 127c131 0 222 94 222 223c0 130 -91 223 -222 223h-123v-446h123zM1192 516v-111l-261 -286h261v-119h-434v110l261 287h-261v119h434z" />
    <glyph glyph-name="uni01C5" unicode="&#x1c5;" horiz-adv-x="1242" 
d="M1050 579h-151l-113 160h127l62 -78l62 78h126zM332 700c206 0 358 -152 358 -350s-152 -350 -358 -350h-278v700h278zM320 127c131 0 222 94 222 223c0 130 -91 223 -222 223h-123v-446h123zM1192 516v-111l-261 -286h261v-119h-434v110l261 287h-261v119h434z" />
    <glyph glyph-name="E" unicode="E" horiz-adv-x="562" 
d="M54 0v700h466v-127h-323v-160h313v-126h-313v-160h323v-127h-466z" />
    <glyph glyph-name="Eacute" unicode="&#xc9;" horiz-adv-x="562" 
d="M166 746l144 154h165l-160 -154h-149zM54 0v700h466v-127h-323v-160h313v-126h-313v-160h323v-127h-466z" />
    <glyph glyph-name="Ebreve" unicode="&#x114;" horiz-adv-x="562" 
d="M206 900c6 -37 33 -60 75 -60c41 0 68 23 74 60h114c-10 -102 -90 -160 -188 -160c-99 0 -179 58 -189 160h114zM54 0v700h466v-127h-323v-160h313v-126h-313v-160h323v-127h-466z" />
    <glyph glyph-name="Ecaron" unicode="&#x11a;" horiz-adv-x="562" 
d="M352 746h-142l-146 154h149l68 -69l68 69h149zM520 573h-323v-160h313v-126h-313v-160h323v-127h-466v700h466v-127z" />
    <glyph glyph-name="Ecircumflex" unicode="&#xca;" horiz-adv-x="562" 
d="M281 815l-68 -69h-149l146 154h142l146 -154h-149zM520 573h-323v-160h313v-126h-313v-160h323v-127h-466v700h466v-127z" />
    <glyph glyph-name="uni1EBE" unicode="&#x1ebe;" horiz-adv-x="562" 
d="M545 1028h151l-147 -142h-137zM281 815l-68 -69h-149l146 154h142l146 -154h-149zM54 0v700h466v-127h-323v-160h313v-126h-313v-160h323v-127h-466z" />
    <glyph glyph-name="uni1EC6" unicode="&#x1ec6;" horiz-adv-x="562" 
d="M281 815l-68 -69h-149l146 154h142l146 -154h-149zM520 573h-323v-160h313v-126h-313v-160h323v-127h-466v700h466v-127zM280 -62c45 0 82 -36 82 -81c0 -44 -37 -82 -82 -82c-44 0 -81 38 -81 82c0 45 37 81 81 81z" />
    <glyph glyph-name="uni1EC0" unicode="&#x1ec0;" horiz-adv-x="562" 
d="M623 886h-137l-148 142h152zM281 815l-68 -69h-149l146 154h142l146 -154h-149zM54 0v700h466v-127h-323v-160h313v-126h-313v-160h323v-127h-466z" />
    <glyph glyph-name="uni1EC2" unicode="&#x1ec2;" horiz-adv-x="562" 
d="M481 1095c78 0 129 -45 129 -105c0 -54 -42 -103 -125 -122l-27 62c36 13 56 32 56 60c0 19 -13 33 -33 33c-25 0 -36 -22 -35 -43h-94c0 70 51 115 129 115zM281 815l-68 -69h-149l146 154h142l146 -154h-149zM54 0v700h466v-127h-323v-160h313v-126h-313v-160h323v-127
h-466z" />
    <glyph glyph-name="uni1EC4" unicode="&#x1ec4;" horiz-adv-x="562" 
d="M212 990c-20 0 -37 -13 -46 -38l-78 38c14 56 64 97 124 97c75 0 98 -47 140 -47c20 0 36 13 45 38l79 -38c-15 -56 -64 -97 -124 -97c-76 0 -99 47 -140 47zM281 815l-68 -69h-149l146 154h142l146 -154h-149zM520 573h-323v-160h313v-126h-313v-160h323v-127h-466v700
h466v-127z" />
    <glyph glyph-name="Edieresis" unicode="&#xcb;" horiz-adv-x="562" 
d="M86 825c0 42 35 78 78 78c42 0 77 -36 77 -78s-35 -77 -77 -77c-43 0 -78 35 -78 77zM320 825c0 42 35 78 77 78c43 0 78 -36 78 -78s-35 -77 -78 -77c-42 0 -77 35 -77 77zM54 0v700h466v-127h-323v-160h313v-126h-313v-160h323v-127h-466z" />
    <glyph glyph-name="Edotaccent" unicode="&#x116;" horiz-adv-x="562" 
d="M199 825c0 45 37 81 81 81c45 0 82 -36 82 -81c0 -44 -37 -81 -82 -81c-44 0 -81 37 -81 81zM54 0v700h466v-127h-323v-160h313v-126h-313v-160h323v-127h-466z" />
    <glyph glyph-name="uni1EB8" unicode="&#x1eb8;" horiz-adv-x="562" 
d="M54 0v700h466v-127h-323v-160h313v-126h-313v-160h323v-127h-466zM199 -143c0 45 37 81 81 81c45 0 82 -36 82 -81c0 -44 -37 -82 -82 -82c-44 0 -81 38 -81 82z" />
    <glyph glyph-name="Egrave" unicode="&#xc8;" horiz-adv-x="562" 
d="M246 746l-160 154h165l144 -154h-149zM54 0v700h466v-127h-323v-160h313v-126h-313v-160h323v-127h-466z" />
    <glyph glyph-name="uni1EBA" unicode="&#x1eba;" horiz-adv-x="562" 
d="M255 794c40 14 62 35 62 65c0 21 -15 36 -36 36c-28 0 -40 -24 -38 -47h-103c0 76 55 126 141 126c85 0 139 -50 139 -115c0 -59 -45 -111 -135 -133zM54 0v700h466v-127h-323v-160h313v-126h-313v-160h323v-127h-466z" />
    <glyph glyph-name="Emacron" unicode="&#x112;" horiz-adv-x="562" 
d="M118 774v102h326v-102h-326zM54 0v700h466v-127h-323v-160h313v-126h-313v-160h323v-127h-466z" />
    <glyph glyph-name="Eogonek" unicode="&#x118;" horiz-adv-x="562" 
d="M578 -195c-24 -10 -54 -15 -83 -15c-83 0 -132 41 -132 103c0 34 14 71 43 107h-352v700h466v-127h-323v-160h313v-126h-313v-160h323v-127h-1c-17 -16 -27 -39 -27 -59c0 -21 12 -38 41 -38c11 0 21 2 34 6z" />
    <glyph glyph-name="uni1EBC" unicode="&#x1ebc;" horiz-adv-x="562" 
d="M70 798c16 61 70 106 135 106c82 0 107 -52 152 -52c22 0 39 14 49 41l85 -41c-15 -61 -69 -106 -134 -106c-82 0 -107 52 -152 52c-22 0 -40 -14 -50 -41zM54 0v700h466v-127h-323v-160h313v-126h-313v-160h323v-127h-466z" />
    <glyph glyph-name="uni01B7" unicode="&#x1b7;" horiz-adv-x="630" 
d="M392 413c113 -17 196 -87 196 -198c0 -142 -127 -225 -268 -225c-110 0 -220 37 -288 113l84 102c58 -56 142 -84 204 -84c67 0 121 35 121 94c0 65 -62 91 -146 91h-68v109l157 158h-307v127h489v-110z" />
    <glyph glyph-name="uni01EE" unicode="&#x1ee;" horiz-adv-x="630" 
d="M391 746h-142l-146 154h149l68 -69l68 69h149zM392 413c113 -17 196 -87 196 -198c0 -142 -127 -225 -268 -225c-110 0 -220 37 -288 113l84 102c58 -56 142 -84 204 -84c67 0 121 35 121 94c0 65 -62 91 -146 91h-68v109l157 158h-307v127h489v-110z" />
    <glyph glyph-name="F" unicode="F" horiz-adv-x="522" 
d="M54 0v700h446v-127h-303v-175h293v-127h-293v-271h-143z" />
    <glyph glyph-name="G" unicode="G" horiz-adv-x="804" 
d="M761 394c23 -246 -159 -404 -359 -404c-208 0 -368 157 -368 360s160 360 368 360c163 0 280 -98 327 -203l-132 -51c-33 69 -104 123 -195 123c-124 0 -220 -100 -220 -229s96 -229 220 -229c111 0 185 72 201 146h-259v127h417z" />
    <glyph glyph-name="uni01F4" unicode="&#x1f4;" horiz-adv-x="804" 
d="M597 900l-160 -154h-149l144 154h165zM761 394c23 -246 -159 -404 -359 -404c-208 0 -368 157 -368 360s160 360 368 360c163 0 280 -98 327 -203l-132 -51c-33 69 -104 123 -195 123c-124 0 -220 -100 -220 -229s96 -229 220 -229c111 0 185 72 201 146h-259v127h417z
" />
    <glyph glyph-name="Gbreve" unicode="&#x11e;" horiz-adv-x="804" 
d="M402 740c-99 0 -179 58 -189 160h114c6 -37 33 -60 75 -60c41 0 68 23 74 60h114c-10 -102 -90 -160 -188 -160zM761 394c23 -246 -159 -404 -359 -404c-208 0 -368 157 -368 360s160 360 368 360c163 0 280 -98 327 -203l-132 -51c-33 69 -104 123 -195 123
c-124 0 -220 -100 -220 -229s96 -229 220 -229c111 0 185 72 201 146h-259v127h417z" />
    <glyph glyph-name="Gcaron" unicode="&#x1e6;" horiz-adv-x="804" 
d="M473 746h-142l-146 154h149l68 -69l68 69h149zM761 394c23 -246 -159 -404 -359 -404c-208 0 -368 157 -368 360s160 360 368 360c163 0 280 -98 327 -203l-132 -51c-33 69 -104 123 -195 123c-124 0 -220 -100 -220 -229s96 -229 220 -229c111 0 185 72 201 146h-259
v127h417z" />
    <glyph glyph-name="Gcircumflex" unicode="&#x11c;" horiz-adv-x="804" 
d="M402 815l-68 -69h-149l146 154h142l146 -154h-149zM761 394c23 -246 -159 -404 -359 -404c-208 0 -368 157 -368 360s160 360 368 360c163 0 280 -98 327 -203l-132 -51c-33 69 -104 123 -195 123c-124 0 -220 -100 -220 -229s96 -229 220 -229c111 0 185 72 201 146
h-259v127h417z" />
    <glyph glyph-name="uni0122" unicode="&#x122;" horiz-adv-x="804" 
d="M761 394c23 -246 -159 -404 -359 -404c-208 0 -368 157 -368 360s160 360 368 360c163 0 280 -98 327 -203l-132 -51c-33 69 -104 123 -195 123c-124 0 -220 -100 -220 -229s96 -229 220 -229c111 0 185 72 201 146h-259v127h417zM323 -210l30 169h129l-50 -169h-109z
" />
    <glyph glyph-name="Gdotaccent" unicode="&#x120;" horiz-adv-x="804" 
d="M402 744c-44 0 -81 37 -81 81c0 45 37 81 81 81c45 0 82 -36 82 -81c0 -44 -37 -81 -82 -81zM761 394c23 -246 -159 -404 -359 -404c-208 0 -368 157 -368 360s160 360 368 360c163 0 280 -98 327 -203l-132 -51c-33 69 -104 123 -195 123c-124 0 -220 -100 -220 -229
s96 -229 220 -229c111 0 185 72 201 146h-259v127h417z" />
    <glyph glyph-name="H" unicode="H" horiz-adv-x="718" 
d="M54 0v700h143v-287h324v287h143v-700h-143v287h-324v-287h-143z" />
    <glyph glyph-name="Hbar" unicode="&#x126;" horiz-adv-x="718" 
d="M720 609v-103h-56v-506h-143v287h-324v-287h-143v506h-56v103h56v91h143v-91h324v91h143v-91h56zM521 413v93h-324v-93h324z" />
    <glyph glyph-name="Hcircumflex" unicode="&#x124;" horiz-adv-x="718" 
d="M359 815l-68 -69h-149l146 154h142l146 -154h-149zM521 700h143v-700h-143v287h-324v-287h-143v700h143v-287h324v287z" />
    <glyph glyph-name="I" unicode="I" horiz-adv-x="251" 
d="M54 0v700h143v-700h-143z" />
    <glyph glyph-name="IJ" unicode="&#x132;" horiz-adv-x="796" 
d="M54 0v700h143v-700h-143zM402 228c3 -78 51 -107 103 -107c63 0 104 45 104 111v468h143v-468c0 -152 -114 -242 -251 -242c-129 0 -230 78 -242 217z" />
    <glyph glyph-name="Iacute" unicode="&#xcd;" horiz-adv-x="251" 
d="M11 746l144 154h165l-160 -154h-149zM54 0v700h143v-700h-143z" />
    <glyph glyph-name="Ibreve" unicode="&#x12c;" horiz-adv-x="251" 
d="M51 900c6 -37 33 -60 75 -60c41 0 68 23 74 60h114c-10 -102 -90 -160 -188 -160c-99 0 -179 58 -189 160h114zM54 0v700h143v-700h-143z" />
    <glyph glyph-name="uni01CF" unicode="&#x1cf;" horiz-adv-x="251" 
d="M196 746h-142l-146 154h149l68 -69l68 69h149zM54 0v700h143v-700h-143z" />
    <glyph glyph-name="Icircumflex" unicode="&#xce;" horiz-adv-x="251" 
d="M125 815l-68 -69h-149l146 154h142l146 -154h-149zM54 0v700h143v-700h-143z" />
    <glyph glyph-name="Idieresis" unicode="&#xcf;" horiz-adv-x="251" 
d="M-53 825c0 42 35 78 78 78c42 0 77 -36 77 -78s-35 -77 -77 -77c-43 0 -78 35 -78 77zM149 825c0 42 35 78 77 78c43 0 78 -36 78 -78s-35 -77 -78 -77c-42 0 -77 35 -77 77zM54 0v700h143v-700h-143z" />
    <glyph glyph-name="Idotaccent" unicode="&#x130;" horiz-adv-x="251" 
d="M44 825c0 45 37 81 81 81c45 0 82 -36 82 -81c0 -44 -37 -81 -82 -81c-44 0 -81 37 -81 81zM54 0v700h143v-700h-143z" />
    <glyph glyph-name="uni1ECA" unicode="&#x1eca;" horiz-adv-x="251" 
d="M54 0v700h143v-700h-143zM44 -143c0 45 37 81 81 81c45 0 82 -36 82 -81c0 -44 -37 -82 -82 -82c-44 0 -81 38 -81 82z" />
    <glyph glyph-name="Igrave" unicode="&#xcc;" horiz-adv-x="251" 
d="M91 746l-160 154h165l144 -154h-149zM54 0v700h143v-700h-143z" />
    <glyph glyph-name="uni1EC8" unicode="&#x1ec8;" horiz-adv-x="251" 
d="M100 794c40 14 62 35 62 65c0 21 -15 36 -36 36c-28 0 -40 -24 -38 -47h-103c0 76 55 126 141 126c85 0 139 -50 139 -115c0 -59 -45 -111 -135 -133zM54 0v700h143v-700h-143z" />
    <glyph glyph-name="Imacron" unicode="&#x12a;" horiz-adv-x="251" 
d="M-13 774v102h277v-102h-277zM54 0v700h143v-700h-143z" />
    <glyph glyph-name="Iogonek" unicode="&#x12e;" horiz-adv-x="251" 
d="M245 -195c-24 -10 -54 -15 -83 -15c-83 0 -132 41 -132 103c0 34 14 71 43 107h-19v700h143v-700h-11c-17 -16 -27 -39 -27 -59c0 -21 12 -38 41 -38c11 0 21 2 34 6z" />
    <glyph glyph-name="Itilde" unicode="&#x128;" horiz-adv-x="251" 
d="M-85 798c16 61 70 106 135 106c82 0 107 -52 152 -52c22 0 39 14 49 41l85 -41c-15 -61 -69 -106 -134 -106c-82 0 -107 52 -152 52c-22 0 -40 -14 -50 -41zM54 0v700h143v-700h-143z" />
    <glyph glyph-name="J" unicode="J" horiz-adv-x="545" 
d="M151 228c3 -78 51 -107 103 -107c63 0 104 45 104 111v468h143v-468c0 -152 -114 -242 -251 -242c-129 0 -230 78 -242 217z" />
    <glyph glyph-name="Jcircumflex" unicode="&#x134;" horiz-adv-x="545" 
d="M429 815l-68 -69h-149l146 154h142l146 -154h-149zM358 700h143v-468c0 -152 -114 -242 -251 -242c-129 0 -230 78 -242 217l143 21c3 -78 51 -107 103 -107c63 0 104 45 104 111v468z" />
    <glyph glyph-name="K" unicode="K" horiz-adv-x="673" 
d="M671 0h-172l-211 305l-91 -103v-202h-143v700h143v-299l262 299h178l-252 -285z" />
    <glyph glyph-name="uni01E8" unicode="&#x1e8;" horiz-adv-x="673" 
d="M385 746h-142l-146 154h149l68 -69l68 69h149zM671 0h-172l-211 305l-91 -103v-202h-143v700h143v-299l262 299h178l-252 -285z" />
    <glyph glyph-name="uni0136" unicode="&#x136;" horiz-adv-x="673" 
d="M385 415l286 -415h-172l-211 305l-91 -103v-202h-143v700h143v-299l262 299h178zM245 -210l30 169h129l-50 -169h-109z" />
    <glyph glyph-name="L" unicode="L" horiz-adv-x="540" 
d="M54 0v700h143v-573h323v-127h-466z" />
    <glyph glyph-name="uni01C7" unicode="&#x1c7;" horiz-adv-x="1077" 
d="M54 0v700h143v-573h323v-127h-466zM684 228c3 -78 51 -107 103 -107c63 0 104 45 104 111v468h143v-468c0 -152 -114 -242 -251 -242c-129 0 -230 78 -242 217z" />
    <glyph glyph-name="Lacute" unicode="&#x139;" horiz-adv-x="540" 
d="M11 746l144 154h165l-160 -154h-149zM54 0v700h143v-573h323v-127h-466z" />
    <glyph glyph-name="Lcaron" unicode="&#x13d;" horiz-adv-x="540" 
d="M281 575l30 193h122l-50 -193h-102zM54 0v700h143v-573h323v-127h-466z" />
    <glyph glyph-name="uni013B" unicode="&#x13b;" horiz-adv-x="540" 
d="M54 0v700h143v-573h323v-127h-466zM190 -210l30 169h129l-50 -169h-109z" />
    <glyph glyph-name="Ldot" unicode="&#x13f;" horiz-adv-x="540" 
d="M54 0v700h143v-573h323v-127h-466zM280 350c0 49 40 89 89 89s90 -40 90 -89c0 -48 -41 -89 -90 -89s-89 41 -89 89z" />
    <glyph glyph-name="uni01C8" unicode="&#x1c9;" horiz-adv-x="803" 
d="M600 659c0 45 37 81 82 81c44 0 81 -36 81 -81c0 -44 -37 -81 -81 -81c-45 0 -82 37 -82 81zM54 0v700h143v-573h323v-127h-466zM526 -90c74 -1 88 19 88 90v516h135v-516c0 -124 -51 -218 -223 -209v119z" />
    <glyph glyph-name="uni01C8" unicode="&#x1c8;" horiz-adv-x="803" 
d="M600 659c0 45 37 81 82 81c44 0 81 -36 81 -81c0 -44 -37 -81 -81 -81c-45 0 -82 37 -82 81zM54 0v700h143v-573h323v-127h-466zM526 -90c74 -1 88 19 88 90v516h135v-516c0 -124 -51 -218 -223 -209v119z" />
    <glyph glyph-name="Lslash" unicode="&#x141;" horiz-adv-x="560" 
d="M217 127h323v-127h-466v263l-74 -21v109l74 21v328h143v-288l232 66v-109l-232 -66v-176z" />
    <glyph glyph-name="M" unicode="M" horiz-adv-x="897" 
d="M827 0h-135v483l-196 -483h-111l-196 483v-483h-135v700h187l204 -499l203 499h179v-700z" />
    <glyph glyph-name="N" unicode="N" horiz-adv-x="734" 
d="M537 700h143v-700h-139l-344 462v-462h-143v700h139l344 -463v463z" />
    <glyph glyph-name="uni01CA" unicode="&#x1ca;" horiz-adv-x="1279" 
d="M537 237v463h143v-700h-139l-344 462v-462h-143v700h139zM1092 700h143v-468c0 -152 -114 -242 -251 -242c-129 0 -230 78 -242 217l143 21c3 -78 51 -107 103 -107c63 0 104 45 104 111v468z" />
    <glyph glyph-name="Nacute" unicode="&#x143;" horiz-adv-x="734" 
d="M561 900l-160 -154h-149l144 154h165zM537 700h143v-700h-139l-344 462v-462h-143v700h139l344 -463v463z" />
    <glyph glyph-name="Ncaron" unicode="&#x147;" horiz-adv-x="734" 
d="M438 746h-142l-146 154h149l68 -69l68 69h149zM537 700h143v-700h-139l-344 462v-462h-143v700h139l344 -463v463z" />
    <glyph glyph-name="uni0145" unicode="&#x145;" horiz-adv-x="734" 
d="M537 700h143v-700h-139l-344 462v-462h-143v700h139l344 -463v463zM287 -210l30 169h129l-50 -169h-109z" />
    <glyph glyph-name="Eng" unicode="&#x14a;" horiz-adv-x="734" 
d="M54 0v700h139l344 -460v460h143v-700c0 -124 -51 -218 -224 -209v119c75 -3 88 27 88 70v16l-347 464v-460h-143z" />
    <glyph glyph-name="uni019D" unicode="&#x19d;" horiz-adv-x="734" 
d="M537 700h143v-700h-139l-344 462v-462c0 -124 -51 -218 -223 -209v119c67 -1 80 19 80 90v700h139l344 -463v463z" />
    <glyph glyph-name="uni01CB" unicode="&#x1cc;" horiz-adv-x="997" 
d="M876 578c-45 0 -82 37 -82 81c0 45 37 81 82 81c44 0 81 -36 81 -81c0 -44 -37 -81 -81 -81zM537 237v463h143v-700h-139l-344 462v-462h-143v700h139zM808 516h135v-516c0 -124 -51 -218 -223 -209v119c74 -1 88 19 88 90v516z" />
    <glyph glyph-name="uni01CB" unicode="&#x1cb;" horiz-adv-x="997" 
d="M876 578c-45 0 -82 37 -82 81c0 45 37 81 82 81c44 0 81 -36 81 -81c0 -44 -37 -81 -81 -81zM537 237v463h143v-700h-139l-344 462v-462h-143v700h139zM808 516h135v-516c0 -124 -51 -218 -223 -209v119c74 -1 88 19 88 90v516z" />
    <glyph glyph-name="Ntilde" unicode="&#xd1;" horiz-adv-x="734" 
d="M291 798c-22 0 -40 -14 -50 -41l-85 41c16 61 70 106 135 106c82 0 107 -52 152 -52c22 0 39 14 49 41l85 -41c-15 -61 -69 -106 -134 -106c-82 0 -107 52 -152 52zM537 700h143v-700h-139l-344 462v-462h-143v700h139l344 -463v463z" />
    <glyph glyph-name="O" unicode="O" horiz-adv-x="804" 
d="M34 350c0 203 160 360 368 360s368 -157 368 -360s-160 -360 -368 -360s-368 157 -368 360zM182 350c0 -129 96 -229 220 -229c125 0 220 100 220 229s-95 229 -220 229c-124 0 -220 -100 -220 -229z" />
    <glyph glyph-name="Oacute" unicode="&#xd3;" horiz-adv-x="804" 
d="M288 746l144 154h165l-160 -154h-149zM34 350c0 203 160 360 368 360s368 -157 368 -360s-160 -360 -368 -360s-368 157 -368 360zM182 350c0 -129 96 -229 220 -229c125 0 220 100 220 229s-95 229 -220 229c-124 0 -220 -100 -220 -229z" />
    <glyph glyph-name="Obreve" unicode="&#x14e;" horiz-adv-x="804" 
d="M327 900c6 -37 33 -60 75 -60c41 0 68 23 74 60h114c-10 -102 -90 -160 -188 -160c-99 0 -179 58 -189 160h114zM34 350c0 203 160 360 368 360s368 -157 368 -360s-160 -360 -368 -360s-368 157 -368 360zM182 350c0 -129 96 -229 220 -229c125 0 220 100 220 229
s-95 229 -220 229c-124 0 -220 -100 -220 -229z" />
    <glyph glyph-name="uni01D1" unicode="&#x1d1;" horiz-adv-x="804" 
d="M473 746h-142l-146 154h149l68 -69l68 69h149zM402 710c208 0 368 -157 368 -360s-160 -360 -368 -360s-368 157 -368 360s160 360 368 360zM402 121c125 0 220 100 220 229s-95 229 -220 229c-124 0 -220 -100 -220 -229s96 -229 220 -229z" />
    <glyph glyph-name="Ocircumflex" unicode="&#xd4;" horiz-adv-x="804" 
d="M402 815l-68 -69h-149l146 154h142l146 -154h-149zM402 710c208 0 368 -157 368 -360s-160 -360 -368 -360s-368 157 -368 360s160 360 368 360zM402 121c125 0 220 100 220 229s-95 229 -220 229c-124 0 -220 -100 -220 -229s96 -229 220 -229z" />
    <glyph glyph-name="uni1ED0" unicode="&#x1ed0;" horiz-adv-x="804" 
d="M817 1028l-147 -142h-137l133 142h151zM402 815l-68 -69h-149l146 154h142l146 -154h-149zM402 710c208 0 368 -157 368 -360s-160 -360 -368 -360s-368 157 -368 360s160 360 368 360zM402 121c125 0 220 100 220 229s-95 229 -220 229c-124 0 -220 -100 -220 -229
s96 -229 220 -229z" />
    <glyph glyph-name="uni1ED8" unicode="&#x1ed8;" horiz-adv-x="804" 
d="M402 815l-68 -69h-149l146 154h142l146 -154h-149zM402 710c208 0 368 -157 368 -360s-160 -360 -368 -360s-368 157 -368 360s160 360 368 360zM402 121c125 0 220 100 220 229s-95 229 -220 229c-124 0 -220 -100 -220 -229s96 -229 220 -229zM402 -62
c45 0 82 -36 82 -81c0 -44 -37 -82 -82 -82c-44 0 -81 38 -81 82c0 45 37 81 81 81z" />
    <glyph glyph-name="uni1ED2" unicode="&#x1ed2;" horiz-adv-x="804" 
d="M744 886h-137l-148 142h152zM402 815l-68 -69h-149l146 154h142l146 -154h-149zM402 710c208 0 368 -157 368 -360s-160 -360 -368 -360s-368 157 -368 360s160 360 368 360zM402 121c125 0 220 100 220 229s-95 229 -220 229c-124 0 -220 -100 -220 -229
s96 -229 220 -229z" />
    <glyph glyph-name="uni1ED4" unicode="&#x1ed4;" horiz-adv-x="804" 
d="M602 1023c-25 0 -36 -22 -35 -43h-94c0 70 51 115 129 115s129 -45 129 -105c0 -54 -42 -103 -125 -122l-27 62c36 13 56 32 56 60c0 19 -13 33 -33 33zM402 815l-68 -69h-149l146 154h142l146 -154h-149zM402 710c208 0 368 -157 368 -360s-160 -360 -368 -360
s-368 157 -368 360s160 360 368 360zM402 121c125 0 220 100 220 229s-95 229 -220 229c-124 0 -220 -100 -220 -229s96 -229 220 -229z" />
    <glyph glyph-name="uni1ED6" unicode="&#x1ed6;" horiz-adv-x="804" 
d="M333 990c-20 0 -37 -13 -46 -38l-78 38c14 56 64 97 124 97c75 0 98 -47 140 -47c20 0 36 13 45 38l79 -38c-15 -56 -64 -97 -124 -97c-76 0 -99 47 -140 47zM402 815l-68 -69h-149l146 154h142l146 -154h-149zM402 710c208 0 368 -157 368 -360s-160 -360 -368 -360
s-368 157 -368 360s160 360 368 360zM402 121c125 0 220 100 220 229s-95 229 -220 229c-124 0 -220 -100 -220 -229s96 -229 220 -229z" />
    <glyph glyph-name="Odieresis" unicode="&#xd6;" horiz-adv-x="804" 
d="M208 825c0 42 35 78 78 78c42 0 77 -36 77 -78s-35 -77 -77 -77c-43 0 -78 35 -78 77zM442 825c0 42 35 78 77 78c43 0 78 -36 78 -78s-35 -77 -78 -77c-42 0 -77 35 -77 77zM34 350c0 203 160 360 368 360s368 -157 368 -360s-160 -360 -368 -360s-368 157 -368 360z
M182 350c0 -129 96 -229 220 -229c125 0 220 100 220 229s-95 229 -220 229c-124 0 -220 -100 -220 -229z" />
    <glyph glyph-name="uni1ECC" unicode="&#x1ecc;" horiz-adv-x="804" 
d="M34 350c0 203 160 360 368 360s368 -157 368 -360s-160 -360 -368 -360s-368 157 -368 360zM182 350c0 -129 96 -229 220 -229c125 0 220 100 220 229s-95 229 -220 229c-124 0 -220 -100 -220 -229zM321 -143c0 45 37 81 81 81c45 0 82 -36 82 -81
c0 -44 -37 -82 -82 -82c-44 0 -81 38 -81 82z" />
    <glyph glyph-name="Ograve" unicode="&#xd2;" horiz-adv-x="804" 
d="M368 746l-160 154h165l144 -154h-149zM34 350c0 203 160 360 368 360s368 -157 368 -360s-160 -360 -368 -360s-368 157 -368 360zM182 350c0 -129 96 -229 220 -229c125 0 220 100 220 229s-95 229 -220 229c-124 0 -220 -100 -220 -229z" />
    <glyph glyph-name="uni1ECE" unicode="&#x1ece;" horiz-adv-x="804" 
d="M377 794c40 14 62 35 62 65c0 21 -15 36 -36 36c-28 0 -40 -24 -38 -47h-103c0 76 55 126 141 126c85 0 139 -50 139 -115c0 -59 -45 -111 -135 -133zM34 350c0 203 160 360 368 360s368 -157 368 -360s-160 -360 -368 -360s-368 157 -368 360zM182 350
c0 -129 96 -229 220 -229c125 0 220 100 220 229s-95 229 -220 229c-124 0 -220 -100 -220 -229z" />
    <glyph glyph-name="Ohorn" unicode="&#x1a0;" horiz-adv-x="804" 
d="M664 607c66 -65 106 -155 106 -257c0 -203 -160 -360 -368 -360s-368 157 -368 360s160 360 368 360c26 0 51 -2 75 -7c119 -23 191 1 191 74c0 20 -5 45 -17 73h119c14 -26 21 -58 21 -88c0 -79 -47 -134 -127 -155zM402 121c125 0 220 100 220 229s-95 229 -220 229
c-124 0 -220 -100 -220 -229s96 -229 220 -229z" />
    <glyph glyph-name="uni1EDA" unicode="&#x1eda;" horiz-adv-x="804" 
d="M597 900l-160 -154h-149l144 154h165zM664 607c66 -65 106 -155 106 -257c0 -203 -160 -360 -368 -360s-368 157 -368 360s160 360 368 360c26 0 51 -2 75 -7c119 -23 191 1 191 74c0 20 -5 45 -17 73h119c14 -26 21 -58 21 -88c0 -79 -47 -134 -127 -155zM402 121
c125 0 220 100 220 229s-95 229 -220 229c-124 0 -220 -100 -220 -229s96 -229 220 -229z" />
    <glyph glyph-name="uni1EE2" unicode="&#x1ee2;" horiz-adv-x="804" 
d="M664 607c66 -65 106 -155 106 -257c0 -203 -160 -360 -368 -360s-368 157 -368 360s160 360 368 360c26 0 51 -2 75 -7c119 -23 191 1 191 74c0 20 -5 45 -17 73h119c14 -26 21 -58 21 -88c0 -79 -47 -134 -127 -155zM402 121c125 0 220 100 220 229s-95 229 -220 229
c-124 0 -220 -100 -220 -229s96 -229 220 -229zM402 -62c45 0 82 -36 82 -81c0 -44 -37 -82 -82 -82c-44 0 -81 38 -81 82c0 45 37 81 81 81z" />
    <glyph glyph-name="uni1EDC" unicode="&#x1edc;" horiz-adv-x="804" 
d="M517 746h-149l-160 154h165zM664 607c66 -65 106 -155 106 -257c0 -203 -160 -360 -368 -360s-368 157 -368 360s160 360 368 360c26 0 51 -2 75 -7c119 -23 191 1 191 74c0 20 -5 45 -17 73h119c14 -26 21 -58 21 -88c0 -79 -47 -134 -127 -155zM402 121
c125 0 220 100 220 229s-95 229 -220 229c-124 0 -220 -100 -220 -229s96 -229 220 -229z" />
    <glyph glyph-name="uni1EDE" unicode="&#x1ede;" horiz-adv-x="804" 
d="M403 895c-28 0 -40 -24 -38 -47h-103c0 76 55 126 141 126c85 0 139 -50 139 -115c0 -59 -45 -111 -135 -133l-30 68c40 14 62 35 62 65c0 21 -15 36 -36 36zM664 607c66 -65 106 -155 106 -257c0 -203 -160 -360 -368 -360s-368 157 -368 360s160 360 368 360
c26 0 51 -2 75 -7c119 -23 191 1 191 74c0 20 -5 45 -17 73h119c14 -26 21 -58 21 -88c0 -79 -47 -134 -127 -155zM402 121c125 0 220 100 220 229s-95 229 -220 229c-124 0 -220 -100 -220 -229s96 -229 220 -229z" />
    <glyph glyph-name="uni1EE0" unicode="&#x1ee0;" horiz-adv-x="804" 
d="M326 798c-22 0 -40 -14 -50 -41l-85 41c16 61 70 106 135 106c82 0 107 -52 152 -52c22 0 39 14 49 41l85 -41c-15 -61 -69 -106 -134 -106c-82 0 -107 52 -152 52zM664 607c66 -65 106 -155 106 -257c0 -203 -160 -360 -368 -360s-368 157 -368 360s160 360 368 360
c26 0 51 -2 75 -7c119 -23 191 1 191 74c0 20 -5 45 -17 73h119c14 -26 21 -58 21 -88c0 -79 -47 -134 -127 -155zM402 121c125 0 220 100 220 229s-95 229 -220 229c-124 0 -220 -100 -220 -229s96 -229 220 -229z" />
    <glyph glyph-name="Ohungarumlaut" unicode="&#x150;" horiz-adv-x="804" 
d="M188 746l144 154h149l-160 -154h-133zM403 746l144 154h149l-160 -154h-133zM34 350c0 203 160 360 368 360s368 -157 368 -360s-160 -360 -368 -360s-368 157 -368 360zM182 350c0 -129 96 -229 220 -229c125 0 220 100 220 229s-95 229 -220 229
c-124 0 -220 -100 -220 -229z" />
    <glyph glyph-name="Omacron" unicode="&#x14c;" horiz-adv-x="804" 
d="M239 774v102h326v-102h-326zM34 350c0 203 160 360 368 360s368 -157 368 -360s-160 -360 -368 -360s-368 157 -368 360zM182 350c0 -129 96 -229 220 -229c125 0 220 100 220 229s-95 229 -220 229c-124 0 -220 -100 -220 -229z" />
    <glyph glyph-name="uni01EA" unicode="&#x1ea;" horiz-adv-x="804" 
d="M770 350c0 -178 -123 -320 -293 -353c-15 -16 -24 -37 -24 -56c0 -21 12 -38 41 -38c11 0 21 2 34 6l11 -104c-24 -10 -54 -15 -83 -15c-83 0 -132 41 -132 103c0 32 12 65 37 99c-188 19 -327 168 -327 358c0 203 160 360 368 360s368 -157 368 -360zM182 350
c0 -129 96 -229 220 -229c125 0 220 100 220 229s-95 229 -220 229c-124 0 -220 -100 -220 -229z" />
    <glyph glyph-name="Oslash" unicode="&#xd8;" horiz-adv-x="804" 
d="M661 609c68 -65 109 -156 109 -259c0 -203 -160 -360 -368 -360c-55 0 -107 11 -153 31l-53 -76l-104 73l51 73c-68 65 -109 156 -109 259c0 203 160 360 368 360c55 0 107 -11 153 -31l53 76l105 -73zM182 350c0 -53 16 -102 44 -140l250 356c-23 9 -48 13 -74 13
c-124 0 -220 -100 -220 -229zM402 121c125 0 220 100 220 229c0 53 -16 101 -44 140l-250 -356c23 -9 48 -13 74 -13z" />
    <glyph glyph-name="Oslashacute" unicode="&#x1fe;" horiz-adv-x="804" 
d="M597 900l-160 -154h-149l144 154h165zM661 609c68 -65 109 -156 109 -259c0 -203 -160 -360 -368 -360c-55 0 -107 11 -153 31l-53 -76l-104 73l51 73c-68 65 -109 156 -109 259c0 203 160 360 368 360c55 0 107 -11 153 -31l53 76l105 -73zM182 350
c0 -53 16 -102 44 -140l250 356c-23 9 -48 13 -74 13c-124 0 -220 -100 -220 -229zM402 121c125 0 220 100 220 229c0 53 -16 101 -44 140l-250 -356c23 -9 48 -13 74 -13z" />
    <glyph glyph-name="Otilde" unicode="&#xd5;" horiz-adv-x="804" 
d="M191 798c16 61 70 106 135 106c82 0 107 -52 152 -52c22 0 39 14 49 41l85 -41c-15 -61 -69 -106 -134 -106c-82 0 -107 52 -152 52c-22 0 -40 -14 -50 -41zM34 350c0 203 160 360 368 360s368 -157 368 -360s-160 -360 -368 -360s-368 157 -368 360zM182 350
c0 -129 96 -229 220 -229c125 0 220 100 220 229s-95 229 -220 229c-124 0 -220 -100 -220 -229z" />
    <glyph glyph-name="OE" unicode="&#x152;" horiz-adv-x="1069" 
d="M1027 573h-322v-160h312v-126h-312v-160h322v-127h-465v33c-53 -29 -111 -43 -168 -43c-200 0 -360 157 -360 360s160 360 360 360c57 0 115 -14 168 -43v33h465v-127zM182 350c0 -129 96 -229 228 -229c56 0 109 18 152 54v350c-43 36 -96 54 -152 54
c-132 0 -228 -100 -228 -229z" />
    <glyph glyph-name="P" unicode="P" horiz-adv-x="619" 
d="M54 0v700h296c156 0 257 -100 257 -234c0 -135 -101 -231 -257 -231h-153v-235h-143zM197 362h153c66 0 109 45 109 105c0 61 -43 106 -109 106h-153v-211z" />
    <glyph glyph-name="Thorn" unicode="&#xde;" horiz-adv-x="619" 
d="M54 0v700h143v-116h153c156 0 257 -100 257 -234s-101 -231 -257 -231h-153v-119h-143zM197 246h153c66 0 109 45 109 106s-43 106 -109 106h-153v-212z" />
    <glyph glyph-name="Q" unicode="Q" horiz-adv-x="804" 
d="M770 350c0 -96 -36 -182 -96 -246l81 -96l-103 -87l-88 104c-48 -22 -103 -35 -162 -35c-208 0 -368 157 -368 360s160 360 368 360s368 -157 368 -360zM402 121c25 0 49 4 72 12l-84 99l103 87l88 -105c26 38 41 85 41 136c0 129 -95 229 -220 229
c-124 0 -220 -100 -220 -229s96 -229 220 -229z" />
    <glyph glyph-name="R" unicode="R" horiz-adv-x="645" 
d="M621 0h-170l-164 249h-90v-249h-143v700h301c150 0 247 -96 247 -225c0 -100 -58 -181 -155 -212zM197 573v-193h158c60 0 100 41 100 96c0 56 -40 97 -100 97h-158z" />
    <glyph glyph-name="Racute" unicode="&#x154;" horiz-adv-x="645" 
d="M477 900l-160 -154h-149l144 154h165zM621 0h-170l-164 249h-90v-249h-143v700h301c150 0 247 -96 247 -225c0 -100 -58 -181 -155 -212zM197 573v-193h158c60 0 100 41 100 96c0 56 -40 97 -100 97h-158z" />
    <glyph glyph-name="Rcaron" unicode="&#x158;" horiz-adv-x="645" 
d="M354 746h-142l-146 154h149l68 -69l68 69h149zM621 0h-170l-164 249h-90v-249h-143v700h301c150 0 247 -96 247 -225c0 -100 -58 -181 -155 -212zM197 573v-193h158c60 0 100 41 100 96c0 56 -40 97 -100 97h-158z" />
    <glyph glyph-name="uni0156" unicode="&#x156;" horiz-adv-x="645" 
d="M621 0h-170l-164 249h-90v-249h-143v700h301c150 0 247 -96 247 -225c0 -100 -58 -181 -155 -212zM197 573v-193h158c60 0 100 41 100 96c0 56 -40 97 -100 97h-158zM237 -210l30 169h129l-50 -169h-109z" />
    <glyph glyph-name="S" unicode="S" horiz-adv-x="629" 
d="M188 214c11 -62 56 -101 134 -101c70 0 116 37 116 82c0 135 -379 49 -379 308c0 118 113 207 257 207c148 0 247 -81 264 -195l-145 -29c-11 60 -55 101 -124 101c-62 0 -104 -32 -104 -76c0 -129 379 -43 379 -312c0 -120 -118 -209 -268 -209c-152 0 -257 77 -275 195
z" />
    <glyph glyph-name="Sacute" unicode="&#x15a;" horiz-adv-x="629" 
d="M201 746l144 154h165l-160 -154h-149zM188 214c11 -62 56 -101 134 -101c70 0 116 37 116 82c0 135 -379 49 -379 308c0 118 113 207 257 207c148 0 247 -81 264 -195l-145 -29c-11 60 -55 101 -124 101c-62 0 -104 -32 -104 -76c0 -129 379 -43 379 -312
c0 -120 -118 -209 -268 -209c-152 0 -257 77 -275 195z" />
    <glyph glyph-name="Scaron" unicode="&#x160;" horiz-adv-x="629" 
d="M387 746h-142l-146 154h149l68 -69l68 69h149zM207 511c0 -129 379 -43 379 -312c0 -120 -118 -209 -268 -209c-152 0 -257 77 -275 195l145 29c11 -62 56 -101 134 -101c70 0 116 37 116 82c0 135 -379 49 -379 308c0 118 113 207 257 207c148 0 247 -81 264 -195
l-145 -29c-11 60 -55 101 -124 101c-62 0 -104 -32 -104 -76z" />
    <glyph glyph-name="Scedilla" unicode="&#x15e;" horiz-adv-x="629" 
d="M586 199c0 -101 -84 -180 -200 -203c22 -29 33 -62 33 -88c0 -67 -58 -118 -149 -118c-22 0 -46 3 -73 10l16 107c10 -3 18 -4 27 -4c31 0 50 17 50 40c0 16 -9 34 -26 50c-123 17 -205 89 -221 192l145 29c11 -62 56 -101 134 -101c70 0 116 37 116 82
c0 135 -379 49 -379 308c0 118 113 207 257 207c148 0 247 -81 264 -195l-145 -29c-11 60 -55 101 -124 101c-62 0 -104 -32 -104 -76c0 -129 379 -43 379 -312z" />
    <glyph glyph-name="Scircumflex" unicode="&#x15c;" horiz-adv-x="629" 
d="M316 815l-68 -69h-149l146 154h142l146 -154h-149zM207 511c0 -129 379 -43 379 -312c0 -120 -118 -209 -268 -209c-152 0 -257 77 -275 195l145 29c11 -62 56 -101 134 -101c70 0 116 37 116 82c0 135 -379 49 -379 308c0 118 113 207 257 207c148 0 247 -81 264 -195
l-145 -29c-11 60 -55 101 -124 101c-62 0 -104 -32 -104 -76z" />
    <glyph glyph-name="uni0218" unicode="&#x218;" horiz-adv-x="629" 
d="M188 214c11 -62 56 -101 134 -101c70 0 116 37 116 82c0 135 -379 49 -379 308c0 118 113 207 257 207c148 0 247 -81 264 -195l-145 -29c-11 60 -55 101 -124 101c-62 0 -104 -32 -104 -76c0 -129 379 -43 379 -312c0 -120 -118 -209 -268 -209c-152 0 -257 77 -275 195
zM228 -210l30 169h129l-50 -169h-109z" />
    <glyph glyph-name="uni1E9E" unicode="&#x1e9e;" horiz-adv-x="688" 
d="M465 419c113 -25 180 -105 180 -209c0 -135 -102 -220 -246 -220c-57 0 -103 9 -146 28l18 116c33 -13 68 -21 104 -21c71 0 123 34 123 100c0 55 -37 98 -126 98h-64v111l124 151h-127c-67 0 -108 -45 -108 -115v-458h-143v458c0 152 114 242 251 242h304v-110z" />
    <glyph glyph-name="uni018F" unicode="&#x18f;" horiz-adv-x="804" 
d="M402 710c208 0 368 -157 368 -360s-160 -360 -368 -360c-200 0 -382 158 -358 404h574c-19 107 -106 185 -216 185c-90 0 -161 -54 -194 -123l-133 51c48 105 164 203 327 203zM402 121c96 0 175 60 206 146h-407c16 -74 90 -146 201 -146z" />
    <glyph glyph-name="T" unicode="T" horiz-adv-x="592" 
d="M224 0v573h-214v127h572v-127h-215v-573h-143z" />
    <glyph glyph-name="Tbar" unicode="&#x166;" horiz-adv-x="592" 
d="M582 573h-215v-172h92v-102h-92v-299h-143v299h-91v102h91v172h-214v127h572v-127z" />
    <glyph glyph-name="Tcaron" unicode="&#x164;" horiz-adv-x="592" 
d="M367 746h-142l-146 154h149l68 -69l68 69h149zM10 700h572v-127h-215v-573h-143v573h-214v127z" />
    <glyph glyph-name="uni0162" unicode="&#x162;" horiz-adv-x="592" 
d="M582 573h-215v-572c30 -31 41 -63 41 -93c0 -67 -58 -118 -149 -118c-22 0 -47 3 -73 10l15 107c10 -3 19 -4 27 -4c32 0 50 17 50 40c0 18 -10 39 -33 57h-21v573h-214v127h572v-127z" />
    <glyph glyph-name="uni021A" unicode="&#x21a;" horiz-adv-x="592" 
d="M224 0v573h-214v127h572v-127h-215v-573h-143zM216 -210l30 169h129l-50 -169h-109z" />
    <glyph glyph-name="U" unicode="U" horiz-adv-x="694" 
d="M44 700h143v-425c0 -89 63 -154 160 -154c98 0 160 65 160 154v425h143v-425c0 -166 -126 -285 -303 -285s-303 119 -303 285v425z" />
    <glyph glyph-name="Uacute" unicode="&#xda;" horiz-adv-x="694" 
d="M232 746l144 154h165l-160 -154h-149zM44 700h143v-425c0 -89 63 -154 160 -154c98 0 160 65 160 154v425h143v-425c0 -166 -126 -285 -303 -285s-303 119 -303 285v425z" />
    <glyph glyph-name="Ubreve" unicode="&#x16c;" horiz-adv-x="694" 
d="M272 900c6 -37 33 -60 75 -60c41 0 68 23 74 60h114c-10 -102 -90 -160 -188 -160c-99 0 -179 58 -189 160h114zM44 700h143v-425c0 -89 63 -154 160 -154c98 0 160 65 160 154v425h143v-425c0 -166 -126 -285 -303 -285s-303 119 -303 285v425z" />
    <glyph glyph-name="Ucircumflex" unicode="&#xdb;" horiz-adv-x="694" 
d="M347 815l-68 -69h-149l146 154h142l146 -154h-149zM507 700h143v-425c0 -166 -126 -285 -303 -285s-303 119 -303 285v425h143v-425c0 -89 63 -154 160 -154c98 0 160 65 160 154v425z" />
    <glyph glyph-name="Udieresis" unicode="&#xdc;" horiz-adv-x="694" 
d="M153 825c0 42 35 78 78 78c42 0 77 -36 77 -78s-35 -77 -77 -77c-43 0 -78 35 -78 77zM387 825c0 42 35 78 77 78c43 0 78 -36 78 -78s-35 -77 -78 -77c-42 0 -77 35 -77 77zM44 700h143v-425c0 -89 63 -154 160 -154c98 0 160 65 160 154v425h143v-425
c0 -166 -126 -285 -303 -285s-303 119 -303 285v425z" />
    <glyph glyph-name="uni1EE4" unicode="&#x1ee4;" horiz-adv-x="694" 
d="M44 700h143v-425c0 -89 63 -154 160 -154c98 0 160 65 160 154v425h143v-425c0 -166 -126 -285 -303 -285s-303 119 -303 285v425zM265 -143c0 45 37 81 81 81c45 0 82 -36 82 -81c0 -44 -37 -82 -82 -82c-44 0 -81 38 -81 82z" />
    <glyph glyph-name="Ugrave" unicode="&#xd9;" horiz-adv-x="694" 
d="M312 746l-160 154h165l144 -154h-149zM44 700h143v-425c0 -89 63 -154 160 -154c98 0 160 65 160 154v425h143v-425c0 -166 -126 -285 -303 -285s-303 119 -303 285v425z" />
    <glyph glyph-name="uni1EE6" unicode="&#x1ee6;" horiz-adv-x="694" 
d="M321 794c40 14 62 35 62 65c0 21 -15 36 -36 36c-28 0 -40 -24 -38 -47h-103c0 76 55 126 141 126c85 0 139 -50 139 -115c0 -59 -45 -111 -135 -133zM44 700h143v-425c0 -89 63 -154 160 -154c98 0 160 65 160 154v425h143v-425c0 -166 -126 -285 -303 -285
s-303 119 -303 285v425z" />
    <glyph glyph-name="Uhorn" unicode="&#x1af;" horiz-adv-x="780" 
d="M795 762c0 -85 -55 -141 -145 -159v-328c0 -166 -126 -285 -303 -285s-303 119 -303 285v425h143v-425c0 -89 63 -154 160 -154c98 0 160 65 160 154v425h75c60 0 90 27 90 77c0 20 -5 45 -17 73h119c14 -26 21 -58 21 -88z" />
    <glyph glyph-name="uni1EE8" unicode="&#x1ee8;" horiz-adv-x="780" 
d="M541 900l-160 -154h-149l144 154h165zM795 762c0 -85 -55 -141 -145 -159v-328c0 -166 -126 -285 -303 -285s-303 119 -303 285v425h143v-425c0 -89 63 -154 160 -154c98 0 160 65 160 154v425h75c60 0 90 27 90 77c0 20 -5 45 -17 73h119c14 -26 21 -58 21 -88z" />
    <glyph glyph-name="uni1EF0" unicode="&#x1ef0;" horiz-adv-x="780" 
d="M795 762c0 -85 -55 -141 -145 -159v-328c0 -166 -126 -285 -303 -285s-303 119 -303 285v425h143v-425c0 -89 63 -154 160 -154c98 0 160 65 160 154v425h75c60 0 90 27 90 77c0 20 -5 45 -17 73h119c14 -26 21 -58 21 -88zM346 -62c45 0 82 -36 82 -81
c0 -44 -37 -82 -82 -82c-44 0 -81 38 -81 82c0 45 37 81 81 81z" />
    <glyph glyph-name="uni1EEA" unicode="&#x1eea;" horiz-adv-x="780" 
d="M461 746h-149l-160 154h165zM795 762c0 -85 -55 -141 -145 -159v-328c0 -166 -126 -285 -303 -285s-303 119 -303 285v425h143v-425c0 -89 63 -154 160 -154c98 0 160 65 160 154v425h75c60 0 90 27 90 77c0 20 -5 45 -17 73h119c14 -26 21 -58 21 -88z" />
    <glyph glyph-name="uni1EEC" unicode="&#x1eec;" horiz-adv-x="780" 
d="M347 895c-28 0 -40 -24 -38 -47h-103c0 76 55 126 141 126c85 0 139 -50 139 -115c0 -59 -45 -111 -135 -133l-30 68c40 14 62 35 62 65c0 21 -15 36 -36 36zM795 762c0 -85 -55 -141 -145 -159v-328c0 -166 -126 -285 -303 -285s-303 119 -303 285v425h143v-425
c0 -89 63 -154 160 -154c98 0 160 65 160 154v425h75c60 0 90 27 90 77c0 20 -5 45 -17 73h119c14 -26 21 -58 21 -88z" />
    <glyph glyph-name="uni1EEE" unicode="&#x1eee;" horiz-adv-x="780" 
d="M271 798c-22 0 -40 -14 -50 -41l-85 41c16 61 70 106 135 106c82 0 107 -52 152 -52c22 0 39 14 49 41l85 -41c-15 -61 -69 -106 -134 -106c-82 0 -107 52 -152 52zM795 762c0 -85 -55 -141 -145 -159v-328c0 -166 -126 -285 -303 -285s-303 119 -303 285v425h143v-425
c0 -89 63 -154 160 -154c98 0 160 65 160 154v425h75c60 0 90 27 90 77c0 20 -5 45 -17 73h119c14 -26 21 -58 21 -88z" />
    <glyph glyph-name="Uhungarumlaut" unicode="&#x170;" horiz-adv-x="694" 
d="M133 746l144 154h149l-160 -154h-133zM348 746l144 154h149l-160 -154h-133zM44 700h143v-425c0 -89 63 -154 160 -154c98 0 160 65 160 154v425h143v-425c0 -166 -126 -285 -303 -285s-303 119 -303 285v425z" />
    <glyph glyph-name="Umacron" unicode="&#x16a;" horiz-adv-x="694" 
d="M184 774v102h326v-102h-326zM44 700h143v-425c0 -89 63 -154 160 -154c98 0 160 65 160 154v425h143v-425c0 -166 -126 -285 -303 -285s-303 119 -303 285v425z" />
    <glyph glyph-name="Uogonek" unicode="&#x172;" horiz-adv-x="694" 
d="M507 700h143v-425c0 -138 -87 -244 -218 -275c-17 -16 -27 -39 -27 -59c0 -21 12 -38 41 -38c11 0 21 2 34 6l11 -104c-24 -10 -54 -15 -83 -15c-83 0 -132 41 -132 103c0 32 12 65 37 99c-159 14 -269 128 -269 283v425h143v-425c0 -89 63 -154 160 -154
c98 0 160 65 160 154v425z" />
    <glyph glyph-name="Uring" unicode="&#x16e;" horiz-adv-x="694" 
d="M214 834c0 67 57 119 133 119c75 0 131 -52 131 -119c0 -68 -56 -119 -131 -119c-76 0 -133 51 -133 119zM302 834c0 -25 20 -44 45 -44s44 19 44 44s-19 44 -44 44s-45 -19 -45 -44zM44 700h143v-425c0 -89 63 -154 160 -154c98 0 160 65 160 154v425h143v-425
c0 -166 -126 -285 -303 -285s-303 119 -303 285v425z" />
    <glyph glyph-name="Utilde" unicode="&#x168;" horiz-adv-x="694" 
d="M136 798c16 61 70 106 135 106c82 0 107 -52 152 -52c22 0 39 14 49 41l85 -41c-15 -61 -69 -106 -134 -106c-82 0 -107 52 -152 52c-22 0 -40 -14 -50 -41zM44 700h143v-425c0 -89 63 -154 160 -154c98 0 160 65 160 154v425h143v-425c0 -166 -126 -285 -303 -285
s-303 119 -303 285v425z" />
    <glyph glyph-name="V" unicode="V" horiz-adv-x="704" 
d="M555 700h145l-269 -700h-158l-269 700h152l200 -543z" />
    <glyph glyph-name="W" unicode="W" horiz-adv-x="1064" 
d="M878 700h144l-194 -700h-167l-129 497l-129 -497h-168l-193 700h152l129 -538l133 538h160l133 -539z" />
    <glyph glyph-name="Wacute" unicode="&#x1e82;" horiz-adv-x="1064" 
d="M726 900l-160 -154h-149l144 154h165zM878 700h144l-194 -700h-167l-129 497l-129 -497h-168l-193 700h152l129 -538l133 538h160l133 -539z" />
    <glyph glyph-name="Wcircumflex" unicode="&#x174;" horiz-adv-x="1064" 
d="M532 815l-68 -69h-149l146 154h142l146 -154h-149zM878 700h144l-194 -700h-167l-129 497l-129 -497h-168l-193 700h152l129 -538l133 538h160l133 -539z" />
    <glyph glyph-name="Wdieresis" unicode="&#x1e84;" horiz-adv-x="1064" 
d="M416 748c-43 0 -78 35 -78 77s35 78 78 78c42 0 77 -36 77 -78s-35 -77 -77 -77zM649 748c-42 0 -77 35 -77 77s35 78 77 78c43 0 78 -36 78 -78s-35 -77 -78 -77zM878 700h144l-194 -700h-167l-129 497l-129 -497h-168l-193 700h152l129 -538l133 538h160l133 -539z" />
    <glyph glyph-name="Wgrave" unicode="&#x1e80;" horiz-adv-x="1064" 
d="M646 746h-149l-160 154h165zM878 700h144l-194 -700h-167l-129 497l-129 -497h-168l-193 700h152l129 -538l133 538h160l133 -539z" />
    <glyph glyph-name="X" unicode="X" horiz-adv-x="676" 
d="M672 700l-249 -349l249 -351h-174l-162 236l-162 -236h-170l249 349l-249 351h174l162 -236l162 236h170z" />
    <glyph glyph-name="Y" unicode="Y" horiz-adv-x="663" 
d="M509 700h160l-266 -458v-242h-143v242l-266 458h168l174 -316z" />
    <glyph glyph-name="Yacute" unicode="&#xdd;" horiz-adv-x="663" 
d="M526 900l-160 -154h-149l144 154h165zM403 242v-115h114v-127h-371v127h114v115l-266 458h168l174 -316l173 316h160z" />
    <glyph glyph-name="Ycircumflex" unicode="&#x176;" horiz-adv-x="663" 
d="M331 815l-68 -69h-149l146 154h142l146 -154h-149zM403 242v-115h114v-127h-371v127h114v115l-266 458h168l174 -316l173 316h160z" />
    <glyph glyph-name="Ydieresis" unicode="&#x178;" horiz-adv-x="663" 
d="M215 748c-43 0 -78 35 -78 77s35 78 78 78c42 0 77 -36 77 -78s-35 -77 -77 -77zM448 748c-42 0 -77 35 -77 77s35 78 77 78c43 0 78 -36 78 -78s-35 -77 -78 -77zM403 242v-115h114v-127h-371v127h114v115l-266 458h168l174 -316l173 316h160z" />
    <glyph glyph-name="uni1EF4" unicode="&#x1ef4;" horiz-adv-x="663" 
d="M403 242v-115h114v-127h-371v127h114v115l-266 458h168l174 -316l173 316h160zM331 -62c45 0 82 -36 82 -81c0 -44 -37 -82 -82 -82c-44 0 -81 38 -81 82c0 45 37 81 81 81z" />
    <glyph glyph-name="Ygrave" unicode="&#x1ef2;" horiz-adv-x="663" 
d="M446 746h-149l-160 154h165zM403 242v-115h114v-127h-371v127h114v115l-266 458h168l174 -316l173 316h160z" />
    <glyph glyph-name="uni1EF6" unicode="&#x1ef6;" horiz-adv-x="663" 
d="M332 895c-28 0 -40 -24 -38 -47h-103c0 76 55 126 141 126c85 0 139 -50 139 -115c0 -59 -45 -111 -135 -133l-30 68c40 14 62 35 62 65c0 21 -15 36 -36 36zM403 242v-115h114v-127h-371v127h114v115l-266 458h168l174 -316l173 316h160z" />
    <glyph glyph-name="uni0232" unicode="&#x232;" horiz-adv-x="663" 
d="M494 876v-102h-326v102h326zM403 242v-115h114v-127h-371v127h114v115l-266 458h168l174 -316l173 316h160z" />
    <glyph glyph-name="uni1EF8" unicode="&#x1ef8;" horiz-adv-x="663" 
d="M256 798c-22 0 -40 -14 -50 -41l-85 41c16 61 70 106 135 106c82 0 107 -52 152 -52c22 0 39 14 49 41l85 -41c-15 -61 -69 -106 -134 -106c-82 0 -107 52 -152 52zM403 242v-115h114v-127h-371v127h114v115l-266 458h168l174 -316l173 316h160z" />
    <glyph glyph-name="Z" unicode="Z" horiz-adv-x="610" 
d="M560 700v-110l-331 -463h331v-127h-510v110l331 463h-331v127h510z" />
    <glyph glyph-name="Zacute" unicode="&#x179;" horiz-adv-x="610" 
d="M499 900l-160 -154h-149l144 154h165zM560 700v-110l-331 -463h331v-127h-510v110l331 463h-331v127h510z" />
    <glyph glyph-name="Zcaron" unicode="&#x17d;" horiz-adv-x="610" 
d="M376 746h-142l-146 154h149l68 -69l68 69h149zM560 700v-110l-331 -463h331v-127h-510v110l331 463h-331v127h510z" />
    <glyph glyph-name="Zdotaccent" unicode="&#x17b;" horiz-adv-x="610" 
d="M304 744c-44 0 -81 37 -81 81c0 45 37 81 81 81c45 0 82 -36 82 -81c0 -44 -37 -81 -82 -81zM560 700v-110l-331 -463h331v-127h-510v110l331 463h-331v127h510z" />
    <glyph glyph-name="Iacute_J.loclNLD" horiz-adv-x="796" 
d="M11 746l144 154h165l-160 -154h-149zM566 746l144 154h165l-160 -154h-149zM54 0v700h143v-700h-143zM402 228c3 -78 51 -107 103 -107c63 0 104 45 104 111v468h143v-468c0 -152 -114 -242 -251 -242c-129 0 -230 78 -242 217z" />
    <glyph glyph-name="I.ss01" horiz-adv-x="455" 
d="M30 0v127h126v446h-126v127h395v-127h-126v-446h126v-127h-395z" />
    <glyph glyph-name="IJ.ss01" horiz-adv-x="1000" 
d="M30 0v127h126v446h-126v127h395v-127h-126v-446h126v-127h-395zM606 228c3 -78 51 -107 103 -107c63 0 104 45 104 111v468h143v-468c0 -152 -114 -242 -251 -242c-129 0 -230 78 -242 217z" />
    <glyph glyph-name="Iacute.ss01" horiz-adv-x="455" 
d="M113 746l144 154h165l-160 -154h-149zM30 0v127h126v446h-126v127h395v-127h-126v-446h126v-127h-395z" />
    <glyph glyph-name="Iacute_J.loclNLD.ss01" horiz-adv-x="1000" 
d="M113 746l144 154h165l-160 -154h-149zM770 746l144 154h165l-160 -154h-149zM30 0v127h126v446h-126v127h395v-127h-126v-446h126v-127h-395zM606 228c3 -78 51 -107 103 -107c63 0 104 45 104 111v468h143v-468c0 -152 -114 -242 -251 -242c-129 0 -230 78 -242 217z
" />
    <glyph glyph-name="Ibreve.ss01" horiz-adv-x="455" 
d="M153 900c6 -37 33 -60 75 -60c41 0 68 23 74 60h114c-10 -102 -90 -160 -188 -160c-99 0 -179 58 -189 160h114zM30 0v127h126v446h-126v127h395v-127h-126v-446h126v-127h-395z" />
    <glyph glyph-name="uni01CF.ss01" horiz-adv-x="455" 
d="M299 746h-142l-146 154h149l68 -69l68 69h149zM30 573v127h395v-127h-126v-446h126v-127h-395v127h126v446h-126z" />
    <glyph glyph-name="Icircumflex.ss01" horiz-adv-x="455" 
d="M228 815l-68 -69h-149l146 154h142l146 -154h-149zM30 573v127h395v-127h-126v-446h126v-127h-395v127h126v446h-126z" />
    <glyph glyph-name="Idieresis.ss01" horiz-adv-x="455" 
d="M33 825c0 42 35 78 78 78c42 0 77 -36 77 -78s-35 -77 -77 -77c-43 0 -78 35 -78 77zM267 825c0 42 35 78 77 78c43 0 78 -36 78 -78s-35 -77 -78 -77c-42 0 -77 35 -77 77zM30 0v127h126v446h-126v127h395v-127h-126v-446h126v-127h-395z" />
    <glyph glyph-name="Idotaccent.ss01" horiz-adv-x="455" 
d="M146 825c0 45 37 81 81 81c45 0 82 -36 82 -81c0 -44 -37 -81 -82 -81c-44 0 -81 37 -81 81zM30 0v127h126v446h-126v127h395v-127h-126v-446h126v-127h-395z" />
    <glyph glyph-name="uni1ECA.ss01" horiz-adv-x="455" 
d="M30 0v127h126v446h-126v127h395v-127h-126v-446h126v-127h-395zM146 -143c0 45 37 81 81 81c45 0 82 -36 82 -81c0 -44 -37 -82 -82 -82c-44 0 -81 38 -81 82z" />
    <glyph glyph-name="Igrave.ss01" horiz-adv-x="455" 
d="M193 746l-160 154h165l144 -154h-149zM30 0v127h126v446h-126v127h395v-127h-126v-446h126v-127h-395z" />
    <glyph glyph-name="uni1EC8.ss01" horiz-adv-x="455" 
d="M202 794c40 14 62 35 62 65c0 21 -15 36 -36 36c-28 0 -40 -24 -38 -47h-103c0 76 55 126 141 126c85 0 139 -50 139 -115c0 -59 -45 -111 -135 -133zM30 0v127h126v446h-126v127h395v-127h-126v-446h126v-127h-395z" />
    <glyph glyph-name="Imacron.ss01" horiz-adv-x="455" 
d="M65 774v102h326v-102h-326zM30 0v127h126v446h-126v127h395v-127h-126v-446h126v-127h-395z" />
    <glyph glyph-name="Iogonek.ss01" horiz-adv-x="455" 
d="M425 573h-126v-446h126v-127h-137c-17 -16 -27 -39 -27 -59c0 -21 12 -38 41 -38c11 0 21 2 34 6l11 -104c-24 -10 -54 -15 -83 -15c-83 0 -132 41 -132 103c0 34 14 71 43 107h-145v127h126v446h-126v127h395v-127z" />
    <glyph glyph-name="Itilde.ss01" horiz-adv-x="455" 
d="M17 798c16 61 70 106 135 106c82 0 107 -52 152 -52c22 0 39 14 49 41l85 -41c-15 -61 -69 -106 -134 -106c-82 0 -107 52 -152 52c-22 0 -40 -14 -50 -41zM30 0v127h126v446h-126v127h395v-127h-126v-446h126v-127h-395z" />
    <glyph glyph-name="Y.ss02" horiz-adv-x="663" 
d="M403 242v-115h114v-127h-371v127h114v115l-266 458h168l174 -316l173 316h160z" />
    <glyph glyph-name="Yacute.ss02" horiz-adv-x="663" 
d="M526 900l-160 -154h-149l144 154h165zM509 700h160l-266 -458v-242h-143v242l-266 458h168l174 -316z" />
    <glyph glyph-name="Ycircumflex.ss02" horiz-adv-x="663" 
d="M331 815l-68 -69h-149l146 154h142l146 -154h-149zM509 700h160l-266 -458v-242h-143v242l-266 458h168l174 -316z" />
    <glyph glyph-name="Ydieresis.ss02" horiz-adv-x="663" 
d="M215 748c-43 0 -78 35 -78 77s35 78 78 78c42 0 77 -36 77 -78s-35 -77 -77 -77zM448 748c-42 0 -77 35 -77 77s35 78 77 78c43 0 78 -36 78 -78s-35 -77 -78 -77zM509 700h160l-266 -458v-242h-143v242l-266 458h168l174 -316z" />
    <glyph glyph-name="uni1EF4.ss02" horiz-adv-x="663" 
d="M260 0v242l-266 458h168l174 -316l173 316h160l-266 -458v-242h-143zM331 -62c45 0 82 -36 82 -81c0 -44 -37 -82 -82 -82c-44 0 -81 38 -81 82c0 45 37 81 81 81z" />
    <glyph glyph-name="Ygrave.ss02" horiz-adv-x="663" 
d="M446 746h-149l-160 154h165zM509 700h160l-266 -458v-242h-143v242l-266 458h168l174 -316z" />
    <glyph glyph-name="uni1EF6.ss02" horiz-adv-x="663" 
d="M332 895c-28 0 -40 -24 -38 -47h-103c0 76 55 126 141 126c85 0 139 -50 139 -115c0 -59 -45 -111 -135 -133l-30 68c40 14 62 35 62 65c0 21 -15 36 -36 36zM509 700h160l-266 -458v-242h-143v242l-266 458h168l174 -316z" />
    <glyph glyph-name="uni0232.ss02" horiz-adv-x="663" 
d="M494 876v-102h-326v102h326zM509 700h160l-266 -458v-242h-143v242l-266 458h168l174 -316z" />
    <glyph glyph-name="uni1EF8.ss02" horiz-adv-x="663" 
d="M256 798c-22 0 -40 -14 -50 -41l-85 41c16 61 70 106 135 106c82 0 107 -52 152 -52c22 0 39 14 49 41l85 -41c-15 -61 -69 -106 -134 -106c-82 0 -107 52 -152 52zM509 700h160l-266 -458v-242h-143v242l-266 458h168l174 -316z" />
    <glyph glyph-name="a" unicode="a" horiz-adv-x="539" 
d="M270 526c125 0 220 -64 220 -200v-326h-135v63c-36 -43 -94 -73 -163 -73c-96 0 -168 57 -168 148c0 118 103 156 199 166l84 8c32 2 48 14 48 41c0 38 -36 62 -84 62c-54 0 -89 -29 -98 -78l-134 30c14 89 99 159 231 159zM225 97c71 0 130 57 130 119v11
c-9 -7 -24 -10 -46 -13l-87 -10c-39 -5 -63 -25 -63 -55c0 -31 25 -52 66 -52z" />
    <glyph glyph-name="aacute" unicode="&#xe1;" horiz-adv-x="539" 
d="M435 739l-121 -160h-134l105 160h150zM270 526c125 0 220 -64 220 -200v-326h-135v63c-36 -43 -94 -73 -163 -73c-96 0 -168 57 -168 148c0 118 103 156 199 166l84 8c32 2 48 14 48 41c0 38 -36 62 -84 62c-54 0 -89 -29 -98 -78l-134 30c14 89 99 159 231 159zM225 97
c71 0 130 57 130 119v11c-9 -7 -24 -10 -46 -13l-87 -10c-39 -5 -63 -25 -63 -55c0 -31 25 -52 66 -52z" />
    <glyph glyph-name="abreve" unicode="&#x103;" horiz-adv-x="539" 
d="M267 572c-96 0 -164 62 -164 166h103c0 -39 22 -66 61 -66c40 0 62 27 62 66h103c0 -104 -68 -166 -165 -166zM270 526c125 0 220 -64 220 -200v-326h-135v63c-36 -43 -94 -73 -163 -73c-96 0 -168 57 -168 148c0 118 103 156 199 166l84 8c32 2 48 14 48 41
c0 38 -36 62 -84 62c-54 0 -89 -29 -98 -78l-134 30c14 89 99 159 231 159zM225 97c71 0 130 57 130 119v11c-9 -7 -24 -10 -46 -13l-87 -10c-39 -5 -63 -25 -63 -55c0 -31 25 -52 66 -52z" />
    <glyph glyph-name="uni1EAF" unicode="&#x1eaf;" horiz-adv-x="539" 
d="M423 940l-112 -148h-123l96 148h139zM267 572c-96 0 -164 62 -164 166h103c0 -39 22 -66 61 -66c40 0 62 27 62 66h103c0 -104 -68 -166 -165 -166zM270 526c125 0 220 -64 220 -200v-326h-135v63c-36 -43 -94 -73 -163 -73c-96 0 -168 57 -168 148
c0 118 103 156 199 166l84 8c32 2 48 14 48 41c0 38 -36 62 -84 62c-54 0 -89 -29 -98 -78l-134 30c14 89 99 159 231 159zM225 97c71 0 130 57 130 119v11c-9 -7 -24 -10 -46 -13l-87 -10c-39 -5 -63 -25 -63 -55c0 -31 25 -52 66 -52z" />
    <glyph glyph-name="uni1EB7" unicode="&#x1eb7;" horiz-adv-x="539" 
d="M267 572c-96 0 -164 62 -164 166h103c0 -39 22 -66 61 -66c40 0 62 27 62 66h103c0 -104 -68 -166 -165 -166zM270 526c125 0 220 -64 220 -200v-326h-135v63c-36 -43 -94 -73 -163 -73c-96 0 -168 57 -168 148c0 118 103 156 199 166l84 8c32 2 48 14 48 41
c0 38 -36 62 -84 62c-54 0 -89 -29 -98 -78l-134 30c14 89 99 159 231 159zM225 97c71 0 130 57 130 119v11c-9 -7 -24 -10 -46 -13l-87 -10c-39 -5 -63 -25 -63 -55c0 -31 25 -52 66 -52zM269 -62c45 0 82 -36 82 -81c0 -44 -37 -82 -82 -82c-44 0 -81 38 -81 82
c0 45 37 81 81 81z" />
    <glyph glyph-name="uni1EB1" unicode="&#x1eb1;" horiz-adv-x="539" 
d="M349 792h-124l-111 148h138zM267 572c-96 0 -164 62 -164 166h103c0 -39 22 -66 61 -66c40 0 62 27 62 66h103c0 -104 -68 -166 -165 -166zM270 526c125 0 220 -64 220 -200v-326h-135v63c-36 -43 -94 -73 -163 -73c-96 0 -168 57 -168 148c0 118 103 156 199 166l84 8
c32 2 48 14 48 41c0 38 -36 62 -84 62c-54 0 -89 -29 -98 -78l-134 30c14 89 99 159 231 159zM225 97c71 0 130 57 130 119v11c-9 -7 -24 -10 -46 -13l-87 -10c-39 -5 -63 -25 -63 -55c0 -31 25 -52 66 -52z" />
    <glyph glyph-name="uni1EB3" unicode="&#x1eb3;" horiz-adv-x="539" 
d="M268 894c-25 0 -36 -23 -34 -44h-91c0 70 51 116 125 116c75 0 125 -46 125 -106c0 -54 -41 -102 -125 -122l-27 63c40 13 61 32 61 59c0 19 -14 34 -34 34zM267 572c-96 0 -164 62 -164 166h103c0 -39 22 -66 61 -66c40 0 62 27 62 66h103c0 -104 -68 -166 -165 -166z
M270 526c125 0 220 -64 220 -200v-326h-135v63c-36 -43 -94 -73 -163 -73c-96 0 -168 57 -168 148c0 118 103 156 199 166l84 8c32 2 48 14 48 41c0 38 -36 62 -84 62c-54 0 -89 -29 -98 -78l-134 30c14 89 99 159 231 159zM225 97c71 0 130 57 130 119v11
c-9 -7 -24 -10 -46 -13l-87 -10c-39 -5 -63 -25 -63 -55c0 -31 25 -52 66 -52z" />
    <glyph glyph-name="uni1EB5" unicode="&#x1eb5;" horiz-adv-x="539" 
d="M206 841c-20 0 -36 -13 -45 -38l-79 38c15 56 64 97 124 97c69 0 90 -47 124 -47c20 0 36 13 45 38l79 -38c-15 -56 -64 -97 -124 -97c-69 0 -90 47 -124 47zM267 672c40 0 62 27 62 66h103c0 -104 -68 -166 -165 -166c-96 0 -164 62 -164 166h103c0 -39 22 -66 61 -66z
M270 526c125 0 220 -64 220 -200v-326h-135v63c-36 -43 -94 -73 -163 -73c-96 0 -168 57 -168 148c0 118 103 156 199 166l84 8c32 2 48 14 48 41c0 38 -36 62 -84 62c-54 0 -89 -29 -98 -78l-134 30c14 89 99 159 231 159zM225 97c71 0 130 57 130 119v11
c-9 -7 -24 -10 -46 -13l-87 -10c-39 -5 -63 -25 -63 -55c0 -31 25 -52 66 -52z" />
    <glyph glyph-name="uni01CE" unicode="&#x1ce;" horiz-adv-x="539" 
d="M343 579h-151l-113 160h126l63 -78l62 78h126zM270 526c125 0 220 -64 220 -200v-326h-135v63c-36 -43 -94 -73 -163 -73c-96 0 -168 57 -168 148c0 118 103 156 199 166l84 8c32 2 48 14 48 41c0 38 -36 62 -84 62c-54 0 -89 -29 -98 -78l-134 30c14 89 99 159 231 159z
M225 97c71 0 130 57 130 119v11c-9 -7 -24 -10 -46 -13l-87 -10c-39 -5 -63 -25 -63 -55c0 -31 25 -52 66 -52z" />
    <glyph glyph-name="acircumflex" unicode="&#xe2;" horiz-adv-x="539" 
d="M268 657l-63 -78h-126l113 160h151l113 -160h-126zM270 526c125 0 220 -64 220 -200v-326h-135v63c-36 -43 -94 -73 -163 -73c-96 0 -168 57 -168 148c0 118 103 156 199 166l84 8c32 2 48 14 48 41c0 38 -36 62 -84 62c-54 0 -89 -29 -98 -78l-134 30
c14 89 99 159 231 159zM225 97c71 0 130 57 130 119v11c-9 -7 -24 -10 -46 -13l-87 -10c-39 -5 -63 -25 -63 -55c0 -31 25 -52 66 -52z" />
    <glyph glyph-name="uni1EA5" unicode="&#x1ea5;" horiz-adv-x="539" 
d="M491 895h138l-111 -148h-124zM268 657l-63 -78h-126l113 160h151l113 -160h-126zM270 526c125 0 220 -64 220 -200v-326h-135v63c-36 -43 -94 -73 -163 -73c-96 0 -168 57 -168 148c0 118 103 156 199 166l84 8c32 2 48 14 48 41c0 38 -36 62 -84 62
c-54 0 -89 -29 -98 -78l-134 30c14 89 99 159 231 159zM225 97c71 0 130 57 130 119v11c-9 -7 -24 -10 -46 -13l-87 -10c-39 -5 -63 -25 -63 -55c0 -31 25 -52 66 -52z" />
    <glyph glyph-name="uni1EAD" unicode="&#x1ead;" horiz-adv-x="539" 
d="M268 657l-63 -78h-126l113 160h151l113 -160h-126zM270 526c125 0 220 -64 220 -200v-326h-135v63c-36 -43 -94 -73 -163 -73c-96 0 -168 57 -168 148c0 118 103 156 199 166l84 8c32 2 48 14 48 41c0 38 -36 62 -84 62c-54 0 -89 -29 -98 -78l-134 30
c14 89 99 159 231 159zM225 97c71 0 130 57 130 119v11c-9 -7 -24 -10 -46 -13l-87 -10c-39 -5 -63 -25 -63 -55c0 -31 25 -52 66 -52zM269 -62c45 0 82 -36 82 -81c0 -44 -37 -82 -82 -82c-44 0 -81 38 -81 82c0 45 37 81 81 81z" />
    <glyph glyph-name="uni1EA7" unicode="&#x1ea7;" horiz-adv-x="539" 
d="M555 747h-123l-111 148h138zM268 657l-63 -78h-126l113 160h151l113 -160h-126zM270 526c125 0 220 -64 220 -200v-326h-135v63c-36 -43 -94 -73 -163 -73c-96 0 -168 57 -168 148c0 118 103 156 199 166l84 8c32 2 48 14 48 41c0 38 -36 62 -84 62
c-54 0 -89 -29 -98 -78l-134 30c14 89 99 159 231 159zM225 97c71 0 130 57 130 119v11c-9 -7 -24 -10 -46 -13l-87 -10c-39 -5 -63 -25 -63 -55c0 -31 25 -52 66 -52z" />
    <glyph glyph-name="uni1EA9" unicode="&#x1ea9;" horiz-adv-x="539" 
d="M443 941c75 0 125 -45 125 -105c0 -54 -41 -103 -125 -123l-27 63c40 13 60 32 60 60c0 19 -13 33 -33 33c-25 0 -36 -22 -34 -44h-92c0 71 52 116 126 116zM268 657l-63 -78h-126l113 160h151l113 -160h-126zM270 526c125 0 220 -64 220 -200v-326h-135v63
c-36 -43 -94 -73 -163 -73c-96 0 -168 57 -168 148c0 118 103 156 199 166l84 8c32 2 48 14 48 41c0 38 -36 62 -84 62c-54 0 -89 -29 -98 -78l-134 30c14 89 99 159 231 159zM225 97c71 0 130 57 130 119v11c-9 -7 -24 -10 -46 -13l-87 -10c-39 -5 -63 -25 -63 -55
c0 -31 25 -52 66 -52z" />
    <glyph glyph-name="uni1EAB" unicode="&#x1eab;" horiz-adv-x="539" 
d="M206 842c-20 0 -36 -13 -45 -38l-79 38c15 56 64 97 124 97c69 0 90 -47 124 -47c20 0 36 13 45 38l79 -38c-15 -56 -64 -97 -124 -97c-68 0 -90 47 -124 47zM268 657l-63 -78h-126l113 160h151l113 -160h-126zM270 526c125 0 220 -64 220 -200v-326h-135v63
c-36 -43 -94 -73 -163 -73c-96 0 -168 57 -168 148c0 118 103 156 199 166l84 8c32 2 48 14 48 41c0 38 -36 62 -84 62c-54 0 -89 -29 -98 -78l-134 30c14 89 99 159 231 159zM225 97c71 0 130 57 130 119v11c-9 -7 -24 -10 -46 -13l-87 -10c-39 -5 -63 -25 -63 -55
c0 -31 25 -52 66 -52z" />
    <glyph glyph-name="adieresis" unicode="&#xe4;" horiz-adv-x="539" 
d="M152 581c-43 0 -78 36 -78 78s35 77 78 77c42 0 77 -35 77 -77s-35 -78 -77 -78zM383 581c-42 0 -77 36 -77 78s35 77 77 77c43 0 78 -35 78 -77s-35 -78 -78 -78zM270 526c125 0 220 -64 220 -200v-326h-135v63c-36 -43 -94 -73 -163 -73c-96 0 -168 57 -168 148
c0 118 103 156 199 166l84 8c32 2 48 14 48 41c0 38 -36 62 -84 62c-54 0 -89 -29 -98 -78l-134 30c14 89 99 159 231 159zM225 97c71 0 130 57 130 119v11c-9 -7 -24 -10 -46 -13l-87 -10c-39 -5 -63 -25 -63 -55c0 -31 25 -52 66 -52z" />
    <glyph glyph-name="uni1EA1" unicode="&#x1ea1;" horiz-adv-x="539" 
d="M270 526c125 0 220 -64 220 -200v-326h-135v63c-36 -43 -94 -73 -163 -73c-96 0 -168 57 -168 148c0 118 103 156 199 166l84 8c32 2 48 14 48 41c0 38 -36 62 -84 62c-54 0 -89 -29 -98 -78l-134 30c14 89 99 159 231 159zM225 97c71 0 130 57 130 119v11
c-9 -7 -24 -10 -46 -13l-87 -10c-39 -5 -63 -25 -63 -55c0 -31 25 -52 66 -52zM269 -62c45 0 82 -36 82 -81c0 -44 -37 -82 -82 -82c-44 0 -81 38 -81 82c0 45 37 81 81 81z" />
    <glyph glyph-name="agrave" unicode="&#xe0;" horiz-adv-x="539" 
d="M355 579h-134l-121 160h150zM270 526c125 0 220 -64 220 -200v-326h-135v63c-36 -43 -94 -73 -163 -73c-96 0 -168 57 -168 148c0 118 103 156 199 166l84 8c32 2 48 14 48 41c0 38 -36 62 -84 62c-54 0 -89 -29 -98 -78l-134 30c14 89 99 159 231 159zM225 97
c71 0 130 57 130 119v11c-9 -7 -24 -10 -46 -13l-87 -10c-39 -5 -63 -25 -63 -55c0 -31 25 -52 66 -52z" />
    <glyph glyph-name="uni1EA3" unicode="&#x1ea3;" horiz-adv-x="539" 
d="M268 711c-28 0 -40 -24 -38 -47h-99c0 76 55 126 137 126c81 0 135 -50 135 -115c0 -59 -45 -112 -135 -133l-30 68c44 14 66 35 66 65c0 20 -15 36 -36 36zM270 526c125 0 220 -64 220 -200v-326h-135v63c-36 -43 -94 -73 -163 -73c-96 0 -168 57 -168 148
c0 118 103 156 199 166l84 8c32 2 48 14 48 41c0 38 -36 62 -84 62c-54 0 -89 -29 -98 -78l-134 30c14 89 99 159 231 159zM225 97c71 0 130 57 130 119v11c-9 -7 -24 -10 -46 -13l-87 -10c-39 -5 -63 -25 -63 -55c0 -31 25 -52 66 -52z" />
    <glyph glyph-name="amacron" unicode="&#x101;" horiz-adv-x="539" 
d="M426 710v-102h-316v102h316zM270 526c125 0 220 -64 220 -200v-326h-135v63c-36 -43 -94 -73 -163 -73c-96 0 -168 57 -168 148c0 118 103 156 199 166l84 8c32 2 48 14 48 41c0 38 -36 62 -84 62c-54 0 -89 -29 -98 -78l-134 30c14 89 99 159 231 159zM225 97
c71 0 130 57 130 119v11c-9 -7 -24 -10 -46 -13l-87 -10c-39 -5 -63 -25 -63 -55c0 -31 25 -52 66 -52z" />
    <glyph glyph-name="aogonek" unicode="&#x105;" horiz-adv-x="539" 
d="M549 -195c-24 -10 -54 -15 -83 -15c-83 0 -132 41 -132 103c0 34 14 71 43 107h-22v63c-36 -43 -94 -73 -163 -73c-96 0 -168 57 -168 148c0 118 103 156 199 166l84 8c32 2 48 14 48 41c0 38 -36 62 -84 62c-54 0 -89 -29 -98 -78l-134 30c14 89 99 159 231 159
c125 0 220 -64 220 -200v-326c-17 -16 -27 -39 -27 -59c0 -21 12 -38 41 -38c11 0 21 2 34 6zM225 97c71 0 130 57 130 119v11c-9 -7 -24 -10 -46 -13l-87 -10c-39 -5 -63 -25 -63 -55c0 -31 25 -52 66 -52z" />
    <glyph glyph-name="aring" unicode="&#xe5;" horiz-adv-x="539" 
d="M268 544c-74 0 -129 49 -129 115c0 65 55 115 129 115c73 0 128 -50 128 -115c0 -66 -55 -115 -128 -115zM268 703c-25 0 -45 -19 -45 -44s20 -44 45 -44s44 19 44 44s-19 44 -44 44zM270 526c125 0 220 -64 220 -200v-326h-135v63c-36 -43 -94 -73 -163 -73
c-96 0 -168 57 -168 148c0 118 103 156 199 166l84 8c32 2 48 14 48 41c0 38 -36 62 -84 62c-54 0 -89 -29 -98 -78l-134 30c14 89 99 159 231 159zM225 97c71 0 130 57 130 119v11c-9 -7 -24 -10 -46 -13l-87 -10c-39 -5 -63 -25 -63 -55c0 -31 25 -52 66 -52z" />
    <glyph glyph-name="atilde" unicode="&#xe3;" horiz-adv-x="539" 
d="M201 632c-22 0 -40 -14 -50 -41l-85 41c16 61 70 106 135 106c74 0 97 -52 134 -52c22 0 39 14 49 41l85 -41c-15 -61 -69 -106 -134 -106c-74 0 -98 52 -134 52zM270 526c125 0 220 -64 220 -200v-326h-135v63c-36 -43 -94 -73 -163 -73c-96 0 -168 57 -168 148
c0 118 103 156 199 166l84 8c32 2 48 14 48 41c0 38 -36 62 -84 62c-54 0 -89 -29 -98 -78l-134 30c14 89 99 159 231 159zM225 97c71 0 130 57 130 119v11c-9 -7 -24 -10 -46 -13l-87 -10c-39 -5 -63 -25 -63 -55c0 -31 25 -52 66 -52z" />
    <glyph glyph-name="ae" unicode="&#xe6;" horiz-adv-x="947" 
d="M659 526c162 0 276 -144 250 -316h-398c18 -61 70 -104 141 -104c56 0 103 27 128 72l111 -50c-44 -81 -121 -138 -228 -138c-76 0 -142 31 -189 82v-72h-119v63c-36 -43 -94 -73 -163 -73c-96 0 -168 57 -168 148c0 118 103 156 199 166l84 8c32 2 48 14 48 41
c0 38 -36 62 -84 62c-54 0 -89 -29 -98 -78l-134 30c14 89 99 159 231 159c86 0 157 -30 194 -92c46 57 115 92 195 92zM643 410c-61 0 -111 -39 -130 -97h261c-18 58 -66 97 -131 97zM225 97c71 0 130 57 130 119v11c-9 -7 -24 -10 -46 -13l-87 -10c-38 -5 -62 -25 -62 -55
c0 -31 25 -52 65 -52z" />
    <glyph glyph-name="aeacute" unicode="&#x1fd;" horiz-adv-x="947" 
d="M662 739l-121 -160h-134l105 160h150zM659 526c162 0 276 -144 250 -316h-398c18 -61 70 -104 141 -104c56 0 103 27 128 72l111 -50c-44 -81 -121 -138 -228 -138c-76 0 -142 31 -189 82v-72h-119v63c-36 -43 -94 -73 -163 -73c-96 0 -168 57 -168 148
c0 118 103 156 199 166l84 8c32 2 48 14 48 41c0 38 -36 62 -84 62c-54 0 -89 -29 -98 -78l-134 30c14 89 99 159 231 159c86 0 157 -30 194 -92c46 57 115 92 195 92zM643 410c-61 0 -111 -39 -130 -97h261c-18 58 -66 97 -131 97zM225 97c71 0 130 57 130 119v11
c-9 -7 -24 -10 -46 -13l-87 -10c-38 -5 -62 -25 -62 -55c0 -31 25 -52 65 -52z" />
    <glyph glyph-name="b" unicode="b" horiz-adv-x="635" 
d="M353 526c141 0 248 -116 248 -268s-107 -268 -248 -268c-68 0 -124 27 -164 71v-61h-135v740h135v-285c40 44 96 71 164 71zM325 113c78 0 136 62 136 145c0 82 -58 144 -136 144c-77 0 -136 -62 -136 -144c0 -83 59 -145 136 -145z" />
    <glyph glyph-name="c" unicode="c" horiz-adv-x="584" 
d="M34 258c0 152 119 268 276 268c110 0 204 -59 248 -164l-124 -43c-23 53 -69 83 -124 83c-77 0 -136 -62 -136 -144c0 -83 59 -145 136 -145c55 0 101 31 124 84l124 -43c-44 -105 -138 -164 -248 -164c-157 0 -276 116 -276 268z" />
    <glyph glyph-name="cacute" unicode="&#x107;" horiz-adv-x="584" 
d="M223 579l105 160h150l-121 -160h-134zM34 258c0 152 119 268 276 268c110 0 204 -59 248 -164l-124 -43c-23 53 -69 83 -124 83c-77 0 -136 -62 -136 -144c0 -83 59 -145 136 -145c55 0 101 31 124 84l124 -43c-44 -105 -138 -164 -248 -164c-157 0 -276 116 -276 268z
" />
    <glyph glyph-name="ccaron" unicode="&#x10d;" horiz-adv-x="584" 
d="M386 579h-151l-113 160h126l63 -78l62 78h126zM310 113c55 0 101 31 124 84l124 -43c-44 -105 -138 -164 -248 -164c-157 0 -276 116 -276 268s119 268 276 268c110 0 204 -59 248 -164l-124 -43c-23 53 -69 83 -124 83c-77 0 -136 -62 -136 -144c0 -83 59 -145 136 -145
z" />
    <glyph glyph-name="ccedilla" unicode="&#xe7;" horiz-adv-x="584" 
d="M310 113c55 0 101 31 124 84l124 -43c-33 -80 -96 -133 -172 -154c23 -30 35 -64 35 -92c0 -67 -58 -118 -149 -118c-22 0 -46 3 -73 10l16 107c10 -3 18 -4 27 -4c31 0 50 17 50 40c0 16 -8 34 -26 50c-135 20 -232 128 -232 265c0 152 119 268 276 268
c110 0 204 -59 248 -164l-124 -43c-23 53 -69 83 -124 83c-77 0 -136 -62 -136 -144c0 -83 59 -145 136 -145z" />
    <glyph glyph-name="ccircumflex" unicode="&#x109;" horiz-adv-x="584" 
d="M311 657l-63 -78h-126l113 160h151l113 -160h-126zM310 113c55 0 101 31 124 84l124 -43c-44 -105 -138 -164 -248 -164c-157 0 -276 116 -276 268s119 268 276 268c110 0 204 -59 248 -164l-124 -43c-23 53 -69 83 -124 83c-77 0 -136 -62 -136 -144
c0 -83 59 -145 136 -145z" />
    <glyph glyph-name="cdotaccent" unicode="&#x10b;" horiz-adv-x="584" 
d="M229 659c0 45 37 81 81 81c45 0 82 -36 82 -81c0 -44 -37 -81 -82 -81c-44 0 -81 37 -81 81zM34 258c0 152 119 268 276 268c110 0 204 -59 248 -164l-124 -43c-23 53 -69 83 -124 83c-77 0 -136 -62 -136 -144c0 -83 59 -145 136 -145c55 0 101 31 124 84l124 -43
c-44 -105 -138 -164 -248 -164c-157 0 -276 116 -276 268z" />
    <glyph glyph-name="d" unicode="d" horiz-adv-x="635" 
d="M446 740h135v-740h-135v61c-40 -44 -96 -71 -164 -71c-141 0 -248 116 -248 268s107 268 248 268c68 0 124 -27 164 -71v285zM310 113c78 0 136 62 136 145c0 82 -58 144 -136 144c-77 0 -136 -62 -136 -144c0 -83 59 -145 136 -145z" />
    <glyph glyph-name="eth" unicode="&#xf0;" horiz-adv-x="616" 
d="M409 592c117 -109 173 -221 173 -336c0 -156 -119 -266 -274 -266c-156 0 -274 110 -274 254c0 145 111 237 236 237c28 0 57 -5 85 -14c-26 26 -56 51 -91 76l-160 -54l-31 97l84 28c-24 14 -48 29 -74 43l109 93c46 -27 87 -54 125 -82l148 50l31 -96zM308 113
c76 0 134 57 134 131s-58 130 -134 130c-77 0 -134 -56 -134 -130s57 -131 134 -131z" />
    <glyph glyph-name="dcaron" unicode="&#x10f;" horiz-adv-x="755" 
d="M655 768h122l-50 -193h-102zM446 740h135v-740h-135v61c-40 -44 -96 -71 -164 -71c-141 0 -248 116 -248 268s107 268 248 268c68 0 124 -27 164 -71v285zM310 113c78 0 136 62 136 145c0 82 -58 144 -136 144c-77 0 -136 -62 -136 -144c0 -83 59 -145 136 -145z" />
    <glyph glyph-name="dcroat" unicode="&#x111;" horiz-adv-x="635" 
d="M637 660v-102h-56v-558h-135v61c-40 -44 -96 -71 -164 -71c-141 0 -248 116 -248 268s107 268 248 268c68 0 124 -27 164 -71v103h-124v102h124v80h135v-80h56zM310 113c78 0 136 62 136 145c0 82 -58 144 -136 144c-77 0 -136 -62 -136 -144c0 -83 59 -145 136 -145z
" />
    <glyph glyph-name="e" unicode="e" horiz-adv-x="610" 
d="M305 526c173 0 294 -144 266 -316h-398c18 -61 70 -104 141 -104c56 0 103 27 128 72l111 -50c-45 -81 -131 -138 -243 -138c-157 0 -276 116 -276 268s117 268 271 268zM305 410c-61 0 -111 -39 -130 -97h261c-18 58 -67 97 -131 97z" />
    <glyph glyph-name="eacute" unicode="&#xe9;" horiz-adv-x="610" 
d="M473 739l-121 -160h-134l105 160h150zM305 526c173 0 294 -144 266 -316h-398c18 -61 70 -104 141 -104c56 0 103 27 128 72l111 -50c-45 -81 -131 -138 -243 -138c-157 0 -276 116 -276 268s117 268 271 268zM305 410c-61 0 -111 -39 -130 -97h261
c-18 58 -67 97 -131 97z" />
    <glyph glyph-name="ebreve" unicode="&#x115;" horiz-adv-x="610" 
d="M305 572c-96 0 -164 62 -164 166h103c0 -39 23 -66 61 -66c40 0 62 27 62 66h103c0 -104 -68 -166 -165 -166zM305 526c173 0 294 -144 266 -316h-398c18 -61 70 -104 141 -104c56 0 103 27 128 72l111 -50c-45 -81 -131 -138 -243 -138c-157 0 -276 116 -276 268
s117 268 271 268zM305 410c-61 0 -111 -39 -130 -97h261c-18 58 -67 97 -131 97z" />
    <glyph glyph-name="ecaron" unicode="&#x11b;" horiz-adv-x="610" 
d="M381 579h-151l-113 160h126l63 -78l62 78h126zM305 526c173 0 294 -144 266 -316h-398c18 -61 70 -104 141 -104c56 0 103 27 128 72l111 -50c-45 -81 -131 -138 -243 -138c-157 0 -276 116 -276 268s117 268 271 268zM305 410c-61 0 -111 -39 -130 -97h261
c-18 58 -67 97 -131 97z" />
    <glyph glyph-name="ecircumflex" unicode="&#xea;" horiz-adv-x="610" 
d="M306 657l-63 -78h-126l113 160h151l113 -160h-126zM305 526c173 0 294 -144 266 -316h-398c18 -61 70 -104 141 -104c56 0 103 27 128 72l111 -50c-45 -81 -131 -138 -243 -138c-157 0 -276 116 -276 268s117 268 271 268zM305 410c-61 0 -111 -39 -130 -97h261
c-18 58 -67 97 -131 97z" />
    <glyph glyph-name="uni1EBF" unicode="&#x1ebf;" horiz-adv-x="610" 
d="M667 895l-111 -148h-124l97 148h138zM306 657l-63 -78h-126l113 160h151l113 -160h-126zM305 526c173 0 294 -144 266 -316h-398c18 -61 70 -104 141 -104c56 0 103 27 128 72l111 -50c-45 -81 -131 -138 -243 -138c-157 0 -276 116 -276 268s117 268 271 268zM305 410
c-61 0 -111 -39 -130 -97h261c-18 58 -67 97 -131 97z" />
    <glyph glyph-name="uni1EC7" unicode="&#x1ec7;" horiz-adv-x="610" 
d="M306 657l-63 -78h-126l113 160h151l113 -160h-126zM305 526c173 0 294 -144 266 -316h-398c18 -61 70 -104 141 -104c56 0 103 27 128 72l111 -50c-45 -81 -131 -138 -243 -138c-157 0 -276 116 -276 268s117 268 271 268zM305 410c-61 0 -111 -39 -130 -97h261
c-18 58 -67 97 -131 97zM310 -62c45 0 82 -36 82 -81c0 -44 -37 -82 -82 -82c-44 0 -81 38 -81 82c0 45 37 81 81 81z" />
    <glyph glyph-name="uni1EC1" unicode="&#x1ec1;" horiz-adv-x="610" 
d="M593 747h-123l-111 148h138zM306 657l-63 -78h-126l113 160h151l113 -160h-126zM305 526c173 0 294 -144 266 -316h-398c18 -61 70 -104 141 -104c56 0 103 27 128 72l111 -50c-45 -81 -131 -138 -243 -138c-157 0 -276 116 -276 268s117 268 271 268zM305 410
c-61 0 -111 -39 -130 -97h261c-18 58 -67 97 -131 97z" />
    <glyph glyph-name="uni1EC3" unicode="&#x1ec3;" horiz-adv-x="610" 
d="M481 869c-25 0 -36 -22 -34 -44h-92c0 71 52 116 126 116c75 0 125 -45 125 -105c0 -54 -41 -103 -125 -123l-27 63c40 13 60 32 60 60c0 19 -13 33 -33 33zM306 657l-63 -78h-126l113 160h151l113 -160h-126zM305 526c173 0 294 -144 266 -316h-398
c18 -61 70 -104 141 -104c56 0 103 27 128 72l111 -50c-45 -81 -131 -138 -243 -138c-157 0 -276 116 -276 268s117 268 271 268zM305 410c-61 0 -111 -39 -130 -97h261c-18 58 -67 97 -131 97z" />
    <glyph glyph-name="uni1EC5" unicode="&#x1ec5;" horiz-adv-x="610" 
d="M244 842c-20 0 -36 -13 -45 -38l-79 38c15 56 64 97 124 97c69 0 90 -47 124 -47c20 0 36 13 45 38l79 -38c-15 -56 -64 -97 -124 -97c-68 0 -90 47 -124 47zM306 657l-63 -78h-126l113 160h151l113 -160h-126zM305 526c173 0 294 -144 266 -316h-398
c18 -61 70 -104 141 -104c56 0 103 27 128 72l111 -50c-45 -81 -131 -138 -243 -138c-157 0 -276 116 -276 268s117 268 271 268zM305 410c-61 0 -111 -39 -130 -97h261c-18 58 -67 97 -131 97z" />
    <glyph glyph-name="edieresis" unicode="&#xeb;" horiz-adv-x="610" 
d="M190 581c-43 0 -78 36 -78 78s35 77 78 77c42 0 77 -35 77 -77s-35 -78 -77 -78zM421 581c-42 0 -77 36 -77 78s35 77 77 77c43 0 78 -35 78 -77s-35 -78 -78 -78zM305 526c173 0 294 -144 266 -316h-398c18 -61 70 -104 141 -104c56 0 103 27 128 72l111 -50
c-45 -81 -131 -138 -243 -138c-157 0 -276 116 -276 268s117 268 271 268zM305 410c-61 0 -111 -39 -130 -97h261c-18 58 -67 97 -131 97z" />
    <glyph glyph-name="edotaccent" unicode="&#x117;" horiz-adv-x="610" 
d="M305 578c-44 0 -81 37 -81 81c0 45 37 81 81 81c45 0 82 -36 82 -81c0 -44 -37 -81 -82 -81zM305 526c173 0 294 -144 266 -316h-398c18 -61 70 -104 141 -104c56 0 103 27 128 72l111 -50c-45 -81 -131 -138 -243 -138c-157 0 -276 116 -276 268s117 268 271 268z
M305 410c-61 0 -111 -39 -130 -97h261c-18 58 -67 97 -131 97z" />
    <glyph glyph-name="uni1EB9" unicode="&#x1eb9;" horiz-adv-x="610" 
d="M305 526c173 0 294 -144 266 -316h-398c18 -61 70 -104 141 -104c56 0 103 27 128 72l111 -50c-45 -81 -131 -138 -243 -138c-157 0 -276 116 -276 268s117 268 271 268zM305 410c-61 0 -111 -39 -130 -97h261c-18 58 -67 97 -131 97zM310 -62c45 0 82 -36 82 -81
c0 -44 -37 -82 -82 -82c-44 0 -81 38 -81 82c0 45 37 81 81 81z" />
    <glyph glyph-name="egrave" unicode="&#xe8;" horiz-adv-x="610" 
d="M393 579h-134l-121 160h150zM305 526c173 0 294 -144 266 -316h-398c18 -61 70 -104 141 -104c56 0 103 27 128 72l111 -50c-45 -81 -131 -138 -243 -138c-157 0 -276 116 -276 268s117 268 271 268zM305 410c-61 0 -111 -39 -130 -97h261c-18 58 -67 97 -131 97z" />
    <glyph glyph-name="uni1EBB" unicode="&#x1ebb;" horiz-adv-x="610" 
d="M305 711c-28 0 -40 -24 -38 -47h-99c0 76 55 126 137 126c81 0 135 -50 135 -115c0 -59 -45 -112 -135 -133l-30 68c44 14 66 35 66 65c0 20 -15 36 -36 36zM305 526c173 0 294 -144 266 -316h-398c18 -61 70 -104 141 -104c56 0 103 27 128 72l111 -50
c-45 -81 -131 -138 -243 -138c-157 0 -276 116 -276 268s117 268 271 268zM305 410c-61 0 -111 -39 -130 -97h261c-18 58 -67 97 -131 97z" />
    <glyph glyph-name="emacron" unicode="&#x113;" horiz-adv-x="610" 
d="M463 710v-102h-316v102h316zM305 526c173 0 294 -144 266 -316h-398c18 -61 70 -104 141 -104c56 0 103 27 128 72l111 -50c-45 -81 -131 -138 -243 -138c-157 0 -276 116 -276 268s117 268 271 268zM305 410c-61 0 -111 -39 -130 -97h261c-18 58 -67 97 -131 97z" />
    <glyph glyph-name="eogonek" unicode="&#x119;" horiz-adv-x="610" 
d="M305 526c173 0 294 -144 266 -316h-398c18 -61 70 -104 141 -104c56 0 103 27 128 72l111 -50c-8 -14 -16 -26 -26 -39l1 1c-43 -67 -56 -115 -56 -147c0 -22 10 -40 42 -40c10 0 20 2 33 6l12 -104c-25 -10 -55 -15 -84 -15c-83 0 -132 41 -132 104c0 35 17 72 50 107
c-26 -7 -54 -11 -83 -11c-157 0 -276 116 -276 268s117 268 271 268zM305 410c-61 0 -111 -39 -130 -97h261c-18 58 -67 97 -131 97z" />
    <glyph glyph-name="uni1EBD" unicode="&#x1ebd;" horiz-adv-x="610" 
d="M238 632c-22 0 -40 -14 -50 -41l-85 41c16 61 70 106 135 106c74 0 97 -52 134 -52c22 0 39 14 49 41l85 -41c-15 -61 -69 -106 -134 -106c-74 0 -98 52 -134 52zM305 526c173 0 294 -144 266 -316h-398c18 -61 70 -104 141 -104c56 0 103 27 128 72l111 -50
c-45 -81 -131 -138 -243 -138c-157 0 -276 116 -276 268s117 268 271 268zM305 410c-61 0 -111 -39 -130 -97h261c-18 58 -67 97 -131 97z" />
    <glyph glyph-name="uni0259" unicode="&#x259;" horiz-adv-x="610" 
d="M300 526c157 0 276 -116 276 -268s-117 -268 -271 -268c-172 0 -293 144 -266 316h398c-18 61 -70 104 -141 104c-55 0 -102 -27 -128 -73l-111 51c46 80 131 138 243 138zM305 106c61 0 111 39 130 97h-260c18 -58 66 -97 130 -97z" />
    <glyph glyph-name="uni0292" unicode="&#x292;" horiz-adv-x="510" 
d="M307 225c104 -29 171 -104 171 -211c0 -136 -97 -224 -232 -224c-129 0 -220 79 -234 179l126 29c9 -50 49 -85 104 -85s97 42 97 101c0 64 -44 105 -126 105h-50v111l147 167h-265v119h421v-111z" />
    <glyph glyph-name="uni01EF" unicode="&#x1ef;" horiz-adv-x="510" 
d="M317 579h-151l-113 160h126l63 -78l62 78h126zM307 225c104 -29 171 -104 171 -211c0 -136 -97 -224 -232 -224c-129 0 -220 79 -234 179l126 29c9 -50 49 -85 104 -85s97 42 97 101c0 64 -44 105 -126 105h-50v111l147 167h-265v119h421v-111z" />
    <glyph glyph-name="f" unicode="f" horiz-adv-x="411" 
d="M118 0v397h-104v119h104v24c0 134 66 200 208 200h61v-119h-61c-50 0 -73 -23 -73 -73v-32h134v-119h-134v-397h-135z" />
    <glyph glyph-name="g" unicode="g" horiz-adv-x="635" 
d="M446 516h135v-458c0 -152 -119 -268 -276 -268c-109 0 -196 57 -240 139l121 64c24 -49 64 -80 119 -80c78 0 141 60 141 145v17c-40 -43 -96 -69 -164 -69c-141 0 -248 113 -248 260s107 260 248 260c68 0 124 -26 164 -69v59zM310 129c78 0 136 59 136 137
s-58 136 -136 136c-77 0 -136 -58 -136 -136s59 -137 136 -137z" />
    <glyph glyph-name="uni01F5" unicode="&#x1f5;" horiz-adv-x="635" 
d="M485 739l-121 -160h-134l105 160h150zM446 516h135v-458c0 -152 -119 -268 -276 -268c-109 0 -196 57 -240 139l121 64c24 -49 64 -80 119 -80c78 0 141 60 141 145v17c-40 -43 -96 -69 -164 -69c-141 0 -248 113 -248 260s107 260 248 260c68 0 124 -26 164 -69v59z
M310 129c78 0 136 59 136 137s-58 136 -136 136c-77 0 -136 -58 -136 -136s59 -137 136 -137z" />
    <glyph glyph-name="gbreve" unicode="&#x11f;" horiz-adv-x="635" 
d="M317 572c-96 0 -164 62 -164 166h103c0 -39 23 -66 61 -66c40 0 62 27 62 66h103c0 -104 -68 -166 -165 -166zM446 516h135v-458c0 -152 -119 -268 -276 -268c-109 0 -196 57 -240 139l121 64c24 -49 64 -80 119 -80c78 0 141 60 141 145v17c-40 -43 -96 -69 -164 -69
c-141 0 -248 113 -248 260s107 260 248 260c68 0 124 -26 164 -69v59zM310 129c78 0 136 59 136 137s-58 136 -136 136c-77 0 -136 -58 -136 -136s59 -137 136 -137z" />
    <glyph glyph-name="gcaron" unicode="&#x1e7;" horiz-adv-x="635" 
d="M393 579h-151l-113 160h126l63 -78l62 78h126zM446 516h135v-458c0 -152 -119 -268 -276 -268c-109 0 -196 57 -240 139l121 64c24 -49 64 -80 119 -80c78 0 141 60 141 145v17c-40 -43 -96 -69 -164 -69c-141 0 -248 113 -248 260s107 260 248 260c68 0 124 -26 164 -69
v59zM310 129c78 0 136 59 136 137s-58 136 -136 136c-77 0 -136 -58 -136 -136s59 -137 136 -137z" />
    <glyph glyph-name="gcircumflex" unicode="&#x11d;" horiz-adv-x="635" 
d="M318 657l-63 -78h-126l113 160h151l113 -160h-126zM446 516h135v-458c0 -152 -119 -268 -276 -268c-109 0 -196 57 -240 139l121 64c24 -49 64 -80 119 -80c78 0 141 60 141 145v17c-40 -43 -96 -69 -164 -69c-141 0 -248 113 -248 260s107 260 248 260
c68 0 124 -26 164 -69v59zM310 129c78 0 136 59 136 137s-58 136 -136 136c-77 0 -136 -58 -136 -136s59 -137 136 -137z" />
    <glyph glyph-name="uni0123" unicode="&#x123;" horiz-adv-x="635" 
d="M397 740l-30 -169h-129l50 169h109zM446 516h135v-458c0 -152 -119 -268 -276 -268c-109 0 -196 57 -240 139l121 64c24 -49 64 -80 119 -80c78 0 141 60 141 145v17c-40 -43 -96 -69 -164 -69c-141 0 -248 113 -248 260s107 260 248 260c68 0 124 -26 164 -69v59z
M310 129c78 0 136 59 136 137s-58 136 -136 136c-77 0 -136 -58 -136 -136s59 -137 136 -137z" />
    <glyph glyph-name="gdotaccent" unicode="&#x121;" horiz-adv-x="635" 
d="M317 578c-44 0 -81 37 -81 81c0 45 37 81 81 81c45 0 82 -36 82 -81c0 -44 -37 -81 -82 -81zM446 516h135v-458c0 -152 -119 -268 -276 -268c-109 0 -196 57 -240 139l121 64c24 -49 64 -80 119 -80c78 0 141 60 141 145v17c-40 -43 -96 -69 -164 -69
c-141 0 -248 113 -248 260s107 260 248 260c68 0 124 -26 164 -69v59zM310 129c78 0 136 59 136 137s-58 136 -136 136c-77 0 -136 -58 -136 -136s59 -137 136 -137z" />
    <glyph glyph-name="h" unicode="h" horiz-adv-x="608" 
d="M350 526c124 0 208 -90 208 -213v-313h-135v289c0 67 -48 114 -117 114c-67 0 -117 -47 -117 -114v-289h-135v740h135v-291c36 47 93 77 161 77z" />
    <glyph glyph-name="hbar" unicode="&#x127;" horiz-adv-x="608" 
d="M350 526c124 0 208 -90 208 -213v-313h-135v289c0 67 -48 114 -117 114c-67 0 -117 -47 -117 -114v-289h-135v558h-56v102h56v80h135v-80h125v-102h-125v-109c36 47 93 77 161 77z" />
    <glyph glyph-name="hcircumflex" unicode="&#x125;" horiz-adv-x="608" 
d="M122 855l-68 -69h-149l146 154h142l146 -154h-149zM350 526c124 0 208 -90 208 -213v-313h-135v289c0 67 -48 114 -117 114c-67 0 -117 -47 -117 -114v-289h-135v740h135v-291c36 47 93 77 161 77z" />
    <glyph glyph-name="i" unicode="i" horiz-adv-x="243" 
d="M40 659c0 45 37 81 82 81c44 0 81 -36 81 -81c0 -44 -37 -81 -81 -81c-45 0 -82 37 -82 81zM54 0v516h135v-516h-135z" />
    <glyph glyph-name="dotlessi" unicode="&#x131;" horiz-adv-x="243" 
d="M54 0v516h135v-516h-135z" />
    <glyph glyph-name="iacute" unicode="&#xed;" horiz-adv-x="243" 
d="M34 579l105 160h150l-121 -160h-134zM54 0v516h135v-516h-135z" />
    <glyph glyph-name="ibreve" unicode="&#x12d;" horiz-adv-x="243" 
d="M60 738c0 -39 22 -66 61 -66c40 0 62 27 62 66h103c0 -104 -68 -166 -165 -166c-96 0 -164 62 -164 166h103zM54 0v516h135v-516h-135z" />
    <glyph glyph-name="uni01D0" unicode="&#x1d0;" horiz-adv-x="243" 
d="M184 739h126l-113 -160h-151l-113 160h126l63 -78zM54 0v516h135v-516h-135z" />
    <glyph glyph-name="icircumflex" unicode="&#xee;" horiz-adv-x="243" 
d="M122 657l-63 -78h-126l113 160h151l113 -160h-126zM54 0v516h135v-516h-135z" />
    <glyph glyph-name="idieresis" unicode="&#xef;" horiz-adv-x="243" 
d="M-48 659c0 42 35 77 78 77c42 0 77 -35 77 -77s-35 -78 -77 -78c-43 0 -78 36 -78 78zM136 659c0 42 35 77 78 77c42 0 77 -35 77 -77s-35 -78 -77 -78c-43 0 -78 36 -78 78zM54 0v516h135v-516h-135z" />
    <glyph glyph-name="i.loclTRK" horiz-adv-x="243" 
d="M40 659c0 45 37 81 82 81c44 0 81 -36 81 -81c0 -44 -37 -81 -81 -81c-45 0 -82 37 -82 81zM54 0v516h135v-516h-135z" />
    <glyph glyph-name="uni1ECB" unicode="&#x1ecb;" horiz-adv-x="243" 
d="M40 659c0 45 37 81 82 81c44 0 81 -36 81 -81c0 -44 -37 -81 -81 -81c-45 0 -82 37 -82 81zM54 0v516h135v-516h-135zM40 -143c0 45 37 81 81 81c45 0 82 -36 82 -81c0 -44 -37 -82 -82 -82c-44 0 -81 38 -81 82z" />
    <glyph glyph-name="igrave" unicode="&#xec;" horiz-adv-x="243" 
d="M75 579l-121 160h150l105 -160h-134zM54 0v516h135v-516h-135z" />
    <glyph glyph-name="uni1EC9" unicode="&#x1ec9;" horiz-adv-x="243" 
d="M92 610c44 14 66 35 66 65c0 20 -15 36 -36 36c-28 0 -40 -24 -38 -47h-99c0 76 55 126 137 126c81 0 135 -50 135 -115c0 -59 -45 -112 -135 -133zM54 0v516h135v-516h-135z" />
    <glyph glyph-name="ij" unicode="&#x133;" horiz-adv-x="507" 
d="M40 659c0 45 37 81 82 81c44 0 81 -36 81 -81c0 -44 -37 -81 -81 -81c-45 0 -82 37 -82 81zM303 659c0 45 37 81 82 81c44 0 81 -36 81 -81c0 -44 -37 -81 -81 -81c-45 0 -82 37 -82 81zM54 0v516h135v-516h-135zM229 -90c74 -1 88 19 88 90v516h135v-516
c0 -124 -51 -218 -223 -209v119z" />
    <glyph glyph-name="imacron" unicode="&#x12b;" horiz-adv-x="243" 
d="M-12 608v102h267v-102h-267zM54 0v516h135v-516h-135z" />
    <glyph glyph-name="iogonek" unicode="&#x12f;" horiz-adv-x="243" 
d="M121 578c-44 0 -81 37 -81 81c0 45 37 81 81 81c45 0 82 -36 82 -81c0 -44 -37 -81 -82 -81zM233 -195c-24 -10 -54 -15 -83 -15c-83 0 -132 41 -132 103c0 34 14 71 43 107h-7v516h135v-516h-15c-17 -16 -27 -39 -27 -59c0 -21 12 -38 41 -38c11 0 21 2 34 6z" />
    <glyph glyph-name="itilde" unicode="&#x129;" horiz-adv-x="243" 
d="M-80 632c16 61 70 106 135 106c74 0 97 -52 134 -52c22 0 39 14 49 41l85 -41c-15 -61 -69 -106 -134 -106c-74 0 -98 52 -134 52c-22 0 -40 -14 -50 -41zM54 0v516h135v-516h-135z" />
    <glyph glyph-name="j" unicode="j" horiz-adv-x="263" 
d="M60 659c0 45 37 81 82 81c44 0 81 -36 81 -81c0 -44 -37 -81 -81 -81c-45 0 -82 37 -82 81zM-14 -90c74 -1 88 19 88 90v516h135v-516c0 -124 -51 -218 -223 -209v119z" />
    <glyph glyph-name="uni0237" unicode="&#x237;" horiz-adv-x="263" 
d="M-14 -90c74 -1 88 19 88 90v516h135v-516c0 -124 -51 -218 -223 -209v119z" />
    <glyph glyph-name="jcircumflex" unicode="&#x135;" horiz-adv-x="263" 
d="M142 657l-63 -78h-126l113 160h151l113 -160h-126zM74 516h135v-516c0 -124 -51 -218 -223 -209v119c74 -1 88 19 88 90v516z" />
    <glyph glyph-name="k" unicode="k" horiz-adv-x="572" 
d="M578 0h-170l-154 197l-65 -71v-126h-135v740h135v-434l185 210h170l-198 -218z" />
    <glyph glyph-name="uni01E9" unicode="&#x1e9;" horiz-adv-x="572" 
d="M362 803h-151l-113 160h126l63 -78l62 78h126zM578 0h-170l-154 197l-65 -71v-126h-135v740h135v-434l185 210h170l-198 -218z" />
    <glyph glyph-name="uni0137" unicode="&#x137;" horiz-adv-x="572" 
d="M346 298l232 -298h-170l-154 197l-65 -71v-126h-135v740h135v-434l185 210h170zM206 -210l30 169h129l-50 -169h-109z" />
    <glyph glyph-name="kgreenlandic" unicode="&#x138;" horiz-adv-x="572" 
d="M578 0h-170l-154 197l-65 -71v-126h-135v516h135v-210l185 210h170l-198 -218z" />
    <glyph glyph-name="l" unicode="l" horiz-adv-x="243" 
d="M54 0v740h135v-740h-135z" />
    <glyph glyph-name="lacute" unicode="&#x13a;" horiz-adv-x="243" 
d="M7 786l144 154h165l-160 -154h-149zM54 0v740h135v-740h-135z" />
    <glyph glyph-name="lcaron" unicode="&#x13e;" horiz-adv-x="363" 
d="M233 575l30 193h122l-50 -193h-102zM54 0v740h135v-740h-135z" />
    <glyph glyph-name="uni013C" unicode="&#x13c;" horiz-adv-x="243" 
d="M54 0v740h135v-740h-135zM42 -210l30 169h129l-50 -169h-109z" />
    <glyph glyph-name="ldot" unicode="&#x140;" horiz-adv-x="422" 
d="M54 0v740h135v-740h-135zM243 350c0 49 40 89 90 89c48 0 89 -40 89 -89c0 -48 -41 -89 -89 -89c-50 0 -90 41 -90 89z" />
    <glyph glyph-name="lslash" unicode="&#x142;" horiz-adv-x="288" 
d="M293 454v-105l-82 -24v-325h-135v286l-82 -24v105l82 24v349h135v-310z" />
    <glyph glyph-name="m" unicode="m" horiz-adv-x="897" 
d="M643 526c122 0 205 -90 205 -213v-313h-135v289c0 67 -40 114 -98 114c-55 0 -97 -47 -97 -114v-289h-135v289c0 67 -40 114 -97 114c-55 0 -97 -47 -97 -114v-289h-135v516h135v-62c34 44 82 72 141 72c66 0 119 -31 153 -83c36 51 93 83 160 83z" />
    <glyph glyph-name="n" unicode="n" horiz-adv-x="608" 
d="M350 526c124 0 208 -90 208 -213v-313h-135v289c0 67 -48 114 -117 114c-67 0 -117 -47 -117 -114v-289h-135v516h135v-67c36 47 93 77 161 77z" />
    <glyph glyph-name="nacute" unicode="&#x144;" horiz-adv-x="608" 
d="M472 739l-121 -160h-134l105 160h150zM350 526c124 0 208 -90 208 -213v-313h-135v289c0 67 -48 114 -117 114c-67 0 -117 -47 -117 -114v-289h-135v516h135v-67c36 47 93 77 161 77z" />
    <glyph glyph-name="napostrophe" unicode="&#x149;" horiz-adv-x="867" 
d="M130 750c69 0 111 -60 111 -131c0 -110 -63 -183 -152 -213l-49 72c74 25 100 67 103 102c-49 -10 -103 21 -103 81c0 49 40 89 90 89zM609 526c124 0 208 -90 208 -213v-313h-135v289c0 67 -48 114 -117 114c-67 0 -117 -47 -117 -114v-289h-135v516h135v-67
c36 47 93 77 161 77z" />
    <glyph glyph-name="ncaron" unicode="&#x148;" horiz-adv-x="608" 
d="M380 579h-151l-113 160h126l63 -78l62 78h126zM350 526c124 0 208 -90 208 -213v-313h-135v289c0 67 -48 114 -117 114c-67 0 -117 -47 -117 -114v-289h-135v516h135v-67c36 47 93 77 161 77z" />
    <glyph glyph-name="uni0146" unicode="&#x146;" horiz-adv-x="608" 
d="M350 526c124 0 208 -90 208 -213v-313h-135v289c0 67 -48 114 -117 114c-67 0 -117 -47 -117 -114v-289h-135v516h135v-67c36 47 93 77 161 77zM225 -210l30 169h129l-50 -169h-109z" />
    <glyph glyph-name="eng" unicode="&#x14b;" horiz-adv-x="608" 
d="M350 526c124 0 208 -90 208 -213v-313c0 -124 -51 -218 -223 -209v119c74 -1 88 19 88 90v289c0 67 -48 114 -117 114c-67 0 -117 -47 -117 -114v-289h-135v516h135v-67c36 47 93 77 161 77z" />
    <glyph glyph-name="uni0272" unicode="&#x272;" horiz-adv-x="608" 
d="M350 526c124 0 208 -90 208 -213v-313h-135v289c0 67 -48 114 -117 114c-67 0 -117 -47 -117 -114v-289c0 -124 -51 -218 -223 -209v119c74 -1 88 19 88 90v516h135v-67c36 47 93 77 161 77z" />
    <glyph glyph-name="ntilde" unicode="&#xf1;" horiz-adv-x="608" 
d="M238 632c-22 0 -40 -14 -50 -41l-85 41c16 61 70 106 135 106c74 0 97 -52 134 -52c22 0 39 14 49 41l85 -41c-15 -61 -69 -106 -134 -106c-74 0 -98 52 -134 52zM350 526c124 0 208 -90 208 -213v-313h-135v289c0 67 -48 114 -117 114c-67 0 -117 -47 -117 -114v-289
h-135v516h135v-67c36 47 93 77 161 77z" />
    <glyph glyph-name="o" unicode="o" horiz-adv-x="620" 
d="M34 258c0 152 119 268 276 268s276 -116 276 -268s-119 -268 -276 -268s-276 116 -276 268zM174 258c0 -83 59 -145 136 -145c78 0 136 62 136 145c0 82 -58 144 -136 144c-77 0 -136 -62 -136 -144z" />
    <glyph glyph-name="oacute" unicode="&#xf3;" horiz-adv-x="620" 
d="M223 579l105 160h150l-121 -160h-134zM34 258c0 152 119 268 276 268s276 -116 276 -268s-119 -268 -276 -268s-276 116 -276 268zM174 258c0 -83 59 -145 136 -145c78 0 136 62 136 145c0 82 -58 144 -136 144c-77 0 -136 -62 -136 -144z" />
    <glyph glyph-name="obreve" unicode="&#x14f;" horiz-adv-x="620" 
d="M249 738c0 -39 23 -66 61 -66c40 0 62 27 62 66h103c0 -104 -68 -166 -165 -166c-96 0 -164 62 -164 166h103zM34 258c0 152 119 268 276 268s276 -116 276 -268s-119 -268 -276 -268s-276 116 -276 268zM174 258c0 -83 59 -145 136 -145c78 0 136 62 136 145
c0 82 -58 144 -136 144c-77 0 -136 -62 -136 -144z" />
    <glyph glyph-name="uni01D2" unicode="&#x1d2;" horiz-adv-x="620" 
d="M386 579h-151l-113 160h126l63 -78l62 78h126zM310 526c157 0 276 -116 276 -268s-119 -268 -276 -268s-276 116 -276 268s119 268 276 268zM310 113c78 0 136 62 136 145c0 82 -58 144 -136 144c-77 0 -136 -62 -136 -144c0 -83 59 -145 136 -145z" />
    <glyph glyph-name="ocircumflex" unicode="&#xf4;" horiz-adv-x="620" 
d="M311 657l-63 -78h-126l113 160h151l113 -160h-126zM310 526c157 0 276 -116 276 -268s-119 -268 -276 -268s-276 116 -276 268s119 268 276 268zM310 113c78 0 136 62 136 145c0 82 -58 144 -136 144c-77 0 -136 -62 -136 -144c0 -83 59 -145 136 -145z" />
    <glyph glyph-name="uni1ED1" unicode="&#x1ed1;" horiz-adv-x="620" 
d="M672 895l-111 -148h-124l97 148h138zM311 657l-63 -78h-126l113 160h151l113 -160h-126zM310 526c157 0 276 -116 276 -268s-119 -268 -276 -268s-276 116 -276 268s119 268 276 268zM310 113c78 0 136 62 136 145c0 82 -58 144 -136 144c-77 0 -136 -62 -136 -144
c0 -83 59 -145 136 -145z" />
    <glyph glyph-name="uni1ED9" unicode="&#x1ed9;" horiz-adv-x="620" 
d="M311 657l-63 -78h-126l113 160h151l113 -160h-126zM310 526c157 0 276 -116 276 -268s-119 -268 -276 -268s-276 116 -276 268s119 268 276 268zM310 113c78 0 136 62 136 145c0 82 -58 144 -136 144c-77 0 -136 -62 -136 -144c0 -83 59 -145 136 -145zM310 -62
c45 0 82 -36 82 -81c0 -44 -37 -82 -82 -82c-44 0 -81 38 -81 82c0 45 37 81 81 81z" />
    <glyph glyph-name="uni1ED3" unicode="&#x1ed3;" horiz-adv-x="620" 
d="M598 747h-123l-111 148h138zM311 657l-63 -78h-126l113 160h151l113 -160h-126zM310 526c157 0 276 -116 276 -268s-119 -268 -276 -268s-276 116 -276 268s119 268 276 268zM310 113c78 0 136 62 136 145c0 82 -58 144 -136 144c-77 0 -136 -62 -136 -144
c0 -83 59 -145 136 -145z" />
    <glyph glyph-name="uni1ED5" unicode="&#x1ed5;" horiz-adv-x="620" 
d="M486 869c-25 0 -36 -22 -34 -44h-92c0 71 52 116 126 116c75 0 125 -45 125 -105c0 -54 -41 -103 -125 -123l-27 63c40 13 60 32 60 60c0 19 -13 33 -33 33zM311 657l-63 -78h-126l113 160h151l113 -160h-126zM310 526c157 0 276 -116 276 -268s-119 -268 -276 -268
s-276 116 -276 268s119 268 276 268zM310 113c78 0 136 62 136 145c0 82 -58 144 -136 144c-77 0 -136 -62 -136 -144c0 -83 59 -145 136 -145z" />
    <glyph glyph-name="uni1ED7" unicode="&#x1ed7;" horiz-adv-x="620" 
d="M249 842c-20 0 -36 -13 -45 -38l-79 38c15 56 64 97 124 97c69 0 90 -47 124 -47c20 0 36 13 45 38l79 -38c-15 -56 -64 -97 -124 -97c-68 0 -90 47 -124 47zM311 657l-63 -78h-126l113 160h151l113 -160h-126zM310 526c157 0 276 -116 276 -268s-119 -268 -276 -268
s-276 116 -276 268s119 268 276 268zM310 113c78 0 136 62 136 145c0 82 -58 144 -136 144c-77 0 -136 -62 -136 -144c0 -83 59 -145 136 -145z" />
    <glyph glyph-name="odieresis" unicode="&#xf6;" horiz-adv-x="620" 
d="M117 659c0 42 35 77 78 77c42 0 77 -35 77 -77s-35 -78 -77 -78c-43 0 -78 36 -78 78zM349 659c0 42 35 77 77 77c43 0 78 -35 78 -77s-35 -78 -78 -78c-42 0 -77 36 -77 78zM34 258c0 152 119 268 276 268s276 -116 276 -268s-119 -268 -276 -268s-276 116 -276 268z
M174 258c0 -83 59 -145 136 -145c78 0 136 62 136 145c0 82 -58 144 -136 144c-77 0 -136 -62 -136 -144z" />
    <glyph glyph-name="uni1ECD" unicode="&#x1ecd;" horiz-adv-x="620" 
d="M34 258c0 152 119 268 276 268s276 -116 276 -268s-119 -268 -276 -268s-276 116 -276 268zM174 258c0 -83 59 -145 136 -145c78 0 136 62 136 145c0 82 -58 144 -136 144c-77 0 -136 -62 -136 -144zM229 -143c0 45 37 81 81 81c45 0 82 -36 82 -81
c0 -44 -37 -82 -82 -82c-44 0 -81 38 -81 82z" />
    <glyph glyph-name="ograve" unicode="&#xf2;" horiz-adv-x="620" 
d="M264 579l-121 160h150l105 -160h-134zM34 258c0 152 119 268 276 268s276 -116 276 -268s-119 -268 -276 -268s-276 116 -276 268zM174 258c0 -83 59 -145 136 -145c78 0 136 62 136 145c0 82 -58 144 -136 144c-77 0 -136 -62 -136 -144z" />
    <glyph glyph-name="uni1ECF" unicode="&#x1ecf;" horiz-adv-x="620" 
d="M280 610c44 14 66 35 66 65c0 20 -15 36 -36 36c-28 0 -40 -24 -38 -47h-99c0 76 55 126 137 126c81 0 135 -50 135 -115c0 -59 -45 -112 -135 -133zM34 258c0 152 119 268 276 268s276 -116 276 -268s-119 -268 -276 -268s-276 116 -276 268zM174 258
c0 -83 59 -145 136 -145c78 0 136 62 136 145c0 82 -58 144 -136 144c-77 0 -136 -62 -136 -144z" />
    <glyph glyph-name="ohorn" unicode="&#x1a1;" horiz-adv-x="664" 
d="M679 578c0 -85 -54 -141 -145 -160c33 -44 52 -99 52 -160c0 -152 -119 -268 -276 -268s-276 116 -276 268s119 268 276 268c23 0 46 -3 67 -7c112 -21 179 4 179 74c0 20 -6 45 -17 73h119c14 -26 21 -58 21 -88zM310 113c78 0 136 62 136 145c0 82 -58 144 -136 144
c-77 0 -136 -62 -136 -144c0 -83 59 -145 136 -145z" />
    <glyph glyph-name="uni1EDB" unicode="&#x1edb;" horiz-adv-x="664" 
d="M478 739l-121 -160h-134l105 160h150zM679 578c0 -85 -54 -141 -145 -160c33 -44 52 -99 52 -160c0 -152 -119 -268 -276 -268s-276 116 -276 268s119 268 276 268c23 0 46 -3 67 -7c112 -21 179 4 179 74c0 20 -6 45 -17 73h119c14 -26 21 -58 21 -88zM310 113
c78 0 136 62 136 145c0 82 -58 144 -136 144c-77 0 -136 -62 -136 -144c0 -83 59 -145 136 -145z" />
    <glyph glyph-name="uni1EE3" unicode="&#x1ee3;" horiz-adv-x="664" 
d="M679 578c0 -85 -54 -141 -145 -160c33 -44 52 -99 52 -160c0 -152 -119 -268 -276 -268s-276 116 -276 268s119 268 276 268c23 0 46 -3 67 -7c112 -21 179 4 179 74c0 20 -6 45 -17 73h119c14 -26 21 -58 21 -88zM310 113c78 0 136 62 136 145c0 82 -58 144 -136 144
c-77 0 -136 -62 -136 -144c0 -83 59 -145 136 -145zM310 -62c45 0 82 -36 82 -81c0 -44 -37 -82 -82 -82c-44 0 -81 38 -81 82c0 45 37 81 81 81z" />
    <glyph glyph-name="uni1EDD" unicode="&#x1edd;" horiz-adv-x="664" 
d="M398 579h-134l-121 160h150zM679 578c0 -85 -54 -141 -145 -160c33 -44 52 -99 52 -160c0 -152 -119 -268 -276 -268s-276 116 -276 268s119 268 276 268c23 0 46 -3 67 -7c112 -21 179 4 179 74c0 20 -6 45 -17 73h119c14 -26 21 -58 21 -88zM310 113
c78 0 136 62 136 145c0 82 -58 144 -136 144c-77 0 -136 -62 -136 -144c0 -83 59 -145 136 -145z" />
    <glyph glyph-name="uni1EDF" unicode="&#x1edf;" horiz-adv-x="664" 
d="M310 711c-28 0 -40 -24 -38 -47h-99c0 76 55 126 137 126c81 0 135 -50 135 -115c0 -59 -45 -112 -135 -133l-30 68c44 14 66 35 66 65c0 20 -15 36 -36 36zM679 578c0 -85 -54 -141 -145 -160c33 -44 52 -99 52 -160c0 -152 -119 -268 -276 -268s-276 116 -276 268
s119 268 276 268c23 0 46 -3 67 -7c112 -21 179 4 179 74c0 20 -6 45 -17 73h119c14 -26 21 -58 21 -88zM310 113c78 0 136 62 136 145c0 82 -58 144 -136 144c-77 0 -136 -62 -136 -144c0 -83 59 -145 136 -145z" />
    <glyph glyph-name="uni1EE1" unicode="&#x1ee1;" horiz-adv-x="664" 
d="M243 632c-22 0 -40 -14 -50 -41l-85 41c16 61 70 106 135 106c74 0 97 -52 134 -52c22 0 39 14 49 41l85 -41c-15 -61 -69 -106 -134 -106c-74 0 -98 52 -134 52zM679 578c0 -85 -54 -141 -145 -160c33 -44 52 -99 52 -160c0 -152 -119 -268 -276 -268s-276 116 -276 268
s119 268 276 268c23 0 46 -3 67 -7c112 -21 179 4 179 74c0 20 -6 45 -17 73h119c14 -26 21 -58 21 -88zM310 113c78 0 136 62 136 145c0 82 -58 144 -136 144c-77 0 -136 -62 -136 -144c0 -83 59 -145 136 -145z" />
    <glyph glyph-name="ohungarumlaut" unicode="&#x151;" horiz-adv-x="620" 
d="M135 579l105 160h134l-121 -160h-118zM326 579l105 160h134l-121 -160h-118zM34 258c0 152 119 268 276 268s276 -116 276 -268s-119 -268 -276 -268s-276 116 -276 268zM174 258c0 -83 59 -145 136 -145c78 0 136 62 136 145c0 82 -58 144 -136 144
c-77 0 -136 -62 -136 -144z" />
    <glyph glyph-name="omacron" unicode="&#x14d;" horiz-adv-x="620" 
d="M152 608v102h316v-102h-316zM34 258c0 152 119 268 276 268s276 -116 276 -268s-119 -268 -276 -268s-276 116 -276 268zM174 258c0 -83 59 -145 136 -145c78 0 136 62 136 145c0 82 -58 144 -136 144c-77 0 -136 -62 -136 -144z" />
    <glyph glyph-name="uni01EB" unicode="&#x1eb;" horiz-adv-x="620" 
d="M586 258c0 -130 -87 -233 -210 -261c-15 -16 -24 -37 -24 -56c0 -21 12 -38 41 -38c11 0 21 2 34 6l11 -104c-24 -10 -54 -15 -83 -15c-83 0 -132 41 -132 103c0 32 13 67 39 101c-133 21 -228 128 -228 264c0 152 119 268 276 268s276 -116 276 -268zM174 258
c0 -83 59 -145 136 -145c78 0 136 62 136 145c0 82 -58 144 -136 144c-77 0 -136 -62 -136 -144z" />
    <glyph glyph-name="oslash" unicode="&#xf8;" horiz-adv-x="620" 
d="M512 443c46 -47 74 -112 74 -185c0 -152 -119 -268 -276 -268c-36 0 -71 6 -102 18l-54 -77l-98 68l52 74c-46 47 -74 112 -74 185c0 152 119 268 276 268c36 0 71 -6 102 -18l54 77l98 -68zM166 258c0 -28 6 -54 18 -76l157 225c-10 2 -20 3 -31 3
c-82 0 -144 -65 -144 -152zM310 106c82 0 144 65 144 152c0 28 -6 54 -18 76l-157 -225c10 -2 20 -3 31 -3z" />
    <glyph glyph-name="oslashacute" unicode="&#x1ff;" horiz-adv-x="620" 
d="M478 739l-121 -160h-134l105 160h150zM512 443c46 -47 74 -112 74 -185c0 -152 -119 -268 -276 -268c-36 0 -71 6 -102 18l-54 -77l-98 68l52 74c-46 47 -74 112 -74 185c0 152 119 268 276 268c36 0 71 -6 102 -18l54 77l98 -68zM166 258c0 -28 6 -54 18 -76l157 225
c-10 2 -20 3 -31 3c-82 0 -144 -65 -144 -152zM310 106c82 0 144 65 144 152c0 28 -6 54 -18 76l-157 -225c10 -2 20 -3 31 -3z" />
    <glyph glyph-name="otilde" unicode="&#xf5;" horiz-adv-x="620" 
d="M108 632c16 61 70 106 135 106c74 0 97 -52 134 -52c22 0 39 14 49 41l85 -41c-15 -61 -69 -106 -134 -106c-74 0 -98 52 -134 52c-22 0 -40 -14 -50 -41zM34 258c0 152 119 268 276 268s276 -116 276 -268s-119 -268 -276 -268s-276 116 -276 268zM174 258
c0 -83 59 -145 136 -145c78 0 136 62 136 145c0 82 -58 144 -136 144c-77 0 -136 -62 -136 -144z" />
    <glyph glyph-name="oe" unicode="&#x153;" horiz-adv-x="1022" 
d="M717 526c173 0 294 -144 266 -316h-398c18 -61 70 -104 141 -104c55 0 103 27 128 72l111 -50c-45 -81 -131 -138 -243 -138c-86 0 -158 35 -206 91c-48 -56 -120 -91 -206 -91c-157 0 -276 116 -276 268s119 268 276 268c86 0 158 -35 205 -91c47 56 118 91 202 91z
M717 410c-61 0 -111 -39 -130 -97h261c-18 58 -67 97 -131 97zM310 113c78 0 136 62 136 145c0 82 -58 144 -136 144c-77 0 -136 -62 -136 -144c0 -83 59 -145 136 -145z" />
    <glyph glyph-name="p" unicode="p" horiz-adv-x="635" 
d="M353 526c141 0 248 -116 248 -268s-107 -268 -248 -268c-68 0 -124 27 -164 71v-261h-135v716h135v-61c40 44 96 71 164 71zM325 113c78 0 136 62 136 145c0 82 -58 144 -136 144c-77 0 -136 -62 -136 -144c0 -83 59 -145 136 -145z" />
    <glyph glyph-name="thorn" unicode="&#xfe;" horiz-adv-x="635" 
d="M353 526c141 0 248 -116 248 -268s-107 -268 -248 -268c-68 0 -124 27 -164 71v-261h-135v940h135v-285c40 44 96 71 164 71zM325 113c78 0 136 62 136 145c0 82 -58 144 -136 144c-77 0 -136 -62 -136 -144c0 -83 59 -145 136 -145z" />
    <glyph glyph-name="q" unicode="q" horiz-adv-x="635" 
d="M446 516h135v-716h-135v261c-40 -44 -96 -71 -164 -71c-141 0 -248 116 -248 268s107 268 248 268c68 0 124 -27 164 -71v61zM310 113c78 0 136 62 136 145c0 82 -58 144 -136 144c-77 0 -136 -62 -136 -144c0 -83 59 -145 136 -145z" />
    <glyph glyph-name="r" unicode="r" horiz-adv-x="402" 
d="M189 449c44 60 117 93 193 69v-128c-109 38 -193 -12 -193 -101v-289h-135v516h135v-67z" />
    <glyph glyph-name="racute" unicode="&#x155;" horiz-adv-x="402" 
d="M369 739l-121 -160h-134l105 160h150zM189 449c44 60 117 93 193 69v-128c-109 38 -193 -12 -193 -101v-289h-135v516h135v-67z" />
    <glyph glyph-name="rcaron" unicode="&#x159;" horiz-adv-x="402" 
d="M277 579h-151l-113 160h126l63 -78l62 78h126zM189 449c44 60 117 93 193 69v-128c-109 38 -193 -12 -193 -101v-289h-135v516h135v-67z" />
    <glyph glyph-name="uni0157" unicode="&#x157;" horiz-adv-x="402" 
d="M189 449c44 60 117 93 193 69v-128c-109 38 -193 -12 -193 -101v-289h-135v516h135v-67zM38 -210l30 169h129l-50 -169h-109z" />
    <glyph glyph-name="s" unicode="s" horiz-adv-x="502" 
d="M159 167c6 -47 39 -70 92 -70c56 0 91 24 91 54c0 97 -303 6 -303 212c0 93 91 163 212 163c123 0 205 -59 220 -149l-134 -28c-7 47 -38 70 -86 70c-43 0 -76 -20 -76 -50c0 -98 303 -7 303 -216c0 -93 -101 -163 -227 -163c-128 0 -212 59 -227 149z" />
    <glyph glyph-name="sacute" unicode="&#x15b;" horiz-adv-x="502" 
d="M163 579l105 160h150l-121 -160h-134zM159 167c6 -47 39 -70 92 -70c56 0 91 24 91 54c0 97 -303 6 -303 212c0 93 91 163 212 163c123 0 205 -59 220 -149l-134 -28c-7 47 -38 70 -86 70c-43 0 -76 -20 -76 -50c0 -98 303 -7 303 -216c0 -93 -101 -163 -227 -163
c-128 0 -212 59 -227 149z" />
    <glyph glyph-name="scaron" unicode="&#x161;" horiz-adv-x="502" 
d="M326 579h-151l-113 160h126l63 -78l62 78h126zM175 369c0 -98 303 -7 303 -216c0 -93 -101 -163 -227 -163c-128 0 -212 59 -227 149l135 28c6 -47 39 -70 92 -70c56 0 91 24 91 54c0 97 -303 6 -303 212c0 93 91 163 212 163c123 0 205 -59 220 -149l-134 -28
c-7 47 -38 70 -86 70c-43 0 -76 -20 -76 -50z" />
    <glyph glyph-name="scedilla" unicode="&#x15f;" horiz-adv-x="502" 
d="M478 153c0 -73 -63 -132 -151 -154c23 -30 35 -64 35 -91c0 -67 -58 -118 -149 -118c-22 0 -46 3 -73 10l16 107c10 -3 18 -4 27 -4c31 0 50 17 50 40c0 16 -8 33 -25 49c-104 12 -171 68 -184 147l135 28c6 -47 39 -70 92 -70c56 0 91 24 91 54c0 97 -303 6 -303 212
c0 93 91 163 212 163c123 0 205 -59 220 -149l-134 -28c-7 47 -38 70 -86 70c-43 0 -76 -20 -76 -50c0 -98 303 -7 303 -216z" />
    <glyph glyph-name="scircumflex" unicode="&#x15d;" horiz-adv-x="502" 
d="M251 657l-63 -78h-126l113 160h151l113 -160h-126zM175 369c0 -98 303 -7 303 -216c0 -93 -101 -163 -227 -163c-128 0 -212 59 -227 149l135 28c6 -47 39 -70 92 -70c56 0 91 24 91 54c0 97 -303 6 -303 212c0 93 91 163 212 163c123 0 205 -59 220 -149l-134 -28
c-7 47 -38 70 -86 70c-43 0 -76 -20 -76 -50z" />
    <glyph glyph-name="uni0219" unicode="&#x219;" horiz-adv-x="502" 
d="M159 167c6 -47 39 -70 92 -70c56 0 91 24 91 54c0 97 -303 6 -303 212c0 93 91 163 212 163c123 0 205 -59 220 -149l-134 -28c-7 47 -38 70 -86 70c-43 0 -76 -20 -76 -50c0 -98 303 -7 303 -216c0 -93 -101 -163 -227 -163c-128 0 -212 59 -227 149zM171 -210l30 169
h129l-50 -169h-109z" />
    <glyph glyph-name="germandbls" unicode="&#xdf;" horiz-adv-x="610" 
d="M464 392c74 -35 122 -98 122 -183c0 -129 -92 -219 -223 -219c-36 0 -80 7 -120 22l18 116c32 -10 60 -15 81 -15c64 0 108 43 108 106c0 60 -46 105 -122 105h-44v119h26c60 0 108 40 108 92s-46 92 -108 92c-63 0 -121 -42 -121 -129v-498h-135v496
c0 155 101 254 260 254c129 0 236 -84 236 -205c0 -61 -32 -116 -86 -153z" />
    <glyph glyph-name="t" unicode="t" horiz-adv-x="421" 
d="M14 397v119h104v152l135 42v-194h134v-119h-134v-205c0 -50 23 -73 73 -73h61v-119h-61c-142 0 -208 66 -208 200v197h-104z" />
    <glyph glyph-name="tbar" unicode="&#x167;" horiz-adv-x="421" 
d="M387 397h-134v-71h111v-103h-111v-31c0 -50 23 -73 73 -73h61v-119h-61c-142 0 -208 66 -208 200v23h-70v103h70v71h-104v119h104v152l135 42v-194h134v-119z" />
    <glyph glyph-name="tcaron" unicode="&#x165;" horiz-adv-x="436" 
d="M298 575l30 193h121l-50 -193h-101zM14 397v119h104v152l135 42v-194h134v-119h-134v-205c0 -50 23 -73 73 -73h61v-119h-61c-142 0 -208 66 -208 200v197h-104z" />
    <glyph glyph-name="uni0163" unicode="&#x163;" horiz-adv-x="472" 
d="M387 397h-134v-205c0 -50 23 -73 73 -73h61v-119h-74c24 -32 36 -62 36 -92c0 -67 -58 -118 -150 -118c-22 0 -46 3 -73 10l16 107c10 -3 19 -4 27 -4c32 0 50 17 50 40c0 17 -7 43 -55 112c-31 33 -46 81 -46 145v197h-104v119h104v152l135 42v-194h134v-119z" />
    <glyph glyph-name="uni021B" unicode="&#x21b;" horiz-adv-x="421" 
d="M14 397v119h104v152l135 42v-194h134v-119h-134v-205c0 -50 23 -73 73 -73h61v-119h-61c-142 0 -208 66 -208 200v197h-104zM188 -210l30 169h129l-50 -169h-109z" />
    <glyph glyph-name="u" unicode="u" horiz-adv-x="583" 
d="M49 516h135v-298c0 -63 44 -105 107 -105c62 0 107 42 107 105v298h135v-298c0 -136 -102 -228 -242 -228c-141 0 -242 92 -242 228v298z" />
    <glyph glyph-name="uacute" unicode="&#xfa;" horiz-adv-x="583" 
d="M204 579l105 160h150l-121 -160h-134zM49 516h135v-298c0 -63 44 -105 107 -105c62 0 107 42 107 105v298h135v-298c0 -136 -102 -228 -242 -228c-141 0 -242 92 -242 228v298z" />
    <glyph glyph-name="ubreve" unicode="&#x16d;" horiz-adv-x="583" 
d="M230 738c0 -39 22 -66 61 -66c40 0 62 27 62 66h103c0 -104 -68 -166 -165 -166c-96 0 -164 62 -164 166h103zM49 516h135v-298c0 -63 44 -105 107 -105c62 0 107 42 107 105v298h135v-298c0 -136 -102 -228 -242 -228c-141 0 -242 92 -242 228v298z" />
    <glyph glyph-name="ucircumflex" unicode="&#xfb;" horiz-adv-x="583" 
d="M292 657l-63 -78h-126l113 160h151l113 -160h-126zM398 516h135v-298c0 -136 -102 -228 -242 -228c-141 0 -242 92 -242 228v298h135v-298c0 -63 44 -105 107 -105c62 0 107 42 107 105v298z" />
    <glyph glyph-name="udieresis" unicode="&#xfc;" horiz-adv-x="583" 
d="M98 659c0 42 35 77 78 77c42 0 77 -35 77 -77s-35 -78 -77 -78c-43 0 -78 36 -78 78zM330 659c0 42 35 77 77 77c43 0 78 -35 78 -77s-35 -78 -78 -78c-42 0 -77 36 -77 78zM49 516h135v-298c0 -63 44 -105 107 -105c62 0 107 42 107 105v298h135v-298
c0 -136 -102 -228 -242 -228c-141 0 -242 92 -242 228v298z" />
    <glyph glyph-name="uni1EE5" unicode="&#x1ee5;" horiz-adv-x="583" 
d="M49 516h135v-298c0 -63 44 -105 107 -105c62 0 107 42 107 105v298h135v-298c0 -136 -102 -228 -242 -228c-141 0 -242 92 -242 228v298zM210 -143c0 45 37 81 81 81c45 0 82 -36 82 -81c0 -44 -37 -82 -82 -82c-44 0 -81 38 -81 82z" />
    <glyph glyph-name="ugrave" unicode="&#xf9;" horiz-adv-x="583" 
d="M245 579l-121 160h150l105 -160h-134zM49 516h135v-298c0 -63 44 -105 107 -105c62 0 107 42 107 105v298h135v-298c0 -136 -102 -228 -242 -228c-141 0 -242 92 -242 228v298z" />
    <glyph glyph-name="uni1EE7" unicode="&#x1ee7;" horiz-adv-x="583" 
d="M262 610c44 14 66 35 66 65c0 20 -15 36 -36 36c-28 0 -40 -24 -38 -47h-99c0 76 55 126 137 126c81 0 135 -50 135 -115c0 -59 -45 -112 -135 -133zM49 516h135v-298c0 -63 44 -105 107 -105c62 0 107 42 107 105v298h135v-298c0 -136 -102 -228 -242 -228
c-141 0 -242 92 -242 228v298z" />
    <glyph glyph-name="uhorn" unicode="&#x1b0;" horiz-adv-x="663" 
d="M679 578c0 -85 -56 -141 -146 -159v-201c0 -136 -102 -228 -242 -228c-141 0 -242 92 -242 228v298h135v-298c0 -63 44 -105 107 -105c62 0 107 42 107 105v298h68c60 0 90 27 90 77c0 20 -6 45 -18 73h120c14 -26 21 -58 21 -88z" />
    <glyph glyph-name="uni1EE9" unicode="&#x1ee9;" horiz-adv-x="663" 
d="M459 739l-121 -160h-134l105 160h150zM679 578c0 -85 -56 -141 -146 -159v-201c0 -136 -102 -228 -242 -228c-141 0 -242 92 -242 228v298h135v-298c0 -63 44 -105 107 -105c62 0 107 42 107 105v298h68c60 0 90 27 90 77c0 20 -6 45 -18 73h120c14 -26 21 -58 21 -88z
" />
    <glyph glyph-name="uni1EF1" unicode="&#x1ef1;" horiz-adv-x="663" 
d="M679 578c0 -85 -56 -141 -146 -159v-201c0 -136 -102 -228 -242 -228c-141 0 -242 92 -242 228v298h135v-298c0 -63 44 -105 107 -105c62 0 107 42 107 105v298h68c60 0 90 27 90 77c0 20 -6 45 -18 73h120c14 -26 21 -58 21 -88zM291 -62c45 0 82 -36 82 -81
c0 -44 -37 -82 -82 -82c-44 0 -81 38 -81 82c0 45 37 81 81 81z" />
    <glyph glyph-name="uni1EEB" unicode="&#x1eeb;" horiz-adv-x="663" 
d="M379 579h-134l-121 160h150zM679 578c0 -85 -56 -141 -146 -159v-201c0 -136 -102 -228 -242 -228c-141 0 -242 92 -242 228v298h135v-298c0 -63 44 -105 107 -105c62 0 107 42 107 105v298h68c60 0 90 27 90 77c0 20 -6 45 -18 73h120c14 -26 21 -58 21 -88z" />
    <glyph glyph-name="uni1EED" unicode="&#x1eed;" horiz-adv-x="663" 
d="M292 711c-28 0 -40 -24 -38 -47h-99c0 76 55 126 137 126c81 0 135 -50 135 -115c0 -59 -45 -112 -135 -133l-30 68c44 14 66 35 66 65c0 20 -15 36 -36 36zM679 578c0 -85 -56 -141 -146 -159v-201c0 -136 -102 -228 -242 -228c-141 0 -242 92 -242 228v298h135v-298
c0 -63 44 -105 107 -105c62 0 107 42 107 105v298h68c60 0 90 27 90 77c0 20 -6 45 -18 73h120c14 -26 21 -58 21 -88z" />
    <glyph glyph-name="uni1EEF" unicode="&#x1eef;" horiz-adv-x="663" 
d="M225 632c-22 0 -40 -14 -50 -41l-85 41c16 61 70 106 135 106c74 0 97 -52 134 -52c22 0 39 14 49 41l85 -41c-15 -61 -69 -106 -134 -106c-74 0 -98 52 -134 52zM679 578c0 -85 -56 -141 -146 -159v-201c0 -136 -102 -228 -242 -228c-141 0 -242 92 -242 228v298h135
v-298c0 -63 44 -105 107 -105c62 0 107 42 107 105v298h68c60 0 90 27 90 77c0 20 -6 45 -18 73h120c14 -26 21 -58 21 -88z" />
    <glyph glyph-name="uhungarumlaut" unicode="&#x171;" horiz-adv-x="583" 
d="M116 579l105 160h134l-121 -160h-118zM307 579l105 160h134l-121 -160h-118zM49 516h135v-298c0 -63 44 -105 107 -105c62 0 107 42 107 105v298h135v-298c0 -136 -102 -228 -242 -228c-141 0 -242 92 -242 228v298z" />
    <glyph glyph-name="umacron" unicode="&#x16b;" horiz-adv-x="583" 
d="M133 608v102h316v-102h-316zM49 516h135v-298c0 -63 44 -105 107 -105c62 0 107 42 107 105v298h135v-298c0 -136 -102 -228 -242 -228c-141 0 -242 92 -242 228v298z" />
    <glyph glyph-name="uogonek" unicode="&#x173;" horiz-adv-x="583" 
d="M398 516h135v-298c0 -112 -69 -194 -172 -220c-16 -16 -25 -38 -25 -57c0 -21 12 -38 41 -38c11 0 21 2 34 6l11 -104c-24 -10 -54 -15 -83 -15c-83 0 -132 41 -132 103c0 32 13 66 38 100c-116 18 -196 104 -196 225v298h135v-298c0 -63 44 -105 107 -105
c62 0 107 42 107 105v298z" />
    <glyph glyph-name="uring" unicode="&#x16f;" horiz-adv-x="583" 
d="M163 659c0 65 55 115 129 115c73 0 128 -50 128 -115c0 -66 -55 -115 -128 -115c-74 0 -129 49 -129 115zM247 659c0 -25 20 -44 45 -44s44 19 44 44s-19 44 -44 44s-45 -19 -45 -44zM49 516h135v-298c0 -63 44 -105 107 -105c62 0 107 42 107 105v298h135v-298
c0 -136 -102 -228 -242 -228c-141 0 -242 92 -242 228v298z" />
    <glyph glyph-name="utilde" unicode="&#x169;" horiz-adv-x="583" 
d="M90 632c16 61 70 106 135 106c74 0 97 -52 134 -52c22 0 39 14 49 41l85 -41c-15 -61 -69 -106 -134 -106c-74 0 -98 52 -134 52c-22 0 -40 -14 -50 -41zM49 516h135v-298c0 -63 44 -105 107 -105c62 0 107 42 107 105v298h135v-298c0 -136 -102 -228 -242 -228
c-141 0 -242 92 -242 228v298z" />
    <glyph glyph-name="v" unicode="v" horiz-adv-x="548" 
d="M418 516h136l-204 -516h-152l-204 516h146l139 -380z" />
    <glyph glyph-name="w" unicode="w" horiz-adv-x="847" 
d="M710 516h133l-166 -516h-148l-105 316l-106 -316h-148l-166 516h142l104 -373l109 373h137l109 -372z" />
    <glyph glyph-name="wacute" unicode="&#x1e83;" horiz-adv-x="847" 
d="M591 739l-121 -160h-134l105 160h150zM710 516h133l-166 -516h-148l-105 316l-106 -316h-148l-166 516h142l104 -373l109 373h137l109 -372z" />
    <glyph glyph-name="wcircumflex" unicode="&#x175;" horiz-adv-x="847" 
d="M424 657l-63 -78h-126l113 160h151l113 -160h-126zM710 516h133l-166 -516h-148l-105 316l-106 -316h-148l-166 516h142l104 -373l109 373h137l109 -372z" />
    <glyph glyph-name="wdieresis" unicode="&#x1e85;" horiz-adv-x="847" 
d="M308 581c-43 0 -78 36 -78 78s35 77 78 77c42 0 77 -35 77 -77s-35 -78 -77 -78zM539 581c-42 0 -77 36 -77 78s35 77 77 77c43 0 78 -35 78 -77s-35 -78 -78 -78zM710 516h133l-166 -516h-148l-105 316l-106 -316h-148l-166 516h142l104 -373l109 373h137l109 -372z" />
    <glyph glyph-name="wgrave" unicode="&#x1e81;" horiz-adv-x="847" 
d="M511 579h-134l-121 160h150zM710 516h133l-166 -516h-148l-105 316l-106 -316h-148l-166 516h142l104 -373l109 373h137l109 -372z" />
    <glyph glyph-name="x" unicode="x" horiz-adv-x="560" 
d="M548 516l-187 -255l187 -261h-166l-105 163l-108 -163h-157l187 255l-187 261h166l105 -163l108 163h157z" />
    <glyph glyph-name="y" unicode="y" horiz-adv-x="548" 
d="M417 516h137l-284 -716h-137l72 182l-211 534h146l139 -378z" />
    <glyph glyph-name="yacute" unicode="&#xfd;" horiz-adv-x="548" 
d="M442 739l-121 -160h-134l105 160h150zM417 516h137l-284 -716h-137l72 182l-211 534h146l139 -378z" />
    <glyph glyph-name="ycircumflex" unicode="&#x177;" horiz-adv-x="548" 
d="M275 657l-63 -78h-126l113 160h151l113 -160h-126zM417 516h137l-284 -716h-137l72 182l-211 534h146l139 -378z" />
    <glyph glyph-name="ydieresis" unicode="&#xff;" horiz-adv-x="548" 
d="M159 581c-43 0 -78 36 -78 78s35 77 78 77c42 0 77 -35 77 -77s-35 -78 -77 -78zM390 581c-42 0 -77 36 -77 78s35 77 77 77c43 0 78 -35 78 -77s-35 -78 -78 -78zM417 516h137l-284 -716h-137l72 182l-211 534h146l139 -378z" />
    <glyph glyph-name="uni1EF5" unicode="&#x1ef5;" horiz-adv-x="548" 
d="M417 516h137l-284 -716h-137l72 182l-211 534h146l139 -378zM413 -62c45 0 82 -36 82 -81c0 -44 -37 -82 -82 -82c-44 0 -81 38 -81 82c0 45 37 81 81 81z" />
    <glyph glyph-name="ygrave" unicode="&#x1ef3;" horiz-adv-x="548" 
d="M362 579h-134l-121 160h150zM417 516h137l-284 -716h-137l72 182l-211 534h146l139 -378z" />
    <glyph glyph-name="uni1EF7" unicode="&#x1ef7;" horiz-adv-x="548" 
d="M275 711c-28 0 -40 -24 -38 -47h-99c0 76 55 126 137 126c81 0 135 -50 135 -115c0 -59 -45 -112 -135 -133l-30 68c44 14 66 35 66 65c0 20 -15 36 -36 36zM417 516h137l-284 -716h-137l72 182l-211 534h146l139 -378z" />
    <glyph glyph-name="uni0233" unicode="&#x233;" horiz-adv-x="548" 
d="M432 710v-102h-316v102h316zM417 516h137l-284 -716h-137l72 182l-211 534h146l139 -378z" />
    <glyph glyph-name="uni1EF9" unicode="&#x1ef9;" horiz-adv-x="548" 
d="M207 632c-22 0 -40 -14 -50 -41l-85 41c16 61 70 106 135 106c74 0 97 -52 134 -52c22 0 39 14 49 41l85 -41c-15 -61 -69 -106 -134 -106c-74 0 -98 52 -134 52zM417 516h137l-284 -716h-137l72 182l-211 534h146l139 -378z" />
    <glyph glyph-name="z" unicode="z" horiz-adv-x="534" 
d="M484 516v-111l-261 -286h261v-119h-434v110l261 287h-261v119h434z" />
    <glyph glyph-name="zacute" unicode="&#x17a;" horiz-adv-x="534" 
d="M434 739l-121 -160h-134l105 160h150zM484 516v-111l-261 -286h261v-119h-434v110l261 287h-261v119h434z" />
    <glyph glyph-name="zcaron" unicode="&#x17e;" horiz-adv-x="534" 
d="M342 579h-151l-113 160h126l63 -78l62 78h126zM484 516v-111l-261 -286h261v-119h-434v110l261 287h-261v119h434z" />
    <glyph glyph-name="zdotaccent" unicode="&#x17c;" horiz-adv-x="534" 
d="M266 578c-44 0 -81 37 -81 81c0 45 37 81 81 81c45 0 82 -36 82 -81c0 -44 -37 -81 -82 -81zM484 516v-111l-261 -286h261v-119h-434v110l261 287h-261v119h434z" />
    <glyph glyph-name="uni1EAF.3" horiz-adv-x="635" 
d="M471 940l-112 -148h-123l96 148h139zM315 572c-96 0 -164 62 -164 166h103c0 -39 23 -66 61 -66c40 0 62 27 62 66h103c0 -104 -68 -166 -165 -166zM446 516h135v-516h-135v61c-40 -44 -96 -71 -164 -71c-141 0 -248 116 -248 268s107 268 248 268c68 0 124 -27 164 -71
v61zM310 113c78 0 136 62 136 145c0 82 -58 144 -136 144c-77 0 -136 -62 -136 -144c0 -83 59 -145 136 -145z" />
    <glyph glyph-name="iacute_j.loclNLD" horiz-adv-x="507" 
d="M34 579l105 160h150l-121 -160h-134zM298 579l105 160h150l-121 -160h-134zM54 0v516h135v-516h-135zM229 -90c74 -1 88 19 88 90v516h135v-516c0 -124 -51 -218 -223 -209v119z" />
    <glyph glyph-name="a.ss03" horiz-adv-x="635" 
d="M446 516h135v-516h-135v61c-40 -44 -96 -71 -164 -71c-141 0 -248 116 -248 268s107 268 248 268c68 0 124 -27 164 -71v61zM310 113c78 0 136 62 136 145c0 82 -58 144 -136 144c-77 0 -136 -62 -136 -144c0 -83 59 -145 136 -145z" />
    <glyph glyph-name="aacute.ss03" horiz-adv-x="635" 
d="M483 739l-121 -160h-134l105 160h150zM446 516h135v-516h-135v61c-40 -44 -96 -71 -164 -71c-141 0 -248 116 -248 268s107 268 248 268c68 0 124 -27 164 -71v61zM310 113c78 0 136 62 136 145c0 82 -58 144 -136 144c-77 0 -136 -62 -136 -144c0 -83 59 -145 136 -145z
" />
    <glyph glyph-name="abreve.ss03" horiz-adv-x="635" 
d="M315 572c-96 0 -164 62 -164 166h103c0 -39 23 -66 61 -66c40 0 62 27 62 66h103c0 -104 -68 -166 -165 -166zM446 516h135v-516h-135v61c-40 -44 -96 -71 -164 -71c-141 0 -248 116 -248 268s107 268 248 268c68 0 124 -27 164 -71v61zM310 113c78 0 136 62 136 145
c0 82 -58 144 -136 144c-77 0 -136 -62 -136 -144c0 -83 59 -145 136 -145z" />
    <glyph glyph-name="uni1EB7.ss03" horiz-adv-x="635" 
d="M315 572c-96 0 -164 62 -164 166h103c0 -39 23 -66 61 -66c40 0 62 27 62 66h103c0 -104 -68 -166 -165 -166zM446 516h135v-516h-135v61c-40 -44 -96 -71 -164 -71c-141 0 -248 116 -248 268s107 268 248 268c68 0 124 -27 164 -71v61zM310 113c78 0 136 62 136 145
c0 82 -58 144 -136 144c-77 0 -136 -62 -136 -144c0 -83 59 -145 136 -145zM315 -62c45 0 82 -36 82 -81c0 -44 -37 -82 -82 -82c-44 0 -81 38 -81 82c0 45 37 81 81 81z" />
    <glyph glyph-name="uni1EB1.ss03" horiz-adv-x="635" 
d="M397 792h-124l-111 148h138zM315 572c-96 0 -164 62 -164 166h103c0 -39 23 -66 61 -66c40 0 62 27 62 66h103c0 -104 -68 -166 -165 -166zM446 516h135v-516h-135v61c-40 -44 -96 -71 -164 -71c-141 0 -248 116 -248 268s107 268 248 268c68 0 124 -27 164 -71v61z
M310 113c78 0 136 62 136 145c0 82 -58 144 -136 144c-77 0 -136 -62 -136 -144c0 -83 59 -145 136 -145z" />
    <glyph glyph-name="uni1EB3.ss03" horiz-adv-x="635" 
d="M316 894c-25 0 -36 -23 -34 -44h-91c0 70 51 116 125 116c75 0 125 -46 125 -106c0 -54 -41 -102 -125 -122l-27 63c40 13 61 32 61 59c0 19 -14 34 -34 34zM315 572c-96 0 -164 62 -164 166h103c0 -39 23 -66 61 -66c40 0 62 27 62 66h103c0 -104 -68 -166 -165 -166z
M446 516h135v-516h-135v61c-40 -44 -96 -71 -164 -71c-141 0 -248 116 -248 268s107 268 248 268c68 0 124 -27 164 -71v61zM310 113c78 0 136 62 136 145c0 82 -58 144 -136 144c-77 0 -136 -62 -136 -144c0 -83 59 -145 136 -145z" />
    <glyph glyph-name="uni1EB5.ss03" horiz-adv-x="635" 
d="M254 841c-20 0 -36 -13 -45 -38l-79 38c15 56 64 97 124 97c69 0 90 -47 124 -47c20 0 36 13 45 38l79 -38c-15 -56 -64 -97 -124 -97c-69 0 -90 47 -124 47zM315 672c40 0 62 27 62 66h103c0 -104 -68 -166 -165 -166c-96 0 -164 62 -164 166h103c0 -39 23 -66 61 -66z
M446 516h135v-516h-135v61c-40 -44 -96 -71 -164 -71c-141 0 -248 116 -248 268s107 268 248 268c68 0 124 -27 164 -71v61zM310 113c78 0 136 62 136 145c0 82 -58 144 -136 144c-77 0 -136 -62 -136 -144c0 -83 59 -145 136 -145z" />
    <glyph glyph-name="acircumflex.ss03" horiz-adv-x="635" 
d="M316 657l-63 -78h-126l113 160h151l113 -160h-126zM446 516h135v-516h-135v61c-40 -44 -96 -71 -164 -71c-141 0 -248 116 -248 268s107 268 248 268c68 0 124 -27 164 -71v61zM310 113c78 0 136 62 136 145c0 82 -58 144 -136 144c-77 0 -136 -62 -136 -144
c0 -83 59 -145 136 -145z" />
    <glyph glyph-name="uni1EA5.ss03" horiz-adv-x="635" 
d="M677 895l-111 -148h-124l97 148h138zM316 657l-63 -78h-126l113 160h151l113 -160h-126zM446 516h135v-516h-135v61c-40 -44 -96 -71 -164 -71c-141 0 -248 116 -248 268s107 268 248 268c68 0 124 -27 164 -71v61zM310 113c78 0 136 62 136 145c0 82 -58 144 -136 144
c-77 0 -136 -62 -136 -144c0 -83 59 -145 136 -145z" />
    <glyph glyph-name="uni1EAD.ss03" horiz-adv-x="635" 
d="M316 657l-63 -78h-126l113 160h151l113 -160h-126zM446 516h135v-516h-135v61c-40 -44 -96 -71 -164 -71c-141 0 -248 116 -248 268s107 268 248 268c68 0 124 -27 164 -71v61zM310 113c78 0 136 62 136 145c0 82 -58 144 -136 144c-77 0 -136 -62 -136 -144
c0 -83 59 -145 136 -145zM315 -62c45 0 82 -36 82 -81c0 -44 -37 -82 -82 -82c-44 0 -81 38 -81 82c0 45 37 81 81 81z" />
    <glyph glyph-name="uni1EA7.ss03" horiz-adv-x="635" 
d="M603 747h-123l-111 148h138zM316 657l-63 -78h-126l113 160h151l113 -160h-126zM446 516h135v-516h-135v61c-40 -44 -96 -71 -164 -71c-141 0 -248 116 -248 268s107 268 248 268c68 0 124 -27 164 -71v61zM310 113c78 0 136 62 136 145c0 82 -58 144 -136 144
c-77 0 -136 -62 -136 -144c0 -83 59 -145 136 -145z" />
    <glyph glyph-name="uni1EA9.ss03" horiz-adv-x="635" 
d="M491 941c75 0 125 -45 125 -105c0 -54 -41 -103 -125 -123l-27 63c40 13 60 32 60 60c0 19 -13 33 -33 33c-25 0 -36 -22 -34 -44h-92c0 71 52 116 126 116zM316 657l-63 -78h-126l113 160h151l113 -160h-126zM446 516h135v-516h-135v61c-40 -44 -96 -71 -164 -71
c-141 0 -248 116 -248 268s107 268 248 268c68 0 124 -27 164 -71v61zM310 113c78 0 136 62 136 145c0 82 -58 144 -136 144c-77 0 -136 -62 -136 -144c0 -83 59 -145 136 -145z" />
    <glyph glyph-name="uni1EAB.ss03" horiz-adv-x="635" 
d="M254 842c-20 0 -36 -13 -45 -38l-79 38c15 56 64 97 124 97c69 0 90 -47 124 -47c20 0 36 13 45 38l79 -38c-15 -56 -64 -97 -124 -97c-68 0 -90 47 -124 47zM316 657l-63 -78h-126l113 160h151l113 -160h-126zM446 516h135v-516h-135v61c-40 -44 -96 -71 -164 -71
c-141 0 -248 116 -248 268s107 268 248 268c68 0 124 -27 164 -71v61zM310 113c78 0 136 62 136 145c0 82 -58 144 -136 144c-77 0 -136 -62 -136 -144c0 -83 59 -145 136 -145z" />
    <glyph glyph-name="adieresis.ss03" horiz-adv-x="635" 
d="M200 581c-43 0 -78 36 -78 78s35 77 78 77c42 0 77 -35 77 -77s-35 -78 -77 -78zM431 581c-42 0 -77 36 -77 78s35 77 77 77c43 0 78 -35 78 -77s-35 -78 -78 -78zM446 516h135v-516h-135v61c-40 -44 -96 -71 -164 -71c-141 0 -248 116 -248 268s107 268 248 268
c68 0 124 -27 164 -71v61zM310 113c78 0 136 62 136 145c0 82 -58 144 -136 144c-77 0 -136 -62 -136 -144c0 -83 59 -145 136 -145z" />
    <glyph glyph-name="uni1EA1.ss03" horiz-adv-x="635" 
d="M446 516h135v-516h-135v61c-40 -44 -96 -71 -164 -71c-141 0 -248 116 -248 268s107 268 248 268c68 0 124 -27 164 -71v61zM310 113c78 0 136 62 136 145c0 82 -58 144 -136 144c-77 0 -136 -62 -136 -144c0 -83 59 -145 136 -145zM315 -62c45 0 82 -36 82 -81
c0 -44 -37 -82 -82 -82c-44 0 -81 38 -81 82c0 45 37 81 81 81z" />
    <glyph glyph-name="agrave.ss03" horiz-adv-x="635" 
d="M403 579h-134l-121 160h150zM446 516h135v-516h-135v61c-40 -44 -96 -71 -164 -71c-141 0 -248 116 -248 268s107 268 248 268c68 0 124 -27 164 -71v61zM310 113c78 0 136 62 136 145c0 82 -58 144 -136 144c-77 0 -136 -62 -136 -144c0 -83 59 -145 136 -145z" />
    <glyph glyph-name="uni1EA3.ss03" horiz-adv-x="635" 
d="M316 711c-28 0 -40 -24 -38 -47h-99c0 76 55 126 137 126c81 0 135 -50 135 -115c0 -59 -45 -112 -135 -133l-30 68c44 14 66 35 66 65c0 20 -15 36 -36 36zM446 516h135v-516h-135v61c-40 -44 -96 -71 -164 -71c-141 0 -248 116 -248 268s107 268 248 268
c68 0 124 -27 164 -71v61zM310 113c78 0 136 62 136 145c0 82 -58 144 -136 144c-77 0 -136 -62 -136 -144c0 -83 59 -145 136 -145z" />
    <glyph glyph-name="amacron.ss03" horiz-adv-x="635" 
d="M474 710v-102h-316v102h316zM446 516h135v-516h-135v61c-40 -44 -96 -71 -164 -71c-141 0 -248 116 -248 268s107 268 248 268c68 0 124 -27 164 -71v61zM310 113c78 0 136 62 136 145c0 82 -58 144 -136 144c-77 0 -136 -62 -136 -144c0 -83 59 -145 136 -145z" />
    <glyph glyph-name="aogonek.ss03" horiz-adv-x="635" 
d="M640 -195c-24 -10 -54 -15 -83 -15c-83 0 -132 41 -132 103c0 34 14 71 43 107h-22v61c-40 -44 -96 -71 -164 -71c-141 0 -248 116 -248 268s107 268 248 268c68 0 124 -27 164 -71v61h135v-516c-17 -16 -27 -39 -27 -59c0 -21 12 -38 41 -38c11 0 21 2 34 6zM310 113
c78 0 136 62 136 145c0 82 -58 144 -136 144c-77 0 -136 -62 -136 -144c0 -83 59 -145 136 -145z" />
    <glyph glyph-name="aring.ss03" horiz-adv-x="635" 
d="M316 544c-74 0 -129 49 -129 115c0 65 55 115 129 115c73 0 128 -50 128 -115c0 -66 -55 -115 -128 -115zM316 703c-25 0 -45 -19 -45 -44s20 -44 45 -44s44 19 44 44s-19 44 -44 44zM446 516h135v-516h-135v61c-40 -44 -96 -71 -164 -71c-141 0 -248 116 -248 268
s107 268 248 268c68 0 124 -27 164 -71v61zM310 113c78 0 136 62 136 145c0 82 -58 144 -136 144c-77 0 -136 -62 -136 -144c0 -83 59 -145 136 -145z" />
    <glyph glyph-name="atilde.ss03" horiz-adv-x="635" 
d="M249 632c-22 0 -40 -14 -50 -41l-85 41c16 61 70 106 135 106c74 0 97 -52 134 -52c22 0 39 14 49 41l85 -41c-15 -61 -69 -106 -134 -106c-74 0 -98 52 -134 52zM446 516h135v-516h-135v61c-40 -44 -96 -71 -164 -71c-141 0 -248 116 -248 268s107 268 248 268
c68 0 124 -27 164 -71v61zM310 113c78 0 136 62 136 145c0 82 -58 144 -136 144c-77 0 -136 -62 -136 -144c0 -83 59 -145 136 -145z" />
    <glyph glyph-name="ae.ss03" horiz-adv-x="1023" 
d="M734 526c163 0 277 -144 251 -316h-398c18 -61 70 -104 140 -104c56 0 103 27 129 72l110 -50c-42 -81 -121 -138 -227 -138c-68 0 -129 25 -174 66v-56h-119v61c-40 -44 -96 -71 -164 -71c-141 0 -248 116 -248 268s107 268 248 268c68 0 124 -27 164 -71v61h119v-55
c44 41 103 65 169 65zM719 410c-62 0 -111 -39 -130 -97h260c-18 58 -66 97 -130 97zM310 113c78 0 136 62 136 145c0 82 -58 144 -136 144c-77 0 -136 -62 -136 -144c0 -83 59 -145 136 -145z" />
    <glyph glyph-name="aeacute.ss03" horiz-adv-x="1023" 
d="M673 739l-121 -160h-134l105 160h150zM734 526c163 0 277 -144 251 -316h-398c18 -61 70 -104 140 -104c56 0 103 27 129 72l110 -50c-42 -81 -121 -138 -227 -138c-68 0 -129 25 -174 66v-56h-119v61c-40 -44 -96 -71 -164 -71c-141 0 -248 116 -248 268
s107 268 248 268c68 0 124 -27 164 -71v61h119v-55c44 41 103 65 169 65zM719 410c-62 0 -111 -39 -130 -97h260c-18 58 -66 97 -130 97zM310 113c78 0 136 62 136 145c0 82 -58 144 -136 144c-77 0 -136 -62 -136 -144c0 -83 59 -145 136 -145z" />
    <glyph glyph-name="g.ss04" horiz-adv-x="577" 
d="M551 516v-119h-57c5 -13 7 -28 7 -44c0 -103 -98 -173 -232 -173c-8 0 -15 0 -23 1c-19 -24 -10 -53 29 -53h88c112 0 177 -57 177 -140c0 -97 -90 -198 -289 -198c-160 0 -223 69 -223 138c0 48 34 94 105 118c-43 45 -43 111 13 158c-66 29 -108 82 -108 149
c0 103 99 173 231 173c30 0 59 -3 84 -10h198zM269 287c60 0 96 27 96 66s-36 65 -96 65c-59 0 -95 -26 -95 -65s36 -66 95 -66zM258 1c-9 0 -18 1 -27 2c-39 -15 -52 -36 -52 -59c0 -33 30 -55 92 -55c75 0 122 28 122 69c0 28 -24 43 -68 43h-67z" />
    <glyph glyph-name="uni01F5.ss04" horiz-adv-x="577" 
d="M437 739l-121 -160h-134l105 160h150zM551 516v-119h-57c5 -13 7 -28 7 -44c0 -103 -98 -173 -232 -173c-8 0 -15 0 -23 1c-19 -24 -10 -53 29 -53h88c112 0 177 -57 177 -140c0 -97 -90 -198 -289 -198c-160 0 -223 69 -223 138c0 48 34 94 105 118
c-43 45 -43 111 13 158c-66 29 -108 82 -108 149c0 103 99 173 231 173c30 0 59 -3 84 -10h198zM269 287c60 0 96 27 96 66s-36 65 -96 65c-59 0 -95 -26 -95 -65s36 -66 95 -66zM258 1c-9 0 -18 1 -27 2c-39 -15 -52 -36 -52 -59c0 -33 30 -55 92 -55c75 0 122 28 122 69
c0 28 -24 43 -68 43h-67z" />
    <glyph glyph-name="gbreve.ss04" horiz-adv-x="577" 
d="M269 572c-96 0 -164 62 -164 166h103c0 -39 22 -66 61 -66c40 0 62 27 62 66h103c0 -104 -68 -166 -165 -166zM551 516v-119h-57c5 -13 7 -28 7 -44c0 -103 -98 -173 -232 -173c-8 0 -15 0 -23 1c-19 -24 -10 -53 29 -53h88c112 0 177 -57 177 -140
c0 -97 -90 -198 -289 -198c-160 0 -223 69 -223 138c0 48 34 94 105 118c-43 45 -43 111 13 158c-66 29 -108 82 -108 149c0 103 99 173 231 173c30 0 59 -3 84 -10h198zM269 287c60 0 96 27 96 66s-36 65 -96 65c-59 0 -95 -26 -95 -65s36 -66 95 -66zM258 1
c-9 0 -18 1 -27 2c-39 -15 -52 -36 -52 -59c0 -33 30 -55 92 -55c75 0 122 28 122 69c0 28 -24 43 -68 43h-67z" />
    <glyph glyph-name="gcaron.ss04" horiz-adv-x="577" 
d="M345 579h-151l-113 160h126l63 -78l62 78h126zM551 516v-119h-57c5 -13 7 -28 7 -44c0 -103 -98 -173 -232 -173c-8 0 -15 0 -23 1c-19 -24 -10 -53 29 -53h88c112 0 177 -57 177 -140c0 -97 -90 -198 -289 -198c-160 0 -223 69 -223 138c0 48 34 94 105 118
c-43 45 -43 111 13 158c-66 29 -108 82 -108 149c0 103 99 173 231 173c30 0 59 -3 84 -10h198zM269 287c60 0 96 27 96 66s-36 65 -96 65c-59 0 -95 -26 -95 -65s36 -66 95 -66zM258 1c-9 0 -18 1 -27 2c-39 -15 -52 -36 -52 -59c0 -33 30 -55 92 -55c75 0 122 28 122 69
c0 28 -24 43 -68 43h-67z" />
    <glyph glyph-name="gcircumflex.ss04" horiz-adv-x="577" 
d="M270 657l-63 -78h-126l113 160h151l113 -160h-126zM551 516v-119h-57c5 -13 7 -28 7 -44c0 -103 -98 -173 -232 -173c-8 0 -15 0 -23 1c-19 -24 -10 -53 29 -53h88c112 0 177 -57 177 -140c0 -97 -90 -198 -289 -198c-160 0 -223 69 -223 138c0 48 34 94 105 118
c-43 45 -43 111 13 158c-66 29 -108 82 -108 149c0 103 99 173 231 173c30 0 59 -3 84 -10h198zM269 287c60 0 96 27 96 66s-36 65 -96 65c-59 0 -95 -26 -95 -65s36 -66 95 -66zM258 1c-9 0 -18 1 -27 2c-39 -15 -52 -36 -52 -59c0 -33 30 -55 92 -55c75 0 122 28 122 69
c0 28 -24 43 -68 43h-67z" />
    <glyph glyph-name="uni0123.ss04" horiz-adv-x="577" 
d="M349 740l-30 -169h-129l50 169h109zM551 516v-119h-57c5 -13 7 -28 7 -44c0 -103 -98 -173 -232 -173c-8 0 -15 0 -23 1c-19 -24 -10 -53 29 -53h88c112 0 177 -57 177 -140c0 -97 -90 -198 -289 -198c-160 0 -223 69 -223 138c0 48 34 94 105 118c-43 45 -43 111 13 158
c-66 29 -108 82 -108 149c0 103 99 173 231 173c30 0 59 -3 84 -10h198zM269 287c60 0 96 27 96 66s-36 65 -96 65c-59 0 -95 -26 -95 -65s36 -66 95 -66zM258 1c-9 0 -18 1 -27 2c-39 -15 -52 -36 -52 -59c0 -33 30 -55 92 -55c75 0 122 28 122 69c0 28 -24 43 -68 43h-67z
" />
    <glyph glyph-name="gdotaccent.ss04" horiz-adv-x="577" 
d="M269 578c-44 0 -81 37 -81 81c0 45 37 81 81 81c45 0 82 -36 82 -81c0 -44 -37 -81 -82 -81zM551 516v-119h-57c5 -13 7 -28 7 -44c0 -103 -98 -173 -232 -173c-8 0 -15 0 -23 1c-19 -24 -10 -53 29 -53h88c112 0 177 -57 177 -140c0 -97 -90 -198 -289 -198
c-160 0 -223 69 -223 138c0 48 34 94 105 118c-43 45 -43 111 13 158c-66 29 -108 82 -108 149c0 103 99 173 231 173c30 0 59 -3 84 -10h198zM269 287c60 0 96 27 96 66s-36 65 -96 65c-59 0 -95 -26 -95 -65s36 -66 95 -66zM258 1c-9 0 -18 1 -27 2
c-39 -15 -52 -36 -52 -59c0 -33 30 -55 92 -55c75 0 122 28 122 69c0 28 -24 43 -68 43h-67z" />
    <glyph glyph-name="y.ss05" horiz-adv-x="608" 
d="M418 516h135v-462c0 -152 -116 -264 -269 -264c-107 0 -191 57 -234 139l121 64c23 -50 61 -80 113 -80c75 0 134 57 134 141v28c-36 -47 -93 -76 -162 -76c-129 0 -207 87 -207 213v297h135v-273c0 -69 38 -114 111 -114c74 0 123 47 123 114v273z" />
    <glyph glyph-name="yacute.ss05" horiz-adv-x="608" 
d="M469 739l-121 -160h-134l105 160h150zM418 516h135v-462c0 -152 -116 -264 -269 -264c-107 0 -191 57 -234 139l121 64c23 -50 61 -80 113 -80c75 0 134 57 134 141v28c-36 -47 -93 -76 -162 -76c-129 0 -207 87 -207 213v297h135v-273c0 -69 38 -114 111 -114
c74 0 123 47 123 114v273z" />
    <glyph glyph-name="ycircumflex.ss05" horiz-adv-x="608" 
d="M302 657l-63 -78h-126l113 160h151l113 -160h-126zM418 516h135v-462c0 -152 -116 -264 -269 -264c-107 0 -191 57 -234 139l121 64c23 -50 61 -80 113 -80c75 0 134 57 134 141v28c-36 -47 -93 -76 -162 -76c-129 0 -207 87 -207 213v297h135v-273
c0 -69 38 -114 111 -114c74 0 123 47 123 114v273z" />
    <glyph glyph-name="ydieresis.ss05" horiz-adv-x="608" 
d="M186 581c-43 0 -78 36 -78 78s35 77 78 77c42 0 77 -35 77 -77s-35 -78 -77 -78zM417 581c-42 0 -77 36 -77 78s35 77 77 77c43 0 78 -35 78 -77s-35 -78 -78 -78zM418 516h135v-462c0 -152 -116 -264 -269 -264c-107 0 -191 57 -234 139l121 64c23 -50 61 -80 113 -80
c75 0 134 57 134 141v28c-36 -47 -93 -76 -162 -76c-129 0 -207 87 -207 213v297h135v-273c0 -69 38 -114 111 -114c74 0 123 47 123 114v273z" />
    <glyph glyph-name="uni1EF5.ss05" horiz-adv-x="608" 
d="M418 516h135v-462c0 -118 -70 -212 -172 -248c4 -9 6 -20 6 -31c0 -44 -37 -82 -82 -82c-44 0 -81 38 -81 82c0 7 1 14 3 21c-80 16 -142 66 -177 133l121 64c23 -50 61 -80 113 -80c75 0 134 57 134 141v28c-36 -47 -93 -76 -162 -76c-129 0 -207 87 -207 213v297h135
v-273c0 -69 38 -114 111 -114c74 0 123 47 123 114v273z" />
    <glyph glyph-name="ygrave.ss05" horiz-adv-x="608" 
d="M389 579h-134l-121 160h150zM418 516h135v-462c0 -152 -116 -264 -269 -264c-107 0 -191 57 -234 139l121 64c23 -50 61 -80 113 -80c75 0 134 57 134 141v28c-36 -47 -93 -76 -162 -76c-129 0 -207 87 -207 213v297h135v-273c0 -69 38 -114 111 -114
c74 0 123 47 123 114v273z" />
    <glyph glyph-name="uni1EF7.ss05" horiz-adv-x="608" 
d="M302 711c-28 0 -40 -24 -38 -47h-99c0 76 55 126 137 126c81 0 135 -50 135 -115c0 -59 -45 -112 -135 -133l-30 68c44 14 66 35 66 65c0 20 -15 36 -36 36zM418 516h135v-462c0 -152 -116 -264 -269 -264c-107 0 -191 57 -234 139l121 64c23 -50 61 -80 113 -80
c75 0 134 57 134 141v28c-36 -47 -93 -76 -162 -76c-129 0 -207 87 -207 213v297h135v-273c0 -69 38 -114 111 -114c74 0 123 47 123 114v273z" />
    <glyph glyph-name="uni1EF9.ss05" horiz-adv-x="608" 
d="M235 632c-22 0 -40 -14 -50 -41l-85 41c16 61 70 106 135 106c74 0 97 -52 134 -52c22 0 39 14 49 41l85 -41c-15 -61 -69 -106 -134 -106c-74 0 -98 52 -134 52zM418 516h135v-462c0 -152 -116 -264 -269 -264c-107 0 -191 57 -234 139l121 64c23 -50 61 -80 113 -80
c75 0 134 57 134 141v28c-36 -47 -93 -76 -162 -76c-129 0 -207 87 -207 213v297h135v-273c0 -69 38 -114 111 -114c74 0 123 47 123 114v273z" />
    <glyph glyph-name="f_b" horiz-adv-x="1040" 
d="M758 526c141 0 248 -116 248 -268s-107 -268 -248 -268c-68 0 -124 27 -164 71v-61h-135v397h-206v-397h-135v397h-104v119h104v24c0 134 66 200 208 200h61v-119h-61c-50 0 -73 -23 -73 -73v-32h206v224h135v-285c40 44 96 71 164 71zM730 113c78 0 136 62 136 145
c0 82 -58 144 -136 144c-77 0 -136 -62 -136 -144c0 -83 59 -145 136 -145z" />
    <glyph glyph-name="f_f_b" horiz-adv-x="1381" 
d="M1099 526c141 0 248 -116 248 -268s-107 -268 -248 -268c-68 0 -124 27 -164 71v-61h-135v397h-206v-397h-135v397h-206v-397h-135v397h-104v119h104v24c0 134 66 200 208 200h61v-119h-61c-50 0 -73 -23 -73 -73v-32h206v24c0 134 66 200 208 200h61v-119h-61
c-50 0 -73 -23 -73 -73v-32h206v224h135v-285c40 44 96 71 164 71zM1071 113c78 0 136 62 136 145c0 82 -58 144 -136 144c-77 0 -136 -62 -136 -144c0 -83 59 -145 136 -145z" />
    <glyph glyph-name="f_f_h" horiz-adv-x="1353" 
d="M1096 526c124 0 208 -90 208 -213v-313h-135v289c0 67 -48 114 -117 114c-67 0 -117 -47 -117 -114v-289h-135v397h-206v-397h-135v397h-206v-397h-135v397h-104v119h104v24c0 134 66 200 208 200h61v-119h-61c-50 0 -73 -23 -73 -73v-32h206v24c0 134 66 200 208 200h61
v-119h-61c-50 0 -73 -23 -73 -73v-32h206v224h135v-291c36 47 93 77 161 77z" />
    <glyph glyph-name="f_f_j" horiz-adv-x="989" 
d="M935 516v-516c0 -124 -51 -218 -223 -209v119c74 -1 88 19 88 90v397h-206v-397h-135v397h-206v-397h-135v397h-104v119h104v24c0 134 66 200 208 200h61v-119h-61c-50 0 -73 -23 -73 -73v-32h206v24c0 134 66 200 208 200h61v-119h-61c-50 0 -73 -23 -73 -73v-32h341z
M868 578c-45 0 -82 37 -82 81c0 45 37 81 82 81c44 0 81 -36 81 -81c0 -44 -37 -81 -81 -81z" />
    <glyph glyph-name="f_f_k" horiz-adv-x="1318" 
d="M1324 0h-171l-153 197l-65 -71v-126h-135v397h-206v-397h-135v397h-206v-397h-135v397h-104v119h104v24c0 134 66 200 208 200h61v-119h-61c-50 0 -73 -23 -73 -73v-32h206v24c0 134 66 200 208 200h61v-119h-61c-50 0 -73 -23 -73 -73v-32h206v224h135v-434l185 210h170
l-199 -218z" />
    <glyph glyph-name="f_f_t" horiz-adv-x="1103" 
d="M118 0v397h-104v119h104v24c0 134 66 200 208 200h61v-119h-61c-50 0 -73 -23 -73 -73v-32h206v24c0 134 66 200 208 200h61v-119h-61c-50 0 -73 -23 -73 -73v-32h206v152l135 42v-194h133v-119h-133v-205c0 -50 23 -73 73 -73h60v-119h-60c-142 0 -208 66 -208 200v197
h-206v-397h-135v397h-206v-397h-135z" />
    <glyph glyph-name="f_h" horiz-adv-x="1013" 
d="M755 526c124 0 208 -90 208 -213v-313h-135v289c0 67 -48 114 -117 114c-67 0 -117 -47 -117 -114v-289h-135v397h-206v-397h-135v397h-104v119h104v24c0 134 66 200 208 200h61v-119h-61c-50 0 -73 -23 -73 -73v-32h206v224h135v-291c36 47 93 77 161 77z" />
    <glyph glyph-name="f_hbar" horiz-adv-x="1013" 
d="M755 526c124 0 208 -90 208 -213v-313h-135v289c0 67 -48 114 -117 114c-67 0 -117 -47 -117 -114v-289h-135v397h-206v-397h-135v397h-104v119h104v24c0 134 66 200 208 200h41v-119h-41c-50 0 -73 -23 -73 -73v-32h206v42h-56v102h56v80h135v-80h125v-102h-125v-109
c36 47 93 77 161 77z" />
    <glyph glyph-name="f_iacute" horiz-adv-x="648" 
d="M594 516v-516h-135v397h-206v-397h-135v397h-104v119h104v24c0 134 66 200 208 200h61v-119h-61c-50 0 -73 -23 -73 -73v-32h341zM694 739l-121 -160h-134l105 160h150z" />
    <glyph glyph-name="f_imacron" horiz-adv-x="648" 
d="M594 516v-516h-135v397h-206v-397h-135v397h-104v119h104v24c0 134 66 200 208 200h33v-119h-33c-50 0 -73 -23 -73 -73v-32h341zM393 710h267v-102h-267v102z" />
    <glyph glyph-name="f_j" horiz-adv-x="648" 
d="M594 516v-516c0 -124 -51 -218 -223 -209v119c74 -1 88 19 88 90v397h-206v-397h-135v397h-104v119h104v24c0 134 66 200 208 200h61v-119h-61c-50 0 -73 -23 -73 -73v-32h341zM527 578c-45 0 -82 37 -82 81c0 45 37 81 82 81c44 0 81 -36 81 -81c0 -44 -37 -81 -81 -81z
" />
    <glyph glyph-name="f_k" horiz-adv-x="977" 
d="M983 0h-170l-154 197l-65 -71v-126h-135v397h-206v-397h-135v397h-104v119h104v24c0 134 66 200 208 200h61v-119h-61c-50 0 -73 -23 -73 -73v-32h206v224h135v-434l185 210h170l-198 -218z" />
    <glyph glyph-name="f_lcaron" horiz-adv-x="648" 
d="M668 768h122l-50 -193h-102zM459 516v224h135v-740h-135v397h-206v-397h-135v397h-104v119h104v24c0 134 66 200 208 200h61v-119h-61c-50 0 -73 -23 -73 -73v-32h206z" />
    <glyph glyph-name="f_t" horiz-adv-x="758" 
d="M723 397h-133v-205c0 -50 23 -73 73 -73h60v-119h-60c-142 0 -208 66 -208 200v197h-202v-397h-135v397h-104v119h104v24c0 134 66 200 208 200h61v-119h-61c-50 0 -73 -23 -73 -73v-32h202v152l135 42v-194h133v-119z" />
    <glyph glyph-name="idieresis_idieresis" horiz-adv-x="487" 
d="M-47 659c0 43 35 78 78 78c42 0 78 -35 78 -78c0 -42 -36 -78 -78 -78c-43 0 -78 36 -78 78zM166 659c0 43 35 78 78 78s78 -35 78 -78c0 -42 -35 -78 -78 -78s-78 36 -78 78zM380 659c0 43 35 78 78 78s78 -35 78 -78c0 -42 -35 -78 -78 -78s-78 36 -78 78zM54 0v516
h135v-516h-135zM297 0v516h135v-516h-135z" />
    <glyph glyph-name="t_t" horiz-adv-x="798" 
d="M14 397v119h104v152l135 42v-194h242v152l135 42v-194h133v-119h-133v-205c0 -50 23 -73 73 -73h60v-119h-60c-142 0 -208 66 -208 200v197h-242v-205c0 -50 23 -73 73 -73h61v-119h-61c-142 0 -208 66 -208 200v197h-104z" />
    <glyph glyph-name="tcaron_t" horiz-adv-x="798" 
d="M298 575l30 193h121l-50 -193h-101zM14 397v119h104v152l135 42v-194h242v152l135 42v-194h133v-119h-133v-205c0 -50 23 -73 73 -73h60v-119h-60c-142 0 -208 66 -208 200v197h-242v-205c0 -50 23 -73 73 -73h61v-119h-61c-142 0 -208 66 -208 200v197h-104z" />
    <glyph glyph-name="w_w_w" horiz-adv-x="1895" 
d="M1758 516h133l-166 -516h-148l-105 315l-105 -315h-149l-97 315l-97 -315h-152l-97 317l-98 -317h-148l-105 316l-106 -316h-148l-166 516h142l104 -373l109 373h137l109 -372l105 372h137l105 -370l105 370h137l105 -372l108 372h137l109 -372z" />
    <glyph glyph-name="ordfeminine" unicode="&#xaa;" horiz-adv-x="390" 
d="M189 707c92 0 162 -45 162 -146v-224h-112v34c-25 -24 -64 -41 -109 -41c-64 0 -116 41 -116 106c0 78 61 114 146 120l50 4c20 2 29 9 29 25c0 19 -18 34 -47 34c-31 0 -53 -19 -57 -48l-110 23c7 62 68 113 164 113zM163 417c38 0 76 33 76 70v5c-9 -5 -18 -7 -26 -8
l-53 -7c-21 -3 -34 -14 -34 -31s13 -29 37 -29z" />
    <glyph glyph-name="ordmasculine" unicode="&#xba;" horiz-adv-x="440" 
d="M24 518c0 107 85 189 196 189s196 -82 196 -189c0 -106 -85 -188 -196 -188s-196 82 -196 188zM140 518c0 -49 34 -87 80 -87c45 0 80 38 80 87c0 50 -35 88 -80 88c-46 0 -80 -38 -80 -88z" />
    <glyph glyph-name="ordfeminine.ss03" horiz-adv-x="455" 
d="M300 700h111v-363h-111v35c-26 -26 -62 -42 -105 -42c-97 0 -171 82 -171 188c0 107 74 189 171 189c43 0 79 -16 105 -42v35zM220 431c45 0 80 38 80 87c0 50 -35 88 -80 88c-46 0 -80 -38 -80 -88c0 -49 34 -87 80 -87z" />
    <glyph glyph-name="uni0410" unicode="&#x410;" horiz-adv-x="734" 
d="M577 0l-60 152h-308l-60 -152h-145l284 700h158l284 -700h-153zM259 279h208l-104 262z" />
    <glyph glyph-name="uni0411" unicode="&#x411;" horiz-adv-x="639" 
d="M54 0v700h474v-127h-331v-140h157c152 0 245 -90 245 -214c0 -125 -93 -219 -245 -219h-300zM197 127h157c62 0 98 38 98 90c0 51 -36 90 -98 90h-157v-180z" />
    <glyph glyph-name="uni0412" unicode="&#x412;" horiz-adv-x="642" 
d="M495 358c66 -31 105 -93 105 -168c0 -110 -83 -190 -211 -190h-335v700h305c128 0 211 -82 211 -192c0 -63 -27 -116 -75 -150zM193 577v-168h152c57 0 93 37 93 85s-36 83 -93 83h-152zM364 123c57 0 92 36 92 84s-35 84 -92 84h-171v-168h171z" />
    <glyph glyph-name="uni0413" unicode="&#x413;" horiz-adv-x="530" 
d="M54 0v700h466v-127h-323v-573h-143z" />
    <glyph glyph-name="uni0403" unicode="&#x403;" horiz-adv-x="530" 
d="M172 746l144 154h165l-160 -154h-149zM54 0v700h466v-127h-323v-573h-143z" />
    <glyph glyph-name="uni0490" unicode="&#x490;" horiz-adv-x="530" 
d="M54 0v700h323v150h143v-277h-323v-573h-143z" />
    <glyph glyph-name="uni0414" unicode="&#x414;" horiz-adv-x="779" 
d="M685 127h82v-287h-143v160h-474v-160h-143v287h74c52 67 70 135 70 323v250h534v-573zM542 127v446h-256v-123c0 -176 -14 -260 -56 -323h312z" />
    <glyph glyph-name="uni0415" unicode="&#x415;" horiz-adv-x="562" 
d="M54 0v700h466v-127h-323v-160h313v-126h-313v-160h323v-127h-466z" />
    <glyph glyph-name="uni0400" unicode="&#x400;" horiz-adv-x="562" 
d="M246 746l-160 154h165l144 -154h-149zM54 0v700h466v-127h-323v-160h313v-126h-313v-160h323v-127h-466z" />
    <glyph glyph-name="uni0401" unicode="&#x401;" horiz-adv-x="562" 
d="M86 825c0 42 35 78 78 78c42 0 77 -36 77 -78s-35 -77 -77 -77c-43 0 -78 35 -78 77zM320 825c0 42 35 78 77 78c43 0 78 -36 78 -78s-35 -77 -78 -77c-42 0 -77 35 -77 77zM54 0v700h466v-127h-323v-160h313v-126h-313v-160h323v-127h-466z" />
    <glyph glyph-name="uni0416" unicode="&#x416;" horiz-adv-x="1043" 
d="M812 359l209 -359h-172l-165 287h-91v-287h-143v287h-91l-170 -287h-167l209 359l-189 341h157l160 -287h91v287h143v-287h91l159 287h158z" />
    <glyph glyph-name="uni0417" unicode="&#x417;" horiz-adv-x="630" 
d="M474 350c72 -31 114 -90 114 -161c0 -129 -124 -199 -268 -199c-110 0 -220 37 -288 113l84 102c58 -56 142 -84 204 -84c67 0 121 33 121 84c0 64 -62 82 -146 82h-90v126h90c84 0 146 18 146 82c0 51 -54 84 -121 84c-62 0 -146 -28 -204 -84l-84 102
c68 76 178 113 288 113c144 0 268 -70 268 -199c0 -71 -42 -130 -114 -161z" />
    <glyph glyph-name="uni0418" unicode="&#x418;" horiz-adv-x="734" 
d="M541 700h139v-700h-143v480l-344 -480h-139v700h143v-479z" />
    <glyph glyph-name="uni0419" unicode="&#x419;" horiz-adv-x="734" 
d="M367 732c-99 0 -187 58 -189 168h118c2 -53 29 -76 71 -76c41 0 68 23 70 76h118c-2 -110 -90 -168 -188 -168zM541 700h139v-700h-143v480l-344 -480h-139v700h143v-479z" />
    <glyph glyph-name="uni040D" unicode="&#x40d;" horiz-adv-x="734" 
d="M481 746h-149l-160 154h165zM541 700h139v-700h-143v480l-344 -480h-139v700h143v-479z" />
    <glyph glyph-name="uni041A" unicode="&#x41a;" horiz-adv-x="683" 
d="M424 359l247 -359h-172l-198 287h-104v-287h-143v700h143v-287h104l193 287h157z" />
    <glyph glyph-name="uni040C" unicode="&#x40c;" horiz-adv-x="683" 
d="M536 900l-160 -154h-149l144 154h165zM424 359l247 -359h-172l-198 287h-104v-287h-143v700h143v-287h104l193 287h157z" />
    <glyph glyph-name="uni041B" unicode="&#x41b;" horiz-adv-x="742" 
d="M10 -9v127h17c95 0 117 41 117 232v350h544v-700h-143v573h-266v-223c0 -281 -85 -359 -260 -359h-9z" />
    <glyph glyph-name="uni041C" unicode="&#x41c;" horiz-adv-x="897" 
d="M827 0h-135v483l-196 -483h-111l-196 483v-483h-135v700h187l204 -499l203 499h179v-700z" />
    <glyph glyph-name="uni041D" unicode="&#x41d;" horiz-adv-x="718" 
d="M54 0v700h143v-287h324v287h143v-700h-143v287h-324v-287h-143z" />
    <glyph glyph-name="uni041E" unicode="&#x41e;" horiz-adv-x="804" 
d="M34 350c0 203 160 360 368 360s368 -157 368 -360s-160 -360 -368 -360s-368 157 -368 360zM182 350c0 -129 96 -229 220 -229c125 0 220 100 220 229s-95 229 -220 229c-124 0 -220 -100 -220 -229z" />
    <glyph glyph-name="uni041F" unicode="&#x41f;" horiz-adv-x="718" 
d="M54 0v700h610v-700h-143v573h-324v-573h-143z" />
    <glyph glyph-name="uni0420" unicode="&#x420;" horiz-adv-x="619" 
d="M54 0v700h296c156 0 257 -100 257 -234c0 -135 -101 -231 -257 -231h-153v-235h-143zM197 362h153c66 0 109 45 109 105c0 61 -43 106 -109 106h-153v-211z" />
    <glyph glyph-name="uni0421" unicode="&#x421;" horiz-adv-x="763" 
d="M34 350c0 203 160 360 368 360c163 0 280 -98 327 -203l-132 -51c-33 69 -104 123 -195 123c-124 0 -220 -100 -220 -229s96 -229 220 -229c91 0 162 54 195 123l132 -51c-47 -105 -164 -203 -327 -203c-208 0 -368 157 -368 360z" />
    <glyph glyph-name="uni0422" unicode="&#x422;" horiz-adv-x="592" 
d="M224 0v573h-214v127h572v-127h-215v-573h-143z" />
    <glyph glyph-name="uni0423" unicode="&#x423;" horiz-adv-x="655" 
d="M518 700h143l-374 -700h-143l118 220l-258 480h162l176 -329z" />
    <glyph glyph-name="uni040E" unicode="&#x40e;" horiz-adv-x="655" 
d="M328 732c-99 0 -187 58 -189 168h118c2 -53 29 -76 71 -76c41 0 68 23 70 76h118c-2 -110 -90 -168 -188 -168zM518 700h143l-374 -700h-143l118 220l-258 480h162l176 -329z" />
    <glyph glyph-name="uni0424" unicode="&#x424;" horiz-adv-x="892" 
d="M519 659c197 0 339 -129 339 -309s-142 -309 -339 -309h-2v-81h-143v81h-2c-196 0 -338 129 -338 309s142 309 338 309h2v81h143v-81h2zM374 168v364h-2c-114 0 -195 -73 -195 -182c0 -108 81 -182 195 -182h2zM519 168c115 0 196 74 196 182c0 109 -81 182 -196 182h-2
v-364h2z" />
    <glyph glyph-name="uni0425" unicode="&#x425;" horiz-adv-x="676" 
d="M672 700l-249 -349l249 -351h-174l-162 236l-162 -236h-170l249 349l-249 351h174l162 -236l162 236h170z" />
    <glyph glyph-name="uni0427" unicode="&#x427;" horiz-adv-x="648" 
d="M451 700h143v-700h-143v247c-43 -11 -99 -21 -160 -21c-192 0 -267 78 -267 276v198h143v-198c0 -109 42 -149 143 -149c50 0 102 9 141 18v329z" />
    <glyph glyph-name="uni0426" unicode="&#x426;" horiz-adv-x="758" 
d="M54 0v700h143v-573h324v573h143v-573h82v-287h-143v160h-549z" />
    <glyph glyph-name="uni0428" unicode="&#x428;" horiz-adv-x="964" 
d="M54 0v700h143v-573h213v573h143v-573h214v573h143v-700h-856z" />
    <glyph glyph-name="uni0429" unicode="&#x429;" horiz-adv-x="1004" 
d="M54 0v700h143v-573h213v573h143v-573h214v573h143v-573h82v-287h-143v160h-795z" />
    <glyph glyph-name="uni040F" unicode="&#x40f;" horiz-adv-x="718" 
d="M54 0v700h143v-573h324v573h143v-700h-234v-160h-142v160h-234z" />
    <glyph glyph-name="uni042C" unicode="&#x42c;" horiz-adv-x="631" 
d="M54 0v700h143v-235h153c156 0 257 -96 257 -231c0 -134 -101 -234 -257 -234h-296zM197 127h153c66 0 109 45 109 106c0 60 -43 105 -109 105h-153v-211z" />
    <glyph glyph-name="uni042A" unicode="&#x42a;" horiz-adv-x="750" 
d="M10 573v127h316v-235h143c156 0 257 -96 257 -231c0 -134 -101 -234 -257 -234h-286v573h-173zM326 127h143c66 0 109 45 109 106c0 60 -43 105 -109 105h-143v-211z" />
    <glyph glyph-name="uni042B" unicode="&#x42b;" horiz-adv-x="848" 
d="M54 0v700h143v-235h143c156 0 257 -96 257 -231c0 -134 -101 -234 -257 -234h-286zM651 0v700h143v-700h-143zM197 127h143c66 0 109 45 109 106c0 60 -43 105 -109 105h-143v-211z" />
    <glyph glyph-name="uni0409" unicode="&#x409;" horiz-adv-x="1102" 
d="M10 -9v127h17c95 0 117 41 117 232v350h534v-235h142c156 0 258 -96 258 -231c0 -134 -102 -234 -258 -234h-285v573h-256v-223c0 -281 -85 -359 -260 -359h-9zM678 127h142c66 0 110 45 110 106c0 60 -44 105 -110 105h-142v-211z" />
    <glyph glyph-name="uni040A" unicode="&#x40a;" horiz-adv-x="1078" 
d="M54 0v700h143v-287h314v287h143v-239h143c156 0 257 -96 257 -229s-101 -232 -257 -232h-286v287h-314v-287h-143zM654 127h143c66 0 109 44 109 104c0 59 -43 103 -109 103h-143v-207z" />
    <glyph glyph-name="uni0405" unicode="&#x405;" horiz-adv-x="629" 
d="M188 214c11 -62 56 -101 134 -101c70 0 116 37 116 82c0 135 -379 49 -379 308c0 118 113 207 257 207c148 0 247 -81 264 -195l-145 -29c-11 60 -55 101 -124 101c-62 0 -104 -32 -104 -76c0 -129 379 -43 379 -312c0 -120 -118 -209 -268 -209c-152 0 -257 77 -275 195
z" />
    <glyph glyph-name="uni0404" unicode="&#x404;" horiz-adv-x="763" 
d="M402 121c91 0 162 54 195 123l132 -51c-47 -105 -164 -203 -327 -203c-208 0 -368 157 -368 360s160 360 368 360c163 0 280 -98 327 -203l-132 -51c-33 69 -104 123 -195 123c-103 0 -187 -69 -212 -166h304v-126h-304c25 -97 109 -166 212 -166z" />
    <glyph glyph-name="uni042D" unicode="&#x42d;" horiz-adv-x="763" 
d="M361 710c208 0 368 -157 368 -360s-160 -360 -368 -360c-162 0 -279 98 -327 203l133 51c33 -69 104 -123 194 -123c104 0 187 69 213 166h-305v126h305c-26 97 -109 166 -213 166c-90 0 -161 -54 -194 -123l-133 51c48 105 165 203 327 203z" />
    <glyph glyph-name="uni0406" unicode="&#x406;" horiz-adv-x="251" 
d="M54 0v700h143v-700h-143z" />
    <glyph glyph-name="uni0407" unicode="&#x407;" horiz-adv-x="251" 
d="M-53 825c0 42 35 78 78 78c42 0 77 -36 77 -78s-35 -77 -77 -77c-43 0 -78 35 -78 77zM149 825c0 42 35 78 77 78c43 0 78 -36 78 -78s-35 -77 -78 -77c-42 0 -77 35 -77 77zM54 0v700h143v-700h-143z" />
    <glyph glyph-name="uni0408" unicode="&#x408;" horiz-adv-x="545" 
d="M151 228c3 -78 51 -107 103 -107c63 0 104 45 104 111v468h143v-468c0 -152 -114 -242 -251 -242c-129 0 -230 78 -242 217z" />
    <glyph glyph-name="uni040B" unicode="&#x40b;" horiz-adv-x="799" 
d="M524 468c135 0 226 -97 226 -231v-237h-143v218c0 75 -53 127 -130 127c-75 0 -130 -52 -130 -127v-218h-143v573h-194v127h572v-127h-235v-181c40 46 103 76 177 76z" />
    <glyph glyph-name="uni042E" unicode="&#x42e;" horiz-adv-x="1050" 
d="M662 710c201 0 354 -157 354 -360s-153 -360 -354 -360c-180 0 -321 125 -349 297h-116v-287h-143v700h143v-287h116c28 172 169 297 349 297zM658 121c120 0 210 100 210 229s-90 229 -210 229s-210 -100 -210 -229s90 -229 210 -229z" />
    <glyph glyph-name="uni042F" unicode="&#x42f;" horiz-adv-x="645" 
d="M591 700v-700h-143v249h-90l-168 -249h-166l177 262c-98 30 -158 112 -158 213c0 129 98 225 247 225h301zM448 380v193h-158c-59 0 -99 -41 -99 -97c0 -55 40 -96 99 -96h158z" />
    <glyph glyph-name="uni0402" unicode="&#x402;" horiz-adv-x="771" 
d="M497 448c139 0 242 -84 242 -230c0 -139 -90 -228 -225 -228c-34 0 -75 5 -113 18l19 124c25 -9 48 -14 71 -14c59 0 101 38 101 100c0 64 -43 103 -117 103c-39 0 -81 -10 -128 -27v-294h-143v573h-194v127h572v-127h-235v-152c53 18 102 27 150 27z" />
    <glyph glyph-name="uni0462" unicode="&#x462;" horiz-adv-x="676" 
d="M395 465c156 0 257 -96 257 -231c0 -134 -101 -234 -257 -234h-296v540h-107v103h107v77h143v-77h148v-103h-148v-75h153zM395 127c66 0 110 45 110 106c0 60 -44 105 -110 105h-153v-211h153z" />
    <glyph glyph-name="uni0472" unicode="&#x472;" horiz-adv-x="804" 
d="M402 710c208 0 368 -157 368 -360s-160 -360 -368 -360s-368 157 -368 360s160 360 368 360zM402 579c-104 0 -187 -70 -212 -168c40 23 76 31 109 31c90 0 162 -58 248 -58c22 0 45 4 71 13c-20 106 -107 182 -216 182zM402 121c104 0 188 70 213 168
c-41 -23 -77 -31 -111 -31c-90 0 -161 58 -248 58c-22 0 -44 -4 -70 -13c21 -106 108 -182 216 -182z" />
    <glyph glyph-name="uni0474" unicode="&#x474;" horiz-adv-x="789" 
d="M506 565c43 117 123 186 281 117l-42 -111c-68 27 -89 15 -114 -53l-200 -518h-158l-269 700h152l200 -540z" />
    <glyph glyph-name="uni0492" unicode="&#x492;" horiz-adv-x="570" 
d="M560 573h-323v-187h163v-103h-163v-283h-143v283h-92v103h92v314h466v-127z" />
    <glyph glyph-name="uni0494" unicode="&#x494;" horiz-adv-x="653" 
d="M352 448c156 0 261 -116 261 -308c0 -227 -132 -350 -301 -350c-28 0 -62 4 -91 10l19 130c27 -6 44 -9 72 -9c94 0 154 76 154 211c0 128 -73 184 -153 184c-36 0 -74 -8 -116 -22v-294h-143v700h466v-127h-323v-155c48 18 103 30 155 30z" />
    <glyph glyph-name="uni0496" unicode="&#x496;" horiz-adv-x="1084" 
d="M947 127h125v-287h-143v160h-80l-165 287h-91v-287h-143v287h-91l-170 -287h-167l209 359l-189 341h157l160 -287h91v287h143v-287h91l159 287h158l-189 -341z" />
    <glyph glyph-name="uni0498" unicode="&#x498;" horiz-adv-x="630" 
d="M474 350c72 -31 114 -90 114 -161c0 -107 -85 -173 -196 -193v-156h-143v155c-85 13 -164 48 -217 108l84 102c58 -56 142 -84 204 -84c67 0 121 33 121 84c0 64 -62 82 -146 82h-90v126h90c84 0 146 18 146 82c0 51 -54 84 -121 84c-62 0 -146 -28 -204 -84l-84 102
c68 76 178 113 288 113c144 0 268 -70 268 -199c0 -71 -42 -130 -114 -161z" />
    <glyph glyph-name="uni049A" unicode="&#x49a;" horiz-adv-x="734" 
d="M584 127h138v-287h-143v160h-80l-198 287h-104v-287h-143v700h143v-287h104l193 287h157l-227 -341z" />
    <glyph glyph-name="uni049C" unicode="&#x49c;" horiz-adv-x="734" 
d="M475 359l247 -359h-172l-199 287h-11v-116h-102v116h-41v-287h-143v700h143v-287h41v116h102v-116h11l193 287h158z" />
    <glyph glyph-name="uni049E" unicode="&#x49e;" horiz-adv-x="683" 
d="M424 359l247 -359h-172l-198 287h-104v-287h-143v538h-82v102h82v60h143v-60h133v-102h-133v-125h104l193 287h157z" />
    <glyph glyph-name="uni04A0" unicode="&#x4a0;" horiz-adv-x="812" 
d="M553 359l247 -359h-172l-198 287h-104v-287h-143v573h-173v127h316v-287h104l193 287h157z" />
    <glyph glyph-name="uni04A2" unicode="&#x4a2;" horiz-adv-x="758" 
d="M664 127h82v-287h-143v160h-82v287h-324v-287h-143v700h143v-287h324v287h143v-573z" />
    <glyph glyph-name="uni04A4" unicode="&#x4a4;" horiz-adv-x="996" 
d="M986 700v-127h-322v-573h-143v287h-324v-287h-143v700h143v-287h324v287h465z" />
    <glyph glyph-name="uni04A6" unicode="&#x4a6;" horiz-adv-x="1100" 
d="M798 448c156 0 262 -116 262 -308c0 -227 -133 -350 -302 -350c-27 0 -61 4 -91 10l20 130c26 -6 43 -9 72 -9c93 0 153 76 153 211c0 128 -72 184 -153 184c-36 0 -74 -8 -115 -22v-294h-143v573h-304v-573h-143v700h590v-282c48 18 103 30 154 30z" />
    <glyph glyph-name="uni0524" unicode="&#x524;" horiz-adv-x="758" 
d="M664 127h82v-287h-143v160h-82v573h-324v-573h-143v700h610v-573z" />
    <glyph glyph-name="uni04A8" unicode="&#x4a8;" horiz-adv-x="928" 
d="M914 6c-29 -9 -71 -16 -115 -16c-73 0 -141 15 -199 41c-59 -26 -127 -41 -200 -41c-208 0 -366 155 -366 358c0 205 160 362 368 362v-131c-124 0 -220 -100 -220 -231c0 -129 93 -227 218 -227c23 0 45 2 65 5c-62 67 -98 154 -98 250c0 170 108 260 233 260
c126 0 233 -90 233 -260c0 -95 -36 -182 -99 -250c21 -3 42 -5 65 -5c25 0 61 4 96 10zM515 376c0 -78 31 -144 85 -190c55 46 86 112 86 190c0 77 -34 129 -86 129c-51 0 -85 -52 -85 -129z" />
    <glyph glyph-name="uni04AA" unicode="&#x4aa;" horiz-adv-x="763" 
d="M402 121c91 0 162 54 195 123l132 -51c-40 -89 -130 -173 -255 -196v-157h-143v156c-172 31 -297 175 -297 354c0 203 160 360 368 360c163 0 280 -98 327 -203l-132 -51c-33 69 -104 123 -195 123c-124 0 -220 -100 -220 -229s96 -229 220 -229z" />
    <glyph glyph-name="uni04AC" unicode="&#x4ac;" horiz-adv-x="592" 
d="M582 573h-215v-446h82v-287h-143v160h-82v573h-214v127h572v-127z" />
    <glyph glyph-name="uni04AE" unicode="&#x4ae;" horiz-adv-x="663" 
d="M403 242v-115h114v-127h-371v127h114v115l-266 458h168l174 -316l173 316h160z" />
    <glyph glyph-name="uni04B0" unicode="&#x4b0;" horiz-adv-x="663" 
d="M669 700l-229 -395h98v-102h-135v-76h114v-127h-371v127h114v76h-135v102h98l-229 395h168l174 -316l173 316h160z" />
    <glyph glyph-name="uni04B2" unicode="&#x4b2;" horiz-adv-x="733" 
d="M582 127h139v-287h-143v160h-80l-162 236l-162 -236h-170l249 349l-249 351h174l162 -236l162 236h170l-249 -349z" />
    <glyph glyph-name="uni04B4" unicode="&#x4b4;" horiz-adv-x="928" 
d="M224 0v573h-214v127h556v-127h-199v-446h324v573h143v-573h82v-287h-143v160h-549z" />
    <glyph glyph-name="uni04B6" unicode="&#x4b6;" horiz-adv-x="688" 
d="M594 127h82v-287h-143v160h-82v247c-43 -11 -99 -21 -160 -21c-192 0 -267 78 -267 276v198h143v-198c0 -109 42 -149 143 -149c50 0 102 9 141 18v329h143v-573z" />
    <glyph glyph-name="uni04B8" unicode="&#x4b8;" horiz-adv-x="648" 
d="M451 700h143v-700h-143v247c-26 -6 -56 -13 -90 -17v-109h-103v106c-168 9 -234 89 -234 275v198h143v-198c0 -88 27 -131 91 -144v121h103v-123c33 3 64 9 90 15v329z" />
    <glyph glyph-name="uni04BA" unicode="&#x4ba;" horiz-adv-x="649" 
d="M374 468c135 0 226 -97 226 -231v-237h-143v218c0 75 -54 127 -130 127c-75 0 -130 -52 -130 -127v-218h-143v700h143v-308c40 46 103 76 177 76z" />
    <glyph glyph-name="uni0526" unicode="&#x526;" horiz-adv-x="694" 
d="M600 127h82v-287h-143v160h-82v218c0 75 -54 127 -130 127c-75 0 -130 -52 -130 -127v-218h-143v700h143v-308c40 46 103 76 177 76c135 0 226 -97 226 -231v-110z" />
    <glyph glyph-name="uni04BC" unicode="&#x4bc;" horiz-adv-x="932" 
d="M530 710c200 0 382 -158 358 -404h-575c19 -107 107 -185 217 -185c90 0 161 54 194 123l133 -51c-48 -105 -165 -203 -327 -203c-193 0 -345 136 -366 318c-107 11 -174 69 -174 164c0 30 8 62 21 87h120c-12 -27 -18 -52 -18 -72c0 -40 18 -65 54 -74
c30 172 177 297 363 297zM530 579c-96 0 -176 -60 -207 -146h407c-15 74 -90 146 -200 146z" />
    <glyph glyph-name="uni04BE" unicode="&#x4be;" horiz-adv-x="932" 
d="M530 710c200 0 382 -158 358 -404h-575c19 -107 107 -185 217 -185c90 0 161 54 194 123l133 -51c-41 -89 -131 -173 -256 -196v-157h-143v156c-158 29 -276 153 -294 312c-107 11 -174 69 -174 164c0 30 8 62 21 87h120c-12 -27 -18 -52 -18 -72c0 -40 18 -65 54 -74
c30 172 177 297 363 297zM530 579c-96 0 -176 -60 -207 -146h407c-15 74 -90 146 -200 146z" />
    <glyph glyph-name="uni04C0" unicode="&#x4c0;" horiz-adv-x="251" 
d="M54 0v700h143v-700h-143z" />
    <glyph glyph-name="uni04C1" unicode="&#x4c1;" horiz-adv-x="1043" 
d="M521 732c-99 0 -187 58 -189 168h118c2 -53 29 -76 71 -76c41 0 68 23 70 76h118c-2 -110 -90 -168 -188 -168zM812 359l209 -359h-172l-165 287h-91v-287h-143v287h-91l-170 -287h-167l209 359l-189 341h157l160 -287h91v287h143v-287h91l159 287h158z" />
    <glyph glyph-name="uni04C3" unicode="&#x4c3;" horiz-adv-x="673" 
d="M449 397c101 -37 164 -134 164 -275c0 -216 -132 -332 -301 -332c-28 0 -62 4 -91 10l19 130c27 -6 44 -9 72 -9c94 0 154 70 154 195c0 120 -73 171 -153 171h-116v-287h-143v700h143v-287h103l194 287h157z" />
    <glyph glyph-name="uni04C5" unicode="&#x4c5;" horiz-adv-x="782" 
d="M688 127h90l-97 -287h-143l55 160h-48v573h-266v-223c0 -281 -85 -359 -260 -359h-9v127h17c95 0 117 41 117 232v350h544v-573z" />
    <glyph glyph-name="uni04C7" unicode="&#x4c7;" horiz-adv-x="718" 
d="M521 700h143v-660c0 -153 -100 -250 -241 -250c-25 0 -58 4 -86 10l19 130c26 -6 42 -9 63 -9c60 0 102 47 102 119v247h-324v-287h-143v700h143v-287h324v287z" />
    <glyph glyph-name="uni04C9" unicode="&#x4c9;" horiz-adv-x="758" 
d="M664 127h90l-97 -287h-143l55 160h-48v287h-324v-287h-143v700h143v-287h324v287h143v-573z" />
    <glyph glyph-name="uni04CB" unicode="&#x4cb;" horiz-adv-x="648" 
d="M451 700h143v-700h-82v-160h-143v287h82v120c-43 -11 -99 -21 -160 -21c-192 0 -267 78 -267 276v198h143v-198c0 -109 42 -149 143 -149c50 0 102 9 141 18v329z" />
    <glyph glyph-name="uni04CD" unicode="&#x4cd;" horiz-adv-x="929" 
d="M827 127h98l-97 -287h-143l55 160h-48v483l-196 -483h-111l-196 483v-483h-135v700h187l204 -499l203 499h179v-573z" />
    <glyph glyph-name="uni04D0" unicode="&#x4d0;" horiz-adv-x="734" 
d="M367 732c-99 0 -187 58 -189 168h118c2 -53 29 -76 71 -76c41 0 68 23 70 76h118c-2 -110 -90 -168 -188 -168zM577 0l-60 152h-308l-60 -152h-145l284 700h158l284 -700h-153zM259 279h208l-104 262z" />
    <glyph glyph-name="uni04D2" unicode="&#x4d2;" horiz-adv-x="734" 
d="M251 748c-43 0 -78 35 -78 77s35 78 78 78c42 0 77 -36 77 -78s-35 -77 -77 -77zM484 748c-42 0 -77 35 -77 77s35 78 77 78c43 0 78 -36 78 -78s-35 -77 -78 -77zM577 0l-60 152h-308l-60 -152h-145l284 700h158l284 -700h-153zM259 279h208l-104 262z" />
    <glyph glyph-name="uni04D4" unicode="&#x4d4;" horiz-adv-x="992" 
d="M950 573h-323v-160h313v-126h-313v-160h323v-127h-466v152h-252l-91 -152h-157l418 700h548v-127zM307 279h177v296z" />
    <glyph glyph-name="uni04D6" unicode="&#x4d6;" horiz-adv-x="562" 
d="M210 900c2 -53 29 -76 71 -76c41 0 68 23 70 76h118c-2 -110 -90 -168 -188 -168c-99 0 -187 58 -189 168h118zM54 0v700h466v-127h-323v-160h313v-126h-313v-160h323v-127h-466z" />
    <glyph glyph-name="uni04D8" unicode="&#x4d8;" horiz-adv-x="804" 
d="M402 710c208 0 368 -157 368 -360s-160 -360 -368 -360c-200 0 -382 158 -358 404h574c-19 107 -106 185 -216 185c-90 0 -161 -54 -194 -123l-133 51c48 105 164 203 327 203zM402 121c96 0 175 60 206 146h-407c16 -74 90 -146 201 -146z" />
    <glyph glyph-name="uni04DA" unicode="&#x4da;" horiz-adv-x="804" 
d="M289 748c-43 0 -78 35 -78 77s35 78 78 78c42 0 77 -36 77 -78s-35 -77 -77 -77zM522 748c-42 0 -77 35 -77 77s35 78 77 78c43 0 78 -36 78 -78s-35 -77 -78 -77zM402 710c208 0 368 -157 368 -360s-160 -360 -368 -360c-200 0 -382 158 -358 404h574
c-19 107 -106 185 -216 185c-90 0 -161 -54 -194 -123l-133 51c48 105 164 203 327 203zM402 121c96 0 175 60 206 146h-407c16 -74 90 -146 201 -146z" />
    <glyph glyph-name="uni04DC" unicode="&#x4dc;" horiz-adv-x="1043" 
d="M405 748c-43 0 -78 35 -78 77s35 78 78 78c42 0 77 -36 77 -78s-35 -77 -77 -77zM638 748c-42 0 -77 35 -77 77s35 78 77 78c43 0 78 -36 78 -78s-35 -77 -78 -77zM812 359l209 -359h-172l-165 287h-91v-287h-143v287h-91l-170 -287h-167l209 359l-189 341h157l160 -287
h91v287h143v-287h91l159 287h158z" />
    <glyph glyph-name="uni04DE" unicode="&#x4de;" horiz-adv-x="630" 
d="M204 748c-43 0 -78 35 -78 77s35 78 78 78c42 0 77 -36 77 -78s-35 -77 -77 -77zM437 748c-42 0 -77 35 -77 77s35 78 77 78c43 0 78 -36 78 -78s-35 -77 -78 -77zM474 350c72 -31 114 -90 114 -161c0 -129 -124 -199 -268 -199c-110 0 -220 37 -288 113l84 102
c58 -56 142 -84 204 -84c67 0 121 33 121 84c0 64 -62 82 -146 82h-90v126h90c84 0 146 18 146 82c0 51 -54 84 -121 84c-62 0 -146 -28 -204 -84l-84 102c68 76 178 113 288 113c144 0 268 -70 268 -199c0 -71 -42 -130 -114 -161z" />
    <glyph glyph-name="uni04E0" unicode="&#x4e0;" horiz-adv-x="630" 
d="M392 413c113 -17 196 -87 196 -198c0 -142 -127 -225 -268 -225c-110 0 -220 37 -288 113l84 102c58 -56 142 -84 204 -84c67 0 121 35 121 94c0 65 -62 91 -146 91h-68v109l157 158h-307v127h489v-110z" />
    <glyph glyph-name="uni04E2" unicode="&#x4e2;" horiz-adv-x="734" 
d="M530 876v-102h-326v102h326zM541 700h139v-700h-143v480l-344 -480h-139v700h143v-479z" />
    <glyph glyph-name="uni04E4" unicode="&#x4e4;" horiz-adv-x="734" 
d="M251 748c-43 0 -78 35 -78 77s35 78 78 78c42 0 77 -36 77 -78s-35 -77 -77 -77zM484 748c-42 0 -77 35 -77 77s35 78 77 78c43 0 78 -36 78 -78s-35 -77 -78 -77zM541 700h139v-700h-143v480l-344 -480h-139v700h143v-479z" />
    <glyph glyph-name="uni04E6" unicode="&#x4e6;" horiz-adv-x="804" 
d="M208 825c0 42 35 78 78 78c42 0 77 -36 77 -78s-35 -77 -77 -77c-43 0 -78 35 -78 77zM442 825c0 42 35 78 77 78c43 0 78 -36 78 -78s-35 -77 -78 -77c-42 0 -77 35 -77 77zM34 350c0 203 160 360 368 360s368 -157 368 -360s-160 -360 -368 -360s-368 157 -368 360z
M182 350c0 -129 96 -229 220 -229c125 0 220 100 220 229s-95 229 -220 229c-124 0 -220 -100 -220 -229z" />
    <glyph glyph-name="uni04E8" unicode="&#x4e8;" horiz-adv-x="804" 
d="M402 710c208 0 368 -157 368 -360s-160 -360 -368 -360s-368 157 -368 360s160 360 368 360zM402 579c-103 0 -187 -69 -212 -166h424c-25 97 -108 166 -212 166zM402 121c104 0 187 69 212 166h-424c25 -97 109 -166 212 -166z" />
    <glyph glyph-name="uni04EA" unicode="&#x4ea;" horiz-adv-x="804" 
d="M286 748c-43 0 -78 35 -78 77s35 78 78 78c42 0 77 -36 77 -78s-35 -77 -77 -77zM519 748c-42 0 -77 35 -77 77s35 78 77 78c43 0 78 -36 78 -78s-35 -77 -78 -77zM402 710c208 0 368 -157 368 -360s-160 -360 -368 -360s-368 157 -368 360s160 360 368 360zM402 579
c-103 0 -187 -69 -212 -166h424c-25 97 -108 166 -212 166zM402 121c104 0 187 69 212 166h-424c25 -97 109 -166 212 -166z" />
    <glyph glyph-name="uni04EC" unicode="&#x4ec;" horiz-adv-x="763" 
d="M245 748c-43 0 -78 35 -78 77s35 78 78 78c42 0 77 -36 77 -78s-35 -77 -77 -77zM478 748c-42 0 -77 35 -77 77s35 78 77 78c43 0 78 -36 78 -78s-35 -77 -78 -77zM361 710c208 0 368 -157 368 -360s-160 -360 -368 -360c-162 0 -279 98 -327 203l133 51
c33 -69 104 -123 194 -123c104 0 187 69 213 166h-305v126h305c-26 97 -109 166 -213 166c-90 0 -161 -54 -194 -123l-133 51c48 105 165 203 327 203z" />
    <glyph glyph-name="uni04EE" unicode="&#x4ee;" horiz-adv-x="655" 
d="M491 876v-102h-326v102h326zM518 700h143l-374 -700h-143l118 220l-258 480h162l176 -329z" />
    <glyph glyph-name="uni04F0" unicode="&#x4f0;" horiz-adv-x="655" 
d="M211 748c-43 0 -78 35 -78 77s35 78 78 78c42 0 77 -36 77 -78s-35 -77 -77 -77zM444 748c-42 0 -77 35 -77 77s35 78 77 78c43 0 78 -36 78 -78s-35 -77 -78 -77zM518 700h143l-374 -700h-143l118 220l-258 480h162l176 -329z" />
    <glyph glyph-name="uni04F2" unicode="&#x4f2;" horiz-adv-x="655" 
d="M406 900l-160 -154h-133l144 154h149zM461 746h-133l144 154h149zM518 700h143l-374 -700h-143l118 220l-258 480h162l176 -329z" />
    <glyph glyph-name="uni04F4" unicode="&#x4f4;" horiz-adv-x="648" 
d="M208 748c-43 0 -78 35 -78 77s35 78 78 78c42 0 77 -36 77 -78s-35 -77 -77 -77zM441 748c-42 0 -77 35 -77 77s35 78 77 78c43 0 78 -36 78 -78s-35 -77 -78 -77zM451 700h143v-700h-143v247c-43 -11 -99 -21 -160 -21c-192 0 -267 78 -267 276v198h143v-198
c0 -109 42 -149 143 -149c50 0 102 9 141 18v329z" />
    <glyph glyph-name="uni04F6" unicode="&#x4f6;" horiz-adv-x="530" 
d="M520 573h-323v-446h82v-287h-143v160h-82v700h466v-127z" />
    <glyph glyph-name="uni04F8" unicode="&#x4f8;" horiz-adv-x="848" 
d="M230 825c0 42 35 78 78 78c42 0 77 -36 77 -78s-35 -77 -77 -77c-43 0 -78 35 -78 77zM464 825c0 42 35 78 77 78c43 0 78 -36 78 -78s-35 -77 -78 -77c-42 0 -77 35 -77 77zM54 0v700h143v-235h143c156 0 257 -96 257 -231c0 -134 -101 -234 -257 -234h-286zM651 0v700
h143v-700h-143zM197 127h143c66 0 109 45 109 106c0 60 -43 105 -109 105h-143v-211z" />
    <glyph glyph-name="uni04FC" unicode="&#x4fc;" horiz-adv-x="676" 
d="M423 351l159 -225c45 -63 66 -119 66 -171c0 -94 -72 -165 -197 -165c-26 0 -51 3 -78 10l18 119c15 -3 31 -6 50 -6c35 0 59 22 59 53c0 22 -8 44 -31 77l-133 193l-162 -236h-170l249 349l-249 351h174l162 -236l162 236h170z" />
    <glyph glyph-name="uni0510" unicode="&#x510;" horiz-adv-x="630" 
d="M310 121c63 0 146 28 204 84l84 -102c-68 -76 -178 -113 -288 -113c-144 0 -268 70 -268 199c0 71 42 130 115 161c-73 31 -115 90 -115 161c0 129 124 199 268 199c110 0 220 -37 288 -113l-84 -102c-58 56 -141 84 -204 84c-67 0 -120 -33 -120 -84
c0 -64 62 -82 145 -82h90v-126h-90c-83 0 -145 -18 -145 -82c0 -51 53 -84 120 -84z" />
    <glyph glyph-name="uni0512" unicode="&#x512;" horiz-adv-x="742" 
d="M10 -9v127h17c95 0 117 41 117 232v350h544v-660c0 -153 -100 -250 -242 -250c-25 0 -57 4 -85 10l19 130c26 -6 41 -9 63 -9c60 0 102 47 102 119v533h-266v-223c0 -281 -85 -359 -260 -359h-9z" />
    <glyph glyph-name="uni051C" unicode="&#x51c;" horiz-adv-x="1064" 
d="M878 700h144l-194 -700h-167l-129 497l-129 -497h-168l-193 700h152l129 -538l133 538h160l133 -539z" />
    <glyph glyph-name="uni0414.loclBGR" horiz-adv-x="782" 
d="M690 127h85v-287h-143v160h-482v-160h-143v287h85l220 573h158zM235 127h304l-152 416z" />
    <glyph glyph-name="uni0416.loclBGR" horiz-adv-x="1047" 
d="M1037 0h-172l-187 302l-83 -100v-202h-143v202l-83 100l-187 -302h-172l265 417l-234 283h178l233 -301v301h143v-302l233 302h178l-234 -283z" />
    <glyph glyph-name="uni041A.loclBGR" horiz-adv-x="673" 
d="M671 0h-172l-211 305l-91 -103v-202h-143v700h143v-299l262 299h178l-252 -285z" />
    <glyph glyph-name="uni041B.loclBGR" horiz-adv-x="704" 
d="M700 0h-152l-200 543l-199 -543h-145l269 700h159z" />
    <glyph glyph-name="uni0424.loclBGR" horiz-adv-x="868" 
d="M834 350c0 -190 -140 -340 -329 -358v-82h-142v82c-189 18 -329 168 -329 358s140 340 329 358v82h142v-82c189 -18 329 -168 329 -358zM182 350c0 -119 76 -211 181 -230v460c-105 -19 -181 -111 -181 -230zM505 120c105 19 181 111 181 230s-76 211 -181 230v-460z" />
    <glyph glyph-name="uni0492.loclBSH" horiz-adv-x="530" 
d="M520 573h-323v-187h255v-103h-255v-283h-143v700h466v-127z" />
    <glyph glyph-name="uni0498.loclBSH" horiz-adv-x="630" 
d="M474 350c72 -31 114 -90 114 -161c0 -105 -82 -171 -190 -192c22 -29 33 -62 33 -89c0 -67 -58 -118 -149 -118c-22 0 -46 3 -73 10l16 107c10 -3 18 -4 27 -4c31 0 50 17 50 40c0 15 -8 33 -25 49c-95 8 -186 45 -245 111l84 102c58 -56 142 -84 204 -84
c67 0 121 33 121 84c0 64 -62 82 -146 82h-90v126h90c84 0 146 18 146 82c0 51 -54 84 -121 84c-62 0 -146 -28 -204 -84l-84 102c68 76 178 113 288 113c144 0 268 -70 268 -199c0 -71 -42 -130 -114 -161z" />
    <glyph glyph-name="uni04AA.loclBSHCHU" horiz-adv-x="763" 
d="M402 121c91 0 162 54 195 123l132 -51c-39 -88 -127 -170 -250 -195c23 -30 34 -63 34 -90c0 -67 -58 -118 -149 -118c-22 0 -46 3 -73 10l16 107c10 -3 18 -4 27 -4c31 0 50 17 50 40c0 15 -8 33 -25 49c-187 20 -325 169 -325 358c0 203 160 360 368 360
c163 0 280 -98 327 -203l-132 -51c-33 69 -104 123 -195 123c-124 0 -220 -100 -220 -229s96 -229 220 -229z" />
    <glyph glyph-name="uni041D.loclUKR" horiz-adv-x="734" 
d="M537 700h143v-700h-139l-344 462v-462h-143v700h139l344 -463v463z" />
    <glyph glyph-name="uni0406.ss01" horiz-adv-x="455" 
d="M30 0v127h126v446h-126v127h395v-127h-126v-446h126v-127h-395z" />
    <glyph glyph-name="uni0407.ss01" horiz-adv-x="455" 
d="M33 825c0 42 35 78 78 78c42 0 77 -36 77 -78s-35 -77 -77 -77c-43 0 -78 35 -78 77zM267 825c0 42 35 78 77 78c43 0 78 -36 78 -78s-35 -77 -78 -77c-42 0 -77 35 -77 77zM30 0v127h126v446h-126v127h395v-127h-126v-446h126v-127h-395z" />
    <glyph glyph-name="uni04AE.ss02" horiz-adv-x="663" 
d="M509 700h160l-266 -458v-242h-143v242l-266 458h168l174 -316z" />
    <glyph glyph-name="uni04B0.ss02" horiz-adv-x="663" 
d="M669 700l-257 -442h126v-103h-135v-155h-143v155h-135v103h126l-257 442h168l174 -316l173 316h160z" />
    <glyph glyph-name="uni0430" unicode="&#x430;" horiz-adv-x="539" 
d="M270 526c125 0 220 -64 220 -200v-326h-135v63c-36 -43 -94 -73 -163 -73c-96 0 -168 57 -168 148c0 118 103 156 199 166l84 8c32 2 48 14 48 41c0 38 -36 62 -84 62c-54 0 -89 -29 -98 -78l-134 30c14 89 99 159 231 159zM225 97c71 0 130 57 130 119v11
c-9 -7 -24 -10 -46 -13l-87 -10c-39 -5 -63 -25 -63 -55c0 -31 25 -52 66 -52z" />
    <glyph glyph-name="uni0431" unicode="&#x431;" horiz-adv-x="630" 
d="M358 506c139 0 238 -112 238 -250c0 -154 -119 -266 -274 -266c-156 0 -278 107 -278 301c0 197 56 334 174 390c102 48 185 31 336 69v-122c-101 -30 -209 -22 -274 -53c-44 -21 -72 -66 -85 -135c41 41 97 66 163 66zM322 113c76 0 134 58 134 135s-58 134 -134 134
c-77 0 -134 -57 -134 -134s57 -135 134 -135z" />
    <glyph glyph-name="uni0432" unicode="&#x432;" horiz-adv-x="571" 
d="M448 264c52 -23 80 -68 80 -123c0 -82 -70 -141 -174 -141h-300v516h276c104 0 175 -60 175 -142c0 -46 -20 -85 -57 -110zM181 405v-92h141c30 0 51 19 51 47c0 27 -21 45 -51 45h-141zM346 111c30 0 51 19 51 47c0 26 -21 45 -51 45h-165v-92h165z" />
    <glyph glyph-name="uni0433" unicode="&#x433;" horiz-adv-x="455" 
d="M54 0v516h391v-119h-256v-397h-135z" />
    <glyph glyph-name="uni0453" unicode="&#x453;" horiz-adv-x="455" 
d="M162 579l105 160h150l-121 -160h-134zM54 0v516h391v-119h-256v-397h-135z" />
    <glyph glyph-name="uni0491" unicode="&#x491;" horiz-adv-x="455" 
d="M54 0v516h264v138h127v-257h-256v-397h-135z" />
    <glyph glyph-name="uni0434" unicode="&#x434;" horiz-adv-x="640" 
d="M558 119h70v-267h-127v148h-367v-148h-127v267h57c41 42 58 78 58 213v184h436v-397zM423 119v278h-174v-65c0 -125 -13 -178 -44 -213h218z" />
    <glyph glyph-name="uni0435" unicode="&#x435;" horiz-adv-x="610" 
d="M305 526c173 0 294 -144 266 -316h-398c18 -61 70 -104 141 -104c56 0 103 27 128 72l111 -50c-45 -81 -131 -138 -243 -138c-157 0 -276 116 -276 268s117 268 271 268zM305 410c-61 0 -111 -39 -130 -97h261c-18 58 -67 97 -131 97z" />
    <glyph glyph-name="uni0450" unicode="&#x450;" horiz-adv-x="610" 
d="M393 579h-134l-121 160h150zM305 526c173 0 294 -144 266 -316h-398c18 -61 70 -104 141 -104c56 0 103 27 128 72l111 -50c-45 -81 -131 -138 -243 -138c-157 0 -276 116 -276 268s117 268 271 268zM305 410c-61 0 -111 -39 -130 -97h261c-18 58 -67 97 -131 97z" />
    <glyph glyph-name="uni0451" unicode="&#x451;" horiz-adv-x="610" 
d="M190 581c-43 0 -78 36 -78 78s35 77 78 77c42 0 77 -35 77 -77s-35 -78 -77 -78zM421 581c-42 0 -77 36 -77 78s35 77 77 77c43 0 78 -35 78 -77s-35 -78 -78 -78zM305 526c173 0 294 -144 266 -316h-398c18 -61 70 -104 141 -104c56 0 103 27 128 72l111 -50
c-45 -81 -131 -138 -243 -138c-157 0 -276 116 -276 268s117 268 271 268zM305 410c-61 0 -111 -39 -130 -97h261c-18 58 -67 97 -131 97z" />
    <glyph glyph-name="uni0436" unicode="&#x436;" horiz-adv-x="837" 
d="M667 267l166 -267h-162l-124 199h-61v-199h-135v199h-61l-128 -199h-158l166 267l-149 249h148l121 -199h61v199h135v-199h61l122 199h148z" />
    <glyph glyph-name="uni0437" unicode="&#x437;" horiz-adv-x="528" 
d="M400 258c56 -26 86 -67 86 -117c0 -96 -95 -151 -223 -151c-94 0 -185 31 -241 87l74 91c47 -45 121 -62 167 -62c57 0 83 22 83 48c0 39 -42 49 -103 49h-75v110h75c61 0 103 10 103 49c0 26 -26 48 -83 48c-46 0 -120 -17 -167 -63l-74 92c56 56 147 87 241 87
c128 0 223 -55 223 -151c0 -51 -30 -91 -86 -117z" />
    <glyph glyph-name="uni0438" unicode="&#x438;" horiz-adv-x="620" 
d="M435 516h131v-516h-135v319l-246 -319h-131v516h135v-319z" />
    <glyph glyph-name="uni0439" unicode="&#x439;" horiz-adv-x="620" 
d="M310 572c-96 0 -164 62 -164 166h107c0 -47 19 -74 57 -74c40 0 58 27 58 74h107c0 -104 -68 -166 -165 -166zM435 516h131v-516h-135v319l-246 -319h-131v516h135v-319z" />
    <glyph glyph-name="uni045D" unicode="&#x45d;" horiz-adv-x="620" 
d="M398 579h-134l-121 160h150zM435 516h131v-516h-135v319l-246 -319h-131v516h135v-319z" />
    <glyph glyph-name="uni043A" unicode="&#x43a;" horiz-adv-x="585" 
d="M379 267l194 -267h-162l-150 199h-72v-199h-135v516h135v-199h72l148 199h148z" />
    <glyph glyph-name="uni045C" unicode="&#x45c;" horiz-adv-x="585" 
d="M465 739l-121 -160h-134l105 160h150zM379 267l194 -267h-162l-150 199h-72v-199h-135v516h135v-199h72l148 199h148z" />
    <glyph glyph-name="uni043B" unicode="&#x43b;" horiz-adv-x="628" 
d="M20 -9v119h17c71 0 90 18 90 148v258h447v-516h-135v397h-185v-139c0 -180 -53 -267 -225 -267h-9z" />
    <glyph glyph-name="uni043C" unicode="&#x43c;" horiz-adv-x="741" 
d="M687 0h-127v322l-138 -322h-103l-138 321v-321h-127v516h175l146 -334l145 334h167v-516z" />
    <glyph glyph-name="uni043D" unicode="&#x43d;" horiz-adv-x="613" 
d="M54 0v516h135v-199h234v199h135v-516h-135v199h-234v-199h-135z" />
    <glyph glyph-name="uni043E" unicode="&#x43e;" horiz-adv-x="620" 
d="M34 258c0 152 119 268 276 268s276 -116 276 -268s-119 -268 -276 -268s-276 116 -276 268zM174 258c0 -83 59 -145 136 -145c78 0 136 62 136 145c0 82 -58 144 -136 144c-77 0 -136 -62 -136 -144z" />
    <glyph glyph-name="uni043F" unicode="&#x43f;" horiz-adv-x="603" 
d="M54 0v516h494v-516h-135v397h-224v-397h-135z" />
    <glyph glyph-name="uni0440" unicode="&#x440;" horiz-adv-x="635" 
d="M353 526c141 0 248 -116 248 -268s-107 -268 -248 -268c-68 0 -124 27 -164 71v-261h-135v716h135v-61c40 44 96 71 164 71zM325 113c78 0 136 62 136 145c0 82 -58 144 -136 144c-77 0 -136 -62 -136 -144c0 -83 59 -145 136 -145z" />
    <glyph glyph-name="uni0441" unicode="&#x441;" horiz-adv-x="584" 
d="M34 258c0 152 119 268 276 268c110 0 204 -59 248 -164l-124 -43c-23 53 -69 83 -124 83c-77 0 -136 -62 -136 -144c0 -83 59 -145 136 -145c55 0 101 31 124 84l124 -43c-44 -105 -138 -164 -248 -164c-157 0 -276 116 -276 268z" />
    <glyph glyph-name="uni0442" unicode="&#x442;" horiz-adv-x="514" 
d="M190 0v397h-169v119h472v-119h-168v-397h-135z" />
    <glyph glyph-name="uni0443" unicode="&#x443;" horiz-adv-x="548" 
d="M417 516h137l-284 -716h-137l72 182l-211 534h146l139 -378z" />
    <glyph glyph-name="uni045E" unicode="&#x45e;" horiz-adv-x="548" 
d="M274 572c-96 0 -164 62 -164 166h107c0 -47 18 -74 57 -74c40 0 58 27 58 74h107c0 -104 -68 -166 -165 -166zM417 516h137l-284 -716h-137l72 182l-211 534h146l139 -378z" />
    <glyph glyph-name="uni0444" unicode="&#x444;" horiz-adv-x="739" 
d="M705 258c0 -149 -115 -264 -268 -268v-190h-135v190c-153 4 -268 119 -268 268s115 264 268 268v214h135v-214c153 -4 268 -119 268 -268zM174 258c0 -80 55 -141 128 -145v289c-73 -4 -128 -65 -128 -144zM437 113c74 4 128 65 128 145c0 79 -54 140 -128 144v-289z" />
    <glyph glyph-name="uni0445" unicode="&#x445;" horiz-adv-x="560" 
d="M548 516l-187 -255l187 -261h-166l-105 163l-108 -163h-157l187 255l-187 261h166l105 -163l108 163h157z" />
    <glyph glyph-name="uni0447" unicode="&#x447;" horiz-adv-x="553" 
d="M363 516h135v-516h-135v167c-30 -6 -74 -12 -122 -12c-171 0 -217 73 -217 213v148h135v-148c0 -62 23 -95 101 -95c35 0 75 5 103 11v232z" />
    <glyph glyph-name="uni0446" unicode="&#x446;" horiz-adv-x="640" 
d="M54 0v516h135v-397h234v397h135v-397h70v-267h-127v148h-447z" />
    <glyph glyph-name="uni0448" unicode="&#x448;" horiz-adv-x="815" 
d="M54 0v516h135v-397h151v397h135v-397h151v397h135v-516h-707z" />
    <glyph glyph-name="uni0449" unicode="&#x449;" horiz-adv-x="843" 
d="M54 0v516h135v-397h151v397h135v-397h151v397h135v-397h70v-267h-127v148h-650z" />
    <glyph glyph-name="uni045F" unicode="&#x45f;" horiz-adv-x="603" 
d="M54 0v516h135v-397h224v397h135v-516h-183v-148h-127v148h-184z" />
    <glyph glyph-name="uni044C" unicode="&#x44c;" horiz-adv-x="549" 
d="M54 0v516h135v-146h133c123 0 203 -76 203 -185s-80 -185 -203 -185h-268zM189 119h117c48 0 79 27 79 66c0 38 -31 66 -79 66h-117v-132z" />
    <glyph glyph-name="uni044A" unicode="&#x44a;" horiz-adv-x="634" 
d="M150 0v397h-140v119h275v-146h122c124 0 204 -76 204 -185s-80 -185 -204 -185h-257zM285 119h107c48 0 79 27 79 66c0 38 -31 66 -79 66h-107v-132z" />
    <glyph glyph-name="uni044B" unicode="&#x44b;" horiz-adv-x="748" 
d="M54 0v516h135v-146h123c123 0 203 -76 203 -185s-80 -185 -203 -185h-258zM559 0v516h135v-516h-135zM189 119h107c48 0 79 27 79 66c0 38 -31 66 -79 66h-107v-132z" />
    <glyph glyph-name="uni0459" unicode="&#x459;" horiz-adv-x="914" 
d="M20 -9v119h17c71 0 90 18 90 148v258h437v-146h122c123 0 204 -76 204 -185s-81 -185 -204 -185h-257v397h-175v-139c0 -180 -53 -267 -225 -267h-9zM564 119h106c49 0 80 27 80 66c0 38 -31 66 -80 66h-106v-132z" />
    <glyph glyph-name="uni045A" unicode="&#x45a;" horiz-adv-x="898" 
d="M54 0v516h135v-199h224v199h135v-154h125c122 0 201 -75 201 -181c0 -107 -79 -181 -201 -181h-260v199h-224v-199h-135zM548 119h109c47 0 78 26 78 62s-31 62 -78 62h-109v-124z" />
    <glyph glyph-name="uni0455" unicode="&#x455;" horiz-adv-x="502" 
d="M159 167c6 -47 39 -70 92 -70c56 0 91 24 91 54c0 97 -303 6 -303 212c0 93 91 163 212 163c123 0 205 -59 220 -149l-134 -28c-7 47 -38 70 -86 70c-43 0 -76 -20 -76 -50c0 -98 303 -7 303 -216c0 -93 -101 -163 -227 -163c-128 0 -212 59 -227 149z" />
    <glyph glyph-name="uni0454" unicode="&#x454;" horiz-adv-x="584" 
d="M310 106c60 0 109 41 131 88l117 -40c-44 -105 -138 -164 -248 -164c-157 0 -276 116 -276 268s119 268 276 268c110 0 204 -59 248 -164l-117 -40c-23 53 -71 88 -131 88c-63 0 -115 -39 -135 -97h202v-110h-202c20 -58 72 -97 135 -97z" />
    <glyph glyph-name="uni044D" unicode="&#x44d;" horiz-adv-x="584" 
d="M274 526c157 0 276 -116 276 -268s-119 -268 -276 -268c-110 0 -204 59 -248 164l117 40c22 -47 71 -88 131 -88c63 0 115 39 135 97h-202v110h202c-20 58 -72 97 -135 97c-60 0 -108 -35 -131 -88l-117 40c44 105 138 164 248 164z" />
    <glyph glyph-name="uni0456" unicode="&#x456;" horiz-adv-x="243" 
d="M40 659c0 45 37 81 82 81c44 0 81 -36 81 -81c0 -44 -37 -81 -81 -81c-45 0 -82 37 -82 81zM54 0v516h135v-516h-135z" />
    <glyph glyph-name="uni0457" unicode="&#x457;" horiz-adv-x="243" 
d="M-48 659c0 42 35 77 78 77c42 0 77 -35 77 -77s-35 -78 -77 -78c-43 0 -78 36 -78 78zM136 659c0 42 35 77 78 77c42 0 77 -35 77 -77s-35 -78 -77 -78c-43 0 -78 36 -78 78zM54 0v516h135v-516h-135z" />
    <glyph glyph-name="uni0458" unicode="&#x458;" horiz-adv-x="263" 
d="M60 659c0 45 37 81 82 81c44 0 81 -36 81 -81c0 -44 -37 -81 -81 -81c-45 0 -82 37 -82 81zM-14 -90c74 -1 88 19 88 90v516h135v-516c0 -124 -51 -218 -223 -209v119z" />
    <glyph glyph-name="uni045B" unicode="&#x45b;" horiz-adv-x="618" 
d="M360 486c124 0 208 -90 208 -213v-273h-135v249c0 67 -48 114 -117 114c-67 0 -117 -47 -117 -114v-249h-135v558h-66v102h66v80h135v-80h156v-102h-156v-149c36 47 93 77 161 77z" />
    <glyph glyph-name="uni044E" unicode="&#x44e;" horiz-adv-x="820" 
d="M520 526c152 0 265 -116 265 -268s-113 -268 -265 -268c-132 0 -235 87 -260 209h-71v-199h-135v516h135v-199h71c25 122 128 209 260 209zM516 113c75 0 130 62 130 145c0 82 -55 144 -130 144c-76 0 -130 -62 -130 -144c0 -83 54 -145 130 -145z" />
    <glyph glyph-name="uni044F" unicode="&#x44f;" horiz-adv-x="570" 
d="M516 516v-516h-135v165h-67l-124 -165h-156l133 177c-71 24 -117 85 -117 163c0 104 79 176 192 176h274zM381 284v113h-131c-38 0 -60 -26 -60 -57c0 -32 22 -56 60 -56h131z" />
    <glyph glyph-name="uni0452" unicode="&#x452;" horiz-adv-x="615" 
d="M370 486c116 0 198 -80 198 -221v-225c0 -153 -97 -250 -235 -250c-23 0 -50 3 -77 10l18 119c15 -3 31 -6 50 -6c67 0 109 48 109 119v209c0 77 -46 122 -115 122s-119 -47 -119 -114v-249h-135v558h-66v102h66v80h135v-80h156v-102h-156v-149c37 47 95 77 171 77z" />
    <glyph glyph-name="uni0463" unicode="&#x463;" horiz-adv-x="608" 
d="M377 370c123 0 203 -76 203 -185s-80 -185 -203 -185h-268v460h-105v103h105v177h135v-177h118v-103h-118v-90h133zM361 119c48 0 80 27 80 66c0 38 -32 66 -80 66h-117v-132h117z" />
    <glyph glyph-name="uni0473" unicode="&#x473;" horiz-adv-x="620" 
d="M310 526c157 0 276 -116 276 -268s-119 -268 -276 -268s-276 116 -276 268s119 268 276 268zM310 410c-64 0 -117 -41 -136 -100c26 15 50 21 72 21c59 0 100 -38 157 -38c15 0 29 3 45 9c-17 63 -71 108 -138 108zM310 106c64 0 116 41 136 100c-26 -16 -50 -21 -73 -21
c-58 0 -99 38 -156 38c-15 0 -29 -3 -45 -9c17 -63 71 -108 138 -108z" />
    <glyph glyph-name="uni0475" unicode="&#x475;" horiz-adv-x="646" 
d="M370 384c41 114 121 184 272 113l-43 -111c-68 28 -89 15 -116 -51l-133 -335h-152l-204 516h146l139 -377z" />
    <glyph glyph-name="uni0493" unicode="&#x493;" horiz-adv-x="495" 
d="M485 397h-256v-119h133v-103h-133v-175h-135v175h-90v103h90v238h391v-119z" />
    <glyph glyph-name="uni0495" unicode="&#x495;" horiz-adv-x="540" 
d="M312 305c128 0 213 -90 213 -240c0 -178 -109 -275 -247 -275c-23 0 -50 3 -77 10l18 119c15 -3 30 -6 50 -6c59 0 117 48 117 144c0 75 -39 125 -108 125c-26 0 -55 -6 -89 -19v-163h-135v516h411v-119h-276v-115c38 14 82 23 123 23z" />
    <glyph glyph-name="uni0497" unicode="&#x497;" horiz-adv-x="888" 
d="M759 119h117v-267h-127v148h-78l-124 199h-61v-199h-135v199h-61l-128 -199h-158l166 267l-149 249h148l121 -199h61v199h135v-199h61l122 199h148l-150 -249z" />
    <glyph glyph-name="uni0499" unicode="&#x499;" horiz-adv-x="528" 
d="M400 258c56 -26 86 -67 86 -117c0 -79 -65 -130 -159 -146v-143h-127v143c-70 10 -135 39 -178 82l74 91c47 -45 121 -62 167 -62c57 0 83 22 83 48c0 39 -42 49 -103 49h-75v110h75c61 0 103 10 103 49c0 26 -26 48 -83 48c-46 0 -120 -17 -167 -63l-74 92
c56 56 147 87 241 87c128 0 223 -55 223 -151c0 -51 -30 -91 -86 -117z" />
    <glyph glyph-name="uni049B" unicode="&#x49b;" horiz-adv-x="628" 
d="M486 119h130v-267h-127v148h-78l-150 199h-72v-199h-135v516h135v-199h72l148 199h148l-178 -249z" />
    <glyph glyph-name="uni049D" unicode="&#x49d;" horiz-adv-x="640" 
d="M434 267l194 -267h-162l-142 199h-4v-120h-95v120h-36v-199h-135v516h135v-199h36v120h95v-120h4l140 199h148z" />
    <glyph glyph-name="uni049F" unicode="&#x49f;" horiz-adv-x="595" 
d="M389 267l194 -267h-162l-150 199h-72v-199h-135v558h-74v102h74v80h135v-80h149v-102h-149v-241h72l148 199h148z" />
    <glyph glyph-name="uni04A1" unicode="&#x4a1;" horiz-adv-x="680" 
d="M474 266l194 -266h-161l-150 199h-72v-199h-135v397h-140v119h275v-199h72l148 199h148z" />
    <glyph glyph-name="uni04A3" unicode="&#x4a3;" horiz-adv-x="642" 
d="M558 119h72v-267h-127v148h-80v199h-234v-199h-135v516h135v-199h234v199h135v-397z" />
    <glyph glyph-name="uni04A5" unicode="&#x4a5;" horiz-adv-x="825" 
d="M815 516v-119h-257v-397h-135v199h-234v-199h-135v516h135v-199h234v199h392z" />
    <glyph glyph-name="uni0525" unicode="&#x525;" horiz-adv-x="632" 
d="M548 119h72v-267h-127v148h-80v397h-224v-397h-135v516h494v-397z" />
    <glyph glyph-name="uni04A7" unicode="&#x4a7;" horiz-adv-x="889" 
d="M661 305c128 0 214 -90 214 -240c0 -178 -110 -275 -247 -275c-24 0 -51 3 -78 10l18 119c15 -3 31 -6 50 -6c60 0 117 48 117 144c0 75 -38 125 -108 125c-26 0 -55 -6 -89 -19v-163h-135v397h-214v-397h-135v516h484v-235c43 16 85 24 123 24z" />
    <glyph glyph-name="uni04A9" unicode="&#x4a9;" horiz-adv-x="712" 
d="M700 0c-30 -7 -58 -10 -84 -10c-56 0 -107 12 -152 32c-45 -21 -98 -32 -155 -32c-157 0 -275 115 -275 271c0 161 119 273 276 273v-116c-82 0 -144 -62 -144 -157c0 -91 61 -155 143 -155c15 0 29 1 43 3c-40 49 -62 110 -62 175c0 125 82 191 173 191
s173 -66 173 -191c0 -67 -22 -127 -60 -176c13 -1 26 -2 40 -2c17 0 46 3 68 7zM409 284c0 -53 19 -97 55 -129c34 31 53 75 53 129c0 48 -23 80 -54 80s-54 -32 -54 -80z" />
    <glyph glyph-name="uni04AB" unicode="&#x4ab;" horiz-adv-x="584" 
d="M310 113c55 0 101 31 124 84l124 -43c-35 -84 -103 -139 -185 -157v-145h-127v145c-124 26 -212 130 -212 261c0 152 119 268 276 268c110 0 204 -59 248 -164l-124 -43c-23 53 -69 83 -124 83c-77 0 -136 -62 -136 -144c0 -83 59 -145 136 -145z" />
    <glyph glyph-name="uni04AD" unicode="&#x4ad;" horiz-adv-x="514" 
d="M493 397h-168v-278h72v-267h-127v148h-80v397h-169v119h472v-119z" />
    <glyph glyph-name="uni04AF" unicode="&#x4af;" horiz-adv-x="548" 
d="M418 516h136l-212 -538v-178h-135v178l-213 538h146l139 -376z" />
    <glyph glyph-name="uni04B1" unicode="&#x4b1;" horiz-adv-x="548" 
d="M554 516l-203 -516h117v-103h-126v-97h-135v97h-127v103h118l-204 516h146l139 -376l139 376h136z" />
    <glyph glyph-name="uni04B3" unicode="&#x4b3;" horiz-adv-x="599" 
d="M463 119h124v-267h-127v148h-78l-105 163l-108 -163h-157l187 255l-187 261h166l105 -163l108 163h157l-187 -255z" />
    <glyph glyph-name="uni04B5" unicode="&#x4b5;" horiz-adv-x="776" 
d="M190 0v397h-169v119h456v-119h-152v-278h234v397h135v-397h70v-267h-127v148h-447z" />
    <glyph glyph-name="uni04B7" unicode="&#x4b7;" horiz-adv-x="582" 
d="M498 119h72v-267h-127v148h-80v167c-30 -6 -74 -12 -122 -12c-171 0 -217 73 -217 213v148h135v-148c0 -62 23 -95 101 -95c35 0 75 5 103 11v232h135v-397z" />
    <glyph glyph-name="uni04B9" unicode="&#x4b9;" horiz-adv-x="553" 
d="M363 516h135v-516h-135v167c-15 -3 -32 -6 -52 -8v-112h-95v109c-151 7 -192 79 -192 212v148h135v-148c0 -48 14 -79 57 -90v127h95v-129c19 2 37 5 52 8v232z" />
    <glyph glyph-name="uni04BB" unicode="&#x4bb;" horiz-adv-x="608" 
d="M350 526c124 0 208 -90 208 -213v-313h-135v289c0 67 -48 114 -117 114c-67 0 -117 -47 -117 -114v-289h-135v740h135v-291c36 47 93 77 161 77z" />
    <glyph glyph-name="uni0527" unicode="&#x527;" horiz-adv-x="642" 
d="M558 119h72v-267h-127v148h-80v289c0 67 -48 114 -117 114c-67 0 -117 -47 -117 -114v-289h-135v740h135v-291c36 47 93 77 161 77c124 0 208 -90 208 -213v-194z" />
    <glyph glyph-name="uni04BD" unicode="&#x4bd;" horiz-adv-x="738" 
d="M433 526c172 0 293 -144 266 -316h-398c18 -61 70 -104 140 -104c56 0 103 27 129 72l110 -50c-45 -81 -130 -138 -242 -138c-141 0 -251 94 -272 223c-102 13 -166 70 -166 162c0 30 8 63 21 88h120c-12 -28 -18 -53 -18 -73c0 -36 15 -60 46 -70
c27 120 132 206 264 206zM433 410c-62 0 -111 -39 -130 -97h260c-18 58 -66 97 -130 97z" />
    <glyph glyph-name="uni04BF" unicode="&#x4bf;" horiz-adv-x="738" 
d="M433 526c172 0 293 -144 266 -316h-398c18 -61 70 -104 140 -104c56 0 103 27 129 72l110 -50c-36 -65 -98 -115 -179 -132v-144h-127v145c-110 23 -191 107 -208 216c-102 13 -166 70 -166 162c0 30 8 63 21 88h120c-12 -28 -18 -53 -18 -73c0 -36 15 -60 46 -70
c27 120 132 206 264 206zM433 410c-62 0 -111 -39 -130 -97h260c-18 58 -66 97 -130 97z" />
    <glyph glyph-name="uni04CF" unicode="&#x4cf;" horiz-adv-x="243" 
d="M54 0v740h135v-740h-135z" />
    <glyph glyph-name="uni04C2" unicode="&#x4c2;" horiz-adv-x="837" 
d="M418 572c-96 0 -164 62 -164 166h107c0 -47 19 -74 57 -74c40 0 58 27 58 74h107c0 -104 -68 -166 -165 -166zM667 267l166 -267h-162l-124 199h-61v-199h-135v199h-61l-128 -199h-158l166 267l-149 249h148l121 -199h61v199h135v-199h61l122 199h148z" />
    <glyph glyph-name="uni04C4" unicode="&#x4c4;" horiz-adv-x="582" 
d="M396 290c82 -36 129 -111 129 -233c0 -170 -109 -267 -247 -267c-23 0 -50 3 -77 10l18 119c15 -3 30 -6 50 -6c59 0 117 48 117 144c0 92 -39 142 -144 142h-53v-199h-135v516h135v-199h72l148 199h148z" />
    <glyph glyph-name="uni04C6" unicode="&#x4c6;" horiz-adv-x="658" 
d="M574 119h80l-90 -267h-127l51 148h-49v397h-185v-139c0 -180 -53 -267 -225 -267h-9v119h17c71 0 90 18 90 148v258h447v-397z" />
    <glyph glyph-name="uni04C8" unicode="&#x4c8;" horiz-adv-x="613" 
d="M423 516h135v-476c0 -153 -97 -250 -235 -250c-23 0 -50 3 -77 10l18 119c15 -3 31 -6 50 -6c67 0 109 48 109 119v167h-234v-199h-135v516h135v-199h234v199z" />
    <glyph glyph-name="uni04CA" unicode="&#x4ca;" horiz-adv-x="642" 
d="M558 119h80l-90 -267h-127l51 148h-49v199h-234v-199h-135v516h135v-199h234v199h135v-397z" />
    <glyph glyph-name="uni04CC" unicode="&#x4cc;" horiz-adv-x="553" 
d="M363 516h135v-516h-78v-148h-127v235h70v80c-30 -6 -74 -12 -122 -12c-171 0 -217 73 -217 213v148h135v-148c0 -62 23 -95 101 -95c35 0 75 5 103 11v232z" />
    <glyph glyph-name="uni04CE" unicode="&#x4ce;" horiz-adv-x="780" 
d="M687 119h89l-90 -267h-127l51 148h-50v322l-138 -322h-103l-138 321v-321h-127v516h175l146 -334l145 334h167v-397z" />
    <glyph glyph-name="uni04D1" unicode="&#x4d1;" horiz-adv-x="539" 
d="M267 572c-96 0 -164 62 -164 166h107c0 -47 18 -74 57 -74c40 0 58 27 58 74h107c0 -104 -68 -166 -165 -166zM270 526c125 0 220 -64 220 -200v-326h-135v63c-36 -43 -94 -73 -163 -73c-96 0 -168 57 -168 148c0 118 103 156 199 166l84 8c32 2 48 14 48 41
c0 38 -36 62 -84 62c-54 0 -89 -29 -98 -78l-134 30c14 89 99 159 231 159zM225 97c71 0 130 57 130 119v11c-9 -7 -24 -10 -46 -13l-87 -10c-39 -5 -63 -25 -63 -55c0 -31 25 -52 66 -52z" />
    <glyph glyph-name="uni04D3" unicode="&#x4d3;" horiz-adv-x="539" 
d="M152 581c-43 0 -78 36 -78 78s35 77 78 77c42 0 77 -35 77 -77s-35 -78 -77 -78zM383 581c-42 0 -77 36 -77 78s35 77 77 77c43 0 78 -35 78 -77s-35 -78 -78 -78zM270 526c125 0 220 -64 220 -200v-326h-135v63c-36 -43 -94 -73 -163 -73c-96 0 -168 57 -168 148
c0 118 103 156 199 166l84 8c32 2 48 14 48 41c0 38 -36 62 -84 62c-54 0 -89 -29 -98 -78l-134 30c14 89 99 159 231 159zM225 97c71 0 130 57 130 119v11c-9 -7 -24 -10 -46 -13l-87 -10c-39 -5 -63 -25 -63 -55c0 -31 25 -52 66 -52z" />
    <glyph glyph-name="uni04D5" unicode="&#x4d5;" horiz-adv-x="947" 
d="M659 526c162 0 276 -144 250 -316h-398c18 -61 70 -104 141 -104c56 0 103 27 128 72l111 -50c-44 -81 -121 -138 -228 -138c-76 0 -142 31 -189 82v-72h-119v63c-36 -43 -94 -73 -163 -73c-96 0 -168 57 -168 148c0 118 103 156 199 166l84 8c32 2 48 14 48 41
c0 38 -36 62 -84 62c-54 0 -89 -29 -98 -78l-134 30c14 89 99 159 231 159c86 0 157 -30 194 -92c46 57 115 92 195 92zM643 410c-61 0 -111 -39 -130 -97h261c-18 58 -66 97 -131 97zM225 97c71 0 130 57 130 119v11c-9 -7 -24 -10 -46 -13l-87 -10c-38 -5 -62 -25 -62 -55
c0 -31 25 -52 65 -52z" />
    <glyph glyph-name="uni04D7" unicode="&#x4d7;" horiz-adv-x="610" 
d="M305 572c-96 0 -164 62 -164 166h107c0 -47 19 -74 57 -74c40 0 58 27 58 74h107c0 -104 -68 -166 -165 -166zM305 526c173 0 294 -144 266 -316h-398c18 -61 70 -104 141 -104c56 0 103 27 128 72l111 -50c-45 -81 -131 -138 -243 -138c-157 0 -276 116 -276 268
s117 268 271 268zM305 410c-61 0 -111 -39 -130 -97h261c-18 58 -67 97 -131 97z" />
    <glyph glyph-name="uni04D9" unicode="&#x4d9;" horiz-adv-x="610" 
d="M300 526c157 0 276 -116 276 -268s-117 -268 -271 -268c-172 0 -293 144 -266 316h398c-18 61 -70 104 -141 104c-55 0 -102 -27 -128 -73l-111 51c46 80 131 138 243 138zM305 106c61 0 111 39 130 97h-260c18 -58 66 -97 130 -97z" />
    <glyph glyph-name="uni04DB" unicode="&#x4db;" horiz-adv-x="610" 
d="M185 581c-43 0 -78 36 -78 78s35 77 78 77c42 0 77 -35 77 -77s-35 -78 -77 -78zM416 581c-42 0 -77 36 -77 78s35 77 77 77c43 0 78 -35 78 -77s-35 -78 -78 -78zM300 526c157 0 276 -116 276 -268s-117 -268 -271 -268c-172 0 -293 144 -266 316h398
c-18 61 -70 104 -141 104c-55 0 -102 -27 -128 -73l-111 51c46 80 131 138 243 138zM305 106c61 0 111 39 130 97h-260c18 -58 66 -97 130 -97z" />
    <glyph glyph-name="uni04DD" unicode="&#x4dd;" horiz-adv-x="837" 
d="M303 581c-43 0 -78 36 -78 78s35 77 78 77c42 0 77 -35 77 -77s-35 -78 -77 -78zM534 581c-42 0 -77 36 -77 78s35 77 77 77c43 0 78 -35 78 -77s-35 -78 -78 -78zM667 267l166 -267h-162l-124 199h-61v-199h-135v199h-61l-128 -199h-158l166 267l-149 249h148l121 -199
h61v199h135v-199h61l122 199h148z" />
    </font>
</defs>
</svg>
