<svg version="1.1" id="Layer_1" xmlns="http://www.w3.org/2000/svg" x="0" y="0" viewBox="0 0 800 120" style="enable-background:new 0 0 800 120" xml:space="preserve"><style>.st0{fill:#fff}</style><g id="Desktop"><g id="Group-4" transform="translate(11 26)"><g id="TOP-ROW"><g id="ipad" transform="translate(0 1)"><path id="Shape" class="st0" d="M16.4 15.5c-.3.7-.7 1.3-1.1 1.9-.6.8-1 1.3-1.4 1.7-.6.5-1.1.8-1.8.8-.4 0-1-.1-1.6-.4-.6-.3-1.2-.4-1.8-.4-.6 0-1.2.1-1.8.4-.7.3-1.2.4-1.6.4-.6 0-1.2-.2-1.8-.8-.4-.3-.9-.9-1.4-1.7-.6-.9-1.1-1.9-1.5-3-.4-1.3-.6-2.5-.6-3.7 0-1.3.3-2.5.9-3.4.4-.8 1.1-1.4 1.8-1.8.7-.5 1.5-.7 2.4-.7.5 0 1.1.1 1.9.4.8.3 1.3.4 1.5.4.2 0 .7-.2 1.7-.5.9-.3 1.7-.4 2.3-.4 1.7.1 2.9.8 3.8 2-1.5.9-2.2 2.2-2.2 3.8 0 1.3.5 2.3 1.4 3.2.4.4.9.7 1.4.9-.3.3-.4.6-.5.9zM12.6.4c0 1-.4 1.9-1.1 2.8-.9 1-1.9 1.6-3.1 1.5v-.4c0-1 .4-2 1.1-2.8.4-.4.8-.8 1.4-1.1.6-.2 1.1-.3 1.7-.4-.1.1 0 .3 0 .4z"/><g id="Group" transform="translate(19.31 1.724)"><path id="Shape_1_" class="st0" d="M.1 1.7C.1.9.8.2 1.6.2s1.5.7 1.5 1.5-.7 1.5-1.5 1.5S.1 2.5.1 1.7zm.2 3.5h2.6V18H.3V5.2z"/><path id="Shape_2_" class="st0" d="M11.9.5c3.4 0 5.8 2.3 5.8 5.8S15.2 12 11.8 12H8v6H5.3V.5h6.6zM8 9.8h3.1c2.4 0 3.7-1.3 3.7-3.5s-1.3-3.5-3.7-3.5H8v7z"/><path id="Shape_3_" class="st0" d="M17.6 14.4c0-2.2 1.7-3.6 4.7-3.8l3.5-.2v-1c0-1.4-1-2.3-2.6-2.3-1.5 0-2.4.7-2.7 1.9H18c.1-2.3 2.1-4 5.3-4 3.1 0 5.1 1.6 5.1 4.2V18h-2.5v-2.1h-.1c-.7 1.4-2.3 2.3-4 2.3-2.5 0-4.2-1.5-4.2-3.8zm8.2-1.2v-1l-3.1.2c-1.6.1-2.4.8-2.4 1.9s.9 1.8 2.3 1.8c1.7 0 3.2-1.2 3.2-2.9z"/><path id="Shape_4_" class="st0" d="M29.7 11.6c0-4 2.1-6.6 5.3-6.6 1.8 0 3.3.9 4 2.3V.5h2.6V18H39v-2.2c-.8 1.4-2.2 2.4-4.1 2.4-3 0-5.2-2.5-5.2-6.6zm2.7 0c0 2.7 1.3 4.4 3.4 4.4 2 0 3.3-1.7 3.3-4.4s-1.3-4.4-3.3-4.4c-2.1 0-3.4 1.8-3.4 4.4z"/></g></g><g id="android" transform="translate(283 1)"><path id="Shape_5_" class="st0" d="M0 12.5c0-1 .2-2 .5-2.9.4-.9.9-1.7 1.5-2.3s1.4-1.2 2.3-1.6c.9-.4 1.8-.6 2.9-.6.8 0 1.5.1 2.2.4s1.3.6 1.9 1.1V5.4h3.5v14.3h-3.5v-1.2c-.6.5-1.2.9-1.9 1.1-.8.3-1.5.4-2.3.4-1 0-2-.2-2.9-.6-.8-.4-1.6-.9-2.2-1.6-.6-.7-1.1-1.5-1.5-2.4-.3-.8-.5-1.8-.5-2.9zm7.6 4.1c.3 0 .6 0 .9-.1l.9-.3c.3-.1.6-.3.9-.6s.6-.5.9-.9v-4.5c-.3-.4-.6-.7-.9-.9-.3-.1-.6-.3-.9-.5s-.7-.2-1-.3c-.3 0-.6-.1-.8-.1-.6 0-1.1.1-1.6.3s-.9.5-1.2.9c-.4.4-.6.8-.8 1.3s-.3 1-.3 1.6c0 .6.1 1.1.3 1.6s.5.9.8 1.3c.4.4.8.7 1.2.9.5.2 1 .3 1.6.3zm15.9-8c-1.7 0-3.1 1.2-3.1 2.9v8.2h-3.5v-8.1c0-3.4 2.9-6.5 6.6-6.6h.1c3.7 0 6.6 3.2 6.6 6.6v8.1h-3.5v-8.1c-.1-1.8-1.5-3-3.2-3m8.4 3.9c0-1 .2-2 .5-2.9.3-.9.8-1.7 1.5-2.4.6-.7 1.4-1.2 2.3-1.6.8-.3 1.7-.5 2.8-.5.8 0 1.5.1 2.2.4.6.2 1.3.6 1.9 1.1V1.1h3.5v18.6H43v-1.2c-.6.5-1.2.9-1.9 1.1-.6.3-1.4.4-2.1.4-1 0-2-.2-2.9-.6-.9-.4-1.6-.9-2.3-1.6-.6-.7-1.1-1.5-1.5-2.4-.3-.8-.4-1.8-.4-2.9zm7.5 4.1c.3 0 .6 0 .9-.1l.9-.3c.3-.1.6-.3.9-.6s.6-.5.9-.9v-4.5c-.3-.4-.6-.7-.9-.9l-.9-.6c-.3-.1-.6-.3-.9-.3-.3-.1-.6-.1-.9-.1-.5 0-1.1.1-1.5.3s-.9.6-1.3 1-.6.8-.8 1.3c-.2.5-.3 1-.3 1.6 0 .6.1 1.1.3 1.6.2.5.5.9.8 1.3.4.4.8.7 1.2.9.6.2 1.1.3 1.6.3zm23.7 0c.5 0 1-.1 1.5-.3.5-.2.9-.5 1.2-.8.3-.4.6-.8.8-1.3.2-.5.3-1.1.3-1.7 0-.6-.1-1.1-.3-1.6-.2-.5-.5-.9-.8-1.3-.4-.4-.8-.6-1.2-.8-.5-.2-1-.3-1.5-.3s-1 .1-1.5.3c-.5.2-.9.5-1.2.9-.3.4-.6.8-.8 1.3-.2.5-.3 1-.3 1.6 0 .6.1 1.2.3 1.7.2.5.5.9.8 1.3.3.4.8.7 1.2.8.4.1 1 .2 1.5.2zm0 3.4c-1 0-2-.2-2.9-.6-.9-.4-1.7-.9-2.4-1.6-.7-.7-1.2-1.5-1.6-2.4-.4-.9-.6-1.9-.6-3 0-1 .2-2 .6-2.9.4-.9.9-1.7 1.6-2.4.7-.7 1.5-1.2 2.4-1.6.9-.4 1.9-.6 2.9-.6s2 .2 2.9.6c.9.4 1.7.9 2.4 1.6s1.2 1.5 1.6 2.4c.4.9.6 1.9.6 2.9 0 1.1-.2 2.1-.6 3-.4.9-.9 1.7-1.6 2.4-.7.7-1.5 1.2-2.4 1.6-.9.4-1.9.6-2.9.6zM73.9 4.3c-.3 0-.6-.1-.8-.2-.3-.1-.5-.3-.7-.5-.1-.2-.3-.4-.4-.6-.1-.3-.2-.5-.2-.8 0-.3.1-.6.2-.8.1-.3.3-.5.5-.7.2-.2.4-.3.7-.5.2-.1.5-.2.7-.2.3 0 .6.1.8.2.3.1.5.3.7.5.2.2.3.4.5.7.1.3.2.5.2.8s-.1.5-.2.8c-.1.3-.3.5-.5.7-.2.1-.4.3-.6.4-.3.1-.6.2-.9.2zm-1.7 1.1h3.5v14.3h-3.5V5.4zm5.1 7.1c0-1 .2-2 .5-2.9.3-.9.8-1.7 1.5-2.4.6-.7 1.4-1.2 2.3-1.6.9-.4 1.8-.6 2.9-.6.8 0 1.5.1 2.2.4s1.3.6 1.9 1.1V1.1H92v18.6h-3.5v-1.2c-.6.5-1.2.9-1.9 1.1s-1.4.4-2.2.4c-1 0-2-.2-2.9-.6-.9-.4-1.6-.9-2.3-1.6-.6-.7-1.1-1.5-1.5-2.4-.2-.8-.4-1.8-.4-2.9zm7.6 4.1c.3 0 .6 0 .9-.1l.9-.3c.3-.1.6-.3.9-.6.3-.2.6-.5.9-.9v-4.5c-.3-.4-.6-.7-.9-.9-.3-.1-.6-.3-.9-.5-.3-.1-.6-.3-.9-.3-.3-.1-.6-.1-.9-.1-.5 0-1.1.1-1.5.3-.5.2-.9.5-1.2.9-.4.4-.6.8-.8 1.3-.2.5-.3 1-.3 1.6 0 .6.1 1.1.3 1.6.2.5.5.9.8 1.3.4.4.8.7 1.2.9.4.2.9.3 1.5.3zm-29.7-8c-2.4 0-3.4 1.2-3.4 3v8.2h-3.5v-8.1c0-3.4 1.9-6.7 7-6.7"/></g><g id="apple-tv" transform="translate(209)"><path id="Shape_6_" class="st0" d="M26 1.8v3.4h4.3v1.2H26v10.1c0 1 .2 1.8.5 2.4.3.5.9.8 1.7.8.4 0 .7 0 1-.1.3 0 .5-.1.7-.2l.2 1.2c-.5.2-1.2.4-2.1.4-.7 0-1.3-.1-1.8-.4-.5-.2-.8-.6-1.1-1-.3-.4-.5-.9-.6-1.5-.1-.6-.2-1.2-.2-1.9V6.5h-2.6V5.2h2.6V2.4l1.7-.6zm6.9 3.4 3.6 9.6c.3.8.6 1.5.8 2.1.2.7.5 1.3.7 2 .2-.6.4-1.3.7-1.9.2-.7.5-1.4.8-2.1l3.6-9.6h1.6l-6.2 15.4h-1.3l-6-15.4h1.7z"/><path id="Shape_7_" class="st0" d="M9.6 1.8C11 0 12.9 0 12.9 0s.3 1.7-1.1 3.4c-1.5 1.8-3.2 1.5-3.2 1.5s-.3-1.5 1-3.1zM8.8 6c.7 0 2.1-1 3.8-1 3 0 4.2 2.1 4.2 2.1s-2.3 1.2-2.3 4c0 3.2 2.9 4.3 2.9 4.3s-2 5.6-4.7 5.6c-1.2 0-2.2-.8-3.5-.8-1.3 0-2.7.9-3.5.9C3.1 21 0 15.7 0 11.5c0-4.2 2.6-6.4 5.1-6.4 1.6 0 2.9.9 3.7.9z"/></g><g id="iphone" transform="translate(91 1)"><path id="Shape_8_" class="st0" d="M16.4 15.5c-.3.7-.7 1.3-1.1 1.9-.6.8-1 1.4-1.4 1.7-.5.5-1.1.8-1.8.8-.5 0-1-.1-1.6-.4-.6-.3-1.2-.5-1.7-.5-.6 0-1.2.1-1.8.4s-1.2.4-1.6.4c-.6 0-1.2-.2-1.8-.8-.4-.3-.9-.9-1.4-1.7-.6-.9-1.1-1.9-1.5-3-.5-1.2-.7-2.4-.7-3.6 0-1.3.3-2.5.9-3.4.5-.8 1.1-1.4 1.8-1.8s1.6-.7 2.4-.7c.5 0 1.1.1 1.9.4.8.3 1.3.4 1.5.4.2 0 .7-.2 1.7-.5.9-.3 1.6-.5 2.3-.4 1.7.1 2.9.8 3.8 2-1.6.9-2.3 2.2-2.3 3.8 0 1.3.5 2.3 1.4 3.2.4.4.9.7 1.4.9-.2.3-.3.6-.4.9zM12.5.4c0 1-.4 1.9-1.1 2.8-.9 1-1.9 1.6-3.1 1.5v-.4c0-1 .4-2 1.2-2.8.4-.4.8-.8 1.4-1.1.6-.2 1.1-.4 1.6-.4v.4z"/><g id="Group_1_" transform="translate(19.31 1.724)"><path id="Shape_9_" class="st0" d="M.1 1.7C.1.9.8.2 1.6.2s1.5.7 1.5 1.5-.7 1.5-1.5 1.5S.1 2.5.1 1.7zm.2 3.6h2.6V18H.3V5.3z"/><path id="Shape_10_" class="st0" d="M11.9.5c3.4 0 5.8 2.3 5.8 5.7 0 3.4-2.4 5.8-5.8 5.8H8v6H5.3V.5h6.6zM8 9.7h3.1c2.4 0 3.7-1.3 3.7-3.5s-1.3-3.5-3.7-3.5H8v7z"/><path id="Path" class="st0" d="M19.2.5h2.6v6.9h.1c.7-1.5 2.1-2.4 4-2.4 2.8 0 4.5 1.9 4.5 4.8V18h-2.6v-7.7c0-1.9-.9-3-2.8-3s-3.1 1.3-3.1 3.3V18h-2.6V.5h-.1z"/><path id="Shape_11_" class="st0" d="M31.7 11.6c0-4.1 2.4-6.6 6-6.6s6 2.5 6 6.6-2.4 6.6-6 6.6-6-2.5-6-6.6zm9.4 0c0-2.8-1.3-4.4-3.4-4.4-2 0-3.4 1.6-3.4 4.4 0 2.8 1.3 4.5 3.4 4.5 2.1 0 3.4-1.6 3.4-4.5z"/><path id="Path_1_" class="st0" d="M45.2 5.3h2.5v2.1h.1c.7-1.5 2-2.4 4-2.4 2.8 0 4.4 1.8 4.4 4.7V18h-2.6v-7.7c0-1.9-.9-3-2.7-3-1.8 0-3 1.3-3 3.3V18h-2.6V5.3h-.1z"/><path id="Shape_12_" class="st0" d="M69 14.3c-.4 2.3-2.6 4-5.5 4-3.7 0-6-2.5-6-6.6 0-4 2.3-6.7 5.9-6.7 3.5 0 5.7 2.5 5.7 6.4v.9h-9v.2c0 2.2 1.3 3.7 3.4 3.7 1.5 0 2.6-.8 2.9-1.9H69zm-8.9-3.8h6.4c-.1-2-1.3-3.3-3.1-3.3-1.8-.1-3.1 1.3-3.3 3.3z"/></g></g><g id="android-tv" transform="translate(404 1)"><g id="g33668" transform="matrix(1 0 0 -1 0 21.542)"><g id="g33674" transform="translate(.22 .661)"><path id="path33676" class="st0" d="M8.2 3.7C5.9 3.7 4 5.4 4 7.6c0 2.1 1.9 3.9 4.2 3.9 1.5 0 3.1-.7 3.7-1.8.1-.1.1-.2.1-.3V5.9c0-.1 0-.2-.1-.3-.7-1.2-2.1-1.9-3.7-1.9m7.6-3v13.9H12v-1.1c-1 .9-2.5 1.4-4.2 1.4-4.3 0-7.5-3.2-7.5-7.2S3.6.4 7.8.4C9.6.4 11 .9 12 1.9V.7h3.8zM32 .7v7.5c0 3.7-3.1 6.7-7.1 6.7-4 0-7.1-3-7.1-6.7V.7h3.7v7.5c0 1.8 1.4 3.2 3.4 3.2s3.4-1.4 3.4-3.2V.7H32zm9.5 3c-2.3 0-4.2 1.8-4.2 4 0 2.1 1.9 3.9 4.2 3.9 1.5 0 3-.7 3.7-1.8 0-.1.1-.2.1-.3V5.9c0-.1 0-.2-.1-.2-.6-1.3-2.1-2-3.7-2m7.6-3v18.1h-3.7v-5.3c-1 .9-2.5 1.5-4.2 1.5-4.3 0-7.5-3.2-7.5-7.2S37 .5 41.2.5c1.7 0 3.2.5 4.2 1.5V.7h3.7zm5.7 0v7.4c0 2.2 1.3 3.4 3.7 3.4v3.4c-4.8 0-7.4-2.4-7.4-6.7V.7h3.7zm11.9 3.1c-2.3 0-4.1 1.7-4.1 3.8s1.8 3.8 4.1 3.8 4.1-1.7 4.1-3.8c0-2.1-1.8-3.8-4.1-3.8m0-3.4c4.4 0 7.9 3.2 7.9 7.3 0 4-3.6 7.2-7.9 7.2-4.4 0-7.9-3.2-7.9-7.2-.1-4.1 3.5-7.3 7.9-7.3m11.4 15.2c1.2 0 2.2.9 2.2 2s-1 2-2.2 2c-1.2 0-2.2-.9-2.2-2 .1-1.1 1.1-2 2.2-2m1.9-1h-3.7V.7H80v13.9zm9.7-10.9c-2.3 0-4.2 1.8-4.2 4 0 2.1 1.9 3.9 4.2 3.9 1.5 0 3-.7 3.7-1.8 0-.1.1-.2.1-.3V5.9c0-.1 0-.2-.1-.2-.7-1.3-2.1-2-3.7-2m7.5-3v18.1h-3.7v-5.3c-1 .9-2.5 1.5-4.2 1.5-4.3 0-7.5-3.2-7.5-7.2S85.1.5 89.3.5c1.7 0 3.2.5 4.2 1.5V.7h3.7z"/></g><g id="g33678" transform="translate(100.03 .75)"><path id="path33680" class="st0" d="m17.1.6 6.1 13.9h-3.1l-5-12.1h1l-5 12H8L14.1.5h3zM7.2.4v2.5h-.3c-2.2 0-3.7 1.2-3.7 3.3v6.1h3.9v2.3h-4v3.8H.4V6.1C.4 2.5 2.9.4 6.9.4h.3z"/></g></g></g><g id="chromecast" transform="translate(556 2)"><path id="Shape_13_" class="st0" d="M28 11.3c0-2.4 1.7-4.2 4-4.2 1.9 0 2.9 1.1 3.4 2.2l-1.3.7c-.3-1-1.1-1.5-2.2-1.5-1.3 0-2.4 1.1-2.4 2.9 0 1.7 1.2 2.9 2.4 2.9 1.1 0 1.9-.6 2.3-1.5l1.3.6c-.5 1.1-1.6 2.2-3.5 2.2-2.3-.1-4-2-4-4.3zm10.1-3.9L38 8.5h.1c.4-.7 1.4-1.3 2.5-1.3 2 0 3 1.3 3 3.3v4.8h-1.5v-4.6c0-1.6-.8-2.2-1.9-2.2-1.3 0-2.1 1.2-2.1 2.4v4.3h-1.5V3.8h1.5v3.6zm7 7.8V7.4h1.4v1.3h.1c.3-.9 1.5-1.5 2.3-1.5.5 0 .8.1 1.1.2l-.6 1.4c-.2-.1-.5-.1-.8-.1-1 0-2 .8-2 2.3v4.3h-1.5zm13-3.9c0 2.4-1.7 4.2-4 4.2-2.4 0-4-1.8-4-4.2s1.7-4.2 4-4.2 4 1.8 4 4.2zm-1.5 0c0-1.8-1.3-2.9-2.6-2.9s-2.6 1-2.6 2.9 1.3 2.9 2.6 2.9c1.3-.1 2.6-1.1 2.6-2.9zm2.6-3.9h1.4v1.1h.1c.4-.8 1.5-1.3 2.4-1.3 1.3 0 2.1.6 2.5 1.5.6-.9 1.5-1.5 2.7-1.5 1.9 0 2.8 1.3 2.8 3.3v4.8h-1.5v-4.6c0-1.6-.6-2.2-1.7-2.2-1.2 0-2 1.2-2 2.4v4.3h-1.5v-4.6c0-1.6-.6-2.2-1.7-2.2-1.2 0-2 1.2-2 2.4v4.3h-1.5V7.4zm13 3.9c0-2.2 1.5-4.2 3.8-4.2s3.8 1.7 3.8 4.2v.3h-6.2c.1 1.7 1.3 2.6 2.5 2.6.8 0 1.7-.3 2.2-1.3l1.3.6c-.5 1.1-1.6 2.2-3.4 2.2-2.4-.2-4-2.1-4-4.4zM76 8.5c-1.1 0-1.9.8-2.2 1.9h4.5c-.1-.7-.6-1.9-2.3-1.9zm4.7 2.8c0-2.4 1.7-4.2 4-4.2 1.9 0 2.9 1.1 3.4 2.2l-1.3.6c-.3-.9-1.1-1.5-2.2-1.5-1.3 0-2.4 1.1-2.4 2.9 0 1.7 1.2 2.9 2.4 2.9 1.1 0 1.9-.6 2.3-1.5l1.3.6c-.5 1.1-1.6 2.2-3.5 2.2-2.4 0-4-1.9-4-4.2zm8.3 1.6c0-1.7 1.6-2.7 3.4-2.7 1 0 1.8.3 2.1.5v-.3c0-1.2-1-1.9-2-1.9-.8 0-1.6.4-1.9 1.1L89.3 9c.3-.7 1.2-1.9 3.2-1.9 1.9 0 3.5 1.1 3.5 3.3v4.7h-1.4V14h-.1c-.4.6-1.3 1.3-2.6 1.3-1.6.2-2.9-.8-2.9-2.4zm5.5-1.1s-.6-.5-1.9-.5c-1.5 0-2.2.8-2.2 1.5 0 .8.8 1.3 1.6 1.3 1.3 0 2.5-.9 2.5-2.3zm2.4 1.4 1.3-.6c.4 1 1.2 1.5 2.1 1.5s1.5-.4 1.5-1.1c0-.4-.2-.8-1-1l-1.6-.3c-.7-.2-2.1-.8-2.1-2.2s1.5-2.3 3.1-2.3c1.3 0 2.5.6 3 1.8l-1.3.6c-.3-.8-1-1-1.8-1s-1.5.3-1.5 1c0 .5.4.8 1 .9l1.5.3c1.5.3 2.2 1.3 2.2 2.3 0 1.4-1.3 2.4-3.1 2.4s-2.9-1.2-3.3-2.3zm8.3-.4V8.7h-1.4V7.4h1.4V5h1.5v2.4h1.9v1.3h-1.9v4c0 .9.3 1.3 1 1.3.3 0 .5 0 .7-.1l.5 1.3c-.3.1-.7.2-1.2.2-1.6-.1-2.5-1-2.5-2.6zm-84.1-6h-7.5C15 7.7 16 9.2 16 11c0 .3-.1.8-.1 1.1v.1c-.1.6-.3 1-.6 1.5L10.5 22h.4c6.1 0 11-4.9 11-11 0-1.5-.3-3-.8-4.2zM11 15.9c-1.4 0-2.7-.6-3.6-1.5-.3-.3-.6-.7-.9-1.1l-.1-.1-4.7-8C.6 6.8 0 8.8 0 11c0 5.6 4.2 10.2 9.6 10.9l3.8-6.5c-.7.3-1.6.5-2.4.5zM11 0C7.4 0 4.2 1.7 2.2 4.5L6 10.9v.2-.2C6 8.5 7.8 6.4 10.1 6h.1c.4-.1.8-.1 1.3-.1h9.3C18.9 2.4 15.2 0 11 0zm4 11c0 2.2-1.8 4-4 4s-4-1.8-4-4 1.8-4 4-4 4 1.8 4 4z"/></g><g id="Asset-1" transform="translate(687 2)"><g id="PSFM_R-link" transform="translate(.946 .946)"><g id="PSFM_R"><path id="Path_2_" class="st0" d="M9.6 0v18.6l4.2 1.3V4.3c0-.7.3-1.2.9-1.1.7.2.8.9.8 1.6V11c2.6 1.3 4.7 0 4.7-3.3 0-3.4-1.2-4.9-4.8-6.2C13.5.9 11.6.4 9.6 0"/><path id="Path_3_" class="st0" d="m14.6 17.2 6.7-2.4c.8-.3.9-.7.3-.9-.6-.2-1.7-.1-2.5.1l-4.5 1.6v-2.5l.3-.1c1-.3 2.1-.5 3.1-.7 2-.2 4 0 5.8.7 2 .6 2.2 1.5 1.7 2.2-.5.6-1.7 1.1-1.7 1.1l-9.2 3.3v-2.4z"/><path id="Path_4_" class="st0" d="M1.9 16.9c-2-.6-2.4-1.8-1.4-2.5.9-.6 2.3-1.1 2.3-1.1l6-2.1v2.4l-4.3 1.5c-.8.3-.9.7-.3.9.6.2 1.7.2 2.5-.1l2.1-.7v2.2l-.4.1c-2.2.3-4.4.1-6.5-.6z"/><path id="Shape_14_" class="st0" d="M24.5 17.9c.7 0 1.3.6 1.3 1.4 0 .7-.6 1.4-1.4 1.3-.7 0-1.4-.6-1.4-1.4 0-.4.1-.7.4-1 .4-.2.7-.3 1.1-.3zm0 2.5c.5 0 .9-.3 1.1-.7.2-.4.1-.9-.2-1.3-.3-.3-.8-.4-1.3-.3-.4.2-.7.6-.7 1.1 0 .3.1.6.3.8.2.3.5.4.8.4zm-.5-1.9h.6c.3 0 .5.1.5.4 0 .2-.1.3-.3.4.1 0 .2.1.2.3.1.2.1.3.2.5h-.3c0-.1-.1-.3-.1-.4 0-.2-.1-.2-.3-.2h-.2v.5H24v-1.5zm.2.7h.2c.2 0 .3-.1.3-.3s-.1-.2-.3-.2h-.3v.5z"/></g></g><path id="Path_5_" class="st0" d="M70.7 6.1V5s0-.1-.1-.1h-7.8c-2.3 0-3.4 1.4-3.4 3.2v5.5c0 1.1-.5 1.9-1.7 1.9h-7.3s-.1 0-.1.1v1.1s0 .1.1.1h8.2c2.3 0 3.4-1.4 3.4-3.2V8.1c0-1.1.5-1.9 1.7-1.9l7-.1c-.1.1 0 .1 0 0z"/><path id="Path_6_" class="st0" d="M47.6 4.9H33.4s-.1 0-.1.1V6.2h13.4c1.1 0 1.7.8 1.7 1.9s-.5 1.9-1.7 1.9H36.2c-1.6 0-2.9 1.4-2.9 3.2v3.6h2.5s.1 0 .1-.1v-3.5c0-1.1.6-1.9 1.6-1.9h10.1c2.3 0 3.4-1.4 3.4-3.2s-1.2-3.2-3.4-3.2z"/><path id="Shape_15_" class="st0" d="M89.1 14.3h-2.4s-.1 0-.1-.1v-8c0-1.2-.9-1.6-2.1-.9l-14.4 8.8c-.6.3-.8.7-.6 1 .1.3.4.4 1.1.4H84s.1 0 .1.1v1.1s0 .1.1.1h2.4s.1 0 .1-.1v-1.1s0-.1.1-.1h2.5c.1 0 0 0 0-.1l-.2-1.1c.1.1.1 0 0 0 .1 0 0 0 0 0zm-5-.1c0 .1-.1.1 0 0l-11.3.1c-.1 0-.1 0-.1-.1s0-.1.1-.1l11.1-6.9c.1 0 .2 0 .2.1v6.9z"/><path id="Path_7_" class="st0" d="M90.9 15.7h-.4v-.2h1v.2h-.4v1.2h-.2z"/><path id="Path_8_" class="st0" d="m92.3 16.7.4-1.2h.3v1.4h-.2v-1.2l-.4 1.2h-.2l-.4-1.2v1.2h-.1v-1.4h.2z"/></g></g><g id="BOT-ROW" transform="translate(13 46)"><g id="fire-tv" transform="translate(83)"><path id="Path_9_" class="st0" d="M44.5 24.2c-4.7 3.5-11.5 5.3-17.4 5.3-8.2 0-15.7-3-21.3-8.1-.4-.4 0-.9.5-.6 6.1 3.5 13.6 5.6 21.3 5.6 5.2 0 11-1.1 16.2-3.3.8-.3 1.4.5.7 1.1z"/><path id="Path_10_" class="st0" d="M46.4 22c-.6-.8-4-.4-5.5-.2-.5.1-.5-.3-.1-.6 2.7-1.9 7.1-1.3 7.6-.7.5.6-.1 5.1-2.7 7.2-.4.3-.8.2-.6-.3.6-1.5 1.9-4.7 1.3-5.4z"/><path id="Shape_16_" class="st0" d="M27.2 7c2.7 0 2.6 2.3 2.6 3.3h-5.6c.1-1.8.9-3.3 3-3.3zm4.2 4.8c.3 0 .4-1.1.4-1.6.1-3.4-1.7-5-4.6-5-1.6 0-3.1.6-4 1.7-.9 1-1.3 2.5-1.3 4.4 0 1.9.4 3.3 1.3 4.3s2.2 1.7 4.4 1.7c.9 0 2.5-.2 3.6-.7.4-.1.4-.3.4-.7v-.6c0-.3-.1-.5-.5-.4-1.2.4-2.4.6-3.1.6-1.3 0-2.3-.4-3-1.1-.6-.8-.8-1.6-.8-2.7 2.4.1 4.8.1 7.2.1z"/><path id="Path_11_" class="st0" d="M4.4 5.6V3.3c0-1.8 1.8-1.6 2.9-1.4.5.1.7 0 .7-.4V.8c0-.4-.1-.5-.7-.6-2.8-.5-5.2 0-5.2 3.6v1.9l-1.6.1c-.4 0-.5.2-.5.5v.6c0 .3.1.4.4.4h1.7v9.3c0 .3.1.4.4.4h1.4c.3 0 .4-.1.4-.4V7.3h3c.3 0 .4-.1.4-.4V6c0-.3-.1-.4-.4-.4H4.4z"/><path id="Shape_17_" class="st0" d="M11.6 5.6h-1.3c-.4 0-.5.1-.5.4v10.6c0 .3.1.4.4.4h1.3c.3 0 .4-.1.4-.4V6c.1-.2 0-.4-.3-.4zM10.9.8c-.8 0-1.4.5-1.4 1.4 0 .9.6 1.4 1.4 1.4s1.4-.5 1.4-1.4c0-.9-.5-1.4-1.4-1.4z"/><path id="Path_12_" class="st0" d="M50.2 17h-1.4c-.3 0-.5-.1-.6-.4L44 6.1c-.1-.3 0-.5.3-.5h1.5c.3 0 .4.2.5.4l3.1 8.9L52.6 6c.1-.3.3-.4.6-.4h1.4c.4 0 .5.2.3.5l-4.2 10.5c-.1.2-.2.4-.5.4z"/><path id="Path_13_" class="st0" d="M37 14.1c0 2.7 1.8 3.1 3.2 3.1.7 0 1.3-.1 1.9-.2.7-.2.7-.3.7-.6v-.8c0-.3-.2-.4-.5-.3-.5.1-.9.1-1.4.2-1.5-.1-1.6-.6-1.6-2v-6h3c.3 0 .4-.1.4-.4V6c0-.3-.1-.4-.4-.4h-3V2.8c0-.3-.1-.4-.4-.4H38c-.3 0-.5.1-.6.5l-.3 2.8-1.7.2c-.3 0-.5.2-.5.6V7c0 .3.2.4.4.4H37v6.7z"/><path id="Path_14_" class="st0" d="M17.1 7.2 17 5.9c-.1-.3-.3-.4-.5-.4h-1c-.4.1-.5.2-.5.5v10.6c0 .3.1.4.4.4h1.3c.3 0 .4-.1.4-.4v-8c.9-.6 1.6-1.1 3.3-1.1.4 0 1 .2 1-.3V5.9c0-.3-.2-.5-.7-.5-1.3.1-2.2.4-3.6 1.8z"/></g><g id="Fire"><path id="Shape_18_" class="st0" d="M36.1 9.2c3.5 0 3.5 3.1 3.4 4.4H32c.2-2.3 1.3-4.4 4.1-4.4zm5.7 6.5c.4 0 .5-1.5.5-2.1.2-4.5-2.2-6.6-6-6.6-2.1 0-4.1.8-5.3 2.2-1.1 1.3-1.8 3.3-1.8 5.8s.6 4.4 1.7 5.8C32 22 33.7 23 36.7 23c1.1 0 3.4-.3 4.7-.9.5-.2.5-.4.5-.9v-.8c0-.4-.2-.6-.7-.4-1.6.5-3.2.8-4.2.8-1.7 0-3.1-.4-3.9-1.4-.8-1.1-1.1-2.2-1.2-3.5 3.3-.2 6.6-.2 9.9-.2z"/><path id="Path_15_" class="st0" d="M5.8 7.4v-3c0-2.4 2.4-2 3.9-1.9.6.1.9 0 .9-.5V1c0-.4-.2-.7-.9-.8C6-.4 2.8.3 2.8 5v2.5l-2.2.2c-.4.1-.6.2-.6.7v.8c0 .4.2.5.6.5h2.2V22c0 .4.2.6.6.6h1.8c.4 0 .6-.2.6-.6V9.7h4.1c.4 0 .6-.2.6-.6V8c0-.4-.2-.6-.6-.6H5.8z"/><path id="Shape_19_" class="st0" d="M15.4 7.4h-1.8c-.4 0-.6.2-.6.6v14c0 .4.2.6.6.6h1.8c.4 0 .6-.2.6-.6V8c0-.3-.2-.6-.6-.6zm-.9-6.3c-1.1 0-1.9.7-1.9 1.9s.7 1.9 1.9 1.9 1.9-.7 1.9-1.9c0-1.3-.8-1.9-1.9-1.9z"/><path id="Path_16_" class="st0" d="M22.7 9.6 22.6 8c-.1-.4-.4-.4-.7-.4h-1.3c-.4 0-.6.2-.6.6v14c0 .4.2.6.6.6h1.8c.4 0 .6-.2.6-.6V11.5c1.1-.9 2.1-1.4 4.4-1.4.5 0 1.3.2 1.3-.4V8c0-.4-.3-.6-1-.6-2-.1-3.2.3-5 2.2z"/></g><g id="lg-electronics" transform="translate(177 3)"><path id="Shape_20_" class="st0" d="M12 0C5.4 0 0 5.4 0 12s5.4 12 12 12 12-5.4 12-12S18.6 0 12 0zm2.9 16.2v.9h-3.4V6.8h.9v9.4h2.5zM12 22C6.5 22 2 17.5 2 12S6.5 2 12 2h.4v.9H12C7 2.9 2.9 7 2.9 12S7 21.1 12 21.1c4.9 0 8.9-3.9 9.1-8.7h-6.2v-.9H22v.5c0 5.5-4.5 10-10 10zM9.7 8.2c0 .8-.7 1.4-1.4 1.4-.8 0-1.5-.6-1.5-1.4s.6-1.4 1.4-1.4 1.5.6 1.5 1.4z"/><path id="Shape_21_" class="st0" d="M30 17.7h8.4v-2.5h-5.3V6.3H30v11.4zM48.5 7.1c-1-.7-2.2-1.1-3.7-1.1-1.8 0-3.2.5-4.2 1.5-1.1 1-1.6 2.6-1.6 4.5 0 2 .6 3.7 1.7 4.7.8.8 2 1.3 3.3 1.3 2.8 0 3.5-1.7 3.5-1.7v1.4H50v-6.4h-5.1v2h2.4s0 2.5-2.4 2.5c-.6 0-1.2-.2-1.6-.6-.7-.6-1-1.7-1-3.1 0-2.3.9-3.7 2.5-3.7 1 0 1.7.6 1.9 1.5H50c-.2-1.4-.6-2.1-1.5-2.8z"/></g><g id="oculus" transform="translate(267 5)"><path id="Shape_22_" class="st0" d="M89.9 7.3c-.3-.1-.7-.1-1-.1-.2 0-.3.1-.5.1-.1 0-.2.1-.3.2-.1.2-.2.3-.2.5s0 .3.1.4c.1.1.3.2.5.3.2.1.3.1.5.2.1.1.3.1.5.2.4.1.9.2 1.3.4.8.3 1.5.8 1.8 1.6.1.4.2.7.1 1.1-.1.5-.2.9-.5 1.2-.2.3-.5.5-.8.7-.4.2-.9.4-1.3.5-.4.1-.7.1-1.1.1-.5 0-.9-.1-1.4-.2-.8-.2-1.5-.6-2.2-1.2.4-.5.7-1 1.1-1.4.4.3.8.6 1.3.7.3.1.6.2 1 .2h.9c.2 0 .4-.1.6-.2.1-.1.3-.2.4-.3.1-.1.1-.2.2-.4 0-.2 0-.3-.1-.4-.1-.2-.2-.3-.4-.4l-.6-.3c-.3-.1-.5-.1-.8-.2-.8-.2-1.6-.4-2.3-.9-.3-.3-.5-.6-.6-1-.1-.4-.1-.9 0-1.3.1-.3.3-.7.5-.9.3-.4.7-.6 1.1-.8.3-.1.7-.2 1-.3.5-.1.9-.1 1.4 0 .8.1 1.6.4 2.3.9-.3.5-.7.9-1 1.4-.5-.1-1-.3-1.5-.4zm-16.6-6h-2v13.1h2V1.3zm10.5 13.1V5.9h-2v4.7c0 .2 0 .3-.1.5-.1.3-.1.5-.3.8-.4.6-1 .9-1.7.9s-1.3-.3-1.7-.9c-.1-.2-.2-.5-.3-.8-.1-.4-.1-.8-.1-1.1V6h-2V11.1c.1.6.2 1.1.4 1.7.5 1.1 1.6 1.7 2.7 1.8.6.1 1.2 0 1.7-.1.5-.2 1.1-.4 1.5-.8 0 .3 0 .5.1.8.6-.1 1.2-.1 1.8-.1zm-24.4-1.1c-.5-.5-.9-1-1.4-1.4-.4.3-.8.6-1.3.7-.5.1-1 .1-1.4-.1-.5-.2-.9-.4-1.2-.8-.3-.4-.4-.9-.5-1.4 0-.5.1-1 .3-1.4.2-.5.6-.8 1.1-1 .2-.1.4-.1.6-.2.3 0 .5-.1.8 0 .5.1.9.2 1.4.5L59 6.7c-.7-.6-1.5-.9-2.4-1-.9-.1-1.8 0-2.5.4-.8.4-1.4 1-1.9 1.8-.4.8-.6 1.7-.5 2.5 0 .9.3 1.7.8 2.5.5.7 1.2 1.2 2.1 1.5.8.3 1.7.3 2.6.2.8-.2 1.6-.7 2.2-1.3zm9.5 1.1V5.9h-2v4.7c0 .2 0 .3-.1.5-.1.3-.1.5-.3.8-.4.6-1 .9-1.7.9s-1.3-.3-1.7-.9c-.1-.2-.2-.5-.3-.8-.1-.4-.1-.8-.1-1.1V6h-2V11.1c.1.6.2 1.1.4 1.7.5 1.1 1.6 1.7 2.7 1.8.6.1 1.2 0 1.7-.1.5-.2 1.1-.4 1.5-.8 0 .3 0 .5.1.8.6-.1 1.2-.1 1.8-.1zm-18.7-4.2c0 1.2-.4 2.3-1.3 3.2-.8.8-2 1.3-3.1 1.3-1.2 0-2.3-.5-3.1-1.3-.8-.9-1.2-2-1.2-3.2 0-1.2.4-2.3 1.3-3.2.8-.8 2-1.3 3.1-1.3s2.3.4 3.1 1.3 1.2 2 1.2 3.2zm-2 0v-.5c0-.2-.1-.3-.1-.5-.1-.2-.2-.3-.2-.5-.1-.1-.2-.2-.3-.4l-.3-.3c-.2 0-.3-.1-.5-.1-.1-.1-.3-.1-.5-.1h-1c-.2 0-.3.1-.5.1-.1.1-.3.1-.4.2-.1.1-.2.2-.4.3-.1.1-.2.2-.3.4-.1.1-.2.3-.2.4-.1.2-.1.3-.1.5v1c0 .2.1.3.1.5.1.1.1.3.2.4.1.1.2.2.3.4l.3.3c.1.1.3.2.4.2.1.1.3.1.5.1h1c.2 0 .3-.1.5-.1.1-.1.3-.1.4-.2.1-.1.2-.2.4-.3.1-.1.2-.2.3-.4.1-.1.2-.3.2-.4.1-.2.1-.3.1-.5.1-.2.1-.4.1-.5zM33.1 10c0 3-1.4 5.9-3.7 7.7-1.2.9-2.5 1.6-3.9 1.9-.8.2-1.7.3-2.5.3H10.2c-.9 0-1.7-.1-2.5-.3-1.5-.3-2.8-1-3.9-1.9C1.4 15.9 0 13 0 10s1.4-5.9 3.7-7.7C4.9 1.4 6.2.7 7.6.4 8.5.1 9.3 0 10.2 0H23c.9 0 1.7.1 2.5.3 1.5.3 2.8 1 3.9 1.9 2.3 1.9 3.7 4.8 3.7 7.8zm-6.7 0c0-1.1-.5-2.1-1.4-2.7-.4-.3-.9-.5-1.5-.6-.5-.1-1-.1-1.6-.1H11.1c-.5 0-1 0-1.6.1-.5.1-1 .3-1.4.6-.9.6-1.4 1.6-1.4 2.7s.5 2.1 1.4 2.7c.4.3.9.5 1.4.6.5.1 1 .1 1.6.1h10.8c.5 0 1 0 1.6-.1.5-.1 1-.3 1.5-.6.9-.6 1.4-1.6 1.4-2.7z"/></g><g id="samsung" transform="translate(504.252 7)"><path id="Shape_23_" class="st0" d="M59.6 7.4s-1.1-.7-1.7-.9c0 0-2-.9-2.4-1.4 0 0-.8-.7-.3-1.6 0 0 .2-.6 1-.6 0 0 1.1.1 1.1 1v1.3h3.9V3.3s.3-3-4.6-3.2c0 0-3.8-.3-4.9 1.8 0 0-.4.5-.4 2.1v1.2s0 1.3.6 2.2c0 0 .4.6 1.3 1.2 0 0 1.9 1 3.1 1.6 0 0 1.2.7 1 1.7 0 0-.1 1.1-1.2 1 0 0-1 0-1-1.1v-1.3H51v1.8s-.1 3.5 5.2 3.5c0 0 5.1.1 5.3-3.6v-1.5c-.1.2.1-2.1-1.9-3.3zM39.7.6l-1.3 8.2h-.3L36.9.7h-6.5l-.3 14.8h3.8V4.4h.3l2 11.1h4l2-11.1h.3l.1 11.1h3.9L46.2.6h-6.5zM16.8.7l-2.6 14.8h4.1L19.9 4h.3l1.5 11.5h4.1L23.4.7h-6.6zm86.9 6.5v2.2h1.1v2.3c0 1.1-1 1.2-1 1.2-1.2 0-1.1-1.1-1.1-1.1V3.7c0-.8 1.1-.9 1.1-.9 1 0 1 1 1 1V5h3.9c.1-2.4-.4-3-.4-3-1-2.2-4.6-2.1-4.6-2.1-5.6 0-5 4.3-5 4.3V12c.1 4 5.7 3.6 5.8 3.6 2.5-.3 3.2-1.1 3.2-1.1.7-.5.9-1.2.9-1.2.2-.4.2-1.7.2-1.7V7.2h-5.1zM90.8 9.6h-.2l-4-9h-4.7v14.8h3.9l-.2-9h.2l4.1 9h4.6V.6h-3.9l.2 9zm-18.3 2.2s.1 1.2-1.1 1.2c0 0-1.2.1-1.2-1.2V.6H66v11.1s-.4 4.2 5.5 4.2c0 0 5.1.1 5.1-4V.6h-4.1v11.2zM8.8 7.4s-1.1-.7-1.7-.9c0 0-2-.9-2.4-1.4 0 0-.8-.7-.3-1.6 0 0 .2-.6 1-.6 0 0 1.1.1 1.1 1v1.3h3.9V3.3s.3-3-4.6-3.2h-.9s-3 .2-4 1.8c0 0-.4.5-.4 2.1v1.2s0 1.3.6 2.2c0 0 .4.6 1.3 1.2 0 0 1.9 1 3.1 1.6 0 0 1.2.7 1 1.7 0 0-.1 1.1-1.2 1 0 0-1 0-1-1.1v-1.3H.1v1.8s-.1 3.5 5.2 3.5c0 0 5.1.1 5.3-3.6v-1.5c0 .2.2-2.1-1.8-3.3z"/></g><g id="xbox-one" transform="translate(653 5)"><path id="Shape_24_" class="st0" d="m64.2 16.2-3.8-5.4-3.8 5.4H55l4.6-6.5-4.2-5.9H57l3.4 4.8 3.4-4.8h1.6l-4.2 5.9 4.6 6.5h-1.6zm-29.7 0L30 9.7l4.2-5.9h-1.6l-3.4 4.8-3.4-4.8h-1.6l4.2 5.9-4.6 6.5h1.6l3.8-5.4 3.8 5.4h1.5z"/><path id="Shape_25_" class="st0" d="M43 10.3c-.2-.2-.5-.4-.8-.5.9-.5 1.4-1.4 1.4-2.4 0-.8-.3-3.3-3.9-3.3h-4.9v5.2h-1.6c-.2.3-.7.9-.9 1.2h2.5v5.6h4.9c2.6 0 4.3-1.3 4.3-3.5 0-.9-.4-1.7-1-2.3m-6.8-4.9h3.5c.9 0 2.5.2 2.5 1.9 0 1.3-.9 2-2.5 2h-3.5V5.4zm3.5 9.5h-3.5v-4.4h3.5c1.3 0 2.9.4 2.9 2.1.1 2-1.8 2.3-2.9 2.3m10.6-11c-3.4 0-5.7 2.6-5.7 6.3 0 3.7 2.3 6.3 5.7 6.3 3.4 0 5.7-2.6 5.7-6.3 0-3.7-2.3-6.3-5.7-6.3m0 11.3c-2.6 0-4.3-2.1-4.3-5s1.8-5 4.3-5c2.6 0 4.3 2.1 4.3 5s-1.7 5-4.3 5M3 2.9C1.1 4.8 0 7.3 0 10c0 2.2.7 4.3 2 6.1h.1V16c-.8-2.3 3.1-8.1 5.1-10.4C3.8 2.1 2.9 2.9 3 2.9m13.9 0c1.9 1.9 3 4.4 3 7.1 0 2.2-.7 4.3-2 6.1h-.1c-.1 0 0 0 0-.1.8-2.4-3.1-8.1-5.1-10.5 3.4-3.4 4.3-2.6 4.2-2.6M10 0c2 0 3.7.6 5.2 1.5-1.9-.4-4.9 1.3-5.1 1.4-.9-.4-3.6-1.8-5.3-1.4C6.3.6 8 0 10 0m0 8c3 2.3 8.1 7.9 6.6 9.5-1.9 1.6-4.2 2.5-6.6 2.5-2.4 0-4.7-.9-6.6-2.5C1.8 15.9 6.9 10.3 10 8c-.1 0-.1 0 0 0m78.7-3.8V14l-7.2-9.9h-1.2v12h1.3V6.5l7.1 9.6H90v-12h-1.3zm-15.3-.3c-3.4 0-5.7 2.6-5.7 6.3 0 3.7 2.3 6.3 5.7 6.3 3.4 0 5.7-2.6 5.7-6.3 0-3.7-2.3-6.3-5.7-6.3m0 11.3c-2.6 0-4.3-2.1-4.3-5s1.8-5 4.3-5c2.6 0 4.3 2.1 4.3 5 .1 2.9-1.7 5-4.3 5m19.5-.2v-4.4h6.6V9.4h-6.6v-4h7V4.2h-8.4v12h8.4V15h-7z"/></g><g id="roku" transform="translate(400 3)"><path id="Combined-Shape" class="st0" d="M23.5 4c4.5 0 8.1 3.6 8.1 8 0 4.5-3.6 8-8.1 8s-8.1-3.6-8.1-8c0-4.5 3.6-8 8.1-8zm14.3.3v6.1l6-6h10.7v8.4c0 2.4.6 3.2 1.9 3.2 1.3 0 2.1-.6 2.7-1.7v-10h5.2v15.4h-1.1l-2.4-2c-1 1.1-3 2.4-5.2 2.4-4.6 0-6.4-2.8-6.4-5.8V5l-6.6 6.6 8 8H44l-6.3-6.3v6.3h-5.2V4.3h5.3zM7.5 0c4.3 0 7.9 2.9 7.9 6.6 0 2.2-1.4 4.2-3.4 5.4l5.6 7.7h-6l-4.7-6.6H5.3v6.5H0V0h7.5zm16 7.8c-1.4 0-2.6 1.9-2.6 4.2s1.2 4.2 2.6 4.2c1.4 0 2.6-1.9 2.6-4.2s-1.2-4.2-2.6-4.2zM6.9 3.3H5.3v6.6h1.6c1.8 0 3.3-1.5 3.3-3.3 0-1.9-1.5-3.3-3.3-3.3z"/></g></g></g></g></svg>