<?xml version="1.0" encoding="UTF-8"?>
<svg width="800px" height="120px" viewBox="0 0 800 120" version="1.1" xmlns="http://www.w3.org/2000/svg" xmlns:xlink="http://www.w3.org/1999/xlink">
    <!-- Generator: Sketch 63.1 (92452) - https://sketch.com -->
    <title>Desktop</title>
    <desc>Created with Sketch.</desc>
    <g id="Desktop" stroke="none" stroke-width="1" fill="none" fill-rule="evenodd">
        <g id="Group-4" transform="translate(11.000000, 26.000000)" fill-rule="nonzero">
            <g id="TOP-ROW">
                <g id="ipad" transform="translate(0.000000, 1.000000)" fill="#000000">
                    <path d="M16.3793103,15.4827586 C16.0689655,16.1724138 15.7241379,16.8275862 15.3103448,17.4137931 C14.7586207,18.2068966 14.2758621,18.7586207 13.9310345,19.0689655 C13.3793103,19.5862069 12.7931034,19.8275862 12.1724138,19.862069 C11.7241379,19.862069 11.1724138,19.7241379 10.5517241,19.4827586 C9.93103448,19.2068966 9.34482759,19.1034483 8.79310345,19.1034483 C8.24137931,19.1034483 7.62068966,19.2413793 7,19.4827586 C6.34482759,19.7586207 5.82758621,19.8965517 5.44827586,19.8965517 C4.82758621,19.9310345 4.24137931,19.6551724 3.65517241,19.1034483 C3.27586207,18.7586207 2.79310345,18.2068966 2.20689655,17.3793103 C1.5862069,16.5172414 1.06896552,15.5172414 0.689655172,14.3448276 C0.206896552,13.0689655 0,11.862069 0,10.7241379 C0,9.37931034 0.275862069,8.24137931 0.862068966,7.27586207 C1.31034483,6.51724138 1.93103448,5.89655172 2.65517241,5.44827586 C3.37931034,5 4.20689655,4.75862069 5.10344828,4.75862069 C5.5862069,4.75862069 6.20689655,4.89655172 7,5.20689655 C7.79310345,5.48275862 8.27586207,5.65517241 8.48275862,5.65517241 C8.65517241,5.65517241 9.20689655,5.48275862 10.137931,5.13793103 C11.0344828,4.82758621 11.7931034,4.68965517 12.4137931,4.72413793 C14.0689655,4.86206897 15.3448276,5.51724138 16.1724138,6.68965517 C14.6896552,7.5862069 13.9310345,8.86206897 13.9655172,10.4827586 C13.9655172,11.7586207 14.4482759,12.7931034 15.3448276,13.6551724 C15.7586207,14.0344828 16.2068966,14.3448276 16.7241379,14.5517241 C16.6206897,14.862069 16.4827586,15.1724138 16.3793103,15.4827586 L16.3793103,15.4827586 Z M12.5517241,0.413793103 C12.5517241,1.4137931 12.1724138,2.34482759 11.4827586,3.20689655 C10.6206897,4.24137931 9.55172414,4.82758621 8.4137931,4.72413793 C8.4137931,4.62068966 8.37931034,4.48275862 8.37931034,4.34482759 C8.37931034,3.37931034 8.79310345,2.37931034 9.51724138,1.55172414 C9.89655172,1.13793103 10.3448276,0.793103448 10.9310345,0.482758621 C11.4827586,0.206896552 12.0344828,0.0689655172 12.5517241,0.0344827586 C12.5172414,0.137931034 12.5517241,0.275862069 12.5517241,0.413793103 L12.5517241,0.413793103 Z" id="Shape"></path>
                    <g id="Group" transform="translate(19.310345, 1.724138)">
                        <path d="M0.103448276,1.68965517 C0.103448276,0.862068966 0.793103448,0.172413793 1.62068966,0.172413793 C2.44827586,0.172413793 3.13793103,0.827586207 3.13793103,1.68965517 C3.13793103,2.51724138 2.48275862,3.20689655 1.62068966,3.20689655 C0.75862069,3.20689655 0.103448276,2.51724138 0.103448276,1.68965517 Z M0.310344828,5.24137931 L2.93103448,5.24137931 L2.93103448,18 L0.310344828,18 L0.310344828,5.24137931 Z" id="Shape"></path>
                        <path d="M11.862069,0.517241379 C15.2413793,0.517241379 17.6206897,2.86206897 17.6206897,6.27586207 C17.6206897,9.68965517 15.2068966,12.0344828 11.7931034,12.0344828 L8.03448276,12.0344828 L8.03448276,18 L5.31034483,18 L5.31034483,0.517241379 L11.862069,0.517241379 Z M8.03448276,9.75862069 L11.137931,9.75862069 C13.5172414,9.75862069 14.862069,8.48275862 14.862069,6.27586207 C14.862069,4.06896552 13.5172414,2.79310345 11.1724138,2.79310345 L8.03448276,2.79310345 L8.03448276,9.75862069 Z" id="Shape"></path>
                        <path d="M17.5517241,14.3793103 C17.5517241,12.137931 19.2758621,10.7931034 22.2758621,10.6206897 L25.7586207,10.4137931 L25.7586207,9.44827586 C25.7586207,8.03448276 24.7931034,7.17241379 23.2068966,7.17241379 C21.6896552,7.17241379 20.7586207,7.89655172 20.5172414,9.03448276 L18.0344828,9.03448276 C18.1724138,6.72413793 20.137931,5.03448276 23.3103448,5.03448276 C26.4137931,5.03448276 28.3793103,6.65517241 28.3793103,9.24137931 L28.3793103,18.0344828 L25.862069,18.0344828 L25.862069,15.9310345 L25.7931034,15.9310345 C25.0689655,17.3448276 23.4482759,18.2413793 21.7586207,18.2413793 C19.3103448,18.2068966 17.5517241,16.6551724 17.5517241,14.3793103 Z M25.7931034,13.2413793 L25.7931034,12.2413793 L22.6551724,12.4482759 C21.1034483,12.5517241 20.2068966,13.2413793 20.2068966,14.3448276 C20.2068966,15.4482759 21.137931,16.1724138 22.5517241,16.1724138 C24.3448276,16.137931 25.7931034,14.8965517 25.7931034,13.2413793 Z" id="Shape"></path>
                        <path d="M29.7241379,11.6206897 C29.7241379,7.5862069 31.862069,5.03448276 35.0689655,5.03448276 C36.8965517,5.03448276 38.3448276,5.96551724 39.0689655,7.37931034 L39.1034483,7.37931034 L39.1034483,0.517241379 L41.7241379,0.517241379 L41.7241379,18 L39.1724138,18 L39.1724138,15.8275862 L39.137931,15.8275862 C38.3793103,17.2758621 36.9310345,18.2068966 35.0689655,18.2068966 C31.862069,18.2068966 29.7241379,15.6551724 29.7241379,11.6206897 Z M32.4137931,11.6206897 C32.4137931,14.3103448 33.7241379,16 35.7931034,16 C37.7931034,16 39.137931,14.2758621 39.137931,11.6206897 C39.137931,8.96551724 37.7931034,7.24137931 35.7931034,7.24137931 C33.7241379,7.24137931 32.4137931,8.96551724 32.4137931,11.6206897 Z" id="Shape"></path>
                    </g>
                </g>
                <g id="android" transform="translate(283.000000, 1.000000)" fill="#000000">
                    <path d="M0,12.5458248 C0,11.5015738 0.173126201,10.523977 0.52306214,9.62044066 C0.872998078,8.71690428 1.35922486,7.92445843 1.98542601,7.25421218 C2.61162716,6.58396593 3.36306855,6.05443436 4.23606662,5.67302351 C5.1090647,5.29161266 6.06678411,5.09905573 7.10554132,5.09905573 C7.89381807,5.09905573 8.61210762,5.21755231 9.25672646,5.45084244 C9.90134529,5.68413257 10.5275464,6.06554342 11.1316464,6.598778 L11.1316464,5.3804851 L14.6678411,5.3804851 L14.6678411,19.7185706 L11.1316464,19.7185706 L11.1316464,18.5002777 C10.5275464,19.0335123 9.90502883,19.4149232 9.25672646,19.6482133 C8.61210762,19.8815034 7.89381807,20 7.10554132,20 C6.06678411,20 5.1090647,19.8074431 4.23606662,19.4260322 C3.36306855,19.0446214 2.61162716,18.5150898 1.98542601,17.8448435 C1.35922486,17.1708943 0.872998078,16.3821515 0.52306214,15.4786151 C0.176809737,14.5639696 0,13.5900759 0,12.5458248 Z M7.56598334,16.6487687 C7.84593209,16.6487687 8.13693145,16.6191446 8.44266496,16.5561933 C8.74839846,16.496945 9.0578155,16.3932605 9.36723254,16.2488428 C9.67664958,16.1044251 9.98238309,15.9118682 10.2807495,15.667469 C10.579116,15.4230698 10.8627482,15.1268284 11.1316464,14.7713386 L11.1316464,10.316608 C10.8627482,9.96111831 10.579116,9.66487687 10.2807495,9.42788373 C9.98238309,9.19089058 9.68033312,8.99463062 9.36723254,8.84650991 C9.05413197,8.69838919 8.74839846,8.59100167 8.44266496,8.53175338 C8.13693145,8.47250509 7.84224856,8.43917793 7.56598334,8.43917793 C7.01713645,8.43917793 6.50512492,8.54286243 6.02626521,8.74652842 C5.54740551,8.95019441 5.13116592,9.23902981 4.78122998,9.60933161 C4.42761051,9.9796334 4.15134529,10.4128865 3.95243434,10.9127939 C3.75352338,11.4127014 3.65406791,11.957045 3.65406791,12.5421218 C3.65406791,13.1309017 3.75352338,13.6752453 3.95243434,14.1751527 C4.15134529,14.6750602 4.42761051,15.1083133 4.78122998,15.4786151 C5.13484946,15.8489169 5.55108905,16.1340493 6.02626521,16.3414183 C6.50512492,16.5450842 7.01713645,16.6487687 7.56598334,16.6487687 L7.56598334,16.6487687 Z M23.5120115,8.63543788 C21.8360026,8.64654694 20.3810058,9.82040363 20.3810058,11.5645251 L20.3810058,19.7148676 L16.844811,19.7148676 L16.844811,11.6608036 C16.8632287,8.30216627 19.7584881,5.13978893 23.4641256,5.09535271 L23.563581,5.09535271 C27.272902,5.13978893 30.1644779,8.30586928 30.1828956,11.6608036 L30.1828956,19.7111646 L26.6467008,19.7111646 L26.6467008,11.5645251 C26.6430173,9.82040363 25.184337,8.64654694 23.5120115,8.63543788 M31.855221,12.5458248 C31.855221,11.5015738 32.0283472,10.523977 32.3782832,9.62044066 C32.7282191,8.71690428 33.2144459,7.92445843 33.840647,7.25421218 C34.4668482,6.58396593 35.2182896,6.05443436 36.0912876,5.67302351 C36.9642857,5.29161266 37.9220051,5.09905573 38.9607623,5.09905573 C39.7490391,5.09905573 40.4710122,5.21755231 41.1193145,5.45084244 C41.7676169,5.68413257 42.3901345,6.0618404 42.9868674,6.58396593 L42.9868674,1.07757823 L46.5230621,1.07757823 L46.5230621,19.7148676 L42.9868674,19.7148676 L42.9868674,18.5113868 C42.3938181,19.0446214 41.7713004,19.4223292 41.1193145,19.6519163 C40.4673286,19.8815034 39.7490391,19.996297 38.9607623,19.996297 C37.9220051,19.996297 36.9642857,19.80374 36.0912876,19.4223292 C35.2182896,19.0409183 34.4668482,18.5113868 33.840647,17.8411405 C33.2144459,17.1708943 32.7282191,16.3784484 32.3782832,15.4749121 C32.0283472,14.5639696 31.855221,13.5900759 31.855221,12.5458248 Z M39.4175208,16.6487687 C39.6974696,16.6487687 39.9884689,16.6191446 40.2942024,16.5561933 C40.5999359,16.496945 40.909353,16.3932605 41.21877,16.2488428 C41.5281871,16.1044251 41.8339206,15.9118682 42.132287,15.667469 C42.4306534,15.4230698 42.7142857,15.1268284 42.9831839,14.7713386 L42.9831839,10.316608 C42.7142857,9.96111831 42.4306534,9.66487687 42.132287,9.42788373 C41.8339206,9.19089058 41.5318706,8.99463062 41.21877,8.84650991 C40.909353,8.69838919 40.5999359,8.59100167 40.2942024,8.53175338 C39.9884689,8.47250509 39.693786,8.43917793 39.4175208,8.43917793 C38.8686739,8.43917793 38.3566624,8.54286243 37.8778027,8.74652842 C37.398943,8.95019441 36.9827034,9.23902981 36.6327675,9.60933161 C36.279148,9.9796334 36.0028828,10.4128865 35.8039718,10.9127939 C35.6050609,11.4127014 35.5056054,11.957045 35.5056054,12.5421218 C35.5056054,13.1309017 35.6050609,13.6752453 35.8039718,14.1751527 C36.0028828,14.6750602 36.279148,15.1083133 36.6327675,15.4786151 C36.9863869,15.8489169 37.4026265,16.1340493 37.8778027,16.3414183 C38.3566624,16.5450842 38.8686739,16.6487687 39.4175208,16.6487687 L39.4175208,16.6487687 Z M63.0879244,16.6487687 C63.6183536,16.6487687 64.115631,16.5487873 64.5834401,16.3488243 C65.0438821,16.1525643 65.4638053,15.8637289 65.8100577,15.5008332 C66.1599936,15.1379374 66.4325753,14.7046843 66.6314862,14.2047769 C66.8303972,13.7048695 66.9298527,13.1531198 66.9298527,12.5458248 C66.9298527,11.949639 66.8267136,11.4015923 66.6241192,10.9016849 C66.4215247,10.4017774 66.1415759,9.97222737 65.7879564,9.60562859 C65.4380205,9.24273283 65.0217809,8.95389743 64.5613389,8.75023144 C64.0972133,8.54656545 63.6036195,8.44288095 63.0842409,8.44288095 C62.5538117,8.44288095 62.0565343,8.54656545 61.5887252,8.75023144 C61.1282832,8.95019441 60.7120436,9.23902981 60.3621076,9.60562859 C60.0121717,9.96852435 59.7359065,10.4017774 59.533312,10.9016849 C59.3307175,11.4015923 59.2275785,11.949639 59.2275785,12.5458248 C59.2275785,13.1531198 59.327034,13.7048695 59.5259449,14.2047769 C59.7248559,14.7046843 60.0011211,15.1342344 60.3473735,15.5008332 C60.6936259,15.8637289 61.1098655,16.1525643 61.573991,16.3488243 C62.0454837,16.5450842 62.5501281,16.6487687 63.0879244,16.6487687 Z M63.0879244,19.992594 C62.0565343,19.992594 61.0877643,19.8074431 60.1779308,19.4334383 C59.2680974,19.0594334 58.4724536,18.5410109 57.7909994,17.8707647 C57.1095452,17.2042214 56.5680653,16.4154786 56.173927,15.5045362 C55.7797886,14.5935938 55.5808776,13.608591 55.5808776,12.5421218 C55.5808776,11.5052768 55.7797886,10.5350861 56.173927,9.63154971 C56.5680653,8.72431031 57.1058616,7.93556749 57.7836323,7.26532124 C58.4614029,6.59137197 59.2570468,6.0618404 60.1705637,5.67672653 C61.0840807,5.28790965 62.0565343,5.09535271 63.0879244,5.09535271 C64.1193145,5.09535271 65.0880846,5.28790965 65.997918,5.67672653 C66.9077514,6.06554342 67.7033953,6.59507499 68.3811659,7.26532124 C69.0589366,7.93556749 69.5967329,8.72801333 69.9908712,9.63154971 C70.3850096,10.5387891 70.5839206,11.5089798 70.5839206,12.5421218 C70.5839206,13.604888 70.3850096,14.5935938 69.9908712,15.5045362 C69.5967329,16.4154786 69.0589366,17.2042214 68.3737988,17.8707647 C67.6923447,18.5373079 66.8967008,19.0594334 65.9905509,19.4334383 C65.0880846,19.8074431 64.1193145,19.992594 63.0879244,19.992594 Z M73.9359385,4.25476764 C73.6486227,4.25476764 73.3797245,4.19922237 73.121877,4.08442881 C72.8713965,3.97333827 72.6430173,3.81781152 72.4514734,3.62525458 C72.2599295,3.43269765 72.105221,3.20311054 71.9947149,2.95130531 C71.8842088,2.69209406 71.8252723,2.41436771 71.8252723,2.13293834 C71.8252723,1.84410294 71.8805253,1.57007961 71.9947149,1.31086836 C72.1015375,1.05536012 72.256246,0.825773005 72.4514734,0.629513053 C72.6430173,0.436956119 72.8713965,0.281429365 73.121877,0.170338826 C73.3797245,0.0592482874 73.6559898,0 73.9359385,0 C74.2232543,0 74.495836,0.0555452694 74.7536835,0.170338826 C75.0078475,0.277726347 75.2362268,0.433253101 75.4314542,0.629513053 C75.6266816,0.825773005 75.7813901,1.05536012 75.8882127,1.31086836 C75.9987188,1.57378263 76.0576553,1.84780596 76.0576553,2.13664136 C76.0576553,2.42547676 76.0024023,2.69579707 75.8882127,2.95500833 C75.7777066,3.20681355 75.6229981,3.43640067 75.4314542,3.6289576 C75.2362268,3.82521755 75.0078475,3.98074431 74.7536835,4.08813183 C74.495836,4.19551935 74.2195708,4.25476764 73.9359385,4.25476764 L73.9359385,4.25476764 Z M72.1678411,5.37678208 L75.7040359,5.37678208 L75.7040359,19.7148676 L72.1678411,19.7148676 L72.1678411,5.37678208 L72.1678411,5.37678208 Z M77.3321589,12.5458248 C77.3321589,11.5015738 77.5052851,10.523977 77.855221,9.62044066 C78.205157,8.71690428 78.6913837,7.92445843 79.3175849,7.25421218 C79.943786,6.58396593 80.6952274,6.05443436 81.5682255,5.67302351 C82.4412236,5.29161266 83.398943,5.09905573 84.4377002,5.09905573 C85.2259769,5.09905573 85.94795,5.21755231 86.5962524,5.45084244 C87.2445548,5.68413257 87.8670724,6.0618404 88.4638053,6.58396593 L88.4638053,1.07757823 L92,1.07757823 L92,19.7148676 L88.4638053,19.7148676 L88.4638053,18.5113868 C87.8707559,19.0446214 87.2482383,19.4223292 86.5962524,19.6519163 C85.9442665,19.8815034 85.2259769,19.996297 84.4377002,19.996297 C83.398943,19.996297 82.4412236,19.80374 81.5682255,19.4223292 C80.6952274,19.0409183 79.943786,18.5113868 79.3175849,17.8411405 C78.6913837,17.1708943 78.205157,16.3784484 77.855221,15.4749121 C77.5052851,14.5639696 77.3321589,13.5900759 77.3321589,12.5458248 Z M84.8944587,16.6487687 C85.1744074,16.6487687 85.4654068,16.6191446 85.7711403,16.5561933 C86.0768738,16.496945 86.3862908,16.3932605 86.6957079,16.2488428 C87.0051249,16.1044251 87.3108584,15.9118682 87.6092249,15.667469 C87.9075913,15.4230698 88.1912236,15.1268284 88.4601217,14.7713386 L88.4601217,10.316608 C88.1912236,9.96111831 87.9075913,9.66487687 87.6092249,9.42788373 C87.3108584,9.19089058 87.0088085,8.99463062 86.6957079,8.84650991 C86.3862908,8.69838919 86.0768738,8.59100167 85.7711403,8.53175338 C85.4654068,8.47250509 85.1707239,8.43917793 84.8944587,8.43917793 C84.3456118,8.43917793 83.8336003,8.54286243 83.3547406,8.74652842 C82.8758808,8.95019441 82.4596413,9.23902981 82.1097053,9.60933161 C81.7560858,9.9796334 81.4798206,10.4128865 81.2809097,10.9127939 C81.0819987,11.4127014 80.9825432,11.957045 80.9825432,12.5421218 C80.9825432,13.1309017 81.0819987,13.6752453 81.2809097,14.1751527 C81.4798206,14.6750602 81.7560858,15.1083133 82.1097053,15.4786151 C82.4633248,15.8489169 82.8795644,16.1340493 83.3547406,16.3414183 C83.8336003,16.5450842 84.3456118,16.6487687 84.8944587,16.6487687 L84.8944587,16.6487687 Z M55.2456758,8.59100167 C52.8734785,8.59100167 51.8310378,9.82040363 51.8310378,11.5645251 L51.8310378,19.7148676 L48.294843,19.7148676 L48.294843,11.6608036 C48.3132607,8.30216627 50.2434337,5.00277726 55.2493594,5.00277726" id="Shape"></path>
                </g>
                <g id="apple-tv" transform="translate(209.000000, 0.000000)" fill="#000000">
                    <path d="M26.0364575,1.82608696 L26.0364575,5.23650126 L30.3550255,5.23650126 L30.3550255,6.4589614 L26.0364575,6.4589614 L26.0364575,16.5280412 C26.0364575,17.5577768 26.2039122,18.3455151 26.5400806,18.8925037 C26.8756195,19.4394922 27.4541565,19.7126746 28.2775803,19.7126746 C28.6672586,19.7126746 29.0027975,19.6914687 29.2841969,19.6484331 C29.5655963,19.6060212 29.8035582,19.551759 29.9987122,19.4875174 L30.1611306,20.645736 C29.6417693,20.8814962 28.948658,21 28.0830558,21 C27.3685406,21 26.778672,20.8814962 26.3134502,20.645736 C25.8475989,20.4099759 25.479954,20.0831549 25.2092566,19.6646494 C24.9385592,19.2461439 24.749071,18.7428147 24.640792,18.1527905 C24.5318835,17.5633901 24.4783736,16.9253408 24.4783736,16.2386425 L24.4783736,6.4589614 L21.9130435,6.4589614 L21.9130435,5.23650126 L24.4783736,5.23650126 L24.4783736,2.40488441 L26.0364575,1.82608696 L26.0364575,1.82608696 Z M32.8555141,5.23587756 L36.4274609,14.8228341 C36.7302643,15.5737739 37.0009617,16.2816781 37.2389236,16.945923 C37.4768855,17.6107916 37.7041454,18.2650573 37.9207033,18.9080963 L37.9855448,18.9080963 C38.2014732,18.2862632 38.4343989,17.6369872 38.6836923,16.9615156 C38.9323562,16.286044 39.2087194,15.5731502 39.5115228,14.8222104 L43.1155755,5.23525385 L44.7391304,5.23525385 L38.5370121,20.6769212 L37.2055586,20.6769212 L31.2319592,5.23587756 L32.8555141,5.23587756 Z" id="Shape"></path>
                    <path d="M9.57182838,1.82745121 C10.9702107,0.00878582315 12.9142101,0 12.9142101,0 C12.9142101,0 13.2035525,1.71009772 11.8140731,3.356812 C10.3311137,5.11585931 8.64529676,4.82780982 8.64529676,4.82780982 C8.64529676,4.82780982 8.32860991,3.44467023 9.57182838,1.82745121 L9.57182838,1.82745121 Z M8.82271771,6.02581956 C9.54194027,6.02581956 10.8767308,5.04996563 12.614693,5.04996563 C15.6060484,5.04996563 16.7824955,7.15040492 16.7824955,7.15040492 C16.7824955,7.15040492 14.4811105,8.3113887 14.4811105,11.1291277 C14.4811105,14.307713 17.3478261,15.4028031 17.3478261,15.4028031 C17.3478261,15.4028031 15.3440504,20.9692496 12.6369501,20.9692496 C11.3937317,20.9692496 10.4271373,20.1421271 9.11714746,20.1421271 C7.78235688,20.1421271 6.45710506,21 5.5948011,21 C3.12299025,21.0006276 0,15.7197203 0,11.4755401 C0,7.29913636 2.64350854,5.1083286 5.12231448,5.1083286 C6.73436504,5.1083286 7.98521452,6.02581956 8.82271771,6.02581956 Z" id="Shape"></path>
                </g>
                <g id="iphone" transform="translate(91.000000, 1.000000)" fill="#010101">
                    <path d="M16.3689655,15.4689655 C16.0689655,16.162069 15.7137931,16.8 15.3,17.3862069 C14.737931,18.1862069 14.2793103,18.7413793 13.9241379,19.0482759 C13.3758621,19.5517241 12.7862069,19.8103448 12.1586207,19.8275862 C11.7068966,19.8275862 11.162069,19.7 10.5275862,19.437931 C9.88965517,19.1793103 9.30689655,19.0482759 8.76896552,19.0482759 C8.20689655,19.0482759 7.60689655,19.1758621 6.96206897,19.437931 C6.31724138,19.7 5.79655172,19.8344828 5.4,19.8482759 C4.79655172,19.8724138 4.19310345,19.6068966 3.59310345,19.0482759 C3.21034483,18.7137931 2.73103448,18.1413793 2.15517241,17.3275862 C1.54137931,16.462069 1.03448276,15.4551724 0.637931034,14.3103448 C0.213793103,13.0724138 0,11.8724138 0,10.7103448 C0,9.37931034 0.286206897,8.23103448 0.862068966,7.27241379 C1.3137931,6.5 1.91724138,5.88965517 2.66896552,5.44482759 C3.42068966,5 4.23793103,4.76896552 5.1137931,4.75517241 C5.59310345,4.75517241 6.22413793,4.90344828 7.00344828,5.19655172 C7.78275862,5.48965517 8.28275862,5.63793103 8.50344828,5.63793103 C8.66896552,5.63793103 9.22413793,5.46551724 10.1655172,5.11724138 C11.0586207,4.79655172 11.8103448,4.66206897 12.4241379,4.71724138 C14.0931034,4.85172414 15.3482759,5.51034483 16.1827586,6.69655172 C14.6896552,7.6 13.9517241,8.86896552 13.9655172,10.4965517 C13.9793103,11.762069 14.437931,12.8172414 15.3413793,13.6551724 C15.7517241,14.0448276 16.2068966,14.3448276 16.7172414,14.5586207 C16.6103448,14.8689655 16.4931034,15.1758621 16.3689655,15.4689655 L16.3689655,15.4689655 Z M12.5413793,0.396551724 C12.5413793,1.38965517 12.1793103,2.31724138 11.4551724,3.17586207 C10.5827586,4.19655172 9.52758621,4.7862069 8.38275862,4.69310345 C8.36896552,4.57241379 8.35862069,4.44827586 8.35862069,4.31724138 C8.35862069,3.36551724 8.77241379,2.34482759 9.51034483,1.51034483 C9.87931034,1.08965517 10.3448276,0.737931034 10.9137931,0.45862069 C11.4793103,0.182758621 12.0137931,0.0310344828 12.5206897,0.00344827586 C12.5344828,0.131034483 12.5413793,0.265517241 12.5413793,0.396551724 L12.5413793,0.396551724 Z" id="Shape"></path>
                    <g id="Group" transform="translate(19.310345, 1.724138)">
                        <path d="M0.113793103,1.68965517 C0.113793103,0.851724138 0.793103448,0.186206897 1.62758621,0.186206897 C2.46206897,0.186206897 3.13103448,0.851724138 3.13103448,1.68965517 C3.13103448,2.5137931 2.46551724,3.19310345 1.62758621,3.19310345 C0.789655172,3.19310345 0.113793103,2.5137931 0.113793103,1.68965517 Z M0.320689655,5.25172414 L2.93793103,5.25172414 L2.93793103,18.0034483 L0.320689655,18.0034483 L0.320689655,5.25172414 L0.320689655,5.25172414 Z" id="Shape"></path>
                        <path d="M11.8689655,0.510344828 C15.262069,0.510344828 17.6275862,2.85172414 17.6275862,6.25517241 C17.6275862,9.67241379 15.2137931,12.0241379 11.7827586,12.0241379 L8.02413793,12.0241379 L8.02413793,18 L5.31034483,18 L5.31034483,0.510344828 L11.8689655,0.510344828 Z M8.02758621,9.74827586 L11.1448276,9.74827586 C13.5103448,9.74827586 14.8551724,8.47586207 14.8551724,6.26896552 C14.8551724,4.06206897 13.5103448,2.80344828 11.1586207,2.80344828 L8.03103448,2.80344828 L8.03103448,9.74827586 L8.02758621,9.74827586 Z" id="Shape"></path>
                        <path d="M19.1655172,0.510344828 L21.7586207,0.510344828 L21.7586207,7.38275862 L21.8206897,7.38275862 C22.5241379,5.89310345 23.9172414,5.03103448 25.8586207,5.03103448 C28.6586207,5.03103448 30.3310345,6.89655172 30.3310345,9.78275862 L30.3310345,18.0034483 L27.7,18.0034483 L27.7,10.2965517 C27.7,8.41724138 26.7551724,7.28965517 24.9103448,7.28965517 C22.9724138,7.28965517 21.7827586,8.62413793 21.7827586,10.6344828 L21.7827586,18.0068966 L19.1655172,18.0068966 L19.1655172,0.510344828 L19.1655172,0.510344828 Z" id="Path"></path>
                        <path d="M31.662069,11.6275862 C31.662069,7.53103448 34.0758621,5.02068966 37.7103448,5.02068966 C41.3448276,5.02068966 43.7586207,7.53103448 43.7586207,11.6275862 C43.7586207,15.737931 41.3586207,18.2482759 37.7103448,18.2482759 C34.062069,18.2482759 31.662069,15.737931 31.662069,11.6275862 Z M41.0931034,11.6275862 C41.0931034,8.80344828 39.7586207,7.17931034 37.7103448,7.17931034 C35.662069,7.17931034 34.3275862,8.80344828 34.3275862,11.6275862 C34.3275862,14.4655172 35.662069,16.0896552 37.7103448,16.0896552 C39.7724138,16.0896552 41.0931034,14.4655172 41.0931034,11.6275862 Z" id="Shape"></path>
                        <path d="M45.1655172,5.25172414 L47.662069,5.25172414 L47.662069,7.3862069 L47.7241379,7.3862069 C48.4137931,5.93103448 49.7724138,5.03448276 51.737931,5.03448276 C54.5517241,5.03448276 56.162069,6.82758621 56.162069,9.75172414 L56.162069,18.0068966 L53.5310345,18.0068966 L53.5310345,10.2586207 C53.5310345,8.34482759 52.6344828,7.28965517 50.8137931,7.28965517 C48.9724138,7.28965517 47.7827586,8.6 47.7827586,10.5758621 L47.7827586,18.0068966 L45.1655172,18.0068966 L45.1655172,5.25172414 L45.1655172,5.25172414 Z" id="Path"></path>
                        <path d="M68.9965517,14.2586207 C68.6344828,16.5862069 66.4275862,18.2482759 63.5034483,18.2482759 C59.7586207,18.2482759 57.4896552,15.7137931 57.4896552,11.6896552 C57.4896552,7.68965517 59.7931034,5.02068966 63.3931034,5.02068966 C66.9344828,5.02068966 69.137931,7.51724138 69.137931,11.3862069 L69.137931,12.2827586 L60.1310345,12.2827586 L60.1310345,12.4413793 C60.1310345,14.6586207 61.4655172,16.1275862 63.562069,16.1275862 C65.0517241,16.1275862 66.1551724,15.3758621 66.5068966,14.262069 L68.9965517,14.262069 L68.9965517,14.2586207 Z M60.1448276,10.4517241 L66.5206897,10.4517241 C66.4586207,8.5 65.2241379,7.13103448 63.3931034,7.13103448 C61.562069,7.13103448 60.2793103,8.52413793 60.1448276,10.4517241 Z" id="Shape"></path>
                    </g>
                </g>
                <g id="android-tv" transform="translate(404.000000, 1.000000)" fill="#000000">
                    <g id="g33668" transform="translate(62.500000, 11.000000) scale(-1, 1) rotate(-180.000000) translate(-62.500000, -11.000000) translate(0.000000, 0.458333)">
                        <g id="g33674" transform="translate(0.219703, 0.661020)">
                            <path d="M8.20107922,3.6703629 C5.89984583,3.6703629 4.03009369,5.44233871 4.03009369,7.62903226 C4.03009369,9.77802419 5.89984583,11.5688508 8.20107922,11.5688508 C9.74208373,11.5688508 11.2625415,10.9090726 11.9200368,9.72147177 C11.9611302,9.64606855 12.0227704,9.53296371 12.0227704,9.38215726 L12.0227704,5.89475806 C12.0227704,5.81935484 11.9816769,5.66854839 11.9405835,5.63084677 C11.2214481,4.44324597 9.78317718,3.6703629 8.20107922,3.6703629 M15.7622747,0.654233871 L15.7622747,14.5472782 L12.0227704,14.5472782 L12.0227704,13.397379 C10.9748873,14.3210685 9.53661646,14.8300403 7.79014469,14.8300403 C3.4958788,14.8300403 0.249495968,11.6254032 0.249495968,7.62903226 C0.249495968,3.61381048 3.51642552,0.371471774 7.79014469,0.371471774 C9.55716319,0.371471774 10.9748873,0.918145161 12.0227704,1.84183468 L12.0227704,0.654233871 C12.0227704,0.654233871 15.7622747,0.654233871 15.7622747,0.654233871 Z M32.0147355,0.654233871 L32.0147355,8.17570565 C32.0147355,11.8704637 28.8710863,14.8300403 24.8850213,14.8300403 C20.8784096,14.8300403 17.7553072,11.8704637 17.7553072,8.17570565 L17.7553072,0.654233871 L21.4948114,0.654233871 L21.4948114,8.17570565 C21.4948114,10.0042339 22.8919889,11.3803427 24.8850213,11.3803427 C26.8780538,11.3803427 28.2752313,9.98538306 28.2752313,8.17570565 L28.2752313,0.654233871 C28.2752313,0.654233871 32.0147355,0.654233871 32.0147355,0.654233871 Z M41.52787,3.6703629 C39.2266366,3.6703629 37.3568845,5.44233871 37.3568845,7.62903226 C37.3568845,9.77802419 39.2266366,11.5688508 41.52787,11.5688508 C43.0688745,11.5688508 44.5071454,10.871371 45.2468276,9.72147177 C45.287921,9.64606855 45.3495612,9.53296371 45.3495612,9.38215726 L45.3495612,5.87590726 C45.3495612,5.80050403 45.3084677,5.66854839 45.2673743,5.63084677 C44.5687856,4.44324597 43.109968,3.6703629 41.52787,3.6703629 M49.0890655,0.654233871 L49.0890655,18.7321573 L45.3495612,18.7321573 L45.3495612,13.397379 C44.3016781,14.3210685 42.883954,14.8865927 41.1169355,14.8865927 C36.8226696,14.8865927 33.5762868,11.644254 33.5762868,7.64788306 C33.5762868,3.63266129 36.8432163,0.390322581 41.1169355,0.390322581 C42.8634073,0.390322581 44.3016781,0.936995968 45.3495612,1.86068548 L45.3495612,0.654233871 C45.3495612,0.654233871 49.0890655,0.654233871 49.0890655,0.654233871 Z M54.8216022,0.654233871 L54.8216022,8.08145161 C54.8216022,10.2681452 56.0749526,11.4368952 58.4789196,11.4368952 L58.4789196,14.8300403 C53.6709855,14.8300403 51.082098,12.4736895 51.082098,8.08145161 L51.082098,0.654233871 C51.082098,0.654233871 54.8216022,0.654233871 54.8216022,0.654233871 Z M66.6565168,3.84002016 C64.3758302,3.84002016 62.5266248,5.53659274 62.5266248,7.62903226 C62.5266248,9.72147177 64.3758302,11.3991935 66.6565168,11.3991935 C68.9577502,11.3991935 70.7864089,9.70262097 70.7864089,7.62903226 C70.7864089,5.53659274 68.9577502,3.84002016 66.6565168,3.84002016 M66.6565168,0.371471774 C71.0329696,0.371471774 74.5670066,3.61381048 74.5670066,7.62903226 C74.5670066,11.6254032 71.0124229,14.8300403 66.6359701,14.8300403 C62.280064,14.8300403 58.7254803,11.6254032 58.7254803,7.62903226 C58.746027,3.61381048 62.280064,0.371471774 66.6565168,0.371471774 M78.1421371,15.6217742 C79.3338472,15.6217742 80.3200901,16.5266129 80.3200901,17.6199597 C80.3200901,18.7321573 79.354394,19.6181452 78.1421371,19.6181452 C76.9504269,19.6181452 75.9847308,18.7321573 75.9847308,17.6199597 C75.9847308,16.5266129 76.9504269,15.6217742 78.1421371,15.6217742 M80.0118892,14.566129 L76.272385,14.566129 L76.272385,0.654233871 L80.0118892,0.654233871 L80.0118892,14.566129 Z M89.6688508,3.6703629 C87.3676174,3.6703629 85.4978653,5.44233871 85.4978653,7.62903226 C85.4978653,9.77802419 87.3676174,11.5688508 89.6688508,11.5688508 C91.1893086,11.5688508 92.6481262,10.871371 93.3878083,9.72147177 C93.4289018,9.64606855 93.490542,9.53296371 93.490542,9.38215726 L93.490542,5.87590726 C93.490542,5.80050403 93.4494485,5.68739919 93.4083551,5.63084677 C92.6892196,4.44324597 91.2509488,3.6703629 89.6688508,3.6703629 M97.2300463,0.654233871 L97.2300463,18.7321573 L93.490542,18.7321573 L93.490542,13.397379 C92.4426589,14.3210685 91.0249348,14.8488911 89.2579163,14.8488911 C84.9636504,14.8488911 81.7172676,11.644254 81.7172676,7.64788306 C81.7172676,3.63266129 84.9841971,0.371471774 89.2579163,0.371471774 C91.004388,0.371471774 92.4426589,0.918145161 93.490542,1.86068548 L93.490542,0.654233871 L97.2300463,0.654233871 L97.2300463,0.654233871 Z" id="path33676"></path>
                        </g>
                        <g id="g33678" transform="translate(100.030184, 0.749164)">
                            <path d="M17.1477111,0.565524194 L23.2911824,14.4774194 L20.2091734,14.4774194 L15.1752253,2.41290323 L16.2231084,2.41290323 L11.1891603,14.4585685 L8.00441769,14.4585685 L14.147889,0.565524194 L17.1477111,0.565524194 Z M7.2441888,0.395866935 L7.26473553,2.86532258 L6.9359879,2.86532258 C4.73748814,2.86532258 3.19648363,4.07177419 3.19648363,6.1265121 L3.19648363,12.177621 L7.14145517,12.177621 L7.14145517,14.4774194 L3.17593691,14.4774194 L3.17593691,18.2475806 L0.443222249,18.2475806 L0.443222249,6.1265121 C0.443222249,2.52600806 2.99101637,0.395866935 6.9359879,0.395866935 C6.9359879,0.395866935 7.2441888,0.395866935 7.2441888,0.395866935 Z" id="path33680"></path>
                        </g>
                    </g>
                </g>
                <g id="chromecast" transform="translate(556.000000, 2.000000)" fill="#000000">
                    <path d="M27.9808056,11.2756837 C27.9808056,8.90939831 29.6513178,7.09995027 32.0176032,7.09995027 C33.8970661,7.09995027 34.940726,8.21362506 35.4286425,9.32729985 L34.1060169,9.95415216 C33.7581303,9.04942815 32.9923421,8.49259075 31.9486822,8.49259075 C30.6960716,8.49259075 29.5123819,9.60626554 29.5123819,11.3467926 C29.5123819,13.0173048 30.6960716,14.2009945 31.9486822,14.2009945 C33.062357,14.2009945 33.8281452,13.6441571 34.2460467,12.7394331 L35.5686723,13.2962705 C35.0818498,14.4099453 33.968175,15.5236201 32.0887121,15.5236201 C29.6513178,15.4525112 27.9808056,13.6419692 27.9808056,11.2756837 Z M38.0738936,7.37782198 L38.0038787,8.49149677 L38.0738936,8.49149677 C38.4917951,7.79572352 39.4654401,7.16887121 40.5791149,7.16887121 C42.5975137,7.16887121 43.5722526,8.49149677 43.5722526,10.4398807 L43.5722526,15.2424664 L42.1106912,15.2424664 L42.1106912,10.6499254 C42.1106912,9.04942815 41.2759821,8.49259075 40.1623073,8.49259075 C38.9096967,8.49259075 38.0738936,9.67628046 38.0738936,10.9288911 L38.0738936,15.2446544 L36.6123322,15.2446544 L36.6123322,3.82784684 L38.0738936,3.82784684 L38.0738936,7.37782198 L38.0738936,7.37782198 Z M45.1038289,15.2435604 L45.1038289,7.37782198 L46.4953754,7.37782198 L46.4953754,8.63043262 L46.5653904,8.63043262 C46.913277,7.7257086 48.0269518,7.16887121 48.8627548,7.16887121 C49.3495773,7.16887121 49.628543,7.23888613 49.9764296,7.37782198 L49.4195922,8.76936847 C49.2106415,8.69935356 48.9327698,8.63043262 48.6538041,8.63043262 C47.6790651,8.63043262 46.6354053,9.46514172 46.6354053,10.9277971 L46.6354053,15.2435604 L45.1038289,15.2435604 Z M58.0500249,11.2756837 C58.0500249,13.6419692 56.3795127,15.4514172 54.0132273,15.4514172 C51.6469418,15.4514172 49.9764296,13.6419692 49.9764296,11.2756837 C49.9764296,8.90939831 51.6469418,7.09995027 54.0132273,7.09995027 C56.3795127,7.09995027 58.0500249,8.90939831 58.0500249,11.2756837 Z M56.5884635,11.2756837 C56.5884635,9.4662357 55.3358528,8.42148185 54.0132273,8.42148185 C52.6906017,8.42148185 51.437991,9.46514172 51.437991,11.2756837 C51.437991,13.0862258 52.6906017,14.1298856 54.0132273,14.1298856 C55.3358528,14.1298856 56.5884635,13.0851318 56.5884635,11.2756837 Z M59.2337146,7.37782198 L60.6252611,7.37782198 L60.6252611,8.49149677 L60.695276,8.49149677 C61.1131775,7.7257086 62.1568374,7.16887121 63.1315763,7.16887121 C64.384187,7.16887121 65.2199901,7.7257086 65.6367976,8.70044754 C66.193635,7.79572352 67.1683739,7.16887121 68.3509697,7.16887121 C70.2304326,7.16887121 71.1351566,8.49149677 71.1351566,10.4398807 L71.1351566,15.2424664 L69.6035803,15.2424664 L69.6035803,10.6499254 C69.6035803,9.04942815 68.976728,8.49259075 67.8630532,8.49259075 C66.6793635,8.49259075 65.8446544,9.67628046 65.8446544,10.9288911 L65.8446544,15.2446544 L64.383093,15.2446544 L64.383093,10.6499254 C64.383093,9.04942815 63.7562407,8.49259075 62.6425659,8.49259075 C61.4588762,8.49259075 60.6241671,9.67628046 60.6241671,10.9288911 L60.6241671,15.2446544 L59.1626057,15.2446544 L59.1626057,7.37891596 L59.2337146,7.37891596 L59.2337146,7.37782198 Z M72.1799105,11.2756837 C72.1799105,9.04833416 73.7114868,7.09995027 76.0077573,7.09995027 C78.3051218,7.09995027 79.8356042,8.77046246 79.8356042,11.2756837 L79.8356042,11.5535554 L73.6403779,11.5535554 C73.7103928,13.2240676 74.8929886,14.1287916 76.1455992,14.1287916 C76.9803083,14.1287916 77.8861263,13.780905 78.3029339,12.8061661 L79.6255594,13.3630035 C79.1387369,14.4766783 78.0250622,15.5203381 76.2145201,15.5203381 C73.7804078,15.4525112 72.1799105,13.6419692 72.1799105,11.2756837 L72.1799105,11.2756837 Z M76.0077573,8.49149677 C74.8940825,8.49149677 74.0593734,9.25728493 73.7804078,10.3709597 L78.3051218,10.3709597 C78.2351069,9.67518647 77.6782695,8.49149677 76.0077573,8.49149677 Z M80.6714073,11.2756837 C80.6714073,8.90939831 82.3419194,7.09995027 84.7082049,7.09995027 C86.5876678,7.09995027 87.6313277,8.21362506 88.1192442,9.32729985 L86.7966186,9.88413725 C86.448732,8.97941323 85.6829438,8.42257583 84.6392839,8.42257583 C83.3866733,8.42257583 82.2029836,9.53625062 82.2029836,11.2767777 C82.2029836,12.9472899 83.3866733,14.1309796 84.6392839,14.1309796 C85.7529587,14.1309796 86.5187469,13.5741422 86.9366484,12.6694182 L88.259274,13.2262556 C87.7724515,14.3399304 86.6587767,15.4536052 84.7793138,15.4536052 C82.3419194,15.4525112 80.6714073,13.6419692 80.6714073,11.2756837 L80.6714073,11.2756837 Z M89.0239682,12.877275 C89.0239682,11.1367479 90.6244654,10.1631029 92.4350075,10.1631029 C93.4786673,10.1631029 94.2444555,10.4409746 94.5234212,10.6499254 L94.5234212,10.3709597 C94.5234212,9.18727001 93.5486822,8.49149677 92.5050224,8.49149677 C91.6703133,8.49149677 90.9045251,8.90939831 90.6255594,9.60517156 L89.3029339,9.04833416 C89.5808056,8.35256091 90.4866236,7.16887121 92.5050224,7.16887121 C94.3844853,7.16887121 95.9849826,8.282546 95.9849826,10.5098956 L95.9849826,15.2424664 L94.5934361,15.2424664 L94.5934361,14.1287916 L94.5234212,14.1287916 C94.1055196,14.755644 93.2708105,15.4514181 91.948185,15.4514181 C90.3465937,15.4525112 89.0239682,14.4777723 89.0239682,12.877275 L89.0239682,12.877275 Z M94.5234212,11.8325211 C94.5234212,11.8325211 93.8965689,11.3456987 92.6439582,11.3456987 C91.1123819,11.3456987 90.4866236,12.1804078 90.4866236,12.877275 C90.4866236,13.7119841 91.3213327,14.1298856 92.0871208,14.1298856 C93.3397315,14.1298856 94.5234212,13.1551467 94.5234212,11.8325211 Z M96.8897066,13.2251616 L98.2123322,12.6683242 C98.6302337,13.6430632 99.3960219,14.1298856 100.300746,14.1298856 C101.20547,14.1298856 101.832322,13.7119841 101.832322,13.0162108 C101.832322,12.5983093 101.623371,12.1815017 100.788662,11.972551 L99.1881651,11.6246643 C98.4923918,11.4157136 97.0997514,10.8588762 97.0997514,9.46732969 C97.0997514,8.07578319 98.5613128,7.16996519 100.16181,7.16996519 C101.484436,7.16996519 102.667031,7.7968175 103.154948,8.97941323 L101.902337,9.53625062 C101.624465,8.77046246 100.858677,8.49259075 100.092889,8.49259075 C99.25818,8.49259075 98.5613128,8.84047737 98.5613128,9.46732969 C98.5613128,9.95415216 98.9792143,10.2331179 99.6049727,10.3720537 L101.136549,10.7199403 C102.668125,11.067827 103.293884,12.0425659 103.293884,13.0173048 C103.293884,14.4088513 102.041273,15.4536052 100.231825,15.4536052 C98.4223769,15.4536052 97.3076082,14.3388364 96.8897066,13.2251616 L96.8897066,13.2251616 Z M105.242268,12.8072601 L105.242268,8.70044754 L103.850721,8.70044754 L103.850721,7.37782198 L105.242268,7.37782198 L105.242268,5.01153655 L106.703829,5.01153655 L106.703829,7.37782198 L108.583292,7.37782198 L108.583292,8.70044754 L106.703829,8.70044754 L106.703829,12.6683242 C106.703829,13.5730482 107.051716,13.9209349 107.747489,13.9209349 C108.026455,13.9209349 108.234311,13.9209349 108.443262,13.781999 L108.930085,15.0346096 C108.582198,15.1735455 108.234311,15.2435604 107.746395,15.2435604 C106.146992,15.3124814 105.242268,14.4077573 105.242268,12.8072601 L105.242268,12.8072601 Z M21.0898061,6.75206365 L13.5730482,6.75206365 C14.9645947,7.65678767 15.9393337,9.188364 15.9393337,10.997812 C15.9393337,11.3456987 15.8693187,11.7636002 15.8003978,12.1114868 L15.8003978,12.1815017 C15.7303829,12.7383391 15.5225261,13.2251616 15.2435604,13.7130781 L10.5109896,21.9956241 L10.9288911,21.9956241 C16.9840875,21.9956241 21.9267031,17.1230234 21.9267031,10.997812 C21.9256091,9.4662357 21.6466435,8.00467429 21.0898061,6.75206365 L21.0898061,6.75206365 Z M10.997812,15.9393337 C9.60626554,15.9393337 8.28363998,15.3124814 7.37891596,14.4077573 C7.03102934,14.0598707 6.75206365,13.7119841 6.47419194,13.2940825 L6.33525609,13.1551467 L1.67051218,5.1504724 C0.626852312,6.82098458 0,8.83938339 0,10.997812 C0,16.6362009 4.17573347,21.2298359 9.60517156,21.8555942 L13.3640975,15.3124814 C12.6683242,15.7303829 11.8325211,15.9393337 10.997812,15.9393337 L10.997812,15.9393337 Z M10.997812,0 C7.37891596,0 4.17682745,1.7405271 2.15842864,4.45469915 L5.91735455,10.8577822 C5.98736947,10.9277971 5.98736947,11.066733 5.98736947,11.1356539 L5.98736947,10.9267031 C5.98736947,8.49040278 7.7968175,6.40198906 10.094182,6.05410244 L10.1641969,6.05410244 C10.5820985,5.91516658 10.998906,5.91516658 11.4168076,5.91516658 L20.6740925,5.91516658 C18.8624565,2.43630035 15.1735455,0 10.997812,0 Z M14.9645947,10.997812 C14.9645947,13.2251616 13.1551467,14.9656887 10.9967181,14.9656887 C8.76936847,14.9656887 7.02884137,13.1562407 7.02884137,10.997812 C7.02884137,8.83938339 8.83938339,7.02993536 10.997812,7.02993536 C13.1551467,6.95992044 14.9645947,8.77046246 14.9645947,10.997812 Z" id="Shape"></path>
                </g>
                <g id="Asset-1" transform="translate(687.000000, 2.000000)" fill="#000000">
                    <g id="PSFM_R-link" transform="translate(0.946199, 0.946199)">
                        <g id="PSFM_R">
                            <path d="M9.63274854,0 L9.63274854,18.5614035 L13.8432749,19.8923977 L13.8432749,4.32982456 C13.8432749,3.59532164 14.1707602,3.10877193 14.6947368,3.27719298 C15.380117,3.46666667 15.5134503,4.14269006 15.5134503,4.86783626 L15.5134503,11.0830409 C18.128655,12.348538 20.1918129,11.0830409 20.1918129,7.74269006 C20.1918129,4.32748538 18.9847953,2.80701754 15.4315789,1.58362573 C13.5312617,0.942823948 11.5949929,0.414040591 9.63274854,0" id="Path"></path>
                            <path d="M14.6362573,17.1789474 L21.3847953,14.7766082 C22.1497076,14.4935673 22.2666667,14.1099415 21.6467836,13.9064327 C21.0269006,13.702924 19.8994152,13.7590643 19.1274854,14.0374269 L14.6362573,15.6210526 L14.6362573,13.0994152 L14.8935673,13.0152047 C15.9108862,12.6864114 16.9599092,12.4653168 18.0233918,12.3555556 C19.9921378,12.1570741 21.980412,12.3967214 23.845614,13.0573099 C25.8292398,13.6865497 26.051462,14.605848 25.548538,15.2444444 C25.045614,15.8830409 23.805848,16.3345029 23.805848,16.3345029 L14.6362573,19.6093567 L14.6362573,17.1789474 Z" id="Path"></path>
                            <path d="M1.93450292,16.9239766 C-0.098245614,16.3555556 -0.437426901,15.1602339 0.488888889,14.4701754 C1.34502924,13.8385965 2.80701754,13.3637427 2.80701754,13.3637427 L8.82105263,11.2280702 L8.82105263,13.6608187 L4.49356725,15.2046784 C3.72631579,15.4783626 3.61169591,15.8643275 4.22923977,16.0678363 C4.84678363,16.271345 5.97426901,16.219883 6.74152047,15.9368421 L8.82105263,15.2046784 L8.82105263,17.3871345 L8.40233918,17.4549708 C6.23529032,17.8065309 4.01519737,17.6242665 1.93450292,16.9239766 Z" id="Path"></path>
                            <path d="M24.4851262,17.9043655 C25.2317491,17.9078788 25.83449,18.5153167 25.8321572,19.2618866 C25.8298108,20.0084566 25.2232745,20.6121054 24.4766442,20.6109415 C23.730014,20.6097743 23.1253657,20.0042346 23.1253575,19.257661 C23.112673,18.8938871 23.2520747,18.541265 23.5100813,18.2844866 C23.768088,18.0277082 24.1213879,17.8899743 24.4851262,17.9043655 Z M24.4851262,20.4103503 C24.9522313,20.4142212 25.3754992,20.135845 25.5569414,19.7054355 C25.7383835,19.2750259 25.6421288,18.7776751 25.3132015,18.4460246 C24.9842741,18.1143741 24.4877032,18.0139913 24.0557655,18.1918315 C23.6238278,18.3696717 23.3419175,18.7905758 23.3419014,19.257661 C23.3303075,19.5651094 23.4467018,19.8636058 23.6633648,20.0820625 C23.8800277,20.3005192 24.1775682,20.4193845 24.4851262,20.4103503 L24.4851262,20.4103503 Z M23.9501352,18.4711575 L24.5679224,18.4711575 C24.8545247,18.4711575 25.0678842,18.5539473 25.0678842,18.875554 C25.0783472,19.0568321 24.95549,19.2188291 24.7780974,19.257661 L24.7780974,19.257661 C24.8800005,19.2831348 24.9532433,19.3595562 25.0041948,19.541057 C25.0551463,19.7225578 25.1124668,19.881769 25.1570494,20.0314276 L24.8704471,20.0314276 C24.8290489,19.9136113 24.7780974,19.7130051 24.7462527,19.6047415 C24.7016701,19.4232407 24.6507186,19.3659246 24.4278057,19.3659246 L24.2431065,19.3659246 L24.2431065,20.0314276 L23.9628731,20.0314276 L23.9501352,18.4711575 Z M24.2303686,19.1716869 L24.4787572,19.1716869 C24.6761944,19.1716869 24.7972042,19.0952655 24.7972042,18.9137647 C24.7972042,18.7322639 24.6507186,18.6685794 24.4978641,18.6685794 L24.2303686,18.6685794 L24.2303686,19.1716869 Z" id="Shape"></path>
                        </g>
                    </g>
                    <path d="M70.6795362,6.11578947 L70.6795362,5.00935673 C70.6795362,4.96374694 70.643253,4.92641313 70.5976608,4.9251462 L62.7964912,4.9251462 C60.5321637,4.9251462 59.425731,6.32865497 59.425731,8.13450292 L59.425731,13.6526316 C59.425731,14.7754386 58.8923977,15.5824561 57.7672515,15.5824561 L50.4339181,15.5824561 C50.3883259,15.5837231 50.3520468,15.6210569 50.3520468,15.6666667 L50.3520468,16.7754386 C50.3520468,16.8219468 50.3897491,16.8596491 50.4362573,16.8596491 L58.6233918,16.8596491 C60.8877193,16.8596491 61.9964912,15.4561404 61.9964912,13.6526316 L61.9964912,8.13216374 C61.9964912,7.00935673 62.5298246,6.2 63.6526316,6.2 L70.6070175,6.2 C70.6489088,6.19412686 70.6799419,6.1580884 70.6795362,6.11578947 L70.6795362,6.11578947 Z" id="Path"></path>
                    <path d="M47.5520468,4.92748537 L33.4374269,4.92748537 C33.3918171,4.92748537 33.3544833,4.96376453 33.3531819,5.00935673 L33.3531819,6.11812865 C33.3531819,6.14067771 33.3624444,6.16224366 33.3788256,6.17773938 C33.3952068,6.19323511 33.4172538,6.20128855 33.4397661,6.2 L46.702924,6.2 C47.8280702,6.2 48.3614035,7.01169591 48.3614035,8.13450292 C48.3614035,9.25730994 47.8280702,10.0666667 46.702924,10.0666667 L36.2093567,10.0666667 C34.5719298,10.0666667 33.3531819,11.4350877 33.3531819,13.2526316 L33.3531819,16.7754386 C33.352563,16.7979666 33.3612251,16.8197676 33.3771615,16.835704 C33.3930979,16.8516404 33.4148989,16.8603025 33.4374269,16.8596836 L35.8280702,16.8596836 C35.8745784,16.8596836 35.9122807,16.8219468 35.9122807,16.7754386 L35.9122807,13.2526316 C35.9122807,12.1274854 36.5602339,11.3438596 37.4912281,11.3438596 L47.5497076,11.3438596 C49.8116959,11.3438596 50.9181287,9.94035088 50.9181287,8.13684211 C50.9181287,6.33333333 49.8140351,4.92748537 47.5520468,4.92748537 Z" id="Path"></path>
                    <path d="M89.1146199,14.3099415 L86.7239766,14.3099415 C86.6770753,14.3099587 86.6386945,14.2726151 86.6374269,14.225731 L86.6374269,6.20467836 C86.6374269,4.97192982 85.7836257,4.56725146 84.5836257,5.30643275 L70.2023392,14.1298246 C69.6362573,14.4783626 69.4467836,14.8690058 69.5824561,15.1590643 C69.7017544,15.4093567 70.0128655,15.5824561 70.6350877,15.5824561 L83.9918129,15.5824561 C84.0284084,15.5866993 84.0588601,15.6125371 84.0690058,15.6479532 L84.0690058,16.7730994 C84.0689386,16.8191305 84.1049133,16.857161 84.1508772,16.8596491 L86.5532164,16.8596491 C86.6001005,16.8583815 86.637444,16.8200007 86.6374269,16.7730994 L86.6374269,15.6690058 C86.6374098,15.6221046 86.6747533,15.5837237 86.7216374,15.5824561 L89.1146199,15.5824561 C89.1373564,15.583088 89.1593816,15.5744955 89.1756837,15.558634 C89.1919858,15.5427724 89.2011696,15.5209909 89.2011696,15.4982456 L89.2011696,14.3918129 C89.2005577,14.369476 89.1910932,14.3482981 89.1748601,14.3329424 C89.158627,14.3175867 89.1369563,14.3093124 89.1146199,14.3099415 L89.1146199,14.3099415 Z M84.071345,14.2187135 C84.071345,14.2656147 84.0340187,14.3039956 83.9871345,14.3052632 L72.7894737,14.3052632 C72.7005848,14.3052632 72.651462,14.2818713 72.6397661,14.2491228 C72.6280702,14.2163743 72.6538012,14.1578947 72.7216374,14.1134503 L83.8654971,7.2502924 C83.9426901,7.20350877 84.071345,7.2128655 84.071345,7.36491228 L84.071345,14.2187135 Z" id="Shape"></path>
                    <polygon id="Path" points="90.9274854 15.6690058 90.5274854 15.6690058 90.5274854 15.5333333 91.4795322 15.5333333 91.4795322 15.6690058 91.0888889 15.6690058 91.0888889 16.8596491 90.9274854 16.8596491"></polygon>
                    <polygon id="Path" points="92.3099415 16.7122807 92.6842105 15.5426901 92.9602339 15.5426901 92.9602339 16.8690058 92.805848 16.8690058 92.805848 15.6666667 92.4128655 16.8690058 92.2093567 16.8690058 91.8187135 15.6573099 91.8187135 16.8596491 91.6666667 16.8596491 91.6666667 15.5333333 91.9380117 15.5333333"></polygon>
                </g>
            </g>
            <g id="BOT-ROW" transform="translate(13.000000, 46.000000)">
                <g id="fire-tv" transform="translate(83.000000, 0.000000)" fill="#000000">
                    <path d="M44.4533333,24.2066667 C39.7466667,27.68 32.9133333,29.5333333 27.0333333,29.5333333 C18.7933333,29.5333333 11.3733333,26.4866667 5.76,21.42 C5.32,21.02 5.71333333,20.48 6.24,20.7866667 C12.3,24.3133333 19.7933333,26.4333333 27.5266667,26.4333333 C32.7466667,26.4333333 38.4866667,25.3533333 43.7666667,23.1133333 C44.56,22.7666667 45.2266667,23.6266667 44.4533333,24.2066667 L44.4533333,24.2066667 Z" id="Path"></path>
                    <path d="M46.4133333,21.9666667 C45.8133333,21.1933333 42.4333333,21.6 40.9133333,21.78 C40.4533333,21.8333333 40.38,21.4333333 40.7933333,21.14 C43.4866667,19.2466667 47.9066667,19.7933333 48.42,20.4266667 C48.94,21.0666667 48.2866667,25.4933333 45.76,27.6066667 C45.3733333,27.9333333 45,27.76 45.1733333,27.3266667 C45.74,25.92 47.0133333,22.74 46.4133333,21.9666667 L46.4133333,21.9666667 Z" id="Path"></path>
                    <path d="M27.2,6.95333333 C29.8533333,6.95333333 29.8266667,9.27333333 29.7666667,10.2733333 L24.16,10.2733333 C24.26,8.53333333 25.1,6.95333333 27.2,6.95333333 L27.2,6.95333333 Z M31.4466667,11.8133333 C31.78,11.8133333 31.8266667,10.7 31.8466667,10.2333333 C31.9733333,6.86 30.1933333,5.22 27.2933333,5.22 C25.6933333,5.22 24.22,5.8 23.3,6.91333333 C22.4466667,7.93333333 21.9533333,9.37333333 21.9533333,11.3133333 C21.9533333,13.2266667 22.3866667,14.6533333 23.22,15.66 C24.0733333,16.68 25.3733333,17.3866667 27.6333333,17.3866667 C28.4866667,17.3866667 30.1533333,17.2066667 31.1933333,16.6866667 C31.58,16.5466667 31.58,16.3733333 31.58,16.0066667 L31.58,15.38 C31.58,15.04 31.4333333,14.9 31.0666667,15.02 C29.8666667,15.4266667 28.66,15.5866667 27.9333333,15.5866667 C26.68,15.5866667 25.5866667,15.22 24.98,14.5066667 C24.3866667,13.7333333 24.1866667,12.86 24.1333333,11.8066667 C26.56,11.8133333 29.02,11.8133333 31.4466667,11.8133333 L31.4466667,11.8133333 Z" id="Shape"></path>
                    <path d="M4.38,5.56666667 L4.38,3.33333333 C4.38,1.54666667 6.17333333,1.77333333 7.30666667,1.92 C7.81333333,2.02 8.00666667,1.93333333 8.00666667,1.54 L8.00666667,0.8 C8.00666667,0.433333333 7.86,0.3 7.35333333,0.166666667 C4.54666667,-0.353333333 2.11333333,0.206666667 2.11333333,3.76666667 L2.11333333,5.62666667 L0.473333333,5.82 C0.126666667,5.84666667 0,5.95333333 0,6.30666667 L0,6.89333333 C0,7.21333333 0.14,7.34 0.446666667,7.34 L2.12,7.34 L2.12,16.5933333 C2.12,16.9133333 2.24666667,17.04 2.56666667,17.04 L3.93333333,17.04 C4.25333333,17.04 4.38,16.9133333 4.38,16.5933333 L4.38,7.34 L7.41333333,7.34 C7.73333333,7.34 7.86,7.21333333 7.86,6.89333333 L7.86,6.01333333 C7.86,5.69333333 7.71333333,5.56666667 7.41333333,5.56666667 L4.38,5.56666667 L4.38,5.56666667 Z" id="Path"></path>
                    <path d="M11.5866667,5.58 L10.2466667,5.58 C9.92666667,5.58 9.8,5.70666667 9.8,6.02666667 L9.8,16.5933333 C9.8,16.9133333 9.92666667,17.04 10.2466667,17.04 L11.5866667,17.04 C11.9066667,17.04 12.0333333,16.9133333 12.0333333,16.5933333 L12.0333333,6.02666667 C12.04,5.77333333 11.9066667,5.58 11.5866667,5.58 L11.5866667,5.58 Z M10.9133333,0.806666667 C10.1266667,0.806666667 9.52,1.34 9.52,2.18 C9.52,3.03333333 10.0733333,3.55333333 10.9333333,3.55333333 C11.7933333,3.55333333 12.3466667,3.02 12.3466667,2.18 C12.3466667,1.25333333 11.76,0.806666667 10.9133333,0.806666667 L10.9133333,0.806666667 Z" id="Shape"></path>
                    <path d="M50.1733333,17.04 L48.74,17.04 C48.42,17.04 48.24,16.9133333 48.1133333,16.5933333 L43.96,6.10666667 C43.8333333,5.78666667 43.9133333,5.58 44.2533333,5.58 L45.7866667,5.58 C46.0933333,5.58 46.22,5.77333333 46.32,6.02666667 L49.46,14.9666667 L52.5866667,6.02666667 C52.7266667,5.70666667 52.8666667,5.58 53.1866667,5.58 L54.56,5.58 C54.94,5.58 55.0333333,5.78 54.8866667,6.1 L50.7266667,16.5933333 C50.6133333,16.8466667 50.48,17.04 50.1733333,17.04 L50.1733333,17.04 Z" id="Path"></path>
                    <path d="M37.0333333,14.1 C37.0333333,16.7666667 38.8733333,17.2066667 40.2,17.2066667 C40.9133333,17.2066667 41.4933333,17.1333333 42.0666667,17.0133333 C42.7666667,16.8066667 42.7600012,16.6933333 42.7600012,16.3733333 C42.7600012,16.1 42.7600012,15.8333333 42.7600012,15.56 C42.7600012,15.24 42.6066667,15.14 42.3066667,15.2133333 C41.7666667,15.3 41.4133333,15.36 40.88,15.3866667 C39.4066667,15.2866667 39.2666667,14.8133333 39.2666667,13.3733333 L39.2666667,7.34666667 L42.2333333,7.34666667 C42.5533333,7.34666667 42.68,7.22 42.68,6.9 L42.68,6 C42.68,5.68 42.5333333,5.55333333 42.2333333,5.55333333 L39.2666667,5.55333333 L39.2666667,2.8 C39.2666667,2.54666667 39.14,2.35333333 38.82,2.35333333 L37.92,2.35333333 C37.5733333,2.35333333 37.3933333,2.48 37.3666667,2.82666667 L37.08,5.60666667 L35.4066667,5.81333333 C35.06,5.84666667 34.9333333,6.02 34.9333333,6.36666667 L34.9333333,6.88666667 C34.9333333,7.20666667 35.1266667,7.33333333 35.38,7.33333333 L37.0333333,7.33333333 C37.0333333,9.59333333 37.0333333,11.8466667 37.0333333,14.1 L37.0333333,14.1 Z" id="Path"></path>
                    <path d="M17.1266667,7.23333333 L16.96,5.94 C16.8866667,5.62 16.7066667,5.58 16.44,5.58 L15.44,5.58 C15.12,5.58 14.9933333,5.70666667 14.9933333,6.02666667 L14.9933333,16.5933333 C14.9933333,16.9133333 15.12,17.04 15.44,17.04 L16.78,17.04 C17.1,17.04 17.2266667,16.9133333 17.2266667,16.5933333 L17.2266667,8.59333333 C18.1,7.95333333 18.8533333,7.52 20.5666667,7.52 C20.9866667,7.52666667 21.58,7.68666667 21.58,7.24 L21.58,5.92 C21.58,5.62666667 21.4066667,5.46666667 20.84,5.46666667 C19.4266667,5.46666667 18.4733333,5.82 17.1266667,7.23333333 L17.1266667,7.23333333 Z" id="Path"></path>
                </g>
                <g id="Fire" transform="translate(0.000000, 0.000000)" fill="#000000">
                    <path d="M36.0923077,9.2 C39.6307692,9.2 39.5423077,12.2961538 39.4538462,13.6230769 L32.0230769,13.6230769 C32.2,11.3230769 33.35,9.2 36.0923077,9.2 L36.0923077,9.2 Z M41.7538462,15.6576923 C42.1961538,15.6576923 42.2846154,14.1538462 42.2846154,13.5346154 C42.4615385,9.02307692 40.0730769,6.9 36.2692308,6.9 C34.1461538,6.9 32.2,7.69615385 30.9615385,9.11153846 C29.8115385,10.4384615 29.1923077,12.3846154 29.1923077,14.95 C29.1923077,17.5153846 29.8115385,19.3730769 30.8730769,20.7 C32.0230769,22.0269231 33.7038462,23 36.7115385,23 C37.8615385,23 40.0730769,22.7346154 41.4,22.1153846 C41.9307692,21.9384615 41.9307692,21.6730769 41.9307692,21.2307692 L41.9307692,20.4346154 C41.9307692,19.9923077 41.7538462,19.8153846 41.2230769,19.9923077 C39.6307692,20.5230769 38.0384615,20.7884615 37.0653846,20.7884615 C35.3846154,20.7884615 33.9692308,20.3461538 33.1730769,19.3730769 C32.3769231,18.3115385 32.1115385,17.1615385 32.0230769,15.8346154 C35.2076923,15.6576923 38.4807692,15.6576923 41.7538462,15.6576923 L41.7538462,15.6576923 Z" id="Shape"></path>
                    <path d="M5.83846154,7.43076923 L5.83846154,4.42307692 C5.83846154,2.03461538 8.22692308,2.38846154 9.73076923,2.56538462 C10.35,2.65384615 10.6153846,2.56538462 10.6153846,2.03461538 L10.6153846,1.06153846 C10.6153846,0.619230769 10.4384615,0.353846154 9.73076923,0.265384615 C6.01538462,-0.442307692 2.83076923,0.265384615 2.83076923,5.04230769 L2.83076923,7.51923077 L0.619230769,7.69615385 C0.176923077,7.78461538 0,7.87307692 0,8.40384615 L0,9.2 C0,9.55384615 0.176923077,9.73076923 0.619230769,9.73076923 L2.83076923,9.73076923 L2.83076923,22.0269231 C2.83076923,22.4692308 3.00769231,22.6461538 3.45,22.6461538 L5.21923077,22.6461538 C5.66153846,22.6461538 5.83846154,22.4692308 5.83846154,22.0269231 L5.83846154,9.73076923 L9.90769231,9.73076923 C10.35,9.73076923 10.5269231,9.55384615 10.5269231,9.11153846 L10.5269231,7.96153846 C10.5269231,7.51923077 10.35,7.34230769 9.90769231,7.34230769 L5.83846154,7.34230769 L5.83846154,7.43076923 Z" id="Path"></path>
                    <path d="M15.3923077,7.43076923 L13.6230769,7.43076923 C13.1807692,7.43076923 13.0038462,7.60769231 13.0038462,8.05 L13.0038462,22.0269231 C13.0038462,22.4692308 13.1807692,22.6461538 13.6230769,22.6461538 L15.3923077,22.6461538 C15.8346154,22.6461538 16.0115385,22.4692308 16.0115385,22.0269231 L16.0115385,7.96153846 C16.0115385,7.69615385 15.8346154,7.43076923 15.3923077,7.43076923 L15.3923077,7.43076923 Z M14.5076923,1.06153846 C13.4461538,1.06153846 12.65,1.76923077 12.65,2.91923077 C12.65,4.06923077 13.3576923,4.77692308 14.5076923,4.77692308 C15.6576923,4.77692308 16.3653846,4.06923077 16.3653846,2.91923077 C16.3653846,1.68076923 15.5692308,1.06153846 14.5076923,1.06153846 L14.5076923,1.06153846 Z" id="Shape"></path>
                    <path d="M22.7346154,9.64230769 L22.5576923,7.96153846 C22.4692308,7.51923077 22.2038462,7.51923077 21.85,7.51923077 L20.5230769,7.51923077 C20.0807692,7.51923077 19.9038462,7.69615385 19.9038462,8.13846154 L19.9038462,22.1153846 C19.9038462,22.5576923 20.0807692,22.7346154 20.5230769,22.7346154 L22.2923077,22.7346154 C22.7346154,22.7346154 22.9115385,22.5576923 22.9115385,22.1153846 L22.9115385,11.5 C24.0615385,10.6153846 25.0346154,10.0846154 27.3346154,10.0846154 C27.8653846,10.0846154 28.6615385,10.2615385 28.6615385,9.73076923 L28.6615385,7.96153846 C28.6615385,7.60769231 28.3961538,7.34230769 27.6884615,7.34230769 C25.7423077,7.25384615 24.5038462,7.69615385 22.7346154,9.64230769 L22.7346154,9.64230769 Z" id="Path"></path>
                </g>
                <g id="lg-electronics" transform="translate(177.000000, 3.000000)" fill="#000000">
                    <path d="M12,0 C5.3729244,0 0,5.3729244 0,12 C0,18.6270756 5.3729244,24 12,24 C18.6270756,24 24,18.6270756 24,12 C24,5.3729244 18.6270756,0 12,0 Z M14.920883,16.2219183 L14.920883,17.143192 L12.4360227,17.143192 L12.4360227,17.1502247 L11.514749,17.1502247 L11.514749,6.83102168 L12.4360227,6.83102168 L12.4360227,16.2219183 L14.920883,16.2219183 Z M12,22.0449307 C6.45360422,22.0449307 1.95506935,17.54874 1.95506935,12 C1.95506935,6.45126001 6.45126001,1.95506935 12,1.95506935 C12.1453409,1.95506935 12.293026,1.95741356 12.4383669,1.96444618 L12.4360227,2.87868724 C12.2906818,2.87165462 12.1453409,2.86931041 12,2.86931041 C6.95760891,2.86931041 2.86931041,6.95760891 2.86931041,12 C2.86931041,17.0423911 6.95760891,21.1306896 12,21.1306896 C16.906427,21.1306896 20.9079898,17.2627466 21.1213128,12.4102364 L21.123657,12.3844501 L14.9349482,12.3844501 L14.9349482,11.4631764 L22.0285212,11.4631764 C22.037898,11.6413362 22.0425874,11.819496 22.0425874,12 C22.0449307,17.5463958 17.5463958,22.0449307 12,22.0449307 Z M9.66516898,8.19769486 C9.66516898,8.97831608 9.03223286,9.60890799 8.25395585,9.60890799 L8.25395585,9.60890799 C7.47333464,9.60890799 6.84274272,8.97597187 6.84274272,8.19769486 C6.84274272,7.41941786 7.47567884,6.78648173 8.25395585,6.78648173 C9.03223286,6.78648173 9.66516898,7.41941786 9.66516898,8.19769486 Z" id="Shape"></path>
                    <path d="M30,17.7025911 L38.3937586,17.7025911 L38.3937586,15.2151709 L33.0816888,15.2151709 L33.0816888,6.30191513 L30,6.30191513 L30,17.7025911 Z M48.5337311,7.10401802 C47.5722809,6.37176117 46.3331804,6 44.8531436,6 C43.0977513,6 41.6314823,6.52947803 40.6103717,7.52985355 C39.5456631,8.57529103 38.981184,10.1164101 38.981184,11.9842283 C38.981184,13.9804732 39.577788,15.6657905 40.658559,16.7269996 C41.5075723,17.5606459 42.6388251,18 43.9352914,18 C46.7783387,18 47.4323084,16.3259482 47.4323084,16.3259482 L47.4323084,17.6980849 L50,17.6980849 L50,11.263237 L44.8898577,11.263237 L44.8898577,13.2775066 L47.2418541,13.2775066 C47.2418541,13.2775066 47.2648004,15.8144949 44.8370812,15.8144949 C44.2198256,15.8144949 43.6714089,15.5936913 43.2491969,15.1791213 C42.5906379,14.5324822 42.2418541,13.4442358 42.2418541,12.0337965 C42.2418541,9.69508074 43.1872419,8.30041307 44.7728316,8.30041307 C45.7618173,8.30041307 46.5075723,8.89748404 46.6980266,9.80097634 L49.9655805,9.80097634 C49.7980725,8.4874202 49.4309316,7.80247841 48.5337311,7.10401802 L48.5337311,7.10401802 Z" id="Shape"></path>
                </g>
                <g id="oculus" transform="translate(267.000000, 5.000000)" fill="#1C1E20">
                    <path d="M89.9348011,7.28953991 C89.6121628,7.22082403 89.2742817,7.1953737 88.9465624,7.23354919 C88.7814326,7.25390945 88.6213836,7.28699488 88.4664156,7.34807567 C88.3444735,7.39388627 88.2352338,7.45242202 88.1336154,7.53386308 C87.9888092,7.65093459 87.8744886,7.80872664 87.8516244,7.99960411 C87.8313008,8.16248621 87.8846504,8.31264316 87.9862688,8.43989481 C88.1056704,8.58750672 88.2784216,8.68930803 88.4460919,8.76311399 C88.6036004,8.83182988 88.7687303,8.88273054 88.9338601,8.9259961 C89.126935,8.97689676 89.3225504,9.02016232 89.5181658,9.06342788 C89.9627461,9.16268416 90.4022456,9.26448548 90.8290428,9.43245765 C91.5835592,9.73022651 92.3025092,10.234143 92.5972025,11.0587337 C92.7242254,11.4150383 92.754711,11.7942482 92.7039018,12.165823 C92.6403903,12.6162939 92.4600177,13.0438594 92.1831076,13.4052541 C91.9671686,13.6852077 91.7055013,13.9117156 91.4031866,14.092413 C90.9916322,14.3392812 90.531809,14.4894381 90.0618241,14.5708792 C89.6959979,14.634505 89.3327122,14.6574103 88.9592647,14.6421401 C88.4969011,14.6243249 88.0523207,14.5530639 87.6077403,14.4283573 C86.8024147,14.1993044 86.0783838,13.8073693 85.4356476,13.2729124 C85.7963928,12.7919011 86.1545976,12.3108899 86.5153428,11.8298787 C86.9141949,12.1378277 87.3308303,12.3872409 87.8058962,12.5628482 C88.1158322,12.6773747 88.4308492,12.7537256 88.7585684,12.7944462 C89.0532617,12.8300766 89.3631977,12.8377117 89.6604315,12.8020813 C89.8738301,12.7740859 90.0872287,12.7231853 90.282844,12.626474 C90.4301907,12.552668 90.5673755,12.4534118 90.6715343,12.32107 C90.7579099,12.2090886 90.8163405,12.0792919 90.8290428,11.9367701 C90.8442855,11.7840681 90.8061786,11.6364562 90.7274244,11.5041145 C90.6359679,11.3488675 90.4962426,11.2317959 90.3463555,11.1427198 C90.1558211,11.0281933 89.9348011,10.9492973 89.7214025,10.8882165 C89.4597352,10.8118655 89.1955274,10.7584198 88.9287792,10.6998841 C88.1717223,10.537002 87.2901829,10.3359443 86.660149,9.78876227 C86.3603748,9.52662387 86.1368144,9.20085966 86.0148723,8.81910471 C85.8827684,8.40171931 85.8878494,7.96142861 86.00217,7.54404321 C86.096167,7.20555383 86.256216,6.89251478 86.4772359,6.62019625 C86.7846315,6.24098634 87.1758622,5.97121285 87.6204426,5.78542544 C87.9557833,5.64544863 88.2987453,5.55891751 88.65695,5.51056189 C89.1193136,5.4494811 89.5867582,5.45711619 90.0465813,5.52837712 C90.8696901,5.65308373 91.6369088,5.96866782 92.312671,6.45476911 C91.9747899,6.9179651 91.6394493,7.3811611 91.3015682,7.8443571 C90.879852,7.58730877 90.4251097,7.39134123 89.9348011,7.28953991 Z M73.3125756,1.2781721 L71.29037,1.2781721 L71.29037,14.3952719 L73.3125756,14.3952719 L73.3125756,1.2781721 Z M83.7640254,14.3952719 C83.7640254,11.5626502 83.7640254,8.73257359 83.7640254,5.89995193 C83.0908036,5.89995193 82.4150414,5.89995193 81.7418197,5.89995193 C81.7418197,6.44458898 81.7418197,9.36883183 81.7392793,9.91346888 C81.7367388,10.1476119 81.7367388,10.3817549 81.721496,10.615898 C81.7113342,10.7660549 81.6960915,10.9162119 81.6681464,11.0663688 C81.6147968,11.3463224 81.5233402,11.6135509 81.3683722,11.857874 C80.9923842,12.4483217 80.3344052,12.7359104 79.663724,12.7435455 C78.9828809,12.7511806 78.3350637,12.471227 77.9692376,11.8604191 C77.821891,11.6135509 77.7355153,11.3412324 77.6821657,11.0612787 C77.6110328,10.6871589 77.5932496,10.2926788 77.5830878,9.91346888 C77.5780069,9.66660068 77.5754664,9.41973249 77.5754664,9.17031926 C77.5729259,8.74784379 77.5729259,8.32791336 77.5729259,7.90543789 C77.5729259,7.23609422 77.5729259,6.56675056 77.5729259,5.89740689 C76.8997042,5.89740689 76.223942,5.89740689 75.5507203,5.89740689 C75.5507203,6.58965585 75.5507203,8.64858751 75.5532608,9.34083647 C75.5558012,9.67169075 75.5583417,10.0050901 75.5685035,10.3359443 C75.5761249,10.5777225 75.5862867,10.8195006 75.6091509,11.0612787 C75.6599601,11.6339112 75.7666594,12.1938184 76.0257862,12.7206402 C76.5618231,13.7997342 77.600871,14.4232673 78.7593205,14.560699 C79.3283833,14.6268699 79.912689,14.5785143 80.4614282,14.4156322 C80.9898438,14.2603851 81.5487448,13.9804315 81.9399755,13.5757713 C81.9577588,13.8480898 81.9780824,14.1229534 81.9958657,14.3952719 C82.5827118,14.3952719 83.1720983,14.3952719 83.7640254,14.3952719 Z M59.4391272,13.3009077 C58.9767636,12.8224415 58.5144,12.3439753 58.0520364,11.8680542 C57.6938316,12.2014535 57.2543321,12.4279614 56.7792662,12.5348528 C56.3067408,12.6391992 55.8062703,12.626474 55.3439067,12.4763171 C54.8764622,12.3236151 54.4776101,12.0385714 54.1905382,11.6313661 C53.9085472,11.2317959 53.7612006,10.7507847 53.735796,10.2672285 C53.7103914,9.78876227 53.8018479,9.28739078 54.0254083,8.85728021 C54.261671,8.40680938 54.6122544,8.09377032 55.0771585,7.89271272 C55.2753143,7.8061816 55.4760106,7.75019088 55.6868687,7.71456042 C55.9586979,7.66874982 56.2254461,7.66365976 56.4998157,7.69674519 C56.9901244,7.75528094 57.4372452,7.93343325 57.8513401,8.19811668 C58.2578136,7.68147499 58.6642871,7.1648333 59.0707606,6.64819161 C58.3670533,6.09337443 57.5718896,5.77015525 56.6827288,5.67598903 C55.8215131,5.58436784 54.9221905,5.71670956 54.1346481,6.0908294 C53.3318629,6.47258434 52.6942076,7.08084721 52.2750318,7.86726239 C51.8634774,8.63840737 51.6907262,9.53171394 51.7313735,10.3970251 C51.7720209,11.2648814 52.0336882,12.1301926 52.5366991,12.8529819 C53.0473315,13.5834064 53.763741,14.1000481 54.5995521,14.3876368 C55.422661,14.6701355 56.3296049,14.715946 57.1781184,14.5377937 C58.0367936,14.3545514 58.8268765,13.942256 59.4391272,13.3009077 Z M68.9048787,14.3952719 C68.9048787,11.5626502 68.9048787,8.73257359 68.9048787,5.89995193 C68.231657,5.89995193 67.5558948,5.89995193 66.882673,5.89995193 C66.882673,6.44458898 66.882673,9.36883183 66.8801326,9.91346888 C66.8775921,10.1476119 66.8775921,10.3817549 66.8623494,10.615898 C66.8521875,10.7660549 66.8369448,10.9162119 66.8089997,11.0663688 C66.7556501,11.3463224 66.6641935,11.6135509 66.5092255,11.857874 C66.1332375,12.4483217 65.4752586,12.7359104 64.8045773,12.7435455 C64.1237342,12.7511806 63.4759171,12.471227 63.1100909,11.8604191 C62.9627443,11.6135509 62.8763687,11.3412324 62.823019,11.0612787 C62.7518862,10.6871589 62.7341029,10.2926788 62.7239411,9.91346888 C62.7188602,9.66660068 62.7163197,9.41973249 62.7163197,9.17031926 C62.7137793,8.74784379 62.7137793,8.32791336 62.7137793,7.90543789 C62.7137793,7.23609422 62.7137793,6.56675056 62.7137793,5.89740689 C62.0405575,5.89740689 61.3647954,5.89740689 60.6915736,5.89740689 C60.6915736,6.58965585 60.6915736,8.64858751 60.6941141,9.34083647 C60.6966545,9.67169075 60.699195,10.0050901 60.7093568,10.3359443 C60.7169782,10.5777225 60.7271401,10.8195006 60.7500042,11.0612787 C60.8008134,11.6339112 60.9075127,12.1938184 61.1666395,12.7206402 C61.7026764,13.7997342 62.7417243,14.4232673 63.9001738,14.560699 C64.4692367,14.6268699 65.0535423,14.5785143 65.6022815,14.4156322 C66.1306971,14.2603851 66.6895981,13.9804315 67.0808289,13.5757713 C67.0986121,13.8480898 67.1189358,14.1229534 67.136719,14.3952719 C67.7235651,14.3952719 68.3154921,14.3952719 68.9048787,14.3952719 Z M50.2325482,10.1628821 C50.2274216,11.3335973 49.8031649,12.4839522 48.9673538,13.3263581 C48.1340831,14.168764 46.9908764,14.6065096 45.8197247,14.6014634 C44.6485729,14.5963295 43.5079067,14.1509487 42.6797169,13.3034528 C41.8515272,12.4534118 41.4323514,11.3005118 41.4373867,10.1297967 C41.4425132,8.95908153 41.8667699,7.80872664 42.702581,6.96632073 C43.5358517,6.12391483 44.6790584,5.68616916 45.8502102,5.69121534 C47.0213619,5.69634929 48.1620282,6.14173006 48.9902179,6.98922603 C49.8184077,7.836722 50.2375834,8.99216695 50.2325482,10.1628821 Z M48.2458633,10.155247 C48.2458633,9.98218477 48.2306206,9.81166756 48.2001351,9.64115035 C48.1696495,9.47826825 48.1264617,9.31538614 48.0654907,9.16013913 C48.0096006,9.01252722 47.9359273,8.87000537 47.8520921,8.73766366 C47.7707974,8.61041201 47.6768004,8.49079546 47.5701011,8.38135905 C47.4634018,8.27192263 47.3465407,8.17521138 47.2220582,8.09122529 C47.0924948,8.00469417 46.9527695,7.93088822 46.8105038,7.87235246 C46.6606167,7.81127167 46.5031082,7.76291604 46.3430593,7.73237565 C46.1804699,7.69929022 46.0127996,7.68402002 45.8451292,7.68402002 C45.6774589,7.68402002 45.5123291,7.69929022 45.3471992,7.72983061 C45.1871503,7.76037101 45.0296418,7.8061816 44.8797547,7.86726239 C44.7349485,7.92579815 44.5952233,7.99705907 44.4656598,8.08359019 C44.3386369,8.16757628 44.2217757,8.26428753 44.1150764,8.37117892 C44.0083771,8.4780703 43.9118397,8.59768685 43.830545,8.7249385 C43.7441694,8.85728021 43.6730365,8.99980205 43.6146059,9.14741396 C43.5536349,9.30266097 43.5079067,9.46299805 43.4774211,9.62588016 C43.4443952,9.79639736 43.4291524,9.96691457 43.4291524,10.1399768 C43.4291524,10.3130391 43.4443952,10.4835563 43.4748807,10.6540735 C43.5053662,10.8169556 43.548554,10.9798377 43.609525,11.1350847 C43.6679556,11.2826966 43.7390885,11.4252184 43.8229236,11.5575602 C43.9042183,11.6848118 43.9982153,11.8044284 44.1049146,11.9138648 C44.2116139,12.0207562 44.328475,12.1200124 44.4529575,12.2039985 C44.582521,12.2905296 44.7222462,12.3643356 44.8645119,12.4228714 C45.014399,12.4839522 45.1719075,12.5323078 45.3319565,12.5628482 C45.4970863,12.5959336 45.6622162,12.6112038 45.8298865,12.6112038 C45.9975568,12.6112038 46.1652271,12.5959336 46.3278165,12.5653932 C46.4878655,12.5348528 46.6453739,12.4890422 46.795261,12.4279614 C46.9400672,12.3694257 47.0797925,12.2981647 47.2093559,12.2116336 C47.3363789,12.1276475 47.45324,12.0309363 47.5599393,11.9240449 C47.6666386,11.8171535 47.763176,11.697537 47.8444707,11.5702853 C47.9308464,11.4379436 48.0019792,11.2954218 48.0604098,11.1478099 C48.1213808,10.9925628 48.1671091,10.8322258 48.1975946,10.6693437 C48.2280801,10.4988265 48.2458633,10.3257642 48.2458633,10.155247 Z M33.0589974,10 C33.0589974,13.0082289 31.6947707,15.8510307 29.3550077,17.7343551 C28.1914773,18.6709272 26.8602766,19.3173656 25.4096743,19.6660351 C24.5789441,19.8670927 23.7482139,19.9561689 22.89716,19.9841642 C22.2671261,20.0045245 21.6370922,19.9994344 21.0070583,19.9994344 C18.0220186,19.9994344 15.0369788,19.9994344 12.0519391,19.9994344 C11.4219052,19.9994344 10.7918713,20.0045245 10.1643778,19.9841642 C9.31332394,19.9561689 8.48259374,19.8670927 7.65440399,19.6685802 C6.20380171,19.3199106 4.87260101,18.6734723 3.70907064,17.7369001 C1.36422667,15.8510307 0,13.010774 0,10 C0,6.99177106 1.36422667,4.14896926 3.70398972,2.26564488 C4.8675201,1.32907276 6.19872079,0.682634392 7.64932307,0.333964879 C8.48005328,0.132907276 9.31078348,0.0438311229 10.1618374,0.0158357605 C10.7918713,-0.00452450301 11.4219052,0.000565562876 12.0519391,0.000565562876 C15.0369788,0.000565562876 18.0220186,0.000565562876 21.0070583,0.000565562876 C21.6370922,0.000565562876 22.2671261,-0.00452450301 22.8946196,0.0158357605 C23.7456735,0.0438311229 24.5764037,0.132907276 25.4045934,0.331419846 C26.8551957,0.680089359 28.1863964,1.32652773 29.3499268,2.26309985 C31.6947707,4.14896926 33.0589974,6.98922603 33.0589974,10 Z M26.4004535,10.002545 C26.4004535,8.92345106 25.8694975,7.92325312 24.9854176,7.31244521 C24.5433777,7.00704126 24.0556095,6.82379889 23.5271939,6.73726777 C23.0013189,6.65073665 22.4779842,6.66855188 21.9521092,6.66855188 C18.3370355,6.66855188 14.7245023,6.66855188 11.1094287,6.66855188 C10.5835536,6.66855188 10.060219,6.65073665 9.5343439,6.73726777 C9.00846882,6.82379889 8.52070063,7.00704126 8.0786607,7.30990018 C7.19458085,7.92070808 6.66108439,8.92090603 6.66108439,10 C6.66108439,11.079094 7.19204039,12.0792919 8.07612024,12.6900998 C8.51816017,12.9955038 9.00592836,13.1787461 9.5343439,13.2652773 C10.060219,13.3518084 10.5835536,13.3339932 11.1094287,13.3339932 C14.7245023,13.3339932 18.3370355,13.3339932 21.9521092,13.3339932 C22.4779842,13.3339932 23.0013189,13.3518084 23.5271939,13.2652773 C24.053069,13.1787461 24.5408372,12.9955038 24.9828771,12.6926449 C25.866957,12.0792919 26.397913,11.079094 26.4004535,10.002545 Z" id="Shape"></path>
                </g>
                <g id="samsung" transform="translate(504.251666, 7.000000)" fill="#000000">
                    <path d="M59.6392157,7.44052288 C59.6392157,7.44052288 58.5830065,6.7869281 57.9294118,6.53594771 C57.9294118,6.53594771 55.9058824,5.6 55.503268,5.1503268 C55.503268,5.1503268 54.7137255,4.40784314 55.1738562,3.54509804 C55.1738562,3.54509804 55.3673203,2.98039216 56.1986928,2.98039216 C56.1986928,2.98039216 57.2862745,3.0379085 57.2862745,3.93202614 L57.2862745,5.19215686 L61.1764706,5.19215686 L61.1712418,3.34117647 C61.1712418,3.34117647 61.469281,0.308496732 56.5908497,0.17254902 C56.5908497,0.17254902 52.7529412,-0.0784313725 51.654902,1.9869281 C51.654902,1.9869281 51.220915,2.44705882 51.220915,4.05228758 L51.220915,5.2130719 C51.220915,5.2130719 51.179085,6.55163399 51.8588235,7.41437908 C51.8588235,7.41437908 52.2457516,7.97908497 53.1973856,8.60130719 C53.1973856,8.60130719 55.1320261,9.64183007 56.2928105,10.2379085 C56.2928105,10.2379085 57.4640523,10.9071895 57.3124183,11.9686275 C57.3124183,11.9686275 57.2183007,13.0614379 56.0836601,13.0143791 C56.0836601,13.0143791 55.048366,12.9673203 55.048366,11.8954248 L55.048366,10.6405229 L50.9071895,10.6405229 L50.9071895,12.4653595 C50.9071895,12.4653595 50.7921569,15.9581699 56.1150327,15.9581699 C56.1150327,15.9581699 61.2026144,16.0627451 61.4379085,12.3764706 L61.4379085,10.8915033 C61.4379085,10.8915033 61.620915,8.63267974 59.6392157,7.44052288 L59.6392157,7.44052288 Z M39.7333333,0.60130719 L38.4313725,8.76339869 L38.1281046,8.76339869 L36.8836601,0.674509804 L30.3895425,0.674509804 L30.0653595,15.4509804 L33.9137255,15.4509804 L33.9607843,4.31895425 L34.2640523,4.31895425 L36.303268,15.4509804 L40.3503268,15.4509804 L42.3529412,4.32418301 L42.6196078,4.32418301 L42.7137255,15.4509804 L46.5777778,15.4509804 L46.1594771,0.60130719 L39.7333333,0.60130719 L39.7333333,0.60130719 Z M16.8418301,0.664052288 L14.2849673,15.4352941 L18.4261438,15.4352941 L19.9424837,3.98431373 L20.2823529,3.98431373 L21.7986928,15.4352941 L25.9346405,15.4352941 L23.372549,0.664052288 L16.8418301,0.664052288 Z M103.712418,7.23660131 L103.712418,9.41699346 L104.773856,9.41699346 L104.773856,11.7542484 C104.773856,12.8993464 103.796078,12.9202614 103.796078,12.9202614 C102.60915,12.9202614 102.65098,11.8326797 102.65098,11.8326797 L102.65098,3.74379085 C102.65098,2.9124183 103.70719,2.86535948 103.70719,2.86535948 C104.721569,2.86535948 104.726797,3.85882353 104.726797,3.85882353 L104.726797,5.0875817 L108.627451,5.0875817 C108.752941,2.6875817 108.277124,2.10718954 108.277124,2.10718954 C107.309804,-0.062745098 103.649673,0.0522875817 103.649673,0.0522875817 C98.0287582,0.0522875817 98.6509804,4.36601307 98.6509804,4.36601307 L98.6509804,12.1882353 C98.7712418,16.2352941 104.308497,15.8222222 104.402614,15.8169935 C106.865359,15.545098 107.607843,14.7607843 107.607843,14.7607843 C108.29281,14.2535948 108.470588,13.5477124 108.470588,13.5477124 C108.664052,13.1398693 108.71634,11.827451 108.71634,11.827451 L108.71634,7.23137255 L103.712418,7.23660131 L103.712418,7.23660131 Z M90.7921569,9.64183007 L90.6248366,9.64183007 L86.6666667,0.606535948 L81.9346405,0.606535948 L81.9346405,15.4509804 L85.7882353,15.4509804 L85.5581699,6.41568627 L85.730719,6.41568627 L89.8300654,15.4509804 L94.420915,15.4509804 L94.420915,0.60130719 L90.5202614,0.60130719 L90.7921569,9.64183007 L90.7921569,9.64183007 Z M72.5333333,11.7542484 C72.5333333,11.7542484 72.5908497,12.972549 71.4614379,12.972549 C71.4614379,12.972549 70.2745098,13.0352941 70.2745098,11.7856209 L70.2640523,0.616993464 L66.0392157,0.616993464 L66.0392157,11.696732 C66.0392157,11.696732 65.6052288,15.8902524 71.524183,15.8902524 C71.524183,15.8902524 76.669281,15.9529412 76.669281,11.8901961 L76.669281,0.616993464 L72.5385621,0.616993464 L72.5333333,11.7542484 L72.5333333,11.7542484 Z M8.78431373,7.44052288 C8.78431373,7.44052288 7.72810458,6.7869281 7.0745098,6.53594771 C7.0745098,6.53594771 5.05098039,5.6 4.64836601,5.1503268 C4.64836601,5.1503268 3.85882353,4.40784314 4.32418301,3.54509804 C4.32418301,3.54509804 4.51764706,2.98039216 5.34901961,2.98039216 C5.34901961,2.98039216 6.43660131,3.0379085 6.43660131,3.93202614 L6.43660131,5.19215686 L10.3267974,5.19215686 L10.3215686,3.34117647 C10.3215686,3.34117647 10.6196078,0.308496732 5.74117647,0.17254902 C5.74117647,0.17254902 5.3751634,0.146405229 4.83660131,0.177777778 C4.83660131,0.177777778 1.88235294,0.334640523 0.826143791,1.95555556 C0.820915033,1.96601307 0.810457516,1.97647059 0.805228758,1.9869281 C0.805228758,1.9869281 0.376470588,2.44705882 0.376470588,4.05228758 L0.376470588,5.2130719 C0.376470588,5.2130719 0.329411765,6.55163399 1.01437908,7.41437908 C1.01437908,7.41437908 1.40130719,7.97908497 2.35294118,8.60130719 C2.35294118,8.60130719 4.2875817,9.64183007 5.44836601,10.2379085 C5.44836601,10.2379085 6.61960784,10.9071895 6.46797386,11.9686275 C6.46797386,11.9686275 6.37385621,13.0614379 5.24444444,13.0143791 C5.24444444,13.0143791 4.20915033,12.9673203 4.20915033,11.8954248 L4.20915033,10.6352941 L0.0522875817,10.6352941 L0.0522875817,12.4653595 C0.0522875817,12.4653595 -0.062745098,15.9581699 5.26013072,15.9581699 C5.26013072,15.9581699 10.3477124,16.0627451 10.5882353,12.3764706 L10.5882353,10.8915033 C10.5882353,10.8915033 10.7660131,8.63267974 8.78431373,7.44052288 L8.78431373,7.44052288 Z" id="Shape"></path>
                </g>
                <g id="xbox-one" transform="translate(653.000000, 5.000000)" fill="#000000">
                    <path d="M64.1529639,16.1904762 L60.3532165,10.8227717 L56.557452,16.1904762 L54.9921472,16.1904762 L59.5606067,9.70363639 L55.3864606,3.80952381 L56.9517654,3.80952381 L60.3532165,8.61766066 L63.7546675,3.80952381 L65.3159893,3.80952381 L61.1458263,9.70363639 L65.7142857,16.1904762 L64.1529639,16.1904762 Z M34.5356453,16.1863312 L29.9632028,9.70363639 L34.1373489,3.80952381 L32.5720441,3.80952381 L29.1705931,8.61766066 L25.773125,3.80952381 L24.2118032,3.80952381 L28.3819662,9.70363639 L23.8095238,16.1863312 L25.3748286,16.1863312 L29.1705931,10.8186267 L32.9703405,16.1863312 L34.5356453,16.1863312 Z" id="Shape"></path>
                    <path d="M42.9657376,10.3252871 C42.7297282,10.1244842 42.4657177,9.95580971 42.1817065,9.82327977 C43.0657415,9.34938483 43.6177634,8.42569131 43.6177634,7.42167662 C43.6177634,6.65460939 43.3377523,4.15662083 39.7336094,4.15662083 L34.8814169,4.15662083 L34.8814169,9.32930454 L33.2653528,9.32930454 C33.0573445,9.60239653 32.5813256,10.2610302 32.3973183,10.5341222 L34.8814169,10.5341222 L34.8814169,16.1525884 L39.7336094,16.1525884 C42.3617136,16.1525884 43.9938117,14.8112248 43.9938117,12.6505851 C43.9977785,11.7068113 43.6417644,10.9076156 42.9657376,10.3252871 M36.2254702,5.40963117 L39.7376095,5.40963117 C40.6856471,5.40963117 42.2777103,5.64657864 42.2777103,7.31725909 C42.2777103,8.57830155 41.3496735,9.32930454 39.7376095,9.32930454 L36.2254702,9.32930454 L36.2254702,5.40963117 L36.2254702,5.40963117 Z M39.7336094,14.9035941 L36.22147,14.9035941 L36.22147,10.5381382 L39.7336094,10.5381382 C41.0656622,10.5381382 42.6577253,10.9076156 42.6577253,12.6264888 C42.6577253,14.6064058 40.8256527,14.9035941 39.7336094,14.9035941 M50.3100289,3.88352884 C46.9538958,3.88352884 44.6058026,6.46183857 44.6058026,10.1525966 C44.6058026,13.8473707 46.9498956,16.4216643 50.3100289,16.4216643 C53.6621619,16.4216643 56.0022547,13.8473707 56.0022547,10.1525966 C56.0022547,6.46183857 53.6621619,3.88352884 50.3100289,3.88352884 M50.3100289,15.1525898 C47.7539275,15.1525898 45.9618564,13.0963677 45.9618564,10.1526034 C45.9618564,7.2088255 47.7539275,5.15260341 50.3100289,5.15260341 C52.8621301,5.15260341 54.6462009,7.2088255 54.6462009,10.1526034 C54.6462009,13.0963677 52.8621301,15.1525898 50.3100289,15.1525898 M2.9721511,2.87549808 L2.96415078,2.8835302 L2.96415078,2.8835302 C1.06407541,4.76304571 -0.00396695749,7.32529121 1.65314569e-05,9.99998635 C-0.00396695749,12.1887384 0.712061446,14.3172495 2.03611397,16.056203 C2.04811444,16.0722672 2.0721154,16.0843154 2.08811603,16.0722672 C2.10411667,16.060219 2.10811682,16.0401388 2.10011651,16.0200585 C1.34008636,13.662632 5.22024028,7.94778032 7.22831993,5.55420929 C7.23632025,5.54617717 7.24432057,5.53814505 7.24432057,5.52609688 C7.24432057,5.5140487 7.23632025,5.50200052 7.22431977,5.49396841 C3.84818585,2.12449509 2.94815015,2.89557838 2.96015062,2.8835302 M16.9487055,2.87549808 L16.9567058,2.8835302 L16.9567058,2.8835302 C18.8567812,4.75902965 19.9208234,7.32529121 19.9168399,9.99998635 C19.9208234,12.1887384 19.204795,14.3172495 17.8807425,16.056203 C17.868742,16.0722672 17.8447411,16.0843154 17.8287404,16.0722672 C17.8127398,16.060219 17.8127398,16.0401388 17.81674,16.0200585 C18.5767701,13.662632 14.6966162,7.94376426 12.6925367,5.55019323 C12.6845364,5.54216111 12.6765361,5.53412899 12.6765361,5.52208082 C12.6765361,5.50601658 12.6845364,5.49798447 12.6965368,5.48995235 C16.0726708,2.12047903 16.9687063,2.89557838 16.9567058,2.8835302 M9.96042831,0 C11.968508,0 13.6245737,0.554216111 15.1486341,1.46184539 C15.1686349,1.46987751 15.1726351,1.49397386 15.1646348,1.5100381 C15.1566344,1.52610234 15.1366336,1.53011839 15.1166328,1.52610234 C13.1885564,1.10843222 10.2564401,2.77911267 9.9804291,2.94778714 C9.97242879,2.9518032 9.96842863,2.95581926 9.96042831,2.95581926 C9.95242799,2.95581926 9.94442768,2.9518032 9.94042752,2.94778714 C9.20439832,2.52208491 6.49629089,1.09638405 4.78822314,1.53815051 C4.76822235,1.54216657 4.74822155,1.53815051 4.74022123,1.52208628 C4.73222092,1.50200598 4.74022123,1.48192569 4.75622187,1.47389357 C6.28028233,0.554216111 7.95634881,0 9.96042831,0 M9.96042831,8.02006938 C9.97242879,8.02006938 9.98442926,8.02810149 9.99242958,8.03613361 C12.9725478,10.3132389 18.0727501,15.9357212 16.5166884,17.5260805 L16.5206885,17.5220644 L16.5206885,17.5260805 L16.5166884,17.5260805 C14.7006163,19.1244719 12.3685238,20.0039888 9.95642815,19.9999864 C7.54433247,20.0039888 5.21223996,19.1244719 3.40016808,17.5260805 L3.39616792,17.5220644 L3.40016808,17.5260805 C1.84410635,15.9357212 6.94430867,10.3092229 9.92442688,8.03613361 C9.9324272,8.02810149 9.94842783,8.02006938 9.96042831,8.02006938 M88.731553,4.16063689 L88.731553,14.003997 L81.5072664,4.15260477 L80.3232195,4.14858872 L80.3232195,16.1365242 L81.6512721,16.1365242 L81.6512721,6.51003128 L88.731553,16.1445563 L90.0636058,16.1485723 L90.0636058,4.16063689 L88.731553,4.16063689 Z M73.4229457,3.87951278 C70.0668126,3.87951278 67.7187195,6.45782251 67.7187195,10.1485805 C67.7187195,13.8433546 70.0668126,16.4216643 73.4229457,16.4216643 C76.7750787,16.4216643 79.1151715,13.8433546 79.1151715,10.1485805 C79.1151715,6.46183857 76.7750787,3.87951278 73.4229457,3.87951278 M73.4229457,15.1525898 C70.8668443,15.1525898 69.0747733,13.0963677 69.0747733,10.1485874 C69.0747733,7.20480945 70.8668443,5.14858735 73.4229457,5.14858735 C75.975047,5.14858735 77.7591177,7.20480945 77.7591177,10.1485874 C77.7551176,13.0923516 75.975047,15.1525898 73.4229457,15.1525898 M92.8957182,14.9718671 L92.8957182,10.5381382 L99.4679789,10.5381382 L99.4679789,9.36544907 L92.8957182,9.36544907 L92.8957182,5.32529394 L99.9159967,5.32529394 L99.9159967,4.15260477 L91.5596652,4.15260477 L91.5596652,16.1445563 L100,16.1445563 L100,14.9718671 L92.8957182,14.9718671 Z" id="Shape"></path>
                </g>
                <g id="roku" transform="translate(400.000000, 3.000000)" fill="#000000">
                    <path d="M23.4587629,3.95103093 C27.9123711,3.95103093 31.5386598,7.52061856 31.5386598,11.9742268 C31.5386598,16.4304124 27.9149485,20 23.4587629,20 C19.0025773,20 15.4046392,16.4304124 15.4046392,11.9742268 C15.4046392,7.52061856 19.0025773,3.95103093 23.4587629,3.95103093 Z M37.8092784,4.25773196 L37.8092784,10.3247423 L43.8582474,4.2757732 L54.6030928,4.2757732 L54.6030928,12.7113402 C54.6030928,15.1597938 55.1958763,15.9252577 56.4871134,15.9252577 C57.7603093,15.9252577 58.5850515,15.2757732 59.1752577,14.2448454 L59.1752577,14.2448454 L59.1752577,4.2757732 L64.4252577,4.2757732 L64.4252577,19.6726804 L63.3041237,19.6726804 L60.943299,17.6365979 C59.9690722,18.757732 57.9639175,19.9974227 55.7809278,19.9974227 C51.1804124,19.9974227 49.3530928,17.193299 49.3530928,14.1546392 L49.3530928,14.1546392 L49.3530928,5.00515464 L42.7061856,11.6494845 L50.7293814,19.6752577 L44.1237113,19.6752577 L37.8092784,13.4201031 L37.8092784,19.6778351 L32.5592784,19.6778351 L32.5592784,4.25773196 L37.8092784,4.25773196 Z M7.52835052,4.26325641e-14 C11.8634021,4.26325641e-14 15.4020619,2.94845361 15.4020619,6.57731959 C15.4020619,8.78865979 14.0463918,10.7654639 11.9793814,11.9742268 L17.5360825,19.6907216 L11.5773196,19.6907216 L6.84793814,13.1262887 L5.25773196,13.1262887 L5.25773196,19.6752577 L0.00773195876,19.6752577 L0.00773195876,4.26325641e-14 L7.52835052,4.26325641e-14 Z M23.4561856,7.75773196 C22.0695876,7.75773196 20.8891753,9.64175258 20.8891753,11.9742268 C20.8891753,14.306701 22.0695876,16.193299 23.4561856,16.193299 C24.8737113,16.193299 26.0515464,14.306701 26.0515464,11.9742268 C26.0515464,9.64175258 24.8762887,7.75773196 23.4561856,7.75773196 Z M6.8814433,3.27319588 L5.25773196,3.27319588 L5.25773196,9.85051546 L6.8814433,9.85051546 C8.68041237,9.85051546 10.1546392,8.37628866 10.1546392,6.57731959 C10.1546392,4.74742268 8.68298969,3.27319588 6.8814433,3.27319588 Z" id="Combined-Shape"></path>
                </g>
            </g>
        </g>
    </g>
</svg>