<?xml version="1.0" encoding="utf-8"?>
<!-- Generator: Adobe Illustrator 25.2.3, SVG Export Plug-In . SVG Version: 6.00 Build 0)  -->
<svg version="1.1" id="Layer_1" xmlns="http://www.w3.org/2000/svg" xmlns:xlink="http://www.w3.org/1999/xlink" x="0px" y="0px"
	 viewBox="0 0 321 187" style="enable-background:new 0 0 321 187;" xml:space="preserve">
<style type="text/css">
	.st0{fill:#FFFFFF;}
</style>
<desc>Created with Sketch.</desc>
<g id="Mobile">
	<g id="Group-6" transform="translate(18.000000, 20.000000)">
		<g id="Row-1" transform="translate(3.000000, 0.000000)">
			<g id="ipad" transform="translate(-0.000000, 0.000000)">
				<path id="Shape" class="st0" d="M13.1,12.4c-0.2,0.6-0.5,1.1-0.9,1.5c-0.4,0.6-0.8,1.1-1.1,1.3c-0.4,0.4-0.9,0.6-1.4,0.6
					c-0.4,0-0.8-0.1-1.3-0.3c-0.5-0.2-1-0.3-1.4-0.3c-0.4,0-0.9,0.1-1.4,0.3c-0.5,0.2-0.9,0.3-1.2,0.3c-0.5,0-1-0.2-1.4-0.6
					c-0.3-0.3-0.7-0.7-1.2-1.4c-0.5-0.7-0.9-1.5-1.2-2.4c-0.4-1-0.6-2-0.6-2.9c0-1.1,0.2-2,0.7-2.8C1,5.2,1.5,4.7,2.1,4.4
					s1.2-0.6,2-0.6c0.4,0,0.9,0.1,1.5,0.4c0.6,0.2,1,0.4,1.2,0.4c0.1,0,0.6-0.1,1.3-0.4c0.7-0.2,1.3-0.4,1.8-0.3
					c1.3,0.1,2.3,0.6,3,1.6c-1.2,0.7-1.8,1.7-1.8,3c0,1,0.4,1.8,1.1,2.5c0.3,0.3,0.7,0.6,1.1,0.7C13.3,11.9,13.2,12.1,13.1,12.4
					L13.1,12.4z M10,0.3c0,0.8-0.3,1.5-0.9,2.2C8.5,3.4,7.6,3.9,6.7,3.8c0-0.1,0-0.2,0-0.3c0-0.8,0.3-1.6,0.9-2.2
					c0.3-0.3,0.7-0.6,1.1-0.9C9.2,0.2,9.6,0.1,10,0C10,0.1,10,0.2,10,0.3L10,0.3z"/>
				<g id="Group" transform="translate(15.448276, 1.379310)">
					<path id="Shape_1_" class="st0" d="M0.1,1.4c0-0.7,0.6-1.2,1.2-1.2s1.2,0.5,1.2,1.2C2.5,2,2,2.6,1.3,2.6S0.1,2,0.1,1.4z
						 M0.2,4.2h2.1v10.2H0.2V4.2z"/>
					<path id="Shape_2_" class="st0" d="M9.5,0.4c2.7,0,4.6,1.9,4.6,4.6s-1.9,4.6-4.7,4.6h-3v4.8H4.2v-14H9.5z M6.4,7.8h2.5
						c1.9,0,3-1,3-2.8s-1.1-2.8-3-2.8H6.4V7.8z"/>
					<path id="Shape_3_" class="st0" d="M14,11.5c0-1.8,1.4-2.9,3.8-3l2.8-0.2V7.6c0-1.1-0.8-1.8-2-1.8c-1.2,0-2,0.6-2.2,1.5h-2
						C14.5,5.4,16.1,4,18.6,4c2.5,0,4.1,1.3,4.1,3.4v7h-2v-1.7h-0.1c-0.6,1.1-1.9,1.8-3.2,1.8C15.4,14.6,14,13.3,14,11.5z
						 M20.6,10.6V9.8L18.1,10c-1.2,0.1-2,0.6-2,1.5c0,0.9,0.7,1.5,1.9,1.5C19.5,12.9,20.6,11.9,20.6,10.6z"/>
					<path id="Shape_4_" class="st0" d="M23.8,9.3c0-3.2,1.7-5.3,4.3-5.3c1.5,0,2.6,0.7,3.2,1.9h0V0.4h2.1v14h-2v-1.7h0
						c-0.6,1.2-1.8,1.9-3.3,1.9C25.5,14.6,23.8,12.5,23.8,9.3z M25.9,9.3c0,2.2,1,3.5,2.7,3.5c1.6,0,2.7-1.4,2.7-3.5
						s-1.1-3.5-2.7-3.5C27,5.8,25.9,7.2,25.9,9.3z"/>
				</g>
			</g>
			<g id="apple-tv" transform="translate(160.000000, 0.000000)">
				<path id="Shape_5_" class="st0" d="M19.8,1.4V4h3.3v0.9h-3.3v7.7c0,0.8,0.1,1.4,0.4,1.8c0.3,0.4,0.7,0.6,1.3,0.6
					c0.3,0,0.6,0,0.8,0c0.2,0,0.4-0.1,0.5-0.1l0.1,0.9c-0.4,0.2-0.9,0.3-1.6,0.3c-0.5,0-1-0.1-1.3-0.3c-0.4-0.2-0.6-0.4-0.8-0.7
					c-0.2-0.3-0.4-0.7-0.4-1.2c-0.1-0.4-0.1-0.9-0.1-1.5V4.9h-2V4h2V1.8L19.8,1.4L19.8,1.4z M25,4l2.7,7.3c0.2,0.6,0.4,1.1,0.6,1.6
					c0.2,0.5,0.4,1,0.5,1.5h0c0.2-0.5,0.3-1,0.5-1.5c0.2-0.5,0.4-1.1,0.6-1.6L32.8,4h1.2l-4.7,11.8h-1L23.8,4H25z"/>
				<path id="Shape_6_" class="st0" d="M7.3,1.4C8.4,0,9.8,0,9.8,0S10.1,1.3,9,2.6C7.9,3.9,6.6,3.7,6.6,3.7S6.3,2.6,7.3,1.4L7.3,1.4
					z M6.7,4.6c0.5,0,1.6-0.7,2.9-0.7c2.3,0,3.2,1.6,3.2,1.6S11,6.3,11,8.5c0,2.4,2.2,3.3,2.2,3.3S11.7,16,9.6,16
					c-0.9,0-1.7-0.6-2.7-0.6c-1,0-2,0.7-2.7,0.7C2.4,16,0,12,0,8.7c0-3.2,2-4.9,3.9-4.9C5.1,3.9,6.1,4.6,6.7,4.6z"/>
			</g>
			<g id="iphone" transform="translate(69.000000, 0.000000)">
				<path id="Shape_7_" class="st0" d="M13.1,12.4c-0.2,0.6-0.5,1.1-0.9,1.5c-0.4,0.6-0.8,1.1-1.1,1.3c-0.4,0.4-0.9,0.6-1.4,0.6
					c-0.4,0-0.8-0.1-1.3-0.3c-0.5-0.2-1-0.3-1.4-0.3c-0.4,0-0.9,0.1-1.4,0.3c-0.5,0.2-0.9,0.3-1.2,0.3c-0.5,0-1-0.2-1.4-0.6
					c-0.3-0.3-0.7-0.7-1.2-1.4c-0.5-0.7-0.9-1.5-1.2-2.4c-0.3-1-0.5-2-0.5-2.9c0-1.1,0.2-2,0.7-2.8c0.4-0.6,0.8-1.1,1.4-1.5
					s1.3-0.5,2-0.6c0.4,0,0.9,0.1,1.5,0.4s1,0.4,1.2,0.4c0.1,0,0.6-0.1,1.3-0.4c0.7-0.3,1.3-0.4,1.8-0.3c1.3,0.1,2.3,0.6,3,1.6
					c-1.2,0.7-1.8,1.7-1.8,3c0,1,0.4,1.9,1.1,2.5c0.3,0.3,0.7,0.6,1.1,0.7C13.3,11.9,13.2,12.1,13.1,12.4L13.1,12.4z M10,0.3
					c0,0.8-0.3,1.5-0.9,2.2C8.5,3.4,7.6,3.8,6.7,3.8c0-0.1,0-0.2,0-0.3c0-0.8,0.3-1.6,0.9-2.2c0.3-0.3,0.7-0.6,1.1-0.8
					C9.2,0.1,9.6,0,10,0C10,0.1,10,0.2,10,0.3L10,0.3z"/>
				<g id="Group_1_" transform="translate(15.448276, 1.379310)">
					<path id="Shape_8_" class="st0" d="M0.1,1.4c0-0.7,0.5-1.2,1.2-1.2s1.2,0.5,1.2,1.2C2.5,2,2,2.6,1.3,2.6S0.1,2,0.1,1.4z
						 M0.3,4.2h2.1v10.2H0.3V4.2L0.3,4.2z"/>
					<path id="Shape_9_" class="st0" d="M9.5,0.4c2.7,0,4.6,1.9,4.6,4.6c0,2.7-1.9,4.6-4.7,4.6h-3v4.8H4.2v-14H9.5z M6.4,7.8h2.5
						c1.9,0,3-1,3-2.8s-1.1-2.8-3-2.8H6.4L6.4,7.8L6.4,7.8z"/>
					<path id="Path" class="st0" d="M15.3,0.4h2.1v5.5h0C18,4.7,19.1,4,20.7,4c2.2,0,3.6,1.5,3.6,3.8v6.6h-2.1V8.2
						c0-1.5-0.8-2.4-2.2-2.4c-1.6,0-2.5,1.1-2.5,2.7v5.9h-2.1V0.4L15.3,0.4z"/>
					<path id="Shape_10_" class="st0" d="M25.3,9.3C25.3,6,27.3,4,30.2,4S35,6,35,9.3c0,3.3-1.9,5.3-4.8,5.3S25.3,12.6,25.3,9.3z
						 M32.9,9.3c0-2.3-1.1-3.6-2.7-3.6S27.5,7,27.5,9.3c0,2.3,1.1,3.6,2.7,3.6C31.8,12.9,32.9,11.6,32.9,9.3z"/>
					<path id="Path_1_" class="st0" d="M36.1,4.2h2v1.7h0C38.7,4.7,39.8,4,41.4,4c2.3,0,3.5,1.4,3.5,3.8v6.6h-2.1V8.2
						c0-1.5-0.7-2.4-2.2-2.4c-1.5,0-2.4,1-2.4,2.6v5.9h-2.1V4.2L36.1,4.2z"/>
					<path id="Shape_11_" class="st0" d="M55.2,11.4c-0.3,1.9-2.1,3.2-4.4,3.2c-3,0-4.8-2-4.8-5.2C46,6.2,47.8,4,50.7,4
						c2.8,0,4.6,2,4.6,5.1v0.7h-7.2V10c0,1.8,1.1,2.9,2.7,2.9c1.2,0,2.1-0.6,2.4-1.5L55.2,11.4L55.2,11.4z M48.1,8.4h5.1
						c0-1.6-1-2.7-2.5-2.7C49.2,5.7,48.2,6.8,48.1,8.4z"/>
				</g>
			</g>
			<g id="android" transform="translate(213.000000, 2.000000)">
				<path id="Shape_12_" class="st0" d="M0,8.8c0-0.7,0.1-1.4,0.4-2s0.6-1.2,1-1.7S2.4,4.2,3,4s1.3-0.4,2-0.4c0.6,0,1.1,0.1,1.5,0.2
					s0.9,0.4,1.3,0.8V3.8h2.5v10H7.9V13c-0.4,0.4-0.9,0.6-1.3,0.8c-0.5,0.2-1,0.2-1.5,0.2c-0.7,0-1.4-0.1-2-0.4S1.9,13,1.4,12.5
					c-0.4-0.5-0.8-1-1-1.7C0.1,10.2,0,9.5,0,8.8z M5.4,11.7c0.2,0,0.4,0,0.6-0.1c0.2,0,0.4-0.1,0.7-0.2c0.2-0.1,0.4-0.2,0.7-0.4
					c0.2-0.2,0.4-0.4,0.6-0.6V7.2C7.7,7,7.5,6.8,7.3,6.6C7.1,6.4,6.9,6.3,6.7,6.2C6.5,6.1,6.2,6,6,6c-0.2,0-0.4-0.1-0.6-0.1
					C5,5.9,4.6,6,4.3,6.1C4,6.3,3.7,6.5,3.4,6.7C3.2,7,3,7.3,2.8,7.6C2.7,8,2.6,8.4,2.6,8.8c0,0.4,0.1,0.8,0.2,1.1
					c0.1,0.3,0.3,0.7,0.6,0.9s0.5,0.5,0.9,0.6C4.6,11.6,5,11.7,5.4,11.7L5.4,11.7z M16.8,6c-1.2,0-2.2,0.8-2.2,2.1v5.7H12V8.2
					c0-2.4,2.1-4.6,4.7-4.6h0.1c2.6,0,4.7,2.2,4.7,4.6v5.6H19V8.1C19,6.9,18,6.1,16.8,6 M22.7,8.8c0-0.7,0.1-1.4,0.4-2
					s0.6-1.2,1-1.7c0.4-0.5,1-0.8,1.6-1.1s1.3-0.4,2-0.4c0.6,0,1.1,0.1,1.5,0.2c0.5,0.2,0.9,0.4,1.3,0.8V0.8h2.5v13h-2.5V13
					c-0.4,0.4-0.9,0.6-1.3,0.8c-0.5,0.2-1,0.2-1.5,0.2c-0.7,0-1.4-0.1-2-0.4s-1.2-0.6-1.6-1.1c-0.4-0.5-0.8-1-1-1.7
					C22.8,10.2,22.7,9.5,22.7,8.8z M28.1,11.7c0.2,0,0.4,0,0.6-0.1c0.2,0,0.4-0.1,0.7-0.2c0.2-0.1,0.4-0.2,0.7-0.4
					c0.2-0.2,0.4-0.4,0.6-0.6V7.2c-0.2-0.2-0.4-0.5-0.6-0.6c-0.2-0.2-0.4-0.3-0.7-0.4C29.2,6.1,29,6,28.7,6c-0.2,0-0.4-0.1-0.6-0.1
					c-0.4,0-0.8,0.1-1.1,0.2c-0.3,0.1-0.6,0.3-0.9,0.6c-0.3,0.3-0.4,0.6-0.6,0.9c-0.1,0.3-0.2,0.7-0.2,1.1c0,0.4,0.1,0.8,0.2,1.1
					c0.1,0.3,0.3,0.7,0.6,0.9c0.3,0.3,0.5,0.5,0.9,0.6C27.4,11.6,27.7,11.7,28.1,11.7L28.1,11.7z M45,11.7c0.4,0,0.7-0.1,1.1-0.2
					c0.3-0.1,0.6-0.3,0.9-0.6c0.2-0.3,0.4-0.6,0.6-0.9c0.1-0.3,0.2-0.7,0.2-1.2c0-0.4-0.1-0.8-0.2-1.2S47.2,7,46.9,6.7
					c-0.2-0.3-0.5-0.5-0.9-0.6C45.7,6,45.4,5.9,45,5.9c-0.4,0-0.7,0.1-1.1,0.2c-0.3,0.1-0.6,0.3-0.9,0.6c-0.2,0.3-0.4,0.6-0.6,0.9
					c-0.1,0.3-0.2,0.7-0.2,1.2c0,0.4,0.1,0.8,0.2,1.2c0.1,0.3,0.3,0.7,0.6,0.9c0.2,0.3,0.5,0.5,0.9,0.6C44.3,11.6,44.6,11.7,45,11.7
					z M45,14c-0.7,0-1.4-0.1-2.1-0.4s-1.2-0.6-1.7-1.1c-0.5-0.5-0.9-1-1.2-1.7c-0.3-0.6-0.4-1.3-0.4-2.1c0-0.7,0.1-1.4,0.4-2
					c0.3-0.6,0.7-1.2,1.1-1.7c0.5-0.5,1.1-0.8,1.7-1.1c0.7-0.3,1.3-0.4,2.1-0.4s1.4,0.1,2.1,0.4s1.2,0.6,1.7,1.1
					c0.5,0.5,0.9,1,1.1,1.7c0.3,0.6,0.4,1.3,0.4,2c0,0.7-0.1,1.4-0.4,2.1c-0.3,0.6-0.7,1.2-1.2,1.7c-0.5,0.5-1.1,0.8-1.7,1.1
					C46.4,13.9,45.7,14,45,14z M52.7,3c-0.2,0-0.4,0-0.6-0.1c-0.2-0.1-0.3-0.2-0.5-0.3c-0.1-0.1-0.2-0.3-0.3-0.5
					c-0.1-0.2-0.1-0.4-0.1-0.6c0-0.2,0-0.4,0.1-0.6c0.1-0.2,0.2-0.3,0.3-0.5c0.1-0.1,0.3-0.2,0.5-0.3C52.3,0,52.5,0,52.7,0
					c0.2,0,0.4,0,0.6,0.1c0.2,0.1,0.3,0.2,0.5,0.3s0.2,0.3,0.3,0.5c0.1,0.2,0.1,0.4,0.1,0.6s0,0.4-0.1,0.6c-0.1,0.2-0.2,0.3-0.3,0.5
					c-0.1,0.1-0.3,0.2-0.5,0.3C53.1,2.9,52.9,3,52.7,3L52.7,3z M51.5,3.8H54v10h-2.5V3.8L51.5,3.8z M55.2,8.8c0-0.7,0.1-1.4,0.4-2
					s0.6-1.2,1-1.7c0.4-0.5,1-0.8,1.6-1.1s1.3-0.4,2-0.4c0.6,0,1.1,0.1,1.5,0.2s0.9,0.4,1.3,0.8V0.8h2.5v13h-2.5V13
					c-0.4,0.4-0.9,0.6-1.3,0.8c-0.5,0.2-1,0.2-1.5,0.2c-0.7,0-1.4-0.1-2-0.4S57,13,56.6,12.5c-0.4-0.5-0.8-1-1-1.7
					C55.3,10.2,55.2,9.5,55.2,8.8z M60.6,11.7c0.2,0,0.4,0,0.6-0.1c0.2,0,0.4-0.1,0.7-0.2c0.2-0.1,0.4-0.2,0.7-0.4
					c0.2-0.2,0.4-0.4,0.6-0.6V7.2c-0.2-0.2-0.4-0.5-0.6-0.6c-0.2-0.2-0.4-0.3-0.7-0.4C61.6,6.1,61.4,6,61.2,6
					c-0.2,0-0.4-0.1-0.6-0.1c-0.4,0-0.8,0.1-1.1,0.2c-0.3,0.1-0.6,0.3-0.9,0.6C58.3,7,58.1,7.3,58,7.6c-0.1,0.3-0.2,0.7-0.2,1.1
					c0,0.4,0.1,0.8,0.2,1.1c0.1,0.3,0.3,0.7,0.6,0.9s0.5,0.5,0.9,0.6C59.8,11.6,60.2,11.7,60.6,11.7L60.6,11.7z M39.4,6
					C37.7,6,37,6.9,37,8.1v5.7h-2.5V8.2c0-2.4,1.4-4.7,5-4.7"/>
			</g>
		</g>
		<g id="Row-2" transform="translate(27.000000, 39.000000)">
			<g id="android-tv" transform="translate(0.000000, 1.000000)">
				
					<g id="g33668" transform="translate(42.500000, 7.916667) scale(-1, 1) rotate(-180.000000) translate(-42.500000, -7.916667) translate(0.000000, 0.833333)">
					<g id="g33674" transform="translate(0.149398, 0.444164)">
						<path id="path33676" class="st0" d="M5.6,2.5C4,2.5,2.7,3.7,2.7,5.1c0,1.4,1.3,2.6,2.8,2.6c1,0,2.1-0.4,2.5-1.2
							c0-0.1,0.1-0.1,0.1-0.2V4c0-0.1,0-0.2-0.1-0.2C7.6,3,6.7,2.5,5.6,2.5 M10.7,0.4v9.3H8.2V9c-0.7,0.6-1.7,1-2.9,1
							c-2.9,0-5.1-2.2-5.1-4.8c0-2.7,2.2-4.9,5.1-4.9c1.2,0,2.2,0.4,2.9,1V0.4H10.7z M21.8,0.4v5.1c0,2.5-2.1,4.5-4.8,4.5
							c-2.7,0-4.8-2-4.8-4.5V0.4h2.5v5.1c0,1.2,1,2.2,2.3,2.2s2.3-0.9,2.3-2.2V0.4H21.8z M28.2,2.5c-1.6,0-2.8,1.2-2.8,2.7
							c0,1.4,1.3,2.6,2.8,2.6c1,0,2-0.5,2.5-1.2c0-0.1,0.1-0.1,0.1-0.2V3.9c0-0.1,0-0.1-0.1-0.2C30.3,3,29.3,2.5,28.2,2.5 M33.4,0.4
							v12.1h-2.5V9c-0.7,0.6-1.7,1-2.9,1c-2.9,0-5.1-2.2-5.1-4.9c0-2.7,2.2-4.9,5.1-4.9c1.2,0,2.2,0.4,2.9,1V0.4H33.4z M37.3,0.4v5
							c0,1.5,0.9,2.3,2.5,2.3V10c-3.3,0-5-1.6-5-4.5v-5H37.3z M45.3,2.6c-1.6,0-2.8,1.1-2.8,2.5s1.3,2.5,2.8,2.5
							c1.6,0,2.8-1.1,2.8-2.5C48.1,3.7,46.9,2.6,45.3,2.6 M45.3,0.2c3,0,5.4,2.2,5.4,4.9c0,2.7-2.4,4.8-5.4,4.8
							c-3,0-5.4-2.2-5.4-4.8C39.9,2.4,42.4,0.2,45.3,0.2 M53.1,10.5c0.8,0,1.5,0.6,1.5,1.3c0,0.7-0.7,1.3-1.5,1.3
							c-0.8,0-1.5-0.6-1.5-1.3C51.7,11.1,52.3,10.5,53.1,10.5 M54.4,9.8h-2.5V0.4h2.5V9.8z M61,2.5c-1.6,0-2.8,1.2-2.8,2.7
							c0,1.4,1.3,2.6,2.8,2.6c1,0,2-0.5,2.5-1.2c0-0.1,0.1-0.1,0.1-0.2V3.9c0-0.1,0-0.1-0.1-0.2C63,3,62.1,2.5,61,2.5 M66.1,0.4
							v12.1h-2.5V9c-0.7,0.6-1.7,1-2.9,1c-2.9,0-5.1-2.2-5.1-4.8c0-2.7,2.2-4.9,5.1-4.9c1.2,0,2.2,0.4,2.9,1V0.4H66.1L66.1,0.4z"/>
					</g>
					<g id="g33678" transform="translate(68.020525, 0.503391)">
						<path id="path33680" class="st0" d="M11.7,0.4l4.2,9.3h-2.1l-3.4-8.1H11L7.6,9.7H5.4l4.2-9.3H11.7z M4.9,0.3l0,1.7H4.7
							c-1.5,0-2.5,0.8-2.5,2.2v4.1h2.7v1.5H2.2v2.5H0.3V4.1c0-2.4,1.7-3.9,4.4-3.9H4.9z"/>
					</g>
				</g>
			</g>
			<g id="chromecast" transform="translate(103.000000, 1.000000)">
				<path id="Shape_13_" class="st0" d="M20.3,8.2c0-1.7,1.2-3,2.9-3c1.4,0,2.1,0.8,2.5,1.6l-1,0.5c-0.3-0.7-0.8-1.1-1.6-1.1
					c-0.9,0-1.8,0.8-1.8,2.1c0,1.2,0.9,2.1,1.8,2.1c0.8,0,1.4-0.4,1.7-1.1l1,0.4c-0.4,0.8-1.2,1.6-2.5,1.6
					C21.5,11.2,20.3,9.9,20.3,8.2z M27.7,5.4l-0.1,0.8h0.1c0.3-0.5,1-1,1.8-1c1.5,0,2.2,1,2.2,2.4v3.5h-1.1V7.7
					c0-1.2-0.6-1.6-1.4-1.6c-0.9,0-1.5,0.9-1.5,1.8v3.1h-1.1V2.8h1.1V5.4L27.7,5.4z M32.8,11.1V5.4h1v0.9h0.1
					c0.3-0.7,1.1-1.1,1.7-1.1c0.4,0,0.6,0.1,0.8,0.2l-0.4,1c-0.2-0.1-0.4-0.1-0.6-0.1c-0.7,0-1.5,0.6-1.5,1.7v3.1H32.8z M42.2,8.2
					c0,1.7-1.2,3-2.9,3s-2.9-1.3-2.9-3s1.2-3,2.9-3S42.2,6.5,42.2,8.2z M41.1,8.2c0-1.3-0.9-2.1-1.9-2.1c-1,0-1.9,0.8-1.9,2.1
					s0.9,2.1,1.9,2.1C40.2,10.3,41.1,9.5,41.1,8.2z M43,5.4h1v0.8h0.1c0.3-0.6,1.1-1,1.8-1c0.9,0,1.5,0.4,1.8,1.1
					c0.4-0.7,1.1-1.1,2-1.1c1.4,0,2,1,2,2.4v3.5h-1.1V7.7c0-1.2-0.5-1.6-1.3-1.6c-0.9,0-1.5,0.9-1.5,1.8v3.1h-1.1V7.7
					c0-1.2-0.5-1.6-1.3-1.6C44.6,6.2,44,7,44,7.9v3.1H43L43,5.4L43,5.4L43,5.4z M52.4,8.2c0-1.6,1.1-3,2.8-3c1.7,0,2.8,1.2,2.8,3
					v0.2h-4.5c0.1,1.2,0.9,1.9,1.8,1.9c0.6,0,1.3-0.3,1.6-1l1,0.4c-0.4,0.8-1.2,1.6-2.5,1.6C53.6,11.2,52.4,9.9,52.4,8.2L52.4,8.2z
					 M55.2,6.2c-0.8,0-1.4,0.6-1.6,1.4h3.3C56.8,7,56.4,6.2,55.2,6.2z M58.6,8.2c0-1.7,1.2-3,2.9-3c1.4,0,2.1,0.8,2.5,1.6l-1,0.4
					c-0.3-0.7-0.8-1.1-1.6-1.1c-0.9,0-1.8,0.8-1.8,2.1c0,1.2,0.9,2.1,1.8,2.1c0.8,0,1.4-0.4,1.7-1.1l1,0.4c-0.4,0.8-1.2,1.6-2.5,1.6
					C59.8,11.2,58.6,9.9,58.6,8.2L58.6,8.2z M64.7,9.4c0-1.3,1.2-2,2.5-2c0.8,0,1.3,0.2,1.5,0.4V7.5c0-0.9-0.7-1.4-1.5-1.4
					c-0.6,0-1.2,0.3-1.4,0.8l-1-0.4c0.2-0.5,0.9-1.4,2.3-1.4c1.4,0,2.5,0.8,2.5,2.4v3.4h-1v-0.8h-0.1c-0.3,0.5-0.9,1-1.9,1
					C65.6,11.2,64.7,10.5,64.7,9.4L64.7,9.4z M68.6,8.6c0,0-0.5-0.4-1.4-0.4c-1.1,0-1.6,0.6-1.6,1.1c0,0.6,0.6,0.9,1.2,0.9
					C67.8,10.3,68.6,9.6,68.6,8.6z M70.4,9.6l1-0.4c0.3,0.7,0.9,1.1,1.5,1.1c0.7,0,1.1-0.3,1.1-0.8c0-0.3-0.2-0.6-0.8-0.8L72,8.5
					c-0.5-0.2-1.5-0.6-1.5-1.6s1.1-1.7,2.2-1.7c1,0,1.8,0.5,2.2,1.3L74,6.9c-0.2-0.6-0.8-0.8-1.3-0.8c-0.6,0-1.1,0.3-1.1,0.7
					c0,0.4,0.3,0.6,0.8,0.7l1.1,0.3c1.1,0.3,1.6,1,1.6,1.7c0,1-0.9,1.8-2.2,1.8C71.5,11.2,70.7,10.4,70.4,9.6L70.4,9.6z M76.4,9.3
					v-3h-1v-1h1V3.6h1.1v1.7h1.4v1h-1.4v2.9c0,0.7,0.3,0.9,0.8,0.9c0.2,0,0.4,0,0.5-0.1l0.4,0.9c-0.3,0.1-0.5,0.2-0.9,0.2
					C77.1,11.1,76.4,10.5,76.4,9.3L76.4,9.3z M15.3,4.9H9.9c1,0.7,1.7,1.8,1.7,3.1c0,0.3-0.1,0.6-0.1,0.8v0.1
					c-0.1,0.4-0.2,0.8-0.4,1.1l-3.4,6h0.3c4.4,0,8-3.5,8-8C15.9,6.9,15.7,5.8,15.3,4.9L15.3,4.9z M8,11.6c-1,0-2-0.5-2.6-1.1
					C5.1,10.2,4.9,10,4.7,9.7L4.6,9.6L1.2,3.7C0.5,5,0,6.4,0,8c0,4.1,3,7.4,7,7.9l2.7-4.8C9.2,11.4,8.6,11.6,8,11.6L8,11.6z M8,0
					C5.4,0,3,1.3,1.6,3.2l2.7,4.7c0.1,0.1,0.1,0.2,0.1,0.2V7.9c0-1.8,1.3-3.3,3-3.5h0.1C7.7,4.3,8,4.3,8.3,4.3H15C13.7,1.8,11,0,8,0
					z M10.9,8c0,1.6-1.3,2.9-2.9,2.9c-1.6,0-2.9-1.3-2.9-2.9S6.4,5.1,8,5.1C9.6,5.1,10.9,6.4,10.9,8z"/>
			</g>
			<g id="Fire" transform="translate(201.000000, 0.000000)">
				<path id="Shape_14_" class="st0" d="M25.1,6.4c2.5,0,2.4,2.2,2.3,3.1h-5.2C22.4,7.9,23.2,6.4,25.1,6.4L25.1,6.4z M29,10.9
					c0.3,0,0.4-1,0.4-1.5c0.1-3.1-1.5-4.6-4.2-4.6c-1.5,0-2.8,0.6-3.7,1.5c-0.8,0.9-1.2,2.3-1.2,4.1s0.4,3.1,1.2,4
					c0.8,0.9,2,1.6,4.1,1.6c0.8,0,2.3-0.2,3.3-0.6c0.4-0.1,0.4-0.3,0.4-0.6v-0.6c0-0.3-0.1-0.4-0.5-0.3c-1.1,0.4-2.2,0.6-2.9,0.6
					c-1.2,0-2.2-0.3-2.7-1c-0.6-0.7-0.7-1.5-0.8-2.5C24.5,10.9,26.8,10.9,29,10.9L29,10.9z"/>
				<path id="Path_2_" class="st0" d="M4.1,5.2V3.1c0-1.7,1.7-1.4,2.7-1.3c0.4,0.1,0.6,0,0.6-0.4V0.7c0-0.3-0.1-0.5-0.6-0.6
					C4.2-0.3,2,0.2,2,3.5v1.7L0.4,5.4C0.1,5.4,0,5.5,0,5.8v0.6c0,0.2,0.1,0.4,0.4,0.4H2v8.6c0,0.3,0.1,0.4,0.4,0.4h1.2
					c0.3,0,0.4-0.1,0.4-0.4V6.8h2.8c0.3,0,0.4-0.1,0.4-0.4V5.5c0-0.3-0.1-0.4-0.4-0.4L4.1,5.2L4.1,5.2z"/>
				<path id="Shape_15_" class="st0" d="M10.7,5.2H9.5C9.2,5.2,9,5.3,9,5.6v9.7c0,0.3,0.1,0.4,0.4,0.4h1.2c0.3,0,0.4-0.1,0.4-0.4
					V5.5C11.1,5.4,11,5.2,10.7,5.2L10.7,5.2z M10.1,0.7C9.4,0.7,8.8,1.2,8.8,2s0.5,1.3,1.3,1.3c0.8,0,1.3-0.5,1.3-1.3
					C11.4,1.2,10.8,0.7,10.1,0.7L10.1,0.7z"/>
				<path id="Path_3_" class="st0" d="M15.8,6.7l-0.1-1.2c-0.1-0.3-0.2-0.3-0.5-0.3h-0.9c-0.3,0-0.4,0.1-0.4,0.4v9.7
					c0,0.3,0.1,0.4,0.4,0.4h1.2c0.3,0,0.4-0.1,0.4-0.4V8c0.8-0.6,1.5-1,3.1-1c0.4,0,0.9,0.1,0.9-0.2V5.5c0-0.2-0.2-0.4-0.7-0.4
					C17.9,5,17,5.4,15.8,6.7L15.8,6.7z"/>
			</g>
		</g>
		<g id="Row-3" transform="translate(0.000000, 81.000000)">
			<g id="fire-tv" transform="translate(91.000000, 0.000000)">
				<path id="Path_4_" class="st0" d="M32.6,17.8c-3.5,2.5-8.5,3.9-12.8,3.9c-6,0-11.5-2.2-15.6-5.9c-0.3-0.3,0-0.7,0.4-0.5
					c4.4,2.6,9.9,4.1,15.6,4.1c3.8,0,8-0.8,11.9-2.4C32.7,16.7,33.2,17.3,32.6,17.8L32.6,17.8z"/>
				<path id="Path_5_" class="st0" d="M34,16.1c-0.4-0.6-2.9-0.3-4-0.1c-0.3,0-0.4-0.3-0.1-0.5c2-1.4,5.2-1,5.6-0.5
					c0.4,0.5-0.1,3.7-2,5.3c-0.3,0.2-0.6,0.1-0.4-0.2C33.5,19,34.5,16.7,34,16.1L34,16.1z"/>
				<path id="Shape_16_" class="st0" d="M19.9,5.1c1.9,0,1.9,1.7,1.9,2.4h-4.1C17.8,6.3,18.4,5.1,19.9,5.1L19.9,5.1z M23.1,8.7
					c0.2,0,0.3-0.8,0.3-1.2C23.4,5,22.1,3.8,20,3.8c-1.2,0-2.3,0.4-2.9,1.2c-0.6,0.7-1,1.8-1,3.2c0,1.4,0.3,2.4,0.9,3.2
					c0.6,0.7,1.6,1.3,3.2,1.3c0.6,0,1.8-0.1,2.6-0.5c0.3-0.1,0.3-0.2,0.3-0.5v-0.5c0-0.2-0.1-0.4-0.4-0.3c-0.9,0.3-1.8,0.4-2.3,0.4
					c-0.9,0-1.7-0.3-2.2-0.8c-0.4-0.6-0.6-1.2-0.6-2C19.5,8.7,21.3,8.7,23.1,8.7L23.1,8.7z"/>
				<path id="Path_6_" class="st0" d="M3.2,4.1V2.4c0-1.3,1.3-1.1,2.1-1c0.4,0.1,0.5,0,0.5-0.3V0.6c0-0.3-0.1-0.4-0.5-0.5
					c-2.1-0.4-3.8,0-3.8,2.6v1.4L0.3,4.3C0.1,4.3,0,4.4,0,4.6v0.4c0,0.2,0.1,0.3,0.3,0.3h1.2v6.8c0,0.2,0.1,0.3,0.3,0.3h1
					c0.2,0,0.3-0.1,0.3-0.3V5.4h2.2c0.2,0,0.3-0.1,0.3-0.3V4.4c0-0.2-0.1-0.3-0.3-0.3H3.2L3.2,4.1z"/>
				<path id="Shape_17_" class="st0" d="M8.5,4.1h-1c-0.2,0-0.3,0.1-0.3,0.3v7.7c0,0.2,0.1,0.3,0.3,0.3h1c0.2,0,0.3-0.1,0.3-0.3V4.4
					C8.8,4.2,8.7,4.1,8.5,4.1L8.5,4.1z M8,0.6c-0.6,0-1,0.4-1,1c0,0.6,0.4,1,1,1s1-0.4,1-1C9.1,0.9,8.6,0.6,8,0.6L8,0.6z"/>
				<path id="Path_7_" class="st0" d="M36.8,12.5h-1.1c-0.2,0-0.4-0.1-0.5-0.3l-3-7.7c-0.1-0.2,0-0.4,0.2-0.4h1.1
					c0.2,0,0.3,0.1,0.4,0.3l2.3,6.6l2.3-6.6c0.1-0.2,0.2-0.3,0.4-0.3h1c0.3,0,0.3,0.1,0.2,0.4l-3.1,7.7C37.1,12.4,37,12.5,36.8,12.5
					L36.8,12.5z"/>
				<path id="Path_8_" class="st0" d="M27.2,10.3c0,2,1.3,2.3,2.3,2.3c0.5,0,0.9-0.1,1.4-0.1c0.5-0.2,0.5-0.2,0.5-0.5
					c0-0.2,0-0.4,0-0.6c0-0.2-0.1-0.3-0.3-0.3c-0.4,0.1-0.7,0.1-1,0.1c-1.1-0.1-1.2-0.4-1.2-1.5V5.4H31c0.2,0,0.3-0.1,0.3-0.3V4.4
					c0-0.2-0.1-0.3-0.3-0.3h-2.2v-2c0-0.2-0.1-0.3-0.3-0.3h-0.7c-0.3,0-0.4,0.1-0.4,0.3l-0.2,2L26,4.3c-0.3,0-0.3,0.2-0.3,0.4v0.4
					c0,0.2,0.1,0.3,0.3,0.3h1.2C27.2,7,27.2,8.7,27.2,10.3L27.2,10.3z"/>
				<path id="Path_9_" class="st0" d="M12.6,5.3l-0.1-0.9c-0.1-0.2-0.2-0.3-0.4-0.3h-0.7c-0.2,0-0.3,0.1-0.3,0.3v7.7
					c0,0.2,0.1,0.3,0.3,0.3h1c0.2,0,0.3-0.1,0.3-0.3V6.3c0.6-0.5,1.2-0.8,2.4-0.8c0.3,0,0.7,0.1,0.7-0.2v-1c0-0.2-0.1-0.3-0.5-0.3
					C14.2,4,13.5,4.3,12.6,5.3L12.6,5.3z"/>
			</g>
			<g id="lg-electronics" transform="translate(151.000000, 0.000000)">
				<path id="Shape_18_" class="st0" d="M9,0C4,0,0,4,0,9s4,9,9,9s9-4,9-9S14,0,9,0z M11.2,12.2v0.7H9.3v0H8.6V5.1h0.7v7H11.2z
					 M9,16.5c-4.2,0-7.5-3.4-7.5-7.5S4.8,1.5,9,1.5c0.1,0,0.2,0,0.3,0l0,0.7c-0.1,0-0.2,0-0.3,0C5.2,2.2,2.2,5.2,2.2,9
					s3.1,6.8,6.8,6.8c3.7,0,6.7-2.9,6.8-6.5l0,0h-4.6V8.6h5.3c0,0.1,0,0.3,0,0.4C16.5,13.2,13.2,16.5,9,16.5z M7.2,6.1
					c0,0.6-0.5,1.1-1.1,1.1l0,0c-0.6,0-1.1-0.5-1.1-1.1s0.5-1.1,1.1-1.1S7.2,5.6,7.2,6.1z"/>
				<path id="Shape_19_" class="st0" d="M22.5,13.3h6.3v-1.9h-4V4.7h-2.3V13.3z M36.4,5.3c-0.7-0.5-1.7-0.8-2.8-0.8
					c-1.3,0-2.4,0.4-3.2,1.1c-0.8,0.8-1.2,1.9-1.2,3.3c0,1.5,0.4,2.8,1.3,3.6c0.6,0.6,1.5,1,2.5,1c2.1,0,2.6-1.3,2.6-1.3v1h1.9V8.4
					h-3.8V10h1.8c0,0,0,1.9-1.8,1.9c-0.5,0-0.9-0.2-1.2-0.5c-0.5-0.5-0.8-1.3-0.8-2.4c0-1.8,0.7-2.8,1.9-2.8c0.7,0,1.3,0.4,1.4,1.1
					h2.5C37.3,6.4,37.1,5.9,36.4,5.3L36.4,5.3z"/>
			</g>
			<g id="oculus" transform="translate(209.000000, 1.000000)">
				<path id="Shape_20_" class="st0" d="M71.9,5.8c-0.3-0.1-0.5-0.1-0.8,0c-0.1,0-0.3,0-0.4,0.1c-0.1,0-0.2,0.1-0.3,0.1
					c-0.1,0.1-0.2,0.2-0.2,0.4c0,0.1,0,0.3,0.1,0.4C70.5,6.9,70.6,7,70.8,7c0.1,0.1,0.3,0.1,0.4,0.1c0.2,0,0.3,0.1,0.5,0.1
					c0.4,0.1,0.7,0.2,1,0.3c0.6,0.2,1.2,0.6,1.4,1.3c0.1,0.3,0.1,0.6,0.1,0.9c-0.1,0.4-0.2,0.7-0.4,1c-0.2,0.2-0.4,0.4-0.6,0.5
					c-0.3,0.2-0.7,0.3-1.1,0.4c-0.3,0.1-0.6,0.1-0.9,0.1c-0.4,0-0.7-0.1-1.1-0.2c-0.6-0.2-1.2-0.5-1.7-0.9c0.3-0.4,0.6-0.8,0.9-1.2
					c0.3,0.2,0.7,0.4,1,0.6c0.2,0.1,0.5,0.2,0.8,0.2c0.2,0,0.5,0,0.7,0c0.2,0,0.3-0.1,0.5-0.1c0.1-0.1,0.2-0.1,0.3-0.2
					c0.1-0.1,0.1-0.2,0.1-0.3c0-0.1,0-0.2-0.1-0.3c-0.1-0.1-0.2-0.2-0.3-0.3c-0.2-0.1-0.3-0.2-0.5-0.2c-0.2-0.1-0.4-0.1-0.6-0.2
					c-0.6-0.1-1.3-0.3-1.8-0.7c-0.2-0.2-0.4-0.5-0.5-0.8c-0.1-0.3-0.1-0.7,0-1c0.1-0.3,0.2-0.5,0.4-0.7c0.2-0.3,0.6-0.5,0.9-0.7
					c0.3-0.1,0.5-0.2,0.8-0.2c0.4,0,0.7,0,1.1,0c0.7,0.1,1.3,0.4,1.8,0.7c-0.3,0.4-0.5,0.7-0.8,1.1C72.7,6.1,72.3,5.9,71.9,5.8z
					 M58.7,1H57v10.5h1.6V1z M67,11.5c0-2.3,0-4.5,0-6.8c-0.5,0-1.1,0-1.6,0c0,0.4,0,2.8,0,3.2c0,0.2,0,0.4,0,0.6c0,0.1,0,0.2,0,0.4
					c0,0.2-0.1,0.4-0.2,0.6c-0.3,0.5-0.8,0.7-1.4,0.7c-0.5,0-1.1-0.2-1.4-0.7c-0.1-0.2-0.2-0.4-0.2-0.6c-0.1-0.3-0.1-0.6-0.1-0.9
					c0-0.2,0-0.4,0-0.6c0-0.3,0-0.7,0-1c0-0.5,0-1.1,0-1.6c-0.5,0-1.1,0-1.6,0c0,0.6,0,2.2,0,2.8c0,0.3,0,0.5,0,0.8
					c0,0.2,0,0.4,0,0.6c0,0.5,0.1,0.9,0.3,1.3c0.4,0.9,1.3,1.4,2.2,1.5c0.5,0.1,0.9,0,1.4-0.1c0.4-0.1,0.9-0.3,1.2-0.7
					c0,0.2,0,0.4,0,0.7C66.1,11.5,66.5,11.5,67,11.5z M47.6,10.6c-0.4-0.4-0.7-0.8-1.1-1.1c-0.3,0.3-0.6,0.4-1,0.5
					c-0.4,0.1-0.8,0.1-1.1,0c-0.4-0.1-0.7-0.4-0.9-0.7C43.1,9,43,8.6,43,8.2c0-0.4,0.1-0.8,0.2-1.1c0.2-0.4,0.5-0.6,0.8-0.8
					c0.2-0.1,0.3-0.1,0.5-0.1c0.2,0,0.4,0,0.7,0c0.4,0,0.7,0.2,1.1,0.4c0.3-0.4,0.7-0.8,1-1.2c-0.6-0.4-1.2-0.7-1.9-0.8
					c-0.7-0.1-1.4,0-2,0.3c-0.6,0.3-1.2,0.8-1.5,1.4c-0.3,0.6-0.5,1.3-0.4,2c0,0.7,0.2,1.4,0.6,2c0.4,0.6,1,1,1.7,1.2
					c0.7,0.2,1.4,0.3,2.1,0.1C46.4,11.5,47.1,11.2,47.6,10.6z M55.1,11.5c0-2.3,0-4.5,0-6.8c-0.5,0-1.1,0-1.6,0c0,0.4,0,2.8,0,3.2
					c0,0.2,0,0.4,0,0.6c0,0.1,0,0.2,0,0.4c0,0.2-0.1,0.4-0.2,0.6c-0.3,0.5-0.8,0.7-1.4,0.7c-0.5,0-1.1-0.2-1.4-0.7
					c-0.1-0.2-0.2-0.4-0.2-0.6c-0.1-0.3-0.1-0.6-0.1-0.9c0-0.2,0-0.4,0-0.6c0-0.3,0-0.7,0-1c0-0.5,0-1.1,0-1.6c-0.5,0-1.1,0-1.6,0
					c0,0.6,0,2.2,0,2.8c0,0.3,0,0.5,0,0.8c0,0.2,0,0.4,0,0.6c0,0.5,0.1,0.9,0.3,1.3c0.4,0.9,1.3,1.4,2.2,1.5c0.5,0.1,0.9,0,1.4-0.1
					c0.4-0.1,0.9-0.3,1.2-0.7c0,0.2,0,0.4,0,0.7C54.2,11.5,54.7,11.5,55.1,11.5z M40.2,8.1c0,0.9-0.3,1.9-1,2.5
					c-0.7,0.7-1.6,1-2.5,1c-0.9,0-1.8-0.4-2.5-1c-0.7-0.7-1-1.6-1-2.5c0-0.9,0.3-1.9,1-2.5c0.7-0.7,1.6-1,2.5-1c0.9,0,1.8,0.4,2.5,1
					S40.2,7.2,40.2,8.1z M38.6,8.1c0-0.1,0-0.3,0-0.4c0-0.1-0.1-0.3-0.1-0.4c0-0.1-0.1-0.2-0.2-0.3c-0.1-0.1-0.1-0.2-0.2-0.3
					c-0.1-0.1-0.2-0.2-0.3-0.2c-0.1-0.1-0.2-0.1-0.3-0.2c-0.1,0-0.2-0.1-0.4-0.1c-0.1,0-0.3,0-0.4,0s-0.3,0-0.4,0
					c-0.1,0-0.3,0.1-0.4,0.1c-0.1,0-0.2,0.1-0.3,0.2c-0.1,0.1-0.2,0.1-0.3,0.2c-0.1,0.1-0.2,0.2-0.2,0.3c-0.1,0.1-0.1,0.2-0.2,0.3
					c0,0.1-0.1,0.3-0.1,0.4c0,0.1,0,0.3,0,0.4s0,0.3,0,0.4c0,0.1,0.1,0.3,0.1,0.4c0,0.1,0.1,0.2,0.2,0.3c0.1,0.1,0.1,0.2,0.2,0.3
					c0.1,0.1,0.2,0.2,0.3,0.2c0.1,0.1,0.2,0.1,0.3,0.2c0.1,0,0.2,0.1,0.4,0.1c0.1,0,0.3,0,0.4,0s0.3,0,0.4,0c0.1,0,0.3-0.1,0.4-0.1
					c0.1,0,0.2-0.1,0.3-0.2C37.9,9.7,38,9.6,38,9.5c0.1-0.1,0.2-0.2,0.2-0.3c0.1-0.1,0.1-0.2,0.2-0.3c0-0.1,0.1-0.3,0.1-0.4
					C38.6,8.4,38.6,8.3,38.6,8.1z M26.4,8c0,2.4-1.1,4.7-3,6.2c-0.9,0.7-2,1.3-3.2,1.5c-0.7,0.2-1.3,0.2-2,0.3c-0.5,0-1,0-1.5,0
					c-2.4,0-4.8,0-7.2,0c-0.5,0-1,0-1.5,0c-0.7,0-1.3-0.1-2-0.3C5,15.5,3.9,14.9,3,14.2C1.1,12.7,0,10.4,0,8c0-2.4,1.1-4.7,3-6.2
					c0.9-0.7,2-1.3,3.2-1.5C6.8,0.1,7.4,0,8.1,0c0.5,0,1,0,1.5,0c2.4,0,4.8,0,7.2,0c0.5,0,1,0,1.5,0c0.7,0,1.3,0.1,2,0.3
					c1.2,0.3,2.2,0.8,3.2,1.5C25.4,3.3,26.4,5.6,26.4,8z M21.1,8c0-0.9-0.4-1.7-1.1-2.2c-0.4-0.2-0.7-0.4-1.2-0.5
					c-0.4-0.1-0.8-0.1-1.3-0.1c-2.9,0-5.8,0-8.7,0c-0.4,0-0.8,0-1.3,0.1C7.2,5.5,6.8,5.6,6.5,5.8C5.8,6.3,5.3,7.1,5.3,8
					s0.4,1.7,1.1,2.2c0.4,0.2,0.7,0.4,1.2,0.5c0.4,0.1,0.8,0.1,1.3,0.1c2.9,0,5.8,0,8.7,0c0.4,0,0.8,0,1.3-0.1
					c0.4-0.1,0.8-0.2,1.2-0.5C20.7,9.7,21.1,8.9,21.1,8z"/>
			</g>
			<g id="PS4">
				<g id="PSFM_R-link" transform="translate(0.774163, 0.774163)">
					<g id="PSFM_R">
						<path id="Path_10_" class="st0" d="M7.9,0v15.2l3.4,1.1V3.5c0-0.6,0.3-1,0.7-0.9c0.6,0.2,0.7,0.7,0.7,1.3v5.1
							c2.1,1,3.8,0,3.8-2.7c0-2.8-1-4-3.9-5C11.1,0.8,9.5,0.3,7.9,0"/>
						<path id="Path_11_" class="st0" d="M12,14.1l5.5-2c0.6-0.2,0.7-0.5,0.2-0.7c-0.5-0.2-1.4-0.1-2.1,0.1L12,12.8v-2.1l0.2-0.1
							c0.8-0.3,1.7-0.4,2.6-0.5c1.6-0.2,3.2,0,4.8,0.6c1.6,0.5,1.8,1.3,1.4,1.8c-0.4,0.5-1.4,0.9-1.4,0.9L12,16V14.1z"/>
						<path id="Path_12_" class="st0" d="M1.6,13.8c-1.7-0.5-1.9-1.4-1.2-2c0.7-0.5,1.9-0.9,1.9-0.9l4.9-1.7v2l-3.5,1.3
							C3,12.7,3,13,3.5,13.1C4,13.3,4.9,13.3,5.5,13l1.7-0.6v1.8l-0.3,0.1C5.1,14.6,3.3,14.4,1.6,13.8z"/>
						<path id="Shape_21_" class="st0" d="M20,14.6c0.6,0,1.1,0.5,1.1,1.1c0,0.6-0.5,1.1-1.1,1.1c-0.6,0-1.1-0.5-1.1-1.1
							c0-0.3,0.1-0.6,0.3-0.8S19.7,14.6,20,14.6z M20,16.7c0.4,0,0.7-0.2,0.9-0.6s0.1-0.8-0.2-1c-0.3-0.3-0.7-0.4-1-0.2
							s-0.6,0.5-0.6,0.9c0,0.3,0.1,0.5,0.3,0.7C19.5,16.6,19.8,16.7,20,16.7L20,16.7z M19.6,15.1h0.5c0.2,0,0.4,0.1,0.4,0.3
							c0,0.1-0.1,0.3-0.2,0.3l0,0c0.1,0,0.1,0.1,0.2,0.2c0,0.1,0.1,0.3,0.1,0.4h-0.2c0-0.1-0.1-0.3-0.1-0.3c0-0.1-0.1-0.2-0.3-0.2
							h-0.2v0.5h-0.2L19.6,15.1z M19.8,15.7H20c0.2,0,0.3-0.1,0.3-0.2s-0.1-0.2-0.2-0.2h-0.2V15.7z"/>
					</g>
				</g>
				<path id="Path_13_" class="st0" d="M57.8,5V4.1c0,0,0-0.1-0.1-0.1h-6.4c-1.9,0-2.8,1.1-2.8,2.6v4.5c0,0.9-0.4,1.6-1.4,1.6h-6
					c0,0-0.1,0-0.1,0.1v0.9c0,0,0,0.1,0.1,0.1H48c1.9,0,2.8-1.1,2.8-2.6V6.7c0-0.9,0.4-1.6,1.4-1.6L57.8,5C57.8,5.1,57.8,5,57.8,5
					L57.8,5z"/>
				<path id="Path_14_" class="st0" d="M38.9,4H27.4c0,0-0.1,0-0.1,0.1V5c0,0,0,0,0,0c0,0,0,0,0,0h10.9c0.9,0,1.4,0.7,1.4,1.6
					s-0.4,1.6-1.4,1.6h-8.6c-1.3,0-2.3,1.1-2.3,2.6v2.9c0,0,0,0,0,0s0,0,0,0h2c0,0,0.1,0,0.1-0.1v-2.9c0-0.9,0.5-1.6,1.3-1.6h8.2
					c1.9,0,2.8-1.1,2.8-2.6S40.8,4,38.9,4z"/>
				<path id="Shape_22_" class="st0" d="M72.9,11.7h-2c0,0-0.1,0-0.1-0.1V5.1c0-1-0.7-1.3-1.7-0.7l-11.8,7.2
					c-0.5,0.3-0.6,0.6-0.5,0.8c0.1,0.2,0.4,0.3,0.9,0.3h10.9c0,0,0.1,0,0.1,0.1v0.9c0,0,0,0.1,0.1,0.1h2c0,0,0.1,0,0.1-0.1v-0.9
					c0,0,0-0.1,0.1-0.1h2c0,0,0,0,0,0s0,0,0,0L72.9,11.7C73,11.8,73,11.7,72.9,11.7C72.9,11.7,72.9,11.7,72.9,11.7L72.9,11.7z
					 M68.8,11.6C68.8,11.7,68.8,11.7,68.8,11.6l-9.2,0.1c-0.1,0-0.1,0-0.1,0c0,0,0-0.1,0.1-0.1l9.1-5.6c0.1,0,0.2,0,0.2,0.1V11.6z"
					/>
				<polygon id="Path_15_" class="st0" points="74.4,12.8 74.1,12.8 74.1,12.7 74.8,12.7 74.8,12.8 74.5,12.8 74.5,13.8 74.4,13.8 
									"/>
				<polygon id="Path_16_" class="st0" points="75.5,13.7 75.8,12.7 76.1,12.7 76.1,13.8 75.9,13.8 75.9,12.8 75.6,13.8 75.4,13.8 
					75.1,12.8 75.1,13.8 75,13.8 75,12.7 75.2,12.7 				"/>
			</g>
		</g>
		<g id="ROW-4" transform="translate(16.000000, 121.000000)">
			<g id="roku" transform="translate(0.000000, 0.000000)">
				<path id="Combined-Shape" class="st0" d="M18.8,3.2c3.6,0,6.5,2.9,6.5,6.4c0,3.6-2.9,6.4-6.5,6.4s-6.4-2.9-6.4-6.4
					C12.3,6,15.2,3.2,18.8,3.2z M30.2,3.4v4.9l4.8-4.8h8.6v6.7c0,2,0.5,2.6,1.5,2.6c1,0,1.7-0.5,2.2-1.3l0,0v-8h4.2v12.3h-0.9
					l-1.9-1.6C48,15,46.4,16,44.6,16c-3.7,0-5.1-2.2-5.1-4.7l0,0V4l-5.3,5.3l6.4,6.4h-5.3l-5.1-5v5H26V3.4H30.2z M6,0
					c3.5,0,6.3,2.4,6.3,5.3c0,1.8-1.1,3.4-2.7,4.3l4.4,6.2H9.3l-3.8-5.3H4.2v5.2H0V0H6z M18.8,6.2c-1.1,0-2.1,1.5-2.1,3.4
					s0.9,3.4,2.1,3.4c1.1,0,2.1-1.5,2.1-3.4S19.9,6.2,18.8,6.2z M5.5,2.6H4.2v5.3h1.3c1.4,0,2.6-1.2,2.6-2.6
					C8.1,3.8,6.9,2.6,5.5,2.6z"/>
			</g>
			<g id="samsung" transform="translate(72.000000, 4.000000)">
				<path id="Shape_23_" class="st0" d="M44.7,5.6c0,0-0.8-0.5-1.3-0.7c0,0-1.5-0.7-1.8-1c0,0-0.6-0.6-0.2-1.2c0,0,0.1-0.4,0.8-0.4
					c0,0,0.8,0,0.8,0.7v0.9h2.9l0-1.4c0,0,0.2-2.3-3.4-2.4c0,0-2.9-0.2-3.7,1.4c0,0-0.3,0.3-0.3,1.5v0.9c0,0,0,1,0.5,1.7
					c0,0,0.3,0.4,1,0.9c0,0,1.5,0.8,2.3,1.2c0,0,0.9,0.5,0.8,1.3c0,0-0.1,0.8-0.9,0.8c0,0-0.8,0-0.8-0.8V8h-3.1v1.4
					c0,0-0.1,2.6,3.9,2.6c0,0,3.8,0.1,4-2.7V8.2C46.1,8.2,46.2,6.5,44.7,5.6L44.7,5.6z M29.8,0.5l-1,6.1h-0.2l-0.9-6.1h-4.9
					l-0.2,11.1h2.9l0-8.3h0.2l1.5,8.3h3l1.5-8.3H32l0.1,8.3h2.9L34.6,0.5H29.8L29.8,0.5z M12.6,0.5l-1.9,11.1h3.1L15,3h0.3l1.1,8.6
					h3.1L17.5,0.5H12.6z M77.8,5.4v1.6h0.8v1.8c0,0.9-0.7,0.9-0.7,0.9C77,9.7,77,8.9,77,8.9V2.8c0-0.6,0.8-0.7,0.8-0.7
					c0.8,0,0.8,0.7,0.8,0.7v0.9h2.9c0.1-1.8-0.3-2.2-0.3-2.2C80.5,0,77.7,0,77.7,0C73.5,0,74,3.3,74,3.3v5.9c0.1,3,4.2,2.7,4.3,2.7
					c1.8-0.2,2.4-0.8,2.4-0.8c0.5-0.4,0.6-0.9,0.6-0.9c0.1-0.3,0.2-1.3,0.2-1.3V5.4L77.8,5.4L77.8,5.4z M68.1,7.2H68l-3-6.8h-3.5
					v11.1h2.9l-0.2-6.8h0.1l3.1,6.8h3.4V0.5h-2.9L68.1,7.2L68.1,7.2z M54.4,8.8c0,0,0,0.9-0.8,0.9c0,0-0.9,0-0.9-0.9l0-8.4h-3.2v8.3
					c0,0-0.3,3.1,4.1,3.1c0,0,3.9,0,3.9-3V0.5h-3.1L54.4,8.8L54.4,8.8z M6.6,5.6c0,0-0.8-0.5-1.3-0.7c0,0-1.5-0.7-1.8-1
					c0,0-0.6-0.6-0.2-1.2c0,0,0.1-0.4,0.8-0.4c0,0,0.8,0,0.8,0.7v0.9h2.9l0-1.4c0,0,0.2-2.3-3.4-2.4c0,0-0.3,0-0.7,0
					c0,0-2.2,0.1-3,1.3c0,0,0,0,0,0c0,0-0.3,0.3-0.3,1.5v0.9c0,0,0,1,0.5,1.7c0,0,0.3,0.4,1,0.9c0,0,1.5,0.8,2.3,1.2
					c0,0,0.9,0.5,0.8,1.3c0,0-0.1,0.8-0.9,0.8c0,0-0.8,0-0.8-0.8V8H0v1.4C0,9.3,0,12,3.9,12c0,0,3.8,0.1,4-2.7V8.2
					C7.9,8.2,8.1,6.5,6.6,5.6L6.6,5.6z"/>
			</g>
			<g id="xbox-one" transform="translate(174.000000, 2.000000)">
				<path id="Shape_24_" class="st0" d="M51.3,13l-3-4.3l-3,4.3H44l3.7-5.2L44.3,3h1.3l2.7,3.8L51,3h1.2l-3.3,4.7l3.7,5.2H51.3z
					 M27.6,12.9L24,7.8L27.3,3h-1.3l-2.7,3.8L20.6,3h-1.2l3.3,4.7L19,12.9h1.3l3-4.3l3,4.3H27.6z"/>
				<path id="Shape_25_" class="st0" d="M34.4,8.3C34.2,8.1,34,8,33.7,7.9c0.7-0.4,1.1-1.1,1.1-1.9c0-0.6-0.2-2.6-3.1-2.6h-3.9v4.1
					h-1.3c-0.2,0.2-0.5,0.7-0.7,1h2v4.5h3.9c2.1,0,3.4-1.1,3.4-2.8C35.2,9.4,34.9,8.7,34.4,8.3 M29,4.3h2.8c0.8,0,2,0.2,2,1.5
					c0,1-0.7,1.6-2,1.6H29V4.3L29,4.3z M31.8,11.9H29V8.4h2.8c1.1,0,2.3,0.3,2.3,1.7C34.1,11.7,32.7,11.9,31.8,11.9 M40.2,3.1
					c-2.7,0-4.6,2.1-4.6,5c0,3,1.9,5,4.6,5c2.7,0,4.6-2.1,4.6-5C44.8,5.2,42.9,3.1,40.2,3.1 M40.2,12.1c-2,0-3.5-1.6-3.5-4
					c0-2.4,1.4-4,3.5-4c2,0,3.5,1.6,3.5,4C43.7,10.5,42.3,12.1,40.2,12.1 M2.4,2.3L2.4,2.3L2.4,2.3C0.9,3.8,0,5.9,0,8
					c0,1.8,0.6,3.5,1.6,4.8c0,0,0,0,0,0c0,0,0,0,0,0c-0.6-1.9,2.5-6.5,4.1-8.4c0,0,0,0,0,0c0,0,0,0,0,0C3.1,1.7,2.4,2.3,2.4,2.3
					 M13.6,2.3L13.6,2.3L13.6,2.3c1.5,1.5,2.4,3.6,2.4,5.7c0,1.8-0.6,3.5-1.6,4.8c0,0,0,0,0,0c0,0,0,0,0,0c0.6-1.9-2.5-6.5-4.1-8.4
					c0,0,0,0,0,0c0,0,0,0,0,0C12.9,1.7,13.6,2.3,13.6,2.3 M8,0c1.6,0,2.9,0.4,4.2,1.2c0,0,0,0,0,0c0,0,0,0,0,0
					c-1.5-0.3-3.9,1-4.1,1.1c0,0,0,0,0,0c0,0,0,0,0,0C7.4,2,5.2,0.9,3.8,1.2c0,0,0,0,0,0c0,0,0,0,0,0C5,0.4,6.4,0,8,0 M8,6.4
					C8,6.4,8,6.4,8,6.4c2.4,1.8,6.5,6.3,5.2,7.6l0,0v0h0c-1.5,1.3-3.3,2-5.2,2c-1.9,0-3.8-0.7-5.2-2l0,0l0,0C1.5,12.7,5.6,8.2,8,6.4
					C7.9,6.4,8,6.4,8,6.4 M71,3.3v7.9l-5.8-7.9l-0.9,0v9.6h1.1V5.2l5.7,7.7l1.1,0V3.3H71z M58.7,3.1c-2.7,0-4.6,2.1-4.6,5
					c0,3,1.9,5,4.6,5c2.7,0,4.6-2.1,4.6-5C63.3,5.2,61.4,3.1,58.7,3.1 M58.7,12.1c-2,0-3.5-1.6-3.5-4c0-2.4,1.4-4,3.5-4
					c2,0,3.5,1.6,3.5,4C62.2,10.5,60.8,12.1,58.7,12.1 M74.3,12V8.4h5.3V7.5h-5.3V4.3h5.6V3.3h-6.7v9.6H80V12H74.3z"/>
			</g>
		</g>
	</g>
</g>
</svg>
