<?xml version="1.0" standalone="no"?>
<!DOCTYPE svg PUBLIC "-//W3C//DTD SVG 1.1//EN" "http://www.w3.org/Graphics/SVG/1.1/DTD/svg11.dtd" >
<svg xmlns="http://www.w3.org/2000/svg" xmlns:xlink="http://www.w3.org/1999/xlink" version="1.1">
<metadata>
Created by FontForge 20201107 at Wed Dec  9 17:56:18 2020
 By Nikolai Pohorelsky
Copyright \(c\) 2020 by Optimo SARL. All rights reserved.
</metadata>
<defs>
<font id="AntiqueLegacy-BookItalic" horiz-adv-x="660" >
  <font-face 
    font-family="Antique Legacy Book"
    font-weight="450"
    font-style="italic"
    font-stretch="normal"
    units-per-em="1000"
    panose-1="2 11 5 4 1 1 1 1 1 4"
    ascent="800"
    descent="-200"
    x-height="515"
    cap-height="700"
    bbox="-119 -247 1282 1050"
    underline-thickness="50"
    underline-position="-125"
    slope="-12"
    stemh="100"
    stemv="119"
    unicode-range="U+000D-FEFF"
  />
<missing-glyph horiz-adv-x="761" 
d="M333 779h49l-44 -44c-71 -19 -127 -75 -147 -147l-54 -54v49zM235 779h49l-147 -147v49zM627 779h49l-104 -104c-8 9 -17 16 -26 23zM529 779h49l-62 -62c-11 6 -23 11 -34 15zM431 779h49l-38 -38c-9 1 -19 2 -28 2c-8 0 -12 0 -20 -1zM186 779l-49 -49v49h49zM681 735
v-49l-70 -70c-5 10 -11 20 -18 31zM681 637v-49l-52 -52c0 15 -3 30 -6 43zM137 387l148 148l39 -2c0 36 27 75 75 75h8l-270 -270v49zM137 289l309 309c11 -6 19 -14 26 -23l-335 -335v49zM137 485l56 56l46 -3l-102 -102v49zM681 539v-49l-216 -216v7c0 42 27 52 70 85
c21 17 75 46 89 116zM137 191l347 347v-15c0 -45 -56 -74 -92 -108c-15 -15 -27 -33 -36 -54l-219 -219v49zM681 441v-49l-224 -224h-49zM681 343v-49l-210 -210v49zM137 93l206 206v-38h11l-217 -217v49zM142 0l261 261h49l-93 -93h-23v-23l-145 -145h-49zM436 0l33 33h2v2
l210 210v-49l-196 -196h-49zM534 0l147 147v-49l-98 -98h-49zM240 0l96 96v-49l-47 -47h-49zM681 0h-49l49 49v-49zM338 0l33 33h49l-33 -33h-49z" />
    <glyph glyph-name="f_f" unicode="ff" horiz-adv-x="605" 
d="M326 0l91 432h-161l-92 -432h-114l91 432h-78l18 83h77l9 44c12 59 26 93 53 114c31 24 66 28 135 28c19 0 39 -1 56 -2l-18 -87c-12 0 -21 1 -32 1c-67 0 -70 -20 -80 -64l-7 -34h160l9 44c12 59 26 93 53 114c31 24 66 28 135 28c19 0 39 -1 56 -2l-18 -87
c-12 0 -21 1 -32 1c-67 0 -70 -20 -80 -64l-7 -34h96l-18 -83h-96l-92 -432h-114z" />
    <glyph glyph-name="f_i" unicode="fi" horiz-adv-x="565" 
d="M370 515l-18 -83h-96l-92 -432h-114l91 432h-78l18 83h77l9 44c12 59 26 93 53 114c31 24 66 28 135 28c19 0 39 -1 56 -2l-18 -87c-12 0 -21 1 -32 1c-67 0 -70 -20 -80 -64l-7 -34h96zM448 588l24 112h120l-25 -112h-119zM326 0l108 515h117l-110 -515h-115z" />
    <glyph glyph-name="f_l" unicode="fl" horiz-adv-x="565" 
d="M370 515l-18 -83h-96l-92 -432h-114l91 432h-78l18 83h77l9 44c12 59 26 93 53 114c31 24 66 28 135 28c19 0 39 -1 56 -2l-18 -87c-12 0 -21 1 -32 1c-67 0 -70 -20 -80 -64l-7 -34h96zM473 700h118l-150 -700h-115z" />
    <glyph glyph-name="f_f_i" unicode="ffi" horiz-adv-x="841" 
d="M724 588l24 112h120l-25 -112h-119zM602 0l108 515h117l-110 -515h-115zM326 0l91 432h-161l-92 -432h-114l91 432h-78l18 83h77l9 44c12 59 26 93 53 114c31 24 66 28 135 28c19 0 39 -1 56 -2l-18 -87c-12 0 -21 1 -32 1c-67 0 -70 -20 -80 -64l-7 -34h160l9 44
c12 59 26 93 53 114c31 24 66 28 135 28c19 0 39 -1 56 -2l-18 -87c-12 0 -21 1 -32 1c-67 0 -70 -20 -80 -64l-7 -34h96l-18 -83h-96l-92 -432h-114z" />
    <glyph glyph-name="f_f_l" unicode="ffl" horiz-adv-x="841" 
d="M326 0l91 432h-161l-92 -432h-114l91 432h-78l18 83h77l9 44c12 59 26 93 53 114c31 24 66 28 135 28c19 0 39 -1 56 -2l-18 -87c-12 0 -21 1 -32 1c-67 0 -70 -20 -80 -64l-7 -34h160l9 44c12 59 26 93 53 114c31 24 66 28 135 28c19 0 39 -1 56 -2l-18 -87
c-12 0 -21 1 -32 1c-67 0 -70 -20 -80 -64l-7 -34h96l-18 -83h-96l-92 -432h-114zM749 700h118l-150 -700h-115z" />
    <glyph glyph-name=".notdef" horiz-adv-x="761" 
d="M333 779h49l-44 -44c-71 -19 -127 -75 -147 -147l-54 -54v49zM235 779h49l-147 -147v49zM627 779h49l-104 -104c-8 9 -17 16 -26 23zM529 779h49l-62 -62c-11 6 -23 11 -34 15zM431 779h49l-38 -38c-9 1 -19 2 -28 2c-8 0 -12 0 -20 -1zM186 779l-49 -49v49h49zM681 735
v-49l-70 -70c-5 10 -11 20 -18 31zM681 637v-49l-52 -52c0 15 -3 30 -6 43zM137 387l148 148l39 -2c0 36 27 75 75 75h8l-270 -270v49zM137 289l309 309c11 -6 19 -14 26 -23l-335 -335v49zM137 485l56 56l46 -3l-102 -102v49zM681 539v-49l-216 -216v7c0 42 27 52 70 85
c21 17 75 46 89 116zM137 191l347 347v-15c0 -45 -56 -74 -92 -108c-15 -15 -27 -33 -36 -54l-219 -219v49zM681 441v-49l-224 -224h-49zM681 343v-49l-210 -210v49zM137 93l206 206v-38h11l-217 -217v49zM142 0l261 261h49l-93 -93h-23v-23l-145 -145h-49zM436 0l33 33h2v2
l210 210v-49l-196 -196h-49zM534 0l147 147v-49l-98 -98h-49zM240 0l96 96v-49l-47 -47h-49zM681 0h-49l49 49v-49zM338 0l33 33h49l-33 -33h-49z" />
    <glyph glyph-name="uni2003" unicode="&#x2003;" horiz-adv-x="1000" 
 />
    <glyph glyph-name="uni2002" unicode="&#x2002;" horiz-adv-x="500" 
 />
    <glyph glyph-name="uni2005" unicode="&#x2005;" horiz-adv-x="250" 
 />
    <glyph glyph-name="uni200A" unicode="&#x200a;" horiz-adv-x="42" 
 />
    <glyph glyph-name="uni2009" unicode="&#x2009;" horiz-adv-x="125" 
 />
    <glyph glyph-name="uni2004" unicode="&#x2004;" horiz-adv-x="333" 
 />
    <glyph glyph-name="uni200B" unicode="&#x200b;" horiz-adv-x="0" 
 />
    <glyph glyph-name="uni2007" unicode="&#x2007;" horiz-adv-x="626" 
 />
    <glyph glyph-name="uni2008" unicode="&#x2008;" horiz-adv-x="245" 
 />
    <glyph glyph-name="CR" unicode="&#xd;" horiz-adv-x="225" 
 />
    <glyph glyph-name="space" unicode=" " horiz-adv-x="225" 
 />
    <glyph glyph-name="uni00A0" unicode="&#xa0;" horiz-adv-x="225" 
 />
    <glyph glyph-name="space.frac" horiz-adv-x="53" 
 />
    <glyph glyph-name="uni2000" unicode="&#x2000;" horiz-adv-x="500" 
 />
    <glyph glyph-name="uni2001" unicode="&#x2001;" horiz-adv-x="1000" 
 />
    <glyph glyph-name="NULL" horiz-adv-x="0" 
 />
    <glyph glyph-name="NULL" horiz-adv-x="0" 
 />
    <glyph glyph-name="uni2007.osf" horiz-adv-x="621" 
 />
    <glyph glyph-name="uni2007.tf" 
 />
    <glyph glyph-name="uni2007.tosf" 
 />
    <glyph glyph-name="uniFEFF" unicode="&#xfeff;" horiz-adv-x="0" 
 />
    <glyph glyph-name="uni2006" unicode="&#x2006;" horiz-adv-x="167" 
 />
    <glyph glyph-name="A" unicode="A" horiz-adv-x="642" 
d="M-51 0l404 700h127l103 -700h-120l-22 172h-267l-97 -172h-128zM394 578h-2c-17 -33 -44 -90 -79 -154l-84 -154h200l-20 153c-9 65 -12 123 -15 155z" />
    <glyph glyph-name="B" unicode="B" horiz-adv-x="675" 
d="M23 0l148 700h251c117 0 240 -19 240 -154c0 -95 -56 -155 -143 -174v-2c68 -17 108 -76 108 -145c0 -146 -120 -225 -277 -225h-327zM274 603l-41 -191h174c73 0 127 38 127 110c0 63 -42 81 -98 81h-162zM213 320l-48 -224h189c88 0 148 44 148 128
c0 85 -71 96 -140 96h-149z" />
    <glyph glyph-name="C" unicode="C" horiz-adv-x="701" 
d="M710 473h-121c-5 47 -23 83 -55 107s-70 36 -113 36c-160 0 -236 -171 -236 -325c0 -133 65 -206 178 -206c95 0 161 62 188 139h123c-57 -168 -171 -237 -316 -237c-173 0 -299 109 -299 305c0 210 127 421 366 421c163 0 273 -83 285 -240z" />
    <glyph glyph-name="D" unicode="D" horiz-adv-x="720" 
d="M23 0l148 700h238c95 0 157 -20 204 -59c60 -48 90 -124 90 -217c0 -129 -39 -240 -115 -317c-65 -67 -155 -107 -290 -107h-275zM274 602l-108 -504h131c87 0 144 28 189 72c61 59 91 146 91 239c0 69 -17 123 -56 156c-28 24 -65 37 -124 37h-123z" />
    <glyph glyph-name="E" unicode="E" horiz-adv-x="631" 
d="M579 415l-21 -100h-345l-46 -216h389l-22 -99h-511l148 700h507l-21 -100h-384l-39 -185h345z" />
    <glyph glyph-name="F" unicode="F" horiz-adv-x="595" 
d="M145 0h-122l148 700h490l-21 -100h-367l-39 -185h323l-21 -100h-323z" />
    <glyph glyph-name="G" unicode="G" horiz-adv-x="754" 
d="M59 298c0 216 136 415 376 415c161 0 282 -82 294 -240h-120c-17 95 -79 143 -178 143c-173 0 -246 -168 -246 -322c0 -140 74 -210 189 -210c124 0 194 78 219 186h-184l22 98h287l-78 -368h-87l13 74h-2c-51 -60 -130 -87 -217 -87c-156 0 -288 99 -288 311z" />
    <glyph glyph-name="H" unicode="H" horiz-adv-x="721" 
d="M739 700l-149 -700h-124l67 318h-318l-68 -318h-124l148 700h125l-60 -281h319l59 281h125z" />
    <glyph glyph-name="I" unicode="I" horiz-adv-x="278" 
d="M296 700l-149 -700h-124l148 700h125z" />
    <glyph glyph-name="J" unicode="J" horiz-adv-x="532" 
d="M17 240h112c-5 -21 -9 -51 -9 -70c0 -55 24 -87 88 -87c87 0 106 64 118 125l104 492h125l-105 -493c-28 -137 -87 -222 -244 -222c-134 0 -201 55 -201 165c0 27 4 62 12 90z" />
    <glyph glyph-name="K" unicode="K" horiz-adv-x="661" 
d="M23 0l148 700h124l-36 -170c-9 -43 -21 -88 -33 -143h1l358 313h161l-339 -295l213 -405h-142l-169 326l-114 -97l-49 -229h-123z" />
    <glyph glyph-name="L" unicode="L" horiz-adv-x="571" 
d="M296 700l-128 -601h356l-22 -99h-479l148 700h125z" />
    <glyph glyph-name="M" unicode="M" horiz-adv-x="850" 
d="M620 367l-192 -367h-115l-40 373c-8 75 -11 166 -12 227h-3c-10 -59 -26 -171 -44 -251l-74 -349h-117l148 700h175l36 -340c8 -77 15 -164 16 -224h2c29 67 66 149 105 224l177 340h186l-149 -700h-118l75 355c15 73 47 196 59 246h-3c-21 -49 -69 -151 -112 -234z" />
    <glyph glyph-name="N" unicode="N" horiz-adv-x="728" 
d="M301 700l145 -349c24 -57 51 -130 67 -177h2c11 52 22 123 37 195l70 331h124l-149 -700h-132l-137 333c-24 59 -54 135 -75 191h-2c-8 -47 -19 -120 -34 -184l-72 -340h-122l148 700h130z" />
    <glyph glyph-name="O" unicode="O" horiz-adv-x="745" 
d="M358 -14c-183 0 -299 117 -299 304c0 229 141 423 367 423c182 0 300 -111 300 -304c0 -225 -137 -423 -368 -423zM601 415c0 131 -68 202 -177 202c-163 0 -240 -172 -240 -332c0 -131 70 -200 177 -200c160 0 240 175 240 330z" />
    <glyph glyph-name="P" unicode="P" horiz-adv-x="638" 
d="M23 0l148 700h255c84 0 140 -15 181 -52c35 -31 55 -76 55 -143c0 -72 -27 -129 -71 -170c-48 -44 -114 -68 -197 -68h-191l-57 -267h-123zM274 601l-50 -235h175c89 0 144 45 144 136c0 79 -60 99 -124 99h-145z" />
    <glyph glyph-name="Q" unicode="Q" horiz-adv-x="750" 
d="M359 -14c-183 0 -299 117 -299 304c0 229 135 423 368 423c184 0 299 -112 299 -304c0 -128 -44 -246 -123 -325l66 -71l-66 -58l-70 75c-49 -28 -108 -44 -175 -44zM394 182l66 59l70 -76c51 63 72 146 72 250c0 131 -68 202 -177 202c-163 0 -240 -172 -240 -332
c0 -131 70 -202 177 -202c39 0 72 9 100 25z" />
    <glyph glyph-name="R" unicode="R" horiz-adv-x="667" 
d="M24 0l147 700h286c71 0 121 -11 158 -38c37 -25 58 -67 58 -130c0 -125 -81 -185 -175 -201v-2c57 -14 85 -51 85 -112c0 -43 -18 -118 -18 -164c0 -19 3 -35 8 -50c0 -1 -1 -2 -1 -3h-125c-3 11 -3 18 -3 31c0 40 16 115 16 167c0 68 -44 85 -117 85h-136l-61 -283h-122
zM273 601l-47 -224h171c93 0 152 41 152 128c0 79 -55 96 -122 96h-154z" />
    <glyph glyph-name="S" unicode="S" horiz-adv-x="628" 
d="M623 499h-123c-3 76 -51 117 -138 117s-134 -36 -134 -97c0 -56 36 -76 104 -99l63 -21c104 -34 190 -67 190 -188c0 -120 -87 -224 -283 -224c-173 0 -271 71 -279 231h128c1 -89 65 -134 158 -134c87 0 148 36 148 111c0 53 -40 76 -107 96l-69 21
c-88 28 -180 66 -180 189c0 149 125 212 266 212c139 0 256 -62 256 -214z" />
    <glyph glyph-name="T" unicode="T" horiz-adv-x="593" 
d="M652 600h-219l-128 -600h-124l127 600h-221l21 100h565z" />
    <glyph glyph-name="U" unicode="U" horiz-adv-x="691" 
d="M73 271l91 429h125l-92 -432c-7 -31 -10 -56 -10 -74c0 -65 37 -110 132 -110c119 0 154 61 176 168l95 448h125l-94 -441c-17 -85 -41 -149 -80 -192c-49 -56 -120 -80 -229 -80c-173 0 -250 72 -250 193c0 25 3 54 11 91z" />
    <glyph glyph-name="V" unicode="V" horiz-adv-x="621" 
d="M192 0l-91 700h124l42 -396c6 -49 14 -129 16 -165h2c19 38 57 116 85 167l208 394h133l-392 -700h-127z" />
    <glyph glyph-name="W" unicode="W" horiz-adv-x="917" 
d="M152 0l-50 700h125l19 -371c2 -39 5 -121 5 -172h3c19 48 48 129 66 172l160 371h137l8 -372c1 -49 3 -92 2 -171h3c23 57 47 114 72 171l168 372h132l-343 -700h-131l-8 351c-1 61 -3 123 -2 196h-3c-17 -49 -48 -127 -79 -198l-153 -349h-131z" />
    <glyph glyph-name="X" unicode="X" horiz-adv-x="604" 
d="M-54 0l314 366l-152 334h128l108 -251l199 251h140l-288 -345l158 -355h-133l-110 266l-217 -266h-147z" />
    <glyph glyph-name="Y" unicode="Y" horiz-adv-x="610" 
d="M188 0c19 91 38 181 58 270l-144 430h125l101 -321l235 321h139l-333 -430l-57 -270h-124z" />
    <glyph glyph-name="Z" unicode="Z" horiz-adv-x="624" 
d="M117 600l21 100h539l-21 -99l-367 -364c-70 -68 -93 -91 -140 -138c44 2 129 1 178 1h237l-21 -100h-567l21 95l377 376c47 47 93 89 132 130c-32 -1 -78 -1 -107 -1h-282z" />
    <glyph glyph-name="a" unicode="a" horiz-adv-x="559" 
d="M355 51h-2c-24 -32 -83 -64 -162 -64c-64 0 -113 21 -142 57c-20 25 -30 55 -30 89c0 67 36 110 91 135c59 28 131 37 200 48l32 5c47 7 60 21 60 57c0 39 -28 65 -95 65c-64 0 -104 -26 -119 -91l-110 2c23 120 106 175 242 175c125 0 196 -49 196 -146
c0 -48 -13 -106 -26 -167l-28 -133c-3 -16 -7 -33 -7 -50c0 -9 1 -21 4 -30l-1 -3h-110zM370 189l15 72c-20 -15 -48 -19 -79 -26l-31 -6c-44 -9 -76 -18 -99 -30c-23 -13 -34 -32 -34 -58c0 -44 32 -66 85 -66s123 18 143 114z" />
    <glyph glyph-name="b" unicode="b" horiz-adv-x="608" 
d="M163 700h117l-23 -109c-5 -25 -19 -85 -31 -136h2c31 40 83 73 156 73c112 0 191 -82 191 -218c0 -181 -117 -325 -280 -325c-79 0 -132 35 -152 74h-2l-13 -59h-112zM177 210c0 -81 38 -132 111 -132c120 0 169 127 169 229c0 81 -39 132 -112 132
c-120 0 -168 -127 -168 -229z" />
    <glyph glyph-name="c" unicode="c" horiz-adv-x="555" 
d="M535 342h-113c-9 63 -50 94 -110 94c-107 0 -157 -117 -157 -222c0 -85 42 -133 114 -133c63 0 107 37 130 96h118c-33 -111 -123 -190 -254 -190c-136 0 -227 82 -227 230c0 169 102 313 280 313c123 0 212 -67 219 -188z" />
    <glyph glyph-name="d" unicode="d" horiz-adv-x="609" 
d="M485 0h-111l15 65h-2c-31 -40 -86 -78 -161 -78c-117 0 -192 91 -192 218c0 181 122 326 276 326c83 0 136 -37 157 -76c9 49 19 92 26 125l25 120h117zM153 211c0 -81 38 -132 111 -132c120 0 169 127 169 229c0 81 -39 132 -112 132c-120 0 -168 -127 -168 -229z" />
    <glyph glyph-name="e" unicode="e" horiz-adv-x="579" 
d="M540 228h-389c-1 -5 -1 -10 -1 -15c0 -84 47 -134 122 -134c60 0 103 30 127 75h124c-39 -100 -132 -168 -255 -168c-140 0 -233 89 -233 231c0 173 109 314 281 314c158 0 228 -107 228 -246c0 -20 -1 -38 -4 -57zM163 311h267c-3 80 -42 131 -119 131
c-81 0 -133 -55 -148 -131z" />
    <glyph glyph-name="f" unicode="f" horiz-adv-x="329" 
d="M370 515l-18 -83h-96l-92 -432h-114l91 432h-78l18 83h77l9 44c12 59 26 93 53 114c31 24 66 28 135 28c19 0 39 -1 56 -2l-18 -87c-12 0 -21 1 -32 1c-67 0 -70 -20 -80 -64l-7 -34h96z" />
    <glyph glyph-name="g" unicode="g" horiz-adv-x="603" 
d="M5 -16h119c3 -49 41 -73 106 -73c88 0 127 47 144 132l3 15c4 21 7 31 10 40h-3c-27 -35 -75 -66 -151 -66c-103 0 -192 74 -192 210c0 161 105 288 261 288c80 0 137 -38 156 -73h2l13 58h115l-102 -485c-31 -145 -114 -208 -265 -208c-136 0 -216 54 -216 162zM314 444
c-101 0 -156 -95 -156 -198c0 -83 45 -129 117 -129c103 0 156 96 156 198c0 83 -45 129 -117 129z" />
    <glyph glyph-name="h" unicode="h" horiz-adv-x="588" 
d="M281 700l-29 -132l-27 -115h2c27 41 81 77 158 77c104 0 159 -60 159 -148c0 -25 -3 -54 -10 -82l-64 -300h-115l59 283c5 24 9 46 9 67c0 51 -31 83 -88 83c-43 0 -75 -17 -98 -44c-21 -25 -39 -69 -46 -104l-61 -285h-114l147 700h118z" />
    <glyph glyph-name="i" unicode="i" horiz-adv-x="255" 
d="M138 588l24 112h120l-25 -112h-119zM16 0l108 515h117l-110 -515h-115z" />
    <glyph glyph-name="j" unicode="j" horiz-adv-x="255" 
d="M138 588l24 112h120l-25 -112h-119zM-73 -87c62 0 74 19 88 86l109 516h117l-115 -535c-28 -134 -80 -155 -197 -155c-13 0 -26 1 -38 1l20 88c7 -1 11 -1 16 -1z" />
    <glyph glyph-name="k" unicode="k" horiz-adv-x="538" 
d="M163 700h117l-58 -267c-9 -41 -17 -81 -28 -129h2c37 33 71 65 98 88l146 123h147l-244 -199l149 -316h-132l-108 243l-84 -68l-38 -175h-114z" />
    <glyph glyph-name="l" unicode="l" horiz-adv-x="255" 
d="M163 700h118l-150 -700h-115z" />
    <glyph glyph-name="m" unicode="m" horiz-adv-x="901" 
d="M456 0h-114l59 283c5 24 9 49 9 70c0 51 -27 80 -80 80c-40 0 -70 -17 -93 -44c-21 -25 -39 -69 -46 -104l-61 -285h-114l108 515h113l-7 -31c-1 -9 -4 -21 -8 -34h2c29 43 79 80 156 80c79 0 124 -33 141 -88h2c29 43 89 88 181 88c107 0 153 -60 153 -148
c0 -25 -3 -54 -10 -82l-64 -300h-115l59 283c5 24 9 49 9 70c0 51 -27 80 -80 80c-40 0 -70 -17 -93 -44c-21 -25 -39 -69 -46 -104z" />
    <glyph glyph-name="n" unicode="n" horiz-adv-x="588" 
d="M16 0l108 515h113l-7 -31c-1 -9 -4 -21 -8 -34h2c29 43 84 80 161 80c104 0 159 -60 159 -148c0 -25 -3 -54 -10 -82l-64 -300h-115l59 283c5 24 9 46 9 67c0 51 -31 83 -88 83c-43 0 -75 -17 -98 -44c-21 -25 -39 -69 -46 -104l-61 -285h-114z" />
    <glyph glyph-name="o" unicode="o" horiz-adv-x="586" 
d="M320 531c140 0 233 -87 233 -226c0 -170 -101 -319 -285 -319c-138 0 -233 85 -233 226c0 171 102 319 285 319zM272 79c112 0 163 121 163 226c0 87 -45 133 -118 133c-113 0 -163 -120 -163 -225c0 -87 45 -134 118 -134z" />
    <glyph glyph-name="p" unicode="p" horiz-adv-x="608" 
d="M124 515h111l-14 -65h1c33 41 87 78 162 78c112 0 191 -81 191 -218c0 -181 -117 -325 -281 -325c-77 0 -132 35 -152 74c-8 -39 -13 -66 -21 -102l-28 -129h-114zM177 210c0 -81 38 -132 111 -132c120 0 169 127 169 229c0 81 -39 132 -112 132
c-120 0 -168 -127 -168 -229z" />
    <glyph glyph-name="q" unicode="q" horiz-adv-x="609" 
d="M480 515h115l-147 -687h-114l24 117c9 41 16 67 27 118h-2c-29 -41 -82 -76 -157 -76c-117 0 -192 91 -192 218c0 181 122 326 276 326c81 0 136 -36 155 -75h2zM153 211c0 -81 38 -132 111 -132c120 0 169 127 169 229c0 81 -39 132 -112 132
c-120 0 -168 -127 -168 -229z" />
    <glyph glyph-name="r" unicode="r" horiz-adv-x="358" 
d="M16 0l109 515h111c-3 -20 -8 -44 -15 -72h2c21 49 75 88 160 88c5 0 10 0 15 -1l-23 -111c-9 1 -21 2 -32 2c-85 0 -134 -50 -155 -150l-58 -271h-114z" />
    <glyph glyph-name="s" unicode="s" horiz-adv-x="517" 
d="M13 167h115c0 -69 53 -96 112 -96c55 0 106 21 106 72c0 37 -31 53 -83 70l-65 21c-41 13 -73 30 -96 49s-35 49 -35 90c0 102 93 157 211 157c117 0 214 -40 214 -168h-111c-1 51 -36 84 -105 84c-64 0 -92 -28 -92 -59c0 -33 24 -49 76 -65l67 -21
c75 -24 140 -58 140 -144c0 -124 -115 -171 -233 -171c-116 0 -221 41 -221 181z" />
    <glyph glyph-name="t" unicode="t" horiz-adv-x="338" 
d="M302 676l-34 -161h95l-18 -83h-95l-58 -272c-4 -17 -6 -27 -6 -38c0 -12 4 -21 11 -26s18 -9 45 -9h31l-18 -87h-54c-65 0 -100 8 -119 25c-12 12 -18 29 -18 51c0 15 3 36 9 62l62 294h-73l18 83h72l34 161h116z" />
    <glyph glyph-name="u" unicode="u" horiz-adv-x="583" 
d="M568 515l-108 -515h-113l7 31c3 11 4 21 8 34h-2c-29 -43 -80 -80 -159 -80c-104 0 -156 60 -156 148c0 27 5 54 10 82l64 300h115l-59 -283c-5 -24 -9 -46 -9 -67c0 -51 28 -83 85 -83c43 0 75 17 96 44c21 25 39 71 46 104l61 285h114z" />
    <glyph glyph-name="v" unicode="v" horiz-adv-x="496" 
d="M135 0l-75 515h115l30 -261c5 -43 11 -89 14 -128h2c17 37 40 81 63 125l138 264h123l-290 -515h-120z" />
    <glyph glyph-name="w" unicode="w" horiz-adv-x="776" 
d="M113 0c-17 172 -34 343 -50 515h117l15 -262c3 -43 4 -85 5 -124h2c11 27 36 79 57 123l124 263h120l13 -262l2 -47l4 -78h2c19 39 37 81 58 125l124 262h120l-271 -515h-121l-13 243c-3 48 -5 95 -5 131h-2c-13 -32 -32 -75 -59 -130l-117 -244h-125z" />
    <glyph glyph-name="x" unicode="x" horiz-adv-x="507" 
d="M-51 0l245 273l-128 242h124l80 -165l140 165h136l-228 -248l139 -267h-125l-90 183l-158 -183h-135z" />
    <glyph glyph-name="y" unicode="y" horiz-adv-x="498" 
d="M125 82l-64 433h117l27 -239c7 -52 11 -103 14 -152h2c24 55 55 112 76 152l127 239h124l-330 -576c-55 -95 -100 -113 -195 -113c-24 0 -52 1 -64 1l19 90c7 0 19 -1 32 -1c87 0 121 36 121 99c0 18 -2 40 -6 67z" />
    <glyph glyph-name="z" unicode="z" horiz-adv-x="505" 
d="M498 424l-251 -232l-105 -98l-1 -2c35 1 89 1 126 1h176l-20 -93h-444l20 91l262 246c37 35 59 55 92 84v2c-32 -1 -78 -1 -105 -1h-170l19 93h420z" />
    <glyph glyph-name="Agrave" unicode="&#xc0;" horiz-adv-x="642" 
d="M-51 0l404 700h127l103 -700h-120l-22 172h-267l-97 -172h-128zM394 578h-2c-17 -33 -44 -90 -79 -154l-84 -154h200l-20 153c-9 65 -12 123 -15 155zM376 746l-110 129h149l56 -129h-95z" />
    <glyph glyph-name="Aacute" unicode="&#xc1;" horiz-adv-x="642" 
d="M-51 0l404 700h127l103 -700h-120l-22 172h-267l-97 -172h-128zM394 578h-2c-17 -33 -44 -90 -79 -154l-84 -154h200l-20 153c-9 65 -12 123 -15 155zM471 746h-97l80 129h150z" />
    <glyph glyph-name="Acircumflex" unicode="&#xc2;" horiz-adv-x="642" 
d="M-51 0l404 700h127l103 -700h-120l-22 172h-267l-97 -172h-128zM394 578h-2c-17 -33 -44 -90 -79 -154l-84 -154h200l-20 153c-9 65 -12 123 -15 155zM433 815l-69 -69h-104l119 129h121l71 -129h-98z" />
    <glyph glyph-name="Atilde" unicode="&#xc3;" horiz-adv-x="642" 
d="M-51 0l404 700h127l103 -700h-120l-22 172h-267l-97 -172h-128zM394 578h-2c-17 -33 -44 -90 -79 -154l-84 -154h200l-20 153c-9 65 -12 123 -15 155zM530 870h69c-9 -67 -46 -110 -106 -110c-25 0 -46 7 -69 14l-16 5c-17 5 -31 9 -48 9c-24 0 -40 -12 -45 -29h-69
c9 67 46 109 106 109c25 0 48 -7 69 -14l16 -5c17 -5 31 -9 48 -9c24 0 40 13 45 30z" />
    <glyph glyph-name="Adieresis" unicode="&#xc4;" horiz-adv-x="642" 
d="M-51 0l404 700h127l103 -700h-120l-22 172h-267l-97 -172h-128zM394 578h-2c-17 -33 -44 -90 -79 -154l-84 -154h200l-20 153c-9 65 -12 123 -15 155zM409 875l-24 -115h-114l24 115h114zM607 875l-24 -115h-114l24 115h114z" />
    <glyph glyph-name="Amacron" unicode="&#x100;" horiz-adv-x="642" 
d="M-51 0l404 700h127l103 -700h-120l-22 172h-267l-97 -172h-128zM394 578h-2c-17 -33 -44 -90 -79 -154l-84 -154h200l-20 153c-9 65 -12 123 -15 155zM572 764h-304l17 80h304z" />
    <glyph glyph-name="Abreve" unicode="&#x102;" horiz-adv-x="642" 
d="M-51 0l404 700h127l103 -700h-120l-22 172h-267l-97 -172h-128zM394 578h-2c-17 -33 -44 -90 -79 -154l-84 -154h200l-20 153c-9 65 -12 123 -15 155zM421 744c-73 0 -140 36 -161 95l66 43c20 -36 63 -53 104 -53c47 0 93 21 122 53l52 -46c-44 -61 -110 -92 -183 -92z
" />
    <glyph glyph-name="Aring" unicode="&#xc5;" horiz-adv-x="642" 
d="M-51 0l404 700h127l103 -700h-120l-22 172h-267l-97 -172h-128zM394 578h-2c-17 -33 -44 -90 -79 -154l-84 -154h200l-20 153c-9 65 -12 123 -15 155zM430 898c47 0 83 -36 83 -83s-36 -84 -83 -84c-45 0 -84 37 -84 84s39 83 84 83zM430 853c-21 0 -38 -17 -38 -38
s17 -39 38 -39c23 0 39 18 39 39s-16 38 -39 38z" />
    <glyph glyph-name="Aringacute" unicode="&#x1fa;" horiz-adv-x="642" 
d="M-51 0l404 700h127l103 -700h-120l-22 172h-267l-97 -172h-128zM394 578h-2c-17 -33 -44 -90 -79 -154l-84 -154h200l-20 153c-9 65 -12 123 -15 155zM433 895c47 0 83 -36 83 -83s-36 -84 -83 -84s-84 37 -84 84s37 83 84 83zM433 850c-21 0 -39 -17 -39 -38
s18 -39 39 -39s39 18 39 39s-18 38 -39 38zM487 921h-97l80 129h149z" />
    <glyph glyph-name="Aogonek" unicode="&#x104;" horiz-adv-x="642" 
d="M-51 0l404 700h127l103 -700h-120l-22 172h-267l-97 -172h-128zM394 578h-2c-17 -33 -44 -90 -79 -154l-84 -154h200l-20 153c-9 65 -12 123 -15 155zM535 0h48c-61 -47 -80 -78 -80 -106c0 -25 16 -38 36 -38c18 0 33 10 45 31l38 -14c-13 -35 -43 -67 -96 -67
c-63 0 -86 40 -86 77c0 40 35 86 95 117z" />
    <glyph glyph-name="AE" unicode="&#xc6;" horiz-adv-x="940" 
d="M369 0l37 172h-225l-117 -172h-134l490 700h567l-21 -100h-349l-39 -185h310l-21 -100h-310l-46 -216h354l-22 -99h-474zM472 604l-226 -334h180l71 334h-25z" />
    <glyph glyph-name="AEacute" unicode="&#x1fc;" horiz-adv-x="940" 
d="M369 0l37 172h-225l-117 -172h-134l490 700h567l-21 -100h-349l-39 -185h310l-21 -100h-310l-46 -216h354l-22 -99h-474zM472 604l-226 -334h180l71 334h-25zM710 746h-97l80 129h150z" />
    <glyph glyph-name="Cacute" unicode="&#x106;" horiz-adv-x="701" 
d="M710 473h-121c-5 47 -23 83 -55 107s-70 36 -113 36c-160 0 -236 -171 -236 -325c0 -133 65 -206 178 -206c95 0 161 62 188 139h123c-57 -168 -171 -237 -316 -237c-173 0 -299 109 -299 305c0 210 127 421 366 421c163 0 273 -83 285 -240zM489 746h-97l80 129h150z
" />
    <glyph glyph-name="Ccircumflex" unicode="&#x108;" horiz-adv-x="701" 
d="M710 473h-121c-5 47 -23 83 -55 107s-70 36 -113 36c-160 0 -236 -171 -236 -325c0 -133 65 -206 178 -206c95 0 161 62 188 139h123c-57 -168 -171 -237 -316 -237c-173 0 -299 109 -299 305c0 210 127 421 366 421c163 0 273 -83 285 -240zM462 815l-69 -69h-104
l119 129h121l71 -129h-98z" />
    <glyph glyph-name="Ccaron" unicode="&#x10c;" horiz-adv-x="701" 
d="M710 473h-121c-5 47 -23 83 -55 107s-70 36 -113 36c-160 0 -236 -171 -236 -325c0 -133 65 -206 178 -206c95 0 161 62 188 139h123c-57 -168 -171 -237 -316 -237c-173 0 -299 109 -299 305c0 210 127 421 366 421c163 0 273 -83 285 -240zM413 875l40 -70l69 70h104
l-119 -129h-121l-71 129h98z" />
    <glyph glyph-name="Cdotaccent" unicode="&#x10a;" horiz-adv-x="701" 
d="M710 473h-121c-5 47 -23 83 -55 107s-70 36 -113 36c-160 0 -236 -171 -236 -325c0 -133 65 -206 178 -206c95 0 161 62 188 139h123c-57 -168 -171 -237 -316 -237c-173 0 -299 109 -299 305c0 210 127 421 366 421c163 0 273 -83 285 -240zM523 875l-24 -115h-116
l24 115h116z" />
    <glyph glyph-name="Ccedilla" unicode="&#xc7;" horiz-adv-x="701" 
d="M710 473h-121c-5 47 -23 83 -55 107s-70 36 -113 36c-160 0 -236 -171 -236 -325c0 -133 65 -206 178 -206c95 0 161 62 188 139h123c-57 -168 -171 -237 -316 -237c-173 0 -299 109 -299 305c0 210 127 421 366 421c163 0 273 -83 285 -240zM323 8l43 -8l-42 -45l1 -1
c8 1 17 2 26 2c34 0 78 -16 78 -66c0 -59 -54 -81 -106 -81c-32 0 -68 8 -91 21l16 38c16 -9 38 -18 66 -18s48 13 48 38c0 23 -20 34 -45 34c-11 0 -22 -3 -34 -8l-20 20z" />
    <glyph glyph-name="Dcaron" unicode="&#x10e;" horiz-adv-x="720" 
d="M23 0l148 700h238c95 0 157 -20 204 -59c60 -48 90 -124 90 -217c0 -129 -39 -240 -115 -317c-65 -67 -155 -107 -290 -107h-275zM274 602l-108 -504h131c87 0 144 28 189 72c61 59 91 146 91 239c0 69 -17 123 -56 156c-28 24 -65 37 -124 37h-123zM390 875l40 -70
l69 70h104l-119 -129h-121l-71 129h98z" />
    <glyph glyph-name="Dcroat" unicode="&#x110;" horiz-adv-x="740" 
d="M43 0l65 310h-79l19 95h80l63 295h238c95 0 157 -20 204 -59c60 -48 90 -124 90 -217c0 -129 -39 -240 -115 -317c-65 -67 -155 -107 -290 -107h-275zM378 310h-147l-45 -212h131c87 0 144 28 189 72c61 59 91 146 91 239c0 69 -17 123 -56 156c-28 24 -65 37 -124 37
h-123l-42 -197h146z" />
    <glyph glyph-name="Eth" unicode="&#xd0;" horiz-adv-x="740" 
d="M43 0l65 310h-79l19 95h80l63 295h238c95 0 157 -20 204 -59c60 -48 90 -124 90 -217c0 -129 -39 -240 -115 -317c-65 -67 -155 -107 -290 -107h-275zM378 310h-147l-45 -212h131c87 0 144 28 189 72c61 59 91 146 91 239c0 69 -17 123 -56 156c-28 24 -65 37 -124 37
h-123l-42 -197h146z" />
    <glyph glyph-name="Egrave" unicode="&#xc8;" horiz-adv-x="631" 
d="M579 415l-21 -100h-345l-46 -216h389l-22 -99h-511l148 700h507l-21 -100h-384l-39 -185h345zM383 746l-110 129h149l56 -129h-95z" />
    <glyph glyph-name="Eacute" unicode="&#xc9;" horiz-adv-x="631" 
d="M579 415l-21 -100h-345l-46 -216h389l-22 -99h-511l148 700h507l-21 -100h-384l-39 -185h345zM450 746h-97l80 129h150z" />
    <glyph glyph-name="Ecircumflex" unicode="&#xca;" horiz-adv-x="631" 
d="M579 415l-21 -100h-345l-46 -216h389l-22 -99h-511l148 700h507l-21 -100h-384l-39 -185h345zM435 815l-69 -69h-104l119 129h121l71 -129h-98z" />
    <glyph glyph-name="Ecaron" unicode="&#x11a;" horiz-adv-x="631" 
d="M579 415l-21 -100h-345l-46 -216h389l-22 -99h-511l148 700h507l-21 -100h-384l-39 -185h345zM388 875l40 -70l69 70h104l-119 -129h-121l-71 129h98z" />
    <glyph glyph-name="Edieresis" unicode="&#xcb;" horiz-adv-x="631" 
d="M579 415l-21 -100h-345l-46 -216h389l-22 -99h-511l148 700h507l-21 -100h-384l-39 -185h345zM407 875l-24 -115h-114l24 115h114zM605 875l-24 -115h-114l24 115h114z" />
    <glyph glyph-name="Emacron" unicode="&#x112;" horiz-adv-x="631" 
d="M579 415l-21 -100h-345l-46 -216h389l-22 -99h-511l148 700h507l-21 -100h-384l-39 -185h345zM579 764h-304l17 80h304z" />
    <glyph glyph-name="Ebreve" unicode="&#x114;" horiz-adv-x="631" 
d="M579 415l-21 -100h-345l-46 -216h389l-22 -99h-511l148 700h507l-21 -100h-384l-39 -185h345zM425 744c-73 0 -140 36 -161 95l66 43c20 -36 63 -53 104 -53c47 0 93 21 122 53l52 -46c-44 -61 -110 -92 -183 -92z" />
    <glyph glyph-name="Edotaccent" unicode="&#x116;" horiz-adv-x="631" 
d="M579 415l-21 -100h-345l-46 -216h389l-22 -99h-511l148 700h507l-21 -100h-384l-39 -185h345zM498 875l-24 -115h-116l24 115h116z" />
    <glyph glyph-name="Eogonek" unicode="&#x118;" horiz-adv-x="631" 
d="M579 415l-21 -100h-345l-46 -216h389l-22 -99h-511l148 700h507l-21 -100h-384l-39 -185h345zM486 0h48c-61 -47 -80 -78 -80 -106c0 -25 16 -38 36 -38c18 0 33 10 45 31l38 -14c-13 -35 -43 -67 -96 -67c-63 0 -86 40 -86 77c0 40 35 86 95 117z" />
    <glyph glyph-name="Gcircumflex" unicode="&#x11c;" horiz-adv-x="754" 
d="M59 298c0 216 136 415 376 415c161 0 282 -82 294 -240h-120c-17 95 -79 143 -178 143c-173 0 -246 -168 -246 -322c0 -140 74 -210 189 -210c124 0 194 78 219 186h-184l22 98h287l-78 -368h-87l13 74h-2c-51 -60 -130 -87 -217 -87c-156 0 -288 99 -288 311zM467 815
l-69 -69h-104l119 129h121l71 -129h-98z" />
    <glyph glyph-name="Gbreve" unicode="&#x11e;" horiz-adv-x="754" 
d="M59 298c0 216 136 415 376 415c161 0 282 -82 294 -240h-120c-17 95 -79 143 -178 143c-173 0 -246 -168 -246 -322c0 -140 74 -210 189 -210c124 0 194 78 219 186h-184l22 98h287l-78 -368h-87l13 74h-2c-51 -60 -130 -87 -217 -87c-156 0 -288 99 -288 311zM469 744
c-73 0 -140 36 -161 95l66 43c20 -36 63 -53 104 -53c47 0 93 21 122 53l52 -46c-44 -61 -110 -92 -183 -92z" />
    <glyph glyph-name="uni0122" unicode="&#x122;" horiz-adv-x="754" 
d="M59 298c0 216 136 415 376 415c161 0 282 -82 294 -240h-120c-17 95 -79 143 -178 143c-173 0 -246 -168 -246 -322c0 -140 74 -210 189 -210c124 0 194 78 219 186h-184l22 98h287l-78 -368h-87l13 74h-2c-51 -60 -130 -87 -217 -87c-156 0 -288 99 -288 311zM323 -46
h95l-19 -90c-13 -65 -51 -99 -118 -111l9 46c27 5 51 21 58 57l1 5h-45z" />
    <glyph glyph-name="Gdotaccent" unicode="&#x120;" horiz-adv-x="754" 
d="M59 298c0 216 136 415 376 415c161 0 282 -82 294 -240h-120c-17 95 -79 143 -178 143c-173 0 -246 -168 -246 -322c0 -140 74 -210 189 -210c124 0 194 78 219 186h-184l22 98h287l-78 -368h-87l13 74h-2c-51 -60 -130 -87 -217 -87c-156 0 -288 99 -288 311zM534 875
l-24 -115h-116l24 115h116z" />
    <glyph glyph-name="Hcircumflex" unicode="&#x124;" horiz-adv-x="721" 
d="M739 700l-149 -700h-124l67 318h-318l-68 -318h-124l148 700h125l-60 -281h319l59 281h125zM475 815l-69 -69h-104l119 129h121l71 -129h-98z" />
    <glyph glyph-name="Hbar" unicode="&#x126;" horiz-adv-x="721" 
d="M739 700l-149 -700h-124l67 318h-318l-68 -318h-124l148 700h125l-18 -82h319l17 82h125zM236 419h319l25 122h-318z" />
    <glyph glyph-name="Igrave" unicode="&#xcc;" horiz-adv-x="278" 
d="M296 700l-149 -700h-124l148 700h125zM194 746l-110 129h149l56 -129h-95z" />
    <glyph glyph-name="Iacute" unicode="&#xcd;" horiz-adv-x="278" 
d="M296 700l-149 -700h-124l148 700h125zM286 746h-97l80 129h150z" />
    <glyph glyph-name="Icircumflex" unicode="&#xce;" horiz-adv-x="278" 
d="M296 700l-149 -700h-124l148 700h125zM257 815l-69 -69h-104l119 129h121l71 -129h-98z" />
    <glyph glyph-name="Itilde" unicode="&#x128;" horiz-adv-x="278" 
d="M296 700l-149 -700h-124l148 700h125zM352 870h69c-9 -67 -46 -110 -106 -110c-25 0 -46 7 -69 14l-16 5c-17 5 -31 9 -48 9c-24 0 -40 -12 -45 -29h-69c9 67 46 109 106 109c25 0 48 -7 69 -14l16 -5c17 -5 31 -9 48 -9c24 0 40 13 45 30z" />
    <glyph glyph-name="Idieresis" unicode="&#xcf;" horiz-adv-x="278" 
d="M296 700l-149 -700h-124l148 700h125zM227 875l-24 -115h-114l24 115h114zM425 875l-24 -115h-114l24 115h114z" />
    <glyph glyph-name="Imacron" unicode="&#x12a;" horiz-adv-x="278" 
d="M296 700l-149 -700h-124l148 700h125zM393 764h-304l17 80h304z" />
    <glyph glyph-name="Ibreve" unicode="&#x12c;" horiz-adv-x="278" 
d="M296 700l-149 -700h-124l148 700h125zM246 744c-73 0 -140 36 -161 95l66 43c20 -36 63 -53 104 -53c47 0 93 21 122 53l52 -46c-44 -61 -110 -92 -183 -92z" />
    <glyph glyph-name="Idot" unicode="&#x130;" horiz-adv-x="278" 
d="M296 700l-149 -700h-124l148 700h125zM326 875l-24 -115h-116l24 115h116z" />
    <glyph glyph-name="Iogonek" unicode="&#x12e;" horiz-adv-x="278" 
d="M296 700l-149 -700h-124l148 700h125zM73 0h48c-61 -47 -80 -78 -80 -106c0 -25 16 -38 36 -38c18 0 33 10 45 31l38 -14c-13 -35 -43 -67 -96 -67c-63 0 -86 40 -86 77c0 40 35 86 95 117z" />
    <glyph glyph-name="IJ" unicode="&#x132;" horiz-adv-x="761" 
d="M296 700l-149 -700h-124l148 700h125zM246 240h112c-5 -21 -9 -51 -9 -70c0 -55 24 -87 88 -87c87 0 106 64 118 125l104 492h125l-105 -493c-28 -137 -87 -222 -244 -222c-134 0 -201 55 -201 165c0 27 4 62 12 90z" />
    <glyph glyph-name="Jcircumflex" unicode="&#x134;" horiz-adv-x="532" 
d="M17 240h112c-5 -21 -9 -51 -9 -70c0 -55 24 -87 88 -87c87 0 106 64 118 125l104 492h125l-105 -493c-28 -137 -87 -222 -244 -222c-134 0 -201 55 -201 165c0 27 4 62 12 90zM511 815l-69 -69h-104l119 129h121l71 -129h-98z" />
    <glyph glyph-name="uni0136" unicode="&#x136;" horiz-adv-x="661" 
d="M23 0l148 700h124l-36 -170c-9 -43 -21 -88 -33 -143h1l358 313h161l-339 -295l213 -405h-142l-169 326l-114 -97l-49 -229h-123zM271 -46h95l-19 -90c-13 -65 -51 -99 -118 -111l9 46c27 5 51 21 58 57l1 5h-45z" />
    <glyph glyph-name="Lacute" unicode="&#x139;" horiz-adv-x="571" 
d="M296 700l-128 -601h356l-22 -99h-479l148 700h125zM286 746h-97l80 129h150z" />
    <glyph glyph-name="Lcaron" unicode="&#x13d;" horiz-adv-x="572" 
d="M296 700l-128 -601h356l-22 -99h-479l148 700h125zM388 700h125l-96 -169h-97z" />
    <glyph glyph-name="Lslash" unicode="&#x141;" horiz-adv-x="586" 
d="M310 700l-61 -288l162 67l-20 -94l-162 -68l-46 -218h356l-22 -99h-479l56 267l-76 -30l20 95l76 30l72 338h124z" />
    <glyph glyph-name="Ldot" unicode="&#x13f;" horiz-adv-x="572" 
d="M296 700l-128 -601h356l-22 -99h-479l148 700h125zM494 429l-25 -115h-116l25 115h116z" />
    <glyph glyph-name="Ldot.latn_CAT" horiz-adv-x="572" 
d="M296 700l-128 -601h356l-22 -99h-479l148 700h125zM494 429l-25 -115h-116l25 115h116z" />
    <glyph glyph-name="uni013B" unicode="&#x13b;" horiz-adv-x="571" 
d="M296 700l-128 -601h356l-22 -99h-479l148 700h125zM234 -46h95l-19 -90c-13 -65 -51 -99 -118 -111l9 46c27 5 51 21 58 57l1 5h-45z" />
    <glyph glyph-name="Nacute" unicode="&#x143;" horiz-adv-x="728" 
d="M301 700l145 -349c24 -57 51 -130 67 -177h2c11 52 22 123 37 195l70 331h124l-149 -700h-132l-137 333c-24 59 -54 135 -75 191h-2c-8 -47 -19 -120 -34 -184l-72 -340h-122l148 700h130zM484 746h-97l80 129h150z" />
    <glyph glyph-name="uni0145" unicode="&#x145;" horiz-adv-x="728" 
d="M301 700l145 -349c24 -57 51 -130 67 -177h2c11 52 22 123 37 195l70 331h124l-149 -700h-132l-137 333c-24 59 -54 135 -75 191h-2c-8 -47 -19 -120 -34 -184l-72 -340h-122l148 700h130zM279 -46h95l-19 -90c-13 -65 -51 -99 -118 -111l9 46c27 5 51 21 58 57l1 5h-45z
" />
    <glyph glyph-name="Ncaron" unicode="&#x147;" horiz-adv-x="728" 
d="M301 700l145 -349c24 -57 51 -130 67 -177h2c11 52 22 123 37 195l70 331h124l-149 -700h-132l-137 333c-24 59 -54 135 -75 191h-2c-8 -47 -19 -120 -34 -184l-72 -340h-122l148 700h130zM417 875l40 -70l69 70h104l-119 -129h-121l-71 129h98z" />
    <glyph glyph-name="Ntilde" unicode="&#xd1;" horiz-adv-x="728" 
d="M301 700l145 -349c24 -57 51 -130 67 -177h2c11 52 22 123 37 195l70 331h124l-149 -700h-132l-137 333c-24 59 -54 135 -75 191h-2c-8 -47 -19 -120 -34 -184l-72 -340h-122l148 700h130zM583 870h69c-9 -67 -46 -110 -106 -110c-25 0 -46 7 -69 14l-16 5
c-17 5 -31 9 -48 9c-24 0 -40 -12 -45 -29h-69c9 67 46 109 106 109c25 0 48 -7 69 -14l16 -5c17 -5 31 -9 48 -9c24 0 40 13 45 30z" />
    <glyph glyph-name="Eng" unicode="&#x14a;" horiz-adv-x="728" 
d="M301 700l145 -349c24 -57 51 -130 67 -177h2c11 52 22 123 37 195l70 331h124l-153 -720c-28 -139 -80 -155 -198 -155c-13 0 -26 1 -38 1l20 88c7 -1 11 -1 16 -1c52 0 78 14 89 87h-17l-137 333c-24 59 -54 135 -75 191h-2c-8 -47 -19 -120 -34 -184l-72 -340h-122
l148 700h130z" />
    <glyph glyph-name="Ograve" unicode="&#xd2;" horiz-adv-x="745" 
d="M358 -14c-183 0 -299 117 -299 304c0 229 141 423 367 423c182 0 300 -111 300 -304c0 -225 -137 -423 -368 -423zM601 415c0 131 -68 202 -177 202c-163 0 -240 -172 -240 -332c0 -131 70 -200 177 -200c160 0 240 175 240 330zM396 746l-110 129h149l56 -129h-95z" />
    <glyph glyph-name="Oacute" unicode="&#xd3;" horiz-adv-x="745" 
d="M358 -14c-183 0 -299 117 -299 304c0 229 141 423 367 423c182 0 300 -111 300 -304c0 -225 -137 -423 -368 -423zM601 415c0 131 -68 202 -177 202c-163 0 -240 -172 -240 -332c0 -131 70 -200 177 -200c160 0 240 175 240 330zM488 746h-97l80 129h150z" />
    <glyph glyph-name="Ocircumflex" unicode="&#xd4;" horiz-adv-x="745" 
d="M358 -14c-183 0 -299 117 -299 304c0 229 141 423 367 423c182 0 300 -111 300 -304c0 -225 -137 -423 -368 -423zM601 415c0 131 -68 202 -177 202c-163 0 -240 -172 -240 -332c0 -131 70 -200 177 -200c160 0 240 175 240 330zM462 815l-69 -69h-104l119 129h121
l71 -129h-98z" />
    <glyph glyph-name="Otilde" unicode="&#xd5;" horiz-adv-x="745" 
d="M358 -14c-183 0 -299 117 -299 304c0 229 141 423 367 423c182 0 300 -111 300 -304c0 -225 -137 -423 -368 -423zM601 415c0 131 -68 202 -177 202c-163 0 -240 -172 -240 -332c0 -131 70 -200 177 -200c160 0 240 175 240 330zM578 870h69c-9 -67 -46 -110 -106 -110
c-25 0 -46 7 -69 14l-16 5c-17 5 -31 9 -48 9c-24 0 -40 -12 -45 -29h-69c9 67 46 109 106 109c25 0 48 -7 69 -14l16 -5c17 -5 31 -9 48 -9c24 0 40 13 45 30z" />
    <glyph glyph-name="Odieresis" unicode="&#xd6;" horiz-adv-x="745" 
d="M358 -14c-183 0 -299 117 -299 304c0 229 141 423 367 423c182 0 300 -111 300 -304c0 -225 -137 -423 -368 -423zM601 415c0 131 -68 202 -177 202c-163 0 -240 -172 -240 -332c0 -131 70 -200 177 -200c160 0 240 175 240 330zM437 875l-24 -115h-114l24 115h114z
M635 875l-24 -115h-114l24 115h114z" />
    <glyph glyph-name="Omacron" unicode="&#x14c;" horiz-adv-x="745" 
d="M358 -14c-183 0 -299 117 -299 304c0 229 141 423 367 423c182 0 300 -111 300 -304c0 -225 -137 -423 -368 -423zM601 415c0 131 -68 202 -177 202c-163 0 -240 -172 -240 -332c0 -131 70 -200 177 -200c160 0 240 175 240 330zM605 764h-304l17 80h304z" />
    <glyph glyph-name="Obreve" unicode="&#x14e;" horiz-adv-x="745" 
d="M358 -14c-183 0 -299 117 -299 304c0 229 141 423 367 423c182 0 300 -111 300 -304c0 -225 -137 -423 -368 -423zM601 415c0 131 -68 202 -177 202c-163 0 -240 -172 -240 -332c0 -131 70 -200 177 -200c160 0 240 175 240 330zM465 744c-73 0 -140 36 -161 95l66 43
c20 -36 63 -53 104 -53c47 0 93 21 122 53l52 -46c-44 -61 -110 -92 -183 -92z" />
    <glyph glyph-name="Ohungarumlaut" unicode="&#x150;" horiz-adv-x="745" 
d="M358 -14c-183 0 -299 117 -299 304c0 229 141 423 367 423c182 0 300 -111 300 -304c0 -225 -137 -423 -368 -423zM601 415c0 131 -68 202 -177 202c-163 0 -240 -172 -240 -332c0 -131 70 -200 177 -200c160 0 240 175 240 330zM573 746h-92l91 129h145zM398 746h-93
l80 129h145z" />
    <glyph glyph-name="Oslash" unicode="&#xd8;" horiz-adv-x="745" 
d="M358 -14c-83 0 -151 23 -204 69l-53 -55l-48 48l57 57c-33 49 -51 112 -51 185c0 229 140 423 372 423c83 0 151 -24 203 -72l56 58l48 -47l-61 -62c33 -49 49 -109 49 -181c0 -225 -137 -423 -368 -423zM184 285c0 -33 5 -63 14 -89l359 367c-31 36 -75 54 -133 54
c-163 0 -240 -172 -240 -332zM601 415c0 33 -4 61 -13 85l-356 -367c31 -33 76 -48 129 -48c160 0 240 175 240 330z" />
    <glyph glyph-name="Oslashacute" unicode="&#x1fe;" horiz-adv-x="745" 
d="M358 -14c-83 0 -151 23 -204 69l-53 -55l-48 48l57 57c-33 49 -51 112 -51 185c0 229 140 423 372 423c83 0 151 -24 203 -72l56 58l48 -47l-61 -62c33 -49 49 -109 49 -181c0 -225 -137 -423 -368 -423zM184 285c0 -33 5 -63 14 -89l359 367c-31 36 -75 54 -133 54
c-163 0 -240 -172 -240 -332zM601 415c0 33 -4 61 -13 85l-356 -367c31 -33 76 -48 129 -48c160 0 240 175 240 330zM480 746h-97l80 129h150z" />
    <glyph glyph-name="OE" unicode="&#x152;" horiz-adv-x="1039" 
d="M1087 700l-21 -100h-349l-40 -185h308l-21 -100h-308l-46 -216h355l-21 -99h-460l6 29c-41 -25 -94 -37 -157 -37c-158 0 -274 113 -274 299c0 226 141 420 372 420c72 0 130 -20 175 -59l10 48h471zM499 150l79 373c-25 63 -83 93 -154 93c-161 0 -239 -173 -239 -330
c0 -129 66 -202 173 -202c63 0 109 26 141 66z" />
    <glyph glyph-name="Thorn" unicode="&#xde;" horiz-adv-x="646" 
d="M23 0l148 700h123l-23 -107h131c84 0 140 -15 181 -52c35 -31 55 -76 55 -143c0 -72 -27 -129 -71 -170c-48 -44 -114 -68 -197 -68h-191l-33 -160h-123zM250 494l-50 -235h175c89 0 144 45 144 136c0 79 -60 99 -124 99h-145z" />
    <glyph glyph-name="Racute" unicode="&#x154;" horiz-adv-x="667" 
d="M24 0l147 700h286c71 0 121 -11 158 -38c37 -25 58 -67 58 -130c0 -125 -81 -185 -175 -201v-2c57 -14 85 -51 85 -112c0 -43 -18 -118 -18 -164c0 -19 3 -35 8 -50c0 -1 -1 -2 -1 -3h-125c-3 11 -3 18 -3 31c0 40 16 115 16 167c0 68 -44 85 -117 85h-136l-61 -283h-122
zM273 601l-47 -224h171c93 0 152 41 152 128c0 79 -55 96 -122 96h-154zM446 746h-97l80 129h150z" />
    <glyph glyph-name="Rcaron" unicode="&#x158;" horiz-adv-x="667" 
d="M24 0l147 700h286c71 0 121 -11 158 -38c37 -25 58 -67 58 -130c0 -125 -81 -185 -175 -201v-2c57 -14 85 -51 85 -112c0 -43 -18 -118 -18 -164c0 -19 3 -35 8 -50c0 -1 -1 -2 -1 -3h-125c-3 11 -3 18 -3 31c0 40 16 115 16 167c0 68 -44 85 -117 85h-136l-61 -283h-122
zM273 601l-47 -224h171c93 0 152 41 152 128c0 79 -55 96 -122 96h-154zM386 875l40 -70l69 70h104l-119 -129h-121l-71 129h98z" />
    <glyph glyph-name="uni0156" unicode="&#x156;" horiz-adv-x="667" 
d="M24 0l147 700h286c71 0 121 -11 158 -38c37 -25 58 -67 58 -130c0 -125 -81 -185 -175 -201v-2c57 -14 85 -51 85 -112c0 -43 -18 -118 -18 -164c0 -19 3 -35 8 -50c0 -1 -1 -2 -1 -3h-125c-3 11 -3 18 -3 31c0 40 16 115 16 167c0 68 -44 85 -117 85h-136l-61 -283h-122
zM273 601l-47 -224h171c93 0 152 41 152 128c0 79 -55 96 -122 96h-154zM248 -46h95l-19 -90c-13 -65 -51 -99 -118 -111l9 46c27 5 51 21 58 57l1 5h-45z" />
    <glyph glyph-name="Sacute" unicode="&#x15a;" horiz-adv-x="628" 
d="M623 499h-123c-3 76 -51 117 -138 117s-134 -36 -134 -97c0 -56 36 -76 104 -99l63 -21c104 -34 190 -67 190 -188c0 -120 -87 -224 -283 -224c-173 0 -271 71 -279 231h128c1 -89 65 -134 158 -134c87 0 148 36 148 111c0 53 -40 76 -107 96l-69 21
c-88 28 -180 66 -180 189c0 149 125 212 266 212c139 0 256 -62 256 -214zM426 746h-97l80 129h150z" />
    <glyph glyph-name="Scircumflex" unicode="&#x15c;" horiz-adv-x="628" 
d="M623 499h-123c-3 76 -51 117 -138 117s-134 -36 -134 -97c0 -56 36 -76 104 -99l63 -21c104 -34 190 -67 190 -188c0 -120 -87 -224 -283 -224c-173 0 -271 71 -279 231h128c1 -89 65 -134 158 -134c87 0 148 36 148 111c0 53 -40 76 -107 96l-69 21
c-88 28 -180 66 -180 189c0 149 125 212 266 212c139 0 256 -62 256 -214zM403 815l-69 -69h-104l119 129h121l71 -129h-98z" />
    <glyph glyph-name="Scaron" unicode="&#x160;" horiz-adv-x="628" 
d="M623 499h-123c-3 76 -51 117 -138 117s-134 -36 -134 -97c0 -56 36 -76 104 -99l63 -21c104 -34 190 -67 190 -188c0 -120 -87 -224 -283 -224c-173 0 -271 71 -279 231h128c1 -89 65 -134 158 -134c87 0 148 36 148 111c0 53 -40 76 -107 96l-69 21
c-88 28 -180 66 -180 189c0 149 125 212 266 212c139 0 256 -62 256 -214zM352 875l40 -70l69 70h104l-119 -129h-121l-71 129h98z" />
    <glyph glyph-name="Scedilla" unicode="&#x15e;" horiz-adv-x="628" 
d="M623 499h-123c-3 76 -51 117 -138 117s-134 -36 -134 -97c0 -56 36 -76 104 -99l63 -21c104 -34 190 -67 190 -188c0 -120 -87 -224 -283 -224c-173 0 -271 71 -279 231h128c1 -89 65 -134 158 -134c87 0 148 36 148 111c0 53 -40 76 -107 96l-69 21
c-88 28 -180 66 -180 189c0 149 125 212 266 212c139 0 256 -62 256 -214zM264 8l43 -8l-42 -45l1 -1c8 1 17 2 26 2c34 0 78 -16 78 -66c0 -59 -54 -81 -106 -81c-32 0 -68 8 -91 21l16 38c16 -9 38 -18 66 -18s48 13 48 38c0 23 -20 34 -45 34c-11 0 -22 -3 -34 -8l-20 20
z" />
    <glyph glyph-name="uni0218" unicode="&#x218;" horiz-adv-x="628" 
d="M623 499h-123c-3 76 -51 117 -138 117s-134 -36 -134 -97c0 -56 36 -76 104 -99l63 -21c104 -34 190 -67 190 -188c0 -120 -87 -224 -283 -224c-173 0 -271 71 -279 231h128c1 -89 65 -134 158 -134c87 0 148 36 148 111c0 53 -40 76 -107 96l-69 21
c-88 28 -180 66 -180 189c0 149 125 212 266 212c139 0 256 -62 256 -214zM241 -46h95l-19 -90c-13 -65 -51 -99 -118 -111l9 46c27 5 51 21 58 57l1 5h-45z" />
    <glyph glyph-name="Tcaron" unicode="&#x164;" horiz-adv-x="593" 
d="M652 600h-219l-128 -600h-124l127 600h-221l21 100h565zM362 875l40 -70l69 70h104l-119 -129h-121l-71 129h98z" />
    <glyph glyph-name="Tcommaaccent" unicode="&#x162;" horiz-adv-x="593" 
d="M652 600h-219l-128 -600h-124l127 600h-221l21 100h565zM224 8l43 -8l-42 -45l1 -1c8 1 17 2 26 2c34 0 78 -16 78 -66c0 -59 -54 -81 -106 -81c-32 0 -68 8 -91 21l16 38c16 -9 38 -18 66 -18s48 13 48 38c0 23 -20 34 -45 34c-11 0 -22 -3 -34 -8l-20 20z" />
    <glyph glyph-name="Tbar" unicode="&#x166;" horiz-adv-x="612" 
d="M107 322l16 78h150l43 200h-220l21 100h565l-21 -100h-220l-43 -200h149l-16 -78h-149l-69 -322h-125l69 322h-150z" />
    <glyph glyph-name="uni021A" unicode="&#x21a;" horiz-adv-x="593" 
d="M652 600h-219l-128 -600h-124l127 600h-221l21 100h565zM189 -46h95l-19 -90c-13 -65 -51 -99 -118 -111l9 46c27 5 51 21 58 57l1 5h-45z" />
    <glyph glyph-name="Ugrave" unicode="&#xd9;" horiz-adv-x="691" 
d="M73 271l91 429h125l-92 -432c-7 -31 -10 -56 -10 -74c0 -65 37 -110 132 -110c119 0 154 61 176 168l95 448h125l-94 -441c-17 -85 -41 -149 -80 -192c-49 -56 -120 -80 -229 -80c-173 0 -250 72 -250 193c0 25 3 54 11 91zM407 746l-110 129h149l56 -129h-95z" />
    <glyph glyph-name="Uacute" unicode="&#xda;" horiz-adv-x="691" 
d="M73 271l91 429h125l-92 -432c-7 -31 -10 -56 -10 -74c0 -65 37 -110 132 -110c119 0 154 61 176 168l95 448h125l-94 -441c-17 -85 -41 -149 -80 -192c-49 -56 -120 -80 -229 -80c-173 0 -250 72 -250 193c0 25 3 54 11 91zM470 746h-97l80 129h150z" />
    <glyph glyph-name="Ucircumflex" unicode="&#xdb;" horiz-adv-x="691" 
d="M73 271l91 429h125l-92 -432c-7 -31 -10 -56 -10 -74c0 -65 37 -110 132 -110c119 0 154 61 176 168l95 448h125l-94 -441c-17 -85 -41 -149 -80 -192c-49 -56 -120 -80 -229 -80c-173 0 -250 72 -250 193c0 25 3 54 11 91zM455 815l-69 -69h-104l119 129h121l71 -129
h-98z" />
    <glyph glyph-name="Utilde" unicode="&#x168;" horiz-adv-x="691" 
d="M73 271l91 429h125l-92 -432c-7 -31 -10 -56 -10 -74c0 -65 37 -110 132 -110c119 0 154 61 176 168l95 448h125l-94 -441c-17 -85 -41 -149 -80 -192c-49 -56 -120 -80 -229 -80c-173 0 -250 72 -250 193c0 25 3 54 11 91zM561 870h69c-9 -67 -46 -110 -106 -110
c-25 0 -46 7 -69 14l-16 5c-17 5 -31 9 -48 9c-24 0 -40 -12 -45 -29h-69c9 67 46 109 106 109c25 0 48 -7 69 -14l16 -5c17 -5 31 -9 48 -9c24 0 40 13 45 30z" />
    <glyph glyph-name="Udieresis" unicode="&#xdc;" horiz-adv-x="691" 
d="M73 271l91 429h125l-92 -432c-7 -31 -10 -56 -10 -74c0 -65 37 -110 132 -110c119 0 154 61 176 168l95 448h125l-94 -441c-17 -85 -41 -149 -80 -192c-49 -56 -120 -80 -229 -80c-173 0 -250 72 -250 193c0 25 3 54 11 91zM428 875l-24 -115h-114l24 115h114zM626 875
l-24 -115h-114l24 115h114z" />
    <glyph glyph-name="Umacron" unicode="&#x16a;" horiz-adv-x="691" 
d="M73 271l91 429h125l-92 -432c-7 -31 -10 -56 -10 -74c0 -65 37 -110 132 -110c119 0 154 61 176 168l95 448h125l-94 -441c-17 -85 -41 -149 -80 -192c-49 -56 -120 -80 -229 -80c-173 0 -250 72 -250 193c0 25 3 54 11 91zM597 764h-304l17 80h304z" />
    <glyph glyph-name="Ubreve" unicode="&#x16c;" horiz-adv-x="691" 
d="M73 271l91 429h125l-92 -432c-7 -31 -10 -56 -10 -74c0 -65 37 -110 132 -110c119 0 154 61 176 168l95 448h125l-94 -441c-17 -85 -41 -149 -80 -192c-49 -56 -120 -80 -229 -80c-173 0 -250 72 -250 193c0 25 3 54 11 91zM442 744c-73 0 -140 36 -161 95l66 43
c20 -36 63 -53 104 -53c47 0 93 21 122 53l52 -46c-44 -61 -110 -92 -183 -92z" />
    <glyph glyph-name="Uring" unicode="&#x16e;" horiz-adv-x="691" 
d="M73 271l91 429h125l-92 -432c-7 -31 -10 -56 -10 -74c0 -65 37 -110 132 -110c119 0 154 61 176 168l95 448h125l-94 -441c-17 -85 -41 -149 -80 -192c-49 -56 -120 -80 -229 -80c-173 0 -250 72 -250 193c0 25 3 54 11 91zM441 898c47 0 83 -36 83 -83s-36 -84 -83 -84
c-45 0 -84 37 -84 84s39 83 84 83zM441 853c-21 0 -38 -17 -38 -38s17 -39 38 -39c23 0 39 18 39 39s-16 38 -39 38z" />
    <glyph glyph-name="Uhungarumlaut" unicode="&#x170;" horiz-adv-x="691" 
d="M73 271l91 429h125l-92 -432c-7 -31 -10 -56 -10 -74c0 -65 37 -110 132 -110c119 0 154 61 176 168l95 448h125l-94 -441c-17 -85 -41 -149 -80 -192c-49 -56 -120 -80 -229 -80c-173 0 -250 72 -250 193c0 25 3 54 11 91zM554 746h-92l91 129h145zM379 746h-93l80 129
h145z" />
    <glyph glyph-name="Uogonek" unicode="&#x172;" horiz-adv-x="691" 
d="M73 271l91 429h125l-92 -432c-7 -31 -10 -56 -10 -74c0 -65 37 -110 132 -110c119 0 154 61 176 168l95 448h125l-94 -441c-17 -85 -41 -149 -80 -192c-49 -56 -120 -80 -229 -80c-173 0 -250 72 -250 193c0 25 3 54 11 91zM288 0h48c-61 -47 -80 -78 -80 -106
c0 -25 16 -38 36 -38c18 0 33 10 45 31l38 -14c-13 -35 -43 -67 -96 -67c-63 0 -86 40 -86 77c0 40 35 86 95 117z" />
    <glyph glyph-name="Wacute" unicode="&#x1e82;" horiz-adv-x="917" 
d="M152 0l-50 700h125l19 -371c2 -39 5 -121 5 -172h3c19 48 48 129 66 172l160 371h137l8 -372c1 -49 3 -92 2 -171h3c23 57 47 114 72 171l168 372h132l-343 -700h-131l-8 351c-1 61 -3 123 -2 196h-3c-17 -49 -48 -127 -79 -198l-153 -349h-131zM596 746h-97l80 129h150z
" />
    <glyph glyph-name="Wcircumflex" unicode="&#x174;" horiz-adv-x="917" 
d="M152 0l-50 700h125l19 -371c2 -39 5 -121 5 -172h3c19 48 48 129 66 172l160 371h137l8 -372c1 -49 3 -92 2 -171h3c23 57 47 114 72 171l168 372h132l-343 -700h-131l-8 351c-1 61 -3 123 -2 196h-3c-17 -49 -48 -127 -79 -198l-153 -349h-131zM566 815l-69 -69h-104
l119 129h121l71 -129h-98z" />
    <glyph glyph-name="Wdieresis" unicode="&#x1e84;" horiz-adv-x="917" 
d="M152 0l-50 700h125l19 -371c2 -39 5 -121 5 -172h3c19 48 48 129 66 172l160 371h137l8 -372c1 -49 3 -92 2 -171h3c23 57 47 114 72 171l168 372h132l-343 -700h-131l-8 351c-1 61 -3 123 -2 196h-3c-17 -49 -48 -127 -79 -198l-153 -349h-131zM541 875l-24 -115h-114
l24 115h114zM739 875l-24 -115h-114l24 115h114z" />
    <glyph glyph-name="Wgrave" unicode="&#x1e80;" horiz-adv-x="917" 
d="M152 0l-50 700h125l19 -371c2 -39 5 -121 5 -172h3c19 48 48 129 66 172l160 371h137l8 -372c1 -49 3 -92 2 -171h3c23 57 47 114 72 171l168 372h132l-343 -700h-131l-8 351c-1 61 -3 123 -2 196h-3c-17 -49 -48 -127 -79 -198l-153 -349h-131zM508 746l-110 129h149
l56 -129h-95z" />
    <glyph glyph-name="Ygrave" unicode="&#x1ef2;" horiz-adv-x="610" 
d="M188 0c19 91 38 181 58 270l-144 430h125l101 -321l235 321h139l-333 -430l-57 -270h-124zM348 746l-110 129h149l56 -129h-95z" />
    <glyph glyph-name="Yacute" unicode="&#xdd;" horiz-adv-x="610" 
d="M188 0c19 91 38 181 58 270l-144 430h125l101 -321l235 321h139l-333 -430l-57 -270h-124zM426 746h-97l80 129h150z" />
    <glyph glyph-name="Ycircumflex" unicode="&#x176;" horiz-adv-x="610" 
d="M188 0c19 91 38 181 58 270l-144 430h125l101 -321l235 321h139l-333 -430l-57 -270h-124zM401 815l-69 -69h-104l119 129h121l71 -129h-98z" />
    <glyph glyph-name="Ydieresis" unicode="&#x178;" horiz-adv-x="610" 
d="M188 0c19 91 38 181 58 270l-144 430h125l101 -321l235 321h139l-333 -430l-57 -270h-124zM382 875l-24 -115h-114l24 115h114zM580 875l-24 -115h-114l24 115h114z" />
    <glyph glyph-name="Zacute" unicode="&#x179;" horiz-adv-x="624" 
d="M117 600l21 100h539l-21 -99l-367 -364c-70 -68 -93 -91 -140 -138c44 2 129 1 178 1h237l-21 -100h-567l21 95l377 376c47 47 93 89 132 130c-32 -1 -78 -1 -107 -1h-282zM436 746h-97l80 129h150z" />
    <glyph glyph-name="Zcaron" unicode="&#x17d;" horiz-adv-x="624" 
d="M117 600l21 100h539l-21 -99l-367 -364c-70 -68 -93 -91 -140 -138c44 2 129 1 178 1h237l-21 -100h-567l21 95l377 376c47 47 93 89 132 130c-32 -1 -78 -1 -107 -1h-282zM363 875l40 -70l69 70h104l-119 -129h-121l-71 129h98z" />
    <glyph glyph-name="Zdotaccent" unicode="&#x17b;" horiz-adv-x="624" 
d="M117 600l21 100h539l-21 -99l-367 -364c-70 -68 -93 -91 -140 -138c44 2 129 1 178 1h237l-21 -100h-567l21 95l377 376c47 47 93 89 132 130c-32 -1 -78 -1 -107 -1h-282zM478 875l-24 -115h-116l24 115h116z" />
    <glyph glyph-name="uni018F" unicode="&#x18f;" horiz-adv-x="740" 
d="M64 382l536 1c1 9 1 19 1 28c0 131 -77 202 -185 202c-101 0 -157 -45 -194 -120h-133c55 131 164 220 329 220c181 0 303 -118 303 -305c0 -226 -137 -422 -368 -422c-180 0 -296 117 -296 304c0 31 2 63 7 92zM356 81c123 0 206 93 232 213h-411v-12
c0 -131 70 -201 179 -201z" />
    <glyph glyph-name="agrave" unicode="&#xe0;" horiz-adv-x="559" 
d="M355 51h-2c-24 -32 -83 -64 -162 -64c-64 0 -113 21 -142 57c-20 25 -30 55 -30 89c0 67 36 110 91 135c59 28 131 37 200 48l32 5c47 7 60 21 60 57c0 39 -28 65 -95 65c-64 0 -104 -26 -119 -91l-110 2c23 120 106 175 242 175c125 0 196 -49 196 -146
c0 -48 -13 -106 -26 -167l-28 -133c-3 -16 -7 -33 -7 -50c0 -9 1 -21 4 -30l-1 -3h-110zM370 189l15 72c-20 -15 -48 -19 -79 -26l-31 -6c-44 -9 -76 -18 -99 -30c-23 -13 -34 -32 -34 -58c0 -44 32 -66 85 -66s123 18 143 114zM290 571l-110 129h149l56 -129h-95z" />
    <glyph glyph-name="aacute" unicode="&#xe1;" horiz-adv-x="559" 
d="M355 51h-2c-24 -32 -83 -64 -162 -64c-64 0 -113 21 -142 57c-20 25 -30 55 -30 89c0 67 36 110 91 135c59 28 131 37 200 48l32 5c47 7 60 21 60 57c0 39 -28 65 -95 65c-64 0 -104 -26 -119 -91l-110 2c23 120 106 175 242 175c125 0 196 -49 196 -146
c0 -48 -13 -106 -26 -167l-28 -133c-3 -16 -7 -33 -7 -50c0 -9 1 -21 4 -30l-1 -3h-110zM370 189l15 72c-20 -15 -48 -19 -79 -26l-31 -6c-44 -9 -76 -18 -99 -30c-23 -13 -34 -32 -34 -58c0 -44 32 -66 85 -66s123 18 143 114zM373 571h-97l80 129h149z" />
    <glyph glyph-name="acircumflex" unicode="&#xe2;" horiz-adv-x="559" 
d="M355 51h-2c-24 -32 -83 -64 -162 -64c-64 0 -113 21 -142 57c-20 25 -30 55 -30 89c0 67 36 110 91 135c59 28 131 37 200 48l32 5c47 7 60 21 60 57c0 39 -28 65 -95 65c-64 0 -104 -26 -119 -91l-110 2c23 120 106 175 242 175c125 0 196 -49 196 -146
c0 -48 -13 -106 -26 -167l-28 -133c-3 -16 -7 -33 -7 -50c0 -9 1 -21 4 -30l-1 -3h-110zM370 189l15 72c-20 -15 -48 -19 -79 -26l-31 -6c-44 -9 -76 -18 -99 -30c-23 -13 -34 -32 -34 -58c0 -44 32 -66 85 -66s123 18 143 114zM345 640l-69 -69h-104l119 129h121l72 -129
h-99z" />
    <glyph glyph-name="atilde" unicode="&#xe3;" horiz-adv-x="559" 
d="M355 51h-2c-24 -32 -83 -64 -162 -64c-64 0 -113 21 -142 57c-20 25 -30 55 -30 89c0 67 36 110 91 135c59 28 131 37 200 48l32 5c47 7 60 21 60 57c0 39 -28 65 -95 65c-64 0 -104 -26 -119 -91l-110 2c23 120 106 175 242 175c125 0 196 -49 196 -146
c0 -48 -13 -106 -26 -167l-28 -133c-3 -16 -7 -33 -7 -50c0 -9 1 -21 4 -30l-1 -3h-110zM370 189l15 72c-20 -15 -48 -19 -79 -26l-31 -6c-44 -9 -76 -18 -99 -30c-23 -13 -34 -32 -34 -58c0 -44 32 -66 85 -66s123 18 143 114zM448 700h69c-9 -67 -46 -110 -106 -110
c-25 0 -46 7 -69 14l-16 5c-17 5 -31 9 -48 9c-24 0 -40 -12 -45 -29h-69c9 67 46 109 106 109c25 0 48 -7 69 -14l16 -5c17 -5 31 -9 48 -9c24 0 40 13 45 30z" />
    <glyph glyph-name="adieresis" unicode="&#xe4;" horiz-adv-x="559" 
d="M355 51h-2c-24 -32 -83 -64 -162 -64c-64 0 -113 21 -142 57c-20 25 -30 55 -30 89c0 67 36 110 91 135c59 28 131 37 200 48l32 5c47 7 60 21 60 57c0 39 -28 65 -95 65c-64 0 -104 -26 -119 -91l-110 2c23 120 106 175 242 175c125 0 196 -49 196 -146
c0 -48 -13 -106 -26 -167l-28 -133c-3 -16 -7 -33 -7 -50c0 -9 1 -21 4 -30l-1 -3h-110zM370 189l15 72c-20 -15 -48 -19 -79 -26l-31 -6c-44 -9 -76 -18 -99 -30c-23 -13 -34 -32 -34 -58c0 -44 32 -66 85 -66s123 18 143 114zM313 700l-24 -115h-114l24 115h114zM512 700
l-24 -115h-115l24 115h115z" />
    <glyph glyph-name="amacron" unicode="&#x101;" horiz-adv-x="559" 
d="M355 51h-2c-24 -32 -83 -64 -162 -64c-64 0 -113 21 -142 57c-20 25 -30 55 -30 89c0 67 36 110 91 135c59 28 131 37 200 48l32 5c47 7 60 21 60 57c0 39 -28 65 -95 65c-64 0 -104 -26 -119 -91l-110 2c23 120 106 175 242 175c125 0 196 -49 196 -146
c0 -48 -13 -106 -26 -167l-28 -133c-3 -16 -7 -33 -7 -50c0 -9 1 -21 4 -30l-1 -3h-110zM370 189l15 72c-20 -15 -48 -19 -79 -26l-31 -6c-44 -9 -76 -18 -99 -30c-23 -13 -34 -32 -34 -58c0 -44 32 -66 85 -66s123 18 143 114zM482 595h-303l16 80h304z" />
    <glyph glyph-name="abreve" unicode="&#x103;" horiz-adv-x="559" 
d="M355 51h-2c-24 -32 -83 -64 -162 -64c-64 0 -113 21 -142 57c-20 25 -30 55 -30 89c0 67 36 110 91 135c59 28 131 37 200 48l32 5c47 7 60 21 60 57c0 39 -28 65 -95 65c-64 0 -104 -26 -119 -91l-110 2c23 120 106 175 242 175c125 0 196 -49 196 -146
c0 -48 -13 -106 -26 -167l-28 -133c-3 -16 -7 -33 -7 -50c0 -9 1 -21 4 -30l-1 -3h-110zM370 189l15 72c-20 -15 -48 -19 -79 -26l-31 -6c-44 -9 -76 -18 -99 -30c-23 -13 -34 -32 -34 -58c0 -44 32 -66 85 -66s123 18 143 114zM343 570c-72 0 -140 38 -161 95l64 43
c21 -36 65 -53 106 -53c48 0 93 22 122 53l52 -45c-44 -63 -110 -93 -183 -93z" />
    <glyph glyph-name="aring" unicode="&#xe5;" horiz-adv-x="559" 
d="M355 51h-2c-24 -32 -83 -64 -162 -64c-64 0 -113 21 -142 57c-20 25 -30 55 -30 89c0 67 36 110 91 135c59 28 131 37 200 48l32 5c47 7 60 21 60 57c0 39 -28 65 -95 65c-64 0 -104 -26 -119 -91l-110 2c23 120 106 175 242 175c125 0 196 -49 196 -146
c0 -48 -13 -106 -26 -167l-28 -133c-3 -16 -7 -33 -7 -50c0 -9 1 -21 4 -30l-1 -3h-110zM370 189l15 72c-20 -15 -48 -19 -79 -26l-31 -6c-44 -9 -76 -18 -99 -30c-23 -13 -34 -32 -34 -58c0 -44 32 -66 85 -66s123 18 143 114zM328 723c47 0 83 -36 83 -83s-36 -84 -83 -84
s-84 37 -84 84s37 83 84 83zM328 678c-21 0 -39 -17 -39 -38s18 -39 39 -39s39 18 39 39s-18 38 -39 38z" />
    <glyph glyph-name="aringacute" unicode="&#x1fb;" horiz-adv-x="559" 
d="M355 51h-2c-24 -32 -83 -64 -162 -64c-64 0 -113 21 -142 57c-20 25 -30 55 -30 89c0 67 36 110 91 135c59 28 131 37 200 48l32 5c47 7 60 21 60 57c0 39 -28 65 -95 65c-64 0 -104 -26 -119 -91l-110 2c23 120 106 175 242 175c125 0 196 -49 196 -146
c0 -48 -13 -106 -26 -167l-28 -133c-3 -16 -7 -33 -7 -50c0 -9 1 -21 4 -30l-1 -3h-110zM370 189l15 72c-20 -15 -48 -19 -79 -26l-31 -6c-44 -9 -76 -18 -99 -30c-23 -13 -34 -32 -34 -58c0 -44 32 -66 85 -66s123 18 143 114zM345 723c47 0 83 -36 83 -83s-36 -84 -83 -84
s-84 37 -84 84s37 83 84 83zM345 678c-21 0 -39 -17 -39 -38s18 -39 39 -39s39 18 39 39s-18 38 -39 38zM407 752h-97l80 129h149z" />
    <glyph glyph-name="aogonek" unicode="&#x105;" horiz-adv-x="559" 
d="M355 51h-2c-24 -32 -83 -64 -162 -64c-64 0 -113 21 -142 57c-20 25 -30 55 -30 89c0 67 36 110 91 135c59 28 131 37 200 48l32 5c47 7 60 21 60 57c0 39 -28 65 -95 65c-64 0 -104 -26 -119 -91l-110 2c23 120 106 175 242 175c125 0 196 -49 196 -146
c0 -48 -13 -106 -26 -167l-28 -133c-3 -16 -7 -33 -7 -50c0 -9 1 -21 4 -30l-1 -3h-110zM370 189l15 72c-20 -15 -48 -19 -79 -26l-31 -6c-44 -9 -76 -18 -99 -30c-23 -13 -34 -32 -34 -58c0 -44 32 -66 85 -66s123 18 143 114zM411 0h48c-61 -47 -80 -78 -80 -106
c0 -25 16 -38 36 -38c18 0 33 10 45 31l38 -14c-13 -35 -43 -67 -96 -67c-63 0 -86 40 -86 77c0 40 35 86 95 117z" />
    <glyph glyph-name="ae" unicode="&#xe6;" horiz-adv-x="896" 
d="M857 226h-382v-13c0 -84 43 -134 119 -134c59 0 97 31 121 74h124c-40 -99 -126 -167 -250 -167c-81 0 -142 27 -181 81h-5c-37 -37 -103 -80 -210 -80c-69 0 -115 21 -144 57c-20 25 -30 55 -30 89c0 67 36 110 91 135c56 28 127 37 196 48l30 5c47 7 60 21 60 57
c0 39 -29 65 -93 65s-102 -26 -117 -91l-108 2c23 120 104 175 236 175c73 0 126 -19 159 -58c44 36 100 60 165 60c163 0 223 -108 223 -252c0 -17 -1 -34 -4 -53zM488 309h258c-1 80 -38 133 -114 133c-80 0 -128 -57 -144 -133zM364 189l15 72c-20 -15 -48 -19 -77 -26
l-31 -6c-44 -9 -74 -18 -97 -30c-23 -13 -34 -32 -34 -58c0 -44 32 -66 83 -66c53 0 121 18 141 114z" />
    <glyph glyph-name="aeacute" unicode="&#x1fd;" horiz-adv-x="896" 
d="M857 226h-382v-13c0 -84 43 -134 119 -134c59 0 97 31 121 74h124c-40 -99 -126 -167 -250 -167c-81 0 -142 27 -181 81h-5c-37 -37 -103 -80 -210 -80c-69 0 -115 21 -144 57c-20 25 -30 55 -30 89c0 67 36 110 91 135c56 28 127 37 196 48l30 5c47 7 60 21 60 57
c0 39 -29 65 -93 65s-102 -26 -117 -91l-108 2c23 120 104 175 236 175c73 0 126 -19 159 -58c44 36 100 60 165 60c163 0 223 -108 223 -252c0 -17 -1 -34 -4 -53zM488 309h258c-1 80 -38 133 -114 133c-80 0 -128 -57 -144 -133zM364 189l15 72c-20 -15 -48 -19 -77 -26
l-31 -6c-44 -9 -74 -18 -97 -30c-23 -13 -34 -32 -34 -58c0 -44 32 -66 83 -66c53 0 121 18 141 114zM522 571h-97l80 129h149z" />
    <glyph glyph-name="cacute" unicode="&#x107;" horiz-adv-x="555" 
d="M535 342h-113c-9 63 -50 94 -110 94c-107 0 -157 -117 -157 -222c0 -85 42 -133 114 -133c63 0 107 37 130 96h118c-33 -111 -123 -190 -254 -190c-136 0 -227 82 -227 230c0 169 102 313 280 313c123 0 212 -67 219 -188zM375 571h-97l80 129h149z" />
    <glyph glyph-name="ccircumflex" unicode="&#x109;" horiz-adv-x="555" 
d="M535 342h-113c-9 63 -50 94 -110 94c-107 0 -157 -117 -157 -222c0 -85 42 -133 114 -133c63 0 107 37 130 96h118c-33 -111 -123 -190 -254 -190c-136 0 -227 82 -227 230c0 169 102 313 280 313c123 0 212 -67 219 -188zM350 640l-69 -69h-104l119 129h121l72 -129h-99
z" />
    <glyph glyph-name="ccaron" unicode="&#x10d;" horiz-adv-x="555" 
d="M535 342h-113c-9 63 -50 94 -110 94c-107 0 -157 -117 -157 -222c0 -85 42 -133 114 -133c63 0 107 37 130 96h118c-33 -111 -123 -190 -254 -190c-136 0 -227 82 -227 230c0 169 102 313 280 313c123 0 212 -67 219 -188zM297 700l40 -70l69 70h104l-119 -129h-121
l-71 129h98z" />
    <glyph glyph-name="cdotaccent" unicode="&#x10b;" horiz-adv-x="555" 
d="M535 342h-113c-9 63 -50 94 -110 94c-107 0 -157 -117 -157 -222c0 -85 42 -133 114 -133c63 0 107 37 130 96h118c-33 -111 -123 -190 -254 -190c-136 0 -227 82 -227 230c0 169 102 313 280 313c123 0 212 -67 219 -188zM418 700l-25 -115h-116l25 115h116z" />
    <glyph glyph-name="ccedilla" unicode="&#xe7;" horiz-adv-x="555" 
d="M535 342h-113c-9 63 -50 94 -110 94c-107 0 -157 -117 -157 -222c0 -85 42 -133 114 -133c63 0 107 37 130 96h118c-33 -111 -123 -190 -254 -190c-136 0 -227 82 -227 230c0 169 102 313 280 313c123 0 212 -67 219 -188zM232 8l43 -8l-42 -45l1 -1c8 1 17 2 26 2
c34 0 78 -16 78 -66c0 -59 -54 -81 -106 -81c-32 0 -68 8 -91 21l16 38c16 -9 38 -18 66 -18s48 13 48 38c0 23 -20 34 -45 34c-11 0 -22 -3 -34 -8l-20 20z" />
    <glyph glyph-name="dslash" unicode="&#x111;" horiz-adv-x="609" 
d="M485 0h-111l15 65h-2c-31 -40 -86 -78 -161 -78c-117 0 -192 91 -192 218c0 181 122 326 276 326c83 0 137 -37 158 -76c9 49 19 92 26 128h-119l17 77h118l9 40h116l-9 -40h51l-17 -77h-50zM153 211c0 -81 38 -132 111 -132c120 0 169 127 169 229
c0 81 -39 132 -112 132c-120 0 -168 -127 -168 -229z" />
    <glyph glyph-name="dcaron" unicode="&#x10f;" horiz-adv-x="621" 
d="M485 0h-111l15 65h-2c-31 -40 -86 -78 -161 -78c-117 0 -192 91 -192 218c0 181 122 326 276 326c83 0 136 -37 157 -76c9 49 19 92 26 125l25 120h117zM153 211c0 -81 38 -132 111 -132c120 0 169 127 169 229c0 81 -39 132 -112 132c-120 0 -168 -127 -168 -229z
M717 700h125l-96 -169h-97z" />
    <glyph glyph-name="eth" unicode="&#xf0;" horiz-adv-x="590" 
d="M197 599l104 54c-23 15 -47 25 -70 34l90 52c21 -9 47 -23 70 -39l92 47l28 -49l-70 -37c67 -60 120 -155 120 -298c0 -160 -60 -378 -300 -378c-127 0 -226 82 -226 231c0 164 104 311 281 311c47 0 97 -12 132 -48l4 1c-16 55 -51 99 -98 136l-130 -68zM318 437
c-111 0 -164 -120 -164 -224c0 -85 45 -134 118 -134c112 0 164 122 164 225c0 88 -47 133 -118 133z" />
    <glyph glyph-name="egrave" unicode="&#xe8;" horiz-adv-x="579" 
d="M540 228h-389c-1 -5 -1 -10 -1 -15c0 -84 47 -134 122 -134c60 0 103 30 127 75h124c-39 -100 -132 -168 -255 -168c-140 0 -233 89 -233 231c0 173 109 314 281 314c158 0 228 -107 228 -246c0 -20 -1 -38 -4 -57zM163 311h267c-3 80 -42 131 -119 131
c-81 0 -133 -55 -148 -131zM284 571l-110 129h149l56 -129h-95z" />
    <glyph glyph-name="eacute" unicode="&#xe9;" horiz-adv-x="579" 
d="M540 228h-389c-1 -5 -1 -10 -1 -15c0 -84 47 -134 122 -134c60 0 103 30 127 75h124c-39 -100 -132 -168 -255 -168c-140 0 -233 89 -233 231c0 173 109 314 281 314c158 0 228 -107 228 -246c0 -20 -1 -38 -4 -57zM163 311h267c-3 80 -42 131 -119 131
c-81 0 -133 -55 -148 -131zM366 571h-97l80 129h149z" />
    <glyph glyph-name="ecircumflex" unicode="&#xea;" horiz-adv-x="579" 
d="M540 228h-389c-1 -5 -1 -10 -1 -15c0 -84 47 -134 122 -134c60 0 103 30 127 75h124c-39 -100 -132 -168 -255 -168c-140 0 -233 89 -233 231c0 173 109 314 281 314c158 0 228 -107 228 -246c0 -20 -1 -38 -4 -57zM163 311h267c-3 80 -42 131 -119 131
c-81 0 -133 -55 -148 -131zM343 640l-69 -69h-104l119 129h121l72 -129h-99z" />
    <glyph glyph-name="ecaron" unicode="&#x11b;" horiz-adv-x="579" 
d="M540 228h-389c-1 -5 -1 -10 -1 -15c0 -84 47 -134 122 -134c60 0 103 30 127 75h124c-39 -100 -132 -168 -255 -168c-140 0 -233 89 -233 231c0 173 109 314 281 314c158 0 228 -107 228 -246c0 -20 -1 -38 -4 -57zM163 311h267c-3 80 -42 131 -119 131
c-81 0 -133 -55 -148 -131zM295 700l40 -70l69 70h104l-119 -129h-121l-71 129h98z" />
    <glyph glyph-name="edieresis" unicode="&#xeb;" horiz-adv-x="579" 
d="M540 228h-389c-1 -5 -1 -10 -1 -15c0 -84 47 -134 122 -134c60 0 103 30 127 75h124c-39 -100 -132 -168 -255 -168c-140 0 -233 89 -233 231c0 173 109 314 281 314c158 0 228 -107 228 -246c0 -20 -1 -38 -4 -57zM163 311h267c-3 80 -42 131 -119 131
c-81 0 -133 -55 -148 -131zM314 700l-24 -115h-114l24 115h114zM513 700l-24 -115h-115l24 115h115z" />
    <glyph glyph-name="emacron" unicode="&#x113;" horiz-adv-x="579" 
d="M540 228h-389c-1 -5 -1 -10 -1 -15c0 -84 47 -134 122 -134c60 0 103 30 127 75h124c-39 -100 -132 -168 -255 -168c-140 0 -233 89 -233 231c0 173 109 314 281 314c158 0 228 -107 228 -246c0 -20 -1 -38 -4 -57zM163 311h267c-3 80 -42 131 -119 131
c-81 0 -133 -55 -148 -131zM484 595h-303l16 80h304z" />
    <glyph glyph-name="ebreve" unicode="&#x115;" horiz-adv-x="579" 
d="M540 228h-389c-1 -5 -1 -10 -1 -15c0 -84 47 -134 122 -134c60 0 103 30 127 75h124c-39 -100 -132 -168 -255 -168c-140 0 -233 89 -233 231c0 173 109 314 281 314c158 0 228 -107 228 -246c0 -20 -1 -38 -4 -57zM163 311h267c-3 80 -42 131 -119 131
c-81 0 -133 -55 -148 -131zM332 570c-72 0 -140 38 -161 95l64 43c21 -36 65 -53 106 -53c48 0 93 22 122 53l52 -45c-44 -63 -110 -93 -183 -93z" />
    <glyph glyph-name="edotaccent" unicode="&#x117;" horiz-adv-x="579" 
d="M540 228h-389c-1 -5 -1 -10 -1 -15c0 -84 47 -134 122 -134c60 0 103 30 127 75h124c-39 -100 -132 -168 -255 -168c-140 0 -233 89 -233 231c0 173 109 314 281 314c158 0 228 -107 228 -246c0 -20 -1 -38 -4 -57zM163 311h267c-3 80 -42 131 -119 131
c-81 0 -133 -55 -148 -131zM413 700l-25 -115h-116l25 115h116z" />
    <glyph glyph-name="eogonek" unicode="&#x119;" horiz-adv-x="579" 
d="M540 228h-389c-1 -5 -1 -10 -1 -15c0 -84 47 -134 122 -134c60 0 103 30 127 75h124c-39 -100 -132 -168 -255 -168c-140 0 -233 89 -233 231c0 173 109 314 281 314c158 0 228 -107 228 -246c0 -20 -1 -38 -4 -57zM163 311h267c-3 80 -42 131 -119 131
c-81 0 -133 -55 -148 -131zM306 0h48c-61 -47 -80 -78 -80 -106c0 -25 16 -38 36 -38c18 0 33 10 45 31l38 -14c-13 -35 -43 -67 -96 -67c-63 0 -86 40 -86 77c0 40 35 86 95 117z" />
    <glyph glyph-name="gcircumflex" unicode="&#x11d;" horiz-adv-x="603" 
d="M5 -16h119c3 -49 41 -73 106 -73c88 0 127 47 144 132l3 15c4 21 7 31 10 40h-3c-27 -35 -75 -66 -151 -66c-103 0 -192 74 -192 210c0 161 105 288 261 288c80 0 137 -38 156 -73h2l13 58h115l-102 -485c-31 -145 -114 -208 -265 -208c-136 0 -216 54 -216 162zM314 444
c-101 0 -156 -95 -156 -198c0 -83 45 -129 117 -129c103 0 156 96 156 198c0 83 -45 129 -117 129zM359 640l-69 -69h-104l119 129h121l72 -129h-99z" />
    <glyph glyph-name="gbreve" unicode="&#x11f;" horiz-adv-x="603" 
d="M5 -16h119c3 -49 41 -73 106 -73c88 0 127 47 144 132l3 15c4 21 7 31 10 40h-3c-27 -35 -75 -66 -151 -66c-103 0 -192 74 -192 210c0 161 105 288 261 288c80 0 137 -38 156 -73h2l13 58h115l-102 -485c-31 -145 -114 -208 -265 -208c-136 0 -216 54 -216 162zM314 444
c-101 0 -156 -95 -156 -198c0 -83 45 -129 117 -129c103 0 156 96 156 198c0 83 -45 129 -117 129zM349 570c-72 0 -140 38 -161 95l64 43c21 -36 65 -53 106 -53c48 0 93 22 122 53l52 -45c-44 -63 -110 -93 -183 -93z" />
    <glyph glyph-name="gdotaccent" unicode="&#x121;" horiz-adv-x="603" 
d="M5 -16h119c3 -49 41 -73 106 -73c88 0 127 47 144 132l3 15c4 21 7 31 10 40h-3c-27 -35 -75 -66 -151 -66c-103 0 -192 74 -192 210c0 161 105 288 261 288c80 0 137 -38 156 -73h2l13 58h115l-102 -485c-31 -145 -114 -208 -265 -208c-136 0 -216 54 -216 162zM314 444
c-101 0 -156 -95 -156 -198c0 -83 45 -129 117 -129c103 0 156 96 156 198c0 83 -45 129 -117 129zM423 700l-25 -115h-116l25 115h116z" />
    <glyph glyph-name="uni0123" unicode="&#x123;" horiz-adv-x="603" 
d="M5 -16h119c3 -49 41 -73 106 -73c88 0 127 47 144 132l3 15c4 21 7 31 10 40h-3c-27 -35 -75 -66 -151 -66c-103 0 -192 74 -192 210c0 161 105 288 261 288c80 0 137 -38 156 -73h2l13 58h115l-102 -485c-31 -145 -114 -208 -265 -208c-136 0 -216 54 -216 162zM314 444
c-101 0 -156 -95 -156 -198c0 -83 45 -129 117 -129c103 0 156 96 156 198c0 83 -45 129 -117 129zM379 552h-95l19 90c15 67 53 99 118 111l-9 -46c-25 -5 -51 -21 -58 -57l-1 -5h45z" />
    <glyph glyph-name="hcircumflex" unicode="&#x125;" horiz-adv-x="588" 
d="M281 700l-29 -132l-27 -115h2c27 41 81 77 158 77c104 0 159 -60 159 -148c0 -25 -3 -54 -10 -82l-64 -300h-115l59 283c5 24 9 46 9 67c0 51 -31 83 -88 83c-43 0 -75 -17 -98 -44c-21 -25 -39 -69 -46 -104l-61 -285h-114l147 700h118zM404 815l-69 -69h-104l119 129
h121l71 -129h-98z" />
    <glyph glyph-name="hbar" unicode="&#x127;" horiz-adv-x="588" 
d="M88 584l17 76h49l9 40h117l-9 -40h118l-17 -76h-118l-30 -131h2c27 41 82 77 159 77c104 0 159 -60 159 -148c0 -25 -3 -54 -10 -82l-64 -300h-115l59 283c5 24 9 46 9 67c0 51 -31 83 -88 83c-43 0 -75 -17 -98 -44c-21 -25 -39 -69 -46 -104l-61 -285h-114l122 584h-50
z" />
    <glyph glyph-name="dotlessi" unicode="&#x131;" horiz-adv-x="255" 
d="M16 0l108 515h117l-110 -515h-115z" />
    <glyph glyph-name="i.latn_TRK" horiz-adv-x="255" 
d="M16 0l108 515h117l-110 -515h-115zM279 700l-25 -115h-116l25 115h116z" />
    <glyph glyph-name="igrave" unicode="&#xec;" horiz-adv-x="255" 
d="M145 571l-110 129h149l56 -129h-95zM16 0l108 515h117l-110 -515h-115z" />
    <glyph glyph-name="iacute" unicode="&#xed;" horiz-adv-x="255" 
d="M242 571h-97l80 129h149zM16 0l108 515h117l-110 -515h-115z" />
    <glyph glyph-name="icircumflex" unicode="&#xee;" horiz-adv-x="255" 
d="M16 0l108 515h117l-110 -515h-115zM206 640l-69 -69h-104l119 129h121l72 -129h-99z" />
    <glyph glyph-name="itilde" unicode="&#x129;" horiz-adv-x="255" 
d="M302 700h69c-9 -67 -46 -110 -106 -110c-25 0 -46 7 -69 14l-16 5c-17 5 -31 9 -48 9c-24 0 -40 -12 -45 -29h-69c9 67 46 109 106 109c25 0 48 -7 69 -14l16 -5c17 -5 31 -9 48 -9c24 0 40 13 45 30zM16 0l108 515h117l-110 -515h-115z" />
    <glyph glyph-name="idieresis" unicode="&#xef;" horiz-adv-x="255" 
d="M178 700l-24 -115h-114l24 115h114zM377 700l-24 -115h-115l24 115h115zM16 0l108 515h117l-110 -515h-115z" />
    <glyph glyph-name="imacron" unicode="&#x12b;" horiz-adv-x="255" 
d="M343 595h-303l16 80h304zM16 0l108 515h117l-110 -515h-115z" />
    <glyph glyph-name="ibreve" unicode="&#x12d;" horiz-adv-x="255" 
d="M194 570c-72 0 -140 38 -161 95l64 43c21 -36 65 -53 106 -53c48 0 93 22 122 53l52 -45c-44 -63 -110 -93 -183 -93zM16 0l108 515h117l-110 -515h-115z" />
    <glyph glyph-name="iogonek" unicode="&#x12f;" horiz-adv-x="255" 
d="M138 588l24 112h120l-25 -112h-119zM16 0l108 515h117l-110 -515h-115zM60 0h48c-61 -47 -80 -78 -80 -106c0 -25 16 -38 36 -38c18 0 33 10 45 31l38 -14c-13 -35 -43 -67 -96 -67c-63 0 -86 40 -86 77c0 40 35 86 95 117z" />
    <glyph glyph-name="uni0237" unicode="&#x237;" horiz-adv-x="255" 
d="M-73 -87c62 0 74 19 88 86l109 516h117l-115 -535c-28 -134 -80 -155 -197 -155c-13 0 -26 1 -38 1l20 88c7 -1 11 -1 16 -1z" />
    <glyph glyph-name="ij" unicode="&#x133;" horiz-adv-x="492" 
d="M138 588l24 112h120l-25 -112h-119zM16 0l108 515h117l-110 -515h-115zM375 588l24 112h120l-25 -112h-119zM164 -87c62 0 74 19 88 86l109 516h117l-115 -535c-28 -134 -80 -155 -197 -155c-13 0 -26 1 -38 1l20 88c7 -1 11 -1 16 -1z" />
    <glyph glyph-name="jcircumflex" unicode="&#x135;" horiz-adv-x="255" 
d="M-73 -87c62 0 74 19 88 86l109 516h117l-115 -535c-28 -134 -80 -155 -197 -155c-13 0 -26 1 -38 1l20 88c7 -1 11 -1 16 -1zM208 640l-69 -69h-104l119 129h121l72 -129h-99z" />
    <glyph glyph-name="uni0137" unicode="&#x137;" horiz-adv-x="538" 
d="M163 700h117l-58 -267c-9 -41 -17 -81 -28 -129h2c37 33 71 65 98 88l146 123h147l-244 -199l149 -316h-132l-108 243l-84 -68l-38 -175h-114zM193 -46h95l-19 -90c-13 -65 -51 -99 -118 -111l9 46c27 5 51 21 58 57l1 5h-45z" />
    <glyph glyph-name="kgreenlandic" unicode="&#x138;" horiz-adv-x="538" 
d="M124 515h116l-18 -83l-29 -129h2c37 33 72 66 99 89l146 123h147l-244 -199l149 -316h-132l-108 243l-84 -68l-38 -175h-114z" />
    <glyph glyph-name="lacute" unicode="&#x13a;" horiz-adv-x="255" 
d="M163 700h118l-150 -700h-115zM276 746h-97l80 129h150z" />
    <glyph glyph-name="lcaron" unicode="&#x13e;" horiz-adv-x="267" 
d="M163 700h118l-150 -700h-115zM363 700h125l-96 -169h-97z" />
    <glyph glyph-name="ldot" unicode="&#x140;" horiz-adv-x="368" 
d="M163 700h118l-150 -700h-115zM407 430l-25 -115h-116l25 115h116z" />
    <glyph glyph-name="ldot.latn_CAT" horiz-adv-x="368" 
d="M163 700h118l-150 -700h-115zM407 430l-25 -115h-116l25 115h116z" />
    <glyph glyph-name="lslash" unicode="&#x142;" horiz-adv-x="325" 
d="M49 0l62 296l-78 -32l20 94l78 32l66 310h119l-56 -262l79 32l-20 -94l-79 -32l-73 -344h-118z" />
    <glyph glyph-name="uni013C" unicode="&#x13c;" horiz-adv-x="255" 
d="M163 700h118l-150 -700h-115zM21 -46h95l-19 -90c-13 -65 -51 -99 -118 -111l9 46c27 5 51 21 58 57l1 5h-45z" />
    <glyph glyph-name="uni0146" unicode="&#x146;" horiz-adv-x="588" 
d="M16 0l108 515h113l-7 -31c-1 -9 -4 -21 -8 -34h2c29 43 84 80 161 80c104 0 159 -60 159 -148c0 -25 -3 -54 -10 -82l-64 -300h-115l59 283c5 24 9 46 9 67c0 51 -31 83 -88 83c-43 0 -75 -17 -98 -44c-21 -25 -39 -69 -46 -104l-61 -285h-114zM198 -46h95l-19 -90
c-13 -65 -51 -99 -118 -111l9 46c27 5 51 21 58 57l1 5h-45z" />
    <glyph glyph-name="nacute" unicode="&#x144;" horiz-adv-x="588" 
d="M16 0l108 515h113l-7 -31c-1 -9 -4 -21 -8 -34h2c29 43 84 80 161 80c104 0 159 -60 159 -148c0 -25 -3 -54 -10 -82l-64 -300h-115l59 283c5 24 9 46 9 67c0 51 -31 83 -88 83c-43 0 -75 -17 -98 -44c-21 -25 -39 -69 -46 -104l-61 -285h-114zM387 571h-97l80 129h149z
" />
    <glyph glyph-name="ncaron" unicode="&#x148;" horiz-adv-x="588" 
d="M16 0l108 515h113l-7 -31c-1 -9 -4 -21 -8 -34h2c29 43 84 80 161 80c104 0 159 -60 159 -148c0 -25 -3 -54 -10 -82l-64 -300h-115l59 283c5 24 9 46 9 67c0 51 -31 83 -88 83c-43 0 -75 -17 -98 -44c-21 -25 -39 -69 -46 -104l-61 -285h-114zM322 700l40 -70l69 70h104
l-119 -129h-121l-71 129h98z" />
    <glyph glyph-name="ntilde" unicode="&#xf1;" horiz-adv-x="588" 
d="M16 0l108 515h113l-7 -31c-1 -9 -4 -21 -8 -34h2c29 43 84 80 161 80c104 0 159 -60 159 -148c0 -25 -3 -54 -10 -82l-64 -300h-115l59 283c5 24 9 46 9 67c0 51 -31 83 -88 83c-43 0 -75 -17 -98 -44c-21 -25 -39 -69 -46 -104l-61 -285h-114zM479 700h69
c-9 -67 -46 -110 -106 -110c-25 0 -46 7 -69 14l-16 5c-17 5 -31 9 -48 9c-24 0 -40 -12 -45 -29h-69c9 67 46 109 106 109c25 0 48 -7 69 -14l16 -5c17 -5 31 -9 48 -9c24 0 40 13 45 30z" />
    <glyph glyph-name="napostrophe" unicode="&#x149;" horiz-adv-x="612" 
d="M40 0l108 515h113l-7 -31c-1 -9 -4 -21 -8 -34h2c29 43 84 80 161 80c104 0 159 -60 159 -148c0 -25 -3 -54 -10 -82l-64 -300h-115l59 283c5 24 9 46 9 67c0 51 -31 83 -88 83c-43 0 -75 -17 -98 -44c-21 -25 -39 -69 -46 -104l-61 -285h-114zM100 700h95l-19 -90
c-13 -65 -51 -99 -118 -111l9 46c27 5 51 21 58 57l1 5h-45z" />
    <glyph glyph-name="eng" unicode="&#x14b;" horiz-adv-x="588" 
d="M355 0l59 283c5 24 9 46 9 67c0 51 -31 83 -88 83c-43 0 -75 -17 -98 -44c-21 -25 -39 -69 -46 -104l-61 -285h-114l108 515h113l-7 -31c-1 -9 -4 -21 -8 -34h2c29 43 84 80 161 80c104 0 159 -60 159 -148c0 -25 -3 -54 -10 -82l-68 -320c-28 -138 -79 -155 -195 -155
c-13 0 -26 1 -38 1l20 88c4 -1 9 -1 14 -1c63 0 74 21 88 87z" />
    <glyph glyph-name="ograve" unicode="&#xf2;" horiz-adv-x="586" 
d="M320 531c140 0 233 -87 233 -226c0 -170 -101 -319 -285 -319c-138 0 -233 85 -233 226c0 171 102 319 285 319zM272 79c112 0 163 121 163 226c0 87 -45 133 -118 133c-113 0 -163 -120 -163 -225c0 -87 45 -134 118 -134zM294 571l-110 129h149l56 -129h-95z" />
    <glyph glyph-name="oacute" unicode="&#xf3;" horiz-adv-x="586" 
d="M320 531c140 0 233 -87 233 -226c0 -170 -101 -319 -285 -319c-138 0 -233 85 -233 226c0 171 102 319 285 319zM272 79c112 0 163 121 163 226c0 87 -45 133 -118 133c-113 0 -163 -120 -163 -225c0 -87 45 -134 118 -134zM394 571h-97l80 129h149z" />
    <glyph glyph-name="ocircumflex" unicode="&#xf4;" horiz-adv-x="586" 
d="M320 531c140 0 233 -87 233 -226c0 -170 -101 -319 -285 -319c-138 0 -233 85 -233 226c0 171 102 319 285 319zM272 79c112 0 163 121 163 226c0 87 -45 133 -118 133c-113 0 -163 -120 -163 -225c0 -87 45 -134 118 -134zM349 640l-69 -69h-104l119 129h121l72 -129
h-99z" />
    <glyph glyph-name="otilde" unicode="&#xf5;" horiz-adv-x="586" 
d="M320 531c140 0 233 -87 233 -226c0 -170 -101 -319 -285 -319c-138 0 -233 85 -233 226c0 171 102 319 285 319zM272 79c112 0 163 121 163 226c0 87 -45 133 -118 133c-113 0 -163 -120 -163 -225c0 -87 45 -134 118 -134zM458 700h69c-9 -67 -46 -110 -106 -110
c-25 0 -46 7 -69 14l-16 5c-17 5 -31 9 -48 9c-24 0 -40 -12 -45 -29h-69c9 67 46 109 106 109c25 0 48 -7 69 -14l16 -5c17 -5 31 -9 48 -9c24 0 40 13 45 30z" />
    <glyph glyph-name="odieresis" unicode="&#xf6;" horiz-adv-x="586" 
d="M320 531c140 0 233 -87 233 -226c0 -170 -101 -319 -285 -319c-138 0 -233 85 -233 226c0 171 102 319 285 319zM272 79c112 0 163 121 163 226c0 87 -45 133 -118 133c-113 0 -163 -120 -163 -225c0 -87 45 -134 118 -134zM319 700l-24 -115h-114l24 115h114zM518 700
l-24 -115h-115l24 115h115z" />
    <glyph glyph-name="omacron" unicode="&#x14d;" horiz-adv-x="586" 
d="M320 531c140 0 233 -87 233 -226c0 -170 -101 -319 -285 -319c-138 0 -233 85 -233 226c0 171 102 319 285 319zM272 79c112 0 163 121 163 226c0 87 -45 133 -118 133c-113 0 -163 -120 -163 -225c0 -87 45 -134 118 -134zM497 595h-303l16 80h304z" />
    <glyph glyph-name="obreve" unicode="&#x14f;" horiz-adv-x="586" 
d="M320 531c140 0 233 -87 233 -226c0 -170 -101 -319 -285 -319c-138 0 -233 85 -233 226c0 171 102 319 285 319zM272 79c112 0 163 121 163 226c0 87 -45 133 -118 133c-113 0 -163 -120 -163 -225c0 -87 45 -134 118 -134zM353 570c-72 0 -140 38 -161 95l64 43
c21 -36 65 -53 106 -53c48 0 93 22 122 53l52 -45c-44 -63 -110 -93 -183 -93z" />
    <glyph glyph-name="ohungarumlaut" unicode="&#x151;" horiz-adv-x="586" 
d="M320 531c140 0 233 -87 233 -226c0 -170 -101 -319 -285 -319c-138 0 -233 85 -233 226c0 171 102 319 285 319zM272 79c112 0 163 121 163 226c0 87 -45 133 -118 133c-113 0 -163 -120 -163 -225c0 -87 45 -134 118 -134zM461 571h-93l91 129h145zM285 571h-91l79 129
h145z" />
    <glyph glyph-name="oe" unicode="&#x153;" horiz-adv-x="942" 
d="M903 226h-382v-13c0 -84 43 -134 119 -134c59 0 97 31 121 74h124c-40 -99 -126 -167 -250 -167c-80 0 -141 30 -180 82c-47 -49 -110 -82 -193 -82c-139 0 -226 86 -226 226c0 171 100 319 282 319c79 0 141 -31 178 -82c37 40 96 82 189 82c161 0 222 -108 222 -252
c0 -17 -1 -34 -4 -53zM534 309h258c-1 80 -38 133 -114 133c-80 0 -128 -57 -144 -133zM268 79c111 0 159 121 159 226c0 87 -41 133 -114 133c-112 0 -158 -120 -158 -225c0 -87 40 -134 113 -134z" />
    <glyph glyph-name="oslash" unicode="&#xf8;" horiz-adv-x="586" 
d="M322 531c62 0 113 -16 154 -49l58 62l48 -47l-62 -65c22 -34 33 -76 33 -127c0 -170 -103 -319 -287 -319c-55 0 -102 14 -141 38l-54 -57l-48 46l54 57c-28 39 -42 86 -42 142c0 171 104 319 287 319zM154 213c0 -21 3 -40 8 -56l240 250c-22 21 -50 31 -85 31
c-112 0 -163 -120 -163 -225zM272 79c109 0 162 117 162 231c0 11 -1 23 -2 32c-77 -80 -155 -163 -234 -243c19 -13 44 -20 74 -20z" />
    <glyph glyph-name="oslashacute" unicode="&#x1ff;" horiz-adv-x="586" 
d="M358 571h-97l80 129h149zM322 531c62 0 113 -16 154 -49l58 62l48 -47l-62 -65c22 -34 33 -76 33 -127c0 -170 -103 -319 -287 -319c-55 0 -102 14 -141 38l-54 -57l-48 46l54 57c-28 39 -42 86 -42 142c0 171 104 319 287 319zM154 213c0 -21 3 -40 8 -56l240 250
c-22 21 -50 31 -85 31c-112 0 -163 -120 -163 -225zM272 79c109 0 162 117 162 231c0 11 -1 23 -2 32c-77 -80 -155 -163 -234 -243c19 -13 44 -20 74 -20z" />
    <glyph glyph-name="thorn" unicode="&#xfe;" horiz-adv-x="608" 
d="M164 700h115l-28 -130c-10 -53 -15 -71 -27 -116h1c31 39 84 74 159 74c112 0 191 -81 191 -218c0 -181 -117 -325 -281 -325c-77 0 -132 35 -152 74c-8 -39 -13 -66 -21 -102l-28 -129h-114zM177 210c0 -81 38 -132 111 -132c120 0 169 127 169 229
c0 81 -39 132 -112 132c-120 0 -168 -127 -168 -229z" />
    <glyph glyph-name="racute" unicode="&#x155;" horiz-adv-x="358" 
d="M16 0l109 515h111c-3 -20 -8 -44 -15 -72h2c21 49 75 88 160 88c5 0 10 0 15 -1l-23 -111c-9 1 -21 2 -32 2c-85 0 -134 -50 -155 -150l-58 -271h-114zM260 571h-97l80 129h149z" />
    <glyph glyph-name="rcaron" unicode="&#x159;" horiz-adv-x="358" 
d="M16 0l109 515h111c-3 -20 -8 -44 -15 -72h2c21 49 75 88 160 88c5 0 10 0 15 -1l-23 -111c-9 1 -21 2 -32 2c-85 0 -134 -50 -155 -150l-58 -271h-114zM223 700l40 -70l69 70h104l-119 -129h-121l-71 129h98z" />
    <glyph glyph-name="uni0157" unicode="&#x157;" horiz-adv-x="358" 
d="M16 0l109 515h111c-3 -20 -8 -44 -15 -72h2c21 49 75 88 160 88c5 0 10 0 15 -1l-23 -111c-9 1 -21 2 -32 2c-85 0 -134 -50 -155 -150l-58 -271h-114zM16 -46h95l-19 -90c-13 -65 -51 -99 -118 -111l9 46c27 5 51 21 58 57l1 5h-45z" />
    <glyph glyph-name="sacute" unicode="&#x15b;" horiz-adv-x="517" 
d="M13 167h115c0 -69 53 -96 112 -96c55 0 106 21 106 72c0 37 -31 53 -83 70l-65 21c-41 13 -73 30 -96 49s-35 49 -35 90c0 102 93 157 211 157c117 0 214 -40 214 -168h-111c-1 51 -36 84 -105 84c-64 0 -92 -28 -92 -59c0 -33 24 -49 76 -65l67 -21
c75 -24 140 -58 140 -144c0 -124 -115 -171 -233 -171c-116 0 -221 41 -221 181zM328 571h-97l80 129h149z" />
    <glyph glyph-name="scircumflex" unicode="&#x15d;" horiz-adv-x="517" 
d="M13 167h115c0 -69 53 -96 112 -96c55 0 106 21 106 72c0 37 -31 53 -83 70l-65 21c-41 13 -73 30 -96 49s-35 49 -35 90c0 102 93 157 211 157c117 0 214 -40 214 -168h-111c-1 51 -36 84 -105 84c-64 0 -92 -28 -92 -59c0 -33 24 -49 76 -65l67 -21
c75 -24 140 -58 140 -144c0 -124 -115 -171 -233 -171c-116 0 -221 41 -221 181zM319 640l-69 -69h-104l119 129h121l72 -129h-99z" />
    <glyph glyph-name="scaron" unicode="&#x161;" horiz-adv-x="517" 
d="M13 167h115c0 -69 53 -96 112 -96c55 0 106 21 106 72c0 37 -31 53 -83 70l-65 21c-41 13 -73 30 -96 49s-35 49 -35 90c0 102 93 157 211 157c117 0 214 -40 214 -168h-111c-1 51 -36 84 -105 84c-64 0 -92 -28 -92 -59c0 -33 24 -49 76 -65l67 -21
c75 -24 140 -58 140 -144c0 -124 -115 -171 -233 -171c-116 0 -221 41 -221 181zM259 700l40 -70l69 70h104l-119 -129h-121l-71 129h98z" />
    <glyph glyph-name="scedilla" unicode="&#x15f;" horiz-adv-x="517" 
d="M13 167h115c0 -69 53 -96 112 -96c55 0 106 21 106 72c0 37 -31 53 -83 70l-65 21c-41 13 -73 30 -96 49s-35 49 -35 90c0 102 93 157 211 157c117 0 214 -40 214 -168h-111c-1 51 -36 84 -105 84c-64 0 -92 -28 -92 -59c0 -33 24 -49 76 -65l67 -21
c75 -24 140 -58 140 -144c0 -124 -115 -171 -233 -171c-116 0 -221 41 -221 181zM211 8l43 -8l-42 -45l1 -1c8 1 17 2 26 2c34 0 78 -16 78 -66c0 -59 -54 -81 -106 -81c-32 0 -68 8 -91 21l16 38c16 -9 38 -18 66 -18s48 13 48 38c0 23 -20 34 -45 34c-11 0 -22 -3 -34 -8
l-20 20z" />
    <glyph glyph-name="uni0219" unicode="&#x219;" horiz-adv-x="517" 
d="M13 167h115c0 -69 53 -96 112 -96c55 0 106 21 106 72c0 37 -31 53 -83 70l-65 21c-41 13 -73 30 -96 49s-35 49 -35 90c0 102 93 157 211 157c117 0 214 -40 214 -168h-111c-1 51 -36 84 -105 84c-64 0 -92 -28 -92 -59c0 -33 24 -49 76 -65l67 -21
c75 -24 140 -58 140 -144c0 -124 -115 -171 -233 -171c-116 0 -221 41 -221 181zM164 -46h95l-19 -90c-13 -65 -51 -99 -118 -111l9 46c27 5 51 21 58 57l1 5h-45z" />
    <glyph glyph-name="germandbls" unicode="&#xdf;" horiz-adv-x="580" 
d="M16 0l104 498c30 146 92 213 242 213c117 0 205 -50 205 -158c0 -83 -53 -145 -136 -162v-2c68 -19 105 -82 105 -149c0 -158 -119 -250 -272 -250c-20 0 -41 2 -63 6l19 92c14 -2 27 -3 40 -3c88 0 157 57 157 154c0 77 -45 106 -141 106l17 77c85 0 157 30 157 116
c0 55 -40 85 -99 85c-33 0 -55 -10 -72 -26c-21 -20 -31 -50 -40 -94l-108 -503h-115z" />
    <glyph glyph-name="tcaron" unicode="&#x165;" horiz-adv-x="338" 
d="M302 676l-34 -161h95l-18 -83h-95l-58 -272c-4 -17 -6 -27 -6 -38c0 -12 4 -21 11 -26s18 -9 45 -9h31l-18 -87h-54c-65 0 -100 8 -119 25c-12 12 -18 29 -18 51c0 15 3 36 9 62l62 294h-73l18 83h72l34 161h116zM383 712h125l-96 -169h-97z" />
    <glyph glyph-name="tbar" unicode="&#x167;" horiz-adv-x="343" 
d="M308 249h-94l-19 -89c-4 -17 -6 -27 -6 -38c0 -12 4 -21 11 -26s18 -9 45 -9h31l-18 -87h-54c-65 0 -100 8 -119 25c-12 12 -18 29 -18 51c0 15 3 36 9 62l23 111h-70l16 77h70l23 106h-73l18 83h72l34 161h116l-34 -161h95l-18 -83h-95l-23 -106h94z" />
    <glyph glyph-name="uni021B" unicode="&#x21b;" horiz-adv-x="338" 
d="M302 676l-34 -161h95l-18 -83h-95l-58 -272c-4 -17 -6 -27 -6 -38c0 -12 4 -21 11 -26s18 -9 45 -9h31l-18 -87h-54c-65 0 -100 8 -119 25c-12 12 -18 29 -18 51c0 15 3 36 9 62l62 294h-73l18 83h72l34 161h116zM99 -46h95l-19 -90c-13 -65 -51 -99 -118 -111l9 46
c27 5 51 21 58 57l1 5h-45z" />
    <glyph glyph-name="tcommaaccent" unicode="&#x163;" horiz-adv-x="338" 
d="M302 676l-34 -161h95l-18 -83h-95l-58 -272c-4 -17 -6 -27 -6 -38c0 -12 4 -21 11 -26s18 -9 45 -9h31l-18 -87h-54c-65 0 -100 8 -119 25c-12 12 -18 29 -18 51c0 15 3 36 9 62l62 294h-73l18 83h72l34 161h116zM140 8l43 -8l-42 -45l1 -1c8 1 17 2 26 2
c34 0 78 -16 78 -66c0 -59 -54 -81 -106 -81c-32 0 -68 8 -91 21l16 38c16 -9 38 -18 66 -18s48 13 48 38c0 23 -20 34 -45 34c-11 0 -22 -3 -34 -8l-20 20z" />
    <glyph glyph-name="ugrave" unicode="&#xf9;" horiz-adv-x="583" 
d="M568 515l-108 -515h-113l7 31c3 11 4 21 8 34h-2c-29 -43 -80 -80 -159 -80c-104 0 -156 60 -156 148c0 27 5 54 10 82l64 300h115l-59 -283c-5 -24 -9 -46 -9 -67c0 -51 28 -83 85 -83c43 0 75 17 96 44c21 25 39 71 46 104l61 285h114zM314 571l-110 129h149l56 -129
h-95z" />
    <glyph glyph-name="uacute" unicode="&#xfa;" horiz-adv-x="583" 
d="M568 515l-108 -515h-113l7 31c3 11 4 21 8 34h-2c-29 -43 -80 -80 -159 -80c-104 0 -156 60 -156 148c0 27 5 54 10 82l64 300h115l-59 -283c-5 -24 -9 -46 -9 -67c0 -51 28 -83 85 -83c43 0 75 17 96 44c21 25 39 71 46 104l61 285h114zM385 571h-97l80 129h149z" />
    <glyph glyph-name="ucircumflex" unicode="&#xfb;" horiz-adv-x="583" 
d="M568 515l-108 -515h-113l7 31c3 11 4 21 8 34h-2c-29 -43 -80 -80 -159 -80c-104 0 -156 60 -156 148c0 27 5 54 10 82l64 300h115l-59 -283c-5 -24 -9 -46 -9 -67c0 -51 28 -83 85 -83c43 0 75 17 96 44c21 25 39 71 46 104l61 285h114zM364 640l-69 -69h-104l119 129
h121l72 -129h-99z" />
    <glyph glyph-name="utilde" unicode="&#x169;" horiz-adv-x="583" 
d="M568 515l-108 -515h-113l7 31c3 11 4 21 8 34h-2c-29 -43 -80 -80 -159 -80c-104 0 -156 60 -156 148c0 27 5 54 10 82l64 300h115l-59 -283c-5 -24 -9 -46 -9 -67c0 -51 28 -83 85 -83c43 0 75 17 96 44c21 25 39 71 46 104l61 285h114zM469 700h69
c-9 -67 -46 -110 -106 -110c-25 0 -46 7 -69 14l-16 5c-17 5 -31 9 -48 9c-24 0 -40 -12 -45 -29h-69c9 67 46 109 106 109c25 0 48 -7 69 -14l16 -5c17 -5 31 -9 48 -9c24 0 40 13 45 30z" />
    <glyph glyph-name="udieresis" unicode="&#xfc;" horiz-adv-x="583" 
d="M568 515l-108 -515h-113l7 31c3 11 4 21 8 34h-2c-29 -43 -80 -80 -159 -80c-104 0 -156 60 -156 148c0 27 5 54 10 82l64 300h115l-59 -283c-5 -24 -9 -46 -9 -67c0 -51 28 -83 85 -83c43 0 75 17 96 44c21 25 39 71 46 104l61 285h114zM340 700l-24 -115h-114l24 115
h114zM539 700l-24 -115h-115l24 115h115z" />
    <glyph glyph-name="umacron" unicode="&#x16b;" horiz-adv-x="583" 
d="M568 515l-108 -515h-113l7 31c3 11 4 21 8 34h-2c-29 -43 -80 -80 -159 -80c-104 0 -156 60 -156 148c0 27 5 54 10 82l64 300h115l-59 -283c-5 -24 -9 -46 -9 -67c0 -51 28 -83 85 -83c43 0 75 17 96 44c21 25 39 71 46 104l61 285h114zM510 595h-303l16 80h304z" />
    <glyph glyph-name="ubreve" unicode="&#x16d;" horiz-adv-x="583" 
d="M568 515l-108 -515h-113l7 31c3 11 4 21 8 34h-2c-29 -43 -80 -80 -159 -80c-104 0 -156 60 -156 148c0 27 5 54 10 82l64 300h115l-59 -283c-5 -24 -9 -46 -9 -67c0 -51 28 -83 85 -83c43 0 75 17 96 44c21 25 39 71 46 104l61 285h114zM355 570c-72 0 -140 38 -161 95
l64 43c21 -36 65 -53 106 -53c48 0 93 22 122 53l52 -45c-44 -63 -110 -93 -183 -93z" />
    <glyph glyph-name="uring" unicode="&#x16f;" horiz-adv-x="583" 
d="M568 515l-108 -515h-113l7 31c3 11 4 21 8 34h-2c-29 -43 -80 -80 -159 -80c-104 0 -156 60 -156 148c0 27 5 54 10 82l64 300h115l-59 -283c-5 -24 -9 -46 -9 -67c0 -51 28 -83 85 -83c43 0 75 17 96 44c21 25 39 71 46 104l61 285h114zM362 723c47 0 83 -36 83 -83
s-36 -84 -83 -84s-84 37 -84 84s37 83 84 83zM362 678c-21 0 -39 -17 -39 -38s18 -39 39 -39s39 18 39 39s-18 38 -39 38z" />
    <glyph glyph-name="uhungarumlaut" unicode="&#x171;" horiz-adv-x="583" 
d="M568 515l-108 -515h-113l7 31c3 11 4 21 8 34h-2c-29 -43 -80 -80 -159 -80c-104 0 -156 60 -156 148c0 27 5 54 10 82l64 300h115l-59 -283c-5 -24 -9 -46 -9 -67c0 -51 28 -83 85 -83c43 0 75 17 96 44c21 25 39 71 46 104l61 285h114zM463 571h-93l91 129h145z
M287 571h-91l79 129h145z" />
    <glyph glyph-name="uogonek" unicode="&#x173;" horiz-adv-x="583" 
d="M568 515l-108 -515h-113l7 31c3 11 4 21 8 34h-2c-29 -43 -80 -80 -159 -80c-104 0 -156 60 -156 148c0 27 5 54 10 82l64 300h115l-59 -283c-5 -24 -9 -46 -9 -67c0 -51 28 -83 85 -83c43 0 75 17 96 44c21 25 39 71 46 104l61 285h114zM391 0h48
c-61 -47 -80 -78 -80 -106c0 -25 16 -38 36 -38c18 0 33 10 45 31l38 -14c-13 -35 -43 -67 -96 -67c-63 0 -86 40 -86 77c0 40 35 86 95 117z" />
    <glyph glyph-name="wcircumflex" unicode="&#x175;" horiz-adv-x="776" 
d="M113 0c-17 172 -34 343 -50 515h117l15 -262c3 -43 4 -85 5 -124h2c11 27 36 79 57 123l124 263h120l13 -262l2 -47l4 -78h2c19 39 37 81 58 125l124 262h120l-271 -515h-121l-13 243c-3 48 -5 95 -5 131h-2c-13 -32 -32 -75 -59 -130l-117 -244h-125zM468 640l-69 -69
h-104l119 129h121l72 -129h-99z" />
    <glyph glyph-name="wgrave" unicode="&#x1e81;" horiz-adv-x="776" 
d="M113 0c-17 172 -34 343 -50 515h117l15 -262c3 -43 4 -85 5 -124h2c11 27 36 79 57 123l124 263h120l13 -262l2 -47l4 -78h2c19 39 37 81 58 125l124 262h120l-271 -515h-121l-13 243c-3 48 -5 95 -5 131h-2c-13 -32 -32 -75 -59 -130l-117 -244h-125zM404 571l-110 129
h149l56 -129h-95z" />
    <glyph glyph-name="wacute" unicode="&#x1e83;" horiz-adv-x="776" 
d="M113 0c-17 172 -34 343 -50 515h117l15 -262c3 -43 4 -85 5 -124h2c11 27 36 79 57 123l124 263h120l13 -262l2 -47l4 -78h2c19 39 37 81 58 125l124 262h120l-271 -515h-121l-13 243c-3 48 -5 95 -5 131h-2c-13 -32 -32 -75 -59 -130l-117 -244h-125zM495 571h-97
l80 129h149z" />
    <glyph glyph-name="wdieresis" unicode="&#x1e85;" horiz-adv-x="776" 
d="M113 0c-17 172 -34 343 -50 515h117l15 -262c3 -43 4 -85 5 -124h2c11 27 36 79 57 123l124 263h120l13 -262l2 -47l4 -78h2c19 39 37 81 58 125l124 262h120l-271 -515h-121l-13 243c-3 48 -5 95 -5 131h-2c-13 -32 -32 -75 -59 -130l-117 -244h-125zM435 700l-24 -115
h-114l24 115h114zM634 700l-24 -115h-115l24 115h115z" />
    <glyph glyph-name="ygrave" unicode="&#x1ef3;" horiz-adv-x="498" 
d="M125 82l-64 433h117l27 -239c7 -52 11 -103 14 -152h2c24 55 55 112 76 152l127 239h124l-330 -576c-55 -95 -100 -113 -195 -113c-24 0 -52 1 -64 1l19 90c7 0 19 -1 32 -1c87 0 121 36 121 99c0 18 -2 40 -6 67zM264 571l-110 129h149l56 -129h-95z" />
    <glyph glyph-name="yacute" unicode="&#xfd;" horiz-adv-x="498" 
d="M125 82l-64 433h117l27 -239c7 -52 11 -103 14 -152h2c24 55 55 112 76 152l127 239h124l-330 -576c-55 -95 -100 -113 -195 -113c-24 0 -52 1 -64 1l19 90c7 0 19 -1 32 -1c87 0 121 36 121 99c0 18 -2 40 -6 67zM336 571h-97l80 129h149z" />
    <glyph glyph-name="ycircumflex" unicode="&#x177;" horiz-adv-x="498" 
d="M125 82l-64 433h117l27 -239c7 -52 11 -103 14 -152h2c24 55 55 112 76 152l127 239h124l-330 -576c-55 -95 -100 -113 -195 -113c-24 0 -52 1 -64 1l19 90c7 0 19 -1 32 -1c87 0 121 36 121 99c0 18 -2 40 -6 67zM310 640l-69 -69h-104l119 129h121l72 -129h-99z" />
    <glyph glyph-name="ydieresis" unicode="&#xff;" horiz-adv-x="498" 
d="M125 82l-64 433h117l27 -239c7 -52 11 -103 14 -152h2c24 55 55 112 76 152l127 239h124l-330 -576c-55 -95 -100 -113 -195 -113c-24 0 -52 1 -64 1l19 90c7 0 19 -1 32 -1c87 0 121 36 121 99c0 18 -2 40 -6 67zM293 700l-24 -115h-114l24 115h114zM492 700l-24 -115
h-115l24 115h115z" />
    <glyph glyph-name="zacute" unicode="&#x17a;" horiz-adv-x="505" 
d="M498 424l-251 -232l-105 -98l-1 -2c35 1 89 1 126 1h176l-20 -93h-444l20 91l262 246c37 35 59 55 92 84v2c-32 -1 -78 -1 -105 -1h-170l19 93h420zM337 571h-97l80 129h149z" />
    <glyph glyph-name="zcaron" unicode="&#x17e;" horiz-adv-x="505" 
d="M498 424l-251 -232l-105 -98l-1 -2c35 1 89 1 126 1h176l-20 -93h-444l20 91l262 246c37 35 59 55 92 84v2c-32 -1 -78 -1 -105 -1h-170l19 93h420zM277 700l40 -70l69 70h104l-119 -129h-121l-71 129h98z" />
    <glyph glyph-name="zdotaccent" unicode="&#x17c;" horiz-adv-x="505" 
d="M498 424l-251 -232l-105 -98l-1 -2c35 1 89 1 126 1h176l-20 -93h-444l20 91l262 246c37 35 59 55 92 84v2c-32 -1 -78 -1 -105 -1h-170l19 93h420zM386 700l-25 -115h-116l25 115h116z" />
    <glyph glyph-name="uni0259" unicode="&#x259;" horiz-adv-x="578" 
d="M40 289h389c1 5 1 10 1 15c0 84 -47 134 -122 134c-60 0 -103 -30 -127 -75h-124c39 100 132 168 255 168c141 0 233 -88 233 -231c0 -172 -109 -314 -281 -314c-158 0 -228 107 -228 246c0 20 3 40 4 57zM417 206h-267c3 -80 42 -131 119 -131c83 0 133 55 148 131z" />
    <glyph glyph-name="fi" unicode="&#xfb01;" horiz-adv-x="565" 
d="M370 515l-18 -83h-96l-92 -432h-114l91 432h-78l18 83h77l9 44c12 59 26 93 53 114c31 24 66 28 135 28c19 0 39 -1 56 -2l-18 -87c-12 0 -21 1 -32 1c-67 0 -70 -20 -80 -64l-7 -34h96zM448 588l24 112h120l-25 -112h-119zM326 0l108 515h117l-110 -515h-115z" />
    <glyph glyph-name="fl" unicode="&#xfb02;" horiz-adv-x="565" 
d="M370 515l-18 -83h-96l-92 -432h-114l91 432h-78l18 83h77l9 44c12 59 26 93 53 114c31 24 66 28 135 28c19 0 39 -1 56 -2l-18 -87c-12 0 -21 1 -32 1c-67 0 -70 -20 -80 -64l-7 -34h96zM473 700h118l-150 -700h-115z" />
    <glyph glyph-name="uniFB00" unicode="&#xfb00;" horiz-adv-x="605" 
d="M326 0l91 432h-161l-92 -432h-114l91 432h-78l18 83h77l9 44c12 59 26 93 53 114c31 24 66 28 135 28c19 0 39 -1 56 -2l-18 -87c-12 0 -21 1 -32 1c-67 0 -70 -20 -80 -64l-7 -34h160l9 44c12 59 26 93 53 114c31 24 66 28 135 28c19 0 39 -1 56 -2l-18 -87
c-12 0 -21 1 -32 1c-67 0 -70 -20 -80 -64l-7 -34h96l-18 -83h-96l-92 -432h-114z" />
    <glyph glyph-name="uniFB03" unicode="&#xfb03;" horiz-adv-x="841" 
d="M724 588l24 112h120l-25 -112h-119zM602 0l108 515h117l-110 -515h-115zM326 0l91 432h-161l-92 -432h-114l91 432h-78l18 83h77l9 44c12 59 26 93 53 114c31 24 66 28 135 28c19 0 39 -1 56 -2l-18 -87c-12 0 -21 1 -32 1c-67 0 -70 -20 -80 -64l-7 -34h160l9 44
c12 59 26 93 53 114c31 24 66 28 135 28c19 0 39 -1 56 -2l-18 -87c-12 0 -21 1 -32 1c-67 0 -70 -20 -80 -64l-7 -34h96l-18 -83h-96l-92 -432h-114z" />
    <glyph glyph-name="uniFB04" unicode="&#xfb04;" horiz-adv-x="841" 
d="M326 0l91 432h-161l-92 -432h-114l91 432h-78l18 83h77l9 44c12 59 26 93 53 114c31 24 66 28 135 28c19 0 39 -1 56 -2l-18 -87c-12 0 -21 1 -32 1c-67 0 -70 -20 -80 -64l-7 -34h160l9 44c12 59 26 93 53 114c31 24 66 28 135 28c19 0 39 -1 56 -2l-18 -87
c-12 0 -21 1 -32 1c-67 0 -70 -20 -80 -64l-7 -34h96l-18 -83h-96l-92 -432h-114zM749 700h118l-150 -700h-115z" />
    <glyph glyph-name="acute" unicode="&#xb4;" horiz-adv-x="236" 
d="M107 571h-97l80 129h149z" />
    <glyph glyph-name="grave" unicode="`" horiz-adv-x="236" 
d="M123 571l-110 129h149l56 -129h-95z" />
    <glyph glyph-name="circumflex" unicode="&#x2c6;" horiz-adv-x="325" 
d="M196 640l-69 -69h-104l119 129h121l72 -129h-99z" />
    <glyph glyph-name="tilde" unicode="&#x2dc;" horiz-adv-x="370" 
d="M304 700h69c-9 -67 -46 -110 -106 -110c-25 0 -46 7 -69 14l-16 5c-17 5 -31 9 -48 9c-24 0 -40 -12 -45 -29h-69c9 67 46 109 106 109c25 0 48 -7 69 -14l16 -5c17 -5 31 -9 48 -9c24 0 40 13 45 30z" />
    <glyph glyph-name="breve" unicode="&#x2d8;" horiz-adv-x="364" 
d="M178 570c-72 0 -140 38 -161 95l64 43c21 -36 65 -53 106 -53c48 0 93 22 122 53l52 -45c-44 -63 -110 -93 -183 -93z" />
    <glyph glyph-name="dotaccent" unicode="&#x2d9;" horiz-adv-x="196" 
d="M168 700l-25 -115h-116l25 115h116z" />
    <glyph glyph-name="dieresis" unicode="&#xa8;" horiz-adv-x="347" 
d="M155 700l-24 -115h-114l24 115h114zM354 700l-24 -115h-115l24 115h115z" />
    <glyph glyph-name="ring" unicode="&#x2da;" horiz-adv-x="235" 
d="M125 723c47 0 83 -36 83 -83s-36 -84 -83 -84s-84 37 -84 84s37 83 84 83zM125 678c-21 0 -39 -17 -39 -38s18 -39 39 -39s39 18 39 39s-18 38 -39 38z" />
    <glyph glyph-name="hungarumlaut" unicode="&#x2dd;" horiz-adv-x="376" 
d="M254 571h-93l91 129h145zM78 571h-91l79 129h145z" />
    <glyph glyph-name="caron" unicode="&#x2c7;" horiz-adv-x="325" 
d="M119 700l40 -70l69 70h104l-119 -129h-121l-71 129h98z" />
    <glyph glyph-name="cedilla" unicode="&#xb8;" horiz-adv-x="193" 
d="M92 8l43 -8l-42 -45l1 -1c8 1 17 2 26 2c34 0 78 -16 78 -66c0 -59 -54 -81 -106 -81c-32 0 -68 8 -91 21l16 38c16 -9 38 -18 66 -18s48 13 48 38c0 23 -20 34 -45 34c-11 0 -22 -3 -34 -8l-20 20z" />
    <glyph glyph-name="overscore" unicode="&#xaf;" horiz-adv-x="314" 
d="M301 595h-303l16 80h304z" />
    <glyph glyph-name="ogonek" unicode="&#x2db;" horiz-adv-x="239" 
d="M87 0h48c-61 -47 -80 -78 -80 -106c0 -25 16 -38 36 -38c18 0 33 10 45 31l38 -14c-13 -35 -43 -67 -96 -67c-63 0 -86 40 -86 77c0 40 35 86 95 117z" />
    <glyph glyph-name="acute.case" horiz-adv-x="263" 
d="M236 746h-97l80 129h150z" />
    <glyph glyph-name="grave.case" horiz-adv-x="241" 
d="M149 746l-110 129h149l56 -129h-95z" />
    <glyph glyph-name="circumflex.case" horiz-adv-x="335" 
d="M214 815l-69 -69h-104l119 129h121l71 -129h-98z" />
    <glyph glyph-name="tilde.case" horiz-adv-x="370" 
d="M341 870h69c-9 -67 -46 -110 -106 -110c-25 0 -46 7 -69 14l-16 5c-17 5 -31 9 -48 9c-24 0 -40 -12 -45 -29h-69c9 67 46 109 106 109c25 0 48 -7 69 -14l16 -5c17 -5 31 -9 48 -9c24 0 40 13 45 30z" />
    <glyph glyph-name="breve.case" horiz-adv-x="377" 
d="M219 744c-73 0 -140 36 -161 95l66 43c20 -36 63 -53 104 -53c47 0 93 21 122 53l52 -46c-44 -61 -110 -92 -183 -92z" />
    <glyph glyph-name="dotaccent.case" horiz-adv-x="196" 
d="M215 875l-24 -115h-116l24 115h116z" />
    <glyph glyph-name="dieresis.case" horiz-adv-x="347" 
d="M166 875l-24 -115h-114l24 115h114zM364 875l-24 -115h-114l24 115h114z" />
    <glyph glyph-name="ring.case" horiz-adv-x="235" 
d="M165 898c47 0 83 -36 83 -83s-36 -84 -83 -84c-45 0 -84 37 -84 84s39 83 84 83zM165 853c-21 0 -38 -17 -38 -38s17 -39 38 -39c23 0 39 18 39 39s-16 38 -39 38z" />
    <glyph glyph-name="hungarumlaut.case" horiz-adv-x="390" 
d="M277 746h-92l91 129h145zM102 746h-93l80 129h145z" />
    <glyph glyph-name="caron.case" horiz-adv-x="335" 
d="M147 875l40 -70l69 70h104l-119 -129h-121l-71 129h98z" />
    <glyph glyph-name="macron.case" horiz-adv-x="324" 
d="M327 764h-304l17 80h304z" />
    <glyph glyph-name="uni0312" unicode="&#x312;" horiz-adv-x="265" 
d="M151 552h-95l19 90c15 67 53 99 118 111l-9 -46c-25 -5 -51 -21 -58 -57l-1 -5h45z" />
    <glyph glyph-name="uni0313" unicode="&#x313;" horiz-adv-x="411" 
d="M125 700h125l-96 -169h-97z" />
    <glyph glyph-name="uni0326" unicode="&#x326;" horiz-adv-x="265" 
d="M98 -46h95l-19 -90c-13 -65 -51 -99 -118 -111l9 46c27 5 51 21 58 57l1 5h-45z" />
    <glyph glyph-name="zero.zero" horiz-adv-x="626" 
d="M273 -13c-144 0 -216 109 -216 253c0 196 103 473 330 473c140 0 223 -94 223 -250c0 -200 -102 -476 -337 -476zM179 227c0 -13 1 -25 2 -36l266 398c-17 16 -40 24 -69 24c-144 0 -199 -257 -199 -386zM488 470c0 17 -1 32 -4 47l-271 -404c17 -17 41 -28 73 -28
c149 0 202 261 202 385z" />
    <glyph glyph-name="zero" unicode="0" horiz-adv-x="626" 
d="M273 -13c-144 0 -216 109 -216 253c0 196 103 473 330 473c140 0 223 -94 223 -250c0 -201 -102 -476 -337 -476zM488 470c0 80 -30 143 -110 143c-144 0 -199 -257 -199 -386c0 -76 27 -142 107 -142c149 0 202 261 202 385z" />
    <glyph glyph-name="one" unicode="1" horiz-adv-x="392" 
d="M66 492l16 79c115 3 198 38 223 129h102l-147 -700h-118l104 492h-180z" />
    <glyph glyph-name="two" unicode="2" horiz-adv-x="585" 
d="M207 461h-117c12 157 117 251 267 251c133 0 223 -73 223 -197c0 -116 -80 -192 -185 -251l-52 -29c-89 -49 -157 -84 -182 -137c31 0 72 1 124 1h235l-21 -99h-494c11 164 130 239 258 306c91 47 193 102 193 199c0 68 -49 104 -112 104c-85 0 -130 -65 -137 -148z" />
    <glyph glyph-name="three" unicode="3" horiz-adv-x="596" 
d="M34 231h111c-1 -5 -1 -11 -1 -16c0 -81 43 -134 126 -134c87 0 147 48 147 137c0 68 -50 107 -125 107h-33l17 89h37c68 0 149 24 149 107c0 67 -53 96 -110 96c-80 0 -128 -45 -140 -128h-115c17 136 115 223 260 223c113 0 220 -51 220 -176c0 -41 -14 -77 -41 -107
c-27 -29 -60 -48 -101 -56c72 -27 106 -83 106 -152c0 -154 -127 -233 -274 -233c-156 0 -234 75 -234 224c0 7 0 12 1 19z" />
    <glyph glyph-name="four" unicode="4" horiz-adv-x="586" 
d="M4 156l23 118l401 426h120l-94 -450h102l-20 -94h-101l-33 -156h-109l32 156h-321zM120 249c25 0 47 1 98 1h126l71 319h-3c-25 -32 -60 -75 -103 -120l-105 -115c-37 -41 -61 -62 -84 -85z" />
    <glyph glyph-name="five" unicode="5" horiz-adv-x="568" 
d="M66 317l115 383h390l-19 -97h-299l-55 -171h2c28 25 70 41 127 41c115 0 202 -81 202 -208c0 -168 -111 -277 -273 -277c-141 0 -223 69 -230 214h111c0 -73 52 -119 127 -119c94 0 154 73 154 168c0 85 -46 133 -129 133c-65 0 -105 -35 -122 -67h-101z" />
    <glyph glyph-name="six" unicode="6" horiz-adv-x="603" 
d="M596 525h-114c-5 60 -44 91 -103 91c-112 0 -163 -121 -184 -211h3c27 35 78 66 153 66c118 0 206 -77 206 -215c0 -150 -110 -268 -265 -268s-233 88 -233 265c0 220 117 459 327 459c114 0 204 -58 210 -187zM443 249c0 85 -52 128 -127 128c-91 0 -144 -74 -144 -160
c0 -85 51 -131 126 -131c93 0 145 75 145 163z" />
    <glyph glyph-name="seven" unicode="7" horiz-adv-x="519" 
d="M89 599l21 101h485l-22 -108c-157 -119 -326 -372 -376 -592h-133c58 212 198 435 382 597v2h-357z" />
    <glyph glyph-name="eight" unicode="8" horiz-adv-x="618" 
d="M456 371v-2c31 -11 57 -31 76 -62c20 -30 30 -63 30 -98c0 -150 -127 -223 -276 -223s-250 82 -250 204c0 108 73 169 173 189v2c-49 23 -87 70 -87 137c0 61 22 109 67 143c45 35 104 52 177 52c130 0 226 -70 226 -178c0 -77 -49 -141 -136 -164zM360 620
c-76 0 -130 -36 -130 -104c0 -35 12 -61 37 -78s54 -25 87 -25c68 0 129 39 129 107c0 61 -50 100 -123 100zM149 201c0 -73 64 -120 145 -120c92 0 154 48 154 128c0 82 -73 120 -146 120c-82 0 -153 -44 -153 -128z" />
    <glyph glyph-name="nine" unicode="9" horiz-adv-x="604" 
d="M48 168h115c7 -56 46 -84 102 -84c112 0 163 116 184 207h-2c-25 -33 -79 -66 -154 -66c-117 0 -206 80 -206 216c0 152 108 271 264 271c157 0 234 -97 234 -268c0 -222 -116 -457 -327 -457c-111 0 -200 57 -210 181zM199 450c0 -88 53 -131 129 -131
c92 0 147 76 147 163s-52 134 -129 134c-94 0 -147 -77 -147 -166z" />
    <glyph glyph-name="zero.osf.zero" horiz-adv-x="621" 
d="M269 -13c-144 0 -216 107 -216 248c0 192 103 462 330 462c140 0 223 -91 223 -243c0 -196 -102 -467 -337 -467zM175 222c0 -13 1 -24 2 -35l263 392c-17 13 -39 20 -66 20c-144 0 -199 -251 -199 -377zM484 461c0 18 -2 35 -5 50l-269 -401c17 -17 40 -27 72 -27
c149 0 202 255 202 378z" />
    <glyph glyph-name="zero.osf" horiz-adv-x="621" 
d="M269 -13c-144 0 -216 107 -216 248c0 192 103 462 330 462c140 0 223 -91 223 -243c0 -196 -102 -467 -337 -467zM484 461c0 77 -30 138 -110 138c-144 0 -199 -251 -199 -377c0 -75 27 -139 107 -139c149 0 202 255 202 378z" />
    <glyph glyph-name="one.osf" horiz-adv-x="390" 
d="M63 483l16 77c115 3 198 38 223 127h102l-147 -687h-118l104 483h-180z" />
    <glyph glyph-name="two.osf" horiz-adv-x="580" 
d="M203 450h-117c12 155 118 247 266 247c135 0 223 -70 223 -190c0 -113 -80 -187 -186 -247l-49 -28c-89 -51 -161 -83 -184 -134c39 0 81 1 132 1h228l-21 -99h-495c11 160 133 231 255 298l47 26c79 43 149 90 149 173c0 60 -40 99 -111 99c-85 0 -130 -66 -137 -146z
" />
    <glyph glyph-name="three.osf" horiz-adv-x="591" 
d="M31 228h111c-1 -5 -1 -11 -1 -16c0 -79 46 -130 127 -130c85 0 146 48 146 133c0 65 -49 101 -125 101h-33l17 88h37c68 0 149 24 149 105c0 67 -53 94 -110 94c-81 0 -128 -42 -140 -126h-115c19 135 114 220 259 220c127 0 221 -60 221 -172c0 -81 -61 -146 -142 -161
c71 -28 106 -77 106 -146c0 -152 -127 -229 -274 -229c-149 0 -235 72 -235 216c0 7 1 15 2 23z" />
    <glyph glyph-name="four.osf" horiz-adv-x="579" 
d="M288 0l32 152h-318l23 116l401 419h119l-94 -441h99l-20 -94h-99l-32 -152h-111zM341 246l35 163c11 52 26 106 35 147h-3c-24 -29 -57 -69 -98 -113l-51 -55c-55 -59 -118 -124 -137 -143c16 0 50 1 93 1h126z" />
    <glyph glyph-name="five.osf" horiz-adv-x="564" 
d="M62 309l115 375h390l-19 -96h-299l-54 -166h2c27 24 70 40 127 40c115 0 202 -77 202 -201c0 -166 -110 -273 -273 -273c-141 0 -224 70 -231 211h111c1 -69 52 -118 127 -118c94 0 154 72 154 166c0 83 -45 128 -128 128c-65 0 -106 -35 -122 -66h-102z" />
    <glyph glyph-name="six.osf" horiz-adv-x="599" 
d="M593 513l-114 -2c-5 60 -44 92 -103 92c-112 0 -163 -119 -184 -208h3c27 35 78 65 153 65c118 0 206 -76 206 -209c0 -147 -110 -263 -265 -263c-157 0 -233 92 -233 260c0 215 117 449 327 449c58 0 107 -15 146 -45c39 -29 61 -76 64 -139zM440 243
c0 83 -54 124 -127 124c-91 0 -144 -72 -144 -156c0 -83 51 -128 126 -128c93 0 145 74 145 160z" />
    <glyph glyph-name="seven.osf" horiz-adv-x="520" 
d="M86 583l21 100h485l-22 -107c-156 -117 -326 -362 -376 -576h-133c56 206 199 426 381 583h-356z" />
    <glyph glyph-name="eight.osf" horiz-adv-x="613" 
d="M452 361v-2c61 -21 106 -87 106 -156c0 -144 -123 -216 -276 -216c-149 0 -250 80 -250 198c0 105 72 165 172 185v2c-49 23 -86 68 -86 133c0 117 95 189 244 189c130 0 226 -69 226 -172c0 -76 -59 -145 -136 -161zM356 604c-75 0 -129 -36 -129 -101
c0 -67 58 -101 123 -101c69 0 129 40 129 105c0 59 -50 97 -123 97zM145 196c0 -35 14 -64 42 -85s62 -32 103 -32c92 0 154 47 154 124c0 80 -73 117 -146 117c-82 0 -153 -44 -153 -124z" />
    <glyph glyph-name="nine.osf" horiz-adv-x="597" 
d="M43 163l115 3c7 -55 45 -82 101 -82c111 0 164 115 185 203h-2c-27 -33 -80 -65 -155 -65c-115 0 -206 78 -206 211c0 148 108 264 264 264c157 0 234 -90 234 -261c0 -215 -116 -448 -326 -448c-112 0 -200 53 -210 175zM193 442c0 -84 53 -127 129 -127
c93 0 147 74 147 158c0 85 -52 130 -129 130c-94 0 -147 -76 -147 -161z" />
    <glyph glyph-name="zero.tf.zero" 
d="M290 -13c-144 0 -216 109 -216 253c0 196 103 473 330 473c140 0 223 -94 223 -250c0 -200 -102 -476 -337 -476zM196 227c0 -13 1 -25 2 -36l266 398c-17 16 -40 24 -69 24c-144 0 -199 -257 -199 -386zM505 470c0 17 -1 32 -4 47l-271 -404c17 -17 41 -28 73 -28
c149 0 202 261 202 385z" />
    <glyph glyph-name="zero.tf" 
d="M290 -13c-144 0 -216 109 -216 253c0 196 103 473 330 473c140 0 223 -94 223 -250c0 -201 -102 -476 -337 -476zM505 470c0 80 -30 143 -110 143c-144 0 -199 -257 -199 -386c0 -76 27 -142 107 -142c149 0 202 261 202 385z" />
    <glyph glyph-name="one.tf" 
d="M200 492l16 79c115 3 198 38 223 129h102l-147 -700h-118l104 492h-180z" />
    <glyph glyph-name="two.tf" 
d="M244 461h-117c12 157 117 251 267 251c133 0 223 -73 223 -197c0 -116 -80 -192 -185 -251l-52 -29c-89 -49 -157 -84 -182 -137c31 0 72 1 124 1h235l-21 -99h-494c11 164 130 239 258 306c91 47 193 102 193 199c0 68 -49 104 -112 104c-85 0 -130 -65 -137 -148z" />
    <glyph glyph-name="three.tf" 
d="M66 231h111c-1 -5 -1 -11 -1 -16c0 -81 43 -134 126 -134c87 0 147 48 147 137c0 68 -50 107 -125 107h-33l17 89h37c68 0 149 24 149 107c0 67 -53 96 -110 96c-80 0 -128 -45 -140 -128h-115c17 136 115 223 260 223c113 0 220 -51 220 -176c0 -41 -14 -77 -41 -107
c-27 -29 -60 -48 -101 -56c72 -27 106 -83 106 -152c0 -154 -127 -233 -274 -233c-156 0 -234 75 -234 224c0 7 0 12 1 19z" />
    <glyph glyph-name="four.tf" 
d="M41 156l23 118l401 426h120l-94 -450h102l-20 -94h-101l-33 -156h-109l32 156h-321zM157 249c25 0 47 1 98 1h126l71 319h-3c-25 -32 -60 -75 -103 -120l-105 -115c-37 -41 -61 -62 -84 -85z" />
    <glyph glyph-name="five.tf" 
d="M112 317l115 383h390l-19 -97h-299l-55 -171h2c28 25 70 41 127 41c115 0 202 -81 202 -208c0 -168 -111 -277 -273 -277c-141 0 -223 69 -230 214h111c0 -73 52 -119 127 -119c94 0 154 73 154 168c0 85 -46 133 -129 133c-65 0 -105 -35 -122 -67h-101z" />
    <glyph glyph-name="six.tf" 
d="M624 525h-114c-5 60 -44 91 -103 91c-112 0 -163 -121 -184 -211h3c27 35 78 66 153 66c118 0 206 -77 206 -215c0 -150 -110 -268 -265 -268s-233 88 -233 265c0 220 117 459 327 459c114 0 204 -58 210 -187zM471 249c0 85 -52 128 -127 128c-91 0 -144 -74 -144 -160
c0 -85 51 -131 126 -131c93 0 145 75 145 163z" />
    <glyph glyph-name="seven.tf" 
d="M159 599l21 101h485l-22 -108c-157 -119 -326 -372 -376 -592h-133c58 212 198 435 382 597v2h-357z" />
    <glyph glyph-name="eight.tf" 
d="M477 371v-2c31 -11 57 -31 76 -62c20 -30 30 -63 30 -98c0 -150 -127 -223 -276 -223s-250 82 -250 204c0 108 73 169 173 189v2c-49 23 -87 70 -87 137c0 61 22 109 67 143c45 35 104 52 177 52c130 0 226 -70 226 -178c0 -77 -49 -141 -136 -164zM381 620
c-76 0 -130 -36 -130 -104c0 -35 12 -61 37 -78s54 -25 87 -25c68 0 129 39 129 107c0 61 -50 100 -123 100zM170 201c0 -73 64 -120 145 -120c92 0 154 48 154 128c0 82 -73 120 -146 120c-82 0 -153 -44 -153 -128z" />
    <glyph glyph-name="nine.tf" 
d="M76 168h115c7 -56 46 -84 102 -84c112 0 163 116 184 207h-2c-25 -33 -79 -66 -154 -66c-117 0 -206 80 -206 216c0 152 108 271 264 271c157 0 234 -97 234 -268c0 -222 -116 -457 -327 -457c-111 0 -200 57 -210 181zM227 450c0 -88 53 -131 129 -131
c92 0 147 76 147 163s-52 134 -129 134c-94 0 -147 -77 -147 -166z" />
    <glyph glyph-name="zero.tosf.zero" 
d="M289 -13c-144 0 -216 107 -216 248c0 192 103 462 330 462c140 0 223 -91 223 -243c0 -196 -102 -467 -337 -467zM195 222c0 -13 1 -24 2 -35l263 392c-17 13 -39 20 -66 20c-144 0 -199 -251 -199 -377zM504 461c0 18 -2 35 -5 50l-269 -401c17 -17 40 -27 72 -27
c149 0 202 255 202 378z" />
    <glyph glyph-name="zero.tosf" 
d="M289 -13c-144 0 -216 107 -216 248c0 192 103 462 330 462c140 0 223 -91 223 -243c0 -196 -102 -467 -337 -467zM504 461c0 77 -30 138 -110 138c-144 0 -199 -251 -199 -377c0 -75 27 -139 107 -139c149 0 202 255 202 378z" />
    <glyph glyph-name="one.tosf" 
d="M198 483l16 77c115 3 198 38 223 127h102l-147 -687h-118l104 483h-180z" />
    <glyph glyph-name="two.tosf" 
d="M243 450h-117c12 155 118 247 266 247c135 0 223 -70 223 -190c0 -113 -80 -187 -186 -247l-49 -28c-89 -51 -161 -83 -184 -134c39 0 81 1 132 1h228l-21 -99h-495c11 160 133 231 255 298l47 26c79 43 149 90 149 173c0 60 -40 99 -111 99c-85 0 -130 -66 -137 -146z
" />
    <glyph glyph-name="three.tosf" 
d="M65 228h111c-1 -5 -1 -11 -1 -16c0 -79 46 -130 127 -130c85 0 146 48 146 133c0 65 -49 101 -125 101h-33l17 88h37c68 0 149 24 149 105c0 67 -53 94 -110 94c-81 0 -128 -42 -140 -126h-115c19 135 114 220 259 220c127 0 221 -60 221 -172c0 -81 -61 -146 -142 -161
c71 -28 106 -77 106 -146c0 -152 -127 -229 -274 -229c-149 0 -235 72 -235 216c0 7 1 15 2 23z" />
    <glyph glyph-name="four.tosf" 
d="M328 0l32 152h-318l23 116l401 419h119l-94 -441h99l-20 -94h-99l-32 -152h-111zM381 246l35 163c11 52 26 106 35 147h-3c-24 -29 -57 -69 -98 -113l-51 -55c-55 -59 -118 -124 -137 -143c16 0 50 1 93 1h126z" />
    <glyph glyph-name="five.tosf" 
d="M110 309l115 375h390l-19 -96h-299l-54 -166h2c27 24 70 40 127 40c115 0 202 -77 202 -201c0 -166 -110 -273 -273 -273c-141 0 -224 70 -231 211h111c1 -69 52 -118 127 -118c94 0 154 72 154 166c0 83 -45 128 -128 128c-65 0 -106 -35 -122 -66h-102z" />
    <glyph glyph-name="six.tosf" 
d="M623 513l-114 -2c-5 60 -44 92 -103 92c-112 0 -163 -119 -184 -208h3c27 35 78 65 153 65c118 0 206 -76 206 -209c0 -147 -110 -263 -265 -263c-157 0 -233 92 -233 260c0 215 117 449 327 449c58 0 107 -15 146 -45c39 -29 61 -76 64 -139zM470 243
c0 83 -54 124 -127 124c-91 0 -144 -72 -144 -156c0 -83 51 -128 126 -128c93 0 145 74 145 160z" />
    <glyph glyph-name="seven.tosf" 
d="M156 583l21 100h485l-22 -107c-156 -117 -326 -362 -376 -576h-133c56 206 199 426 381 583h-356z" />
    <glyph glyph-name="eight.tosf" 
d="M476 361v-2c61 -21 106 -87 106 -156c0 -144 -123 -216 -276 -216c-149 0 -250 80 -250 198c0 105 72 165 172 185v2c-49 23 -86 68 -86 133c0 117 95 189 244 189c130 0 226 -69 226 -172c0 -76 -59 -145 -136 -161zM380 604c-75 0 -129 -36 -129 -101
c0 -67 58 -101 123 -101c69 0 129 40 129 105c0 59 -50 97 -123 97zM169 196c0 -35 14 -64 42 -85s62 -32 103 -32c92 0 154 47 154 124c0 80 -73 117 -146 117c-82 0 -153 -44 -153 -124z" />
    <glyph glyph-name="nine.tosf" 
d="M74 163l115 3c7 -55 45 -82 101 -82c111 0 164 115 185 203h-2c-27 -33 -80 -65 -155 -65c-115 0 -206 78 -206 211c0 148 108 264 264 264c157 0 234 -90 234 -261c0 -215 -116 -448 -326 -448c-112 0 -200 53 -210 175zM224 442c0 -84 53 -127 129 -127
c93 0 147 74 147 158c0 85 -52 130 -129 130c-94 0 -147 -76 -147 -161z" />
    <glyph glyph-name="period" unicode="." horiz-adv-x="245" 
d="M172 136l-29 -136h-135l29 136h135z" />
    <glyph glyph-name="comma" unicode="," horiz-adv-x="246" 
d="M9 0l28 135h135l-26 -125c-23 -109 -85 -157 -172 -172l14 65c37 8 74 35 86 92l1 5h-66z" />
    <glyph glyph-name="colon" unicode=":" horiz-adv-x="256" 
d="M250 515l-29 -136h-135l29 136h135zM171 136l-29 -136h-135l29 136h135z" />
    <glyph glyph-name="semicolon" unicode=";" horiz-adv-x="256" 
d="M251 515l-29 -136h-135l29 136h135zM7 0l28 135h135l-26 -125c-23 -109 -85 -157 -172 -172l14 65c37 8 74 35 86 92l1 5h-66z" />
    <glyph glyph-name="ellipsis" unicode="&#x2026;" horiz-adv-x="897" 
d="M172 136l-29 -136h-135l29 136h135zM497 136l-29 -136h-135l29 136h135zM824 136l-29 -136h-135l29 136h135z" />
    <glyph glyph-name="questiondown" unicode="&#xbf;" horiz-adv-x="527" 
d="M233 379l29 136h132l-29 -136h-132zM328 31h122c-11 -149 -112 -229 -257 -229c-120 0 -216 56 -216 169c0 104 63 157 133 203l14 9c62 40 94 63 110 148h112c-18 -126 -66 -166 -135 -211l-28 -18c-40 -25 -81 -59 -81 -116c0 -53 40 -86 101 -86c83 0 120 59 125 131z
" />
    <glyph glyph-name="questiondown.case" horiz-adv-x="535" 
d="M277 564l29 136h132l-29 -136h-132zM372 216h122c-11 -149 -112 -229 -257 -229c-120 0 -216 56 -216 169c0 104 63 157 133 203l14 9c62 40 94 63 110 148h112c-18 -126 -66 -166 -135 -211l-28 -18c-40 -25 -81 -59 -81 -116c0 -53 40 -86 101 -86c83 0 120 59 125 131
z" />
    <glyph glyph-name="question" unicode="?" horiz-adv-x="533" 
d="M203 484h-122c11 151 112 229 257 229c120 0 216 -55 216 -169c0 -102 -62 -157 -133 -203l-14 -9c-62 -40 -94 -62 -110 -148h-112c20 128 66 164 135 211l28 18c40 27 81 59 81 116c0 55 -40 86 -101 86c-83 0 -120 -59 -125 -131zM298 136l-29 -136h-132l29 136h132z
" />
    <glyph glyph-name="exclamdown" unicode="&#xa1;" horiz-adv-x="258" 
d="M90 379l29 136h131l-28 -136h-132zM-27 -185l42 198l96 318h69l-40 -317l-42 -199h-125z" />
    <glyph glyph-name="exclamdown.case" horiz-adv-x="270" 
d="M136 564l29 136h131l-28 -136h-132zM19 0l42 198l96 318h69l-40 -317l-42 -199h-125z" />
    <glyph glyph-name="exclam" unicode="!" horiz-adv-x="269" 
d="M292 700l-42 -198l-96 -318h-69l40 317l42 199h125zM175 136l-29 -136h-131l28 136h132z" />
    <glyph glyph-name="parenleft" unicode="(" horiz-adv-x="292" 
d="M178 -172h-96c-33 95 -53 188 -53 289c0 203 81 402 222 583h110c-133 -181 -217 -391 -217 -607c0 -93 10 -178 34 -265z" />
    <glyph glyph-name="parenright" unicode=")" horiz-adv-x="292" 
d="M118 700h96c33 -93 53 -189 53 -292c0 -201 -81 -399 -222 -580h-109c133 181 216 390 216 606c0 95 -10 181 -34 266z" />
    <glyph glyph-name="parenleft.case" horiz-adv-x="295" 
d="M198 -86h-96c-33 95 -53 188 -53 289c0 203 81 402 222 583h110c-133 -181 -217 -391 -217 -607c0 -93 10 -178 34 -265z" />
    <glyph glyph-name="parenright.case" horiz-adv-x="296" 
d="M138 786h96c33 -93 53 -189 53 -292c0 -201 -81 -399 -222 -580h-109c133 181 216 390 216 606c0 95 -10 181 -34 266z" />
    <glyph glyph-name="bracketleft" unicode="[" horiz-adv-x="319" 
d="M205 -172h-217l184 872h218l-19 -87h-108l-148 -698h108z" />
    <glyph glyph-name="bracketright" unicode="]" horiz-adv-x="319" 
d="M-65 -172l19 88h107l147 696h-108l19 88h217l-185 -872h-216z" />
    <glyph glyph-name="bracketleft.case" horiz-adv-x="323" 
d="M223 -86h-217l184 872h218l-19 -87h-108l-148 -698h108z" />
    <glyph glyph-name="bracketright.case" horiz-adv-x="323" 
d="M-43 -86l19 88h107l147 696h-108l19 88h217l-185 -872h-216z" />
    <glyph glyph-name="braceleft" unicode="{" horiz-adv-x="313" 
d="M25 234l15 72c48 4 69 41 82 106l21 107c24 122 43 181 157 181h70l-19 -87h-17c-62 0 -66 -30 -80 -97l-26 -122c-17 -81 -41 -118 -109 -126c0 -1 -1 -2 -1 -3c40 -13 60 -41 60 -84c0 -13 -1 -30 -5 -47l-26 -119c-5 -24 -11 -45 -11 -62c0 -25 13 -38 54 -38h13
l-18 -87h-59c-77 0 -105 21 -105 81c0 19 3 40 8 64l37 172c2 11 3 22 3 31c0 31 -15 51 -44 58z" />
    <glyph glyph-name="braceright" unicode="}" horiz-adv-x="313" 
d="M294 299l-16 -72c-44 -4 -66 -33 -78 -89l-31 -146c-24 -117 -40 -164 -170 -164h-51l19 87h17c60 0 66 30 78 92l17 84c22 109 38 160 120 172l1 4c-40 13 -60 38 -61 76c-1 15 2 36 8 62l23 103c7 28 11 52 11 68c0 25 -11 37 -54 37h-13l19 87h58
c75 0 105 -27 105 -79c0 -20 -4 -46 -11 -75l-33 -161c-1 -11 -2 -21 -2 -29c0 -32 15 -51 44 -57z" />
    <glyph glyph-name="braceleft.case" horiz-adv-x="317" 
d="M45 320l15 72c48 4 69 41 82 106l21 107c24 122 43 181 157 181h70l-19 -87h-17c-62 0 -66 -30 -80 -97l-26 -122c-17 -81 -41 -118 -109 -126c0 -1 -1 -2 -1 -3c40 -13 60 -41 60 -84c0 -13 -1 -30 -5 -47l-26 -119c-5 -24 -11 -45 -11 -62c0 -25 13 -38 54 -38h13
l-18 -87h-59c-77 0 -105 21 -105 81c0 19 3 40 8 64l37 172c2 11 3 22 3 31c0 31 -15 51 -44 58z" />
    <glyph glyph-name="braceright.case" horiz-adv-x="316" 
d="M314 385l-16 -72c-44 -4 -66 -33 -78 -89l-31 -146c-24 -117 -40 -164 -170 -164h-51l19 87h17c60 0 66 30 78 92l17 84c22 109 38 160 120 172l1 4c-40 13 -60 38 -61 76c-1 15 2 36 8 62l23 103c7 28 11 52 11 68c0 25 -11 37 -54 37h-13l19 87h58
c75 0 105 -27 105 -79c0 -20 -4 -46 -11 -75l-33 -161c-1 -11 -2 -21 -2 -29c0 -32 15 -51 44 -57z" />
    <glyph glyph-name="slash" unicode="/" horiz-adv-x="384" 
d="M85 0h-111l366 700h111z" />
    <glyph glyph-name="a.subs" horiz-adv-x="352" 
d="M76 87h-71c15 71 67 100 143 100c77 0 120 -31 120 -90c0 -17 -1 -29 -6 -49l-26 -131c-2 -10 -3 -18 -3 -25s0 -13 3 -18l-1 -2h-73l4 26h-1c-15 -13 -39 -34 -92 -34c-64 0 -105 36 -105 87c0 47 28 73 69 89c31 12 70 19 110 24l14 2c23 3 31 12 31 29
c0 21 -17 36 -52 36c-32 0 -55 -13 -64 -44zM97 -77c27 0 55 10 70 38c2 3 4 12 7 26l9 38c-9 -5 -21 -10 -44 -15l-23 -5c-25 -5 -43 -10 -54 -19c-8 -6 -12 -15 -12 -28c0 -23 18 -35 47 -35z" />
    <glyph glyph-name="b.subs" horiz-adv-x="388" 
d="M141 292l-20 -94c-3 -15 -7 -33 -12 -52c19 23 48 41 89 41c63 0 113 -47 113 -130c0 -112 -72 -193 -167 -193c-45 0 -75 18 -87 34h-1l-5 -26h-78l89 420h79zM140 -75c29 0 52 13 68 39c16 25 24 55 24 88c0 45 -21 73 -60 73c-68 0 -94 -73 -94 -131
c0 -41 29 -69 62 -69z" />
    <glyph glyph-name="c.subs" horiz-adv-x="354" 
d="M273 -21c-20 -65 -76 -112 -153 -112c-81 0 -138 50 -138 139c0 100 63 184 169 184c75 0 127 -41 132 -112h-76c-6 34 -26 51 -59 51c-60 0 -86 -66 -86 -126c0 -49 24 -74 63 -74c35 0 56 21 69 50h79z" />
    <glyph glyph-name="d.subs" horiz-adv-x="391" 
d="M255 -127h-76l7 36c-17 -21 -49 -42 -92 -42c-67 0 -113 54 -113 131c0 110 76 192 165 192c47 0 78 -19 90 -36l29 138h79zM152 129c-29 0 -52 -13 -68 -39c-15 -25 -23 -55 -23 -88c0 -45 20 -73 59 -73c68 0 94 71 94 129c0 43 -27 71 -62 71z" />
    <glyph glyph-name="e.subs" horiz-adv-x="368" 
d="M287 7h-228v-5c0 -48 29 -73 68 -73c31 0 53 14 66 35h84c-25 -57 -78 -97 -153 -97c-84 0 -142 53 -142 138c0 104 68 185 169 185c96 0 139 -62 139 -149c0 -11 -1 -23 -3 -34zM147 132c-41 0 -72 -28 -80 -71h146c-1 48 -27 71 -66 71z" />
    <glyph glyph-name="f.subs" horiz-adv-x="228" 
d="M14 181h41l6 29c16 77 46 82 122 82h32l-13 -58h-19c-19 0 -27 -3 -34 -10c-9 -9 -11 -19 -14 -32l-2 -11h57l-12 -55h-56l-54 -254h-78l54 254h-41z" />
    <glyph glyph-name="g.subs" horiz-adv-x="387" 
d="M182 -92l6 25h-2c-15 -20 -42 -38 -86 -38c-29 0 -56 10 -79 31c-23 20 -35 51 -35 93c0 98 69 170 157 170c47 0 76 -21 88 -36h1l6 28h78l-60 -294c-17 -85 -70 -124 -161 -124c-81 0 -132 34 -131 97h80c2 -25 21 -38 58 -38c43 0 69 25 78 75zM152 127
c-55 0 -87 -48 -87 -105c0 -44 20 -66 60 -66c56 0 89 48 89 105c0 44 -23 66 -62 66z" />
    <glyph glyph-name="h.subs" horiz-adv-x="382" 
d="M63 292h79l-20 -92l-12 -54c17 23 49 41 90 41c63 0 95 -36 95 -89c0 -15 -2 -31 -6 -49l-38 -177h-79l35 164c3 15 5 27 5 40c0 27 -15 46 -48 46c-21 0 -37 -9 -49 -21c-13 -15 -20 -36 -27 -60l-36 -169h-79z" />
    <glyph glyph-name="i.subs" horiz-adv-x="188" 
d="M47 223l15 69h79l-15 -69h-79zM-26 -128l65 309h79l-65 -309h-79z" />
    <glyph glyph-name="j.subs" horiz-adv-x="197" 
d="M56 223l14 69h79l-14 -69h-79zM48 181h79l-68 -325c-5 -24 -11 -46 -28 -63c-24 -24 -56 -25 -107 -25h-13l12 58h6c20 0 31 1 40 10c6 6 11 17 14 34z" />
    <glyph glyph-name="k.subs" horiz-adv-x="358" 
d="M-26 -128l88 420h79l-33 -157l-15 -71l133 117h98l-144 -121l86 -188h-88l-59 139l-45 -37l-22 -102h-78z" />
    <glyph glyph-name="l.subs" horiz-adv-x="188" 
d="M-26 -128l88 420h79l-88 -420h-79z" />
    <glyph glyph-name="m.subs" horiz-adv-x="570" 
d="M355 122c-21 0 -36 -9 -47 -21c-13 -15 -22 -37 -27 -61l-36 -168h-79l35 164c3 15 6 27 6 40c0 27 -13 46 -46 46c-21 0 -35 -9 -47 -21c-13 -15 -20 -37 -27 -61l-35 -168h-79l66 309h76l-9 -37h1c16 23 45 43 90 43c41 0 69 -15 83 -46h1c17 23 54 46 107 46
c65 0 95 -36 95 -89c0 -16 -3 -31 -6 -48l-38 -178h-79l35 164c3 15 5 27 5 40c0 27 -13 46 -45 46z" />
    <glyph glyph-name="n.subs" horiz-adv-x="383" 
d="M165 126c-21 0 -37 -10 -49 -22c-13 -15 -22 -36 -27 -60l-36 -172h-79l65 309h76l-7 -34c17 23 48 43 93 43c63 0 95 -36 95 -89c0 -15 -2 -31 -6 -49l-38 -180h-79l35 167c3 15 5 27 5 40c0 27 -15 47 -48 47z" />
    <glyph glyph-name="o.subs" horiz-adv-x="371" 
d="M123 -133c-83 0 -141 52 -141 136c0 102 64 187 172 187c85 0 140 -52 140 -135c0 -101 -62 -188 -171 -188zM150 129c-61 0 -88 -66 -88 -126c0 -49 27 -74 64 -74c62 0 89 67 89 126c0 51 -26 74 -65 74z" />
    <glyph glyph-name="p.subs" horiz-adv-x="390" 
d="M-48 -233l87 414h76l-8 -34h1c19 23 49 44 92 44c63 0 113 -47 113 -132c0 -110 -72 -192 -168 -192c-45 0 -75 18 -87 34l-27 -134h-79zM141 -71c30 0 53 13 68 38c16 25 24 54 24 87c0 47 -20 75 -60 75c-66 0 -93 -72 -93 -131c0 -41 28 -69 61 -69z" />
    <glyph glyph-name="q.subs" horiz-adv-x="392" 
d="M321 181l-87 -416h-78l18 92c3 17 5 26 12 51h-1c-17 -21 -46 -41 -89 -41c-68 0 -114 54 -114 131c0 112 77 193 165 193c47 0 77 -19 89 -36h2l5 26h78zM154 129c-30 0 -53 -13 -69 -39c-15 -25 -23 -55 -23 -88c0 -45 21 -73 60 -73c68 0 94 73 94 130
c0 43 -27 70 -62 70z" />
    <glyph glyph-name="r.subs" horiz-adv-x="236" 
d="M107 141h1c12 27 42 48 91 48h7l-16 -75c-5 0 -12 1 -19 1c-47 0 -72 -25 -85 -82l-34 -161h-78l65 309h76z" />
    <glyph glyph-name="s.subs" horiz-adv-x="338" 
d="M260 89h-75c0 27 -18 45 -57 45c-33 0 -49 -12 -49 -31c0 -16 12 -24 41 -33l40 -12c47 -15 86 -33 86 -88c0 -75 -71 -103 -143 -103c-67 0 -138 24 -134 108h78c-4 -37 31 -52 60 -52c28 0 57 11 57 38c0 21 -18 28 -45 37l-44 15c-48 16 -74 33 -74 81
c0 64 61 96 130 96s131 -23 129 -101z" />
    <glyph glyph-name="t.subs" horiz-adv-x="235" 
d="M3 126l12 55h40l20 94h78l-20 -94h55l-12 -55h-55l-31 -151c-1 -12 -4 -18 -4 -25c0 -9 3 -14 10 -17c5 -2 14 -3 25 -3h15l-12 -58h-34c-29 0 -47 1 -62 6c-17 6 -26 19 -26 39c0 11 3 25 6 41l35 168h-40z" />
    <glyph glyph-name="u.subs" horiz-adv-x="381" 
d="M121 -71c23 0 36 8 48 21c13 15 22 35 27 60l36 171h79l-66 -309h-76l8 35c-17 -21 -47 -43 -92 -43c-61 0 -94 36 -94 89c0 15 2 31 6 49l38 179h79l-35 -166c-3 -13 -6 -27 -6 -40c0 -27 15 -46 48 -46z" />
    <glyph glyph-name="v.subs" horiz-adv-x="328" 
d="M44 -128l-43 309h78l16 -161c3 -21 5 -43 6 -62h1c7 17 17 37 28 59l82 164h83l-171 -309h-80z" />
    <glyph glyph-name="w.subs" horiz-adv-x="498" 
d="M4 181h79l6 -157c1 -20 2 -51 2 -64h2c4 11 19 41 28 62l72 159h79l7 -159l3 -61h1c8 19 19 40 28 61l72 159h81l-161 -309h-80l-7 143c-1 23 -2 50 -2 67h-1c-9 -17 -17 -40 -29 -67l-68 -143h-83z" />
    <glyph glyph-name="x.subs" horiz-adv-x="338" 
d="M299 181l-135 -149l82 -160h-83l-50 103l-87 -103h-91l146 164l-76 145h84l43 -91l76 91h91z" />
    <glyph glyph-name="y.subs" horiz-adv-x="329" 
d="M2 181h79l12 -140c3 -29 6 -61 7 -88h1c13 31 30 63 41 84l72 144h83l-194 -345c-33 -59 -62 -69 -121 -69h-43l13 60h20c55 0 68 19 68 55c0 12 -1 27 -4 44z" />
    <glyph glyph-name="z.subs" horiz-adv-x="328" 
d="M-49 -128l13 61l153 144c19 17 27 25 47 42v1c-13 -1 -35 -1 -46 -1h-110l13 62h254l-13 -61l-143 -130c-27 -25 -44 -43 -59 -56h171l-13 -62h-267z" />
    <glyph glyph-name="uni2080" unicode="&#x2080;" horiz-adv-x="404" 
d="M130 -133c-88 0 -135 62 -135 151c0 116 63 278 203 278c88 0 138 -58 138 -151c0 -117 -65 -278 -206 -278zM137 -67c84 0 115 146 115 217c0 43 -16 79 -60 79c-80 0 -114 -134 -114 -208c0 -47 10 -88 59 -88z" />
    <glyph glyph-name="uni2081" unicode="&#x2081;" horiz-adv-x="273" 
d="M-3 161l13 57c71 1 119 23 136 74h68l-89 -420h-80l61 289h-109z" />
    <glyph glyph-name="uni2082" unicode="&#x2082;" horiz-adv-x="387" 
d="M97 138h-81c8 99 71 158 166 158c84 0 140 -43 140 -119c0 -69 -51 -117 -115 -152l-44 -24c-35 -19 -76 -39 -89 -62h213l-14 -67h-308c6 100 76 138 147 179l43 24c45 25 84 48 84 96c0 32 -23 55 -63 55c-53 0 -76 -39 -79 -88z" />
    <glyph glyph-name="uni2083" unicode="&#x2083;" horiz-adv-x="389" 
d="M244 92v-2c35 -13 53 -47 53 -84c0 -92 -72 -139 -164 -139c-97 0 -161 51 -149 152h74c-1 -4 -1 -8 -1 -11c0 -48 26 -77 75 -77c47 0 81 27 81 75c0 39 -27 58 -70 58h-26l12 57h27c37 0 85 12 85 61c0 35 -31 49 -64 49c-47 0 -74 -25 -80 -74h-76
c7 87 73 139 162 139c75 0 135 -32 135 -105c0 -51 -29 -84 -74 -99z" />
    <glyph glyph-name="uni2084" unicode="&#x2084;" horiz-adv-x="388" 
d="M140 -128l19 90h-198l16 76l245 254h83l-56 -265h61l-13 -65h-62l-19 -90h-76zM212 199h-2c-19 -23 -39 -48 -70 -80l-48 -49c-23 -24 -41 -39 -44 -42v-2c15 0 46 1 75 1h49l19 80c9 39 16 73 21 92z" />
    <glyph glyph-name="uni2085" unicode="&#x2085;" horiz-adv-x="400" 
d="M1 62l79 230h266l-13 -63h-199l-32 -87c19 12 45 18 76 18c79 0 140 -49 140 -126c0 -104 -73 -167 -182 -167c-93 0 -157 46 -161 134h82c4 -39 33 -71 85 -71c60 0 94 41 94 94c0 49 -34 77 -85 77c-44 0 -67 -20 -78 -39h-72z" />
    <glyph glyph-name="uni2086" unicode="&#x2086;" horiz-adv-x="397" 
d="M332 191l-76 -1c-5 27 -28 42 -61 42c-62 0 -94 -60 -106 -108h2c13 15 44 34 91 34c72 0 128 -46 128 -129c0 -90 -69 -162 -165 -162c-53 0 -97 18 -120 53c-18 27 -27 64 -27 109c0 137 77 269 201 269c71 0 128 -34 133 -107zM149 -69c53 0 85 42 85 91
c0 51 -31 73 -76 73c-53 0 -85 -40 -85 -89c0 -52 31 -75 76 -75z" />
    <glyph glyph-name="uni2087" unicode="&#x2087;" horiz-adv-x="353" 
d="M11 225l14 67h320l-13 -62c-97 -71 -207 -227 -236 -358h-86c35 127 117 257 230 353h-229z" />
    <glyph glyph-name="uni2088" unicode="&#x2088;" horiz-adv-x="422" 
d="M273 94v-2c32 -17 58 -53 58 -92c0 -89 -83 -133 -184 -133c-97 0 -165 48 -165 120c0 60 43 97 103 114v2c-27 15 -47 42 -47 79c0 72 61 115 160 115c88 0 153 -43 153 -107c0 -41 -31 -81 -78 -96zM197 238c-49 0 -81 -20 -81 -59c0 -37 36 -57 77 -57
c43 0 79 22 79 59c0 35 -30 57 -75 57zM158 66c-49 0 -95 -25 -95 -70c0 -41 36 -68 91 -68c59 0 96 27 96 72s-45 66 -92 66z" />
    <glyph glyph-name="uni2089" unicode="&#x2089;" horiz-adv-x="396" 
d="M-8 -26l76 1c5 -25 28 -42 61 -42c63 0 94 60 106 108h-2c-13 -13 -44 -34 -91 -34c-72 0 -128 46 -128 129c0 91 70 162 165 162c55 0 97 -18 120 -53c18 -27 27 -63 27 -109c0 -137 -77 -269 -201 -269c-71 0 -128 34 -133 107zM175 234c-53 0 -85 -40 -85 -91
c0 -49 31 -73 76 -73c55 0 85 40 85 89c0 52 -31 75 -76 75z" />
    <glyph glyph-name="uni208D" unicode="&#x208d;" horiz-adv-x="223" 
d="M127 323h74c-80 -109 -129 -240 -129 -367c0 -55 6 -107 19 -156h-65c-19 56 -31 110 -31 169c0 120 47 239 132 354z" />
    <glyph glyph-name="uni208E" unicode="&#x208e;" horiz-adv-x="224" 
d="M14 -200h-74c79 109 129 237 129 362c0 59 -6 109 -19 161h65c20 -57 31 -114 31 -174c0 -117 -47 -236 -132 -349z" />
    <glyph glyph-name="bracketleft.subs" horiz-adv-x="241" 
d="M110 -200h-138l109 523h139l-12 -58h-67l-85 -407h67z" />
    <glyph glyph-name="bracketright.subs" horiz-adv-x="239" 
d="M-61 -200l12 58h66l85 407h-66l12 58h139l-110 -523h-138z" />
    <glyph glyph-name="uni208A" unicode="&#x208a;" horiz-adv-x="392" 
d="M194 235v-120h119v-67h-119v-119h-68v119h-120v67h120v120h68z" />
    <glyph glyph-name="uni208B" unicode="&#x208b;" horiz-adv-x="414" 
d="M17 47v66h301v-66h-301z" />
    <glyph glyph-name="uni208C" unicode="&#x208c;" horiz-adv-x="431" 
d="M23 117v66h301v-66h-301zM23 -24v67h301v-67h-301z" />
    <glyph glyph-name="period.subs" horiz-adv-x="188" 
d="M76 -41l-18 -87h-89l18 87h89z" />
    <glyph glyph-name="comma.subs" horiz-adv-x="188" 
d="M-31 -128l18 86h89l-16 -78c-7 -36 -16 -52 -31 -67c-19 -21 -47 -35 -82 -40l9 42c27 4 52 25 55 57h-42z" />
    <glyph glyph-name="a.sups" horiz-adv-x="352" 
d="M186 606h-71c15 71 67 100 143 100c77 0 120 -31 120 -90c0 -17 -1 -29 -6 -49l-26 -131c-2 -10 -3 -18 -3 -25s0 -13 3 -18l-1 -2h-73l4 26h-1c-15 -13 -39 -34 -92 -34c-64 0 -105 36 -105 87c0 47 28 73 69 89c31 12 70 19 110 24l14 2c23 3 31 12 31 29
c0 21 -17 36 -52 36c-32 0 -55 -13 -64 -44zM207 442c27 0 55 10 70 38c2 3 4 12 7 26l9 38c-9 -5 -21 -10 -44 -15l-23 -5c-25 -5 -43 -10 -54 -19c-8 -6 -12 -15 -12 -28c0 -23 18 -35 47 -35z" />
    <glyph glyph-name="b.sups" horiz-adv-x="388" 
d="M251 811l-20 -94c-3 -15 -7 -33 -12 -52c19 23 48 41 89 41c63 0 113 -47 113 -130c0 -112 -72 -193 -167 -193c-45 0 -75 18 -87 34h-1l-5 -26h-78l89 420h79zM250 444c29 0 52 13 68 39c16 25 24 55 24 88c0 45 -21 73 -60 73c-68 0 -94 -73 -94 -131
c0 -41 29 -69 62 -69z" />
    <glyph glyph-name="c.sups" horiz-adv-x="354" 
d="M384 498c-20 -65 -76 -112 -153 -112c-81 0 -138 50 -138 139c0 100 63 184 169 184c75 0 127 -41 132 -112h-76c-6 34 -26 51 -59 51c-60 0 -86 -66 -86 -126c0 -49 24 -74 63 -74c35 0 56 21 69 50h79z" />
    <glyph glyph-name="d.sups" horiz-adv-x="391" 
d="M366 392h-76l7 36c-17 -21 -49 -42 -92 -42c-67 0 -113 54 -113 131c0 110 76 192 165 192c47 0 78 -19 90 -36l29 138h79zM263 648c-29 0 -52 -13 -68 -39c-15 -25 -23 -55 -23 -88c0 -45 20 -73 59 -73c68 0 94 71 94 129c0 43 -27 71 -62 71z" />
    <glyph glyph-name="e.sups" horiz-adv-x="368" 
d="M397 526h-228v-5c0 -48 29 -73 68 -73c31 0 53 14 66 35h84c-25 -57 -78 -97 -153 -97c-84 0 -142 53 -142 138c0 104 68 185 169 185c96 0 139 -62 139 -149c0 -11 -1 -23 -3 -34zM257 651c-41 0 -72 -28 -80 -71h146c-1 48 -27 71 -66 71z" />
    <glyph glyph-name="f.sups" horiz-adv-x="228" 
d="M124 700h41l6 29c16 77 46 82 122 82h32l-13 -58h-19c-19 0 -27 -3 -34 -10c-9 -9 -11 -19 -14 -32l-2 -11h57l-12 -55h-56l-54 -254h-78l54 254h-41z" />
    <glyph glyph-name="g.sups" horiz-adv-x="387" 
d="M292 427l6 25h-2c-15 -20 -42 -38 -86 -38c-29 0 -56 10 -79 31c-23 20 -35 51 -35 93c0 98 69 170 157 170c47 0 76 -21 88 -36h1l6 28h78l-60 -294c-17 -85 -70 -124 -161 -124c-81 0 -132 34 -131 97h80c2 -25 21 -38 58 -38c43 0 69 25 78 75zM262 646
c-55 0 -87 -48 -87 -105c0 -44 20 -66 60 -66c56 0 89 48 89 105c0 44 -23 66 -62 66z" />
    <glyph glyph-name="h.sups" horiz-adv-x="382" 
d="M173 811h79l-20 -92l-12 -54c17 23 49 41 90 41c63 0 95 -36 95 -89c0 -15 -2 -31 -6 -49l-38 -177h-79l35 164c3 15 5 27 5 40c0 27 -15 46 -48 46c-21 0 -37 -9 -49 -21c-13 -15 -20 -36 -27 -60l-36 -169h-79z" />
    <glyph glyph-name="uni2071" unicode="&#x2071;" horiz-adv-x="188" 
d="M157 742l15 69h79l-15 -69h-79zM84 391l65 309h79l-65 -309h-79z" />
    <glyph glyph-name="j.sups" horiz-adv-x="197" 
d="M166 742l14 69h79l-14 -69h-79zM158 700h79l-68 -325c-5 -24 -11 -46 -28 -63c-24 -24 -56 -25 -107 -25h-13l12 58h6c20 0 31 1 40 10c6 6 11 17 14 34z" />
    <glyph glyph-name="k.sups" horiz-adv-x="358" 
d="M84 391l88 420h79l-33 -157l-15 -71l133 117h98l-144 -121l86 -188h-88l-59 139l-45 -37l-22 -102h-78z" />
    <glyph glyph-name="l.sups" horiz-adv-x="188" 
d="M84 391l88 420h79l-88 -420h-79z" />
    <glyph glyph-name="m.sups" horiz-adv-x="570" 
d="M465 641c-21 0 -36 -9 -47 -21c-13 -15 -22 -37 -27 -61l-36 -168h-79l35 164c3 15 6 27 6 40c0 27 -13 46 -46 46c-21 0 -35 -9 -47 -21c-13 -15 -20 -37 -27 -61l-35 -168h-79l66 309h76l-9 -37h1c16 23 45 43 90 43c41 0 69 -15 83 -46h1c17 23 54 46 107 46
c65 0 95 -36 95 -89c0 -16 -3 -31 -6 -48l-38 -178h-79l35 164c3 15 5 27 5 40c0 27 -13 46 -45 46z" />
    <glyph glyph-name="uni207F" unicode="&#x207f;" horiz-adv-x="383" 
d="M275 645c-21 0 -37 -10 -49 -22c-13 -15 -22 -36 -27 -60l-36 -172h-79l65 309h76l-7 -34c17 23 48 43 93 43c63 0 95 -36 95 -89c0 -15 -2 -31 -6 -49l-38 -180h-79l35 167c3 15 5 27 5 40c0 27 -15 47 -48 47z" />
    <glyph glyph-name="o.sups" horiz-adv-x="371" 
d="M233 386c-83 0 -141 52 -141 136c0 102 64 187 172 187c85 0 140 -52 140 -135c0 -101 -62 -188 -171 -188zM260 648c-61 0 -88 -66 -88 -126c0 -49 27 -74 64 -74c62 0 89 67 89 126c0 51 -26 74 -65 74z" />
    <glyph glyph-name="p.sups" horiz-adv-x="390" 
d="M62 286l87 414h76l-8 -34h1c19 23 49 44 92 44c63 0 113 -47 113 -132c0 -110 -72 -192 -168 -192c-45 0 -75 18 -87 34l-27 -134h-79zM251 448c30 0 53 13 68 38c16 25 24 54 24 87c0 47 -20 75 -60 75c-66 0 -93 -72 -93 -131c0 -41 28 -69 61 -69z" />
    <glyph glyph-name="q.sups" horiz-adv-x="392" 
d="M431 700l-87 -416h-78l18 92c3 17 5 26 12 51h-1c-17 -21 -46 -41 -89 -41c-68 0 -114 54 -114 131c0 112 77 193 165 193c47 0 77 -19 89 -36h2l5 26h78zM264 648c-30 0 -53 -13 -69 -39c-15 -25 -23 -55 -23 -88c0 -45 21 -73 60 -73c68 0 94 73 94 130
c0 43 -27 70 -62 70z" />
    <glyph glyph-name="r.sups" horiz-adv-x="236" 
d="M217 660h1c12 27 42 48 91 48h7l-16 -75c-5 0 -12 1 -19 1c-47 0 -72 -25 -85 -82l-34 -161h-78l65 309h76z" />
    <glyph glyph-name="s.sups" horiz-adv-x="338" 
d="M371 608h-75c0 27 -18 45 -57 45c-33 0 -49 -12 -49 -31c0 -16 12 -24 41 -33l40 -12c47 -15 86 -33 86 -88c0 -75 -71 -103 -143 -103c-67 0 -138 24 -134 108h78c-4 -37 31 -52 60 -52c28 0 57 11 57 38c0 21 -18 28 -45 37l-44 15c-48 16 -74 33 -74 81
c0 64 61 96 130 96s131 -23 129 -101z" />
    <glyph glyph-name="t.sups" horiz-adv-x="235" 
d="M113 645l12 55h40l20 94h78l-20 -94h55l-12 -55h-55l-31 -151c-1 -12 -4 -18 -4 -25c0 -9 3 -14 10 -17c5 -2 14 -3 25 -3h15l-12 -58h-34c-29 0 -47 1 -62 6c-17 6 -26 19 -26 39c0 11 3 25 6 41l35 168h-40z" />
    <glyph glyph-name="u.sups" horiz-adv-x="381" 
d="M231 448c23 0 36 8 48 21c13 15 22 35 27 60l36 171h79l-66 -309h-76l8 35c-17 -21 -47 -43 -92 -43c-61 0 -94 36 -94 89c0 15 2 31 6 49l38 179h79l-35 -166c-3 -13 -6 -27 -6 -40c0 -27 15 -46 48 -46z" />
    <glyph glyph-name="v.sups" horiz-adv-x="328" 
d="M154 391l-43 309h78l16 -161c3 -21 5 -43 6 -62h1c7 17 17 37 28 59l82 164h83l-171 -309h-80z" />
    <glyph glyph-name="w.sups" horiz-adv-x="498" 
d="M114 700h79l6 -157c1 -20 2 -51 2 -64h2c4 11 19 41 28 62l72 159h79l7 -159l3 -61h1c8 19 19 40 28 61l72 159h81l-161 -309h-80l-7 143c-1 23 -2 50 -2 67h-1c-9 -17 -17 -40 -29 -67l-68 -143h-83z" />
    <glyph glyph-name="x.sups" horiz-adv-x="338" 
d="M409 700l-135 -149l82 -160h-83l-50 103l-87 -103h-91l146 164l-76 145h84l43 -91l76 91h91z" />
    <glyph glyph-name="y.sups" horiz-adv-x="329" 
d="M113 700h79l12 -140c3 -29 6 -61 7 -88h1c13 31 30 63 41 84l72 144h83l-194 -345c-33 -59 -62 -69 -121 -69h-43l13 60h20c55 0 68 19 68 55c0 12 -1 27 -4 44z" />
    <glyph glyph-name="z.sups" horiz-adv-x="328" 
d="M61 391l13 61l153 144c19 17 27 25 47 42v1c-13 -1 -35 -1 -46 -1h-110l13 62h254l-13 -61l-143 -130c-27 -25 -44 -43 -59 -56h171l-13 -62h-267z" />
    <glyph glyph-name="uni2070" unicode="&#x2070;" horiz-adv-x="404" 
d="M240 386c-88 0 -135 62 -135 151c0 116 63 278 203 278c88 0 138 -58 138 -151c0 -117 -65 -278 -206 -278zM247 452c84 0 115 146 115 217c0 43 -16 79 -60 79c-80 0 -114 -134 -114 -208c0 -47 10 -88 59 -88z" />
    <glyph glyph-name="onesuperior" unicode="&#xb9;" horiz-adv-x="273" 
d="M108 680l13 57c71 1 119 23 136 74h68l-89 -420h-80l61 289h-109z" />
    <glyph glyph-name="twosuperior" unicode="&#xb2;" horiz-adv-x="387" 
d="M207 657h-81c8 99 71 158 166 158c84 0 140 -43 140 -119c0 -69 -51 -117 -115 -152l-44 -24c-35 -19 -76 -39 -89 -62h213l-14 -67h-308c6 100 76 138 147 179l43 24c45 25 84 48 84 96c0 32 -23 55 -63 55c-53 0 -76 -39 -79 -88z" />
    <glyph glyph-name="threesuperior" unicode="&#xb3;" horiz-adv-x="389" 
d="M354 611v-2c35 -13 53 -47 53 -84c0 -92 -72 -139 -164 -139c-97 0 -161 51 -149 152h74c-1 -4 -1 -8 -1 -11c0 -48 26 -77 75 -77c47 0 81 27 81 75c0 39 -27 58 -70 58h-26l12 57h27c37 0 85 12 85 61c0 35 -31 49 -64 49c-47 0 -74 -25 -80 -74h-76
c7 87 73 139 162 139c75 0 135 -32 135 -105c0 -51 -29 -84 -74 -99z" />
    <glyph glyph-name="uni2074" unicode="&#x2074;" horiz-adv-x="388" 
d="M250 391l19 90h-198l16 76l245 254h83l-56 -265h61l-13 -65h-62l-19 -90h-76zM322 718h-2c-19 -23 -39 -48 -70 -80l-48 -49c-23 -24 -41 -39 -44 -42v-2c15 0 46 1 75 1h49l19 80c9 39 16 73 21 92z" />
    <glyph glyph-name="uni2075" unicode="&#x2075;" horiz-adv-x="400" 
d="M111 581l79 230h266l-13 -63h-199l-32 -87c19 12 45 18 76 18c79 0 140 -49 140 -126c0 -104 -73 -167 -182 -167c-93 0 -157 46 -161 134h82c4 -39 33 -71 85 -71c60 0 94 41 94 94c0 49 -34 77 -85 77c-44 0 -67 -20 -78 -39h-72z" />
    <glyph glyph-name="uni2076" unicode="&#x2076;" horiz-adv-x="397" 
d="M442 710l-76 -1c-5 27 -28 42 -61 42c-62 0 -94 -60 -106 -108h2c13 15 44 34 91 34c72 0 128 -46 128 -129c0 -90 -69 -162 -165 -162c-53 0 -97 18 -120 53c-18 27 -27 64 -27 109c0 137 77 269 201 269c71 0 128 -34 133 -107zM259 450c53 0 85 42 85 91
c0 51 -31 73 -76 73c-53 0 -85 -40 -85 -89c0 -52 31 -75 76 -75z" />
    <glyph glyph-name="uni2077" unicode="&#x2077;" horiz-adv-x="353" 
d="M122 744l14 67h320l-13 -62c-97 -71 -207 -227 -236 -358h-86c35 127 117 257 230 353h-229z" />
    <glyph glyph-name="uni2078" unicode="&#x2078;" horiz-adv-x="422" 
d="M383 613v-2c32 -17 58 -53 58 -92c0 -89 -83 -133 -184 -133c-97 0 -165 48 -165 120c0 60 43 97 103 114v2c-27 15 -47 42 -47 79c0 72 61 115 160 115c88 0 153 -43 153 -107c0 -41 -31 -81 -78 -96zM307 757c-49 0 -81 -20 -81 -59c0 -37 36 -57 77 -57
c43 0 79 22 79 59c0 35 -30 57 -75 57zM268 585c-49 0 -95 -25 -95 -70c0 -41 36 -68 91 -68c59 0 96 27 96 72s-45 66 -92 66z" />
    <glyph glyph-name="uni2079" unicode="&#x2079;" horiz-adv-x="396" 
d="M102 493l76 1c5 -25 28 -42 61 -42c63 0 94 60 106 108h-2c-13 -13 -44 -34 -91 -34c-72 0 -128 46 -128 129c0 91 70 162 165 162c55 0 97 -18 120 -53c18 -27 27 -63 27 -109c0 -137 -77 -269 -201 -269c-71 0 -128 34 -133 107zM285 753c-53 0 -85 -40 -85 -91
c0 -49 31 -73 76 -73c55 0 85 40 85 89c0 52 -31 75 -76 75z" />
    <glyph glyph-name="uni207D" unicode="&#x207d;" horiz-adv-x="223" 
d="M237 842h74c-80 -109 -129 -240 -129 -367c0 -55 6 -107 19 -156h-65c-19 56 -31 110 -31 169c0 120 47 239 132 354z" />
    <glyph glyph-name="uni207E" unicode="&#x207e;" horiz-adv-x="224" 
d="M124 319h-74c79 109 129 237 129 362c0 59 -6 109 -19 161h65c20 -57 31 -114 31 -174c0 -117 -47 -236 -132 -349z" />
    <glyph glyph-name="bracketleft.sups" horiz-adv-x="241" 
d="M220 319h-138l109 523h139l-12 -58h-67l-85 -407h67z" />
    <glyph glyph-name="bracketright.sups" horiz-adv-x="239" 
d="M49 319l12 58h66l85 407h-66l12 58h139l-110 -523h-138z" />
    <glyph glyph-name="uni207A" unicode="&#x207a;" horiz-adv-x="392" 
d="M304 754v-120h119v-67h-119v-119h-68v119h-120v67h120v120h68z" />
    <glyph glyph-name="uni207B" unicode="&#x207b;" horiz-adv-x="414" 
d="M128 566v66h301v-66h-301z" />
    <glyph glyph-name="uni207C" unicode="&#x207c;" horiz-adv-x="431" 
d="M134 636v66h301v-66h-301zM134 495v67h301v-67h-301z" />
    <glyph glyph-name="period.sups" horiz-adv-x="188" 
d="M187 478l-18 -87h-89l18 87h89z" />
    <glyph glyph-name="comma.sups" horiz-adv-x="188" 
d="M80 391l18 86h89l-16 -78c-7 -36 -16 -52 -31 -67c-19 -21 -47 -35 -82 -40l9 42c27 4 52 25 55 57h-42z" />
    <glyph glyph-name="a.dnom" horiz-adv-x="352" 
d="M103 215h-71c15 71 67 100 143 100c77 0 120 -31 120 -90c0 -17 -1 -29 -6 -49l-26 -131c-2 -10 -3 -18 -3 -25s0 -13 3 -18l-1 -2h-73l4 26h-1c-15 -13 -39 -34 -92 -34c-64 0 -105 36 -105 87c0 47 28 73 69 89c31 12 70 19 110 24l14 2c23 3 31 12 31 29
c0 21 -17 36 -52 36c-32 0 -55 -13 -64 -44zM124 51c27 0 55 10 70 38c2 3 4 12 7 26l9 38c-9 -5 -21 -10 -44 -15l-23 -5c-25 -5 -43 -10 -54 -19c-8 -6 -12 -15 -12 -28c0 -23 18 -35 47 -35z" />
    <glyph glyph-name="b.dnom" horiz-adv-x="388" 
d="M175 420l-20 -94c-3 -15 -7 -33 -12 -52c19 23 48 41 89 41c63 0 113 -47 113 -130c0 -112 -72 -193 -167 -193c-45 0 -75 18 -87 34h-1l-5 -26h-78l89 420h79zM174 53c29 0 52 13 68 39c16 25 24 55 24 88c0 45 -21 73 -60 73c-68 0 -94 -73 -94 -131
c0 -41 29 -69 62 -69z" />
    <glyph glyph-name="c.dnom" horiz-adv-x="354" 
d="M302 107c-20 -65 -76 -112 -153 -112c-81 0 -138 50 -138 139c0 100 63 184 169 184c75 0 127 -41 132 -112h-76c-6 34 -26 51 -59 51c-60 0 -86 -66 -86 -126c0 -49 24 -74 63 -74c35 0 56 21 69 50h79z" />
    <glyph glyph-name="d.dnom" horiz-adv-x="391" 
d="M277 1h-76l7 36c-17 -21 -49 -42 -92 -42c-67 0 -113 54 -113 131c0 110 76 192 165 192c47 0 78 -19 90 -36l29 138h79zM174 257c-29 0 -52 -13 -68 -39c-15 -25 -23 -55 -23 -88c0 -45 20 -73 59 -73c68 0 94 71 94 129c0 43 -27 71 -62 71z" />
    <glyph glyph-name="e.dnom" horiz-adv-x="368" 
d="M314 135h-228v-5c0 -48 29 -73 68 -73c31 0 53 14 66 35h84c-25 -57 -78 -97 -153 -97c-84 0 -142 53 -142 138c0 104 68 185 169 185c96 0 139 -62 139 -149c0 -11 -1 -23 -3 -34zM174 260c-41 0 -72 -28 -80 -71h146c-1 48 -27 71 -66 71z" />
    <glyph glyph-name="f.dnom" horiz-adv-x="228" 
d="M35 309h41l6 29c16 77 46 82 122 82h32l-13 -58h-19c-19 0 -27 -3 -34 -10c-9 -9 -11 -19 -14 -32l-2 -11h57l-12 -55h-56l-54 -254h-78l54 254h-41z" />
    <glyph glyph-name="g.dnom" horiz-adv-x="387" 
d="M208 36l6 25h-2c-15 -20 -42 -38 -86 -38c-29 0 -56 10 -79 31c-23 20 -35 51 -35 93c0 98 69 170 157 170c47 0 76 -21 88 -36h1l6 28h78l-60 -294c-17 -85 -70 -124 -161 -124c-81 0 -132 34 -131 97h80c2 -25 21 -38 58 -38c43 0 69 25 78 75zM178 255
c-55 0 -87 -48 -87 -105c0 -44 20 -66 60 -66c56 0 89 48 89 105c0 44 -23 66 -62 66z" />
    <glyph glyph-name="h.dnom" horiz-adv-x="382" 
d="M91 420h79l-20 -92l-12 -54c17 23 49 41 90 41c63 0 95 -36 95 -89c0 -15 -2 -31 -6 -49l-38 -177h-79l35 164c3 15 5 27 5 40c0 27 -15 46 -48 46c-21 0 -37 -9 -49 -21c-13 -15 -20 -36 -27 -60l-36 -169h-79z" />
    <glyph glyph-name="i.dnom" horiz-adv-x="188" 
d="M74 351l15 69h79l-15 -69h-79zM1 0l65 309h79l-65 -309h-79z" />
    <glyph glyph-name="j.dnom" horiz-adv-x="197" 
d="M83 351l14 69h79l-14 -69h-79zM75 309h79l-68 -325c-5 -24 -11 -46 -28 -63c-24 -24 -56 -25 -107 -25h-13l12 58h6c20 0 31 1 40 10c6 6 11 17 14 34z" />
    <glyph glyph-name="k.dnom" horiz-adv-x="358" 
d="M2 0l88 420h79l-33 -157l-15 -71l133 117h98l-144 -121l86 -188h-88l-59 139l-45 -37l-22 -102h-78z" />
    <glyph glyph-name="l.dnom" horiz-adv-x="188" 
d="M1 0l88 420h79l-88 -420h-79z" />
    <glyph glyph-name="m.dnom" horiz-adv-x="570" 
d="M382 250c-21 0 -36 -9 -47 -21c-13 -15 -22 -37 -27 -61l-36 -168h-79l35 164c3 15 6 27 6 40c0 27 -13 46 -46 46c-21 0 -35 -9 -47 -21c-13 -15 -20 -37 -27 -61l-35 -168h-79l66 309h76l-9 -37h1c16 23 45 43 90 43c41 0 69 -15 83 -46h1c17 23 54 46 107 46
c65 0 95 -36 95 -89c0 -16 -3 -31 -6 -48l-38 -178h-79l35 164c3 15 5 27 5 40c0 27 -13 46 -45 46z" />
    <glyph glyph-name="n.dnom" horiz-adv-x="383" 
d="M192 254c-21 0 -37 -10 -49 -22c-13 -15 -22 -36 -27 -60l-36 -172h-79l65 309h76l-7 -34c17 23 48 43 93 43c63 0 95 -36 95 -89c0 -15 -2 -31 -6 -49l-38 -180h-79l35 167c3 15 5 27 5 40c0 27 -15 47 -48 47z" />
    <glyph glyph-name="o.dnom" horiz-adv-x="371" 
d="M150 -5c-83 0 -141 52 -141 136c0 102 64 187 172 187c85 0 140 -52 140 -135c0 -101 -62 -188 -171 -188zM177 257c-61 0 -88 -66 -88 -126c0 -49 27 -74 64 -74c62 0 89 67 89 126c0 51 -26 74 -65 74z" />
    <glyph glyph-name="p.dnom" horiz-adv-x="390" 
d="M-21 -105l87 414h76l-8 -34h1c19 23 49 44 92 44c63 0 113 -47 113 -132c0 -110 -72 -192 -168 -192c-45 0 -75 18 -87 34l-27 -134h-79zM168 57c30 0 53 13 68 38c16 25 24 54 24 87c0 47 -20 75 -60 75c-66 0 -93 -72 -93 -131c0 -41 28 -69 61 -69z" />
    <glyph glyph-name="q.dnom" horiz-adv-x="392" 
d="M347 309l-87 -416h-78l18 92c3 17 5 26 12 51h-1c-17 -21 -46 -41 -89 -41c-68 0 -114 54 -114 131c0 112 77 193 165 193c47 0 77 -19 89 -36h2l5 26h78zM180 257c-30 0 -53 -13 -69 -39c-15 -25 -23 -55 -23 -88c0 -45 21 -73 60 -73c68 0 94 73 94 130
c0 43 -27 70 -62 70z" />
    <glyph glyph-name="r.dnom" horiz-adv-x="236" 
d="M133 269h1c12 27 42 48 91 48h7l-16 -75c-5 0 -12 1 -19 1c-47 0 -72 -25 -85 -82l-34 -161h-78l65 309h76z" />
    <glyph glyph-name="s.dnom" horiz-adv-x="338" 
d="M288 217h-75c0 27 -18 45 -57 45c-33 0 -49 -12 -49 -31c0 -16 12 -24 41 -33l40 -12c47 -15 86 -33 86 -88c0 -75 -71 -103 -143 -103c-67 0 -138 24 -134 108h78c-4 -37 31 -52 60 -52c28 0 57 11 57 38c0 21 -18 28 -45 37l-44 15c-48 16 -74 33 -74 81
c0 64 61 96 130 96s131 -23 129 -101z" />
    <glyph glyph-name="t.dnom" horiz-adv-x="235" 
d="M30 254l12 55h40l20 94h78l-20 -94h55l-12 -55h-55l-31 -151c-1 -12 -4 -18 -4 -25c0 -9 3 -14 10 -17c5 -2 14 -3 25 -3h15l-12 -58h-34c-29 0 -47 1 -62 6c-17 6 -26 19 -26 39c0 11 3 25 6 41l35 168h-40z" />
    <glyph glyph-name="u.dnom" horiz-adv-x="381" 
d="M148 57c23 0 36 8 48 21c13 15 22 35 27 60l36 171h79l-66 -309h-76l8 35c-17 -21 -47 -43 -92 -43c-61 0 -94 36 -94 89c0 15 2 31 6 49l38 179h79l-35 -166c-3 -13 -6 -27 -6 -40c0 -27 15 -46 48 -46z" />
    <glyph glyph-name="v.dnom" horiz-adv-x="328" 
d="M71 0l-43 309h78l16 -161c3 -21 5 -43 6 -62h1c7 17 17 37 28 59l82 164h83l-171 -309h-80z" />
    <glyph glyph-name="w.dnom" horiz-adv-x="498" 
d="M31 309h79l6 -157c1 -20 2 -51 2 -64h2c4 11 19 41 28 62l72 159h79l7 -159l3 -61h1c8 19 19 40 28 61l72 159h81l-161 -309h-80l-7 143c-1 23 -2 50 -2 67h-1c-9 -17 -17 -40 -29 -67l-68 -143h-83z" />
    <glyph glyph-name="x.dnom" horiz-adv-x="338" 
d="M326 309l-135 -149l82 -160h-83l-50 103l-87 -103h-91l146 164l-76 145h84l43 -91l76 91h91z" />
    <glyph glyph-name="y.dnom" horiz-adv-x="329" 
d="M29 309h79l12 -140c3 -29 6 -61 7 -88h1c13 31 30 63 41 84l72 144h83l-194 -345c-33 -59 -62 -69 -121 -69h-43l13 60h20c55 0 68 19 68 55c0 12 -1 27 -4 44z" />
    <glyph glyph-name="z.dnom" horiz-adv-x="328" 
d="M-21 0l13 61l153 144c19 17 27 25 47 42v1c-13 -1 -35 -1 -46 -1h-110l13 62h254l-13 -61l-143 -130c-27 -25 -44 -43 -59 -56h171l-13 -62h-267z" />
    <glyph glyph-name="zero.dnom" horiz-adv-x="404" 
d="M157 -5c-88 0 -135 62 -135 151c0 116 63 278 203 278c88 0 138 -58 138 -151c0 -117 -65 -278 -206 -278zM164 61c84 0 115 146 115 217c0 43 -16 79 -60 79c-80 0 -114 -134 -114 -208c0 -47 10 -88 59 -88z" />
    <glyph glyph-name="one.dnom" horiz-adv-x="273" 
d="M24 289l13 57c71 1 119 23 136 74h68l-89 -420h-80l61 289h-109z" />
    <glyph glyph-name="two.dnom" horiz-adv-x="387" 
d="M124 266h-81c8 99 71 158 166 158c84 0 140 -43 140 -119c0 -69 -51 -117 -115 -152l-44 -24c-35 -19 -76 -39 -89 -62h213l-14 -67h-308c6 100 76 138 147 179l43 24c45 25 84 48 84 96c0 32 -23 55 -63 55c-53 0 -76 -39 -79 -88z" />
    <glyph glyph-name="three.dnom" horiz-adv-x="389" 
d="M271 220v-2c35 -13 53 -47 53 -84c0 -92 -72 -139 -164 -139c-97 0 -161 51 -149 152h74c-1 -4 -1 -8 -1 -11c0 -48 26 -77 75 -77c47 0 81 27 81 75c0 39 -27 58 -70 58h-26l12 57h27c37 0 85 12 85 61c0 35 -31 49 -64 49c-47 0 -74 -25 -80 -74h-76
c7 87 73 139 162 139c75 0 135 -32 135 -105c0 -51 -29 -84 -74 -99z" />
    <glyph glyph-name="four.dnom" horiz-adv-x="388" 
d="M167 0l19 90h-198l16 76l245 254h83l-56 -265h61l-13 -65h-62l-19 -90h-76zM239 327h-2c-19 -23 -39 -48 -70 -80l-48 -49c-23 -24 -41 -39 -44 -42v-2c15 0 46 1 75 1h49l19 80c9 39 16 73 21 92z" />
    <glyph glyph-name="five.dnom" horiz-adv-x="400" 
d="M28 190l79 230h266l-13 -63h-199l-32 -87c19 12 45 18 76 18c79 0 140 -49 140 -126c0 -104 -73 -167 -182 -167c-93 0 -157 46 -161 134h82c4 -39 33 -71 85 -71c60 0 94 41 94 94c0 49 -34 77 -85 77c-44 0 -67 -20 -78 -39h-72z" />
    <glyph glyph-name="six.dnom" horiz-adv-x="397" 
d="M359 319l-76 -1c-5 27 -28 42 -61 42c-62 0 -94 -60 -106 -108h2c13 15 44 34 91 34c72 0 128 -46 128 -129c0 -90 -69 -162 -165 -162c-53 0 -97 18 -120 53c-18 27 -27 64 -27 109c0 137 77 269 201 269c71 0 128 -34 133 -107zM176 59c53 0 85 42 85 91
c0 51 -31 73 -76 73c-53 0 -85 -40 -85 -89c0 -52 31 -75 76 -75z" />
    <glyph glyph-name="seven.dnom" horiz-adv-x="353" 
d="M38 353l14 67h320l-13 -62c-97 -71 -207 -227 -236 -358h-86c35 127 117 257 230 353h-229z" />
    <glyph glyph-name="eight.dnom" horiz-adv-x="422" 
d="M300 222v-2c32 -17 58 -53 58 -92c0 -89 -83 -133 -184 -133c-97 0 -165 48 -165 120c0 60 43 97 103 114v2c-27 15 -47 42 -47 79c0 72 61 115 160 115c88 0 153 -43 153 -107c0 -41 -31 -81 -78 -96zM224 366c-49 0 -81 -20 -81 -59c0 -37 36 -57 77 -57
c43 0 79 22 79 59c0 35 -30 57 -75 57zM185 194c-49 0 -95 -25 -95 -70c0 -41 36 -68 91 -68c59 0 96 27 96 72s-45 66 -92 66z" />
    <glyph glyph-name="nine.dnom" horiz-adv-x="396" 
d="M19 102l76 1c5 -25 28 -42 61 -42c63 0 94 60 106 108h-2c-13 -13 -44 -34 -91 -34c-72 0 -128 46 -128 129c0 91 70 162 165 162c55 0 97 -18 120 -53c18 -27 27 -63 27 -109c0 -137 -77 -269 -201 -269c-71 0 -128 34 -133 107zM202 362c-53 0 -85 -40 -85 -91
c0 -49 31 -73 76 -73c55 0 85 40 85 89c0 52 -31 75 -76 75z" />
    <glyph glyph-name="parenleft.dnom" horiz-adv-x="223" 
d="M154 451h74c-80 -109 -129 -240 -129 -367c0 -55 6 -107 19 -156h-65c-19 56 -31 110 -31 169c0 120 47 239 132 354z" />
    <glyph glyph-name="parenright.dnom" horiz-adv-x="224" 
d="M42 -72h-74c79 109 129 237 129 362c0 59 -6 109 -19 161h65c20 -57 31 -114 31 -174c0 -117 -47 -236 -132 -349z" />
    <glyph glyph-name="bracketleft.dnom" horiz-adv-x="241" 
d="M137 -72h-138l109 523h139l-12 -58h-67l-85 -407h67z" />
    <glyph glyph-name="bracketright.dnom" horiz-adv-x="239" 
d="M-34 -72l12 58h66l85 407h-66l12 58h139l-110 -523h-138z" />
    <glyph glyph-name="plus.dnom" horiz-adv-x="392" 
d="M221 363v-120h119v-67h-119v-119h-68v119h-120v67h120v120h68z" />
    <glyph glyph-name="minus.dnom" horiz-adv-x="414" 
d="M47 175v66h301v-66h-301z" />
    <glyph glyph-name="equal.dnom" horiz-adv-x="431" 
d="M55 245v66h301v-66h-301zM55 104v67h301v-67h-301z" />
    <glyph glyph-name="period.dnom" horiz-adv-x="188" 
d="M104 87l-18 -87h-89l18 87h89z" />
    <glyph glyph-name="comma.dnom" horiz-adv-x="188" 
d="M-3 0l18 86h89l-16 -78c-7 -36 -16 -52 -31 -67c-19 -21 -47 -35 -82 -40l9 42c27 4 52 25 55 57h-42z" />
    <glyph glyph-name="a.numr" horiz-adv-x="352" 
d="M162 495h-71c15 71 67 100 143 100c77 0 120 -31 120 -90c0 -17 -1 -29 -6 -49l-26 -131c-2 -10 -3 -18 -3 -25s0 -13 3 -18l-1 -2h-73l4 26h-1c-15 -13 -39 -34 -92 -34c-64 0 -105 36 -105 87c0 47 28 73 69 89c31 12 70 19 110 24l14 2c23 3 31 12 31 29
c0 21 -17 36 -52 36c-32 0 -55 -13 -64 -44zM183 331c27 0 55 10 70 38c2 3 4 12 7 26l9 38c-9 -5 -21 -10 -44 -15l-23 -5c-25 -5 -43 -10 -54 -19c-8 -6 -12 -15 -12 -28c0 -23 18 -35 47 -35z" />
    <glyph glyph-name="b.numr" horiz-adv-x="388" 
d="M234 700l-20 -94c-3 -15 -7 -33 -12 -52c19 23 48 41 89 41c63 0 113 -47 113 -130c0 -112 -72 -193 -167 -193c-45 0 -75 18 -87 34h-1l-5 -26h-78l89 420h79zM233 333c29 0 52 13 68 39c16 25 24 55 24 88c0 45 -21 73 -60 73c-68 0 -94 -73 -94 -131
c0 -41 29 -69 62 -69z" />
    <glyph glyph-name="c.numr" horiz-adv-x="354" 
d="M362 387c-20 -65 -76 -112 -153 -112c-81 0 -138 50 -138 139c0 100 63 184 169 184c75 0 127 -41 132 -112h-76c-6 34 -26 51 -59 51c-60 0 -86 -66 -86 -126c0 -49 24 -74 63 -74c35 0 56 21 69 50h79z" />
    <glyph glyph-name="d.numr" horiz-adv-x="391" 
d="M336 281h-76l7 36c-17 -21 -49 -42 -92 -42c-67 0 -113 54 -113 131c0 110 76 192 165 192c47 0 78 -19 90 -36l29 138h79zM233 537c-29 0 -52 -13 -68 -39c-15 -25 -23 -55 -23 -88c0 -45 20 -73 59 -73c68 0 94 71 94 129c0 43 -27 71 -62 71z" />
    <glyph glyph-name="e.numr" horiz-adv-x="368" 
d="M373 415h-228v-5c0 -48 29 -73 68 -73c31 0 53 14 66 35h84c-25 -57 -78 -97 -153 -97c-84 0 -142 53 -142 138c0 104 68 185 169 185c96 0 139 -62 139 -149c0 -11 -1 -23 -3 -34zM233 540c-41 0 -72 -28 -80 -71h146c-1 48 -27 71 -66 71z" />
    <glyph glyph-name="f.numr" horiz-adv-x="228" 
d="M94 589h41l6 29c16 77 46 82 122 82h32l-13 -58h-19c-19 0 -27 -3 -34 -10c-9 -9 -11 -19 -14 -32l-2 -11h57l-12 -55h-56l-54 -254h-78l54 254h-41z" />
    <glyph glyph-name="g.numr" horiz-adv-x="387" 
d="M268 316l6 25h-2c-15 -20 -42 -38 -86 -38c-29 0 -56 10 -79 31c-23 20 -35 51 -35 93c0 98 69 170 157 170c47 0 76 -21 88 -36h1l6 28h78l-60 -294c-17 -85 -70 -124 -161 -124c-81 0 -132 34 -131 97h80c2 -25 21 -38 58 -38c43 0 69 25 78 75zM238 535
c-55 0 -87 -48 -87 -105c0 -44 20 -66 60 -66c56 0 89 48 89 105c0 44 -23 66 -62 66z" />
    <glyph glyph-name="h.numr" horiz-adv-x="382" 
d="M150 700h79l-20 -92l-12 -54c17 23 49 41 90 41c63 0 95 -36 95 -89c0 -15 -2 -31 -6 -49l-38 -177h-79l35 164c3 15 5 27 5 40c0 27 -15 46 -48 46c-21 0 -37 -9 -49 -21c-13 -15 -20 -36 -27 -60l-36 -169h-79z" />
    <glyph glyph-name="i.numr" horiz-adv-x="188" 
d="M133 631l15 69h79l-15 -69h-79zM60 280l65 309h79l-65 -309h-79z" />
    <glyph glyph-name="j.numr" horiz-adv-x="197" 
d="M143 631l14 69h79l-14 -69h-79zM135 589h79l-68 -325c-5 -24 -11 -46 -28 -63c-24 -24 -56 -25 -107 -25h-13l12 58h6c20 0 31 1 40 10c6 6 11 17 14 34z" />
    <glyph glyph-name="k.numr" horiz-adv-x="358" 
d="M62 280l88 420h79l-33 -157l-15 -71l133 117h98l-144 -121l86 -188h-88l-59 139l-45 -37l-22 -102h-78z" />
    <glyph glyph-name="l.numr" horiz-adv-x="188" 
d="M61 280l88 420h79l-88 -420h-79z" />
    <glyph glyph-name="m.numr" horiz-adv-x="570" 
d="M442 530c-21 0 -36 -9 -47 -21c-13 -15 -22 -37 -27 -61l-36 -168h-79l35 164c3 15 6 27 6 40c0 27 -13 46 -46 46c-21 0 -35 -9 -47 -21c-13 -15 -20 -37 -27 -61l-35 -168h-79l66 309h76l-9 -37h1c16 23 45 43 90 43c41 0 69 -15 83 -46h1c17 23 54 46 107 46
c65 0 95 -36 95 -89c0 -16 -3 -31 -6 -48l-38 -178h-79l35 164c3 15 5 27 5 40c0 27 -13 46 -45 46z" />
    <glyph glyph-name="n.numr" horiz-adv-x="383" 
d="M251 534c-21 0 -37 -10 -49 -22c-13 -15 -22 -36 -27 -60l-36 -172h-79l65 309h76l-7 -34c17 23 48 43 93 43c63 0 95 -36 95 -89c0 -15 -2 -31 -6 -49l-38 -180h-79l35 167c3 15 5 27 5 40c0 27 -15 47 -48 47z" />
    <glyph glyph-name="o.numr" horiz-adv-x="371" 
d="M209 275c-83 0 -141 52 -141 136c0 102 64 187 172 187c85 0 140 -52 140 -135c0 -101 -62 -188 -171 -188zM236 537c-61 0 -88 -66 -88 -126c0 -49 27 -74 64 -74c62 0 89 67 89 126c0 51 -26 74 -65 74z" />
    <glyph glyph-name="p.numr" horiz-adv-x="390" 
d="M39 175l87 414h76l-8 -34h1c19 23 49 44 92 44c63 0 113 -47 113 -132c0 -110 -72 -192 -168 -192c-45 0 -75 18 -87 34l-27 -134h-79zM228 337c30 0 53 13 68 38c16 25 24 54 24 87c0 47 -20 75 -60 75c-66 0 -93 -72 -93 -131c0 -41 28 -69 61 -69z" />
    <glyph glyph-name="q.numr" horiz-adv-x="392" 
d="M407 589l-87 -416h-78l18 92c3 17 5 26 12 51h-1c-17 -21 -46 -41 -89 -41c-68 0 -114 54 -114 131c0 112 77 193 165 193c47 0 77 -19 89 -36h2l5 26h78zM240 537c-30 0 -53 -13 -69 -39c-15 -25 -23 -55 -23 -88c0 -45 21 -73 60 -73c68 0 94 73 94 130
c0 43 -27 70 -62 70z" />
    <glyph glyph-name="r.numr" horiz-adv-x="236" 
d="M192 549h1c12 27 42 48 91 48h7l-16 -75c-5 0 -12 1 -19 1c-47 0 -72 -25 -85 -82l-34 -161h-78l65 309h76z" />
    <glyph glyph-name="s.numr" horiz-adv-x="338" 
d="M347 497h-75c0 27 -18 45 -57 45c-33 0 -49 -12 -49 -31c0 -16 12 -24 41 -33l40 -12c47 -15 86 -33 86 -88c0 -75 -71 -103 -143 -103c-67 0 -138 24 -134 108h78c-4 -37 31 -52 60 -52c28 0 57 11 57 38c0 21 -18 28 -45 37l-44 15c-48 16 -74 33 -74 81
c0 64 61 96 130 96s131 -23 129 -101z" />
    <glyph glyph-name="t.numr" horiz-adv-x="235" 
d="M89 534l12 55h40l20 94h78l-20 -94h55l-12 -55h-55l-31 -151c-1 -12 -4 -18 -4 -25c0 -9 3 -14 10 -17c5 -2 14 -3 25 -3h15l-12 -58h-34c-29 0 -47 1 -62 6c-17 6 -26 19 -26 39c0 11 3 25 6 41l35 168h-40z" />
    <glyph glyph-name="u.numr" horiz-adv-x="381" 
d="M208 337c23 0 36 8 48 21c13 15 22 35 27 60l36 171h79l-66 -309h-76l8 35c-17 -21 -47 -43 -92 -43c-61 0 -94 36 -94 89c0 15 2 31 6 49l38 179h79l-35 -166c-3 -13 -6 -27 -6 -40c0 -27 15 -46 48 -46z" />
    <glyph glyph-name="v.numr" horiz-adv-x="328" 
d="M130 280l-43 309h78l16 -161c3 -21 5 -43 6 -62h1c7 17 17 37 28 59l82 164h83l-171 -309h-80z" />
    <glyph glyph-name="w.numr" horiz-adv-x="498" 
d="M90 589h79l6 -157c1 -20 2 -51 2 -64h2c4 11 19 41 28 62l72 159h79l7 -159l3 -61h1c8 19 19 40 28 61l72 159h81l-161 -309h-80l-7 143c-1 23 -2 50 -2 67h-1c-9 -17 -17 -40 -29 -67l-68 -143h-83z" />
    <glyph glyph-name="x.numr" horiz-adv-x="338" 
d="M386 589l-135 -149l82 -160h-83l-50 103l-87 -103h-91l146 164l-76 145h84l43 -91l76 91h91z" />
    <glyph glyph-name="y.numr" horiz-adv-x="329" 
d="M88 589h79l12 -140c3 -29 6 -61 7 -88h1c13 31 30 63 41 84l72 144h83l-194 -345c-33 -59 -62 -69 -121 -69h-43l13 60h20c55 0 68 19 68 55c0 12 -1 27 -4 44z" />
    <glyph glyph-name="z.numr" horiz-adv-x="328" 
d="M38 280l13 61l153 144c19 17 27 25 47 42v1c-13 -1 -35 -1 -46 -1h-110l13 62h254l-13 -61l-143 -130c-27 -25 -44 -43 -59 -56h171l-13 -62h-267z" />
    <glyph glyph-name="zero.numr" horiz-adv-x="404" 
d="M217 275c-88 0 -135 62 -135 151c0 116 63 278 203 278c88 0 138 -58 138 -151c0 -117 -65 -278 -206 -278zM224 341c84 0 115 146 115 217c0 43 -16 79 -60 79c-80 0 -114 -134 -114 -208c0 -47 10 -88 59 -88z" />
    <glyph glyph-name="one.numr" horiz-adv-x="273" 
d="M84 569l13 57c71 1 119 23 136 74h68l-89 -420h-80l61 289h-109z" />
    <glyph glyph-name="two.numr" horiz-adv-x="387" 
d="M184 546h-81c8 99 71 158 166 158c84 0 140 -43 140 -119c0 -69 -51 -117 -115 -152l-44 -24c-35 -19 -76 -39 -89 -62h213l-14 -67h-308c6 100 76 138 147 179l43 24c45 25 84 48 84 96c0 32 -23 55 -63 55c-53 0 -76 -39 -79 -88z" />
    <glyph glyph-name="three.numr" horiz-adv-x="389" 
d="M331 500v-2c35 -13 53 -47 53 -84c0 -92 -72 -139 -164 -139c-97 0 -161 51 -149 152h74c-1 -4 -1 -8 -1 -11c0 -48 26 -77 75 -77c47 0 81 27 81 75c0 39 -27 58 -70 58h-26l12 57h27c37 0 85 12 85 61c0 35 -31 49 -64 49c-47 0 -74 -25 -80 -74h-76
c7 87 73 139 162 139c75 0 135 -32 135 -105c0 -51 -29 -84 -74 -99z" />
    <glyph glyph-name="four.numr" horiz-adv-x="388" 
d="M226 280l19 90h-198l16 76l245 254h83l-56 -265h61l-13 -65h-62l-19 -90h-76zM298 607h-2c-19 -23 -39 -48 -70 -80l-48 -49c-23 -24 -41 -39 -44 -42v-2c15 0 46 1 75 1h49l19 80c9 39 16 73 21 92z" />
    <glyph glyph-name="five.numr" horiz-adv-x="400" 
d="M88 470l79 230h266l-13 -63h-199l-32 -87c19 12 45 18 76 18c79 0 140 -49 140 -126c0 -104 -73 -167 -182 -167c-93 0 -157 46 -161 134h82c4 -39 33 -71 85 -71c60 0 94 41 94 94c0 49 -34 77 -85 77c-44 0 -67 -20 -78 -39h-72z" />
    <glyph glyph-name="six.numr" horiz-adv-x="397" 
d="M418 599l-76 -1c-5 27 -28 42 -61 42c-62 0 -94 -60 -106 -108h2c13 15 44 34 91 34c72 0 128 -46 128 -129c0 -90 -69 -162 -165 -162c-53 0 -97 18 -120 53c-18 27 -27 64 -27 109c0 137 77 269 201 269c71 0 128 -34 133 -107zM235 339c53 0 85 42 85 91
c0 51 -31 73 -76 73c-53 0 -85 -40 -85 -89c0 -52 31 -75 76 -75z" />
    <glyph glyph-name="seven.numr" horiz-adv-x="353" 
d="M98 633l14 67h320l-13 -62c-97 -71 -207 -227 -236 -358h-86c35 127 117 257 230 353h-229z" />
    <glyph glyph-name="eight.numr" horiz-adv-x="422" 
d="M359 502v-2c32 -17 58 -53 58 -92c0 -89 -83 -133 -184 -133c-97 0 -165 48 -165 120c0 60 43 97 103 114v2c-27 15 -47 42 -47 79c0 72 61 115 160 115c88 0 153 -43 153 -107c0 -41 -31 -81 -78 -96zM283 646c-49 0 -81 -20 -81 -59c0 -37 36 -57 77 -57
c43 0 79 22 79 59c0 35 -30 57 -75 57zM244 474c-49 0 -95 -25 -95 -70c0 -41 36 -68 91 -68c59 0 96 27 96 72s-45 66 -92 66z" />
    <glyph glyph-name="nine.numr" horiz-adv-x="396" 
d="M79 382l76 1c5 -25 28 -42 61 -42c63 0 94 60 106 108h-2c-13 -13 -44 -34 -91 -34c-72 0 -128 46 -128 129c0 91 70 162 165 162c55 0 97 -18 120 -53c18 -27 27 -63 27 -109c0 -137 -77 -269 -201 -269c-71 0 -128 34 -133 107zM262 642c-53 0 -85 -40 -85 -91
c0 -49 31 -73 76 -73c55 0 85 40 85 89c0 52 -31 75 -76 75z" />
    <glyph glyph-name="parenleft.numr" horiz-adv-x="223" 
d="M214 731h74c-80 -109 -129 -240 -129 -367c0 -55 6 -107 19 -156h-65c-19 56 -31 110 -31 169c0 120 47 239 132 354z" />
    <glyph glyph-name="parenright.numr" horiz-adv-x="224" 
d="M101 208h-74c79 109 129 237 129 362c0 59 -6 109 -19 161h65c20 -57 31 -114 31 -174c0 -117 -47 -236 -132 -349z" />
    <glyph glyph-name="bracketleft.numr" horiz-adv-x="241" 
d="M196 208h-138l109 523h139l-12 -58h-67l-85 -407h67z" />
    <glyph glyph-name="bracketright.numr" horiz-adv-x="239" 
d="M26 208l12 58h66l85 407h-66l12 58h139l-110 -523h-138z" />
    <glyph glyph-name="plus.numr" horiz-adv-x="392" 
d="M281 643v-120h119v-67h-119v-119h-68v119h-120v67h120v120h68z" />
    <glyph glyph-name="minus.numr" horiz-adv-x="414" 
d="M106 455v66h301v-66h-301z" />
    <glyph glyph-name="equal.numr" horiz-adv-x="431" 
d="M115 525v66h301v-66h-301zM115 384v67h301v-67h-301z" />
    <glyph glyph-name="period.numr" horiz-adv-x="188" 
d="M164 367l-18 -87h-89l18 87h89z" />
    <glyph glyph-name="comma.numr" horiz-adv-x="188" 
d="M57 280l18 86h89l-16 -78c-7 -36 -16 -52 -31 -67c-19 -21 -47 -35 -82 -40l9 42c27 4 52 25 55 57h-42z" />
    <glyph glyph-name="bar" unicode="|" horiz-adv-x="262" 
d="M-12 -172l183 872h108l-185 -872h-106z" />
    <glyph glyph-name="bar.case" horiz-adv-x="263" 
d="M7 -86l183 872h108l-185 -872h-106z" />
    <glyph glyph-name="brokenbar" unicode="&#xa6;" horiz-adv-x="262" 
d="M206 351h-108l74 349h108zM95 -172h-107l73 349h108z" />
    <glyph glyph-name="brokenbar.case" horiz-adv-x="263" 
d="M224 437h-108l74 349h108zM113 -86h-107l73 349h108z" />
    <glyph glyph-name="backslash" unicode="\" horiz-adv-x="404" 
d="M224 0l-108 700h105l109 -700h-106z" />
    <glyph glyph-name="uni00AD" unicode="&#xad;" horiz-adv-x="399" 
d="M55 235l22 103h281l-22 -103h-281z" />
    <glyph glyph-name="uni00AD.case" horiz-adv-x="407" 
d="M72 299l22 103h281l-22 -103h-281z" />
    <glyph glyph-name="hyphen" unicode="-" horiz-adv-x="399" 
d="M55 235l22 103h281l-22 -103h-281z" />
    <glyph glyph-name="hyphen.case" horiz-adv-x="407" 
d="M72 299l22 103h281l-22 -103h-281z" />
    <glyph glyph-name="endash" unicode="&#x2013;" horiz-adv-x="619" 
d="M55 234l22 102h500l-22 -102h-500z" />
    <glyph glyph-name="endash.case" horiz-adv-x="627" 
d="M72 297l22 102h500l-22 -102h-500z" />
    <glyph glyph-name="emdash" unicode="&#x2014;" horiz-adv-x="1119" 
d="M55 235l22 102h1001l-22 -102h-1001z" />
    <glyph glyph-name="emdash.case" horiz-adv-x="1127" 
d="M72 299l22 102h1001l-22 -102h-1001z" />
    <glyph glyph-name="underscore" unicode="_" horiz-adv-x="478" 
d="M-86 -128l12 57h488l-12 -57h-488z" />
    <glyph glyph-name="bullet" unicode="&#x2022;" horiz-adv-x="479" 
d="M258 510c90 0 164 -74 164 -165c0 -89 -74 -164 -164 -164s-165 75 -165 164c0 91 75 165 165 165z" />
    <glyph glyph-name="H18533" unicode="&#x25cf;" horiz-adv-x="271" 
d="M55 298c0 48 40 88 88 88c49 0 89 -40 89 -88c0 -49 -40 -89 -89 -89c-48 0 -88 40 -88 89z" />
    <glyph glyph-name="middot" unicode="&#xb7;" horiz-adv-x="254" 
d="M216 356l-29 -136h-135l29 136h135z" />
    <glyph glyph-name="periodcentered.case" horiz-adv-x="259" 
d="M231 418l-29 -136h-135l29 136h135z" />
    <glyph glyph-name="quotesinglbase" unicode="&#x201a;" horiz-adv-x="246" 
d="M9 0l28 135h135l-26 -125c-23 -109 -85 -157 -172 -172l14 65c37 8 74 35 86 92l1 5h-66z" />
    <glyph glyph-name="quotedblbase" unicode="&#x201e;" horiz-adv-x="456" 
d="M9 0l28 135h135l-26 -125c-23 -109 -85 -157 -172 -172l14 65c37 8 74 35 86 92l1 5h-66zM219 0l28 135h135l-26 -125c-23 -109 -85 -157 -172 -172l14 65c37 8 74 35 86 92l1 5h-66z" />
    <glyph glyph-name="quoteleft" unicode="&#x2018;" horiz-adv-x="244" 
d="M248 547l-28 -135h-135l26 125c23 111 87 159 172 172l-14 -65c-37 -8 -74 -33 -86 -92l-1 -5h66z" />
    <glyph glyph-name="quoteright" unicode="&#x2019;" horiz-adv-x="238" 
d="M123 565l28 135h135l-26 -125c-23 -109 -85 -157 -172 -172l14 65c37 8 74 35 86 92l1 5h-66z" />
    <glyph glyph-name="quotedblleft" unicode="&#x201c;" horiz-adv-x="431" 
d="M248 547l-28 -135h-135l26 125c23 111 87 159 172 172l-14 -65c-37 -8 -74 -33 -86 -92l-1 -5h66zM435 547l-28 -135h-135l26 125c23 111 87 159 172 172l-14 -65c-37 -8 -74 -33 -86 -92l-1 -5h66z" />
    <glyph glyph-name="quotedblright" unicode="&#x201d;" horiz-adv-x="448" 
d="M123 565l28 135h135l-26 -125c-23 -109 -85 -157 -172 -172l14 65c37 8 74 35 86 92l1 5h-66zM333 565l28 135h135l-26 -125c-23 -109 -85 -157 -172 -172l14 65c37 8 74 35 86 92l1 5h-66z" />
    <glyph glyph-name="guilsinglleft" unicode="&#x2039;" horiz-adv-x="269" 
d="M64 358l208 162l-29 -136l-135 -105l89 -109l-26 -126l-139 167z" />
    <glyph glyph-name="guilsinglright" unicode="&#x203a;" horiz-adv-x="268" 
d="M9 44l28 136l135 107l-89 107l26 126l139 -166l-32 -148z" />
    <glyph glyph-name="guilsinglleft.case" horiz-adv-x="270" 
d="M76 413l208 162l-29 -136l-135 -105l89 -109l-26 -126l-139 167z" />
    <glyph glyph-name="guilsinglright.case" horiz-adv-x="270" 
d="M22 99l28 136l135 107l-89 107l26 126l139 -166l-32 -148z" />
    <glyph glyph-name="guillemotleft" unicode="&#xab;" horiz-adv-x="473" 
d="M64 358l208 162l-29 -136l-135 -105l89 -109l-26 -126l-139 167zM268 358l208 162l-29 -136l-135 -105l89 -109l-26 -126l-139 167z" />
    <glyph glyph-name="guillemotright" unicode="&#xbb;" horiz-adv-x="468" 
d="M9 44l28 136l135 107l-89 107l26 126l139 -166l-32 -148zM209 44l28 136l135 107l-89 107l26 126l139 -166l-32 -148z" />
    <glyph glyph-name="guillemotleft.case" horiz-adv-x="471" 
d="M76 413l208 162l-29 -136l-135 -105l89 -109l-26 -126l-139 167zM277 413l208 162l-29 -136l-135 -105l89 -109l-26 -126l-139 167z" />
    <glyph glyph-name="guillemotright.case" horiz-adv-x="470" 
d="M22 99l28 136l135 107l-89 107l26 126l139 -166l-32 -148zM222 99l28 136l135 107l-89 107l26 126l139 -166l-32 -148z" />
    <glyph glyph-name="quotesingle" unicode="'" horiz-adv-x="220" 
d="M99 422l45 278h122l-82 -278h-85z" />
    <glyph glyph-name="quotedbl" unicode="&#x22;" horiz-adv-x="412" 
d="M99 422l45 278h122l-82 -278h-85zM291 422l45 278h122l-82 -278h-85z" />
    <glyph glyph-name="ampersand" unicode="&#x26;" horiz-adv-x="645" 
d="M516 333h105c-15 -73 -54 -144 -106 -199l88 -134h-134l-38 61c-53 -48 -119 -75 -198 -75c-124 0 -207 67 -207 188c0 124 98 187 196 225c-27 41 -53 86 -53 141c0 49 17 90 50 122c34 33 80 49 139 49c103 0 179 -46 179 -142c0 -103 -93 -160 -172 -198l96 -152
c27 31 44 77 55 114zM322 440c59 25 110 67 110 120c0 41 -29 66 -74 66s-79 -26 -79 -77c0 -41 22 -78 43 -109zM380 144l-113 181c-63 -30 -123 -59 -123 -139c0 -53 39 -98 103 -98c57 0 100 23 133 56z" />
    <glyph glyph-name="at" unicode="@" horiz-adv-x="784" 
d="M552 54c-41 0 -69 21 -81 52c-28 -33 -69 -57 -120 -57c-91 0 -143 69 -143 162c0 110 77 236 201 236c53 0 88 -22 105 -54h2l10 41h78l-63 -236c-3 -13 -9 -30 -9 -45c0 -16 6 -28 27 -28c52 0 112 82 112 192c0 136 -103 225 -245 225c-156 0 -298 -117 -298 -301
c0 -160 111 -271 279 -271c76 0 150 22 223 66l26 -64c-76 -49 -163 -74 -254 -74c-228 0 -360 135 -360 337c0 212 158 381 383 381c192 0 328 -119 328 -293c0 -155 -99 -269 -201 -269zM412 368c-70 0 -117 -78 -117 -154c0 -53 27 -84 68 -84c72 0 118 88 118 156
c0 48 -26 82 -69 82z" />
    <glyph glyph-name="at.case" horiz-adv-x="788" 
d="M574 147c-41 0 -69 21 -81 52c-28 -33 -69 -57 -120 -57c-91 0 -143 69 -143 162c0 110 77 236 201 236c53 0 88 -22 105 -54h2l10 41h78l-63 -236c-3 -13 -9 -30 -9 -45c0 -16 6 -28 27 -28c52 0 112 82 112 192c0 136 -103 225 -245 225c-156 0 -298 -117 -298 -301
c0 -160 111 -271 279 -271c76 0 150 22 223 66l26 -64c-76 -49 -163 -74 -254 -74c-228 0 -360 135 -360 337c0 212 158 381 383 381c192 0 328 -119 328 -293c0 -155 -99 -269 -201 -269zM434 461c-70 0 -117 -78 -117 -154c0 -53 27 -84 68 -84c72 0 118 88 118 156
c0 48 -26 82 -69 82z" />
    <glyph glyph-name="section" unicode="&#xa7;" horiz-adv-x="578" 
d="M265 571c0 -39 27 -56 72 -79l77 -37c68 -32 130 -73 130 -166c0 -80 -55 -147 -130 -171c25 -21 45 -52 45 -101c0 -108 -96 -170 -234 -170c-117 0 -219 41 -223 180l118 1c0 -68 48 -96 113 -96c61 0 103 28 103 77c0 43 -31 59 -95 92l-53 27
c-78 42 -139 78 -139 168c0 87 60 144 139 167c-25 23 -41 55 -41 99c0 101 83 159 215 159c120 0 210 -40 210 -168h-112c0 59 -41 84 -104 84c-56 0 -91 -29 -91 -66zM428 264c0 40 -27 64 -86 95l-93 48c-39 -9 -78 -36 -78 -83c0 -43 26 -64 83 -95l95 -51
c41 9 79 38 79 86z" />
    <glyph glyph-name="paragraph" unicode="&#xb6;" horiz-adv-x="629" 
d="M169 -147l109 511v2c-111 0 -191 54 -191 161c0 71 30 125 99 152c35 15 73 21 141 21h308l-181 -847h-87l165 775h-111l-165 -775h-87z" />
    <glyph glyph-name="dagger" unicode="&#x2020;" horiz-adv-x="521" 
d="M80 500h178l42 200h111l-42 -200h177l-22 -101h-177l-116 -547h-111l116 547h-178z" />
    <glyph glyph-name="daggerdbl" unicode="&#x2021;" horiz-adv-x="562" 
d="M369 404l-54 -255h177l-21 -101h-178l-41 -197h-111l41 197h-176l20 101h178l54 255h-177l21 101h178l42 195h111l-42 -195h177l-21 -101h-178z" />
    <glyph glyph-name="ordfeminine" unicode="&#xaa;" horiz-adv-x="371" 
d="M194 609h-71c15 71 67 100 143 100c77 0 120 -31 120 -90c0 -17 -1 -29 -6 -49l-26 -131c-2 -10 -3 -18 -3 -25s0 -13 3 -18l-1 -2h-73l4 26h-1c-15 -13 -39 -34 -92 -34c-64 0 -105 36 -105 87c0 47 28 73 69 89c31 12 70 19 110 24l14 2c23 3 31 12 31 29
c0 21 -17 36 -52 36c-32 0 -55 -13 -64 -44zM215 445c27 0 55 10 70 38c2 3 4 12 7 26l9 38c-9 -5 -21 -10 -44 -15l-23 -5c-25 -5 -43 -10 -54 -19c-8 -6 -12 -15 -12 -28c0 -23 18 -35 47 -35z" />
    <glyph glyph-name="ordmasculine" unicode="&#xba;" horiz-adv-x="382" 
d="M237 391c-83 0 -141 52 -141 136c0 102 64 187 172 187c85 0 140 -52 140 -135c0 -101 -62 -188 -171 -188zM264 653c-61 0 -88 -66 -88 -126c0 -49 27 -74 64 -74c62 0 89 67 89 126c0 51 -26 74 -65 74z" />
    <glyph glyph-name="degree" unicode="&#xb0;" horiz-adv-x="378" 
d="M251 713c88 0 153 -66 153 -151c0 -87 -65 -151 -153 -151c-85 0 -153 64 -153 151c0 85 68 151 153 151zM251 651c-49 0 -88 -37 -88 -89c0 -53 39 -90 88 -90c51 0 88 37 88 90c0 52 -37 89 -88 89z" />
    <glyph glyph-name="uni2116" unicode="&#x2116;" horiz-adv-x="1110" 
d="M947 391c-83 0 -141 52 -141 136c0 102 64 187 172 187c85 0 140 -52 140 -135c0 -101 -64 -188 -171 -188zM308 700l145 -349c24 -57 51 -130 67 -177h2c11 52 22 123 37 195l70 331h124l-149 -700h-132l-137 333c-24 59 -54 135 -75 191h-2c-8 -47 -19 -120 -34 -184
l-72 -340h-122l148 700h130zM974 653c-60 0 -88 -66 -88 -126c0 -49 27 -74 64 -74c62 0 89 67 89 126c0 51 -26 74 -65 74zM774 232l19 91h281l-19 -91h-281z" />
    <glyph glyph-name="registered" unicode="&#xae;" horiz-adv-x="851" 
d="M813 351c0 -206 -163 -364 -372 -364c-200 0 -362 164 -362 364c0 203 162 365 367 365c204 0 367 -162 367 -365zM744 351c0 167 -133 302 -298 302s-298 -135 -298 -302c0 -169 131 -302 302 -302c161 0 294 136 294 302zM293 142v418h178c100 0 148 -44 148 -116
c0 -56 -27 -84 -66 -103c43 -19 58 -51 58 -110c0 -27 5 -50 10 -69l3 -20h-81c-8 19 -9 45 -12 76v7c-5 63 -20 85 -92 85h-67v-168h-79zM372 495v-121h88c44 0 80 14 80 61c0 48 -34 60 -78 60h-90z" />
    <glyph glyph-name="copyright" unicode="&#xa9;" horiz-adv-x="851" 
d="M813 351c0 -206 -163 -364 -372 -364c-200 0 -362 164 -362 364c0 203 162 365 367 365c204 0 367 -162 367 -365zM744 351c0 167 -133 302 -298 302s-298 -135 -298 -302c0 -169 131 -302 302 -302c161 0 294 136 294 302zM549 281h79c-17 -93 -86 -152 -181 -152
c-128 0 -197 97 -197 217c0 122 71 220 199 220c88 0 163 -53 176 -148h-77c-8 47 -47 82 -99 82c-80 0 -117 -67 -117 -154c0 -85 39 -151 116 -151c55 0 90 37 101 86z" />
    <glyph glyph-name="uni2117" unicode="&#x2117;" horiz-adv-x="851" 
d="M446 716c204 0 367 -162 367 -365c0 -206 -163 -364 -372 -364c-200 0 -362 164 -362 364c0 203 162 365 367 365zM744 351c0 167 -133 302 -298 302s-298 -135 -298 -302c0 -169 131 -302 302 -302c161 0 294 136 294 302zM305 142v418h178c101 0 149 -52 149 -128
c0 -44 -15 -77 -46 -100c-30 -22 -67 -33 -110 -33h-92v-157h-79zM384 495v-130h78c41 0 90 21 90 67c0 52 -40 63 -91 63h-77z" />
    <glyph glyph-name="trademark" unicode="&#x2122;" horiz-adv-x="1074" 
d="M1023 238h-85v233c0 55 1 104 2 128h-2c-17 -57 -21 -74 -47 -155l-64 -206h-78l-65 201c-21 69 -35 116 -50 160h-2c0 -25 2 -94 2 -128v-233h-86v462h130l70 -223c11 -33 25 -79 40 -130h5c11 55 22 86 35 130l67 223h128v-462zM501 624h-149v-386h-86v386h-150v76h385
v-76z" />
    <glyph glyph-name="uni2113" unicode="&#x2113;" horiz-adv-x="473" 
d="M424 146c-5 -95 -49 -158 -161 -158c-115 0 -158 42 -158 139v38l-70 -52v109l69 53v246c0 52 3 94 20 126c23 43 63 67 144 67c108 0 158 -52 158 -141c0 -107 -68 -216 -215 -340v-78c0 -55 8 -78 52 -78c45 0 49 37 51 69h110zM211 542v-194c84 85 103 158 103 205
c0 51 -16 72 -48 72c-43 0 -55 -22 -55 -83z" />
    <glyph glyph-name="estimated" unicode="&#x212e;" horiz-adv-x="601" 
d="M559 250h-387v-120c0 -47 28 -67 48 -78c25 -12 57 -14 89 -14c72 0 131 25 180 97h56c-56 -101 -133 -144 -236 -144c-153 0 -252 113 -252 266c0 147 96 269 252 269s250 -113 250 -276zM172 296h275v100c0 35 -19 59 -48 71c-25 11 -55 15 -90 15s-61 -3 -88 -14
c-29 -13 -49 -36 -49 -71v-101z" />
    <glyph glyph-name="asterisk" unicode="*" horiz-adv-x="479" 
d="M368 688l-30 -137l141 15l7 -75l-140 -16l59 -127l-70 -30l-57 127l-104 -94l-51 57l105 93l-122 71l38 65l121 -70l29 137z" />
    <glyph glyph-name="numbersign" unicode="#" 
d="M570 209h-116l-74 -209h-82l75 209h-145l-74 -209h-82l74 209h-115l26 72h115l50 141h-119l26 71h119l73 207h82l-74 -207h145l73 207h82l-74 -207h114l-26 -71h-113l-50 -141h116zM304 422l-50 -141h144l51 141h-145z" />
    <glyph glyph-name="currency" unicode="&#xa4;" horiz-adv-x="659" 
d="M464 526l75 75l68 -68l-74 -76c23 -37 34 -75 34 -116s-11 -80 -34 -117l74 -75l-68 -67l-75 74c-35 -23 -73 -34 -116 -34s-79 11 -118 34l-74 -74l-68 67l75 76c-23 37 -34 75 -34 116c0 40 11 79 34 116l-75 76l68 68l74 -75c39 23 78 34 118 34s79 -11 116 -34z
M348 463c-66 0 -122 -55 -122 -122s56 -122 122 -122c67 0 121 53 121 122c0 67 -54 122 -121 122z" />
    <glyph glyph-name="dollar" unicode="$" horiz-adv-x="625" 
d="M200 -107l23 107c-117 20 -191 92 -194 221h124c1 -65 34 -108 90 -124l45 213l-12 4c-85 30 -171 66 -171 184c0 148 125 207 263 207h4l21 100h68l-23 -107c101 -18 178 -81 178 -202h-120c0 59 -32 94 -79 106l-42 -199l18 -6c100 -32 186 -67 186 -183
s-88 -219 -277 -219h-13l-21 -102h-68zM229 517c0 -48 30 -72 83 -93l39 187c-73 -1 -122 -31 -122 -94zM352 290l-43 -201c83 -1 145 36 145 109c0 59 -52 76 -102 92z" />
    <glyph glyph-name="Euro" unicode="&#x20ac;" horiz-adv-x="654" 
d="M434 312l-31 -64h-168v-16c0 -78 25 -149 106 -149c71 0 120 54 149 137h115c-21 -69 -54 -125 -100 -168c-45 -43 -104 -65 -177 -65c-139 0 -208 116 -208 261h-75l30 64h48c3 25 7 50 11 77h-61l31 65h47c46 141 137 259 290 259c140 0 210 -89 211 -240h-113v5
c0 77 -30 137 -109 137c-80 0 -130 -70 -161 -161h234l-31 -65h-221c-7 -27 -9 -52 -12 -77h195z" />
    <glyph glyph-name="sterling" unicode="&#xa3;" horiz-adv-x="591" 
d="M60 316l12 58h71c-11 27 -20 70 -20 110c0 137 99 228 248 228c133 0 218 -72 218 -195c0 -11 -1 -24 -3 -38h-107c1 7 1 14 1 23c0 68 -36 118 -117 118c-85 0 -126 -53 -126 -134c0 -31 7 -68 22 -112h134l-12 -58h-110c1 -11 2 -21 2 -29c0 -85 -54 -149 -121 -193
l2 -4c35 17 58 20 79 20c62 0 103 -27 158 -27c37 0 69 15 94 38l35 -74c-52 -41 -106 -59 -159 -59c-88 0 -116 38 -194 38c-35 0 -77 -6 -118 -33l-36 76c87 47 150 108 150 192c0 18 -2 36 -7 55h-96z" />
    <glyph glyph-name="yen" unicode="&#xa5;" horiz-adv-x="639" 
d="M26 152l14 65h203l11 53l-13 47h-178l14 66h144l-92 317h129l79 -318l224 318h133l-233 -317h155l-14 -66h-189l-35 -47l-11 -53h217l-14 -65h-217l-33 -152h-124l33 152h-203z" />
    <glyph glyph-name="florin" unicode="&#x192;" 
d="M404 355l-57 -320c-26 -144 -55 -212 -181 -212c-24 0 -53 4 -70 7l17 95c12 -1 28 -4 39 -4c60 0 71 53 81 106l58 328h-87l17 96h87l13 73c22 124 52 189 168 189c24 0 57 -2 82 -9l-17 -93c-12 3 -27 4 -36 4c-56 0 -75 -42 -84 -93l-13 -71h102l-17 -96h-102z" />
    <glyph glyph-name="cent" unicode="&#xa2;" horiz-adv-x="581" 
d="M550 345h-113c-8 45 -30 73 -67 84l-74 -349c60 5 94 44 117 93h117c-35 -112 -127 -187 -254 -187l-19 -93h-68l21 101c-97 23 -159 101 -159 222c0 166 99 312 273 314l19 95h68l-20 -100c91 -17 151 -81 159 -180zM170 213c0 -63 20 -103 60 -122l74 343
c-91 -16 -134 -124 -134 -221z" />
    <glyph glyph-name="plus" unicode="+" 
d="M402 606v-206h206v-100h-206v-206h-101v206h-208v100h208v206h101z" />
    <glyph glyph-name="plus.ss06" 
d="M382 513v-206h206v-100h-206v-206h-101v206h-208v100h208v206h101z" />
    <glyph glyph-name="minus" unicode="&#x2212;" 
d="M95 299v100h506v-100h-506z" />
    <glyph glyph-name="minus.ss06" 
d="M77 206v100h506v-100h-506z" />
    <glyph glyph-name="multiply" unicode="&#xd7;" 
d="M112 178l170 170l-170 171l68 68l171 -170l169 169l69 -69l-170 -168l170 -170l-69 -69l-169 170l-171 -171z" />
    <glyph glyph-name="x.ss20" 
d="M110 178l170 170l-170 171l68 68l171 -170l169 169l69 -69l-170 -168l170 -170l-69 -69l-169 170l-171 -171z" />
    <glyph glyph-name="multiply.ss06" 
d="M92 85l170 170l-170 171l68 68l171 -170l169 169l69 -69l-170 -168l170 -170l-69 -69l-169 170l-171 -171z" />
    <glyph glyph-name="divide" unicode="&#xf7;" 
d="M275 559c0 41 33 75 74 75s75 -34 75 -75c0 -40 -34 -74 -75 -74s-74 34 -74 74zM97 299v99h505v-99h-505zM275 138c0 41 33 75 74 75s75 -34 75 -75s-34 -75 -75 -75s-74 34 -74 75z" />
    <glyph glyph-name="divide.ss06" 
d="M256 466c0 41 33 75 74 75s75 -34 75 -75c0 -40 -34 -74 -75 -74s-74 34 -74 74zM78 206v99h505v-99h-505zM256 45c0 41 33 75 74 75s75 -34 75 -75s-34 -75 -75 -75s-74 34 -74 75z" />
    <glyph glyph-name="plusminus" unicode="&#xb1;" 
d="M386 657v-174h203v-100h-203v-173h-101v173h-204v100h204v174h101zM80 64v99h509v-99h-509z" />
    <glyph glyph-name="plusminus.ss06" 
d="M370 564v-174h203v-100h-203v-173h-101v173h-204v100h204v174h101zM64 -29v99h509v-99h-509z" />
    <glyph glyph-name="equal" unicode="=" 
d="M90 415v100h506v-100h-506zM90 186v100h506v-100h-506z" />
    <glyph glyph-name="equal.ss06" 
d="M77 322v100h506v-100h-506zM77 93v100h506v-100h-506z" />
    <glyph glyph-name="notequal" unicode="&#x2260;" 
d="M90 415v100h276l61 134h85l-60 -134h144v-100h-187l-57 -129h244v-100h-288l-63 -140h-85l63 140h-133v100h176l58 129h-234z" />
    <glyph glyph-name="notequal.ss06" 
d="M77 322v100h276l61 134h85l-60 -134h144v-100h-187l-57 -129h244v-100h-288l-63 -140h-85l63 140h-133v100h176l58 129h-234z" />
    <glyph glyph-name="logicalnot" unicode="&#xac;" 
d="M85 416v99h500v-355h-101v256h-399z" />
    <glyph glyph-name="logicalnot.ss06" 
d="M72 323v99h500v-355h-101v256h-399z" />
    <glyph glyph-name="approxequal" unicode="&#x2248;" 
d="M459 509h73c-9 -69 -50 -109 -109 -109c-27 0 -50 8 -75 13l-8 2c-21 5 -39 9 -55 9c-22 0 -37 -8 -44 -25h-73c11 69 50 109 109 109c27 0 50 -6 75 -13l8 -2c21 -5 39 -9 55 -9c22 0 37 8 44 25zM459 307h73c-9 -69 -50 -109 -109 -109c-27 0 -50 8 -75 13l-8 2
c-21 5 -39 9 -55 9c-22 0 -37 -8 -44 -25h-73c11 69 50 109 109 109c27 0 50 -6 75 -13l8 -2c21 -5 39 -9 55 -9c22 0 37 8 44 25z" />
    <glyph glyph-name="approxequal.ss06" 
d="M440 416h73c-9 -69 -50 -109 -109 -109c-27 0 -50 8 -75 13l-8 2c-21 5 -39 9 -55 9c-22 0 -37 -8 -44 -25h-73c11 69 50 109 109 109c27 0 50 -6 75 -13l8 -2c21 -5 39 -9 55 -9c22 0 37 8 44 25zM440 214h73c-9 -69 -50 -109 -109 -109c-27 0 -50 8 -75 13l-8 2
c-21 5 -39 9 -55 9c-22 0 -37 -8 -44 -25h-73c11 69 50 109 109 109c27 0 50 -6 75 -13l8 -2c21 -5 39 -9 55 -9c22 0 37 8 44 25z" />
    <glyph glyph-name="infinity" unicode="&#x221e;" horiz-adv-x="852" 
d="M246 526c75 0 132 -48 200 -112c67 64 122 112 197 112c105 0 174 -73 174 -178c0 -89 -57 -176 -171 -176c-83 0 -144 59 -202 117c-61 -61 -117 -117 -201 -117c-113 0 -171 87 -171 176c0 105 69 178 174 178zM640 266c51 0 80 34 80 85c0 47 -30 83 -79 83
s-97 -42 -141 -85c43 -40 85 -83 140 -83zM249 266c55 0 97 43 140 83c-44 43 -91 85 -142 85c-48 0 -79 -36 -79 -83c0 -51 32 -85 81 -85z" />
    <glyph glyph-name="infinity.ss06" horiz-adv-x="852" 
d="M228 433c75 0 132 -48 200 -112c67 64 122 112 197 112c105 0 174 -73 174 -178c0 -89 -57 -176 -171 -176c-83 0 -144 59 -202 117c-61 -61 -117 -117 -201 -117c-113 0 -171 87 -171 176c0 105 69 178 174 178zM622 173c51 0 80 34 80 85c0 47 -30 83 -79 83
s-97 -42 -141 -85c43 -40 85 -83 140 -83zM231 173c55 0 97 43 140 83c-44 43 -91 85 -142 85c-48 0 -79 -36 -79 -83c0 -51 32 -85 81 -85z" />
    <glyph glyph-name="less" unicode="&#x3c;" 
d="M549 60l-448 243v84l448 247v-108l-338 -176v-2l338 -180v-108z" />
    <glyph glyph-name="less_hyphen" horiz-adv-x="661" 
d="M613 308v-102h-300c-37 0 -80 1 -103 2c24 -25 56 -53 93 -92l104 -105h-133l-133 137c-36 37 -70 77 -103 109c43 43 96 98 149 154l86 92h134l-106 -107l-90 -90c39 1 71 2 102 2h300z" />
    <glyph glyph-name="less_hyphen.case" horiz-adv-x="672" 
d="M646 421v-102h-300c-37 0 -80 1 -103 2c24 -25 56 -53 93 -92l104 -105h-133l-133 137c-36 37 -70 77 -103 109c43 43 96 98 149 154l86 92h134l-106 -107l-90 -90c39 1 71 2 102 2h300z" />
    <glyph glyph-name="greater" unicode="&#x3e;" 
d="M599 303l-448 -243v108l338 180v2l-338 176v108l448 -247v-84z" />
    <glyph glyph-name="hyphen_greater" horiz-adv-x="663" 
d="M51 308h300c31 0 63 -1 102 -2c-19 21 -69 69 -90 90l-106 107h134l86 -92c53 -56 106 -111 149 -154c-33 -32 -67 -72 -103 -109l-133 -137h-133l104 105c39 39 69 67 93 92c-23 -1 -66 -2 -103 -2h-300v102z" />
    <glyph glyph-name="hyphen_greater.case" horiz-adv-x="672" 
d="M76 421h300c31 0 63 -1 102 -2c-19 21 -69 69 -90 90l-106 107h134l86 -92c53 -56 106 -111 149 -154c-33 -32 -67 -72 -103 -109l-133 -137h-133l104 105c39 39 69 67 93 92c-23 -1 -66 -2 -103 -2h-300v102z" />
    <glyph glyph-name="lessequal" unicode="&#x2264;" 
d="M547 129l-432 249v83l432 253v-109l-325 -181v-3l325 -183v-109zM115 0v91h432v-91h-432z" />
    <glyph glyph-name="greaterequal" unicode="&#x2265;" 
d="M135 129v109l325 183v3l-325 181v109l432 -253v-83zM567 0h-432v91h432v-91z" />
    <glyph glyph-name="increment" unicode="&#x2206;" horiz-adv-x="708" 
d="M2 0l257 700h128l253 -700h-638zM276 445l-114 -345h315l-114 345l-43 135h-2c-5 -15 -21 -71 -42 -135z" />
    <glyph glyph-name="summation" unicode="&#x2211;" 
d="M68 10l265 298l-261 298v94h530v-99h-371l252 -285l-261 -297h391v-99h-545v90z" />
    <glyph glyph-name="product" unicode="&#x220f;" horiz-adv-x="857" 
d="M854 601h-113v-665h-123v665h-270v-665h-122v665h-113v99h741v-99z" />
    <glyph glyph-name="Omega" unicode="&#x2126;" horiz-adv-x="819" 
d="M739 381c0 -135 -57 -224 -140 -284v-2c31 1 64 1 92 1h47v-96h-273v90c88 55 153 147 153 280c0 138 -73 245 -203 245s-203 -110 -203 -245c0 -133 65 -225 153 -280v-90h-273v96h47c28 0 61 0 92 -1v2c-83 60 -140 149 -140 284c0 177 121 331 324 331
s324 -154 324 -331z" />
    <glyph glyph-name="radical" unicode="&#x221a;" 
d="M88 411v104h179l70 -231c7 -20 9 -34 46 -154h2c39 122 43 135 48 153l129 417h119l-240 -700h-121l-140 411h-92z" />
    <glyph glyph-name="lozenge" unicode="&#x25ca;" 
d="M392 700l229 -351l-229 -349h-86l-226 349l226 351h86zM350 587l-150 -238l150 -237l156 237z" />
    <glyph glyph-name="integral" unicode="&#x222b;" 
d="M434 522l-87 -487c-26 -151 -57 -212 -191 -212c-21 0 -45 4 -60 7l17 95c12 -1 28 -4 39 -4c60 0 71 53 81 106l88 497c22 124 51 189 168 189c24 0 57 -2 82 -9l-17 -93c-12 3 -27 4 -36 4c-57 0 -75 -42 -84 -93z" />
    <glyph glyph-name="mu" unicode="&#xb5;" horiz-adv-x="623" 
d="M536 0h-113v74c-25 -55 -80 -87 -144 -87c-32 0 -59 8 -82 23c1 -16 1 -40 1 -72v-10c0 -25 0 -71 -11 -100h-118c13 44 14 98 14 166v521h117v-292c0 -101 43 -140 106 -140c71 0 112 51 112 152v280h118v-515z" />
    <glyph glyph-name="partialdiff" unicode="&#x2202;" 
d="M306 505l-103 23c9 115 81 188 184 188c138 0 184 -127 184 -277c0 -257 -131 -452 -307 -452c-57 0 -99 17 -128 50s-43 74 -43 123c0 145 114 278 369 286c0 113 -21 183 -76 183c-37 0 -73 -33 -80 -124zM280 72c89 0 165 163 178 293c-155 -9 -242 -84 -242 -207
c0 -52 27 -86 64 -86z" />
    <glyph glyph-name="asciicircum" unicode="^" horiz-adv-x="545" 
d="M246 700h116l181 -330h-101l-137 259h-2l-138 -259h-100z" />
    <glyph glyph-name="asciitilde" unicode="~" 
d="M470 450h73c-9 -69 -50 -109 -109 -109c-27 0 -50 8 -75 13l-8 2c-21 5 -39 9 -55 9c-22 0 -37 -8 -44 -25h-73c11 69 50 109 109 109c27 0 50 -6 75 -13l8 -2c21 -5 39 -9 55 -9c22 0 37 8 44 25z" />
    <glyph glyph-name="pi" unicode="&#x3c0;" horiz-adv-x="698" 
d="M62 426v89h587v-89h-90v-274c0 -57 14 -66 63 -66c8 0 17 0 24 1v-87c-17 0 -36 -1 -55 -1c-123 0 -151 13 -151 149v278h-166v-426h-119v426h-93z" />
    <glyph glyph-name="fraction" unicode="&#x2044;" horiz-adv-x="175" 
d="M335 700l-369 -700h-85l369 700h85z" />
    <glyph glyph-name="percent" unicode="%" horiz-adv-x="924" 
d="M219 283c-88 0 -135 62 -135 151c0 116 63 278 203 278c88 0 138 -58 138 -151c0 -117 -65 -278 -206 -278zM226 349c84 0 115 146 115 217c0 43 -16 79 -60 79c-80 0 -114 -134 -114 -208c0 -47 10 -88 59 -88zM675 -11c-88 0 -135 62 -135 151c0 116 63 278 203 278
c88 0 138 -58 138 -151c0 -117 -65 -278 -206 -278zM682 55c84 0 115 146 115 217c0 43 -16 79 -60 79c-80 0 -114 -134 -114 -208c0 -47 10 -88 59 -88zM712 700l-369 -700h-85l369 700h85z" />
    <glyph glyph-name="perthousand" unicode="&#x2030;" horiz-adv-x="1329" 
d="M1076 -11c-88 0 -135 62 -135 151c0 116 63 278 203 278c88 0 138 -58 138 -151c0 -117 -65 -278 -206 -278zM1083 55c84 0 115 146 115 217c0 43 -16 79 -60 79c-80 0 -114 -134 -114 -208c0 -47 10 -88 59 -88zM219 282c-88 0 -135 62 -135 151c0 116 63 278 203 278
c88 0 138 -58 138 -151c0 -117 -65 -278 -206 -278zM226 348c84 0 115 146 115 217c0 43 -16 79 -60 79c-80 0 -114 -134 -114 -208c0 -47 10 -88 59 -88zM675 -10c-88 0 -135 62 -135 151c0 116 63 278 203 278c88 0 138 -58 138 -151c0 -117 -65 -278 -206 -278zM682 56
c84 0 115 146 115 217c0 43 -16 79 -60 79c-80 0 -114 -134 -114 -208c0 -47 10 -88 59 -88zM712 700l-369 -700h-85l369 700h85z" />
    <glyph glyph-name="onehalf" unicode="&#xbd;" horiz-adv-x="829" 
d="M92 570l13 57c71 1 119 23 136 74h68l-89 -420h-80l61 289h-109zM562 266h-81c8 99 71 158 166 158c84 0 140 -43 140 -119c0 -69 -51 -117 -115 -152l-44 -24c-35 -19 -76 -39 -89 -62h213l-14 -67h-308c6 100 76 138 147 179l43 24c45 25 84 48 84 96
c0 32 -23 55 -63 55c-53 0 -76 -39 -79 -88zM618 700l-369 -700h-85l369 700h85z" />
    <glyph glyph-name="onequarter" unicode="&#xbc;" horiz-adv-x="791" 
d="M568 0l19 90h-198l16 76l245 254h83l-56 -265h61l-13 -65h-62l-19 -90h-76zM640 327h-2c-19 -23 -39 -48 -70 -80l-48 -49c-23 -24 -41 -39 -44 -42v-2c15 0 46 1 75 1h49l19 80c9 39 16 73 21 92zM91 569l13 57c71 1 119 23 136 74h68l-89 -420h-80l61 289h-109z
M617 700l-369 -700h-85l369 700h85z" />
    <glyph glyph-name="threequarters" unicode="&#xbe;" horiz-adv-x="862" 
d="M332 507v-2c35 -13 53 -47 53 -84c0 -92 -72 -139 -164 -139c-97 0 -161 51 -149 152h74c-1 -4 -1 -8 -1 -11c0 -48 26 -77 75 -77c47 0 81 27 81 75c0 39 -27 58 -70 58h-26l12 57h27c37 0 85 12 85 61c0 35 -31 49 -64 49c-47 0 -74 -25 -80 -74h-76
c7 87 73 139 162 139c75 0 135 -32 135 -105c0 -51 -29 -84 -74 -99zM641 0l19 90h-198l16 76l245 254h83l-56 -265h61l-13 -65h-62l-19 -90h-76zM713 327h-2c-19 -23 -39 -48 -70 -80l-48 -49c-23 -24 -41 -39 -44 -42v-2c15 0 46 1 75 1h49l19 80c9 39 16 73 21 92z
M698 700l-369 -700h-85l369 700h85z" />
    <glyph glyph-name="fiveeighths" unicode="&#x215d;" horiz-adv-x="964" 
d="M90 470l79 230h266l-13 -63h-199l-32 -87c19 12 45 18 76 18c79 0 140 -49 140 -126c0 -104 -73 -167 -182 -167c-93 0 -157 46 -161 134h82c4 -39 33 -71 85 -71c60 0 94 41 94 94c0 49 -34 77 -85 77c-44 0 -67 -20 -78 -39h-72zM841 217v-2c32 -17 58 -53 58 -92
c0 -89 -83 -133 -184 -133c-97 0 -165 48 -165 120c0 60 43 97 103 114v2c-27 15 -47 42 -47 79c0 72 61 115 160 115c88 0 153 -43 153 -107c0 -41 -31 -81 -78 -96zM765 361c-49 0 -81 -20 -81 -59c0 -37 36 -57 77 -57c43 0 79 22 79 59c0 35 -30 57 -75 57zM726 189
c-49 0 -95 -25 -95 -70c0 -41 36 -68 91 -68c59 0 96 27 96 72s-45 66 -92 66zM730 700l-369 -700h-85l369 700h85z" />
    <glyph glyph-name="oneeighth" unicode="&#x215b;" horiz-adv-x="871" 
d="M91 569l13 57c71 1 119 23 136 74h68l-89 -420h-80l61 289h-109zM745 217v-2c32 -17 58 -53 58 -92c0 -89 -83 -133 -184 -133c-97 0 -165 48 -165 120c0 60 43 97 103 114v2c-27 15 -47 42 -47 79c0 72 61 115 160 115c88 0 153 -43 153 -107c0 -41 -31 -81 -78 -96z
M669 361c-49 0 -81 -20 -81 -59c0 -37 36 -57 77 -57c43 0 79 22 79 59c0 35 -30 57 -75 57zM630 189c-49 0 -95 -25 -95 -70c0 -41 36 -68 91 -68c59 0 96 27 96 72s-45 66 -92 66zM623 700l-369 -700h-85l369 700h85z" />
    <glyph glyph-name="onethird" unicode="&#x2153;" horiz-adv-x="855" 
d="M734 214v-2c35 -13 53 -47 53 -84c0 -92 -72 -139 -164 -139c-97 0 -161 51 -149 152h74c-1 -4 -1 -8 -1 -11c0 -48 26 -77 75 -77c47 0 81 27 81 75c0 39 -27 58 -70 58h-26l12 57h27c37 0 85 12 85 61c0 35 -31 49 -64 49c-47 0 -74 -25 -80 -74h-76
c7 87 73 139 162 139c75 0 135 -32 135 -105c0 -51 -29 -84 -74 -99zM91 569l13 57c71 1 119 23 136 74h68l-89 -420h-80l61 289h-109zM623 700l-369 -700h-85l369 700h85z" />
    <glyph glyph-name="threeeighths" unicode="&#x215c;" horiz-adv-x="962" 
d="M333 507v-2c35 -13 53 -47 53 -84c0 -92 -72 -139 -164 -139c-97 0 -161 51 -149 152h74c-1 -4 -1 -8 -1 -11c0 -48 26 -77 75 -77c47 0 81 27 81 75c0 39 -27 58 -70 58h-26l12 57h27c37 0 85 12 85 61c0 35 -31 49 -64 49c-47 0 -74 -25 -80 -74h-76
c7 87 73 139 162 139c75 0 135 -32 135 -105c0 -51 -29 -84 -74 -99zM839 217v-2c32 -17 58 -53 58 -92c0 -89 -83 -133 -184 -133c-97 0 -165 48 -165 120c0 60 43 97 103 114v2c-27 15 -47 42 -47 79c0 72 61 115 160 115c88 0 153 -43 153 -107c0 -41 -31 -81 -78 -96z
M763 361c-49 0 -81 -20 -81 -59c0 -37 36 -57 77 -57c43 0 79 22 79 59c0 35 -30 57 -75 57zM724 189c-49 0 -95 -25 -95 -70c0 -41 36 -68 91 -68c59 0 96 27 96 72s-45 66 -92 66zM718 700l-369 -700h-85l369 700h85z" />
    <glyph glyph-name="seveneighths" unicode="&#x215e;" horiz-adv-x="853" 
d="M105 633l14 67h320l-13 -62c-97 -71 -207 -227 -236 -358h-86c35 127 117 257 230 353h-229zM728 217v-2c32 -17 58 -53 58 -92c0 -89 -83 -133 -184 -133c-97 0 -165 48 -165 120c0 60 43 97 103 114v2c-27 15 -47 42 -47 79c0 72 61 115 160 115c88 0 153 -43 153 -107
c0 -41 -31 -81 -78 -96zM652 361c-49 0 -81 -20 -81 -59c0 -37 36 -57 77 -57c43 0 79 22 79 59c0 35 -30 57 -75 57zM613 189c-49 0 -95 -25 -95 -70c0 -41 36 -68 91 -68c59 0 96 27 96 72s-45 66 -92 66zM617 700l-369 -700h-85l369 700h85z" />
    <glyph glyph-name="twothirds" unicode="&#x2154;" horiz-adv-x="969" 
d="M188 551h-81c8 99 71 158 166 158c84 0 140 -43 140 -119c0 -69 -51 -117 -115 -152l-44 -24c-35 -19 -76 -39 -89 -62h213l-14 -67h-308c6 100 76 138 147 179l43 24c45 25 84 48 84 96c0 32 -23 55 -63 55c-53 0 -76 -39 -79 -88zM852 214v-2c35 -13 53 -47 53 -84
c0 -92 -72 -139 -164 -139c-97 0 -161 51 -149 152h74c-1 -4 -1 -8 -1 -11c0 -48 26 -77 75 -77c47 0 81 27 81 75c0 39 -27 58 -70 58h-26l12 57h27c37 0 85 12 85 61c0 35 -31 49 -64 49c-47 0 -74 -25 -80 -74h-76c7 87 73 139 162 139c75 0 135 -32 135 -105
c0 -51 -29 -84 -74 -99zM754 700l-369 -700h-85l369 700h85z" />
    <glyph glyph-name="arrowleft" unicode="&#x2190;" horiz-adv-x="661" 
d="M613 308v-102h-300c-37 0 -80 1 -103 2c24 -25 56 -53 93 -92l104 -105h-133l-133 137c-36 37 -70 77 -103 109c43 43 96 98 149 154l86 92h134l-106 -107l-90 -90c39 1 71 2 102 2h300z" />
    <glyph glyph-name="uni2196" unicode="&#x2196;" horiz-adv-x="612" 
d="M546 116l-72 -72l-212 212c-27 27 -59 60 -75 77c0 -35 2 -77 2 -132v-148l-93 93l3 190c1 52 5 105 4 150c61 0 137 3 214 4l127 5l93 -94h-279c29 -28 53 -50 76 -73z" />
    <glyph glyph-name="arrowup" unicode="&#x2191;" horiz-adv-x="592" 
d="M349 -13h-102v300c0 39 1 82 2 106c-25 -24 -53 -54 -92 -93l-105 -104v131l137 132c37 36 77 70 109 103c43 -43 98 -95 154 -148l93 -87v-131l-108 106l-90 91c1 -41 2 -74 2 -106v-300z" />
    <glyph glyph-name="uni2197" unicode="&#x2197;" horiz-adv-x="612" 
d="M72 116l212 212c23 23 47 45 76 73h-279l93 94l127 -5c77 -1 153 -4 214 -4c-1 -45 3 -98 4 -150l3 -190l-93 -93v148c0 55 2 97 2 132c-16 -17 -48 -50 -75 -77l-212 -212z" />
    <glyph glyph-name="arrowright" unicode="&#x2192;" horiz-adv-x="663" 
d="M51 308h300c31 0 63 -1 102 -2c-19 21 -69 69 -90 90l-106 107h134l86 -92c53 -56 106 -111 149 -154c-33 -32 -67 -72 -103 -109l-133 -137h-133l104 105c39 39 69 67 93 92c-23 -1 -66 -2 -103 -2h-300v102z" />
    <glyph glyph-name="uni2198" unicode="&#x2198;" horiz-adv-x="612" 
d="M71 423l72 72l212 -212c27 -27 59 -58 75 -77c0 35 -2 79 -2 132v148l93 -93l-3 -190c-1 -52 -5 -103 -4 -150c-61 0 -137 -1 -214 -4l-127 -5l-93 94h279c-29 28 -53 52 -76 73z" />
    <glyph glyph-name="arrowdown" unicode="&#x2193;" horiz-adv-x="593" 
d="M348 536v-300c0 -32 -1 -65 -2 -106l90 91l108 106v-131l-93 -87c-56 -53 -111 -105 -154 -148c-32 33 -72 67 -109 103l-137 132v131l105 -104c39 -37 67 -69 92 -93c-1 24 -2 69 -2 106v300h102z" />
    <glyph glyph-name="uni2199" unicode="&#x2199;" horiz-adv-x="612" 
d="M547 423l-212 -212c-23 -21 -47 -45 -76 -73h279l-93 -94l-127 5c-77 3 -153 4 -214 4c1 47 -3 98 -4 150l-3 190l93 93v-148c0 -53 -2 -97 -2 -132c16 19 48 50 75 77l212 212z" />
    <glyph glyph-name="arrowleft.case" horiz-adv-x="672" 
d="M646 421v-102h-300c-37 0 -80 1 -103 2c24 -25 56 -53 93 -92l104 -105h-133l-133 137c-36 37 -70 77 -103 109c43 43 96 98 149 154l86 92h134l-106 -107l-90 -90c39 1 71 2 102 2h300z" />
    <glyph glyph-name="uni2196.case" horiz-adv-x="594" 
d="M561 229l-72 -72l-212 212c-27 27 -59 60 -75 77c0 -35 2 -77 2 -132v-148l-93 93l3 190c1 52 5 105 4 150c61 0 137 3 214 4l127 5l93 -94h-279c29 -28 53 -50 76 -73z" />
    <glyph glyph-name="arrowup.case" horiz-adv-x="598" 
d="M376 100h-102v300c0 39 1 82 2 106c-25 -24 -53 -54 -92 -93l-105 -104v131l137 132c37 36 77 70 109 103c43 -43 98 -95 154 -148l93 -87v-131l-108 106l-90 91c1 -41 2 -74 2 -106v-300z" />
    <glyph glyph-name="uni2197.case" horiz-adv-x="569" 
d="M74 229l212 212c23 23 47 45 76 73h-279l93 94l127 -5c77 -1 153 -4 214 -4c-1 -45 3 -98 4 -150l3 -190l-93 -93v148c0 55 2 97 2 132c-16 -17 -48 -50 -75 -77l-212 -212z" />
    <glyph glyph-name="arrowright.case" horiz-adv-x="672" 
d="M76 421h300c31 0 63 -1 102 -2c-19 21 -69 69 -90 90l-106 107h134l86 -92c53 -56 106 -111 149 -154c-33 -32 -67 -72 -103 -109l-133 -137h-133l104 105c39 39 69 67 93 92c-23 -1 -66 -2 -103 -2h-300v102z" />
    <glyph glyph-name="uni2198.case" horiz-adv-x="595" 
d="M88 536l72 72l212 -212c27 -27 59 -58 75 -77c0 35 -2 79 -2 132v148l93 -93l-3 -190c-1 -52 -5 -103 -4 -150c-61 0 -137 -1 -214 -4l-127 -5l-93 94h279c-29 28 -53 52 -76 73z" />
    <glyph glyph-name="arrowdown.case" horiz-adv-x="599" 
d="M375 649v-300c0 -32 -1 -65 -2 -106l90 91l108 106v-131l-93 -87c-56 -53 -111 -105 -154 -148c-32 33 -72 67 -109 103l-137 132v131l105 -104c39 -37 67 -69 92 -93c-1 24 -2 69 -2 106v300h102z" />
    <glyph glyph-name="uni2199.case" horiz-adv-x="567" 
d="M547 536l-212 -212c-23 -21 -47 -45 -76 -73h279l-93 -94l-127 5c-77 3 -153 4 -214 4c1 47 -3 98 -4 150l-3 190l93 93v-148c0 -53 -2 -97 -2 -132c16 19 48 50 75 77l212 212z" />
    <glyph glyph-name="uni1E9E" unicode="&#x1e9e;" horiz-adv-x="682" 
d="M324 345l19 87l192 170c-27 0 -69 -1 -100 -1h-161l-128 -601h-123l148 700h521l-20 -95l-200 -177c100 -21 161 -94 161 -191c0 -162 -110 -247 -266 -247c-47 0 -103 9 -138 25l44 95c19 -11 54 -23 91 -23c41 0 77 11 106 34s44 59 44 107c0 84 -70 120 -151 120
c-13 0 -26 -1 -39 -3z" />
    <glyph glyph-name="uni03BC" unicode="&#x3bc;" horiz-adv-x="612" 
d="M533 0h-113v74c-25 -55 -80 -87 -144 -87c-32 0 -59 8 -82 23c1 -16 1 -40 1 -72v-10c0 -25 0 -71 -11 -100h-118c13 44 14 98 14 166v521h117v-292c0 -101 43 -140 106 -140c71 0 112 51 112 152v280h118v-515z" />
    <glyph glyph-name="uni03A9" unicode="&#x3a9;" horiz-adv-x="780" 
d="M721 381c0 -135 -57 -224 -140 -284v-2c31 1 64 1 92 1h47v-96h-273v90c88 55 153 147 153 280c0 138 -73 245 -203 245s-203 -110 -203 -245c0 -133 65 -225 153 -280v-90h-273v96h47c28 0 61 0 92 -1v2c-83 60 -140 149 -140 284c0 177 121 331 324 331
s324 -154 324 -331z" />
    <glyph glyph-name="uni0394" unicode="&#x394;" horiz-adv-x="644" 
d="M-20 0l257 700h128l253 -700h-638zM254 445l-114 -345h315l-114 345l-43 135h-2c-5 -15 -21 -71 -42 -135z" />
    <glyph glyph-name="uni2015" unicode="&#x2015;" horiz-adv-x="1119" 
d="M55 235l22 102h1001l-22 -102h-1001z" />
    </font>
</defs>
</svg>
