<?xml version="1.0" standalone="no"?>
<!DOCTYPE svg PUBLIC "-//W3C//DTD SVG 1.1//EN" "http://www.w3.org/Graphics/SVG/1.1/DTD/svg11.dtd" >
<svg xmlns="http://www.w3.org/2000/svg" xmlns:xlink="http://www.w3.org/1999/xlink" version="1.1">
<metadata>
Created by FontForge 20201107 at Wed Dec  9 17:56:15 2020
 By Nikolai Pohorelsky
Copyright \(c\) 2020 by Optimo SARL. All rights reserved.
</metadata>
<defs>
<font id="AntiqueLegacy-Bold" horiz-adv-x="660" >
  <font-face 
    font-family="Antique Legacy"
    font-weight="700"
    font-stretch="normal"
    units-per-em="1000"
    panose-1="2 11 8 4 1 1 1 1 1 4"
    ascent="800"
    descent="-200"
    x-height="515"
    cap-height="700"
    bbox="-134 -239 1374 1051"
    underline-thickness="50"
    underline-position="-125"
    stemh="129"
    stemv="134"
    unicode-range="U+000D-FEFF"
  />
<missing-glyph horiz-adv-x="642" 
d="M245 779h49l-44 -44c-71 -19 -127 -75 -147 -147l-54 -54v49zM147 779h49l-147 -147v49zM539 779h49l-104 -104c-8 9 -17 16 -26 23zM441 779h49l-62 -62c-11 6 -23 11 -34 15zM343 779h49l-38 -38c-9 1 -19 2 -28 2c-8 0 -12 0 -20 -1zM98 779l-49 -49v49h49zM593 735
v-49l-70 -70c-5 10 -11 20 -18 31zM593 637v-49l-52 -52c0 15 -3 30 -6 43zM49 387l148 148l39 -2c0 36 27 75 75 75h8l-270 -270v49zM49 289l309 309c11 -6 19 -14 26 -23l-335 -335v49zM49 485l56 56l46 -3l-102 -102v49zM593 539v-49l-216 -216v7c0 42 27 52 70 85
c21 17 75 46 89 116zM49 191l347 347v-15c0 -45 -56 -74 -92 -108c-15 -15 -27 -33 -36 -54l-219 -219v49zM593 441v-49l-224 -224h-49zM593 343v-49l-210 -210v49zM49 93l206 206v-38h11l-217 -217v49zM54 0l261 261h49l-93 -93h-23v-23l-145 -145h-49zM348 0l33 33h2v2
l210 210v-49l-196 -196h-49zM446 0l147 147v-49l-98 -98h-49zM152 0l96 96v-49l-47 -47h-49zM593 0h-49l49 49v-49zM250 0l33 33h49l-33 -33h-49z" />
    <glyph glyph-name="f_f" unicode="ff" horiz-adv-x="746" 
d="M445 0v394h-149v-394h-196v394h-80v121h80v12c0 48 1 97 38 132c36 35 78 42 158 42c49 0 66 -1 91 -2v-125c-13 1 -21 1 -36 1c-44 0 -60 -11 -60 -52v-8h154v12c0 48 1 97 38 132c36 35 78 42 158 42c49 0 66 -1 91 -2v-125c-13 1 -21 1 -36 1c-44 0 -60 -11 -60 -52
v-8h96v-121h-91v-394h-196z" />
    <glyph glyph-name="f_i" unicode="fi" horiz-adv-x="689" 
d="M100 0v394h-80v121h80v12c0 48 1 97 38 132c36 35 78 42 158 42c49 0 66 -1 91 -2v-125c-13 1 -21 1 -36 1c-44 0 -60 -11 -60 -52v-8h96v-121h-91v-394h-196zM642 700v-138h-197v138h197zM445 0v515h197v-515h-197z" />
    <glyph glyph-name="f_l" unicode="fl" horiz-adv-x="689" 
d="M100 0v394h-80v121h80v12c0 48 1 97 38 132c36 35 78 42 158 42c49 0 66 -1 91 -2v-125c-13 1 -21 1 -36 1c-44 0 -60 -11 -60 -52v-8h96v-121h-91v-394h-196zM445 0v700h197v-700h-197z" />
    <glyph glyph-name="f_f_i" unicode="ffi" horiz-adv-x="1034" 
d="M445 0v394h-149v-394h-196v394h-80v121h80v12c0 48 1 97 38 132c36 35 78 42 158 42c49 0 66 -1 91 -2v-125c-13 1 -21 1 -36 1c-44 0 -60 -11 -60 -52v-8h154v12c0 48 1 97 38 132c36 35 78 42 158 42c49 0 66 -1 91 -2v-125c-13 1 -21 1 -36 1c-44 0 -60 -11 -60 -52
v-8h96v-121h-91v-394h-196zM987 700v-138h-197v138h197zM790 0v515h197v-515h-197z" />
    <glyph glyph-name="f_f_l" unicode="ffl" horiz-adv-x="1034" 
d="M445 0v394h-149v-394h-196v394h-80v121h80v12c0 48 1 97 38 132c36 35 78 42 158 42c49 0 66 -1 91 -2v-125c-13 1 -21 1 -36 1c-44 0 -60 -11 -60 -52v-8h154v12c0 48 1 97 38 132c36 35 78 42 158 42c49 0 66 -1 91 -2v-125c-13 1 -21 1 -36 1c-44 0 -60 -11 -60 -52
v-8h96v-121h-91v-394h-196zM790 0v700h197v-700h-197z" />
    <glyph glyph-name=".notdef" horiz-adv-x="642" 
d="M245 779h49l-44 -44c-71 -19 -127 -75 -147 -147l-54 -54v49zM147 779h49l-147 -147v49zM539 779h49l-104 -104c-8 9 -17 16 -26 23zM441 779h49l-62 -62c-11 6 -23 11 -34 15zM343 779h49l-38 -38c-9 1 -19 2 -28 2c-8 0 -12 0 -20 -1zM98 779l-49 -49v49h49zM593 735
v-49l-70 -70c-5 10 -11 20 -18 31zM593 637v-49l-52 -52c0 15 -3 30 -6 43zM49 387l148 148l39 -2c0 36 27 75 75 75h8l-270 -270v49zM49 289l309 309c11 -6 19 -14 26 -23l-335 -335v49zM49 485l56 56l46 -3l-102 -102v49zM593 539v-49l-216 -216v7c0 42 27 52 70 85
c21 17 75 46 89 116zM49 191l347 347v-15c0 -45 -56 -74 -92 -108c-15 -15 -27 -33 -36 -54l-219 -219v49zM593 441v-49l-224 -224h-49zM593 343v-49l-210 -210v49zM49 93l206 206v-38h11l-217 -217v49zM54 0l261 261h49l-93 -93h-23v-23l-145 -145h-49zM348 0l33 33h2v2
l210 210v-49l-196 -196h-49zM446 0l147 147v-49l-98 -98h-49zM152 0l96 96v-49l-47 -47h-49zM593 0h-49l49 49v-49zM250 0l33 33h49l-33 -33h-49z" />
    <glyph glyph-name="uni2003" unicode="&#x2003;" horiz-adv-x="1000" 
 />
    <glyph glyph-name="uni2002" unicode="&#x2002;" horiz-adv-x="500" 
 />
    <glyph glyph-name="uni2005" unicode="&#x2005;" horiz-adv-x="250" 
 />
    <glyph glyph-name="uni200A" unicode="&#x200a;" horiz-adv-x="42" 
 />
    <glyph glyph-name="uni2009" unicode="&#x2009;" horiz-adv-x="125" 
 />
    <glyph glyph-name="uni2004" unicode="&#x2004;" horiz-adv-x="333" 
 />
    <glyph glyph-name="uni200B" unicode="&#x200b;" horiz-adv-x="0" 
 />
    <glyph glyph-name="uni2007" unicode="&#x2007;" horiz-adv-x="654" 
 />
    <glyph glyph-name="uni2008" unicode="&#x2008;" horiz-adv-x="299" 
 />
    <glyph glyph-name="CR" unicode="&#xd;" horiz-adv-x="225" 
 />
    <glyph glyph-name="space" unicode=" " horiz-adv-x="225" 
 />
    <glyph glyph-name="uni00A0" unicode="&#xa0;" horiz-adv-x="225" 
 />
    <glyph glyph-name="space.frac" horiz-adv-x="53" 
 />
    <glyph glyph-name="uni2000" unicode="&#x2000;" horiz-adv-x="500" 
 />
    <glyph glyph-name="uni2001" unicode="&#x2001;" horiz-adv-x="1000" 
 />
    <glyph glyph-name="NULL" horiz-adv-x="0" 
 />
    <glyph glyph-name="NULL" horiz-adv-x="0" 
 />
    <glyph glyph-name="uni2007.osf" horiz-adv-x="650" 
 />
    <glyph glyph-name="uni2007.tf" 
 />
    <glyph glyph-name="uni2007.tosf" 
 />
    <glyph glyph-name="uniFEFF" unicode="&#xfeff;" horiz-adv-x="0" 
 />
    <glyph glyph-name="uni2006" unicode="&#x2006;" horiz-adv-x="167" 
 />
    <glyph glyph-name="A" unicode="A" horiz-adv-x="705" 
d="M-10 0l258 700h211l254 -700h-223l-29 101h-223l-31 -101h-217zM285 251h132l-30 104c-12 43 -24 82 -32 113h-2c-9 -32 -20 -69 -35 -113z" />
    <glyph glyph-name="B" unicode="B" horiz-adv-x="717" 
d="M569 388v-2c64 -20 123 -72 123 -174c0 -64 -27 -118 -66 -153c-47 -41 -111 -59 -207 -59h-367v700h376c80 0 132 -11 172 -42c35 -25 56 -68 56 -127c0 -69 -36 -116 -87 -143zM257 428h129c44 0 69 17 69 57s-25 57 -69 57h-129v-114zM257 297v-136h139
c45 0 82 15 82 68c0 55 -37 68 -82 68h-139z" />
    <glyph glyph-name="C" unicode="C" horiz-adv-x="731" 
d="M502 274h211c-26 -178 -147 -291 -333 -291c-215 0 -352 163 -352 367c0 203 137 366 352 366c185 0 302 -98 331 -277h-212c-21 80 -72 103 -119 103c-54 0 -133 -38 -133 -192s79 -192 133 -192c47 0 106 25 122 116z" />
    <glyph glyph-name="D" unicode="D" horiz-adv-x="752" 
d="M52 0v700h334c81 0 126 -10 166 -29c117 -54 169 -178 169 -313c0 -166 -63 -298 -227 -342c-41 -11 -78 -16 -157 -16h-285zM266 520v-341h86c121 0 154 91 154 175s-31 166 -168 166h-72z" />
    <glyph glyph-name="E" unicode="E" horiz-adv-x="670" 
d="M52 0v700h571v-174h-363v-93h330v-166h-330v-93h376v-174h-584z" />
    <glyph glyph-name="F" unicode="F" horiz-adv-x="616" 
d="M52 0v700h541v-178h-328v-89h282v-166h-282v-267h-213z" />
    <glyph glyph-name="G" unicode="G" horiz-adv-x="773" 
d="M29 350c0 205 138 366 354 366c177 0 300 -94 328 -262l-209 -1c-20 67 -70 89 -118 89c-65 0 -136 -42 -136 -192c0 -140 65 -194 143 -194c64 0 111 36 122 79h-91v150h310v-385h-158l-5 67h-2c-48 -57 -120 -84 -207 -84c-202 0 -331 153 -331 367z" />
    <glyph glyph-name="H" unicode="H" horiz-adv-x="738" 
d="M52 0v700h216v-243h201v243h217v-700h-217v278h-201v-278h-216z" />
    <glyph glyph-name="I" unicode="I" horiz-adv-x="322" 
d="M52 0v700h218v-700h-218z" />
    <glyph glyph-name="J" unicode="J" horiz-adv-x="590" 
d="M543 700v-460c0 -85 -20 -144 -59 -187c-44 -48 -113 -70 -206 -70c-181 0 -261 99 -261 252v59h199v-43c0 -65 6 -101 55 -101c48 0 54 42 54 99v451h218z" />
    <glyph glyph-name="K" unicode="K" horiz-adv-x="744" 
d="M52 0v700h215v-96c0 -45 -1 -86 -1 -149h2c43 55 71 93 114 146l79 99h266l-254 -274l295 -426h-268l-173 272l-60 -65v-207h-215z" />
    <glyph glyph-name="L" unicode="L" horiz-adv-x="592" 
d="M52 0v700h216v-521h309v-179h-525z" />
    <glyph glyph-name="M" unicode="M" horiz-adv-x="917" 
d="M52 0v700h306l45 -190c17 -71 33 -140 54 -243h4l29 131c8 37 16 74 25 112l44 190h306v-700h-203v195c0 108 2 206 2 279h-4c-21 -80 -42 -176 -69 -276l-52 -198h-161l-52 198l-69 276h-4c0 -69 2 -172 2 -276v-198h-203z" />
    <glyph glyph-name="N" unicode="N" horiz-adv-x="734" 
d="M52 0v700h220l90 -165l115 -212h2c0 85 -1 167 -1 218v159h204v-700h-210l-101 180l-114 204h-2c0 -49 1 -132 1 -208v-176h-204z" />
    <glyph glyph-name="O" unicode="O" horiz-adv-x="768" 
d="M384 -17c-213 0 -356 163 -356 367c0 203 143 366 356 366s356 -163 356 -366c0 -204 -143 -367 -356 -367zM247 350c0 -155 82 -192 137 -192s137 37 137 192s-82 192 -137 192s-137 -37 -137 -192z" />
    <glyph glyph-name="P" unicode="P" horiz-adv-x="686" 
d="M52 0v700h343c93 0 143 -17 188 -52c53 -40 86 -104 86 -187c0 -97 -37 -165 -100 -205c-45 -29 -98 -44 -187 -44h-116v-212h-214zM266 522v-142h88c56 0 111 5 111 72c0 68 -55 70 -111 70h-88z" />
    <glyph glyph-name="Q" unicode="Q" horiz-adv-x="769" 
d="M384 -17c-213 0 -356 163 -356 367c0 203 143 366 356 366s356 -163 356 -366c0 -95 -33 -179 -88 -243l90 -93l-97 -96l-100 103c-47 -24 -101 -38 -161 -38zM247 350c0 -154 82 -194 137 -194c8 0 19 0 28 3l-60 63l99 95l58 -61h1c8 25 11 57 11 94
c0 155 -82 192 -137 192s-137 -37 -137 -192z" />
    <glyph glyph-name="R" unicode="R" horiz-adv-x="730" 
d="M52 0v700h391c68 0 106 -7 141 -23c65 -29 107 -88 107 -176c0 -93 -53 -149 -112 -173v-2c59 -17 102 -61 106 -158l3 -75c3 -40 0 -67 13 -87v-6h-211c-8 23 -7 33 -10 60l-4 52c-3 43 -7 79 -27 103c-15 17 -35 28 -83 28h-100v-243h-214zM266 536v-140h114
c39 0 95 8 95 70c0 63 -56 70 -95 70h-114z" />
    <glyph glyph-name="S" unicode="S" horiz-adv-x="675" 
d="M18 235h216c0 -65 35 -97 105 -97c67 0 95 27 95 60c0 29 -19 45 -92 66l-103 31c-117 34 -194 80 -194 207c0 140 128 214 284 214c146 0 288 -56 293 -228h-204c-4 59 -48 74 -92 74c-51 0 -76 -20 -76 -48s18 -40 95 -60l100 -26c52 -13 111 -33 148 -68
c35 -31 57 -73 57 -136c0 -162 -137 -241 -324 -241c-168 0 -308 86 -308 252z" />
    <glyph glyph-name="T" unicode="T" horiz-adv-x="639" 
d="M212 0v520h-196v180h607v-180h-196v-520h-215z" />
    <glyph glyph-name="U" unicode="U" horiz-adv-x="730" 
d="M365 158c86 0 103 60 103 131v411h216v-426c0 -116 -34 -191 -102 -238c-51 -35 -124 -53 -217 -53s-166 18 -217 53c-68 47 -102 122 -102 238v426h216v-411c0 -71 18 -131 103 -131z" />
    <glyph glyph-name="V" unicode="V" horiz-adv-x="670" 
d="M672 700l-219 -700h-241l-209 700h218l50 -189c19 -71 44 -163 65 -258h2c21 95 40 171 63 259l49 188h222z" />
    <glyph glyph-name="W" unicode="W" horiz-adv-x="959" 
d="M960 700l-196 -700h-210l-27 154c-19 107 -36 198 -48 278h-3c-13 -85 -30 -175 -47 -278l-26 -154h-211l-190 700h212l36 -185c15 -69 28 -141 48 -256h3l26 143l22 113l36 185h190l35 -185c16 -84 31 -155 48 -262h3c20 111 34 185 49 261l37 186h213z" />
    <glyph glyph-name="X" unicode="X" horiz-adv-x="719" 
d="M-15 0l253 372l-230 328h253l105 -190h2l102 190h239l-224 -330l250 -370h-260l-118 209h-2l-123 -209h-247z" />
    <glyph glyph-name="Y" unicode="Y" horiz-adv-x="695" 
d="M239 0v258l-246 442h238l55 -122c19 -39 35 -79 60 -138h2c25 59 43 94 64 139l57 121h236l-251 -442v-258h-215z" />
    <glyph glyph-name="Z" unicode="Z" horiz-adv-x="682" 
d="M30 0v169l325 351h-307v180h591v-157l-328 -364h344v-179h-625z" />
    <glyph glyph-name="a" unicode="a" horiz-adv-x="603" 
d="M570 0h-187c-5 15 -8 32 -9 47h-2c-40 -45 -96 -60 -163 -60c-115 0 -186 60 -186 156c0 61 29 98 73 122c40 23 93 33 148 42l77 13c27 5 47 5 47 36c0 39 -27 54 -66 54c-56 0 -73 -32 -76 -71l-183 2c6 138 117 187 265 187c115 0 175 -22 208 -58
c36 -37 41 -91 41 -154v-244c0 -43 2 -49 13 -64v-8zM368 231c-5 -8 -20 -11 -39 -16l-29 -8c-53 -15 -84 -24 -84 -59c0 -29 21 -49 65 -49c40 0 67 15 80 45c7 13 7 28 7 45v42z" />
    <glyph glyph-name="b" unicode="b" horiz-adv-x="632" 
d="M47 0v700h196v-127c0 -48 0 -74 -1 -115h2c31 44 83 68 142 68c173 0 220 -145 220 -266c0 -133 -72 -272 -219 -272c-85 0 -127 37 -150 70h-2c0 -13 1 -23 1 -40v-18h-189zM320 130c64 0 83 62 83 127c0 64 -19 125 -83 125c-63 0 -83 -61 -83 -125
c0 -65 20 -127 83 -127z" />
    <glyph glyph-name="c" unicode="c" horiz-adv-x="591" 
d="M385 205h190c-20 -126 -121 -219 -268 -219c-166 0 -283 119 -283 271c0 153 117 271 283 271c156 0 239 -88 263 -209h-187c-9 39 -33 67 -76 67c-65 0 -84 -63 -84 -129s19 -131 84 -131c47 0 69 35 78 79z" />
    <glyph glyph-name="d" unicode="d" horiz-adv-x="632" 
d="M585 0h-189v18c0 17 1 27 1 40h-2c-23 -33 -65 -70 -150 -70c-147 0 -219 121 -219 260c0 125 56 278 220 278c59 0 113 -24 142 -68h2c-1 41 -1 67 -1 115v127h196v-700zM312 130c64 0 83 62 83 127c0 64 -19 125 -83 125c-63 0 -83 -61 -83 -125c0 -65 20 -127 83 -127
z" />
    <glyph glyph-name="e" unicode="e" horiz-adv-x="610" 
d="M588 213h-382c3 -57 40 -97 101 -97c47 0 76 19 92 47h182c-36 -110 -149 -176 -275 -176c-166 0 -281 107 -281 269c0 149 112 272 282 272c172 0 278 -115 281 -315zM210 315h190c-4 47 -37 88 -92 88c-56 0 -93 -37 -98 -88z" />
    <glyph glyph-name="f" unicode="f" horiz-adv-x="401" 
d="M100 0v394h-80v121h80v12c0 48 1 97 38 132c36 35 78 42 158 42c49 0 66 -1 91 -2v-125c-13 1 -21 1 -36 1c-44 0 -60 -11 -60 -52v-8h96v-121h-91v-394h-196z" />
    <glyph glyph-name="g" unicode="g" horiz-adv-x="627" 
d="M53 -8h196c7 -24 28 -40 65 -40c25 0 45 11 56 24c11 14 17 32 17 54v14c0 17 0 23 1 36h-3c-31 -39 -84 -59 -143 -59c-146 0 -216 122 -216 256c0 131 80 249 211 249c59 0 120 -22 148 -74h3c0 8 -1 23 -1 42v21h193v-448c0 -30 -5 -62 -14 -97s-27 -65 -56 -90
c-41 -36 -100 -58 -199 -58c-148 0 -242 55 -258 170zM311 159c63 0 83 53 83 113c0 29 -6 55 -18 77c-12 23 -34 34 -65 34s-53 -11 -65 -34c-12 -22 -18 -48 -18 -77c0 -60 20 -113 83 -113z" />
    <glyph glyph-name="h" unicode="h" horiz-adv-x="625" 
d="M47 0v700h196v-160c0 -45 -1 -69 -1 -84h2c32 47 91 72 160 72c52 0 98 -16 131 -49c29 -29 47 -68 47 -129v-350h-196v272c0 61 -12 99 -67 99c-53 0 -76 -39 -76 -100v-271h-196z" />
    <glyph glyph-name="i" unicode="i" horiz-adv-x="291" 
d="M244 700v-138h-197v138h197zM47 0v515h197v-515h-197z" />
    <glyph glyph-name="j" unicode="j" horiz-adv-x="291" 
d="M244 700v-138h-197v138h197zM47 515h197v-486c0 -83 -5 -132 -46 -167c-36 -32 -99 -36 -146 -36c-29 0 -69 1 -92 2v156h32c40 0 55 15 55 64v467z" />
    <glyph glyph-name="k" unicode="k" horiz-adv-x="596" 
d="M47 0v700h194v-241c0 -28 0 -62 -1 -94h1c21 27 37 45 58 70l67 80h222l-183 -195l212 -320h-236l-105 186l-35 -37v-149h-194z" />
    <glyph glyph-name="l" unicode="l" horiz-adv-x="291" 
d="M47 0v700h197v-700h-197z" />
    <glyph glyph-name="m" unicode="m" horiz-adv-x="941" 
d="M570 0h-196v278c0 55 -8 93 -61 93c-49 0 -70 -33 -70 -90v-281h-196v515h189v-32c0 -12 -1 -24 -1 -37h2c35 55 92 82 164 82c67 0 121 -29 145 -81c28 43 86 81 173 81c63 0 105 -20 133 -49c33 -33 46 -81 46 -126v-353h-197v278c0 55 -8 93 -61 93
c-49 0 -70 -33 -70 -90v-281z" />
    <glyph glyph-name="n" unicode="n" horiz-adv-x="625" 
d="M47 0v515h190v-23c0 -7 -1 -29 -1 -44h2c33 52 93 80 166 80c52 0 98 -16 131 -49c29 -29 47 -68 47 -129v-350h-196v272c0 61 -12 99 -67 99c-53 0 -76 -39 -76 -100v-271h-196z" />
    <glyph glyph-name="o" unicode="o" horiz-adv-x="616" 
d="M308 528c165 0 284 -118 284 -271c0 -152 -119 -271 -284 -271s-284 119 -284 271c0 153 119 271 284 271zM308 125c66 0 85 66 85 132c0 65 -19 130 -85 130c-65 0 -85 -65 -85 -130c0 -66 20 -132 85 -132z" />
    <glyph glyph-name="p" unicode="p" horiz-adv-x="632" 
d="M47 -172v687h189v-10c0 -13 0 -30 -1 -50h2c31 44 90 71 149 71c173 0 220 -145 220 -266c0 -133 -72 -272 -219 -272c-77 0 -120 31 -143 64h-2c0 -13 1 -23 1 -40v-184h-196zM320 130c64 0 83 62 83 127c0 64 -19 125 -83 125c-63 0 -83 -61 -83 -125
c0 -65 20 -127 83 -127z" />
    <glyph glyph-name="q" unicode="q" horiz-adv-x="632" 
d="M586 -172h-196v184c0 17 1 27 1 40h-2c-23 -33 -64 -64 -143 -64c-147 0 -219 121 -219 258c0 120 49 280 220 280c59 0 120 -27 149 -71h2c-1 20 -1 37 -1 50v10h189v-687zM313 130c64 0 83 62 83 127c0 64 -19 125 -83 125c-63 0 -83 -61 -83 -125
c0 -65 20 -127 83 -127z" />
    <glyph glyph-name="r" unicode="r" horiz-adv-x="439" 
d="M47 0v515h187v-79h2c19 57 76 91 148 91c20 0 30 0 42 -3v-171c-15 3 -33 5 -53 5c-45 0 -80 -14 -103 -41c-19 -23 -28 -58 -28 -107v-210h-195z" />
    <glyph glyph-name="s" unicode="s" horiz-adv-x="563" 
d="M525 364h-180c-1 33 -25 55 -68 55c-33 0 -58 -11 -58 -38c0 -25 28 -33 71 -41l67 -13c39 -8 93 -21 128 -48c32 -24 54 -59 54 -110c0 -143 -137 -182 -262 -182c-120 0 -254 48 -257 184h187c3 -45 37 -63 77 -63c39 0 66 14 66 43c0 23 -16 32 -59 41l-92 19
c-117 24 -167 72 -167 153c0 131 140 164 243 164c111 0 245 -31 250 -164z" />
    <glyph glyph-name="t" unicode="t" horiz-adv-x="420" 
d="M95 674h196v-159h101v-121h-101v-190c0 -23 4 -38 12 -45s25 -11 51 -11c15 0 25 0 38 1v-149c-27 -1 -59 -4 -108 -4c-72 0 -117 4 -153 39c-35 35 -36 87 -36 136v223h-86v121h86v159z" />
    <glyph glyph-name="u" unicode="u" horiz-adv-x="624" 
d="M577 515v-515h-190v23c0 7 1 29 1 44h-2c-34 -53 -89 -80 -165 -80c-52 0 -98 16 -131 49c-29 29 -47 68 -47 129v350h196v-272c0 -61 12 -99 67 -99c53 0 75 39 75 100v271h196z" />
    <glyph glyph-name="v" unicode="v" horiz-adv-x="567" 
d="M569 515l-170 -515h-232l-169 515h207l36 -138c12 -45 26 -108 45 -188h2c19 77 33 141 46 190l35 136h200z" />
    <glyph glyph-name="w" unicode="w" horiz-adv-x="873" 
d="M877 515l-164 -515h-201l-26 111c-23 100 -36 157 -47 212h-3c-12 -60 -27 -116 -50 -212l-27 -111h-201l-161 515h204l28 -115c15 -61 31 -124 48 -212h4c15 87 28 150 41 214l23 113h184l23 -105c15 -69 30 -143 45 -222h4c17 81 33 154 49 225l23 102h204z" />
    <glyph glyph-name="x" unicode="x" horiz-adv-x="554" 
d="M-12 0l180 271l-162 244h216l56 -102h2l56 102h211l-162 -244l182 -271h-216l-73 126h-2l-73 -126h-215z" />
    <glyph glyph-name="y" unicode="y" horiz-adv-x="572" 
d="M575 515l-166 -464c-24 -68 -45 -140 -90 -179c-51 -43 -108 -44 -188 -44h-87v157h48c20 0 48 -2 61 5c12 6 18 18 18 35c0 19 -10 45 -25 85l-152 405h210l42 -157c11 -43 27 -109 40 -173h2c15 64 31 134 42 175l42 155h203z" />
    <glyph glyph-name="z" unicode="z" horiz-adv-x="567" 
d="M28 0v152l241 220h-219v143h471v-151l-235 -221h256v-143h-514z" />
    <glyph glyph-name="Agrave" unicode="&#xc0;" horiz-adv-x="705" 
d="M-10 0l258 700h211l254 -700h-223l-29 101h-223l-31 -101h-217zM285 251h132l-30 104c-12 43 -24 82 -32 113h-2c-9 -32 -20 -69 -35 -113zM151 895h205l75 -129h-153z" />
    <glyph glyph-name="Aacute" unicode="&#xc1;" horiz-adv-x="705" 
d="M-10 0l258 700h211l254 -700h-223l-29 101h-223l-31 -101h-217zM285 251h132l-30 104c-12 43 -24 82 -32 113h-2c-9 -32 -20 -69 -35 -113zM547 895l-127 -129h-153l75 129h205z" />
    <glyph glyph-name="Acircumflex" unicode="&#xc2;" horiz-adv-x="705" 
d="M-10 0l258 700h211l254 -700h-223l-29 101h-223l-31 -101h-217zM285 251h132l-30 104c-12 43 -24 82 -32 113h-2c-9 -32 -20 -69 -35 -113zM161 767l106 129h174l107 -129h-152l-42 51l-42 -51h-151z" />
    <glyph glyph-name="Atilde" unicode="&#xc3;" horiz-adv-x="705" 
d="M-10 0l258 700h211l254 -700h-223l-29 101h-223l-31 -101h-217zM285 251h132l-30 104c-12 43 -24 82 -32 113h-2c-9 -32 -20 -69 -35 -113zM242 760h-78c0 57 25 140 110 140c27 0 47 -5 72 -14l37 -14c17 -7 30 -12 43 -12c19 0 36 10 41 43h78
c2 -58 -25 -139 -110 -139c-25 0 -47 5 -72 14l-37 14c-17 7 -30 11 -43 11c-17 0 -34 -8 -41 -43z" />
    <glyph glyph-name="Adieresis" unicode="&#xc4;" horiz-adv-x="705" 
d="M-10 0l258 700h211l254 -700h-223l-29 101h-223l-31 -101h-217zM285 251h132l-30 104c-12 43 -24 82 -32 113h-2c-9 -32 -20 -69 -35 -113zM383 766v129h160v-129h-160zM166 766v129h160v-129h-160z" />
    <glyph glyph-name="Amacron" unicode="&#x100;" horiz-adv-x="705" 
d="M-10 0l258 700h211l254 -700h-223l-29 101h-223l-31 -101h-217zM285 251h132l-30 104c-12 43 -24 82 -32 113h-2c-9 -32 -20 -69 -35 -113zM188 778v93h332v-93h-332z" />
    <glyph glyph-name="Abreve" unicode="&#x102;" horiz-adv-x="705" 
d="M-10 0l258 700h211l254 -700h-223l-29 101h-223l-31 -101h-217zM285 251h132l-30 104c-12 43 -24 82 -32 113h-2c-9 -32 -20 -69 -35 -113zM180 871l86 31c17 -29 46 -44 87 -44c40 0 73 15 89 44l86 -30c-21 -76 -87 -114 -174 -114c-85 0 -153 38 -174 113z" />
    <glyph glyph-name="Aring" unicode="&#xc5;" horiz-adv-x="705" 
d="M-10 0l258 700h211l254 -700h-223l-29 101h-223l-31 -101h-217zM285 251h132l-30 104c-12 43 -24 82 -32 113h-2c-9 -32 -20 -69 -35 -113zM354 917c47 0 83 -36 83 -83c0 -45 -36 -84 -83 -84c-45 0 -84 39 -84 84c0 47 39 83 84 83zM380 834c0 15 -11 26 -26 26
c-13 0 -26 -11 -26 -26c0 -13 13 -26 26 -26c15 0 26 13 26 26z" />
    <glyph glyph-name="Aringacute" unicode="&#x1fa;" horiz-adv-x="705" 
d="M-10 0l258 700h211l254 -700h-223l-29 101h-223l-31 -101h-217zM285 251h132l-30 104c-12 43 -24 82 -32 113h-2c-9 -32 -20 -69 -35 -113zM355 896c47 0 83 -36 83 -83c0 -45 -36 -84 -83 -84c-45 0 -84 39 -84 84c0 47 39 83 84 83zM355 839c-13 0 -26 -11 -26 -26
c0 -13 13 -26 26 -26c15 0 26 13 26 26c0 15 -11 26 -26 26zM559 1051l-127 -129h-153l75 129h205z" />
    <glyph glyph-name="Aogonek" unicode="&#x104;" horiz-adv-x="705" 
d="M-10 0l258 700h211l254 -700h-223l-29 101h-223l-31 -101h-217zM285 251h132l-30 104c-12 43 -24 82 -32 113h-2c-9 -32 -20 -69 -35 -113zM633 0h80c-59 -45 -76 -73 -76 -97c0 -19 9 -29 26 -29c14 0 26 9 36 28l57 -20c-12 -39 -43 -76 -106 -76
c-77 0 -104 44 -104 83c0 49 43 88 87 111z" />
    <glyph glyph-name="AE" unicode="&#xc6;" horiz-adv-x="1006" 
d="M972 0h-533v101h-198l-41 -101h-225l319 700h665v-174h-318v-93h285v-166h-285v-93h331v-174zM439 251v279h-14l-122 -279h136z" />
    <glyph glyph-name="AEacute" unicode="&#x1fc;" horiz-adv-x="1006" 
d="M972 0h-533v101h-198l-41 -101h-225l319 700h665v-174h-318v-93h285v-166h-285v-93h331v-174zM439 251v279h-14l-122 -279h136zM779 895l-127 -129h-153l75 129h205z" />
    <glyph glyph-name="Cacute" unicode="&#x106;" horiz-adv-x="731" 
d="M502 274h211c-26 -178 -147 -291 -333 -291c-215 0 -352 163 -352 367c0 203 137 366 352 366c185 0 302 -98 331 -277h-212c-21 80 -72 103 -119 103c-54 0 -133 -38 -133 -192s79 -192 133 -192c47 0 106 25 122 116zM580 895l-127 -129h-153l75 129h205z" />
    <glyph glyph-name="Ccircumflex" unicode="&#x108;" horiz-adv-x="731" 
d="M502 274h211c-26 -178 -147 -291 -333 -291c-215 0 -352 163 -352 367c0 203 137 366 352 366c185 0 302 -98 331 -277h-212c-21 80 -72 103 -119 103c-54 0 -133 -38 -133 -192s79 -192 133 -192c47 0 106 25 122 116zM188 767l106 129h174l107 -129h-152l-42 51
l-42 -51h-151z" />
    <glyph glyph-name="Ccaron" unicode="&#x10c;" horiz-adv-x="731" 
d="M502 274h211c-26 -178 -147 -291 -333 -291c-215 0 -352 163 -352 367c0 203 137 366 352 366c185 0 302 -98 331 -277h-212c-21 80 -72 103 -119 103c-54 0 -133 -38 -133 -192s79 -192 133 -192c47 0 106 25 122 116zM189 897h151l42 -51l42 51h152l-107 -129h-174z
" />
    <glyph glyph-name="Cdotaccent" unicode="&#x10a;" horiz-adv-x="731" 
d="M502 274h211c-26 -178 -147 -291 -333 -291c-215 0 -352 163 -352 367c0 203 137 366 352 366c185 0 302 -98 331 -277h-212c-21 80 -72 103 -119 103c-54 0 -133 -38 -133 -192s79 -192 133 -192c47 0 106 25 122 116zM302 766v129h160v-129h-160z" />
    <glyph glyph-name="Ccedilla" unicode="&#xc7;" horiz-adv-x="731" 
d="M502 274h211c-26 -178 -147 -291 -333 -291c-215 0 -352 163 -352 367c0 203 137 366 352 366c185 0 302 -98 331 -277h-212c-21 80 -72 103 -119 103c-54 0 -133 -38 -133 -192s79 -192 133 -192c47 0 106 25 122 116zM339 0h85l-37 -33l1 -1h6c40 0 86 -20 86 -72
c0 -62 -58 -88 -118 -88c-37 0 -77 10 -104 27l27 52c19 -12 39 -23 64 -23c23 0 38 12 38 29c0 19 -15 28 -38 28c-11 0 -22 -3 -33 -8l-29 30z" />
    <glyph glyph-name="Dcaron" unicode="&#x10e;" horiz-adv-x="752" 
d="M52 0v700h334c81 0 126 -10 166 -29c117 -54 169 -178 169 -313c0 -166 -63 -298 -227 -342c-41 -11 -78 -16 -157 -16h-285zM266 520v-341h86c121 0 154 91 154 175s-31 166 -168 166h-72zM153 897h151l42 -51l42 51h152l-107 -129h-174z" />
    <glyph glyph-name="Dcroat" unicode="&#x110;" horiz-adv-x="771" 
d="M71 0v286h-55v133h55v281h351c107 0 180 -34 229 -86c63 -65 89 -161 89 -256c0 -121 -34 -216 -105 -279c-59 -51 -141 -79 -256 -79h-308zM420 286h-138v-107h89c133 0 154 109 154 175c0 50 -13 166 -170 166h-73v-101h138v-133z" />
    <glyph glyph-name="Eth" unicode="&#xd0;" horiz-adv-x="771" 
d="M71 0v286h-55v133h55v281h351c107 0 180 -34 229 -86c63 -65 89 -161 89 -256c0 -121 -34 -216 -105 -279c-59 -51 -141 -79 -256 -79h-308zM420 286h-138v-107h89c133 0 154 109 154 175c0 50 -13 166 -170 166h-73v-101h138v-133z" />
    <glyph glyph-name="Egrave" unicode="&#xc8;" horiz-adv-x="670" 
d="M52 0v700h571v-174h-363v-93h330v-166h-330v-93h376v-174h-584zM156 895h205l75 -129h-153z" />
    <glyph glyph-name="Eacute" unicode="&#xc9;" horiz-adv-x="670" 
d="M52 0v700h571v-174h-363v-93h330v-166h-330v-93h376v-174h-584zM515 895l-127 -129h-153l75 129h205z" />
    <glyph glyph-name="Ecircumflex" unicode="&#xca;" horiz-adv-x="670" 
d="M52 0v700h571v-174h-363v-93h330v-166h-330v-93h376v-174h-584zM142 767l106 129h174l107 -129h-152l-42 51l-42 -51h-151z" />
    <glyph glyph-name="Ecaron" unicode="&#x11a;" horiz-adv-x="670" 
d="M52 0v700h571v-174h-363v-93h330v-166h-330v-93h376v-174h-584zM136 897h151l42 -51l42 51h152l-107 -129h-174z" />
    <glyph glyph-name="Edieresis" unicode="&#xcb;" horiz-adv-x="670" 
d="M52 0v700h571v-174h-363v-93h330v-166h-330v-93h376v-174h-584zM374 766v129h160v-129h-160zM157 766v129h160v-129h-160z" />
    <glyph glyph-name="Emacron" unicode="&#x112;" horiz-adv-x="670" 
d="M52 0v700h571v-174h-363v-93h330v-166h-330v-93h376v-174h-584zM163 778v93h332v-93h-332z" />
    <glyph glyph-name="Ebreve" unicode="&#x114;" horiz-adv-x="670" 
d="M52 0v700h571v-174h-363v-93h330v-166h-330v-93h376v-174h-584zM156 871l86 31c17 -29 46 -44 87 -44c40 0 73 15 89 44l86 -30c-21 -76 -87 -114 -174 -114c-85 0 -153 38 -174 113z" />
    <glyph glyph-name="Edotaccent" unicode="&#x116;" horiz-adv-x="670" 
d="M52 0v700h571v-174h-363v-93h330v-166h-330v-93h376v-174h-584zM257 766v129h160v-129h-160z" />
    <glyph glyph-name="Eogonek" unicode="&#x118;" horiz-adv-x="670" 
d="M52 0v700h571v-174h-363v-93h330v-166h-330v-93h376v-174h-584zM556 0h80c-59 -45 -76 -73 -76 -97c0 -19 9 -29 26 -29c14 0 26 9 36 28l57 -20c-12 -39 -43 -76 -106 -76c-77 0 -104 44 -104 83c0 49 43 88 87 111z" />
    <glyph glyph-name="Gcircumflex" unicode="&#x11c;" horiz-adv-x="773" 
d="M29 350c0 205 138 366 354 366c177 0 300 -94 328 -262l-209 -1c-20 67 -70 89 -118 89c-65 0 -136 -42 -136 -192c0 -140 65 -194 143 -194c64 0 111 36 122 79h-91v150h310v-385h-158l-5 67h-2c-48 -57 -120 -84 -207 -84c-202 0 -331 153 -331 367zM200 767l106 129
h174l107 -129h-152l-42 51l-42 -51h-151z" />
    <glyph glyph-name="Gbreve" unicode="&#x11e;" horiz-adv-x="773" 
d="M29 350c0 205 138 366 354 366c177 0 300 -94 328 -262l-209 -1c-20 67 -70 89 -118 89c-65 0 -136 -42 -136 -192c0 -140 65 -194 143 -194c64 0 111 36 122 79h-91v150h310v-385h-158l-5 67h-2c-48 -57 -120 -84 -207 -84c-202 0 -331 153 -331 367zM213 871l86 31
c17 -29 46 -44 87 -44c40 0 73 15 89 44l86 -30c-21 -76 -87 -114 -174 -114c-85 0 -153 38 -174 113z" />
    <glyph glyph-name="uni0122" unicode="&#x122;" horiz-adv-x="773" 
d="M29 350c0 205 138 366 354 366c177 0 300 -94 328 -262l-209 -1c-20 67 -70 89 -118 89c-65 0 -136 -42 -136 -192c0 -140 65 -194 143 -194c64 0 111 36 122 79h-91v150h310v-385h-158l-5 67h-2c-48 -57 -120 -84 -207 -84c-202 0 -331 153 -331 367zM319 -139v98h122
v-80c0 -35 -7 -63 -24 -82c-21 -24 -55 -35 -98 -36v60c23 3 44 8 44 40h-44z" />
    <glyph glyph-name="Gdotaccent" unicode="&#x120;" horiz-adv-x="773" 
d="M29 350c0 205 138 366 354 366c177 0 300 -94 328 -262l-209 -1c-20 67 -70 89 -118 89c-65 0 -136 -42 -136 -192c0 -140 65 -194 143 -194c64 0 111 36 122 79h-91v150h310v-385h-158l-5 67h-2c-48 -57 -120 -84 -207 -84c-202 0 -331 153 -331 367zM312 766v129h160
v-129h-160z" />
    <glyph glyph-name="Hcircumflex" unicode="&#x124;" horiz-adv-x="738" 
d="M52 0v700h216v-243h201v243h217v-700h-217v278h-201v-278h-216zM175 767l106 129h174l107 -129h-152l-42 51l-42 -51h-151z" />
    <glyph glyph-name="Hbar" unicode="&#x126;" horiz-adv-x="738" 
d="M52 0v700h216v-77h201v77h217v-700h-217v278h-201v-278h-216zM268 451h201v57h-201v-57z" />
    <glyph glyph-name="Igrave" unicode="&#xcc;" horiz-adv-x="322" 
d="M52 0v700h218v-700h-218zM-35 895h205l75 -129h-153z" />
    <glyph glyph-name="Iacute" unicode="&#xcd;" horiz-adv-x="322" 
d="M52 0v700h218v-700h-218zM353 895l-127 -129h-153l75 129h205z" />
    <glyph glyph-name="Icircumflex" unicode="&#xce;" horiz-adv-x="322" 
d="M52 0v700h218v-700h-218zM-33 767l106 129h174l107 -129h-152l-42 51l-42 -51h-151z" />
    <glyph glyph-name="Itilde" unicode="&#x128;" horiz-adv-x="322" 
d="M52 0v700h218v-700h-218zM46 760h-78c0 57 25 140 110 140c27 0 47 -5 72 -14l37 -14c17 -7 30 -12 43 -12c19 0 36 10 41 43h78c2 -58 -25 -139 -110 -139c-25 0 -47 5 -72 14l-37 14c-17 7 -30 11 -43 11c-17 0 -34 -8 -41 -43z" />
    <glyph glyph-name="Idieresis" unicode="&#xcf;" horiz-adv-x="322" 
d="M52 0v700h218v-700h-218zM191 766v129h160v-129h-160zM-26 766v129h160v-129h-160z" />
    <glyph glyph-name="Imacron" unicode="&#x12a;" horiz-adv-x="322" 
d="M52 0v700h218v-700h-218zM-6 778v93h332v-93h-332z" />
    <glyph glyph-name="Ibreve" unicode="&#x12c;" horiz-adv-x="322" 
d="M52 0v700h218v-700h-218zM-15 871l86 31c17 -29 46 -44 87 -44c40 0 73 15 89 44l86 -30c-21 -76 -87 -114 -174 -114c-85 0 -153 38 -174 113z" />
    <glyph glyph-name="Idot" unicode="&#x130;" horiz-adv-x="322" 
d="M52 0v700h218v-700h-218zM79 766v129h160v-129h-160z" />
    <glyph glyph-name="Iogonek" unicode="&#x12e;" horiz-adv-x="322" 
d="M52 0v700h218v-700h-218zM144 0h80c-59 -45 -76 -73 -76 -97c0 -19 9 -29 26 -29c14 0 26 9 36 28l57 -20c-12 -39 -43 -76 -106 -76c-77 0 -104 44 -104 83c0 49 43 88 87 111z" />
    <glyph glyph-name="IJ" unicode="&#x132;" horiz-adv-x="893" 
d="M52 0v700h218v-700h-218zM846 700v-460c0 -85 -20 -144 -59 -187c-44 -48 -113 -70 -206 -70c-181 0 -261 99 -261 252v59h199v-43c0 -65 6 -101 55 -101c48 0 54 42 54 99v451h218z" />
    <glyph glyph-name="Jcircumflex" unicode="&#x134;" horiz-adv-x="590" 
d="M543 700v-460c0 -85 -20 -144 -59 -187c-44 -48 -113 -70 -206 -70c-181 0 -261 99 -261 252v59h199v-43c0 -65 6 -101 55 -101c48 0 54 42 54 99v451h218zM233 767l106 129h174l107 -129h-152l-42 51l-42 -51h-151z" />
    <glyph glyph-name="uni0136" unicode="&#x136;" horiz-adv-x="744" 
d="M52 0v700h215v-96c0 -45 -1 -86 -1 -149h2c43 55 71 93 114 146l79 99h266l-254 -274l295 -426h-268l-173 272l-60 -65v-207h-215zM331 -139v98h122v-80c0 -35 -7 -63 -24 -82c-21 -24 -55 -35 -98 -36v60c23 3 44 8 44 40h-44z" />
    <glyph glyph-name="Lacute" unicode="&#x139;" horiz-adv-x="592" 
d="M52 0v700h216v-521h309v-179h-525zM362 895l-127 -129h-153l75 129h205z" />
    <glyph glyph-name="Lcaron" unicode="&#x13d;" horiz-adv-x="594" 
d="M52 0v700h216v-521h309v-179h-525zM364 700h171l-65 -129h-138z" />
    <glyph glyph-name="Lslash" unicode="&#x141;" horiz-adv-x="648" 
d="M28 160v151l80 36v353h216v-255l178 81v-151l-178 -81v-115h309v-179h-525v196z" />
    <glyph glyph-name="Ldot" unicode="&#x13f;" horiz-adv-x="595" 
d="M52 0v700h216v-521h309v-179h-525zM365 302v129h169v-129h-169z" />
    <glyph glyph-name="Ldot.latn_CAT" horiz-adv-x="595" 
d="M52 0v700h216v-521h309v-179h-525zM365 302v129h169v-129h-169z" />
    <glyph glyph-name="uni013B" unicode="&#x13b;" horiz-adv-x="592" 
d="M52 0v700h216v-521h309v-179h-525zM267 -139v98h122v-80c0 -35 -7 -63 -24 -82c-21 -24 -55 -35 -98 -36v60c23 3 44 8 44 40h-44z" />
    <glyph glyph-name="Nacute" unicode="&#x143;" horiz-adv-x="734" 
d="M52 0v700h220l90 -165l115 -212h2c0 85 -1 167 -1 218v159h204v-700h-210l-101 180l-114 204h-2c0 -49 1 -132 1 -208v-176h-204zM554 895l-127 -129h-153l75 129h205z" />
    <glyph glyph-name="uni0145" unicode="&#x145;" horiz-adv-x="734" 
d="M52 0v700h220l90 -165l115 -212h2c0 85 -1 167 -1 218v159h204v-700h-210l-101 180l-114 204h-2c0 -49 1 -132 1 -208v-176h-204zM336 -139v98h122v-80c0 -35 -7 -63 -24 -82c-21 -24 -55 -35 -98 -36v60c23 3 44 8 44 40h-44z" />
    <glyph glyph-name="Ncaron" unicode="&#x147;" horiz-adv-x="734" 
d="M52 0v700h220l90 -165l115 -212h2c0 85 -1 167 -1 218v159h204v-700h-210l-101 180l-114 204h-2c0 -49 1 -132 1 -208v-176h-204zM163 897h151l42 -51l42 51h152l-107 -129h-174z" />
    <glyph glyph-name="Ntilde" unicode="&#xd1;" horiz-adv-x="734" 
d="M52 0v700h220l90 -165l115 -212h2c0 85 -1 167 -1 218v159h204v-700h-210l-101 180l-114 204h-2c0 -49 1 -132 1 -208v-176h-204zM253 760h-78c0 57 25 140 110 140c27 0 47 -5 72 -14l37 -14c17 -7 30 -12 43 -12c19 0 36 10 41 43h78c2 -58 -25 -139 -110 -139
c-25 0 -47 5 -72 14l-37 14c-17 7 -30 11 -43 11c-17 0 -34 -8 -41 -43z" />
    <glyph glyph-name="Eng" unicode="&#x14a;" horiz-adv-x="733" 
d="M52 0v700h220l205 -377h2c0 85 -1 167 -1 218v159h203v-671c0 -83 -5 -132 -46 -167c-36 -32 -99 -36 -146 -36c-32 0 -78 1 -102 2v156h42c23 0 42 3 45 16l-217 384h-2c0 -49 1 -132 1 -208v-176h-204z" />
    <glyph glyph-name="Ograve" unicode="&#xd2;" horiz-adv-x="768" 
d="M384 -17c-213 0 -356 163 -356 367c0 203 143 366 356 366s356 -163 356 -366c0 -204 -143 -367 -356 -367zM247 350c0 -155 82 -192 137 -192s137 37 137 192s-82 192 -137 192s-137 -37 -137 -192zM199 895h205l75 -129h-153z" />
    <glyph glyph-name="Oacute" unicode="&#xd3;" horiz-adv-x="768" 
d="M384 -17c-213 0 -356 163 -356 367c0 203 143 366 356 366s356 -163 356 -366c0 -204 -143 -367 -356 -367zM247 350c0 -155 82 -192 137 -192s137 37 137 192s-82 192 -137 192s-137 -37 -137 -192zM583 895l-127 -129h-153l75 129h205z" />
    <glyph glyph-name="Ocircumflex" unicode="&#xd4;" horiz-adv-x="768" 
d="M384 -17c-213 0 -356 163 -356 367c0 203 143 366 356 366s356 -163 356 -366c0 -204 -143 -367 -356 -367zM247 350c0 -155 82 -192 137 -192s137 37 137 192s-82 192 -137 192s-137 -37 -137 -192zM193 767l106 129h174l107 -129h-152l-42 51l-42 -51h-151z" />
    <glyph glyph-name="Otilde" unicode="&#xd5;" horiz-adv-x="768" 
d="M384 -17c-213 0 -356 163 -356 367c0 203 143 366 356 366s356 -163 356 -366c0 -204 -143 -367 -356 -367zM247 350c0 -155 82 -192 137 -192s137 37 137 192s-82 192 -137 192s-137 -37 -137 -192zM269 760h-78c0 57 25 140 110 140c27 0 47 -5 72 -14l37 -14
c17 -7 30 -12 43 -12c19 0 36 10 41 43h78c2 -58 -25 -139 -110 -139c-25 0 -47 5 -72 14l-37 14c-17 7 -30 11 -43 11c-17 0 -34 -8 -41 -43z" />
    <glyph glyph-name="Odieresis" unicode="&#xd6;" horiz-adv-x="768" 
d="M384 -17c-213 0 -356 163 -356 367c0 203 143 366 356 366s356 -163 356 -366c0 -204 -143 -367 -356 -367zM247 350c0 -155 82 -192 137 -192s137 37 137 192s-82 192 -137 192s-137 -37 -137 -192zM415 766v129h160v-129h-160zM198 766v129h160v-129h-160z" />
    <glyph glyph-name="Omacron" unicode="&#x14c;" horiz-adv-x="768" 
d="M384 -17c-213 0 -356 163 -356 367c0 203 143 366 356 366s356 -163 356 -366c0 -204 -143 -367 -356 -367zM247 350c0 -155 82 -192 137 -192s137 37 137 192s-82 192 -137 192s-137 -37 -137 -192zM218 778v93h332v-93h-332z" />
    <glyph glyph-name="Obreve" unicode="&#x14e;" horiz-adv-x="768" 
d="M384 -17c-213 0 -356 163 -356 367c0 203 143 366 356 366s356 -163 356 -366c0 -204 -143 -367 -356 -367zM247 350c0 -155 82 -192 137 -192s137 37 137 192s-82 192 -137 192s-137 -37 -137 -192zM209 871l86 31c17 -29 46 -44 87 -44c40 0 73 15 89 44l86 -30
c-21 -76 -87 -114 -174 -114c-85 0 -153 38 -174 113z" />
    <glyph glyph-name="Ohungarumlaut" unicode="&#x150;" horiz-adv-x="768" 
d="M384 -17c-213 0 -356 163 -356 367c0 203 143 366 356 366s356 -163 356 -366c0 -204 -143 -367 -356 -367zM247 350c0 -155 82 -192 137 -192s137 37 137 192s-82 192 -137 192s-137 -37 -137 -192zM448 896l-127 -129h-134l75 129h186zM688 896l-132 -129h-134l80 129
h186z" />
    <glyph glyph-name="Oslash" unicode="&#xd8;" horiz-adv-x="768" 
d="M72 26l51 67c-60 67 -95 156 -95 257c0 203 143 366 356 366c69 0 130 -16 182 -47l49 64l79 -62l-50 -65c61 -65 96 -156 96 -256c0 -204 -143 -367 -356 -367c-69 0 -131 18 -183 47l-50 -66zM244 350c0 -33 5 -63 10 -86l200 260c-23 16 -49 22 -70 22
c-56 0 -140 -39 -140 -196zM524 350c0 35 -4 62 -11 86l-200 -261c24 -16 50 -21 71 -21c56 0 140 39 140 196z" />
    <glyph glyph-name="Oslashacute" unicode="&#x1fe;" horiz-adv-x="768" 
d="M72 26l51 67c-60 67 -95 156 -95 257c0 203 143 366 356 366c69 0 130 -16 182 -47l49 64l79 -62l-50 -65c61 -65 96 -156 96 -256c0 -204 -143 -367 -356 -367c-69 0 -131 18 -183 47l-50 -66zM244 350c0 -33 5 -63 10 -86l200 260c-23 16 -49 22 -70 22
c-56 0 -140 -39 -140 -196zM524 350c0 35 -4 62 -11 86l-200 -261c24 -16 50 -21 71 -21c56 0 140 39 140 196zM573 895l-127 -129h-153l75 129h205z" />
    <glyph glyph-name="OE" unicode="&#x152;" horiz-adv-x="1097" 
d="M521 0v34c-33 -35 -111 -51 -166 -51c-201 0 -326 173 -326 364c0 197 128 369 335 369c55 0 117 -13 157 -53v37h529v-174h-332v-93h299v-166h-299v-93h345v-174h-542zM248 350c0 -155 82 -192 137 -192s137 37 137 192s-82 192 -137 192s-137 -37 -137 -192z" />
    <glyph glyph-name="Thorn" unicode="&#xde;" horiz-adv-x="689" 
d="M52 700h214v-83h120c99 0 152 -17 197 -52c52 -41 86 -104 86 -187c0 -97 -37 -165 -100 -205c-45 -29 -98 -44 -187 -44h-116v-129h-214v700zM266 439v-142h87c55 0 112 5 112 72c0 68 -57 70 -112 70h-87z" />
    <glyph glyph-name="Racute" unicode="&#x154;" horiz-adv-x="730" 
d="M52 0v700h391c68 0 106 -7 141 -23c65 -29 107 -88 107 -176c0 -93 -53 -149 -112 -173v-2c59 -17 102 -61 106 -158l3 -75c3 -40 0 -67 13 -87v-6h-211c-8 23 -7 33 -10 60l-4 52c-3 43 -7 79 -27 103c-15 17 -35 28 -83 28h-100v-243h-214zM266 536v-140h114
c39 0 95 8 95 70c0 63 -56 70 -95 70h-114zM533 895l-127 -129h-153l75 129h205z" />
    <glyph glyph-name="Rcaron" unicode="&#x158;" horiz-adv-x="730" 
d="M52 0v700h391c68 0 106 -7 141 -23c65 -29 107 -88 107 -176c0 -93 -53 -149 -112 -173v-2c59 -17 102 -61 106 -158l3 -75c3 -40 0 -67 13 -87v-6h-211c-8 23 -7 33 -10 60l-4 52c-3 43 -7 79 -27 103c-15 17 -35 28 -83 28h-100v-243h-214zM266 536v-140h114
c39 0 95 8 95 70c0 63 -56 70 -95 70h-114zM157 897h151l42 -51l42 51h152l-107 -129h-174z" />
    <glyph glyph-name="uni0156" unicode="&#x156;" horiz-adv-x="730" 
d="M52 0v700h391c68 0 106 -7 141 -23c65 -29 107 -88 107 -176c0 -93 -53 -149 -112 -173v-2c59 -17 102 -61 106 -158l3 -75c3 -40 0 -67 13 -87v-6h-211c-8 23 -7 33 -10 60l-4 52c-3 43 -7 79 -27 103c-15 17 -35 28 -83 28h-100v-243h-214zM266 536v-140h114
c39 0 95 8 95 70c0 63 -56 70 -95 70h-114zM323 -139v98h122v-80c0 -35 -7 -63 -24 -82c-21 -24 -55 -35 -98 -36v60c23 3 44 8 44 40h-44z" />
    <glyph glyph-name="Sacute" unicode="&#x15a;" horiz-adv-x="675" 
d="M18 235h216c0 -65 35 -97 105 -97c67 0 95 27 95 60c0 29 -19 45 -92 66l-103 31c-117 34 -194 80 -194 207c0 140 128 214 284 214c146 0 288 -56 293 -228h-204c-4 59 -48 74 -92 74c-51 0 -76 -20 -76 -48s18 -40 95 -60l100 -26c52 -13 111 -33 148 -68
c35 -31 57 -73 57 -136c0 -162 -137 -241 -324 -241c-168 0 -308 86 -308 252zM514 895l-127 -129h-153l75 129h205z" />
    <glyph glyph-name="Scircumflex" unicode="&#x15c;" horiz-adv-x="675" 
d="M18 235h216c0 -65 35 -97 105 -97c67 0 95 27 95 60c0 29 -19 45 -92 66l-103 31c-117 34 -194 80 -194 207c0 140 128 214 284 214c146 0 288 -56 293 -228h-204c-4 59 -48 74 -92 74c-51 0 -76 -20 -76 -48s18 -40 95 -60l100 -26c52 -13 111 -33 148 -68
c35 -31 57 -73 57 -136c0 -162 -137 -241 -324 -241c-168 0 -308 86 -308 252zM138 767l106 129h174l107 -129h-152l-42 51l-42 -51h-151z" />
    <glyph glyph-name="Scaron" unicode="&#x160;" horiz-adv-x="675" 
d="M18 235h216c0 -65 35 -97 105 -97c67 0 95 27 95 60c0 29 -19 45 -92 66l-103 31c-117 34 -194 80 -194 207c0 140 128 214 284 214c146 0 288 -56 293 -228h-204c-4 59 -48 74 -92 74c-51 0 -76 -20 -76 -48s18 -40 95 -60l100 -26c52 -13 111 -33 148 -68
c35 -31 57 -73 57 -136c0 -162 -137 -241 -324 -241c-168 0 -308 86 -308 252zM139 897h151l42 -51l42 51h152l-107 -129h-174z" />
    <glyph glyph-name="Scedilla" unicode="&#x15e;" horiz-adv-x="675" 
d="M18 235h216c0 -65 35 -97 105 -97c67 0 95 27 95 60c0 29 -19 45 -92 66l-103 31c-117 34 -194 80 -194 207c0 140 128 214 284 214c146 0 288 -56 293 -228h-204c-4 59 -48 74 -92 74c-51 0 -76 -20 -76 -48s18 -40 95 -60l100 -26c52 -13 111 -33 148 -68
c35 -31 57 -73 57 -136c0 -162 -137 -241 -324 -241c-168 0 -308 86 -308 252zM292 0h85l-37 -33l1 -1h6c40 0 86 -20 86 -72c0 -62 -58 -88 -118 -88c-37 0 -77 10 -104 27l27 52c19 -12 39 -23 64 -23c23 0 38 12 38 29c0 19 -15 28 -38 28c-11 0 -22 -3 -33 -8l-29 30z
" />
    <glyph glyph-name="uni0218" unicode="&#x218;" horiz-adv-x="675" 
d="M18 235h216c0 -65 35 -97 105 -97c67 0 95 27 95 60c0 29 -19 45 -92 66l-103 31c-117 34 -194 80 -194 207c0 140 128 214 284 214c146 0 288 -56 293 -228h-204c-4 59 -48 74 -92 74c-51 0 -76 -20 -76 -48s18 -40 95 -60l100 -26c52 -13 111 -33 148 -68
c35 -31 57 -73 57 -136c0 -162 -137 -241 -324 -241c-168 0 -308 86 -308 252zM273 -139v98h122v-80c0 -35 -7 -63 -24 -82c-21 -24 -55 -35 -98 -36v60c23 3 44 8 44 40h-44z" />
    <glyph glyph-name="Tcaron" unicode="&#x164;" horiz-adv-x="639" 
d="M212 0v520h-196v180h607v-180h-196v-520h-215zM124 897h151l42 -51l42 51h152l-107 -129h-174z" />
    <glyph glyph-name="Tcommaaccent" unicode="&#x162;" horiz-adv-x="639" 
d="M212 0v520h-196v180h607v-180h-196v-520h-215zM281 0h85l-37 -33l1 -1h6c40 0 86 -20 86 -72c0 -62 -58 -88 -118 -88c-37 0 -77 10 -104 27l27 52c19 -12 39 -23 64 -23c23 0 38 12 38 29c0 19 -15 28 -38 28c-11 0 -22 -3 -33 -8l-29 30z" />
    <glyph glyph-name="Tbar" unicode="&#x166;" horiz-adv-x="651" 
d="M433 290v-290h-215v290h-130v115h130v115h-196v180h607v-180h-196v-115h130v-115h-130z" />
    <glyph glyph-name="uni021A" unicode="&#x21a;" horiz-adv-x="639" 
d="M212 0v520h-196v180h607v-180h-196v-520h-215zM256 -139v98h122v-80c0 -35 -7 -63 -24 -82c-21 -24 -55 -35 -98 -36v60c23 3 44 8 44 40h-44z" />
    <glyph glyph-name="Ugrave" unicode="&#xd9;" horiz-adv-x="730" 
d="M365 158c86 0 103 60 103 131v411h216v-426c0 -116 -34 -191 -102 -238c-51 -35 -124 -53 -217 -53s-166 18 -217 53c-68 47 -102 122 -102 238v426h216v-411c0 -71 18 -131 103 -131zM181 895h205l75 -129h-153z" />
    <glyph glyph-name="Uacute" unicode="&#xda;" horiz-adv-x="730" 
d="M365 158c86 0 103 60 103 131v411h216v-426c0 -116 -34 -191 -102 -238c-51 -35 -124 -53 -217 -53s-166 18 -217 53c-68 47 -102 122 -102 238v426h216v-411c0 -71 18 -131 103 -131zM559 895l-127 -129h-153l75 129h205z" />
    <glyph glyph-name="Ucircumflex" unicode="&#xdb;" horiz-adv-x="730" 
d="M365 158c86 0 103 60 103 131v411h216v-426c0 -116 -34 -191 -102 -238c-51 -35 -124 -53 -217 -53s-166 18 -217 53c-68 47 -102 122 -102 238v426h216v-411c0 -71 18 -131 103 -131zM173 767l106 129h174l107 -129h-152l-42 51l-42 -51h-151z" />
    <glyph glyph-name="Utilde" unicode="&#x168;" horiz-adv-x="730" 
d="M365 158c86 0 103 60 103 131v411h216v-426c0 -116 -34 -191 -102 -238c-51 -35 -124 -53 -217 -53s-166 18 -217 53c-68 47 -102 122 -102 238v426h216v-411c0 -71 18 -131 103 -131zM251 760h-78c0 57 25 140 110 140c27 0 47 -5 72 -14l37 -14c17 -7 30 -12 43 -12
c19 0 36 10 41 43h78c2 -58 -25 -139 -110 -139c-25 0 -47 5 -72 14l-37 14c-17 7 -30 11 -43 11c-17 0 -34 -8 -41 -43z" />
    <glyph glyph-name="Udieresis" unicode="&#xdc;" horiz-adv-x="730" 
d="M365 158c86 0 103 60 103 131v411h216v-426c0 -116 -34 -191 -102 -238c-51 -35 -124 -53 -217 -53s-166 18 -217 53c-68 47 -102 122 -102 238v426h216v-411c0 -71 18 -131 103 -131zM396 766v129h160v-129h-160zM179 766v129h160v-129h-160z" />
    <glyph glyph-name="Umacron" unicode="&#x16a;" horiz-adv-x="730" 
d="M365 158c86 0 103 60 103 131v411h216v-426c0 -116 -34 -191 -102 -238c-51 -35 -124 -53 -217 -53s-166 18 -217 53c-68 47 -102 122 -102 238v426h216v-411c0 -71 18 -131 103 -131zM201 778v93h332v-93h-332z" />
    <glyph glyph-name="Ubreve" unicode="&#x16c;" horiz-adv-x="730" 
d="M365 158c86 0 103 60 103 131v411h216v-426c0 -116 -34 -191 -102 -238c-51 -35 -124 -53 -217 -53s-166 18 -217 53c-68 47 -102 122 -102 238v426h216v-411c0 -71 18 -131 103 -131zM192 871l86 31c17 -29 46 -44 87 -44c40 0 73 15 89 44l86 -30
c-21 -76 -87 -114 -174 -114c-85 0 -153 38 -174 113z" />
    <glyph glyph-name="Uring" unicode="&#x16e;" horiz-adv-x="730" 
d="M365 158c86 0 103 60 103 131v411h216v-426c0 -116 -34 -191 -102 -238c-51 -35 -124 -53 -217 -53s-166 18 -217 53c-68 47 -102 122 -102 238v426h216v-411c0 -71 18 -131 103 -131zM366 917c47 0 83 -36 83 -83c0 -45 -36 -84 -83 -84c-45 0 -84 39 -84 84
c0 47 39 83 84 83zM392 834c0 15 -11 26 -26 26c-13 0 -26 -11 -26 -26c0 -13 13 -26 26 -26c15 0 26 13 26 26z" />
    <glyph glyph-name="Uhungarumlaut" unicode="&#x170;" horiz-adv-x="730" 
d="M365 158c86 0 103 60 103 131v411h216v-426c0 -116 -34 -191 -102 -238c-51 -35 -124 -53 -217 -53s-166 18 -217 53c-68 47 -102 122 -102 238v426h216v-411c0 -71 18 -131 103 -131zM419 896l-127 -129h-134l75 129h186zM659 896l-132 -129h-134l80 129h186z" />
    <glyph glyph-name="Uogonek" unicode="&#x172;" horiz-adv-x="730" 
d="M365 158c86 0 103 60 103 131v411h216v-426c0 -116 -34 -191 -102 -238c-51 -35 -124 -53 -217 -53s-166 18 -217 53c-68 47 -102 122 -102 238v426h216v-411c0 -71 18 -131 103 -131zM344 0h80c-59 -45 -76 -73 -76 -97c0 -19 9 -29 26 -29c14 0 26 9 36 28l57 -20
c-12 -39 -43 -76 -106 -76c-77 0 -104 44 -104 83c0 49 43 88 87 111z" />
    <glyph glyph-name="Wacute" unicode="&#x1e82;" horiz-adv-x="959" 
d="M960 700l-196 -700h-210l-27 154c-19 107 -36 198 -48 278h-3c-13 -85 -30 -175 -47 -278l-26 -154h-211l-190 700h212l36 -185c15 -69 28 -141 48 -256h3l26 143l22 113l36 185h190l35 -185c16 -84 31 -155 48 -262h3c20 111 34 185 49 261l37 186h213zM684 895
l-127 -129h-153l75 129h205z" />
    <glyph glyph-name="Wcircumflex" unicode="&#x174;" horiz-adv-x="959" 
d="M960 700l-196 -700h-210l-27 154c-19 107 -36 198 -48 278h-3c-13 -85 -30 -175 -47 -278l-26 -154h-211l-190 700h212l36 -185c15 -69 28 -141 48 -256h3l26 143l22 113l36 185h190l35 -185c16 -84 31 -155 48 -262h3c20 111 34 185 49 261l37 186h213zM284 767l106 129
h174l107 -129h-152l-42 51l-42 -51h-151z" />
    <glyph glyph-name="Wdieresis" unicode="&#x1e84;" horiz-adv-x="959" 
d="M960 700l-196 -700h-210l-27 154c-19 107 -36 198 -48 278h-3c-13 -85 -30 -175 -47 -278l-26 -154h-211l-190 700h212l36 -185c15 -69 28 -141 48 -256h3l26 143l22 113l36 185h190l35 -185c16 -84 31 -155 48 -262h3c20 111 34 185 49 261l37 186h213zM506 766v129h160
v-129h-160zM289 766v129h160v-129h-160z" />
    <glyph glyph-name="Wgrave" unicode="&#x1e80;" horiz-adv-x="959" 
d="M960 700l-196 -700h-210l-27 154c-19 107 -36 198 -48 278h-3c-13 -85 -30 -175 -47 -278l-26 -154h-211l-190 700h212l36 -185c15 -69 28 -141 48 -256h3l26 143l22 113l36 185h190l35 -185c16 -84 31 -155 48 -262h3c20 111 34 185 49 261l37 186h213zM281 895h205
l75 -129h-153z" />
    <glyph glyph-name="Ygrave" unicode="&#x1ef2;" horiz-adv-x="695" 
d="M239 0v258l-246 442h238l55 -122c19 -39 35 -79 60 -138h2c25 59 43 94 64 139l57 121h236l-251 -442v-258h-215zM153 895h205l75 -129h-153z" />
    <glyph glyph-name="Yacute" unicode="&#xdd;" horiz-adv-x="695" 
d="M239 0v258l-246 442h238l55 -122c19 -39 35 -79 60 -138h2c25 59 43 94 64 139l57 121h236l-251 -442v-258h-215zM543 895l-127 -129h-153l75 129h205z" />
    <glyph glyph-name="Ycircumflex" unicode="&#x176;" horiz-adv-x="695" 
d="M239 0v258l-246 442h238l55 -122c19 -39 35 -79 60 -138h2c25 59 43 94 64 139l57 121h236l-251 -442v-258h-215zM154 767l106 129h174l107 -129h-152l-42 51l-42 -51h-151z" />
    <glyph glyph-name="Ydieresis" unicode="&#x178;" horiz-adv-x="695" 
d="M239 0v258l-246 442h238l55 -122c19 -39 35 -79 60 -138h2c25 59 43 94 64 139l57 121h236l-251 -442v-258h-215zM376 766v129h160v-129h-160zM159 766v129h160v-129h-160z" />
    <glyph glyph-name="Zacute" unicode="&#x179;" horiz-adv-x="682" 
d="M30 0v169l325 351h-307v180h591v-157l-328 -364h344v-179h-625zM518 895l-127 -129h-153l75 129h205z" />
    <glyph glyph-name="Zcaron" unicode="&#x17d;" horiz-adv-x="682" 
d="M30 0v169l325 351h-307v180h591v-157l-328 -364h344v-179h-625zM157 897h151l42 -51l42 51h152l-107 -129h-174z" />
    <glyph glyph-name="Zdotaccent" unicode="&#x17b;" horiz-adv-x="682" 
d="M30 0v169l325 351h-307v180h591v-157l-328 -364h344v-179h-625zM252 766v129h160v-129h-160z" />
    <glyph glyph-name="uni018F" unicode="&#x18f;" horiz-adv-x="772" 
d="M27 401h499c-5 87 -55 143 -142 143c-65 0 -102 -31 -123 -71h-223c42 145 167 243 347 243c213 0 358 -144 358 -364c0 -210 -142 -369 -359 -369c-221 0 -357 154 -357 418zM521 276h-268c6 -68 52 -131 133 -131c79 0 127 55 135 131z" />
    <glyph glyph-name="agrave" unicode="&#xe0;" horiz-adv-x="603" 
d="M570 0h-187c-5 15 -8 32 -9 47h-2c-40 -45 -96 -60 -163 -60c-115 0 -186 60 -186 156c0 61 29 98 73 122c40 23 93 33 148 42l77 13c27 5 47 5 47 36c0 39 -27 54 -66 54c-56 0 -73 -32 -76 -71l-183 2c6 138 117 187 265 187c115 0 175 -22 208 -58
c36 -37 41 -91 41 -154v-244c0 -43 2 -49 13 -64v-8zM368 231c-5 -8 -20 -11 -39 -16l-29 -8c-53 -15 -84 -24 -84 -59c0 -29 21 -49 65 -49c40 0 67 15 80 45c7 13 7 28 7 45v42zM125 700h205l75 -129h-153z" />
    <glyph glyph-name="aacute" unicode="&#xe1;" horiz-adv-x="603" 
d="M570 0h-187c-5 15 -8 32 -9 47h-2c-40 -45 -96 -60 -163 -60c-115 0 -186 60 -186 156c0 61 29 98 73 122c40 23 93 33 148 42l77 13c27 5 47 5 47 36c0 39 -27 54 -66 54c-56 0 -73 -32 -76 -71l-183 2c6 138 117 187 265 187c115 0 175 -22 208 -58
c36 -37 41 -91 41 -154v-244c0 -43 2 -49 13 -64v-8zM368 231c-5 -8 -20 -11 -39 -16l-29 -8c-53 -15 -84 -24 -84 -59c0 -29 21 -49 65 -49c40 0 67 15 80 45c7 13 7 28 7 45v42zM505 700l-127 -129h-153l75 129h205z" />
    <glyph glyph-name="acircumflex" unicode="&#xe2;" horiz-adv-x="603" 
d="M570 0h-187c-5 15 -8 32 -9 47h-2c-40 -45 -96 -60 -163 -60c-115 0 -186 60 -186 156c0 61 29 98 73 122c40 23 93 33 148 42l77 13c27 5 47 5 47 36c0 39 -27 54 -66 54c-56 0 -73 -32 -76 -71l-183 2c6 138 117 187 265 187c115 0 175 -22 208 -58
c36 -37 41 -91 41 -154v-244c0 -43 2 -49 13 -64v-8zM368 231c-5 -8 -20 -11 -39 -16l-29 -8c-53 -15 -84 -24 -84 -59c0 -29 21 -49 65 -49c40 0 67 15 80 45c7 13 7 28 7 45v42zM110 571l106 129h174l107 -129h-152l-42 51l-42 -51h-151z" />
    <glyph glyph-name="atilde" unicode="&#xe3;" horiz-adv-x="603" 
d="M570 0h-187c-5 15 -8 32 -9 47h-2c-40 -45 -96 -60 -163 -60c-115 0 -186 60 -186 156c0 61 29 98 73 122c40 23 93 33 148 42l77 13c27 5 47 5 47 36c0 39 -27 54 -66 54c-56 0 -73 -32 -76 -71l-183 2c6 138 117 187 265 187c115 0 175 -22 208 -58
c36 -37 41 -91 41 -154v-244c0 -43 2 -49 13 -64v-8zM368 231c-5 -8 -20 -11 -39 -16l-29 -8c-53 -15 -84 -24 -84 -59c0 -29 21 -49 65 -49c40 0 67 15 80 45c7 13 7 28 7 45v42zM191 565h-78c0 57 25 140 110 140c27 0 47 -5 72 -14l37 -14c17 -7 30 -12 43 -12
c19 0 36 10 41 43h78c2 -58 -25 -139 -110 -139c-25 0 -47 5 -72 14l-37 14c-17 7 -30 11 -43 11c-17 0 -34 -8 -41 -43z" />
    <glyph glyph-name="adieresis" unicode="&#xe4;" horiz-adv-x="603" 
d="M570 0h-187c-5 15 -8 32 -9 47h-2c-40 -45 -96 -60 -163 -60c-115 0 -186 60 -186 156c0 61 29 98 73 122c40 23 93 33 148 42l77 13c27 5 47 5 47 36c0 39 -27 54 -66 54c-56 0 -73 -32 -76 -71l-183 2c6 138 117 187 265 187c115 0 175 -22 208 -58
c36 -37 41 -91 41 -154v-244c0 -43 2 -49 13 -64v-8zM368 231c-5 -8 -20 -11 -39 -16l-29 -8c-53 -15 -84 -24 -84 -59c0 -29 21 -49 65 -49c40 0 67 15 80 45c7 13 7 28 7 45v42zM331 571v129h160v-129h-160zM114 571v129h160v-129h-160z" />
    <glyph glyph-name="amacron" unicode="&#x101;" horiz-adv-x="603" 
d="M570 0h-187c-5 15 -8 32 -9 47h-2c-40 -45 -96 -60 -163 -60c-115 0 -186 60 -186 156c0 61 29 98 73 122c40 23 93 33 148 42l77 13c27 5 47 5 47 36c0 39 -27 54 -66 54c-56 0 -73 -32 -76 -71l-183 2c6 138 117 187 265 187c115 0 175 -22 208 -58
c36 -37 41 -91 41 -154v-244c0 -43 2 -49 13 -64v-8zM368 231c-5 -8 -20 -11 -39 -16l-29 -8c-53 -15 -84 -24 -84 -59c0 -29 21 -49 65 -49c40 0 67 15 80 45c7 13 7 28 7 45v42zM141 592v93h332v-93h-332z" />
    <glyph glyph-name="abreve" unicode="&#x103;" horiz-adv-x="603" 
d="M570 0h-187c-5 15 -8 32 -9 47h-2c-40 -45 -96 -60 -163 -60c-115 0 -186 60 -186 156c0 61 29 98 73 122c40 23 93 33 148 42l77 13c27 5 47 5 47 36c0 39 -27 54 -66 54c-56 0 -73 -32 -76 -71l-183 2c6 138 117 187 265 187c115 0 175 -22 208 -58
c36 -37 41 -91 41 -154v-244c0 -43 2 -49 13 -64v-8zM368 231c-5 -8 -20 -11 -39 -16l-29 -8c-53 -15 -84 -24 -84 -59c0 -29 21 -49 65 -49c40 0 67 15 80 45c7 13 7 28 7 45v42zM132 672l86 31c17 -29 46 -44 87 -44c40 0 73 15 89 44l86 -30c-21 -76 -87 -114 -174 -114
c-85 0 -153 38 -174 113z" />
    <glyph glyph-name="aring" unicode="&#xe5;" horiz-adv-x="603" 
d="M570 0h-187c-5 15 -8 32 -9 47h-2c-40 -45 -96 -60 -163 -60c-115 0 -186 60 -186 156c0 61 29 98 73 122c40 23 93 33 148 42l77 13c27 5 47 5 47 36c0 39 -27 54 -66 54c-56 0 -73 -32 -76 -71l-183 2c6 138 117 187 265 187c115 0 175 -22 208 -58
c36 -37 41 -91 41 -154v-244c0 -43 2 -49 13 -64v-8zM368 231c-5 -8 -20 -11 -39 -16l-29 -8c-53 -15 -84 -24 -84 -59c0 -29 21 -49 65 -49c40 0 67 15 80 45c7 13 7 28 7 45v42zM305 723c47 0 83 -36 83 -83c0 -45 -36 -84 -83 -84c-45 0 -84 39 -84 84c0 47 39 83 84 83z
M305 666c-13 0 -26 -11 -26 -26c0 -13 13 -26 26 -26c15 0 26 13 26 26c0 15 -11 26 -26 26z" />
    <glyph glyph-name="aringacute" unicode="&#x1fb;" horiz-adv-x="603" 
d="M570 0h-187c-5 15 -8 32 -9 47h-2c-40 -45 -96 -60 -163 -60c-115 0 -186 60 -186 156c0 61 29 98 73 122c40 23 93 33 148 42l77 13c27 5 47 5 47 36c0 39 -27 54 -66 54c-56 0 -73 -32 -76 -71l-183 2c6 138 117 187 265 187c115 0 175 -22 208 -58
c36 -37 41 -91 41 -154v-244c0 -43 2 -49 13 -64v-8zM368 231c-5 -8 -20 -11 -39 -16l-29 -8c-53 -15 -84 -24 -84 -59c0 -29 21 -49 65 -49c40 0 67 15 80 45c7 13 7 28 7 45v42zM316 732c47 0 83 -36 83 -83c0 -45 -36 -84 -83 -84c-45 0 -84 39 -84 84c0 47 39 83 84 83z
M316 675c-13 0 -26 -11 -26 -26c0 -13 13 -26 26 -26c15 0 26 13 26 26c0 15 -11 26 -26 26zM519 897l-127 -129h-153l75 129h205z" />
    <glyph glyph-name="aogonek" unicode="&#x105;" horiz-adv-x="603" 
d="M570 0h-187c-5 15 -8 32 -9 47h-2c-40 -45 -96 -60 -163 -60c-115 0 -186 60 -186 156c0 61 29 98 73 122c40 23 93 33 148 42l77 13c27 5 47 5 47 36c0 39 -27 54 -66 54c-56 0 -73 -32 -76 -71l-183 2c6 138 117 187 265 187c115 0 175 -22 208 -58
c36 -37 41 -91 41 -154v-244c0 -43 2 -49 13 -64v-8zM368 231c-5 -8 -20 -11 -39 -16l-29 -8c-53 -15 -84 -24 -84 -59c0 -29 21 -49 65 -49c40 0 67 15 80 45c7 13 7 28 7 45v42zM490 0h80c-59 -45 -76 -73 -76 -97c0 -19 9 -29 26 -29c14 0 26 9 36 28l57 -20
c-12 -39 -43 -76 -106 -76c-77 0 -104 44 -104 83c0 49 43 88 87 111z" />
    <glyph glyph-name="ae" unicode="&#xe6;" horiz-adv-x="954" 
d="M931 213h-378c3 -57 38 -97 99 -97c47 0 74 19 90 47h182c-36 -110 -147 -176 -273 -176c-83 0 -151 27 -200 72h-5c-44 -41 -119 -72 -219 -72c-120 0 -204 49 -204 154c0 122 107 147 221 166l77 13c27 5 47 5 47 36c0 39 -28 54 -67 54c-55 0 -72 -32 -75 -71l-183 2
c6 138 117 187 263 187c93 0 146 -21 181 -50c44 31 100 50 165 50c172 0 276 -115 279 -315zM557 315h186c-4 47 -35 88 -90 88c-56 0 -91 -37 -96 -88zM368 231c-5 -8 -20 -11 -39 -16l-29 -8c-53 -15 -84 -24 -84 -59c0 -29 24 -49 65 -49c40 0 67 15 80 45
c7 13 7 28 7 45v42z" />
    <glyph glyph-name="aeacute" unicode="&#x1fd;" horiz-adv-x="954" 
d="M931 213h-378c3 -57 38 -97 99 -97c47 0 74 19 90 47h182c-36 -110 -147 -176 -273 -176c-83 0 -151 27 -200 72h-5c-44 -41 -119 -72 -219 -72c-120 0 -204 49 -204 154c0 122 107 147 221 166l77 13c27 5 47 5 47 36c0 39 -28 54 -67 54c-55 0 -72 -32 -75 -71l-183 2
c6 138 117 187 263 187c93 0 146 -21 181 -50c44 31 100 50 165 50c172 0 276 -115 279 -315zM557 315h186c-4 47 -35 88 -90 88c-56 0 -91 -37 -96 -88zM368 231c-5 -8 -20 -11 -39 -16l-29 -8c-53 -15 -84 -24 -84 -59c0 -29 24 -49 65 -49c40 0 67 15 80 45
c7 13 7 28 7 45v42zM676 700l-127 -129h-153l75 129h205z" />
    <glyph glyph-name="cacute" unicode="&#x107;" horiz-adv-x="591" 
d="M385 205h190c-20 -126 -121 -219 -268 -219c-166 0 -283 119 -283 271c0 153 117 271 283 271c156 0 239 -88 263 -209h-187c-9 39 -33 67 -76 67c-65 0 -84 -63 -84 -129s19 -131 84 -131c47 0 69 35 78 79zM496 700l-127 -129h-153l75 129h205z" />
    <glyph glyph-name="ccircumflex" unicode="&#x109;" horiz-adv-x="591" 
d="M385 205h190c-20 -126 -121 -219 -268 -219c-166 0 -283 119 -283 271c0 153 117 271 283 271c156 0 239 -88 263 -209h-187c-9 39 -33 67 -76 67c-65 0 -84 -63 -84 -129s19 -131 84 -131c47 0 69 35 78 79zM115 571l106 129h174l107 -129h-152l-42 51l-42 -51h-151z
" />
    <glyph glyph-name="ccaron" unicode="&#x10d;" horiz-adv-x="591" 
d="M385 205h190c-20 -126 -121 -219 -268 -219c-166 0 -283 119 -283 271c0 153 117 271 283 271c156 0 239 -88 263 -209h-187c-9 39 -33 67 -76 67c-65 0 -84 -63 -84 -129s19 -131 84 -131c47 0 69 35 78 79zM117 700h151l42 -51l42 51h152l-107 -129h-174z" />
    <glyph glyph-name="cdotaccent" unicode="&#x10b;" horiz-adv-x="591" 
d="M385 205h190c-20 -126 -121 -219 -268 -219c-166 0 -283 119 -283 271c0 153 117 271 283 271c156 0 239 -88 263 -209h-187c-9 39 -33 67 -76 67c-65 0 -84 -63 -84 -129s19 -131 84 -131c47 0 69 35 78 79zM226 571v129h169v-129h-169z" />
    <glyph glyph-name="ccedilla" unicode="&#xe7;" horiz-adv-x="591" 
d="M385 205h190c-20 -126 -121 -219 -268 -219c-166 0 -283 119 -283 271c0 153 117 271 283 271c156 0 239 -88 263 -209h-187c-9 39 -33 67 -76 67c-65 0 -84 -63 -84 -129s19 -131 84 -131c47 0 69 35 78 79zM263 0h85l-37 -33l1 -1h6c40 0 86 -20 86 -72
c0 -62 -58 -88 -118 -88c-37 0 -77 10 -104 27l27 52c19 -12 39 -23 64 -23c23 0 38 12 38 29c0 19 -15 28 -38 28c-11 0 -22 -3 -33 -8l-29 30z" />
    <glyph glyph-name="dslash" unicode="&#x111;" horiz-adv-x="632" 
d="M296 550v115h94v35h195v-35h37v-115h-37v-550h-189v18c0 17 1 27 1 40h-2c-23 -33 -65 -70 -150 -70c-147 0 -219 121 -219 260c0 125 56 278 220 278c59 0 114 -24 143 -68h2c-1 33 -1 59 -1 92h-94zM312 130c64 0 83 62 83 127c0 64 -19 125 -83 125
c-63 0 -83 -61 -83 -125c0 -65 20 -127 83 -127z" />
    <glyph glyph-name="dcaron" unicode="&#x10f;" horiz-adv-x="644" 
d="M585 0h-189v18c0 17 1 27 1 40h-2c-23 -33 -65 -70 -150 -70c-147 0 -219 121 -219 260c0 125 56 278 220 278c59 0 113 -24 142 -68h2c-1 41 -1 67 -1 115v127h196v-700zM312 130c64 0 83 62 83 127c0 64 -19 125 -83 125c-63 0 -83 -61 -83 -125c0 -65 20 -127 83 -127
zM640 700h171l-65 -129h-138z" />
    <glyph glyph-name="eth" unicode="&#xf0;" horiz-adv-x="620" 
d="M444 779l76 -77l-99 -53c103 -93 171 -204 171 -351c0 -138 -56 -311 -284 -311c-181 0 -282 100 -282 261c0 191 149 247 242 247c28 0 62 -3 90 -15l2 2c-23 32 -64 72 -88 89l-100 -53l-72 78l81 44c-9 11 -36 31 -57 44l142 82c27 -13 50 -31 70 -46zM309 125
c66 0 85 62 85 124s-19 122 -85 122c-65 0 -85 -60 -85 -122s20 -124 85 -124z" />
    <glyph glyph-name="egrave" unicode="&#xe8;" horiz-adv-x="610" 
d="M588 213h-382c3 -57 40 -97 101 -97c47 0 76 19 92 47h182c-36 -110 -149 -176 -275 -176c-166 0 -281 107 -281 269c0 149 112 272 282 272c172 0 278 -115 281 -315zM210 315h190c-4 47 -37 88 -92 88c-56 0 -93 -37 -98 -88zM116 700h205l75 -129h-153z" />
    <glyph glyph-name="eacute" unicode="&#xe9;" horiz-adv-x="610" 
d="M588 213h-382c3 -57 40 -97 101 -97c47 0 76 19 92 47h182c-36 -110 -149 -176 -275 -176c-166 0 -281 107 -281 269c0 149 112 272 282 272c172 0 278 -115 281 -315zM210 315h190c-4 47 -37 88 -92 88c-56 0 -93 -37 -98 -88zM506 700l-127 -129h-153l75 129h205z" />
    <glyph glyph-name="ecircumflex" unicode="&#xea;" horiz-adv-x="610" 
d="M588 213h-382c3 -57 40 -97 101 -97c47 0 76 19 92 47h182c-36 -110 -149 -176 -275 -176c-166 0 -281 107 -281 269c0 149 112 272 282 272c172 0 278 -115 281 -315zM210 315h190c-4 47 -37 88 -92 88c-56 0 -93 -37 -98 -88zM118 571l106 129h174l107 -129h-152
l-42 51l-42 -51h-151z" />
    <glyph glyph-name="ecaron" unicode="&#x11b;" horiz-adv-x="610" 
d="M588 213h-382c3 -57 40 -97 101 -97c47 0 76 19 92 47h182c-36 -110 -149 -176 -275 -176c-166 0 -281 107 -281 269c0 149 112 272 282 272c172 0 278 -115 281 -315zM210 315h190c-4 47 -37 88 -92 88c-56 0 -93 -37 -98 -88zM119 700h151l42 -51l42 51h152l-107 -129
h-174z" />
    <glyph glyph-name="edieresis" unicode="&#xeb;" horiz-adv-x="610" 
d="M588 213h-382c3 -57 40 -97 101 -97c47 0 76 19 92 47h182c-36 -110 -149 -176 -275 -176c-166 0 -281 107 -281 269c0 149 112 272 282 272c172 0 278 -115 281 -315zM210 315h190c-4 47 -37 88 -92 88c-56 0 -93 -37 -98 -88zM334 571v129h160v-129h-160zM117 571v129
h160v-129h-160z" />
    <glyph glyph-name="emacron" unicode="&#x113;" horiz-adv-x="610" 
d="M588 213h-382c3 -57 40 -97 101 -97c47 0 76 19 92 47h182c-36 -110 -149 -176 -275 -176c-166 0 -281 107 -281 269c0 149 112 272 282 272c172 0 278 -115 281 -315zM210 315h190c-4 47 -37 88 -92 88c-56 0 -93 -37 -98 -88zM140 592v93h332v-93h-332z" />
    <glyph glyph-name="ebreve" unicode="&#x115;" horiz-adv-x="610" 
d="M588 213h-382c3 -57 40 -97 101 -97c47 0 76 19 92 47h182c-36 -110 -149 -176 -275 -176c-166 0 -281 107 -281 269c0 149 112 272 282 272c172 0 278 -115 281 -315zM210 315h190c-4 47 -37 88 -92 88c-56 0 -93 -37 -98 -88zM131 672l86 31c17 -29 46 -44 87 -44
c40 0 73 15 89 44l86 -30c-21 -76 -87 -114 -174 -114c-85 0 -153 38 -174 113z" />
    <glyph glyph-name="edotaccent" unicode="&#x117;" horiz-adv-x="610" 
d="M588 213h-382c3 -57 40 -97 101 -97c47 0 76 19 92 47h182c-36 -110 -149 -176 -275 -176c-166 0 -281 107 -281 269c0 149 112 272 282 272c172 0 278 -115 281 -315zM210 315h190c-4 47 -37 88 -92 88c-56 0 -93 -37 -98 -88zM224 571v129h169v-129h-169z" />
    <glyph glyph-name="eogonek" unicode="&#x119;" horiz-adv-x="610" 
d="M588 213h-382c3 -57 40 -97 101 -97c47 0 76 19 92 47h182c-36 -110 -149 -176 -275 -176c-166 0 -281 107 -281 269c0 149 112 272 282 272c172 0 278 -115 281 -315zM210 315h190c-4 47 -37 88 -92 88c-56 0 -93 -37 -98 -88zM320 0h80c-59 -45 -76 -73 -76 -97
c0 -19 9 -29 26 -29c14 0 26 9 36 28l57 -20c-12 -39 -43 -76 -106 -76c-77 0 -104 44 -104 83c0 49 43 88 87 111z" />
    <glyph glyph-name="gcircumflex" unicode="&#x11d;" horiz-adv-x="627" 
d="M53 -8h196c7 -24 28 -40 65 -40c25 0 45 11 56 24c11 14 17 32 17 54v14c0 17 0 23 1 36h-3c-31 -39 -84 -59 -143 -59c-146 0 -216 122 -216 256c0 131 80 249 211 249c59 0 120 -22 148 -74h3c0 8 -1 23 -1 42v21h193v-448c0 -30 -5 -62 -14 -97s-27 -65 -56 -90
c-41 -36 -100 -58 -199 -58c-148 0 -242 55 -258 170zM311 159c63 0 83 53 83 113c0 29 -6 55 -18 77c-12 23 -34 34 -65 34s-53 -11 -65 -34c-12 -22 -18 -48 -18 -77c0 -60 20 -113 83 -113zM136 571l106 129h174l107 -129h-152l-42 51l-42 -51h-151z" />
    <glyph glyph-name="gbreve" unicode="&#x11f;" horiz-adv-x="627" 
d="M53 -8h196c7 -24 28 -40 65 -40c25 0 45 11 56 24c11 14 17 32 17 54v14c0 17 0 23 1 36h-3c-31 -39 -84 -59 -143 -59c-146 0 -216 122 -216 256c0 131 80 249 211 249c59 0 120 -22 148 -74h3c0 8 -1 23 -1 42v21h193v-448c0 -30 -5 -62 -14 -97s-27 -65 -56 -90
c-41 -36 -100 -58 -199 -58c-148 0 -242 55 -258 170zM311 159c63 0 83 53 83 113c0 29 -6 55 -18 77c-12 23 -34 34 -65 34s-53 -11 -65 -34c-12 -22 -18 -48 -18 -77c0 -60 20 -113 83 -113zM140 672l86 31c17 -29 46 -44 87 -44c40 0 73 15 89 44l86 -30
c-21 -76 -87 -114 -174 -114c-85 0 -153 38 -174 113z" />
    <glyph glyph-name="gdotaccent" unicode="&#x121;" horiz-adv-x="627" 
d="M53 -8h196c7 -24 28 -40 65 -40c25 0 45 11 56 24c11 14 17 32 17 54v14c0 17 0 23 1 36h-3c-31 -39 -84 -59 -143 -59c-146 0 -216 122 -216 256c0 131 80 249 211 249c59 0 120 -22 148 -74h3c0 8 -1 23 -1 42v21h193v-448c0 -30 -5 -62 -14 -97s-27 -65 -56 -90
c-41 -36 -100 -58 -199 -58c-148 0 -242 55 -258 170zM311 159c63 0 83 53 83 113c0 29 -6 55 -18 77c-12 23 -34 34 -65 34s-53 -11 -65 -34c-12 -22 -18 -48 -18 -77c0 -60 20 -113 83 -113zM245 571v129h169v-129h-169z" />
    <glyph glyph-name="uni0123" unicode="&#x123;" horiz-adv-x="627" 
d="M53 -8h196c7 -24 28 -40 65 -40c25 0 45 11 56 24c11 14 17 32 17 54v14c0 17 0 23 1 36h-3c-31 -39 -84 -59 -143 -59c-146 0 -216 122 -216 256c0 131 80 249 211 249c59 0 120 -22 148 -74h3c0 8 -1 23 -1 42v21h193v-448c0 -30 -5 -62 -14 -97s-27 -65 -56 -90
c-41 -36 -100 -58 -199 -58c-148 0 -242 55 -258 170zM311 159c63 0 83 53 83 113c0 29 -6 55 -18 77c-12 23 -34 34 -65 34s-53 -11 -65 -34c-12 -22 -18 -48 -18 -77c0 -60 20 -113 83 -113zM359 644v-98h-122v80c0 35 7 63 24 82c21 24 55 35 98 36v-60
c-23 -1 -44 -8 -44 -40h44z" />
    <glyph glyph-name="hcircumflex" unicode="&#x125;" horiz-adv-x="625" 
d="M47 0v700h196v-160c0 -45 -1 -69 -1 -84h2c32 47 91 72 160 72c52 0 98 -16 131 -49c29 -29 47 -68 47 -129v-350h-196v272c0 61 -12 99 -67 99c-53 0 -76 -39 -76 -100v-271h-196zM120 767l106 129h174l107 -129h-152l-42 51l-42 -51h-151z" />
    <glyph glyph-name="hbar" unicode="&#x127;" horiz-adv-x="625" 
d="M337 550h-94v-10c0 -45 -1 -69 -1 -84h2c32 47 91 72 160 72c52 0 98 -16 131 -49c29 -29 47 -68 47 -129v-350h-196v272c0 61 -12 99 -67 99c-53 0 -76 -39 -76 -100v-271h-196v550h-36v115h36v35h196v-35h94v-115z" />
    <glyph glyph-name="dotlessi" unicode="&#x131;" horiz-adv-x="291" 
d="M47 0v515h197v-515h-197z" />
    <glyph glyph-name="i.latn_TRK" horiz-adv-x="291" 
d="M47 0v515h197v-515h-197zM61 571v129h169v-129h-169z" />
    <glyph glyph-name="igrave" unicode="&#xec;" horiz-adv-x="291" 
d="M47 0v515h197v-515h-197zM-54 700h205l75 -129h-153z" />
    <glyph glyph-name="iacute" unicode="&#xed;" horiz-adv-x="291" 
d="M47 0v515h197v-515h-197zM346 700l-127 -129h-153l75 129h205z" />
    <glyph glyph-name="icircumflex" unicode="&#xee;" horiz-adv-x="291" 
d="M47 0v515h197v-515h-197zM-47 571l106 129h174l107 -129h-152l-42 51l-42 -51h-151z" />
    <glyph glyph-name="itilde" unicode="&#x129;" horiz-adv-x="291" 
d="M47 0v515h197v-515h-197zM34 565h-78c0 57 25 140 110 140c27 0 47 -5 72 -14l37 -14c17 -7 30 -12 43 -12c19 0 36 10 41 43h78c2 -58 -25 -139 -110 -139c-25 0 -47 5 -72 14l-37 14c-17 7 -30 11 -43 11c-17 0 -34 -8 -41 -43z" />
    <glyph glyph-name="idieresis" unicode="&#xef;" horiz-adv-x="291" 
d="M47 0v515h197v-515h-197zM175 571v129h160v-129h-160zM-42 571v129h160v-129h-160z" />
    <glyph glyph-name="imacron" unicode="&#x12b;" horiz-adv-x="291" 
d="M47 0v515h197v-515h-197zM-20 592v93h332v-93h-332z" />
    <glyph glyph-name="ibreve" unicode="&#x12d;" horiz-adv-x="291" 
d="M47 0v515h197v-515h-197zM-33 672l86 31c17 -29 46 -44 87 -44c40 0 73 15 89 44l86 -30c-21 -76 -87 -114 -174 -114c-85 0 -153 38 -174 113z" />
    <glyph glyph-name="iogonek" unicode="&#x12f;" horiz-adv-x="291" 
d="M244 700v-138h-197v138h197zM47 0v515h197v-515h-197zM127 0h80c-59 -45 -76 -73 -76 -97c0 -19 9 -29 26 -29c14 0 26 9 36 28l57 -20c-12 -39 -43 -76 -106 -76c-77 0 -104 44 -104 83c0 49 43 88 87 111z" />
    <glyph glyph-name="uni0237" unicode="&#x237;" horiz-adv-x="291" 
d="M47 515h197v-486c0 -83 -5 -132 -46 -167c-36 -32 -99 -36 -146 -36c-29 0 -69 1 -92 2v156h32c40 0 55 15 55 64v467z" />
    <glyph glyph-name="ij" unicode="&#x133;" horiz-adv-x="580" 
d="M244 700v-138h-197v138h197zM47 0v515h197v-515h-197zM533 700v-138h-197v138h197zM336 515h197v-486c0 -83 -5 -132 -46 -167c-36 -32 -99 -36 -146 -36c-29 0 -69 1 -92 2v156h32c40 0 55 15 55 64v467z" />
    <glyph glyph-name="jcircumflex" unicode="&#x135;" horiz-adv-x="291" 
d="M47 515h197v-486c0 -83 -5 -132 -46 -167c-36 -32 -99 -36 -146 -36c-29 0 -69 1 -92 2v156h32c40 0 55 15 55 64v467zM-52 571l106 129h174l107 -129h-152l-42 51l-42 -51h-151z" />
    <glyph glyph-name="uni0137" unicode="&#x137;" horiz-adv-x="596" 
d="M47 0v700h194v-241c0 -28 0 -62 -1 -94h1c21 27 37 45 58 70l67 80h222l-183 -195l212 -320h-236l-105 186l-35 -37v-149h-194zM255 -139v98h122v-80c0 -35 -7 -63 -24 -82c-21 -24 -55 -35 -98 -36v60c23 3 44 8 44 40h-44z" />
    <glyph glyph-name="kgreenlandic" unicode="&#x138;" horiz-adv-x="596" 
d="M47 515h194v-56c0 -28 0 -62 -1 -94h1l125 150h222l-183 -195l212 -320h-236l-105 186l-35 -37v-149h-194v515z" />
    <glyph glyph-name="lacute" unicode="&#x13a;" horiz-adv-x="291" 
d="M47 0v700h197v-700h-197zM348 895l-127 -129h-153l75 129h205z" />
    <glyph glyph-name="lcaron" unicode="&#x13e;" horiz-adv-x="303" 
d="M47 0v700h197v-700h-197zM299 700h171l-65 -129h-138z" />
    <glyph glyph-name="ldot" unicode="&#x140;" horiz-adv-x="466" 
d="M47 0v700h197v-700h-197zM294 299v129h169v-129h-169z" />
    <glyph glyph-name="ldot.latn_CAT" horiz-adv-x="466" 
d="M47 0v700h197v-700h-197zM294 299v129h169v-129h-169z" />
    <glyph glyph-name="lslash" unicode="&#x142;" horiz-adv-x="389" 
d="M363 508v-151l-77 -34v-323h-196v237l-63 -27v151l63 27v312h196v-226z" />
    <glyph glyph-name="uni013C" unicode="&#x13c;" horiz-adv-x="291" 
d="M47 0v700h197v-700h-197zM84 -139v98h122v-80c0 -35 -7 -63 -24 -82c-21 -24 -55 -35 -98 -36v60c23 3 44 8 44 40h-44z" />
    <glyph glyph-name="uni0146" unicode="&#x146;" horiz-adv-x="625" 
d="M47 0v515h190v-23c0 -7 -1 -29 -1 -44h2c33 52 93 80 166 80c52 0 98 -16 131 -49c29 -29 47 -68 47 -129v-350h-196v272c0 61 -12 99 -67 99c-53 0 -76 -39 -76 -100v-271h-196zM253 -139v98h122v-80c0 -35 -7 -63 -24 -82c-21 -24 -55 -35 -98 -36v60c23 3 44 8 44 40
h-44z" />
    <glyph glyph-name="nacute" unicode="&#x144;" horiz-adv-x="625" 
d="M47 0v515h190v-23c0 -7 -1 -29 -1 -44h2c33 52 93 80 166 80c52 0 98 -16 131 -49c29 -29 47 -68 47 -129v-350h-196v272c0 61 -12 99 -67 99c-53 0 -76 -39 -76 -100v-271h-196zM508 700l-127 -129h-153l75 129h205z" />
    <glyph glyph-name="ncaron" unicode="&#x148;" horiz-adv-x="625" 
d="M47 0v515h190v-23c0 -7 -1 -29 -1 -44h2c33 52 93 80 166 80c52 0 98 -16 131 -49c29 -29 47 -68 47 -129v-350h-196v272c0 61 -12 99 -67 99c-53 0 -76 -39 -76 -100v-271h-196zM124 700h151l42 -51l42 51h152l-107 -129h-174z" />
    <glyph glyph-name="ntilde" unicode="&#xf1;" horiz-adv-x="625" 
d="M47 0v515h190v-23c0 -7 -1 -29 -1 -44h2c33 52 93 80 166 80c52 0 98 -16 131 -49c29 -29 47 -68 47 -129v-350h-196v272c0 61 -12 99 -67 99c-53 0 -76 -39 -76 -100v-271h-196zM210 565h-78c0 57 25 140 110 140c27 0 47 -5 72 -14l37 -14c17 -7 30 -12 43 -12
c19 0 36 10 41 43h78c2 -58 -25 -139 -110 -139c-25 0 -47 5 -72 14l-37 14c-17 7 -30 11 -43 11c-17 0 -34 -8 -41 -43z" />
    <glyph glyph-name="napostrophe" unicode="&#x149;" horiz-adv-x="685" 
d="M107 0v515h190v-23c0 -7 -1 -29 -1 -44h2c33 52 93 80 166 80c52 0 98 -16 131 -49c29 -29 47 -68 47 -129v-350h-196v272c0 61 -12 99 -67 99c-53 0 -76 -39 -76 -100v-271h-196zM-15 602v98h122v-80c0 -35 -7 -63 -24 -82c-21 -24 -55 -35 -98 -36v60c23 3 44 8 44 40
h-44z" />
    <glyph glyph-name="eng" unicode="&#x14b;" horiz-adv-x="625" 
d="M386 272c0 61 -12 99 -67 99c-53 0 -76 -39 -76 -100v-271h-196v515h190v-23c0 -7 -1 -29 -1 -44h2c33 52 93 80 166 80c52 0 98 -16 131 -49c29 -29 47 -68 47 -129v-321c0 -83 -5 -132 -46 -167c-36 -32 -99 -36 -146 -36c-29 0 -68 1 -91 2v156h32c40 0 55 15 55 64
v224z" />
    <glyph glyph-name="ograve" unicode="&#xf2;" horiz-adv-x="616" 
d="M308 528c165 0 284 -118 284 -271c0 -152 -119 -271 -284 -271s-284 119 -284 271c0 153 119 271 284 271zM308 125c66 0 85 66 85 132c0 65 -19 130 -85 130c-65 0 -85 -65 -85 -130c0 -66 20 -132 85 -132zM118 700h205l75 -129h-153z" />
    <glyph glyph-name="oacute" unicode="&#xf3;" horiz-adv-x="616" 
d="M308 528c165 0 284 -118 284 -271c0 -152 -119 -271 -284 -271s-284 119 -284 271c0 153 119 271 284 271zM308 125c66 0 85 66 85 132c0 65 -19 130 -85 130c-65 0 -85 -65 -85 -130c0 -66 20 -132 85 -132zM508 700l-127 -129h-153l75 129h205z" />
    <glyph glyph-name="ocircumflex" unicode="&#xf4;" horiz-adv-x="616" 
d="M308 528c165 0 284 -118 284 -271c0 -152 -119 -271 -284 -271s-284 119 -284 271c0 153 119 271 284 271zM308 125c66 0 85 66 85 132c0 65 -19 130 -85 130c-65 0 -85 -65 -85 -130c0 -66 20 -132 85 -132zM118 571l106 129h174l107 -129h-152l-42 51l-42 -51h-151z
" />
    <glyph glyph-name="otilde" unicode="&#xf5;" horiz-adv-x="616" 
d="M308 528c165 0 284 -118 284 -271c0 -152 -119 -271 -284 -271s-284 119 -284 271c0 153 119 271 284 271zM308 125c66 0 85 66 85 132c0 65 -19 130 -85 130c-65 0 -85 -65 -85 -130c0 -66 20 -132 85 -132zM199 565h-78c0 57 25 140 110 140c27 0 47 -5 72 -14l37 -14
c17 -7 30 -12 43 -12c19 0 36 10 41 43h78c2 -58 -25 -139 -110 -139c-25 0 -47 5 -72 14l-37 14c-17 7 -30 11 -43 11c-17 0 -34 -8 -41 -43z" />
    <glyph glyph-name="odieresis" unicode="&#xf6;" horiz-adv-x="616" 
d="M308 528c165 0 284 -118 284 -271c0 -152 -119 -271 -284 -271s-284 119 -284 271c0 153 119 271 284 271zM308 125c66 0 85 66 85 132c0 65 -19 130 -85 130c-65 0 -85 -65 -85 -130c0 -66 20 -132 85 -132zM338 571v129h160v-129h-160zM121 571v129h160v-129h-160z" />
    <glyph glyph-name="omacron" unicode="&#x14d;" horiz-adv-x="616" 
d="M308 528c165 0 284 -118 284 -271c0 -152 -119 -271 -284 -271s-284 119 -284 271c0 153 119 271 284 271zM308 125c66 0 85 66 85 132c0 65 -19 130 -85 130c-65 0 -85 -65 -85 -130c0 -66 20 -132 85 -132zM143 592v93h332v-93h-332z" />
    <glyph glyph-name="obreve" unicode="&#x14f;" horiz-adv-x="616" 
d="M308 528c165 0 284 -118 284 -271c0 -152 -119 -271 -284 -271s-284 119 -284 271c0 153 119 271 284 271zM308 125c66 0 85 66 85 132c0 65 -19 130 -85 130c-65 0 -85 -65 -85 -130c0 -66 20 -132 85 -132zM131 672l86 31c17 -29 46 -44 87 -44c40 0 73 15 89 44
l86 -30c-21 -76 -87 -114 -174 -114c-85 0 -153 38 -174 113z" />
    <glyph glyph-name="ohungarumlaut" unicode="&#x151;" horiz-adv-x="616" 
d="M308 528c165 0 284 -118 284 -271c0 -152 -119 -271 -284 -271s-284 119 -284 271c0 153 119 271 284 271zM308 125c66 0 85 66 85 132c0 65 -19 130 -85 130c-65 0 -85 -65 -85 -130c0 -66 20 -132 85 -132zM357 700l-127 -129h-134l75 129h186zM597 700l-132 -129h-134
l80 129h186z" />
    <glyph glyph-name="oe" unicode="&#x153;" horiz-adv-x="968" 
d="M946 213h-378c3 -57 38 -97 99 -97c47 0 74 19 90 47h182c-36 -110 -147 -176 -273 -176c-73 0 -136 21 -184 58c-45 -37 -105 -59 -176 -59c-166 0 -282 119 -282 271c0 153 116 271 282 271c73 0 132 -22 179 -61c47 39 109 61 182 61c172 0 276 -115 279 -315z
M572 315h186c-4 47 -35 88 -90 88c-56 0 -91 -37 -96 -88zM306 125c66 0 83 66 83 132c0 65 -17 130 -83 130c-65 0 -83 -65 -83 -130c0 -66 18 -132 83 -132z" />
    <glyph glyph-name="oslash" unicode="&#xf8;" horiz-adv-x="616" 
d="M561 519l-51 -67c51 -49 82 -118 82 -195c0 -152 -119 -271 -284 -271c-49 0 -93 11 -132 28l-53 -70l-71 55l50 66c-49 49 -78 116 -78 192c0 153 119 271 284 271c46 0 88 -9 127 -26l55 72zM221 257c0 -11 1 -23 2 -34l120 159c-11 5 -22 8 -35 8
c-66 0 -87 -66 -87 -133zM308 122c66 0 87 67 87 135c0 14 -1 27 -3 40l-125 -164c11 -7 25 -11 41 -11z" />
    <glyph glyph-name="oslashacute" unicode="&#x1ff;" horiz-adv-x="616" 
d="M561 519l-51 -67c51 -49 82 -118 82 -195c0 -152 -119 -271 -284 -271c-49 0 -93 11 -132 28l-53 -70l-71 55l50 66c-49 49 -78 116 -78 192c0 153 119 271 284 271c46 0 88 -9 127 -26l55 72zM221 257c0 -11 1 -23 2 -34l120 159c-11 5 -22 8 -35 8
c-66 0 -87 -66 -87 -133zM308 122c66 0 87 67 87 135c0 14 -1 27 -3 40l-125 -164c11 -7 25 -11 41 -11zM494 700l-127 -129h-153l75 129h205z" />
    <glyph glyph-name="thorn" unicode="&#xfe;" horiz-adv-x="632" 
d="M47 -172v872h196v-148c0 -12 1 -73 -1 -92h2c29 41 83 66 142 66c173 0 220 -145 220 -266c0 -133 -72 -272 -219 -272c-77 0 -120 31 -143 64h-2c0 -13 1 -23 1 -40v-184h-196zM320 130c64 0 83 62 83 127c0 64 -19 125 -83 125c-63 0 -83 -61 -83 -125
c0 -65 20 -127 83 -127z" />
    <glyph glyph-name="racute" unicode="&#x155;" horiz-adv-x="439" 
d="M47 0v515h187v-79h2c19 57 76 91 148 91c20 0 30 0 42 -3v-171c-15 3 -33 5 -53 5c-45 0 -80 -14 -103 -41c-19 -23 -28 -58 -28 -107v-210h-195zM382 700l-127 -129h-153l75 129h205z" />
    <glyph glyph-name="rcaron" unicode="&#x159;" horiz-adv-x="439" 
d="M47 0v515h187v-79h2c19 57 76 91 148 91c20 0 30 0 42 -3v-171c-15 3 -33 5 -53 5c-45 0 -80 -14 -103 -41c-19 -23 -28 -58 -28 -107v-210h-195zM33 700h151l42 -51l42 51h152l-107 -129h-174z" />
    <glyph glyph-name="uni0157" unicode="&#x157;" horiz-adv-x="439" 
d="M47 0v515h187v-79h2c19 57 76 91 148 91c20 0 30 0 42 -3v-171c-15 3 -33 5 -53 5c-45 0 -80 -14 -103 -41c-19 -23 -28 -58 -28 -107v-210h-195zM82 -139v98h122v-80c0 -35 -7 -63 -24 -82c-21 -24 -55 -35 -98 -36v60c23 3 44 8 44 40h-44z" />
    <glyph glyph-name="sacute" unicode="&#x15b;" horiz-adv-x="563" 
d="M525 364h-180c-1 33 -25 55 -68 55c-33 0 -58 -11 -58 -38c0 -25 28 -33 71 -41l67 -13c39 -8 93 -21 128 -48c32 -24 54 -59 54 -110c0 -143 -137 -182 -262 -182c-120 0 -254 48 -257 184h187c3 -45 37 -63 77 -63c39 0 66 14 66 43c0 23 -16 32 -59 41l-92 19
c-117 24 -167 72 -167 153c0 131 140 164 243 164c111 0 245 -31 250 -164zM461 700l-127 -129h-153l75 129h205z" />
    <glyph glyph-name="scircumflex" unicode="&#x15d;" horiz-adv-x="563" 
d="M525 364h-180c-1 33 -25 55 -68 55c-33 0 -58 -11 -58 -38c0 -25 28 -33 71 -41l67 -13c39 -8 93 -21 128 -48c32 -24 54 -59 54 -110c0 -143 -137 -182 -262 -182c-120 0 -254 48 -257 184h187c3 -45 37 -63 77 -63c39 0 66 14 66 43c0 23 -16 32 -59 41l-92 19
c-117 24 -167 72 -167 153c0 131 140 164 243 164c111 0 245 -31 250 -164zM90 571l106 129h174l107 -129h-152l-42 51l-42 -51h-151z" />
    <glyph glyph-name="scaron" unicode="&#x161;" horiz-adv-x="563" 
d="M525 364h-180c-1 33 -25 55 -68 55c-33 0 -58 -11 -58 -38c0 -25 28 -33 71 -41l67 -13c39 -8 93 -21 128 -48c32 -24 54 -59 54 -110c0 -143 -137 -182 -262 -182c-120 0 -254 48 -257 184h187c3 -45 37 -63 77 -63c39 0 66 14 66 43c0 23 -16 32 -59 41l-92 19
c-117 24 -167 72 -167 153c0 131 140 164 243 164c111 0 245 -31 250 -164zM88 700h151l42 -51l42 51h152l-107 -129h-174z" />
    <glyph glyph-name="scedilla" unicode="&#x15f;" horiz-adv-x="563" 
d="M525 364h-180c-1 33 -25 55 -68 55c-33 0 -58 -11 -58 -38c0 -25 28 -33 71 -41l67 -13c39 -8 93 -21 128 -48c32 -24 54 -59 54 -110c0 -143 -137 -182 -262 -182c-120 0 -254 48 -257 184h187c3 -45 37 -63 77 -63c39 0 66 14 66 43c0 23 -16 32 -59 41l-92 19
c-117 24 -167 72 -167 153c0 131 140 164 243 164c111 0 245 -31 250 -164zM241 0h85l-37 -33l1 -1h6c40 0 86 -20 86 -72c0 -62 -58 -88 -118 -88c-37 0 -77 10 -104 27l27 52c19 -12 39 -23 64 -23c23 0 38 12 38 29c0 19 -15 28 -38 28c-11 0 -22 -3 -33 -8l-29 30z" />
    <glyph glyph-name="uni0219" unicode="&#x219;" horiz-adv-x="563" 
d="M525 364h-180c-1 33 -25 55 -68 55c-33 0 -58 -11 -58 -38c0 -25 28 -33 71 -41l67 -13c39 -8 93 -21 128 -48c32 -24 54 -59 54 -110c0 -143 -137 -182 -262 -182c-120 0 -254 48 -257 184h187c3 -45 37 -63 77 -63c39 0 66 14 66 43c0 23 -16 32 -59 41l-92 19
c-117 24 -167 72 -167 153c0 131 140 164 243 164c111 0 245 -31 250 -164zM218 -139v98h122v-80c0 -35 -7 -63 -24 -82c-21 -24 -55 -35 -98 -36v60c23 3 44 8 44 40h-44z" />
    <glyph glyph-name="germandbls" unicode="&#xdf;" horiz-adv-x="621" 
d="M47 0v454c0 96 27 158 83 203c43 35 103 53 178 53c159 0 249 -76 249 -183c0 -73 -34 -121 -82 -145v-2c44 -10 121 -49 121 -171c0 -135 -90 -214 -237 -214c-31 0 -51 1 -79 5v146c15 -1 21 -2 34 -2c45 0 88 30 88 91c0 74 -55 89 -122 85v107c49 -2 98 8 98 68
c0 39 -28 62 -67 62c-24 0 -42 -9 -53 -21c-13 -16 -17 -39 -17 -68v-468h-194z" />
    <glyph glyph-name="tcaron" unicode="&#x165;" horiz-adv-x="420" 
d="M95 674h196v-159h101v-121h-101v-190c0 -23 4 -38 12 -45s25 -11 51 -11c15 0 25 0 38 1v-149c-27 -1 -59 -4 -108 -4c-72 0 -117 4 -153 39c-35 35 -36 87 -36 136v223h-86v121h86v159zM341 700h171l-65 -129h-138z" />
    <glyph glyph-name="tbar" unicode="&#x167;" horiz-adv-x="433" 
d="M21 217v115h86v62h-86v121h86v159h195v-159h102v-121h-102v-62h102v-115h-102v-13c0 -23 4 -38 12 -45s25 -11 51 -11c15 0 26 0 39 1v-149c-27 -1 -59 -4 -108 -4c-72 0 -117 4 -153 39c-35 35 -36 87 -36 136v46h-86z" />
    <glyph glyph-name="uni021B" unicode="&#x21b;" horiz-adv-x="420" 
d="M95 674h196v-159h101v-121h-101v-190c0 -23 4 -38 12 -45s25 -11 51 -11c15 0 25 0 38 1v-149c-27 -1 -59 -4 -108 -4c-72 0 -117 4 -153 39c-35 35 -36 87 -36 136v223h-86v121h86v159zM196 -139v98h122v-80c0 -35 -7 -63 -24 -82c-21 -24 -55 -35 -98 -36v60
c23 3 44 8 44 40h-44z" />
    <glyph glyph-name="tcommaaccent" unicode="&#x163;" horiz-adv-x="420" 
d="M95 674h196v-159h101v-121h-101v-190c0 -23 4 -38 12 -45s25 -11 51 -11c15 0 25 0 38 1v-149c-27 -1 -59 -4 -108 -4c-72 0 -117 4 -153 39c-35 35 -36 87 -36 136v223h-86v121h86v159zM219 0h85l-37 -33l1 -1h6c40 0 86 -20 86 -72c0 -62 -58 -88 -118 -88
c-37 0 -77 10 -104 27l27 52c19 -12 39 -23 64 -23c23 0 38 12 38 29c0 19 -15 28 -38 28c-11 0 -22 -3 -33 -8l-29 30z" />
    <glyph glyph-name="ugrave" unicode="&#xf9;" horiz-adv-x="624" 
d="M577 515v-515h-190v23c0 7 1 29 1 44h-2c-34 -53 -89 -80 -165 -80c-52 0 -98 16 -131 49c-29 29 -47 68 -47 129v350h196v-272c0 -61 12 -99 67 -99c53 0 75 39 75 100v271h196zM121 700h205l75 -129h-153z" />
    <glyph glyph-name="uacute" unicode="&#xfa;" horiz-adv-x="624" 
d="M577 515v-515h-190v23c0 7 1 29 1 44h-2c-34 -53 -89 -80 -165 -80c-52 0 -98 16 -131 49c-29 29 -47 68 -47 129v350h196v-272c0 -61 12 -99 67 -99c53 0 75 39 75 100v271h196zM509 700l-127 -129h-153l75 129h205z" />
    <glyph glyph-name="ucircumflex" unicode="&#xfb;" horiz-adv-x="624" 
d="M577 515v-515h-190v23c0 7 1 29 1 44h-2c-34 -53 -89 -80 -165 -80c-52 0 -98 16 -131 49c-29 29 -47 68 -47 129v350h196v-272c0 -61 12 -99 67 -99c53 0 75 39 75 100v271h196zM119 571l106 129h174l107 -129h-152l-42 51l-42 -51h-151z" />
    <glyph glyph-name="utilde" unicode="&#x169;" horiz-adv-x="624" 
d="M577 515v-515h-190v23c0 7 1 29 1 44h-2c-34 -53 -89 -80 -165 -80c-52 0 -98 16 -131 49c-29 29 -47 68 -47 129v350h196v-272c0 -61 12 -99 67 -99c53 0 75 39 75 100v271h196zM200 565h-78c0 57 25 140 110 140c27 0 47 -5 72 -14l37 -14c17 -7 30 -12 43 -12
c19 0 36 10 41 43h78c2 -58 -25 -139 -110 -139c-25 0 -47 5 -72 14l-37 14c-17 7 -30 11 -43 11c-17 0 -34 -8 -41 -43z" />
    <glyph glyph-name="udieresis" unicode="&#xfc;" horiz-adv-x="624" 
d="M577 515v-515h-190v23c0 7 1 29 1 44h-2c-34 -53 -89 -80 -165 -80c-52 0 -98 16 -131 49c-29 29 -47 68 -47 129v350h196v-272c0 -61 12 -99 67 -99c53 0 75 39 75 100v271h196zM339 571v129h160v-129h-160zM122 571v129h160v-129h-160z" />
    <glyph glyph-name="umacron" unicode="&#x16b;" horiz-adv-x="624" 
d="M577 515v-515h-190v23c0 7 1 29 1 44h-2c-34 -53 -89 -80 -165 -80c-52 0 -98 16 -131 49c-29 29 -47 68 -47 129v350h196v-272c0 -61 12 -99 67 -99c53 0 75 39 75 100v271h196zM145 592v93h332v-93h-332z" />
    <glyph glyph-name="ubreve" unicode="&#x16d;" horiz-adv-x="624" 
d="M577 515v-515h-190v23c0 7 1 29 1 44h-2c-34 -53 -89 -80 -165 -80c-52 0 -98 16 -131 49c-29 29 -47 68 -47 129v350h196v-272c0 -61 12 -99 67 -99c53 0 75 39 75 100v271h196zM134 672l86 31c17 -29 46 -44 87 -44c40 0 73 15 89 44l86 -30
c-21 -76 -87 -114 -174 -114c-85 0 -153 38 -174 113z" />
    <glyph glyph-name="uring" unicode="&#x16f;" horiz-adv-x="624" 
d="M577 515v-515h-190v23c0 7 1 29 1 44h-2c-34 -53 -89 -80 -165 -80c-52 0 -98 16 -131 49c-29 29 -47 68 -47 129v350h196v-272c0 -61 12 -99 67 -99c53 0 75 39 75 100v271h196zM310 723c47 0 83 -36 83 -83c0 -45 -36 -84 -83 -84c-45 0 -84 39 -84 84
c0 47 39 83 84 83zM310 666c-13 0 -26 -11 -26 -26c0 -13 13 -26 26 -26c15 0 26 13 26 26c0 15 -11 26 -26 26z" />
    <glyph glyph-name="uhungarumlaut" unicode="&#x171;" horiz-adv-x="624" 
d="M577 515v-515h-190v23c0 7 1 29 1 44h-2c-34 -53 -89 -80 -165 -80c-52 0 -98 16 -131 49c-29 29 -47 68 -47 129v350h196v-272c0 -61 12 -99 67 -99c53 0 75 39 75 100v271h196zM365 700l-127 -129h-134l75 129h186zM605 700l-132 -129h-134l80 129h186z" />
    <glyph glyph-name="uogonek" unicode="&#x173;" horiz-adv-x="624" 
d="M577 515v-515h-190v23c0 7 1 29 1 44h-2c-34 -53 -89 -80 -165 -80c-52 0 -98 16 -131 49c-29 29 -47 68 -47 129v350h196v-272c0 -61 12 -99 67 -99c53 0 75 39 75 100v271h196zM497 0h80c-59 -45 -76 -73 -76 -97c0 -19 9 -29 26 -29c14 0 26 9 36 28l57 -20
c-12 -39 -43 -76 -106 -76c-77 0 -104 44 -104 83c0 49 43 88 87 111z" />
    <glyph glyph-name="wcircumflex" unicode="&#x175;" horiz-adv-x="873" 
d="M877 515l-164 -515h-201l-26 111c-23 100 -36 157 -47 212h-3c-12 -60 -27 -116 -50 -212l-27 -111h-201l-161 515h204l28 -115c15 -61 31 -124 48 -212h4c15 87 28 150 41 214l23 113h184l23 -105c15 -69 30 -143 45 -222h4c17 81 33 154 49 225l23 102h204zM245 571
l106 129h174l107 -129h-152l-42 51l-42 -51h-151z" />
    <glyph glyph-name="wgrave" unicode="&#x1e81;" horiz-adv-x="873" 
d="M877 515l-164 -515h-201l-26 111c-23 100 -36 157 -47 212h-3c-12 -60 -27 -116 -50 -212l-27 -111h-201l-161 515h204l28 -115c15 -61 31 -124 48 -212h4c15 87 28 150 41 214l23 113h184l23 -105c15 -69 30 -143 45 -222h4c17 81 33 154 49 225l23 102h204zM241 700
h205l75 -129h-153z" />
    <glyph glyph-name="wacute" unicode="&#x1e83;" horiz-adv-x="873" 
d="M877 515l-164 -515h-201l-26 111c-23 100 -36 157 -47 212h-3c-12 -60 -27 -116 -50 -212l-27 -111h-201l-161 515h204l28 -115c15 -61 31 -124 48 -212h4c15 87 28 150 41 214l23 113h184l23 -105c15 -69 30 -143 45 -222h4c17 81 33 154 49 225l23 102h204zM641 700
l-127 -129h-153l75 129h205z" />
    <glyph glyph-name="wdieresis" unicode="&#x1e85;" horiz-adv-x="873" 
d="M877 515l-164 -515h-201l-26 111c-23 100 -36 157 -47 212h-3c-12 -60 -27 -116 -50 -212l-27 -111h-201l-161 515h204l28 -115c15 -61 31 -124 48 -212h4c15 87 28 150 41 214l23 113h184l23 -105c15 -69 30 -143 45 -222h4c17 81 33 154 49 225l23 102h204zM466 571
v129h160v-129h-160zM249 571v129h160v-129h-160z" />
    <glyph glyph-name="ygrave" unicode="&#x1ef3;" horiz-adv-x="572" 
d="M575 515l-166 -464c-24 -68 -45 -140 -90 -179c-51 -43 -108 -44 -188 -44h-87v157h48c20 0 48 -2 61 5c12 6 18 18 18 35c0 19 -10 45 -25 85l-152 405h210l42 -157c11 -43 27 -109 40 -173h2c15 64 31 134 42 175l42 155h203zM96 700h205l75 -129h-153z" />
    <glyph glyph-name="yacute" unicode="&#xfd;" horiz-adv-x="572" 
d="M575 515l-166 -464c-24 -68 -45 -140 -90 -179c-51 -43 -108 -44 -188 -44h-87v157h48c20 0 48 -2 61 5c12 6 18 18 18 35c0 19 -10 45 -25 85l-152 405h210l42 -157c11 -43 27 -109 40 -173h2c15 64 31 134 42 175l42 155h203zM471 700l-127 -129h-153l75 129h205z" />
    <glyph glyph-name="ycircumflex" unicode="&#x177;" horiz-adv-x="572" 
d="M575 515l-166 -464c-24 -68 -45 -140 -90 -179c-51 -43 -108 -44 -188 -44h-87v157h48c20 0 48 -2 61 5c12 6 18 18 18 35c0 19 -10 45 -25 85l-152 405h210l42 -157c11 -43 27 -109 40 -173h2c15 64 31 134 42 175l42 155h203zM93 571l106 129h174l107 -129h-152l-42 51
l-42 -51h-151z" />
    <glyph glyph-name="ydieresis" unicode="&#xff;" horiz-adv-x="572" 
d="M575 515l-166 -464c-24 -68 -45 -140 -90 -179c-51 -43 -108 -44 -188 -44h-87v157h48c20 0 48 -2 61 5c12 6 18 18 18 35c0 19 -10 45 -25 85l-152 405h210l42 -157c11 -43 27 -109 40 -173h2c15 64 31 134 42 175l42 155h203zM315 571v129h160v-129h-160zM98 571v129
h160v-129h-160z" />
    <glyph glyph-name="zacute" unicode="&#x17a;" horiz-adv-x="567" 
d="M28 0v152l241 220h-219v143h471v-151l-235 -221h256v-143h-514zM460 700l-127 -129h-153l75 129h205z" />
    <glyph glyph-name="zcaron" unicode="&#x17e;" horiz-adv-x="567" 
d="M28 0v152l241 220h-219v143h471v-151l-235 -221h256v-143h-514zM104 700h151l42 -51l42 51h152l-107 -129h-174z" />
    <glyph glyph-name="zdotaccent" unicode="&#x17c;" horiz-adv-x="567" 
d="M28 0v152l241 220h-219v143h471v-151l-235 -221h256v-143h-514zM206 571v129h169v-129h-169z" />
    <glyph glyph-name="uni0259" unicode="&#x259;" horiz-adv-x="610" 
d="M23 302h382c-3 59 -38 97 -101 97c-45 0 -76 -19 -92 -47h-182c38 110 148 176 275 176c166 0 281 -106 281 -269c0 -148 -112 -272 -282 -272c-172 0 -278 115 -281 315zM401 200h-190c4 -47 39 -88 92 -88c56 0 93 37 98 88z" />
    <glyph glyph-name="fi" unicode="&#xfb01;" horiz-adv-x="689" 
d="M100 0v394h-80v121h80v12c0 48 1 97 38 132c36 35 78 42 158 42c49 0 66 -1 91 -2v-125c-13 1 -21 1 -36 1c-44 0 -60 -11 -60 -52v-8h96v-121h-91v-394h-196zM642 700v-138h-197v138h197zM445 0v515h197v-515h-197z" />
    <glyph glyph-name="fl" unicode="&#xfb02;" horiz-adv-x="689" 
d="M100 0v394h-80v121h80v12c0 48 1 97 38 132c36 35 78 42 158 42c49 0 66 -1 91 -2v-125c-13 1 -21 1 -36 1c-44 0 -60 -11 -60 -52v-8h96v-121h-91v-394h-196zM445 0v700h197v-700h-197z" />
    <glyph glyph-name="uniFB00" unicode="&#xfb00;" horiz-adv-x="746" 
d="M445 0v394h-149v-394h-196v394h-80v121h80v12c0 48 1 97 38 132c36 35 78 42 158 42c49 0 66 -1 91 -2v-125c-13 1 -21 1 -36 1c-44 0 -60 -11 -60 -52v-8h154v12c0 48 1 97 38 132c36 35 78 42 158 42c49 0 66 -1 91 -2v-125c-13 1 -21 1 -36 1c-44 0 -60 -11 -60 -52
v-8h96v-121h-91v-394h-196z" />
    <glyph glyph-name="uniFB03" unicode="&#xfb03;" horiz-adv-x="1034" 
d="M445 0v394h-149v-394h-196v394h-80v121h80v12c0 48 1 97 38 132c36 35 78 42 158 42c49 0 66 -1 91 -2v-125c-13 1 -21 1 -36 1c-44 0 -60 -11 -60 -52v-8h154v12c0 48 1 97 38 132c36 35 78 42 158 42c49 0 66 -1 91 -2v-125c-13 1 -21 1 -36 1c-44 0 -60 -11 -60 -52
v-8h96v-121h-91v-394h-196zM987 700v-138h-197v138h197zM790 0v515h197v-515h-197z" />
    <glyph glyph-name="uniFB04" unicode="&#xfb04;" horiz-adv-x="1034" 
d="M445 0v394h-149v-394h-196v394h-80v121h80v12c0 48 1 97 38 132c36 35 78 42 158 42c49 0 66 -1 91 -2v-125c-13 1 -21 1 -36 1c-44 0 -60 -11 -60 -52v-8h154v12c0 48 1 97 38 132c36 35 78 42 158 42c49 0 66 -1 91 -2v-125c-13 1 -21 1 -36 1c-44 0 -60 -11 -60 -52
v-8h96v-121h-91v-394h-196zM790 0v700h197v-700h-197z" />
    <glyph glyph-name="acute" unicode="&#xb4;" horiz-adv-x="278" 
d="M339 700l-127 -129h-153l75 129h205z" />
    <glyph glyph-name="grave" unicode="`" horiz-adv-x="278" 
d="M-41 700h205l75 -129h-153z" />
    <glyph glyph-name="circumflex" unicode="&#x2c6;" horiz-adv-x="278" 
d="M-54 571l106 129h174l107 -129h-152l-42 51l-42 -51h-151z" />
    <glyph glyph-name="tilde" unicode="&#x2dc;" horiz-adv-x="278" 
d="M35 565h-78c0 57 25 140 110 140c27 0 47 -5 72 -14l37 -14c17 -7 30 -12 43 -12c19 0 36 10 41 43h78c2 -58 -25 -139 -110 -139c-25 0 -47 5 -72 14l-37 14c-17 7 -30 11 -43 11c-17 0 -34 -8 -41 -43z" />
    <glyph glyph-name="breve" unicode="&#x2d8;" horiz-adv-x="278" 
d="M-41 672l86 31c17 -29 46 -44 87 -44c40 0 73 15 89 44l86 -30c-21 -76 -87 -114 -174 -114c-85 0 -153 38 -174 113z" />
    <glyph glyph-name="dotaccent" unicode="&#x2d9;" horiz-adv-x="278" 
d="M54 571v129h169v-129h-169z" />
    <glyph glyph-name="dieresis" unicode="&#xa8;" horiz-adv-x="278" 
d="M171 571v129h160v-129h-160zM-46 571v129h160v-129h-160z" />
    <glyph glyph-name="ring" unicode="&#x2da;" horiz-adv-x="278" 
d="M138 723c47 0 83 -36 83 -83c0 -45 -36 -84 -83 -84c-45 0 -84 39 -84 84c0 47 39 83 84 83zM138 666c-13 0 -26 -11 -26 -26c0 -13 13 -26 26 -26c15 0 26 13 26 26c0 15 -11 26 -26 26z" />
    <glyph glyph-name="hungarumlaut" unicode="&#x2dd;" horiz-adv-x="278" 
d="M189 700l-127 -129h-134l75 129h186zM429 700l-132 -129h-134l80 129h186z" />
    <glyph glyph-name="caron" unicode="&#x2c7;" horiz-adv-x="278" 
d="M-54 700h151l42 -51l42 51h152l-107 -129h-174z" />
    <glyph glyph-name="cedilla" unicode="&#xb8;" horiz-adv-x="278" 
d="M96 0h85l-37 -33l1 -1h6c40 0 86 -20 86 -72c0 -62 -58 -88 -118 -88c-37 0 -77 10 -104 27l27 52c19 -12 39 -23 64 -23c23 0 38 12 38 29c0 19 -15 28 -38 28c-11 0 -22 -3 -33 -8l-29 30z" />
    <glyph glyph-name="overscore" unicode="&#xaf;" horiz-adv-x="278" 
d="M-26 592v93h332v-93h-332z" />
    <glyph glyph-name="ogonek" unicode="&#x2db;" horiz-adv-x="278" 
d="M91 0h80c-59 -45 -76 -73 -76 -97c0 -19 9 -29 26 -29c14 0 26 9 36 28l57 -20c-12 -39 -43 -76 -106 -76c-77 0 -104 44 -104 83c0 49 43 88 87 111z" />
    <glyph glyph-name="acute.case" horiz-adv-x="278" 
d="M291 895l-127 -129h-153l75 129h205z" />
    <glyph glyph-name="grave.case" horiz-adv-x="278" 
d="M11 895h205l75 -129h-153z" />
    <glyph glyph-name="circumflex.case" horiz-adv-x="278" 
d="M-61 767l106 129h174l107 -129h-152l-42 51l-42 -51h-151z" />
    <glyph glyph-name="tilde.case" horiz-adv-x="278" 
d="M33 760h-78c0 57 25 140 110 140c27 0 47 -5 72 -14l37 -14c17 -7 30 -12 43 -12c19 0 36 10 41 43h78c2 -58 -25 -139 -110 -139c-25 0 -47 5 -72 14l-37 14c-17 7 -30 11 -43 11c-17 0 -34 -8 -41 -43z" />
    <glyph glyph-name="breve.case" horiz-adv-x="278" 
d="M-36 871l86 31c17 -29 46 -44 87 -44c40 0 73 15 89 44l86 -30c-21 -76 -87 -114 -174 -114c-85 0 -153 38 -174 113z" />
    <glyph glyph-name="dotaccent.case" horiz-adv-x="278" 
d="M56 766v129h160v-129h-160z" />
    <glyph glyph-name="dieresis.case" horiz-adv-x="278" 
d="M173 766v129h160v-129h-160zM-44 766v129h160v-129h-160z" />
    <glyph glyph-name="ring.case" horiz-adv-x="278" 
d="M138 917c47 0 83 -36 83 -83c0 -45 -36 -84 -83 -84c-45 0 -84 39 -84 84c0 47 39 83 84 83zM164 834c0 15 -11 26 -26 26c-13 0 -26 -11 -26 -26c0 -13 13 -26 26 -26c15 0 26 13 26 26z" />
    <glyph glyph-name="hungarumlaut.case" horiz-adv-x="278" 
d="M189 896l-127 -129h-134l75 129h186zM429 896l-132 -129h-134l80 129h186z" />
    <glyph glyph-name="caron.case" horiz-adv-x="278" 
d="M-54 897h151l42 -51l42 51h152l-107 -129h-174z" />
    <glyph glyph-name="macron.case" horiz-adv-x="278" 
d="M-30 778v93h332v-93h-332z" />
    <glyph glyph-name="uni0312" unicode="&#x312;" horiz-adv-x="278" 
d="M200 644v-98h-122v80c0 35 7 63 24 82c21 24 55 35 98 36v-60c-23 -1 -44 -8 -44 -40h44z" />
    <glyph glyph-name="uni0313" unicode="&#x313;" horiz-adv-x="612" 
d="M40 700h171l-65 -129h-138z" />
    <glyph glyph-name="uni0326" unicode="&#x326;" horiz-adv-x="278" 
d="M78 -139v98h122v-80c0 -35 -7 -63 -24 -82c-21 -24 -55 -35 -98 -36v60c23 3 44 8 44 40h-44z" />
    <glyph glyph-name="zero.zero" horiz-adv-x="654" 
d="M327 712c71 0 154 -26 211 -94c49 -56 82 -142 82 -267c0 -128 -36 -218 -88 -274c-57 -63 -129 -85 -205 -85s-146 22 -205 85c-52 56 -88 146 -88 274c0 125 33 211 82 267c59 68 140 94 211 94zM223 352c0 -28 0 -66 7 -101l137 298c-12 6 -25 9 -40 9
c-99 0 -104 -130 -104 -206zM327 147c101 0 104 133 104 205c0 29 -1 68 -8 104l-137 -300c12 -6 26 -9 41 -9z" />
    <glyph glyph-name="zero" unicode="0" horiz-adv-x="654" 
d="M327 712c71 0 154 -26 211 -94c49 -56 82 -142 82 -267c0 -128 -36 -218 -88 -274c-57 -63 -129 -85 -205 -85s-146 22 -205 85c-52 56 -88 146 -88 274c0 125 33 211 82 267c59 68 140 94 211 94zM327 146c101 0 104 133 104 205c0 76 -5 206 -104 206
s-104 -130 -104 -206c0 -72 4 -205 104 -205z" />
    <glyph glyph-name="one" unicode="1" horiz-adv-x="447" 
d="M188 0v411h-174v142h22c96 0 176 43 184 147h173v-700h-205z" />
    <glyph glyph-name="two" unicode="2" horiz-adv-x="657" 
d="M224 408h-185c-1 8 -1 16 -1 24c0 182 116 280 294 280c163 0 277 -76 277 -222c0 -137 -99 -201 -203 -261c-33 -19 -67 -38 -98 -57v-1c31 0 68 1 133 1h178v-172h-594c-3 68 17 126 50 174c49 71 130 121 207 168l50 31c34 22 78 44 78 98c0 47 -27 80 -86 80
c-75 0 -100 -55 -100 -130v-13z" />
    <glyph glyph-name="three" unicode="3" horiz-adv-x="647" 
d="M228 470h-185c0 136 91 242 288 242c161 0 262 -76 262 -185c0 -89 -52 -135 -87 -147v-2c31 -10 109 -49 109 -157c0 -105 -67 -229 -291 -229c-308 0 -304 223 -301 275h187c-1 -68 34 -120 103 -120c56 0 97 35 97 84c0 56 -46 72 -91 72h-57v128h57c41 0 92 11 92 65
c0 40 -35 67 -87 67c-57 0 -97 -34 -96 -93z" />
    <glyph glyph-name="four" unicode="4" horiz-adv-x="656" 
d="M329 0v138h-309v188l316 374h195v-394h94v-168h-94v-138h-202zM328 505l-168 -199v-2c35 1 66 2 95 2h74v113c0 51 1 65 1 86h-2z" />
    <glyph glyph-name="five" unicode="5" horiz-adv-x="644" 
d="M411 244c0 55 -41 96 -97 96c-37 0 -68 -18 -85 -45h-190l71 405h471v-170h-321l-19 -98h2c31 28 79 42 134 42c125 0 234 -72 234 -228c0 -148 -108 -254 -301 -254c-194 0 -287 108 -295 218l204 9c11 -41 48 -72 95 -72c56 0 97 42 97 97z" />
    <glyph glyph-name="six" unicode="6" horiz-adv-x="647" 
d="M606 516l-179 -7c-9 31 -33 57 -84 57c-87 0 -111 -84 -121 -144l3 -1c41 40 96 57 153 57c133 0 235 -87 235 -232c0 -163 -124 -254 -280 -254c-200 0 -299 148 -299 334c0 223 101 386 312 386c133 0 235 -57 260 -196zM430 246c0 56 -41 97 -97 97s-98 -41 -98 -97
c0 -55 42 -98 98 -98s97 43 97 98z" />
    <glyph glyph-name="seven" unicode="7" horiz-adv-x="559" 
d="M544 700v-163c-167 -157 -208 -373 -208 -537h-220c12 220 116 409 224 529v2c-45 -1 -106 -1 -145 -1h-179v170h528z" />
    <glyph glyph-name="eight" unicode="8" horiz-adv-x="670" 
d="M335 712c156 0 274 -62 274 -192c0 -85 -49 -126 -106 -149v-2c60 -12 136 -62 136 -165c0 -160 -156 -212 -304 -212s-304 52 -304 212c0 103 77 153 136 165v2c-57 23 -106 64 -106 149c0 130 119 192 274 192zM235 501c0 -49 40 -78 101 -78s101 29 101 78
c0 48 -40 79 -101 79s-101 -31 -101 -79zM225 221c0 -53 44 -87 111 -87s111 34 111 87c0 55 -44 85 -111 85s-111 -30 -111 -85z" />
    <glyph glyph-name="nine" unicode="9" horiz-adv-x="646" 
d="M41 185l180 6c7 -24 29 -54 82 -54c85 0 114 84 122 144l-3 1c-41 -40 -94 -57 -153 -57c-133 0 -235 88 -235 233c0 161 122 254 279 254c200 0 300 -149 300 -335c0 -222 -103 -385 -312 -385c-126 0 -234 54 -260 193zM217 456c0 -56 41 -97 97 -97s98 41 98 97
c0 55 -42 96 -98 96s-97 -41 -97 -96z" />
    <glyph glyph-name="zero.osf.zero" horiz-adv-x="650" 
d="M325 688c71 0 154 -24 211 -91c49 -55 82 -139 82 -260c0 -125 -36 -212 -88 -267c-57 -61 -129 -83 -205 -83s-146 22 -205 83c-52 55 -88 142 -88 267c0 121 33 205 82 260c59 67 140 91 211 91zM221 337c0 -28 0 -65 8 -100l134 292c-11 5 -24 8 -38 8
c-99 0 -104 -127 -104 -200zM325 138c101 0 104 127 104 199c0 29 -1 68 -8 103l-135 -294c11 -5 24 -8 39 -8z" />
    <glyph glyph-name="zero.osf" horiz-adv-x="650" 
d="M325 688c71 0 154 -24 211 -91c49 -55 82 -139 82 -260c0 -125 -36 -212 -88 -267c-57 -61 -129 -83 -205 -83s-146 22 -205 83c-52 55 -88 142 -88 267c0 121 33 205 82 260c59 67 140 91 211 91zM325 138c101 0 104 127 104 199c0 73 -5 200 -104 200
s-104 -127 -104 -200c0 -72 4 -199 104 -199z" />
    <glyph glyph-name="one.osf" horiz-adv-x="444" 
d="M187 0v398h-174v140h22c96 0 176 43 184 144h173v-682h-205z" />
    <glyph glyph-name="two.osf" horiz-adv-x="650" 
d="M221 396h-185c-1 8 -1 16 -1 24c0 171 119 270 294 270c166 0 277 -72 277 -214c0 -132 -99 -195 -203 -253c-33 -17 -67 -37 -98 -56v-1c31 0 68 1 133 1h178v-167h-594c-3 67 17 124 50 169c49 69 130 116 207 163l50 30c34 22 78 43 78 95c0 44 -27 77 -86 77
c-75 0 -100 -53 -100 -125v-13z" />
    <glyph glyph-name="three.osf" horiz-adv-x="643" 
d="M226 457h-185c0 133 96 235 288 235c161 0 262 -75 262 -183c0 -86 -52 -130 -87 -142v-2c31 -10 109 -47 109 -152c0 -103 -67 -226 -291 -226c-308 0 -304 217 -301 267h187c-1 -65 34 -115 103 -115c56 0 97 33 97 84c0 27 -10 45 -29 54c-19 10 -39 15 -62 15h-57
v125h57c41 0 92 9 92 62c0 41 -35 68 -87 68c-57 0 -97 -33 -96 -90z" />
    <glyph glyph-name="four.osf" horiz-adv-x="650" 
d="M328 0v133h-309v185l316 364h195v-384h94v-165h-94v-133h-202zM327 491l-168 -193v-2c35 1 66 2 95 2h74v108c0 49 1 64 1 85h-2z" />
    <glyph glyph-name="five.osf" horiz-adv-x="640" 
d="M409 238c0 55 -41 95 -97 95c-37 0 -68 -17 -85 -44h-190l71 393h471v-167h-321l-19 -91h2c31 27 79 41 134 41c125 0 234 -72 234 -225c0 -148 -108 -253 -301 -253c-194 0 -287 106 -295 214l204 9c11 -41 48 -70 95 -70c56 0 97 42 97 98z" />
    <glyph glyph-name="six.osf" horiz-adv-x="643" 
d="M604 499l-179 -6c-9 31 -33 55 -84 55c-87 0 -111 -83 -121 -140l3 -1c41 39 96 55 153 55c133 0 235 -85 235 -224c0 -156 -124 -246 -280 -246c-200 0 -299 144 -299 324c0 216 101 374 312 374c133 0 235 -56 260 -191zM428 238c0 53 -41 93 -97 93s-98 -40 -98 -93
s42 -93 98 -93s97 40 97 93z" />
    <glyph glyph-name="seven.osf" horiz-adv-x="558" 
d="M543 682v-160c-167 -154 -208 -362 -208 -522h-220c12 214 116 396 224 514v2c-45 -1 -106 -1 -145 -1h-179v167h528z" />
    <glyph glyph-name="eight.osf" horiz-adv-x="666" 
d="M333 690c156 0 274 -62 274 -189c0 -81 -49 -122 -106 -145v-2c60 -12 136 -59 136 -160c0 -156 -156 -207 -304 -207s-304 51 -304 207c0 102 77 148 136 160v2c-57 23 -106 64 -106 145c0 127 118 189 274 189zM233 483c0 -47 40 -76 101 -76s101 29 101 76
c0 48 -40 78 -101 78s-101 -30 -101 -78zM223 210c0 -52 44 -84 111 -84s111 32 111 84s-44 83 -111 83s-111 -31 -111 -83z" />
    <glyph glyph-name="nine.osf" horiz-adv-x="643" 
d="M39 183l179 6c9 -29 33 -55 84 -55c86 0 113 84 121 140l-3 1c-41 -37 -94 -55 -153 -55c-133 0 -235 85 -235 224c0 157 124 246 280 246c200 0 299 -144 299 -324c0 -216 -103 -374 -312 -374c-133 0 -233 56 -260 191zM215 444c0 -53 41 -93 97 -93s98 40 98 93
s-42 93 -98 93s-97 -40 -97 -93z" />
    <glyph glyph-name="zero.tf.zero" 
d="M330 712c71 0 154 -26 211 -94c49 -56 82 -142 82 -267c0 -128 -36 -218 -88 -274c-57 -63 -129 -85 -205 -85s-146 22 -205 85c-52 56 -88 146 -88 274c0 125 33 211 82 267c59 68 140 94 211 94zM226 352c0 -28 0 -66 7 -101l137 298c-12 6 -25 9 -40 9
c-99 0 -104 -130 -104 -206zM330 147c101 0 104 133 104 205c0 29 -1 68 -8 104l-137 -300c12 -6 26 -9 41 -9z" />
    <glyph glyph-name="zero.tf" 
d="M330 712c71 0 154 -26 211 -94c49 -56 82 -142 82 -267c0 -128 -36 -218 -88 -274c-57 -63 -129 -85 -205 -85s-146 22 -205 85c-52 56 -88 146 -88 274c0 125 33 211 82 267c59 68 140 94 211 94zM330 146c101 0 104 133 104 205c0 76 -5 206 -104 206
s-104 -130 -104 -206c0 -72 4 -205 104 -205z" />
    <glyph glyph-name="one.tf" 
d="M295 0v411h-174v142h22c96 0 176 43 184 147h173v-700h-205z" />
    <glyph glyph-name="two.tf" 
d="M225 408h-185c-1 8 -1 16 -1 24c0 182 116 280 294 280c163 0 277 -76 277 -222c0 -137 -99 -201 -203 -261c-33 -19 -67 -38 -98 -57v-1c31 0 68 1 133 1h178v-172h-594c-3 68 17 126 50 174c49 71 130 121 207 168l50 31c34 22 78 44 78 98c0 47 -27 80 -86 80
c-75 0 -100 -55 -100 -130v-13z" />
    <glyph glyph-name="three.tf" 
d="M235 470h-185c0 136 91 242 288 242c161 0 262 -76 262 -185c0 -89 -52 -135 -87 -147v-2c31 -10 109 -49 109 -157c0 -105 -67 -229 -291 -229c-308 0 -304 223 -301 275h187c-1 -68 34 -120 103 -120c56 0 97 35 97 84c0 56 -46 72 -91 72h-57v128h57c41 0 92 11 92 65
c0 40 -35 67 -87 67c-57 0 -97 -34 -96 -93z" />
    <glyph glyph-name="four.tf" 
d="M331 0v138h-309v188l316 374h195v-394h94v-168h-94v-138h-202zM330 505l-168 -199v-2c35 1 66 2 95 2h74v113c0 51 1 65 1 86h-2z" />
    <glyph glyph-name="five.tf" 
d="M419 244c0 55 -41 96 -97 96c-37 0 -68 -18 -85 -45h-190l71 405h471v-170h-321l-19 -98h2c31 28 79 42 134 42c125 0 234 -72 234 -228c0 -148 -108 -254 -301 -254c-194 0 -287 108 -295 218l204 9c11 -41 48 -72 95 -72c56 0 97 42 97 97z" />
    <glyph glyph-name="six.tf" 
d="M612 516l-179 -7c-9 31 -33 57 -84 57c-87 0 -111 -84 -121 -144l3 -1c41 40 96 57 153 57c133 0 235 -87 235 -232c0 -163 -124 -254 -280 -254c-200 0 -299 148 -299 334c0 223 101 386 312 386c133 0 235 -57 260 -196zM436 246c0 56 -41 97 -97 97s-98 -41 -98 -97
c0 -55 42 -98 98 -98s97 43 97 98z" />
    <glyph glyph-name="seven.tf" 
d="M594 700v-163c-167 -157 -208 -373 -208 -537h-220c12 220 116 409 224 529v2c-45 -1 -106 -1 -145 -1h-179v170h528z" />
    <glyph glyph-name="eight.tf" 
d="M330 712c156 0 274 -62 274 -192c0 -85 -49 -126 -106 -149v-2c60 -12 136 -62 136 -165c0 -160 -156 -212 -304 -212s-304 52 -304 212c0 103 77 153 136 165v2c-57 23 -106 64 -106 149c0 130 119 192 274 192zM230 501c0 -49 40 -78 101 -78s101 29 101 78
c0 48 -40 79 -101 79s-101 -31 -101 -79zM220 221c0 -53 44 -87 111 -87s111 34 111 87c0 55 -44 85 -111 85s-111 -30 -111 -85z" />
    <glyph glyph-name="nine.tf" 
d="M48 185l180 6c7 -24 29 -54 82 -54c85 0 114 84 122 144l-3 1c-41 -40 -94 -57 -153 -57c-133 0 -235 88 -235 233c0 161 122 254 279 254c200 0 300 -149 300 -335c0 -222 -103 -385 -312 -385c-126 0 -234 54 -260 193zM224 456c0 -56 41 -97 97 -97s98 41 98 97
c0 55 -42 96 -98 96s-97 -41 -97 -96z" />
    <glyph glyph-name="zero.tosf.zero" 
d="M330 688c71 0 154 -24 211 -91c49 -55 82 -139 82 -260c0 -125 -36 -212 -88 -267c-57 -61 -129 -83 -205 -83s-146 22 -205 83c-52 55 -88 142 -88 267c0 121 33 205 82 260c59 67 140 91 211 91zM226 337c0 -28 0 -65 8 -100l134 292c-11 5 -24 8 -38 8
c-99 0 -104 -127 -104 -200zM330 138c101 0 104 127 104 199c0 29 -1 68 -8 103l-135 -294c11 -5 24 -8 39 -8z" />
    <glyph glyph-name="zero.tosf" 
d="M330 688c71 0 154 -24 211 -91c49 -55 82 -139 82 -260c0 -125 -36 -212 -88 -267c-57 -61 -129 -83 -205 -83s-146 22 -205 83c-52 55 -88 142 -88 267c0 121 33 205 82 260c59 67 140 91 211 91zM330 138c101 0 104 127 104 199c0 73 -5 200 -104 200
s-104 -127 -104 -200c0 -72 4 -199 104 -199z" />
    <glyph glyph-name="one.tosf" 
d="M295 0v398h-174v140h22c96 0 176 43 184 144h173v-682h-205z" />
    <glyph glyph-name="two.tosf" 
d="M226 396h-185c-1 8 -1 16 -1 24c0 171 119 270 294 270c166 0 277 -72 277 -214c0 -132 -99 -195 -203 -253c-33 -17 -67 -37 -98 -56v-1c31 0 68 1 133 1h178v-167h-594c-3 67 17 124 50 169c49 69 130 116 207 163l50 30c34 22 78 43 78 95c0 44 -27 77 -86 77
c-75 0 -100 -53 -100 -125v-13z" />
    <glyph glyph-name="three.tosf" 
d="M235 457h-185c0 133 96 235 288 235c161 0 262 -75 262 -183c0 -86 -52 -130 -87 -142v-2c31 -10 109 -47 109 -152c0 -103 -67 -226 -291 -226c-308 0 -304 217 -301 267h187c-1 -65 34 -115 103 -115c56 0 97 33 97 84c0 27 -10 45 -29 54c-19 10 -39 15 -62 15h-57
v125h57c41 0 92 9 92 62c0 41 -35 68 -87 68c-57 0 -97 -33 -96 -90z" />
    <glyph glyph-name="four.tosf" 
d="M333 0v133h-309v185l316 364h195v-384h94v-165h-94v-133h-202zM332 491l-168 -193v-2c35 1 66 2 95 2h74v108c0 49 1 64 1 85h-2z" />
    <glyph glyph-name="five.tosf" 
d="M419 238c0 55 -41 95 -97 95c-37 0 -68 -17 -85 -44h-190l71 393h471v-167h-321l-19 -91h2c31 27 79 41 134 41c125 0 234 -72 234 -225c0 -148 -108 -253 -301 -253c-194 0 -287 106 -295 214l204 9c11 -41 48 -70 95 -70c56 0 97 42 97 98z" />
    <glyph glyph-name="six.tosf" 
d="M612 499l-179 -6c-9 31 -33 55 -84 55c-87 0 -111 -83 -121 -140l3 -1c41 39 96 55 153 55c133 0 235 -85 235 -224c0 -156 -124 -246 -280 -246c-200 0 -299 144 -299 324c0 216 101 374 312 374c133 0 235 -56 260 -191zM436 238c0 53 -41 93 -97 93s-98 -40 -98 -93
s42 -93 98 -93s97 40 97 93z" />
    <glyph glyph-name="seven.tosf" 
d="M594 682v-160c-167 -154 -208 -362 -208 -522h-220c12 214 116 396 224 514v2c-45 -1 -106 -1 -145 -1h-179v167h528z" />
    <glyph glyph-name="eight.tosf" 
d="M330 690c156 0 274 -62 274 -189c0 -81 -49 -122 -106 -145v-2c60 -12 136 -59 136 -160c0 -156 -156 -207 -304 -207s-304 51 -304 207c0 102 77 148 136 160v2c-57 23 -106 64 -106 145c0 127 118 189 274 189zM230 483c0 -47 40 -76 101 -76s101 29 101 76
c0 48 -40 78 -101 78s-101 -30 -101 -78zM220 210c0 -52 44 -84 111 -84s111 32 111 84s-44 83 -111 83s-111 -31 -111 -83z" />
    <glyph glyph-name="nine.tosf" 
d="M48 183l179 6c9 -29 33 -55 84 -55c86 0 113 84 121 140l-3 1c-41 -37 -94 -55 -153 -55c-133 0 -235 85 -235 224c0 157 124 246 280 246c200 0 299 -144 299 -324c0 -216 -103 -374 -312 -374c-133 0 -233 56 -260 191zM224 444c0 -53 41 -93 97 -93s98 40 98 93
s-42 93 -98 93s-97 -40 -97 -93z" />
    <glyph glyph-name="period" unicode="." horiz-adv-x="299" 
d="M46 0v209h207v-209h-207z" />
    <glyph glyph-name="comma" unicode="," horiz-adv-x="299" 
d="M46 0v209h207v-158c0 -65 -8 -111 -35 -150c-40 -60 -97 -80 -172 -80v84c47 3 91 40 91 93v2h-91z" />
    <glyph glyph-name="colon" unicode=":" horiz-adv-x="301" 
d="M47 306v209h207v-209h-207zM47 0v209h207v-209h-207z" />
    <glyph glyph-name="semicolon" unicode=";" horiz-adv-x="301" 
d="M47 306v209h207v-209h-207zM47 0v209h207v-158c0 -65 -8 -111 -35 -150c-40 -60 -97 -80 -172 -80v84c47 3 91 40 91 93v2h-91z" />
    <glyph glyph-name="ellipsis" unicode="&#x2026;" horiz-adv-x="949" 
d="M46 0v209h207v-209h-207zM366 0v209h207v-209h-207zM696 0v209h207v-209h-207z" />
    <glyph glyph-name="questiondown" unicode="&#xbf;" horiz-adv-x="574" 
d="M406 515v-194h-204v194h204zM353 48h203c0 -121 -79 -249 -274 -249c-190 0 -258 112 -258 199c0 96 52 133 110 165l24 13c44 24 55 43 55 88h182v-17c0 -81 -18 -132 -93 -167l-23 -11c-24 -11 -45 -27 -45 -56c0 -28 21 -48 56 -48c47 0 63 33 63 74v9z" />
    <glyph glyph-name="questiondown.case" horiz-adv-x="578" 
d="M408 700v-194h-204v194h204zM355 233h203c0 -121 -79 -249 -274 -249c-190 0 -258 112 -258 199c0 96 52 133 110 165l24 13c44 24 55 43 55 88h182v-17c0 -81 -18 -132 -93 -167l-23 -11c-24 -11 -45 -27 -45 -56c0 -28 21 -48 56 -48c47 0 63 33 63 74v9z" />
    <glyph glyph-name="question" unicode="?" horiz-adv-x="579" 
d="M224 467h-203c0 120 79 246 274 246c190 0 258 -110 258 -196c0 -96 -52 -133 -110 -165l-24 -13c-44 -24 -55 -43 -55 -88h-182v17c0 81 20 132 93 167l23 11c24 11 45 27 45 56c0 27 -21 45 -56 45c-45 0 -63 -32 -63 -71v-9zM171 0v194h204v-194h-204z" />
    <glyph glyph-name="exclamdown" unicode="&#xa1;" horiz-adv-x="290" 
d="M43 515h204v-194h-204v194zM247 -185h-204v164l55 283h95l54 -283v-164z" />
    <glyph glyph-name="exclamdown.case" horiz-adv-x="302" 
d="M49 700h204v-194h-204v194zM253 0h-204v164l55 283h95l54 -283v-164z" />
    <glyph glyph-name="exclam" unicode="!" horiz-adv-x="297" 
d="M250 700v-164l-54 -283h-95l-55 283v164h204zM46 0v194h204v-194h-204z" />
    <glyph glyph-name="parenleft" unicode="(" horiz-adv-x="328" 
d="M138 700h171c-63 -156 -86 -289 -86 -438c0 -73 6 -143 19 -212c13 -68 36 -142 67 -222h-171c-72 148 -105 280 -105 433s33 298 105 439z" />
    <glyph glyph-name="parenright" unicode=")" horiz-adv-x="328" 
d="M190 700c72 -141 105 -286 105 -439s-33 -285 -105 -433h-171c31 80 53 154 66 222c13 69 20 139 20 212c0 149 -23 282 -86 438h171z" />
    <glyph glyph-name="parenleft.case" horiz-adv-x="332" 
d="M140 786h171c-63 -156 -86 -289 -86 -438c0 -73 6 -143 19 -212c13 -68 36 -142 67 -222h-171c-72 148 -105 280 -105 433s33 298 105 439z" />
    <glyph glyph-name="parenright.case" horiz-adv-x="332" 
d="M192 786c72 -141 105 -286 105 -439s-33 -285 -105 -433h-171c31 80 53 154 66 222c13 69 20 139 20 212c0 149 -23 282 -86 438h171z" />
    <glyph glyph-name="bracketleft" unicode="[" horiz-adv-x="399" 
d="M52 -172v872h323v-149h-149v-574h149v-149h-323z" />
    <glyph glyph-name="bracketright" unicode="]" horiz-adv-x="399" 
d="M347 -172h-323v149h149v574h-149v149h323v-872z" />
    <glyph glyph-name="bracketleft.case" horiz-adv-x="405" 
d="M55 -86v872h323v-149h-149v-574h149v-149h-323z" />
    <glyph glyph-name="bracketright.case" horiz-adv-x="405" 
d="M350 -86h-323v149h149v574h-149v149h323v-872z" />
    <glyph glyph-name="braceleft" unicode="{" horiz-adv-x="394" 
d="M161 266v-4c32 -1 62 -8 83 -23c20 -13 32 -35 32 -76v-128c0 -41 12 -58 56 -58h28v-149h-96c-59 0 -91 10 -118 31c-25 20 -40 50 -40 113v158c0 43 -23 56 -82 59v150c59 3 82 16 82 59v158c0 63 15 93 40 113c27 21 59 31 118 31h96v-149h-28c-44 0 -56 -17 -56 -58
v-128c0 -41 -12 -61 -32 -76c-21 -15 -51 -20 -83 -23z" />
    <glyph glyph-name="braceright" unicode="}" horiz-adv-x="394" 
d="M233 266c-32 3 -62 8 -83 23c-20 15 -32 35 -32 76v128c0 41 -12 58 -56 58h-28v149h96c59 0 93 -10 118 -31c25 -20 40 -50 40 -113v-158c0 -43 23 -56 82 -59v-150c-59 -3 -82 -16 -82 -59v-158c0 -63 -15 -93 -40 -113c-25 -21 -59 -31 -118 -31h-96v149h28
c44 0 56 17 56 58v128c0 41 12 63 32 76c21 15 51 22 83 23v4z" />
    <glyph glyph-name="braceleft.case" horiz-adv-x="399" 
d="M163 352v-4c32 -1 62 -8 83 -23c20 -13 32 -35 32 -76v-128c0 -41 12 -58 56 -58h28v-149h-96c-59 0 -91 10 -118 31c-25 20 -40 50 -40 113v158c0 43 -23 56 -82 59v150c59 3 82 16 82 59v158c0 63 15 93 40 113c27 21 59 31 118 31h96v-149h-28c-44 0 -56 -17 -56 -58
v-128c0 -41 -12 -61 -32 -76c-21 -15 -51 -20 -83 -23z" />
    <glyph glyph-name="braceright.case" horiz-adv-x="399" 
d="M236 352c-32 3 -62 8 -83 23c-20 15 -32 35 -32 76v128c0 41 -12 58 -56 58h-28v149h96c59 0 93 -10 118 -31c25 -20 40 -50 40 -113v-158c0 -43 23 -56 82 -59v-150c-59 -3 -82 -16 -82 -59v-158c0 -63 -15 -93 -40 -113c-25 -21 -59 -31 -118 -31h-96v149h28
c44 0 56 17 56 58v128c0 41 12 63 32 76c21 15 51 22 83 23v4z" />
    <glyph glyph-name="slash" unicode="/" horiz-adv-x="448" 
d="M168 0h-152l263 700h152z" />
    <glyph glyph-name="a.subs" horiz-adv-x="402" 
d="M377 -128h-123c-4 8 -5 21 -6 30h-1c-24 -27 -58 -35 -98 -35c-81 0 -130 29 -130 94c0 36 18 58 43 73c28 15 68 18 108 25l46 8c17 3 29 4 29 21c0 20 -17 28 -40 28c-32 0 -43 -15 -43 -38l-131 1c3 83 69 113 178 113c75 0 112 -12 133 -35c23 -24 27 -54 27 -93
v-146c0 -28 1 -29 8 -41v-5zM245 13c-4 -4 -12 -6 -24 -9l-17 -5c-31 -9 -48 -13 -48 -33c0 -17 12 -25 36 -25c25 0 41 7 48 22c3 7 5 15 5 25v25z" />
    <glyph glyph-name="b.subs" horiz-adv-x="413" 
d="M35 -128v420h134v-74c0 -29 0 -44 -1 -69h1c19 27 53 41 90 41c103 0 132 -76 132 -160c0 -90 -45 -163 -131 -163c-53 0 -80 22 -95 42h-1v-37h-129zM213 -44c35 0 44 35 44 72c0 39 -9 73 -44 73c-36 0 -48 -34 -48 -73c0 -37 12 -72 48 -72z" />
    <glyph glyph-name="c.subs" horiz-adv-x="386" 
d="M243 -2h128c-13 -76 -68 -131 -171 -131c-115 0 -180 66 -180 163c0 96 65 162 180 162c111 0 153 -52 168 -125h-126c-5 21 -18 36 -42 36c-35 0 -46 -36 -46 -73s11 -74 46 -74c27 0 39 19 43 42z" />
    <glyph glyph-name="d.subs" horiz-adv-x="418" 
d="M253 -128c0 16 0 25 1 38h-1c-20 -29 -56 -43 -95 -43c-76 0 -136 40 -136 160c0 90 46 163 137 163c48 0 72 -17 89 -40h1v142h134v-420h-130zM200 101c-33 0 -44 -35 -44 -72s11 -73 44 -73c36 0 48 36 48 73s-12 72 -48 72z" />
    <glyph glyph-name="e.subs" horiz-adv-x="405" 
d="M386 1h-240c1 -38 20 -57 57 -57c27 0 42 11 51 27h127c-21 -65 -72 -104 -179 -104c-121 0 -182 64 -182 161c0 90 59 164 183 164c135 0 182 -70 183 -191zM149 66h106c-3 33 -20 50 -51 50c-32 0 -54 -19 -55 -50z" />
    <glyph glyph-name="f.subs" horiz-adv-x="258" 
d="M60 -128v226h-41v83h41v7c0 29 4 54 29 79c23 21 47 26 95 26c31 0 39 -1 55 -2v-83c-8 1 -13 1 -22 1c-19 0 -26 -4 -26 -23v-5h48v-83h-45v-226h-134z" />
    <glyph glyph-name="g.subs" horiz-adv-x="415" 
d="M38 -136h131c4 -12 15 -21 36 -21c14 0 24 5 31 14s10 20 10 33v8c0 11 0 13 1 22h-2c-17 -24 -49 -36 -84 -36c-100 0 -139 68 -139 154c0 84 47 149 136 149c35 0 70 -13 87 -44h2c0 5 -1 14 -1 25v13h134v-269c0 -36 -7 -81 -42 -112c-25 -23 -72 -35 -141 -35
c-108 0 -148 32 -159 99zM203 -27c36 0 48 29 48 62s-12 63 -48 63s-47 -30 -47 -63s11 -62 47 -62z" />
    <glyph glyph-name="h.subs" horiz-adv-x="407" 
d="M35 -128v420h134v-96c0 -27 -1 -41 -1 -50h1c21 29 52 43 93 43c35 0 63 -9 84 -30c17 -17 28 -40 28 -77v-210h-134v173c0 27 -7 44 -35 44c-25 0 -36 -17 -36 -44v-173h-134z" />
    <glyph glyph-name="i.subs" horiz-adv-x="204" 
d="M169 292v-83h-134v83h134zM35 -128v309h134v-309h-134z" />
    <glyph glyph-name="j.subs" horiz-adv-x="236" 
d="M201 292v-82h-134v82h134zM67 181h134v-291c0 -49 -3 -79 -27 -100s-71 -22 -104 -22c-17 0 -42 1 -55 1v104h19c24 0 33 9 33 38v270z" />
    <glyph glyph-name="k.subs" horiz-adv-x="403" 
d="M35 -128v420h134v-201l35 42l40 48h154l-116 -123l123 -186h-154l-54 106l-28 -31v-75h-134z" />
    <glyph glyph-name="l.subs" horiz-adv-x="204" 
d="M35 -128v420h134v-420h-134z" />
    <glyph glyph-name="m.subs" horiz-adv-x="611" 
d="M374 -128h-134v170c0 27 -4 47 -32 47s-39 -17 -39 -45v-172h-134v309h130v-19c0 -7 -1 -15 -1 -22h1c21 33 54 49 99 49c39 0 72 -18 87 -49c17 27 51 49 104 49c46 0 77 -10 94 -30c20 -20 29 -48 29 -75v-212h-134v170c0 27 -4 47 -33 47c-27 0 -37 -17 -37 -45v-172z
" />
    <glyph glyph-name="n.subs" horiz-adv-x="407" 
d="M35 -128v309h130v-40h1c21 32 54 48 100 48c33 0 60 -10 80 -30c17 -17 28 -40 28 -77v-210h-134v173c0 27 -6 44 -33 44c-25 0 -38 -17 -38 -44v-173h-134z" />
    <glyph glyph-name="o.subs" horiz-adv-x="400" 
d="M200 192c116 0 180 -66 180 -162c0 -97 -64 -163 -180 -163s-180 66 -180 163c0 96 64 162 180 162zM200 -44c35 0 46 33 46 74c0 40 -11 73 -46 73s-46 -33 -46 -73c0 -41 11 -74 46 -74z" />
    <glyph glyph-name="p.subs" horiz-adv-x="413" 
d="M35 -233v414h129v-8c0 -12 -1 -17 -1 -28h1c19 29 56 45 95 45c103 0 132 -76 132 -160c0 -90 -45 -163 -131 -163c-51 0 -77 19 -90 38h-1v-138h-134zM213 -44c35 0 44 35 44 72c0 39 -9 73 -44 73c-36 0 -48 -34 -48 -73c0 -37 12 -72 48 -72z" />
    <glyph glyph-name="q.subs" horiz-adv-x="418" 
d="M249 -239l-1 100c0 16 0 23 1 44h-1c-17 -28 -54 -38 -90 -38c-76 0 -136 40 -136 160c0 90 46 163 137 163c51 0 77 -21 94 -44h1v35h129v-420h-134zM200 101c-33 0 -44 -35 -44 -72s11 -73 44 -73c36 0 48 36 48 73s-12 72 -48 72z" />
    <glyph glyph-name="r.subs" horiz-adv-x="291" 
d="M35 -128v309h129v-47h1c11 35 46 54 89 54c12 0 18 1 25 -2v-112c-8 2 -18 3 -31 3c-27 0 -48 -8 -62 -25c-11 -13 -17 -35 -17 -64v-116h-134z" />
    <glyph glyph-name="s.subs" horiz-adv-x="372" 
d="M343 93h-118c-1 16 -15 24 -41 24c-17 0 -32 -5 -32 -18c0 -12 19 -15 44 -20l40 -8c25 -5 61 -13 82 -30c19 -13 33 -30 33 -65c0 -86 -77 -109 -167 -109c-86 0 -164 29 -164 110h122c1 -21 22 -30 46 -30c21 0 37 8 37 21c0 10 -13 17 -38 22l-56 11
c-73 15 -104 44 -104 92c0 78 80 99 156 99c81 0 156 -20 160 -99z" />
    <glyph glyph-name="t.subs" horiz-adv-x="276" 
d="M63 275h134v-94h51v-83h-51v-88c0 -13 2 -22 7 -27c5 -4 9 -7 21 -7c8 0 15 0 23 1v-104c-17 -1 -36 -2 -65 -2c-45 0 -75 2 -98 23c-21 21 -22 53 -22 82v122h-45v83h45v94z" />
    <glyph glyph-name="u.subs" horiz-adv-x="407" 
d="M372 181v-309h-130v17c0 4 1 17 1 26h-1c-20 -29 -51 -48 -92 -48c-36 0 -68 9 -89 29c-17 19 -28 41 -28 78v207h134v-171c0 -25 7 -43 34 -43c25 0 37 18 37 43v171h134z" />
    <glyph glyph-name="v.subs" horiz-adv-x="373" 
d="M368 181l-102 -309h-159l-102 309h135l21 -83c7 -27 16 -65 27 -113h1c11 47 20 85 28 114l21 82h130z" />
    <glyph glyph-name="w.subs" horiz-adv-x="556" 
d="M552 181l-98 -309h-136l-16 67c-12 48 -19 75 -24 102h-1c-5 -29 -14 -55 -25 -102l-16 -67h-135l-97 309h132l17 -69c9 -35 18 -68 27 -119h1c8 49 16 84 23 120l14 68h120l14 -63c9 -40 17 -82 25 -126h1c11 45 19 87 28 128l14 61h132z" />
    <glyph glyph-name="x.subs" horiz-adv-x="369" 
d="M1 -128l108 163l-100 146h142l34 -61h1l34 61h139l-100 -146l109 -163h-139l-44 76h-1l-44 -76h-139z" />
    <glyph glyph-name="y.subs" horiz-adv-x="380" 
d="M377 181l-100 -278c-15 -41 -30 -84 -58 -108c-33 -27 -69 -28 -120 -28h-70v100h46c15 0 33 2 33 23c0 13 -5 27 -13 48l-92 243h144l21 -94c7 -25 15 -65 24 -104h1c8 39 20 81 25 105l21 93h138z" />
    <glyph glyph-name="z.subs" horiz-adv-x="359" 
d="M27 -128v91l135 124h-132v94h293v-91l-132 -124h144v-94h-308z" />
    <glyph glyph-name="uni2080" unicode="&#x2080;" horiz-adv-x="454" 
d="M227 297c131 0 200 -88 200 -215s-69 -215 -200 -215c-65 0 -114 20 -149 60c-34 40 -51 92 -51 155s17 115 51 155c35 40 84 60 149 60zM227 -33c45 0 57 46 57 115s-12 115 -57 115s-57 -46 -57 -115s12 -115 57 -115z" />
    <glyph glyph-name="uni2081" unicode="&#x2081;" horiz-adv-x="299" 
d="M121 -128v239h-106v88h10c59 0 113 24 117 93h113v-420h-134z" />
    <glyph glyph-name="uni2082" unicode="&#x2082;" horiz-adv-x="455" 
d="M163 112h-131v18c0 107 80 167 199 167c113 0 188 -45 188 -133c0 -83 -67 -119 -137 -157l-53 -28v-2c16 0 49 2 74 2h122v-107h-402c-1 43 11 78 34 107c33 41 88 72 139 100l38 21c21 12 44 27 44 54c0 23 -15 43 -52 43c-47 0 -63 -31 -63 -74v-11z" />
    <glyph glyph-name="uni2083" unicode="&#x2083;" horiz-adv-x="449" 
d="M166 147h-133c0 85 67 150 198 150c109 0 178 -45 178 -112c0 -52 -28 -76 -52 -87c25 -8 66 -36 66 -93c0 -62 -44 -138 -196 -138c-147 0 -210 66 -207 167h135c-1 -39 19 -70 64 -70c35 0 60 19 60 47c0 31 -28 39 -56 39h-42v81h42c27 0 57 6 57 35
c0 23 -21 38 -53 38c-40 0 -62 -21 -61 -57z" />
    <glyph glyph-name="uni2084" unicode="&#x2084;" horiz-adv-x="439" 
d="M217 -128v83h-200v113l206 224h130v-234h61v-103h-61v-83h-136zM217 58v116l-107 -116h107z" />
    <glyph glyph-name="uni2085" unicode="&#x2085;" horiz-adv-x="449" 
d="M283 19c0 31 -26 55 -61 55c-25 0 -43 -9 -54 -27h-134l48 245h321v-107h-213l-10 -45c21 13 51 19 84 19c85 0 159 -44 159 -138c0 -89 -71 -154 -204 -154s-194 66 -200 136l143 5c7 -25 31 -43 60 -43c35 0 61 25 61 54z" />
    <glyph glyph-name="uni2086" unicode="&#x2086;" horiz-adv-x="450" 
d="M419 181l-132 -4c-5 19 -20 34 -51 34c-51 0 -66 -50 -72 -86l2 -1c24 24 58 35 91 35c47 0 87 -13 118 -38c32 -25 48 -59 48 -102c0 -96 -85 -152 -193 -152c-136 0 -204 88 -204 200c0 134 69 232 212 232c93 0 166 -35 181 -118zM289 19c0 35 -24 59 -59 59
c-33 0 -58 -24 -58 -59c0 -33 25 -58 58 -58c35 0 59 25 59 58z" />
    <glyph glyph-name="uni2087" unicode="&#x2087;" horiz-adv-x="386" 
d="M373 292v-100c-110 -94 -137 -222 -139 -320h-152c8 129 76 241 145 314h-213v106h359z" />
    <glyph glyph-name="uni2088" unicode="&#x2088;" horiz-adv-x="461" 
d="M45 180c0 39 18 69 53 88c36 19 80 29 133 29c105 0 187 -39 187 -117c0 -45 -23 -72 -59 -87c39 -11 77 -41 77 -98c0 -94 -106 -128 -205 -128c-100 0 -206 34 -206 128c0 59 41 88 78 99c-36 15 -58 41 -58 86zM232 214c-40 0 -63 -17 -63 -45c0 -25 23 -42 63 -42
c39 0 63 17 63 42c0 28 -24 45 -63 45zM162 5c0 -29 27 -49 70 -49s70 20 70 49s-27 46 -70 46s-70 -17 -70 -46z" />
    <glyph glyph-name="uni2089" unicode="&#x2089;" horiz-adv-x="451" 
d="M32 -15l132 4c7 -19 20 -34 51 -34c51 0 68 51 72 86l-2 1c-24 -24 -56 -35 -91 -35c-47 0 -87 12 -119 37c-31 25 -47 60 -47 103c0 97 86 152 193 152c137 0 204 -88 204 -200c0 -134 -68 -232 -212 -232c-93 0 -166 35 -181 118zM162 147c0 -33 26 -59 59 -59
s58 26 58 59s-25 58 -58 58s-59 -25 -59 -58z" />
    <glyph glyph-name="uni208D" unicode="&#x208d;" horiz-adv-x="241" 
d="M95 323h123c-37 -93 -52 -172 -52 -263c0 -87 15 -164 52 -260h-123c-43 89 -63 168 -63 260c0 91 20 178 63 263z" />
    <glyph glyph-name="uni208E" unicode="&#x208e;" horiz-adv-x="241" 
d="M146 323c43 -85 63 -172 63 -263c0 -92 -20 -171 -63 -260h-123c39 96 52 173 52 260c0 91 -13 170 -52 263h123z" />
    <glyph glyph-name="bracketleft.subs" horiz-adv-x="269" 
d="M44 -200v523h194v-100h-70v-323h70v-100h-194z" />
    <glyph glyph-name="bracketright.subs" horiz-adv-x="269" 
d="M225 -200h-194v100h70v323h-70v100h194v-523z" />
    <glyph glyph-name="uni208A" unicode="&#x208a;" horiz-adv-x="376" 
d="M33 32v101h103v104h104v-104h103v-101h-103v-104h-104v104h-103z" />
    <glyph glyph-name="uni208B" unicode="&#x208b;" horiz-adv-x="386" 
d="M348 32h-310v101h310v-101z" />
    <glyph glyph-name="uni208C" unicode="&#x208c;" horiz-adv-x="396" 
d="M353 101h-310v101h310v-101zM353 -44h-310v101h310v-101z" />
    <glyph glyph-name="period.subs" horiz-adv-x="200" 
d="M38 -128v125h124v-125h-124z" />
    <glyph glyph-name="comma.subs" horiz-adv-x="200" 
d="M38 -128v126h124v-95c0 -39 -5 -67 -21 -90c-24 -36 -59 -48 -103 -48v50c28 3 55 24 55 56v1h-55z" />
    <glyph glyph-name="a.sups" horiz-adv-x="402" 
d="M377 391h-123c-4 8 -5 21 -6 30h-1c-24 -27 -58 -35 -98 -35c-81 0 -130 29 -130 94c0 36 18 58 43 73c28 15 68 18 108 25l46 8c17 3 29 4 29 21c0 20 -17 28 -40 28c-32 0 -43 -15 -43 -38l-131 1c3 83 69 113 178 113c75 0 112 -12 133 -35c23 -24 27 -54 27 -93v-146
c0 -28 1 -29 8 -41v-5zM245 532c-4 -4 -12 -6 -24 -9l-17 -5c-31 -9 -48 -13 -48 -33c0 -17 12 -25 36 -25c25 0 41 7 48 22c3 7 5 15 5 25v25z" />
    <glyph glyph-name="b.sups" horiz-adv-x="413" 
d="M35 391v420h134v-74c0 -29 0 -44 -1 -69h1c19 27 53 41 90 41c103 0 132 -76 132 -160c0 -90 -45 -163 -131 -163c-53 0 -80 22 -95 42h-1v-37h-129zM213 475c35 0 44 35 44 72c0 39 -9 73 -44 73c-36 0 -48 -34 -48 -73c0 -37 12 -72 48 -72z" />
    <glyph glyph-name="c.sups" horiz-adv-x="386" 
d="M243 517h128c-13 -76 -68 -131 -171 -131c-115 0 -180 66 -180 163c0 96 65 162 180 162c111 0 153 -52 168 -125h-126c-5 21 -18 36 -42 36c-35 0 -46 -36 -46 -73s11 -74 46 -74c27 0 39 19 43 42z" />
    <glyph glyph-name="d.sups" horiz-adv-x="418" 
d="M253 391c0 16 0 25 1 38h-1c-20 -29 -56 -43 -95 -43c-76 0 -136 40 -136 160c0 90 46 163 137 163c48 0 72 -17 89 -40h1v142h134v-420h-130zM200 620c-33 0 -44 -35 -44 -72s11 -73 44 -73c36 0 48 36 48 73s-12 72 -48 72z" />
    <glyph glyph-name="e.sups" horiz-adv-x="405" 
d="M386 521h-240c1 -38 20 -57 57 -57c27 0 42 11 51 27h127c-21 -65 -72 -104 -179 -104c-121 0 -182 64 -182 161c0 90 59 164 183 164c135 0 182 -70 183 -191zM149 586h106c-3 33 -20 50 -51 50c-32 0 -54 -19 -55 -50z" />
    <glyph glyph-name="f.sups" horiz-adv-x="258" 
d="M60 391v226h-41v83h41v7c0 29 4 54 29 79c23 21 47 26 95 26c31 0 39 -1 55 -2v-83c-8 1 -13 1 -22 1c-19 0 -26 -4 -26 -23v-5h48v-83h-45v-226h-134z" />
    <glyph glyph-name="g.sups" horiz-adv-x="415" 
d="M38 383h131c4 -12 15 -21 36 -21c14 0 24 5 31 14s10 20 10 33v8c0 11 0 13 1 22h-2c-17 -24 -49 -36 -84 -36c-100 0 -139 68 -139 154c0 84 47 149 136 149c35 0 70 -13 87 -44h2c0 5 -1 14 -1 25v13h134v-269c0 -36 -7 -81 -42 -112c-25 -23 -72 -35 -141 -35
c-108 0 -148 32 -159 99zM203 492c36 0 48 29 48 62s-12 63 -48 63s-47 -30 -47 -63s11 -62 47 -62z" />
    <glyph glyph-name="h.sups" horiz-adv-x="407" 
d="M35 391v420h134v-96c0 -27 -1 -41 -1 -50h1c21 29 52 43 93 43c35 0 63 -9 84 -30c17 -17 28 -40 28 -77v-210h-134v173c0 27 -7 44 -35 44c-25 0 -36 -17 -36 -44v-173h-134z" />
    <glyph glyph-name="uni2071" unicode="&#x2071;" horiz-adv-x="204" 
d="M169 811v-83h-134v83h134zM35 391v309h134v-309h-134z" />
    <glyph glyph-name="j.sups" horiz-adv-x="236" 
d="M201 811v-82h-134v82h134zM67 700h134v-291c0 -49 -3 -79 -27 -100s-71 -22 -104 -22c-17 0 -42 1 -55 1v104h19c24 0 33 9 33 38v270z" />
    <glyph glyph-name="k.sups" horiz-adv-x="403" 
d="M35 391v420h134v-201l35 42l40 48h154l-116 -123l123 -186h-154l-54 106l-28 -31v-75h-134z" />
    <glyph glyph-name="l.sups" horiz-adv-x="204" 
d="M35 391v420h134v-420h-134z" />
    <glyph glyph-name="m.sups" horiz-adv-x="611" 
d="M374 391h-134v170c0 27 -4 47 -32 47s-39 -17 -39 -45v-172h-134v309h130v-19c0 -7 -1 -15 -1 -22h1c21 33 54 49 99 49c39 0 72 -18 87 -49c17 27 51 49 104 49c46 0 77 -10 94 -30c20 -20 29 -48 29 -75v-212h-134v170c0 27 -4 47 -33 47c-27 0 -37 -17 -37 -45v-172z
" />
    <glyph glyph-name="uni207F" unicode="&#x207f;" horiz-adv-x="407" 
d="M35 391v309h130v-40h1c21 32 54 48 100 48c33 0 60 -10 80 -30c17 -17 28 -40 28 -77v-210h-134v173c0 27 -6 44 -33 44c-25 0 -38 -17 -38 -44v-173h-134z" />
    <glyph glyph-name="o.sups" horiz-adv-x="400" 
d="M200 711c116 0 180 -66 180 -162c0 -97 -64 -163 -180 -163s-180 66 -180 163c0 96 64 162 180 162zM200 475c35 0 46 33 46 74c0 40 -11 73 -46 73s-46 -33 -46 -73c0 -41 11 -74 46 -74z" />
    <glyph glyph-name="p.sups" horiz-adv-x="413" 
d="M35 286v414h129v-8c0 -12 -1 -17 -1 -28h1c19 29 56 45 95 45c103 0 132 -76 132 -160c0 -90 -45 -163 -131 -163c-51 0 -77 19 -90 38h-1v-138h-134zM213 475c35 0 44 35 44 72c0 39 -9 73 -44 73c-36 0 -48 -34 -48 -73c0 -37 12 -72 48 -72z" />
    <glyph glyph-name="q.sups" horiz-adv-x="418" 
d="M249 280l-1 100c0 16 0 23 1 44h-1c-17 -28 -54 -38 -90 -38c-76 0 -136 40 -136 160c0 90 46 163 137 163c51 0 77 -21 94 -44h1v35h129v-420h-134zM200 620c-33 0 -44 -35 -44 -72s11 -73 44 -73c36 0 48 36 48 73s-12 72 -48 72z" />
    <glyph glyph-name="r.sups" horiz-adv-x="291" 
d="M35 391v309h129v-47h1c11 35 46 54 89 54c12 0 18 1 25 -2v-112c-8 2 -18 3 -31 3c-27 0 -48 -8 -62 -25c-11 -13 -17 -35 -17 -64v-116h-134z" />
    <glyph glyph-name="s.sups" horiz-adv-x="372" 
d="M343 612h-118c-1 16 -15 24 -41 24c-17 0 -32 -5 -32 -18c0 -12 19 -15 44 -20l40 -8c25 -5 61 -13 82 -30c19 -13 33 -30 33 -65c0 -86 -77 -109 -167 -109c-86 0 -164 29 -164 110h122c1 -21 22 -30 46 -30c21 0 37 8 37 21c0 10 -13 17 -38 22l-56 11
c-73 15 -104 44 -104 92c0 78 80 99 156 99c81 0 156 -20 160 -99z" />
    <glyph glyph-name="t.sups" horiz-adv-x="276" 
d="M63 794h134v-94h51v-83h-51v-88c0 -13 2 -22 7 -27c5 -4 9 -7 21 -7c8 0 15 0 23 1v-104c-17 -1 -36 -2 -65 -2c-45 0 -75 2 -98 23c-21 21 -22 53 -22 82v122h-45v83h45v94z" />
    <glyph glyph-name="u.sups" horiz-adv-x="407" 
d="M372 700v-309h-130v17c0 4 1 17 1 26h-1c-20 -29 -51 -48 -92 -48c-36 0 -68 9 -89 29c-17 19 -28 41 -28 78v207h134v-171c0 -25 7 -43 34 -43c25 0 37 18 37 43v171h134z" />
    <glyph glyph-name="v.sups" horiz-adv-x="373" 
d="M368 700l-102 -309h-159l-102 309h135l21 -83c7 -27 16 -65 27 -113h1c11 47 20 85 28 114l21 82h130z" />
    <glyph glyph-name="w.sups" horiz-adv-x="556" 
d="M552 700l-98 -309h-136l-16 67c-12 48 -19 75 -24 102h-1c-5 -29 -14 -55 -25 -102l-16 -67h-135l-97 309h132l17 -69c9 -35 18 -68 27 -119h1c8 49 16 84 23 120l14 68h120l14 -63c9 -40 17 -82 25 -126h1c11 45 19 87 28 128l14 61h132z" />
    <glyph glyph-name="x.sups" horiz-adv-x="369" 
d="M1 391l108 163l-100 146h142l34 -61h1l34 61h139l-100 -146l109 -163h-139l-44 76h-1l-44 -76h-139z" />
    <glyph glyph-name="y.sups" horiz-adv-x="380" 
d="M377 700l-100 -278c-15 -41 -30 -84 -58 -108c-33 -27 -69 -28 -120 -28h-70v100h46c15 0 33 2 33 23c0 13 -5 27 -13 48l-92 243h144l21 -94c7 -25 15 -65 24 -104h1c8 39 20 81 25 105l21 93h138z" />
    <glyph glyph-name="z.sups" horiz-adv-x="359" 
d="M27 391v91l135 124h-132v94h293v-91l-132 -124h144v-94h-308z" />
    <glyph glyph-name="uni2070" unicode="&#x2070;" horiz-adv-x="454" 
d="M227 816c131 0 200 -88 200 -215s-69 -215 -200 -215c-65 0 -114 20 -149 60c-34 40 -51 92 -51 155s17 115 51 155c35 40 84 60 149 60zM227 486c45 0 57 46 57 115s-12 115 -57 115s-57 -46 -57 -115s12 -115 57 -115z" />
    <glyph glyph-name="onesuperior" unicode="&#xb9;" horiz-adv-x="299" 
d="M121 391v239h-106v88h10c59 0 113 24 117 93h113v-420h-134z" />
    <glyph glyph-name="twosuperior" unicode="&#xb2;" horiz-adv-x="455" 
d="M163 631h-131v18c0 107 80 167 199 167c113 0 188 -45 188 -133c0 -83 -67 -119 -137 -157l-53 -28v-2c16 0 49 2 74 2h122v-107h-402c-1 43 11 78 34 107c33 41 88 72 139 100l38 21c21 12 44 27 44 54c0 23 -15 43 -52 43c-47 0 -63 -31 -63 -74v-11z" />
    <glyph glyph-name="threesuperior" unicode="&#xb3;" horiz-adv-x="449" 
d="M166 666h-133c0 85 67 150 198 150c109 0 178 -45 178 -112c0 -52 -28 -76 -52 -87c25 -8 66 -36 66 -93c0 -62 -44 -138 -196 -138c-147 0 -210 66 -207 167h135c-1 -39 19 -70 64 -70c35 0 60 19 60 47c0 31 -28 39 -56 39h-42v81h42c27 0 57 6 57 35
c0 23 -21 38 -53 38c-40 0 -62 -21 -61 -57z" />
    <glyph glyph-name="uni2074" unicode="&#x2074;" horiz-adv-x="439" 
d="M217 391v83h-200v113l206 224h130v-234h61v-103h-61v-83h-136zM217 577v116l-107 -116h107z" />
    <glyph glyph-name="uni2075" unicode="&#x2075;" horiz-adv-x="449" 
d="M282 538c0 31 -26 55 -61 55c-25 0 -43 -9 -54 -27h-134l48 245h321v-107h-213l-10 -45c21 13 51 19 84 19c85 0 159 -44 159 -138c0 -89 -71 -154 -204 -154s-194 66 -200 136l143 5c7 -25 31 -43 60 -43c35 0 61 25 61 54z" />
    <glyph glyph-name="uni2076" unicode="&#x2076;" horiz-adv-x="450" 
d="M419 700l-132 -4c-5 19 -20 34 -51 34c-51 0 -66 -50 -72 -86l2 -1c24 24 58 35 91 35c47 0 87 -13 118 -38c32 -25 48 -59 48 -102c0 -96 -85 -152 -193 -152c-136 0 -204 88 -204 200c0 134 69 232 212 232c93 0 166 -35 181 -118zM289 538c0 35 -24 59 -59 59
c-33 0 -58 -24 -58 -59c0 -33 25 -58 58 -58c35 0 59 25 59 58z" />
    <glyph glyph-name="uni2077" unicode="&#x2077;" horiz-adv-x="386" 
d="M373 811v-100c-110 -94 -137 -222 -139 -320h-152c8 129 76 241 145 314h-213v106h359z" />
    <glyph glyph-name="uni2078" unicode="&#x2078;" horiz-adv-x="461" 
d="M45 699c0 39 18 69 53 88c36 19 80 29 133 29c105 0 187 -39 187 -117c0 -45 -23 -72 -59 -87c39 -11 77 -41 77 -98c0 -94 -106 -128 -205 -128c-100 0 -206 34 -206 128c0 59 41 88 78 99c-36 15 -58 41 -58 86zM232 733c-40 0 -63 -17 -63 -45c0 -25 23 -42 63 -42
c39 0 63 17 63 42c0 28 -24 45 -63 45zM162 524c0 -29 27 -49 70 -49s70 20 70 49s-27 46 -70 46s-70 -17 -70 -46z" />
    <glyph glyph-name="uni2079" unicode="&#x2079;" horiz-adv-x="451" 
d="M32 504l132 4c7 -19 20 -34 51 -34c51 0 68 51 72 86l-2 1c-24 -24 -56 -35 -91 -35c-47 0 -87 12 -119 37c-31 25 -47 60 -47 103c0 97 86 152 193 152c137 0 204 -88 204 -200c0 -134 -68 -232 -212 -232c-93 0 -166 35 -181 118zM162 666c0 -33 26 -59 59 -59
s58 26 58 59s-25 58 -58 58s-59 -25 -59 -58z" />
    <glyph glyph-name="uni207D" unicode="&#x207d;" horiz-adv-x="241" 
d="M95 842h123c-37 -93 -52 -172 -52 -263c0 -87 15 -164 52 -260h-123c-43 89 -63 168 -63 260c0 91 20 178 63 263z" />
    <glyph glyph-name="uni207E" unicode="&#x207e;" horiz-adv-x="241" 
d="M146 842c43 -85 63 -172 63 -263c0 -92 -20 -171 -63 -260h-123c39 96 52 173 52 260c0 91 -13 170 -52 263h123z" />
    <glyph glyph-name="bracketleft.sups" horiz-adv-x="269" 
d="M45 319v523h194v-100h-70v-323h70v-100h-194z" />
    <glyph glyph-name="bracketright.sups" horiz-adv-x="269" 
d="M224 319h-194v100h70v323h-70v100h194v-523z" />
    <glyph glyph-name="uni207A" unicode="&#x207a;" horiz-adv-x="376" 
d="M33 551v101h103v104h104v-104h103v-101h-103v-104h-104v104h-103z" />
    <glyph glyph-name="uni207B" unicode="&#x207b;" horiz-adv-x="386" 
d="M348 551h-310v101h310v-101z" />
    <glyph glyph-name="uni207C" unicode="&#x207c;" horiz-adv-x="396" 
d="M353 620h-310v101h310v-101zM353 475h-310v101h310v-101z" />
    <glyph glyph-name="period.sups" horiz-adv-x="200" 
d="M38 391v125h124v-125h-124z" />
    <glyph glyph-name="comma.sups" horiz-adv-x="200" 
d="M38 392v126h124v-95c0 -39 -5 -67 -21 -90c-24 -36 -59 -48 -103 -48v50c28 3 55 24 55 56v1h-55z" />
    <glyph glyph-name="a.dnom" horiz-adv-x="402" 
d="M377 0h-123c-4 8 -5 21 -6 30h-1c-24 -27 -58 -35 -98 -35c-81 0 -130 29 -130 94c0 36 18 58 43 73c28 15 68 18 108 25l46 8c17 3 29 4 29 21c0 20 -17 28 -40 28c-32 0 -43 -15 -43 -38l-131 1c3 83 69 113 178 113c75 0 112 -12 133 -35c23 -24 27 -54 27 -93v-146
c0 -28 1 -29 8 -41v-5zM245 141c-4 -4 -12 -6 -24 -9l-17 -5c-31 -9 -48 -13 -48 -33c0 -17 12 -25 36 -25c25 0 41 7 48 22c3 7 5 15 5 25v25z" />
    <glyph glyph-name="b.dnom" horiz-adv-x="413" 
d="M39 0v420h134v-74c0 -29 0 -44 -1 -69h1c19 27 53 41 90 41c103 0 132 -76 132 -160c0 -90 -45 -163 -131 -163c-53 0 -80 22 -95 42h-1v-37h-129zM217 84c35 0 44 35 44 72c0 39 -9 73 -44 73c-36 0 -48 -34 -48 -73c0 -37 12 -72 48 -72z" />
    <glyph glyph-name="c.dnom" horiz-adv-x="386" 
d="M243 126h128c-13 -76 -68 -131 -171 -131c-115 0 -180 66 -180 163c0 96 65 162 180 162c111 0 153 -52 168 -125h-126c-5 21 -18 36 -42 36c-35 0 -46 -36 -46 -73s11 -74 46 -74c27 0 39 19 43 42z" />
    <glyph glyph-name="d.dnom" horiz-adv-x="418" 
d="M248 0c0 16 0 25 1 38h-1c-20 -29 -56 -43 -95 -43c-76 0 -136 40 -136 160c0 90 46 163 137 163c48 0 72 -17 89 -40h1v142h134v-420h-130zM195 229c-33 0 -44 -35 -44 -72s11 -73 44 -73c36 0 48 36 48 73s-12 72 -48 72z" />
    <glyph glyph-name="e.dnom" horiz-adv-x="405" 
d="M386 129h-240c1 -38 20 -57 57 -57c27 0 42 11 51 27h127c-21 -65 -72 -104 -179 -104c-121 0 -182 64 -182 161c0 90 59 164 183 164c135 0 182 -70 183 -191zM149 194h106c-3 33 -20 50 -51 50c-32 0 -54 -19 -55 -50z" />
    <glyph glyph-name="f.dnom" horiz-adv-x="258" 
d="M57 0v226h-41v83h41v7c0 29 4 54 29 79c23 21 47 26 95 26c31 0 39 -1 55 -2v-83c-8 1 -13 1 -22 1c-19 0 -26 -4 -26 -23v-5h48v-83h-45v-226h-134z" />
    <glyph glyph-name="g.dnom" horiz-adv-x="415" 
d="M38 -8h131c4 -12 15 -21 36 -21c14 0 24 5 31 14s10 20 10 33v8c0 11 0 13 1 22h-2c-17 -24 -49 -36 -84 -36c-100 0 -139 68 -139 154c0 84 47 149 136 149c35 0 70 -13 87 -44h2c0 5 -1 14 -1 25v13h134v-269c0 -36 -7 -81 -42 -112c-25 -23 -72 -35 -141 -35
c-108 0 -148 32 -159 99zM203 101c36 0 48 29 48 62s-12 63 -48 63s-47 -30 -47 -63s11 -62 47 -62z" />
    <glyph glyph-name="h.dnom" horiz-adv-x="407" 
d="M36 0v420h134v-96c0 -27 -1 -41 -1 -50h1c21 29 52 43 93 43c35 0 63 -9 84 -30c17 -17 28 -40 28 -77v-210h-134v173c0 27 -7 44 -35 44c-25 0 -36 -17 -36 -44v-173h-134z" />
    <glyph glyph-name="i.dnom" horiz-adv-x="204" 
d="M169 420v-83h-134v83h134zM35 0v309h134v-309h-134z" />
    <glyph glyph-name="j.dnom" horiz-adv-x="236" 
d="M200 420v-82h-134v82h134zM66 309h134v-291c0 -49 -3 -79 -27 -100s-71 -22 -104 -22c-17 0 -42 1 -55 1v104h19c24 0 33 9 33 38v270z" />
    <glyph glyph-name="k.dnom" horiz-adv-x="403" 
d="M34 0v420h134v-201l35 42l40 48h154l-116 -123l123 -186h-154l-54 106l-28 -31v-75h-134z" />
    <glyph glyph-name="l.dnom" horiz-adv-x="204" 
d="M35 0v420h134v-420h-134z" />
    <glyph glyph-name="m.dnom" horiz-adv-x="611" 
d="M374 0h-134v170c0 27 -4 47 -32 47s-39 -17 -39 -45v-172h-134v309h130v-19c0 -7 -1 -15 -1 -22h1c21 33 54 49 99 49c39 0 72 -18 87 -49c17 27 51 49 104 49c46 0 77 -10 94 -30c20 -20 29 -48 29 -75v-212h-134v170c0 27 -4 47 -33 47c-27 0 -37 -17 -37 -45v-172z
" />
    <glyph glyph-name="n.dnom" horiz-adv-x="407" 
d="M35 0v309h130v-40h1c21 32 54 48 100 48c33 0 60 -10 80 -30c17 -17 28 -40 28 -77v-210h-134v173c0 27 -6 44 -33 44c-25 0 -38 -17 -38 -44v-173h-134z" />
    <glyph glyph-name="o.dnom" horiz-adv-x="400" 
d="M200 320c116 0 180 -66 180 -162c0 -97 -64 -163 -180 -163s-180 66 -180 163c0 96 64 162 180 162zM200 84c35 0 46 33 46 74c0 40 -11 73 -46 73s-46 -33 -46 -73c0 -41 11 -74 46 -74z" />
    <glyph glyph-name="p.dnom" horiz-adv-x="413" 
d="M35 -105v414h129v-8c0 -12 -1 -17 -1 -28h1c19 29 56 45 95 45c103 0 132 -76 132 -160c0 -90 -45 -163 -131 -163c-51 0 -77 19 -90 38h-1v-138h-134zM213 84c35 0 44 35 44 72c0 39 -9 73 -44 73c-36 0 -48 -34 -48 -73c0 -37 12 -72 48 -72z" />
    <glyph glyph-name="q.dnom" horiz-adv-x="418" 
d="M249 -111l-1 100c0 16 0 23 1 44h-1c-17 -28 -54 -38 -90 -38c-76 0 -136 40 -136 160c0 90 46 163 137 163c51 0 77 -21 94 -44h1v35h129v-420h-134zM200 229c-33 0 -44 -35 -44 -72s11 -73 44 -73c36 0 48 36 48 73s-12 72 -48 72z" />
    <glyph glyph-name="r.dnom" horiz-adv-x="291" 
d="M34 0v309h129v-47h1c11 35 46 54 89 54c12 0 18 1 25 -2v-112c-8 2 -18 3 -31 3c-27 0 -48 -8 -62 -25c-11 -13 -17 -35 -17 -64v-116h-134z" />
    <glyph glyph-name="s.dnom" horiz-adv-x="372" 
d="M343 221h-118c-1 16 -15 24 -41 24c-17 0 -32 -5 -32 -18c0 -12 19 -15 44 -20l40 -8c25 -5 61 -13 82 -30c19 -13 33 -30 33 -65c0 -86 -77 -109 -167 -109c-86 0 -164 29 -164 110h122c1 -21 22 -30 46 -30c21 0 37 8 37 21c0 10 -13 17 -38 22l-56 11
c-73 15 -104 44 -104 92c0 78 80 99 156 99c81 0 156 -20 160 -99z" />
    <glyph glyph-name="t.dnom" horiz-adv-x="276" 
d="M66 403h134v-94h51v-83h-51v-88c0 -13 2 -22 7 -27c5 -4 9 -7 21 -7c8 0 15 0 23 1v-104c-17 -1 -36 -2 -65 -2c-45 0 -75 2 -98 23c-21 21 -22 53 -22 82v122h-45v83h45v94z" />
    <glyph glyph-name="u.dnom" horiz-adv-x="407" 
d="M372 309v-309h-130v17c0 4 1 17 1 26h-1c-20 -29 -51 -48 -92 -48c-36 0 -68 9 -89 29c-17 19 -28 41 -28 78v207h134v-171c0 -25 7 -43 34 -43c25 0 37 18 37 43v171h134z" />
    <glyph glyph-name="v.dnom" horiz-adv-x="373" 
d="M368 309l-102 -309h-159l-102 309h135l21 -83c7 -27 16 -65 27 -113h1c11 47 20 85 28 114l21 82h130z" />
    <glyph glyph-name="w.dnom" horiz-adv-x="556" 
d="M552 309l-98 -309h-136l-16 67c-12 48 -19 75 -24 102h-1c-5 -29 -14 -55 -25 -102l-16 -67h-135l-97 309h132l17 -69c9 -35 18 -68 27 -119h1c8 49 16 84 23 120l14 68h120l14 -63c9 -40 17 -82 25 -126h1c11 45 19 87 28 128l14 61h132z" />
    <glyph glyph-name="x.dnom" horiz-adv-x="369" 
d="M1 0l108 163l-100 146h142l34 -61h1l34 61h139l-100 -146l109 -163h-139l-44 76h-1l-44 -76h-139z" />
    <glyph glyph-name="y.dnom" horiz-adv-x="380" 
d="M377 309l-100 -278c-15 -41 -30 -84 -58 -108c-33 -27 -69 -28 -120 -28h-70v100h46c15 0 33 2 33 23c0 13 -5 27 -13 48l-92 243h144l21 -94c7 -25 15 -65 24 -104h1c8 39 20 81 25 105l21 93h138z" />
    <glyph glyph-name="z.dnom" horiz-adv-x="359" 
d="M27 0v91l135 124h-132v94h293v-91l-132 -124h144v-94h-308z" />
    <glyph glyph-name="zero.dnom" horiz-adv-x="454" 
d="M227 425c131 0 200 -88 200 -215s-69 -215 -200 -215c-65 0 -114 20 -149 60c-34 40 -51 92 -51 155s17 115 51 155c35 40 84 60 149 60zM227 95c45 0 57 46 57 115s-12 115 -57 115s-57 -46 -57 -115s12 -115 57 -115z" />
    <glyph glyph-name="one.dnom" horiz-adv-x="299" 
d="M121 0v239h-106v88h10c59 0 113 24 117 93h113v-420h-134z" />
    <glyph glyph-name="two.dnom" horiz-adv-x="455" 
d="M163 240h-131v18c0 107 80 167 199 167c113 0 188 -45 188 -133c0 -83 -67 -119 -137 -157l-53 -28v-2c16 0 49 2 74 2h122v-107h-402c-1 43 11 78 34 107c33 41 88 72 139 100l38 21c21 12 44 27 44 54c0 23 -15 43 -52 43c-47 0 -63 -31 -63 -74v-11z" />
    <glyph glyph-name="three.dnom" horiz-adv-x="449" 
d="M166 275h-133c0 85 67 150 198 150c109 0 178 -45 178 -112c0 -52 -28 -76 -52 -87c25 -8 66 -36 66 -93c0 -62 -44 -138 -196 -138c-147 0 -210 66 -207 167h135c-1 -39 19 -70 64 -70c35 0 60 19 60 47c0 31 -28 39 -56 39h-42v81h42c27 0 57 6 57 35
c0 23 -21 38 -53 38c-40 0 -62 -21 -61 -57z" />
    <glyph glyph-name="four.dnom" horiz-adv-x="439" 
d="M217 0v83h-200v113l206 224h130v-234h61v-103h-61v-83h-136zM217 186v116l-107 -116h107z" />
    <glyph glyph-name="five.dnom" horiz-adv-x="449" 
d="M283 147c0 31 -26 55 -61 55c-25 0 -43 -9 -54 -27h-134l48 245h321v-107h-213l-10 -45c21 13 51 19 84 19c85 0 159 -44 159 -138c0 -89 -71 -154 -204 -154s-194 66 -200 136l143 5c7 -25 31 -43 60 -43c35 0 61 25 61 54z" />
    <glyph glyph-name="six.dnom" horiz-adv-x="450" 
d="M419 309l-132 -4c-5 19 -20 34 -51 34c-51 0 -66 -50 -72 -86l2 -1c24 24 58 35 91 35c47 0 87 -13 118 -38c32 -25 48 -59 48 -102c0 -96 -85 -152 -193 -152c-136 0 -204 88 -204 200c0 134 69 232 212 232c93 0 166 -35 181 -118zM289 147c0 35 -24 59 -59 59
c-33 0 -58 -24 -58 -59c0 -33 25 -58 58 -58c35 0 59 25 59 58z" />
    <glyph glyph-name="seven.dnom" horiz-adv-x="386" 
d="M373 420v-100c-110 -94 -137 -222 -139 -320h-152c8 129 76 241 145 314h-213v106h359z" />
    <glyph glyph-name="eight.dnom" horiz-adv-x="461" 
d="M45 308c0 39 18 69 53 88c36 19 80 29 133 29c105 0 187 -39 187 -117c0 -45 -23 -72 -59 -87c39 -11 77 -41 77 -98c0 -94 -106 -128 -205 -128c-100 0 -206 34 -206 128c0 59 41 88 78 99c-36 15 -58 41 -58 86zM232 342c-40 0 -63 -17 -63 -45c0 -25 23 -42 63 -42
c39 0 63 17 63 42c0 28 -24 45 -63 45zM162 133c0 -29 27 -49 70 -49s70 20 70 49s-27 46 -70 46s-70 -17 -70 -46z" />
    <glyph glyph-name="nine.dnom" horiz-adv-x="451" 
d="M32 113l132 4c7 -19 20 -34 51 -34c51 0 68 51 72 86l-2 1c-24 -24 -56 -35 -91 -35c-47 0 -87 12 -119 37c-31 25 -47 60 -47 103c0 97 86 152 193 152c137 0 204 -88 204 -200c0 -134 -68 -232 -212 -232c-93 0 -166 35 -181 118zM162 275c0 -33 26 -59 59 -59
s58 26 58 59s-25 58 -58 58s-59 -25 -59 -58z" />
    <glyph glyph-name="parenleft.dnom" horiz-adv-x="241" 
d="M95 451h123c-37 -93 -52 -172 -52 -263c0 -87 15 -164 52 -260h-123c-43 89 -63 168 -63 260c0 91 20 178 63 263z" />
    <glyph glyph-name="parenright.dnom" horiz-adv-x="241" 
d="M146 451c43 -85 63 -172 63 -263c0 -92 -20 -171 -63 -260h-123c39 96 52 173 52 260c0 91 -13 170 -52 263h123z" />
    <glyph glyph-name="bracketleft.dnom" horiz-adv-x="269" 
d="M44 -72v523h194v-100h-70v-323h70v-100h-194z" />
    <glyph glyph-name="bracketright.dnom" horiz-adv-x="269" 
d="M225 -72h-194v100h70v323h-70v100h194v-523z" />
    <glyph glyph-name="plus.dnom" horiz-adv-x="376" 
d="M33 161v101h103v104h104v-104h103v-101h-103v-104h-104v104h-103z" />
    <glyph glyph-name="minus.dnom" horiz-adv-x="386" 
d="M348 162h-310v101h310v-101z" />
    <glyph glyph-name="equal.dnom" horiz-adv-x="396" 
d="M353 232h-310v101h310v-101zM353 87h-310v101h310v-101z" />
    <glyph glyph-name="period.dnom" horiz-adv-x="200" 
d="M38 0v125h124v-125h-124z" />
    <glyph glyph-name="comma.dnom" horiz-adv-x="200" 
d="M38 0v126h124v-95c0 -39 -5 -67 -21 -90c-24 -36 -59 -48 -103 -48v50c28 3 55 24 55 56v1h-55z" />
    <glyph glyph-name="a.numr" horiz-adv-x="402" 
d="M377 280h-123c-4 8 -5 21 -6 30h-1c-24 -27 -58 -35 -98 -35c-81 0 -130 29 -130 94c0 36 18 58 43 73c28 15 68 18 108 25l46 8c17 3 29 4 29 21c0 20 -17 28 -40 28c-32 0 -43 -15 -43 -38l-131 1c3 83 69 113 178 113c75 0 112 -12 133 -35c23 -24 27 -54 27 -93v-146
c0 -28 1 -29 8 -41v-5zM245 421c-4 -4 -12 -6 -24 -9l-17 -5c-31 -9 -48 -13 -48 -33c0 -17 12 -25 36 -25c25 0 41 7 48 22c3 7 5 15 5 25v25z" />
    <glyph glyph-name="b.numr" horiz-adv-x="413" 
d="M39 280v420h134v-74c0 -29 0 -44 -1 -69h1c19 27 53 41 90 41c103 0 132 -76 132 -160c0 -90 -45 -163 -131 -163c-53 0 -80 22 -95 42h-1v-37h-129zM217 364c35 0 44 35 44 72c0 39 -9 73 -44 73c-36 0 -48 -34 -48 -73c0 -37 12 -72 48 -72z" />
    <glyph glyph-name="c.numr" horiz-adv-x="386" 
d="M243 406h128c-13 -76 -68 -131 -171 -131c-115 0 -180 66 -180 163c0 96 65 162 180 162c111 0 153 -52 168 -125h-126c-5 21 -18 36 -42 36c-35 0 -46 -36 -46 -73s11 -74 46 -74c27 0 39 19 43 42z" />
    <glyph glyph-name="d.numr" horiz-adv-x="418" 
d="M248 280c0 16 0 25 1 38h-1c-20 -29 -56 -43 -95 -43c-76 0 -136 40 -136 160c0 90 46 163 137 163c48 0 72 -17 89 -40h1v142h134v-420h-130zM195 509c-33 0 -44 -35 -44 -72s11 -73 44 -73c36 0 48 36 48 73s-12 72 -48 72z" />
    <glyph glyph-name="e.numr" horiz-adv-x="405" 
d="M386 409h-240c1 -38 20 -57 57 -57c27 0 42 11 51 27h127c-21 -65 -72 -104 -179 -104c-121 0 -182 64 -182 161c0 90 59 164 183 164c135 0 182 -70 183 -191zM149 474h106c-3 33 -20 50 -51 50c-32 0 -54 -19 -55 -50z" />
    <glyph glyph-name="f.numr" horiz-adv-x="258" 
d="M57 280v226h-41v83h41v7c0 29 4 54 29 79c23 21 47 26 95 26c31 0 39 -1 55 -2v-83c-8 1 -13 1 -22 1c-19 0 -26 -4 -26 -23v-5h48v-83h-45v-226h-134z" />
    <glyph glyph-name="g.numr" horiz-adv-x="415" 
d="M38 272h131c4 -12 15 -21 36 -21c14 0 24 5 31 14s10 20 10 33v8c0 11 0 13 1 22h-2c-17 -24 -49 -36 -84 -36c-100 0 -139 68 -139 154c0 84 47 149 136 149c35 0 70 -13 87 -44h2c0 5 -1 14 -1 25v13h134v-269c0 -36 -7 -81 -42 -112c-25 -23 -72 -35 -141 -35
c-108 0 -148 32 -159 99zM203 381c36 0 48 29 48 62s-12 63 -48 63s-47 -30 -47 -63s11 -62 47 -62z" />
    <glyph glyph-name="h.numr" horiz-adv-x="407" 
d="M36 280v420h134v-96c0 -27 -1 -41 -1 -50h1c21 29 52 43 93 43c35 0 63 -9 84 -30c17 -17 28 -40 28 -77v-210h-134v173c0 27 -7 44 -35 44c-25 0 -36 -17 -36 -44v-173h-134z" />
    <glyph glyph-name="i.numr" horiz-adv-x="204" 
d="M169 700v-83h-134v83h134zM35 280v309h134v-309h-134z" />
    <glyph glyph-name="j.numr" horiz-adv-x="236" 
d="M200 700v-82h-134v82h134zM66 589h134v-291c0 -49 -3 -79 -27 -100s-71 -22 -104 -22c-17 0 -42 1 -55 1v104h19c24 0 33 9 33 38v270z" />
    <glyph glyph-name="k.numr" horiz-adv-x="403" 
d="M34 280v420h134v-201l35 42l40 48h154l-116 -123l123 -186h-154l-54 106l-28 -31v-75h-134z" />
    <glyph glyph-name="l.numr" horiz-adv-x="204" 
d="M35 280v420h134v-420h-134z" />
    <glyph glyph-name="m.numr" horiz-adv-x="611" 
d="M374 280h-134v170c0 27 -4 47 -32 47s-39 -17 -39 -45v-172h-134v309h130v-19c0 -7 -1 -15 -1 -22h1c21 33 54 49 99 49c39 0 72 -18 87 -49c17 27 51 49 104 49c46 0 77 -10 94 -30c20 -20 29 -48 29 -75v-212h-134v170c0 27 -4 47 -33 47c-27 0 -37 -17 -37 -45v-172z
" />
    <glyph glyph-name="n.numr" horiz-adv-x="407" 
d="M35 280v309h130v-40h1c21 32 54 48 100 48c33 0 60 -10 80 -30c17 -17 28 -40 28 -77v-210h-134v173c0 27 -6 44 -33 44c-25 0 -38 -17 -38 -44v-173h-134z" />
    <glyph glyph-name="o.numr" horiz-adv-x="400" 
d="M200 600c116 0 180 -66 180 -162c0 -97 -64 -163 -180 -163s-180 66 -180 163c0 96 64 162 180 162zM200 364c35 0 46 33 46 74c0 40 -11 73 -46 73s-46 -33 -46 -73c0 -41 11 -74 46 -74z" />
    <glyph glyph-name="p.numr" horiz-adv-x="413" 
d="M35 175v414h129v-8c0 -12 -1 -17 -1 -28h1c19 29 56 45 95 45c103 0 132 -76 132 -160c0 -90 -45 -163 -131 -163c-51 0 -77 19 -90 38h-1v-138h-134zM213 364c35 0 44 35 44 72c0 39 -9 73 -44 73c-36 0 -48 -34 -48 -73c0 -37 12 -72 48 -72z" />
    <glyph glyph-name="q.numr" horiz-adv-x="418" 
d="M249 169l-1 100c0 16 0 23 1 44h-1c-17 -28 -54 -38 -90 -38c-76 0 -136 40 -136 160c0 90 46 163 137 163c51 0 77 -21 94 -44h1v35h129v-420h-134zM200 509c-33 0 -44 -35 -44 -72s11 -73 44 -73c36 0 48 36 48 73s-12 72 -48 72z" />
    <glyph glyph-name="r.numr" horiz-adv-x="291" 
d="M34 280v309h129v-47h1c11 35 46 54 89 54c12 0 18 1 25 -2v-112c-8 2 -18 3 -31 3c-27 0 -48 -8 -62 -25c-11 -13 -17 -35 -17 -64v-116h-134z" />
    <glyph glyph-name="s.numr" horiz-adv-x="372" 
d="M343 501h-118c-1 16 -15 24 -41 24c-17 0 -32 -5 -32 -18c0 -12 19 -15 44 -20l40 -8c25 -5 61 -13 82 -30c19 -13 33 -30 33 -65c0 -86 -77 -109 -167 -109c-86 0 -164 29 -164 110h122c1 -21 22 -30 46 -30c21 0 37 8 37 21c0 10 -13 17 -38 22l-56 11
c-73 15 -104 44 -104 92c0 78 80 99 156 99c81 0 156 -20 160 -99z" />
    <glyph glyph-name="t.numr" horiz-adv-x="276" 
d="M66 683h134v-94h51v-83h-51v-88c0 -13 2 -22 7 -27c5 -4 9 -7 21 -7c8 0 15 0 23 1v-104c-17 -1 -36 -2 -65 -2c-45 0 -75 2 -98 23c-21 21 -22 53 -22 82v122h-45v83h45v94z" />
    <glyph glyph-name="u.numr" horiz-adv-x="407" 
d="M372 589v-309h-130v17c0 4 1 17 1 26h-1c-20 -29 -51 -48 -92 -48c-36 0 -68 9 -89 29c-17 19 -28 41 -28 78v207h134v-171c0 -25 7 -43 34 -43c25 0 37 18 37 43v171h134z" />
    <glyph glyph-name="v.numr" horiz-adv-x="373" 
d="M368 589l-102 -309h-159l-102 309h135l21 -83c7 -27 16 -65 27 -113h1c11 47 20 85 28 114l21 82h130z" />
    <glyph glyph-name="w.numr" horiz-adv-x="556" 
d="M552 589l-98 -309h-136l-16 67c-12 48 -19 75 -24 102h-1c-5 -29 -14 -55 -25 -102l-16 -67h-135l-97 309h132l17 -69c9 -35 18 -68 27 -119h1c8 49 16 84 23 120l14 68h120l14 -63c9 -40 17 -82 25 -126h1c11 45 19 87 28 128l14 61h132z" />
    <glyph glyph-name="x.numr" horiz-adv-x="369" 
d="M1 280l108 163l-100 146h142l34 -61h1l34 61h139l-100 -146l109 -163h-139l-44 76h-1l-44 -76h-139z" />
    <glyph glyph-name="y.numr" horiz-adv-x="380" 
d="M377 589l-100 -278c-15 -41 -30 -84 -58 -108c-33 -27 -69 -28 -120 -28h-70v100h46c15 0 33 2 33 23c0 13 -5 27 -13 48l-92 243h144l21 -94c7 -25 15 -65 24 -104h1c8 39 20 81 25 105l21 93h138z" />
    <glyph glyph-name="z.numr" horiz-adv-x="359" 
d="M27 280v91l135 124h-132v94h293v-91l-132 -124h144v-94h-308z" />
    <glyph glyph-name="zero.numr" horiz-adv-x="454" 
d="M227 705c131 0 200 -88 200 -215s-69 -215 -200 -215c-65 0 -114 20 -149 60c-34 40 -51 92 -51 155s17 115 51 155c35 40 84 60 149 60zM227 375c45 0 57 46 57 115s-12 115 -57 115s-57 -46 -57 -115s12 -115 57 -115z" />
    <glyph glyph-name="one.numr" horiz-adv-x="299" 
d="M121 280v239h-106v88h10c59 0 113 24 117 93h113v-420h-134z" />
    <glyph glyph-name="two.numr" horiz-adv-x="455" 
d="M163 520h-131v18c0 107 80 167 199 167c113 0 188 -45 188 -133c0 -83 -67 -119 -137 -157l-53 -28v-2c16 0 49 2 74 2h122v-107h-402c-1 43 11 78 34 107c33 41 88 72 139 100l38 21c21 12 44 27 44 54c0 23 -15 43 -52 43c-47 0 -63 -31 -63 -74v-11z" />
    <glyph glyph-name="three.numr" horiz-adv-x="449" 
d="M166 555h-133c0 85 67 150 198 150c109 0 178 -45 178 -112c0 -52 -28 -76 -52 -87c25 -8 66 -36 66 -93c0 -62 -44 -138 -196 -138c-147 0 -210 66 -207 167h135c-1 -39 19 -70 64 -70c35 0 60 19 60 47c0 31 -28 39 -56 39h-42v81h42c27 0 57 6 57 35
c0 23 -21 38 -53 38c-40 0 -62 -21 -61 -57z" />
    <glyph glyph-name="four.numr" horiz-adv-x="439" 
d="M217 280v83h-200v113l206 224h130v-234h61v-103h-61v-83h-136zM217 466v116l-107 -116h107z" />
    <glyph glyph-name="five.numr" horiz-adv-x="449" 
d="M283 427c0 31 -26 55 -61 55c-25 0 -43 -9 -54 -27h-134l48 245h321v-107h-213l-10 -45c21 13 51 19 84 19c85 0 159 -44 159 -138c0 -89 -71 -154 -204 -154s-194 66 -200 136l143 5c7 -25 31 -43 60 -43c35 0 61 25 61 54z" />
    <glyph glyph-name="six.numr" horiz-adv-x="450" 
d="M419 589l-132 -4c-5 19 -20 34 -51 34c-51 0 -66 -50 -72 -86l2 -1c24 24 58 35 91 35c47 0 87 -13 118 -38c32 -25 48 -59 48 -102c0 -96 -85 -152 -193 -152c-136 0 -204 88 -204 200c0 134 69 232 212 232c93 0 166 -35 181 -118zM289 427c0 35 -24 59 -59 59
c-33 0 -58 -24 -58 -59c0 -33 25 -58 58 -58c35 0 59 25 59 58z" />
    <glyph glyph-name="seven.numr" horiz-adv-x="386" 
d="M373 700v-100c-110 -94 -137 -222 -139 -320h-152c8 129 76 241 145 314h-213v106h359z" />
    <glyph glyph-name="eight.numr" horiz-adv-x="461" 
d="M45 588c0 39 18 69 53 88c36 19 80 29 133 29c105 0 187 -39 187 -117c0 -45 -23 -72 -59 -87c39 -11 77 -41 77 -98c0 -94 -106 -128 -205 -128c-100 0 -206 34 -206 128c0 59 41 88 78 99c-36 15 -58 41 -58 86zM232 622c-40 0 -63 -17 -63 -45c0 -25 23 -42 63 -42
c39 0 63 17 63 42c0 28 -24 45 -63 45zM162 413c0 -29 27 -49 70 -49s70 20 70 49s-27 46 -70 46s-70 -17 -70 -46z" />
    <glyph glyph-name="nine.numr" horiz-adv-x="451" 
d="M32 393l132 4c7 -19 20 -34 51 -34c51 0 68 51 72 86l-2 1c-24 -24 -56 -35 -91 -35c-47 0 -87 12 -119 37c-31 25 -47 60 -47 103c0 97 86 152 193 152c137 0 204 -88 204 -200c0 -134 -68 -232 -212 -232c-93 0 -166 35 -181 118zM162 555c0 -33 26 -59 59 -59
s58 26 58 59s-25 58 -58 58s-59 -25 -59 -58z" />
    <glyph glyph-name="parenleft.numr" horiz-adv-x="241" 
d="M95 731h123c-37 -93 -52 -172 -52 -263c0 -87 15 -164 52 -260h-123c-43 89 -63 168 -63 260c0 91 20 178 63 263z" />
    <glyph glyph-name="parenright.numr" horiz-adv-x="241" 
d="M146 731c43 -85 63 -172 63 -263c0 -92 -20 -171 -63 -260h-123c39 96 52 173 52 260c0 91 -13 170 -52 263h123z" />
    <glyph glyph-name="bracketleft.numr" horiz-adv-x="269" 
d="M44 208v523h194v-100h-70v-323h70v-100h-194z" />
    <glyph glyph-name="bracketright.numr" horiz-adv-x="269" 
d="M225 208h-194v100h70v323h-70v100h194v-523z" />
    <glyph glyph-name="plus.numr" horiz-adv-x="376" 
d="M33 441v101h103v104h104v-104h103v-101h-103v-104h-104v104h-103z" />
    <glyph glyph-name="minus.numr" horiz-adv-x="386" 
d="M348 442h-310v101h310v-101z" />
    <glyph glyph-name="equal.numr" horiz-adv-x="396" 
d="M353 512h-310v101h310v-101zM353 367h-310v101h310v-101z" />
    <glyph glyph-name="period.numr" horiz-adv-x="200" 
d="M38 280v125h124v-125h-124z" />
    <glyph glyph-name="comma.numr" horiz-adv-x="200" 
d="M38 280v126h124v-95c0 -39 -5 -67 -21 -90c-24 -36 -59 -48 -103 -48v50c28 3 55 24 55 56v1h-55z" />
    <glyph glyph-name="bar" unicode="|" horiz-adv-x="257" 
d="M52 -172v872h153v-872h-153z" />
    <glyph glyph-name="bar.case" horiz-adv-x="263" 
d="M55 -86v872h153v-872h-153z" />
    <glyph glyph-name="brokenbar" unicode="&#xa6;" horiz-adv-x="257" 
d="M52 351v349h153v-349h-153zM52 -172v349h153v-349h-153z" />
    <glyph glyph-name="brokenbar.case" horiz-adv-x="263" 
d="M55 437v349h153v-349h-153zM55 -86v349h153v-349h-153z" />
    <glyph glyph-name="backslash" unicode="\" horiz-adv-x="448" 
d="M280 0l-263 700h152l263 -700h-152z" />
    <glyph glyph-name="uni00AD" unicode="&#xad;" horiz-adv-x="394" 
d="M48 206v164h298v-164h-298z" />
    <glyph glyph-name="uni00AD.case" horiz-adv-x="400" 
d="M51 286v164h298v-164h-298z" />
    <glyph glyph-name="hyphen" unicode="-" horiz-adv-x="394" 
d="M48 206v164h298v-164h-298z" />
    <glyph glyph-name="hyphen.case" horiz-adv-x="400" 
d="M51 286v164h298v-164h-298z" />
    <glyph glyph-name="endash" unicode="&#x2013;" horiz-adv-x="594" 
d="M47 208v158h500v-158h-500z" />
    <glyph glyph-name="endash.case" horiz-adv-x="600" 
d="M50 288v158h500v-158h-500z" />
    <glyph glyph-name="emdash" unicode="&#x2014;" horiz-adv-x="1096" 
d="M47 206v158h1002v-158h-1002z" />
    <glyph glyph-name="emdash.case" horiz-adv-x="1102" 
d="M50 286v158h1002v-158h-1002z" />
    <glyph glyph-name="underscore" unicode="_" horiz-adv-x="474" 
d="M-5 -154v134h484v-134h-484z" />
    <glyph glyph-name="bullet" unicode="&#x2022;" horiz-adv-x="517" 
d="M62 342c0 109 88 196 196 196c109 0 197 -87 197 -196c0 -108 -88 -197 -197 -197c-108 0 -196 89 -196 197z" />
    <glyph glyph-name="H18533" unicode="&#x25cf;" horiz-adv-x="324" 
d="M27 298c0 73 62 135 135 135s135 -62 135 -135s-62 -135 -135 -135s-135 62 -135 135z" />
    <glyph glyph-name="middot" unicode="&#xb7;" horiz-adv-x="303" 
d="M48 185v209h207v-209h-207z" />
    <glyph glyph-name="periodcentered.case" horiz-adv-x="307" 
d="M50 265v209h207v-209h-207z" />
    <glyph glyph-name="quotesinglbase" unicode="&#x201a;" horiz-adv-x="279" 
d="M44 0v196h191v-153c0 -63 -9 -107 -34 -146c-39 -57 -97 -77 -157 -77v81c47 3 87 40 87 91v8h-87z" />
    <glyph glyph-name="quotedblbase" unicode="&#x201e;" horiz-adv-x="527" 
d="M44 0v196h191v-153c0 -63 -9 -107 -34 -146c-39 -57 -97 -77 -157 -77v81c47 3 87 40 87 91v8h-87zM292 0v196h191v-153c0 -63 -9 -107 -34 -146c-39 -57 -97 -77 -157 -77v81c47 3 87 40 87 91v8h-87z" />
    <glyph glyph-name="quoteleft" unicode="&#x2018;" horiz-adv-x="277" 
d="M144 534h87v-196h-191v153c0 63 9 109 34 146c39 59 97 77 157 77v-81c-45 -3 -87 -40 -87 -91v-8z" />
    <glyph glyph-name="quoteright" unicode="&#x2019;" horiz-adv-x="271" 
d="M47 504v196h191v-153c0 -63 -9 -107 -34 -146c-39 -57 -97 -77 -157 -77v81c47 3 87 40 87 91v8h-87z" />
    <glyph glyph-name="quotedblleft" unicode="&#x201c;" horiz-adv-x="521" 
d="M144 534h87v-196h-191v153c0 63 9 109 34 146c39 59 97 77 157 77v-81c-45 -3 -87 -40 -87 -91v-8zM388 534h87v-196h-191v153c0 63 9 109 34 146c39 59 97 77 157 77v-81c-45 -3 -87 -40 -87 -91v-8z" />
    <glyph glyph-name="quotedblright" unicode="&#x201d;" horiz-adv-x="516" 
d="M47 504v196h191v-153c0 -63 -9 -107 -34 -146c-39 -57 -97 -77 -157 -77v81c47 3 87 40 87 91v8h-87zM292 504v196h191v-153c0 -63 -9 -107 -34 -146c-39 -57 -97 -77 -157 -77v81c47 3 87 40 87 91v8h-87z" />
    <glyph glyph-name="guilsinglleft" unicode="&#x2039;" horiz-adv-x="260" 
d="M215 17l-180 142v199l180 142v-169l-86 -73l86 -69v-172z" />
    <glyph glyph-name="guilsinglright" unicode="&#x203a;" horiz-adv-x="260" 
d="M45 17v172l86 69l-86 73v169l180 -142v-199z" />
    <glyph glyph-name="guilsinglleft.case" horiz-adv-x="270" 
d="M218 117l-180 142v199l180 142v-169l-86 -73l86 -69v-172z" />
    <glyph glyph-name="guilsinglright.case" horiz-adv-x="270" 
d="M52 117v172l86 69l-86 73v169l180 -142v-199z" />
    <glyph glyph-name="guillemotleft" unicode="&#xab;" horiz-adv-x="478" 
d="M215 17l-180 142v199l180 142v-169l-86 -73l86 -69v-172zM433 17l-180 142v199l180 142v-169l-86 -73l86 -69v-172z" />
    <glyph glyph-name="guillemotright" unicode="&#xbb;" horiz-adv-x="478" 
d="M45 17v172l86 69l-86 73v169l180 -142v-199zM263 17v172l86 69l-86 73v169l180 -142v-199z" />
    <glyph glyph-name="guillemotleft.case" horiz-adv-x="488" 
d="M218 117l-180 142v199l180 142v-169l-86 -73l86 -69v-172zM436 117l-180 142v199l180 142v-169l-86 -73l86 -69v-172z" />
    <glyph glyph-name="guillemotright.case" horiz-adv-x="488" 
d="M52 117v172l86 69l-86 73v169l180 -142v-199zM270 117v172l86 69l-86 73v169l180 -142v-199z" />
    <glyph glyph-name="quotesingle" unicode="'" horiz-adv-x="265" 
d="M54 412l-18 288h193l-18 -288h-157z" />
    <glyph glyph-name="quotedbl" unicode="&#x22;" horiz-adv-x="503" 
d="M54 412l-18 288h193l-18 -288h-157zM292 412l-18 288h193l-18 -288h-157z" />
    <glyph glyph-name="ampersand" unicode="&#x26;" horiz-adv-x="717" 
d="M502 0l-39 49c-53 -41 -117 -65 -196 -65c-137 0 -242 77 -242 216c0 98 80 170 156 208c-32 35 -52 77 -52 128c0 109 91 181 219 181c127 0 213 -65 213 -178c0 -89 -68 -151 -130 -185l53 -66c13 17 21 36 25 53h165c-12 -60 -44 -123 -87 -170l145 -171h-230z
M292 542c0 -25 13 -44 30 -63l17 -18c33 16 60 46 60 82c0 27 -20 47 -53 47c-35 0 -54 -25 -54 -48zM360 180l-82 100c-28 -17 -67 -40 -67 -83c0 -33 25 -59 64 -59c31 0 56 17 85 42z" />
    <glyph glyph-name="at" unicode="@" horiz-adv-x="768" 
d="M595 437l-44 -223c-1 -9 -5 -26 -5 -33c0 -13 5 -19 16 -19c29 0 80 45 80 149c0 148 -103 211 -241 211c-158 0 -268 -110 -268 -261c0 -160 115 -264 267 -264c91 0 141 19 188 54h108c-67 -99 -164 -150 -299 -150c-216 0 -368 134 -368 351c0 227 166 365 373 365
c210 0 339 -120 339 -278c0 -109 -42 -179 -93 -220c-49 -40 -101 -54 -137 -54c-37 0 -57 18 -62 39h-2c-23 -23 -61 -39 -108 -39c-88 0 -152 68 -152 173c0 115 82 216 196 216c41 0 84 -17 107 -53h2l8 36h95zM314 250c0 -45 32 -72 69 -72c51 0 80 41 80 90
c0 45 -32 72 -69 72c-51 0 -80 -41 -80 -90z" />
    <glyph glyph-name="at.case" horiz-adv-x="772" 
d="M597 528l-44 -223c-1 -9 -5 -26 -5 -33c0 -13 5 -19 16 -19c29 0 80 45 80 149c0 148 -103 211 -241 211c-158 0 -268 -110 -268 -261c0 -160 115 -264 267 -264c91 0 141 19 188 54h108c-67 -99 -164 -150 -299 -150c-216 0 -368 134 -368 351c0 227 166 365 373 365
c210 0 339 -120 339 -278c0 -109 -42 -179 -93 -220c-49 -40 -101 -54 -137 -54c-37 0 -57 18 -62 39h-2c-23 -23 -61 -39 -108 -39c-88 0 -152 68 -152 173c0 115 82 216 196 216c41 0 84 -17 107 -53h2l8 36h95zM316 341c0 -45 32 -72 69 -72c51 0 80 41 80 90
c0 45 -32 72 -69 72c-51 0 -80 -41 -80 -90z" />
    <glyph glyph-name="section" unicode="&#xa7;" horiz-adv-x="668" 
d="M634 278c0 -94 -53 -133 -96 -151c29 -25 50 -63 50 -102c0 -143 -137 -182 -262 -182c-120 0 -254 48 -257 184h187c3 -45 37 -63 77 -63c41 0 66 16 66 45c0 28 -22 41 -73 62l-96 41c-71 31 -121 55 -152 80c-36 31 -49 66 -49 115c0 64 38 117 106 144
c-22 23 -33 53 -33 91c0 131 140 164 243 164c111 0 245 -31 250 -164h-180c-1 33 -25 55 -68 55c-37 0 -62 -17 -62 -44c0 -29 20 -42 67 -61l96 -36c78 -30 186 -66 186 -178zM242 280l186 -74c19 1 36 16 36 39s-15 34 -42 45l-186 74c-17 -1 -36 -15 -36 -38
s17 -35 42 -46z" />
    <glyph glyph-name="paragraph" unicode="&#xb6;" horiz-adv-x="623" 
d="M245 -147l-2 473c-7 -1 -15 -1 -26 -1c-98 0 -198 68 -198 186c0 97 52 161 153 181c31 7 66 8 105 8h282v-847h-110v750h-95v-750h-109z" />
    <glyph glyph-name="dagger" unicode="&#x2020;" horiz-adv-x="598" 
d="M198 -147v488h-173v162h173v197h202v-197h173v-162h-173v-488h-202z" />
    <glyph glyph-name="daggerdbl" unicode="&#x2021;" horiz-adv-x="632" 
d="M590 341h-173v-129h173v-162h-173v-197h-202v197h-173v162h173v129h-173v162h173v197h202v-197h173v-162z" />
    <glyph glyph-name="ordfeminine" unicode="&#xaa;" horiz-adv-x="421" 
d="M385 393h-123c-4 8 -5 21 -6 30h-1c-24 -27 -58 -35 -98 -35c-81 0 -130 29 -130 94c0 36 18 58 43 73c28 15 68 18 108 25l46 8c17 3 29 4 29 21c0 20 -17 28 -40 28c-32 0 -43 -15 -43 -38l-131 1c3 83 69 113 178 113c75 0 112 -12 133 -35c23 -24 27 -54 27 -93v-146
c0 -28 1 -29 8 -41v-5zM253 534c-4 -4 -12 -6 -24 -9l-17 -5c-31 -9 -48 -13 -48 -33c0 -17 12 -25 36 -25c25 0 41 7 48 22c3 7 5 15 5 25v25z" />
    <glyph glyph-name="ordmasculine" unicode="&#xba;" horiz-adv-x="406" 
d="M203 716c116 0 180 -66 180 -162c0 -97 -64 -163 -180 -163s-180 66 -180 163c0 96 64 162 180 162zM203 480c35 0 46 33 46 74c0 40 -11 73 -46 73s-46 -33 -46 -73c0 -41 11 -74 46 -74z" />
    <glyph glyph-name="degree" unicode="&#xb0;" horiz-adv-x="381" 
d="M22 547c0 96 73 166 169 166s168 -70 168 -166s-72 -166 -168 -166s-169 70 -169 166zM191 608c-35 0 -62 -24 -62 -61s27 -62 62 -62s61 25 61 62s-26 61 -61 61z" />
    <glyph glyph-name="uni2116" unicode="&#x2116;" horiz-adv-x="1148" 
d="M932 716c116 0 180 -66 180 -162c0 -97 -64 -163 -180 -163s-180 66 -180 163c0 96 64 162 180 162zM62 0v700h220l90 -165l115 -212h2c0 85 -1 167 -1 218v159h204v-700h-210l-101 180l-114 204h-2c0 -49 1 -132 1 -208v-176h-204zM932 480c35 0 46 33 46 74
c0 40 -11 73 -46 73s-46 -33 -46 -73c0 -41 11 -74 46 -74zM783 206v134h298v-134h-298z" />
    <glyph glyph-name="registered" unicode="&#xae;" horiz-adv-x="810" 
d="M40 350c0 201 164 363 365 363s365 -162 365 -363s-164 -363 -365 -363s-365 162 -365 363zM155 350c0 -139 111 -254 250 -254c140 0 249 115 249 254s-109 254 -249 254c-139 0 -250 -115 -250 -254zM247 175v350h196c35 0 53 -4 70 -12c33 -13 54 -44 54 -88
c0 -47 -27 -74 -56 -86v-1c29 -9 52 -31 53 -79l1 -38c1 -20 0 -32 7 -43v-3h-106c-4 11 -4 17 -5 30l-2 26c-1 21 -2 39 -13 51c-8 9 -18 14 -42 14h-50v-121h-107zM354 443v-70h57c20 0 48 3 48 35c0 31 -28 35 -48 35h-57z" />
    <glyph glyph-name="copyright" unicode="&#xa9;" horiz-adv-x="810" 
d="M405 -13c-201 0 -365 162 -365 363s164 363 365 363s365 -162 365 -363s-164 -363 -365 -363zM405 604c-139 0 -250 -115 -250 -254s111 -254 250 -254c140 0 249 115 249 254s-109 254 -249 254zM466 312h106c-13 -89 -74 -146 -167 -146c-107 0 -176 82 -176 184
s69 183 176 183c93 0 151 -50 166 -139h-106c-11 40 -36 52 -60 52c-26 0 -66 -19 -66 -96s40 -96 66 -96c24 0 53 13 61 58z" />
    <glyph glyph-name="uni2117" unicode="&#x2117;" horiz-adv-x="810" 
d="M405 -13c-201 0 -365 162 -365 363s164 363 365 363s365 -162 365 -363s-164 -363 -365 -363zM405 604c-139 0 -250 -115 -250 -254s111 -254 250 -254c140 0 249 115 249 254s-109 254 -249 254zM276 175v350h172c47 0 73 -10 94 -26c27 -20 43 -53 43 -94
c0 -49 -18 -81 -49 -101c-24 -16 -50 -23 -95 -23h-57v-106h-108zM384 435v-70h44c28 0 56 3 56 36s-28 34 -56 34h-44z" />
    <glyph glyph-name="trademark" unicode="&#x2122;" horiz-adv-x="1011" 
d="M407 700v-114h-119v-348h-146v348h-119v114h384zM951 700v-462h-134v280h-2l-65 -280h-104l-65 280h-2v-280h-134v462h182l70 -249h2l70 249h182z" />
    <glyph glyph-name="uni2113" unicode="&#x2113;" horiz-adv-x="480" 
d="M230 155c0 -41 8 -57 45 -57c39 0 43 33 44 62h138c-7 -103 -55 -172 -182 -172c-129 0 -179 42 -179 139v24l-64 -49v128l63 46v245c0 49 3 88 20 119c25 47 72 74 165 74c123 0 179 -56 179 -155c0 -105 -77 -208 -229 -336v-68zM319 549c0 39 -14 55 -41 55
c-37 0 -48 -18 -48 -66v-173c72 76 89 140 89 184z" />
    <glyph glyph-name="estimated" unicode="&#x212e;" horiz-adv-x="592" 
d="M562 223h-351v-92c0 -23 10 -34 22 -41c19 -11 45 -14 70 -14c49 0 107 11 148 72h100c-48 -113 -143 -159 -248 -159c-159 0 -263 103 -263 269c0 157 99 270 263 270c161 0 259 -110 259 -302v-3zM211 307h185v86c0 23 -10 34 -26 41c-17 8 -40 13 -67 13
c-25 0 -47 -5 -66 -13c-16 -7 -26 -18 -26 -41v-86z" />
    <glyph glyph-name="asterisk" unicode="*" horiz-adv-x="467" 
d="M292 700l-2 -112l107 35l37 -112l-107 -34l66 -89l-95 -70l-65 91l-65 -90l-96 69l67 90l-106 34l36 112l106 -36l-1 112h118z" />
    <glyph glyph-name="numbersign" unicode="#" 
d="M306 0l31 186h-75l-31 -186h-136l31 186h-98l20 116h97l17 100h-101l20 116h101l30 182h136l-30 -182h75l30 182h136l-30 -182h103l-20 -116h-103l-17 -100h107l-20 -116h-106l-31 -186h-136zM298 402l-17 -100h75l17 100h-75z" />
    <glyph glyph-name="currency" unicode="&#xa4;" horiz-adv-x="622" 
d="M501 58l-66 65c-38 -22 -79 -33 -124 -33s-88 12 -125 33l-65 -65l-88 88l65 65c-21 37 -33 80 -33 125s11 86 33 124l-65 66l88 88l65 -66c38 23 80 34 125 34s87 -11 124 -34l66 66l88 -88l-66 -66c23 -37 34 -79 34 -124s-11 -87 -34 -125l66 -65zM200 336
c0 -61 50 -111 111 -111s111 50 111 111s-50 111 -111 111s-111 -50 -111 -111z" />
    <glyph glyph-name="dollar" unicode="$" horiz-adv-x="670" 
d="M254 -107v113c-126 22 -223 97 -223 234h207c0 -63 34 -94 101 -94c63 0 91 26 91 58c0 28 -17 43 -88 63l-99 30c-112 34 -186 78 -186 199c0 55 19 100 56 133c38 33 86 55 143 64v112h158v-113c105 -18 194 -79 196 -210h-195c-4 56 -46 71 -89 71
c-49 0 -73 -19 -73 -46c0 -25 19 -38 92 -57l96 -25c49 -13 106 -33 142 -65c32 -29 54 -71 54 -131c0 -129 -90 -202 -225 -223v-113h-158z" />
    <glyph glyph-name="Euro" unicode="&#x20ac;" horiz-adv-x="711" 
d="M43 365l32 115h45c14 57 37 103 68 138c59 67 141 93 213 93c156 0 252 -96 275 -247h-177c-12 51 -39 97 -98 97c-53 0 -81 -36 -96 -81h184l-31 -115h-168v-35h157l-32 -116h-107c15 -41 42 -75 93 -75c55 0 83 40 96 88h177c-20 -144 -118 -237 -273 -237
c-77 0 -148 23 -207 84c-32 33 -57 80 -72 140h-93l33 116h44v35h-63z" />
    <glyph glyph-name="sterling" unicode="&#xa3;" horiz-adv-x="646" 
d="M599 471h-189v9c0 53 -23 79 -69 79c-36 0 -62 -22 -62 -57c0 -19 7 -37 16 -56c7 -13 22 -36 27 -55h102v-115h-73c3 -7 2 -14 2 -21c0 -39 -23 -78 -56 -101l2 -4c13 7 28 9 41 9c15 0 32 -1 48 -5c31 -7 56 -19 91 -19s67 23 83 43l61 -127c-45 -47 -101 -71 -166 -71
c-47 0 -83 13 -118 22c-33 9 -63 17 -102 17c-55 0 -88 -21 -121 -44l-71 135c75 27 113 58 113 130c0 15 -2 27 -6 36h-115v115h73c-15 24 -32 59 -32 114c0 105 90 209 260 209c161 0 256 -83 261 -243z" />
    <glyph glyph-name="yen" unicode="&#xa5;" horiz-adv-x="725" 
d="M465 109v-109h-209v109h-166v136h166v13l-20 37h-146v136h74l-143 269h231l50 -124c17 -39 34 -81 58 -140h2c24 59 42 96 62 141l53 123h229l-147 -269h72v-136h-146l-20 -37v-13h166v-136h-166z" />
    <glyph glyph-name="florin" unicode="&#x192;" 
d="M192 29l49 279h-94l26 147h93l15 94c22 134 84 167 191 167c39 0 81 -3 126 -12l-23 -125c-11 3 -30 3 -38 3c-49 0 -68 -27 -75 -74l-9 -53h109l-26 -147h-109l-54 -320c-22 -133 -86 -167 -191 -167c-39 0 -80 3 -125 12l26 125c11 -1 26 -3 34 -3c51 0 67 27 75 74z
" />
    <glyph glyph-name="cent" unicode="&#xa2;" horiz-adv-x="626" 
d="M255 -107v103c-127 28 -212 131 -212 261s85 234 212 262v106h147v-106c108 -24 166 -100 187 -200h-187c-9 39 -33 67 -76 67c-65 0 -84 -63 -84 -129s19 -131 84 -131c47 0 69 35 78 79h190c-17 -104 -87 -181 -192 -208v-104h-147z" />
    <glyph glyph-name="plus" unicode="+" 
d="M71 274v153h181v181h156v-181h181v-153h-181v-181h-156v181h-181z" />
    <glyph glyph-name="plus.ss06" 
d="M71 181v153h181v181h156v-181h181v-153h-181v-181h-156v181h-181z" />
    <glyph glyph-name="minus" unicode="&#x2212;" 
d="M77 273v153h506v-153h-506z" />
    <glyph glyph-name="minus.ss06" 
d="M77 180v153h506v-153h-506z" />
    <glyph glyph-name="multiply" unicode="&#xd7;" 
d="M181 91l-109 109l149 148l-149 149l109 109l149 -149l149 150l109 -109l-149 -150l149 -149l-109 -109l-149 150z" />
    <glyph glyph-name="x.ss20" 
d="M182 91l-109 109l149 148l-149 149l109 109l149 -149l149 150l109 -109l-149 -150l149 -149l-109 -109l-149 150z" />
    <glyph glyph-name="multiply.ss06" 
d="M181 -2l-109 109l149 148l-149 149l109 109l149 -149l149 150l109 -109l-149 -150l149 -149l-109 -109l-149 150z" />
    <glyph glyph-name="divide" unicode="&#xf7;" 
d="M330 461c-49 0 -91 42 -91 91c0 51 42 92 91 92c51 0 91 -41 91 -92c0 -49 -40 -91 -91 -91zM71 273v153h518v-153h-518zM330 237c51 0 91 -40 91 -91c0 -49 -40 -92 -91 -92c-49 0 -91 43 -91 92c0 51 42 91 91 91z" />
    <glyph glyph-name="divide.ss06" 
d="M330 368c-49 0 -91 42 -91 91c0 51 42 92 91 92c51 0 91 -41 91 -92c0 -49 -40 -91 -91 -91zM71 180v153h518v-153h-518zM330 144c51 0 91 -40 91 -91c0 -49 -40 -92 -91 -92c-49 0 -91 43 -91 92c0 51 42 91 91 91z" />
    <glyph glyph-name="plusminus" unicode="&#xb1;" 
d="M65 377v147h187v127h156v-127h188v-147h-188v-121h-156v121h-187zM64 70v147h532v-147h-532z" />
    <glyph glyph-name="plusminus.ss06" 
d="M65 284v147h187v127h156v-127h188v-147h-188v-121h-156v121h-187zM64 -23v147h532v-147h-532z" />
    <glyph glyph-name="equal" unicode="=" 
d="M76 396v148h508v-148h-508zM76 158v148h508v-148h-508z" />
    <glyph glyph-name="equal.ss06" 
d="M76 303v148h508v-148h-508zM76 65v148h508v-148h-508z" />
    <glyph glyph-name="notequal" unicode="&#x2260;" 
d="M76 399v144h263l52 128h120l-52 -128h125v-144h-184l-40 -98h224v-144h-283l-49 -120h-120l49 120h-105v144h164l40 98h-204z" />
    <glyph glyph-name="notequal.ss06" 
d="M76 306v144h263l52 128h120l-52 -128h125v-144h-184l-40 -98h224v-144h-283l-49 -120h-120l49 120h-105v144h164l40 98h-204z" />
    <glyph glyph-name="logicalnot" unicode="&#xac;" 
d="M568 515v-362h-160v214h-345v148h505z" />
    <glyph glyph-name="logicalnot.ss06" 
d="M571 422v-362h-160v214h-345v148h505z" />
    <glyph glyph-name="approxequal" unicode="&#x2248;" 
d="M213 380h-112c8 99 57 185 150 185c24 0 58 -6 83 -13l38 -10c19 -5 32 -9 45 -9c17 0 31 7 36 30h112c-8 -104 -57 -185 -150 -185c-24 0 -56 6 -83 13l-38 10c-17 5 -30 9 -45 9c-17 0 -31 -7 -36 -30zM213 130h-112c8 99 57 185 150 185c24 0 58 -6 83 -13l38 -10
c19 -5 32 -9 45 -9c17 0 31 7 36 30h112c-8 -104 -57 -185 -150 -185c-24 0 -56 6 -83 13l-38 10c-17 5 -30 9 -45 9c-17 0 -31 -7 -36 -30z" />
    <glyph glyph-name="approxequal.ss06" 
d="M210 287h-112c8 99 57 185 150 185c24 0 58 -6 83 -13l38 -10c19 -5 32 -9 45 -9c17 0 31 7 36 30h112c-8 -104 -57 -185 -150 -185c-24 0 -56 6 -83 13l-38 10c-17 5 -30 9 -45 9c-17 0 -31 -7 -36 -30zM210 37h-112c8 99 57 185 150 185c24 0 58 -6 83 -13l38 -10
c19 -5 32 -9 45 -9c17 0 31 7 36 30h112c-8 -104 -57 -185 -150 -185c-24 0 -56 6 -83 13l-38 10c-17 5 -30 9 -45 9c-17 0 -31 -7 -36 -30z" />
    <glyph glyph-name="infinity" unicode="&#x221e;" horiz-adv-x="833" 
d="M228 542c73 0 129 -42 190 -95c63 55 115 95 188 95c115 0 188 -81 188 -195c0 -94 -59 -193 -185 -193c-83 0 -139 51 -193 99c-56 -52 -108 -99 -192 -99c-126 0 -185 99 -185 193c0 114 73 195 189 195zM599 300c31 0 49 18 49 50c0 27 -18 49 -47 49
c-31 0 -65 -24 -97 -51c32 -25 63 -48 95 -48zM235 300c31 0 62 23 94 48c-33 27 -67 51 -96 51s-48 -22 -48 -49c0 -33 17 -50 50 -50z" />
    <glyph glyph-name="infinity.ss06" horiz-adv-x="833" 
d="M228 449c73 0 129 -42 190 -95c63 55 115 95 188 95c115 0 188 -81 188 -195c0 -94 -59 -193 -185 -193c-83 0 -139 51 -193 99c-56 -52 -108 -99 -192 -99c-126 0 -185 99 -185 193c0 114 73 195 189 195zM599 207c31 0 49 18 49 50c0 27 -18 49 -47 49
c-31 0 -65 -24 -97 -51c32 -25 63 -48 95 -48zM235 207c31 0 62 23 94 48c-33 27 -67 51 -96 51s-48 -22 -48 -49c0 -33 17 -50 50 -50z" />
    <glyph glyph-name="less" unicode="&#x3c;" 
d="M555 54l-475 232v126l475 231v-161l-282 -134l282 -133v-161z" />
    <glyph glyph-name="less_hyphen" horiz-adv-x="646" 
d="M601 176h-162c-48 0 -79 1 -140 2v-2c13 -12 54 -46 87 -77l98 -88h-228l-116 123c-40 43 -82 86 -117 123c35 39 77 80 117 123l116 123h228l-98 -88c-33 -29 -54 -46 -87 -77v-2c61 1 92 2 140 2h162v-162z" />
    <glyph glyph-name="less_hyphen.case" horiz-adv-x="648" 
d="M606 289h-162c-48 0 -79 1 -140 2v-2c13 -12 54 -46 87 -77l98 -88h-228l-116 123c-40 43 -82 86 -117 123c35 39 77 80 117 123l116 123h228l-98 -88c-33 -29 -54 -46 -87 -77v-2c61 1 92 2 140 2h162v-162z" />
    <glyph glyph-name="greater" unicode="&#x3e;" 
d="M105 54v161l282 133l-282 134v161l475 -231v-126z" />
    <glyph glyph-name="hyphen_greater" horiz-adv-x="646" 
d="M45 176v162h162c48 0 79 -1 140 -2v2c-33 31 -52 48 -87 77l-98 88h228l116 -123c40 -43 84 -84 117 -123c-33 -37 -77 -80 -117 -123l-116 -123h-228l98 88l87 77v2c-61 -1 -92 -2 -140 -2h-162z" />
    <glyph glyph-name="hyphen_greater.case" horiz-adv-x="648" 
d="M42 289v162h162c48 0 79 -1 140 -2v2c-33 31 -52 48 -87 77l-98 88h228l116 -123c40 -43 84 -84 117 -123c-33 -37 -77 -80 -117 -123l-116 -123h-228l98 88l87 77v2c-61 -1 -92 -2 -140 -2h-162z" />
    <glyph glyph-name="lessequal" unicode="&#x2264;" 
d="M563 144l-475 222v126l475 221v-161l-282 -124l282 -123v-161zM88 0v137h475v-137h-475z" />
    <glyph glyph-name="greaterequal" unicode="&#x2265;" 
d="M97 144v161l282 123l-282 124v161l475 -221v-126zM572 0h-475v137h475v-137z" />
    <glyph glyph-name="increment" unicode="&#x2206;" horiz-adv-x="755" 
d="M16 0l258 700h211l254 -700h-723zM281 150h192l-60 205c-12 43 -24 82 -32 113h-2c-9 -32 -20 -69 -35 -113z" />
    <glyph glyph-name="summation" unicode="&#x2211;" 
d="M49 72l212 236l-209 236v156h550v-174h-273l181 -208l-191 -223h294v-175h-564v152z" />
    <glyph glyph-name="product" unicode="&#x220f;" horiz-adv-x="837" 
d="M723 -80h-217v606h-176v-606h-216v606h-86v174h781v-174h-86v-606z" />
    <glyph glyph-name="Omega" unicode="&#x2126;" horiz-adv-x="786" 
d="M393 716c205 0 353 -135 353 -320c0 -113 -38 -178 -87 -226v-1c27 1 35 1 48 1h37v-170h-321v157c76 25 107 107 107 204c0 94 -42 181 -137 181c-94 0 -137 -87 -137 -181c0 -97 30 -179 107 -204v-157h-321v170h37c13 0 21 0 48 -1v1c-49 48 -87 113 -87 226
c0 185 148 320 353 320z" />
    <glyph glyph-name="radical" unicode="&#x221a;" 
d="M686 700l-219 -700h-232l-119 364h-122v151h279l36 -138c12 -45 26 -108 45 -188h2c19 77 33 141 46 190l84 321h200z" />
    <glyph glyph-name="lozenge" unicode="&#x25ca;" 
d="M256 0l-246 349l246 351h141l249 -351l-249 -349h-141zM327 173l125 176l-124 175l-124 -175z" />
    <glyph glyph-name="integral" unicode="&#x222b;" 
d="M193 29l89 520c24 134 85 167 192 167c39 0 81 -3 126 -12l-23 -125c-11 3 -30 3 -38 3c-49 0 -67 -27 -75 -74l-89 -520c-22 -133 -86 -167 -191 -167c-39 0 -81 3 -126 12l26 125c11 -1 26 -3 34 -3c51 0 67 27 75 74z" />
    <glyph glyph-name="mu" unicode="&#xb5;" horiz-adv-x="636" 
d="M586 515v-515h-190v23c0 7 1 29 1 44h-2c-31 -49 -79 -75 -146 -79v-53c0 -11 -1 -28 -2 -50c-1 -23 -4 -42 -9 -57h-200c13 43 14 101 14 166v521h196v-272c0 -61 12 -99 67 -99c53 0 75 39 75 100v271h196z" />
    <glyph glyph-name="partialdiff" unicode="&#x2202;" 
d="M148 508c14 117 78 209 222 209c167 0 233 -132 233 -282c0 -81 -16 -165 -47 -236c-27 -63 -76 -120 -131 -159c-49 -35 -119 -53 -179 -53c-141 0 -212 81 -212 184c0 71 28 134 85 189c63 60 163 91 294 100c2 57 -6 130 -42 130c-22 0 -40 -18 -46 -114zM273 111
c61 0 119 116 131 230c-36 -7 -72 -17 -100 -36c-43 -27 -70 -73 -70 -133c0 -43 18 -61 39 -61z" />
    <glyph glyph-name="asciicircum" unicode="^" horiz-adv-x="559" 
d="M282 553h-6l-99 -184h-157l186 331h147l186 -331h-158z" />
    <glyph glyph-name="asciitilde" unicode="~" 
d="M213 283h-112c8 99 57 185 150 185c24 0 58 -6 83 -13l38 -10c19 -5 32 -9 45 -9c17 0 31 7 36 30h112c-8 -104 -57 -185 -150 -185c-24 0 -56 6 -83 13l-38 10c-17 5 -30 9 -45 9c-17 0 -31 -7 -36 -30z" />
    <glyph glyph-name="pi" unicode="&#x3c0;" horiz-adv-x="762" 
d="M304 0h-196v362h-98v153h722v-153h-101v-158c0 -23 4 -38 12 -45s25 -11 51 -11c15 0 25 0 38 1v-149c-27 -1 -59 -4 -108 -4c-72 0 -117 4 -153 39c-35 35 -36 87 -36 136v191h-131v-362z" />
    <glyph glyph-name="fraction" unicode="&#x2044;" horiz-adv-x="200" 
d="M-25 0h-109l356 700h110z" />
    <glyph glyph-name="percent" unicode="%" horiz-adv-x="962" 
d="M227 712c131 0 200 -88 200 -215s-69 -215 -200 -215c-65 0 -114 20 -149 60c-34 40 -51 92 -51 155s17 115 51 155c35 40 84 60 149 60zM227 382c45 0 57 46 57 115s-12 115 -57 115s-57 -46 -57 -115s12 -115 57 -115zM735 419c131 0 200 -88 200 -215
s-69 -215 -200 -215c-65 0 -114 20 -149 60c-34 40 -51 92 -51 155s17 115 51 155c35 40 84 60 149 60zM735 89c45 0 57 46 57 115s-12 115 -57 115s-57 -46 -57 -115s12 -115 57 -115zM357 0h-109l356 700h110z" />
    <glyph glyph-name="perthousand" unicode="&#x2030;" horiz-adv-x="1406" 
d="M1174 419c131 0 200 -88 200 -215s-69 -215 -200 -215c-65 0 -114 20 -149 60c-34 40 -51 92 -51 155s17 115 51 155c35 40 84 60 149 60zM1174 89c45 0 57 46 57 115s-12 115 -57 115s-57 -46 -57 -115s12 -115 57 -115zM227 712c131 0 200 -88 200 -215
s-69 -215 -200 -215c-65 0 -114 20 -149 60c-34 40 -51 92 -51 155s17 115 51 155c35 40 84 60 149 60zM227 382c45 0 57 46 57 115s-12 115 -57 115s-57 -46 -57 -115s12 -115 57 -115zM735 419c131 0 200 -88 200 -215s-69 -215 -200 -215c-65 0 -114 20 -149 60
c-34 40 -51 92 -51 155s17 115 51 155c35 40 84 60 149 60zM735 89c45 0 57 46 57 115s-12 115 -57 115s-57 -46 -57 -115s12 -115 57 -115zM357 0h-109l356 700h110z" />
    <glyph glyph-name="onehalf" unicode="&#xbd;" horiz-adv-x="871" 
d="M127 280v239h-106v88h10c59 0 113 24 117 93h113v-420h-134zM579 240h-131v18c0 107 80 167 199 167c113 0 188 -45 188 -133c0 -83 -67 -119 -137 -157l-53 -28v-2c16 0 49 2 74 2h122v-107h-402c-1 43 11 78 34 107c33 41 88 72 139 100l38 21c21 12 44 27 44 54
c0 23 -15 43 -52 43c-47 0 -63 -31 -63 -74v-11zM259 0h-109l356 700h110z" />
    <glyph glyph-name="onequarter" unicode="&#xbc;" horiz-adv-x="818" 
d="M597 0v83h-200v113l206 224h130v-234h61v-103h-61v-83h-136zM597 186v116l-107 -116h107zM127 280v239h-106v88h10c59 0 113 24 117 93h113v-420h-134zM259 0h-109l356 700h110z" />
    <glyph glyph-name="threequarters" unicode="&#xbe;" horiz-adv-x="936" 
d="M170 562h-133c0 85 67 150 198 150c109 0 178 -45 178 -112c0 -52 -28 -76 -52 -87c25 -8 66 -36 66 -93c0 -62 -44 -138 -196 -138c-147 0 -210 66 -207 167h135c-1 -39 19 -70 64 -70c35 0 60 19 60 47c0 31 -28 39 -56 39h-42v81h42c27 0 57 6 57 35
c0 23 -21 38 -53 38c-40 0 -62 -21 -61 -57zM716 0v83h-200v113l206 224h130v-234h61v-103h-61v-83h-136zM716 186v116l-107 -116h107zM378 0h-109l356 700h110z" />
    <glyph glyph-name="fiveeighths" unicode="&#x215d;" horiz-adv-x="1001" 
d="M286 427c0 31 -26 55 -61 55c-25 0 -43 -9 -54 -27h-134l48 245h321v-107h-213l-10 -45c21 13 51 19 84 19c85 0 159 -44 159 -138c0 -89 -71 -154 -204 -154s-194 66 -200 136l143 5c7 -25 31 -43 60 -43c35 0 61 25 61 54zM582 303c0 39 18 69 53 88
c36 19 80 29 133 29c105 0 187 -39 187 -117c0 -45 -23 -72 -59 -87c39 -11 77 -41 77 -98c0 -94 -106 -128 -205 -128c-100 0 -206 34 -206 128c0 59 41 88 78 99c-36 15 -58 41 -58 86zM769 337c-40 0 -63 -17 -63 -45c0 -25 23 -42 63 -42c39 0 63 17 63 42
c0 28 -24 45 -63 45zM699 128c0 -29 27 -49 70 -49s70 20 70 49s-27 46 -70 46s-70 -17 -70 -46zM376 0h-109l356 700h110z" />
    <glyph glyph-name="oneeighth" unicode="&#x215b;" horiz-adv-x="884" 
d="M127 280v239h-106v88h10c59 0 113 24 117 93h113v-420h-134zM466 303c0 39 18 69 53 88c36 19 80 29 133 29c105 0 187 -39 187 -117c0 -45 -23 -72 -59 -87c39 -11 77 -41 77 -98c0 -94 -106 -128 -205 -128c-100 0 -206 34 -206 128c0 59 41 88 78 99
c-36 15 -58 41 -58 86zM653 337c-40 0 -63 -17 -63 -45c0 -25 23 -42 63 -42c39 0 63 17 63 42c0 28 -24 45 -63 45zM583 128c0 -29 27 -49 70 -49s70 20 70 49s-27 46 -70 46s-70 -17 -70 -46zM260 0h-109l356 700h110z" />
    <glyph glyph-name="onethird" unicode="&#x2153;" horiz-adv-x="871" 
d="M587 269h-133c0 85 67 150 198 150c109 0 178 -45 178 -112c0 -52 -28 -76 -52 -87c25 -8 66 -36 66 -93c0 -62 -44 -138 -196 -138c-147 0 -210 66 -207 167h135c-1 -39 19 -70 64 -70c35 0 60 19 60 47c0 31 -28 39 -56 39h-42v81h42c27 0 57 6 57 35
c0 23 -21 38 -53 38c-40 0 -62 -21 -61 -57zM127 280v239h-106v88h10c59 0 113 24 117 93h113v-420h-134zM259 0h-109l356 700h110z" />
    <glyph glyph-name="threeeighths" unicode="&#x215c;" horiz-adv-x="1003" 
d="M171 562h-133c0 85 67 150 198 150c109 0 178 -45 178 -112c0 -52 -28 -76 -52 -87c25 -8 66 -36 66 -93c0 -62 -44 -138 -196 -138c-147 0 -210 66 -207 167h135c-1 -39 19 -70 64 -70c35 0 60 19 60 47c0 31 -28 39 -56 39h-42v81h42c27 0 57 6 57 35
c0 23 -21 38 -53 38c-40 0 -62 -21 -61 -57zM586 303c0 39 18 69 53 88c36 19 80 29 133 29c105 0 187 -39 187 -117c0 -45 -23 -72 -59 -87c39 -11 77 -41 77 -98c0 -94 -106 -128 -205 -128c-100 0 -206 34 -206 128c0 59 41 88 78 99c-36 15 -58 41 -58 86zM773 337
c-40 0 -63 -17 -63 -45c0 -25 23 -42 63 -42c39 0 63 17 63 42c0 28 -24 45 -63 45zM703 128c0 -29 27 -49 70 -49s70 20 70 49s-27 46 -70 46s-70 -17 -70 -46zM380 0h-109l356 700h110z" />
    <glyph glyph-name="seveneighths" unicode="&#x215e;" horiz-adv-x="887" 
d="M380 700v-100c-110 -94 -137 -222 -139 -320h-152c8 129 76 241 145 314h-213v106h359zM469 303c0 39 18 69 53 88c36 19 80 29 133 29c105 0 187 -39 187 -117c0 -45 -23 -72 -59 -87c39 -11 77 -41 77 -98c0 -94 -106 -128 -205 -128c-100 0 -206 34 -206 128
c0 59 41 88 78 99c-36 15 -58 41 -58 86zM656 337c-40 0 -63 -17 -63 -45c0 -25 23 -42 63 -42c39 0 63 17 63 42c0 28 -24 45 -63 45zM586 128c0 -29 27 -49 70 -49s70 20 70 49s-27 46 -70 46s-70 -17 -70 -46zM263 0h-109l356 700h110z" />
    <glyph glyph-name="twothirds" unicode="&#x2154;" horiz-adv-x="1030" 
d="M170 525h-131v18c0 107 80 167 199 167c113 0 188 -45 188 -133c0 -83 -67 -119 -137 -157l-53 -28v-2c16 0 49 2 74 2h122v-107h-402c-1 43 11 78 34 107c33 41 88 72 139 100l38 21c21 12 44 27 44 54c0 23 -15 43 -52 43c-47 0 -63 -31 -63 -74v-11zM747 269h-133
c0 85 67 150 198 150c109 0 178 -45 178 -112c0 -52 -28 -76 -52 -87c25 -8 66 -36 66 -93c0 -62 -44 -138 -196 -138c-147 0 -210 66 -207 167h135c-1 -39 19 -70 64 -70c35 0 60 19 60 47c0 31 -28 39 -56 39h-42v81h42c27 0 57 6 57 35c0 23 -21 38 -53 38
c-40 0 -62 -21 -61 -57zM419 0h-109l356 700h110z" />
    <glyph glyph-name="arrowleft" unicode="&#x2190;" horiz-adv-x="646" 
d="M601 176h-162c-48 0 -79 1 -140 2v-2c13 -12 54 -46 87 -77l98 -88h-228l-116 123c-40 43 -82 86 -117 123c35 39 77 80 117 123l116 123h228l-98 -88c-33 -29 -54 -46 -87 -77v-2c61 1 92 2 140 2h162v-162z" />
    <glyph glyph-name="uni2196" unicode="&#x2196;" horiz-adv-x="612" 
d="M425 250l115 -114l-115 -115l-114 115c-33 35 -55 56 -98 100l-1 -1l7 -116l7 -132l-162 162l5 169c3 59 2 118 5 169c51 3 112 2 169 5l169 5l162 -162l-132 7c-45 3 -81 7 -116 8l-1 -1c44 -43 67 -64 100 -99z" />
    <glyph glyph-name="arrowup" unicode="&#x2191;" horiz-adv-x="572" 
d="M205 -12v162c0 48 1 81 2 142h-2c-12 -13 -46 -54 -77 -89l-88 -98v228l123 116c43 40 86 84 123 117c39 -33 80 -77 123 -117l123 -116v-228l-88 98c-29 35 -46 56 -77 89h-2c1 -61 2 -94 2 -142v-162h-162z" />
    <glyph glyph-name="uni2197" unicode="&#x2197;" horiz-adv-x="612" 
d="M187 250l100 99l-1 1c-35 -1 -69 -5 -116 -8l-132 -7l162 162l169 -5c59 -3 118 -2 169 -5c3 -51 4 -110 5 -169l5 -169l-162 -162l7 132c3 45 6 71 7 116l-1 1l-98 -100l-114 -115l-115 115z" />
    <glyph glyph-name="arrowright" unicode="&#x2192;" horiz-adv-x="646" 
d="M45 176v162h162c48 0 79 -1 140 -2v2c-33 31 -52 48 -87 77l-98 88h228l116 -123c40 -43 84 -84 117 -123c-33 -37 -77 -80 -117 -123l-116 -123h-228l98 88l87 77v2c-61 -1 -92 -2 -140 -2h-162z" />
    <glyph glyph-name="uni2198" unicode="&#x2198;" horiz-adv-x="612" 
d="M186 292l-115 114l115 115l114 -115c35 -33 55 -56 98 -100l1 1c-1 45 -4 71 -7 116l-7 132l162 -162l-5 -169c-1 -57 -2 -118 -5 -169c-51 -3 -110 -2 -169 -5l-169 -5l-162 162l132 -7c47 -1 81 -5 116 -8l1 1c-44 43 -65 66 -100 99z" />
    <glyph glyph-name="arrowdown" unicode="&#x2193;" horiz-adv-x="572" 
d="M205 536h162v-162c0 -48 -1 -81 -2 -142h2c31 33 48 56 77 89l88 98v-228l-123 -116c-43 -40 -84 -82 -123 -117c-37 35 -80 77 -123 117l-123 116v228l88 -98c31 -33 65 -76 77 -89h2c-1 61 -2 94 -2 142v162z" />
    <glyph glyph-name="uni2199" unicode="&#x2199;" horiz-adv-x="612" 
d="M426 292l-100 -99l1 -1c35 3 71 7 116 8l132 7l-162 -162l-169 5c-57 3 -118 2 -169 5c-3 51 -2 112 -5 169l-5 169l162 162l-7 -132l-7 -116l1 -1l98 100l114 115l115 -115z" />
    <glyph glyph-name="arrowleft.case" horiz-adv-x="648" 
d="M606 289h-162c-48 0 -79 1 -140 2v-2c13 -12 54 -46 87 -77l98 -88h-228l-116 123c-40 43 -82 86 -117 123c35 39 77 80 117 123l116 123h228l-98 -88c-33 -29 -54 -46 -87 -77v-2c61 1 92 2 140 2h162v-162z" />
    <glyph glyph-name="uni2196.case" horiz-adv-x="582" 
d="M411 363l115 -114l-115 -115l-114 115c-33 35 -55 56 -98 100l-1 -1l7 -116l7 -132l-162 162l5 169c3 59 2 118 5 169c51 3 112 2 169 5l169 5l162 -162l-132 7c-45 3 -81 7 -116 8l-1 -1c44 -43 67 -64 100 -99z" />
    <glyph glyph-name="arrowup.case" horiz-adv-x="582" 
d="M210 101v162c0 48 1 81 2 142h-2c-12 -13 -46 -54 -77 -89l-88 -98v228l123 116c43 40 86 84 123 117c39 -33 80 -77 123 -117l123 -116v-228l-88 98c-29 35 -46 56 -77 89h-2c1 -61 2 -94 2 -142v-162h-162z" />
    <glyph glyph-name="uni2197.case" horiz-adv-x="582" 
d="M171 363l100 99l-1 1c-35 -1 -69 -5 -116 -8l-132 -7l162 162l169 -5c59 -3 118 -2 169 -5c3 -51 4 -110 5 -169l5 -169l-162 -162l7 132c3 45 6 71 7 116l-1 1l-98 -100l-114 -115l-115 115z" />
    <glyph glyph-name="arrowright.case" horiz-adv-x="648" 
d="M42 289v162h162c48 0 79 -1 140 -2v2c-33 31 -52 48 -87 77l-98 88h228l116 -123c40 -43 84 -84 117 -123c-33 -37 -77 -80 -117 -123l-116 -123h-228l98 88l87 77v2c-61 -1 -92 -2 -140 -2h-162z" />
    <glyph glyph-name="uni2198.case" horiz-adv-x="583" 
d="M170 405l-115 114l115 115l114 -115c35 -33 55 -56 98 -100l1 1c-1 45 -4 71 -7 116l-7 132l162 -162l-5 -169c-1 -57 -2 -118 -5 -169c-51 -3 -110 -2 -169 -5l-169 -5l-162 162l132 -7c47 -1 81 -5 116 -8l1 1c-44 43 -65 66 -100 99z" />
    <glyph glyph-name="arrowdown.case" horiz-adv-x="580" 
d="M209 649h162v-162c0 -48 -1 -81 -2 -142h2c31 33 48 56 77 89l88 98v-228l-123 -116c-43 -40 -84 -82 -123 -117c-37 35 -80 77 -123 117l-123 116v228l88 -98c31 -33 65 -76 77 -89h2c-1 61 -2 94 -2 142v162z" />
    <glyph glyph-name="uni2199.case" horiz-adv-x="583" 
d="M413 405l-100 -99l1 -1c35 3 71 7 116 8l132 7l-162 -162l-169 5c-57 3 -118 2 -169 5c-3 51 -2 112 -5 169l-5 169l162 162l-7 -132l-7 -116l1 -1l98 100l114 115l115 -115z" />
    <glyph glyph-name="uni1E9E" unicode="&#x1e9e;" horiz-adv-x="721" 
d="M321 3v154c17 -13 37 -19 61 -19c56 0 97 42 97 95c0 55 -41 94 -97 94c-23 0 -43 -6 -60 -18l-1 133l112 89v3c-23 0 -75 -1 -96 -1h-77v-533h-208v700h605v-159l-122 -102c96 -27 156 -99 156 -208c0 -160 -109 -239 -277 -239c-37 0 -62 4 -93 11z" />
    <glyph glyph-name="uni03BC" unicode="&#x3bc;" horiz-adv-x="628" 
d="M581 515v-515h-190v23c0 7 1 29 1 44h-2c-31 -49 -79 -75 -146 -79v-53c0 -11 -1 -28 -2 -50c-1 -23 -4 -42 -9 -57h-200c13 43 14 101 14 166v521h196v-272c0 -61 12 -99 67 -99c53 0 75 39 75 100v271h196z" />
    <glyph glyph-name="uni03A9" unicode="&#x3a9;" horiz-adv-x="784" 
d="M392 716c205 0 353 -135 353 -320c0 -113 -38 -178 -87 -226v-1c27 1 35 1 48 1h37v-170h-321v157c76 25 107 107 107 204c0 94 -42 181 -137 181c-94 0 -137 -87 -137 -181c0 -97 30 -179 107 -204v-157h-321v170h37c13 0 21 0 48 -1v1c-49 48 -87 113 -87 226
c0 185 148 320 353 320z" />
    <glyph glyph-name="uni0394" unicode="&#x394;" horiz-adv-x="704" 
d="M-10 0l258 700h211l254 -700h-723zM255 150h192l-60 205c-12 43 -24 82 -32 113h-2c-9 -32 -20 -69 -35 -113z" />
    <glyph glyph-name="uni2015" unicode="&#x2015;" horiz-adv-x="1096" 
d="M47 206v158h1002v-158h-1002z" />
    </font>
</defs>
</svg>
