<?xml version="1.0" encoding="UTF-8" standalone="no"?>
<svg
   width="32"
   height="32"
   viewBox="0 0 24 24"
   fill="none"
   stroke="currentColor"
   stroke-width="2"
   stroke-linecap="round"
   stroke-linejoin="round"
   class="sho-icon sho-icon-camera"
   version="1.1"
   inkscape:version="1.2.2 (b0a8486, 2022-12-01)"
   sodipodi:docname="headphones-out.svg"
   id="svg1021"
   xmlns:inkscape="http://www.inkscape.org/namespaces/inkscape"
   xmlns:sodipodi="http://sodipodi.sourceforge.net/DTD/sodipodi-0.dtd"
   xmlns="http://www.w3.org/2000/svg"
   xmlns:svg="http://www.w3.org/2000/svg">
  <defs
     id="defs650" />
  <sodipodi:namedview
     id="namedview429"
     pagecolor="#ffffff"
     bordercolor="#000000"
     borderopacity="0.25"
     inkscape:showpageshadow="2"
     inkscape:pageopacity="0.0"
     inkscape:pagecheckerboard="true"
     inkscape:deskcolor="#d1d1d1"
     showgrid="false"
     inkscape:zoom="19.666667"
     inkscape:cx="9.1779659"
     inkscape:cy="18.584745"
     inkscape:window-width="1280"
     inkscape:window-height="1387"
     inkscape:window-x="0"
     inkscape:window-y="25"
     inkscape:window-maximized="0"
     inkscape:current-layer="svg1021" />
  <ellipse
     cx="12"
     cy="12"
     style="display:inline;opacity:0.25;fill:#000000;stroke:none;stroke-width:1.18812"
     rx="11.40594"
     ry="11.405939"
     id="ellipse653"
     sodipodi:insensitive="true" />
  <path
     id="ellipse653-9-3"
     style="color:#000000;fill:#ffffff;stroke-width:0;stroke-dasharray:none"
     d="M 12 0 C 5.3796326 0 0 5.3796331 0 12 C 0 18.620366 5.3796326 24 12 24 C 18.620367 24 24 18.620366 24 12 C 24 9.4026741 23.170759 6.9971902 21.764648 5.0317383 L 20.917969 5.878418 C 22.113455 7.6181205 22.812012 9.7263388 22.812012 12 C 22.812012 17.97826 17.978261 22.812012 12 22.812012 C 6.0217391 22.812012 1.1879883 17.97826 1.1879883 12 C 1.1879883 6.0217396 6.0217391 1.1879883 12 1.1879883 C 14.227466 1.1879883 16.295706 1.8588951 18.014648 3.0102539 L 18.864258 2.1606445 C 16.918276 0.79945868 14.5515 0 12 0 z " />
  <line
     x1="9.0635595"
     y1="12.216102"
     x2="16.563559"
     y2="4.7161016"
     id="line291"
     style="display:inline;stroke:#ffffff;stroke-width:1.5"
     sodipodi:insensitive="true"
     transform="matrix(0.65254237,0,0,0.65254237,12.702169,-2.5880493)" />
  <polyline
     points="7 7 17 7 17 17"
     id="polyline293"
     transform="matrix(0.48940678,0,0,0.48940678,15.190678,-2.9364406)"
     style="display:inline;stroke:#ffffff"
     sodipodi:insensitive="true" />
  <g
     id="g294"
     transform="matrix(0.9500543,0,0,0.9500543,0.59955206,1.3035188)">
    <path
       d="m 6.759955,14.751305 v -3.49322 a 5.2398307,5.2398307 0 0 1 10.479661,0 v 3.49322"
       id="path261"
       style="stroke:#ffffff;stroke-width:1.16441" />
    <path
       d="m 17.239616,15.333509 a 1.1644068,1.1644068 0 0 1 -1.164406,1.164407 h -0.582204 a 1.1644068,1.1644068 0 0 1 -1.164407,-1.164407 v -1.74661 a 1.1644068,1.1644068 0 0 1 1.164407,-1.164407 h 1.74661 z m -10.479661,0 a 1.1644068,1.1644068 0 0 0 1.1644068,1.164407 h 0.5822035 a 1.1644068,1.1644068 0 0 0 1.1644068,-1.164407 v -1.74661 A 1.1644068,1.1644068 0 0 0 8.5065653,12.422492 H 6.759955 Z"
       id="path263"
       style="stroke:#ffffff;stroke-width:1.16441" />
  </g>
</svg>
