<?xml version="1.0" encoding="UTF-8" standalone="no"?>
<svg
   width="32"
   height="32"
   viewBox="0 0 24 24"
   fill="none"
   stroke="currentColor"
   stroke-width="2"
   stroke-linecap="round"
   stroke-linejoin="round"
   class="sho-icon sho-icon-camera"
   version="1.1"
   inkscape:version="1.2.2 (b0a8486, 2022-12-01)"
   sodipodi:docname="headphones.svg"
   id="svg1021"
   xmlns:inkscape="http://www.inkscape.org/namespaces/inkscape"
   xmlns:sodipodi="http://sodipodi.sourceforge.net/DTD/sodipodi-0.dtd"
   xmlns="http://www.w3.org/2000/svg"
   xmlns:svg="http://www.w3.org/2000/svg">
  <defs
     id="defs650" />
  <sodipodi:namedview
     id="namedview429"
     pagecolor="#ffffff"
     bordercolor="#000000"
     borderopacity="0.25"
     inkscape:showpageshadow="2"
     inkscape:pageopacity="0.0"
     inkscape:pagecheckerboard="true"
     inkscape:deskcolor="#d1d1d1"
     showgrid="false"
     inkscape:zoom="9.8333333"
     inkscape:cx="-3.4067797"
     inkscape:cy="14.898305"
     inkscape:window-width="1280"
     inkscape:window-height="1387"
     inkscape:window-x="1280"
     inkscape:window-y="25"
     inkscape:window-maximized="0"
     inkscape:current-layer="svg1021" />
  <ellipse
     cx="12"
     cy="12"
     style="stroke-width:1.18812;fill:#000000;stroke:none;opacity:0.25"
     rx="11.40594"
     ry="11.405939"
     id="ellipse653" />
  <ellipse
     cx="12"
     cy="12"
     style="fill:none;stroke:#ffffff;stroke-width:1.18812"
     rx="11.40594"
     ry="11.405939"
     id="ellipse653-9" />
  <path
     d="M 7.0218748,15.31825 V 11.9995 a 4.9781252,4.9781252 0 0 1 9.9562502,0 v 3.31875"
     id="path261"
     style="stroke:#ffffff;stroke-width:1.10625" />
  <path
     d="m 16.978125,15.871375 a 1.10625,1.10625 0 0 1 -1.10625,1.10625 H 15.31875 A 1.10625,1.10625 0 0 1 14.2125,15.871375 V 14.212 a 1.10625,1.10625 0 0 1 1.10625,-1.10625 h 1.659375 z m -9.9562502,0 a 1.10625,1.10625 0 0 0 1.10625,1.10625 h 0.553125 a 1.10625,1.10625 0 0 0 1.10625,-1.10625 V 14.212 a 1.10625,1.10625 0 0 0 -1.10625,-1.10625 h -1.659375 z"
     id="path263"
     style="stroke:#ffffff;stroke-width:1.10625" />
</svg>
