<svg xmlns="http://www.w3.org/2000/svg" width="82.49" height="82.5" viewBox="0 0 82.49 82.5"><path d="M58.4,41.82c0-16.53,6.12-26.95,13.41-28C64.52,4.8,52.33,0,41.25,0a41.14,41.14,0,0,0-30.7,13.69c7.21,1.45,9.66,7.48,9.66,16.81H11.39c0-5.49-1.15-8.36-4.42-8.36a3.61,3.61,0,0,0-3.27,2c-.1.22-.2.44-.29.66A6.9,6.9,0,0,0,3,27.23C3,38.66,21.79,38.09,21.79,55.65c0,6.87-5.26,13.27-11.17,13.27a41.28,41.28,0,0,0,60.76.49c-6.92-1.75-13-11.73-13-27.59ZM54.48,69.06H45V45.57H34.83V69.06H25.38V14.87h9.45V36.71H45V14.87h9.44V69.06Z" transform="translate(0)" fill="#fff" fill-rule="evenodd"/><path d="M8.15,60.42c2.64,0,4.51-2.32,4.51-5.69,0-7-6.1-8.34-12.66-14.23-.09,12,3.61,19.92,8.15,19.92Z" transform="translate(0)" fill="#fff" fill-rule="evenodd"/><path d="M67.77,40.94c0-9.1,2.67-18.23,7.5-18.23,5.78,0,7.22,14.1,7.22,18.54,0,9.77-3.07,18.61-7.22,18.61-5,0-7.5-9.29-7.5-18.92Z" transform="translate(0)" fill="#fff" fill-rule="evenodd"/><path d="M71.66,74.66a3.24,3.24,0,1,1,1,2.3,3.24,3.24,0,0,1-1-2.3Zm.56,2.7a3.75,3.75,0,0,0,2.69,1.11,3.81,3.81,0,1,0-2.69-1.11Z" transform="translate(0)" fill="#fff"/><path d="M74,74.52V73h1.07a1,1,0,0,1,.6.14.68.68,0,0,1,.29.6.75.75,0,0,1-.22.56.91.91,0,0,1-.74.24Zm2.55,2.3-.85-2a1.12,1.12,0,0,0,.8-1.11,1.18,1.18,0,0,0-.45-.94,1.55,1.55,0,0,0-1-.27H73.48v4.31H74V75h1.19L76,76.82Z" transform="translate(0)" fill="#fff"/></svg>