<?xml version="1.0" encoding="utf-8"?>
<!-- Generator: Adobe Illustrator 25.2.3, SVG Export Plug-In . SVG Version: 6.00 Build 0)  -->
<svg version="1.1" id="Layer_1" xmlns="http://www.w3.org/2000/svg" xmlns:xlink="http://www.w3.org/1999/xlink" x="0px" y="0px"
	 viewBox="0 0 38 38" style="enable-background:new 0 0 38 38;" xml:space="preserve">
<style type="text/css">
	.st0{opacity:0.8;fill-rule:evenodd;clip-rule:evenodd;fill:#FFFFFF;enable-background:new    ;}
</style>
<g id="Page-1">
	<g id="Background-oval" transform="translate(56.000000, 76.000000)">
		<ellipse id="Oval-1" class="st0" cx="-37" cy="-57" rx="19" ry="19">
		</ellipse>
	</g>
</g>
<path d="M19,5.8c-6.9,0-12.5,5.6-12.5,12.5v6.5c0,1.8,1.4,3.2,3.2,3.2c0,0,0,0,0,0h1.8c0.9,0,1.6-0.7,1.6-1.5c0,0,0,0,0,0v-8.3
	c0-0.9-0.7-1.5-1.5-1.5c0,0,0,0,0,0H9.7c-0.4,0-0.8,0.1-1.1,0.2l0,0c0.3-2.1,1.2-4.2,2.7-5.7l0.1-0.1c0.2-0.2,0.3-0.3,0.5-0.5
	l0.2-0.2c0.2-0.1,0.3-0.3,0.5-0.4l0.3-0.2c0.2-0.1,0.3-0.2,0.5-0.3l0.4-0.2C13.9,9.1,14,9,14.2,8.9l0.4-0.2l0.5-0.2l0.5-0.2L16,8.2
	L16.6,8L17,8c0.2,0,0.4-0.1,0.7-0.1l0.3,0c0.4-0.1,0.7-0.1,1-0.1s0.7,0,1,0.1l0.3,0c0.2,0,0.4,0.1,0.7,0.1L21.4,8L22,8.2l0.4,0.1
	l0.5,0.2l0.5,0.2l0.4,0.2C24,9,24.1,9.1,24.3,9.2l0.4,0.2c0.2,0.1,0.3,0.2,0.5,0.3s0.2,0.1,0.3,0.2c0.1,0.1,0.3,0.3,0.5,0.4l0.2,0.2
	c0.2,0.2,0.3,0.3,0.5,0.5l0.1,0.1c1.5,1.6,2.4,3.6,2.7,5.7l0,0c-0.4-0.1-0.7-0.2-1.1-0.2h-1.8c-0.9,0-1.5,0.7-1.5,1.5l0,0v8.3
	c0,0.9,0.7,1.5,1.5,1.5h1.8c1.8,0,3.2-1.4,3.2-3.2c0,0,0,0,0,0v-6.5C31.5,11.4,25.9,5.8,19,5.8z M9.7,18.6h1.4V26H9.7
	c-0.7,0-1.2-0.6-1.2-1.3v-4.9C8.5,19.2,9,18.6,9.7,18.6z M29.5,24.8c0,0.7-0.6,1.3-1.3,1.3h-1.3v-7.4h1.4c0.7,0,1.2,0.6,1.2,1.3
	V24.8z"/>
</svg>
