<?xml version="1.0" encoding="UTF-8" standalone="no"?>
<svg
   width="32"
   height="32"
   viewBox="0 0 24 24"
   fill="none"
   stroke="currentColor"
   stroke-width="2"
   stroke-linecap="round"
   stroke-linejoin="round"
   class="sho-icon sho-icon-camera"
   version="1.1"
   inkscape:version="1.2.2 (b0a8486, 2022-12-01)"
   sodipodi:docname="brand-twitter.svg"
   id="svg1021"
   xmlns:inkscape="http://www.inkscape.org/namespaces/inkscape"
   xmlns:sodipodi="http://sodipodi.sourceforge.net/DTD/sodipodi-0.dtd"
   xmlns="http://www.w3.org/2000/svg"
   xmlns:svg="http://www.w3.org/2000/svg">
  <defs
     id="defs650" />
  <sodipodi:namedview
     id="namedview429"
     pagecolor="#ffffff"
     bordercolor="#000000"
     borderopacity="0.25"
     inkscape:showpageshadow="2"
     inkscape:pageopacity="0.0"
     inkscape:pagecheckerboard="true"
     inkscape:deskcolor="#d1d1d1"
     showgrid="false"
     inkscape:zoom="9.8333333"
     inkscape:cx="-14.59322"
     inkscape:cy="26.59322"
     inkscape:window-width="1280"
     inkscape:window-height="1387"
     inkscape:window-x="0"
     inkscape:window-y="25"
     inkscape:window-maximized="0"
     inkscape:current-layer="svg1021" />
  <ellipse
     cx="12"
     cy="12"
     style="stroke-width:1.18812;fill:#000000;stroke:none;opacity:0.25"
     rx="11.40594"
     ry="11.405939"
     id="ellipse653" />
  <ellipse
     cx="12"
     cy="12"
     style="fill:none;stroke:#ffffff;stroke-width:1.18812"
     rx="11.40594"
     ry="11.405939"
     id="ellipse653-9" />
  <path
     d="M 17.557821,7.4731751 A 5.5073406,5.5073406 0 0 1 15.971303,8.2462238 2.2635674,2.2635674 0 0 0 11.999956,9.7620056 V 10.267266 A 5.386078,5.386078 0 0 1 7.4526094,7.9784354 c 0,0 -2.0210423,4.5473466 2.5263036,6.5683876 a 5.8812333,5.8812333 0 0 1 -3.5368247,1.010522 c 4.5473457,2.526303 10.1052127,0 10.1052127,-5.8104972 a 2.2736727,2.2736727 0 0 0 -0.04042,-0.4193663 3.9006118,3.9006118 0 0 0 1.050943,-1.8543064 z"
     id="path1132"
     style="stroke:#ffffff;stroke-width:1.0125;stroke-dasharray:none" />
</svg>
