<?xml version="1.0" encoding="UTF-8" standalone="no"?>
<svg
   width="32"
   height="32"
   viewBox="0 0 24 24"
   fill="none"
   stroke="currentColor"
   stroke-width="2"
   stroke-linecap="round"
   stroke-linejoin="round"
   class="sho-icon sho-icon-camera"
   version="1.1"
   inkscape:version="1.2.2 (b0a8486, 2022-12-01)"
   sodipodi:docname="youtube.svg"
   id="svg1021"
   xmlns:inkscape="http://www.inkscape.org/namespaces/inkscape"
   xmlns:sodipodi="http://sodipodi.sourceforge.net/DTD/sodipodi-0.dtd"
   xmlns="http://www.w3.org/2000/svg"
   xmlns:svg="http://www.w3.org/2000/svg">
  <defs
     id="defs650" />
  <sodipodi:namedview
     id="namedview429"
     pagecolor="#ffffff"
     bordercolor="#000000"
     borderopacity="0.25"
     inkscape:showpageshadow="2"
     inkscape:pageopacity="0.0"
     inkscape:pagecheckerboard="true"
     inkscape:deskcolor="#d1d1d1"
     showgrid="false"
     inkscape:zoom="9.8333333"
     inkscape:cx="10.830509"
     inkscape:cy="24.152542"
     inkscape:window-width="1280"
     inkscape:window-height="1387"
     inkscape:window-x="0"
     inkscape:window-y="25"
     inkscape:window-maximized="0"
     inkscape:current-layer="svg1021" />
  <ellipse
     cx="12"
     cy="12"
     style="stroke-width:1.18812;fill:#000000;stroke:none;opacity:0.25"
     rx="11.40594"
     ry="11.405939"
     id="ellipse653" />
  <ellipse
     cx="12"
     cy="12"
     style="fill:none;stroke:#ffffff;stroke-width:1.18812"
     rx="11.40594"
     ry="11.405939"
     id="ellipse653-9" />
  <path
     d="M 18.113325,8.9201367 A 1.6124331,1.6124331 0 0 0 16.988102,7.7601129 C 15.990482,7.516508 12,7.516508 12,7.516508 c 0,0 -3.9904818,0 -4.9881023,0.2668054 A 1.6124331,1.6124331 0 0 0 5.8866746,8.9433372 16.820345,16.820345 0 0 0 5.6198692,12.0116 16.820345,16.820345 0 0 0 5.8866746,15.103064 1.6124331,1.6124331 0 0 0 7.0118977,16.216686 C 8.0095182,16.483492 12,16.483492 12,16.483492 c 0,0 3.990482,0 4.988102,-0.266806 A 1.6124331,1.6124331 0 0 0 18.113325,15.056663 16.820345,16.820345 0 0 0 18.380131,12.0116 16.820345,16.820345 0 0 0 18.113325,8.9201367 Z"
     id="path1463"
     style="stroke:#ffffff;stroke-width:1.0125;stroke-dasharray:none" />
  <polygon
     points="9.75,8.48 9.75,15.02 15.5,11.75 "
     id="polygon1465"
     transform="matrix(0.58001189,0,0,0.58001189,5.0398573,5.1964604)"
     style="stroke:#ffffff;stroke-width:1.74565387;stroke-dasharray:none" />
</svg>
