<?xml version="1.0" encoding="UTF-8" standalone="no"?>
<svg
   width="32"
   height="32"
   viewBox="0 0 24 24"
   fill="none"
   stroke="currentColor"
   stroke-width="2"
   stroke-linecap="round"
   stroke-linejoin="round"
   class="sho-icon sho-icon-camera"
   version="1.1"
   inkscape:version="1.2.2 (b0a8486, 2022-12-01)"
   sodipodi:docname="phone.svg"
   id="svg1021"
   xmlns:inkscape="http://www.inkscape.org/namespaces/inkscape"
   xmlns:sodipodi="http://sodipodi.sourceforge.net/DTD/sodipodi-0.dtd"
   xmlns="http://www.w3.org/2000/svg"
   xmlns:svg="http://www.w3.org/2000/svg">
  <defs
     id="defs650" />
  <sodipodi:namedview
     id="namedview429"
     pagecolor="#ffffff"
     bordercolor="#000000"
     borderopacity="0.25"
     inkscape:showpageshadow="2"
     inkscape:pageopacity="0.0"
     inkscape:pagecheckerboard="true"
     inkscape:deskcolor="#d1d1d1"
     showgrid="false"
     inkscape:zoom="9.8333333"
     inkscape:cx="-5.8474576"
     inkscape:cy="26.59322"
     inkscape:window-width="1280"
     inkscape:window-height="1387"
     inkscape:window-x="1280"
     inkscape:window-y="25"
     inkscape:window-maximized="0"
     inkscape:current-layer="svg1021" />
  <ellipse
     cx="12"
     cy="12"
     style="stroke-width:1.18812;fill:#000000;stroke:none;opacity:0.25"
     rx="11.40594"
     ry="11.405939"
     id="ellipse653" />
  <ellipse
     cx="12"
     cy="12"
     style="fill:none;stroke:#ffffff;stroke-width:1.18812"
     rx="11.40594"
     ry="11.405939"
     id="ellipse653-9" />
  <path
     d="m 17.072783,14.528316 v 1.530449 A 1.0202991,1.0202991 0 0 1 15.960657,17.079064 10.095863,10.095863 0 0 1 11.558065,15.512902 9.9479173,9.9479173 0 0 1 8.4971696,12.452005 10.095863,10.095863 0 0 1 6.9310066,8.0290087 1.0202991,1.0202991 0 0 1 7.9462046,6.9168825 h 1.53045 a 1.0202991,1.0202991 0 0 1 1.0202994,0.8774574 6.5503215,6.5503215 0 0 0 0.357105,1.4335206 1.0202991,1.0202991 0 0 1 -0.229568,1.0764155 l -0.6478895,0.64789 a 8.162395,8.162395 0 0 0 3.0608975,3.060899 l 0.64789,-0.647893 a 1.0202991,1.0202991 0 0 1 1.076416,-0.229567 6.5503215,6.5503215 0 0 0 1.433521,0.357105 1.0202991,1.0202991 0 0 1 0.877457,1.035606 z"
     id="path658"
     style="stroke-width:1.02029;stroke:#ffffff" />
</svg>
