<?xml version="1.0" standalone="no"?>
<!DOCTYPE svg PUBLIC "-//W3C//DTD SVG 1.1//EN" "http://www.w3.org/Graphics/SVG/1.1/DTD/svg11.dtd" >
<svg xmlns="http://www.w3.org/2000/svg" xmlns:xlink="http://www.w3.org/1999/xlink" version="1.1">
<metadata>
Created by FontForge 20201107 at Wed Dec  9 17:56:12 2020
 By Nikolai Pohorelsky
Copyright \(c\) 2020 by Optimo SARL. All rights reserved.
</metadata>
<defs>
<font id="AntiqueLegacy-Thin" horiz-adv-x="660" >
  <font-face 
    font-family="Antique Legacy Thin"
    font-weight="250"
    font-stretch="normal"
    units-per-em="1000"
    panose-1="2 11 3 4 1 1 1 1 1 4"
    ascent="800"
    descent="-200"
    x-height="515"
    cap-height="700"
    bbox="-134 -243 1195 1041"
    underline-thickness="50"
    underline-position="-125"
    stemh="47"
    stemv="55"
    unicode-range="U+000D-FEFF"
  />
<missing-glyph horiz-adv-x="688" 
d="M268 779h49l-44 -44c-71 -19 -127 -75 -147 -147l-54 -54v49zM170 779h49l-147 -147v49zM562 779h49l-104 -104c-8 9 -17 16 -26 23zM464 779h49l-62 -62c-11 6 -23 11 -34 15zM366 779h49l-38 -38c-9 1 -19 2 -28 2c-8 0 -12 0 -20 -1zM121 779l-49 -49v49h49zM616 735
v-49l-70 -70c-5 10 -11 20 -18 31zM616 637v-49l-52 -52c0 15 -3 30 -6 43zM72 387l148 148l39 -2c0 36 27 75 75 75h8l-270 -270v49zM72 289l309 309c11 -6 19 -14 26 -23l-335 -335v49zM72 485l56 56l46 -3l-102 -102v49zM616 539v-49l-216 -216v7c0 42 27 52 70 85
c21 17 75 46 89 116zM72 191l347 347v-15c0 -45 -56 -74 -92 -108c-15 -15 -27 -33 -36 -54l-219 -219v49zM616 441v-49l-224 -224h-49zM616 343v-49l-210 -210v49zM72 93l206 206v-38h11l-217 -217v49zM77 0l261 261h49l-93 -93h-23v-23l-145 -145h-49zM371 0l33 33h2v2
l210 210v-49l-196 -196h-49zM469 0l147 147v-49l-98 -98h-49zM175 0l96 96v-49l-47 -47h-49zM616 0h-49l49 49v-49zM273 0l33 33h49l-33 -33h-49z" />
    <glyph glyph-name="f_f" unicode="ff" horiz-adv-x="499" 
d="M331 0v468h-173v-468h-55v468h-89v47h89v49c0 47 6 79 27 104c20 23 54 34 103 34c15 0 18 1 38 -2v-47c-15 3 -23 2 -38 2c-71 0 -75 -36 -75 -96v-44h173v49c0 47 6 79 27 104c20 23 54 34 103 34c15 0 18 1 38 -2v-47c-15 3 -23 2 -38 2c-71 0 -75 -36 -75 -96v-44
h102v-47h-102v-468h-55z" />
    <glyph glyph-name="f_i" unicode="fi" horiz-adv-x="466" 
d="M260 515v-47h-102v-468h-55v468h-89v47h89v49c0 47 6 79 27 104c20 23 54 34 103 34c15 0 18 1 38 -2v-47c-15 3 -23 2 -38 2c-71 0 -75 -36 -75 -96v-44h102zM331 604v96h55v-96h-55zM331 0v515h55v-515h-55z" />
    <glyph glyph-name="f_l" unicode="fl" horiz-adv-x="466" 
d="M260 515v-47h-102v-468h-55v468h-89v47h89v49c0 47 6 79 27 104c20 23 54 34 103 34c15 0 18 1 38 -2v-47c-15 3 -23 2 -38 2c-71 0 -75 -36 -75 -96v-44h102zM331 0v700h55v-700h-55z" />
    <glyph glyph-name="f_f_i" unicode="ffi" horiz-adv-x="694" 
d="M331 0v468h-173v-468h-55v468h-89v47h89v49c0 47 6 79 27 104c20 23 54 34 103 34c15 0 18 1 38 -2v-47c-15 3 -23 2 -38 2c-71 0 -75 -36 -75 -96v-44h173v49c0 47 6 79 27 104c20 23 54 34 103 34c15 0 18 1 38 -2v-47c-15 3 -23 2 -38 2c-71 0 -75 -36 -75 -96v-44
h102v-47h-102v-468h-55zM559 605v96h55v-96h-55zM559 1v515h55v-515h-55z" />
    <glyph glyph-name="f_f_l" unicode="ffl" horiz-adv-x="694" 
d="M331 0v468h-173v-468h-55v468h-89v47h89v49c0 47 6 79 27 104c20 23 54 34 103 34c15 0 18 1 38 -2v-47c-15 3 -23 2 -38 2c-71 0 -75 -36 -75 -96v-44h173v49c0 47 6 79 27 104c20 23 54 34 103 34c15 0 18 1 38 -2v-47c-15 3 -23 2 -38 2c-71 0 -75 -36 -75 -96v-44
h102v-47h-102v-468h-55zM559 0v700h55v-700h-55z" />
    <glyph glyph-name=".notdef" horiz-adv-x="688" 
d="M268 779h49l-44 -44c-71 -19 -127 -75 -147 -147l-54 -54v49zM170 779h49l-147 -147v49zM562 779h49l-104 -104c-8 9 -17 16 -26 23zM464 779h49l-62 -62c-11 6 -23 11 -34 15zM366 779h49l-38 -38c-9 1 -19 2 -28 2c-8 0 -12 0 -20 -1zM121 779l-49 -49v49h49zM616 735
v-49l-70 -70c-5 10 -11 20 -18 31zM616 637v-49l-52 -52c0 15 -3 30 -6 43zM72 387l148 148l39 -2c0 36 27 75 75 75h8l-270 -270v49zM72 289l309 309c11 -6 19 -14 26 -23l-335 -335v49zM72 485l56 56l46 -3l-102 -102v49zM616 539v-49l-216 -216v7c0 42 27 52 70 85
c21 17 75 46 89 116zM72 191l347 347v-15c0 -45 -56 -74 -92 -108c-15 -15 -27 -33 -36 -54l-219 -219v49zM616 441v-49l-224 -224h-49zM616 343v-49l-210 -210v49zM72 93l206 206v-38h11l-217 -217v49zM77 0l261 261h49l-93 -93h-23v-23l-145 -145h-49zM371 0l33 33h2v2
l210 210v-49l-196 -196h-49zM469 0l147 147v-49l-98 -98h-49zM175 0l96 96v-49l-47 -47h-49zM616 0h-49l49 49v-49zM273 0l33 33h49l-33 -33h-49z" />
    <glyph glyph-name="uni2003" unicode="&#x2003;" horiz-adv-x="1000" 
 />
    <glyph glyph-name="uni2002" unicode="&#x2002;" horiz-adv-x="500" 
 />
    <glyph glyph-name="uni2005" unicode="&#x2005;" horiz-adv-x="250" 
 />
    <glyph glyph-name="uni200A" unicode="&#x200a;" horiz-adv-x="42" 
 />
    <glyph glyph-name="uni2009" unicode="&#x2009;" horiz-adv-x="125" 
 />
    <glyph glyph-name="uni2004" unicode="&#x2004;" horiz-adv-x="333" 
 />
    <glyph glyph-name="uni200B" unicode="&#x200b;" horiz-adv-x="0" 
 />
    <glyph glyph-name="uni2007" unicode="&#x2007;" horiz-adv-x="586" 
 />
    <glyph glyph-name="uni2008" unicode="&#x2008;" horiz-adv-x="205" 
 />
    <glyph glyph-name="CR" unicode="&#xd;" horiz-adv-x="225" 
 />
    <glyph glyph-name="space" unicode=" " horiz-adv-x="225" 
 />
    <glyph glyph-name="uni00A0" unicode="&#xa0;" horiz-adv-x="225" 
 />
    <glyph glyph-name="space.frac" horiz-adv-x="53" 
 />
    <glyph glyph-name="uni2000" unicode="&#x2000;" horiz-adv-x="500" 
 />
    <glyph glyph-name="uni2001" unicode="&#x2001;" horiz-adv-x="1000" 
 />
    <glyph glyph-name="NULL" horiz-adv-x="0" 
 />
    <glyph glyph-name="NULL" horiz-adv-x="0" 
 />
    <glyph glyph-name="uni2007.osf" horiz-adv-x="582" 
 />
    <glyph glyph-name="uni2007.tf" 
 />
    <glyph glyph-name="uni2007.tosf" 
 />
    <glyph glyph-name="uniFEFF" unicode="&#xfeff;" horiz-adv-x="0" 
 />
    <glyph glyph-name="uni2006" unicode="&#x2006;" horiz-adv-x="167" 
 />
    <glyph glyph-name="A" unicode="A" horiz-adv-x="634" 
d="M3 0l281 700h70l273 -700h-63l-86 220h-327l-85 -220h-63zM317 648h-2c-18 -49 -50 -134 -73 -192l-73 -186h290l-70 186c-21 58 -54 142 -72 192z" />
    <glyph glyph-name="B" unicode="B" horiz-adv-x="666" 
d="M88 0v700h286c68 0 117 -11 156 -38s64 -69 64 -132c0 -77 -51 -143 -124 -159v-2c91 -11 150 -79 150 -170c0 -38 -8 -101 -60 -145c-37 -31 -91 -54 -192 -54h-280zM146 649v-259h230c107 0 159 52 159 136c0 92 -76 123 -157 123h-232zM146 339v-288h231
c98 0 184 37 184 150c0 89 -68 138 -184 138h-231z" />
    <glyph glyph-name="C" unicode="C" horiz-adv-x="702" 
d="M609 261h59c-20 -156 -123 -276 -294 -276c-220 0 -328 172 -328 365c0 192 109 364 329 364c149 0 265 -91 283 -223h-60c-23 104 -104 173 -223 173c-191 0 -269 -160 -269 -314s77 -314 268 -314c142 0 221 107 235 225z" />
    <glyph glyph-name="D" unicode="D" horiz-adv-x="697" 
d="M88 0v700h217c127 0 197 -27 250 -79c62 -60 93 -150 93 -271c0 -119 -29 -208 -88 -268c-53 -53 -129 -82 -252 -82h-220zM147 649v-598h153c103 0 167 20 214 65c49 47 74 125 74 234c0 111 -26 190 -78 238c-48 44 -115 61 -210 61h-153z" />
    <glyph glyph-name="E" unicode="E" horiz-adv-x="618" 
d="M88 0v700h479v-51h-420v-262h393v-51h-393v-285h425v-51h-484z" />
    <glyph glyph-name="F" unicode="F" horiz-adv-x="555" 
d="M88 0v700h446v-51h-387v-262h345v-51h-345v-336h-59z" />
    <glyph glyph-name="G" unicode="G" horiz-adv-x="741" 
d="M374 36c159 0 250 113 250 266h-241v51h291v-353h-49l-3 127h-3c-49 -100 -142 -142 -245 -142c-217 0 -328 172 -328 365c0 192 109 364 329 364c159 0 271 -96 289 -228h-60c-23 104 -102 178 -229 178c-191 0 -269 -160 -269 -314s77 -314 268 -314z" />
    <glyph glyph-name="H" unicode="H" horiz-adv-x="721" 
d="M88 0v700h59v-307h427v307h59v-700h-59v342h-427v-342h-59z" />
    <glyph glyph-name="I" unicode="I" horiz-adv-x="235" 
d="M88 0v700h59v-700h-59z" />
    <glyph glyph-name="J" unicode="J" horiz-adv-x="498" 
d="M356 222v478h59v-506c0 -63 -12 -111 -35 -144c-30 -43 -84 -65 -162 -65c-65 0 -112 18 -143 50c-41 43 -52 108 -52 185h58c0 -45 1 -107 36 -146c21 -23 54 -39 103 -39c52 0 88 16 109 47c20 31 27 76 27 140z" />
    <glyph glyph-name="K" unicode="K" horiz-adv-x="656" 
d="M88 0v700h59v-387c40 39 103 96 171 159l245 228h80l-312 -288l329 -412h-78l-296 370l-139 -130v-240h-59z" />
    <glyph glyph-name="L" unicode="L" horiz-adv-x="554" 
d="M88 0v700h59v-649h395v-51h-454z" />
    <glyph glyph-name="M" unicode="M" horiz-adv-x="851" 
d="M88 0v700h93l179 -452l68 -175h2l67 175l175 452h91v-700h-58v351c0 132 1 212 1 281h-2c-15 -45 -60 -156 -95 -246l-154 -386h-57l-152 380c-33 86 -84 206 -99 252h-2c1 -28 1 -69 1 -120v-512h-58z" />
    <glyph glyph-name="N" unicode="N" horiz-adv-x="723" 
d="M88 0v700h69l292 -421c36 -52 82 -124 126 -187h2c0 95 -1 194 -1 291v317h59v-700h-68l-266 384l-153 227h-2c0 -84 1 -176 1 -263v-348h-59z" />
    <glyph glyph-name="O" unicode="O" horiz-adv-x="749" 
d="M46 350c0 192 110 364 330 364c217 0 327 -172 327 -364c0 -193 -110 -365 -327 -365c-220 0 -330 172 -330 365zM106 350c0 -154 79 -314 270 -314c188 0 267 160 267 314s-79 314 -267 314c-191 0 -270 -160 -270 -314z" />
    <glyph glyph-name="P" unicode="P" horiz-adv-x="629" 
d="M147 303v-303h-59v700h295c85 0 132 -20 168 -57c33 -33 52 -81 52 -141s-19 -107 -52 -142c-36 -37 -83 -57 -168 -57h-236zM147 649v-295h227c59 0 96 12 124 36c28 25 45 63 45 112c0 51 -17 86 -45 111c-28 24 -65 36 -124 36h-227z" />
    <glyph glyph-name="Q" unicode="Q" horiz-adv-x="751" 
d="M46 350c0 192 110 364 330 364c217 0 327 -172 327 -364c0 -109 -35 -212 -106 -281l100 -76l-30 -38l-109 82c-49 -33 -109 -52 -182 -52c-220 0 -330 172 -330 365zM418 143l31 40l105 -81c63 61 89 155 89 248c0 154 -79 314 -267 314c-191 0 -270 -160 -270 -314
s79 -314 270 -314c53 0 99 11 138 34z" />
    <glyph glyph-name="R" unicode="R" horiz-adv-x="681" 
d="M88 0v700h309c68 0 120 -14 157 -42c39 -29 64 -77 64 -141c0 -85 -42 -152 -130 -173v-2c83 -15 108 -69 113 -160l7 -105c3 -33 6 -51 21 -74v-3h-61c-12 19 -14 39 -17 78l-6 91c-4 82 -28 145 -149 145h-249v-314h-59zM147 649v-285h255c84 0 156 50 156 147
c0 81 -49 138 -156 138h-255z" />
    <glyph glyph-name="S" unicode="S" horiz-adv-x="623" 
d="M37 226h61c2 -118 91 -190 221 -190c133 0 203 56 203 149c0 45 -21 75 -57 96c-29 19 -70 29 -117 41l-61 15c-127 32 -224 58 -224 186c0 129 114 191 245 191c147 0 254 -65 254 -213h-59c-5 104 -64 162 -195 162c-116 0 -185 -47 -185 -134c0 -77 50 -105 172 -135
l72 -18c57 -13 110 -29 147 -56c43 -29 68 -68 68 -131c0 -141 -113 -204 -263 -204c-160 0 -278 79 -282 241z" />
    <glyph glyph-name="T" unicode="T" horiz-adv-x="576" 
d="M12 649v51h552v-51h-247v-649h-59v649h-246z" />
    <glyph glyph-name="U" unicode="U" horiz-adv-x="700" 
d="M619 265c0 -104 -19 -175 -80 -224c-43 -35 -105 -56 -189 -56s-146 21 -189 56c-61 49 -80 120 -80 224v435h59v-437c0 -97 17 -143 60 -180c37 -31 87 -47 150 -47s113 16 150 47c43 37 60 83 60 180v437h59v-435z" />
    <glyph glyph-name="V" unicode="V" horiz-adv-x="610" 
d="M269 0l-260 700h64l145 -399l87 -243h2c31 88 62 174 87 247l143 395h64l-260 -700h-72z" />
    <glyph glyph-name="W" unicode="W" horiz-adv-x="914" 
d="M209 0l-194 700h65l101 -391c17 -65 41 -161 60 -241h2c23 81 45 165 66 241l111 391h77l110 -392c21 -76 45 -159 66 -240h2c20 80 45 180 61 240l103 392h60l-193 -700h-66l-112 399c-28 100 -55 193 -68 250h-2c-15 -61 -38 -144 -69 -250l-114 -399h-66z" />
    <glyph glyph-name="X" unicode="X" horiz-adv-x="585" 
d="M256 361l-237 339h70l203 -300l208 300h67l-239 -341l252 -359h-72l-218 317l-218 -317h-67z" />
    <glyph glyph-name="Y" unicode="Y" horiz-adv-x="619" 
d="M280 0v288l-275 412h71l234 -362l233 362h71l-275 -412v-288h-59z" />
    <glyph glyph-name="Z" unicode="Z" horiz-adv-x="585" 
d="M51 649v51h500v-55l-467 -594h478v-51h-542v55l466 594h-435z" />
    <glyph glyph-name="a" unicode="a" horiz-adv-x="537" 
d="M408 87h-2c-28 -57 -96 -98 -184 -98c-97 0 -177 51 -177 151c0 115 110 137 233 155l62 9c59 8 67 26 67 67c0 67 -32 111 -135 111c-91 0 -147 -34 -147 -129h-56c0 125 89 174 203 174c51 0 100 -7 136 -34c31 -23 52 -58 52 -123v-290c0 -27 14 -41 41 -41
c9 0 12 0 21 1v-40c-16 -1 -26 -2 -37 -2c-55 0 -77 26 -77 75v14zM407 188v95c-8 -9 -22 -15 -66 -23l-62 -11c-103 -18 -176 -32 -176 -108c0 -65 52 -106 127 -106c47 0 96 14 129 46c29 27 48 66 48 107z" />
    <glyph glyph-name="b" unicode="b" horiz-adv-x="593" 
d="M80 0v700h56v-285h3c28 75 105 114 182 114c156 0 230 -126 230 -272c0 -144 -76 -272 -231 -272c-83 0 -156 44 -184 113h-3c1 -15 1 -53 1 -69v-29h-54zM495 257c0 108 -49 226 -174 226c-139 0 -187 -117 -187 -226c0 -107 46 -225 186 -225c124 0 175 117 175 225z
" />
    <glyph glyph-name="c" unicode="c" horiz-adv-x="535" 
d="M496 357h-56c-17 79 -72 126 -156 126c-134 0 -186 -113 -186 -226c0 -110 49 -225 186 -225c80 0 151 62 161 148h54c-9 -59 -33 -106 -72 -142c-39 -35 -87 -53 -143 -53c-156 0 -242 122 -242 272s86 272 242 272c105 0 196 -54 212 -172z" />
    <glyph glyph-name="d" unicode="d" horiz-adv-x="593" 
d="M513 0h-54v29c0 16 0 54 1 69h-3c-28 -69 -101 -113 -184 -113c-157 0 -231 126 -231 270c0 146 74 274 230 274c77 0 154 -39 182 -114h3v285h56v-700zM98 255c0 -107 51 -223 175 -223c140 0 186 118 186 225c0 109 -48 226 -187 226c-124 0 -174 -119 -174 -228z" />
    <glyph glyph-name="e" unicode="e" horiz-adv-x="558" 
d="M516 244h-420c0 -96 62 -212 186 -212c95 0 156 56 177 133h53c-25 -115 -114 -180 -230 -180c-163 0 -240 126 -240 272c0 136 76 272 240 272c166 0 234 -131 234 -271v-14zM97 290h364c0 107 -70 193 -179 193c-115 0 -179 -88 -185 -193z" />
    <glyph glyph-name="f" unicode="f" horiz-adv-x="271" 
d="M260 515v-47h-102v-468h-55v468h-89v47h89v49c0 47 6 79 27 104c20 23 54 34 103 34c15 0 18 1 38 -2v-47c-15 3 -23 2 -38 2c-71 0 -75 -36 -75 -96v-44h102z" />
    <glyph glyph-name="g" unicode="g" horiz-adv-x="579" 
d="M499 515v-462c0 -153 -58 -235 -225 -235c-121 0 -201 43 -212 150h57c15 -75 59 -104 155 -104c119 0 170 48 170 184v22c0 21 1 43 2 54h-3c-27 -69 -96 -116 -173 -116c-160 0 -227 114 -227 260c0 145 79 261 230 261c91 0 148 -53 169 -110h3c-1 13 -1 47 -1 60v36
h55zM274 56c113 0 172 100 172 209c0 114 -51 218 -174 218c-124 0 -173 -108 -173 -217c0 -105 52 -210 175 -210z" />
    <glyph glyph-name="h" unicode="h" horiz-adv-x="566" 
d="M80 0v700h55v-172c0 -37 -1 -69 -1 -104h2c25 63 91 105 171 105c144 0 186 -76 186 -197v-332h-55v322c0 92 -30 161 -136 161c-104 0 -167 -79 -167 -182v-301h-55z" />
    <glyph glyph-name="i" unicode="i" horiz-adv-x="215" 
d="M80 604v96h55v-96h-55zM80 0v515h55v-515h-55z" />
    <glyph glyph-name="j" unicode="j" horiz-adv-x="215" 
d="M80 604v96h55v-96h-55zM135 515v-556c0 -93 -27 -134 -114 -134c-13 0 -18 1 -33 2v45c11 -1 17 -1 26 -1c49 0 66 26 66 79v565h55z" />
    <glyph glyph-name="k" unicode="k" horiz-adv-x="521" 
d="M81 0v700h55v-444l294 259h74l-219 -190l235 -325h-68l-208 287l-108 -92v-195h-55z" />
    <glyph glyph-name="l" unicode="l" horiz-adv-x="215" 
d="M80 0v700h55v-700h-55z" />
    <glyph glyph-name="m" unicode="m" horiz-adv-x="862" 
d="M734 0v350c0 73 -29 133 -116 133c-110 0 -156 -84 -156 -196v-287h-55v350c0 73 -29 133 -116 133c-110 0 -156 -84 -156 -196v-287h-55v515h54v-92h2c20 61 76 106 163 106c81 0 132 -39 152 -104h2c23 57 80 104 169 104c111 0 167 -60 167 -179v-350h-55z" />
    <glyph glyph-name="n" unicode="n" horiz-adv-x="566" 
d="M80 0v515h54v-91h2c25 63 91 105 171 105c144 0 186 -76 186 -197v-332h-55v322c0 92 -30 161 -136 161c-104 0 -167 -79 -167 -182v-301h-55z" />
    <glyph glyph-name="o" unicode="o" horiz-adv-x="568" 
d="M284 529c156 0 242 -122 242 -272c0 -148 -86 -272 -242 -272s-242 124 -242 272c0 150 86 272 242 272zM284 32c124 0 186 97 186 225c0 127 -62 226 -186 226s-186 -99 -186 -226c0 -128 62 -225 186 -225z" />
    <glyph glyph-name="p" unicode="p" horiz-adv-x="593" 
d="M80 -172v687h55v-40c0 -17 0 -33 -1 -60h3c14 37 38 66 73 85s72 29 111 29c156 0 230 -128 230 -274c0 -144 -76 -270 -231 -270c-83 0 -155 44 -183 113h-3c1 -15 2 -53 2 -69v-201h-56zM495 255c0 109 -49 228 -174 228c-139 0 -187 -117 -187 -226
c0 -107 46 -225 186 -225c124 0 175 116 175 223z" />
    <glyph glyph-name="q" unicode="q" horiz-adv-x="594" 
d="M514 -172h-56v201c0 16 1 54 2 69h-3c-28 -69 -100 -113 -183 -113c-157 0 -231 126 -231 270c0 146 74 274 230 274c39 0 75 -10 110 -29s60 -48 74 -85h3c-1 27 -1 43 -1 60v40h55v-687zM99 255c0 -107 51 -223 175 -223c140 0 186 118 186 225c0 109 -48 226 -187 226
c-124 0 -174 -119 -174 -228z" />
    <glyph glyph-name="r" unicode="r" horiz-adv-x="336" 
d="M80 0v515h54v-47c0 -19 0 -32 -1 -61h2c19 67 81 117 164 117c9 0 19 1 30 -2v-51c-9 1 -18 2 -30 2c-45 0 -81 -13 -109 -40c-37 -35 -55 -89 -55 -156v-277h-55z" />
    <glyph glyph-name="s" unicode="s" horiz-adv-x="486" 
d="M436 369h-56c-5 79 -60 114 -136 114c-72 0 -134 -24 -134 -93c0 -51 28 -72 116 -93l79 -19c76 -18 141 -45 141 -139c0 -101 -90 -154 -201 -154c-117 0 -203 56 -211 177h56c7 -80 60 -130 155 -130c99 0 146 44 146 105c0 59 -46 80 -113 95l-80 18
c-92 21 -144 52 -144 137c0 92 84 142 190 142c101 0 188 -49 192 -160z" />
    <glyph glyph-name="t" unicode="t" horiz-adv-x="287" 
d="M157 674v-159h105v-47h-105v-357c0 -47 15 -68 67 -68c16 0 27 1 38 2v-47c-13 -1 -27 -2 -51 -2c-81 0 -109 27 -109 114v358h-91v47h91v159h55z" />
    <glyph glyph-name="u" unicode="u" horiz-adv-x="562" 
d="M427 515h55v-515h-54v91h-2c-25 -61 -89 -105 -169 -105c-143 0 -184 76 -184 197v332h55v-322c0 -92 28 -161 134 -161c104 0 165 79 165 182v301z" />
    <glyph glyph-name="v" unicode="v" horiz-adv-x="471" 
d="M205 0l-196 515h61l87 -240c24 -68 58 -156 79 -223h2c23 68 54 153 79 226l86 237h58l-195 -515h-61z" />
    <glyph glyph-name="w" unicode="w" horiz-adv-x="743" 
d="M176 0l-165 515h60l77 -260c19 -61 42 -145 57 -201h2c15 56 36 126 57 201l76 260h65l73 -260c16 -57 38 -132 55 -201h2c20 71 40 140 59 201l79 260h59l-166 -515h-62l-75 258c-24 81 -39 134 -56 198h-2c-17 -57 -33 -122 -56 -198l-77 -258h-62z" />
    <glyph glyph-name="x" unicode="x" horiz-adv-x="480" 
d="M6 0l198 267l-183 248h71l148 -201h2l147 201h71l-186 -247l201 -268h-72l-165 222h-2l-161 -222h-69z" />
    <glyph glyph-name="y" unicode="y" horiz-adv-x="470" 
d="M211 1l-204 514h61l98 -259c19 -49 44 -120 71 -191h2c23 69 48 134 69 193l93 257h58c-73 -193 -151 -394 -224 -589c-28 -77 -54 -103 -138 -103c-12 0 -24 1 -36 3v46c11 -2 23 -3 36 -3c59 0 74 21 98 88z" />
    <glyph glyph-name="z" unicode="z" horiz-adv-x="474" 
d="M438 475l-347 -428h361v-47h-427v47l343 421h-320v47h390v-40z" />
    <glyph glyph-name="Agrave" unicode="&#xc0;" horiz-adv-x="634" 
d="M3 0l281 700h70l273 -700h-63l-86 220h-327l-85 -220h-63zM317 648h-2c-18 -49 -50 -134 -73 -192l-73 -186h290l-70 186c-21 58 -54 142 -72 192zM317 746l-122 129h69l95 -129h-42z" />
    <glyph glyph-name="Aacute" unicode="&#xc1;" horiz-adv-x="634" 
d="M3 0l281 700h70l273 -700h-63l-86 220h-327l-85 -220h-63zM317 648h-2c-18 -49 -50 -134 -73 -192l-73 -186h290l-70 186c-21 58 -54 142 -72 192zM325 746h-42l95 129h69z" />
    <glyph glyph-name="Acircumflex" unicode="&#xc2;" horiz-adv-x="634" 
d="M3 0l281 700h70l273 -700h-63l-86 220h-327l-85 -220h-63zM317 648h-2c-18 -49 -50 -134 -73 -192l-73 -186h290l-70 186c-21 58 -54 142 -72 192zM316 844l-91 -98h-49l110 129h60l110 -129h-49z" />
    <glyph glyph-name="Atilde" unicode="&#xc3;" horiz-adv-x="634" 
d="M3 0l281 700h70l273 -700h-63l-86 220h-327l-85 -220h-63zM317 648h-2c-18 -49 -50 -134 -73 -192l-73 -186h290l-70 186c-21 58 -54 142 -72 192zM194 760h-33c7 47 34 91 89 91c28 0 52 -11 73 -22l10 -5c20 -9 36 -17 53 -17c33 0 47 23 55 48h33
c-7 -45 -34 -91 -89 -91c-28 0 -50 11 -73 22l-10 5c-20 11 -36 17 -53 17c-33 0 -47 -21 -55 -48z" />
    <glyph glyph-name="Adieresis" unicode="&#xc4;" horiz-adv-x="634" 
d="M3 0l281 700h70l273 -700h-63l-86 220h-327l-85 -220h-63zM317 648h-2c-18 -49 -50 -134 -73 -192l-73 -186h290l-70 186c-21 58 -54 142 -72 192zM429 773h-51v96h51v-96zM256 773h-52v96h52v-96z" />
    <glyph glyph-name="Amacron" unicode="&#x100;" horiz-adv-x="634" 
d="M3 0l281 700h70l273 -700h-63l-86 220h-327l-85 -220h-63zM317 648h-2c-18 -49 -50 -134 -73 -192l-73 -186h290l-70 186c-21 58 -54 142 -72 192zM463 775h-294v40h294v-40z" />
    <glyph glyph-name="Abreve" unicode="&#x102;" horiz-adv-x="634" 
d="M3 0l281 700h70l273 -700h-63l-86 220h-327l-85 -220h-63zM317 648h-2c-18 -49 -50 -134 -73 -192l-73 -186h290l-70 186c-21 58 -54 142 -72 192zM317 745c-79 0 -140 37 -156 105l38 11c11 -49 65 -75 117 -75c55 0 108 26 117 75l38 -11c-13 -68 -75 -105 -154 -105z
" />
    <glyph glyph-name="Aring" unicode="&#xc5;" horiz-adv-x="634" 
d="M3 0l281 700h70l273 -700h-63l-86 220h-327l-85 -220h-63zM317 648h-2c-18 -49 -50 -134 -73 -192l-73 -186h290l-70 186c-21 58 -54 142 -72 192zM316 730c-45 0 -83 38 -83 83c0 47 38 84 83 84c47 0 84 -37 84 -84c0 -45 -37 -83 -84 -83zM262 813
c0 -29 25 -54 54 -54c31 0 55 25 55 54c0 31 -24 55 -55 55c-29 0 -54 -24 -54 -55z" />
    <glyph glyph-name="Aringacute" unicode="&#x1fa;" horiz-adv-x="634" 
d="M3 0l281 700h70l273 -700h-63l-86 220h-327l-85 -220h-63zM317 648h-2c-18 -49 -50 -134 -73 -192l-73 -186h290l-70 186c-21 58 -54 142 -72 192zM231 806c0 47 38 84 83 84c47 0 84 -37 84 -84c0 -45 -37 -83 -84 -83c-45 0 -83 38 -83 83zM260 806
c0 -29 25 -54 54 -54c31 0 55 25 55 54c0 31 -24 55 -55 55c-29 0 -54 -24 -54 -55zM337 912h-42l95 129h69z" />
    <glyph glyph-name="Aogonek" unicode="&#x104;" horiz-adv-x="634" 
d="M3 0l281 700h70l273 -700h-63l-86 220h-327l-85 -220h-63zM317 648h-2c-18 -49 -50 -134 -73 -192l-73 -186h290l-70 186c-21 58 -54 142 -72 192zM593 0h34c-65 -52 -85 -82 -85 -111c0 -27 18 -43 41 -43s38 12 54 36l26 -12c-19 -33 -43 -60 -94 -60
c-48 0 -77 31 -77 70c0 47 49 88 101 120z" />
    <glyph glyph-name="AE" unicode="&#xc6;" horiz-adv-x="896" 
d="M480 336v-285h368v-51h-426v223h-263l-114 -223h-63l364 700h498v-51h-364v-262h341v-51h-341zM186 274h236v375h-46z" />
    <glyph glyph-name="AEacute" unicode="&#x1fc;" horiz-adv-x="896" 
d="M480 336v-285h368v-51h-426v223h-263l-114 -223h-63l364 700h498v-51h-364v-262h341v-51h-341zM186 274h236v375h-46zM566 746h-42l95 129h69z" />
    <glyph glyph-name="Cacute" unicode="&#x106;" horiz-adv-x="702" 
d="M609 261h59c-20 -156 -123 -276 -294 -276c-220 0 -328 172 -328 365c0 192 109 364 329 364c149 0 265 -91 283 -223h-60c-23 104 -104 173 -223 173c-191 0 -269 -160 -269 -314s77 -314 268 -314c142 0 221 107 235 225zM373 746h-42l95 129h69z" />
    <glyph glyph-name="Ccircumflex" unicode="&#x108;" horiz-adv-x="702" 
d="M609 261h59c-20 -156 -123 -276 -294 -276c-220 0 -328 172 -328 365c0 192 109 364 329 364c149 0 265 -91 283 -223h-60c-23 104 -104 173 -223 173c-191 0 -269 -160 -269 -314s77 -314 268 -314c142 0 221 107 235 225zM380 844l-91 -98h-49l110 129h60l110 -129h-49
z" />
    <glyph glyph-name="Ccaron" unicode="&#x10c;" horiz-adv-x="702" 
d="M609 261h59c-20 -156 -123 -276 -294 -276c-220 0 -328 172 -328 365c0 192 109 364 329 364c149 0 265 -91 283 -223h-60c-23 104 -104 173 -223 173c-191 0 -269 -160 -269 -314s77 -314 268 -314c142 0 221 107 235 225zM371 777l91 98h49l-110 -129h-60l-110 129h49z
" />
    <glyph glyph-name="Cdotaccent" unicode="&#x10a;" horiz-adv-x="702" 
d="M609 261h59c-20 -156 -123 -276 -294 -276c-220 0 -328 172 -328 365c0 192 109 364 329 364c149 0 265 -91 283 -223h-60c-23 104 -104 173 -223 173c-191 0 -269 -160 -269 -314s77 -314 268 -314c142 0 221 107 235 225zM400 771h-49v96h49v-96z" />
    <glyph glyph-name="Ccedilla" unicode="&#xc7;" horiz-adv-x="702" 
d="M609 261h59c-20 -156 -123 -276 -294 -276c-220 0 -328 172 -328 365c0 192 109 364 329 364c149 0 265 -91 283 -223h-60c-23 104 -104 173 -223 173c-191 0 -269 -160 -269 -314s77 -314 268 -314c142 0 221 107 235 225zM350 -51l1 -1c8 1 16 2 24 2
c39 0 79 -16 79 -61c0 -53 -49 -74 -101 -74c-29 0 -62 6 -83 18l13 30c13 -7 40 -15 65 -15c28 0 54 11 54 40c0 27 -24 34 -48 34c-14 0 -26 -2 -37 -7l-16 17l56 68h38z" />
    <glyph glyph-name="Dcaron" unicode="&#x10e;" horiz-adv-x="697" 
d="M88 0v700h217c127 0 197 -27 250 -79c62 -60 93 -150 93 -271c0 -119 -29 -208 -88 -268c-53 -53 -129 -82 -252 -82h-220zM147 649v-598h153c103 0 167 20 214 65c49 47 74 125 74 234c0 111 -26 190 -78 238c-48 44 -115 61 -210 61h-153zM330 777l91 98h49l-110 -129
h-60l-110 129h49z" />
    <glyph glyph-name="Dcroat" unicode="&#x110;" horiz-adv-x="720" 
d="M7 335v47h104v318h217c127 0 197 -27 250 -79c62 -60 93 -150 93 -271c0 -119 -29 -208 -88 -268c-53 -53 -129 -82 -252 -82h-220v335h-104zM170 649v-267h202v-47h-202v-284h153c103 0 167 20 214 65c49 47 74 125 74 234c0 111 -26 190 -78 238
c-48 44 -115 61 -210 61h-153z" />
    <glyph glyph-name="Eth" unicode="&#xd0;" horiz-adv-x="720" 
d="M7 335v47h104v318h217c127 0 197 -27 250 -79c62 -60 93 -150 93 -271c0 -119 -29 -208 -88 -268c-53 -53 -129 -82 -252 -82h-220v335h-104zM170 649v-267h202v-47h-202v-284h153c103 0 167 20 214 65c49 47 74 125 74 234c0 111 -26 190 -78 238
c-48 44 -115 61 -210 61h-153z" />
    <glyph glyph-name="Egrave" unicode="&#xc8;" horiz-adv-x="618" 
d="M88 0v700h479v-51h-420v-262h393v-51h-393v-285h425v-51h-484zM325 746l-122 129h69l95 -129h-42z" />
    <glyph glyph-name="Eacute" unicode="&#xc9;" horiz-adv-x="618" 
d="M88 0v700h479v-51h-420v-262h393v-51h-393v-285h425v-51h-484zM312 746h-42l95 129h69z" />
    <glyph glyph-name="Ecircumflex" unicode="&#xca;" horiz-adv-x="618" 
d="M88 0v700h479v-51h-420v-262h393v-51h-393v-285h425v-51h-484zM331 844l-91 -98h-49l110 129h60l110 -129h-49z" />
    <glyph glyph-name="Ecaron" unicode="&#x11a;" horiz-adv-x="618" 
d="M88 0v700h479v-51h-420v-262h393v-51h-393v-285h425v-51h-484zM330 777l91 98h49l-110 -129h-60l-110 129h49z" />
    <glyph glyph-name="Edieresis" unicode="&#xcb;" horiz-adv-x="618" 
d="M88 0v700h479v-51h-420v-262h393v-51h-393v-285h425v-51h-484zM441 773h-51v96h51v-96zM268 773h-52v96h52v-96z" />
    <glyph glyph-name="Emacron" unicode="&#x112;" horiz-adv-x="618" 
d="M88 0v700h479v-51h-420v-262h393v-51h-393v-285h425v-51h-484zM473 775h-294v40h294v-40z" />
    <glyph glyph-name="Ebreve" unicode="&#x114;" horiz-adv-x="618" 
d="M88 0v700h479v-51h-420v-262h393v-51h-393v-285h425v-51h-484zM329 745c-79 0 -140 37 -156 105l38 11c11 -49 65 -75 117 -75c55 0 108 26 117 75l38 -11c-13 -68 -75 -105 -154 -105z" />
    <glyph glyph-name="Edotaccent" unicode="&#x116;" horiz-adv-x="618" 
d="M88 0v700h479v-51h-420v-262h393v-51h-393v-285h425v-51h-484zM353 771h-49v96h49v-96z" />
    <glyph glyph-name="Eogonek" unicode="&#x118;" horiz-adv-x="618" 
d="M88 0v700h479v-51h-420v-262h393v-51h-393v-285h425v-51h-484zM538 0h34c-65 -52 -85 -82 -85 -111c0 -27 18 -43 41 -43s38 12 54 36l26 -12c-19 -33 -43 -60 -94 -60c-48 0 -77 31 -77 70c0 47 49 88 101 120z" />
    <glyph glyph-name="Gcircumflex" unicode="&#x11c;" horiz-adv-x="741" 
d="M374 36c159 0 250 113 250 266h-241v51h291v-353h-49l-3 127h-3c-49 -100 -142 -142 -245 -142c-217 0 -328 172 -328 365c0 192 109 364 329 364c159 0 271 -96 289 -228h-60c-23 104 -102 178 -229 178c-191 0 -269 -160 -269 -314s77 -314 268 -314zM377 844l-91 -98
h-49l110 129h60l110 -129h-49z" />
    <glyph glyph-name="Gbreve" unicode="&#x11e;" horiz-adv-x="741" 
d="M374 36c159 0 250 113 250 266h-241v51h291v-353h-49l-3 127h-3c-49 -100 -142 -142 -245 -142c-217 0 -328 172 -328 365c0 192 109 364 329 364c159 0 271 -96 289 -228h-60c-23 104 -102 178 -229 178c-191 0 -269 -160 -269 -314s77 -314 268 -314zM379 745
c-79 0 -140 37 -156 105l38 11c11 -49 65 -75 117 -75c55 0 108 26 117 75l38 -11c-13 -68 -75 -105 -154 -105z" />
    <glyph glyph-name="uni0122" unicode="&#x122;" horiz-adv-x="741" 
d="M374 36c159 0 250 113 250 266h-241v51h291v-353h-49l-3 127h-3c-49 -100 -142 -142 -245 -142c-217 0 -328 172 -328 365c0 192 109 364 329 364c159 0 271 -96 289 -228h-60c-23 104 -102 178 -229 178c-191 0 -269 -160 -269 -314s77 -314 268 -314zM337 -50h76v-79
c0 -53 -13 -95 -76 -114v40c33 11 38 39 38 64v4h-38v85z" />
    <glyph glyph-name="Gdotaccent" unicode="&#x120;" horiz-adv-x="741" 
d="M374 36c159 0 250 113 250 266h-241v51h291v-353h-49l-3 127h-3c-49 -100 -142 -142 -245 -142c-217 0 -328 172 -328 365c0 192 109 364 329 364c159 0 271 -96 289 -228h-60c-23 104 -102 178 -229 178c-191 0 -269 -160 -269 -314s77 -314 268 -314zM401 789h-49v96
h49v-96z" />
    <glyph glyph-name="Hcircumflex" unicode="&#x124;" horiz-adv-x="721" 
d="M88 0v700h59v-307h427v307h59v-700h-59v342h-427v-342h-59zM363 844l-91 -98h-49l110 129h60l110 -129h-49z" />
    <glyph glyph-name="Hbar" unicode="&#x126;" horiz-adv-x="721" 
d="M88 0v700h59v-99h427v99h59v-700h-59v342h-427v-342h-59zM147 393h427v167h-427v-167z" />
    <glyph glyph-name="Igrave" unicode="&#xcc;" horiz-adv-x="235" 
d="M88 0v700h59v-700h-59zM107 746l-122 129h69l95 -129h-42z" />
    <glyph glyph-name="Iacute" unicode="&#xcd;" horiz-adv-x="235" 
d="M88 0v700h59v-700h-59zM132 746h-42l95 129h69z" />
    <glyph glyph-name="Icircumflex" unicode="&#xce;" horiz-adv-x="235" 
d="M88 0v700h59v-700h-59zM118 844l-91 -98h-49l110 129h60l110 -129h-49z" />
    <glyph glyph-name="Itilde" unicode="&#x128;" horiz-adv-x="235" 
d="M88 0v700h59v-700h-59zM0 760h-33c7 47 34 91 89 91c28 0 52 -11 73 -22l10 -5c20 -9 36 -17 53 -17c33 0 47 23 55 48h33c-7 -45 -34 -91 -89 -91c-28 0 -50 11 -73 22l-10 5c-20 11 -36 17 -53 17c-33 0 -47 -21 -55 -48z" />
    <glyph glyph-name="Idieresis" unicode="&#xcf;" horiz-adv-x="235" 
d="M88 0v700h59v-700h-59zM231 773h-51v96h51v-96zM58 773h-52v96h52v-96z" />
    <glyph glyph-name="Imacron" unicode="&#x12a;" horiz-adv-x="235" 
d="M88 0v700h59v-700h-59zM264 775h-294v40h294v-40z" />
    <glyph glyph-name="Ibreve" unicode="&#x12c;" horiz-adv-x="235" 
d="M88 0v700h59v-700h-59zM118 745c-79 0 -140 37 -156 105l38 11c11 -49 65 -75 117 -75c55 0 108 26 117 75l38 -11c-13 -68 -75 -105 -154 -105z" />
    <glyph glyph-name="Idot" unicode="&#x130;" horiz-adv-x="235" 
d="M88 0v700h59v-700h-59zM142 771h-49v96h49v-96z" />
    <glyph glyph-name="Iogonek" unicode="&#x12e;" horiz-adv-x="235" 
d="M88 0v700h59v-700h-59zM113 0h34c-65 -52 -85 -82 -85 -111c0 -27 18 -43 41 -43s38 12 54 36l26 -12c-19 -33 -43 -60 -94 -60c-48 0 -77 31 -77 70c0 47 49 88 101 120z" />
    <glyph glyph-name="IJ" unicode="&#x132;" horiz-adv-x="686" 
d="M88 0v700h59v-700h-59zM544 222v478h59v-506c0 -63 -12 -111 -35 -144c-30 -43 -84 -65 -162 -65c-65 0 -112 18 -143 50c-41 43 -52 108 -52 185h58c0 -45 1 -107 36 -146c21 -23 54 -39 103 -39c52 0 88 16 109 47c20 31 27 76 27 140z" />
    <glyph glyph-name="Jcircumflex" unicode="&#x134;" horiz-adv-x="498" 
d="M356 222v478h59v-506c0 -63 -12 -111 -35 -144c-30 -43 -84 -65 -162 -65c-65 0 -112 18 -143 50c-41 43 -52 108 -52 185h58c0 -45 1 -107 36 -146c21 -23 54 -39 103 -39c52 0 88 16 109 47c20 31 27 76 27 140zM387 844l-91 -98h-49l110 129h60l110 -129h-49z" />
    <glyph glyph-name="uni0136" unicode="&#x136;" horiz-adv-x="656" 
d="M88 0v700h59v-387c40 39 103 96 171 159l245 228h80l-312 -288l329 -412h-78l-296 370l-139 -130v-240h-59zM312 -50h76v-79c0 -53 -13 -95 -76 -114v40c33 11 38 39 38 64v4h-38v85z" />
    <glyph glyph-name="Lacute" unicode="&#x139;" horiz-adv-x="554" 
d="M88 0v700h59v-649h395v-51h-454zM133 746h-42l95 129h69z" />
    <glyph glyph-name="Lcaron" unicode="&#x13d;" horiz-adv-x="555" 
d="M88 0v700h59v-649h395v-51h-454zM331 700h60l-56 -154h-32z" />
    <glyph glyph-name="Lslash" unicode="&#x141;" horiz-adv-x="572" 
d="M105 0v250l-87 -53v55l87 53v395h59v-359l226 137v-55l-226 -137v-235h395v-51h-454z" />
    <glyph glyph-name="Ldot" unicode="&#x13f;" horiz-adv-x="555" 
d="M88 0v700h59v-649h395v-51h-454zM401 327h-49v96h49v-96z" />
    <glyph glyph-name="Ldot.latn_CAT" horiz-adv-x="555" 
d="M88 0v700h59v-649h395v-51h-454zM401 327h-49v96h49v-96z" />
    <glyph glyph-name="uni013B" unicode="&#x13b;" horiz-adv-x="554" 
d="M88 0v700h59v-649h395v-51h-454zM288 -50h76v-79c0 -53 -13 -95 -76 -114v40c33 11 38 39 38 64v4h-38v85z" />
    <glyph glyph-name="Nacute" unicode="&#x143;" horiz-adv-x="723" 
d="M88 0v700h69l292 -421c36 -52 82 -124 126 -187h2c0 95 -1 194 -1 291v317h59v-700h-68l-266 384l-153 227h-2c0 -84 1 -176 1 -263v-348h-59zM352 746h-42l95 129h69z" />
    <glyph glyph-name="uni0145" unicode="&#x145;" horiz-adv-x="723" 
d="M88 0v700h69l292 -421c36 -52 82 -124 126 -187h2c0 95 -1 194 -1 291v317h59v-700h-68l-266 384l-153 227h-2c0 -84 1 -176 1 -263v-348h-59zM318 -50h76v-79c0 -53 -13 -95 -76 -114v40c33 11 38 39 38 64v4h-38v85z" />
    <glyph glyph-name="Ncaron" unicode="&#x147;" horiz-adv-x="723" 
d="M88 0v700h69l292 -421c36 -52 82 -124 126 -187h2c0 95 -1 194 -1 291v317h59v-700h-68l-266 384l-153 227h-2c0 -84 1 -176 1 -263v-348h-59zM362 777l91 98h49l-110 -129h-60l-110 129h49z" />
    <glyph glyph-name="Ntilde" unicode="&#xd1;" horiz-adv-x="723" 
d="M88 0v700h69l292 -421c36 -52 82 -124 126 -187h2c0 95 -1 194 -1 291v317h59v-700h-68l-266 384l-153 227h-2c0 -84 1 -176 1 -263v-348h-59zM241 760h-33c7 47 34 91 89 91c28 0 52 -11 73 -22l10 -5c20 -9 36 -17 53 -17c33 0 47 23 55 48h33c-7 -45 -34 -91 -89 -91
c-28 0 -50 11 -73 22l-10 5c-20 11 -36 17 -53 17c-33 0 -47 -21 -55 -48z" />
    <glyph glyph-name="Eng" unicode="&#x14a;" horiz-adv-x="723" 
d="M580 0h-13l-266 384l-153 227h-2c0 -84 1 -176 1 -263v-348h-59v700h69l292 -421c36 -52 82 -124 126 -187h2c0 95 -1 194 -1 291v317h59v-748c0 -93 -29 -134 -124 -134c-15 0 -24 1 -44 4v50c15 -1 25 -3 37 -3c56 0 76 25 76 74v57z" />
    <glyph glyph-name="Ograve" unicode="&#xd2;" horiz-adv-x="749" 
d="M46 350c0 192 110 364 330 364c217 0 327 -172 327 -364c0 -193 -110 -365 -327 -365c-220 0 -330 172 -330 365zM106 350c0 -154 79 -314 270 -314c188 0 267 160 267 314s-79 314 -267 314c-191 0 -270 -160 -270 -314zM373 746l-122 129h69l95 -129h-42z" />
    <glyph glyph-name="Oacute" unicode="&#xd3;" horiz-adv-x="749" 
d="M46 350c0 192 110 364 330 364c217 0 327 -172 327 -364c0 -193 -110 -365 -327 -365c-220 0 -330 172 -330 365zM106 350c0 -154 79 -314 270 -314c188 0 267 160 267 314s-79 314 -267 314c-191 0 -270 -160 -270 -314zM373 746h-42l95 129h69z" />
    <glyph glyph-name="Ocircumflex" unicode="&#xd4;" horiz-adv-x="749" 
d="M46 350c0 192 110 364 330 364c217 0 327 -172 327 -364c0 -193 -110 -365 -327 -365c-220 0 -330 172 -330 365zM106 350c0 -154 79 -314 270 -314c188 0 267 160 267 314s-79 314 -267 314c-191 0 -270 -160 -270 -314zM376 844l-91 -98h-49l110 129h60l110 -129h-49z
" />
    <glyph glyph-name="Otilde" unicode="&#xd5;" horiz-adv-x="749" 
d="M46 350c0 192 110 364 330 364c217 0 327 -172 327 -364c0 -193 -110 -365 -327 -365c-220 0 -330 172 -330 365zM106 350c0 -154 79 -314 270 -314c188 0 267 160 267 314s-79 314 -267 314c-191 0 -270 -160 -270 -314zM255 760h-33c7 47 34 91 89 91
c28 0 52 -11 73 -22l10 -5c20 -9 36 -17 53 -17c33 0 47 23 55 48h33c-7 -45 -34 -91 -89 -91c-28 0 -50 11 -73 22l-10 5c-20 11 -36 17 -53 17c-33 0 -47 -21 -55 -48z" />
    <glyph glyph-name="Odieresis" unicode="&#xd6;" horiz-adv-x="749" 
d="M46 350c0 192 110 364 330 364c217 0 327 -172 327 -364c0 -193 -110 -365 -327 -365c-220 0 -330 172 -330 365zM106 350c0 -154 79 -314 270 -314c188 0 267 160 267 314s-79 314 -267 314c-191 0 -270 -160 -270 -314zM488 773h-51v96h51v-96zM315 773h-52v96h52v-96z
" />
    <glyph glyph-name="Omacron" unicode="&#x14c;" horiz-adv-x="749" 
d="M46 350c0 192 110 364 330 364c217 0 327 -172 327 -364c0 -193 -110 -365 -327 -365c-220 0 -330 172 -330 365zM106 350c0 -154 79 -314 270 -314c188 0 267 160 267 314s-79 314 -267 314c-191 0 -270 -160 -270 -314zM525 775h-294v40h294v-40z" />
    <glyph glyph-name="Obreve" unicode="&#x14e;" horiz-adv-x="749" 
d="M46 350c0 192 110 364 330 364c217 0 327 -172 327 -364c0 -193 -110 -365 -327 -365c-220 0 -330 172 -330 365zM106 350c0 -154 79 -314 270 -314c188 0 267 160 267 314s-79 314 -267 314c-191 0 -270 -160 -270 -314zM378 745c-79 0 -140 37 -156 105l38 11
c11 -49 65 -75 117 -75c55 0 108 26 117 75l38 -11c-13 -68 -75 -105 -154 -105z" />
    <glyph glyph-name="Ohungarumlaut" unicode="&#x150;" horiz-adv-x="749" 
d="M46 350c0 192 110 364 330 364c217 0 327 -172 327 -364c0 -193 -110 -365 -327 -365c-220 0 -330 172 -330 365zM106 350c0 -154 79 -314 270 -314c188 0 267 160 267 314s-79 314 -267 314c-191 0 -270 -160 -270 -314zM308 746h-42l95 129h69zM453 746h-42l107 129h69
z" />
    <glyph glyph-name="Oslash" unicode="&#xd8;" horiz-adv-x="749" 
d="M46 350c0 192 110 364 330 364c84 0 152 -25 203 -68l61 79l34 -27l-64 -82c63 -68 93 -163 93 -266c0 -193 -110 -365 -327 -365c-83 0 -151 24 -202 65l-58 -75l-34 27l60 77c-64 68 -96 167 -96 271zM106 350c0 -83 22 -166 71 -226l369 479c-41 39 -98 61 -170 61
c-191 0 -270 -160 -270 -314zM643 350c0 81 -20 162 -67 221l-369 -478c43 -35 97 -57 169 -57c188 0 267 160 267 314z" />
    <glyph glyph-name="Oslashacute" unicode="&#x1fe;" horiz-adv-x="749" 
d="M46 350c0 192 110 364 330 364c84 0 152 -25 203 -68l61 79l34 -27l-64 -82c63 -68 93 -163 93 -266c0 -193 -110 -365 -327 -365c-83 0 -151 24 -202 65l-58 -75l-34 27l60 77c-64 68 -96 167 -96 271zM106 350c0 -83 22 -166 71 -226l369 479c-41 39 -98 61 -170 61
c-191 0 -270 -160 -270 -314zM643 350c0 81 -20 162 -67 221l-369 -478c43 -35 97 -57 169 -57c188 0 267 160 267 314zM400 746h-42l95 129h69z" />
    <glyph glyph-name="OE" unicode="&#x152;" horiz-adv-x="1080" 
d="M630 649v-262h364v-51h-364v-285h405v-51h-462v76c-43 -60 -126 -91 -201 -91c-202 0 -326 159 -326 365c0 194 113 364 326 364c80 0 154 -23 201 -79v65h459v-51h-402zM572 157v409c-24 62 -124 98 -200 98c-176 0 -266 -146 -266 -314c0 -176 91 -315 266 -315
c88 0 180 43 200 122z" />
    <glyph glyph-name="Thorn" unicode="&#xde;" horiz-adv-x="634" 
d="M88 700h59v-105h236c85 0 132 -20 168 -57c33 -33 52 -81 52 -141s-19 -107 -52 -142c-36 -37 -83 -57 -168 -57h-236v-198h-59v700zM147 544v-295h227c59 0 96 12 124 36c28 25 45 63 45 112c0 51 -17 86 -45 111c-28 24 -65 36 -124 36h-227z" />
    <glyph glyph-name="Racute" unicode="&#x154;" horiz-adv-x="681" 
d="M88 0v700h309c68 0 120 -14 157 -42c39 -29 64 -77 64 -141c0 -85 -42 -152 -130 -173v-2c83 -15 108 -69 113 -160l7 -105c3 -33 6 -51 21 -74v-3h-61c-12 19 -14 39 -17 78l-6 91c-4 82 -28 145 -149 145h-249v-314h-59zM147 649v-285h255c84 0 156 50 156 147
c0 81 -49 138 -156 138h-255zM322 746h-42l95 129h69z" />
    <glyph glyph-name="Rcaron" unicode="&#x158;" horiz-adv-x="681" 
d="M88 0v700h309c68 0 120 -14 157 -42c39 -29 64 -77 64 -141c0 -85 -42 -152 -130 -173v-2c83 -15 108 -69 113 -160l7 -105c3 -33 6 -51 21 -74v-3h-61c-12 19 -14 39 -17 78l-6 91c-4 82 -28 145 -149 145h-249v-314h-59zM147 649v-285h255c84 0 156 50 156 147
c0 81 -49 138 -156 138h-255zM337 777l91 98h49l-110 -129h-60l-110 129h49z" />
    <glyph glyph-name="uni0156" unicode="&#x156;" horiz-adv-x="681" 
d="M88 0v700h309c68 0 120 -14 157 -42c39 -29 64 -77 64 -141c0 -85 -42 -152 -130 -173v-2c83 -15 108 -69 113 -160l7 -105c3 -33 6 -51 21 -74v-3h-61c-12 19 -14 39 -17 78l-6 91c-4 82 -28 145 -149 145h-249v-314h-59zM147 649v-285h255c84 0 156 50 156 147
c0 81 -49 138 -156 138h-255zM320 -50h76v-79c0 -53 -13 -95 -76 -114v40c33 11 38 39 38 64v4h-38v85z" />
    <glyph glyph-name="Sacute" unicode="&#x15a;" horiz-adv-x="623" 
d="M37 226h61c2 -118 91 -190 221 -190c133 0 203 56 203 149c0 45 -21 75 -57 96c-29 19 -70 29 -117 41l-61 15c-127 32 -224 58 -224 186c0 129 114 191 245 191c147 0 254 -65 254 -213h-59c-5 104 -64 162 -195 162c-116 0 -185 -47 -185 -134c0 -77 50 -105 172 -135
l72 -18c57 -13 110 -29 147 -56c43 -29 68 -68 68 -131c0 -141 -113 -204 -263 -204c-160 0 -278 79 -282 241zM311 746h-42l95 129h69z" />
    <glyph glyph-name="Scircumflex" unicode="&#x15c;" horiz-adv-x="623" 
d="M37 226h61c2 -118 91 -190 221 -190c133 0 203 56 203 149c0 45 -21 75 -57 96c-29 19 -70 29 -117 41l-61 15c-127 32 -224 58 -224 186c0 129 114 191 245 191c147 0 254 -65 254 -213h-59c-5 104 -64 162 -195 162c-116 0 -185 -47 -185 -134c0 -77 50 -105 172 -135
l72 -18c57 -13 110 -29 147 -56c43 -29 68 -68 68 -131c0 -141 -113 -204 -263 -204c-160 0 -278 79 -282 241zM312 844l-91 -98h-49l110 129h60l110 -129h-49z" />
    <glyph glyph-name="Scaron" unicode="&#x160;" horiz-adv-x="623" 
d="M37 226h61c2 -118 91 -190 221 -190c133 0 203 56 203 149c0 45 -21 75 -57 96c-29 19 -70 29 -117 41l-61 15c-127 32 -224 58 -224 186c0 129 114 191 245 191c147 0 254 -65 254 -213h-59c-5 104 -64 162 -195 162c-116 0 -185 -47 -185 -134c0 -77 50 -105 172 -135
l72 -18c57 -13 110 -29 147 -56c43 -29 68 -68 68 -131c0 -141 -113 -204 -263 -204c-160 0 -278 79 -282 241zM313 777l91 98h49l-110 -129h-60l-110 129h49z" />
    <glyph glyph-name="Scedilla" unicode="&#x15e;" horiz-adv-x="623" 
d="M37 226h61c2 -118 91 -190 221 -190c133 0 203 56 203 149c0 45 -21 75 -57 96c-29 19 -70 29 -117 41l-61 15c-127 32 -224 58 -224 186c0 129 114 191 245 191c147 0 254 -65 254 -213h-59c-5 104 -64 162 -195 162c-116 0 -185 -47 -185 -134c0 -77 50 -105 172 -135
l72 -18c57 -13 110 -29 147 -56c43 -29 68 -68 68 -131c0 -141 -113 -204 -263 -204c-160 0 -278 79 -282 241zM297 -51l1 -1c8 1 16 2 24 2c39 0 79 -16 79 -61c0 -53 -49 -74 -101 -74c-29 0 -62 6 -83 18l13 30c13 -7 40 -15 65 -15c28 0 54 11 54 40c0 27 -24 34 -48 34
c-14 0 -26 -2 -37 -7l-16 17l56 68h38z" />
    <glyph glyph-name="uni0218" unicode="&#x218;" horiz-adv-x="623" 
d="M37 226h61c2 -118 91 -190 221 -190c133 0 203 56 203 149c0 45 -21 75 -57 96c-29 19 -70 29 -117 41l-61 15c-127 32 -224 58 -224 186c0 129 114 191 245 191c147 0 254 -65 254 -213h-59c-5 104 -64 162 -195 162c-116 0 -185 -47 -185 -134c0 -77 50 -105 172 -135
l72 -18c57 -13 110 -29 147 -56c43 -29 68 -68 68 -131c0 -141 -113 -204 -263 -204c-160 0 -278 79 -282 241zM273 -50h76v-79c0 -53 -13 -95 -76 -114v40c33 11 38 39 38 64v4h-38v85z" />
    <glyph glyph-name="Tcaron" unicode="&#x164;" horiz-adv-x="576" 
d="M12 649v51h552v-51h-247v-649h-59v649h-246zM288 777l91 98h49l-110 -129h-60l-110 129h49z" />
    <glyph glyph-name="Tcommaaccent" unicode="&#x162;" horiz-adv-x="576" 
d="M12 649v51h552v-51h-247v-649h-59v649h-246zM272 -51l1 -1c8 1 16 2 24 2c39 0 79 -16 79 -61c0 -53 -49 -74 -101 -74c-29 0 -62 6 -83 18l13 30c13 -7 40 -15 65 -15c28 0 54 11 54 40c0 27 -24 34 -48 34c-14 0 -26 -2 -37 -7l-16 17l56 68h38z" />
    <glyph glyph-name="Tbar" unicode="&#x166;" horiz-adv-x="592" 
d="M484 342h-159v-342h-59v342h-158v41h158v266h-246v51h552v-51h-247v-266h159v-41z" />
    <glyph glyph-name="uni021A" unicode="&#x21a;" horiz-adv-x="576" 
d="M12 649v51h552v-51h-247v-649h-59v649h-246zM251 -50h76v-79c0 -53 -13 -95 -76 -114v40c33 11 38 39 38 64v4h-38v85z" />
    <glyph glyph-name="Ugrave" unicode="&#xd9;" horiz-adv-x="700" 
d="M619 265c0 -104 -19 -175 -80 -224c-43 -35 -105 -56 -189 -56s-146 21 -189 56c-61 49 -80 120 -80 224v435h59v-437c0 -97 17 -143 60 -180c37 -31 87 -47 150 -47s113 16 150 47c43 37 60 83 60 180v437h59v-435zM363 746l-122 129h69l95 -129h-42z" />
    <glyph glyph-name="Uacute" unicode="&#xda;" horiz-adv-x="700" 
d="M619 265c0 -104 -19 -175 -80 -224c-43 -35 -105 -56 -189 -56s-146 21 -189 56c-61 49 -80 120 -80 224v435h59v-437c0 -97 17 -143 60 -180c37 -31 87 -47 150 -47s113 16 150 47c43 37 60 83 60 180v437h59v-435zM334 746h-42l95 129h69z" />
    <glyph glyph-name="Ucircumflex" unicode="&#xdb;" horiz-adv-x="700" 
d="M619 265c0 -104 -19 -175 -80 -224c-43 -35 -105 -56 -189 -56s-146 21 -189 56c-61 49 -80 120 -80 224v435h59v-437c0 -97 17 -143 60 -180c37 -31 87 -47 150 -47s113 16 150 47c43 37 60 83 60 180v437h59v-435zM351 844l-91 -98h-49l110 129h60l110 -129h-49z" />
    <glyph glyph-name="Utilde" unicode="&#x168;" horiz-adv-x="700" 
d="M619 265c0 -104 -19 -175 -80 -224c-43 -35 -105 -56 -189 -56s-146 21 -189 56c-61 49 -80 120 -80 224v435h59v-437c0 -97 17 -143 60 -180c37 -31 87 -47 150 -47s113 16 150 47c43 37 60 83 60 180v437h59v-435zM228 760h-33c7 47 34 91 89 91c28 0 52 -11 73 -22
l10 -5c20 -9 36 -17 53 -17c33 0 47 23 55 48h33c-7 -45 -34 -91 -89 -91c-28 0 -50 11 -73 22l-10 5c-20 11 -36 17 -53 17c-33 0 -47 -21 -55 -48z" />
    <glyph glyph-name="Udieresis" unicode="&#xdc;" horiz-adv-x="700" 
d="M619 265c0 -104 -19 -175 -80 -224c-43 -35 -105 -56 -189 -56s-146 21 -189 56c-61 49 -80 120 -80 224v435h59v-437c0 -97 17 -143 60 -180c37 -31 87 -47 150 -47s113 16 150 47c43 37 60 83 60 180v437h59v-435zM463 773h-51v96h51v-96zM290 773h-52v96h52v-96z" />
    <glyph glyph-name="Umacron" unicode="&#x16a;" horiz-adv-x="700" 
d="M619 265c0 -104 -19 -175 -80 -224c-43 -35 -105 -56 -189 -56s-146 21 -189 56c-61 49 -80 120 -80 224v435h59v-437c0 -97 17 -143 60 -180c37 -31 87 -47 150 -47s113 16 150 47c43 37 60 83 60 180v437h59v-435zM498 775h-294v40h294v-40z" />
    <glyph glyph-name="Ubreve" unicode="&#x16c;" horiz-adv-x="700" 
d="M619 265c0 -104 -19 -175 -80 -224c-43 -35 -105 -56 -189 -56s-146 21 -189 56c-61 49 -80 120 -80 224v435h59v-437c0 -97 17 -143 60 -180c37 -31 87 -47 150 -47s113 16 150 47c43 37 60 83 60 180v437h59v-435zM353 745c-79 0 -140 37 -156 105l38 11
c11 -49 65 -75 117 -75c55 0 108 26 117 75l38 -11c-13 -68 -75 -105 -154 -105z" />
    <glyph glyph-name="Uring" unicode="&#x16e;" horiz-adv-x="700" 
d="M619 265c0 -104 -19 -175 -80 -224c-43 -35 -105 -56 -189 -56s-146 21 -189 56c-61 49 -80 120 -80 224v435h59v-437c0 -97 17 -143 60 -180c37 -31 87 -47 150 -47s113 16 150 47c43 37 60 83 60 180v437h59v-435zM352 730c-45 0 -83 38 -83 83c0 47 38 84 83 84
c47 0 84 -37 84 -84c0 -45 -37 -83 -84 -83zM298 813c0 -29 25 -54 54 -54c31 0 55 25 55 54c0 31 -24 55 -55 55c-29 0 -54 -24 -54 -55z" />
    <glyph glyph-name="Uhungarumlaut" unicode="&#x170;" horiz-adv-x="700" 
d="M619 265c0 -104 -19 -175 -80 -224c-43 -35 -105 -56 -189 -56s-146 21 -189 56c-61 49 -80 120 -80 224v435h59v-437c0 -97 17 -143 60 -180c37 -31 87 -47 150 -47s113 16 150 47c43 37 60 83 60 180v437h59v-435zM266 746h-42l95 129h69zM411 746h-42l107 129h69z" />
    <glyph glyph-name="Uogonek" unicode="&#x172;" horiz-adv-x="700" 
d="M619 265c0 -104 -19 -175 -80 -224c-43 -35 -105 -56 -189 -56s-146 21 -189 56c-61 49 -80 120 -80 224v435h59v-437c0 -97 17 -143 60 -180c37 -31 87 -47 150 -47s113 16 150 47c43 37 60 83 60 180v437h59v-435zM385 0h34c-65 -52 -85 -82 -85 -111
c0 -27 18 -43 41 -43s38 12 54 36l26 -12c-19 -33 -43 -60 -94 -60c-48 0 -77 31 -77 70c0 47 49 88 101 120z" />
    <glyph glyph-name="Wacute" unicode="&#x1e82;" horiz-adv-x="914" 
d="M209 0l-194 700h65l101 -391c17 -65 41 -161 60 -241h2c23 81 45 165 66 241l111 391h77l110 -392c21 -76 45 -159 66 -240h2c20 80 45 180 61 240l103 392h60l-193 -700h-66l-112 399c-28 100 -55 193 -68 250h-2c-15 -61 -38 -144 -69 -250l-114 -399h-66zM474 746h-42
l95 129h69z" />
    <glyph glyph-name="Wcircumflex" unicode="&#x174;" horiz-adv-x="914" 
d="M209 0l-194 700h65l101 -391c17 -65 41 -161 60 -241h2c23 81 45 165 66 241l111 391h77l110 -392c21 -76 45 -159 66 -240h2c20 80 45 180 61 240l103 392h60l-193 -700h-66l-112 399c-28 100 -55 193 -68 250h-2c-15 -61 -38 -144 -69 -250l-114 -399h-66zM459 844
l-91 -98h-49l110 129h60l110 -129h-49z" />
    <glyph glyph-name="Wdieresis" unicode="&#x1e84;" horiz-adv-x="914" 
d="M209 0l-194 700h65l101 -391c17 -65 41 -161 60 -241h2c23 81 45 165 66 241l111 391h77l110 -392c21 -76 45 -159 66 -240h2c20 80 45 180 61 240l103 392h60l-193 -700h-66l-112 399c-28 100 -55 193 -68 250h-2c-15 -61 -38 -144 -69 -250l-114 -399h-66zM572 773h-51
v96h51v-96zM399 773h-52v96h52v-96z" />
    <glyph glyph-name="Wgrave" unicode="&#x1e80;" horiz-adv-x="914" 
d="M209 0l-194 700h65l101 -391c17 -65 41 -161 60 -241h2c23 81 45 165 66 241l111 391h77l110 -392c21 -76 45 -159 66 -240h2c20 80 45 180 61 240l103 392h60l-193 -700h-66l-112 399c-28 100 -55 193 -68 250h-2c-15 -61 -38 -144 -69 -250l-114 -399h-66zM439 746
l-122 129h69l95 -129h-42z" />
    <glyph glyph-name="Ygrave" unicode="&#x1ef2;" horiz-adv-x="619" 
d="M280 0v288l-275 412h71l234 -362l233 362h71l-275 -412v-288h-59zM303 746l-122 129h69l95 -129h-42z" />
    <glyph glyph-name="Yacute" unicode="&#xdd;" horiz-adv-x="619" 
d="M280 0v288l-275 412h71l234 -362l233 362h71l-275 -412v-288h-59zM311 746h-42l95 129h69z" />
    <glyph glyph-name="Ycircumflex" unicode="&#x176;" horiz-adv-x="619" 
d="M280 0v288l-275 412h71l234 -362l233 362h71l-275 -412v-288h-59zM310 844l-91 -98h-49l110 129h60l110 -129h-49z" />
    <glyph glyph-name="Ydieresis" unicode="&#x178;" horiz-adv-x="619" 
d="M280 0v288l-275 412h71l234 -362l233 362h71l-275 -412v-288h-59zM423 773h-51v96h51v-96zM250 773h-52v96h52v-96z" />
    <glyph glyph-name="Zacute" unicode="&#x179;" horiz-adv-x="585" 
d="M51 649v51h500v-55l-467 -594h478v-51h-542v55l466 594h-435zM284 746h-42l95 129h69z" />
    <glyph glyph-name="Zcaron" unicode="&#x17d;" horiz-adv-x="585" 
d="M51 649v51h500v-55l-467 -594h478v-51h-542v55l466 594h-435zM295 777l91 98h49l-110 -129h-60l-110 129h49z" />
    <glyph glyph-name="Zdotaccent" unicode="&#x17b;" horiz-adv-x="585" 
d="M51 649v51h500v-55l-467 -594h478v-51h-542v55l466 594h-435zM314 771h-49v96h49v-96z" />
    <glyph glyph-name="uni018F" unicode="&#x18f;" horiz-adv-x="739" 
d="M44 359h591c-3 156 -89 305 -269 305c-135 0 -215 -81 -249 -180h-62c43 139 152 230 311 230c219 0 327 -169 327 -365c0 -181 -106 -364 -327 -364c-223 0 -322 174 -322 361v13zM633 312h-528c2 -155 100 -277 261 -277c168 0 257 125 267 277z" />
    <glyph glyph-name="agrave" unicode="&#xe0;" horiz-adv-x="537" 
d="M408 87h-2c-28 -57 -96 -98 -184 -98c-97 0 -177 51 -177 151c0 115 110 137 233 155l62 9c59 8 67 26 67 67c0 67 -32 111 -135 111c-91 0 -147 -34 -147 -129h-56c0 125 89 174 203 174c51 0 100 -7 136 -34c31 -23 52 -58 52 -123v-290c0 -27 14 -41 41 -41
c9 0 12 0 21 1v-40c-16 -1 -26 -2 -37 -2c-55 0 -77 26 -77 75v14zM407 188v95c-8 -9 -22 -15 -66 -23l-62 -11c-103 -18 -176 -32 -176 -108c0 -65 52 -106 127 -106c47 0 96 14 129 46c29 27 48 66 48 107zM289 571l-122 129h69l95 -129h-42z" />
    <glyph glyph-name="aacute" unicode="&#xe1;" horiz-adv-x="537" 
d="M408 87h-2c-28 -57 -96 -98 -184 -98c-97 0 -177 51 -177 151c0 115 110 137 233 155l62 9c59 8 67 26 67 67c0 67 -32 111 -135 111c-91 0 -147 -34 -147 -129h-56c0 125 89 174 203 174c51 0 100 -7 136 -34c31 -23 52 -58 52 -123v-290c0 -27 14 -41 41 -41
c9 0 12 0 21 1v-40c-16 -1 -26 -2 -37 -2c-55 0 -77 26 -77 75v14zM407 188v95c-8 -9 -22 -15 -66 -23l-62 -11c-103 -18 -176 -32 -176 -108c0 -65 52 -106 127 -106c47 0 96 14 129 46c29 27 48 66 48 107zM264 571h-42l95 129h69z" />
    <glyph glyph-name="acircumflex" unicode="&#xe2;" horiz-adv-x="537" 
d="M408 87h-2c-28 -57 -96 -98 -184 -98c-97 0 -177 51 -177 151c0 115 110 137 233 155l62 9c59 8 67 26 67 67c0 67 -32 111 -135 111c-91 0 -147 -34 -147 -129h-56c0 125 89 174 203 174c51 0 100 -7 136 -34c31 -23 52 -58 52 -123v-290c0 -27 14 -41 41 -41
c9 0 12 0 21 1v-40c-16 -1 -26 -2 -37 -2c-55 0 -77 26 -77 75v14zM407 188v95c-8 -9 -22 -15 -66 -23l-62 -11c-103 -18 -176 -32 -176 -108c0 -65 52 -106 127 -106c47 0 96 14 129 46c29 27 48 66 48 107zM268 669l-91 -98h-49l110 129h60l110 -129h-49z" />
    <glyph glyph-name="atilde" unicode="&#xe3;" horiz-adv-x="537" 
d="M408 87h-2c-28 -57 -96 -98 -184 -98c-97 0 -177 51 -177 151c0 115 110 137 233 155l62 9c59 8 67 26 67 67c0 67 -32 111 -135 111c-91 0 -147 -34 -147 -129h-56c0 125 89 174 203 174c51 0 100 -7 136 -34c31 -23 52 -58 52 -123v-290c0 -27 14 -41 41 -41
c9 0 12 0 21 1v-40c-16 -1 -26 -2 -37 -2c-55 0 -77 26 -77 75v14zM407 188v95c-8 -9 -22 -15 -66 -23l-62 -11c-103 -18 -176 -32 -176 -108c0 -65 52 -106 127 -106c47 0 96 14 129 46c29 27 48 66 48 107zM147 611h-33c7 47 34 91 89 91c28 0 52 -11 73 -22l10 -5
c20 -9 36 -17 53 -17c33 0 47 23 55 48h33c-7 -45 -34 -91 -89 -91c-28 0 -50 11 -73 22l-10 5c-20 11 -36 17 -53 17c-33 0 -47 -21 -55 -48z" />
    <glyph glyph-name="adieresis" unicode="&#xe4;" horiz-adv-x="537" 
d="M408 87h-2c-28 -57 -96 -98 -184 -98c-97 0 -177 51 -177 151c0 115 110 137 233 155l62 9c59 8 67 26 67 67c0 67 -32 111 -135 111c-91 0 -147 -34 -147 -129h-56c0 125 89 174 203 174c51 0 100 -7 136 -34c31 -23 52 -58 52 -123v-290c0 -27 14 -41 41 -41
c9 0 12 0 21 1v-40c-16 -1 -26 -2 -37 -2c-55 0 -77 26 -77 75v14zM407 188v95c-8 -9 -22 -15 -66 -23l-62 -11c-103 -18 -176 -32 -176 -108c0 -65 52 -106 127 -106c47 0 96 14 129 46c29 27 48 66 48 107zM384 604h-51v96h51v-96zM211 604h-52v96h52v-96z" />
    <glyph glyph-name="amacron" unicode="&#x101;" horiz-adv-x="537" 
d="M408 87h-2c-28 -57 -96 -98 -184 -98c-97 0 -177 51 -177 151c0 115 110 137 233 155l62 9c59 8 67 26 67 67c0 67 -32 111 -135 111c-91 0 -147 -34 -147 -129h-56c0 125 89 174 203 174c51 0 100 -7 136 -34c31 -23 52 -58 52 -123v-290c0 -27 14 -41 41 -41
c9 0 12 0 21 1v-40c-16 -1 -26 -2 -37 -2c-55 0 -77 26 -77 75v14zM407 188v95c-8 -9 -22 -15 -66 -23l-62 -11c-103 -18 -176 -32 -176 -108c0 -65 52 -106 127 -106c47 0 96 14 129 46c29 27 48 66 48 107zM428 629h-294v40h294v-40z" />
    <glyph glyph-name="abreve" unicode="&#x103;" horiz-adv-x="537" 
d="M408 87h-2c-28 -57 -96 -98 -184 -98c-97 0 -177 51 -177 151c0 115 110 137 233 155l62 9c59 8 67 26 67 67c0 67 -32 111 -135 111c-91 0 -147 -34 -147 -129h-56c0 125 89 174 203 174c51 0 100 -7 136 -34c31 -23 52 -58 52 -123v-290c0 -27 14 -41 41 -41
c9 0 12 0 21 1v-40c-16 -1 -26 -2 -37 -2c-55 0 -77 26 -77 75v14zM407 188v95c-8 -9 -22 -15 -66 -23l-62 -11c-103 -18 -176 -32 -176 -108c0 -65 52 -106 127 -106c47 0 96 14 129 46c29 27 48 66 48 107zM280 578c-79 0 -140 37 -156 105l38 11c11 -49 65 -75 117 -75
c55 0 108 26 117 75l38 -11c-13 -68 -75 -105 -154 -105z" />
    <glyph glyph-name="aring" unicode="&#xe5;" horiz-adv-x="537" 
d="M408 87h-2c-28 -57 -96 -98 -184 -98c-97 0 -177 51 -177 151c0 115 110 137 233 155l62 9c59 8 67 26 67 67c0 67 -32 111 -135 111c-91 0 -147 -34 -147 -129h-56c0 125 89 174 203 174c51 0 100 -7 136 -34c31 -23 52 -58 52 -123v-290c0 -27 14 -41 41 -41
c9 0 12 0 21 1v-40c-16 -1 -26 -2 -37 -2c-55 0 -77 26 -77 75v14zM407 188v95c-8 -9 -22 -15 -66 -23l-62 -11c-103 -18 -176 -32 -176 -108c0 -65 52 -106 127 -106c47 0 96 14 129 46c29 27 48 66 48 107zM189 639c0 47 38 84 83 84c47 0 84 -37 84 -84
c0 -45 -37 -83 -84 -83c-45 0 -83 38 -83 83zM218 639c0 -29 25 -54 54 -54c31 0 55 25 55 54c0 31 -24 55 -55 55c-29 0 -54 -24 -54 -55z" />
    <glyph glyph-name="aringacute" unicode="&#x1fb;" horiz-adv-x="537" 
d="M408 87h-2c-28 -57 -96 -98 -184 -98c-97 0 -177 51 -177 151c0 115 110 137 233 155l62 9c59 8 67 26 67 67c0 67 -32 111 -135 111c-91 0 -147 -34 -147 -129h-56c0 125 89 174 203 174c51 0 100 -7 136 -34c31 -23 52 -58 52 -123v-290c0 -27 14 -41 41 -41
c9 0 12 0 21 1v-40c-16 -1 -26 -2 -37 -2c-55 0 -77 26 -77 75v14zM407 188v95c-8 -9 -22 -15 -66 -23l-62 -11c-103 -18 -176 -32 -176 -108c0 -65 52 -106 127 -106c47 0 96 14 129 46c29 27 48 66 48 107zM192 636c0 47 38 84 83 84c47 0 84 -37 84 -84
c0 -45 -37 -83 -84 -83c-45 0 -83 38 -83 83zM221 636c0 -29 25 -54 54 -54c31 0 55 25 55 54c0 31 -24 55 -55 55c-29 0 -54 -24 -54 -55zM297 746h-42l95 129h69z" />
    <glyph glyph-name="aogonek" unicode="&#x105;" horiz-adv-x="537" 
d="M408 87h-2c-28 -57 -96 -98 -184 -98c-97 0 -177 51 -177 151c0 115 110 137 233 155l62 9c59 8 67 26 67 67c0 67 -32 111 -135 111c-91 0 -147 -34 -147 -129h-56c0 125 89 174 203 174c51 0 100 -7 136 -34c31 -23 52 -58 52 -123v-290c0 -27 14 -41 41 -41
c9 0 12 0 21 1v-40c-16 -1 -26 -2 -37 -2c-55 0 -77 26 -77 75v14zM407 188v95c-8 -9 -22 -15 -66 -23l-62 -11c-103 -18 -176 -32 -176 -108c0 -65 52 -106 127 -106c47 0 96 14 129 46c29 27 48 66 48 107zM488 0h34c-65 -52 -85 -82 -85 -111c0 -27 18 -43 41 -43
s38 12 54 36l26 -12c-19 -33 -43 -60 -94 -60c-48 0 -77 31 -77 70c0 47 49 88 101 120z" />
    <glyph glyph-name="ae" unicode="&#xe6;" horiz-adv-x="901" 
d="M859 244h-400c0 -96 56 -212 177 -212c91 0 145 56 166 133h53c-25 -115 -106 -180 -219 -180c-103 0 -164 52 -199 129c-28 -56 -88 -125 -215 -125c-97 0 -177 51 -177 151c0 49 23 86 59 107c43 27 104 39 173 48l63 9c59 8 67 26 67 67c0 67 -32 111 -135 111
c-91 0 -147 -34 -147 -129h-56c0 125 89 174 203 174c51 0 100 -7 136 -34c21 -16 37 -37 44 -70c37 61 95 106 184 106c160 0 223 -131 223 -271v-14zM460 290h343c0 107 -61 193 -167 193c-112 0 -170 -88 -176 -193zM407 188v95c-8 -9 -22 -15 -66 -23l-67 -12
c-69 -12 -101 -18 -132 -37c-26 -15 -39 -39 -39 -70c0 -65 52 -106 127 -106c47 0 96 14 129 46c29 27 48 66 48 107z" />
    <glyph glyph-name="aeacute" unicode="&#x1fd;" horiz-adv-x="901" 
d="M859 244h-400c0 -96 56 -212 177 -212c91 0 145 56 166 133h53c-25 -115 -106 -180 -219 -180c-103 0 -164 52 -199 129c-28 -56 -88 -125 -215 -125c-97 0 -177 51 -177 151c0 49 23 86 59 107c43 27 104 39 173 48l63 9c59 8 67 26 67 67c0 67 -32 111 -135 111
c-91 0 -147 -34 -147 -129h-56c0 125 89 174 203 174c51 0 100 -7 136 -34c21 -16 37 -37 44 -70c37 61 95 106 184 106c160 0 223 -131 223 -271v-14zM460 290h343c0 107 -61 193 -167 193c-112 0 -170 -88 -176 -193zM407 188v95c-8 -9 -22 -15 -66 -23l-67 -12
c-69 -12 -101 -18 -132 -37c-26 -15 -39 -39 -39 -70c0 -65 52 -106 127 -106c47 0 96 14 129 46c29 27 48 66 48 107zM461 571h-42l95 129h69z" />
    <glyph glyph-name="cacute" unicode="&#x107;" horiz-adv-x="535" 
d="M496 357h-56c-17 79 -72 126 -156 126c-134 0 -186 -113 -186 -226c0 -110 49 -225 186 -225c80 0 151 62 161 148h54c-9 -59 -33 -106 -72 -142c-39 -35 -87 -53 -143 -53c-156 0 -242 122 -242 272s86 272 242 272c105 0 196 -54 212 -172zM288 571h-42l95 129h69z" />
    <glyph glyph-name="ccircumflex" unicode="&#x109;" horiz-adv-x="535" 
d="M496 357h-56c-17 79 -72 126 -156 126c-134 0 -186 -113 -186 -226c0 -110 49 -225 186 -225c80 0 151 62 161 148h54c-9 -59 -33 -106 -72 -142c-39 -35 -87 -53 -143 -53c-156 0 -242 122 -242 272s86 272 242 272c105 0 196 -54 212 -172zM284 669l-91 -98h-49
l110 129h60l110 -129h-49z" />
    <glyph glyph-name="ccaron" unicode="&#x10d;" horiz-adv-x="535" 
d="M496 357h-56c-17 79 -72 126 -156 126c-134 0 -186 -113 -186 -226c0 -110 49 -225 186 -225c80 0 151 62 161 148h54c-9 -59 -33 -106 -72 -142c-39 -35 -87 -53 -143 -53c-156 0 -242 122 -242 272s86 272 242 272c105 0 196 -54 212 -172zM286 602l91 98h49l-110 -129
h-60l-110 129h49z" />
    <glyph glyph-name="cdotaccent" unicode="&#x10b;" horiz-adv-x="535" 
d="M496 357h-56c-17 79 -72 126 -156 126c-134 0 -186 -113 -186 -226c0 -110 49 -225 186 -225c80 0 151 62 161 148h54c-9 -59 -33 -106 -72 -142c-39 -35 -87 -53 -143 -53c-156 0 -242 122 -242 272s86 272 242 272c105 0 196 -54 212 -172zM309 604h-49v96h49v-96z" />
    <glyph glyph-name="ccedilla" unicode="&#xe7;" horiz-adv-x="535" 
d="M496 357h-56c-17 79 -72 126 -156 126c-134 0 -186 -113 -186 -226c0 -110 49 -225 186 -225c80 0 151 62 161 148h54c-9 -59 -33 -106 -72 -142c-39 -35 -87 -53 -143 -53c-156 0 -242 122 -242 272s86 272 242 272c105 0 196 -54 212 -172zM255 -51l1 -1c8 1 16 2 24 2
c39 0 79 -16 79 -61c0 -53 -49 -74 -101 -74c-29 0 -62 6 -83 18l13 30c13 -7 40 -15 65 -15c28 0 54 11 54 40c0 27 -24 34 -48 34c-14 0 -26 -2 -37 -7l-16 17l56 68h38z" />
    <glyph glyph-name="dslash" unicode="&#x111;" horiz-adv-x="593" 
d="M513 0h-54v29c0 16 0 54 1 69h-3c-28 -69 -101 -113 -184 -113c-157 0 -231 126 -231 270c0 146 74 274 230 274c77 0 154 -39 182 -114h3v188h-125v41h125v56h56v-56h58v-41h-58v-603zM98 255c0 -107 51 -223 175 -223c140 0 186 118 186 225c0 109 -48 226 -187 226
c-124 0 -174 -119 -174 -228z" />
    <glyph glyph-name="dcaron" unicode="&#x10f;" horiz-adv-x="605" 
d="M513 0h-54v29c0 16 0 54 1 69h-3c-28 -69 -101 -113 -184 -113c-157 0 -231 126 -231 270c0 146 74 274 230 274c77 0 154 -39 182 -114h3v285h56v-700zM98 255c0 -107 51 -223 175 -223c140 0 186 118 186 225c0 109 -48 226 -187 226c-124 0 -174 -119 -174 -228z
M615 700h60l-56 -154h-32z" />
    <glyph glyph-name="eth" unicode="&#xf0;" horiz-adv-x="570" 
d="M445 691l-112 -53c108 -82 193 -208 193 -372c0 -155 -78 -281 -245 -281c-162 0 -239 119 -239 273c0 145 87 267 239 267c49 0 106 -19 134 -46l2 2c-24 43 -71 93 -130 136l-130 -61l-28 27l122 58c-37 23 -76 41 -119 54l40 27c43 -13 85 -33 125 -59l121 57z
M286 478c-134 0 -188 -103 -188 -221c0 -116 55 -225 186 -225c123 0 186 95 186 227c0 106 -52 219 -184 219z" />
    <glyph glyph-name="egrave" unicode="&#xe8;" horiz-adv-x="558" 
d="M516 244h-420c0 -96 62 -212 186 -212c95 0 156 56 177 133h53c-25 -115 -114 -180 -230 -180c-163 0 -240 126 -240 272c0 136 76 272 240 272c166 0 234 -131 234 -271v-14zM97 290h364c0 107 -70 193 -179 193c-115 0 -179 -88 -185 -193zM285 571l-122 129h69
l95 -129h-42z" />
    <glyph glyph-name="eacute" unicode="&#xe9;" horiz-adv-x="558" 
d="M516 244h-420c0 -96 62 -212 186 -212c95 0 156 56 177 133h53c-25 -115 -114 -180 -230 -180c-163 0 -240 126 -240 272c0 136 76 272 240 272c166 0 234 -131 234 -271v-14zM97 290h364c0 107 -70 193 -179 193c-115 0 -179 -88 -185 -193zM288 571h-42l95 129h69z" />
    <glyph glyph-name="ecircumflex" unicode="&#xea;" horiz-adv-x="558" 
d="M516 244h-420c0 -96 62 -212 186 -212c95 0 156 56 177 133h53c-25 -115 -114 -180 -230 -180c-163 0 -240 126 -240 272c0 136 76 272 240 272c166 0 234 -131 234 -271v-14zM97 290h364c0 107 -70 193 -179 193c-115 0 -179 -88 -185 -193zM283 669l-91 -98h-49
l110 129h60l110 -129h-49z" />
    <glyph glyph-name="ecaron" unicode="&#x11b;" horiz-adv-x="558" 
d="M516 244h-420c0 -96 62 -212 186 -212c95 0 156 56 177 133h53c-25 -115 -114 -180 -230 -180c-163 0 -240 126 -240 272c0 136 76 272 240 272c166 0 234 -131 234 -271v-14zM97 290h364c0 107 -70 193 -179 193c-115 0 -179 -88 -185 -193zM284 602l91 98h49l-110 -129
h-60l-110 129h49z" />
    <glyph glyph-name="edieresis" unicode="&#xeb;" horiz-adv-x="558" 
d="M516 244h-420c0 -96 62 -212 186 -212c95 0 156 56 177 133h53c-25 -115 -114 -180 -230 -180c-163 0 -240 126 -240 272c0 136 76 272 240 272c166 0 234 -131 234 -271v-14zM97 290h364c0 107 -70 193 -179 193c-115 0 -179 -88 -185 -193zM395 604h-51v96h51v-96z
M222 604h-52v96h52v-96z" />
    <glyph glyph-name="emacron" unicode="&#x113;" horiz-adv-x="558" 
d="M516 244h-420c0 -96 62 -212 186 -212c95 0 156 56 177 133h53c-25 -115 -114 -180 -230 -180c-163 0 -240 126 -240 272c0 136 76 272 240 272c166 0 234 -131 234 -271v-14zM97 290h364c0 107 -70 193 -179 193c-115 0 -179 -88 -185 -193zM434 629h-294v40h294v-40z
" />
    <glyph glyph-name="ebreve" unicode="&#x115;" horiz-adv-x="558" 
d="M516 244h-420c0 -96 62 -212 186 -212c95 0 156 56 177 133h53c-25 -115 -114 -180 -230 -180c-163 0 -240 126 -240 272c0 136 76 272 240 272c166 0 234 -131 234 -271v-14zM97 290h364c0 107 -70 193 -179 193c-115 0 -179 -88 -185 -193zM289 578
c-79 0 -140 37 -156 105l38 11c11 -49 65 -75 117 -75c55 0 108 26 117 75l38 -11c-13 -68 -75 -105 -154 -105z" />
    <glyph glyph-name="edotaccent" unicode="&#x117;" horiz-adv-x="558" 
d="M516 244h-420c0 -96 62 -212 186 -212c95 0 156 56 177 133h53c-25 -115 -114 -180 -230 -180c-163 0 -240 126 -240 272c0 136 76 272 240 272c166 0 234 -131 234 -271v-14zM97 290h364c0 107 -70 193 -179 193c-115 0 -179 -88 -185 -193zM310 604h-49v96h49v-96z" />
    <glyph glyph-name="eogonek" unicode="&#x119;" horiz-adv-x="558" 
d="M516 244h-420c0 -96 62 -212 186 -212c95 0 156 56 177 133h53c-25 -115 -114 -180 -230 -180c-163 0 -240 126 -240 272c0 136 76 272 240 272c166 0 234 -131 234 -271v-14zM97 290h364c0 107 -70 193 -179 193c-115 0 -179 -88 -185 -193zM338 0h34
c-65 -52 -85 -82 -85 -111c0 -27 18 -43 41 -43s38 12 54 36l26 -12c-19 -33 -43 -60 -94 -60c-48 0 -77 31 -77 70c0 47 49 88 101 120z" />
    <glyph glyph-name="gcircumflex" unicode="&#x11d;" horiz-adv-x="579" 
d="M499 515v-462c0 -153 -58 -235 -225 -235c-121 0 -201 43 -212 150h57c15 -75 59 -104 155 -104c119 0 170 48 170 184v22c0 21 1 43 2 54h-3c-27 -69 -96 -116 -173 -116c-160 0 -227 114 -227 260c0 145 79 261 230 261c91 0 148 -53 169 -110h3c-1 13 -1 47 -1 60v36
h55zM274 56c113 0 172 100 172 209c0 114 -51 218 -174 218c-124 0 -173 -108 -173 -217c0 -105 52 -210 175 -210zM282 669l-91 -98h-49l110 129h60l110 -129h-49z" />
    <glyph glyph-name="gbreve" unicode="&#x11f;" horiz-adv-x="579" 
d="M499 515v-462c0 -153 -58 -235 -225 -235c-121 0 -201 43 -212 150h57c15 -75 59 -104 155 -104c119 0 170 48 170 184v22c0 21 1 43 2 54h-3c-27 -69 -96 -116 -173 -116c-160 0 -227 114 -227 260c0 145 79 261 230 261c91 0 148 -53 169 -110h3c-1 13 -1 47 -1 60v36
h55zM274 56c113 0 172 100 172 209c0 114 -51 218 -174 218c-124 0 -173 -108 -173 -217c0 -105 52 -210 175 -210zM282 578c-79 0 -140 37 -156 105l38 11c11 -49 65 -75 117 -75c55 0 108 26 117 75l38 -11c-13 -68 -75 -105 -154 -105z" />
    <glyph glyph-name="gdotaccent" unicode="&#x121;" horiz-adv-x="579" 
d="M499 515v-462c0 -153 -58 -235 -225 -235c-121 0 -201 43 -212 150h57c15 -75 59 -104 155 -104c119 0 170 48 170 184v22c0 21 1 43 2 54h-3c-27 -69 -96 -116 -173 -116c-160 0 -227 114 -227 260c0 145 79 261 230 261c91 0 148 -53 169 -110h3c-1 13 -1 47 -1 60v36
h55zM274 56c113 0 172 100 172 209c0 114 -51 218 -174 218c-124 0 -173 -108 -173 -217c0 -105 52 -210 175 -210zM311 604h-49v96h49v-96z" />
    <glyph glyph-name="uni0123" unicode="&#x123;" horiz-adv-x="579" 
d="M499 515v-462c0 -153 -58 -235 -225 -235c-121 0 -201 43 -212 150h57c15 -75 59 -104 155 -104c119 0 170 48 170 184v22c0 21 1 43 2 54h-3c-27 -69 -96 -116 -173 -116c-160 0 -227 114 -227 260c0 145 79 261 230 261c91 0 148 -53 169 -110h3c-1 13 -1 47 -1 60v36
h55zM274 56c113 0 172 100 172 209c0 114 -51 218 -174 218c-124 0 -173 -108 -173 -217c0 -105 52 -210 175 -210zM311 557h-76v79c0 55 13 97 76 114v-40c-33 -11 -38 -37 -38 -64v-4h38v-85z" />
    <glyph glyph-name="hcircumflex" unicode="&#x125;" horiz-adv-x="566" 
d="M80 0v700h55v-172c0 -37 -1 -69 -1 -104h2c25 63 91 105 171 105c144 0 186 -76 186 -197v-332h-55v322c0 92 -30 161 -136 161c-104 0 -167 -79 -167 -182v-301h-55zM303 844l-91 -98h-49l110 129h60l110 -129h-49z" />
    <glyph glyph-name="hbar" unicode="&#x127;" horiz-adv-x="566" 
d="M22 603v41h58v56h55v-56h126v-41h-126v-75c0 -37 -1 -69 -1 -104h2c25 63 91 105 171 105c144 0 186 -76 186 -197v-332h-55v322c0 92 -30 161 -136 161c-104 0 -167 -79 -167 -182v-301h-55v603h-58z" />
    <glyph glyph-name="dotlessi" unicode="&#x131;" horiz-adv-x="215" 
d="M80 0v515h55v-515h-55z" />
    <glyph glyph-name="i.latn_TRK" horiz-adv-x="215" 
d="M80 0v515h55v-515h-55zM132 604h-49v96h49v-96z" />
    <glyph glyph-name="igrave" unicode="&#xec;" horiz-adv-x="215" 
d="M80 0v515h55v-515h-55zM96 571l-122 129h69l95 -129h-42z" />
    <glyph glyph-name="iacute" unicode="&#xed;" horiz-adv-x="215" 
d="M80 0v515h55v-515h-55zM128 571h-42l95 129h69z" />
    <glyph glyph-name="icircumflex" unicode="&#xee;" horiz-adv-x="215" 
d="M80 0v515h55v-515h-55zM108 669l-91 -98h-49l110 129h60l110 -129h-49z" />
    <glyph glyph-name="itilde" unicode="&#x129;" horiz-adv-x="215" 
d="M80 0v515h55v-515h-55zM-15 611h-33c7 47 34 91 89 91c28 0 52 -11 73 -22l10 -5c20 -9 36 -17 53 -17c33 0 47 23 55 48h33c-7 -45 -34 -91 -89 -91c-28 0 -50 11 -73 22l-10 5c-20 11 -36 17 -53 17c-33 0 -47 -21 -55 -48z" />
    <glyph glyph-name="idieresis" unicode="&#xef;" horiz-adv-x="215" 
d="M80 0v515h55v-515h-55zM220 604h-51v96h51v-96zM47 604h-52v96h52v-96z" />
    <glyph glyph-name="imacron" unicode="&#x12b;" horiz-adv-x="215" 
d="M80 0v515h55v-515h-55zM254 629h-294v40h294v-40z" />
    <glyph glyph-name="ibreve" unicode="&#x12d;" horiz-adv-x="215" 
d="M80 0v515h55v-515h-55zM111 578c-79 0 -140 37 -156 105l38 11c11 -49 65 -75 117 -75c55 0 108 26 117 75l38 -11c-13 -68 -75 -105 -154 -105z" />
    <glyph glyph-name="iogonek" unicode="&#x12f;" horiz-adv-x="215" 
d="M80 604v96h55v-96h-55zM80 0v515h55v-515h-55zM100 0h34c-65 -52 -85 -82 -85 -111c0 -27 18 -43 41 -43s38 12 54 36l26 -12c-19 -33 -43 -60 -94 -60c-48 0 -77 31 -77 70c0 47 49 88 101 120z" />
    <glyph glyph-name="uni0237" unicode="&#x237;" horiz-adv-x="215" 
d="M135 515v-556c0 -93 -27 -134 -114 -134c-13 0 -18 1 -33 2v45c11 -1 17 -1 26 -1c49 0 66 26 66 79v565h55z" />
    <glyph glyph-name="ij" unicode="&#x133;" horiz-adv-x="416" 
d="M80 604v96h55v-96h-55zM80 0v515h55v-515h-55zM281 604v96h55v-96h-55zM336 515v-556c0 -93 -27 -134 -114 -134c-13 0 -18 1 -33 2v45c11 -1 17 -1 26 -1c49 0 66 26 66 79v565h55z" />
    <glyph glyph-name="jcircumflex" unicode="&#x135;" horiz-adv-x="215" 
d="M135 515v-556c0 -93 -27 -134 -114 -134c-13 0 -18 1 -33 2v45c11 -1 17 -1 26 -1c49 0 66 26 66 79v565h55zM106 669l-91 -98h-49l110 129h60l110 -129h-49z" />
    <glyph glyph-name="uni0137" unicode="&#x137;" horiz-adv-x="521" 
d="M81 0v700h55v-444l294 259h74l-219 -190l235 -325h-68l-208 287l-108 -92v-195h-55zM233 -50h76v-79c0 -53 -13 -95 -76 -114v40c33 11 38 39 38 64v4h-38v85z" />
    <glyph glyph-name="kgreenlandic" unicode="&#x138;" horiz-adv-x="516" 
d="M80 0v515h55v-259l294 259h74l-219 -190l235 -325h-68l-208 287l-108 -92v-195h-55z" />
    <glyph glyph-name="lacute" unicode="&#x13a;" horiz-adv-x="215" 
d="M80 0v700h55v-700h-55zM125 746h-42l95 129h69z" />
    <glyph glyph-name="lcaron" unicode="&#x13e;" horiz-adv-x="227" 
d="M80 0v700h55v-700h-55zM238 700h60l-56 -154h-32z" />
    <glyph glyph-name="ldot" unicode="&#x140;" horiz-adv-x="256" 
d="M80 0v700h55v-700h-55zM260 334h-49v96h49v-96z" />
    <glyph glyph-name="ldot.latn_CAT" horiz-adv-x="256" 
d="M80 0v700h55v-700h-55zM260 334h-49v96h49v-96z" />
    <glyph glyph-name="lslash" unicode="&#x142;" horiz-adv-x="277" 
d="M33 262v55l82 53v330h55v-295l84 55v-55l-84 -55v-350h-55v315z" />
    <glyph glyph-name="uni013C" unicode="&#x13c;" horiz-adv-x="215" 
d="M80 0v700h55v-700h-55zM71 -50h76v-79c0 -53 -13 -95 -76 -114v40c33 11 38 39 38 64v4h-38v85z" />
    <glyph glyph-name="uni0146" unicode="&#x146;" horiz-adv-x="566" 
d="M80 0v515h54v-91h2c25 63 91 105 171 105c144 0 186 -76 186 -197v-332h-55v322c0 92 -30 161 -136 161c-104 0 -167 -79 -167 -182v-301h-55zM243 -50h76v-79c0 -53 -13 -95 -76 -114v40c33 11 38 39 38 64v4h-38v85z" />
    <glyph glyph-name="nacute" unicode="&#x144;" horiz-adv-x="566" 
d="M80 0v515h54v-91h2c25 63 91 105 171 105c144 0 186 -76 186 -197v-332h-55v322c0 92 -30 161 -136 161c-104 0 -167 -79 -167 -182v-301h-55zM285 571h-42l95 129h69z" />
    <glyph glyph-name="ncaron" unicode="&#x148;" horiz-adv-x="566" 
d="M80 0v515h54v-91h2c25 63 91 105 171 105c144 0 186 -76 186 -197v-332h-55v322c0 92 -30 161 -136 161c-104 0 -167 -79 -167 -182v-301h-55zM296 602l91 98h49l-110 -129h-60l-110 129h49z" />
    <glyph glyph-name="ntilde" unicode="&#xf1;" horiz-adv-x="566" 
d="M80 0v515h54v-91h2c25 63 91 105 171 105c144 0 186 -76 186 -197v-332h-55v322c0 92 -30 161 -136 161c-104 0 -167 -79 -167 -182v-301h-55zM180 611h-33c7 47 34 91 89 91c28 0 52 -11 73 -22l10 -5c20 -9 36 -17 53 -17c33 0 47 23 55 48h33c-7 -45 -34 -91 -89 -91
c-28 0 -50 11 -73 22l-10 5c-20 11 -36 17 -53 17c-33 0 -47 -21 -55 -48z" />
    <glyph glyph-name="napostrophe" unicode="&#x149;" horiz-adv-x="579" 
d="M93 0v515h54v-91h2c25 63 91 105 171 105c144 0 186 -76 186 -197v-332h-55v322c0 92 -30 161 -136 161c-104 0 -167 -79 -167 -182v-301h-55zM9 700h76v-79c0 -53 -13 -95 -76 -114v40c33 11 38 39 38 64v4h-38v85z" />
    <glyph glyph-name="eng" unicode="&#x14b;" horiz-adv-x="566" 
d="M438 322c0 92 -30 161 -136 161c-104 0 -167 -79 -167 -182v-301h-55v515h54v-91h2c25 63 91 105 171 105c144 0 186 -76 186 -197v-372c0 -93 -27 -134 -114 -134c-13 0 -18 1 -33 2v45c11 -1 17 -1 26 -1c49 0 66 26 66 79v371z" />
    <glyph glyph-name="ograve" unicode="&#xf2;" horiz-adv-x="568" 
d="M284 529c156 0 242 -122 242 -272c0 -148 -86 -272 -242 -272s-242 124 -242 272c0 150 86 272 242 272zM284 32c124 0 186 97 186 225c0 127 -62 226 -186 226s-186 -99 -186 -226c0 -128 62 -225 186 -225zM288 571l-122 129h69l95 -129h-42z" />
    <glyph glyph-name="oacute" unicode="&#xf3;" horiz-adv-x="568" 
d="M284 529c156 0 242 -122 242 -272c0 -148 -86 -272 -242 -272s-242 124 -242 272c0 150 86 272 242 272zM284 32c124 0 186 97 186 225c0 127 -62 226 -186 226s-186 -99 -186 -226c0 -128 62 -225 186 -225zM287 571h-42l95 129h69z" />
    <glyph glyph-name="ocircumflex" unicode="&#xf4;" horiz-adv-x="568" 
d="M284 529c156 0 242 -122 242 -272c0 -148 -86 -272 -242 -272s-242 124 -242 272c0 150 86 272 242 272zM284 32c124 0 186 97 186 225c0 127 -62 226 -186 226s-186 -99 -186 -226c0 -128 62 -225 186 -225zM285 669l-91 -98h-49l110 129h60l110 -129h-49z" />
    <glyph glyph-name="otilde" unicode="&#xf5;" horiz-adv-x="568" 
d="M284 529c156 0 242 -122 242 -272c0 -148 -86 -272 -242 -272s-242 124 -242 272c0 150 86 272 242 272zM284 32c124 0 186 97 186 225c0 127 -62 226 -186 226s-186 -99 -186 -226c0 -128 62 -225 186 -225zM162 611h-33c7 47 34 91 89 91c28 0 52 -11 73 -22l10 -5
c20 -9 36 -17 53 -17c33 0 47 23 55 48h33c-7 -45 -34 -91 -89 -91c-28 0 -50 11 -73 22l-10 5c-20 11 -36 17 -53 17c-33 0 -47 -21 -55 -48z" />
    <glyph glyph-name="odieresis" unicode="&#xf6;" horiz-adv-x="568" 
d="M284 529c156 0 242 -122 242 -272c0 -148 -86 -272 -242 -272s-242 124 -242 272c0 150 86 272 242 272zM284 32c124 0 186 97 186 225c0 127 -62 226 -186 226s-186 -99 -186 -226c0 -128 62 -225 186 -225zM399 604h-51v96h51v-96zM226 604h-52v96h52v-96z" />
    <glyph glyph-name="omacron" unicode="&#x14d;" horiz-adv-x="568" 
d="M284 529c156 0 242 -122 242 -272c0 -148 -86 -272 -242 -272s-242 124 -242 272c0 150 86 272 242 272zM284 32c124 0 186 97 186 225c0 127 -62 226 -186 226s-186 -99 -186 -226c0 -128 62 -225 186 -225zM434 629h-294v40h294v-40z" />
    <glyph glyph-name="obreve" unicode="&#x14f;" horiz-adv-x="568" 
d="M284 529c156 0 242 -122 242 -272c0 -148 -86 -272 -242 -272s-242 124 -242 272c0 150 86 272 242 272zM284 32c124 0 186 97 186 225c0 127 -62 226 -186 226s-186 -99 -186 -226c0 -128 62 -225 186 -225zM288 578c-79 0 -140 37 -156 105l38 11
c11 -49 65 -75 117 -75c55 0 108 26 117 75l38 -11c-13 -68 -75 -105 -154 -105z" />
    <glyph glyph-name="ohungarumlaut" unicode="&#x151;" horiz-adv-x="568" 
d="M284 529c156 0 242 -122 242 -272c0 -148 -86 -272 -242 -272s-242 124 -242 272c0 150 86 272 242 272zM284 32c124 0 186 97 186 225c0 127 -62 226 -186 226s-186 -99 -186 -226c0 -128 62 -225 186 -225zM225 571h-42l95 129h69zM370 571h-42l107 129h69z" />
    <glyph glyph-name="oe" unicode="&#x153;" horiz-adv-x="933" 
d="M270 529c99 0 166 -55 199 -136c35 76 98 136 199 136c160 0 223 -131 223 -271v-14h-399c4 -117 65 -212 176 -212c91 0 145 56 166 133h53c-25 -115 -106 -180 -219 -180c-104 0 -166 55 -201 132c-33 -79 -101 -132 -197 -132c-147 0 -227 119 -227 272
s80 272 227 272zM270 32c118 0 174 97 174 225c0 127 -56 226 -174 226c-117 0 -174 -99 -174 -226c0 -128 57 -225 174 -225zM668 483c-109 0 -167 -84 -177 -193h344c0 107 -61 193 -167 193z" />
    <glyph glyph-name="oslash" unicode="&#xf8;" horiz-adv-x="574" 
d="M285 529c63 0 114 -20 153 -53l64 84l31 -23l-68 -89c41 -49 62 -116 62 -191c0 -148 -86 -272 -242 -272c-55 0 -101 14 -140 42l-59 -78l-31 23l61 81c-48 51 -73 123 -73 204c0 150 86 272 242 272zM99 257c0 -65 16 -123 48 -163l261 342c-29 31 -71 47 -123 47
c-124 0 -186 -99 -186 -226zM285 32c124 0 186 97 186 225c0 59 -11 109 -38 149l-258 -340c30 -23 67 -34 110 -34z" />
    <glyph glyph-name="oslashacute" unicode="&#x1ff;" horiz-adv-x="574" 
d="M302 571h-42l95 129h69zM285 529c63 0 114 -20 153 -53l64 84l31 -23l-68 -89c41 -49 62 -116 62 -191c0 -148 -86 -272 -242 -272c-55 0 -101 14 -140 42l-59 -78l-31 23l61 81c-48 51 -73 123 -73 204c0 150 86 272 242 272zM99 257c0 -65 16 -123 48 -163l261 342
c-29 31 -71 47 -123 47c-124 0 -186 -99 -186 -226zM285 32c124 0 186 97 186 225c0 59 -11 109 -38 149l-258 -340c30 -23 67 -34 110 -34z" />
    <glyph glyph-name="thorn" unicode="&#xfe;" horiz-adv-x="593" 
d="M80 -172v872h56v-225c0 -17 0 -33 -1 -60h3c28 75 106 114 183 114c156 0 230 -128 230 -274c0 -144 -76 -270 -231 -270c-83 0 -155 44 -183 113h-3c1 -15 2 -53 2 -69v-201h-56zM495 255c0 109 -49 228 -174 228c-139 0 -187 -117 -187 -226c0 -107 46 -225 186 -225
c124 0 175 116 175 223z" />
    <glyph glyph-name="racute" unicode="&#x155;" horiz-adv-x="336" 
d="M80 0v515h54v-47c0 -19 0 -32 -1 -61h2c19 67 81 117 164 117c9 0 19 1 30 -2v-51c-9 1 -18 2 -30 2c-45 0 -81 -13 -109 -40c-37 -35 -55 -89 -55 -156v-277h-55zM178 571h-42l95 129h69z" />
    <glyph glyph-name="rcaron" unicode="&#x159;" horiz-adv-x="336" 
d="M80 0v515h54v-47c0 -19 0 -32 -1 -61h2c19 67 81 117 164 117c9 0 19 1 30 -2v-51c-9 1 -18 2 -30 2c-45 0 -81 -13 -109 -40c-37 -35 -55 -89 -55 -156v-277h-55zM208 602l91 98h49l-110 -129h-60l-110 129h49z" />
    <glyph glyph-name="uni0157" unicode="&#x157;" horiz-adv-x="336" 
d="M80 0v515h54v-47c0 -19 0 -32 -1 -61h2c19 67 81 117 164 117c9 0 19 1 30 -2v-51c-9 1 -18 2 -30 2c-45 0 -81 -13 -109 -40c-37 -35 -55 -89 -55 -156v-277h-55zM71 -50h76v-79c0 -53 -13 -95 -76 -114v40c33 11 38 39 38 64v4h-38v85z" />
    <glyph glyph-name="sacute" unicode="&#x15b;" horiz-adv-x="486" 
d="M436 369h-56c-5 79 -60 114 -136 114c-72 0 -134 -24 -134 -93c0 -51 28 -72 116 -93l79 -19c76 -18 141 -45 141 -139c0 -101 -90 -154 -201 -154c-117 0 -203 56 -211 177h56c7 -80 60 -130 155 -130c99 0 146 44 146 105c0 59 -46 80 -113 95l-80 18
c-92 21 -144 52 -144 137c0 92 84 142 190 142c101 0 188 -49 192 -160zM234 571h-42l95 129h69z" />
    <glyph glyph-name="scircumflex" unicode="&#x15d;" horiz-adv-x="486" 
d="M436 369h-56c-5 79 -60 114 -136 114c-72 0 -134 -24 -134 -93c0 -51 28 -72 116 -93l79 -19c76 -18 141 -45 141 -139c0 -101 -90 -154 -201 -154c-117 0 -203 56 -211 177h56c7 -80 60 -130 155 -130c99 0 146 44 146 105c0 59 -46 80 -113 95l-80 18
c-92 21 -144 52 -144 137c0 92 84 142 190 142c101 0 188 -49 192 -160zM248 669l-91 -98h-49l110 129h60l110 -129h-49z" />
    <glyph glyph-name="scaron" unicode="&#x161;" horiz-adv-x="486" 
d="M436 369h-56c-5 79 -60 114 -136 114c-72 0 -134 -24 -134 -93c0 -51 28 -72 116 -93l79 -19c76 -18 141 -45 141 -139c0 -101 -90 -154 -201 -154c-117 0 -203 56 -211 177h56c7 -80 60 -130 155 -130c99 0 146 44 146 105c0 59 -46 80 -113 95l-80 18
c-92 21 -144 52 -144 137c0 92 84 142 190 142c101 0 188 -49 192 -160zM244 602l91 98h49l-110 -129h-60l-110 129h49z" />
    <glyph glyph-name="scedilla" unicode="&#x15f;" horiz-adv-x="486" 
d="M436 369h-56c-5 79 -60 114 -136 114c-72 0 -134 -24 -134 -93c0 -51 28 -72 116 -93l79 -19c76 -18 141 -45 141 -139c0 -101 -90 -154 -201 -154c-117 0 -203 56 -211 177h56c7 -80 60 -130 155 -130c99 0 146 44 146 105c0 59 -46 80 -113 95l-80 18
c-92 21 -144 52 -144 137c0 92 84 142 190 142c101 0 188 -49 192 -160zM224 -51l1 -1c8 1 16 2 24 2c39 0 79 -16 79 -61c0 -53 -49 -74 -101 -74c-29 0 -62 6 -83 18l13 30c13 -7 40 -15 65 -15c28 0 54 11 54 40c0 27 -24 34 -48 34c-14 0 -26 -2 -37 -7l-16 17l56 68h38
z" />
    <glyph glyph-name="uni0219" unicode="&#x219;" horiz-adv-x="486" 
d="M436 369h-56c-5 79 -60 114 -136 114c-72 0 -134 -24 -134 -93c0 -51 28 -72 116 -93l79 -19c76 -18 141 -45 141 -139c0 -101 -90 -154 -201 -154c-117 0 -203 56 -211 177h56c7 -80 60 -130 155 -130c99 0 146 44 146 105c0 59 -46 80 -113 95l-80 18
c-92 21 -144 52 -144 137c0 92 84 142 190 142c101 0 188 -49 192 -160zM198 -50h76v-79c0 -53 -13 -95 -76 -114v40c33 11 38 39 38 64v4h-38v85z" />
    <glyph glyph-name="germandbls" unicode="&#xdf;" horiz-adv-x="536" 
d="M80 0v517c0 77 23 122 60 153c33 27 75 40 128 40c115 0 192 -61 192 -168c0 -79 -45 -132 -112 -151v-2c73 -10 147 -70 147 -184c0 -137 -91 -211 -218 -213c-15 0 -26 2 -41 3v47c15 -3 28 -4 41 -4c86 0 164 44 164 165c0 125 -80 158 -192 158h-13v46h10
c84 0 160 34 160 130c0 75 -53 126 -138 126c-41 0 -73 -11 -96 -32c-25 -24 -37 -63 -37 -116v-515h-55z" />
    <glyph glyph-name="tcaron" unicode="&#x165;" horiz-adv-x="287" 
d="M157 674v-159h105v-47h-105v-357c0 -47 15 -68 67 -68c16 0 27 1 38 2v-47c-13 -1 -27 -2 -51 -2c-81 0 -109 27 -109 114v358h-91v47h91v159h55zM228 700h60l-56 -154h-32z" />
    <glyph glyph-name="tbar" unicode="&#x167;" horiz-adv-x="299" 
d="M258 265h-92v-154c0 -47 15 -68 67 -68c16 0 27 1 38 2v-47c-13 -1 -27 -2 -51 -2c-81 0 -109 27 -109 114v155h-91v41h91v162h-91v47h91v159h55v-159h105v-47h-105v-162h92v-41z" />
    <glyph glyph-name="uni021B" unicode="&#x21b;" horiz-adv-x="287" 
d="M157 674v-159h105v-47h-105v-357c0 -47 15 -68 67 -68c16 0 27 1 38 2v-47c-13 -1 -27 -2 -51 -2c-81 0 -109 27 -109 114v358h-91v47h91v159h55zM152 -50h76v-79c0 -53 -13 -95 -76 -114v40c33 11 38 39 38 64v4h-38v85z" />
    <glyph glyph-name="tcommaaccent" unicode="&#x163;" horiz-adv-x="287" 
d="M157 674v-159h105v-47h-105v-357c0 -47 15 -68 67 -68c16 0 27 1 38 2v-47c-13 -1 -27 -2 -51 -2c-81 0 -109 27 -109 114v358h-91v47h91v159h55zM163 -51l1 -1c8 1 16 2 24 2c39 0 79 -16 79 -61c0 -53 -49 -74 -101 -74c-29 0 -62 6 -83 18l13 30c13 -7 40 -15 65 -15
c28 0 54 11 54 40c0 27 -24 34 -48 34c-14 0 -26 -2 -37 -7l-16 17l56 68h38z" />
    <glyph glyph-name="ugrave" unicode="&#xf9;" horiz-adv-x="562" 
d="M427 515h55v-515h-54v91h-2c-25 -61 -89 -105 -169 -105c-143 0 -184 76 -184 197v332h55v-322c0 -92 28 -161 134 -161c104 0 165 79 165 182v301zM278 571l-122 129h69l95 -129h-42z" />
    <glyph glyph-name="uacute" unicode="&#xfa;" horiz-adv-x="562" 
d="M427 515h55v-515h-54v91h-2c-25 -61 -89 -105 -169 -105c-143 0 -184 76 -184 197v332h55v-322c0 -92 28 -161 134 -161c104 0 165 79 165 182v301zM273 571h-42l95 129h69z" />
    <glyph glyph-name="ucircumflex" unicode="&#xfb;" horiz-adv-x="562" 
d="M427 515h55v-515h-54v91h-2c-25 -61 -89 -105 -169 -105c-143 0 -184 76 -184 197v332h55v-322c0 -92 28 -161 134 -161c104 0 165 79 165 182v301zM276 669l-91 -98h-49l110 129h60l110 -129h-49z" />
    <glyph glyph-name="utilde" unicode="&#x169;" horiz-adv-x="562" 
d="M427 515h55v-515h-54v91h-2c-25 -61 -89 -105 -169 -105c-143 0 -184 76 -184 197v332h55v-322c0 -92 28 -161 134 -161c104 0 165 79 165 182v301zM159 611h-33c7 47 34 91 89 91c28 0 52 -11 73 -22l10 -5c20 -9 36 -17 53 -17c33 0 47 23 55 48h33
c-7 -45 -34 -91 -89 -91c-28 0 -50 11 -73 22l-10 5c-20 11 -36 17 -53 17c-33 0 -47 -21 -55 -48z" />
    <glyph glyph-name="udieresis" unicode="&#xfc;" horiz-adv-x="562" 
d="M427 515h55v-515h-54v91h-2c-25 -61 -89 -105 -169 -105c-143 0 -184 76 -184 197v332h55v-322c0 -92 28 -161 134 -161c104 0 165 79 165 182v301zM392 604h-51v96h51v-96zM219 604h-52v96h52v-96z" />
    <glyph glyph-name="umacron" unicode="&#x16b;" horiz-adv-x="562" 
d="M427 515h55v-515h-54v91h-2c-25 -61 -89 -105 -169 -105c-143 0 -184 76 -184 197v332h55v-322c0 -92 28 -161 134 -161c104 0 165 79 165 182v301zM425 629h-294v40h294v-40z" />
    <glyph glyph-name="ubreve" unicode="&#x16d;" horiz-adv-x="562" 
d="M427 515h55v-515h-54v91h-2c-25 -61 -89 -105 -169 -105c-143 0 -184 76 -184 197v332h55v-322c0 -92 28 -161 134 -161c104 0 165 79 165 182v301zM285 578c-79 0 -140 37 -156 105l38 11c11 -49 65 -75 117 -75c55 0 108 26 117 75l38 -11c-13 -68 -75 -105 -154 -105z
" />
    <glyph glyph-name="uring" unicode="&#x16f;" horiz-adv-x="562" 
d="M427 515h55v-515h-54v91h-2c-25 -61 -89 -105 -169 -105c-143 0 -184 76 -184 197v332h55v-322c0 -92 28 -161 134 -161c104 0 165 79 165 182v301zM200 639c0 47 38 84 83 84c47 0 84 -37 84 -84c0 -45 -37 -83 -84 -83c-45 0 -83 38 -83 83zM229 639
c0 -29 25 -54 54 -54c31 0 55 25 55 54c0 31 -24 55 -55 55c-29 0 -54 -24 -54 -55z" />
    <glyph glyph-name="uhungarumlaut" unicode="&#x171;" horiz-adv-x="562" 
d="M427 515h55v-515h-54v91h-2c-25 -61 -89 -105 -169 -105c-143 0 -184 76 -184 197v332h55v-322c0 -92 28 -161 134 -161c104 0 165 79 165 182v301zM203 571h-42l95 129h69zM348 571h-42l107 129h69z" />
    <glyph glyph-name="uogonek" unicode="&#x173;" horiz-adv-x="562" 
d="M427 515h55v-515h-54v91h-2c-25 -61 -89 -105 -169 -105c-143 0 -184 76 -184 197v332h55v-322c0 -92 28 -161 134 -161c104 0 165 79 165 182v301zM448 0h34c-65 -52 -85 -82 -85 -111c0 -27 18 -43 41 -43s38 12 54 36l26 -12c-19 -33 -43 -60 -94 -60
c-48 0 -77 31 -77 70c0 47 49 88 101 120z" />
    <glyph glyph-name="wcircumflex" unicode="&#x175;" horiz-adv-x="743" 
d="M176 0l-165 515h60l77 -260c19 -61 42 -145 57 -201h2c15 56 36 126 57 201l76 260h65l73 -260c16 -57 38 -132 55 -201h2c20 71 40 140 59 201l79 260h59l-166 -515h-62l-75 258c-24 81 -39 134 -56 198h-2c-17 -57 -33 -122 -56 -198l-77 -258h-62zM372 669l-91 -98
h-49l110 129h60l110 -129h-49z" />
    <glyph glyph-name="wgrave" unicode="&#x1e81;" horiz-adv-x="743" 
d="M176 0l-165 515h60l77 -260c19 -61 42 -145 57 -201h2c15 56 36 126 57 201l76 260h65l73 -260c16 -57 38 -132 55 -201h2c20 71 40 140 59 201l79 260h59l-166 -515h-62l-75 258c-24 81 -39 134 -56 198h-2c-17 -57 -33 -122 -56 -198l-77 -258h-62zM351 571l-122 129
h69l95 -129h-42z" />
    <glyph glyph-name="wacute" unicode="&#x1e83;" horiz-adv-x="743" 
d="M176 0l-165 515h60l77 -260c19 -61 42 -145 57 -201h2c15 56 36 126 57 201l76 260h65l73 -260c16 -57 38 -132 55 -201h2c20 71 40 140 59 201l79 260h59l-166 -515h-62l-75 258c-24 81 -39 134 -56 198h-2c-17 -57 -33 -122 -56 -198l-77 -258h-62zM391 571h-42l95 129
h69z" />
    <glyph glyph-name="wdieresis" unicode="&#x1e85;" horiz-adv-x="743" 
d="M176 0l-165 515h60l77 -260c19 -61 42 -145 57 -201h2c15 56 36 126 57 201l76 260h65l73 -260c16 -57 38 -132 55 -201h2c20 71 40 140 59 201l79 260h59l-166 -515h-62l-75 258c-24 81 -39 134 -56 198h-2c-17 -57 -33 -122 -56 -198l-77 -258h-62zM485 604h-51v96h51
v-96zM312 604h-52v96h52v-96z" />
    <glyph glyph-name="ygrave" unicode="&#x1ef3;" horiz-adv-x="470" 
d="M211 1l-204 514h61l98 -259c19 -49 44 -120 71 -191h2c23 69 48 134 69 193l93 257h58c-73 -193 -151 -394 -224 -589c-28 -77 -54 -103 -138 -103c-12 0 -24 1 -36 3v46c11 -2 23 -3 36 -3c59 0 74 21 98 88zM233 571l-122 129h69l95 -129h-42z" />
    <glyph glyph-name="yacute" unicode="&#xfd;" horiz-adv-x="470" 
d="M211 1l-204 514h61l98 -259c19 -49 44 -120 71 -191h2c23 69 48 134 69 193l93 257h58c-73 -193 -151 -394 -224 -589c-28 -77 -54 -103 -138 -103c-12 0 -24 1 -36 3v46c11 -2 23 -3 36 -3c59 0 74 21 98 88zM232 571h-42l95 129h69z" />
    <glyph glyph-name="ycircumflex" unicode="&#x177;" horiz-adv-x="470" 
d="M211 1l-204 514h61l98 -259c19 -49 44 -120 71 -191h2c23 69 48 134 69 193l93 257h58c-73 -193 -151 -394 -224 -589c-28 -77 -54 -103 -138 -103c-12 0 -24 1 -36 3v46c11 -2 23 -3 36 -3c59 0 74 21 98 88zM237 669l-91 -98h-49l110 129h60l110 -129h-49z" />
    <glyph glyph-name="ydieresis" unicode="&#xff;" horiz-adv-x="470" 
d="M211 1l-204 514h61l98 -259c19 -49 44 -120 71 -191h2c23 69 48 134 69 193l93 257h58c-73 -193 -151 -394 -224 -589c-28 -77 -54 -103 -138 -103c-12 0 -24 1 -36 3v46c11 -2 23 -3 36 -3c59 0 74 21 98 88zM350 604h-51v96h51v-96zM177 604h-52v96h52v-96z" />
    <glyph glyph-name="zacute" unicode="&#x17a;" horiz-adv-x="474" 
d="M438 475l-347 -428h361v-47h-427v47l343 421h-320v47h390v-40zM228 571h-42l95 129h69z" />
    <glyph glyph-name="zcaron" unicode="&#x17e;" horiz-adv-x="474" 
d="M438 475l-347 -428h361v-47h-427v47l343 421h-320v47h390v-40zM248 602l91 98h49l-110 -129h-60l-110 129h49z" />
    <glyph glyph-name="zdotaccent" unicode="&#x17c;" horiz-adv-x="474" 
d="M438 475l-347 -428h361v-47h-427v47l343 421h-320v47h390v-40zM263 604h-49v96h49v-96z" />
    <glyph glyph-name="uni0259" unicode="&#x259;" horiz-adv-x="558" 
d="M42 270h420c0 96 -62 212 -186 212c-93 0 -154 -54 -177 -133h-53c27 115 114 180 230 180c163 0 240 -126 240 -272c0 -136 -76 -272 -240 -272c-165 0 -234 131 -234 271v14zM461 224h-364c2 -106 71 -193 179 -193c116 0 179 89 185 193z" />
    <glyph glyph-name="fi" unicode="&#xfb01;" horiz-adv-x="466" 
d="M260 515v-47h-102v-468h-55v468h-89v47h89v49c0 47 6 79 27 104c20 23 54 34 103 34c15 0 18 1 38 -2v-47c-15 3 -23 2 -38 2c-71 0 -75 -36 -75 -96v-44h102zM331 604v96h55v-96h-55zM331 0v515h55v-515h-55z" />
    <glyph glyph-name="fl" unicode="&#xfb02;" horiz-adv-x="466" 
d="M260 515v-47h-102v-468h-55v468h-89v47h89v49c0 47 6 79 27 104c20 23 54 34 103 34c15 0 18 1 38 -2v-47c-15 3 -23 2 -38 2c-71 0 -75 -36 -75 -96v-44h102zM331 0v700h55v-700h-55z" />
    <glyph glyph-name="uniFB00" unicode="&#xfb00;" horiz-adv-x="499" 
d="M331 0v468h-173v-468h-55v468h-89v47h89v49c0 47 6 79 27 104c20 23 54 34 103 34c15 0 18 1 38 -2v-47c-15 3 -23 2 -38 2c-71 0 -75 -36 -75 -96v-44h173v49c0 47 6 79 27 104c20 23 54 34 103 34c15 0 18 1 38 -2v-47c-15 3 -23 2 -38 2c-71 0 -75 -36 -75 -96v-44
h102v-47h-102v-468h-55z" />
    <glyph glyph-name="uniFB03" unicode="&#xfb03;" horiz-adv-x="694" 
d="M331 0v468h-173v-468h-55v468h-89v47h89v49c0 47 6 79 27 104c20 23 54 34 103 34c15 0 18 1 38 -2v-47c-15 3 -23 2 -38 2c-71 0 -75 -36 -75 -96v-44h173v49c0 47 6 79 27 104c20 23 54 34 103 34c15 0 18 1 38 -2v-47c-15 3 -23 2 -38 2c-71 0 -75 -36 -75 -96v-44
h102v-47h-102v-468h-55zM559 605v96h55v-96h-55zM559 1v515h55v-515h-55z" />
    <glyph glyph-name="uniFB04" unicode="&#xfb04;" horiz-adv-x="694" 
d="M331 0v468h-173v-468h-55v468h-89v47h89v49c0 47 6 79 27 104c20 23 54 34 103 34c15 0 18 1 38 -2v-47c-15 3 -23 2 -38 2c-71 0 -75 -36 -75 -96v-44h173v49c0 47 6 79 27 104c20 23 54 34 103 34c15 0 18 1 38 -2v-47c-15 3 -23 2 -38 2c-71 0 -75 -36 -75 -96v-44
h102v-47h-102v-468h-55zM559 0v700h55v-700h-55z" />
    <glyph glyph-name="acute" unicode="&#xb4;" horiz-adv-x="185" 
d="M117 571h-42l95 129h69z" />
    <glyph glyph-name="grave" unicode="`" horiz-adv-x="185" 
d="M78 571l-122 129h69l95 -129h-42z" />
    <glyph glyph-name="circumflex" unicode="&#x2c6;" horiz-adv-x="185" 
d="M89 669l-91 -98h-49l110 129h60l110 -129h-49z" />
    <glyph glyph-name="tilde" unicode="&#x2dc;" horiz-adv-x="185" 
d="M-32 611h-33c7 47 34 91 89 91c28 0 52 -11 73 -22l10 -5c20 -9 36 -17 53 -17c33 0 47 23 55 48h33c-7 -45 -34 -91 -89 -91c-28 0 -50 11 -73 22l-10 5c-20 11 -36 17 -53 17c-33 0 -47 -21 -55 -48z" />
    <glyph glyph-name="breve" unicode="&#x2d8;" horiz-adv-x="185" 
d="M95 578c-79 0 -140 37 -156 105l38 11c11 -49 65 -75 117 -75c55 0 108 26 117 75l38 -11c-13 -68 -75 -105 -154 -105z" />
    <glyph glyph-name="dotaccent" unicode="&#x2d9;" horiz-adv-x="185" 
d="M118 604h-49v96h49v-96z" />
    <glyph glyph-name="dieresis" unicode="&#xa8;" horiz-adv-x="185" 
d="M205 604h-51v96h51v-96zM32 604h-52v96h52v-96z" />
    <glyph glyph-name="ring" unicode="&#x2da;" horiz-adv-x="185" 
d="M11 639c0 47 38 84 83 84c47 0 84 -37 84 -84c0 -45 -37 -83 -84 -83c-45 0 -83 38 -83 83zM40 639c0 -29 25 -54 54 -54c31 0 55 25 55 54c0 31 -24 55 -55 55c-29 0 -54 -24 -54 -55z" />
    <glyph glyph-name="hungarumlaut" unicode="&#x2dd;" horiz-adv-x="185" 
d="M-3 571h-42l95 129h69zM142 571h-42l107 129h69z" />
    <glyph glyph-name="caron" unicode="&#x2c7;" horiz-adv-x="185" 
d="M89 602l91 98h49l-110 -129h-60l-110 129h49z" />
    <glyph glyph-name="cedilla" unicode="&#xb8;" horiz-adv-x="207" 
d="M84 -51l1 -1c8 1 16 2 24 2c39 0 79 -16 79 -61c0 -53 -49 -74 -101 -74c-29 0 -62 6 -83 18l13 30c13 -7 40 -15 65 -15c28 0 54 11 54 40c0 27 -24 34 -48 34c-14 0 -26 -2 -37 -7l-16 17l56 68h38z" />
    <glyph glyph-name="overscore" unicode="&#xaf;" horiz-adv-x="185" 
d="M245 629h-294v40h294v-40z" />
    <glyph glyph-name="ogonek" unicode="&#x2db;" horiz-adv-x="185" 
d="M81 0h34c-65 -52 -85 -82 -85 -111c0 -27 18 -43 41 -43s38 12 54 36l26 -12c-19 -33 -43 -60 -94 -60c-48 0 -77 31 -77 70c0 47 49 88 101 120z" />
    <glyph glyph-name="acute.case" horiz-adv-x="316" 
d="M252 746h-42l95 129h69z" />
    <glyph glyph-name="grave.case" horiz-adv-x="204" 
d="M294 746l-122 129h69l95 -129h-42z" />
    <glyph glyph-name="circumflex.case" horiz-adv-x="237" 
d="M223 844l-91 -98h-49l110 129h60l110 -129h-49z" />
    <glyph glyph-name="tilde.case" horiz-adv-x="255" 
d="M110 760h-33c7 47 34 91 89 91c28 0 52 -11 73 -22l10 -5c20 -9 36 -17 53 -17c33 0 47 23 55 48h33c-7 -45 -34 -91 -89 -91c-28 0 -50 11 -73 22l-10 5c-20 11 -36 17 -53 17c-33 0 -47 -21 -55 -48z" />
    <glyph glyph-name="breve.case" horiz-adv-x="252" 
d="M229 745c-79 0 -140 37 -156 105l38 11c11 -49 65 -75 117 -75c55 0 108 26 117 75l38 -11c-13 -68 -75 -105 -154 -105z" />
    <glyph glyph-name="dotaccent.case" horiz-adv-x="189" 
d="M209 771h-49v96h49v-96z" />
    <glyph glyph-name="dieresis.case" horiz-adv-x="228" 
d="M267 773h-51v96h51v-96zM94 773h-52v96h52v-96z" />
    <glyph glyph-name="ring.case" horiz-adv-x="204" 
d="M221 730c-45 0 -83 38 -83 83c0 47 38 84 83 84c47 0 84 -37 84 -84c0 -45 -37 -83 -84 -83zM167 813c0 -29 25 -54 54 -54c31 0 55 25 55 54c0 31 -24 55 -55 55c-29 0 -54 -24 -54 -55z" />
    <glyph glyph-name="hungarumlaut.case" horiz-adv-x="257" 
d="M115 746h-42l95 129h69zM260 746h-42l107 129h69z" />
    <glyph glyph-name="caron.case" horiz-adv-x="237" 
d="M237 777l91 98h49l-110 -129h-60l-110 129h49z" />
    <glyph glyph-name="macron.case" horiz-adv-x="234" 
d="M363 775h-294v40h294v-40z" />
    <glyph glyph-name="uni0312" unicode="&#x312;" horiz-adv-x="207" 
d="M156 557h-76v79c0 55 13 97 76 114v-40c-33 -11 -38 -37 -38 -64v-4h38v-85z" />
    <glyph glyph-name="uni0313" unicode="&#x313;" horiz-adv-x="234" 
d="M43 700h60l-56 -154h-32z" />
    <glyph glyph-name="uni0326" unicode="&#x326;" horiz-adv-x="207" 
d="M80 -50h76v-79c0 -53 -13 -95 -76 -114v40c33 11 38 39 38 64v4h-38v85z" />
    <glyph glyph-name="zero.zero" horiz-adv-x="586" 
d="M293 -15c-64 0 -112 20 -147 53c-74 70 -92 199 -92 310c0 96 13 203 62 276c36 53 93 88 177 88s141 -35 177 -88c25 -37 42 -80 50 -130c8 -49 12 -98 12 -146c0 -110 -17 -241 -92 -310c-35 -33 -83 -53 -147 -53zM109 349c0 -75 8 -175 48 -241l239 521
c-25 23 -59 35 -103 35c-61 0 -104 -26 -132 -67c-44 -66 -52 -170 -52 -248zM293 33c49 0 85 17 112 44c62 64 72 185 72 272c0 75 -7 177 -48 242l-239 -522c25 -23 59 -36 103 -36z" />
    <glyph glyph-name="zero" unicode="0" horiz-adv-x="586" 
d="M293 -15c-64 0 -112 20 -147 53c-74 70 -92 199 -92 310c0 96 13 203 62 276c36 53 93 88 177 88s141 -35 177 -88c25 -37 42 -80 50 -130c8 -49 12 -98 12 -146c0 -110 -17 -241 -92 -310c-35 -33 -83 -53 -147 -53zM293 33c49 0 85 17 112 44c62 64 72 185 72 272
c0 77 -6 183 -52 248c-28 41 -69 67 -132 67c-61 0 -104 -26 -132 -67c-44 -66 -52 -170 -52 -248c0 -87 10 -208 72 -272c27 -27 63 -44 112 -44z" />
    <glyph glyph-name="one" unicode="1" horiz-adv-x="348" 
d="M19 524v39c108 6 182 12 196 137h43v-700h-55v524h-184z" />
    <glyph glyph-name="two" unicode="2" horiz-adv-x="541" 
d="M491 52v-52h-452c6 142 109 213 209 279c53 35 92 60 128 97c39 43 58 81 58 138c0 47 -15 84 -46 110s-68 39 -113 39c-118 0 -164 -89 -164 -192v-6h-55v5c0 138 74 240 219 240c120 0 213 -66 213 -196c0 -117 -81 -188 -171 -248l-46 -30
c-70 -46 -153 -102 -169 -184h389z" />
    <glyph glyph-name="three" unicode="3" horiz-adv-x="566" 
d="M45 222h55v-5c0 -109 68 -184 179 -184c97 0 183 56 183 160c0 103 -78 154 -173 154h-55v47h55c68 0 147 41 147 133c0 95 -72 137 -157 137c-107 0 -163 -73 -163 -181h-55c0 126 82 229 218 229c109 0 211 -55 211 -179c0 -77 -47 -137 -122 -156v-2
c91 -17 148 -81 148 -176c0 -136 -110 -214 -236 -214c-137 0 -235 83 -235 222v15z" />
    <glyph glyph-name="four" unicode="4" horiz-adv-x="524" 
d="M21 172v58l322 470h50v-480h105v-48h-105v-172h-49v172h-323zM67 220h277v231c0 64 1 116 2 172h-2l-103 -150z" />
    <glyph glyph-name="five" unicode="5" horiz-adv-x="544" 
d="M38 199h55c4 -99 73 -165 170 -165c115 0 185 86 185 195c0 112 -74 191 -181 191c-69 0 -125 -35 -160 -86h-47l67 366h343v-53h-306l-47 -253h2c27 39 86 72 162 72c128 0 221 -104 221 -237c0 -142 -104 -242 -239 -242c-126 0 -219 81 -225 212z" />
    <glyph glyph-name="six" unicode="6" horiz-adv-x="575" 
d="M512 532h-55c-9 79 -71 133 -155 133c-159 0 -195 -180 -195 -304v-3c0 -7 0 -19 -1 -30h2c24 75 106 129 195 129c132 0 224 -97 224 -234c0 -134 -94 -238 -232 -238c-81 0 -142 29 -181 82c-41 59 -60 140 -60 273c0 173 51 372 248 372c119 0 195 -65 210 -180z
M471 222c0 112 -73 189 -176 189c-102 0 -177 -80 -177 -189c0 -112 71 -191 177 -191c103 0 176 82 176 191z" />
    <glyph glyph-name="seven" unicode="7" horiz-adv-x="475" 
d="M17 647v53h443v-53c-87 -93 -268 -322 -284 -647h-59c20 241 98 430 285 647h-385z" />
    <glyph glyph-name="eight" unicode="8" horiz-adv-x="572" 
d="M78 538c0 121 101 175 208 175c108 0 208 -54 208 -175c0 -76 -42 -132 -117 -159v-2c84 -14 145 -89 145 -179c0 -142 -104 -212 -236 -212c-131 0 -236 70 -236 212c0 89 62 165 145 179v2c-73 27 -117 83 -117 159zM286 401c75 0 154 40 154 136
c0 86 -70 128 -154 128s-154 -42 -154 -128c0 -96 80 -136 154 -136zM105 198c0 -110 81 -164 181 -164s181 54 181 164c0 107 -84 159 -181 159s-181 -52 -181 -159z" />
    <glyph glyph-name="nine" unicode="9" horiz-adv-x="574" 
d="M62 167h55c11 -79 71 -130 155 -130c159 0 195 180 195 304v3c0 7 0 16 1 25h-2c-22 -74 -106 -126 -195 -126c-132 0 -224 98 -224 232c0 132 95 237 232 237c83 0 141 -30 181 -83c41 -57 60 -138 60 -267c0 -174 -51 -373 -248 -373c-119 0 -195 65 -210 178zM103 476
c0 -108 73 -186 176 -186s177 78 177 186c0 112 -71 189 -177 189c-103 0 -176 -80 -176 -189z" />
    <glyph glyph-name="zero.osf.zero" horiz-adv-x="582" 
d="M291 -15c-64 0 -112 20 -147 52c-74 68 -92 192 -92 300c0 95 13 196 62 267c36 52 93 86 177 86s141 -34 177 -86c49 -71 62 -172 62 -267c0 -108 -18 -232 -92 -300c-35 -32 -83 -52 -147 -52zM107 338c0 -73 9 -170 51 -236l233 509c-25 20 -59 32 -100 32
c-61 0 -104 -26 -132 -66c-44 -63 -52 -164 -52 -239zM475 338c0 74 -8 176 -51 237l-233 -510c25 -20 57 -33 100 -33c49 0 85 17 112 44c61 61 72 179 72 262z" />
    <glyph glyph-name="zero.osf" horiz-adv-x="582" 
d="M291 -15c-64 0 -112 20 -147 52c-74 68 -92 192 -92 300c0 95 13 196 62 267c36 52 93 86 177 86s141 -34 177 -86c49 -71 62 -172 62 -267c0 -108 -18 -232 -92 -300c-35 -32 -83 -52 -147 -52zM179 76c27 -27 63 -44 112 -44s85 17 112 44c61 61 72 179 72 262
c0 75 -8 176 -52 239c-28 40 -69 66 -132 66c-61 0 -104 -26 -132 -66c-44 -63 -52 -164 -52 -239c0 -83 12 -200 72 -262z" />
    <glyph glyph-name="one.osf" horiz-adv-x="348" 
d="M19 509v39c108 4 182 10 196 134h43v-682h-55v509h-184z" />
    <glyph glyph-name="two.osf" horiz-adv-x="534" 
d="M488 51v-51h-452c6 138 109 209 209 273c53 35 92 59 128 96c39 40 58 76 58 131c0 45 -15 80 -46 105s-68 38 -113 38c-118 0 -164 -86 -164 -185v-6h-55v5c0 134 74 232 219 232c120 0 213 -65 213 -189c0 -112 -81 -181 -171 -239l-46 -30c-70 -44 -153 -99 -169 -180
h389z" />
    <glyph glyph-name="three.osf" horiz-adv-x="560" 
d="M42 218h55v-5c0 -105 68 -179 179 -179c97 0 183 56 183 156s-78 149 -173 149h-55v46h55c68 0 147 40 147 128c0 92 -72 132 -157 132c-107 0 -163 -71 -163 -175h-55c0 122 82 222 218 222c109 0 211 -52 211 -173c0 -75 -47 -133 -122 -150v-2
c91 -17 148 -80 148 -171c0 -133 -110 -209 -236 -209c-137 0 -235 81 -235 217v14z" />
    <glyph glyph-name="four.osf" horiz-adv-x="521" 
d="M20 163v57l322 462h50v-472h105v-47h-105v-163h-49v163h-323zM66 210h277v227c0 63 1 114 2 170h-2c-36 -53 -71 -101 -103 -148z" />
    <glyph glyph-name="five.osf" horiz-adv-x="541" 
d="M36 196h55c4 -97 73 -163 170 -163c115 0 185 84 185 192c0 109 -74 188 -181 188c-69 0 -125 -34 -160 -85h-47l67 354h343v-52h-306l-47 -243h2c27 39 86 71 162 71c128 0 221 -101 221 -233c0 -138 -104 -238 -239 -238c-126 0 -219 81 -225 209z" />
    <glyph glyph-name="six.osf" horiz-adv-x="569" 
d="M510 518h-55c-9 76 -71 127 -155 127c-159 0 -195 -169 -195 -288v-3c0 -7 -1 -17 -1 -29h2c24 73 106 124 195 124c132 0 224 -94 224 -228c0 -128 -94 -229 -232 -229c-81 0 -142 29 -181 81c-41 57 -60 135 -60 263c0 165 51 355 248 355c119 0 195 -62 210 -173z
M469 220c0 108 -73 184 -176 184c-102 0 -177 -76 -177 -184c0 -106 71 -183 177 -183c103 0 176 79 176 183z" />
    <glyph glyph-name="seven.osf" horiz-adv-x="480" 
d="M19 630v52h443v-52c-88 -90 -268 -312 -284 -630h-59c20 235 98 417 285 630h-385z" />
    <glyph glyph-name="eight.osf" horiz-adv-x="566" 
d="M75 521c0 116 101 169 208 169c108 0 208 -53 208 -169c0 -73 -42 -128 -117 -153v-2c84 -14 145 -87 145 -174c0 -136 -104 -204 -236 -204c-131 0 -236 68 -236 204c0 87 62 160 145 174v2c-73 25 -117 80 -117 153zM283 389c75 0 154 39 154 131
c0 83 -70 123 -154 123s-154 -40 -154 -123c0 -92 80 -131 154 -131zM102 192c0 -104 81 -157 181 -157s181 53 181 157s-84 154 -181 154s-181 -50 -181 -154z" />
    <glyph glyph-name="nine.osf" horiz-adv-x="569" 
d="M59 165h55c11 -76 71 -127 155 -127c159 0 195 169 195 288v3c0 7 1 17 1 29h-2c-24 -72 -105 -124 -195 -124c-132 0 -224 94 -224 228c0 128 95 229 232 229c83 0 142 -29 181 -81c43 -57 60 -135 60 -263c0 -165 -51 -355 -248 -355c-119 0 -195 64 -210 173zM100 463
c0 -108 73 -184 176 -184s177 77 177 184s-71 183 -177 183c-103 0 -176 -78 -176 -183z" />
    <glyph glyph-name="zero.tf.zero" 
d="M330 -15c-64 0 -112 20 -147 53c-74 70 -92 199 -92 310c0 96 13 203 62 276c36 53 93 88 177 88s141 -35 177 -88c25 -37 42 -80 50 -130c8 -49 12 -98 12 -146c0 -110 -17 -241 -92 -310c-35 -33 -83 -53 -147 -53zM146 349c0 -75 8 -175 48 -241l239 521
c-25 23 -59 35 -103 35c-61 0 -104 -26 -132 -67c-44 -66 -52 -170 -52 -248zM330 33c49 0 85 17 112 44c62 64 72 185 72 272c0 75 -7 177 -48 242l-239 -522c25 -23 59 -36 103 -36z" />
    <glyph glyph-name="zero.tf" 
d="M330 -15c-64 0 -112 20 -147 53c-74 70 -92 199 -92 310c0 96 13 203 62 276c36 53 93 88 177 88s141 -35 177 -88c25 -37 42 -80 50 -130c8 -49 12 -98 12 -146c0 -110 -17 -241 -92 -310c-35 -33 -83 -53 -147 -53zM330 33c49 0 85 17 112 44c62 64 72 185 72 272
c0 77 -6 183 -52 248c-28 41 -69 67 -132 67c-61 0 -104 -26 -132 -67c-44 -66 -52 -170 -52 -248c0 -87 10 -208 72 -272c27 -27 63 -44 112 -44z" />
    <glyph glyph-name="one.tf" 
d="M175 524v39c108 6 182 12 196 137h43v-700h-55v524h-184z" />
    <glyph glyph-name="two.tf" 
d="M551 52v-52h-452c6 142 109 213 209 279c53 35 92 60 128 97c39 43 58 81 58 138c0 47 -15 84 -46 110s-68 39 -113 39c-118 0 -164 -89 -164 -192v-6h-55v5c0 138 74 240 219 240c120 0 213 -66 213 -196c0 -117 -81 -188 -171 -248l-46 -30
c-70 -46 -153 -102 -169 -184h389z" />
    <glyph glyph-name="three.tf" 
d="M92 222h55v-5c0 -109 68 -184 179 -184c97 0 183 56 183 160c0 103 -78 154 -173 154h-55v47h55c68 0 147 41 147 133c0 95 -72 137 -157 137c-107 0 -163 -73 -163 -181h-55c0 126 82 229 218 229c109 0 211 -55 211 -179c0 -77 -47 -137 -122 -156v-2
c91 -17 148 -81 148 -176c0 -136 -110 -214 -236 -214c-137 0 -235 83 -235 222v15z" />
    <glyph glyph-name="four.tf" 
d="M89 172v58l322 470h50v-480h105v-48h-105v-172h-49v172h-323zM135 220h277v231c0 64 1 116 2 172h-2l-103 -150z" />
    <glyph glyph-name="five.tf" 
d="M96 199h55c4 -99 73 -165 170 -165c115 0 185 86 185 195c0 112 -74 191 -181 191c-69 0 -125 -35 -160 -86h-47l67 366h343v-53h-306l-47 -253h2c27 39 86 72 162 72c128 0 221 -104 221 -237c0 -142 -104 -242 -239 -242c-126 0 -219 81 -225 212z" />
    <glyph glyph-name="six.tf" 
d="M555 532h-55c-9 79 -71 133 -155 133c-159 0 -195 -180 -195 -304v-3c0 -7 0 -19 -1 -30h2c24 75 106 129 195 129c132 0 224 -97 224 -234c0 -134 -94 -238 -232 -238c-81 0 -142 29 -181 82c-41 59 -60 140 -60 273c0 173 51 372 248 372c119 0 195 -65 210 -180z
M514 222c0 112 -73 189 -176 189c-102 0 -177 -80 -177 -189c0 -112 71 -191 177 -191c103 0 176 82 176 191z" />
    <glyph glyph-name="seven.tf" 
d="M110 647v53h443v-53c-87 -93 -268 -322 -284 -647h-59c20 241 98 430 285 647h-385z" />
    <glyph glyph-name="eight.tf" 
d="M122 538c0 121 101 175 208 175c108 0 208 -54 208 -175c0 -76 -42 -132 -117 -159v-2c84 -14 145 -89 145 -179c0 -142 -104 -212 -236 -212c-131 0 -236 70 -236 212c0 89 62 165 145 179v2c-73 27 -117 83 -117 159zM330 401c75 0 154 40 154 136
c0 86 -70 128 -154 128s-154 -42 -154 -128c0 -96 80 -136 154 -136zM149 198c0 -110 81 -164 181 -164s181 54 181 164c0 107 -84 159 -181 159s-181 -52 -181 -159z" />
    <glyph glyph-name="nine.tf" 
d="M105 167h55c11 -79 71 -130 155 -130c159 0 195 180 195 304v3c0 7 0 16 1 25h-2c-22 -74 -106 -126 -195 -126c-132 0 -224 98 -224 232c0 132 95 237 232 237c83 0 141 -30 181 -83c41 -57 60 -138 60 -267c0 -174 -51 -373 -248 -373c-119 0 -195 65 -210 178z
M146 476c0 -108 73 -186 176 -186s177 78 177 186c0 112 -71 189 -177 189c-103 0 -176 -80 -176 -189z" />
    <glyph glyph-name="zero.tosf.zero" 
d="M330 -15c-64 0 -112 20 -147 52c-74 68 -92 192 -92 300c0 95 13 196 62 267c36 52 93 86 177 86s141 -34 177 -86c49 -71 62 -172 62 -267c0 -108 -18 -232 -92 -300c-35 -32 -83 -52 -147 -52zM146 338c0 -73 9 -170 51 -236l233 509c-25 20 -59 32 -100 32
c-61 0 -104 -26 -132 -66c-44 -63 -52 -164 -52 -239zM514 338c0 74 -8 176 -51 237l-233 -510c25 -20 57 -33 100 -33c49 0 85 17 112 44c61 61 72 179 72 262z" />
    <glyph glyph-name="zero.tosf" 
d="M330 -15c-64 0 -112 20 -147 52c-74 68 -92 192 -92 300c0 95 13 196 62 267c36 52 93 86 177 86s141 -34 177 -86c49 -71 62 -172 62 -267c0 -108 -18 -232 -92 -300c-35 -32 -83 -52 -147 -52zM218 76c27 -27 63 -44 112 -44s85 17 112 44c61 61 72 179 72 262
c0 75 -8 176 -52 239c-28 40 -69 66 -132 66c-61 0 -104 -26 -132 -66c-44 -63 -52 -164 -52 -239c0 -83 12 -200 72 -262z" />
    <glyph glyph-name="one.tosf" 
d="M175 509v39c108 4 182 10 196 134h43v-682h-55v509h-184z" />
    <glyph glyph-name="two.tosf" 
d="M551 51v-51h-452c6 138 109 209 209 273c53 35 92 59 128 96c39 40 58 76 58 131c0 45 -15 80 -46 105s-68 38 -113 38c-118 0 -164 -86 -164 -185v-6h-55v5c0 134 74 232 219 232c120 0 213 -65 213 -189c0 -112 -81 -181 -171 -239l-46 -30c-70 -44 -153 -99 -169 -180
h389z" />
    <glyph glyph-name="three.tosf" 
d="M92 218h55v-5c0 -105 68 -179 179 -179c97 0 183 56 183 156s-78 149 -173 149h-55v46h55c68 0 147 40 147 128c0 92 -72 132 -157 132c-107 0 -163 -71 -163 -175h-55c0 122 82 222 218 222c109 0 211 -52 211 -173c0 -75 -47 -133 -122 -150v-2
c91 -17 148 -80 148 -171c0 -133 -110 -209 -236 -209c-137 0 -235 81 -235 217v14z" />
    <glyph glyph-name="four.tosf" 
d="M89 163v57l322 462h50v-472h105v-47h-105v-163h-49v163h-323zM135 210h277v227c0 63 1 114 2 170h-2c-36 -53 -71 -101 -103 -148z" />
    <glyph glyph-name="five.tosf" 
d="M96 196h55c4 -97 73 -163 170 -163c115 0 185 84 185 192c0 109 -74 188 -181 188c-69 0 -125 -34 -160 -85h-47l67 354h343v-52h-306l-47 -243h2c27 39 86 71 162 71c128 0 221 -101 221 -233c0 -138 -104 -238 -239 -238c-126 0 -219 81 -225 209z" />
    <glyph glyph-name="six.tosf" 
d="M556 518h-55c-9 76 -71 127 -155 127c-159 0 -195 -169 -195 -288v-3c0 -7 -1 -17 -1 -29h2c24 73 106 124 195 124c132 0 224 -94 224 -228c0 -128 -94 -229 -232 -229c-81 0 -142 29 -181 81c-41 57 -60 135 -60 263c0 165 51 355 248 355c119 0 195 -62 210 -173z
M515 220c0 108 -73 184 -176 184c-102 0 -177 -76 -177 -184c0 -106 71 -183 177 -183c103 0 176 79 176 183z" />
    <glyph glyph-name="seven.tosf" 
d="M109 630v52h443v-52c-88 -90 -268 -312 -284 -630h-59c20 235 98 417 285 630h-385z" />
    <glyph glyph-name="eight.tosf" 
d="M122 521c0 116 101 169 208 169c108 0 208 -53 208 -169c0 -73 -42 -128 -117 -153v-2c84 -14 145 -87 145 -174c0 -136 -104 -204 -236 -204c-131 0 -236 68 -236 204c0 87 62 160 145 174v2c-73 25 -117 80 -117 153zM330 389c75 0 154 39 154 131
c0 83 -70 123 -154 123s-154 -40 -154 -123c0 -92 80 -131 154 -131zM149 192c0 -104 81 -157 181 -157s181 53 181 157s-84 154 -181 154s-181 -50 -181 -154z" />
    <glyph glyph-name="nine.tosf" 
d="M105 165h55c11 -76 71 -127 155 -127c159 0 195 169 195 288v3c0 7 1 17 1 29h-2c-24 -72 -105 -124 -195 -124c-132 0 -224 94 -224 228c0 128 95 229 232 229c83 0 142 -29 181 -81c43 -57 60 -135 60 -263c0 -165 -51 -355 -248 -355c-119 0 -195 64 -210 173z
M146 463c0 -108 73 -184 176 -184s177 77 177 184s-71 183 -177 183c-103 0 -176 -78 -176 -183z" />
    <glyph glyph-name="period" unicode="." horiz-adv-x="205" 
d="M141 0h-77v117h77v-117z" />
    <glyph glyph-name="comma" unicode="," horiz-adv-x="205" 
d="M64 117h77v-113c0 -29 -4 -55 -12 -77c-12 -29 -32 -54 -65 -69v45c31 19 38 51 38 94v3h-38v117z" />
    <glyph glyph-name="colon" unicode=":" horiz-adv-x="203" 
d="M140 398h-77v117h77v-117zM140 0h-77v117h77v-117z" />
    <glyph glyph-name="semicolon" unicode=";" horiz-adv-x="203" 
d="M140 398h-77v117h77v-117zM63 117h77v-113c0 -29 -4 -55 -12 -77c-12 -29 -32 -54 -65 -69v45c31 19 38 51 38 94v3h-38v117z" />
    <glyph glyph-name="ellipsis" unicode="&#x2026;" horiz-adv-x="825" 
d="M141 0h-77v117h77v-117zM452 0h-77v117h77v-117zM761 0h-77v117h77v-117z" />
    <glyph glyph-name="questiondown" unicode="&#xbf;" horiz-adv-x="478" 
d="M276 515v-99h-75v99h75zM396 29h55v-7c0 -131 -81 -222 -218 -222c-113 0 -200 68 -200 178c0 75 36 119 85 168l28 28c48 48 66 73 66 154v9h54v-5c0 -95 -23 -132 -85 -192l-28 -28c-37 -37 -66 -74 -66 -131c0 -39 14 -72 41 -97c28 -25 63 -38 105 -38
c109 0 163 76 163 177v6z" />
    <glyph glyph-name="questiondown.case" horiz-adv-x="485" 
d="M280 700v-99h-75v99h75zM400 214h55v-7c0 -131 -81 -222 -218 -222c-113 0 -200 68 -200 178c0 75 36 119 85 168l28 28c48 48 66 73 66 154v9h54v-5c0 -95 -23 -132 -85 -192l-28 -28c-37 -37 -66 -74 -66 -131c0 -39 14 -72 41 -97c28 -25 63 -38 105 -38
c109 0 163 76 163 177v6z" />
    <glyph glyph-name="question" unicode="?" horiz-adv-x="485" 
d="M85 486h-55v7c0 130 82 220 218 220c113 0 200 -68 200 -177c0 -73 -36 -118 -85 -167l-28 -28c-47 -47 -66 -72 -66 -154v-9h-54v5c0 96 24 133 85 192l28 28c39 39 66 73 66 130c0 79 -62 134 -146 134c-109 0 -163 -74 -163 -175v-6zM205 0v99h75v-99h-75z" />
    <glyph glyph-name="exclamdown" unicode="&#xa1;" horiz-adv-x="215" 
d="M69 515h75v-99h-75v99zM92 334h31l13 -316v-203h-57v203z" />
    <glyph glyph-name="exclamdown.case" horiz-adv-x="228" 
d="M76 700h75v-99h-75v99zM99 519h31l13 -316v-203h-57v203z" />
    <glyph glyph-name="exclam" unicode="!" horiz-adv-x="227" 
d="M98 181l-13 316v203h57v-203l-13 -316h-31zM75 0v99h75v-99h-75z" />
    <glyph glyph-name="parenleft" unicode="(" horiz-adv-x="251" 
d="M226 -172h-47c-43 70 -76 139 -99 207s-35 143 -35 226c0 163 51 311 134 439h47c-80 -132 -120 -283 -120 -435s40 -304 120 -437z" />
    <glyph glyph-name="parenright" unicode=")" horiz-adv-x="251" 
d="M25 -172c80 133 120 285 120 437s-40 303 -120 435h47c83 -128 134 -276 134 -439c0 -83 -12 -158 -35 -226s-56 -137 -99 -207h-47z" />
    <glyph glyph-name="parenleft.case" horiz-adv-x="257" 
d="M228 -86h-47c-43 70 -76 139 -99 207s-35 143 -35 226c0 163 51 311 134 439h47c-80 -132 -120 -283 -120 -435s40 -304 120 -437z" />
    <glyph glyph-name="parenright.case" horiz-adv-x="257" 
d="M29 -86c80 133 120 285 120 437s-40 303 -120 435h47c83 -128 134 -276 134 -439c0 -83 -12 -158 -35 -226s-56 -137 -99 -207h-47z" />
    <glyph glyph-name="bracketleft" unicode="[" horiz-adv-x="262" 
d="M238 -172h-150v872h150v-44h-94v-783h94v-45z" />
    <glyph glyph-name="bracketright" unicode="]" horiz-adv-x="262" 
d="M24 -172v45h94v783h-94v44h150v-872h-150z" />
    <glyph glyph-name="bracketleft.case" horiz-adv-x="268" 
d="M238 -86h-150v872h150v-44h-94v-783h94v-45z" />
    <glyph glyph-name="bracketright.case" horiz-adv-x="268" 
d="M30 -86v45h94v783h-94v44h150v-872h-150z" />
    <glyph glyph-name="braceleft" unicode="{" horiz-adv-x="263" 
d="M29 284c46 3 69 45 69 127v176c0 71 13 113 84 113h49v-43h-25c-45 0 -53 -19 -53 -72v-176c0 -64 -7 -122 -70 -144v-2c63 -22 70 -79 70 -144v-176c0 -53 8 -72 53 -72h25v-43h-49c-71 0 -84 42 -84 113v176c0 82 -23 124 -69 127v40z" />
    <glyph glyph-name="braceright" unicode="}" horiz-adv-x="263" 
d="M234 284v-40c-46 -3 -69 -45 -69 -127v-176c0 -71 -13 -113 -84 -113h-49v43h25c47 0 53 19 53 72v176c0 66 8 122 70 144v2c-62 22 -70 79 -70 144v176c0 53 -6 72 -53 72h-25v43h49c71 0 84 -42 84 -113v-176c0 -82 23 -124 69 -127z" />
    <glyph glyph-name="braceleft.case" horiz-adv-x="268" 
d="M30 370c46 3 69 45 69 127v176c0 71 13 113 84 113h49v-43h-25c-45 0 -53 -19 -53 -72v-176c0 -64 -7 -122 -70 -144v-2c63 -22 70 -79 70 -144v-176c0 -53 8 -72 53 -72h25v-43h-49c-71 0 -84 42 -84 113v176c0 82 -23 124 -69 127v40z" />
    <glyph glyph-name="braceright.case" horiz-adv-x="268" 
d="M238 370v-40c-46 -3 -69 -45 -69 -127v-176c0 -71 -13 -113 -84 -113h-49v43h25c47 0 53 19 53 72v176c0 66 8 122 70 144v2c-62 22 -70 79 -70 144v176c0 53 -6 72 -53 72h-25v43h49c71 0 84 -42 84 -113v-176c0 -82 23 -124 69 -127z" />
    <glyph glyph-name="slash" unicode="/" horiz-adv-x="367" 
d="M77 0h-46l258 700h46z" />
    <glyph glyph-name="a.subs" horiz-adv-x="355" 
d="M295 90v-158c0 -21 8 -24 23 -24h10v-34c-9 -1 -14 -2 -26 -2c-33 0 -46 13 -49 44h-3c-16 -27 -53 -49 -104 -49c-61 0 -110 32 -110 92c0 68 67 86 138 96l28 4c41 7 49 13 49 37c0 35 -20 57 -76 57c-55 0 -83 -24 -83 -71h-43c0 77 57 108 128 108
c60 0 118 -15 118 -100zM252 -13v51c-5 -3 -18 -7 -39 -12l-36 -7c-65 -13 -96 -23 -96 -58c0 -36 31 -58 76 -58c44 0 95 25 95 84z" />
    <glyph glyph-name="b.subs" horiz-adv-x="390" 
d="M65 292h43v-148h2c19 27 56 46 105 46c81 0 138 -63 138 -162c0 -93 -58 -164 -142 -164c-52 0 -85 19 -102 43h-1v-35h-43v420zM206 -97c67 0 102 56 102 125c0 68 -34 122 -102 122c-67 0 -100 -42 -100 -125c0 -76 35 -122 100 -122z" />
    <glyph glyph-name="c.subs" horiz-adv-x="359" 
d="M322 81h-45c-5 40 -33 70 -89 70c-68 0 -106 -45 -106 -124c0 -73 41 -122 105 -122c53 0 86 33 91 80h46c-9 -68 -60 -118 -137 -118c-93 0 -150 69 -150 161c0 95 55 161 152 161c76 0 125 -40 133 -108z" />
    <glyph glyph-name="d.subs" horiz-adv-x="390" 
d="M325 -128h-43v42h-1c-20 -28 -55 -47 -106 -47c-81 0 -138 63 -138 159c0 92 59 163 142 163c52 0 84 -20 101 -43h2v146h43v-420zM184 151c-67 0 -102 -56 -102 -125c0 -67 35 -121 104 -121c65 0 98 41 98 123c0 77 -33 123 -100 123z" />
    <glyph glyph-name="e.subs" horiz-adv-x="366" 
d="M328 19h-248c0 -65 44 -114 109 -114c64 0 86 41 94 69h45c-17 -64 -66 -107 -141 -107c-95 0 -150 59 -150 160c0 95 58 162 150 162c99 0 141 -70 141 -170zM81 56h202c-3 53 -35 95 -98 95c-64 0 -101 -42 -104 -95z" />
    <glyph glyph-name="f.subs" horiz-adv-x="209" 
d="M27 143v38h53v23c0 68 26 91 83 91c11 0 22 -1 34 -2v-40c-9 1 -18 3 -30 3c-27 0 -44 -10 -44 -41v-34h68v-38h-68v-271h-43v271h-53z" />
    <glyph glyph-name="g.subs" horiz-adv-x="381" 
d="M316 181v-288c0 -91 -46 -131 -137 -131c-83 0 -126 29 -129 86h47c5 -32 33 -48 84 -48c62 0 93 30 93 90v5c0 13 1 31 1 40h-1c-12 -23 -47 -52 -106 -52c-85 0 -130 69 -130 154c0 82 55 152 136 152c52 0 83 -23 98 -44h2v36h42zM179 -79c77 0 96 61 96 118
c0 29 -7 55 -22 78c-14 23 -39 34 -74 34c-72 0 -98 -62 -98 -117c0 -54 33 -113 98 -113z" />
    <glyph glyph-name="h.subs" horiz-adv-x="383" 
d="M108 -128h-43v420h43v-151c16 25 52 48 109 48c35 0 61 -10 79 -29c19 -19 28 -47 28 -85v-203h-43v189c0 65 -27 90 -78 90c-33 0 -59 -15 -75 -35c-13 -17 -20 -44 -20 -65v-179z" />
    <glyph glyph-name="i.subs" horiz-adv-x="173" 
d="M108 227h-43v65h43v-65zM65 181h43v-309h-43v309z" />
    <glyph glyph-name="j.subs" horiz-adv-x="182" 
d="M117 227h-43v65h43v-65zM28 -195c44 0 46 26 46 61v315h43v-325c0 -57 -20 -89 -80 -89c-9 0 -17 1 -24 2v36h15z" />
    <glyph glyph-name="k.subs" horiz-adv-x="359" 
d="M65 -128v420h43v-259l161 148h60l-124 -112l138 -197h-54l-115 168l-66 -55v-113h-43z" />
    <glyph glyph-name="l.subs" horiz-adv-x="173" 
d="M65 292h43v-420h-43v420z" />
    <glyph glyph-name="m.subs" horiz-adv-x="574" 
d="M515 -128h-43v189c0 65 -27 90 -74 90c-27 0 -51 -16 -66 -35c-13 -17 -20 -44 -20 -65v-179h-43v189c0 65 -24 90 -71 90c-29 0 -54 -15 -70 -35c-13 -17 -20 -44 -20 -65v-179h-43v309h42v-41h1c15 24 51 49 103 49c44 0 78 -19 93 -54h1c15 25 53 54 106 54
c33 0 58 -9 77 -28c18 -18 27 -47 27 -86v-203z" />
    <glyph glyph-name="n.subs" horiz-adv-x="383" 
d="M108 -128h-43v309h42v-41c16 25 51 49 108 49c33 0 64 -10 81 -29c19 -19 28 -47 28 -85v-203h-43v189c0 65 -27 90 -78 90c-33 0 -59 -15 -75 -35c-13 -17 -20 -44 -20 -65v-179z" />
    <glyph glyph-name="o.subs" horiz-adv-x="378" 
d="M189 189c92 0 152 -61 152 -160c0 -97 -59 -162 -152 -162s-152 62 -152 162c0 99 60 160 152 160zM189 151c-75 0 -107 -55 -107 -122s34 -124 107 -124s107 57 107 124s-34 122 -107 122z" />
    <glyph glyph-name="p.subs" horiz-adv-x="390" 
d="M108 -233h-43v414h43v-37h1c19 27 55 45 104 45c81 0 140 -64 140 -161c0 -90 -58 -161 -142 -161c-52 0 -84 20 -101 44h-2v-144zM206 -95c67 0 102 58 102 123c0 67 -35 123 -104 123c-67 0 -98 -46 -98 -125c0 -73 35 -121 100 -121z" />
    <glyph glyph-name="q.subs" horiz-adv-x="390" 
d="M325 -233h-43v147h-2c-17 -27 -54 -47 -105 -47c-81 0 -138 64 -138 159c0 92 61 163 144 163c52 0 83 -19 100 -43h1v35h43v-414zM184 151c-67 0 -102 -58 -102 -125c0 -65 35 -121 104 -121c67 0 98 45 98 124c0 75 -33 122 -100 122z" />
    <glyph glyph-name="r.subs" horiz-adv-x="237" 
d="M198 145c-28 0 -50 -9 -67 -28c-15 -17 -23 -42 -23 -75v-170h-43v309h41v-47h2c11 29 50 55 95 55c9 0 16 -1 19 -1v-45c-11 3 -19 2 -24 2z" />
    <glyph glyph-name="s.subs" horiz-adv-x="333" 
d="M287 94h-48c-3 39 -29 58 -76 58c-45 0 -72 -19 -72 -46c0 -29 24 -40 72 -52l32 -8c49 -12 101 -24 101 -83c0 -63 -54 -96 -130 -96c-73 0 -129 27 -132 102h49c3 -45 40 -65 84 -65c45 0 82 20 82 53c0 35 -29 42 -76 53l-30 7c-50 12 -98 26 -98 85s57 87 118 87
c67 0 119 -22 124 -95z" />
    <glyph glyph-name="t.subs" horiz-adv-x="222" 
d="M122 275v-94h70v-40h-70v-194c0 -29 5 -42 41 -42c7 0 15 1 24 2v-38c-15 -1 -21 -2 -36 -2c-28 0 -47 5 -57 14c-12 11 -15 29 -15 60v200h-50v40h50v94h43z" />
    <glyph glyph-name="u.subs" horiz-adv-x="381" 
d="M273 181h43v-309h-42v45c-16 -25 -47 -50 -106 -50c-35 0 -62 10 -81 29c-17 19 -27 45 -27 82v203h43v-189c0 -63 27 -87 78 -87c33 0 56 15 72 35c13 17 20 41 20 62v179z" />
    <glyph glyph-name="v.subs" horiz-adv-x="315" 
d="M129 -128l-110 309h50l49 -155c11 -36 25 -75 36 -106h5l39 110l53 151h48l-117 -309h-53z" />
    <glyph glyph-name="w.subs" horiz-adv-x="493" 
d="M123 -128l-98 309h48l47 -161c4 -13 9 -30 14 -50l14 -47h4c8 31 19 66 28 99l42 159h51l41 -157c9 -36 17 -62 28 -101h4l29 100l47 158h47l-99 -309h-53l-44 157c-9 36 -17 61 -25 93h-2c-7 -29 -16 -63 -25 -96l-44 -154h-54z" />
    <glyph glyph-name="x.subs" horiz-adv-x="335" 
d="M263 -128l-96 129l-96 -129h-51l122 160l-113 149h51l88 -118l87 118h51l-113 -148l123 -161h-53z" />
    <glyph glyph-name="y.subs" horiz-adv-x="315" 
d="M169 -166c-17 -49 -49 -68 -94 -68c-13 0 -18 1 -27 1v38c7 -1 15 -1 23 -1c43 0 56 20 69 60l1 2l-124 315h47l49 -135l46 -131h3c12 36 30 92 45 135l44 131h47z" />
    <glyph glyph-name="z.subs" horiz-adv-x="325" 
d="M284 143l-203 -233h212v-38h-262v41l201 230h-189v38h241v-38z" />
    <glyph glyph-name="uni2080" unicode="&#x2080;" horiz-adv-x="402" 
d="M201 297c111 0 156 -95 156 -216c0 -120 -45 -214 -156 -214c-110 0 -156 94 -156 214c0 121 46 216 156 216zM201 257c-88 0 -111 -92 -111 -176c0 -83 23 -174 111 -174s111 91 111 174c0 84 -23 176 -111 176z" />
    <glyph glyph-name="uni2081" unicode="&#x2081;" horiz-adv-x="266" 
d="M24 173v32c100 0 129 16 133 87h32v-420h-43v301h-122z" />
    <glyph glyph-name="uni2082" unicode="&#x2082;" horiz-adv-x="386" 
d="M344 -87v-41h-309c4 86 72 130 141 169l21 13c26 15 49 31 68 48s29 41 29 72c0 52 -41 83 -98 83c-76 0 -103 -50 -103 -113h-45c0 82 48 153 148 153c87 0 143 -45 143 -122c0 -71 -53 -114 -113 -149l-31 -18c-37 -21 -83 -46 -106 -95h255z" />
    <glyph glyph-name="uni2083" unicode="&#x2083;" horiz-adv-x="395" 
d="M270 99v-3c51 -15 83 -46 83 -101c0 -83 -72 -128 -157 -128c-89 0 -156 49 -156 134v9h45c0 -61 42 -103 111 -103c60 0 112 29 112 85c0 55 -35 82 -105 82h-42v37h42c51 0 87 26 87 74c0 51 -42 72 -94 72c-65 0 -101 -41 -101 -102h-44c0 79 50 142 145 142
c73 0 139 -33 139 -109c0 -43 -26 -74 -65 -89z" />
    <glyph glyph-name="uni2084" unicode="&#x2084;" horiz-adv-x="378" 
d="M237 -128v96h-213v39l212 285h44v-284h67v-40h-67v-96h-43zM70 8h167v98c0 73 1 108 1 131c-24 -33 -43 -62 -79 -109z" />
    <glyph glyph-name="uni2085" unicode="&#x2085;" horiz-adv-x="386" 
d="M36 -2h45c3 -55 47 -91 106 -91c72 0 115 44 115 104c0 63 -48 103 -111 103c-43 0 -83 -15 -102 -43h-41l43 221h236v-41h-200l-25 -127c16 16 53 31 96 31c92 0 149 -60 149 -143c0 -85 -69 -145 -160 -145c-85 0 -148 50 -151 131z" />
    <glyph glyph-name="uni2086" unicode="&#x2086;" horiz-adv-x="390" 
d="M335 193h-45c-4 39 -35 67 -84 67c-96 0 -117 -94 -121 -172h1c25 40 73 61 122 61c87 0 139 -60 139 -139c0 -63 -37 -143 -149 -143c-129 0 -153 112 -153 205c0 117 38 228 163 228c75 0 120 -40 127 -107zM94 7c0 -57 41 -100 106 -100c64 0 102 47 102 99
c0 56 -34 102 -102 102c-65 0 -106 -44 -106 -101z" />
    <glyph glyph-name="uni2087" unicode="&#x2087;" horiz-adv-x="338" 
d="M22 251v41h300v-35c-58 -56 -179 -188 -187 -385h-48c13 141 65 256 182 379h-247z" />
    <glyph glyph-name="uni2088" unicode="&#x2088;" horiz-adv-x="396" 
d="M353 -8c0 -84 -66 -125 -155 -125s-155 41 -155 125c0 49 33 91 82 104v2c-41 17 -66 46 -66 91c0 71 63 108 139 108s139 -37 139 -108c0 -45 -23 -74 -66 -91v-2c51 -13 82 -55 82 -104zM103 191c0 -53 48 -78 95 -78s95 25 95 78c0 47 -44 69 -95 69
c-49 0 -95 -22 -95 -69zM87 -5c0 -60 50 -91 111 -91c60 0 111 31 111 91c0 59 -52 83 -111 83c-60 0 -111 -24 -111 -83z" />
    <glyph glyph-name="uni2089" unicode="&#x2089;" horiz-adv-x="389" 
d="M54 -26h45c4 -39 35 -67 84 -67c95 0 119 95 121 172h-1c-25 -40 -71 -61 -122 -61c-87 0 -139 60 -139 139c0 63 38 143 149 143c129 0 153 -112 153 -205c0 -116 -37 -228 -163 -228c-73 0 -120 40 -127 107zM295 160c0 57 -41 100 -106 100c-64 0 -102 -47 -102 -99
c0 -56 34 -102 102 -102c67 0 106 44 106 101z" />
    <glyph glyph-name="uni208D" unicode="&#x208d;" horiz-adv-x="207" 
d="M96 60c0 -93 27 -184 70 -260h-39c-49 85 -76 159 -76 260s28 179 77 263h38c-43 -75 -70 -168 -70 -263z" />
    <glyph glyph-name="uni208E" unicode="&#x208e;" horiz-adv-x="206" 
d="M111 60c0 95 -27 188 -70 263h38c49 -84 77 -162 77 -263s-25 -175 -76 -260h-39c43 76 70 167 70 260z" />
    <glyph glyph-name="bracketleft.subs" horiz-adv-x="227" 
d="M189 -200h-110v523h110v-35h-67v-453h67v-35z" />
    <glyph glyph-name="bracketright.subs" horiz-adv-x="227" 
d="M148 -200h-110v35h67v453h-67v35h110v-523z" />
    <glyph glyph-name="uni208A" unicode="&#x208a;" horiz-adv-x="388" 
d="M173 102v133h43v-133h130v-41h-130v-132h-43v132h-131v41h131z" />
    <glyph glyph-name="uni208B" unicode="&#x208b;" horiz-adv-x="410" 
d="M356 103v-41h-302v41h302z" />
    <glyph glyph-name="uni208C" unicode="&#x208c;" horiz-adv-x="412" 
d="M357 174v-41h-302v41h302zM357 30v-41h-302v41h302z" />
    <glyph glyph-name="period.subs" horiz-adv-x="169" 
d="M114 -128h-59v70h59v-70z" />
    <glyph glyph-name="comma.subs" horiz-adv-x="173" 
d="M57 -58h60v-65c0 -23 -5 -43 -14 -58c-10 -18 -26 -30 -48 -35v28c24 8 33 31 33 55v5h-31v70z" />
    <glyph glyph-name="a.sups" horiz-adv-x="355" 
d="M295 609v-158c0 -21 8 -24 23 -24h10v-34c-9 -1 -14 -2 -26 -2c-33 0 -46 13 -49 44h-3c-16 -27 -53 -49 -104 -49c-61 0 -110 32 -110 92c0 68 67 86 138 96l28 4c41 7 49 13 49 37c0 35 -20 57 -76 57c-55 0 -83 -24 -83 -71h-43c0 77 57 108 128 108
c60 0 118 -15 118 -100zM252 506v51c-5 -3 -18 -7 -39 -12l-36 -7c-65 -13 -96 -23 -96 -58c0 -36 31 -58 76 -58c44 0 95 25 95 84z" />
    <glyph glyph-name="b.sups" horiz-adv-x="390" 
d="M65 811h43v-148h2c19 27 56 46 105 46c81 0 138 -63 138 -162c0 -93 -58 -164 -142 -164c-52 0 -85 19 -102 43h-1v-35h-43v420zM206 422c67 0 102 56 102 125c0 68 -34 122 -102 122c-67 0 -100 -42 -100 -125c0 -76 35 -122 100 -122z" />
    <glyph glyph-name="c.sups" horiz-adv-x="359" 
d="M322 600h-45c-5 40 -33 70 -89 70c-68 0 -106 -45 -106 -124c0 -73 41 -122 105 -122c53 0 86 33 91 80h46c-9 -68 -60 -118 -137 -118c-93 0 -150 69 -150 161c0 95 55 161 152 161c76 0 125 -40 133 -108z" />
    <glyph glyph-name="d.sups" horiz-adv-x="390" 
d="M325 391h-43v42h-1c-20 -28 -55 -47 -106 -47c-81 0 -138 63 -138 159c0 92 59 163 142 163c52 0 84 -20 101 -43h2v146h43v-420zM184 670c-67 0 -102 -56 -102 -125c0 -67 35 -121 104 -121c65 0 98 41 98 123c0 77 -33 123 -100 123z" />
    <glyph glyph-name="e.sups" horiz-adv-x="366" 
d="M328 538h-248c0 -65 44 -114 109 -114c64 0 86 41 94 69h45c-17 -64 -66 -107 -141 -107c-95 0 -150 59 -150 160c0 95 58 162 150 162c99 0 141 -70 141 -170zM81 575h202c-3 53 -35 95 -98 95c-64 0 -101 -42 -104 -95z" />
    <glyph glyph-name="f.sups" horiz-adv-x="209" 
d="M27 662v38h53v23c0 68 26 91 83 91c11 0 22 -1 34 -2v-40c-9 1 -18 3 -30 3c-27 0 -44 -10 -44 -41v-34h68v-38h-68v-271h-43v271h-53z" />
    <glyph glyph-name="g.sups" horiz-adv-x="381" 
d="M316 700v-288c0 -91 -46 -131 -137 -131c-83 0 -126 29 -129 86h47c5 -32 33 -48 84 -48c62 0 93 30 93 90v5c0 13 1 31 1 40h-1c-12 -23 -47 -52 -106 -52c-85 0 -130 69 -130 154c0 82 55 152 136 152c52 0 83 -23 98 -44h2v36h42zM179 440c77 0 96 61 96 118
c0 29 -7 55 -22 78c-14 23 -39 34 -74 34c-72 0 -98 -62 -98 -117c0 -54 33 -113 98 -113z" />
    <glyph glyph-name="h.sups" horiz-adv-x="383" 
d="M108 391h-43v420h43v-151c16 25 52 48 109 48c35 0 61 -10 79 -29c19 -19 28 -47 28 -85v-203h-43v189c0 65 -27 90 -78 90c-33 0 -59 -15 -75 -35c-13 -17 -20 -44 -20 -65v-179z" />
    <glyph glyph-name="uni2071" unicode="&#x2071;" horiz-adv-x="173" 
d="M108 746h-43v65h43v-65zM65 700h43v-309h-43v309z" />
    <glyph glyph-name="j.sups" horiz-adv-x="182" 
d="M117 746h-43v65h43v-65zM28 324c44 0 46 26 46 61v315h43v-325c0 -57 -20 -89 -80 -89c-9 0 -17 1 -24 2v36h15z" />
    <glyph glyph-name="k.sups" horiz-adv-x="359" 
d="M65 391v420h43v-259l161 148h60l-124 -112l138 -197h-54l-115 168l-66 -55v-113h-43z" />
    <glyph glyph-name="l.sups" horiz-adv-x="173" 
d="M65 811h43v-420h-43v420z" />
    <glyph glyph-name="m.sups" horiz-adv-x="574" 
d="M515 391h-43v189c0 65 -27 90 -74 90c-27 0 -51 -16 -66 -35c-13 -17 -20 -44 -20 -65v-179h-43v189c0 65 -24 90 -71 90c-29 0 -54 -15 -70 -35c-13 -17 -20 -44 -20 -65v-179h-43v309h42v-41h1c15 24 51 49 103 49c44 0 78 -19 93 -54h1c15 25 53 54 106 54
c33 0 58 -9 77 -28c18 -18 27 -47 27 -86v-203z" />
    <glyph glyph-name="uni207F" unicode="&#x207f;" horiz-adv-x="383" 
d="M108 391h-43v309h42v-41c16 25 51 49 108 49c33 0 64 -10 81 -29c19 -19 28 -47 28 -85v-203h-43v189c0 65 -27 90 -78 90c-33 0 -59 -15 -75 -35c-13 -17 -20 -44 -20 -65v-179z" />
    <glyph glyph-name="o.sups" horiz-adv-x="378" 
d="M189 708c92 0 152 -61 152 -160c0 -97 -59 -162 -152 -162s-152 62 -152 162c0 99 60 160 152 160zM189 670c-75 0 -107 -55 -107 -122s34 -124 107 -124s107 57 107 124s-34 122 -107 122z" />
    <glyph glyph-name="p.sups" horiz-adv-x="390" 
d="M108 286h-43v414h43v-37h1c19 27 55 45 104 45c81 0 140 -64 140 -161c0 -90 -58 -161 -142 -161c-52 0 -84 20 -101 44h-2v-144zM206 424c67 0 102 58 102 123c0 67 -35 123 -104 123c-67 0 -98 -46 -98 -125c0 -73 35 -121 100 -121z" />
    <glyph glyph-name="q.sups" horiz-adv-x="390" 
d="M325 286h-43v147h-2c-17 -27 -54 -47 -105 -47c-81 0 -138 64 -138 159c0 92 61 163 144 163c52 0 83 -19 100 -43h1v35h43v-414zM184 670c-67 0 -102 -58 -102 -125c0 -65 35 -121 104 -121c67 0 98 45 98 124c0 75 -33 122 -100 122z" />
    <glyph glyph-name="r.sups" horiz-adv-x="237" 
d="M198 664c-28 0 -50 -9 -67 -28c-15 -17 -23 -42 -23 -75v-170h-43v309h41v-47h2c11 29 50 55 95 55c9 0 16 -1 19 -1v-45c-11 3 -19 2 -24 2z" />
    <glyph glyph-name="s.sups" horiz-adv-x="333" 
d="M287 613h-48c-3 39 -29 58 -76 58c-45 0 -72 -19 -72 -46c0 -29 24 -40 72 -52l32 -8c49 -12 101 -24 101 -83c0 -63 -54 -96 -130 -96c-73 0 -129 27 -132 102h49c3 -45 40 -65 84 -65c45 0 82 20 82 53c0 35 -29 42 -76 53l-30 7c-50 12 -98 26 -98 85s57 87 118 87
c67 0 119 -22 124 -95z" />
    <glyph glyph-name="t.sups" horiz-adv-x="222" 
d="M122 794v-94h70v-40h-70v-194c0 -29 5 -42 41 -42c7 0 15 1 24 2v-38c-15 -1 -21 -2 -36 -2c-28 0 -47 5 -57 14c-12 11 -15 29 -15 60v200h-50v40h50v94h43z" />
    <glyph glyph-name="u.sups" horiz-adv-x="381" 
d="M273 700h43v-309h-42v45c-16 -25 -47 -50 -106 -50c-35 0 -62 10 -81 29c-17 19 -27 45 -27 82v203h43v-189c0 -63 27 -87 78 -87c33 0 56 15 72 35c13 17 20 41 20 62v179z" />
    <glyph glyph-name="v.sups" horiz-adv-x="315" 
d="M129 391l-110 309h50l49 -155c11 -36 25 -75 36 -106h5l39 110l53 151h48l-117 -309h-53z" />
    <glyph glyph-name="w.sups" horiz-adv-x="493" 
d="M123 391l-98 309h48l47 -161c4 -13 9 -30 14 -50l14 -47h4c8 31 19 66 28 99l42 159h51l41 -157c9 -36 17 -62 28 -101h4l29 100l47 158h47l-99 -309h-53l-44 157c-9 36 -17 61 -25 93h-2c-7 -29 -16 -63 -25 -96l-44 -154h-54z" />
    <glyph glyph-name="x.sups" horiz-adv-x="335" 
d="M263 391l-96 129l-96 -129h-51l122 160l-113 149h51l88 -118l87 118h51l-113 -148l123 -161h-53z" />
    <glyph glyph-name="y.sups" horiz-adv-x="315" 
d="M169 353c-17 -49 -49 -68 -94 -68c-13 0 -18 1 -27 1v38c7 -1 15 -1 23 -1c43 0 56 20 69 60l1 2l-124 315h47l49 -135l46 -131h3c12 36 30 92 45 135l44 131h47z" />
    <glyph glyph-name="z.sups" horiz-adv-x="325" 
d="M284 662l-203 -233h212v-38h-262v41l201 230h-189v38h241v-38z" />
    <glyph glyph-name="uni2070" unicode="&#x2070;" horiz-adv-x="402" 
d="M201 816c111 0 156 -95 156 -216c0 -120 -45 -214 -156 -214c-110 0 -156 94 -156 214c0 121 46 216 156 216zM201 776c-88 0 -111 -92 -111 -176c0 -83 23 -174 111 -174s111 91 111 174c0 84 -23 176 -111 176z" />
    <glyph glyph-name="onesuperior" unicode="&#xb9;" horiz-adv-x="266" 
d="M24 692v32c100 0 129 16 133 87h32v-420h-43v301h-122z" />
    <glyph glyph-name="twosuperior" unicode="&#xb2;" horiz-adv-x="386" 
d="M343 432v-41h-309c4 86 72 130 141 169l21 13c26 15 49 31 68 48s29 41 29 72c0 52 -41 83 -98 83c-76 0 -103 -50 -103 -113h-45c0 82 48 153 148 153c87 0 143 -45 143 -122c0 -71 -53 -114 -113 -149l-31 -18c-37 -21 -83 -46 -106 -95h255z" />
    <glyph glyph-name="threesuperior" unicode="&#xb3;" horiz-adv-x="395" 
d="M270 618v-3c51 -15 83 -46 83 -101c0 -83 -72 -128 -157 -128c-89 0 -156 49 -156 134v9h45c0 -61 42 -103 111 -103c60 0 112 29 112 85c0 55 -35 82 -105 82h-42v37h42c51 0 87 26 87 74c0 51 -42 72 -94 72c-65 0 -101 -41 -101 -102h-44c0 79 50 142 145 142
c73 0 139 -33 139 -109c0 -43 -26 -74 -65 -89z" />
    <glyph glyph-name="uni2074" unicode="&#x2074;" horiz-adv-x="378" 
d="M237 391v96h-213v39l212 285h44v-284h67v-40h-67v-96h-43zM70 527h167v98c0 73 1 108 1 131c-24 -33 -43 -62 -79 -109z" />
    <glyph glyph-name="uni2075" unicode="&#x2075;" horiz-adv-x="386" 
d="M36 517h45c3 -55 47 -91 106 -91c72 0 115 44 115 104c0 63 -48 103 -111 103c-43 0 -83 -15 -102 -43h-41l43 221h236v-41h-200l-25 -127c16 16 53 31 96 31c92 0 149 -60 149 -143c0 -85 -69 -145 -160 -145c-85 0 -148 50 -151 131z" />
    <glyph glyph-name="uni2076" unicode="&#x2076;" horiz-adv-x="390" 
d="M335 712h-45c-4 39 -35 67 -84 67c-96 0 -117 -94 -121 -172h1c25 40 73 61 122 61c87 0 139 -60 139 -139c0 -63 -37 -143 -149 -143c-129 0 -153 112 -153 205c0 117 38 228 163 228c75 0 120 -40 127 -107zM94 526c0 -57 41 -100 106 -100c64 0 102 47 102 99
c0 56 -34 102 -102 102c-65 0 -106 -44 -106 -101z" />
    <glyph glyph-name="uni2077" unicode="&#x2077;" horiz-adv-x="338" 
d="M22 770v41h300v-35c-58 -56 -179 -188 -187 -385h-48c13 141 65 256 182 379h-247z" />
    <glyph glyph-name="uni2078" unicode="&#x2078;" horiz-adv-x="396" 
d="M353 511c0 -84 -66 -125 -155 -125s-155 41 -155 125c0 49 33 91 82 104v2c-41 17 -66 46 -66 91c0 71 63 108 139 108s139 -37 139 -108c0 -45 -23 -74 -66 -91v-2c51 -13 82 -55 82 -104zM103 710c0 -53 48 -78 95 -78s95 25 95 78c0 47 -44 69 -95 69
c-49 0 -95 -22 -95 -69zM87 514c0 -60 50 -91 111 -91c60 0 111 31 111 91c0 59 -52 83 -111 83c-60 0 -111 -24 -111 -83z" />
    <glyph glyph-name="uni2079" unicode="&#x2079;" horiz-adv-x="389" 
d="M54 493h45c4 -39 35 -67 84 -67c95 0 119 95 121 172h-1c-25 -40 -71 -61 -122 -61c-87 0 -139 60 -139 139c0 63 38 143 149 143c129 0 153 -112 153 -205c0 -116 -37 -228 -163 -228c-73 0 -120 40 -127 107zM295 679c0 57 -41 100 -106 100c-64 0 -102 -47 -102 -99
c0 -56 34 -102 102 -102c67 0 106 44 106 101z" />
    <glyph glyph-name="uni207D" unicode="&#x207d;" horiz-adv-x="207" 
d="M96 579c0 -93 27 -184 70 -260h-39c-49 85 -76 159 -76 260s28 179 77 263h38c-43 -75 -70 -168 -70 -263z" />
    <glyph glyph-name="uni207E" unicode="&#x207e;" horiz-adv-x="206" 
d="M111 579c0 95 -27 188 -70 263h38c49 -84 77 -162 77 -263s-25 -175 -76 -260h-39c43 76 70 167 70 260z" />
    <glyph glyph-name="bracketleft.sups" horiz-adv-x="227" 
d="M189 319h-110v523h110v-35h-67v-453h67v-35z" />
    <glyph glyph-name="bracketright.sups" horiz-adv-x="227" 
d="M148 319h-110v35h67v453h-67v35h110v-523z" />
    <glyph glyph-name="uni207A" unicode="&#x207a;" horiz-adv-x="388" 
d="M173 621v133h43v-133h130v-41h-130v-132h-43v132h-131v41h131z" />
    <glyph glyph-name="uni207B" unicode="&#x207b;" horiz-adv-x="410" 
d="M356 622v-41h-302v41h302z" />
    <glyph glyph-name="uni207C" unicode="&#x207c;" horiz-adv-x="412" 
d="M357 693v-41h-302v41h302zM357 549v-41h-302v41h302z" />
    <glyph glyph-name="period.sups" horiz-adv-x="169" 
d="M114 391h-59v70h59v-70z" />
    <glyph glyph-name="comma.sups" horiz-adv-x="173" 
d="M57 462h60v-65c0 -23 -5 -43 -14 -58c-10 -18 -26 -30 -48 -35v28c24 8 33 31 33 55v5h-31v70z" />
    <glyph glyph-name="a.dnom" horiz-adv-x="355" 
d="M294 218v-158c0 -21 8 -24 23 -24h10v-34c-9 -1 -14 -2 -26 -2c-33 0 -46 13 -49 44h-3c-16 -27 -53 -49 -104 -49c-61 0 -110 32 -110 92c0 68 67 86 138 96l28 4c41 7 49 13 49 37c0 35 -20 57 -76 57c-55 0 -83 -24 -83 -71h-43c0 77 57 108 128 108
c60 0 118 -15 118 -100zM251 115v51c-5 -3 -18 -7 -39 -12l-36 -7c-65 -13 -96 -23 -96 -58c0 -36 31 -58 76 -58c44 0 95 25 95 84z" />
    <glyph glyph-name="b.dnom" horiz-adv-x="390" 
d="M71 420h43v-148h2c19 27 56 46 105 46c81 0 138 -63 138 -162c0 -93 -58 -164 -142 -164c-52 0 -85 19 -102 43h-1v-35h-43v420zM212 31c67 0 102 56 102 125c0 68 -34 122 -102 122c-67 0 -100 -42 -100 -125c0 -76 35 -122 100 -122z" />
    <glyph glyph-name="c.dnom" horiz-adv-x="359" 
d="M324 209h-45c-5 40 -33 70 -89 70c-68 0 -106 -45 -106 -124c0 -73 41 -122 105 -122c53 0 86 33 91 80h46c-9 -68 -60 -118 -137 -118c-93 0 -150 69 -150 161c0 95 55 161 152 161c76 0 125 -40 133 -108z" />
    <glyph glyph-name="d.dnom" horiz-adv-x="390" 
d="M319 0h-43v42h-1c-20 -28 -55 -47 -106 -47c-81 0 -138 63 -138 159c0 92 59 163 142 163c52 0 84 -20 101 -43h2v146h43v-420zM178 279c-67 0 -102 -56 -102 -125c0 -67 35 -121 104 -121c65 0 98 41 98 123c0 77 -33 123 -100 123z" />
    <glyph glyph-name="e.dnom" horiz-adv-x="366" 
d="M328 147h-248c0 -65 44 -114 109 -114c64 0 86 41 94 69h45c-17 -64 -66 -107 -141 -107c-95 0 -150 59 -150 160c0 95 58 162 150 162c99 0 141 -70 141 -170zM81 184h202c-3 53 -35 95 -98 95c-64 0 -101 -42 -104 -95z" />
    <glyph glyph-name="f.dnom" horiz-adv-x="209" 
d="M21 271v38h53v23c0 68 26 91 83 91c11 0 22 -1 34 -2v-40c-9 1 -18 3 -30 3c-27 0 -44 -10 -44 -41v-34h68v-38h-68v-271h-43v271h-53z" />
    <glyph glyph-name="g.dnom" horiz-adv-x="381" 
d="M315 309v-288c0 -91 -46 -131 -137 -131c-83 0 -126 29 -129 86h47c5 -32 33 -48 84 -48c62 0 93 30 93 90v5c0 13 1 31 1 40h-1c-12 -23 -47 -52 -106 -52c-85 0 -130 69 -130 154c0 82 55 152 136 152c52 0 83 -23 98 -44h2v36h42zM178 49c77 0 96 61 96 118
c0 29 -7 55 -22 78c-14 23 -39 34 -74 34c-72 0 -98 -62 -98 -117c0 -54 33 -113 98 -113z" />
    <glyph glyph-name="h.dnom" horiz-adv-x="383" 
d="M108 0h-43v420h43v-151c16 25 52 48 109 48c35 0 61 -10 79 -29c19 -19 28 -47 28 -85v-203h-43v189c0 65 -27 90 -78 90c-33 0 -59 -15 -75 -35c-13 -17 -20 -44 -20 -65v-179z" />
    <glyph glyph-name="i.dnom" horiz-adv-x="173" 
d="M108 355h-43v65h43v-65zM65 309h43v-309h-43v309z" />
    <glyph glyph-name="j.dnom" horiz-adv-x="182" 
d="M117 355h-43v65h43v-65zM28 -67c44 0 46 26 46 61v315h43v-325c0 -57 -20 -89 -80 -89c-9 0 -17 1 -24 2v36h15z" />
    <glyph glyph-name="k.dnom" horiz-adv-x="359" 
d="M65 0v420h43v-259l161 148h60l-124 -112l138 -197h-54l-115 168l-66 -55v-113h-43z" />
    <glyph glyph-name="l.dnom" horiz-adv-x="173" 
d="M65 420h43v-420h-43v420z" />
    <glyph glyph-name="m.dnom" horiz-adv-x="574" 
d="M514 0h-43v189c0 65 -27 90 -74 90c-27 0 -51 -16 -66 -35c-13 -17 -20 -44 -20 -65v-179h-43v189c0 65 -24 90 -71 90c-29 0 -54 -15 -70 -35c-13 -17 -20 -44 -20 -65v-179h-43v309h42v-41h1c15 24 51 49 103 49c44 0 78 -19 93 -54h1c15 25 53 54 106 54
c33 0 58 -9 77 -28c18 -18 27 -47 27 -86v-203z" />
    <glyph glyph-name="n.dnom" horiz-adv-x="383" 
d="M107 0h-43v309h42v-41c16 25 51 49 108 49c33 0 64 -10 81 -29c19 -19 28 -47 28 -85v-203h-43v189c0 65 -27 90 -78 90c-33 0 -59 -15 -75 -35c-13 -17 -20 -44 -20 -65v-179z" />
    <glyph glyph-name="o.dnom" horiz-adv-x="378" 
d="M189 317c92 0 152 -61 152 -160c0 -97 -59 -162 -152 -162s-152 62 -152 162c0 99 60 160 152 160zM189 279c-75 0 -107 -55 -107 -122s34 -124 107 -124s107 57 107 124s-34 122 -107 122z" />
    <glyph glyph-name="p.dnom" horiz-adv-x="390" 
d="M108 -105h-43v414h43v-37h1c19 27 55 45 104 45c81 0 140 -64 140 -161c0 -90 -58 -161 -142 -161c-52 0 -84 20 -101 44h-2v-144zM206 33c67 0 102 58 102 123c0 67 -35 123 -104 123c-67 0 -98 -46 -98 -125c0 -73 35 -121 100 -121z" />
    <glyph glyph-name="q.dnom" horiz-adv-x="390" 
d="M325 -105h-43v147h-2c-17 -27 -54 -47 -105 -47c-81 0 -138 64 -138 159c0 92 61 163 144 163c52 0 83 -19 100 -43h1v35h43v-414zM184 279c-67 0 -102 -58 -102 -125c0 -65 35 -121 104 -121c67 0 98 45 98 124c0 75 -33 122 -100 122z" />
    <glyph glyph-name="r.dnom" horiz-adv-x="237" 
d="M195 273c-28 0 -50 -9 -67 -28c-15 -17 -23 -42 -23 -75v-170h-43v309h41v-47h2c11 29 50 55 95 55c9 0 16 -1 19 -1v-45c-11 3 -19 2 -24 2z" />
    <glyph glyph-name="s.dnom" horiz-adv-x="333" 
d="M286 222h-48c-3 39 -29 58 -76 58c-45 0 -72 -19 -72 -46c0 -29 24 -40 72 -52l32 -8c49 -12 101 -24 101 -83c0 -63 -54 -96 -130 -96c-73 0 -129 27 -132 102h49c3 -45 40 -65 84 -65c45 0 82 20 82 53c0 35 -29 42 -76 53l-30 7c-50 12 -98 26 -98 85s57 87 118 87
c67 0 119 -22 124 -95z" />
    <glyph glyph-name="t.dnom" horiz-adv-x="222" 
d="M123 403v-94h70v-40h-70v-194c0 -29 5 -42 41 -42c7 0 15 1 24 2v-38c-15 -1 -21 -2 -36 -2c-28 0 -47 5 -57 14c-12 11 -15 29 -15 60v200h-50v40h50v94h43z" />
    <glyph glyph-name="u.dnom" horiz-adv-x="381" 
d="M273 309h43v-309h-42v45c-16 -25 -47 -50 -106 -50c-35 0 -62 10 -81 29c-17 19 -27 45 -27 82v203h43v-189c0 -63 27 -87 78 -87c33 0 56 15 72 35c13 17 20 41 20 62v179z" />
    <glyph glyph-name="v.dnom" horiz-adv-x="315" 
d="M129 0l-110 309h50l49 -155c11 -36 25 -75 36 -106h5l39 110l53 151h48l-117 -309h-53z" />
    <glyph glyph-name="w.dnom" horiz-adv-x="493" 
d="M123 0l-98 309h48l47 -161c4 -13 9 -30 14 -50l14 -47h4c8 31 19 66 28 99l42 159h51l41 -157c9 -36 17 -62 28 -101h4l29 100l47 158h47l-99 -309h-53l-44 157c-9 36 -17 61 -25 93h-2c-7 -29 -16 -63 -25 -96l-44 -154h-54z" />
    <glyph glyph-name="x.dnom" horiz-adv-x="335" 
d="M263 0l-96 129l-96 -129h-51l122 160l-113 149h51l88 -118l87 118h51l-113 -148l123 -161h-53z" />
    <glyph glyph-name="y.dnom" horiz-adv-x="315" 
d="M169 -38c-17 -49 -49 -68 -94 -68c-13 0 -18 1 -27 1v38c7 -1 15 -1 23 -1c43 0 56 20 69 60l1 2l-124 315h47l49 -135l46 -131h3c12 36 30 92 45 135l44 131h47z" />
    <glyph glyph-name="z.dnom" horiz-adv-x="325" 
d="M285 271l-203 -233h212v-38h-262v41l201 230h-189v38h241v-38z" />
    <glyph glyph-name="zero.dnom" horiz-adv-x="402" 
d="M201 425c111 0 156 -95 156 -216c0 -120 -45 -214 -156 -214c-110 0 -156 94 -156 214c0 121 46 216 156 216zM201 385c-88 0 -111 -92 -111 -176c0 -83 23 -174 111 -174s111 91 111 174c0 84 -23 176 -111 176z" />
    <glyph glyph-name="one.dnom" horiz-adv-x="266" 
d="M24 301v32c100 0 129 16 133 87h32v-420h-43v301h-122z" />
    <glyph glyph-name="two.dnom" horiz-adv-x="386" 
d="M344 41v-41h-309c4 86 72 130 141 169l21 13c26 15 49 31 68 48s29 41 29 72c0 52 -41 83 -98 83c-76 0 -103 -50 -103 -113h-45c0 82 48 153 148 153c87 0 143 -45 143 -122c0 -71 -53 -114 -113 -149l-31 -18c-37 -21 -83 -46 -106 -95h255z" />
    <glyph glyph-name="three.dnom" horiz-adv-x="395" 
d="M270 227v-3c51 -15 83 -46 83 -101c0 -83 -72 -128 -157 -128c-89 0 -156 49 -156 134v9h45c0 -61 42 -103 111 -103c60 0 112 29 112 85c0 55 -35 82 -105 82h-42v37h42c51 0 87 26 87 74c0 51 -42 72 -94 72c-65 0 -101 -41 -101 -102h-44c0 79 50 142 145 142
c73 0 139 -33 139 -109c0 -43 -26 -74 -65 -89z" />
    <glyph glyph-name="four.dnom" horiz-adv-x="378" 
d="M237 0v96h-213v39l212 285h44v-284h67v-40h-67v-96h-43zM70 136h167v98c0 73 1 108 1 131c-24 -33 -43 -62 -79 -109z" />
    <glyph glyph-name="five.dnom" horiz-adv-x="386" 
d="M36 126h45c3 -55 47 -91 106 -91c72 0 115 44 115 104c0 63 -48 103 -111 103c-43 0 -83 -15 -102 -43h-41l43 221h236v-41h-200l-25 -127c16 16 53 31 96 31c92 0 149 -60 149 -143c0 -85 -69 -145 -160 -145c-85 0 -148 50 -151 131z" />
    <glyph glyph-name="six.dnom" horiz-adv-x="390" 
d="M335 321h-45c-4 39 -35 67 -84 67c-96 0 -117 -94 -121 -172h1c25 40 73 61 122 61c87 0 139 -60 139 -139c0 -63 -37 -143 -149 -143c-129 0 -153 112 -153 205c0 117 38 228 163 228c75 0 120 -40 127 -107zM94 135c0 -57 41 -100 106 -100c64 0 102 47 102 99
c0 56 -34 102 -102 102c-65 0 -106 -44 -106 -101z" />
    <glyph glyph-name="seven.dnom" horiz-adv-x="338" 
d="M22 379v41h300v-35c-58 -56 -179 -188 -187 -385h-48c13 141 65 256 182 379h-247z" />
    <glyph glyph-name="eight.dnom" horiz-adv-x="396" 
d="M353 120c0 -84 -66 -125 -155 -125s-155 41 -155 125c0 49 33 91 82 104v2c-41 17 -66 46 -66 91c0 71 63 108 139 108s139 -37 139 -108c0 -45 -23 -74 -66 -91v-2c51 -13 82 -55 82 -104zM103 319c0 -53 48 -78 95 -78s95 25 95 78c0 47 -44 69 -95 69
c-49 0 -95 -22 -95 -69zM87 123c0 -60 50 -91 111 -91c60 0 111 31 111 91c0 59 -52 83 -111 83c-60 0 -111 -24 -111 -83z" />
    <glyph glyph-name="nine.dnom" horiz-adv-x="389" 
d="M54 102h45c4 -39 35 -67 84 -67c95 0 119 95 121 172h-1c-25 -40 -71 -61 -122 -61c-87 0 -139 60 -139 139c0 63 38 143 149 143c129 0 153 -112 153 -205c0 -116 -37 -228 -163 -228c-73 0 -120 40 -127 107zM295 288c0 57 -41 100 -106 100c-64 0 -102 -47 -102 -99
c0 -56 34 -102 102 -102c67 0 106 44 106 101z" />
    <glyph glyph-name="parenleft.dnom" horiz-adv-x="207" 
d="M96 188c0 -93 27 -184 70 -260h-39c-49 85 -76 159 -76 260s28 179 77 263h38c-43 -75 -70 -168 -70 -263z" />
    <glyph glyph-name="parenright.dnom" horiz-adv-x="206" 
d="M110 188c0 95 -27 188 -70 263h38c49 -84 77 -162 77 -263s-25 -175 -76 -260h-39c43 76 70 167 70 260z" />
    <glyph glyph-name="bracketleft.dnom" horiz-adv-x="227" 
d="M189 -72h-110v523h110v-35h-67v-453h67v-35z" />
    <glyph glyph-name="bracketright.dnom" horiz-adv-x="227" 
d="M148 -72h-110v35h67v453h-67v35h110v-523z" />
    <glyph glyph-name="plus.dnom" horiz-adv-x="388" 
d="M173 231v133h43v-133h130v-41h-130v-132h-43v132h-131v41h131z" />
    <glyph glyph-name="minus.dnom" horiz-adv-x="410" 
d="M356 233v-41h-302v41h302z" />
    <glyph glyph-name="equal.dnom" horiz-adv-x="412" 
d="M357 305v-41h-302v41h302zM357 161v-41h-302v41h302z" />
    <glyph glyph-name="period.dnom" horiz-adv-x="169" 
d="M114 0h-59v70h59v-70z" />
    <glyph glyph-name="comma.dnom" horiz-adv-x="173" 
d="M58 70h60v-65c0 -23 -5 -43 -14 -58c-10 -18 -26 -30 -48 -35v28c24 8 33 31 33 55v5h-31v70z" />
    <glyph glyph-name="a.numr" horiz-adv-x="355" 
d="M294 498v-158c0 -21 8 -24 23 -24h10v-34c-9 -1 -14 -2 -26 -2c-33 0 -46 13 -49 44h-3c-16 -27 -53 -49 -104 -49c-61 0 -110 32 -110 92c0 68 67 86 138 96l28 4c41 7 49 13 49 37c0 35 -20 57 -76 57c-55 0 -83 -24 -83 -71h-43c0 77 57 108 128 108
c60 0 118 -15 118 -100zM251 395v51c-5 -3 -18 -7 -39 -12l-36 -7c-65 -13 -96 -23 -96 -58c0 -36 31 -58 76 -58c44 0 95 25 95 84z" />
    <glyph glyph-name="b.numr" horiz-adv-x="390" 
d="M71 700h43v-148h2c19 27 56 46 105 46c81 0 138 -63 138 -162c0 -93 -58 -164 -142 -164c-52 0 -85 19 -102 43h-1v-35h-43v420zM212 311c67 0 102 56 102 125c0 68 -34 122 -102 122c-67 0 -100 -42 -100 -125c0 -76 35 -122 100 -122z" />
    <glyph glyph-name="c.numr" horiz-adv-x="359" 
d="M324 489h-45c-5 40 -33 70 -89 70c-68 0 -106 -45 -106 -124c0 -73 41 -122 105 -122c53 0 86 33 91 80h46c-9 -68 -60 -118 -137 -118c-93 0 -150 69 -150 161c0 95 55 161 152 161c76 0 125 -40 133 -108z" />
    <glyph glyph-name="d.numr" horiz-adv-x="390" 
d="M319 280h-43v42h-1c-20 -28 -55 -47 -106 -47c-81 0 -138 63 -138 159c0 92 59 163 142 163c52 0 84 -20 101 -43h2v146h43v-420zM178 559c-67 0 -102 -56 -102 -125c0 -67 35 -121 104 -121c65 0 98 41 98 123c0 77 -33 123 -100 123z" />
    <glyph glyph-name="e.numr" horiz-adv-x="366" 
d="M328 427h-248c0 -65 44 -114 109 -114c64 0 86 41 94 69h45c-17 -64 -66 -107 -141 -107c-95 0 -150 59 -150 160c0 95 58 162 150 162c99 0 141 -70 141 -170zM81 464h202c-3 53 -35 95 -98 95c-64 0 -101 -42 -104 -95z" />
    <glyph glyph-name="f.numr" horiz-adv-x="209" 
d="M21 551v38h53v23c0 68 26 91 83 91c11 0 22 -1 34 -2v-40c-9 1 -18 3 -30 3c-27 0 -44 -10 -44 -41v-34h68v-38h-68v-271h-43v271h-53z" />
    <glyph glyph-name="g.numr" horiz-adv-x="381" 
d="M315 589v-288c0 -91 -46 -131 -137 -131c-83 0 -126 29 -129 86h47c5 -32 33 -48 84 -48c62 0 93 30 93 90v5c0 13 1 31 1 40h-1c-12 -23 -47 -52 -106 -52c-85 0 -130 69 -130 154c0 82 55 152 136 152c52 0 83 -23 98 -44h2v36h42zM178 329c77 0 96 61 96 118
c0 29 -7 55 -22 78c-14 23 -39 34 -74 34c-72 0 -98 -62 -98 -117c0 -54 33 -113 98 -113z" />
    <glyph glyph-name="h.numr" horiz-adv-x="383" 
d="M108 280h-43v420h43v-151c16 25 52 48 109 48c35 0 61 -10 79 -29c19 -19 28 -47 28 -85v-203h-43v189c0 65 -27 90 -78 90c-33 0 -59 -15 -75 -35c-13 -17 -20 -44 -20 -65v-179z" />
    <glyph glyph-name="i.numr" horiz-adv-x="173" 
d="M108 635h-43v65h43v-65zM65 589h43v-309h-43v309z" />
    <glyph glyph-name="j.numr" horiz-adv-x="182" 
d="M117 635h-43v65h43v-65zM28 213c44 0 46 26 46 61v315h43v-325c0 -57 -20 -89 -80 -89c-9 0 -17 1 -24 2v36h15z" />
    <glyph glyph-name="k.numr" horiz-adv-x="359" 
d="M65 280v420h43v-259l161 148h60l-124 -112l138 -197h-54l-115 168l-66 -55v-113h-43z" />
    <glyph glyph-name="l.numr" horiz-adv-x="173" 
d="M65 700h43v-420h-43v420z" />
    <glyph glyph-name="m.numr" horiz-adv-x="574" 
d="M514 280h-43v189c0 65 -27 90 -74 90c-27 0 -51 -16 -66 -35c-13 -17 -20 -44 -20 -65v-179h-43v189c0 65 -24 90 -71 90c-29 0 -54 -15 -70 -35c-13 -17 -20 -44 -20 -65v-179h-43v309h42v-41h1c15 24 51 49 103 49c44 0 78 -19 93 -54h1c15 25 53 54 106 54
c33 0 58 -9 77 -28c18 -18 27 -47 27 -86v-203z" />
    <glyph glyph-name="n.numr" horiz-adv-x="383" 
d="M107 280h-43v309h42v-41c16 25 51 49 108 49c33 0 64 -10 81 -29c19 -19 28 -47 28 -85v-203h-43v189c0 65 -27 90 -78 90c-33 0 -59 -15 -75 -35c-13 -17 -20 -44 -20 -65v-179z" />
    <glyph glyph-name="o.numr" horiz-adv-x="378" 
d="M189 597c92 0 152 -61 152 -160c0 -97 -59 -162 -152 -162s-152 62 -152 162c0 99 60 160 152 160zM189 559c-75 0 -107 -55 -107 -122s34 -124 107 -124s107 57 107 124s-34 122 -107 122z" />
    <glyph glyph-name="p.numr" horiz-adv-x="390" 
d="M108 175h-43v414h43v-37h1c19 27 55 45 104 45c81 0 140 -64 140 -161c0 -90 -58 -161 -142 -161c-52 0 -84 20 -101 44h-2v-144zM206 313c67 0 102 58 102 123c0 67 -35 123 -104 123c-67 0 -98 -46 -98 -125c0 -73 35 -121 100 -121z" />
    <glyph glyph-name="q.numr" horiz-adv-x="390" 
d="M325 175h-43v147h-2c-17 -27 -54 -47 -105 -47c-81 0 -138 64 -138 159c0 92 61 163 144 163c52 0 83 -19 100 -43h1v35h43v-414zM184 559c-67 0 -102 -58 -102 -125c0 -65 35 -121 104 -121c67 0 98 45 98 124c0 75 -33 122 -100 122z" />
    <glyph glyph-name="r.numr" horiz-adv-x="237" 
d="M195 553c-28 0 -50 -9 -67 -28c-15 -17 -23 -42 -23 -75v-170h-43v309h41v-47h2c11 29 50 55 95 55c9 0 16 -1 19 -1v-45c-11 3 -19 2 -24 2z" />
    <glyph glyph-name="s.numr" horiz-adv-x="333" 
d="M286 502h-48c-3 39 -29 58 -76 58c-45 0 -72 -19 -72 -46c0 -29 24 -40 72 -52l32 -8c49 -12 101 -24 101 -83c0 -63 -54 -96 -130 -96c-73 0 -129 27 -132 102h49c3 -45 40 -65 84 -65c45 0 82 20 82 53c0 35 -29 42 -76 53l-30 7c-50 12 -98 26 -98 85s57 87 118 87
c67 0 119 -22 124 -95z" />
    <glyph glyph-name="t.numr" horiz-adv-x="222" 
d="M123 683v-94h70v-40h-70v-194c0 -29 5 -42 41 -42c7 0 15 1 24 2v-38c-15 -1 -21 -2 -36 -2c-28 0 -47 5 -57 14c-12 11 -15 29 -15 60v200h-50v40h50v94h43z" />
    <glyph glyph-name="u.numr" horiz-adv-x="381" 
d="M273 589h43v-309h-42v45c-16 -25 -47 -50 -106 -50c-35 0 -62 10 -81 29c-17 19 -27 45 -27 82v203h43v-189c0 -63 27 -87 78 -87c33 0 56 15 72 35c13 17 20 41 20 62v179z" />
    <glyph glyph-name="v.numr" horiz-adv-x="315" 
d="M129 280l-110 309h50l49 -155c11 -36 25 -75 36 -106h5l39 110l53 151h48l-117 -309h-53z" />
    <glyph glyph-name="w.numr" horiz-adv-x="493" 
d="M123 280l-98 309h48l47 -161c4 -13 9 -30 14 -50l14 -47h4c8 31 19 66 28 99l42 159h51l41 -157c9 -36 17 -62 28 -101h4l29 100l47 158h47l-99 -309h-53l-44 157c-9 36 -17 61 -25 93h-2c-7 -29 -16 -63 -25 -96l-44 -154h-54z" />
    <glyph glyph-name="x.numr" horiz-adv-x="335" 
d="M263 280l-96 129l-96 -129h-51l122 160l-113 149h51l88 -118l87 118h51l-113 -148l123 -161h-53z" />
    <glyph glyph-name="y.numr" horiz-adv-x="315" 
d="M169 242c-17 -49 -49 -68 -94 -68c-13 0 -18 1 -27 1v38c7 -1 15 -1 23 -1c43 0 56 20 69 60l1 2l-124 315h47l49 -135l46 -131h3c12 36 30 92 45 135l44 131h47z" />
    <glyph glyph-name="z.numr" horiz-adv-x="325" 
d="M285 551l-203 -233h212v-38h-262v41l201 230h-189v38h241v-38z" />
    <glyph glyph-name="zero.numr" horiz-adv-x="402" 
d="M201 705c111 0 156 -95 156 -216c0 -120 -45 -214 -156 -214c-110 0 -156 94 -156 214c0 121 46 216 156 216zM201 665c-88 0 -111 -92 -111 -176c0 -83 23 -174 111 -174s111 91 111 174c0 84 -23 176 -111 176z" />
    <glyph glyph-name="one.numr" horiz-adv-x="266" 
d="M24 581v32c100 0 129 16 133 87h32v-420h-43v301h-122z" />
    <glyph glyph-name="two.numr" horiz-adv-x="386" 
d="M344 321v-41h-309c4 86 72 130 141 169l21 13c26 15 49 31 68 48s29 41 29 72c0 52 -41 83 -98 83c-76 0 -103 -50 -103 -113h-45c0 82 48 153 148 153c87 0 143 -45 143 -122c0 -71 -53 -114 -113 -149l-31 -18c-37 -21 -83 -46 -106 -95h255z" />
    <glyph glyph-name="three.numr" horiz-adv-x="395" 
d="M270 507v-3c51 -15 83 -46 83 -101c0 -83 -72 -128 -157 -128c-89 0 -156 49 -156 134v9h45c0 -61 42 -103 111 -103c60 0 112 29 112 85c0 55 -35 82 -105 82h-42v37h42c51 0 87 26 87 74c0 51 -42 72 -94 72c-65 0 -101 -41 -101 -102h-44c0 79 50 142 145 142
c73 0 139 -33 139 -109c0 -43 -26 -74 -65 -89z" />
    <glyph glyph-name="four.numr" horiz-adv-x="378" 
d="M237 280v96h-213v39l212 285h44v-284h67v-40h-67v-96h-43zM70 416h167v98c0 73 1 108 1 131c-24 -33 -43 -62 -79 -109z" />
    <glyph glyph-name="five.numr" horiz-adv-x="386" 
d="M36 406h45c3 -55 47 -91 106 -91c72 0 115 44 115 104c0 63 -48 103 -111 103c-43 0 -83 -15 -102 -43h-41l43 221h236v-41h-200l-25 -127c16 16 53 31 96 31c92 0 149 -60 149 -143c0 -85 -69 -145 -160 -145c-85 0 -148 50 -151 131z" />
    <glyph glyph-name="six.numr" horiz-adv-x="390" 
d="M335 601h-45c-4 39 -35 67 -84 67c-96 0 -117 -94 -121 -172h1c25 40 73 61 122 61c87 0 139 -60 139 -139c0 -63 -37 -143 -149 -143c-129 0 -153 112 -153 205c0 117 38 228 163 228c75 0 120 -40 127 -107zM94 415c0 -57 41 -100 106 -100c64 0 102 47 102 99
c0 56 -34 102 -102 102c-65 0 -106 -44 -106 -101z" />
    <glyph glyph-name="seven.numr" horiz-adv-x="338" 
d="M22 659v41h300v-35c-58 -56 -179 -188 -187 -385h-48c13 141 65 256 182 379h-247z" />
    <glyph glyph-name="eight.numr" horiz-adv-x="396" 
d="M353 400c0 -84 -66 -125 -155 -125s-155 41 -155 125c0 49 33 91 82 104v2c-41 17 -66 46 -66 91c0 71 63 108 139 108s139 -37 139 -108c0 -45 -23 -74 -66 -91v-2c51 -13 82 -55 82 -104zM103 599c0 -53 48 -78 95 -78s95 25 95 78c0 47 -44 69 -95 69
c-49 0 -95 -22 -95 -69zM87 403c0 -60 50 -91 111 -91c60 0 111 31 111 91c0 59 -52 83 -111 83c-60 0 -111 -24 -111 -83z" />
    <glyph glyph-name="nine.numr" horiz-adv-x="389" 
d="M54 382h45c4 -39 35 -67 84 -67c95 0 119 95 121 172h-1c-25 -40 -71 -61 -122 -61c-87 0 -139 60 -139 139c0 63 38 143 149 143c129 0 153 -112 153 -205c0 -116 -37 -228 -163 -228c-73 0 -120 40 -127 107zM295 568c0 57 -41 100 -106 100c-64 0 -102 -47 -102 -99
c0 -56 34 -102 102 -102c67 0 106 44 106 101z" />
    <glyph glyph-name="parenleft.numr" horiz-adv-x="207" 
d="M96 468c0 -93 27 -184 70 -260h-39c-49 85 -76 159 -76 260s28 179 77 263h38c-43 -75 -70 -168 -70 -263z" />
    <glyph glyph-name="parenright.numr" horiz-adv-x="206" 
d="M110 468c0 95 -27 188 -70 263h38c49 -84 77 -162 77 -263s-25 -175 -76 -260h-39c43 76 70 167 70 260z" />
    <glyph glyph-name="bracketleft.numr" horiz-adv-x="227" 
d="M189 208h-110v523h110v-35h-67v-453h67v-35z" />
    <glyph glyph-name="bracketright.numr" horiz-adv-x="227" 
d="M148 208h-110v35h67v453h-67v35h110v-523z" />
    <glyph glyph-name="plus.numr" horiz-adv-x="388" 
d="M173 511v133h43v-133h130v-41h-130v-132h-43v132h-131v41h131z" />
    <glyph glyph-name="minus.numr" horiz-adv-x="410" 
d="M356 513v-41h-302v41h302z" />
    <glyph glyph-name="equal.numr" horiz-adv-x="412" 
d="M357 585v-41h-302v41h302zM357 441v-41h-302v41h302z" />
    <glyph glyph-name="period.numr" horiz-adv-x="169" 
d="M114 280h-59v70h59v-70z" />
    <glyph glyph-name="comma.numr" horiz-adv-x="173" 
d="M58 350h60v-65c0 -23 -5 -43 -14 -58c-10 -18 -26 -30 -48 -35v28c24 8 33 31 33 55v5h-31v70z" />
    <glyph glyph-name="bar" unicode="|" horiz-adv-x="222" 
d="M88 -172v872h46v-872h-46z" />
    <glyph glyph-name="bar.case" horiz-adv-x="222" 
d="M88 -86v872h46v-872h-46z" />
    <glyph glyph-name="brokenbar" unicode="&#xa6;" horiz-adv-x="222" 
d="M88 351v349h46v-349h-46zM88 -172v349h46v-349h-46z" />
    <glyph glyph-name="brokenbar.case" horiz-adv-x="222" 
d="M88 437v349h46v-349h-46zM88 -86v349h46v-349h-46z" />
    <glyph glyph-name="backslash" unicode="\" horiz-adv-x="367" 
d="M290 0l-258 700h46l258 -700h-46z" />
    <glyph glyph-name="uni00AD" unicode="&#xad;" horiz-adv-x="391" 
d="M335 252h-279v53h279v-53z" />
    <glyph glyph-name="uni00AD.case" horiz-adv-x="405" 
d="M342 337h-279v53h279v-53z" />
    <glyph glyph-name="hyphen" unicode="-" horiz-adv-x="391" 
d="M335 252h-279v53h279v-53z" />
    <glyph glyph-name="hyphen.case" horiz-adv-x="405" 
d="M342 337h-279v53h279v-53z" />
    <glyph glyph-name="endash" unicode="&#x2013;" horiz-adv-x="607" 
d="M553 249h-499v53h499v-53z" />
    <glyph glyph-name="endash.case" horiz-adv-x="625" 
d="M562 334h-499v53h499v-53z" />
    <glyph glyph-name="emdash" unicode="&#x2014;" horiz-adv-x="1108" 
d="M1054 250h-1000v53h1000v-53z" />
    <glyph glyph-name="emdash.case" horiz-adv-x="1132" 
d="M1066 335h-1000v53h1000v-53z" />
    <glyph glyph-name="underscore" unicode="_" horiz-adv-x="474" 
d="M479 -122h-484v44h484v-44z" />
    <glyph glyph-name="bullet" unicode="&#x2022;" horiz-adv-x="431" 
d="M83 352c0 73 60 133 132 133c73 0 133 -60 133 -133c0 -72 -60 -132 -133 -132c-72 0 -132 60 -132 132z" />
    <glyph glyph-name="H18533" unicode="&#x25cf;" horiz-adv-x="236" 
d="M63 302c0 31 24 55 55 55s55 -24 55 -55s-24 -55 -55 -55s-55 24 -55 55z" />
    <glyph glyph-name="middot" unicode="&#xb7;" horiz-adv-x="205" 
d="M141 222h-77v117h77v-117z" />
    <glyph glyph-name="periodcentered.case" horiz-adv-x="209" 
d="M143 302h-77v117h77v-117z" />
    <glyph glyph-name="quotesinglbase" unicode="&#x201a;" horiz-adv-x="205" 
d="M64 117h77v-113c0 -29 -4 -55 -12 -77c-12 -29 -32 -54 -65 -69v45c31 19 38 52 38 97h-38v117z" />
    <glyph glyph-name="quotedblbase" unicode="&#x201e;" horiz-adv-x="375" 
d="M64 117h77v-113c0 -29 -4 -55 -12 -77c-12 -29 -32 -54 -65 -69v45c31 19 38 52 38 97h-38v117zM234 117h77v-113c0 -29 -4 -55 -12 -77c-12 -29 -32 -54 -65 -69v45c31 19 38 52 38 97h-38v117z" />
    <glyph glyph-name="quoteleft" unicode="&#x2018;" horiz-adv-x="200" 
d="M137 566v-117h-77v113c0 29 4 55 12 77c12 31 32 54 65 69v-45c-29 -19 -38 -50 -38 -97h38z" />
    <glyph glyph-name="quoteright" unicode="&#x2019;" horiz-adv-x="193" 
d="M64 700h77v-113c0 -29 -4 -55 -12 -77c-12 -29 -32 -54 -65 -69v45c31 19 38 52 38 97h-38v117z" />
    <glyph glyph-name="quotedblleft" unicode="&#x201c;" horiz-adv-x="370" 
d="M137 566v-117h-77v113c0 29 4 55 12 77c12 31 32 54 65 69v-45c-29 -19 -38 -50 -38 -97h38zM307 566v-117h-77v113c0 29 4 55 12 77c12 31 32 54 65 69v-45c-29 -19 -38 -50 -38 -97h38z" />
    <glyph glyph-name="quotedblright" unicode="&#x201d;" horiz-adv-x="363" 
d="M64 700h77v-113c0 -29 -4 -55 -12 -77c-12 -29 -32 -54 -65 -69v45c31 19 38 52 38 97h-38v117zM234 700h77v-113c0 -29 -4 -55 -12 -77c-12 -29 -32 -54 -65 -69v45c31 19 38 52 38 97h-38v117z" />
    <glyph glyph-name="guilsinglleft" unicode="&#x2039;" horiz-adv-x="265" 
d="M213 409l-141 -160l141 -158v-61l-175 200v39l175 200v-60z" />
    <glyph glyph-name="guilsinglright" unicode="&#x203a;" horiz-adv-x="265" 
d="M52 409v60l175 -200v-39l-175 -200v61l141 158z" />
    <glyph glyph-name="guilsinglleft.case" horiz-adv-x="266" 
d="M213 509l-141 -160l141 -158v-61l-175 200v39l175 200v-60z" />
    <glyph glyph-name="guilsinglright.case" horiz-adv-x="266" 
d="M53 509v60l175 -200v-39l-175 -200v61l141 158z" />
    <glyph glyph-name="guillemotleft" unicode="&#xab;" horiz-adv-x="475" 
d="M213 409l-141 -160l141 -158v-61l-175 200v39l175 200v-60zM423 409l-141 -160l141 -158v-61l-175 200v39l175 200v-60z" />
    <glyph glyph-name="guillemotright" unicode="&#xbb;" horiz-adv-x="475" 
d="M52 409v60l175 -200v-39l-175 -200v61l141 158zM262 409v60l175 -200v-39l-175 -200v61l141 158z" />
    <glyph glyph-name="guillemotleft.case" horiz-adv-x="476" 
d="M213 509l-141 -160l141 -158v-61l-175 200v39l175 200v-60zM423 509l-141 -160l141 -158v-61l-175 200v39l175 200v-60z" />
    <glyph glyph-name="guillemotright.case" horiz-adv-x="476" 
d="M53 509v60l175 -200v-39l-175 -200v61l141 158zM263 509v60l175 -200v-39l-175 -200v61l141 158z" />
    <glyph glyph-name="quotesingle" unicode="'" horiz-adv-x="180" 
d="M70 422l-10 278h60l-10 -278h-40z" />
    <glyph glyph-name="quotedbl" unicode="&#x22;" horiz-adv-x="335" 
d="M70 422l-10 278h60l-10 -278h-40zM225 422l-10 278h60l-10 -278h-40z" />
    <glyph glyph-name="ampersand" unicode="&#x26;" horiz-adv-x="605" 
d="M536 0l-77 95c-53 -67 -128 -110 -208 -110c-120 0 -210 69 -210 195c0 98 95 162 174 208l-31 40c-29 39 -57 80 -57 132c0 84 68 140 152 140c85 0 152 -56 152 -140c0 -87 -67 -137 -139 -183l161 -195c19 40 24 72 25 125h52c0 -41 -10 -104 -42 -167l117 -140h-69z
M279 654c-53 0 -98 -35 -98 -94c0 -51 44 -99 74 -137l9 -11c56 34 113 76 113 148c0 59 -45 94 -98 94zM425 134l-180 220c-70 -36 -150 -93 -150 -181c0 -84 75 -142 158 -142c73 0 132 47 172 103z" />
    <glyph glyph-name="at" unicode="@" horiz-adv-x="775" 
d="M43 224c0 233 159 401 359 401c189 0 330 -123 330 -300c0 -73 -24 -141 -63 -192c-43 -57 -103 -94 -155 -94c-40 0 -70 20 -70 69h-4c-35 -45 -77 -68 -126 -68c-80 0 -127 61 -127 144c0 81 37 171 98 226c36 32 79 53 127 53c60 0 102 -35 107 -92h4l24 73h42
l-94 -281c-5 -19 -10 -36 -10 -51c0 -20 10 -35 39 -35c35 0 68 23 97 56c40 47 67 118 67 191c0 163 -131 262 -284 262c-188 0 -317 -155 -317 -364c0 -180 131 -288 285 -288c129 0 229 50 290 131h44c-60 -110 -190 -170 -332 -170c-190 0 -331 134 -331 329zM407 424
c-39 0 -72 -18 -99 -45c-50 -48 -80 -131 -80 -192c0 -73 39 -108 91 -108c98 0 177 154 177 247c0 55 -34 98 -89 98z" />
    <glyph glyph-name="at.case" horiz-adv-x="779" 
d="M45 315c0 233 159 401 359 401c189 0 330 -123 330 -300c0 -73 -24 -141 -63 -192c-43 -57 -103 -94 -155 -94c-40 0 -70 20 -70 69h-4c-35 -45 -77 -68 -126 -68c-80 0 -127 61 -127 144c0 81 37 171 98 226c36 32 79 53 127 53c60 0 102 -35 107 -92h4l24 73h42
l-94 -281c-5 -19 -10 -36 -10 -51c0 -20 10 -35 39 -35c35 0 68 23 97 56c40 47 67 118 67 191c0 163 -131 262 -284 262c-188 0 -317 -155 -317 -364c0 -180 131 -288 285 -288c129 0 229 50 290 131h44c-60 -110 -190 -170 -332 -170c-190 0 -331 134 -331 329zM409 515
c-39 0 -72 -18 -99 -45c-50 -48 -80 -131 -80 -192c0 -73 39 -108 91 -108c98 0 177 154 177 247c0 55 -34 98 -89 98z" />
    <glyph glyph-name="section" unicode="&#xa7;" horiz-adv-x="545" 
d="M89 570c0 91 84 143 190 143c101 0 188 -49 192 -160h-56c-5 79 -60 114 -136 114c-77 0 -135 -27 -135 -96c0 -59 43 -82 135 -126l100 -49c79 -37 129 -78 129 -155c0 -65 -48 -114 -109 -133c32 -21 68 -57 68 -117c0 -104 -94 -154 -202 -154
c-117 0 -203 56 -211 177h56c7 -80 60 -130 155 -130c99 0 146 43 146 107c0 57 -55 86 -143 127l-86 40c-95 43 -143 81 -143 161c0 68 55 119 115 135c-37 25 -65 55 -65 116zM94 325c0 -59 41 -87 138 -134l115 -54c60 7 104 47 104 100c0 58 -43 82 -141 132l-110 56
c-63 -11 -106 -45 -106 -100z" />
    <glyph glyph-name="paragraph" unicode="&#xb6;" horiz-adv-x="557" 
d="M216 -147v536h-25c-80 0 -163 56 -163 154c0 80 41 133 126 150c25 5 53 7 86 7h219v-847h-53v800h-137v-800h-53z" />
    <glyph glyph-name="dagger" unicode="&#x2020;" horiz-adv-x="506" 
d="M226 420h-200v50h200v230h53v-230h201v-50h-201v-568h-53v568z" />
    <glyph glyph-name="daggerdbl" unicode="&#x2021;" horiz-adv-x="562" 
d="M254 132v288h-200v50h200v230h53v-230h201v-50h-201v-288h201v-50h-201v-231h-53v231h-200v50h200z" />
    <glyph glyph-name="ordfeminine" unicode="&#xaa;" horiz-adv-x="389" 
d="M306 612v-158c0 -21 8 -24 23 -24h10v-34c-9 -1 -14 -2 -26 -2c-33 0 -46 13 -49 44h-3c-16 -27 -53 -49 -104 -49c-61 0 -110 32 -110 92c0 68 67 86 138 96l28 4c41 7 49 13 49 37c0 35 -20 57 -76 57c-55 0 -83 -24 -83 -71h-43c0 77 57 108 128 108
c60 0 118 -15 118 -100zM263 509v51c-5 -3 -18 -7 -39 -12l-36 -7c-65 -13 -96 -23 -96 -58c0 -36 31 -58 76 -58c44 0 95 25 95 84z" />
    <glyph glyph-name="ordmasculine" unicode="&#xba;" horiz-adv-x="390" 
d="M195 713c92 0 152 -61 152 -160c0 -97 -59 -162 -152 -162s-152 62 -152 162c0 99 60 160 152 160zM195 675c-75 0 -107 -55 -107 -122s34 -124 107 -124s107 57 107 124s-34 122 -107 122z" />
    <glyph glyph-name="degree" unicode="&#xb0;" horiz-adv-x="384" 
d="M41 562c0 83 67 151 151 151c85 0 151 -68 151 -151c0 -82 -66 -151 -151 -151c-84 0 -151 69 -151 151zM77 562c0 -64 50 -115 115 -115c67 0 116 51 116 115s-49 116 -116 116c-65 0 -115 -52 -115 -116z" />
    <glyph glyph-name="uni2116" unicode="&#x2116;" horiz-adv-x="1058" 
d="M867 713c92 0 152 -61 152 -160c0 -97 -59 -162 -152 -162s-152 62 -152 162c0 99 60 160 152 160zM88 0v700h69l292 -421c36 -52 82 -124 126 -187h2c0 95 -1 194 -1 291v317h59v-700h-68l-266 384l-153 227h-2c0 -84 1 -176 1 -263v-348h-59zM867 675
c-75 0 -107 -55 -107 -122s34 -124 107 -124s107 57 107 124s-34 122 -107 122zM1007 275h-279v43h279v-43z" />
    <glyph glyph-name="registered" unicode="&#xae;" horiz-adv-x="836" 
d="M56 351c0 203 159 362 362 362c204 0 362 -159 362 -362c0 -202 -158 -364 -362 -364c-203 0 -362 162 -362 364zM418 670c-180 0 -317 -141 -317 -319c0 -177 137 -322 317 -322c178 0 316 145 316 322c0 178 -138 319 -316 319zM273 142v414h181c43 0 70 -7 93 -26
c23 -17 39 -47 39 -84c0 -48 -20 -83 -67 -102c39 -12 54 -40 57 -91l4 -62c1 -15 6 -32 15 -49h-44c-9 15 -9 26 -12 49l-4 54c-2 46 -14 82 -81 82h-140v-185h-41zM314 520v-158h143c47 0 86 28 86 81c0 44 -27 77 -86 77h-143z" />
    <glyph glyph-name="copyright" unicode="&#xa9;" horiz-adv-x="836" 
d="M418 713c204 0 362 -159 362 -362c0 -202 -158 -364 -362 -364c-203 0 -362 162 -362 364c0 203 159 362 362 362zM418 670c-180 0 -317 -141 -317 -319c0 -177 137 -322 317 -322c178 0 316 145 316 322c0 178 -138 319 -316 319zM553 282h44
c-17 -89 -77 -152 -174 -152c-132 0 -196 102 -196 216c0 115 66 216 197 216c96 0 163 -61 172 -148h-44c-9 61 -52 111 -128 111c-108 0 -154 -92 -154 -179s44 -179 153 -179c75 0 118 51 130 115z" />
    <glyph glyph-name="uni2117" unicode="&#x2117;" horiz-adv-x="836" 
d="M418 713c204 0 362 -159 362 -362c0 -202 -158 -364 -362 -364c-203 0 -362 162 -362 364c0 203 159 362 362 362zM418 670c-180 0 -317 -141 -317 -319c0 -177 137 -322 317 -322c178 0 316 145 316 322c0 178 -138 319 -316 319zM293 142v414h160
c91 0 137 -49 137 -118c0 -81 -64 -124 -145 -124h-111v-172h-41zM334 520v-168h103c63 0 110 25 110 86c0 65 -48 82 -112 82h-101z" />
    <glyph glyph-name="trademark" unicode="&#x2122;" horiz-adv-x="1058" 
d="M233 238h-52v418h-153v44h357v-44h-152v-418zM478 238v462h83l106 -252c13 -31 43 -108 56 -142h1c13 36 43 119 59 160l93 234h84v-462h-52v235c0 87 1 141 1 185h-3c-10 -27 -41 -104 -64 -162l-101 -258h-37l-108 254c-23 54 -58 138 -68 167h-3c1 -37 2 -109 2 -196
v-225h-49z" />
    <glyph glyph-name="uni2113" unicode="&#x2113;" horiz-adv-x="419" 
d="M178 155c0 -83 18 -117 71 -117c55 0 71 42 74 82h58c-5 -79 -41 -132 -130 -132c-91 0 -131 42 -131 139v71l-83 -69v69l82 66v257c0 53 3 96 20 129c21 39 54 64 115 64c85 0 129 -46 129 -125c0 -108 -61 -220 -205 -348v-86zM323 586c0 60 -32 78 -71 78
c-52 0 -74 -32 -74 -120v-234c112 108 145 196 145 276z" />
    <glyph glyph-name="estimated" unicode="&#x212e;" horiz-adv-x="588" 
d="M546 262h-395v-144c0 -48 44 -70 67 -82c27 -12 54 -14 83 -14c79 0 141 29 186 98h37c-56 -91 -123 -129 -223 -129c-150 0 -247 117 -247 266c0 141 93 267 247 267s245 -111 245 -262zM151 290h301v116c0 32 -31 61 -66 74c-25 11 -53 15 -86 15s-58 -3 -83 -14
c-33 -13 -66 -41 -66 -73v-118z" />
    <glyph glyph-name="asterisk" unicode="*" horiz-adv-x="464" 
d="M251 701v-164l155 52l12 -36l-156 -52l97 -131l-31 -22l-97 131l-95 -132l-30 23l95 132l-155 50l12 36l155 -50v163h38z" />
    <glyph glyph-name="numbersign" unicode="#" 
d="M369 0l36 225h-188l-36 -225h-42l36 225h-132l7 39h131l29 180h-133l7 39h132l35 217h42l-35 -217h188l35 217h42l-35 -217h129l-7 -39h-128l-29 -180h130l-7 -39h-129l-36 -225h-42zM252 444l-29 -180h188l29 180h-188z" />
    <glyph glyph-name="currency" unicode="&#xa4;" horiz-adv-x="565" 
d="M481 111l-65 65c-39 -31 -83 -47 -133 -47c-51 0 -96 16 -133 47l-65 -65l-32 31l65 65c-29 36 -46 82 -46 133c0 50 16 94 47 133l-66 66l32 31l65 -65c36 29 82 47 133 47s96 -18 133 -47l65 65l31 -32l-65 -65c31 -36 48 -82 48 -133s-18 -97 -47 -133l64 -64z
M117 340c0 -91 75 -166 166 -166c92 0 167 75 167 166c0 92 -75 167 -167 167c-91 0 -166 -75 -166 -167z" />
    <glyph glyph-name="dollar" unicode="$" horiz-adv-x="622" 
d="M292 -107v100c-140 8 -241 85 -245 235h59c1 -107 75 -177 186 -186v294l-7 2c-119 34 -212 59 -212 182c0 120 100 182 219 186v99h43v-99c127 -8 217 -72 217 -208h-57c-5 95 -55 151 -160 159v-273l38 -9c55 -13 97 -29 133 -54c41 -29 66 -68 66 -129
c0 -134 -99 -194 -237 -200v-99h-43zM129 525c0 -75 50 -101 163 -132v264c-103 -4 -163 -51 -163 -132zM354 323l-19 4v-286c117 5 181 59 181 147c0 44 -20 74 -55 94c-29 19 -60 32 -107 41z" />
    <glyph glyph-name="Euro" unicode="&#x20ac;" horiz-adv-x="640" 
d="M532 221h53c-14 -129 -80 -236 -223 -236c-64 0 -112 20 -147 53c-56 52 -80 136 -88 221h-80l10 43h67c-1 15 -1 31 -1 46c0 16 0 33 1 50h-77l10 43h70c7 67 25 134 58 183c36 53 93 88 177 88c144 0 210 -98 222 -239h-52c-14 109 -55 191 -170 191
c-64 0 -104 -26 -132 -67s-42 -100 -49 -156h281l-10 -43h-274c-1 -17 -1 -34 -1 -49s0 -31 1 -47h247l-10 -43h-234c7 -68 25 -138 69 -182c27 -27 60 -44 112 -44c103 0 157 77 170 188z" />
    <glyph glyph-name="sterling" unicode="&#xa3;" horiz-adv-x="569" 
d="M47 319v39h75c-29 48 -51 98 -51 159c0 132 104 196 223 196c140 0 223 -88 223 -229h-54c-1 107 -58 182 -169 182c-93 0 -170 -47 -170 -149c0 -71 30 -106 56 -159h172v-39h-152c12 -24 24 -54 24 -94c0 -83 -55 -141 -112 -180l2 -3c27 15 61 29 100 29
s69 -10 96 -21c28 -11 53 -21 86 -21c43 0 85 23 113 52l28 -40c-41 -35 -84 -58 -140 -58c-41 0 -73 8 -104 19c-29 11 -58 22 -101 22c-36 0 -66 -10 -109 -37l-34 49c61 42 121 102 121 182c0 44 -12 76 -27 101h-96z" />
    <glyph glyph-name="yen" unicode="&#xa5;" horiz-adv-x="632" 
d="M56 157v45h227v86l-29 48h-198v45h172l-188 319h64l209 -363l208 363h64l-188 -319h181v-45h-208l-28 -48v-86h236v-45h-236v-157h-59v157h-227z" />
    <glyph glyph-name="florin" unicode="&#x192;" 
d="M87 -171l8 49c16 -3 30 -5 46 -5c66 0 88 38 108 147l71 365h-106l8 47h107l15 84c21 104 40 197 167 197c19 0 37 -1 57 -4l-8 -47c-14 2 -29 3 -45 3c-88 -2 -99 -58 -117 -155l-14 -78h138l-8 -47h-138l-67 -350c-24 -123 -38 -210 -174 -210c-13 0 -33 1 -48 4z" />
    <glyph glyph-name="cent" unicode="&#xa2;" horiz-adv-x="565" 
d="M279 -107v94c-142 10 -221 127 -221 270s79 260 221 270v98h42v-98c96 -7 175 -61 191 -170h-56c-16 71 -63 118 -135 126v-451c35 5 66 21 93 48s42 60 47 100h54c-17 -111 -93 -184 -194 -193v-94h-42zM114 257c0 -105 44 -213 165 -225v451
c-119 -10 -165 -119 -165 -226z" />
    <glyph glyph-name="plus" unicode="+" 
d="M308 372v233h45v-233h235v-43h-235v-234h-45v234h-235v43h235z" />
    <glyph glyph-name="plus.ss06" 
d="M308 279v233h45v-233h235v-43h-235v-234h-45v234h-235v43h235z" />
    <glyph glyph-name="minus" unicode="&#x2212;" 
d="M583 371v-43h-507v43h507z" />
    <glyph glyph-name="minus.ss06" 
d="M584 278v-43h-507v43h507z" />
    <glyph glyph-name="multiply" unicode="&#xd7;" 
d="M297 351l-190 191l33 32l190 -191l191 191l32 -32l-190 -191l190 -190l-32 -33l-191 190l-190 -190l-33 33z" />
    <glyph glyph-name="x.ss20" 
d="M297 351l-190 191l33 32l190 -191l191 191l32 -32l-190 -191l190 -190l-32 -33l-191 190l-190 -190l-33 33z" />
    <glyph glyph-name="multiply.ss06" 
d="M297 258l-190 191l33 32l190 -191l191 191l32 -32l-190 -191l190 -190l-32 -33l-191 190l-190 -190l-33 33z" />
    <glyph glyph-name="divide" unicode="&#xf7;" 
d="M277 560c0 29 24 53 52 53c29 0 53 -25 53 -53c0 -27 -24 -54 -52 -54c-29 0 -53 26 -53 54zM579 330h-499v43h499v-43zM277 141c0 31 24 54 52 54c29 0 53 -25 53 -54c0 -27 -24 -53 -52 -53c-29 0 -53 25 -53 53z" />
    <glyph glyph-name="divide.ss06" 
d="M278 467c0 29 24 53 52 53c29 0 53 -25 53 -53c0 -27 -24 -54 -52 -54c-29 0 -53 26 -53 54zM580 237h-499v43h499v-43zM278 48c0 31 24 54 52 54c29 0 53 -25 53 -54c0 -27 -24 -53 -52 -53c-29 0 -53 25 -53 53z" />
    <glyph glyph-name="plusminus" unicode="&#xb1;" 
d="M307 460v191h45v-191h231v-43h-231v-185h-45v185h-231v43h231zM584 113v-43h-508v43h508z" />
    <glyph glyph-name="plusminus.ss06" 
d="M307 367v191h45v-191h231v-43h-231v-185h-45v185h-231v43h231zM584 20v-43h-508v43h508z" />
    <glyph glyph-name="equal" unicode="=" 
d="M580 491v-43h-500v43h500zM580 261v-43h-500v43h500z" />
    <glyph glyph-name="equal.ss06" 
d="M580 398v-43h-500v43h500zM580 168v-43h-500v43h500z" />
    <glyph glyph-name="notequal" unicode="&#x2260;" 
d="M580 257v-43h-288l-71 -171h-48l71 171h-164v43h182l78 187h-260v43h278l66 155h48l-66 -155h174v-43h-192l-78 -187h270z" />
    <glyph glyph-name="notequal.ss06" 
d="M580 164v-43h-288l-71 -171h-48l71 171h-164v43h182l78 187h-260v43h278l66 155h48l-66 -155h174v-43h-192l-78 -187h270z" />
    <glyph glyph-name="logicalnot" unicode="&#xac;" 
d="M493 175v297h-420v43h466v-340h-46z" />
    <glyph glyph-name="logicalnot.ss06" 
d="M500 82v297h-420v43h466v-340h-46z" />
    <glyph glyph-name="approxequal" unicode="&#x2248;" 
d="M363 427l-56 12c-24 5 -50 11 -67 11c-24 0 -43 -7 -52 -35h-44c10 52 42 78 96 78c19 0 39 -4 62 -9l56 -12c24 -5 50 -11 67 -11c24 0 43 7 52 35h44c-10 -52 -42 -78 -96 -78c-19 0 -39 4 -62 9zM363 221l-56 12c-24 5 -50 11 -67 11c-24 0 -43 -7 -52 -35h-44
c10 52 42 78 96 78c19 0 39 -4 62 -9l56 -12c24 -5 50 -11 67 -11c24 0 43 7 52 35h44c-10 -52 -42 -78 -96 -78c-19 0 -39 4 -62 9z" />
    <glyph glyph-name="approxequal.ss06" 
d="M360 334l-56 12c-24 5 -50 11 -67 11c-24 0 -43 -7 -52 -35h-44c10 52 42 78 96 78c19 0 39 -4 62 -9l56 -12c24 -5 50 -11 67 -11c24 0 43 7 52 35h44c-10 -52 -42 -78 -96 -78c-19 0 -39 4 -62 9zM360 128l-56 12c-24 5 -50 11 -67 11c-24 0 -43 -7 -52 -35h-44
c10 52 42 78 96 78c19 0 39 -4 62 -9l56 -12c24 -5 50 -11 67 -11c24 0 43 7 52 35h44c-10 -52 -42 -78 -96 -78c-19 0 -39 4 -62 9z" />
    <glyph glyph-name="infinity" unicode="&#x221e;" horiz-adv-x="860" 
d="M220 526c77 0 148 -55 209 -142c61 87 133 142 210 142c96 0 165 -74 165 -179c0 -104 -69 -179 -165 -179c-77 0 -151 59 -210 144c-57 -85 -132 -144 -209 -144c-95 0 -165 75 -165 179c0 105 70 179 165 179zM403 347v2c-52 68 -108 132 -183 132
c-72 0 -116 -59 -116 -134s44 -135 116 -135c77 0 139 71 183 135zM456 347c44 -63 107 -135 183 -135c72 0 116 60 116 135s-44 134 -116 134c-76 0 -129 -65 -183 -132v-2z" />
    <glyph glyph-name="infinity.ss06" horiz-adv-x="860" 
d="M220 433c77 0 148 -55 209 -142c61 87 133 142 210 142c96 0 165 -74 165 -179c0 -104 -69 -179 -165 -179c-77 0 -151 59 -210 144c-57 -85 -132 -144 -209 -144c-95 0 -165 75 -165 179c0 105 70 179 165 179zM403 254v2c-52 68 -108 132 -183 132
c-72 0 -116 -59 -116 -134s44 -135 116 -135c77 0 139 71 183 135zM456 254c44 -63 107 -135 183 -135c72 0 116 60 116 135s-44 134 -116 134c-76 0 -129 -65 -183 -132v-2z" />
    <glyph glyph-name="less" unicode="&#x3c;" 
d="M534 64l-432 262v46l432 262v-50l-383 -234v-2l383 -234v-50z" />
    <glyph glyph-name="less_hyphen" horiz-adv-x="643" 
d="M600 279v-46h-328c-48 0 -92 0 -153 1c31 -29 93 -94 134 -137l86 -88h-66l-116 123c-40 43 -83 87 -119 124c36 39 79 81 119 124l116 123h66l-86 -88c-41 -41 -103 -106 -134 -137c61 1 105 1 153 1h328z" />
    <glyph glyph-name="less_hyphen.case" horiz-adv-x="647" 
d="M603 392v-46h-328c-48 0 -92 0 -153 1c31 -29 93 -94 134 -137l86 -88h-66l-116 123c-40 43 -83 87 -119 124c36 39 79 81 119 124l116 123h66l-86 -88c-41 -41 -103 -106 -134 -137c61 1 105 1 153 1h328z" />
    <glyph glyph-name="greater" unicode="&#x3e;" 
d="M126 64v50l383 234v2l-383 234v50l432 -262v-46z" />
    <glyph glyph-name="hyphen_greater" horiz-adv-x="643" 
d="M43 279h328c48 0 92 0 153 -1c-31 31 -93 96 -134 137l-86 88h66l116 -123c40 -43 83 -85 119 -124c-36 -37 -79 -81 -119 -124l-116 -123h-66l86 88c41 43 103 108 134 137c-61 -1 -105 -1 -153 -1h-328v46z" />
    <glyph glyph-name="hyphen_greater.case" horiz-adv-x="647" 
d="M44 392h328c48 0 92 0 153 -1c-31 31 -93 96 -134 137l-86 88h66l116 -123c40 -43 83 -85 119 -124c-36 -37 -79 -81 -119 -124l-116 -123h-66l86 88c41 43 103 108 134 137c-61 -1 -105 -1 -153 -1h-328v46z" />
    <glyph glyph-name="lessequal" unicode="&#x2264;" 
d="M544 145l-432 262v46l432 262v-50l-383 -234v-2l383 -234v-50zM544 43v-43h-432v43h432z" />
    <glyph glyph-name="greaterequal" unicode="&#x2265;" 
d="M116 145v54l383 230v2l-383 230v54l432 -262v-46zM116 47h432v-47h-432v47z" />
    <glyph glyph-name="increment" unicode="&#x2206;" horiz-adv-x="671" 
d="M23 0l281 700h70l273 -700h-624zM340 648h-2c-18 -49 -50 -134 -73 -192l-163 -406h465l-155 406c-21 58 -54 142 -72 192z" />
    <glyph glyph-name="summation" unicode="&#x2211;" 
d="M65 -31l314 344l-312 338v49h517v-51h-439l310 -335l-319 -343h459v-51h-530v49z" />
    <glyph glyph-name="product" unicode="&#x220f;" horiz-adv-x="792" 
d="M25 649v51h742v-51h-138v-729h-59v729h-348v-729h-59v729h-138z" />
    <glyph glyph-name="Omega" unicode="&#x2126;" horiz-adv-x="766" 
d="M383 713c222 0 328 -174 328 -346c0 -133 -55 -243 -172 -316v-1c35 1 63 1 80 1h90v-51h-242v48c110 70 185 160 185 316c0 180 -109 300 -269 300s-269 -120 -269 -300c0 -157 76 -246 185 -316v-48h-242v51h90c17 0 45 0 80 -1v1c-117 73 -172 183 -172 316
c0 172 106 346 328 346z" />
    <glyph glyph-name="radical" unicode="&#x221a;" 
d="M25 468v47h167l87 -240c24 -68 58 -156 79 -223h2c23 68 54 154 79 226l153 422h58l-262 -700h-61l-178 468h-124z" />
    <glyph glyph-name="lozenge" unicode="&#x25ca;" 
d="M354 700l208 -351l-208 -349h-48l-207 349l207 351h48zM330 46l178 303l-178 304l-177 -304z" />
    <glyph glyph-name="integral" unicode="&#x222b;" 
d="M90 -171l8 49c16 -3 30 -5 46 -5c66 0 88 38 108 147l95 496c21 104 40 197 168 197c19 0 36 -1 56 -4l-8 -47c-14 2 -29 3 -45 3c-87 -2 -98 -58 -116 -155l-89 -475c-24 -123 -39 -210 -175 -210c-13 0 -33 1 -48 4z" />
    <glyph glyph-name="mu" unicode="&#xb5;" horiz-adv-x="574" 
d="M437 515h55v-515h-54v91h-2c-25 -61 -89 -105 -169 -105c-60 0 -101 13 -130 36l1 -87c0 -11 -1 -28 -2 -50c-1 -23 -4 -42 -9 -57h-58c13 43 14 101 14 166v521h55v-322c0 -92 28 -161 134 -161c104 0 165 79 165 182v301z" />
    <glyph glyph-name="partialdiff" unicode="&#x2202;" 
d="M203 526c11 132 82 190 170 190c128 0 166 -124 166 -269c0 -91 -16 -178 -43 -249c-23 -61 -55 -112 -98 -152c-43 -39 -94 -59 -154 -59c-97 0 -149 71 -149 160c0 113 71 274 387 285v22c0 93 -14 221 -110 221c-52 0 -109 -35 -117 -162zM260 28
c119 0 215 189 220 363c-200 -8 -325 -94 -325 -241c0 -73 40 -122 105 -122z" />
    <glyph glyph-name="asciicircum" unicode="^" horiz-adv-x="537" 
d="M84 370h-51l212 331h47l212 -331h-51l-183 289h-3z" />
    <glyph glyph-name="asciitilde" unicode="~" 
d="M364 372l-56 12c-24 5 -50 11 -67 11c-24 0 -43 -7 -52 -35h-44c10 52 42 78 96 78c19 0 39 -4 62 -9l56 -12c24 -5 50 -11 67 -11c24 0 43 7 52 35h44c-10 -52 -42 -78 -96 -78c-19 0 -39 4 -62 9z" />
    <glyph glyph-name="pi" unicode="&#x3c0;" horiz-adv-x="585" 
d="M165 0h-55v466h-104v49h551v-49h-105v-358c0 -47 15 -68 67 -68c16 0 27 1 38 2v-47c-13 -1 -27 -2 -51 -2c-81 0 -109 27 -109 114v359h-232v-466z" />
    <glyph glyph-name="fraction" unicode="&#x2044;" horiz-adv-x="160" 
d="M248 700h44l-379 -700h-47z" />
    <glyph glyph-name="percent" unicode="%" horiz-adv-x="848" 
d="M193 712c111 0 156 -95 156 -216c0 -120 -45 -214 -156 -214c-110 0 -156 94 -156 214c0 121 46 216 156 216zM193 672c-88 0 -111 -92 -111 -176c0 -83 23 -174 111 -174s111 91 111 174c0 84 -23 176 -111 176zM655 419c111 0 156 -95 156 -216
c0 -120 -45 -214 -156 -214c-110 0 -156 94 -156 214c0 121 46 216 156 216zM655 379c-88 0 -111 -92 -111 -176c0 -83 23 -174 111 -174s111 91 111 174c0 84 -23 176 -111 176zM594 700h44l-379 -700h-47z" />
    <glyph glyph-name="perthousand" unicode="&#x2030;" horiz-adv-x="1243" 
d="M1039 419c111 0 156 -95 156 -216c0 -120 -45 -214 -156 -214c-110 0 -156 94 -156 214c0 121 46 216 156 216zM1039 379c-88 0 -111 -92 -111 -176c0 -83 23 -174 111 -174s111 91 111 174c0 84 -23 176 -111 176zM193 712c111 0 156 -95 156 -216
c0 -120 -45 -214 -156 -214c-110 0 -156 94 -156 214c0 121 46 216 156 216zM193 672c-88 0 -111 -92 -111 -176c0 -83 23 -174 111 -174s111 91 111 174c0 84 -23 176 -111 176zM655 419c111 0 156 -95 156 -216c0 -120 -45 -214 -156 -214c-110 0 -156 94 -156 214
c0 121 46 216 156 216zM655 379c-88 0 -111 -92 -111 -176c0 -83 23 -174 111 -174s111 91 111 174c0 84 -23 176 -111 176zM594 700h44l-379 -700h-47z" />
    <glyph glyph-name="onehalf" unicode="&#xbd;" horiz-adv-x="782" 
d="M28 581v32c100 0 129 16 133 87h32v-420h-43v301h-122zM735 41v-41h-309c4 86 72 130 141 169l21 13c26 15 49 31 68 48s29 41 29 72c0 52 -41 83 -98 83c-76 0 -103 -50 -103 -113h-45c0 82 48 153 148 153c87 0 143 -45 143 -122c0 -71 -53 -114 -113 -149l-31 -18
c-37 -21 -83 -46 -106 -95h255zM509 700h44l-379 -700h-47z" />
    <glyph glyph-name="onequarter" unicode="&#xbc;" horiz-adv-x="725" 
d="M582 0v96h-213v39l212 285h44v-284h67v-40h-67v-96h-43zM415 136h167v98c0 73 1 108 1 131c-24 -33 -43 -62 -79 -109zM28 581v32c100 0 129 16 133 87h32v-420h-43v301h-122zM509 700h44l-379 -700h-47z" />
    <glyph glyph-name="threequarters" unicode="&#xbe;" horiz-adv-x="809" 
d="M267 514v-3c51 -15 83 -46 83 -101c0 -83 -72 -128 -157 -128c-89 0 -156 49 -156 134v9h45c0 -61 42 -103 111 -103c60 0 112 29 112 85c0 55 -35 82 -105 82h-42v37h42c51 0 87 26 87 74c0 51 -42 72 -94 72c-65 0 -101 -41 -101 -102h-44c0 79 50 142 145 142
c73 0 139 -33 139 -109c0 -43 -26 -74 -65 -89zM669 0v96h-213v39l212 285h44v-284h67v-40h-67v-96h-43zM502 136h167v98c0 73 1 108 1 131c-24 -33 -43 -62 -79 -109zM596 700h44l-379 -700h-47z" />
    <glyph glyph-name="fiveeighths" unicode="&#x215d;" horiz-adv-x="861" 
d="M32 406h45c3 -55 47 -91 106 -91c72 0 115 44 115 104c0 63 -48 103 -111 103c-43 0 -83 -15 -102 -43h-41l43 221h236v-41h-200l-25 -127c16 16 53 31 96 31c92 0 149 -60 149 -143c0 -85 -69 -145 -160 -145c-85 0 -148 50 -151 131zM825 115c0 -84 -66 -125 -155 -125
s-155 41 -155 125c0 49 33 91 82 104v2c-41 17 -66 46 -66 91c0 71 63 108 139 108s139 -37 139 -108c0 -45 -23 -74 -66 -91v-2c51 -13 82 -55 82 -104zM575 314c0 -53 48 -78 95 -78s95 25 95 78c0 47 -44 69 -95 69c-49 0 -95 -22 -95 -69zM559 118c0 -60 50 -91 111 -91
c60 0 111 31 111 91c0 59 -52 83 -111 83c-60 0 -111 -24 -111 -83zM592 700h44l-379 -700h-47z" />
    <glyph glyph-name="oneeighth" unicode="&#x215b;" horiz-adv-x="784" 
d="M28 581v32c100 0 129 16 133 87h32v-420h-43v301h-122zM743 115c0 -84 -66 -125 -155 -125s-155 41 -155 125c0 49 33 91 82 104v2c-41 17 -66 46 -66 91c0 71 63 108 139 108s139 -37 139 -108c0 -45 -23 -74 -66 -91v-2c51 -13 82 -55 82 -104zM493 314
c0 -53 48 -78 95 -78s95 25 95 78c0 47 -44 69 -95 69c-49 0 -95 -22 -95 -69zM477 118c0 -60 50 -91 111 -91c60 0 111 31 111 91c0 59 -52 83 -111 83c-60 0 -111 -24 -111 -83zM510 700h44l-379 -700h-47z" />
    <glyph glyph-name="onethird" unicode="&#x2153;" horiz-adv-x="779" 
d="M656 221v-3c51 -15 83 -46 83 -101c0 -83 -72 -128 -157 -128c-89 0 -156 49 -156 134v9h45c0 -61 42 -103 111 -103c60 0 112 29 112 85c0 55 -35 82 -105 82h-42v37h42c51 0 87 26 87 74c0 51 -42 72 -94 72c-65 0 -101 -41 -101 -102h-44c0 79 50 142 145 142
c73 0 139 -33 139 -109c0 -43 -26 -74 -65 -89zM28 581v32c100 0 129 16 133 87h32v-420h-43v301h-122zM509 700h44l-379 -700h-47z" />
    <glyph glyph-name="threeeighths" unicode="&#x215c;" horiz-adv-x="861" 
d="M264 514v-3c51 -15 83 -46 83 -101c0 -83 -72 -128 -157 -128c-89 0 -156 49 -156 134v9h45c0 -61 42 -103 111 -103c60 0 112 29 112 85c0 55 -35 82 -105 82h-42v37h42c51 0 87 26 87 74c0 51 -42 72 -94 72c-65 0 -101 -41 -101 -102h-44c0 79 50 142 145 142
c73 0 139 -33 139 -109c0 -43 -26 -74 -65 -89zM826 115c0 -84 -66 -125 -155 -125s-155 41 -155 125c0 49 33 91 82 104v2c-41 17 -66 46 -66 91c0 71 63 108 139 108s139 -37 139 -108c0 -45 -23 -74 -66 -91v-2c51 -13 82 -55 82 -104zM576 314c0 -53 48 -78 95 -78
s95 25 95 78c0 47 -44 69 -95 69c-49 0 -95 -22 -95 -69zM560 118c0 -60 50 -91 111 -91c60 0 111 31 111 91c0 59 -52 83 -111 83c-60 0 -111 -24 -111 -83zM593 700h44l-379 -700h-47z" />
    <glyph glyph-name="seveneighths" unicode="&#x215e;" horiz-adv-x="778" 
d="M29 659v41h300v-35c-58 -56 -179 -188 -187 -385h-48c13 141 65 256 182 379h-247zM737 115c0 -84 -66 -125 -155 -125s-155 41 -155 125c0 49 33 91 82 104v2c-41 17 -66 46 -66 91c0 71 63 108 139 108s139 -37 139 -108c0 -45 -23 -74 -66 -91v-2
c51 -13 82 -55 82 -104zM487 314c0 -53 48 -78 95 -78s95 25 95 78c0 47 -44 69 -95 69c-49 0 -95 -22 -95 -69zM471 118c0 -60 50 -91 111 -91c60 0 111 31 111 91c0 59 -52 83 -111 83c-60 0 -111 -24 -111 -83zM504 700h44l-379 -700h-47z" />
    <glyph glyph-name="twothirds" unicode="&#x2154;" horiz-adv-x="869" 
d="M345 326v-41h-309c4 86 72 130 141 169l21 13c26 15 49 31 68 48s29 41 29 72c0 52 -41 83 -98 83c-76 0 -103 -50 -103 -113h-45c0 82 48 153 148 153c87 0 143 -45 143 -122c0 -71 -53 -114 -113 -149l-31 -18c-37 -21 -83 -46 -106 -95h255zM752 221v-3
c51 -15 83 -46 83 -101c0 -83 -72 -128 -157 -128c-89 0 -156 49 -156 134v9h45c0 -61 42 -103 111 -103c60 0 112 29 112 85c0 55 -35 82 -105 82h-42v37h42c51 0 87 26 87 74c0 51 -42 72 -94 72c-65 0 -101 -41 -101 -102h-44c0 79 50 142 145 142c73 0 139 -33 139 -109
c0 -43 -26 -74 -65 -89zM605 700h44l-379 -700h-47z" />
    <glyph glyph-name="arrowleft" unicode="&#x2190;" horiz-adv-x="643" 
d="M600 279v-46h-328c-48 0 -92 0 -153 1c31 -29 93 -94 134 -137l86 -88h-66l-116 123c-40 43 -83 87 -119 124c36 39 79 81 119 124l116 123h66l-86 -88c-41 -41 -103 -106 -134 -137c61 1 105 1 153 1h328z" />
    <glyph glyph-name="uni2196" unicode="&#x2196;" horiz-adv-x="612" 
d="M502 65l-231 231c-33 35 -65 66 -108 110v-21c0 -47 -2 -116 -2 -167v-126l-48 46l5 169c3 59 3 119 3 172c53 0 113 2 172 3l169 5l49 -48h-126c-51 0 -122 -2 -169 -2h-22c44 -41 77 -73 110 -108l231 -231z" />
    <glyph glyph-name="arrowup" unicode="&#x2191;" horiz-adv-x="576" 
d="M265 -13v327c0 48 0 93 1 154c-29 -31 -94 -94 -137 -135l-88 -85v66l123 116c43 40 87 82 124 119c39 -37 81 -79 124 -119l123 -116v-66l-88 85l-137 135c1 -61 1 -106 1 -154v-327h-46z" />
    <glyph glyph-name="uni2197" unicode="&#x2197;" horiz-adv-x="612" 
d="M110 65l-33 33l231 231c35 35 66 67 110 108h-22c-47 0 -118 2 -169 2h-126l49 48l169 -5c59 -1 119 -3 172 -3c0 -53 2 -113 3 -172l5 -169l-48 -46v126c0 51 -2 120 -2 167v21c-41 -44 -73 -75 -108 -110z" />
    <glyph glyph-name="arrowright" unicode="&#x2192;" horiz-adv-x="643" 
d="M43 279h328c48 0 92 0 153 -1c-31 31 -93 96 -134 137l-86 88h66l116 -123c40 -43 83 -85 119 -124c-36 -37 -79 -81 -119 -124l-116 -123h-66l86 88c41 43 103 108 134 137c-61 -1 -105 -1 -153 -1h-328v46z" />
    <glyph glyph-name="uni2198" unicode="&#x2198;" horiz-adv-x="612" 
d="M109 477l231 -231c35 -33 67 -66 108 -110v21c0 47 2 116 2 167v126l48 -46l-5 -169c-1 -59 -3 -119 -3 -172c-53 0 -113 0 -172 -3l-169 -5l-49 48h126c51 0 122 2 169 2h22c-44 43 -75 75 -110 108l-231 231z" />
    <glyph glyph-name="arrowdown" unicode="&#x2193;" horiz-adv-x="576" 
d="M265 537h46v-327c0 -48 0 -93 -1 -154c31 33 96 94 137 135l88 85v-66l-123 -116c-43 -40 -85 -82 -124 -119c-37 37 -81 79 -124 119l-123 116v66l88 -85c43 -41 108 -102 137 -135c-1 61 -1 106 -1 154v327z" />
    <glyph glyph-name="uni2199" unicode="&#x2199;" horiz-adv-x="612" 
d="M503 477l33 -33l-231 -231l-110 -108h22c47 0 118 -2 169 -2h126l-49 -48l-169 5c-59 3 -119 3 -172 3c0 53 0 113 -3 172l-5 169l48 46v-126c0 -51 2 -120 2 -167v-21l108 110z" />
    <glyph glyph-name="arrowleft.case" horiz-adv-x="647" 
d="M603 392v-46h-328c-48 0 -92 0 -153 1c31 -29 93 -94 134 -137l86 -88h-66l-116 123c-40 43 -83 87 -119 124c36 39 79 81 119 124l116 123h66l-86 -88c-41 -41 -103 -106 -134 -137c61 1 105 1 153 1h328z" />
    <glyph glyph-name="uni2196.case" horiz-adv-x="554" 
d="M471 178l-231 231c-33 35 -65 66 -108 110v-21c0 -47 -2 -116 -2 -167v-126l-48 46l5 169c3 59 3 119 3 172c53 0 113 2 172 3l169 5l49 -48h-126c-51 0 -122 -2 -169 -2h-22c44 -41 77 -73 110 -108l231 -231z" />
    <glyph glyph-name="arrowup.case" horiz-adv-x="582" 
d="M268 100v327c0 48 0 93 1 154c-29 -31 -94 -94 -137 -135l-88 -85v66l123 116c43 40 87 82 124 119c39 -37 81 -79 124 -119l123 -116v-66l-88 85l-137 135c1 -61 1 -106 1 -154v-327h-46z" />
    <glyph glyph-name="uni2197.case" horiz-adv-x="554" 
d="M83 178l-33 33l231 231c35 35 66 67 110 108h-22c-47 0 -118 2 -169 2h-126l49 48l169 -5c59 -1 119 -3 172 -3c0 -53 2 -113 3 -172l5 -169l-48 -46v126c0 51 -2 120 -2 167v21c-41 -44 -73 -75 -108 -110z" />
    <glyph glyph-name="arrowright.case" horiz-adv-x="647" 
d="M44 392h328c48 0 92 0 153 -1c-31 31 -93 96 -134 137l-86 88h66l116 -123c40 -43 83 -85 119 -124c-36 -37 -79 -81 -119 -124l-116 -123h-66l86 88c41 43 103 108 134 137c-61 -1 -105 -1 -153 -1h-328v46z" />
    <glyph glyph-name="uni2198.case" horiz-adv-x="554" 
d="M83 590l231 -231c35 -33 67 -66 108 -110v21c0 47 2 116 2 167v126l48 -46l-5 -169c-1 -59 -3 -119 -3 -172c-53 0 -113 0 -172 -3l-169 -5l-49 48h126c51 0 122 2 169 2h22c-44 43 -75 75 -110 108l-231 231z" />
    <glyph glyph-name="arrowdown.case" horiz-adv-x="582" 
d="M268 650h46v-327c0 -48 0 -93 -1 -154c31 33 96 94 137 135l88 85v-66l-123 -116c-43 -40 -85 -82 -124 -119c-37 37 -81 79 -124 119l-123 116v66l88 -85c43 -41 108 -102 137 -135c-1 61 -1 106 -1 154v327z" />
    <glyph glyph-name="uni2199.case" horiz-adv-x="554" 
d="M471 590l33 -33l-231 -231l-110 -108h22c47 0 118 -2 169 -2h126l-49 -48l-169 5c-59 3 -119 3 -172 3c0 53 0 113 -3 172l-5 169l48 46v-126c0 -51 2 -120 2 -167v-21l108 110z" />
    <glyph glyph-name="uni1E9E" unicode="&#x1e9e;" horiz-adv-x="664" 
d="M327 372v45l207 231v2c-41 0 -102 -1 -150 -1h-237v-649h-59v700h514v-49l-207 -231c131 -8 223 -84 223 -211c0 -146 -99 -219 -231 -219c-28 0 -56 3 -85 10l15 50c23 -7 49 -10 70 -10c91 0 170 52 170 168c0 122 -95 165 -201 165c-9 0 -18 0 -29 -1z" />
    <glyph glyph-name="uni03BC" unicode="&#x3bc;" horiz-adv-x="569" 
d="M434 515h55v-515h-54v91h-2c-25 -61 -89 -105 -169 -105c-60 0 -101 13 -130 36l1 -87c0 -11 -1 -28 -2 -50c-1 -23 -4 -42 -9 -57h-58c13 43 14 101 14 166v521h55v-322c0 -92 28 -161 134 -161c104 0 165 79 165 182v301z" />
    <glyph glyph-name="uni03A9" unicode="&#x3a9;" horiz-adv-x="760" 
d="M380 713c222 0 328 -174 328 -346c0 -133 -55 -243 -172 -316v-1c35 1 63 1 80 1h90v-51h-242v48c110 70 185 160 185 316c0 180 -109 300 -269 300s-269 -120 -269 -300c0 -157 76 -246 185 -316v-48h-242v51h90c17 0 45 0 80 -1v1c-117 73 -172 183 -172 316
c0 172 106 346 328 346z" />
    <glyph glyph-name="uni0394" unicode="&#x394;" horiz-adv-x="634" 
d="M4 0l281 700h70l273 -700h-624zM321 648h-2c-18 -49 -50 -134 -73 -192l-163 -406h465l-155 406c-21 58 -54 142 -72 192z" />
    <glyph glyph-name="uni2015" unicode="&#x2015;" horiz-adv-x="1108" 
d="M1054 250h-1000v53h1000v-53z" />
    </font>
</defs>
</svg>
