<?xml version="1.0" standalone="no"?>
<!DOCTYPE svg PUBLIC "-//W3C//DTD SVG 1.1//EN" "http://www.w3.org/Graphics/SVG/1.1/DTD/svg11.dtd" >
<svg xmlns="http://www.w3.org/2000/svg" xmlns:xlink="http://www.w3.org/1999/xlink" version="1.1">
<metadata>
Created by FontForge 20201107 at Wed Dec  9 17:56:06 2020
 By Nikolai Pohorelsky
Copyright \(c\) 2020 by Optimo SARL. All rights reserved.
</metadata>
<defs>
<font id="AntiqueLegacy-MediumItalic" horiz-adv-x="660" >
  <font-face 
    font-family="Antique Legacy Medium"
    font-weight="500"
    font-style="italic"
    font-stretch="normal"
    units-per-em="1000"
    panose-1="2 11 6 4 1 1 1 1 1 4"
    ascent="800"
    descent="-200"
    x-height="515"
    cap-height="700"
    bbox="-117 -248 1288 1040"
    underline-thickness="50"
    underline-position="-125"
    slope="-12"
    stemh="110"
    stemv="135"
    unicode-range="U+000D-FEFF"
  />
<missing-glyph horiz-adv-x="759" 
d="M332 779h49l-44 -44c-71 -19 -127 -75 -147 -147l-54 -54v49zM234 779h49l-147 -147v49zM626 779h49l-104 -104c-8 9 -17 16 -26 23zM528 779h49l-62 -62c-11 6 -23 11 -34 15zM430 779h49l-38 -38c-9 1 -19 2 -28 2c-8 0 -12 0 -20 -1zM185 779l-49 -49v49h49zM680 735
v-49l-70 -70c-5 10 -11 20 -18 31zM680 637v-49l-52 -52c0 15 -3 30 -6 43zM136 387l148 148l39 -2c0 36 27 75 75 75h8l-270 -270v49zM136 289l309 309c11 -6 19 -14 26 -23l-335 -335v49zM136 485l56 56l46 -3l-102 -102v49zM680 539v-49l-216 -216v7c0 42 27 52 70 85
c21 17 75 46 89 116zM136 191l347 347v-15c0 -45 -56 -74 -92 -108c-15 -15 -27 -33 -36 -54l-219 -219v49zM680 441v-49l-224 -224h-49zM680 343v-49l-210 -210v49zM136 93l206 206v-38h11l-217 -217v49zM141 0l261 261h49l-93 -93h-23v-23l-145 -145h-49zM435 0l33 33h2v2
l210 210v-49l-196 -196h-49zM533 0l147 147v-49l-98 -98h-49zM239 0l96 96v-49l-47 -47h-49zM680 0h-49l49 49v-49zM337 0l33 33h49l-33 -33h-49z" />
    <glyph glyph-name="f_f" unicode="ff" horiz-adv-x="621" 
d="M327 0l90 423h-153l-90 -423h-131l90 423h-70l20 92h69l10 47c28 128 76 138 204 138h54l-21 -98h-32c-32 0 -47 -5 -58 -16c-15 -13 -18 -32 -23 -56l-3 -15h153l10 47c28 128 76 138 204 138h54l-21 -98h-32c-32 0 -47 -5 -58 -16c-15 -13 -18 -32 -23 -56l-3 -15h96
l-20 -92h-95l-90 -423h-131z" />
    <glyph glyph-name="f_i" unicode="fi" horiz-adv-x="580" 
d="M83 515h69l10 47c28 128 76 138 204 138h54l-21 -98h-32c-32 0 -47 -5 -58 -16c-15 -13 -18 -32 -23 -56l-3 -15h96l-20 -92h-95l-90 -423h-131l90 423h-70zM451 585l25 115h133l-25 -115h-133zM328 0l109 515h133l-110 -515h-132z" />
    <glyph glyph-name="f_l" unicode="fl" horiz-adv-x="580" 
d="M83 515h69l10 47c28 128 76 138 204 138h54l-21 -98h-32c-32 0 -47 -5 -58 -16c-15 -13 -18 -32 -23 -56l-3 -15h96l-20 -92h-95l-90 -423h-131l90 423h-70zM328 0l148 700h133l-149 -700h-132z" />
    <glyph glyph-name="f_f_i" unicode="ffi" horiz-adv-x="864" 
d="M327 0l90 423h-153l-90 -423h-131l90 423h-70l20 92h69l10 47c28 128 76 138 204 138h54l-21 -98h-32c-32 0 -47 -5 -58 -16c-15 -13 -18 -32 -23 -56l-3 -15h153l10 47c28 128 76 138 204 138h54l-21 -98h-32c-32 0 -47 -5 -58 -16c-15 -13 -18 -32 -23 -56l-3 -15h96
l-20 -92h-95l-90 -423h-131zM735 585l25 115h133l-25 -115h-133zM612 0l109 515h133l-110 -515h-132z" />
    <glyph glyph-name="f_f_l" unicode="ffl" horiz-adv-x="864" 
d="M327 0l90 423h-153l-90 -423h-131l90 423h-70l20 92h69l10 47c28 128 76 138 204 138h54l-21 -98h-32c-32 0 -47 -5 -58 -16c-15 -13 -18 -32 -23 -56l-3 -15h153l10 47c28 128 76 138 204 138h54l-21 -98h-32c-32 0 -47 -5 -58 -16c-15 -13 -18 -32 -23 -56l-3 -15h96
l-20 -92h-95l-90 -423h-131zM612 0l148 700h133l-149 -700h-132z" />
    <glyph glyph-name=".notdef" horiz-adv-x="759" 
d="M332 779h49l-44 -44c-71 -19 -127 -75 -147 -147l-54 -54v49zM234 779h49l-147 -147v49zM626 779h49l-104 -104c-8 9 -17 16 -26 23zM528 779h49l-62 -62c-11 6 -23 11 -34 15zM430 779h49l-38 -38c-9 1 -19 2 -28 2c-8 0 -12 0 -20 -1zM185 779l-49 -49v49h49zM680 735
v-49l-70 -70c-5 10 -11 20 -18 31zM680 637v-49l-52 -52c0 15 -3 30 -6 43zM136 387l148 148l39 -2c0 36 27 75 75 75h8l-270 -270v49zM136 289l309 309c11 -6 19 -14 26 -23l-335 -335v49zM136 485l56 56l46 -3l-102 -102v49zM680 539v-49l-216 -216v7c0 42 27 52 70 85
c21 17 75 46 89 116zM136 191l347 347v-15c0 -45 -56 -74 -92 -108c-15 -15 -27 -33 -36 -54l-219 -219v49zM680 441v-49l-224 -224h-49zM680 343v-49l-210 -210v49zM136 93l206 206v-38h11l-217 -217v49zM141 0l261 261h49l-93 -93h-23v-23l-145 -145h-49zM435 0l33 33h2v2
l210 210v-49l-196 -196h-49zM533 0l147 147v-49l-98 -98h-49zM239 0l96 96v-49l-47 -47h-49zM680 0h-49l49 49v-49zM337 0l33 33h49l-33 -33h-49z" />
    <glyph glyph-name="uni2003" unicode="&#x2003;" horiz-adv-x="1000" 
 />
    <glyph glyph-name="uni2002" unicode="&#x2002;" horiz-adv-x="500" 
 />
    <glyph glyph-name="uni2005" unicode="&#x2005;" horiz-adv-x="250" 
 />
    <glyph glyph-name="uni200A" unicode="&#x200a;" horiz-adv-x="42" 
 />
    <glyph glyph-name="uni2009" unicode="&#x2009;" horiz-adv-x="125" 
 />
    <glyph glyph-name="uni2004" unicode="&#x2004;" horiz-adv-x="333" 
 />
    <glyph glyph-name="uni200B" unicode="&#x200b;" horiz-adv-x="0" 
 />
    <glyph glyph-name="uni2007" unicode="&#x2007;" horiz-adv-x="635" 
 />
    <glyph glyph-name="uni2008" unicode="&#x2008;" horiz-adv-x="261" 
 />
    <glyph glyph-name="CR" unicode="&#xd;" horiz-adv-x="225" 
 />
    <glyph glyph-name="space" unicode=" " horiz-adv-x="225" 
 />
    <glyph glyph-name="uni00A0" unicode="&#xa0;" horiz-adv-x="225" 
 />
    <glyph glyph-name="space.frac" horiz-adv-x="53" 
 />
    <glyph glyph-name="uni2000" unicode="&#x2000;" horiz-adv-x="500" 
 />
    <glyph glyph-name="uni2001" unicode="&#x2001;" horiz-adv-x="1000" 
 />
    <glyph glyph-name="NULL" horiz-adv-x="0" 
 />
    <glyph glyph-name="NULL" horiz-adv-x="0" 
 />
    <glyph glyph-name="uni2007.osf" horiz-adv-x="632" 
 />
    <glyph glyph-name="uni2007.tf" 
 />
    <glyph glyph-name="uni2007.tosf" 
 />
    <glyph glyph-name="uniFEFF" unicode="&#xfeff;" horiz-adv-x="0" 
 />
    <glyph glyph-name="uni2006" unicode="&#x2006;" horiz-adv-x="167" 
 />
    <glyph glyph-name="A" unicode="A" horiz-adv-x="645" 
d="M-52 0l400 700h141l97 -700h-134l-19 160h-252l-88 -160h-145zM319 415l-77 -145h178l-16 145c-7 64 -10 118 -11 146h-2c-13 -28 -37 -82 -72 -146z" />
    <glyph glyph-name="B" unicode="B" horiz-adv-x="675" 
d="M20 0l148 700h263c37 0 71 -2 100 -7c73 -14 133 -50 133 -146c0 -95 -54 -153 -139 -173v-2c67 -17 104 -77 104 -145c0 -73 -31 -130 -80 -169s-115 -58 -197 -58h-332zM283 593l-37 -173h162c65 0 112 34 112 99c0 53 -32 74 -87 74h-150zM225 319l-45 -210h177
c77 0 132 40 132 120c0 82 -72 90 -133 90h-131z" />
    <glyph glyph-name="C" unicode="C" horiz-adv-x="702" 
d="M537 221h138c-62 -174 -176 -234 -318 -234c-174 0 -299 112 -299 305c0 214 133 421 372 421c163 0 271 -82 283 -241h-135c-4 43 -21 76 -51 98c-30 23 -64 34 -103 34c-156 0 -224 -168 -224 -317c0 -121 62 -189 167 -189c83 0 145 55 170 123z" />
    <glyph glyph-name="D" unicode="D" horiz-adv-x="726" 
d="M21 0l147 700h246c89 0 152 -19 200 -55c64 -47 96 -122 96 -218c0 -129 -39 -244 -116 -321c-65 -65 -155 -106 -290 -106h-283zM283 590l-102 -479h122c83 0 136 27 180 70c56 55 85 136 85 225c0 67 -17 120 -57 152c-27 21 -64 32 -112 32h-116z" />
    <glyph glyph-name="E" unicode="E" horiz-adv-x="637" 
d="M582 424l-23 -111h-335l-43 -202h386l-24 -111h-523l148 700h518l-23 -110h-380l-36 -166h335z" />
    <glyph glyph-name="F" unicode="F" horiz-adv-x="602" 
d="M157 0h-137l148 700h499l-23 -110h-361l-36 -166h316l-23 -111h-316z" />
    <glyph glyph-name="G" unicode="G" horiz-adv-x="755" 
d="M555 63h-2c-49 -53 -126 -76 -207 -76c-150 0 -288 94 -288 309c0 221 146 417 381 417c161 0 282 -81 292 -241h-135c-19 87 -69 131 -161 131c-168 0 -235 -161 -235 -311c0 -135 72 -195 180 -195c113 0 175 67 200 166h-168l24 109h285l-79 -372h-97z" />
    <glyph glyph-name="H" unicode="H" horiz-adv-x="722" 
d="M744 700l-149 -700h-140l67 313h-296l-67 -313h-139l148 700h140l-59 -275h296l59 275h140z" />
    <glyph glyph-name="I" unicode="I" horiz-adv-x="286" 
d="M308 700l-149 -700h-139l148 700h140z" />
    <glyph glyph-name="J" unicode="J" horiz-adv-x="540" 
d="M566 700l-104 -487c-15 -69 -36 -128 -75 -168c-37 -39 -95 -60 -174 -60c-135 0 -207 54 -207 165c0 21 3 46 8 74l4 21h126l-3 -17c-3 -19 -6 -40 -6 -55c0 -49 22 -78 81 -78c84 0 97 64 107 115l103 490h140z" />
    <glyph glyph-name="K" unicode="K" horiz-adv-x="666" 
d="M20 0l148 700h140l-66 -296l332 296h179l-332 -295l202 -405h-160l-154 316l-103 -91l-47 -225h-139z" />
    <glyph glyph-name="L" unicode="L" horiz-adv-x="572" 
d="M306 700l-125 -589h346l-24 -111h-483l148 700h138z" />
    <glyph glyph-name="M" unicode="M" horiz-adv-x="849" 
d="M436 0h-128l-32 362c-8 85 -9 170 -9 229h-3c-8 -54 -24 -178 -41 -255l-72 -336h-131l148 700h197l26 -301c7 -77 14 -162 15 -238h2c31 73 68 165 105 238l149 301h209l-149 -700h-132l72 344c15 69 50 209 60 247h-3c-16 -37 -57 -144 -106 -238z" />
    <glyph glyph-name="N" unicode="N" horiz-adv-x="723" 
d="M311 700l130 -330c23 -54 54 -140 63 -176h2c7 49 20 119 37 204l64 302h138l-149 -700h-146l-138 348c-15 42 -44 124 -54 156h-2c-5 -39 -17 -118 -32 -189l-67 -315h-137l148 700h143z" />
    <glyph glyph-name="O" unicode="O" horiz-adv-x="747" 
d="M361 -14c-179 0 -302 116 -302 306c0 230 138 421 370 421c180 0 300 -119 300 -306c0 -228 -138 -421 -368 -421zM588 417c0 127 -65 189 -164 189c-152 0 -223 -169 -223 -320c0 -125 67 -189 164 -189c152 0 223 169 223 320z" />
    <glyph glyph-name="P" unicode="P" horiz-adv-x="640" 
d="M158 0h-139l149 700h258c137 0 238 -49 238 -199c0 -73 -28 -133 -75 -174c-49 -44 -113 -68 -194 -68h-182zM283 590l-47 -221h161c83 0 133 40 133 128c0 74 -56 93 -114 93h-133z" />
    <glyph glyph-name="Q" unicode="Q" horiz-adv-x="750" 
d="M361 -14c-179 0 -302 116 -302 306c0 230 141 421 373 421c177 0 297 -119 297 -306c0 -127 -42 -241 -119 -320l59 -66l-74 -64l-63 71c-49 -25 -108 -42 -171 -42zM390 189l74 65l62 -71c43 60 62 141 62 234c0 127 -65 189 -164 189c-152 0 -223 -169 -223 -320
c0 -125 67 -189 164 -189c37 0 65 7 88 20z" />
    <glyph glyph-name="R" unicode="R" horiz-adv-x="665" 
d="M21 0l147 700h296c70 0 123 -14 158 -41s52 -68 52 -123c0 -131 -85 -189 -177 -205v-2c59 -13 88 -49 88 -113c0 -37 -12 -91 -16 -135c-3 -31 -3 -57 5 -78l-1 -3h-141c-2 24 -2 6 -2 30c0 30 16 109 16 164c0 35 -10 58 -31 67c-21 10 -49 15 -84 15h-114l-59 -276
h-137zM283 590l-44 -209h153c91 0 143 39 143 119c0 78 -54 90 -116 90h-136z" />
    <glyph glyph-name="S" unicode="S" horiz-adv-x="634" 
d="M23 216h145c3 -84 67 -119 148 -119c83 0 133 34 133 99c0 53 -48 70 -93 84l-79 26c-88 30 -178 69 -178 191c0 156 132 216 272 216c139 0 258 -60 258 -214h-140c0 73 -54 105 -125 105c-77 0 -121 -31 -121 -86c0 -48 31 -70 95 -91l62 -21c108 -34 194 -69 194 -190
c0 -128 -96 -229 -286 -229c-175 0 -278 72 -285 229z" />
    <glyph glyph-name="T" unicode="T" horiz-adv-x="592" 
d="M649 590h-210l-126 -590h-140l126 590h-214l23 110h564z" />
    <glyph glyph-name="U" unicode="U" horiz-adv-x="687" 
d="M714 700l-93 -439c-19 -91 -45 -152 -89 -199c-48 -49 -118 -75 -223 -75c-185 0 -249 79 -249 194c0 27 5 56 10 87l91 432h140l-93 -435c-5 -28 -9 -48 -9 -71c0 -57 26 -97 118 -97c118 0 143 60 163 158l94 445h140z" />
    <glyph glyph-name="V" unicode="V" horiz-adv-x="625" 
d="M186 0l-85 700h140l37 -394c4 -43 11 -118 11 -146h2c13 28 47 102 71 147l204 393h150l-388 -700h-142z" />
    <glyph glyph-name="W" unicode="W" horiz-adv-x="920" 
d="M515 0l-4 352c0 36 2 123 4 166h-3c-17 -45 -38 -111 -62 -167l-150 -351h-147l-53 700h142l19 -366c2 -32 4 -110 2 -154h3c15 38 42 119 56 154l151 366h152l4 -365c1 -77 1 -115 -2 -155h3c19 45 36 101 60 154l165 366h150l-343 -700h-147z" />
    <glyph glyph-name="X" unicode="X" horiz-adv-x="609" 
d="M-57 0l312 367l-144 333h146l94 -230l181 230h158l-283 -344l151 -356h-150l-98 250l-200 -250h-167z" />
    <glyph glyph-name="Y" unicode="Y" horiz-adv-x="610" 
d="M704 700l-328 -434l-57 -266h-140l57 266l-133 434h141l86 -306l218 306h156z" />
    <glyph glyph-name="Z" unicode="Z" horiz-adv-x="637" 
d="M552 0h-574l23 106l370 364l122 119v1c-53 -1 -114 -1 -153 -1h-225l24 111h548l-24 -112l-378 -372c-48 -47 -74 -71 -109 -104v-1c52 1 120 1 168 1h232z" />
    <glyph glyph-name="a" unicode="a" horiz-adv-x="562" 
d="M199 359l-121 2c24 119 114 169 242 169c129 0 202 -52 202 -151c0 -29 -3 -50 -10 -83l-45 -221c-3 -17 -5 -30 -5 -42s1 -22 5 -30l-1 -3h-123l6 44h-1c-13 -13 -31 -26 -54 -39s-56 -19 -101 -19c-108 0 -177 62 -177 147c0 79 47 124 116 149c53 20 118 31 186 40
l23 3c39 5 52 19 52 50c0 36 -30 60 -87 60c-53 0 -92 -23 -107 -76zM234 85c43 0 93 19 117 64c5 9 8 19 13 44l14 64c-12 -8 -36 -16 -73 -24l-39 -9c-43 -9 -72 -17 -91 -32c-14 -11 -21 -26 -21 -47c0 -39 31 -60 80 -60z" />
    <glyph glyph-name="b" unicode="b" horiz-adv-x="613" 
d="M293 700l-32 -151c-5 -28 -11 -51 -20 -88h1c31 39 79 70 150 70c106 0 190 -80 190 -219c0 -188 -122 -325 -282 -325c-76 0 -127 30 -146 57h-1l-9 -44h-132l148 700h133zM293 90c100 0 155 101 155 214c0 76 -34 123 -101 123c-115 0 -158 -122 -158 -221
c0 -69 47 -116 104 -116z" />
    <glyph glyph-name="c" unicode="c" horiz-adv-x="559" 
d="M524 174c-34 -108 -128 -188 -258 -188c-136 0 -232 83 -232 234c0 168 104 310 284 310c127 0 214 -69 223 -188h-128c-11 57 -44 85 -100 85c-100 0 -144 -112 -144 -212c0 -84 40 -125 105 -125c57 0 94 35 117 84h133z" />
    <glyph glyph-name="d" unicode="d" horiz-adv-x="613" 
d="M493 0h-127l12 58h-1c-28 -36 -82 -71 -154 -71c-113 0 -191 90 -191 220c0 186 129 324 278 324c79 0 131 -32 151 -60l48 229h133zM321 428c-100 0 -154 -101 -154 -214c0 -76 35 -123 100 -123c115 0 158 121 158 218c0 71 -47 119 -104 119z" />
    <glyph glyph-name="e" unicode="e" horiz-adv-x="585" 
d="M548 222h-384v-7c0 -81 49 -123 114 -123c51 0 87 23 111 58h141c-41 -95 -133 -163 -258 -163c-140 0 -239 88 -239 233c0 174 116 311 286 311c162 0 233 -107 233 -251c0 -19 -1 -39 -4 -58zM312 433c-72 0 -120 -48 -135 -119h245c-1 80 -46 119 -110 119z" />
    <glyph glyph-name="f" unicode="f" horiz-adv-x="337" 
d="M83 515h69l10 47c28 128 76 138 204 138h54l-21 -98h-32c-32 0 -47 -5 -58 -16c-15 -13 -18 -32 -23 -56l-3 -15h96l-20 -92h-95l-90 -423h-131l90 423h-70z" />
    <glyph glyph-name="g" unicode="g" horiz-adv-x="608" 
d="M369 58c4 21 8 33 11 42h-3c-25 -32 -70 -63 -145 -63c-100 0 -192 67 -192 209c0 164 116 285 264 285c79 0 128 -35 148 -59h2l10 43h132l-102 -488c-29 -143 -118 -209 -270 -209c-139 0 -222 58 -222 163h136c2 -42 34 -63 97 -63c76 0 116 44 132 129zM320 427
c-94 0 -148 -80 -148 -176c0 -75 38 -111 102 -111c94 0 149 81 149 176c0 75 -39 111 -103 111z" />
    <glyph glyph-name="h" unicode="h" horiz-adv-x="595" 
d="M161 700h133l-32 -148l-20 -90h1c28 37 80 69 151 69c104 0 160 -60 160 -151c0 -25 -3 -51 -10 -82l-64 -298h-133l59 276c5 24 9 46 9 67c0 45 -26 78 -81 78c-37 0 -63 -15 -83 -36c-23 -25 -36 -60 -45 -101l-61 -284h-133z" />
    <glyph glyph-name="i" unicode="i" horiz-adv-x="264" 
d="M135 585l25 115h133l-25 -115h-133zM12 0l109 515h133l-110 -515h-132z" />
    <glyph glyph-name="j" unicode="j" horiz-adv-x="264" 
d="M135 585l24 115h133l-24 -115h-133zM121 515h133l-115 -539c-9 -41 -18 -78 -46 -106c-40 -40 -97 -42 -181 -42h-22l21 98h10c33 0 53 2 68 17c11 11 18 30 23 57z" />
    <glyph glyph-name="k" unicode="k" horiz-adv-x="549" 
d="M12 0l148 700h133l-55 -257l-10 -50c-3 -16 -9 -39 -16 -70h1l223 192h165l-242 -198l145 -317h-149l-99 234l-75 -62l-37 -172h-132z" />
    <glyph glyph-name="l" unicode="l" horiz-adv-x="264" 
d="M12 0l148 700h133l-149 -700h-132z" />
    <glyph glyph-name="m" unicode="m" horiz-adv-x="912" 
d="M655 421c-35 0 -59 -15 -79 -36c-23 -25 -36 -61 -45 -102l-60 -283h-133l59 276c5 24 9 46 9 67c0 45 -22 78 -77 78c-35 0 -59 -15 -79 -36c-23 -25 -36 -61 -45 -102l-60 -283h-133l110 515h128l-13 -57h1c28 37 76 73 151 73c72 0 120 -30 141 -78h2
c28 37 88 78 179 78c109 0 160 -60 160 -151c0 -25 -3 -50 -10 -81l-64 -299h-133l59 276c5 24 9 46 9 67c0 45 -22 78 -77 78z" />
    <glyph glyph-name="n" unicode="n" horiz-adv-x="595" 
d="M334 422c-37 0 -63 -16 -83 -37c-23 -25 -36 -60 -45 -101l-61 -284h-133l110 515h128l-13 -57h1c28 37 81 73 156 73c104 0 160 -60 160 -151c0 -25 -3 -51 -10 -82l-64 -298h-133l59 276c5 24 9 46 9 67c0 47 -26 79 -81 79z" />
    <glyph glyph-name="o" unicode="o" horiz-adv-x="591" 
d="M270 -14c-138 0 -237 87 -237 229c0 171 106 315 290 315c144 0 236 -89 236 -228c0 -170 -105 -316 -289 -316zM317 427c-102 0 -149 -112 -149 -212c0 -84 43 -125 108 -125c103 0 149 114 149 213c0 83 -43 124 -108 124z" />
    <glyph glyph-name="p" unicode="p" horiz-adv-x="614" 
d="M-24 -172l146 687h127l-12 -57h1c31 39 83 73 155 73c106 0 190 -78 190 -222c0 -185 -124 -322 -283 -322c-76 0 -127 30 -146 57l-45 -216h-133zM294 91c100 0 155 100 155 210c0 79 -34 126 -101 126c-115 0 -158 -122 -158 -221c0 -69 47 -115 104 -115z" />
    <glyph glyph-name="q" unicode="q" horiz-adv-x="613" 
d="M604 515l-147 -687h-131l30 141c7 29 8 46 20 87h-2c-28 -36 -78 -69 -150 -69c-113 0 -191 90 -191 220c0 187 129 325 278 325c79 0 130 -33 150 -61h2l9 44h132zM322 428c-100 0 -154 -101 -154 -214c0 -76 35 -123 100 -123c115 0 158 121 158 218
c0 71 -47 119 -104 119z" />
    <glyph glyph-name="r" unicode="r" horiz-adv-x="362" 
d="M236 453h2c19 43 68 80 153 80h11l-26 -126c-9 1 -23 2 -32 2c-80 0 -122 -42 -143 -138l-58 -271h-131l109 515h128z" />
    <glyph glyph-name="s" unicode="s" horiz-adv-x="524" 
d="M500 361h-125c0 44 -29 76 -96 76c-57 0 -83 -23 -83 -52c0 -28 20 -41 69 -56l68 -21c77 -24 144 -57 144 -147c0 -125 -120 -174 -241 -174c-109 0 -225 39 -225 170v12h131c-6 -65 51 -88 102 -88c46 0 96 19 96 65c0 35 -30 47 -77 62l-73 24
c-81 27 -126 57 -126 137c0 109 103 161 220 161c115 0 216 -37 216 -169z" />
    <glyph glyph-name="t" unicode="t" horiz-adv-x="351" 
d="M63 423l20 92h67l35 159h131l-34 -159h92l-20 -92h-92l-53 -250c-4 -20 -6 -30 -6 -41c0 -15 5 -24 16 -29c7 -3 21 -5 42 -5h26l-20 -98h-58c-49 0 -80 2 -103 10c-29 10 -44 32 -44 66c0 16 5 42 10 69l59 278h-68z" />
    <glyph glyph-name="u" unicode="u" horiz-adv-x="591" 
d="M261 96c37 0 61 15 81 36c23 25 36 60 45 101l61 282h133l-111 -515h-128l14 59h-1c-28 -37 -79 -72 -154 -72c-104 0 -159 61 -159 150c0 27 5 53 10 82l64 296h133l-59 -274c-5 -24 -9 -46 -9 -67c0 -45 25 -78 80 -78z" />
    <glyph glyph-name="v" unicode="v" horiz-adv-x="503" 
d="M131 0l-72 515h130l28 -266c4 -37 9 -73 10 -104h1c13 29 29 63 48 99l138 271h139l-287 -515h-135z" />
    <glyph glyph-name="w" unicode="w" horiz-adv-x="785" 
d="M62 515h132l11 -259l2 -58c1 -22 2 -39 2 -50h2c8 19 30 68 47 104l122 263h133l11 -263c1 -33 4 -69 5 -102h2c15 31 30 66 47 103l122 262h136l-270 -515h-136l-12 240c-1 40 -3 80 -3 109h-2c-13 -29 -28 -64 -49 -108l-113 -241h-141z" />
    <glyph glyph-name="x" unicode="x" horiz-adv-x="518" 
d="M559 515l-227 -247l139 -268h-141l-83 171l-147 -171h-153l245 274l-128 241h142l72 -150l129 150h152z" />
    <glyph glyph-name="y" unicode="y" horiz-adv-x="505" 
d="M61 515h132l21 -226c5 -52 11 -105 12 -149h2c23 51 49 106 68 142l122 233h139l-327 -572c-56 -99 -104 -116 -203 -116h-72l22 101h33c92 0 115 32 115 92c0 21 -3 45 -7 74z" />
    <glyph glyph-name="z" unicode="z" horiz-adv-x="513" 
d="M-20 0l22 103l258 237l79 71v1c-21 -1 -61 -1 -77 -1h-186l22 104h427l-22 -103l-242 -219c-45 -41 -71 -65 -98 -88v-1c43 1 84 1 128 1h160l-22 -105h-449z" />
    <glyph glyph-name="Agrave" unicode="&#xc0;" horiz-adv-x="645" 
d="M-52 0l400 700h141l97 -700h-134l-19 160h-252l-88 -160h-145zM319 415l-77 -145h178l-16 145c-7 64 -10 118 -11 146h-2c-13 -28 -37 -82 -72 -146zM263 875h169l51 -129h-109z" />
    <glyph glyph-name="Aacute" unicode="&#xc1;" horiz-adv-x="645" 
d="M-52 0l400 700h141l97 -700h-134l-19 160h-252l-88 -160h-145zM319 415l-77 -145h178l-16 145c-7 64 -10 118 -11 146h-2c-13 -28 -37 -82 -72 -146zM614 875l-135 -129h-111l76 129h170z" />
    <glyph glyph-name="Acircumflex" unicode="&#xc2;" horiz-adv-x="645" 
d="M-52 0l400 700h141l97 -700h-134l-19 160h-252l-88 -160h-145zM319 415l-77 -145h178l-16 145c-7 64 -10 118 -11 146h-2c-13 -28 -37 -82 -72 -146zM581 746h-112l-32 62l-58 -62h-118l115 129h136z" />
    <glyph glyph-name="Atilde" unicode="&#xc3;" horiz-adv-x="645" 
d="M-52 0l400 700h141l97 -700h-134l-19 160h-252l-88 -160h-145zM319 415l-77 -145h178l-16 145c-7 64 -10 118 -11 146h-2c-13 -28 -37 -82 -72 -146zM322 761h-77c11 72 50 114 111 114c27 0 53 -7 80 -14c20 -5 40 -10 55 -10c19 0 36 8 41 24h77
c-9 -72 -48 -114 -111 -114c-27 0 -53 9 -80 14c-20 5 -40 9 -55 9c-17 0 -34 -7 -41 -23z" />
    <glyph glyph-name="Adieresis" unicode="&#xc4;" horiz-adv-x="645" 
d="M-52 0l400 700h141l97 -700h-134l-19 160h-252l-88 -160h-145zM319 415l-77 -145h178l-16 145c-7 64 -10 118 -11 146h-2c-13 -28 -37 -82 -72 -146zM407 876l-25 -117h-130l25 117h130zM626 876l-25 -117h-130l25 117h130z" />
    <glyph glyph-name="Amacron" unicode="&#x100;" horiz-adv-x="645" 
d="M-52 0l400 700h141l97 -700h-134l-19 160h-252l-88 -160h-145zM319 415l-77 -145h178l-16 145c-7 64 -10 118 -11 146h-2c-13 -28 -37 -82 -72 -146zM269 762l19 90h307l-19 -90h-307z" />
    <glyph glyph-name="Abreve" unicode="&#x102;" horiz-adv-x="645" 
d="M-52 0l400 700h141l97 -700h-134l-19 160h-252l-88 -160h-145zM319 415l-77 -145h178l-16 145c-7 64 -10 118 -11 146h-2c-13 -28 -37 -82 -72 -146zM253 831l74 54c27 -32 68 -46 107 -46c47 0 92 19 123 46l56 -57c-49 -57 -117 -87 -189 -87c-71 0 -143 34 -171 90z
" />
    <glyph glyph-name="Aring" unicode="&#xc5;" horiz-adv-x="645" 
d="M-52 0l400 700h141l97 -700h-134l-19 160h-252l-88 -160h-145zM319 415l-77 -145h178l-16 145c-7 64 -10 118 -11 146h-2c-13 -28 -37 -82 -72 -146zM348 815c0 47 39 83 84 83c47 0 83 -36 83 -83c0 -45 -36 -84 -83 -84c-45 0 -84 39 -84 84zM468 815
c0 20 -16 36 -36 36s-36 -16 -36 -36s16 -36 36 -36s36 16 36 36z" />
    <glyph glyph-name="Aringacute" unicode="&#x1fa;" horiz-adv-x="645" 
d="M-52 0l400 700h141l97 -700h-134l-19 160h-252l-88 -160h-145zM319 415l-77 -145h178l-16 145c-7 64 -10 118 -11 146h-2c-13 -28 -37 -82 -72 -146zM435 895c47 0 83 -36 83 -83c0 -45 -36 -84 -83 -84c-45 0 -84 39 -84 84c0 47 39 83 84 83zM435 848
c-20 0 -36 -16 -36 -36s16 -36 36 -36s36 16 36 36s-16 36 -36 36zM633 1040l-135 -129h-111l76 129h170z" />
    <glyph glyph-name="Aogonek" unicode="&#x104;" horiz-adv-x="645" 
d="M-52 0l400 700h141l97 -700h-134l-19 160h-252l-88 -160h-145zM319 415l-77 -145h178l-16 145c-7 64 -10 118 -11 146h-2c-13 -28 -37 -82 -72 -146zM534 0h52c-61 -45 -78 -77 -78 -104c0 -25 15 -37 35 -37c16 0 30 10 42 29l41 -14c-11 -35 -39 -68 -94 -68
c-68 0 -92 41 -92 78c0 39 31 83 94 116z" />
    <glyph glyph-name="AE" unicode="&#xc6;" horiz-adv-x="948" 
d="M893 424l-23 -111h-298l-43 -202h349l-24 -111h-486l34 160h-215l-107 -160h-151l485 700h583l-23 -110h-343l-36 -166h298zM474 593l-215 -323h166l68 323h-19z" />
    <glyph glyph-name="AEacute" unicode="&#x1fc;" horiz-adv-x="948" 
d="M893 424l-23 -111h-298l-43 -202h349l-24 -111h-486l34 160h-215l-107 -160h-151l485 700h583l-23 -110h-343l-36 -166h298zM474 593l-215 -323h166l68 323h-19zM835 875l-135 -129h-111l76 129h170z" />
    <glyph glyph-name="Cacute" unicode="&#x106;" horiz-adv-x="702" 
d="M537 221h138c-62 -174 -176 -234 -318 -234c-174 0 -299 112 -299 305c0 214 133 421 372 421c163 0 271 -82 283 -241h-135c-4 43 -21 76 -51 98c-30 23 -64 34 -103 34c-156 0 -224 -168 -224 -317c0 -121 62 -189 167 -189c83 0 145 55 170 123zM636 875l-135 -129
h-111l76 129h170z" />
    <glyph glyph-name="Ccircumflex" unicode="&#x108;" horiz-adv-x="702" 
d="M537 221h138c-62 -174 -176 -234 -318 -234c-174 0 -299 112 -299 305c0 214 133 421 372 421c163 0 271 -82 283 -241h-135c-4 43 -21 76 -51 98c-30 23 -64 34 -103 34c-156 0 -224 -168 -224 -317c0 -121 62 -189 167 -189c83 0 145 55 170 123zM613 746h-112l-32 62
l-58 -62h-118l115 129h136z" />
    <glyph glyph-name="Ccaron" unicode="&#x10c;" horiz-adv-x="702" 
d="M537 221h138c-62 -174 -176 -234 -318 -234c-174 0 -299 112 -299 305c0 214 133 421 372 421c163 0 271 -82 283 -241h-135c-4 43 -21 76 -51 98c-30 23 -64 34 -103 34c-156 0 -224 -168 -224 -317c0 -121 62 -189 167 -189c83 0 145 55 170 123zM388 746l-69 129h112
l32 -62l58 62h118l-115 -129h-136z" />
    <glyph glyph-name="Cdotaccent" unicode="&#x10a;" horiz-adv-x="702" 
d="M537 221h138c-62 -174 -176 -234 -318 -234c-174 0 -299 112 -299 305c0 214 133 421 372 421c163 0 271 -82 283 -241h-135c-4 43 -21 76 -51 98c-30 23 -64 34 -103 34c-156 0 -224 -168 -224 -317c0 -121 62 -189 167 -189c83 0 145 55 170 123zM539 876l-25 -117
h-130l25 117h130z" />
    <glyph glyph-name="Ccedilla" unicode="&#xc7;" horiz-adv-x="702" 
d="M537 221h138c-62 -174 -176 -234 -318 -234c-174 0 -299 112 -299 305c0 214 133 421 372 421c163 0 271 -82 283 -241h-135c-4 43 -21 76 -51 98c-30 23 -64 34 -103 34c-156 0 -224 -168 -224 -317c0 -121 62 -189 167 -189c83 0 145 55 170 123zM324 7l45 -7l-40 -43
l1 -2c7 1 16 2 25 2c33 0 79 -15 79 -67c0 -60 -56 -84 -108 -84c-37 0 -68 8 -94 23l18 40c16 -9 38 -19 66 -19s46 15 46 36c0 23 -18 35 -43 35c-11 0 -22 -3 -34 -8l-21 21z" />
    <glyph glyph-name="Dcaron" unicode="&#x10e;" horiz-adv-x="726" 
d="M21 0l147 700h246c89 0 152 -19 200 -55c64 -47 96 -122 96 -218c0 -129 -39 -244 -116 -321c-65 -65 -155 -106 -290 -106h-283zM283 590l-102 -479h122c83 0 136 27 180 70c56 55 85 136 85 225c0 67 -17 120 -57 152c-27 21 -64 32 -112 32h-116zM363 746l-69 129h112
l32 -62l58 62h118l-115 -129h-136z" />
    <glyph glyph-name="Dcroat" unicode="&#x110;" horiz-adv-x="740" 
d="M35 0l64 304h-68l21 107h69l61 289h246c89 0 152 -19 200 -55c64 -47 96 -122 96 -218c0 -129 -39 -244 -116 -321c-65 -65 -155 -106 -290 -106h-283zM297 590l-38 -179h133l-22 -107h-134l-41 -193h122c83 0 136 27 180 70c56 55 85 136 85 225c0 67 -17 120 -57 152
c-27 21 -64 32 -112 32h-116z" />
    <glyph glyph-name="Eth" unicode="&#xd0;" horiz-adv-x="740" 
d="M35 0l64 304h-68l21 107h69l61 289h246c89 0 152 -19 200 -55c64 -47 96 -122 96 -218c0 -129 -39 -244 -116 -321c-65 -65 -155 -106 -290 -106h-283zM297 590l-38 -179h133l-22 -107h-134l-41 -193h122c83 0 136 27 180 70c56 55 85 136 85 225c0 67 -17 120 -57 152
c-27 21 -64 32 -112 32h-116z" />
    <glyph glyph-name="Egrave" unicode="&#xc8;" horiz-adv-x="637" 
d="M582 424l-23 -111h-335l-43 -202h386l-24 -111h-523l148 700h518l-23 -110h-380l-36 -166h335zM268 875h169l51 -129h-109z" />
    <glyph glyph-name="Eacute" unicode="&#xc9;" horiz-adv-x="637" 
d="M582 424l-23 -111h-335l-43 -202h386l-24 -111h-523l148 700h518l-23 -110h-380l-36 -166h335zM593 875l-135 -129h-111l76 129h170z" />
    <glyph glyph-name="Ecircumflex" unicode="&#xca;" horiz-adv-x="637" 
d="M582 424l-23 -111h-335l-43 -202h386l-24 -111h-523l148 700h518l-23 -110h-380l-36 -166h335zM580 746h-112l-32 62l-58 -62h-118l115 129h136z" />
    <glyph glyph-name="Ecaron" unicode="&#x11a;" horiz-adv-x="637" 
d="M582 424l-23 -111h-335l-43 -202h386l-24 -111h-523l148 700h518l-23 -110h-380l-36 -166h335zM356 746l-69 129h112l32 -62l58 62h118l-115 -129h-136z" />
    <glyph glyph-name="Edieresis" unicode="&#xcb;" horiz-adv-x="637" 
d="M582 424l-23 -111h-335l-43 -202h386l-24 -111h-523l148 700h518l-23 -110h-380l-36 -166h335zM408 876l-25 -117h-130l25 117h130zM627 876l-25 -117h-130l25 117h130z" />
    <glyph glyph-name="Emacron" unicode="&#x112;" horiz-adv-x="637" 
d="M582 424l-23 -111h-335l-43 -202h386l-24 -111h-523l148 700h518l-23 -110h-380l-36 -166h335zM277 762l19 90h307l-19 -90h-307z" />
    <glyph glyph-name="Ebreve" unicode="&#x114;" horiz-adv-x="637" 
d="M582 424l-23 -111h-335l-43 -202h386l-24 -111h-523l148 700h518l-23 -110h-380l-36 -166h335zM258 831l74 54c27 -32 68 -46 107 -46c47 0 92 19 123 46l56 -57c-49 -57 -117 -87 -189 -87c-71 0 -143 34 -171 90z" />
    <glyph glyph-name="Edotaccent" unicode="&#x116;" horiz-adv-x="637" 
d="M582 424l-23 -111h-335l-43 -202h386l-24 -111h-523l148 700h518l-23 -110h-380l-36 -166h335zM511 876l-25 -117h-130l25 117h130z" />
    <glyph glyph-name="Eogonek" unicode="&#x118;" horiz-adv-x="637" 
d="M582 424l-23 -111h-335l-43 -202h386l-24 -111h-523l148 700h518l-23 -110h-380l-36 -166h335zM491 0h52c-61 -45 -78 -77 -78 -104c0 -25 15 -37 35 -37c16 0 30 10 42 29l41 -14c-11 -35 -39 -68 -94 -68c-68 0 -92 41 -92 78c0 39 31 83 94 116z" />
    <glyph glyph-name="Gcircumflex" unicode="&#x11c;" horiz-adv-x="755" 
d="M555 63h-2c-49 -53 -126 -76 -207 -76c-150 0 -288 94 -288 309c0 221 146 417 381 417c161 0 282 -81 292 -241h-135c-19 87 -69 131 -161 131c-168 0 -235 -161 -235 -311c0 -135 72 -195 180 -195c113 0 175 67 200 166h-168l24 109h285l-79 -372h-97zM613 746h-112
l-32 62l-58 -62h-118l115 129h136z" />
    <glyph glyph-name="Gbreve" unicode="&#x11e;" horiz-adv-x="755" 
d="M555 63h-2c-49 -53 -126 -76 -207 -76c-150 0 -288 94 -288 309c0 221 146 417 381 417c161 0 282 -81 292 -241h-135c-19 87 -69 131 -161 131c-168 0 -235 -161 -235 -311c0 -135 72 -195 180 -195c113 0 175 67 200 166h-168l24 109h285l-79 -372h-97zM309 831l74 54
c27 -32 68 -46 107 -46c47 0 92 19 123 46l56 -57c-49 -57 -117 -87 -189 -87c-71 0 -143 34 -171 90z" />
    <glyph glyph-name="uni0122" unicode="&#x122;" horiz-adv-x="755" 
d="M555 63h-2c-49 -53 -126 -76 -207 -76c-150 0 -288 94 -288 309c0 221 146 417 381 417c161 0 282 -81 292 -241h-135c-19 87 -69 131 -161 131c-168 0 -235 -161 -235 -311c0 -135 72 -195 180 -195c113 0 175 67 200 166h-168l24 109h285l-79 -372h-97zM258 -141l20 95
h99l-19 -91c-7 -34 -20 -59 -39 -75c-21 -19 -49 -31 -84 -36l10 46c28 5 54 27 59 56l1 5h-47z" />
    <glyph glyph-name="Gdotaccent" unicode="&#x120;" horiz-adv-x="755" 
d="M555 63h-2c-49 -53 -126 -76 -207 -76c-150 0 -288 94 -288 309c0 221 146 417 381 417c161 0 282 -81 292 -241h-135c-19 87 -69 131 -161 131c-168 0 -235 -161 -235 -311c0 -135 72 -195 180 -195c113 0 175 67 200 166h-168l24 109h285l-79 -372h-97zM546 876
l-25 -117h-130l25 117h130z" />
    <glyph glyph-name="Hcircumflex" unicode="&#x124;" horiz-adv-x="722" 
d="M744 700l-149 -700h-140l67 313h-296l-67 -313h-139l148 700h140l-59 -275h296l59 275h140zM620 746h-112l-32 62l-58 -62h-118l115 129h136z" />
    <glyph glyph-name="Hbar" unicode="&#x126;" horiz-adv-x="722" 
d="M744 700l-149 -700h-140l67 313h-296l-67 -313h-139l148 700h140l-16 -77h296l16 77h140zM249 425h296l24 111h-296z" />
    <glyph glyph-name="Igrave" unicode="&#xcc;" horiz-adv-x="286" 
d="M308 700l-149 -700h-139l148 700h140zM81 875h169l51 -129h-109z" />
    <glyph glyph-name="Iacute" unicode="&#xcd;" horiz-adv-x="286" 
d="M308 700l-149 -700h-139l148 700h140zM432 875l-135 -129h-111l76 129h170z" />
    <glyph glyph-name="Icircumflex" unicode="&#xce;" horiz-adv-x="286" 
d="M308 700l-149 -700h-139l148 700h140zM406 746h-112l-32 62l-58 -62h-118l115 129h136z" />
    <glyph glyph-name="Itilde" unicode="&#x128;" horiz-adv-x="286" 
d="M308 700l-149 -700h-139l148 700h140zM144 761h-77c11 72 50 114 111 114c27 0 53 -7 80 -14c20 -5 40 -10 55 -10c19 0 36 8 41 24h77c-9 -72 -48 -114 -111 -114c-27 0 -53 9 -80 14c-20 5 -40 9 -55 9c-17 0 -34 -7 -41 -23z" />
    <glyph glyph-name="Idieresis" unicode="&#xcf;" horiz-adv-x="286" 
d="M308 700l-149 -700h-139l148 700h140zM228 876l-25 -117h-130l25 117h130zM447 876l-25 -117h-130l25 117h130z" />
    <glyph glyph-name="Imacron" unicode="&#x12a;" horiz-adv-x="286" 
d="M308 700l-149 -700h-139l148 700h140zM94 762l19 90h307l-19 -90h-307z" />
    <glyph glyph-name="Ibreve" unicode="&#x12c;" horiz-adv-x="286" 
d="M308 700l-149 -700h-139l148 700h140zM79 831l74 54c27 -32 68 -46 107 -46c47 0 92 19 123 46l56 -57c-49 -57 -117 -87 -189 -87c-71 0 -143 34 -171 90z" />
    <glyph glyph-name="Idot" unicode="&#x130;" horiz-adv-x="286" 
d="M308 700l-149 -700h-139l148 700h140zM339 876l-25 -117h-130l25 117h130z" />
    <glyph glyph-name="Iogonek" unicode="&#x12e;" horiz-adv-x="286" 
d="M308 700l-149 -700h-139l148 700h140zM72 0h52c-61 -45 -78 -77 -78 -104c0 -25 15 -37 35 -37c16 0 30 10 42 29l41 -14c-11 -35 -39 -68 -94 -68c-68 0 -92 41 -92 78c0 39 31 83 94 116z" />
    <glyph glyph-name="IJ" unicode="&#x132;" horiz-adv-x="778" 
d="M308 700l-149 -700h-139l148 700h140zM804 700l-104 -487c-15 -69 -36 -128 -75 -168c-37 -39 -95 -60 -174 -60c-135 0 -207 54 -207 165c0 21 3 46 8 74l4 21h126l-3 -17c-3 -19 -6 -40 -6 -55c0 -49 22 -78 81 -78c84 0 97 64 107 115l103 490h140z" />
    <glyph glyph-name="Jcircumflex" unicode="&#x134;" horiz-adv-x="540" 
d="M566 700l-104 -487c-15 -69 -36 -128 -75 -168c-37 -39 -95 -60 -174 -60c-135 0 -207 54 -207 165c0 21 3 46 8 74l4 21h126l-3 -17c-3 -19 -6 -40 -6 -55c0 -49 22 -78 81 -78c84 0 97 64 107 115l103 490h140zM658 746h-112l-32 62l-58 -62h-118l115 129h136z" />
    <glyph glyph-name="uni0136" unicode="&#x136;" horiz-adv-x="666" 
d="M20 0l148 700h140l-66 -296l332 296h179l-332 -295l202 -405h-160l-154 316l-103 -91l-47 -225h-139zM226 -141l20 95h99l-19 -91c-7 -34 -20 -59 -39 -75c-21 -19 -49 -31 -84 -36l10 46c28 5 54 27 59 56l1 5h-47z" />
    <glyph glyph-name="Lacute" unicode="&#x139;" horiz-adv-x="572" 
d="M306 700l-125 -589h346l-24 -111h-483l148 700h138zM432 875l-135 -129h-111l76 129h170z" />
    <glyph glyph-name="Lcaron" unicode="&#x13d;" horiz-adv-x="572" 
d="M306 700l-125 -589h346l-24 -111h-483l148 700h138zM389 700h141l-92 -156h-113z" />
    <glyph glyph-name="Lslash" unicode="&#x141;" horiz-adv-x="588" 
d="M322 700l-61 -286l162 55l-23 -105l-161 -54l-42 -199h346l-24 -111h-483l55 261l-72 -23l22 105l73 23l70 334h138z" />
    <glyph glyph-name="Ldot" unicode="&#x13f;" horiz-adv-x="574" 
d="M306 700l-125 -589h346l-24 -111h-483l148 700h138zM516 429l-25 -117h-130l25 117h130z" />
    <glyph glyph-name="Ldot.latn_CAT" horiz-adv-x="574" 
d="M306 700l-125 -589h346l-24 -111h-483l148 700h138zM516 429l-25 -117h-130l25 117h130z" />
    <glyph glyph-name="uni013B" unicode="&#x13b;" horiz-adv-x="572" 
d="M306 700l-125 -589h346l-24 -111h-483l148 700h138zM195 -141l20 95h99l-19 -91c-7 -34 -20 -59 -39 -75c-21 -19 -49 -31 -84 -36l10 46c28 5 54 27 59 56l1 5h-47z" />
    <glyph glyph-name="Nacute" unicode="&#x143;" horiz-adv-x="723" 
d="M311 700l130 -330c23 -54 54 -140 63 -176h2c7 49 20 119 37 204l64 302h138l-149 -700h-146l-138 348c-15 42 -44 124 -54 156h-2c-5 -39 -17 -118 -32 -189l-67 -315h-137l148 700h143zM628 875l-135 -129h-111l76 129h170z" />
    <glyph glyph-name="uni0145" unicode="&#x145;" horiz-adv-x="723" 
d="M311 700l130 -330c23 -54 54 -140 63 -176h2c7 49 20 119 37 204l64 302h138l-149 -700h-146l-138 348c-15 42 -44 124 -54 156h-2c-5 -39 -17 -118 -32 -189l-67 -315h-137l148 700h143zM236 -141l20 95h99l-19 -91c-7 -34 -20 -59 -39 -75c-21 -19 -49 -31 -84 -36
l10 46c28 5 54 27 59 56l1 5h-47z" />
    <glyph glyph-name="Ncaron" unicode="&#x147;" horiz-adv-x="723" 
d="M311 700l130 -330c23 -54 54 -140 63 -176h2c7 49 20 119 37 204l64 302h138l-149 -700h-146l-138 348c-15 42 -44 124 -54 156h-2c-5 -39 -17 -118 -32 -189l-67 -315h-137l148 700h143zM388 746l-69 129h112l32 -62l58 62h118l-115 -129h-136z" />
    <glyph glyph-name="Ntilde" unicode="&#xd1;" horiz-adv-x="723" 
d="M311 700l130 -330c23 -54 54 -140 63 -176h2c7 49 20 119 37 204l64 302h138l-149 -700h-146l-138 348c-15 42 -44 124 -54 156h-2c-5 -39 -17 -118 -32 -189l-67 -315h-137l148 700h143zM366 761h-77c11 72 50 114 111 114c27 0 53 -7 80 -14c20 -5 40 -10 55 -10
c19 0 36 8 41 24h77c-9 -72 -48 -114 -111 -114c-27 0 -53 9 -80 14c-20 5 -40 9 -55 9c-17 0 -34 -7 -41 -23z" />
    <glyph glyph-name="Eng" unicode="&#x14a;" horiz-adv-x="723" 
d="M311 700l130 -330c23 -54 54 -140 63 -176h2c7 49 20 119 37 204l64 302h138l-154 -724c-9 -41 -18 -78 -46 -106c-41 -41 -102 -42 -191 -42h-32l21 105h40c27 0 45 2 58 15c11 11 18 28 23 52h-14l-138 348c-15 42 -44 124 -54 156h-2c-5 -39 -17 -118 -32 -189
l-67 -315h-137l148 700h143z" />
    <glyph glyph-name="Ograve" unicode="&#xd2;" horiz-adv-x="747" 
d="M361 -14c-179 0 -302 116 -302 306c0 230 138 421 370 421c180 0 300 -119 300 -306c0 -228 -138 -421 -368 -421zM588 417c0 127 -65 189 -164 189c-152 0 -223 -169 -223 -320c0 -125 67 -189 164 -189c152 0 223 169 223 320zM280 875h169l51 -129h-109z" />
    <glyph glyph-name="Oacute" unicode="&#xd3;" horiz-adv-x="747" 
d="M361 -14c-179 0 -302 116 -302 306c0 230 138 421 370 421c180 0 300 -119 300 -306c0 -228 -138 -421 -368 -421zM588 417c0 127 -65 189 -164 189c-152 0 -223 -169 -223 -320c0 -125 67 -189 164 -189c152 0 223 169 223 320zM629 875l-135 -129h-111l76 129h170z" />
    <glyph glyph-name="Ocircumflex" unicode="&#xd4;" horiz-adv-x="747" 
d="M361 -14c-179 0 -302 116 -302 306c0 230 138 421 370 421c180 0 300 -119 300 -306c0 -228 -138 -421 -368 -421zM588 417c0 127 -65 189 -164 189c-152 0 -223 -169 -223 -320c0 -125 67 -189 164 -189c152 0 223 169 223 320zM612 746h-112l-32 62l-58 -62h-118
l115 129h136z" />
    <glyph glyph-name="Otilde" unicode="&#xd5;" horiz-adv-x="747" 
d="M361 -14c-179 0 -302 116 -302 306c0 230 138 421 370 421c180 0 300 -119 300 -306c0 -228 -138 -421 -368 -421zM588 417c0 127 -65 189 -164 189c-152 0 -223 -169 -223 -320c0 -125 67 -189 164 -189c152 0 223 169 223 320zM361 761h-77c11 72 50 114 111 114
c27 0 53 -7 80 -14c20 -5 40 -10 55 -10c19 0 36 8 41 24h77c-9 -72 -48 -114 -111 -114c-27 0 -53 9 -80 14c-20 5 -40 9 -55 9c-17 0 -34 -7 -41 -23z" />
    <glyph glyph-name="Odieresis" unicode="&#xd6;" horiz-adv-x="747" 
d="M361 -14c-179 0 -302 116 -302 306c0 230 138 421 370 421c180 0 300 -119 300 -306c0 -228 -138 -421 -368 -421zM588 417c0 127 -65 189 -164 189c-152 0 -223 -169 -223 -320c0 -125 67 -189 164 -189c152 0 223 169 223 320zM439 876l-25 -117h-130l25 117h130z
M658 876l-25 -117h-130l25 117h130z" />
    <glyph glyph-name="Omacron" unicode="&#x14c;" horiz-adv-x="747" 
d="M361 -14c-179 0 -302 116 -302 306c0 230 138 421 370 421c180 0 300 -119 300 -306c0 -228 -138 -421 -368 -421zM588 417c0 127 -65 189 -164 189c-152 0 -223 -169 -223 -320c0 -125 67 -189 164 -189c152 0 223 169 223 320zM314 762l19 90h307l-19 -90h-307z" />
    <glyph glyph-name="Obreve" unicode="&#x14e;" horiz-adv-x="747" 
d="M361 -14c-179 0 -302 116 -302 306c0 230 138 421 370 421c180 0 300 -119 300 -306c0 -228 -138 -421 -368 -421zM588 417c0 127 -65 189 -164 189c-152 0 -223 -169 -223 -320c0 -125 67 -189 164 -189c152 0 223 169 223 320zM293 831l74 54c27 -32 68 -46 107 -46
c47 0 92 19 123 46l56 -57c-49 -57 -117 -87 -189 -87c-71 0 -143 34 -171 90z" />
    <glyph glyph-name="Ohungarumlaut" unicode="&#x150;" horiz-adv-x="747" 
d="M361 -14c-179 0 -302 116 -302 306c0 230 138 421 370 421c180 0 300 -119 300 -306c0 -228 -138 -421 -368 -421zM588 417c0 127 -65 189 -164 189c-152 0 -223 -169 -223 -320c0 -125 67 -189 164 -189c152 0 223 169 223 320zM534 875l-135 -129h-105l76 129h164z
M728 875l-144 -129h-105l85 129h164z" />
    <glyph glyph-name="Oslash" unicode="&#xd8;" horiz-adv-x="747" 
d="M361 -14c-82 0 -150 23 -203 68l-47 -48l-52 52l50 51c-32 48 -50 110 -50 183c0 230 141 421 373 421c82 0 149 -24 202 -71l50 51l52 -51l-55 -56c32 -49 48 -109 48 -179c0 -228 -138 -421 -368 -421zM201 286c0 -28 3 -52 8 -75l339 344c-29 35 -73 51 -124 51
c-152 0 -223 -169 -223 -320zM588 417c0 24 -2 47 -7 68l-336 -343c29 -31 71 -45 120 -45c152 0 223 169 223 320z" />
    <glyph glyph-name="Oslashacute" unicode="&#x1fe;" horiz-adv-x="747" 
d="M361 -14c-82 0 -150 23 -203 68l-47 -48l-52 52l50 51c-32 48 -50 110 -50 183c0 230 141 421 373 421c82 0 149 -24 202 -71l50 51l52 -51l-55 -56c32 -49 48 -109 48 -179c0 -228 -138 -421 -368 -421zM201 286c0 -28 3 -52 8 -75l339 344c-29 35 -73 51 -124 51
c-152 0 -223 -169 -223 -320zM588 417c0 24 -2 47 -7 68l-336 -343c29 -31 71 -45 120 -45c152 0 223 169 223 320zM627 875l-135 -129h-111l76 129h170z" />
    <glyph glyph-name="OE" unicode="&#x152;" horiz-adv-x="1037" 
d="M982 424l-23 -111h-298l-43 -202h349l-24 -111h-466l4 20c-40 -17 -89 -27 -149 -27c-152 0 -273 111 -273 299c0 230 141 419 373 419c65 0 120 -16 165 -49l8 38h481l-23 -110h-343l-36 -166h298zM363 97c51 0 91 16 124 45l80 379c-27 56 -78 83 -143 83
c-152 0 -223 -167 -223 -318c0 -125 66 -189 162 -189z" />
    <glyph glyph-name="Thorn" unicode="&#xde;" horiz-adv-x="649" 
d="M168 700h138l-22 -107h119c137 0 238 -49 238 -199c0 -73 -28 -133 -75 -174c-49 -44 -113 -68 -194 -68h-182l-31 -152h-139zM260 483l-47 -221h161c83 0 133 40 133 128c0 74 -56 93 -114 93h-133z" />
    <glyph glyph-name="Racute" unicode="&#x154;" horiz-adv-x="665" 
d="M21 0l147 700h296c70 0 123 -14 158 -41s52 -68 52 -123c0 -131 -85 -189 -177 -205v-2c59 -13 88 -49 88 -113c0 -37 -12 -91 -16 -135c-3 -31 -3 -57 5 -78l-1 -3h-141c-2 24 -2 6 -2 30c0 30 16 109 16 164c0 35 -10 58 -31 67c-21 10 -49 15 -84 15h-114l-59 -276
h-137zM283 590l-44 -209h153c91 0 143 39 143 119c0 78 -54 90 -116 90h-136zM583 875l-135 -129h-111l76 129h170z" />
    <glyph glyph-name="Rcaron" unicode="&#x158;" horiz-adv-x="665" 
d="M21 0l147 700h296c70 0 123 -14 158 -41s52 -68 52 -123c0 -131 -85 -189 -177 -205v-2c59 -13 88 -49 88 -113c0 -37 -12 -91 -16 -135c-3 -31 -3 -57 5 -78l-1 -3h-141c-2 24 -2 6 -2 30c0 30 16 109 16 164c0 35 -10 58 -31 67c-21 10 -49 15 -84 15h-114l-59 -276
h-137zM283 590l-44 -209h153c91 0 143 39 143 119c0 78 -54 90 -116 90h-136zM347 746l-69 129h112l32 -62l58 62h118l-115 -129h-136z" />
    <glyph glyph-name="uni0156" unicode="&#x156;" horiz-adv-x="665" 
d="M21 0l147 700h296c70 0 123 -14 158 -41s52 -68 52 -123c0 -131 -85 -189 -177 -205v-2c59 -13 88 -49 88 -113c0 -37 -12 -91 -16 -135c-3 -31 -3 -57 5 -78l-1 -3h-141c-2 24 -2 6 -2 30c0 30 16 109 16 164c0 35 -10 58 -31 67c-21 10 -49 15 -84 15h-114l-59 -276
h-137zM283 590l-44 -209h153c91 0 143 39 143 119c0 78 -54 90 -116 90h-136zM225 -141l20 95h99l-19 -91c-7 -34 -20 -59 -39 -75c-21 -19 -49 -31 -84 -36l10 46c28 5 54 27 59 56l1 5h-47z" />
    <glyph glyph-name="Sacute" unicode="&#x15a;" horiz-adv-x="634" 
d="M23 216h145c3 -84 67 -119 148 -119c83 0 133 34 133 99c0 53 -48 70 -93 84l-79 26c-88 30 -178 69 -178 191c0 156 132 216 272 216c139 0 258 -60 258 -214h-140c0 73 -54 105 -125 105c-77 0 -121 -31 -121 -86c0 -48 31 -70 95 -91l62 -21c108 -34 194 -69 194 -190
c0 -128 -96 -229 -286 -229c-175 0 -278 72 -285 229zM558 875l-135 -129h-111l76 129h170z" />
    <glyph glyph-name="Scircumflex" unicode="&#x15c;" horiz-adv-x="634" 
d="M23 216h145c3 -84 67 -119 148 -119c83 0 133 34 133 99c0 53 -48 70 -93 84l-79 26c-88 30 -178 69 -178 191c0 156 132 216 272 216c139 0 258 -60 258 -214h-140c0 73 -54 105 -125 105c-77 0 -121 -31 -121 -86c0 -48 31 -70 95 -91l62 -21c108 -34 194 -69 194 -190
c0 -128 -96 -229 -286 -229c-175 0 -278 72 -285 229zM544 746h-112l-32 62l-58 -62h-118l115 129h136z" />
    <glyph glyph-name="Scaron" unicode="&#x160;" horiz-adv-x="634" 
d="M23 216h145c3 -84 67 -119 148 -119c83 0 133 34 133 99c0 53 -48 70 -93 84l-79 26c-88 30 -178 69 -178 191c0 156 132 216 272 216c139 0 258 -60 258 -214h-140c0 73 -54 105 -125 105c-77 0 -121 -31 -121 -86c0 -48 31 -70 95 -91l62 -21c108 -34 194 -69 194 -190
c0 -128 -96 -229 -286 -229c-175 0 -278 72 -285 229zM305 746l-69 129h112l32 -62l58 62h118l-115 -129h-136z" />
    <glyph glyph-name="Scedilla" unicode="&#x15e;" horiz-adv-x="634" 
d="M23 216h145c3 -84 67 -119 148 -119c83 0 133 34 133 99c0 53 -48 70 -93 84l-79 26c-88 30 -178 69 -178 191c0 156 132 216 272 216c139 0 258 -60 258 -214h-140c0 73 -54 105 -125 105c-77 0 -121 -31 -121 -86c0 -48 31 -70 95 -91l62 -21c108 -34 194 -69 194 -190
c0 -128 -96 -229 -286 -229c-175 0 -278 72 -285 229zM268 7l45 -7l-40 -43l1 -2c7 1 16 2 25 2c33 0 79 -15 79 -67c0 -60 -56 -84 -108 -84c-37 0 -68 8 -94 23l18 40c16 -9 38 -19 66 -19s46 15 46 36c0 23 -18 35 -43 35c-11 0 -22 -3 -34 -8l-21 21z" />
    <glyph glyph-name="uni0218" unicode="&#x218;" horiz-adv-x="634" 
d="M23 216h145c3 -84 67 -119 148 -119c83 0 133 34 133 99c0 53 -48 70 -93 84l-79 26c-88 30 -178 69 -178 191c0 156 132 216 272 216c139 0 258 -60 258 -214h-140c0 73 -54 105 -125 105c-77 0 -121 -31 -121 -86c0 -48 31 -70 95 -91l62 -21c108 -34 194 -69 194 -190
c0 -128 -96 -229 -286 -229c-175 0 -278 72 -285 229zM196 -141l20 95h99l-19 -91c-7 -34 -20 -59 -39 -75c-21 -19 -49 -31 -84 -36l10 46c28 5 54 27 59 56l1 5h-47z" />
    <glyph glyph-name="Tcaron" unicode="&#x164;" horiz-adv-x="592" 
d="M649 590h-210l-126 -590h-140l126 590h-214l23 110h564zM328 746l-69 129h112l32 -62l58 62h118l-115 -129h-136z" />
    <glyph glyph-name="Tcommaaccent" unicode="&#x162;" horiz-adv-x="592" 
d="M649 590h-210l-126 -590h-140l126 590h-214l23 110h564zM222 7l45 -7l-40 -43l1 -2c7 1 16 2 25 2c33 0 79 -15 79 -67c0 -60 -56 -84 -108 -84c-37 0 -68 8 -94 23l18 40c16 -9 38 -19 66 -19s46 15 46 36c0 23 -18 35 -43 35c-11 0 -22 -3 -34 -8l-21 21z" />
    <glyph glyph-name="Tbar" unicode="&#x166;" horiz-adv-x="613" 
d="M100 318l18 87h149l40 185h-212l23 110h564l-23 -110h-212l-40 -185h147l-18 -87h-147l-68 -318h-140l68 318h-149z" />
    <glyph glyph-name="uni021A" unicode="&#x21a;" horiz-adv-x="592" 
d="M649 590h-210l-126 -590h-140l126 590h-214l23 110h564zM166 -141l20 95h99l-19 -91c-7 -34 -20 -59 -39 -75c-21 -19 -49 -31 -84 -36l10 46c28 5 54 27 59 56l1 5h-47z" />
    <glyph glyph-name="Ugrave" unicode="&#xd9;" horiz-adv-x="687" 
d="M714 700l-93 -439c-19 -91 -45 -152 -89 -199c-48 -49 -118 -75 -223 -75c-185 0 -249 79 -249 194c0 27 5 56 10 87l91 432h140l-93 -435c-5 -28 -9 -48 -9 -71c0 -57 26 -97 118 -97c118 0 143 60 163 158l94 445h140zM286 875h169l51 -129h-109z" />
    <glyph glyph-name="Uacute" unicode="&#xda;" horiz-adv-x="687" 
d="M714 700l-93 -439c-19 -91 -45 -152 -89 -199c-48 -49 -118 -75 -223 -75c-185 0 -249 79 -249 194c0 27 5 56 10 87l91 432h140l-93 -435c-5 -28 -9 -48 -9 -71c0 -57 26 -97 118 -97c118 0 143 60 163 158l94 445h140zM615 875l-135 -129h-111l76 129h170z" />
    <glyph glyph-name="Ucircumflex" unicode="&#xdb;" horiz-adv-x="687" 
d="M714 700l-93 -439c-19 -91 -45 -152 -89 -199c-48 -49 -118 -75 -223 -75c-185 0 -249 79 -249 194c0 27 5 56 10 87l91 432h140l-93 -435c-5 -28 -9 -48 -9 -71c0 -57 26 -97 118 -97c118 0 143 60 163 158l94 445h140zM596 746h-112l-32 62l-58 -62h-118l115 129h136z
" />
    <glyph glyph-name="Utilde" unicode="&#x168;" horiz-adv-x="687" 
d="M714 700l-93 -439c-19 -91 -45 -152 -89 -199c-48 -49 -118 -75 -223 -75c-185 0 -249 79 -249 194c0 27 5 56 10 87l91 432h140l-93 -435c-5 -28 -9 -48 -9 -71c0 -57 26 -97 118 -97c118 0 143 60 163 158l94 445h140zM348 761h-77c11 72 50 114 111 114
c27 0 53 -7 80 -14c20 -5 40 -10 55 -10c19 0 36 8 41 24h77c-9 -72 -48 -114 -111 -114c-27 0 -53 9 -80 14c-20 5 -40 9 -55 9c-17 0 -34 -7 -41 -23z" />
    <glyph glyph-name="Udieresis" unicode="&#xdc;" horiz-adv-x="687" 
d="M714 700l-93 -439c-19 -91 -45 -152 -89 -199c-48 -49 -118 -75 -223 -75c-185 0 -249 79 -249 194c0 27 5 56 10 87l91 432h140l-93 -435c-5 -28 -9 -48 -9 -71c0 -57 26 -97 118 -97c118 0 143 60 163 158l94 445h140zM423 876l-25 -117h-130l25 117h130zM642 876
l-25 -117h-130l25 117h130z" />
    <glyph glyph-name="Umacron" unicode="&#x16a;" horiz-adv-x="687" 
d="M714 700l-93 -439c-19 -91 -45 -152 -89 -199c-48 -49 -118 -75 -223 -75c-185 0 -249 79 -249 194c0 27 5 56 10 87l91 432h140l-93 -435c-5 -28 -9 -48 -9 -71c0 -57 26 -97 118 -97c118 0 143 60 163 158l94 445h140zM289 762l19 90h307l-19 -90h-307z" />
    <glyph glyph-name="Ubreve" unicode="&#x16c;" horiz-adv-x="687" 
d="M714 700l-93 -439c-19 -91 -45 -152 -89 -199c-48 -49 -118 -75 -223 -75c-185 0 -249 79 -249 194c0 27 5 56 10 87l91 432h140l-93 -435c-5 -28 -9 -48 -9 -71c0 -57 26 -97 118 -97c118 0 143 60 163 158l94 445h140zM275 831l74 54c27 -32 68 -46 107 -46
c47 0 92 19 123 46l56 -57c-49 -57 -117 -87 -189 -87c-71 0 -143 34 -171 90z" />
    <glyph glyph-name="Uring" unicode="&#x16e;" horiz-adv-x="687" 
d="M714 700l-93 -439c-19 -91 -45 -152 -89 -199c-48 -49 -118 -75 -223 -75c-185 0 -249 79 -249 194c0 27 5 56 10 87l91 432h140l-93 -435c-5 -28 -9 -48 -9 -71c0 -57 26 -97 118 -97c118 0 143 60 163 158l94 445h140zM355 815c0 47 39 83 84 83c47 0 83 -36 83 -83
c0 -45 -36 -84 -83 -84c-45 0 -84 39 -84 84zM475 815c0 20 -16 36 -36 36s-36 -16 -36 -36s16 -36 36 -36s36 16 36 36z" />
    <glyph glyph-name="Uhungarumlaut" unicode="&#x170;" horiz-adv-x="687" 
d="M714 700l-93 -439c-19 -91 -45 -152 -89 -199c-48 -49 -118 -75 -223 -75c-185 0 -249 79 -249 194c0 27 5 56 10 87l91 432h140l-93 -435c-5 -28 -9 -48 -9 -71c0 -57 26 -97 118 -97c118 0 143 60 163 158l94 445h140zM517 875l-135 -129h-105l76 129h164zM711 875
l-144 -129h-105l85 129h164z" />
    <glyph glyph-name="Uogonek" unicode="&#x172;" horiz-adv-x="687" 
d="M714 700l-93 -439c-19 -91 -45 -152 -89 -199c-48 -49 -118 -75 -223 -75c-185 0 -249 79 -249 194c0 27 5 56 10 87l91 432h140l-93 -435c-5 -28 -9 -48 -9 -71c0 -57 26 -97 118 -97c118 0 143 60 163 158l94 445h140zM313 0h52c-61 -45 -78 -77 -78 -104
c0 -25 15 -37 35 -37c16 0 30 10 42 29l41 -14c-11 -35 -39 -68 -94 -68c-68 0 -92 41 -92 78c0 39 31 83 94 116z" />
    <glyph glyph-name="Wacute" unicode="&#x1e82;" horiz-adv-x="920" 
d="M515 0l-4 352c0 36 2 123 4 166h-3c-17 -45 -38 -111 -62 -167l-150 -351h-147l-53 700h142l19 -366c2 -32 4 -110 2 -154h3c15 38 42 119 56 154l151 366h152l4 -365c1 -77 1 -115 -2 -155h3c19 45 36 101 60 154l165 366h150l-343 -700h-147zM743 875l-135 -129h-111
l76 129h170z" />
    <glyph glyph-name="Wcircumflex" unicode="&#x174;" horiz-adv-x="920" 
d="M515 0l-4 352c0 36 2 123 4 166h-3c-17 -45 -38 -111 -62 -167l-150 -351h-147l-53 700h142l19 -366c2 -32 4 -110 2 -154h3c15 38 42 119 56 154l151 366h152l4 -365c1 -77 1 -115 -2 -155h3c19 45 36 101 60 154l165 366h150l-343 -700h-147zM707 746h-112l-32 62
l-58 -62h-118l115 129h136z" />
    <glyph glyph-name="Wdieresis" unicode="&#x1e84;" horiz-adv-x="920" 
d="M515 0l-4 352c0 36 2 123 4 166h-3c-17 -45 -38 -111 -62 -167l-150 -351h-147l-53 700h142l19 -366c2 -32 4 -110 2 -154h3c15 38 42 119 56 154l151 366h152l4 -365c1 -77 1 -115 -2 -155h3c19 45 36 101 60 154l165 366h150l-343 -700h-147zM543 876l-25 -117h-130
l25 117h130zM762 876l-25 -117h-130l25 117h130z" />
    <glyph glyph-name="Wgrave" unicode="&#x1e80;" horiz-adv-x="920" 
d="M515 0l-4 352c0 36 2 123 4 166h-3c-17 -45 -38 -111 -62 -167l-150 -351h-147l-53 700h142l19 -366c2 -32 4 -110 2 -154h3c15 38 42 119 56 154l151 366h152l4 -365c1 -77 1 -115 -2 -155h3c19 45 36 101 60 154l165 366h150l-343 -700h-147zM389 875h169l51 -129h-109
z" />
    <glyph glyph-name="Ygrave" unicode="&#x1ef2;" horiz-adv-x="610" 
d="M704 700l-328 -434l-57 -266h-140l57 266l-133 434h141l86 -306l218 306h156zM228 875h169l51 -129h-109z" />
    <glyph glyph-name="Yacute" unicode="&#xdd;" horiz-adv-x="610" 
d="M704 700l-328 -434l-57 -266h-140l57 266l-133 434h141l86 -306l218 306h156zM572 875l-135 -129h-111l76 129h170z" />
    <glyph glyph-name="Ycircumflex" unicode="&#x176;" horiz-adv-x="610" 
d="M704 700l-328 -434l-57 -266h-140l57 266l-133 434h141l86 -306l218 306h156zM558 746h-112l-32 62l-58 -62h-118l115 129h136z" />
    <glyph glyph-name="Ydieresis" unicode="&#x178;" horiz-adv-x="610" 
d="M704 700l-328 -434l-57 -266h-140l57 266l-133 434h141l86 -306l218 306h156zM379 876l-25 -117h-130l25 117h130zM598 876l-25 -117h-130l25 117h130z" />
    <glyph glyph-name="Zacute" unicode="&#x179;" horiz-adv-x="637" 
d="M552 0h-574l23 106l370 364l122 119v1c-53 -1 -114 -1 -153 -1h-225l24 111h548l-24 -112l-378 -372c-48 -47 -74 -71 -109 -104v-1c52 1 120 1 168 1h232zM585 875l-135 -129h-111l76 129h170z" />
    <glyph glyph-name="Zcaron" unicode="&#x17d;" horiz-adv-x="637" 
d="M552 0h-574l23 106l370 364l122 119v1c-53 -1 -114 -1 -153 -1h-225l24 111h548l-24 -112l-378 -372c-48 -47 -74 -71 -109 -104v-1c52 1 120 1 168 1h232zM332 746l-69 129h112l32 -62l58 62h118l-115 -129h-136z" />
    <glyph glyph-name="Zdotaccent" unicode="&#x17b;" horiz-adv-x="637" 
d="M552 0h-574l23 106l370 364l122 119v1c-53 -1 -114 -1 -153 -1h-225l24 111h548l-24 -112l-378 -372c-48 -47 -74 -71 -109 -104v-1c52 1 120 1 168 1h232zM495 876l-25 -117h-130l25 117h130z" />
    <glyph glyph-name="uni018F" unicode="&#x18f;" horiz-adv-x="742" 
d="M65 389h523c1 8 1 16 1 24c0 127 -73 188 -172 188c-87 0 -143 -40 -178 -105h-150c59 129 166 217 330 217c184 0 305 -119 305 -306c0 -228 -138 -421 -368 -421c-178 0 -299 116 -299 306c0 33 3 66 8 97zM360 93c113 0 190 84 214 197h-381v-8
c0 -125 66 -189 167 -189z" />
    <glyph glyph-name="agrave" unicode="&#xe0;" horiz-adv-x="562" 
d="M199 359l-121 2c24 119 114 169 242 169c129 0 202 -52 202 -151c0 -29 -3 -50 -10 -83l-45 -221c-3 -17 -5 -30 -5 -42s1 -22 5 -30l-1 -3h-123l6 44h-1c-13 -13 -31 -26 -54 -39s-56 -19 -101 -19c-108 0 -177 62 -177 147c0 79 47 124 116 149c53 20 118 31 186 40
l23 3c39 5 52 19 52 50c0 36 -30 60 -87 60c-53 0 -92 -23 -107 -76zM234 85c43 0 93 19 117 64c5 9 8 19 13 44l14 64c-12 -8 -36 -16 -73 -24l-39 -9c-43 -9 -72 -17 -91 -32c-14 -11 -21 -26 -21 -47c0 -39 31 -60 80 -60zM183 700h169l51 -129h-109z" />
    <glyph glyph-name="aacute" unicode="&#xe1;" horiz-adv-x="562" 
d="M199 359l-121 2c24 119 114 169 242 169c129 0 202 -52 202 -151c0 -29 -3 -50 -10 -83l-45 -221c-3 -17 -5 -30 -5 -42s1 -22 5 -30l-1 -3h-123l6 44h-1c-13 -13 -31 -26 -54 -39s-56 -19 -101 -19c-108 0 -177 62 -177 147c0 79 47 124 116 149c53 20 118 31 186 40
l23 3c39 5 52 19 52 50c0 36 -30 60 -87 60c-53 0 -92 -23 -107 -76zM234 85c43 0 93 19 117 64c5 9 8 19 13 44l14 64c-12 -8 -36 -16 -73 -24l-39 -9c-43 -9 -72 -17 -91 -32c-14 -11 -21 -26 -21 -47c0 -39 31 -60 80 -60zM515 700l-135 -129h-111l76 129h170z" />
    <glyph glyph-name="acircumflex" unicode="&#xe2;" horiz-adv-x="562" 
d="M199 359l-121 2c24 119 114 169 242 169c129 0 202 -52 202 -151c0 -29 -3 -50 -10 -83l-45 -221c-3 -17 -5 -30 -5 -42s1 -22 5 -30l-1 -3h-123l6 44h-1c-13 -13 -31 -26 -54 -39s-56 -19 -101 -19c-108 0 -177 62 -177 147c0 79 47 124 116 149c53 20 118 31 186 40
l23 3c39 5 52 19 52 50c0 36 -30 60 -87 60c-53 0 -92 -23 -107 -76zM234 85c43 0 93 19 117 64c5 9 8 19 13 44l14 64c-12 -8 -36 -16 -73 -24l-39 -9c-43 -9 -72 -17 -91 -32c-14 -11 -21 -26 -21 -47c0 -39 31 -60 80 -60zM489 571h-112l-32 62l-58 -62h-118l115 129h136
z" />
    <glyph glyph-name="atilde" unicode="&#xe3;" horiz-adv-x="562" 
d="M199 359l-121 2c24 119 114 169 242 169c129 0 202 -52 202 -151c0 -29 -3 -50 -10 -83l-45 -221c-3 -17 -5 -30 -5 -42s1 -22 5 -30l-1 -3h-123l6 44h-1c-13 -13 -31 -26 -54 -39s-56 -19 -101 -19c-108 0 -177 62 -177 147c0 79 47 124 116 149c53 20 118 31 186 40
l23 3c39 5 52 19 52 50c0 36 -30 60 -87 60c-53 0 -92 -23 -107 -76zM234 85c43 0 93 19 117 64c5 9 8 19 13 44l14 64c-12 -8 -36 -16 -73 -24l-39 -9c-43 -9 -72 -17 -91 -32c-14 -11 -21 -26 -21 -47c0 -39 31 -60 80 -60zM240 586h-77c11 72 50 114 111 114
c27 0 53 -7 80 -14c20 -5 40 -10 55 -10c19 0 36 8 41 24h77c-9 -72 -48 -114 -111 -114c-27 0 -53 9 -80 14c-20 5 -40 9 -55 9c-17 0 -34 -7 -41 -23z" />
    <glyph glyph-name="adieresis" unicode="&#xe4;" horiz-adv-x="562" 
d="M199 359l-121 2c24 119 114 169 242 169c129 0 202 -52 202 -151c0 -29 -3 -50 -10 -83l-45 -221c-3 -17 -5 -30 -5 -42s1 -22 5 -30l-1 -3h-123l6 44h-1c-13 -13 -31 -26 -54 -39s-56 -19 -101 -19c-108 0 -177 62 -177 147c0 79 47 124 116 149c53 20 118 31 186 40
l23 3c39 5 52 19 52 50c0 36 -30 60 -87 60c-53 0 -92 -23 -107 -76zM234 85c43 0 93 19 117 64c5 9 8 19 13 44l14 64c-12 -8 -36 -16 -73 -24l-39 -9c-43 -9 -72 -17 -91 -32c-14 -11 -21 -26 -21 -47c0 -39 31 -60 80 -60zM313 700l-25 -117h-130l25 117h130zM532 700
l-25 -117h-130l25 117h130z" />
    <glyph glyph-name="amacron" unicode="&#x101;" horiz-adv-x="562" 
d="M199 359l-121 2c24 119 114 169 242 169c129 0 202 -52 202 -151c0 -29 -3 -50 -10 -83l-45 -221c-3 -17 -5 -30 -5 -42s1 -22 5 -30l-1 -3h-123l6 44h-1c-13 -13 -31 -26 -54 -39s-56 -19 -101 -19c-108 0 -177 62 -177 147c0 79 47 124 116 149c53 20 118 31 186 40
l23 3c39 5 52 19 52 50c0 36 -30 60 -87 60c-53 0 -92 -23 -107 -76zM234 85c43 0 93 19 117 64c5 9 8 19 13 44l14 64c-12 -8 -36 -16 -73 -24l-39 -9c-43 -9 -72 -17 -91 -32c-14 -11 -21 -26 -21 -47c0 -39 31 -60 80 -60zM176 587l19 90h307l-19 -90h-307z" />
    <glyph glyph-name="abreve" unicode="&#x103;" horiz-adv-x="562" 
d="M199 359l-121 2c24 119 114 169 242 169c129 0 202 -52 202 -151c0 -29 -3 -50 -10 -83l-45 -221c-3 -17 -5 -30 -5 -42s1 -22 5 -30l-1 -3h-123l6 44h-1c-13 -13 -31 -26 -54 -39s-56 -19 -101 -19c-108 0 -177 62 -177 147c0 79 47 124 116 149c53 20 118 31 186 40
l23 3c39 5 52 19 52 50c0 36 -30 60 -87 60c-53 0 -92 -23 -107 -76zM234 85c43 0 93 19 117 64c5 9 8 19 13 44l14 64c-12 -8 -36 -16 -73 -24l-39 -9c-43 -9 -72 -17 -91 -32c-14 -11 -21 -26 -21 -47c0 -39 31 -60 80 -60zM169 656l74 54c27 -32 68 -46 107 -46
c47 0 92 19 123 46l56 -57c-49 -57 -117 -87 -189 -87c-71 0 -143 34 -171 90z" />
    <glyph glyph-name="aring" unicode="&#xe5;" horiz-adv-x="562" 
d="M199 359l-121 2c24 119 114 169 242 169c129 0 202 -52 202 -151c0 -29 -3 -50 -10 -83l-45 -221c-3 -17 -5 -30 -5 -42s1 -22 5 -30l-1 -3h-123l6 44h-1c-13 -13 -31 -26 -54 -39s-56 -19 -101 -19c-108 0 -177 62 -177 147c0 79 47 124 116 149c53 20 118 31 186 40
l23 3c39 5 52 19 52 50c0 36 -30 60 -87 60c-53 0 -92 -23 -107 -76zM234 85c43 0 93 19 117 64c5 9 8 19 13 44l14 64c-12 -8 -36 -16 -73 -24l-39 -9c-43 -9 -72 -17 -91 -32c-14 -11 -21 -26 -21 -47c0 -39 31 -60 80 -60zM335 723c47 0 83 -36 83 -83
c0 -45 -36 -84 -83 -84c-45 0 -84 39 -84 84c0 47 39 83 84 83zM335 676c-20 0 -36 -16 -36 -36s16 -36 36 -36s36 16 36 36s-16 36 -36 36z" />
    <glyph glyph-name="aringacute" unicode="&#x1fb;" horiz-adv-x="562" 
d="M199 359l-121 2c24 119 114 169 242 169c129 0 202 -52 202 -151c0 -29 -3 -50 -10 -83l-45 -221c-3 -17 -5 -30 -5 -42s1 -22 5 -30l-1 -3h-123l6 44h-1c-13 -13 -31 -26 -54 -39s-56 -19 -101 -19c-108 0 -177 62 -177 147c0 79 47 124 116 149c53 20 118 31 186 40
l23 3c39 5 52 19 52 50c0 36 -30 60 -87 60c-53 0 -92 -23 -107 -76zM234 85c43 0 93 19 117 64c5 9 8 19 13 44l14 64c-12 -8 -36 -16 -73 -24l-39 -9c-43 -9 -72 -17 -91 -32c-14 -11 -21 -26 -21 -47c0 -39 31 -60 80 -60zM346 723c47 0 83 -36 83 -83
c0 -45 -36 -84 -83 -84c-45 0 -84 39 -84 84c0 47 39 83 84 83zM346 676c-20 0 -36 -16 -36 -36s16 -36 36 -36s36 16 36 36s-16 36 -36 36zM551 881l-135 -129h-111l76 129h170z" />
    <glyph glyph-name="aogonek" unicode="&#x105;" horiz-adv-x="562" 
d="M199 359l-121 2c24 119 114 169 242 169c129 0 202 -52 202 -151c0 -29 -3 -50 -10 -83l-45 -221c-3 -17 -5 -30 -5 -42s1 -22 5 -30l-1 -3h-123l6 44h-1c-13 -13 -31 -26 -54 -39s-56 -19 -101 -19c-108 0 -177 62 -177 147c0 79 47 124 116 149c53 20 118 31 186 40
l23 3c39 5 52 19 52 50c0 36 -30 60 -87 60c-53 0 -92 -23 -107 -76zM234 85c43 0 93 19 117 64c5 9 8 19 13 44l14 64c-12 -8 -36 -16 -73 -24l-39 -9c-43 -9 -72 -17 -91 -32c-14 -11 -21 -26 -21 -47c0 -39 31 -60 80 -60zM414 0h52c-61 -45 -78 -77 -78 -104
c0 -25 15 -37 35 -37c16 0 30 10 42 29l41 -14c-11 -35 -39 -68 -94 -68c-68 0 -92 41 -92 78c0 39 31 83 94 116z" />
    <glyph glyph-name="ae" unicode="&#xe6;" horiz-adv-x="894" 
d="M857 222h-377v-7c0 -83 46 -124 111 -124c51 0 83 24 107 59h141c-41 -96 -129 -165 -254 -165c-73 0 -134 26 -175 71h-5c-32 -26 -90 -70 -200 -70c-127 0 -189 62 -189 147c0 79 47 124 116 149c53 20 112 31 180 40l23 3c39 5 52 19 52 50c0 36 -28 60 -85 60
c-53 0 -88 -23 -103 -76l-121 2c24 119 110 169 238 169c75 0 126 -18 155 -53c43 35 98 55 161 55c162 0 229 -107 229 -252c0 -19 -1 -39 -4 -58zM625 432c-72 0 -116 -47 -131 -118h237c-1 79 -42 118 -106 118zM230 85c43 0 91 19 115 64c5 9 8 19 13 44l14 64
c-13 -9 -35 -15 -71 -23l-39 -9c-43 -9 -68 -18 -87 -33c-14 -11 -21 -26 -21 -47c0 -40 25 -60 76 -60z" />
    <glyph glyph-name="aeacute" unicode="&#x1fd;" horiz-adv-x="894" 
d="M857 222h-377v-7c0 -83 46 -124 111 -124c51 0 83 24 107 59h141c-41 -96 -129 -165 -254 -165c-73 0 -134 26 -175 71h-5c-32 -26 -90 -70 -200 -70c-127 0 -189 62 -189 147c0 79 47 124 116 149c53 20 112 31 180 40l23 3c39 5 52 19 52 50c0 36 -28 60 -85 60
c-53 0 -88 -23 -103 -76l-121 2c24 119 110 169 238 169c75 0 126 -18 155 -53c43 35 98 55 161 55c162 0 229 -107 229 -252c0 -19 -1 -39 -4 -58zM625 432c-72 0 -116 -47 -131 -118h237c-1 79 -42 118 -106 118zM230 85c43 0 91 19 115 64c5 9 8 19 13 44l14 64
c-13 -9 -35 -15 -71 -23l-39 -9c-43 -9 -68 -18 -87 -33c-14 -11 -21 -26 -21 -47c0 -40 25 -60 76 -60zM665 700l-135 -129h-111l76 129h170z" />
    <glyph glyph-name="cacute" unicode="&#x107;" horiz-adv-x="559" 
d="M524 174c-34 -108 -128 -188 -258 -188c-136 0 -232 83 -232 234c0 168 104 310 284 310c127 0 214 -69 223 -188h-128c-11 57 -44 85 -100 85c-100 0 -144 -112 -144 -212c0 -84 40 -125 105 -125c57 0 94 35 117 84h133zM523 700l-135 -129h-111l76 129h170z" />
    <glyph glyph-name="ccircumflex" unicode="&#x109;" horiz-adv-x="559" 
d="M524 174c-34 -108 -128 -188 -258 -188c-136 0 -232 83 -232 234c0 168 104 310 284 310c127 0 214 -69 223 -188h-128c-11 57 -44 85 -100 85c-100 0 -144 -112 -144 -212c0 -84 40 -125 105 -125c57 0 94 35 117 84h133zM499 571h-112l-32 62l-58 -62h-118l115 129h136
z" />
    <glyph glyph-name="ccaron" unicode="&#x10d;" horiz-adv-x="559" 
d="M524 174c-34 -108 -128 -188 -258 -188c-136 0 -232 83 -232 234c0 168 104 310 284 310c127 0 214 -69 223 -188h-128c-11 57 -44 85 -100 85c-100 0 -144 -112 -144 -212c0 -84 40 -125 105 -125c57 0 94 35 117 84h133zM262 571l-69 129h112l32 -62l58 62h118
l-115 -129h-136z" />
    <glyph glyph-name="cdotaccent" unicode="&#x10b;" horiz-adv-x="559" 
d="M524 174c-34 -108 -128 -188 -258 -188c-136 0 -232 83 -232 234c0 168 104 310 284 310c127 0 214 -69 223 -188h-128c-11 57 -44 85 -100 85c-100 0 -144 -112 -144 -212c0 -84 40 -125 105 -125c57 0 94 35 117 84h133zM431 700l-25 -117h-130l25 117h130z" />
    <glyph glyph-name="ccedilla" unicode="&#xe7;" horiz-adv-x="559" 
d="M524 174c-34 -108 -128 -188 -258 -188c-136 0 -232 83 -232 234c0 168 104 310 284 310c127 0 214 -69 223 -188h-128c-11 57 -44 85 -100 85c-100 0 -144 -112 -144 -212c0 -84 40 -125 105 -125c57 0 94 35 117 84h133zM232 7l45 -7l-40 -43l1 -2c7 1 16 2 25 2
c33 0 79 -15 79 -67c0 -60 -56 -84 -108 -84c-37 0 -68 8 -94 23l18 40c16 -9 38 -19 66 -19s46 15 46 36c0 23 -18 35 -43 35c-11 0 -22 -3 -34 -8l-21 21z" />
    <glyph glyph-name="dslash" unicode="&#x111;" horiz-adv-x="613" 
d="M367 578l19 87h115l8 35h133l-8 -35h50l-19 -87h-49l-123 -578h-127l12 58h-1c-28 -36 -82 -71 -154 -71c-113 0 -191 90 -191 220c0 187 129 325 278 325c79 0 131 -33 151 -61l22 107h-116zM321 428c-100 0 -154 -101 -154 -214c0 -76 35 -123 100 -123
c115 0 158 121 158 218c0 71 -47 119 -104 119z" />
    <glyph glyph-name="dcaron" unicode="&#x10f;" horiz-adv-x="625" 
d="M493 0h-127l12 58h-1c-28 -36 -82 -71 -154 -71c-113 0 -191 90 -191 220c0 186 129 324 278 324c79 0 131 -32 151 -60l48 229h133zM321 428c-100 0 -154 -101 -154 -214c0 -76 35 -123 100 -123c115 0 158 121 158 218c0 71 -47 119 -104 119zM714 700h141l-92 -156
h-113z" />
    <glyph glyph-name="eth" unicode="&#xf0;" horiz-adv-x="595" 
d="M187 604l104 54c-21 12 -44 21 -67 29l103 58c20 -9 43 -19 66 -34l85 44l30 -55l-59 -31c65 -57 119 -151 119 -300c0 -153 -53 -381 -303 -381c-126 0 -231 81 -231 234c0 164 108 308 283 308c47 0 92 -10 128 -45l4 2c-13 51 -51 95 -98 131l-136 -71zM318 428
c-102 0 -149 -112 -149 -211c0 -84 43 -126 108 -126c103 0 149 113 149 214c0 83 -43 123 -108 123z" />
    <glyph glyph-name="egrave" unicode="&#xe8;" horiz-adv-x="585" 
d="M548 222h-384v-7c0 -81 49 -123 114 -123c51 0 87 23 111 58h141c-41 -95 -133 -163 -258 -163c-140 0 -239 88 -239 233c0 174 116 311 286 311c162 0 233 -107 233 -251c0 -19 -1 -39 -4 -58zM312 433c-72 0 -120 -48 -135 -119h245c-1 80 -46 119 -110 119zM181 700
h169l51 -129h-109z" />
    <glyph glyph-name="eacute" unicode="&#xe9;" horiz-adv-x="585" 
d="M548 222h-384v-7c0 -81 49 -123 114 -123c51 0 87 23 111 58h141c-41 -95 -133 -163 -258 -163c-140 0 -239 88 -239 233c0 174 116 311 286 311c162 0 233 -107 233 -251c0 -19 -1 -39 -4 -58zM312 433c-72 0 -120 -48 -135 -119h245c-1 80 -46 119 -110 119zM510 700
l-135 -129h-111l76 129h170z" />
    <glyph glyph-name="ecircumflex" unicode="&#xea;" horiz-adv-x="585" 
d="M548 222h-384v-7c0 -81 49 -123 114 -123c51 0 87 23 111 58h141c-41 -95 -133 -163 -258 -163c-140 0 -239 88 -239 233c0 174 116 311 286 311c162 0 233 -107 233 -251c0 -19 -1 -39 -4 -58zM312 433c-72 0 -120 -48 -135 -119h245c-1 80 -46 119 -110 119zM494 571
h-112l-32 62l-58 -62h-118l115 129h136z" />
    <glyph glyph-name="ecaron" unicode="&#x11b;" horiz-adv-x="585" 
d="M548 222h-384v-7c0 -81 49 -123 114 -123c51 0 87 23 111 58h141c-41 -95 -133 -163 -258 -163c-140 0 -239 88 -239 233c0 174 116 311 286 311c162 0 233 -107 233 -251c0 -19 -1 -39 -4 -58zM312 433c-72 0 -120 -48 -135 -119h245c-1 80 -46 119 -110 119zM264 571
l-69 129h112l32 -62l58 62h118l-115 -129h-136z" />
    <glyph glyph-name="edieresis" unicode="&#xeb;" horiz-adv-x="585" 
d="M548 222h-384v-7c0 -81 49 -123 114 -123c51 0 87 23 111 58h141c-41 -95 -133 -163 -258 -163c-140 0 -239 88 -239 233c0 174 116 311 286 311c162 0 233 -107 233 -251c0 -19 -1 -39 -4 -58zM312 433c-72 0 -120 -48 -135 -119h245c-1 80 -46 119 -110 119zM324 700
l-25 -117h-130l25 117h130zM543 700l-25 -117h-130l25 117h130z" />
    <glyph glyph-name="emacron" unicode="&#x113;" horiz-adv-x="585" 
d="M548 222h-384v-7c0 -81 49 -123 114 -123c51 0 87 23 111 58h141c-41 -95 -133 -163 -258 -163c-140 0 -239 88 -239 233c0 174 116 311 286 311c162 0 233 -107 233 -251c0 -19 -1 -39 -4 -58zM312 433c-72 0 -120 -48 -135 -119h245c-1 80 -46 119 -110 119zM182 587
l19 90h307l-19 -90h-307z" />
    <glyph glyph-name="ebreve" unicode="&#x115;" horiz-adv-x="585" 
d="M548 222h-384v-7c0 -81 49 -123 114 -123c51 0 87 23 111 58h141c-41 -95 -133 -163 -258 -163c-140 0 -239 88 -239 233c0 174 116 311 286 311c162 0 233 -107 233 -251c0 -19 -1 -39 -4 -58zM312 433c-72 0 -120 -48 -135 -119h245c-1 80 -46 119 -110 119zM165 656
l74 54c27 -32 68 -46 107 -46c47 0 92 19 123 46l56 -57c-49 -57 -117 -87 -189 -87c-71 0 -143 34 -171 90z" />
    <glyph glyph-name="edotaccent" unicode="&#x117;" horiz-adv-x="585" 
d="M548 222h-384v-7c0 -81 49 -123 114 -123c51 0 87 23 111 58h141c-41 -95 -133 -163 -258 -163c-140 0 -239 88 -239 233c0 174 116 311 286 311c162 0 233 -107 233 -251c0 -19 -1 -39 -4 -58zM312 433c-72 0 -120 -48 -135 -119h245c-1 80 -46 119 -110 119zM426 700
l-25 -117h-130l25 117h130z" />
    <glyph glyph-name="eogonek" unicode="&#x119;" horiz-adv-x="585" 
d="M548 222h-384v-7c0 -81 49 -123 114 -123c51 0 87 23 111 58h141c-41 -95 -133 -163 -258 -163c-140 0 -239 88 -239 233c0 174 116 311 286 311c162 0 233 -107 233 -251c0 -19 -1 -39 -4 -58zM312 433c-72 0 -120 -48 -135 -119h245c-1 80 -46 119 -110 119zM309 0h52
c-61 -45 -78 -77 -78 -104c0 -25 15 -37 35 -37c16 0 30 10 42 29l41 -14c-11 -35 -39 -68 -94 -68c-68 0 -92 41 -92 78c0 39 31 83 94 116z" />
    <glyph glyph-name="gcircumflex" unicode="&#x11d;" horiz-adv-x="608" 
d="M369 58c4 21 8 33 11 42h-3c-25 -32 -70 -63 -145 -63c-100 0 -192 67 -192 209c0 164 116 285 264 285c79 0 128 -35 148 -59h2l10 43h132l-102 -488c-29 -143 -118 -209 -270 -209c-139 0 -222 58 -222 163h136c2 -42 34 -63 97 -63c76 0 116 44 132 129zM320 427
c-94 0 -148 -80 -148 -176c0 -75 38 -111 102 -111c94 0 149 81 149 176c0 75 -39 111 -103 111zM512 571h-112l-32 62l-58 -62h-118l115 129h136z" />
    <glyph glyph-name="gbreve" unicode="&#x11f;" horiz-adv-x="608" 
d="M369 58c4 21 8 33 11 42h-3c-25 -32 -70 -63 -145 -63c-100 0 -192 67 -192 209c0 164 116 285 264 285c79 0 128 -35 148 -59h2l10 43h132l-102 -488c-29 -143 -118 -209 -270 -209c-139 0 -222 58 -222 163h136c2 -42 34 -63 97 -63c76 0 116 44 132 129zM320 427
c-94 0 -148 -80 -148 -176c0 -75 38 -111 102 -111c94 0 149 81 149 176c0 75 -39 111 -103 111zM184 656l74 54c27 -32 68 -46 107 -46c47 0 92 19 123 46l56 -57c-49 -57 -117 -87 -189 -87c-71 0 -143 34 -171 90z" />
    <glyph glyph-name="gdotaccent" unicode="&#x121;" horiz-adv-x="608" 
d="M369 58c4 21 8 33 11 42h-3c-25 -32 -70 -63 -145 -63c-100 0 -192 67 -192 209c0 164 116 285 264 285c79 0 128 -35 148 -59h2l10 43h132l-102 -488c-29 -143 -118 -209 -270 -209c-139 0 -222 58 -222 163h136c2 -42 34 -63 97 -63c76 0 116 44 132 129zM320 427
c-94 0 -148 -80 -148 -176c0 -75 38 -111 102 -111c94 0 149 81 149 176c0 75 -39 111 -103 111zM432 700l-25 -117h-130l25 117h130z" />
    <glyph glyph-name="uni0123" unicode="&#x123;" horiz-adv-x="608" 
d="M369 58c4 21 8 33 11 42h-3c-25 -32 -70 -63 -145 -63c-100 0 -192 67 -192 209c0 164 116 285 264 285c79 0 128 -35 148 -59h2l10 43h132l-102 -488c-29 -143 -118 -209 -270 -209c-139 0 -222 58 -222 163h136c2 -42 34 -63 97 -63c76 0 116 44 132 129zM320 427
c-94 0 -148 -80 -148 -176c0 -75 38 -111 102 -111c94 0 149 81 149 176c0 75 -39 111 -103 111zM404 647l-20 -95h-99l19 91c7 34 20 59 39 75c21 19 49 31 84 36l-10 -46c-28 -5 -52 -27 -59 -56l-1 -5h47z" />
    <glyph glyph-name="hcircumflex" unicode="&#x125;" horiz-adv-x="595" 
d="M161 700h133l-32 -148l-20 -90h1c28 37 80 69 151 69c104 0 160 -60 160 -151c0 -25 -3 -51 -10 -82l-64 -298h-133l59 276c5 24 9 46 9 67c0 45 -26 78 -81 78c-37 0 -63 -15 -83 -36c-23 -25 -36 -60 -45 -101l-61 -284h-133zM558 746h-112l-32 62l-58 -62h-118
l115 129h136z" />
    <glyph glyph-name="hbar" unicode="&#x127;" horiz-adv-x="595" 
d="M383 578h-116l-25 -116h1c28 37 80 69 151 69c104 0 160 -60 160 -151c0 -25 -3 -51 -10 -82l-64 -298h-133l59 276c5 24 9 46 9 67c0 47 -26 79 -81 79c-37 0 -63 -16 -83 -37c-23 -25 -36 -60 -45 -101l-61 -284h-133l123 578h-50l18 87h50l8 35h133l-8 -35h115z" />
    <glyph glyph-name="dotlessi" unicode="&#x131;" horiz-adv-x="264" 
d="M12 0l109 515h133l-110 -515h-132z" />
    <glyph glyph-name="i.latn_TRK" horiz-adv-x="264" 
d="M12 0l109 515h133l-110 -515h-132zM288 700l-25 -117h-130l25 117h130z" />
    <glyph glyph-name="igrave" unicode="&#xec;" horiz-adv-x="264" 
d="M12 0l109 515h133l-110 -515h-132zM35 700h169l51 -129h-109z" />
    <glyph glyph-name="iacute" unicode="&#xed;" horiz-adv-x="264" 
d="M12 0l109 515h133l-110 -515h-132zM393 700l-135 -129h-111l76 129h170z" />
    <glyph glyph-name="icircumflex" unicode="&#xee;" horiz-adv-x="264" 
d="M12 0l109 515h133l-110 -515h-132zM351 571h-112l-32 62l-58 -62h-118l115 129h136z" />
    <glyph glyph-name="itilde" unicode="&#x129;" horiz-adv-x="264" 
d="M12 0l109 515h133l-110 -515h-132zM92 586h-77c11 72 50 114 111 114c27 0 53 -7 80 -14c20 -5 40 -10 55 -10c19 0 36 8 41 24h77c-9 -72 -48 -114 -111 -114c-27 0 -53 9 -80 14c-20 5 -40 9 -55 9c-17 0 -34 -7 -41 -23z" />
    <glyph glyph-name="idieresis" unicode="&#xef;" horiz-adv-x="264" 
d="M12 0l109 515h133l-110 -515h-132zM181 700l-25 -117h-130l25 117h130zM400 700l-25 -117h-130l25 117h130z" />
    <glyph glyph-name="imacron" unicode="&#x12b;" horiz-adv-x="264" 
d="M12 0l109 515h133l-110 -515h-132zM43 587l19 90h307l-19 -90h-307z" />
    <glyph glyph-name="ibreve" unicode="&#x12d;" horiz-adv-x="264" 
d="M12 0l109 515h133l-110 -515h-132zM28 656l74 54c27 -32 68 -46 107 -46c47 0 92 19 123 46l56 -57c-49 -57 -117 -87 -189 -87c-71 0 -143 34 -171 90z" />
    <glyph glyph-name="iogonek" unicode="&#x12f;" horiz-adv-x="264" 
d="M135 585l25 115h133l-25 -115h-133zM12 0l109 515h133l-110 -515h-132zM64 0h52c-61 -45 -78 -77 -78 -104c0 -25 15 -37 35 -37c16 0 30 10 42 29l41 -14c-11 -35 -39 -68 -94 -68c-68 0 -92 41 -92 78c0 39 31 83 94 116z" />
    <glyph glyph-name="uni0237" unicode="&#x237;" horiz-adv-x="264" 
d="M121 515h133l-115 -539c-9 -41 -18 -78 -46 -106c-40 -40 -97 -42 -181 -42h-22l21 98h10c33 0 53 2 68 17c11 11 18 30 23 57z" />
    <glyph glyph-name="ij" unicode="&#x133;" horiz-adv-x="506" 
d="M135 585l25 115h133l-25 -115h-133zM12 0l109 515h133l-110 -515h-132zM377 585l24 115h133l-24 -115h-133zM363 515h133l-115 -539c-9 -41 -18 -78 -46 -106c-40 -40 -97 -42 -181 -42h-22l21 98h10c33 0 53 2 68 17c11 11 18 30 23 57z" />
    <glyph glyph-name="jcircumflex" unicode="&#x135;" horiz-adv-x="264" 
d="M121 515h133l-115 -539c-9 -41 -18 -78 -46 -106c-40 -40 -97 -42 -181 -42h-22l21 98h10c33 0 53 2 68 17c11 11 18 30 23 57zM352 571h-112l-32 62l-58 -62h-118l115 129h136z" />
    <glyph glyph-name="uni0137" unicode="&#x137;" horiz-adv-x="549" 
d="M12 0l148 700h133l-55 -257l-10 -50c-3 -16 -9 -39 -16 -70h1l223 192h165l-242 -198l145 -317h-149l-99 234l-75 -62l-37 -172h-132zM174 -141l20 95h99l-19 -91c-7 -34 -20 -59 -39 -75c-21 -19 -49 -31 -84 -36l10 46c28 5 54 27 59 56l1 5h-47z" />
    <glyph glyph-name="kgreenlandic" unicode="&#x138;" horiz-adv-x="549" 
d="M121 515h132l-15 -72l-10 -50c-3 -16 -9 -39 -16 -70h1l223 192h165l-242 -198l145 -317h-149l-99 234l-75 -62l-37 -172h-132z" />
    <glyph glyph-name="lacute" unicode="&#x13a;" horiz-adv-x="264" 
d="M12 0l148 700h133l-149 -700h-132zM426 875l-135 -129h-111l76 129h170z" />
    <glyph glyph-name="lcaron" unicode="&#x13e;" horiz-adv-x="276" 
d="M12 0l148 700h133l-149 -700h-132zM365 700h141l-92 -156h-113z" />
    <glyph glyph-name="ldot" unicode="&#x140;" horiz-adv-x="363" 
d="M12 0l148 700h133l-149 -700h-132zM416 430l-25 -117h-130l25 117h130z" />
    <glyph glyph-name="ldot.latn_CAT" horiz-adv-x="363" 
d="M12 0l148 700h133l-149 -700h-132zM416 430l-25 -117h-130l25 117h130z" />
    <glyph glyph-name="lslash" unicode="&#x142;" horiz-adv-x="341" 
d="M50 0l57 273l-79 -26l22 104l79 26l69 323h133l-59 -277l79 26l-22 -104l-79 -26l-68 -319h-132z" />
    <glyph glyph-name="uni013C" unicode="&#x13c;" horiz-adv-x="264" 
d="M12 0l148 700h133l-149 -700h-132zM2 -141l20 95h99l-19 -91c-7 -34 -20 -59 -39 -75c-21 -19 -49 -31 -84 -36l10 46c28 5 54 27 59 56l1 5h-47z" />
    <glyph glyph-name="uni0146" unicode="&#x146;" horiz-adv-x="595" 
d="M334 422c-37 0 -63 -16 -83 -37c-23 -25 -36 -60 -45 -101l-61 -284h-133l110 515h128l-13 -57h1c28 37 81 73 156 73c104 0 160 -60 160 -151c0 -25 -3 -51 -10 -82l-64 -298h-133l59 276c5 24 9 46 9 67c0 47 -26 79 -81 79zM162 -141l20 95h99l-19 -91
c-7 -34 -20 -59 -39 -75c-21 -19 -49 -31 -84 -36l10 46c28 5 54 27 59 56l1 5h-47z" />
    <glyph glyph-name="nacute" unicode="&#x144;" horiz-adv-x="595" 
d="M334 422c-37 0 -63 -16 -83 -37c-23 -25 -36 -60 -45 -101l-61 -284h-133l110 515h128l-13 -57h1c28 37 81 73 156 73c104 0 160 -60 160 -151c0 -25 -3 -51 -10 -82l-64 -298h-133l59 276c5 24 9 46 9 67c0 47 -26 79 -81 79zM533 700l-135 -129h-111l76 129h170z" />
    <glyph glyph-name="ncaron" unicode="&#x148;" horiz-adv-x="595" 
d="M334 422c-37 0 -63 -16 -83 -37c-23 -25 -36 -60 -45 -101l-61 -284h-133l110 515h128l-13 -57h1c28 37 81 73 156 73c104 0 160 -60 160 -151c0 -25 -3 -51 -10 -82l-64 -298h-133l59 276c5 24 9 46 9 67c0 47 -26 79 -81 79zM289 571l-69 129h112l32 -62l58 62h118
l-115 -129h-136z" />
    <glyph glyph-name="ntilde" unicode="&#xf1;" horiz-adv-x="595" 
d="M334 422c-37 0 -63 -16 -83 -37c-23 -25 -36 -60 -45 -101l-61 -284h-133l110 515h128l-13 -57h1c28 37 81 73 156 73c104 0 160 -60 160 -151c0 -25 -3 -51 -10 -82l-64 -298h-133l59 276c5 24 9 46 9 67c0 47 -26 79 -81 79zM273 586h-77c11 72 50 114 111 114
c27 0 53 -7 80 -14c20 -5 40 -10 55 -10c19 0 36 8 41 24h77c-9 -72 -48 -114 -111 -114c-27 0 -53 9 -80 14c-20 5 -40 9 -55 9c-17 0 -34 -7 -41 -23z" />
    <glyph glyph-name="napostrophe" unicode="&#x149;" horiz-adv-x="622" 
d="M361 422c-37 0 -63 -16 -83 -37c-23 -25 -36 -60 -45 -101l-61 -284h-133l110 515h128l-13 -57h1c28 37 81 73 156 73c104 0 160 -60 160 -151c0 -25 -3 -51 -10 -82l-64 -298h-133l59 276c5 24 9 46 9 67c0 47 -26 79 -81 79zM66 604l20 95h99l-19 -91
c-7 -34 -20 -59 -39 -75c-21 -19 -49 -31 -84 -36l10 46c28 5 54 27 59 56l1 5h-47z" />
    <glyph glyph-name="eng" unicode="&#x14b;" horiz-adv-x="595" 
d="M406 276c5 24 9 46 9 67c0 45 -26 78 -81 78c-37 0 -63 -15 -83 -36c-23 -25 -36 -60 -45 -101l-61 -284h-133l110 515h128l-13 -57h1c28 37 81 73 156 73c104 0 160 -60 160 -151c0 -25 -3 -51 -10 -82l-69 -322c-9 -41 -18 -78 -46 -106c-40 -40 -97 -42 -181 -42h-22
l21 98h10c33 0 53 2 68 17c11 11 18 30 23 57z" />
    <glyph glyph-name="ograve" unicode="&#xf2;" horiz-adv-x="591" 
d="M270 -14c-138 0 -237 87 -237 229c0 171 106 315 290 315c144 0 236 -89 236 -228c0 -170 -105 -316 -289 -316zM317 427c-102 0 -149 -112 -149 -212c0 -84 43 -125 108 -125c103 0 149 114 149 213c0 83 -43 124 -108 124zM184 700h169l51 -129h-109z" />
    <glyph glyph-name="oacute" unicode="&#xf3;" horiz-adv-x="591" 
d="M270 -14c-138 0 -237 87 -237 229c0 171 106 315 290 315c144 0 236 -89 236 -228c0 -170 -105 -316 -289 -316zM317 427c-102 0 -149 -112 -149 -212c0 -84 43 -125 108 -125c103 0 149 114 149 213c0 83 -43 124 -108 124zM527 700l-135 -129h-111l76 129h170z" />
    <glyph glyph-name="ocircumflex" unicode="&#xf4;" horiz-adv-x="591" 
d="M270 -14c-138 0 -237 87 -237 229c0 171 106 315 290 315c144 0 236 -89 236 -228c0 -170 -105 -316 -289 -316zM317 427c-102 0 -149 -112 -149 -212c0 -84 43 -125 108 -125c103 0 149 114 149 213c0 83 -43 124 -108 124zM493 571h-112l-32 62l-58 -62h-118l115 129
h136z" />
    <glyph glyph-name="otilde" unicode="&#xf5;" horiz-adv-x="591" 
d="M270 -14c-138 0 -237 87 -237 229c0 171 106 315 290 315c144 0 236 -89 236 -228c0 -170 -105 -316 -289 -316zM317 427c-102 0 -149 -112 -149 -212c0 -84 43 -125 108 -125c103 0 149 114 149 213c0 83 -43 124 -108 124zM248 586h-77c11 72 50 114 111 114
c27 0 53 -7 80 -14c20 -5 40 -10 55 -10c19 0 36 8 41 24h77c-9 -72 -48 -114 -111 -114c-27 0 -53 9 -80 14c-20 5 -40 9 -55 9c-17 0 -34 -7 -41 -23z" />
    <glyph glyph-name="odieresis" unicode="&#xf6;" horiz-adv-x="591" 
d="M270 -14c-138 0 -237 87 -237 229c0 171 106 315 290 315c144 0 236 -89 236 -228c0 -170 -105 -316 -289 -316zM317 427c-102 0 -149 -112 -149 -212c0 -84 43 -125 108 -125c103 0 149 114 149 213c0 83 -43 124 -108 124zM325 700l-25 -117h-130l25 117h130zM544 700
l-25 -117h-130l25 117h130z" />
    <glyph glyph-name="omacron" unicode="&#x14d;" horiz-adv-x="591" 
d="M270 -14c-138 0 -237 87 -237 229c0 171 106 315 290 315c144 0 236 -89 236 -228c0 -170 -105 -316 -289 -316zM317 427c-102 0 -149 -112 -149 -212c0 -84 43 -125 108 -125c103 0 149 114 149 213c0 83 -43 124 -108 124zM188 587l19 90h307l-19 -90h-307z" />
    <glyph glyph-name="obreve" unicode="&#x14f;" horiz-adv-x="591" 
d="M270 -14c-138 0 -237 87 -237 229c0 171 106 315 290 315c144 0 236 -89 236 -228c0 -170 -105 -316 -289 -316zM317 427c-102 0 -149 -112 -149 -212c0 -84 43 -125 108 -125c103 0 149 114 149 213c0 83 -43 124 -108 124zM179 656l74 54c27 -32 68 -46 107 -46
c47 0 92 19 123 46l56 -57c-49 -57 -117 -87 -189 -87c-71 0 -143 34 -171 90z" />
    <glyph glyph-name="ohungarumlaut" unicode="&#x151;" horiz-adv-x="591" 
d="M270 -14c-138 0 -237 87 -237 229c0 171 106 315 290 315c144 0 236 -89 236 -228c0 -170 -105 -316 -289 -316zM317 427c-102 0 -149 -112 -149 -212c0 -84 43 -125 108 -125c103 0 149 114 149 213c0 83 -43 124 -108 124zM423 700l-135 -129h-105l76 129h164zM617 700
l-144 -129h-105l85 129h164z" />
    <glyph glyph-name="oe" unicode="&#x153;" horiz-adv-x="939" 
d="M902 222h-377v-7c0 -81 46 -123 111 -123c51 0 83 23 107 58h141c-41 -95 -129 -163 -254 -163c-75 0 -136 26 -177 71c-45 -44 -108 -71 -187 -71c-138 0 -232 86 -232 228c0 172 101 316 285 316c75 0 136 -27 175 -71c47 44 110 71 183 71c162 0 229 -107 229 -251
c0 -19 -1 -39 -4 -58zM670 433c-72 0 -116 -48 -131 -119h237c-1 80 -42 119 -106 119zM313 428c-103 0 -144 -114 -144 -213c0 -83 38 -124 103 -124c103 0 145 112 145 212c0 84 -39 125 -104 125z" />
    <glyph glyph-name="oslash" unicode="&#xf8;" horiz-adv-x="592" 
d="M271 -13c-55 0 -103 12 -142 37l-51 -53l-53 52l50 52c-25 37 -41 84 -41 140c0 172 106 316 290 316c61 0 112 -15 152 -45l53 55l53 -52l-56 -58c23 -36 34 -79 34 -129c0 -170 -105 -315 -289 -315zM318 428c-102 0 -149 -114 -149 -213c0 -15 1 -29 3 -41l221 228
c-19 17 -44 26 -75 26zM426 303c0 8 -1 17 -1 25l-214 -220c17 -11 39 -17 66 -17c103 0 149 112 149 212z" />
    <glyph glyph-name="oslashacute" unicode="&#x1ff;" horiz-adv-x="592" 
d="M506 700l-135 -129h-111l76 129h170zM271 -13c-55 0 -103 12 -142 37l-51 -53l-53 52l50 52c-25 37 -41 84 -41 140c0 172 106 316 290 316c61 0 112 -15 152 -45l53 55l53 -52l-56 -58c23 -36 34 -79 34 -129c0 -170 -105 -315 -289 -315zM318 428
c-102 0 -149 -114 -149 -213c0 -15 1 -29 3 -41l221 228c-19 17 -44 26 -75 26zM426 303c0 8 -1 17 -1 25l-214 -220c17 -11 39 -17 66 -17c103 0 149 112 149 212z" />
    <glyph glyph-name="thorn" unicode="&#xfe;" horiz-adv-x="614" 
d="M161 700h133l-26 -119c-5 -25 -12 -51 -27 -118h1c31 37 79 68 151 68c106 0 190 -78 190 -220c0 -186 -124 -324 -283 -324c-76 0 -126 31 -146 59l-45 -218h-133zM294 91c100 0 155 100 155 212c0 77 -34 125 -101 125c-115 0 -158 -122 -158 -220
c0 -69 47 -117 104 -117z" />
    <glyph glyph-name="racute" unicode="&#x155;" horiz-adv-x="362" 
d="M236 453h2c19 43 68 80 153 80h11l-26 -126c-9 1 -23 2 -32 2c-80 0 -122 -42 -143 -138l-58 -271h-131l109 515h128zM406 700l-135 -129h-111l76 129h170z" />
    <glyph glyph-name="rcaron" unicode="&#x159;" horiz-adv-x="362" 
d="M236 453h2c19 43 68 80 153 80h11l-26 -126c-9 1 -23 2 -32 2c-80 0 -122 -42 -143 -138l-58 -271h-131l109 515h128zM191 571l-69 129h112l32 -62l58 62h118l-115 -129h-136z" />
    <glyph glyph-name="uni0157" unicode="&#x157;" horiz-adv-x="362" 
d="M236 453h2c19 43 68 80 153 80h11l-26 -126c-9 1 -23 2 -32 2c-80 0 -122 -42 -143 -138l-58 -271h-131l109 515h128zM3 -141l20 95h99l-19 -91c-7 -34 -20 -59 -39 -75c-21 -19 -49 -31 -84 -36l10 46c28 5 54 27 59 56l1 5h-47z" />
    <glyph glyph-name="sacute" unicode="&#x15b;" horiz-adv-x="524" 
d="M500 361h-125c0 44 -29 76 -96 76c-57 0 -83 -23 -83 -52c0 -28 20 -41 69 -56l68 -21c77 -24 144 -57 144 -147c0 -125 -120 -174 -241 -174c-109 0 -225 39 -225 170v12h131c-6 -65 51 -88 102 -88c46 0 96 19 96 65c0 35 -30 47 -77 62l-73 24
c-81 27 -126 57 -126 137c0 109 103 161 220 161c115 0 216 -37 216 -169zM472 700l-135 -129h-111l76 129h170z" />
    <glyph glyph-name="scircumflex" unicode="&#x15d;" horiz-adv-x="524" 
d="M500 361h-125c0 44 -29 76 -96 76c-57 0 -83 -23 -83 -52c0 -28 20 -41 69 -56l68 -21c77 -24 144 -57 144 -147c0 -125 -120 -174 -241 -174c-109 0 -225 39 -225 170v12h131c-6 -65 51 -88 102 -88c46 0 96 19 96 65c0 35 -30 47 -77 62l-73 24
c-81 27 -126 57 -126 137c0 109 103 161 220 161c115 0 216 -37 216 -169zM459 571h-112l-32 62l-58 -62h-118l115 129h136z" />
    <glyph glyph-name="scaron" unicode="&#x161;" horiz-adv-x="524" 
d="M500 361h-125c0 44 -29 76 -96 76c-57 0 -83 -23 -83 -52c0 -28 20 -41 69 -56l68 -21c77 -24 144 -57 144 -147c0 -125 -120 -174 -241 -174c-109 0 -225 39 -225 170v12h131c-6 -65 51 -88 102 -88c46 0 96 19 96 65c0 35 -30 47 -77 62l-73 24
c-81 27 -126 57 -126 137c0 109 103 161 220 161c115 0 216 -37 216 -169zM227 571l-69 129h112l32 -62l58 62h118l-115 -129h-136z" />
    <glyph glyph-name="scedilla" unicode="&#x15f;" horiz-adv-x="524" 
d="M500 361h-125c0 44 -29 76 -96 76c-57 0 -83 -23 -83 -52c0 -28 20 -41 69 -56l68 -21c77 -24 144 -57 144 -147c0 -125 -120 -174 -241 -174c-109 0 -225 39 -225 170v12h131c-6 -65 51 -88 102 -88c46 0 96 19 96 65c0 35 -30 47 -77 62l-73 24
c-81 27 -126 57 -126 137c0 109 103 161 220 161c115 0 216 -37 216 -169zM214 7l45 -7l-40 -43l1 -2c7 1 16 2 25 2c33 0 79 -15 79 -67c0 -60 -56 -84 -108 -84c-37 0 -68 8 -94 23l18 40c16 -9 38 -19 66 -19s46 15 46 36c0 23 -18 35 -43 35c-11 0 -22 -3 -34 -8l-21 21
z" />
    <glyph glyph-name="uni0219" unicode="&#x219;" horiz-adv-x="524" 
d="M500 361h-125c0 44 -29 76 -96 76c-57 0 -83 -23 -83 -52c0 -28 20 -41 69 -56l68 -21c77 -24 144 -57 144 -147c0 -125 -120 -174 -241 -174c-109 0 -225 39 -225 170v12h131c-6 -65 51 -88 102 -88c46 0 96 19 96 65c0 35 -30 47 -77 62l-73 24
c-81 27 -126 57 -126 137c0 109 103 161 220 161c115 0 216 -37 216 -169zM150 -141l20 95h99l-19 -91c-7 -34 -20 -59 -39 -75c-21 -19 -49 -31 -84 -36l10 46c28 5 54 27 59 56l1 5h-47z" />
    <glyph glyph-name="germandbls" unicode="&#xdf;" horiz-adv-x="590" 
d="M12 0l104 493c17 81 39 132 83 169c40 34 97 51 170 51c119 0 209 -47 209 -158c0 -81 -51 -143 -131 -162v-2c69 -19 101 -84 101 -147c0 -160 -118 -253 -274 -253c-22 0 -45 2 -68 6l22 105c14 -2 27 -3 40 -3c84 0 145 52 145 144c0 65 -35 98 -115 98h-18l19 85h27
c69 0 119 41 119 110c0 47 -34 77 -89 77c-33 0 -54 -9 -69 -24c-20 -20 -29 -52 -37 -91l-106 -498h-132z" />
    <glyph glyph-name="tcaron" unicode="&#x165;" horiz-adv-x="351" 
d="M63 423l20 92h67l35 159h131l-34 -159h92l-20 -92h-92l-53 -250c-4 -20 -6 -30 -6 -41c0 -15 5 -24 16 -29c7 -3 21 -5 42 -5h26l-20 -98h-58c-49 0 -80 2 -103 10c-29 10 -44 32 -44 66c0 16 5 42 10 69l59 278h-68zM384 700h141l-92 -156h-113z" />
    <glyph glyph-name="tbar" unicode="&#x167;" horiz-adv-x="355" 
d="M65 423l20 92h67l35 159h131l-34 -159h92l-20 -92h-92l-19 -91h93l-18 -87h-94l-15 -72c-4 -20 -6 -30 -6 -41c0 -15 5 -24 16 -29c7 -3 21 -5 42 -5h26l-20 -98h-58c-49 0 -80 2 -103 10c-29 10 -44 32 -44 66c0 16 5 42 10 69l21 100h-64l17 87h65l20 91h-68z" />
    <glyph glyph-name="uni021B" unicode="&#x21b;" horiz-adv-x="351" 
d="M63 423l20 92h67l35 159h131l-34 -159h92l-20 -92h-92l-53 -250c-4 -20 -6 -30 -6 -41c0 -15 5 -24 16 -29c7 -3 21 -5 42 -5h26l-20 -98h-58c-49 0 -80 2 -103 10c-29 10 -44 32 -44 66c0 16 5 42 10 69l59 278h-68zM89 -141l20 95h99l-19 -91c-7 -34 -20 -59 -39 -75
c-21 -19 -49 -31 -84 -36l10 46c28 5 54 27 59 56l1 5h-47z" />
    <glyph glyph-name="tcommaaccent" unicode="&#x163;" horiz-adv-x="351" 
d="M63 423l20 92h67l35 159h131l-34 -159h92l-20 -92h-92l-53 -250c-4 -20 -6 -30 -6 -41c0 -15 5 -24 16 -29c7 -3 21 -5 42 -5h26l-20 -98h-58c-49 0 -80 2 -103 10c-29 10 -44 32 -44 66c0 16 5 42 10 69l59 278h-68zM146 7l45 -7l-40 -43l1 -2c7 1 16 2 25 2
c33 0 79 -15 79 -67c0 -60 -56 -84 -108 -84c-37 0 -68 8 -94 23l18 40c16 -9 38 -19 66 -19s46 15 46 36c0 23 -18 35 -43 35c-11 0 -22 -3 -34 -8l-21 21z" />
    <glyph glyph-name="ugrave" unicode="&#xf9;" horiz-adv-x="591" 
d="M261 96c37 0 61 15 81 36c23 25 36 60 45 101l61 282h133l-111 -515h-128l14 59h-1c-28 -37 -79 -72 -154 -72c-104 0 -159 61 -159 150c0 27 5 53 10 82l64 296h133l-59 -274c-5 -24 -9 -46 -9 -67c0 -45 25 -78 80 -78zM197 700h169l51 -129h-109z" />
    <glyph glyph-name="uacute" unicode="&#xfa;" horiz-adv-x="591" 
d="M261 96c37 0 61 15 81 36c23 25 36 60 45 101l61 282h133l-111 -515h-128l14 59h-1c-28 -37 -79 -72 -154 -72c-104 0 -159 61 -159 150c0 27 5 53 10 82l64 296h133l-59 -274c-5 -24 -9 -46 -9 -67c0 -45 25 -78 80 -78zM531 700l-135 -129h-111l76 129h170z" />
    <glyph glyph-name="ucircumflex" unicode="&#xfb;" horiz-adv-x="591" 
d="M261 96c37 0 61 15 81 36c23 25 36 60 45 101l61 282h133l-111 -515h-128l14 59h-1c-28 -37 -79 -72 -154 -72c-104 0 -159 61 -159 150c0 27 5 53 10 82l64 296h133l-59 -274c-5 -24 -9 -46 -9 -67c0 -45 25 -78 80 -78zM517 571h-112l-32 62l-58 -62h-118l115 129h136z
" />
    <glyph glyph-name="utilde" unicode="&#x169;" horiz-adv-x="591" 
d="M261 96c37 0 61 15 81 36c23 25 36 60 45 101l61 282h133l-111 -515h-128l14 59h-1c-28 -37 -79 -72 -154 -72c-104 0 -159 61 -159 150c0 27 5 53 10 82l64 296h133l-59 -274c-5 -24 -9 -46 -9 -67c0 -45 25 -78 80 -78zM259 586h-77c11 72 50 114 111 114
c27 0 53 -7 80 -14c20 -5 40 -10 55 -10c19 0 36 8 41 24h77c-9 -72 -48 -114 -111 -114c-27 0 -53 9 -80 14c-20 5 -40 9 -55 9c-17 0 -34 -7 -41 -23z" />
    <glyph glyph-name="udieresis" unicode="&#xfc;" horiz-adv-x="591" 
d="M261 96c37 0 61 15 81 36c23 25 36 60 45 101l61 282h133l-111 -515h-128l14 59h-1c-28 -37 -79 -72 -154 -72c-104 0 -159 61 -159 150c0 27 5 53 10 82l64 296h133l-59 -274c-5 -24 -9 -46 -9 -67c0 -45 25 -78 80 -78zM347 700l-25 -117h-130l25 117h130zM566 700
l-25 -117h-130l25 117h130z" />
    <glyph glyph-name="umacron" unicode="&#x16b;" horiz-adv-x="591" 
d="M261 96c37 0 61 15 81 36c23 25 36 60 45 101l61 282h133l-111 -515h-128l14 59h-1c-28 -37 -79 -72 -154 -72c-104 0 -159 61 -159 150c0 27 5 53 10 82l64 296h133l-59 -274c-5 -24 -9 -46 -9 -67c0 -45 25 -78 80 -78zM207 587l19 90h307l-19 -90h-307z" />
    <glyph glyph-name="ubreve" unicode="&#x16d;" horiz-adv-x="591" 
d="M261 96c37 0 61 15 81 36c23 25 36 60 45 101l61 282h133l-111 -515h-128l14 59h-1c-28 -37 -79 -72 -154 -72c-104 0 -159 61 -159 150c0 27 5 53 10 82l64 296h133l-59 -274c-5 -24 -9 -46 -9 -67c0 -45 25 -78 80 -78zM184 656l74 54c27 -32 68 -46 107 -46
c47 0 92 19 123 46l56 -57c-49 -57 -117 -87 -189 -87c-71 0 -143 34 -171 90z" />
    <glyph glyph-name="uring" unicode="&#x16f;" horiz-adv-x="591" 
d="M261 96c37 0 61 15 81 36c23 25 36 60 45 101l61 282h133l-111 -515h-128l14 59h-1c-28 -37 -79 -72 -154 -72c-104 0 -159 61 -159 150c0 27 5 53 10 82l64 296h133l-59 -274c-5 -24 -9 -46 -9 -67c0 -45 25 -78 80 -78zM364 723c47 0 83 -36 83 -83
c0 -45 -36 -84 -83 -84c-45 0 -84 39 -84 84c0 47 39 83 84 83zM364 676c-20 0 -36 -16 -36 -36s16 -36 36 -36s36 16 36 36s-16 36 -36 36z" />
    <glyph glyph-name="uhungarumlaut" unicode="&#x171;" horiz-adv-x="591" 
d="M261 96c37 0 61 15 81 36c23 25 36 60 45 101l61 282h133l-111 -515h-128l14 59h-1c-28 -37 -79 -72 -154 -72c-104 0 -159 61 -159 150c0 27 5 53 10 82l64 296h133l-59 -274c-5 -24 -9 -46 -9 -67c0 -45 25 -78 80 -78zM428 700l-135 -129h-105l76 129h164zM622 700
l-144 -129h-105l85 129h164z" />
    <glyph glyph-name="uogonek" unicode="&#x173;" horiz-adv-x="591" 
d="M261 96c37 0 61 15 81 36c23 25 36 60 45 101l61 282h133l-111 -515h-128l14 59h-1c-28 -37 -79 -72 -154 -72c-104 0 -159 61 -159 150c0 27 5 53 10 82l64 296h133l-59 -274c-5 -24 -9 -46 -9 -67c0 -45 25 -78 80 -78zM418 0h52c-61 -45 -78 -77 -78 -104
c0 -25 15 -37 35 -37c16 0 30 10 42 29l41 -14c-11 -35 -39 -68 -94 -68c-68 0 -92 41 -92 78c0 39 31 83 94 116z" />
    <glyph glyph-name="wcircumflex" unicode="&#x175;" horiz-adv-x="785" 
d="M62 515h132l11 -259l2 -58c1 -22 2 -39 2 -50h2c8 19 30 68 47 104l122 263h133l11 -263c1 -33 4 -69 5 -102h2c15 31 30 66 47 103l122 262h136l-270 -515h-136l-12 240c-1 40 -3 80 -3 109h-2c-13 -29 -28 -64 -49 -108l-113 -241h-141zM614 571h-112l-32 62l-58 -62
h-118l115 129h136z" />
    <glyph glyph-name="wgrave" unicode="&#x1e81;" horiz-adv-x="785" 
d="M62 515h132l11 -259l2 -58c1 -22 2 -39 2 -50h2c8 19 30 68 47 104l122 263h133l11 -263c1 -33 4 -69 5 -102h2c15 31 30 66 47 103l122 262h136l-270 -515h-136l-12 240c-1 40 -3 80 -3 109h-2c-13 -29 -28 -64 -49 -108l-113 -241h-141zM292 700h169l51 -129h-109z" />
    <glyph glyph-name="wacute" unicode="&#x1e83;" horiz-adv-x="785" 
d="M62 515h132l11 -259l2 -58c1 -22 2 -39 2 -50h2c8 19 30 68 47 104l122 263h133l11 -263c1 -33 4 -69 5 -102h2c15 31 30 66 47 103l122 262h136l-270 -515h-136l-12 240c-1 40 -3 80 -3 109h-2c-13 -29 -28 -64 -49 -108l-113 -241h-141zM642 700l-135 -129h-111l76 129
h170z" />
    <glyph glyph-name="wdieresis" unicode="&#x1e85;" horiz-adv-x="785" 
d="M62 515h132l11 -259l2 -58c1 -22 2 -39 2 -50h2c8 19 30 68 47 104l122 263h133l11 -263c1 -33 4 -69 5 -102h2c15 31 30 66 47 103l122 262h136l-270 -515h-136l-12 240c-1 40 -3 80 -3 109h-2c-13 -29 -28 -64 -49 -108l-113 -241h-141zM438 700l-25 -117h-130l25 117
h130zM657 700l-25 -117h-130l25 117h130z" />
    <glyph glyph-name="ygrave" unicode="&#x1ef3;" horiz-adv-x="505" 
d="M61 515h132l21 -226c5 -52 11 -105 12 -149h2c23 51 49 106 68 142l122 233h139l-327 -572c-56 -99 -104 -116 -203 -116h-72l22 101h33c92 0 115 32 115 92c0 21 -3 45 -7 74zM144 700h169l51 -129h-109z" />
    <glyph glyph-name="yacute" unicode="&#xfd;" horiz-adv-x="505" 
d="M61 515h132l21 -226c5 -52 11 -105 12 -149h2c23 51 49 106 68 142l122 233h139l-327 -572c-56 -99 -104 -116 -203 -116h-72l22 101h33c92 0 115 32 115 92c0 21 -3 45 -7 74zM482 700l-135 -129h-111l76 129h170z" />
    <glyph glyph-name="ycircumflex" unicode="&#x177;" horiz-adv-x="505" 
d="M61 515h132l21 -226c5 -52 11 -105 12 -149h2c23 51 49 106 68 142l122 233h139l-327 -572c-56 -99 -104 -116 -203 -116h-72l22 101h33c92 0 115 32 115 92c0 21 -3 45 -7 74zM470 571h-112l-32 62l-58 -62h-118l115 129h136z" />
    <glyph glyph-name="ydieresis" unicode="&#xff;" horiz-adv-x="505" 
d="M61 515h132l21 -226c5 -52 11 -105 12 -149h2c23 51 49 106 68 142l122 233h139l-327 -572c-56 -99 -104 -116 -203 -116h-72l22 101h33c92 0 115 32 115 92c0 21 -3 45 -7 74zM291 700l-25 -117h-130l25 117h130zM510 700l-25 -117h-130l25 117h130z" />
    <glyph glyph-name="zacute" unicode="&#x17a;" horiz-adv-x="513" 
d="M-20 0l22 103l258 237l79 71v1c-21 -1 -61 -1 -77 -1h-186l22 104h427l-22 -103l-242 -219c-45 -41 -71 -65 -98 -88v-1c43 1 84 1 128 1h160l-22 -105h-449zM484 700l-135 -129h-111l76 129h170z" />
    <glyph glyph-name="zcaron" unicode="&#x17e;" horiz-adv-x="513" 
d="M-20 0l22 103l258 237l79 71v1c-21 -1 -61 -1 -77 -1h-186l22 104h427l-22 -103l-242 -219c-45 -41 -71 -65 -98 -88v-1c43 1 84 1 128 1h160l-22 -105h-449zM245 571l-69 129h112l32 -62l58 62h118l-115 -129h-136z" />
    <glyph glyph-name="zdotaccent" unicode="&#x17c;" horiz-adv-x="513" 
d="M-20 0l22 103l258 237l79 71v1c-21 -1 -61 -1 -77 -1h-186l22 104h427l-22 -103l-242 -219c-45 -41 -71 -65 -98 -88v-1c43 1 84 1 128 1h160l-22 -105h-449zM396 700l-25 -117h-130l25 117h130z" />
    <glyph glyph-name="uni0259" unicode="&#x259;" horiz-adv-x="586" 
d="M39 295h384v7c0 83 -47 124 -114 124c-51 0 -87 -24 -111 -59h-141c43 96 133 164 258 164c141 0 239 -89 239 -234c0 -174 -116 -310 -286 -310c-161 0 -233 106 -233 250c0 19 3 39 4 58zM275 85c72 0 122 49 135 118h-245c3 -79 46 -118 110 -118z" />
    <glyph glyph-name="fi" unicode="&#xfb01;" horiz-adv-x="580" 
d="M83 515h69l10 47c28 128 76 138 204 138h54l-21 -98h-32c-32 0 -47 -5 -58 -16c-15 -13 -18 -32 -23 -56l-3 -15h96l-20 -92h-95l-90 -423h-131l90 423h-70zM451 585l25 115h133l-25 -115h-133zM328 0l109 515h133l-110 -515h-132z" />
    <glyph glyph-name="fl" unicode="&#xfb02;" horiz-adv-x="580" 
d="M83 515h69l10 47c28 128 76 138 204 138h54l-21 -98h-32c-32 0 -47 -5 -58 -16c-15 -13 -18 -32 -23 -56l-3 -15h96l-20 -92h-95l-90 -423h-131l90 423h-70zM328 0l148 700h133l-149 -700h-132z" />
    <glyph glyph-name="uniFB00" unicode="&#xfb00;" horiz-adv-x="621" 
d="M327 0l90 423h-153l-90 -423h-131l90 423h-70l20 92h69l10 47c28 128 76 138 204 138h54l-21 -98h-32c-32 0 -47 -5 -58 -16c-15 -13 -18 -32 -23 -56l-3 -15h153l10 47c28 128 76 138 204 138h54l-21 -98h-32c-32 0 -47 -5 -58 -16c-15 -13 -18 -32 -23 -56l-3 -15h96
l-20 -92h-95l-90 -423h-131z" />
    <glyph glyph-name="uniFB03" unicode="&#xfb03;" horiz-adv-x="864" 
d="M327 0l90 423h-153l-90 -423h-131l90 423h-70l20 92h69l10 47c28 128 76 138 204 138h54l-21 -98h-32c-32 0 -47 -5 -58 -16c-15 -13 -18 -32 -23 -56l-3 -15h153l10 47c28 128 76 138 204 138h54l-21 -98h-32c-32 0 -47 -5 -58 -16c-15 -13 -18 -32 -23 -56l-3 -15h96
l-20 -92h-95l-90 -423h-131zM735 585l25 115h133l-25 -115h-133zM612 0l109 515h133l-110 -515h-132z" />
    <glyph glyph-name="uniFB04" unicode="&#xfb04;" horiz-adv-x="864" 
d="M327 0l90 423h-153l-90 -423h-131l90 423h-70l20 92h69l10 47c28 128 76 138 204 138h54l-21 -98h-32c-32 0 -47 -5 -58 -16c-15 -13 -18 -32 -23 -56l-3 -15h153l10 47c28 128 76 138 204 138h54l-21 -98h-32c-32 0 -47 -5 -58 -16c-15 -13 -18 -32 -23 -56l-3 -15h96
l-20 -92h-95l-90 -423h-131zM612 0l148 700h133l-149 -700h-132z" />
    <glyph glyph-name="acute" unicode="&#xb4;" horiz-adv-x="250" 
d="M240 700l-135 -129h-111l76 129h170z" />
    <glyph glyph-name="grave" unicode="`" horiz-adv-x="250" 
d="M7 700h169l51 -129h-109z" />
    <glyph glyph-name="circumflex" unicode="&#x2c6;" horiz-adv-x="360" 
d="M353 571h-112l-32 62l-58 -62h-118l115 129h136z" />
    <glyph glyph-name="tilde" unicode="&#x2dc;" horiz-adv-x="420" 
d="M106 586h-77c11 72 50 114 111 114c27 0 53 -7 80 -14c20 -5 40 -10 55 -10c19 0 36 8 41 24h77c-9 -72 -48 -114 -111 -114c-27 0 -53 9 -80 14c-20 5 -40 9 -55 9c-17 0 -34 -7 -41 -23z" />
    <glyph glyph-name="breve" unicode="&#x2d8;" horiz-adv-x="409" 
d="M31 656l74 54c27 -32 68 -46 107 -46c47 0 92 19 123 46l56 -57c-49 -57 -117 -87 -189 -87c-71 0 -143 34 -171 90z" />
    <glyph glyph-name="dotaccent" unicode="&#x2d9;" horiz-adv-x="200" 
d="M177 700l-25 -117h-130l25 117h130z" />
    <glyph glyph-name="dieresis" unicode="&#xa8;" horiz-adv-x="399" 
d="M167 700l-25 -117h-130l25 117h130zM386 700l-25 -117h-130l25 117h130z" />
    <glyph glyph-name="ring" unicode="&#x2da;" horiz-adv-x="249" 
d="M125 723c47 0 83 -36 83 -83c0 -45 -36 -84 -83 -84c-45 0 -84 39 -84 84c0 47 39 83 84 83zM125 676c-20 0 -36 -16 -36 -36s16 -36 36 -36s36 16 36 36s-16 36 -36 36z" />
    <glyph glyph-name="hungarumlaut" unicode="&#x2dd;" horiz-adv-x="424" 
d="M234 700l-135 -129h-105l76 129h164zM428 700l-144 -129h-105l85 129h164z" />
    <glyph glyph-name="caron" unicode="&#x2c7;" horiz-adv-x="360" 
d="M102 571l-69 129h112l32 -62l58 62h118l-115 -129h-136z" />
    <glyph glyph-name="cedilla" unicode="&#xb8;" horiz-adv-x="195" 
d="M92 7l45 -7l-40 -43l1 -2c7 1 16 2 25 2c33 0 79 -15 79 -67c0 -60 -56 -84 -108 -84c-37 0 -68 8 -94 23l18 40c16 -9 38 -19 66 -19s46 15 46 36c0 23 -18 35 -43 35c-11 0 -22 -3 -34 -8l-21 21z" />
    <glyph glyph-name="overscore" unicode="&#xaf;" horiz-adv-x="347" 
d="M10 587l19 90h307l-19 -90h-307z" />
    <glyph glyph-name="ogonek" unicode="&#x2db;" horiz-adv-x="207" 
d="M81 0h52c-61 -45 -78 -77 -78 -104c0 -25 15 -37 35 -37c16 0 30 10 42 29l41 -14c-11 -35 -39 -68 -94 -68c-68 0 -92 41 -92 78c0 39 31 83 94 116z" />
    <glyph glyph-name="acute.case" horiz-adv-x="250" 
d="M368 875l-135 -129h-111l76 129h170z" />
    <glyph glyph-name="grave.case" horiz-adv-x="250" 
d="M7 875h169l51 -129h-109z" />
    <glyph glyph-name="circumflex.case" horiz-adv-x="360" 
d="M353 746h-112l-32 62l-58 -62h-118l115 129h136z" />
    <glyph glyph-name="tilde.case" horiz-adv-x="420" 
d="M130 761h-77c11 72 50 114 111 114c27 0 53 -7 80 -14c20 -5 40 -10 55 -10c19 0 36 8 41 24h77c-9 -72 -48 -114 -111 -114c-27 0 -53 9 -80 14c-20 5 -40 9 -55 9c-17 0 -34 -7 -41 -23z" />
    <glyph glyph-name="breve.case" horiz-adv-x="409" 
d="M49 831l74 54c27 -32 68 -46 107 -46c47 0 92 19 123 46l56 -57c-49 -57 -117 -87 -189 -87c-71 0 -143 34 -171 90z" />
    <glyph glyph-name="dotaccent.case" horiz-adv-x="200" 
d="M177 876l-25 -117h-130l25 117h130z" />
    <glyph glyph-name="dieresis.case" horiz-adv-x="399" 
d="M167 876l-25 -117h-130l25 117h130zM386 876l-25 -117h-130l25 117h130z" />
    <glyph glyph-name="ring.case" horiz-adv-x="249" 
d="M42 815c0 47 39 83 84 83c47 0 83 -36 83 -83c0 -45 -36 -84 -83 -84c-45 0 -84 39 -84 84zM162 815c0 20 -16 36 -36 36s-36 -16 -36 -36s16 -36 36 -36s36 16 36 36z" />
    <glyph glyph-name="hungarumlaut.case" horiz-adv-x="424" 
d="M234 875l-135 -129h-105l76 129h164zM428 875l-144 -129h-105l85 129h164z" />
    <glyph glyph-name="caron.case" horiz-adv-x="360" 
d="M102 746l-69 129h112l32 -62l58 62h118l-115 -129h-136z" />
    <glyph glyph-name="macron.case" horiz-adv-x="347" 
d="M13 762l19 90h307l-19 -90h-307z" />
    <glyph glyph-name="uni0312" unicode="&#x312;" horiz-adv-x="195" 
d="M155 647l-20 -95h-99l19 91c7 34 20 59 39 75c21 19 49 31 84 36l-10 -46c-28 -5 -52 -27 -59 -56l-1 -5h47z" />
    <glyph glyph-name="uni0313" unicode="&#x313;" horiz-adv-x="612" 
d="M191 700h141l-92 -156h-113z" />
    <glyph glyph-name="uni0326" unicode="&#x326;" horiz-adv-x="195" 
d="M49 -141l20 95h99l-19 -91c-7 -34 -20 -59 -39 -75c-21 -19 -49 -31 -84 -36l10 46c28 5 54 27 59 56l1 5h-47z" />
    <glyph glyph-name="zero.zero" horiz-adv-x="635" 
d="M55 240c0 200 107 473 337 473c139 0 229 -91 229 -252c0 -205 -107 -474 -344 -474c-139 0 -222 97 -222 253zM193 228c0 -7 0 -14 1 -20l251 373c-17 15 -38 23 -64 23c-139 0 -188 -259 -188 -376zM482 469c0 10 -1 20 -2 29l-255 -378c17 -17 39 -25 67 -25
c140 0 190 256 190 374z" />
    <glyph glyph-name="zero" unicode="0" horiz-adv-x="635" 
d="M55 240c0 200 107 473 337 473c139 0 229 -91 229 -252c0 -205 -107 -474 -344 -474c-139 0 -222 97 -222 253zM193 228c0 -75 26 -133 99 -133c140 0 190 256 190 374c0 73 -29 135 -101 135c-139 0 -188 -259 -188 -376z" />
    <glyph glyph-name="one" unicode="1" horiz-adv-x="405" 
d="M423 700l-147 -700h-134l102 484h-179l18 89c117 3 202 44 223 127h117z" />
    <glyph glyph-name="two" unicode="2" horiz-adv-x="596" 
d="M220 459h-133c14 161 121 254 275 254c139 0 228 -74 228 -201c0 -114 -78 -191 -183 -252l-49 -28c-89 -52 -149 -77 -176 -121v-1c27 0 64 1 116 1h236l-24 -111h-508c13 170 132 242 264 312l38 21c73 38 145 87 145 167c0 67 -43 99 -102 99
c-81 0 -120 -63 -127 -140z" />
    <glyph glyph-name="three" unicode="3" horiz-adv-x="605" 
d="M226 491h-130c19 136 119 222 266 222c114 0 225 -49 225 -176c0 -81 -58 -147 -139 -164c73 -27 105 -81 105 -149c0 -158 -131 -237 -281 -237c-152 0 -240 73 -240 217c0 11 0 20 1 31h127c-7 -83 33 -142 116 -142c81 0 136 44 136 129c0 64 -43 98 -118 98h-30
l19 99h39c61 0 135 24 135 99c0 67 -49 92 -101 92c-75 0 -118 -40 -130 -119z" />
    <glyph glyph-name="four" unicode="4" horiz-adv-x="601" 
d="M293 0l31 151h-321l27 134l396 415h137l-92 -443h101l-22 -106h-101l-31 -151h-125zM346 257l31 149c12 57 29 118 36 149h-3c-21 -27 -53 -67 -96 -114l-97 -103c-40 -41 -61 -62 -82 -82v-1c19 1 36 2 88 2h123z" />
    <glyph glyph-name="five" unicode="5" horiz-adv-x="574" 
d="M577 700l-21 -108h-295l-49 -155h2c27 21 64 38 121 38c114 0 202 -78 202 -208c0 -172 -114 -279 -276 -279c-141 0 -233 68 -238 213h126c0 -69 52 -105 121 -105c84 0 142 65 142 154c0 83 -43 124 -122 124c-57 0 -93 -28 -109 -52h-114l112 378h398z" />
    <glyph glyph-name="six" unicode="6" horiz-adv-x="612" 
d="M605 533l-129 -2c-7 44 -43 71 -94 71c-100 0 -149 -101 -169 -183h2c23 25 72 58 145 58c115 0 208 -76 208 -218c0 -153 -114 -272 -269 -272c-90 0 -155 30 -195 89c-30 45 -45 106 -45 183c0 231 125 453 331 453c113 0 207 -57 215 -179zM305 94
c85 0 134 70 134 154s-47 123 -118 123c-43 0 -76 -15 -100 -44c-23 -29 -35 -65 -35 -106c0 -87 50 -127 119 -127z" />
    <glyph glyph-name="seven" unicode="7" horiz-adv-x="531" 
d="M607 700l-25 -122c-167 -128 -325 -382 -365 -578h-152c53 207 205 439 375 585v2h-352l23 113h496z" />
    <glyph glyph-name="eight" unicode="8" horiz-adv-x="629" 
d="M121 516c0 121 99 197 252 197c137 0 232 -76 232 -181c0 -74 -54 -145 -133 -161h-1v-2c59 -18 105 -89 105 -157c0 -152 -126 -226 -284 -226s-258 86 -258 206c0 107 73 166 170 187v2c-45 24 -83 66 -83 135zM243 512c0 -63 58 -95 118 -95c64 0 122 39 122 97
c0 56 -45 95 -117 95s-123 -33 -123 -97zM163 206c0 -68 57 -113 138 -113c88 0 146 44 146 119c0 76 -71 113 -138 113c-78 0 -146 -40 -146 -119z" />
    <glyph glyph-name="nine" unicode="9" horiz-adv-x="613" 
d="M48 166l129 2c7 -44 43 -71 94 -71c100 0 149 101 169 183h-2c-23 -25 -72 -56 -145 -56c-115 0 -208 76 -208 216c0 153 114 274 269 274c89 0 154 -30 195 -91c30 -45 45 -106 45 -183c0 -231 -125 -453 -331 -453c-112 0 -207 57 -215 179zM348 607
c-86 0 -136 -70 -136 -156c0 -83 49 -121 120 -121c43 0 77 14 101 43s36 64 36 105c0 88 -50 129 -121 129z" />
    <glyph glyph-name="zero.osf.zero" horiz-adv-x="632" 
d="M51 230c0 197 107 460 337 460c139 0 229 -86 229 -243c0 -199 -107 -460 -344 -460c-139 0 -222 94 -222 243zM190 218c0 -8 0 -16 1 -23l247 367c-16 13 -36 19 -60 19c-139 0 -188 -247 -188 -363zM479 455c0 11 -1 21 -2 30l-250 -371c16 -13 37 -19 62 -19
c140 0 190 247 190 360z" />
    <glyph glyph-name="zero.osf" horiz-adv-x="632" 
d="M51 230c0 197 107 460 337 460c139 0 229 -86 229 -243c0 -199 -107 -460 -344 -460c-139 0 -222 94 -222 243zM189 218c0 -69 26 -123 99 -123c140 0 190 247 190 360c0 71 -29 126 -101 126c-139 0 -188 -247 -188 -363z" />
    <glyph glyph-name="one.osf" horiz-adv-x="401" 
d="M417 682l-146 -682h-134l101 470h-179l18 87c117 3 202 44 223 125h117z" />
    <glyph glyph-name="two.osf" horiz-adv-x="591" 
d="M216 445h-133c14 155 121 245 275 245c139 0 228 -72 228 -193c0 -109 -79 -181 -183 -241l-49 -28c-89 -51 -149 -76 -176 -119v-1c27 0 64 1 116 1h236l-24 -109h-508c13 167 132 237 264 307l38 20c72 38 145 82 145 159c0 61 -38 91 -101 91
c-81 0 -121 -59 -128 -132z" />
    <glyph glyph-name="three.osf" horiz-adv-x="600" 
d="M221 473h-130c19 135 119 218 266 218c114 0 225 -47 225 -171c0 -80 -58 -143 -139 -159c73 -27 105 -78 105 -143c0 -154 -131 -231 -281 -231c-152 0 -240 70 -240 210c0 9 0 20 1 29h127c-7 -77 33 -134 116 -134c81 0 136 43 136 124c0 59 -43 92 -118 92h-30l19 97
h39c61 0 135 24 135 96c0 61 -49 85 -101 85c-75 0 -118 -38 -130 -113z" />
    <glyph glyph-name="four.osf" horiz-adv-x="595" 
d="M289 0l31 145h-321l27 131l396 406h137l-92 -433h101l-22 -104h-101l-31 -145h-125zM342 249l31 146c12 55 29 114 36 145h-3c-21 -27 -53 -66 -96 -110l-97 -102c-40 -41 -61 -61 -82 -80v-1c19 1 36 2 88 2h123z" />
    <glyph glyph-name="five.osf" horiz-adv-x="570" 
d="M572 682l-21 -106h-296l-48 -149h2c27 20 64 37 121 37c115 0 203 -77 203 -201c0 -169 -114 -275 -276 -275c-141 0 -233 67 -238 208h126c0 -65 52 -102 121 -102c84 0 142 64 142 152c0 77 -44 118 -123 118c-64 0 -98 -30 -109 -51h-114l111 369h399z" />
    <glyph glyph-name="six.osf" horiz-adv-x="607" 
d="M602 518l-130 -2c-5 41 -43 65 -94 65c-99 0 -148 -94 -168 -172h2c23 25 72 55 145 55c115 0 208 -72 208 -205c0 -150 -114 -267 -269 -267c-90 0 -155 29 -195 87c-30 44 -45 104 -45 180c0 221 125 431 331 431c113 0 207 -52 215 -172zM302 99c43 0 76 14 99 43
s35 65 35 106c0 76 -47 112 -118 112c-85 0 -135 -62 -135 -139c0 -83 50 -122 119 -122z" />
    <glyph glyph-name="seven.osf" horiz-adv-x="531" 
d="M603 682l-25 -120c-167 -125 -325 -372 -365 -562h-152c54 201 204 426 375 569v2h-352l23 111h496z" />
    <glyph glyph-name="eight.osf" horiz-adv-x="625" 
d="M117 500c0 117 99 190 252 190c137 0 232 -73 232 -174c0 -37 -12 -70 -37 -99s-57 -48 -96 -56h-1v-2c59 -18 105 -86 105 -151c0 -148 -126 -221 -284 -221s-258 85 -258 202c0 103 73 159 170 180v2c-45 23 -83 64 -83 129zM239 496c0 -59 58 -91 118 -91
c64 0 122 37 122 93c0 53 -45 90 -117 90s-123 -32 -123 -92zM159 203c0 -65 57 -111 138 -111c88 0 146 44 146 116s-71 106 -138 106c-78 0 -146 -37 -146 -111z" />
    <glyph glyph-name="nine.osf" horiz-adv-x="607" 
d="M42 162l130 4c7 -43 44 -65 93 -65c100 0 152 93 170 172h-2c-23 -25 -73 -55 -146 -55c-115 0 -208 76 -208 210c0 147 110 262 268 262c91 0 156 -29 196 -88c29 -43 45 -100 45 -175c0 -224 -125 -435 -331 -435c-111 0 -203 51 -215 170zM342 584
c-43 0 -77 -14 -101 -43c-24 -28 -36 -62 -36 -101c0 -80 49 -117 121 -117c44 0 78 14 102 42c24 29 36 63 36 102c0 79 -50 117 -122 117z" />
    <glyph glyph-name="zero.tf.zero" 
d="M67 240c0 200 107 473 337 473c139 0 229 -91 229 -252c0 -205 -107 -474 -344 -474c-139 0 -222 97 -222 253zM205 228c0 -7 0 -14 1 -20l251 373c-17 15 -38 23 -64 23c-139 0 -188 -259 -188 -376zM494 469c0 10 -1 20 -2 29l-255 -378c17 -17 39 -25 67 -25
c140 0 190 256 190 374z" />
    <glyph glyph-name="zero.tf" 
d="M67 240c0 200 107 473 337 473c139 0 229 -91 229 -252c0 -205 -107 -474 -344 -474c-139 0 -222 97 -222 253zM205 228c0 -75 26 -133 99 -133c140 0 190 256 190 374c0 73 -29 135 -101 135c-139 0 -188 -259 -188 -376z" />
    <glyph glyph-name="one.tf" 
d="M550 700l-147 -700h-134l102 484h-179l18 89c117 3 202 44 223 127h117z" />
    <glyph glyph-name="two.tf" 
d="M252 459h-133c14 161 121 254 275 254c139 0 228 -74 228 -201c0 -114 -78 -191 -183 -252l-49 -28c-89 -52 -149 -77 -176 -121v-1c27 0 64 1 116 1h236l-24 -111h-508c13 170 132 242 264 312l38 21c73 38 145 87 145 167c0 67 -43 99 -102 99
c-81 0 -120 -63 -127 -140z" />
    <glyph glyph-name="three.tf" 
d="M253 491h-130c19 136 119 222 266 222c114 0 225 -49 225 -176c0 -81 -58 -147 -139 -164c73 -27 105 -81 105 -149c0 -158 -131 -237 -281 -237c-152 0 -240 73 -240 217c0 11 0 20 1 31h127c-7 -83 33 -142 116 -142c81 0 136 44 136 129c0 64 -43 98 -118 98h-30
l19 99h39c61 0 135 24 135 99c0 67 -49 92 -101 92c-75 0 -118 -40 -130 -119z" />
    <glyph glyph-name="four.tf" 
d="M323 0l31 151h-321l27 134l396 415h137l-92 -443h101l-22 -106h-101l-31 -151h-125zM376 257l31 149c12 57 29 118 36 149h-3c-21 -27 -53 -67 -96 -114l-97 -103c-40 -41 -61 -62 -82 -82v-1c19 1 36 2 88 2h123z" />
    <glyph glyph-name="five.tf" 
d="M620 700l-21 -108h-295l-49 -155h2c27 21 64 38 121 38c114 0 202 -78 202 -208c0 -172 -114 -279 -276 -279c-141 0 -233 68 -238 213h126c0 -69 52 -105 121 -105c84 0 142 65 142 154c0 83 -43 124 -122 124c-57 0 -93 -28 -109 -52h-114l112 378h398z" />
    <glyph glyph-name="six.tf" 
d="M629 533l-129 -2c-7 44 -43 71 -94 71c-100 0 -149 -101 -169 -183h2c23 25 72 58 145 58c115 0 208 -76 208 -218c0 -153 -114 -272 -269 -272c-90 0 -155 30 -195 89c-30 45 -45 106 -45 183c0 231 125 453 331 453c113 0 207 -57 215 -179zM329 94
c85 0 134 70 134 154s-47 123 -118 123c-43 0 -76 -15 -100 -44c-23 -29 -35 -65 -35 -106c0 -87 50 -127 119 -127z" />
    <glyph glyph-name="seven.tf" 
d="M671 700l-25 -122c-167 -128 -325 -382 -365 -578h-152c53 207 205 439 375 585v2h-352l23 113h496z" />
    <glyph glyph-name="eight.tf" 
d="M136 516c0 121 99 197 252 197c137 0 232 -76 232 -181c0 -74 -54 -145 -133 -161h-1v-2c59 -18 105 -89 105 -157c0 -152 -126 -226 -284 -226s-258 86 -258 206c0 107 73 166 170 187v2c-45 24 -83 66 -83 135zM258 512c0 -63 58 -95 118 -95c64 0 122 39 122 97
c0 56 -45 95 -117 95s-123 -33 -123 -97zM178 206c0 -68 57 -113 138 -113c88 0 146 44 146 119c0 76 -71 113 -138 113c-78 0 -146 -40 -146 -119z" />
    <glyph glyph-name="nine.tf" 
d="M72 166l129 2c7 -44 43 -71 94 -71c100 0 149 101 169 183h-2c-23 -25 -72 -56 -145 -56c-115 0 -208 76 -208 216c0 153 114 274 269 274c89 0 154 -30 195 -91c30 -45 45 -106 45 -183c0 -231 -125 -453 -331 -453c-112 0 -207 57 -215 179zM372 607
c-86 0 -136 -70 -136 -156c0 -83 49 -121 120 -121c43 0 77 14 101 43s36 64 36 105c0 88 -50 129 -121 129z" />
    <glyph glyph-name="zero.tosf.zero" 
d="M65 230c0 197 107 460 337 460c139 0 229 -86 229 -243c0 -199 -107 -460 -344 -460c-139 0 -222 94 -222 243zM204 218c0 -8 0 -16 1 -23l247 367c-16 13 -36 19 -60 19c-139 0 -188 -247 -188 -363zM493 455c0 11 -1 21 -2 30l-250 -371c16 -13 37 -19 62 -19
c140 0 190 247 190 360z" />
    <glyph glyph-name="zero.tosf" 
d="M65 230c0 197 107 460 337 460c139 0 229 -86 229 -243c0 -199 -107 -460 -344 -460c-139 0 -222 94 -222 243zM203 218c0 -69 26 -123 99 -123c140 0 190 247 190 360c0 71 -29 126 -101 126c-139 0 -188 -247 -188 -363z" />
    <glyph glyph-name="one.tosf" 
d="M547 682l-146 -682h-134l101 470h-179l18 87c117 3 202 44 223 125h117z" />
    <glyph glyph-name="two.tosf" 
d="M250 445h-133c14 155 121 245 275 245c139 0 228 -72 228 -193c0 -109 -79 -181 -183 -241l-49 -28c-89 -51 -149 -76 -176 -119v-1c27 0 64 1 116 1h236l-24 -109h-508c13 167 132 237 264 307l38 20c72 38 145 82 145 159c0 61 -38 91 -101 91
c-81 0 -121 -59 -128 -132z" />
    <glyph glyph-name="three.tosf" 
d="M251 473h-130c19 135 119 218 266 218c114 0 225 -47 225 -171c0 -80 -58 -143 -139 -159c73 -27 105 -78 105 -143c0 -154 -131 -231 -281 -231c-152 0 -240 70 -240 210c0 9 0 20 1 29h127c-7 -77 33 -134 116 -134c81 0 136 43 136 124c0 59 -43 92 -118 92h-30l19 97
h39c61 0 135 24 135 96c0 61 -49 85 -101 85c-75 0 -118 -38 -130 -113z" />
    <glyph glyph-name="four.tosf" 
d="M322 0l31 145h-321l27 131l396 406h137l-92 -433h101l-22 -104h-101l-31 -145h-125zM375 249l31 146c12 55 29 114 36 145h-3c-21 -27 -53 -66 -96 -110l-97 -102c-40 -41 -61 -61 -82 -80v-1c19 1 36 2 88 2h123z" />
    <glyph glyph-name="five.tosf" 
d="M617 682l-21 -106h-296l-48 -149h2c27 20 64 37 121 37c115 0 203 -77 203 -201c0 -169 -114 -275 -276 -275c-141 0 -233 67 -238 208h126c0 -65 52 -102 121 -102c84 0 142 64 142 152c0 77 -44 118 -123 118c-64 0 -98 -30 -109 -51h-114l111 369h399z" />
    <glyph glyph-name="six.tosf" 
d="M628 518l-130 -2c-5 41 -43 65 -94 65c-99 0 -148 -94 -168 -172h2c23 25 72 55 145 55c115 0 208 -72 208 -205c0 -150 -114 -267 -269 -267c-90 0 -155 29 -195 87c-30 44 -45 104 -45 180c0 221 125 431 331 431c113 0 207 -52 215 -172zM328 99c43 0 76 14 99 43
s35 65 35 106c0 76 -47 112 -118 112c-85 0 -135 -62 -135 -139c0 -83 50 -122 119 -122z" />
    <glyph glyph-name="seven.tosf" 
d="M668 682l-25 -120c-167 -125 -325 -372 -365 -562h-152c54 201 204 426 375 569v2h-352l23 111h496z" />
    <glyph glyph-name="eight.tosf" 
d="M135 500c0 117 99 190 252 190c137 0 232 -73 232 -174c0 -37 -12 -70 -37 -99s-57 -48 -96 -56h-1v-2c59 -18 105 -86 105 -151c0 -148 -126 -221 -284 -221s-258 85 -258 202c0 103 73 159 170 180v2c-45 23 -83 64 -83 129zM257 496c0 -59 58 -91 118 -91
c64 0 122 37 122 93c0 53 -45 90 -117 90s-123 -32 -123 -92zM177 203c0 -65 57 -111 138 -111c88 0 146 44 146 116s-71 106 -138 106c-78 0 -146 -37 -146 -111z" />
    <glyph glyph-name="nine.tosf" 
d="M69 162l130 4c7 -43 44 -65 93 -65c100 0 152 93 170 172h-2c-23 -25 -73 -55 -146 -55c-115 0 -208 76 -208 210c0 147 110 262 268 262c91 0 156 -29 196 -88c29 -43 45 -100 45 -175c0 -224 -125 -435 -331 -435c-111 0 -203 51 -215 170zM369 584
c-43 0 -77 -14 -101 -43c-24 -28 -36 -62 -36 -101c0 -80 49 -117 121 -117c44 0 78 14 102 42c24 29 36 63 36 102c0 79 -50 117 -122 117z" />
    <glyph glyph-name="period" unicode="." horiz-adv-x="261" 
d="M189 145l-31 -145h-150l31 145h150z" />
    <glyph glyph-name="comma" unicode="," horiz-adv-x="262" 
d="M8 0l31 143h150l-28 -130c-13 -61 -29 -87 -52 -114c-33 -37 -80 -60 -137 -68l15 71c43 7 84 43 92 92l1 6h-72z" />
    <glyph glyph-name="colon" unicode=":" horiz-adv-x="267" 
d="M264 515l-31 -145h-150l31 145h150zM186 145l-31 -145h-150l31 145h150z" />
    <glyph glyph-name="semicolon" unicode=";" horiz-adv-x="268" 
d="M265 515l-31 -145h-150l31 145h150zM5 0l31 143h150l-28 -130c-13 -61 -29 -87 -52 -114c-33 -37 -80 -60 -137 -68l15 71c43 7 84 43 92 92l1 6h-72z" />
    <glyph glyph-name="ellipsis" unicode="&#x2026;" horiz-adv-x="943" 
d="M189 145l-31 -145h-150l31 145h150zM530 145l-31 -145h-150l31 145h150zM871 145l-31 -145h-150l31 145h150z" />
    <glyph glyph-name="questiondown" unicode="&#xbf;" horiz-adv-x="537" 
d="M230 370l31 145h146l-31 -145h-146zM322 31h139c-12 -153 -116 -229 -265 -229c-123 0 -219 54 -219 170c0 102 63 160 134 203l28 17c45 27 76 54 89 114l5 23h126l-5 -26c-20 -111 -62 -146 -130 -190l-33 -21c-37 -24 -72 -52 -72 -103c0 -48 35 -76 90 -76
c75 0 108 57 113 118z" />
    <glyph glyph-name="questiondown.case" horiz-adv-x="542" 
d="M272 555l31 145h146l-31 -145h-146zM364 216h139c-12 -153 -116 -229 -265 -229c-123 0 -219 54 -219 170c0 102 63 160 134 203l28 17c45 27 76 54 89 114l5 23h126l-5 -26c-20 -111 -62 -146 -130 -190l-33 -21c-37 -24 -72 -52 -72 -103c0 -48 35 -76 90 -76
c75 0 108 57 113 118z" />
    <glyph glyph-name="question" unicode="?" horiz-adv-x="542" 
d="M219 484h-139c12 155 116 229 265 229c123 0 219 -54 219 -170c0 -103 -62 -159 -134 -203l-28 -17c-45 -27 -76 -54 -89 -114l-5 -23h-126l5 26c22 113 60 145 130 190l33 21c37 24 72 52 72 103c0 48 -35 76 -90 76c-37 0 -65 -12 -83 -36c-17 -23 -27 -51 -30 -82z
M311 145l-31 -145h-146l31 145h146z" />
    <glyph glyph-name="exclamdown" unicode="&#xa1;" horiz-adv-x="267" 
d="M86 370l31 145h145l-30 -145h-146zM-31 -185l41 193l101 321h77l-36 -321l-41 -193h-142z" />
    <glyph glyph-name="exclamdown.case" horiz-adv-x="280" 
d="M132 555l31 145h145l-30 -145h-146zM15 0l41 193l101 321h77l-36 -321l-41 -193h-142z" />
    <glyph glyph-name="exclam" unicode="!" horiz-adv-x="278" 
d="M305 700l-41 -193l-101 -321h-77l36 321l41 193h142zM188 145l-31 -145h-145l30 145h146z" />
    <glyph glyph-name="parenleft" unicode="(" horiz-adv-x="302" 
d="M248 700h125c-132 -183 -216 -399 -216 -610c0 -95 10 -178 31 -262h-109c-33 95 -52 187 -52 284c0 199 78 399 221 588z" />
    <glyph glyph-name="parenright" unicode=")" horiz-adv-x="303" 
d="M59 -172h-125c132 183 216 399 216 610c0 95 -8 178 -31 262h109c33 -93 52 -185 52 -284c0 -199 -78 -397 -221 -588z" />
    <glyph glyph-name="parenleft.case" horiz-adv-x="306" 
d="M268 786h125c-132 -183 -216 -399 -216 -610c0 -95 10 -178 31 -262h-109c-33 95 -52 187 -52 284c0 199 78 399 221 588z" />
    <glyph glyph-name="parenright.case" horiz-adv-x="306" 
d="M79 -86h-125c132 183 216 399 216 610c0 95 -8 178 -31 262h109c33 -93 52 -185 52 -284c0 -199 -78 -397 -221 -588z" />
    <glyph glyph-name="bracketleft" unicode="[" horiz-adv-x="334" 
d="M218 -172h-233l184 872h234l-21 -98h-112l-143 -676h112z" />
    <glyph glyph-name="bracketright" unicode="]" horiz-adv-x="333" 
d="M-65 -172l21 98h111l143 676h-112l21 98h234l-185 -872h-233z" />
    <glyph glyph-name="bracketleft.case" horiz-adv-x="335" 
d="M236 -86h-233l184 872h234l-21 -98h-112l-143 -676h112z" />
    <glyph glyph-name="bracketright.case" horiz-adv-x="336" 
d="M-44 -86l21 98h111l143 676h-112l21 98h234l-185 -872h-233z" />
    <glyph glyph-name="braceleft" unicode="{" horiz-adv-x="326" 
d="M128 270l-1 -4c45 -13 64 -39 64 -83c0 -17 -3 -37 -8 -60l-23 -104c-5 -23 -9 -41 -9 -56c0 -25 13 -37 57 -37h10l-21 -98h-67c-76 0 -108 20 -108 80c0 21 3 45 9 74l33 158c3 13 4 25 4 36c0 29 -14 48 -43 56l17 80c44 4 67 37 78 92l30 142c24 108 37 154 157 154
h75l-21 -98h-15c-63 0 -67 -27 -81 -93l-26 -121c-17 -84 -44 -111 -111 -118z" />
    <glyph glyph-name="braceright" unicode="}" horiz-adv-x="325" 
d="M202 263l1 4c-45 15 -64 37 -64 81c0 16 3 36 8 59l23 102c5 23 9 43 9 56c0 25 -13 37 -57 37h-10l21 98h67c79 0 108 -28 108 -83c0 -20 -3 -46 -10 -73l-31 -149c-3 -13 -4 -26 -4 -37c0 -31 12 -48 43 -55l-17 -80c-44 -4 -66 -34 -77 -89l-31 -149
c-22 -108 -37 -157 -156 -157h-77l21 98h15c64 0 67 28 81 93l26 126c17 84 44 110 111 118z" />
    <glyph glyph-name="braceleft.case" horiz-adv-x="328" 
d="M147 356l-1 -4c45 -13 64 -39 64 -83c0 -17 -3 -37 -8 -60l-23 -104c-5 -23 -9 -41 -9 -56c0 -25 13 -37 57 -37h10l-21 -98h-67c-76 0 -108 20 -108 80c0 21 3 45 9 74l33 158c3 13 4 25 4 36c0 29 -14 48 -43 56l17 80c44 4 67 37 78 92l30 142c24 108 37 154 157 154
h75l-21 -98h-15c-63 0 -67 -27 -81 -93l-26 -121c-17 -84 -44 -111 -111 -118z" />
    <glyph glyph-name="braceright.case" horiz-adv-x="328" 
d="M222 349l1 4c-45 15 -64 37 -64 81c0 16 3 36 8 59l23 102c5 23 9 43 9 56c0 25 -13 37 -57 37h-10l21 98h67c79 0 108 -28 108 -83c0 -20 -3 -46 -10 -73l-31 -149c-3 -13 -4 -26 -4 -37c0 -31 12 -48 43 -55l-17 -80c-44 -4 -66 -34 -77 -89l-31 -149
c-22 -108 -37 -157 -156 -157h-77l21 98h15c64 0 67 28 81 93l26 126c17 84 44 110 111 118z" />
    <glyph glyph-name="slash" unicode="/" horiz-adv-x="382" 
d="M97 0h-127l356 700h127z" />
    <glyph glyph-name="a.subs" horiz-adv-x="372" 
d="M92 86h-92c15 73 74 105 161 105c73 0 130 -25 130 -88c0 -17 -2 -31 -6 -51l-28 -136c-1 -9 -4 -18 -4 -26c0 -5 1 -10 4 -15l-1 -3h-90l3 27h-1c-16 -17 -43 -32 -94 -32c-63 0 -107 33 -107 85c0 44 24 70 61 86c32 15 73 20 114 25l25 4c24 4 35 10 35 29
c0 20 -19 33 -51 33c-33 0 -52 -14 -59 -43zM106 -72c27 0 56 9 69 33c4 7 5 14 8 27l7 34c-7 -5 -20 -9 -40 -13l-22 -5c-25 -5 -43 -9 -55 -18c-8 -6 -12 -15 -12 -27c0 -21 15 -31 45 -31z" />
    <glyph glyph-name="b.subs" horiz-adv-x="404" 
d="M150 292l-18 -86c-4 -19 -5 -30 -12 -54h1c19 23 51 38 92 38c60 0 116 -39 116 -129c0 -105 -67 -194 -166 -194c-45 0 -80 19 -96 44l-8 -39h-89l89 420h91zM149 -67c58 0 86 63 86 121c0 43 -20 69 -57 69c-65 0 -90 -70 -90 -120c0 -48 25 -70 61 -70z" />
    <glyph glyph-name="c.subs" horiz-adv-x="368" 
d="M290 -17c-19 -64 -73 -116 -160 -116c-88 0 -150 49 -150 141c0 91 59 182 177 182c81 0 136 -41 141 -116h-89c-6 33 -24 50 -54 50c-59 0 -81 -67 -81 -121c0 -47 19 -70 58 -70c33 0 55 22 67 50h91z" />
    <glyph glyph-name="d.subs" horiz-adv-x="402" 
d="M188 -94c-17 -24 -48 -39 -91 -39c-72 0 -118 49 -118 129c0 112 73 193 166 193c39 0 68 -9 91 -42l12 57l19 88h91l-89 -420h-88l8 34h-1zM155 123c-55 0 -83 -64 -83 -123c0 -41 18 -67 57 -67c65 0 88 72 88 123c0 43 -23 67 -62 67z" />
    <glyph glyph-name="e.subs" horiz-adv-x="386" 
d="M306 6h-240v-4c0 -49 28 -74 69 -74c32 0 52 18 67 39h95c-21 -52 -74 -100 -166 -100s-151 54 -151 141c0 101 68 182 179 182c95 0 150 -57 150 -148c0 -12 -1 -24 -3 -36zM154 129c-41 0 -71 -27 -80 -68h144c0 44 -25 68 -64 68z" />
    <glyph glyph-name="f.subs" horiz-adv-x="241" 
d="M12 181h41l5 21c18 79 41 90 124 90h46l-14 -65h-21c-36 0 -40 -10 -47 -38l-2 -8h59l-13 -63h-58l-52 -246h-92l53 246h-42z" />
    <glyph glyph-name="g.subs" horiz-adv-x="400" 
d="M182 -95c3 9 3 16 4 21h-1c-16 -20 -46 -35 -89 -35c-61 0 -114 40 -114 123c0 99 68 174 158 174c47 0 79 -16 92 -39h1l7 32h92l-61 -293c-19 -91 -75 -125 -172 -125c-84 0 -138 32 -138 97h95c2 -23 19 -34 52 -34c41 0 63 25 72 70zM157 122c-53 0 -81 -50 -81 -101
c0 -43 19 -64 56 -64c27 0 48 11 61 32c14 21 21 44 21 69c0 43 -19 64 -57 64z" />
    <glyph glyph-name="h.subs" horiz-adv-x="400" 
d="M60 292h92l-21 -93c-3 -17 -5 -29 -12 -52h1c19 27 56 42 101 42c59 0 96 -35 96 -87c0 -14 -2 -29 -6 -44l-40 -186h-91l35 163c3 13 4 25 4 36c0 28 -14 48 -47 48c-22 0 -39 -7 -50 -21c-12 -13 -18 -35 -23 -59l-37 -167h-92z" />
    <glyph glyph-name="i.subs" horiz-adv-x="193" 
d="M43 218l16 74h91l-15 -74h-92zM-30 -128l66 309h91l-66 -309h-91z" />
    <glyph glyph-name="j.subs" horiz-adv-x="204" 
d="M52 219l16 73h93l-16 -73h-93zM45 181h92l-66 -313c-7 -33 -14 -57 -34 -76c-25 -23 -60 -24 -103 -24h-27l15 71h10c17 0 29 3 36 9c6 6 11 17 14 34z" />
    <glyph glyph-name="k.subs" horiz-adv-x="373" 
d="M181 -128l-53 135l-47 -40l-20 -95h-91l89 420h92l-32 -151c-5 -19 -8 -35 -15 -66h1l119 106h119l-145 -120l85 -189h-102z" />
    <glyph glyph-name="l.subs" horiz-adv-x="195" 
d="M-30 -128l89 420h92l-89 -420h-92z" />
    <glyph glyph-name="m.subs" horiz-adv-x="594" 
d="M370 119c-21 0 -35 -7 -47 -19c-13 -13 -18 -36 -23 -59l-36 -169h-92l35 164c3 15 5 27 5 37c0 27 -12 46 -45 46c-19 0 -34 -6 -46 -19c-13 -13 -18 -36 -23 -59l-36 -169h-92l66 309h88l-8 -36h1c19 25 52 44 97 44s73 -15 86 -46h1c19 24 55 46 107 46
c69 0 103 -34 103 -86c0 -15 -2 -29 -5 -44l-40 -187h-92l35 164c3 15 5 27 5 37c0 27 -13 46 -44 46z" />
    <glyph glyph-name="n.subs" horiz-adv-x="399" 
d="M171 119c-22 0 -39 -7 -50 -20s-16 -35 -23 -59l-36 -168h-92l66 309h86l-8 -36h1c20 27 57 44 102 44c63 0 99 -34 99 -86c0 -15 -2 -29 -5 -44l-41 -187h-91l35 164c3 13 4 25 4 36c0 27 -14 47 -47 47z" />
    <glyph glyph-name="o.subs" horiz-adv-x="383" 
d="M130 -133c-88 0 -150 50 -150 137c0 96 58 186 178 186c91 0 150 -49 150 -136c0 -94 -57 -187 -178 -187zM156 124c-58 0 -83 -70 -83 -122c0 -45 23 -69 60 -69c58 0 82 70 82 123c0 43 -22 68 -59 68z" />
    <glyph glyph-name="p.subs" horiz-adv-x="400" 
d="M60 -135l-20 -98h-92l87 414h89l-7 -33h1c19 23 52 41 96 41c55 0 111 -39 111 -129c0 -103 -66 -194 -166 -194c-33 0 -70 12 -90 44c-4 -17 -6 -30 -9 -45zM146 -67c58 0 86 62 86 120c0 43 -18 70 -57 70c-62 0 -86 -74 -86 -126c0 -37 24 -64 57 -64z" />
    <glyph glyph-name="q.subs" horiz-adv-x="401" 
d="M334 181l-88 -416h-92l18 89c4 19 7 26 12 46h-2c-15 -20 -47 -34 -90 -34c-68 0 -113 50 -113 129c0 112 75 194 165 194c42 0 72 -15 90 -46h2l7 38h91zM158 123c-56 0 -85 -64 -85 -123c0 -40 20 -67 57 -67c62 0 84 72 84 123c0 39 -20 67 -56 67z" />
    <glyph glyph-name="r.subs" horiz-adv-x="255" 
d="M115 141h2c11 27 43 48 94 48c7 0 11 0 13 -1l-18 -84c-7 3 -15 2 -23 2c-53 0 -78 -28 -90 -83l-31 -151h-92l65 309h89l-4 -19z" />
    <glyph glyph-name="s.subs" horiz-adv-x="353" 
d="M278 90h-86c0 23 -17 39 -54 39c-33 0 -51 -11 -51 -26c0 -17 15 -24 46 -33l40 -11c23 -7 44 -16 63 -27s28 -31 28 -58c0 -78 -77 -107 -154 -107c-74 0 -146 26 -142 108h89c-3 -33 29 -45 58 -45s57 9 57 32c0 20 -18 27 -46 36l-45 13c-56 16 -82 36 -82 81
c0 67 63 98 140 98c72 0 139 -20 139 -100z" />
    <glyph glyph-name="t.subs" horiz-adv-x="252" 
d="M-1 117l14 64h44l20 94h92l-20 -94h56l-14 -64h-56l-28 -130c-1 -12 -4 -18 -4 -25c0 -12 11 -18 33 -18h19l-15 -73h-44c-29 0 -50 2 -65 7c-17 7 -26 22 -26 44c0 10 2 24 5 42l33 153h-44z" />
    <glyph glyph-name="u.subs" horiz-adv-x="397" 
d="M123 181l-34 -163c-3 -13 -5 -25 -5 -36c0 -25 14 -43 47 -43c23 0 36 9 48 22c11 12 19 30 23 53l36 167h92l-66 -309h-89l8 37c-19 -25 -54 -45 -101 -45c-60 0 -96 34 -96 87c0 15 3 29 6 44l40 186h91z" />
    <glyph glyph-name="v.subs" horiz-adv-x="347" 
d="M1 181h89l10 -141c2 -20 4 -72 4 -87h2c7 15 30 64 42 87l70 141h99l-172 -309h-107z" />
    <glyph glyph-name="w.subs" horiz-adv-x="527" 
d="M2 181h87l6 -137c1 -25 3 -66 3 -82h3l36 84l64 135h91l3 -135c1 -13 1 -28 1 -46c1 -18 1 -31 1 -38h3c3 7 9 20 16 38l22 49l61 132h96l-162 -309h-101l-3 124c-1 32 -2 70 -2 79h-2c-4 -9 -20 -46 -36 -79l-58 -124h-100z" />
    <glyph glyph-name="x.subs" horiz-adv-x="353" 
d="M171 -128l-50 99l-88 -99h-102l149 160l-77 149h92l44 -94l79 94h100l-140 -154l85 -155h-92z" />
    <glyph glyph-name="y.subs" horiz-adv-x="350" 
d="M-1 181h93l11 -146c2 -21 4 -68 4 -81h3c5 12 29 61 39 82l73 145h100l-188 -323c-19 -33 -38 -59 -63 -74c-24 -15 -49 -18 -84 -18h-51l15 71h36c36 0 48 13 53 36c1 4 1 9 1 14c0 13 -1 27 -4 40z" />
    <glyph glyph-name="z.subs" horiz-adv-x="342" 
d="M247 -57l-15 -71h-282l15 70l194 168h-152l15 71h267l-15 -70l-195 -168h168z" />
    <glyph glyph-name="uni2080" unicode="&#x2080;" horiz-adv-x="420" 
d="M141 -133c-93 0 -147 60 -147 155c0 117 61 275 208 275c96 0 151 -58 151 -155c0 -120 -61 -275 -212 -275zM147 -59c79 0 109 137 109 204c0 40 -15 77 -58 77c-79 0 -108 -136 -108 -204c0 -39 13 -77 57 -77z" />
    <glyph glyph-name="uni2081" unicode="&#x2081;" horiz-adv-x="282" 
d="M-5 147l13 62c71 0 123 23 142 83h77l-89 -420h-92l59 275h-110z" />
    <glyph glyph-name="uni2082" unicode="&#x2082;" horiz-adv-x="410" 
d="M313 -53l-17 -75h-336c10 108 91 150 169 188l48 23c45 23 75 46 75 86c0 33 -20 54 -64 54c-52 0 -80 -36 -83 -91h-91c8 105 76 165 179 165c91 0 154 -43 154 -122c0 -75 -62 -122 -134 -156l-33 -17c-29 -13 -59 -27 -82 -55h215z" />
    <glyph glyph-name="uni2083" unicode="&#x2083;" horiz-adv-x="408" 
d="M-20 22h87c-1 -3 -1 -6 -1 -9c0 -51 25 -76 74 -76c47 0 84 25 84 72c0 35 -31 51 -70 51h-33l14 63h29c42 0 87 10 87 56c0 35 -27 49 -64 49c-46 0 -73 -25 -80 -74h-88c11 92 76 143 173 143c41 0 75 -9 104 -26s44 -43 44 -80c0 -52 -32 -86 -79 -99
c33 -13 56 -47 56 -87c0 -85 -67 -138 -176 -138c-122 0 -162 61 -162 133c0 7 0 15 1 22z" />
    <glyph glyph-name="uni2084" unicode="&#x2084;" horiz-adv-x="409" 
d="M145 -128l19 90h-204l18 82l252 248h96l-56 -257h62l-15 -73h-62l-19 -90h-91zM52 35h126l26 112l12 52l-67 -69z" />
    <glyph glyph-name="uni2085" unicode="&#x2085;" horiz-adv-x="412" 
d="M331 32c0 -97 -70 -165 -191 -165c-105 0 -165 54 -165 133l94 2c4 -41 33 -65 78 -65c56 0 90 37 90 84c0 45 -33 73 -80 73c-36 0 -61 -16 -74 -36h-86l81 234h281l-18 -73h-201l-27 -80c28 15 53 19 77 19c81 0 141 -49 141 -126z" />
    <glyph glyph-name="uni2086" unicode="&#x2086;" horiz-adv-x="414" 
d="M353 186l-89 2c-3 28 -25 45 -60 45c-66 0 -96 -61 -110 -119h2c17 24 51 41 96 41c79 0 137 -47 137 -127c0 -93 -70 -162 -176 -162c-105 0 -157 62 -157 163c0 70 21 160 80 217c33 32 78 52 131 52c83 0 141 -37 146 -112zM240 24c0 44 -30 68 -74 68
c-49 0 -82 -39 -82 -84s29 -74 73 -74c52 0 83 41 83 90z" />
    <glyph glyph-name="uni2087" unicode="&#x2087;" horiz-adv-x="364" 
d="M9 217l17 75h331l-15 -70c-103 -75 -200 -219 -232 -350h-101c35 131 116 252 225 345h-225z" />
    <glyph glyph-name="uni2088" unicode="&#x2088;" horiz-adv-x="432" 
d="M280 91v-2c37 -16 62 -50 62 -93c0 -84 -79 -129 -188 -129c-49 0 -91 10 -125 31c-33 21 -50 50 -50 88c0 59 44 99 107 112v2c-33 15 -50 43 -50 82c0 71 66 115 167 115c95 0 159 -41 159 -108c0 -45 -35 -86 -82 -98zM201 234c-47 0 -78 -21 -78 -57s33 -55 74 -55
c44 0 78 21 78 57c0 35 -31 55 -74 55zM158 -68c56 0 92 26 92 67c0 43 -40 63 -88 63c-49 0 -91 -25 -91 -66c0 -40 38 -64 87 -64z" />
    <glyph glyph-name="uni2089" unicode="&#x2089;" horiz-adv-x="414" 
d="M-12 -23l89 2c3 -31 27 -48 60 -48c65 0 98 61 110 119h-2c-17 -24 -49 -41 -96 -41c-77 0 -137 46 -137 127c0 94 71 162 176 162c107 0 157 -62 157 -163c0 -69 -21 -158 -79 -216c-33 -33 -77 -53 -132 -53c-83 0 -141 36 -146 111zM175 72c51 0 82 39 82 84
s-29 74 -73 74c-52 0 -83 -42 -83 -90c0 -44 30 -68 74 -68z" />
    <glyph glyph-name="uni208D" unicode="&#x208d;" horiz-adv-x="238" 
d="M124 323h89c-77 -109 -125 -238 -125 -369c0 -55 9 -103 21 -154h-85c-17 55 -29 111 -29 168c0 127 45 242 129 355z" />
    <glyph glyph-name="uni208E" unicode="&#x208e;" horiz-adv-x="236" 
d="M31 -200h-89c76 109 125 240 125 369c0 55 -10 103 -21 154h84c19 -53 29 -109 29 -168c0 -127 -44 -242 -128 -355z" />
    <glyph glyph-name="bracketleft.subs" horiz-adv-x="254" 
d="M123 -200h-157l111 523h157l-15 -72h-69l-80 -379h69z" />
    <glyph glyph-name="bracketright.subs" horiz-adv-x="254" 
d="M49 323h157l-110 -523h-158l15 72h70l80 379h-70z" />
    <glyph glyph-name="uni208A" unicode="&#x208a;" horiz-adv-x="395" 
d="M202 236v-115h114v-78h-114v-116h-81v116h-115v78h115v115h81z" />
    <glyph glyph-name="uni208B" unicode="&#x208b;" horiz-adv-x="417" 
d="M17 42v78h306v-78h-306z" />
    <glyph glyph-name="uni208C" unicode="&#x208c;" horiz-adv-x="427" 
d="M20 112v78h306v-78h-306zM20 -31v78h306v-78h-306z" />
    <glyph glyph-name="period.subs" horiz-adv-x="202" 
d="M96 -22l-22 -106h-107l22 106h107z" />
    <glyph glyph-name="comma.subs" horiz-adv-x="202" 
d="M-33 -128l23 107h107l-19 -87c-8 -39 -21 -64 -40 -84c-23 -23 -54 -36 -93 -40l10 47c27 3 55 23 60 54l1 3h-49z" />
    <glyph glyph-name="a.sups" horiz-adv-x="372" 
d="M203 605h-92c15 73 74 105 161 105c73 0 130 -25 130 -88c0 -17 -2 -31 -6 -51l-28 -136c-1 -9 -4 -18 -4 -26c0 -5 1 -10 4 -15l-1 -3h-90l3 27h-1c-16 -17 -43 -32 -94 -32c-63 0 -107 33 -107 85c0 44 24 70 61 86c32 15 73 20 114 25l25 4c24 4 35 10 35 29
c0 20 -19 33 -51 33c-33 0 -52 -14 -59 -43zM217 447c27 0 56 9 69 33c4 7 5 14 8 27l7 34c-7 -5 -20 -9 -40 -13l-22 -5c-25 -5 -43 -9 -55 -18c-8 -6 -12 -15 -12 -27c0 -21 15 -31 45 -31z" />
    <glyph glyph-name="b.sups" horiz-adv-x="404" 
d="M260 811l-18 -86c-4 -19 -5 -30 -12 -54h1c19 23 51 38 92 38c60 0 116 -39 116 -129c0 -105 -67 -194 -166 -194c-45 0 -80 19 -96 44l-8 -39h-89l89 420h91zM259 452c58 0 86 63 86 121c0 43 -20 69 -57 69c-65 0 -90 -70 -90 -120c0 -48 25 -70 61 -70z" />
    <glyph glyph-name="c.sups" horiz-adv-x="368" 
d="M400 502c-19 -64 -73 -116 -160 -116c-88 0 -150 49 -150 141c0 91 59 182 177 182c81 0 136 -41 141 -116h-89c-6 33 -24 50 -54 50c-59 0 -81 -67 -81 -121c0 -47 19 -70 58 -70c33 0 55 22 67 50h91z" />
    <glyph glyph-name="d.sups" horiz-adv-x="402" 
d="M299 425c-17 -24 -48 -39 -91 -39c-72 0 -118 49 -118 129c0 112 73 193 166 193c39 0 68 -9 91 -42l12 57l19 88h91l-89 -420h-88l8 34h-1zM266 642c-55 0 -83 -64 -83 -123c0 -41 18 -67 57 -67c65 0 88 72 88 123c0 43 -23 67 -62 67z" />
    <glyph glyph-name="e.sups" horiz-adv-x="386" 
d="M417 525h-240v-4c0 -49 28 -74 69 -74c32 0 52 18 67 39h95c-21 -52 -74 -100 -166 -100s-151 54 -151 141c0 101 68 182 179 182c95 0 150 -57 150 -148c0 -12 -1 -24 -3 -36zM265 648c-41 0 -71 -27 -80 -68h144c0 44 -25 68 -64 68z" />
    <glyph glyph-name="f.sups" horiz-adv-x="241" 
d="M123 700h41l5 21c18 79 41 90 124 90h46l-14 -65h-21c-36 0 -40 -10 -47 -38l-2 -8h59l-13 -63h-58l-52 -246h-92l53 246h-42z" />
    <glyph glyph-name="g.sups" horiz-adv-x="400" 
d="M293 424c3 9 3 16 4 21h-1c-16 -20 -46 -35 -89 -35c-61 0 -114 40 -114 123c0 99 68 174 158 174c47 0 79 -16 92 -39h1l7 32h92l-61 -293c-19 -91 -75 -125 -172 -125c-84 0 -138 32 -138 97h95c2 -23 19 -34 52 -34c41 0 63 25 72 70zM268 641c-53 0 -81 -50 -81 -101
c0 -43 19 -64 56 -64c27 0 48 11 61 32c14 21 21 44 21 69c0 43 -19 64 -57 64z" />
    <glyph glyph-name="h.sups" horiz-adv-x="400" 
d="M170 811h92l-21 -93c-3 -17 -5 -29 -12 -52h1c19 27 56 42 101 42c59 0 96 -35 96 -87c0 -14 -2 -29 -6 -44l-40 -186h-91l35 163c3 13 4 25 4 36c0 28 -14 48 -47 48c-22 0 -39 -7 -50 -21c-12 -13 -18 -35 -23 -59l-37 -167h-92z" />
    <glyph glyph-name="uni2071" unicode="&#x2071;" horiz-adv-x="193" 
d="M153 737l16 74h91l-15 -74h-92zM80 391l66 309h91l-66 -309h-91z" />
    <glyph glyph-name="j.sups" horiz-adv-x="204" 
d="M163 738l16 73h93l-16 -73h-93zM156 700h92l-66 -313c-7 -33 -14 -57 -34 -76c-25 -23 -60 -24 -103 -24h-27l15 71h10c17 0 29 3 36 9c6 6 11 17 14 34z" />
    <glyph glyph-name="k.sups" horiz-adv-x="373" 
d="M291 391l-53 135l-47 -40l-20 -95h-91l89 420h92l-32 -151c-5 -19 -8 -35 -15 -66h1l119 106h119l-145 -120l85 -189h-102z" />
    <glyph glyph-name="l.sups" horiz-adv-x="195" 
d="M81 391l89 420h92l-89 -420h-92z" />
    <glyph glyph-name="m.sups" horiz-adv-x="594" 
d="M480 638c-21 0 -35 -7 -47 -19c-13 -13 -18 -36 -23 -59l-36 -169h-92l35 164c3 15 5 27 5 37c0 27 -12 46 -45 46c-19 0 -34 -6 -46 -19c-13 -13 -18 -36 -23 -59l-36 -169h-92l66 309h88l-8 -36h1c19 25 52 44 97 44s73 -15 86 -46h1c19 24 55 46 107 46
c69 0 103 -34 103 -86c0 -15 -2 -29 -5 -44l-40 -187h-92l35 164c3 15 5 27 5 37c0 27 -13 46 -44 46z" />
    <glyph glyph-name="uni207F" unicode="&#x207f;" horiz-adv-x="399" 
d="M281 638c-22 0 -39 -7 -50 -20s-16 -35 -23 -59l-36 -168h-92l66 309h86l-8 -36h1c20 27 57 44 102 44c63 0 99 -34 99 -86c0 -15 -2 -29 -5 -44l-41 -187h-91l35 164c3 13 4 25 4 36c0 27 -14 47 -47 47z" />
    <glyph glyph-name="o.sups" horiz-adv-x="383" 
d="M240 386c-88 0 -150 50 -150 137c0 96 58 186 178 186c91 0 150 -49 150 -136c0 -94 -57 -187 -178 -187zM266 643c-58 0 -83 -70 -83 -122c0 -45 23 -69 60 -69c58 0 82 70 82 123c0 43 -22 68 -59 68z" />
    <glyph glyph-name="p.sups" horiz-adv-x="400" 
d="M170 384l-20 -98h-92l87 414h89l-7 -33h1c19 23 52 41 96 41c55 0 111 -39 111 -129c0 -103 -66 -194 -166 -194c-33 0 -70 12 -90 44c-4 -17 -6 -30 -9 -45zM256 452c58 0 86 62 86 120c0 43 -18 70 -57 70c-62 0 -86 -74 -86 -126c0 -37 24 -64 57 -64z" />
    <glyph glyph-name="q.sups" horiz-adv-x="401" 
d="M445 700l-88 -416h-92l18 89c4 19 7 26 12 46h-2c-15 -20 -47 -34 -90 -34c-68 0 -113 50 -113 129c0 112 75 194 165 194c42 0 72 -15 90 -46h2l7 38h91zM269 642c-56 0 -85 -64 -85 -123c0 -40 20 -67 57 -67c62 0 84 72 84 123c0 39 -20 67 -56 67z" />
    <glyph glyph-name="r.sups" horiz-adv-x="255" 
d="M226 660h2c11 27 43 48 94 48c7 0 11 0 13 -1l-18 -84c-7 3 -15 2 -23 2c-53 0 -78 -28 -90 -83l-31 -151h-92l65 309h89l-4 -19z" />
    <glyph glyph-name="s.sups" horiz-adv-x="353" 
d="M388 609h-86c0 23 -17 39 -54 39c-33 0 -51 -11 -51 -26c0 -17 15 -24 46 -33l40 -11c23 -7 44 -16 63 -27s28 -31 28 -58c0 -78 -77 -107 -154 -107c-74 0 -146 26 -142 108h89c-3 -33 29 -45 58 -45s57 9 57 32c0 20 -18 27 -46 36l-45 13c-56 16 -82 36 -82 81
c0 67 63 98 140 98c72 0 139 -20 139 -100z" />
    <glyph glyph-name="t.sups" horiz-adv-x="252" 
d="M109 636l14 64h44l20 94h92l-20 -94h56l-14 -64h-56l-28 -130c-1 -12 -4 -18 -4 -25c0 -12 11 -18 33 -18h19l-15 -73h-44c-29 0 -50 2 -65 7c-17 7 -26 22 -26 44c0 10 2 24 5 42l33 153h-44z" />
    <glyph glyph-name="u.sups" horiz-adv-x="397" 
d="M234 700l-34 -163c-3 -13 -5 -25 -5 -36c0 -25 14 -43 47 -43c23 0 36 9 48 22c11 12 19 30 23 53l36 167h92l-66 -309h-89l8 37c-19 -25 -54 -45 -101 -45c-60 0 -96 34 -96 87c0 15 3 29 6 44l40 186h91z" />
    <glyph glyph-name="v.sups" horiz-adv-x="347" 
d="M111 700h89l10 -141c2 -20 4 -72 4 -87h2c7 15 30 64 42 87l70 141h99l-172 -309h-107z" />
    <glyph glyph-name="w.sups" horiz-adv-x="527" 
d="M112 700h87l6 -137c1 -25 3 -66 3 -82h3l36 84l64 135h91l3 -135c1 -13 1 -28 1 -46c1 -18 1 -31 1 -38h3c3 7 9 20 16 38l22 49l61 132h96l-162 -309h-101l-3 124c-1 32 -2 70 -2 79h-2c-4 -9 -20 -46 -36 -79l-58 -124h-100z" />
    <glyph glyph-name="x.sups" horiz-adv-x="353" 
d="M281 391l-50 99l-88 -99h-102l149 160l-77 149h92l44 -94l79 94h100l-140 -154l85 -155h-92z" />
    <glyph glyph-name="y.sups" horiz-adv-x="350" 
d="M110 700h93l11 -146c2 -21 4 -68 4 -81h3c5 12 29 61 39 82l73 145h100l-188 -323c-19 -33 -38 -59 -63 -74c-24 -15 -49 -18 -84 -18h-51l15 71h36c36 0 48 13 53 36c1 4 1 9 1 14c0 13 -1 27 -4 40z" />
    <glyph glyph-name="z.sups" horiz-adv-x="342" 
d="M357 462l-15 -71h-282l15 70l194 168h-152l15 71h267l-15 -70l-195 -168h168z" />
    <glyph glyph-name="uni2070" unicode="&#x2070;" horiz-adv-x="420" 
d="M251 386c-93 0 -147 60 -147 155c0 117 61 275 208 275c96 0 151 -58 151 -155c0 -120 -61 -275 -212 -275zM257 460c79 0 109 137 109 204c0 40 -15 77 -58 77c-79 0 -108 -136 -108 -204c0 -39 13 -77 57 -77z" />
    <glyph glyph-name="onesuperior" unicode="&#xb9;" horiz-adv-x="282" 
d="M105 666l13 62c71 0 123 23 142 83h77l-89 -420h-92l59 275h-110z" />
    <glyph glyph-name="twosuperior" unicode="&#xb2;" horiz-adv-x="410" 
d="M423 466l-17 -75h-336c10 108 91 150 169 188l48 23c45 23 75 46 75 86c0 33 -20 54 -64 54c-52 0 -80 -36 -83 -91h-91c8 105 76 165 179 165c91 0 154 -43 154 -122c0 -75 -62 -122 -134 -156l-33 -17c-29 -13 -59 -27 -82 -55h215z" />
    <glyph glyph-name="threesuperior" unicode="&#xb3;" horiz-adv-x="408" 
d="M91 541h87c-1 -3 -1 -6 -1 -9c0 -51 25 -76 74 -76c47 0 84 25 84 72c0 35 -31 51 -70 51h-33l14 63h29c42 0 87 10 87 56c0 35 -27 49 -64 49c-46 0 -73 -25 -80 -74h-88c11 92 76 143 173 143c41 0 75 -9 104 -26s44 -43 44 -80c0 -52 -32 -86 -79 -99
c33 -13 56 -47 56 -87c0 -85 -67 -138 -176 -138c-122 0 -162 61 -162 133c0 7 0 15 1 22z" />
    <glyph glyph-name="uni2074" unicode="&#x2074;" horiz-adv-x="409" 
d="M255 391l19 90h-204l18 82l252 248h96l-56 -257h62l-15 -73h-62l-19 -90h-91zM162 554h126l26 112l12 52l-67 -69z" />
    <glyph glyph-name="uni2075" unicode="&#x2075;" horiz-adv-x="412" 
d="M441 551c0 -97 -70 -165 -191 -165c-105 0 -165 54 -165 133l94 2c4 -41 33 -65 78 -65c56 0 90 37 90 84c0 45 -33 73 -80 73c-36 0 -61 -16 -74 -36h-86l81 234h281l-18 -73h-201l-27 -80c28 15 53 19 77 19c81 0 141 -49 141 -126z" />
    <glyph glyph-name="uni2076" unicode="&#x2076;" horiz-adv-x="414" 
d="M463 705l-89 2c-3 28 -25 45 -60 45c-66 0 -96 -61 -110 -119h2c17 24 51 41 96 41c79 0 137 -47 137 -127c0 -93 -70 -162 -176 -162c-105 0 -157 62 -157 163c0 70 21 160 80 217c33 32 78 52 131 52c83 0 141 -37 146 -112zM350 543c0 44 -30 68 -74 68
c-49 0 -82 -39 -82 -84s29 -74 73 -74c52 0 83 41 83 90z" />
    <glyph glyph-name="uni2077" unicode="&#x2077;" horiz-adv-x="364" 
d="M120 736l17 75h331l-15 -70c-103 -75 -200 -219 -232 -350h-101c35 131 116 252 225 345h-225z" />
    <glyph glyph-name="uni2078" unicode="&#x2078;" horiz-adv-x="432" 
d="M390 610v-2c37 -16 62 -50 62 -93c0 -84 -79 -129 -188 -129c-49 0 -91 10 -125 31c-33 21 -50 50 -50 88c0 59 44 99 107 112v2c-33 15 -50 43 -50 82c0 71 66 115 167 115c95 0 159 -41 159 -108c0 -45 -35 -86 -82 -98zM311 753c-47 0 -78 -21 -78 -57s33 -55 74 -55
c44 0 78 21 78 57c0 35 -31 55 -74 55zM268 451c56 0 92 26 92 67c0 43 -40 63 -88 63c-49 0 -91 -25 -91 -66c0 -40 38 -64 87 -64z" />
    <glyph glyph-name="uni2079" unicode="&#x2079;" horiz-adv-x="414" 
d="M99 496l89 2c3 -31 27 -48 60 -48c65 0 98 61 110 119h-2c-17 -24 -49 -41 -96 -41c-77 0 -137 46 -137 127c0 94 71 162 176 162c107 0 157 -62 157 -163c0 -69 -21 -158 -79 -216c-33 -33 -77 -53 -132 -53c-83 0 -141 36 -146 111zM286 591c51 0 82 39 82 84
s-29 74 -73 74c-52 0 -83 -42 -83 -90c0 -44 30 -68 74 -68z" />
    <glyph glyph-name="uni207D" unicode="&#x207d;" horiz-adv-x="238" 
d="M235 842h89c-77 -109 -125 -238 -125 -369c0 -55 9 -103 21 -154h-85c-17 55 -29 111 -29 168c0 127 45 242 129 355z" />
    <glyph glyph-name="uni207E" unicode="&#x207e;" horiz-adv-x="236" 
d="M141 319h-89c76 109 125 240 125 369c0 55 -10 103 -21 154h84c19 -53 29 -109 29 -168c0 -127 -44 -242 -128 -355z" />
    <glyph glyph-name="bracketleft.sups" horiz-adv-x="254" 
d="M234 319h-157l111 523h157l-15 -72h-69l-80 -379h69z" />
    <glyph glyph-name="bracketright.sups" horiz-adv-x="254" 
d="M159 842h157l-110 -523h-158l15 72h70l80 379h-70z" />
    <glyph glyph-name="uni207A" unicode="&#x207a;" horiz-adv-x="395" 
d="M312 755v-115h114v-78h-114v-116h-81v116h-115v78h115v115h81z" />
    <glyph glyph-name="uni207B" unicode="&#x207b;" horiz-adv-x="417" 
d="M128 561v78h306v-78h-306z" />
    <glyph glyph-name="uni207C" unicode="&#x207c;" horiz-adv-x="427" 
d="M130 631v78h306v-78h-306zM130 488v78h306v-78h-306z" />
    <glyph glyph-name="period.sups" horiz-adv-x="202" 
d="M207 497l-22 -106h-107l22 106h107z" />
    <glyph glyph-name="comma.sups" horiz-adv-x="202" 
d="M77 392l23 107h107l-19 -87c-8 -39 -21 -64 -40 -84c-23 -23 -54 -36 -93 -40l10 47c27 3 55 23 60 54l1 3h-49z" />
    <glyph glyph-name="a.dnom" horiz-adv-x="372" 
d="M119 214h-92c15 73 74 105 161 105c73 0 130 -25 130 -88c0 -17 -2 -31 -6 -51l-28 -136c-1 -9 -4 -18 -4 -26c0 -5 1 -10 4 -15l-1 -3h-90l3 27h-1c-16 -17 -43 -32 -94 -32c-63 0 -107 33 -107 85c0 44 24 70 61 86c32 15 73 20 114 25l25 4c24 4 35 10 35 29
c0 20 -19 33 -51 33c-33 0 -52 -14 -59 -43zM133 56c27 0 56 9 69 33c4 7 5 14 8 27l7 34c-7 -5 -20 -9 -40 -13l-22 -5c-25 -5 -43 -9 -55 -18c-8 -6 -12 -15 -12 -27c0 -21 15 -31 45 -31z" />
    <glyph glyph-name="b.dnom" horiz-adv-x="404" 
d="M184 420l-18 -86c-4 -19 -5 -30 -12 -54h1c19 23 51 38 92 38c60 0 116 -39 116 -129c0 -105 -67 -194 -166 -194c-45 0 -80 19 -96 44l-8 -39h-89l89 420h91zM183 61c58 0 86 63 86 121c0 43 -20 69 -57 69c-65 0 -90 -70 -90 -120c0 -48 25 -70 61 -70z" />
    <glyph glyph-name="c.dnom" horiz-adv-x="368" 
d="M319 111c-19 -64 -73 -116 -160 -116c-88 0 -150 49 -150 141c0 91 59 182 177 182c81 0 136 -41 141 -116h-89c-6 33 -24 50 -54 50c-59 0 -81 -67 -81 -121c0 -47 19 -70 58 -70c33 0 55 22 67 50h91z" />
    <glyph glyph-name="d.dnom" horiz-adv-x="402" 
d="M210 34c-17 -24 -48 -39 -91 -39c-72 0 -118 49 -118 129c0 112 73 193 166 193c39 0 68 -9 91 -42l12 57l19 88h91l-89 -420h-88l8 34h-1zM177 251c-55 0 -83 -64 -83 -123c0 -41 18 -67 57 -67c65 0 88 72 88 123c0 43 -23 67 -62 67z" />
    <glyph glyph-name="e.dnom" horiz-adv-x="386" 
d="M333 134h-240v-4c0 -49 28 -74 69 -74c32 0 52 18 67 39h95c-21 -52 -74 -100 -166 -100s-151 54 -151 141c0 101 68 182 179 182c95 0 150 -57 150 -148c0 -12 -1 -24 -3 -36zM181 257c-41 0 -71 -27 -80 -68h144c0 44 -25 68 -64 68z" />
    <glyph glyph-name="f.dnom" horiz-adv-x="241" 
d="M34 309h41l5 21c18 79 41 90 124 90h46l-14 -65h-21c-36 0 -40 -10 -47 -38l-2 -8h59l-13 -63h-58l-52 -246h-92l53 246h-42z" />
    <glyph glyph-name="g.dnom" horiz-adv-x="400" 
d="M209 33c3 9 3 16 4 21h-1c-16 -20 -46 -35 -89 -35c-61 0 -114 40 -114 123c0 99 68 174 158 174c47 0 79 -16 92 -39h1l7 32h92l-61 -293c-19 -91 -75 -125 -172 -125c-84 0 -138 32 -138 97h95c2 -23 19 -34 52 -34c41 0 63 25 72 70zM184 250c-53 0 -81 -50 -81 -101
c0 -43 19 -64 56 -64c27 0 48 11 61 32c14 21 21 44 21 69c0 43 -19 64 -57 64z" />
    <glyph glyph-name="h.dnom" horiz-adv-x="400" 
d="M88 420h92l-21 -93c-3 -17 -5 -29 -12 -52h1c19 27 56 42 101 42c59 0 96 -35 96 -87c0 -14 -2 -29 -6 -44l-40 -186h-91l35 163c3 13 4 25 4 36c0 28 -14 48 -47 48c-22 0 -39 -7 -50 -21c-12 -13 -18 -35 -23 -59l-37 -167h-92z" />
    <glyph glyph-name="i.dnom" horiz-adv-x="193" 
d="M70 346l16 74h91l-15 -74h-92zM-3 0l66 309h91l-66 -309h-91z" />
    <glyph glyph-name="j.dnom" horiz-adv-x="204" 
d="M80 347l16 73h93l-16 -73h-93zM73 309h92l-66 -313c-7 -33 -14 -57 -34 -76c-25 -23 -60 -24 -103 -24h-27l15 71h10c17 0 29 3 36 9c6 6 11 17 14 34z" />
    <glyph glyph-name="k.dnom" horiz-adv-x="373" 
d="M209 0l-53 135l-47 -40l-20 -95h-91l89 420h92l-32 -151c-5 -19 -8 -35 -15 -66h1l119 106h119l-145 -120l85 -189h-102z" />
    <glyph glyph-name="l.dnom" horiz-adv-x="195" 
d="M-2 0l89 420h92l-89 -420h-92z" />
    <glyph glyph-name="m.dnom" horiz-adv-x="594" 
d="M397 247c-21 0 -35 -7 -47 -19c-13 -13 -18 -36 -23 -59l-36 -169h-92l35 164c3 15 5 27 5 37c0 27 -12 46 -45 46c-19 0 -34 -6 -46 -19c-13 -13 -18 -36 -23 -59l-36 -169h-92l66 309h88l-8 -36h1c19 25 52 44 97 44s73 -15 86 -46h1c19 24 55 46 107 46
c69 0 103 -34 103 -86c0 -15 -2 -29 -5 -44l-40 -187h-92l35 164c3 15 5 27 5 37c0 27 -13 46 -44 46z" />
    <glyph glyph-name="n.dnom" horiz-adv-x="399" 
d="M198 247c-22 0 -39 -7 -50 -20s-16 -35 -23 -59l-36 -168h-92l66 309h86l-8 -36h1c20 27 57 44 102 44c63 0 99 -34 99 -86c0 -15 -2 -29 -5 -44l-41 -187h-91l35 164c3 13 4 25 4 36c0 27 -14 47 -47 47z" />
    <glyph glyph-name="o.dnom" horiz-adv-x="383" 
d="M157 -5c-88 0 -150 50 -150 137c0 96 58 186 178 186c91 0 150 -49 150 -136c0 -94 -57 -187 -178 -187zM183 252c-58 0 -83 -70 -83 -122c0 -45 23 -69 60 -69c58 0 82 70 82 123c0 43 -22 68 -59 68z" />
    <glyph glyph-name="p.dnom" horiz-adv-x="400" 
d="M87 -7l-20 -98h-92l87 414h89l-7 -33h1c19 23 52 41 96 41c55 0 111 -39 111 -129c0 -103 -66 -194 -166 -194c-33 0 -70 12 -90 44c-4 -17 -6 -30 -9 -45zM173 61c58 0 86 62 86 120c0 43 -18 70 -57 70c-62 0 -86 -74 -86 -126c0 -37 24 -64 57 -64z" />
    <glyph glyph-name="q.dnom" horiz-adv-x="401" 
d="M361 309l-88 -416h-92l18 89c4 19 7 26 12 46h-2c-15 -20 -47 -34 -90 -34c-68 0 -113 50 -113 129c0 112 75 194 165 194c42 0 72 -15 90 -46h2l7 38h91zM185 251c-56 0 -85 -64 -85 -123c0 -40 20 -67 57 -67c62 0 84 72 84 123c0 39 -20 67 -56 67z" />
    <glyph glyph-name="r.dnom" horiz-adv-x="255" 
d="M142 269h2c11 27 43 48 94 48c7 0 11 0 13 -1l-18 -84c-7 3 -15 2 -23 2c-53 0 -78 -28 -90 -83l-31 -151h-92l65 309h89l-4 -19z" />
    <glyph glyph-name="s.dnom" horiz-adv-x="353" 
d="M305 218h-86c0 23 -17 39 -54 39c-33 0 -51 -11 -51 -26c0 -17 15 -24 46 -33l40 -11c23 -7 44 -16 63 -27s28 -31 28 -58c0 -78 -77 -107 -154 -107c-74 0 -146 26 -142 108h89c-3 -33 29 -45 58 -45s57 9 57 32c0 20 -18 27 -46 36l-45 13c-56 16 -82 36 -82 81
c0 67 63 98 140 98c72 0 139 -20 139 -100z" />
    <glyph glyph-name="t.dnom" horiz-adv-x="252" 
d="M26 245l14 64h44l20 94h92l-20 -94h56l-14 -64h-56l-28 -130c-1 -12 -4 -18 -4 -25c0 -12 11 -18 33 -18h19l-15 -73h-44c-29 0 -50 2 -65 7c-17 7 -26 22 -26 44c0 10 2 24 5 42l33 153h-44z" />
    <glyph glyph-name="u.dnom" horiz-adv-x="397" 
d="M151 309l-34 -163c-3 -13 -5 -25 -5 -36c0 -25 14 -43 47 -43c23 0 36 9 48 22c11 12 19 30 23 53l36 167h92l-66 -309h-89l8 37c-19 -25 -54 -45 -101 -45c-60 0 -96 34 -96 87c0 15 3 29 6 44l40 186h91z" />
    <glyph glyph-name="v.dnom" horiz-adv-x="347" 
d="M28 309h89l10 -141c2 -20 4 -72 4 -87h2c7 15 30 64 42 87l70 141h99l-172 -309h-107z" />
    <glyph glyph-name="w.dnom" horiz-adv-x="527" 
d="M29 309h87l6 -137c1 -25 3 -66 3 -82h3l36 84l64 135h91l3 -135c1 -13 1 -28 1 -46c1 -18 1 -31 1 -38h3c3 7 9 20 16 38l22 49l61 132h96l-162 -309h-101l-3 124c-1 32 -2 70 -2 79h-2c-4 -9 -20 -46 -36 -79l-58 -124h-100z" />
    <glyph glyph-name="x.dnom" horiz-adv-x="353" 
d="M198 0l-50 99l-88 -99h-102l149 160l-77 149h92l44 -94l79 94h100l-140 -154l85 -155h-92z" />
    <glyph glyph-name="y.dnom" horiz-adv-x="350" 
d="M26 309h93l11 -146c2 -21 4 -68 4 -81h3c5 12 29 61 39 82l73 145h100l-188 -323c-19 -33 -38 -59 -63 -74c-24 -15 -49 -18 -84 -18h-51l15 71h36c36 0 48 13 53 36c1 4 1 9 1 14c0 13 -1 27 -4 40z" />
    <glyph glyph-name="z.dnom" horiz-adv-x="342" 
d="M274 71l-15 -71h-282l15 70l194 168h-152l15 71h267l-15 -70l-195 -168h168z" />
    <glyph glyph-name="zero.dnom" horiz-adv-x="420" 
d="M168 -5c-93 0 -147 60 -147 155c0 117 61 275 208 275c96 0 151 -58 151 -155c0 -120 -61 -275 -212 -275zM174 69c79 0 109 137 109 204c0 40 -15 77 -58 77c-79 0 -108 -136 -108 -204c0 -39 13 -77 57 -77z" />
    <glyph glyph-name="one.dnom" horiz-adv-x="282" 
d="M22 275l13 62c71 0 123 23 142 83h77l-89 -420h-92l59 275h-110z" />
    <glyph glyph-name="two.dnom" horiz-adv-x="410" 
d="M340 75l-17 -75h-336c10 108 91 150 169 188l48 23c45 23 75 46 75 86c0 33 -20 54 -64 54c-52 0 -80 -36 -83 -91h-91c8 105 76 165 179 165c91 0 154 -43 154 -122c0 -75 -62 -122 -134 -156l-33 -17c-29 -13 -59 -27 -82 -55h215z" />
    <glyph glyph-name="three.dnom" horiz-adv-x="408" 
d="M8 150h87c-1 -3 -1 -6 -1 -9c0 -51 25 -76 74 -76c47 0 84 25 84 72c0 35 -31 51 -70 51h-33l14 63h29c42 0 87 10 87 56c0 35 -27 49 -64 49c-46 0 -73 -25 -80 -74h-88c11 92 76 143 173 143c41 0 75 -9 104 -26s44 -43 44 -80c0 -52 -32 -86 -79 -99
c33 -13 56 -47 56 -87c0 -85 -67 -138 -176 -138c-122 0 -162 61 -162 133c0 7 0 15 1 22z" />
    <glyph glyph-name="four.dnom" horiz-adv-x="409" 
d="M172 0l19 90h-204l18 82l252 248h96l-56 -257h62l-15 -73h-62l-19 -90h-91zM79 163h126l26 112l12 52l-67 -69z" />
    <glyph glyph-name="five.dnom" horiz-adv-x="412" 
d="M358 160c0 -97 -70 -165 -191 -165c-105 0 -165 54 -165 133l94 2c4 -41 33 -65 78 -65c56 0 90 37 90 84c0 45 -33 73 -80 73c-36 0 -61 -16 -74 -36h-86l81 234h281l-18 -73h-201l-27 -80c28 15 53 19 77 19c81 0 141 -49 141 -126z" />
    <glyph glyph-name="six.dnom" horiz-adv-x="414" 
d="M380 314l-89 2c-3 28 -25 45 -60 45c-66 0 -96 -61 -110 -119h2c17 24 51 41 96 41c79 0 137 -47 137 -127c0 -93 -70 -162 -176 -162c-105 0 -157 62 -157 163c0 70 21 160 80 217c33 32 78 52 131 52c83 0 141 -37 146 -112zM267 152c0 44 -30 68 -74 68
c-49 0 -82 -39 -82 -84s29 -74 73 -74c52 0 83 41 83 90z" />
    <glyph glyph-name="seven.dnom" horiz-adv-x="364" 
d="M37 345l17 75h331l-15 -70c-103 -75 -200 -219 -232 -350h-101c35 131 116 252 225 345h-225z" />
    <glyph glyph-name="eight.dnom" horiz-adv-x="432" 
d="M307 219v-2c37 -16 62 -50 62 -93c0 -84 -79 -129 -188 -129c-49 0 -91 10 -125 31c-33 21 -50 50 -50 88c0 59 44 99 107 112v2c-33 15 -50 43 -50 82c0 71 66 115 167 115c95 0 159 -41 159 -108c0 -45 -35 -86 -82 -98zM228 362c-47 0 -78 -21 -78 -57s33 -55 74 -55
c44 0 78 21 78 57c0 35 -31 55 -74 55zM185 60c56 0 92 26 92 67c0 43 -40 63 -88 63c-49 0 -91 -25 -91 -66c0 -40 38 -64 87 -64z" />
    <glyph glyph-name="nine.dnom" horiz-adv-x="414" 
d="M16 105l89 2c3 -31 27 -48 60 -48c65 0 98 61 110 119h-2c-17 -24 -49 -41 -96 -41c-77 0 -137 46 -137 127c0 94 71 162 176 162c107 0 157 -62 157 -163c0 -69 -21 -158 -79 -216c-33 -33 -77 -53 -132 -53c-83 0 -141 36 -146 111zM203 200c51 0 82 39 82 84
s-29 74 -73 74c-52 0 -83 -42 -83 -90c0 -44 30 -68 74 -68z" />
    <glyph glyph-name="parenleft.dnom" horiz-adv-x="238" 
d="M151 451h89c-77 -109 -125 -238 -125 -369c0 -55 9 -103 21 -154h-85c-17 55 -29 111 -29 168c0 127 45 242 129 355z" />
    <glyph glyph-name="parenright.dnom" horiz-adv-x="236" 
d="M58 -72h-89c76 109 125 240 125 369c0 55 -10 103 -21 154h84c19 -53 29 -109 29 -168c0 -127 -44 -242 -128 -355z" />
    <glyph glyph-name="bracketleft.dnom" horiz-adv-x="254" 
d="M150 -72h-157l111 523h157l-15 -72h-69l-80 -379h69z" />
    <glyph glyph-name="bracketright.dnom" horiz-adv-x="254" 
d="M76 451h157l-110 -523h-158l15 72h70l80 379h-70z" />
    <glyph glyph-name="plus.dnom" horiz-adv-x="395" 
d="M229 365v-115h114v-78h-114v-116h-81v116h-115v78h115v115h81z" />
    <glyph glyph-name="minus.dnom" horiz-adv-x="417" 
d="M46 172v78h306v-78h-306z" />
    <glyph glyph-name="equal.dnom" horiz-adv-x="427" 
d="M51 243v78h306v-78h-306zM51 100v78h306v-78h-306z" />
    <glyph glyph-name="period.dnom" horiz-adv-x="202" 
d="M124 106l-22 -106h-107l22 106h107z" />
    <glyph glyph-name="comma.dnom" horiz-adv-x="202" 
d="M-6 0l23 107h107l-19 -87c-8 -39 -21 -64 -40 -84c-23 -23 -54 -36 -93 -40l10 47c27 3 55 23 60 54l1 3h-49z" />
    <glyph glyph-name="a.numr" horiz-adv-x="372" 
d="M179 494h-92c15 73 74 105 161 105c73 0 130 -25 130 -88c0 -17 -2 -31 -6 -51l-28 -136c-1 -9 -4 -18 -4 -26c0 -5 1 -10 4 -15l-1 -3h-90l3 27h-1c-16 -17 -43 -32 -94 -32c-63 0 -107 33 -107 85c0 44 24 70 61 86c32 15 73 20 114 25l25 4c24 4 35 10 35 29
c0 20 -19 33 -51 33c-33 0 -52 -14 -59 -43zM193 336c27 0 56 9 69 33c4 7 5 14 8 27l7 34c-7 -5 -20 -9 -40 -13l-22 -5c-25 -5 -43 -9 -55 -18c-8 -6 -12 -15 -12 -27c0 -21 15 -31 45 -31z" />
    <glyph glyph-name="b.numr" horiz-adv-x="404" 
d="M244 700l-18 -86c-4 -19 -5 -30 -12 -54h1c19 23 51 38 92 38c60 0 116 -39 116 -129c0 -105 -67 -194 -166 -194c-45 0 -80 19 -96 44l-8 -39h-89l89 420h91zM243 341c58 0 86 63 86 121c0 43 -20 69 -57 69c-65 0 -90 -70 -90 -120c0 -48 25 -70 61 -70z" />
    <glyph glyph-name="c.numr" horiz-adv-x="368" 
d="M378 391c-19 -64 -73 -116 -160 -116c-88 0 -150 49 -150 141c0 91 59 182 177 182c81 0 136 -41 141 -116h-89c-6 33 -24 50 -54 50c-59 0 -81 -67 -81 -121c0 -47 19 -70 58 -70c33 0 55 22 67 50h91z" />
    <glyph glyph-name="d.numr" horiz-adv-x="402" 
d="M269 314c-17 -24 -48 -39 -91 -39c-72 0 -118 49 -118 129c0 112 73 193 166 193c39 0 68 -9 91 -42l12 57l19 88h91l-89 -420h-88l8 34h-1zM236 531c-55 0 -83 -64 -83 -123c0 -41 18 -67 57 -67c65 0 88 72 88 123c0 43 -23 67 -62 67z" />
    <glyph glyph-name="e.numr" horiz-adv-x="386" 
d="M393 414h-240v-4c0 -49 28 -74 69 -74c32 0 52 18 67 39h95c-21 -52 -74 -100 -166 -100s-151 54 -151 141c0 101 68 182 179 182c95 0 150 -57 150 -148c0 -12 -1 -24 -3 -36zM241 537c-41 0 -71 -27 -80 -68h144c0 44 -25 68 -64 68z" />
    <glyph glyph-name="f.numr" horiz-adv-x="241" 
d="M93 589h41l5 21c18 79 41 90 124 90h46l-14 -65h-21c-36 0 -40 -10 -47 -38l-2 -8h59l-13 -63h-58l-52 -246h-92l53 246h-42z" />
    <glyph glyph-name="g.numr" horiz-adv-x="400" 
d="M268 313c3 9 3 16 4 21h-1c-16 -20 -46 -35 -89 -35c-61 0 -114 40 -114 123c0 99 68 174 158 174c47 0 79 -16 92 -39h1l7 32h92l-61 -293c-19 -91 -75 -125 -172 -125c-84 0 -138 32 -138 97h95c2 -23 19 -34 52 -34c41 0 63 25 72 70zM243 530c-53 0 -81 -50 -81 -101
c0 -43 19 -64 56 -64c27 0 48 11 61 32c14 21 21 44 21 69c0 43 -19 64 -57 64z" />
    <glyph glyph-name="h.numr" horiz-adv-x="400" 
d="M147 700h92l-21 -93c-3 -17 -5 -29 -12 -52h1c19 27 56 42 101 42c59 0 96 -35 96 -87c0 -14 -2 -29 -6 -44l-40 -186h-91l35 163c3 13 4 25 4 36c0 28 -14 48 -47 48c-22 0 -39 -7 -50 -21c-12 -13 -18 -35 -23 -59l-37 -167h-92z" />
    <glyph glyph-name="i.numr" horiz-adv-x="193" 
d="M129 626l16 74h91l-15 -74h-92zM56 280l66 309h91l-66 -309h-91z" />
    <glyph glyph-name="j.numr" horiz-adv-x="204" 
d="M139 627l16 73h93l-16 -73h-93zM132 589h92l-66 -313c-7 -33 -14 -57 -34 -76c-25 -23 -60 -24 -103 -24h-27l15 71h10c17 0 29 3 36 9c6 6 11 17 14 34z" />
    <glyph glyph-name="k.numr" horiz-adv-x="373" 
d="M268 280l-53 135l-47 -40l-20 -95h-91l89 420h92l-32 -151c-5 -19 -8 -35 -15 -66h1l119 106h119l-145 -120l85 -189h-102z" />
    <glyph glyph-name="l.numr" horiz-adv-x="195" 
d="M57 280l89 420h92l-89 -420h-92z" />
    <glyph glyph-name="m.numr" horiz-adv-x="594" 
d="M456 527c-21 0 -35 -7 -47 -19c-13 -13 -18 -36 -23 -59l-36 -169h-92l35 164c3 15 5 27 5 37c0 27 -12 46 -45 46c-19 0 -34 -6 -46 -19c-13 -13 -18 -36 -23 -59l-36 -169h-92l66 309h88l-8 -36h1c19 25 52 44 97 44s73 -15 86 -46h1c19 24 55 46 107 46
c69 0 103 -34 103 -86c0 -15 -2 -29 -5 -44l-40 -187h-92l35 164c3 15 5 27 5 37c0 27 -13 46 -44 46z" />
    <glyph glyph-name="n.numr" horiz-adv-x="399" 
d="M257 527c-22 0 -39 -7 -50 -20s-16 -35 -23 -59l-36 -168h-92l66 309h86l-8 -36h1c20 27 57 44 102 44c63 0 99 -34 99 -86c0 -15 -2 -29 -5 -44l-41 -187h-91l35 164c3 13 4 25 4 36c0 27 -14 47 -47 47z" />
    <glyph glyph-name="o.numr" horiz-adv-x="383" 
d="M216 275c-88 0 -150 50 -150 137c0 96 58 186 178 186c91 0 150 -49 150 -136c0 -94 -57 -187 -178 -187zM242 532c-58 0 -83 -70 -83 -122c0 -45 23 -69 60 -69c58 0 82 70 82 123c0 43 -22 68 -59 68z" />
    <glyph glyph-name="p.numr" horiz-adv-x="400" 
d="M147 273l-20 -98h-92l87 414h89l-7 -33h1c19 23 52 41 96 41c55 0 111 -39 111 -129c0 -103 -66 -194 -166 -194c-33 0 -70 12 -90 44c-4 -17 -6 -30 -9 -45zM233 341c58 0 86 62 86 120c0 43 -18 70 -57 70c-62 0 -86 -74 -86 -126c0 -37 24 -64 57 -64z" />
    <glyph glyph-name="q.numr" horiz-adv-x="401" 
d="M420 589l-88 -416h-92l18 89c4 19 7 26 12 46h-2c-15 -20 -47 -34 -90 -34c-68 0 -113 50 -113 129c0 112 75 194 165 194c42 0 72 -15 90 -46h2l7 38h91zM244 531c-56 0 -85 -64 -85 -123c0 -40 20 -67 57 -67c62 0 84 72 84 123c0 39 -20 67 -56 67z" />
    <glyph glyph-name="r.numr" horiz-adv-x="255" 
d="M201 549h2c11 27 43 48 94 48c7 0 11 0 13 -1l-18 -84c-7 3 -15 2 -23 2c-53 0 -78 -28 -90 -83l-31 -151h-92l65 309h89l-4 -19z" />
    <glyph glyph-name="s.numr" horiz-adv-x="353" 
d="M365 498h-86c0 23 -17 39 -54 39c-33 0 -51 -11 -51 -26c0 -17 15 -24 46 -33l40 -11c23 -7 44 -16 63 -27s28 -31 28 -58c0 -78 -77 -107 -154 -107c-74 0 -146 26 -142 108h89c-3 -33 29 -45 58 -45s57 9 57 32c0 20 -18 27 -46 36l-45 13c-56 16 -82 36 -82 81
c0 67 63 98 140 98c72 0 139 -20 139 -100z" />
    <glyph glyph-name="t.numr" horiz-adv-x="252" 
d="M85 525l14 64h44l20 94h92l-20 -94h56l-14 -64h-56l-28 -130c-1 -12 -4 -18 -4 -25c0 -12 11 -18 33 -18h19l-15 -73h-44c-29 0 -50 2 -65 7c-17 7 -26 22 -26 44c0 10 2 24 5 42l33 153h-44z" />
    <glyph glyph-name="u.numr" horiz-adv-x="397" 
d="M210 589l-34 -163c-3 -13 -5 -25 -5 -36c0 -25 14 -43 47 -43c23 0 36 9 48 22c11 12 19 30 23 53l36 167h92l-66 -309h-89l8 37c-19 -25 -54 -45 -101 -45c-60 0 -96 34 -96 87c0 15 3 29 6 44l40 186h91z" />
    <glyph glyph-name="v.numr" horiz-adv-x="347" 
d="M88 589h89l10 -141c2 -20 4 -72 4 -87h2c7 15 30 64 42 87l70 141h99l-172 -309h-107z" />
    <glyph glyph-name="w.numr" horiz-adv-x="527" 
d="M89 589h87l6 -137c1 -25 3 -66 3 -82h3l36 84l64 135h91l3 -135c1 -13 1 -28 1 -46c1 -18 1 -31 1 -38h3c3 7 9 20 16 38l22 49l61 132h96l-162 -309h-101l-3 124c-1 32 -2 70 -2 79h-2c-4 -9 -20 -46 -36 -79l-58 -124h-100z" />
    <glyph glyph-name="x.numr" horiz-adv-x="353" 
d="M258 280l-50 99l-88 -99h-102l149 160l-77 149h92l44 -94l79 94h100l-140 -154l85 -155h-92z" />
    <glyph glyph-name="y.numr" horiz-adv-x="350" 
d="M85 589h93l11 -146c2 -21 4 -68 4 -81h3c5 12 29 61 39 82l73 145h100l-188 -323c-19 -33 -38 -59 -63 -74c-24 -15 -49 -18 -84 -18h-51l15 71h36c36 0 48 13 53 36c1 4 1 9 1 14c0 13 -1 27 -4 40z" />
    <glyph glyph-name="z.numr" horiz-adv-x="342" 
d="M334 351l-15 -71h-282l15 70l194 168h-152l15 71h267l-15 -70l-195 -168h168z" />
    <glyph glyph-name="zero.numr" horiz-adv-x="420" 
d="M228 275c-93 0 -147 60 -147 155c0 117 61 275 208 275c96 0 151 -58 151 -155c0 -120 -61 -275 -212 -275zM234 349c79 0 109 137 109 204c0 40 -15 77 -58 77c-79 0 -108 -136 -108 -204c0 -39 13 -77 57 -77z" />
    <glyph glyph-name="one.numr" horiz-adv-x="282" 
d="M82 555l13 62c71 0 123 23 142 83h77l-89 -420h-92l59 275h-110z" />
    <glyph glyph-name="two.numr" horiz-adv-x="410" 
d="M400 355l-17 -75h-336c10 108 91 150 169 188l48 23c45 23 75 46 75 86c0 33 -20 54 -64 54c-52 0 -80 -36 -83 -91h-91c8 105 76 165 179 165c91 0 154 -43 154 -122c0 -75 -62 -122 -134 -156l-33 -17c-29 -13 -59 -27 -82 -55h215z" />
    <glyph glyph-name="three.numr" horiz-adv-x="408" 
d="M67 430h87c-1 -3 -1 -6 -1 -9c0 -51 25 -76 74 -76c47 0 84 25 84 72c0 35 -31 51 -70 51h-33l14 63h29c42 0 87 10 87 56c0 35 -27 49 -64 49c-46 0 -73 -25 -80 -74h-88c11 92 76 143 173 143c41 0 75 -9 104 -26s44 -43 44 -80c0 -52 -32 -86 -79 -99
c33 -13 56 -47 56 -87c0 -85 -67 -138 -176 -138c-122 0 -162 61 -162 133c0 7 0 15 1 22z" />
    <glyph glyph-name="four.numr" horiz-adv-x="409" 
d="M232 280l19 90h-204l18 82l252 248h96l-56 -257h62l-15 -73h-62l-19 -90h-91zM139 443h126l26 112l12 52l-67 -69z" />
    <glyph glyph-name="five.numr" horiz-adv-x="412" 
d="M418 440c0 -97 -70 -165 -191 -165c-105 0 -165 54 -165 133l94 2c4 -41 33 -65 78 -65c56 0 90 37 90 84c0 45 -33 73 -80 73c-36 0 -61 -16 -74 -36h-86l81 234h281l-18 -73h-201l-27 -80c28 15 53 19 77 19c81 0 141 -49 141 -126z" />
    <glyph glyph-name="six.numr" horiz-adv-x="414" 
d="M439 594l-89 2c-3 28 -25 45 -60 45c-66 0 -96 -61 -110 -119h2c17 24 51 41 96 41c79 0 137 -47 137 -127c0 -93 -70 -162 -176 -162c-105 0 -157 62 -157 163c0 70 21 160 80 217c33 32 78 52 131 52c83 0 141 -37 146 -112zM326 432c0 44 -30 68 -74 68
c-49 0 -82 -39 -82 -84s29 -74 73 -74c52 0 83 41 83 90z" />
    <glyph glyph-name="seven.numr" horiz-adv-x="364" 
d="M96 625l17 75h331l-15 -70c-103 -75 -200 -219 -232 -350h-101c35 131 116 252 225 345h-225z" />
    <glyph glyph-name="eight.numr" horiz-adv-x="432" 
d="M367 499v-2c37 -16 62 -50 62 -93c0 -84 -79 -129 -188 -129c-49 0 -91 10 -125 31c-33 21 -50 50 -50 88c0 59 44 99 107 112v2c-33 15 -50 43 -50 82c0 71 66 115 167 115c95 0 159 -41 159 -108c0 -45 -35 -86 -82 -98zM288 642c-47 0 -78 -21 -78 -57s33 -55 74 -55
c44 0 78 21 78 57c0 35 -31 55 -74 55zM245 340c56 0 92 26 92 67c0 43 -40 63 -88 63c-49 0 -91 -25 -91 -66c0 -40 38 -64 87 -64z" />
    <glyph glyph-name="nine.numr" horiz-adv-x="414" 
d="M75 385l89 2c3 -31 27 -48 60 -48c65 0 98 61 110 119h-2c-17 -24 -49 -41 -96 -41c-77 0 -137 46 -137 127c0 94 71 162 176 162c107 0 157 -62 157 -163c0 -69 -21 -158 -79 -216c-33 -33 -77 -53 -132 -53c-83 0 -141 36 -146 111zM262 480c51 0 82 39 82 84
s-29 74 -73 74c-52 0 -83 -42 -83 -90c0 -44 30 -68 74 -68z" />
    <glyph glyph-name="parenleft.numr" horiz-adv-x="238" 
d="M211 731h89c-77 -109 -125 -238 -125 -369c0 -55 9 -103 21 -154h-85c-17 55 -29 111 -29 168c0 127 45 242 129 355z" />
    <glyph glyph-name="parenright.numr" horiz-adv-x="236" 
d="M118 208h-89c76 109 125 240 125 369c0 55 -10 103 -21 154h84c19 -53 29 -109 29 -168c0 -127 -44 -242 -128 -355z" />
    <glyph glyph-name="bracketleft.numr" horiz-adv-x="254" 
d="M210 208h-157l111 523h157l-15 -72h-69l-80 -379h69z" />
    <glyph glyph-name="bracketright.numr" horiz-adv-x="254" 
d="M135 731h157l-110 -523h-158l15 72h70l80 379h-70z" />
    <glyph glyph-name="plus.numr" horiz-adv-x="395" 
d="M288 645v-115h114v-78h-114v-116h-81v116h-115v78h115v115h81z" />
    <glyph glyph-name="minus.numr" horiz-adv-x="417" 
d="M106 452v78h306v-78h-306z" />
    <glyph glyph-name="equal.numr" horiz-adv-x="427" 
d="M111 523v78h306v-78h-306zM111 380v78h306v-78h-306z" />
    <glyph glyph-name="period.numr" horiz-adv-x="202" 
d="M184 386l-22 -106h-107l22 106h107z" />
    <glyph glyph-name="comma.numr" horiz-adv-x="202" 
d="M54 280l23 107h107l-19 -87c-8 -39 -21 -64 -40 -84c-23 -23 -54 -36 -93 -40l10 47c27 3 55 23 60 54l1 3h-49z" />
    <glyph glyph-name="bar" unicode="|" horiz-adv-x="272" 
d="M107 -172h-122l184 872h123z" />
    <glyph glyph-name="bar.case" horiz-adv-x="272" 
d="M125 -86h-122l184 872h123z" />
    <glyph glyph-name="brokenbar" unicode="&#xa6;" horiz-adv-x="272" 
d="M218 351h-123l74 349h123zM107 -172h-122l73 349h123z" />
    <glyph glyph-name="brokenbar.case" horiz-adv-x="272" 
d="M236 437h-123l74 349h123zM125 -86h-122l73 349h123z" />
    <glyph glyph-name="backslash" unicode="\" horiz-adv-x="415" 
d="M221 0l-107 700h121l108 -700h-122z" />
    <glyph glyph-name="uni00AD" unicode="&#xad;" horiz-adv-x="405" 
d="M52 229l25 117h289l-25 -117h-289z" />
    <glyph glyph-name="uni00AD.case" horiz-adv-x="412" 
d="M72 309l25 117h289l-25 -117h-289z" />
    <glyph glyph-name="hyphen" unicode="-" horiz-adv-x="405" 
d="M52 229l25 117h289l-25 -117h-289z" />
    <glyph glyph-name="hyphen.case" horiz-adv-x="412" 
d="M72 309l25 117h289l-25 -117h-289z" />
    <glyph glyph-name="endash" unicode="&#x2013;" horiz-adv-x="613" 
d="M50 229l25 114h500l-25 -114h-500z" />
    <glyph glyph-name="endash.case" horiz-adv-x="620" 
d="M70 309l25 114h500l-25 -114h-500z" />
    <glyph glyph-name="emdash" unicode="&#x2014;" horiz-adv-x="1115" 
d="M50 229l25 114h1002l-25 -114h-1002z" />
    <glyph glyph-name="emdash.case" horiz-adv-x="1122" 
d="M70 309l25 114h1002l-25 -114h-1002z" />
    <glyph glyph-name="underscore" unicode="_" horiz-adv-x="475" 
d="M-86 -129l13 59h484l-13 -59h-484z" />
    <glyph glyph-name="bullet" unicode="&#x2022;" horiz-adv-x="503" 
d="M270 521c97 0 177 -80 177 -178c0 -96 -80 -177 -177 -177c-98 0 -178 81 -178 177c0 98 80 178 178 178z" />
    <glyph glyph-name="H18533" unicode="&#x25cf;" horiz-adv-x="277" 
d="M52 298c0 52 43 95 95 95s95 -43 95 -95s-43 -95 -95 -95s-95 43 -95 95z" />
    <glyph glyph-name="middot" unicode="&#xb7;" horiz-adv-x="266" 
d="M231 365l-31 -145h-150l31 145h150z" />
    <glyph glyph-name="periodcentered.case" horiz-adv-x="273" 
d="M251 445l-31 -145h-150l31 145h150z" />
    <glyph glyph-name="quotesinglbase" unicode="&#x201a;" horiz-adv-x="262" 
d="M8 0l31 143h150l-28 -130c-13 -61 -29 -87 -52 -114c-33 -37 -80 -60 -137 -68l15 71c43 7 84 43 92 92l1 6h-72z" />
    <glyph glyph-name="quotedblbase" unicode="&#x201e;" horiz-adv-x="482" 
d="M8 0l31 143h150l-28 -130c-13 -61 -29 -87 -52 -114c-33 -37 -80 -60 -137 -68l15 71c43 7 84 43 92 92l1 6h-72zM228 0l31 143h150l-28 -130c-13 -61 -29 -87 -52 -114c-33 -37 -80 -60 -137 -68l15 71c43 7 84 43 92 92l1 6h-72z" />
    <glyph glyph-name="quoteleft" unicode="&#x2018;" horiz-adv-x="257" 
d="M262 543l-31 -143h-150l28 130c13 61 29 87 52 114c33 39 80 60 137 68l-15 -71c-43 -7 -84 -41 -92 -92l-1 -6h72z" />
    <glyph glyph-name="quoteright" unicode="&#x2019;" horiz-adv-x="250" 
d="M120 557l31 143h150l-28 -130c-13 -61 -29 -87 -52 -114c-33 -37 -80 -60 -137 -68l15 71c43 7 84 43 92 92l1 6h-72z" />
    <glyph glyph-name="quotedblleft" unicode="&#x201c;" horiz-adv-x="477" 
d="M262 543l-31 -143h-150l28 130c13 61 29 87 52 114c33 39 80 60 137 68l-15 -71c-43 -7 -84 -41 -92 -92l-1 -6h72zM482 543l-31 -143h-150l28 130c13 61 29 87 52 114c33 39 80 60 137 68l-15 -71c-43 -7 -84 -41 -92 -92l-1 -6h72z" />
    <glyph glyph-name="quotedblright" unicode="&#x201d;" horiz-adv-x="470" 
d="M340 557l31 143h150l-28 -130c-13 -61 -29 -87 -52 -114c-33 -37 -80 -60 -137 -68l15 71c43 7 84 43 92 92l1 6h-72zM120 557l31 143h150l-28 -130c-13 -61 -29 -87 -52 -114c-33 -37 -80 -60 -137 -68l15 71c43 7 84 43 92 92l1 6h-72z" />
    <glyph glyph-name="guilsinglleft" unicode="&#x2039;" horiz-adv-x="270" 
d="M166 17l-140 158l37 174l206 153l-33 -154l-125 -91l85 -97z" />
    <glyph glyph-name="guilsinglright" unicode="&#x203a;" horiz-adv-x="269" 
d="M76 359l30 143l140 -158l-37 -174l-206 -153l33 154l125 93z" />
    <glyph glyph-name="guilsinglleft.case" horiz-adv-x="282" 
d="M191 117l-140 158l37 174l206 153l-33 -154l-125 -91l85 -97z" />
    <glyph glyph-name="guilsinglright.case" horiz-adv-x="281" 
d="M105 459l30 143l140 -158l-37 -174l-206 -153l33 154l125 93z" />
    <glyph glyph-name="guillemotleft" unicode="&#xab;" horiz-adv-x="480" 
d="M166 17l-140 158l37 174l206 153l-33 -154l-125 -91l85 -97zM376 17l-140 158l37 174l206 153l-33 -154l-125 -91l85 -97z" />
    <glyph glyph-name="guillemotright" unicode="&#xbb;" horiz-adv-x="479" 
d="M76 359l30 143l140 -158l-37 -174l-206 -153l33 154l125 93zM286 359l30 143l140 -158l-37 -174l-206 -153l33 154l125 93z" />
    <glyph glyph-name="guillemotleft.case" horiz-adv-x="492" 
d="M191 117l-140 158l37 174l206 153l-33 -154l-125 -91l85 -97zM401 117l-140 158l37 174l206 153l-33 -154l-125 -91l85 -97z" />
    <glyph glyph-name="guillemotright.case" horiz-adv-x="491" 
d="M105 459l30 143l140 -158l-37 -174l-206 -153l33 154l125 93zM315 459l30 143l140 -158l-37 -174l-206 -153l33 154l125 93z" />
    <glyph glyph-name="quotesingle" unicode="'" horiz-adv-x="230" 
d="M194 423h-96l44 277h138z" />
    <glyph glyph-name="quotedbl" unicode="&#x22;" horiz-adv-x="431" 
d="M194 423h-96l44 277h138zM395 423h-96l44 277h138z" />
    <glyph glyph-name="ampersand" unicode="&#x26;" horiz-adv-x="658" 
d="M465 0l-33 55c-55 -44 -119 -70 -195 -70c-127 0 -211 70 -211 194c0 122 94 187 193 223c-25 39 -49 83 -49 135c0 101 70 178 195 178c104 0 185 -45 185 -147c0 -105 -91 -158 -169 -196l87 -140c27 28 44 71 55 108h117c-17 -79 -54 -147 -112 -204l88 -136h-151z
M294 548c0 -37 18 -68 39 -100c59 27 100 62 100 111c0 36 -26 60 -67 60c-40 0 -72 -23 -72 -71zM375 149l-105 171c-58 -28 -109 -53 -109 -127c0 -53 34 -98 93 -98c53 0 88 25 121 54z" />
    <glyph glyph-name="at" unicode="@" horiz-adv-x="786" 
d="M520 435h86l-56 -225c-4 -13 -7 -34 -7 -42c0 -18 8 -27 24 -27c46 0 99 71 99 178c0 130 -96 216 -235 216c-147 0 -293 -111 -293 -294c0 -65 18 -130 61 -177c51 -53 117 -81 208 -81c55 0 115 7 162 42h111c-58 -91 -185 -124 -280 -124c-232 0 -359 131 -359 331
c0 215 158 385 389 385c192 0 327 -117 327 -291c0 -160 -99 -267 -203 -267c-37 0 -66 23 -75 52c-25 -32 -68 -56 -119 -56c-93 0 -149 68 -149 165c0 106 74 227 196 227c52 0 85 -18 105 -45h1zM411 360c-61 0 -103 -64 -103 -136c0 -49 23 -80 63 -80
c68 0 106 78 106 141c0 47 -27 75 -66 75z" />
    <glyph glyph-name="at.case" horiz-adv-x="789" 
d="M541 526h86l-56 -225c-4 -13 -7 -34 -7 -42c0 -18 8 -27 24 -27c46 0 99 71 99 178c0 130 -96 216 -235 216c-147 0 -293 -111 -293 -294c0 -65 18 -130 61 -177c51 -53 117 -81 208 -81c55 0 115 7 162 42h111c-58 -91 -185 -124 -280 -124c-232 0 -359 131 -359 331
c0 215 158 385 389 385c192 0 327 -117 327 -291c0 -160 -99 -267 -203 -267c-37 0 -66 23 -75 52c-25 -32 -68 -56 -119 -56c-93 0 -149 68 -149 165c0 106 74 227 196 227c52 0 85 -18 105 -45h1zM432 451c-61 0 -103 -64 -103 -136c0 -49 23 -80 63 -80
c68 0 106 78 106 141c0 47 -27 75 -66 75z" />
    <glyph glyph-name="section" unicode="&#xa7;" horiz-adv-x="585" 
d="M420 119v-2c29 -21 50 -54 50 -105c0 -111 -95 -175 -242 -175c-118 0 -224 41 -228 182h134c-3 -61 47 -87 104 -87c55 0 92 26 92 71c0 40 -26 55 -97 87l-51 23c-82 38 -137 74 -137 164c0 47 14 85 42 113c29 28 62 47 101 58v2c-25 20 -44 55 -44 100
c0 107 88 163 223 163c119 0 213 -38 213 -170h-126c0 53 -36 76 -95 76c-52 0 -82 -22 -82 -58c0 -33 22 -47 63 -66l83 -37c69 -30 129 -71 129 -165c0 -41 -13 -77 -38 -109s-57 -54 -94 -65zM263 224l84 -40c39 9 73 36 73 80c0 35 -24 60 -80 85l-84 38
c-37 -9 -73 -35 -73 -76s24 -60 80 -87z" />
    <glyph glyph-name="paragraph" unicode="&#xb6;" horiz-adv-x="640" 
d="M270 -147h-95l106 506c-113 0 -195 56 -195 165c0 71 30 127 101 155c35 15 73 21 142 21h320l-181 -847h-95l164 769h-103z" />
    <glyph glyph-name="dagger" unicode="&#x2020;" horiz-adv-x="522" 
d="M80 503h172l42 197h124l-42 -197h172l-25 -114h-172l-114 -536h-124l114 536h-172z" />
    <glyph glyph-name="daggerdbl" unicode="&#x2021;" horiz-adv-x="562" 
d="M373 389l-49 -226h172l-24 -114h-172l-42 -197h-124l42 197h-171l23 114h172l49 226h-172l24 114h172l42 197h124l-42 -197h172l-24 -114h-172z" />
    <glyph glyph-name="ordfeminine" unicode="&#xaa;" horiz-adv-x="396" 
d="M212 608h-92c15 73 74 105 161 105c73 0 130 -25 130 -88c0 -17 -2 -31 -6 -51l-28 -136c-1 -9 -4 -18 -4 -26c0 -5 1 -10 4 -15l-1 -3h-90l3 27h-1c-16 -17 -43 -32 -94 -32c-63 0 -107 33 -107 85c0 44 24 70 61 86c32 15 73 20 114 25l25 4c24 4 35 10 35 29
c0 20 -19 33 -51 33c-33 0 -52 -14 -59 -43zM226 450c27 0 56 9 69 33c4 7 5 14 8 27l7 34c-7 -5 -20 -9 -40 -13l-22 -5c-25 -5 -43 -9 -55 -18c-8 -6 -12 -15 -12 -27c0 -21 15 -31 45 -31z" />
    <glyph glyph-name="ordmasculine" unicode="&#xba;" horiz-adv-x="395" 
d="M245 391c-88 0 -150 50 -150 137c0 96 58 186 178 186c91 0 150 -49 150 -136c0 -94 -57 -187 -178 -187zM271 648c-58 0 -83 -70 -83 -122c0 -45 23 -69 60 -69c58 0 82 70 82 123c0 43 -22 68 -59 68z" />
    <glyph glyph-name="degree" unicode="&#xb0;" horiz-adv-x="376" 
d="M251 713c88 0 153 -63 153 -151c0 -87 -65 -151 -153 -151s-154 64 -154 151c0 88 66 151 154 151zM251 644c-45 0 -83 -33 -83 -82s38 -82 83 -82s82 33 82 82s-37 82 -82 82z" />
    <glyph glyph-name="uni2116" unicode="&#x2116;" horiz-adv-x="1125" 
d="M964 391c-88 0 -150 50 -150 137c0 96 58 186 178 186c91 0 150 -49 150 -136c0 -94 -57 -187 -178 -187zM318 700l130 -330c23 -54 54 -140 63 -176h2c7 49 20 119 37 204l64 302h138l-149 -700h-146l-138 348c-15 42 -44 124 -54 156h-2c-5 -39 -17 -118 -32 -189
l-67 -315h-137l148 700h143zM990 648c-58 0 -83 -70 -83 -122c0 -45 23 -69 60 -69c58 0 82 70 82 123c0 43 -22 68 -59 68zM779 231l20 93h280l-20 -93h-280z" />
    <glyph glyph-name="registered" unicode="&#xae;" horiz-adv-x="846" 
d="M809 350c0 -205 -163 -363 -372 -363c-195 0 -359 164 -359 363c0 202 162 363 365 363s366 -161 366 -363zM737 350c0 164 -133 297 -294 297c-162 0 -293 -133 -293 -297c0 -165 131 -297 299 -297c156 0 288 136 288 297zM291 142v414h177c32 0 48 -2 61 -6
c53 -17 84 -58 84 -111c0 -60 -32 -86 -67 -102c48 -17 59 -49 60 -113c1 -29 4 -61 9 -82h-87c-8 20 -10 45 -11 68l-1 30c-1 47 -27 64 -80 64h-59v-162h-86zM377 484v-110h76c43 0 74 8 74 57c0 43 -30 53 -71 53h-79z" />
    <glyph glyph-name="copyright" unicode="&#xa9;" horiz-adv-x="846" 
d="M809 350c0 -205 -163 -363 -372 -363c-195 0 -359 164 -359 363c0 202 162 363 365 363s366 -161 366 -363zM737 350c0 164 -133 297 -294 297c-162 0 -293 -133 -293 -297c0 -165 131 -297 299 -297c156 0 288 136 288 297zM537 275h86c-19 -89 -85 -146 -178 -146
c-124 0 -194 95 -194 215c0 123 69 218 195 218c91 0 162 -56 175 -149h-85c-5 43 -39 76 -90 76c-69 0 -105 -60 -105 -145s37 -142 105 -142c47 0 78 29 91 73z" />
    <glyph glyph-name="uni2117" unicode="&#x2117;" horiz-adv-x="846" 
d="M443 713c203 0 366 -161 366 -363c0 -205 -163 -363 -372 -363c-195 0 -359 164 -359 363c0 202 162 363 365 363zM737 350c0 164 -133 297 -294 297c-162 0 -293 -133 -293 -297c0 -165 131 -297 299 -297c156 0 288 136 288 297zM301 142v414h179
c100 0 149 -50 149 -129c0 -45 -15 -78 -46 -100s-68 -33 -111 -33h-84v-152h-87zM388 484v-117h71c43 0 81 17 81 60c0 47 -35 57 -82 57h-70z" />
    <glyph glyph-name="trademark" unicode="&#x2122;" horiz-adv-x="1067" 
d="M1018 238h-93v250l3 92h-1l-26 -87l-74 -255h-87l-74 243l-29 95h-2l3 -107v-231h-94v462h139l71 -239l30 -101h2l28 101l66 239h138v-462zM507 618h-149v-380h-93v380h-150v82h392v-82z" />
    <glyph glyph-name="uni2113" unicode="&#x2113;" horiz-adv-x="473" 
d="M425 147c-5 -95 -49 -159 -162 -159c-115 0 -159 42 -159 139v38l-69 -52v110l68 52v246c0 52 3 93 20 126c23 43 64 67 145 67c109 0 159 -51 159 -142c0 -105 -69 -215 -216 -340v-77c0 -55 9 -77 52 -77c23 0 37 7 42 22s8 30 9 47h111zM211 542v-193
c84 85 103 156 103 204c0 51 -16 71 -48 71c-41 0 -55 -22 -55 -82z" />
    <glyph glyph-name="estimated" unicode="&#x212e;" horiz-adv-x="598" 
d="M557 245h-376v-115c0 -40 27 -56 48 -67c23 -12 51 -15 79 -15c67 0 124 22 168 87h68c-57 -101 -133 -144 -236 -144c-152 0 -253 111 -253 266c0 147 96 269 253 269s249 -114 249 -281zM181 301h254v95c0 31 -20 48 -48 60c-23 10 -49 15 -80 15s-56 -5 -77 -14
c-29 -12 -49 -29 -49 -60v-96z" />
    <glyph glyph-name="asterisk" unicode="*" horiz-adv-x="478" 
d="M373 688l-28 -129l132 14l9 -87l-132 -15l55 -120l-80 -35l-55 120l-97 -88l-59 65l98 88l-114 67l44 75l113 -66l28 129z" />
    <glyph glyph-name="numbersign" unicode="#" 
d="M97 420l27 78h118l68 202h91l-68 -202h135l68 202h91l-68 -202h115l-27 -78h-114l-46 -136h117l-27 -78h-117l-69 -206h-91l69 206h-135l-69 -206h-91l69 206h-116l27 78h116l46 136h-119zM307 420l-46 -136h135l46 136h-135z" />
    <glyph glyph-name="currency" unicode="&#xa4;" 
d="M455 523l80 81l76 -77l-80 -81c20 -36 29 -66 29 -105c0 -40 -9 -71 -29 -107l80 -81l-76 -75l-80 79c-33 -19 -69 -28 -107 -28c-37 0 -72 9 -107 28l-79 -79l-77 75l81 81c-20 36 -29 67 -29 106c0 36 10 71 29 106l-81 81l77 77l79 -81c39 20 70 28 107 28
s70 -8 107 -28zM348 445c-57 0 -105 -48 -105 -105s48 -104 105 -104c59 0 104 47 104 104c0 59 -45 105 -104 105z" />
    <glyph glyph-name="dollar" unicode="$" horiz-adv-x="635" 
d="M29 219h142c3 -57 32 -91 76 -107l41 191l-10 4c-86 28 -174 69 -174 187c0 152 129 211 266 211h3l20 100h74l-22 -107c101 -20 177 -81 178 -202h-137c0 49 -25 80 -64 93l-38 -179l15 -5c104 -34 190 -67 190 -186c0 -126 -95 -224 -281 -224h-12l-21 -102h-74l23 108
c-120 21 -190 91 -195 218zM245 515c0 -41 23 -63 70 -82l35 166c-67 -4 -105 -33 -105 -84zM447 199c0 52 -47 67 -90 81l-38 -178c79 1 128 34 128 97z" />
    <glyph glyph-name="Euro" unicode="&#x20ac;" horiz-adv-x="659" 
d="M262 387c-5 -24 -8 -49 -11 -72h183l-34 -70h-153v-12c0 -72 24 -138 97 -138c63 0 108 46 137 127h131c-43 -141 -135 -235 -282 -235c-135 0 -213 108 -213 258h-74l33 70h44c3 24 6 48 10 72h-58l34 70h42c46 141 140 256 295 256c139 0 216 -84 216 -240h-128
c0 75 -29 131 -100 131c-73 0 -121 -64 -149 -147h222l-34 -70h-208z" />
    <glyph glyph-name="sterling" unicode="&#xa3;" horiz-adv-x="594" 
d="M51 -7l-39 84c87 44 150 106 150 187c0 17 -2 33 -7 50h-95l12 66h70c-9 21 -20 65 -20 106c0 136 108 227 252 227c135 0 221 -71 221 -195c0 -11 -1 -25 -3 -40h-121c1 8 1 15 1 23c0 59 -25 108 -104 108c-80 0 -117 -50 -117 -121c0 -28 7 -64 22 -108h124l-12 -66
h-100c0 -5 1 -12 1 -17c0 -87 -51 -149 -118 -193l1 -4c36 19 59 20 76 20c61 0 100 -24 154 -24c35 0 64 13 88 33l37 -83c-52 -40 -108 -58 -160 -58c-89 0 -116 39 -196 39c-32 0 -74 -6 -117 -34z" />
    <glyph glyph-name="yen" unicode="&#xa5;" horiz-adv-x="647" 
d="M576 146h-213l-31 -146h-140l31 146h-198l15 71h198l11 49l-15 56h-172l15 71h137l-83 307h147l66 -306l208 306h149l-221 -307h149l-15 -71h-185l-40 -56l-11 -49h213z" />
    <glyph glyph-name="florin" unicode="&#x192;" 
d="M409 347l-56 -318c-26 -149 -58 -208 -172 -208c-29 0 -65 4 -85 8l20 106c11 -1 26 -4 35 -4c61 0 68 48 78 106l54 310h-84l19 108h83l14 74c24 130 54 184 167 184c25 0 62 -2 87 -9l-18 -104c-11 3 -26 3 -34 3c-49 0 -67 -29 -76 -76l-13 -72h99l-19 -108h-99z" />
    <glyph glyph-name="cent" unicode="&#xa2;" horiz-adv-x="597" 
d="M411 175h133c-34 -110 -129 -188 -257 -190l-19 -92h-74l21 101c-97 24 -161 102 -161 226c0 166 101 307 275 311l20 94h74l-21 -100c91 -20 151 -85 159 -182h-128c-8 37 -26 62 -54 74l-69 -324c48 7 80 39 101 82zM189 215c0 -56 18 -91 49 -110l68 318
c-80 -18 -117 -118 -117 -208z" />
    <glyph glyph-name="plus" unicode="+" 
d="M408 608v-202h201v-112h-201v-201h-114v201h-202v112h202v202h114z" />
    <glyph glyph-name="plus.ss06" 
d="M388 515v-202h201v-112h-201v-201h-114v201h-202v112h202v202h114z" />
    <glyph glyph-name="minus" unicode="&#x2212;" 
d="M95 293v112h507v-112h-507z" />
    <glyph glyph-name="minus.ss06" 
d="M77 200v112h507v-112h-507z" />
    <glyph glyph-name="multiply" unicode="&#xd7;" 
d="M108 183l166 165l-166 166l77 77l166 -166l164 164l77 -77l-165 -163l165 -165l-77 -77l-165 165l-165 -166z" />
    <glyph glyph-name="x.ss20" 
d="M106 183l166 165l-166 166l77 77l166 -166l164 164l77 -77l-165 -163l165 -165l-77 -77l-165 165l-165 -166z" />
    <glyph glyph-name="multiply.ss06" 
d="M88 90l166 165l-166 166l77 77l166 -166l164 164l77 -77l-165 -163l165 -165l-77 -77l-165 165l-165 -166z" />
    <glyph glyph-name="divide" unicode="&#xf7;" 
d="M270 560c0 44 36 80 80 80s80 -36 80 -80s-36 -80 -80 -80s-80 36 -80 80zM97 293v112h507v-112h-507zM270 138c0 44 36 80 80 80s80 -36 80 -80s-36 -80 -80 -80s-80 36 -80 80z" />
    <glyph glyph-name="divide.ss06" 
d="M250 467c0 44 36 80 80 80s80 -36 80 -80s-36 -80 -80 -80s-80 36 -80 80zM77 200v112h507v-112h-507zM250 45c0 44 36 80 80 80s80 -36 80 -80s-36 -80 -80 -80s-80 36 -80 80z" />
    <glyph glyph-name="plusminus" unicode="&#xb1;" 
d="M394 651v-156h197v-112h-197v-151h-114v151h-198v112h198v156h114zM81 70v112h510v-112h-510z" />
    <glyph glyph-name="plusminus.ss06" 
d="M379 558v-156h197v-112h-197v-151h-114v151h-198v112h198v156h114zM66 -23v112h510v-112h-510z" />
    <glyph glyph-name="equal" unicode="=" 
d="M91 413v112h507v-112h-507zM91 176v112h507v-112h-507z" />
    <glyph glyph-name="equal.ss06" 
d="M77 320v112h507v-112h-507zM77 83v112h507v-112h-507z" />
    <glyph glyph-name="notequal" unicode="&#x2260;" 
d="M90 412v112h270l53 128h92l-53 -128h145v-112h-190l-51 -125h241v-112h-287l-54 -132h-92l54 132h-128v112h174l51 125h-225z" />
    <glyph glyph-name="notequal.ss06" 
d="M76 319v112h270l53 128h92l-53 -128h145v-112h-190l-51 -125h241v-112h-287l-54 -132h-92l54 132h-128v112h174l51 125h-225z" />
    <glyph glyph-name="logicalnot" unicode="&#xac;" 
d="M87 404v111h500v-353h-114v242h-386z" />
    <glyph glyph-name="logicalnot.ss06" 
d="M73 311v111h500v-353h-114v242h-386z" />
    <glyph glyph-name="approxequal" unicode="&#x2248;" 
d="M245 395h-77c11 72 50 114 111 114c27 0 53 -7 80 -14c20 -5 40 -10 55 -10c19 0 36 8 41 24h77c-9 -72 -48 -114 -111 -114c-27 0 -53 9 -80 14c-20 5 -40 9 -55 9c-17 0 -34 -7 -41 -23zM245 194h-77c11 72 50 114 111 114c27 0 53 -7 80 -14c20 -5 40 -10 55 -10
c19 0 36 8 41 24h77c-9 -72 -48 -114 -111 -114c-27 0 -53 9 -80 14c-20 5 -40 9 -55 9c-17 0 -34 -7 -41 -23z" />
    <glyph glyph-name="approxequal.ss06" 
d="M226 302h-77c11 72 50 114 111 114c27 0 53 -7 80 -14c20 -5 40 -10 55 -10c19 0 36 8 41 24h77c-9 -72 -48 -114 -111 -114c-27 0 -53 9 -80 14c-20 5 -40 9 -55 9c-17 0 -34 -7 -41 -23zM226 101h-77c11 72 50 114 111 114c27 0 53 -7 80 -14c20 -5 40 -10 55 -10
c19 0 36 8 41 24h77c-9 -72 -48 -114 -111 -114c-27 0 -53 9 -80 14c-20 5 -40 9 -55 9c-17 0 -34 -7 -41 -23z" />
    <glyph glyph-name="infinity" unicode="&#x221e;" horiz-adv-x="847" 
d="M247 526c37 0 71 -10 100 -31c30 -20 62 -45 97 -74c68 59 121 105 194 105c108 0 176 -73 176 -178c0 -87 -54 -175 -172 -175c-85 0 -144 58 -200 110c-60 -54 -114 -110 -199 -110c-117 0 -172 88 -172 175c0 105 68 178 176 178zM635 278c45 0 72 28 72 73
c0 40 -27 72 -70 72s-90 -37 -133 -74c43 -35 82 -71 131 -71zM250 278c51 0 90 36 131 71c-43 37 -90 74 -133 74s-70 -32 -70 -72c0 -45 27 -73 72 -73z" />
    <glyph glyph-name="infinity.ss06" horiz-adv-x="847" 
d="M229 433c37 0 71 -10 100 -31c30 -20 62 -45 97 -74c68 59 121 105 194 105c108 0 176 -73 176 -178c0 -87 -54 -175 -172 -175c-85 0 -144 58 -200 110c-60 -54 -114 -110 -199 -110c-117 0 -172 88 -172 175c0 105 68 178 176 178zM617 185c45 0 72 28 72 73
c0 40 -27 72 -70 72s-90 -37 -133 -74c43 -35 82 -71 131 -71zM232 185c51 0 90 36 131 71c-43 37 -90 74 -133 74s-70 -32 -70 -72c0 -45 27 -73 72 -73z" />
    <glyph glyph-name="less" unicode="&#x3c;" 
d="M541 54l-432 245v92l432 251v-122l-233 -127l-77 -42v-3l77 -43l233 -129v-122z" />
    <glyph glyph-name="less_hyphen" horiz-adv-x="663" 
d="M615 199h-227c-47 0 -91 2 -150 2v-3c27 -29 60 -56 99 -99l87 -88h-154l-116 123c-40 43 -82 86 -117 123c35 36 76 80 117 123l116 123h154l-87 -88c-51 -53 -68 -70 -99 -101v-3c27 2 54 2 151 2h226v-114z" />
    <glyph glyph-name="less_hyphen.case" horiz-adv-x="673" 
d="M647 312h-227c-47 0 -91 2 -150 2v-3c27 -29 60 -56 99 -99l87 -88h-154l-116 123c-40 43 -82 86 -117 123c35 36 76 80 117 123l116 123h154l-87 -88c-51 -53 -68 -70 -99 -101v-3c27 2 54 2 151 2h226v-114z" />
    <glyph glyph-name="greater" unicode="&#x3e;" 
d="M159 53v122l233 129l77 43v3l-77 42l-233 127v122l432 -251v-92z" />
    <glyph glyph-name="hyphen_greater" horiz-adv-x="664" 
d="M49 199v114h226c97 0 124 0 151 -2v3c-31 31 -46 48 -99 101l-87 88h154l116 -123c41 -43 82 -87 117 -123c-33 -37 -77 -80 -117 -123l-116 -123h-154l87 88c39 43 74 70 99 99v3c-59 0 -103 -2 -150 -2h-227z" />
    <glyph glyph-name="hyphen_greater.case" horiz-adv-x="673" 
d="M75 312v114h226c97 0 124 0 151 -2v3c-31 31 -46 48 -99 101l-87 88h154l116 -123c41 -43 82 -87 117 -123c-33 -37 -77 -80 -117 -123l-116 -123h-154l87 88c39 43 74 70 99 99v3c-59 0 -103 -2 -150 -2h-227z" />
    <glyph glyph-name="lessequal" unicode="&#x2264;" 
d="M547 126l-432 245v92l432 251v-122l-233 -127l-77 -42v-3l77 -43l233 -129v-122zM115 0v102h432v-102h-432z" />
    <glyph glyph-name="greaterequal" unicode="&#x2265;" 
d="M135 126v122l233 129l77 43v3l-77 42l-233 127v122l432 -251v-92zM567 0h-432v102h432v-102z" />
    <glyph glyph-name="increment" unicode="&#x2206;" horiz-adv-x="706" 
d="M393 700l246 -700h-638l252 700h140zM282 432l-104 -322h289l-107 323l-38 124h-2z" />
    <glyph glyph-name="summation" unicode="&#x2211;" 
d="M67 20l250 287l-246 288v105h533v-110h-353l237 -273l-246 -286h373v-111h-548v100z" />
    <glyph glyph-name="product" unicode="&#x220f;" horiz-adv-x="862" 
d="M853 590h-107v-670h-138v670h-251v-670h-138v670h-107v110h741v-110z" />
    <glyph glyph-name="Omega" unicode="&#x2126;" horiz-adv-x="805" 
d="M724 385c0 -121 -40 -206 -125 -275v-2h124v-108h-270v103c85 59 136 142 136 269c0 129 -64 232 -182 232s-182 -105 -182 -232s51 -210 136 -269v-103h-270v108h124v2c-85 69 -125 154 -125 275c0 167 112 328 317 328s317 -161 317 -328z" />
    <glyph glyph-name="radical" unicode="&#x221a;" 
d="M79 403v112h207l83 -283l23 -82h2l23 82l143 468h134l-238 -700h-135l-135 403h-107z" />
    <glyph glyph-name="lozenge" unicode="&#x25ca;" 
d="M634 349l-236 -349h-98l-232 349l232 351h98zM210 349l140 -216l149 216l-149 217z" />
    <glyph glyph-name="integral" unicode="&#x222b;" 
d="M441 527l-88 -498c-26 -149 -58 -208 -172 -208c-29 0 -65 4 -85 8l20 106c11 -1 26 -4 35 -4c61 0 68 48 78 106l86 492c24 130 54 184 167 184c25 0 62 -2 87 -9l-18 -104c-11 3 -26 3 -34 3c-49 0 -68 -29 -76 -76z" />
    <glyph glyph-name="mu" unicode="&#xb5;" horiz-adv-x="630" 
d="M545 0h-127v70c-25 -53 -77 -83 -138 -83c-25 0 -48 7 -69 20c1 -15 1 -39 1 -72c0 -11 -1 -28 -2 -50c-1 -23 -4 -42 -9 -57h-134c13 43 14 101 14 166v521h133v-284c0 -25 2 -46 6 -61c15 -55 50 -74 93 -74c55 0 99 38 99 127v292h133v-515z" />
    <glyph glyph-name="partialdiff" unicode="&#x2202;" 
d="M200 529c9 111 81 187 188 187c140 0 188 -129 188 -278c0 -85 -15 -169 -43 -240c-27 -68 -66 -120 -117 -159c-45 -35 -99 -52 -150 -52c-117 0 -176 77 -176 177c0 72 27 132 79 185c63 64 152 98 285 102c0 39 -2 77 -9 102c-9 44 -32 65 -59 65
c-33 0 -63 -32 -70 -115zM282 84c81 0 154 156 167 274c-57 -4 -108 -19 -143 -42c-49 -33 -78 -93 -78 -158c0 -45 22 -74 54 -74z" />
    <glyph glyph-name="asciicircum" unicode="^" horiz-adv-x="566" 
d="M248 700h133l185 -330h-113l-91 167l-46 89h-3l-46 -89l-93 -167h-111z" />
    <glyph glyph-name="asciitilde" unicode="~" 
d="M256 339h-77c11 72 50 114 111 114c27 0 53 -7 80 -14c20 -5 40 -10 55 -10c19 0 36 8 41 24h77c-9 -72 -48 -114 -111 -114c-27 0 -53 9 -80 14c-20 5 -40 9 -55 9c-17 0 -34 -7 -41 -23z" />
    <glyph glyph-name="pi" unicode="&#x3c0;" horiz-adv-x="700" 
d="M62 415v100h590v-100h-84v-252c0 -59 15 -65 66 -65h15v-98h-50c-53 0 -75 1 -92 5c-40 9 -62 32 -69 81c-2 13 -3 31 -3 52v277h-150v-415h-133v415h-90z" />
    <glyph glyph-name="fraction" unicode="&#x2044;" horiz-adv-x="180" 
d="M338 700l-370 -700h-85l369 700h86z" />
    <glyph glyph-name="percent" unicode="%" horiz-adv-x="931" 
d="M230 282c-93 0 -147 60 -147 155c0 117 61 275 208 275c96 0 151 -58 151 -155c0 -120 -61 -275 -212 -275zM236 356c79 0 109 137 109 204c0 40 -15 77 -58 77c-79 0 -108 -136 -108 -204c0 -39 13 -77 57 -77zM677 -11c-93 0 -147 60 -147 155c0 117 61 275 208 275
c96 0 151 -58 151 -155c0 -120 -61 -275 -212 -275zM683 63c79 0 109 137 109 204c0 40 -15 77 -58 77c-79 0 -108 -136 -108 -204c0 -39 13 -77 57 -77zM718 700l-370 -700h-85l369 700h86z" />
    <glyph glyph-name="perthousand" unicode="&#x2030;" horiz-adv-x="1335" 
d="M1076 -11c-93 0 -147 60 -147 155c0 117 61 275 208 275c96 0 151 -58 151 -155c0 -120 -61 -275 -212 -275zM1082 63c79 0 109 137 109 204c0 40 -15 77 -58 77c-79 0 -108 -136 -108 -204c0 -39 13 -77 57 -77zM230 282c-93 0 -147 60 -147 155c0 117 61 275 208 275
c96 0 151 -58 151 -155c0 -120 -61 -275 -212 -275zM236 356c79 0 109 137 109 204c0 40 -15 77 -58 77c-79 0 -108 -136 -108 -204c0 -39 13 -77 57 -77zM681 -11c-93 0 -147 60 -147 155c0 117 61 275 208 275c96 0 151 -58 151 -155c0 -120 -61 -275 -212 -275zM687 63
c79 0 109 137 109 204c0 40 -15 77 -58 77c-79 0 -108 -136 -108 -204c0 -39 13 -77 57 -77zM722 700l-370 -700h-85l369 700h86z" />
    <glyph glyph-name="onehalf" unicode="&#xbd;" horiz-adv-x="824" 
d="M88 555l13 62c71 0 123 23 142 83h77l-89 -420h-92l59 275h-110zM751 75l-17 -75h-336c10 108 91 150 169 188l48 23c45 23 75 46 75 86c0 33 -20 54 -64 54c-52 0 -80 -36 -83 -91h-91c8 105 76 165 179 165c91 0 154 -43 154 -122c0 -75 -62 -122 -134 -156l-33 -17
c-29 -13 -59 -27 -82 -55h215zM622 700l-370 -700h-85l369 700h86z" />
    <glyph glyph-name="onequarter" unicode="&#xbc;" horiz-adv-x="783" 
d="M546 0l19 90h-204l18 82l252 248h96l-56 -257h62l-15 -73h-62l-19 -90h-91zM453 163h126l26 112l12 52l-67 -69zM88 555l13 62c71 0 123 23 142 83h77l-89 -420h-92l59 275h-110zM619 700l-370 -700h-85l369 700h86z" />
    <glyph glyph-name="threequarters" unicode="&#xbe;" horiz-adv-x="882" 
d="M71 437h87c-1 -3 -1 -6 -1 -9c0 -51 25 -76 74 -76c47 0 84 25 84 72c0 35 -31 51 -70 51h-33l14 63h29c42 0 87 10 87 56c0 35 -27 49 -64 49c-46 0 -73 -25 -80 -74h-88c11 92 76 143 173 143c41 0 75 -9 104 -26s44 -43 44 -80c0 -52 -32 -86 -79 -99
c33 -13 56 -47 56 -87c0 -85 -67 -138 -176 -138c-122 0 -162 61 -162 133c0 7 0 15 1 22zM647 0l19 90h-204l18 82l252 248h96l-56 -257h62l-15 -73h-62l-19 -90h-91zM554 163h126l26 112l12 52l-67 -69zM717 700l-370 -700h-85l369 700h86z" />
    <glyph glyph-name="fiveeighths" unicode="&#x215d;" horiz-adv-x="948" 
d="M420 440c0 -97 -70 -165 -191 -165c-105 0 -165 54 -165 133l94 2c4 -41 33 -65 78 -65c56 0 90 37 90 84c0 45 -33 73 -80 73c-36 0 -61 -16 -74 -36h-86l81 234h281l-18 -73h-201l-27 -80c28 15 53 19 77 19c81 0 141 -49 141 -126zM822 214v-2c37 -16 62 -50 62 -93
c0 -84 -79 -129 -188 -129c-49 0 -91 10 -125 31c-33 21 -50 50 -50 88c0 59 44 99 107 112v2c-33 15 -50 43 -50 82c0 71 66 115 167 115c95 0 159 -41 159 -108c0 -45 -35 -86 -82 -98zM743 357c-47 0 -78 -21 -78 -57s33 -55 74 -55c44 0 78 21 78 57c0 35 -31 55 -74 55
zM700 55c56 0 92 26 92 67c0 43 -40 63 -88 63c-49 0 -91 -25 -91 -66c0 -40 38 -64 87 -64zM722 700l-370 -700h-85l369 700h86z" />
    <glyph glyph-name="oneeighth" unicode="&#x215b;" horiz-adv-x="848" 
d="M88 555l13 62c71 0 123 23 142 83h77l-89 -420h-92l59 275h-110zM721 214v-2c37 -16 62 -50 62 -93c0 -84 -79 -129 -188 -129c-49 0 -91 10 -125 31c-33 21 -50 50 -50 88c0 59 44 99 107 112v2c-33 15 -50 43 -50 82c0 71 66 115 167 115c95 0 159 -41 159 -108
c0 -45 -35 -86 -82 -98zM642 357c-47 0 -78 -21 -78 -57s33 -55 74 -55c44 0 78 21 78 57c0 35 -31 55 -74 55zM599 55c56 0 92 26 92 67c0 43 -40 63 -88 63c-49 0 -91 -25 -91 -66c0 -40 38 -64 87 -64zM617 700l-370 -700h-85l369 700h86z" />
    <glyph glyph-name="onethird" unicode="&#x2153;" horiz-adv-x="828" 
d="M426 144h87c-1 -3 -1 -6 -1 -9c0 -51 25 -76 74 -76c47 0 84 25 84 72c0 35 -31 51 -70 51h-33l14 63h29c42 0 87 10 87 56c0 35 -27 49 -64 49c-46 0 -73 -25 -80 -74h-88c11 92 76 143 173 143c41 0 75 -9 104 -26s44 -43 44 -80c0 -52 -32 -86 -79 -99
c33 -13 56 -47 56 -87c0 -85 -67 -138 -176 -138c-122 0 -162 61 -162 133c0 7 0 15 1 22zM88 555l13 62c71 0 123 23 142 83h77l-89 -420h-92l59 275h-110zM616 700l-370 -700h-85l369 700h86z" />
    <glyph glyph-name="threeeighths" unicode="&#x215c;" horiz-adv-x="947" 
d="M71 437h87c-1 -3 -1 -6 -1 -9c0 -51 25 -76 74 -76c47 0 84 25 84 72c0 35 -31 51 -70 51h-33l14 63h29c42 0 87 10 87 56c0 35 -27 49 -64 49c-46 0 -73 -25 -80 -74h-88c11 92 76 143 173 143c41 0 75 -9 104 -26s44 -43 44 -80c0 -52 -32 -86 -79 -99
c33 -13 56 -47 56 -87c0 -85 -67 -138 -176 -138c-122 0 -162 61 -162 133c0 7 0 15 1 22zM821 214v-2c37 -16 62 -50 62 -93c0 -84 -79 -129 -188 -129c-49 0 -91 10 -125 31c-33 21 -50 50 -50 88c0 59 44 99 107 112v2c-33 15 -50 43 -50 82c0 71 66 115 167 115
c95 0 159 -41 159 -108c0 -45 -35 -86 -82 -98zM742 357c-47 0 -78 -21 -78 -57s33 -55 74 -55c44 0 78 21 78 57c0 35 -31 55 -74 55zM699 55c56 0 92 26 92 67c0 43 -40 63 -88 63c-49 0 -91 -25 -91 -66c0 -40 38 -64 87 -64zM720 700l-370 -700h-85l369 700h86z" />
    <glyph glyph-name="seveneighths" unicode="&#x215e;" horiz-adv-x="848" 
d="M102 625l17 75h331l-15 -70c-103 -75 -200 -219 -232 -350h-101c35 131 116 252 225 345h-225zM720 214v-2c37 -16 62 -50 62 -93c0 -84 -79 -129 -188 -129c-49 0 -91 10 -125 31c-33 21 -50 50 -50 88c0 59 44 99 107 112v2c-33 15 -50 43 -50 82c0 71 66 115 167 115
c95 0 159 -41 159 -108c0 -45 -35 -86 -82 -98zM641 357c-47 0 -78 -21 -78 -57s33 -55 74 -55c44 0 78 21 78 57c0 35 -31 55 -74 55zM598 55c56 0 92 26 92 67c0 43 -40 63 -88 63c-49 0 -91 -25 -91 -66c0 -40 38 -64 87 -64zM619 700l-370 -700h-85l369 700h86z" />
    <glyph glyph-name="twothirds" unicode="&#x2154;" horiz-adv-x="965" 
d="M405 360l-17 -75h-336c10 108 91 150 169 188l48 23c45 23 75 46 75 86c0 33 -20 54 -64 54c-52 0 -80 -36 -83 -91h-91c8 105 76 165 179 165c91 0 154 -43 154 -122c0 -75 -62 -122 -134 -156l-33 -17c-29 -13 -59 -27 -82 -55h215zM566 144h87c-1 -3 -1 -6 -1 -9
c0 -51 25 -76 74 -76c47 0 84 25 84 72c0 35 -31 51 -70 51h-33l14 63h29c42 0 87 10 87 56c0 35 -27 49 -64 49c-46 0 -73 -25 -80 -74h-88c11 92 76 143 173 143c41 0 75 -9 104 -26s44 -43 44 -80c0 -52 -32 -86 -79 -99c33 -13 56 -47 56 -87c0 -85 -67 -138 -176 -138
c-122 0 -162 61 -162 133c0 7 0 15 1 22zM759 700l-370 -700h-85l369 700h86z" />
    <glyph glyph-name="arrowleft" unicode="&#x2190;" horiz-adv-x="663" 
d="M615 199h-227c-47 0 -91 2 -150 2v-3c27 -29 60 -56 99 -99l87 -88h-154l-116 123c-40 43 -82 86 -117 123c35 36 76 80 117 123l116 123h154l-87 -88c-51 -53 -68 -70 -99 -101v-3c27 2 54 2 151 2h226v-114z" />
    <glyph glyph-name="uni2196" unicode="&#x2196;" horiz-adv-x="612" 
d="M551 120l-82 -82l-163 164c-69 69 -86 88 -105 109l-3 -3c2 -44 0 -66 0 -141v-124l-107 106l5 169c3 59 4 120 5 169c51 3 112 2 169 5l169 5l106 -106h-123c-57 0 -101 3 -140 0l-2 -2c41 -41 74 -72 107 -105z" />
    <glyph glyph-name="arrowup" unicode="&#x2191;" horiz-adv-x="593" 
d="M358 -13h-116v231c0 97 1 124 3 151h-4c-29 -31 -47 -46 -100 -99l-88 -87v149l123 116c43 41 87 83 123 116c39 -33 80 -77 123 -116l123 -116v-149l-87 87c-41 41 -70 74 -99 99h-3c0 -59 2 -103 2 -150v-232z" />
    <glyph glyph-name="uni2197" unicode="&#x2197;" horiz-adv-x="612" 
d="M68 120l164 164c33 33 66 64 107 105l-2 2c-39 3 -81 0 -140 0h-123l106 106l169 -5c59 -3 118 -2 169 -5c1 -49 4 -110 5 -169l5 -169l-107 -106v124v141l-3 3c-17 -21 -36 -40 -105 -109l-163 -164z" />
    <glyph glyph-name="arrowright" unicode="&#x2192;" horiz-adv-x="664" 
d="M49 199v114h226c97 0 124 0 151 -2v3c-31 31 -46 48 -99 101l-87 88h154l116 -123c41 -43 82 -87 117 -123c-33 -37 -77 -80 -117 -123l-116 -123h-154l87 88c39 43 74 70 99 99v3c-59 0 -103 -2 -150 -2h-227z" />
    <glyph glyph-name="uni2198" unicode="&#x2198;" horiz-adv-x="612" 
d="M68 422l82 82l163 -164c69 -69 88 -88 105 -109l3 3v141v124l107 -106l-5 -169c-1 -59 -4 -118 -5 -169c-51 -1 -110 -2 -169 -5l-169 -5l-106 106h123c59 0 101 -1 140 0l2 2c-41 43 -74 72 -107 105z" />
    <glyph glyph-name="arrowdown" unicode="&#x2193;" horiz-adv-x="593" 
d="M357 535v-232c0 -45 -2 -91 -2 -150h3c29 27 58 58 99 99l87 87v-149l-123 -116c-43 -39 -84 -81 -123 -116c-36 35 -80 75 -123 116l-123 116v149l88 -87c53 -51 71 -68 100 -99h4c-2 27 -3 54 -3 151v231h116z" />
    <glyph glyph-name="uni2199" unicode="&#x2199;" horiz-adv-x="612" 
d="M551 421l-164 -164c-33 -33 -66 -62 -107 -105l2 -2c39 -1 83 0 140 0h123l-106 -106l-169 5c-57 3 -118 4 -169 5c-1 51 -2 110 -5 169l-5 169l107 106v-124c0 -73 2 -98 0 -141l3 -3c19 21 36 40 105 109l163 164z" />
    <glyph glyph-name="arrowleft.case" horiz-adv-x="673" 
d="M647 312h-227c-47 0 -91 2 -150 2v-3c27 -29 60 -56 99 -99l87 -88h-154l-116 123c-40 43 -82 86 -117 123c35 36 76 80 117 123l116 123h154l-87 -88c-51 -53 -68 -70 -99 -101v-3c27 2 54 2 151 2h226v-114z" />
    <glyph glyph-name="uni2196.case" horiz-adv-x="599" 
d="M568 233l-82 -82l-163 164c-69 69 -86 88 -105 109l-3 -3c2 -44 0 -66 0 -141v-124l-107 106l5 169c3 59 4 120 5 169c51 3 112 2 169 5l169 5l106 -106h-123c-57 0 -101 3 -140 0l-2 -2c41 -41 74 -72 107 -105z" />
    <glyph glyph-name="arrowup.case" horiz-adv-x="599" 
d="M383 100h-116v231c0 97 1 124 3 151h-4c-29 -31 -47 -46 -100 -99l-88 -87v149l123 116c43 41 87 83 123 116c39 -33 80 -77 123 -116l123 -116v-149l-87 87c-41 41 -70 74 -99 99h-3c0 -59 2 -103 2 -150v-232z" />
    <glyph glyph-name="uni2197.case" horiz-adv-x="578" 
d="M75 233l164 164c33 33 66 64 107 105l-2 2c-39 3 -81 0 -140 0h-123l106 106l169 -5c59 -3 118 -2 169 -5c1 -49 4 -110 5 -169l5 -169l-107 -106v124v141l-3 3c-17 -21 -36 -40 -105 -109l-163 -164z" />
    <glyph glyph-name="arrowright.case" horiz-adv-x="673" 
d="M75 312v114h226c97 0 124 0 151 -2v3c-31 31 -46 48 -99 101l-87 88h154l116 -123c41 -43 82 -87 117 -123c-33 -37 -77 -80 -117 -123l-116 -123h-154l87 88c39 43 74 70 99 99v3c-59 0 -103 -2 -150 -2h-227z" />
    <glyph glyph-name="uni2198.case" horiz-adv-x="599" 
d="M86 535l82 82l163 -164c69 -69 88 -88 105 -109l3 3v141v124l107 -106l-5 -169c-1 -59 -4 -118 -5 -169c-51 -1 -110 -2 -169 -5l-169 -5l-106 106h123c59 0 101 -1 140 0l2 2c-41 43 -74 72 -107 105z" />
    <glyph glyph-name="arrowdown.case" horiz-adv-x="599" 
d="M385 648v-232c0 -45 -2 -91 -2 -150h3c29 27 58 58 99 99l87 87v-149l-123 -116c-43 -39 -84 -81 -123 -116c-36 35 -80 75 -123 116l-123 116v149l88 -87c53 -51 71 -68 100 -99h4c-2 27 -3 54 -3 151v231h116z" />
    <glyph glyph-name="uni2199.case" horiz-adv-x="576" 
d="M557 534l-164 -164c-33 -33 -66 -62 -107 -105l2 -2c39 -1 83 0 140 0h123l-106 -106l-169 5c-57 3 -118 4 -169 5c-1 51 -2 110 -5 169l-5 169l107 106v-124c0 -73 2 -98 0 -141l3 -3c19 21 36 40 105 109l163 164z" />
    <glyph glyph-name="uni1E9E" unicode="&#x1e9e;" horiz-adv-x="681" 
d="M317 339l21 97l176 156c-23 0 -61 -1 -88 -1h-143l-126 -591h-137l148 700h519l-23 -106l-184 -163c97 -25 154 -98 154 -194c0 -168 -109 -248 -265 -248c-51 0 -112 11 -147 30l50 106c17 -12 55 -26 95 -26c76 0 135 38 135 129c0 82 -67 114 -145 114
c-13 0 -27 -1 -40 -3z" />
    <glyph glyph-name="uni03BC" unicode="&#x3bc;" horiz-adv-x="619" 
d="M542 0h-127v70c-25 -53 -77 -83 -138 -83c-25 0 -48 7 -69 20c1 -15 1 -39 1 -72c0 -11 -1 -28 -2 -50c-1 -23 -4 -42 -9 -57h-134c13 43 14 101 14 166v521h133v-284c0 -25 2 -46 6 -61c15 -55 50 -74 93 -74c55 0 99 38 99 127v292h133v-515z" />
    <glyph glyph-name="uni03A9" unicode="&#x3a9;" horiz-adv-x="767" 
d="M707 385c0 -121 -40 -206 -125 -275v-2h124v-108h-270v103c85 59 136 142 136 269c0 129 -64 232 -182 232s-182 -105 -182 -232s51 -210 136 -269v-103h-270v108h124v2c-85 69 -125 154 -125 275c0 167 112 328 317 328s317 -161 317 -328z" />
    <glyph glyph-name="uni0394" unicode="&#x394;" horiz-adv-x="645" 
d="M372 700l246 -700h-638l252 700h140zM261 432l-104 -322h289l-107 323l-38 124h-2z" />
    <glyph glyph-name="uni2015" unicode="&#x2015;" horiz-adv-x="1115" 
d="M50 229l25 114h1002l-25 -114h-1002z" />
    </font>
</defs>
</svg>
